%TF.GenerationSoftware,KiCad,Pcbnew,8.0.5*%
%TF.CreationDate,2025-10-24T05:58:17-05:00*%
%TF.ProjectId,iris-128s-adapter,69726973-2d31-4323-9873-2d6164617074,1.0.0*%
%TF.SameCoordinates,Original*%
%TF.FileFunction,Legend,Bot*%
%TF.FilePolarity,Positive*%
%FSLAX46Y46*%
G04 Gerber Fmt 4.6, Leading zero omitted, Abs format (unit mm)*
G04 Created by KiCad (PCBNEW 8.0.5) date 2025-10-24 05:58:17*
%MOMM*%
%LPD*%
G01*
G04 APERTURE LIST*
G04 Aperture macros list*
%AMRoundRect*
0 Rectangle with rounded corners*
0 $1 Rounding radius*
0 $2 $3 $4 $5 $6 $7 $8 $9 X,Y pos of 4 corners*
0 Add a 4 corners polygon primitive as box body*
4,1,4,$2,$3,$4,$5,$6,$7,$8,$9,$2,$3,0*
0 Add four circle primitives for the rounded corners*
1,1,$1+$1,$2,$3*
1,1,$1+$1,$4,$5*
1,1,$1+$1,$6,$7*
1,1,$1+$1,$8,$9*
0 Add four rect primitives between the rounded corners*
20,1,$1+$1,$2,$3,$4,$5,0*
20,1,$1+$1,$4,$5,$6,$7,0*
20,1,$1+$1,$6,$7,$8,$9,0*
20,1,$1+$1,$8,$9,$2,$3,0*%
G04 Aperture macros list end*
%ADD10C,0.076200*%
%ADD11C,0.100000*%
%ADD12C,0.161803*%
%ADD13C,0.120000*%
%ADD14C,3.581400*%
%ADD15C,1.422400*%
%ADD16RoundRect,0.100000X0.100000X-0.130000X0.100000X0.130000X-0.100000X0.130000X-0.100000X-0.130000X0*%
%ADD17RoundRect,0.100000X-0.130000X-0.100000X0.130000X-0.100000X0.130000X0.100000X-0.130000X0.100000X0*%
%ADD18R,0.600000X1.800000*%
%ADD19RoundRect,0.100000X-0.100000X0.130000X-0.100000X-0.130000X0.100000X-0.130000X0.100000X0.130000X0*%
%ADD20RoundRect,0.087500X-0.087500X-0.362500X0.087500X-0.362500X0.087500X0.362500X-0.087500X0.362500X0*%
%ADD21RoundRect,0.087500X-0.087500X-0.312500X0.087500X-0.312500X0.087500X0.312500X-0.087500X0.312500X0*%
%ADD22R,0.579000X0.332000*%
%ADD23R,0.579000X0.507000*%
%ADD24RoundRect,0.062500X-0.375000X-0.062500X0.375000X-0.062500X0.375000X0.062500X-0.375000X0.062500X0*%
%ADD25RoundRect,0.062500X-0.062500X-0.375000X0.062500X-0.375000X0.062500X0.375000X-0.062500X0.375000X0*%
%ADD26R,2.600000X2.600000*%
%ADD27RoundRect,0.225000X-0.225000X-0.250000X0.225000X-0.250000X0.225000X0.250000X-0.225000X0.250000X0*%
%ADD28RoundRect,0.075000X0.075000X0.275000X-0.075000X0.275000X-0.075000X-0.275000X0.075000X-0.275000X0*%
%ADD29R,1.600000X1.000000*%
%ADD30RoundRect,0.100000X0.130000X0.100000X-0.130000X0.100000X-0.130000X-0.100000X0.130000X-0.100000X0*%
%ADD31RoundRect,0.140000X0.140000X0.170000X-0.140000X0.170000X-0.140000X-0.170000X0.140000X-0.170000X0*%
%ADD32RoundRect,0.225000X0.225000X0.250000X-0.225000X0.250000X-0.225000X-0.250000X0.225000X-0.250000X0*%
%ADD33R,1.800000X0.600000*%
G04 APERTURE END LIST*
D10*
X75913903Y-124845340D02*
X75933255Y-124864693D01*
X75933255Y-124864693D02*
X75991313Y-124884045D01*
X75991313Y-124884045D02*
X76030017Y-124884045D01*
X76030017Y-124884045D02*
X76088074Y-124864693D01*
X76088074Y-124864693D02*
X76126779Y-124825988D01*
X76126779Y-124825988D02*
X76146132Y-124787283D01*
X76146132Y-124787283D02*
X76165484Y-124709873D01*
X76165484Y-124709873D02*
X76165484Y-124651816D01*
X76165484Y-124651816D02*
X76146132Y-124574407D01*
X76146132Y-124574407D02*
X76126779Y-124535702D01*
X76126779Y-124535702D02*
X76088074Y-124496997D01*
X76088074Y-124496997D02*
X76030017Y-124477645D01*
X76030017Y-124477645D02*
X75991313Y-124477645D01*
X75991313Y-124477645D02*
X75933255Y-124496997D01*
X75933255Y-124496997D02*
X75913903Y-124516350D01*
X75739732Y-124671169D02*
X75604265Y-124671169D01*
X75546208Y-124884045D02*
X75739732Y-124884045D01*
X75739732Y-124884045D02*
X75739732Y-124477645D01*
X75739732Y-124477645D02*
X75546208Y-124477645D01*
X75139808Y-124884045D02*
X75275275Y-124690521D01*
X75372037Y-124884045D02*
X75372037Y-124477645D01*
X75372037Y-124477645D02*
X75217218Y-124477645D01*
X75217218Y-124477645D02*
X75178513Y-124496997D01*
X75178513Y-124496997D02*
X75159160Y-124516350D01*
X75159160Y-124516350D02*
X75139808Y-124555054D01*
X75139808Y-124555054D02*
X75139808Y-124613112D01*
X75139808Y-124613112D02*
X75159160Y-124651816D01*
X75159160Y-124651816D02*
X75178513Y-124671169D01*
X75178513Y-124671169D02*
X75217218Y-124690521D01*
X75217218Y-124690521D02*
X75372037Y-124690521D01*
X74965637Y-124884045D02*
X74965637Y-124477645D01*
X74965637Y-124477645D02*
X74733408Y-124884045D01*
X74733408Y-124884045D02*
X74733408Y-124477645D01*
X74539885Y-124729226D02*
X74230247Y-124729226D01*
X73959313Y-124477645D02*
X73881904Y-124477645D01*
X73881904Y-124477645D02*
X73843199Y-124496997D01*
X73843199Y-124496997D02*
X73804494Y-124535702D01*
X73804494Y-124535702D02*
X73785142Y-124613112D01*
X73785142Y-124613112D02*
X73785142Y-124748578D01*
X73785142Y-124748578D02*
X73804494Y-124825988D01*
X73804494Y-124825988D02*
X73843199Y-124864693D01*
X73843199Y-124864693D02*
X73881904Y-124884045D01*
X73881904Y-124884045D02*
X73959313Y-124884045D01*
X73959313Y-124884045D02*
X73998018Y-124864693D01*
X73998018Y-124864693D02*
X74036723Y-124825988D01*
X74036723Y-124825988D02*
X74056075Y-124748578D01*
X74056075Y-124748578D02*
X74056075Y-124613112D01*
X74056075Y-124613112D02*
X74036723Y-124535702D01*
X74036723Y-124535702D02*
X73998018Y-124496997D01*
X73998018Y-124496997D02*
X73959313Y-124477645D01*
X73610971Y-124884045D02*
X73610971Y-124477645D01*
X73610971Y-124671169D02*
X73378742Y-124671169D01*
X73378742Y-124884045D02*
X73378742Y-124477645D01*
X72991695Y-124884045D02*
X73185219Y-124884045D01*
X73185219Y-124884045D02*
X73185219Y-124477645D01*
X72856229Y-124729226D02*
X72546591Y-124729226D01*
X72353067Y-124884045D02*
X72353067Y-124477645D01*
X72353067Y-124477645D02*
X72198248Y-124477645D01*
X72198248Y-124477645D02*
X72159543Y-124496997D01*
X72159543Y-124496997D02*
X72140190Y-124516350D01*
X72140190Y-124516350D02*
X72120838Y-124555054D01*
X72120838Y-124555054D02*
X72120838Y-124613112D01*
X72120838Y-124613112D02*
X72140190Y-124651816D01*
X72140190Y-124651816D02*
X72159543Y-124671169D01*
X72159543Y-124671169D02*
X72198248Y-124690521D01*
X72198248Y-124690521D02*
X72353067Y-124690521D01*
X71675733Y-124613112D02*
X71578971Y-124884045D01*
X71578971Y-124884045D02*
X71482210Y-124613112D01*
X71346743Y-124516350D02*
X71327391Y-124496997D01*
X71327391Y-124496997D02*
X71288686Y-124477645D01*
X71288686Y-124477645D02*
X71191924Y-124477645D01*
X71191924Y-124477645D02*
X71153219Y-124496997D01*
X71153219Y-124496997D02*
X71133867Y-124516350D01*
X71133867Y-124516350D02*
X71114514Y-124555054D01*
X71114514Y-124555054D02*
X71114514Y-124593759D01*
X71114514Y-124593759D02*
X71133867Y-124651816D01*
X71133867Y-124651816D02*
X71366095Y-124884045D01*
X71366095Y-124884045D02*
X71114514Y-124884045D01*
X91490800Y-111302800D02*
X93599000Y-111302800D01*
X93599000Y-112674400D01*
X91490800Y-112674400D01*
X91490800Y-111302800D01*
X85902800Y-111252000D02*
X87706200Y-111252000D01*
X87706200Y-112903000D01*
X85902800Y-112903000D01*
X85902800Y-111252000D01*
X107436678Y-109811727D02*
X107267344Y-110319727D01*
X107267344Y-110319727D02*
X107098011Y-109811727D01*
X106952868Y-110295537D02*
X106880296Y-110319727D01*
X106880296Y-110319727D02*
X106759344Y-110319727D01*
X106759344Y-110319727D02*
X106710963Y-110295537D01*
X106710963Y-110295537D02*
X106686772Y-110271346D01*
X106686772Y-110271346D02*
X106662582Y-110222965D01*
X106662582Y-110222965D02*
X106662582Y-110174584D01*
X106662582Y-110174584D02*
X106686772Y-110126203D01*
X106686772Y-110126203D02*
X106710963Y-110102013D01*
X106710963Y-110102013D02*
X106759344Y-110077822D01*
X106759344Y-110077822D02*
X106856106Y-110053632D01*
X106856106Y-110053632D02*
X106904487Y-110029441D01*
X106904487Y-110029441D02*
X106928677Y-110005251D01*
X106928677Y-110005251D02*
X106952868Y-109956870D01*
X106952868Y-109956870D02*
X106952868Y-109908489D01*
X106952868Y-109908489D02*
X106928677Y-109860108D01*
X106928677Y-109860108D02*
X106904487Y-109835917D01*
X106904487Y-109835917D02*
X106856106Y-109811727D01*
X106856106Y-109811727D02*
X106735153Y-109811727D01*
X106735153Y-109811727D02*
X106662582Y-109835917D01*
X106469058Y-110295537D02*
X106396486Y-110319727D01*
X106396486Y-110319727D02*
X106275534Y-110319727D01*
X106275534Y-110319727D02*
X106227153Y-110295537D01*
X106227153Y-110295537D02*
X106202962Y-110271346D01*
X106202962Y-110271346D02*
X106178772Y-110222965D01*
X106178772Y-110222965D02*
X106178772Y-110174584D01*
X106178772Y-110174584D02*
X106202962Y-110126203D01*
X106202962Y-110126203D02*
X106227153Y-110102013D01*
X106227153Y-110102013D02*
X106275534Y-110077822D01*
X106275534Y-110077822D02*
X106372296Y-110053632D01*
X106372296Y-110053632D02*
X106420677Y-110029441D01*
X106420677Y-110029441D02*
X106444867Y-110005251D01*
X106444867Y-110005251D02*
X106469058Y-109956870D01*
X106469058Y-109956870D02*
X106469058Y-109908489D01*
X106469058Y-109908489D02*
X106444867Y-109860108D01*
X106444867Y-109860108D02*
X106420677Y-109835917D01*
X106420677Y-109835917D02*
X106372296Y-109811727D01*
X106372296Y-109811727D02*
X106251343Y-109811727D01*
X106251343Y-109811727D02*
X106178772Y-109835917D01*
X105961057Y-110319727D02*
X105961057Y-109811727D01*
X105961057Y-110053632D02*
X105670771Y-110053632D01*
X105670771Y-110319727D02*
X105670771Y-109811727D01*
X75978237Y-122455385D02*
X75978237Y-122048985D01*
X75978237Y-122048985D02*
X75881475Y-122048985D01*
X75881475Y-122048985D02*
X75823418Y-122068337D01*
X75823418Y-122068337D02*
X75784713Y-122107042D01*
X75784713Y-122107042D02*
X75765360Y-122145747D01*
X75765360Y-122145747D02*
X75746008Y-122223156D01*
X75746008Y-122223156D02*
X75746008Y-122281213D01*
X75746008Y-122281213D02*
X75765360Y-122358623D01*
X75765360Y-122358623D02*
X75784713Y-122397328D01*
X75784713Y-122397328D02*
X75823418Y-122436033D01*
X75823418Y-122436033D02*
X75881475Y-122455385D01*
X75881475Y-122455385D02*
X75978237Y-122455385D01*
X75417018Y-122436033D02*
X75455722Y-122455385D01*
X75455722Y-122455385D02*
X75533132Y-122455385D01*
X75533132Y-122455385D02*
X75571837Y-122436033D01*
X75571837Y-122436033D02*
X75591189Y-122397328D01*
X75591189Y-122397328D02*
X75591189Y-122242509D01*
X75591189Y-122242509D02*
X75571837Y-122203804D01*
X75571837Y-122203804D02*
X75533132Y-122184452D01*
X75533132Y-122184452D02*
X75455722Y-122184452D01*
X75455722Y-122184452D02*
X75417018Y-122203804D01*
X75417018Y-122203804D02*
X75397665Y-122242509D01*
X75397665Y-122242509D02*
X75397665Y-122281213D01*
X75397665Y-122281213D02*
X75591189Y-122319918D01*
X75242846Y-122436033D02*
X75204141Y-122455385D01*
X75204141Y-122455385D02*
X75126732Y-122455385D01*
X75126732Y-122455385D02*
X75088027Y-122436033D01*
X75088027Y-122436033D02*
X75068675Y-122397328D01*
X75068675Y-122397328D02*
X75068675Y-122377975D01*
X75068675Y-122377975D02*
X75088027Y-122339271D01*
X75088027Y-122339271D02*
X75126732Y-122319918D01*
X75126732Y-122319918D02*
X75184789Y-122319918D01*
X75184789Y-122319918D02*
X75223494Y-122300566D01*
X75223494Y-122300566D02*
X75242846Y-122261861D01*
X75242846Y-122261861D02*
X75242846Y-122242509D01*
X75242846Y-122242509D02*
X75223494Y-122203804D01*
X75223494Y-122203804D02*
X75184789Y-122184452D01*
X75184789Y-122184452D02*
X75126732Y-122184452D01*
X75126732Y-122184452D02*
X75088027Y-122203804D01*
X74894504Y-122455385D02*
X74894504Y-122184452D01*
X74894504Y-122048985D02*
X74913856Y-122068337D01*
X74913856Y-122068337D02*
X74894504Y-122087690D01*
X74894504Y-122087690D02*
X74875151Y-122068337D01*
X74875151Y-122068337D02*
X74894504Y-122048985D01*
X74894504Y-122048985D02*
X74894504Y-122087690D01*
X74526808Y-122184452D02*
X74526808Y-122513442D01*
X74526808Y-122513442D02*
X74546161Y-122552147D01*
X74546161Y-122552147D02*
X74565513Y-122571499D01*
X74565513Y-122571499D02*
X74604218Y-122590852D01*
X74604218Y-122590852D02*
X74662275Y-122590852D01*
X74662275Y-122590852D02*
X74700980Y-122571499D01*
X74526808Y-122436033D02*
X74565513Y-122455385D01*
X74565513Y-122455385D02*
X74642922Y-122455385D01*
X74642922Y-122455385D02*
X74681627Y-122436033D01*
X74681627Y-122436033D02*
X74700980Y-122416680D01*
X74700980Y-122416680D02*
X74720332Y-122377975D01*
X74720332Y-122377975D02*
X74720332Y-122261861D01*
X74720332Y-122261861D02*
X74700980Y-122223156D01*
X74700980Y-122223156D02*
X74681627Y-122203804D01*
X74681627Y-122203804D02*
X74642922Y-122184452D01*
X74642922Y-122184452D02*
X74565513Y-122184452D01*
X74565513Y-122184452D02*
X74526808Y-122203804D01*
X74333285Y-122184452D02*
X74333285Y-122455385D01*
X74333285Y-122223156D02*
X74313932Y-122203804D01*
X74313932Y-122203804D02*
X74275227Y-122184452D01*
X74275227Y-122184452D02*
X74217170Y-122184452D01*
X74217170Y-122184452D02*
X74178466Y-122203804D01*
X74178466Y-122203804D02*
X74159113Y-122242509D01*
X74159113Y-122242509D02*
X74159113Y-122455385D01*
X73810771Y-122436033D02*
X73849475Y-122455385D01*
X73849475Y-122455385D02*
X73926885Y-122455385D01*
X73926885Y-122455385D02*
X73965590Y-122436033D01*
X73965590Y-122436033D02*
X73984942Y-122397328D01*
X73984942Y-122397328D02*
X73984942Y-122242509D01*
X73984942Y-122242509D02*
X73965590Y-122203804D01*
X73965590Y-122203804D02*
X73926885Y-122184452D01*
X73926885Y-122184452D02*
X73849475Y-122184452D01*
X73849475Y-122184452D02*
X73810771Y-122203804D01*
X73810771Y-122203804D02*
X73791418Y-122242509D01*
X73791418Y-122242509D02*
X73791418Y-122281213D01*
X73791418Y-122281213D02*
X73984942Y-122319918D01*
X73443075Y-122455385D02*
X73443075Y-122048985D01*
X73443075Y-122436033D02*
X73481780Y-122455385D01*
X73481780Y-122455385D02*
X73559189Y-122455385D01*
X73559189Y-122455385D02*
X73597894Y-122436033D01*
X73597894Y-122436033D02*
X73617247Y-122416680D01*
X73617247Y-122416680D02*
X73636599Y-122377975D01*
X73636599Y-122377975D02*
X73636599Y-122261861D01*
X73636599Y-122261861D02*
X73617247Y-122223156D01*
X73617247Y-122223156D02*
X73597894Y-122203804D01*
X73597894Y-122203804D02*
X73559189Y-122184452D01*
X73559189Y-122184452D02*
X73481780Y-122184452D01*
X73481780Y-122184452D02*
X73443075Y-122203804D01*
X72939914Y-122455385D02*
X72939914Y-122048985D01*
X72939914Y-122203804D02*
X72901209Y-122184452D01*
X72901209Y-122184452D02*
X72823799Y-122184452D01*
X72823799Y-122184452D02*
X72785095Y-122203804D01*
X72785095Y-122203804D02*
X72765742Y-122223156D01*
X72765742Y-122223156D02*
X72746390Y-122261861D01*
X72746390Y-122261861D02*
X72746390Y-122377975D01*
X72746390Y-122377975D02*
X72765742Y-122416680D01*
X72765742Y-122416680D02*
X72785095Y-122436033D01*
X72785095Y-122436033D02*
X72823799Y-122455385D01*
X72823799Y-122455385D02*
X72901209Y-122455385D01*
X72901209Y-122455385D02*
X72939914Y-122436033D01*
X72610923Y-122184452D02*
X72514161Y-122455385D01*
X72417400Y-122184452D02*
X72514161Y-122455385D01*
X72514161Y-122455385D02*
X72552866Y-122552147D01*
X72552866Y-122552147D02*
X72572219Y-122571499D01*
X72572219Y-122571499D02*
X72610923Y-122590852D01*
X71952943Y-122455385D02*
X71952943Y-122048985D01*
X71952943Y-122048985D02*
X71817476Y-122339271D01*
X71817476Y-122339271D02*
X71682009Y-122048985D01*
X71682009Y-122048985D02*
X71682009Y-122455385D01*
X71488486Y-122455385D02*
X71488486Y-122048985D01*
X71488486Y-122048985D02*
X71353019Y-122339271D01*
X71353019Y-122339271D02*
X71217552Y-122048985D01*
X71217552Y-122048985D02*
X71217552Y-122455385D01*
X73965591Y-122703266D02*
X73965591Y-122993552D01*
X73965591Y-122993552D02*
X73984944Y-123051609D01*
X73984944Y-123051609D02*
X74023648Y-123090314D01*
X74023648Y-123090314D02*
X74081706Y-123109666D01*
X74081706Y-123109666D02*
X74120410Y-123109666D01*
X73597896Y-122838733D02*
X73597896Y-123109666D01*
X73772068Y-122838733D02*
X73772068Y-123051609D01*
X73772068Y-123051609D02*
X73752715Y-123090314D01*
X73752715Y-123090314D02*
X73714010Y-123109666D01*
X73714010Y-123109666D02*
X73655953Y-123109666D01*
X73655953Y-123109666D02*
X73617249Y-123090314D01*
X73617249Y-123090314D02*
X73597896Y-123070961D01*
X73346315Y-123109666D02*
X73385020Y-123090314D01*
X73385020Y-123090314D02*
X73404373Y-123051609D01*
X73404373Y-123051609D02*
X73404373Y-122703266D01*
X73230201Y-122838733D02*
X73133439Y-123109666D01*
X73036678Y-122838733D02*
X73133439Y-123109666D01*
X73133439Y-123109666D02*
X73172144Y-123206428D01*
X73172144Y-123206428D02*
X73191497Y-123225780D01*
X73191497Y-123225780D02*
X73230201Y-123245133D01*
X72591573Y-122741971D02*
X72572221Y-122722618D01*
X72572221Y-122722618D02*
X72533516Y-122703266D01*
X72533516Y-122703266D02*
X72436754Y-122703266D01*
X72436754Y-122703266D02*
X72398049Y-122722618D01*
X72398049Y-122722618D02*
X72378697Y-122741971D01*
X72378697Y-122741971D02*
X72359344Y-122780675D01*
X72359344Y-122780675D02*
X72359344Y-122819380D01*
X72359344Y-122819380D02*
X72378697Y-122877437D01*
X72378697Y-122877437D02*
X72610925Y-123109666D01*
X72610925Y-123109666D02*
X72359344Y-123109666D01*
X72107763Y-122703266D02*
X72069058Y-122703266D01*
X72069058Y-122703266D02*
X72030354Y-122722618D01*
X72030354Y-122722618D02*
X72011001Y-122741971D01*
X72011001Y-122741971D02*
X71991649Y-122780675D01*
X71991649Y-122780675D02*
X71972296Y-122858085D01*
X71972296Y-122858085D02*
X71972296Y-122954847D01*
X71972296Y-122954847D02*
X71991649Y-123032256D01*
X71991649Y-123032256D02*
X72011001Y-123070961D01*
X72011001Y-123070961D02*
X72030354Y-123090314D01*
X72030354Y-123090314D02*
X72069058Y-123109666D01*
X72069058Y-123109666D02*
X72107763Y-123109666D01*
X72107763Y-123109666D02*
X72146468Y-123090314D01*
X72146468Y-123090314D02*
X72165820Y-123070961D01*
X72165820Y-123070961D02*
X72185173Y-123032256D01*
X72185173Y-123032256D02*
X72204525Y-122954847D01*
X72204525Y-122954847D02*
X72204525Y-122858085D01*
X72204525Y-122858085D02*
X72185173Y-122780675D01*
X72185173Y-122780675D02*
X72165820Y-122741971D01*
X72165820Y-122741971D02*
X72146468Y-122722618D01*
X72146468Y-122722618D02*
X72107763Y-122703266D01*
X71817477Y-122741971D02*
X71798125Y-122722618D01*
X71798125Y-122722618D02*
X71759420Y-122703266D01*
X71759420Y-122703266D02*
X71662658Y-122703266D01*
X71662658Y-122703266D02*
X71623953Y-122722618D01*
X71623953Y-122722618D02*
X71604601Y-122741971D01*
X71604601Y-122741971D02*
X71585248Y-122780675D01*
X71585248Y-122780675D02*
X71585248Y-122819380D01*
X71585248Y-122819380D02*
X71604601Y-122877437D01*
X71604601Y-122877437D02*
X71836829Y-123109666D01*
X71836829Y-123109666D02*
X71585248Y-123109666D01*
X71236905Y-122838733D02*
X71236905Y-123109666D01*
X71333667Y-122683914D02*
X71430429Y-122974199D01*
X71430429Y-122974199D02*
X71178848Y-122974199D01*
X74981043Y-124199545D02*
X74981043Y-123793145D01*
X74981043Y-123793145D02*
X74826224Y-123793145D01*
X74826224Y-123793145D02*
X74787519Y-123812497D01*
X74787519Y-123812497D02*
X74768166Y-123831850D01*
X74768166Y-123831850D02*
X74748814Y-123870554D01*
X74748814Y-123870554D02*
X74748814Y-123928612D01*
X74748814Y-123928612D02*
X74768166Y-123967316D01*
X74768166Y-123967316D02*
X74787519Y-123986669D01*
X74787519Y-123986669D02*
X74826224Y-124006021D01*
X74826224Y-124006021D02*
X74981043Y-124006021D01*
X74342414Y-124160840D02*
X74361766Y-124180193D01*
X74361766Y-124180193D02*
X74419824Y-124199545D01*
X74419824Y-124199545D02*
X74458528Y-124199545D01*
X74458528Y-124199545D02*
X74516585Y-124180193D01*
X74516585Y-124180193D02*
X74555290Y-124141488D01*
X74555290Y-124141488D02*
X74574643Y-124102783D01*
X74574643Y-124102783D02*
X74593995Y-124025373D01*
X74593995Y-124025373D02*
X74593995Y-123967316D01*
X74593995Y-123967316D02*
X74574643Y-123889907D01*
X74574643Y-123889907D02*
X74555290Y-123851202D01*
X74555290Y-123851202D02*
X74516585Y-123812497D01*
X74516585Y-123812497D02*
X74458528Y-123793145D01*
X74458528Y-123793145D02*
X74419824Y-123793145D01*
X74419824Y-123793145D02*
X74361766Y-123812497D01*
X74361766Y-123812497D02*
X74342414Y-123831850D01*
X74032776Y-123986669D02*
X73974719Y-124006021D01*
X73974719Y-124006021D02*
X73955366Y-124025373D01*
X73955366Y-124025373D02*
X73936014Y-124064078D01*
X73936014Y-124064078D02*
X73936014Y-124122135D01*
X73936014Y-124122135D02*
X73955366Y-124160840D01*
X73955366Y-124160840D02*
X73974719Y-124180193D01*
X73974719Y-124180193D02*
X74013424Y-124199545D01*
X74013424Y-124199545D02*
X74168243Y-124199545D01*
X74168243Y-124199545D02*
X74168243Y-123793145D01*
X74168243Y-123793145D02*
X74032776Y-123793145D01*
X74032776Y-123793145D02*
X73994071Y-123812497D01*
X73994071Y-123812497D02*
X73974719Y-123831850D01*
X73974719Y-123831850D02*
X73955366Y-123870554D01*
X73955366Y-123870554D02*
X73955366Y-123909259D01*
X73955366Y-123909259D02*
X73974719Y-123947964D01*
X73974719Y-123947964D02*
X73994071Y-123967316D01*
X73994071Y-123967316D02*
X74032776Y-123986669D01*
X74032776Y-123986669D02*
X74168243Y-123986669D01*
X73761843Y-124044726D02*
X73452205Y-124044726D01*
X73181271Y-123793145D02*
X73142566Y-123793145D01*
X73142566Y-123793145D02*
X73103862Y-123812497D01*
X73103862Y-123812497D02*
X73084509Y-123831850D01*
X73084509Y-123831850D02*
X73065157Y-123870554D01*
X73065157Y-123870554D02*
X73045804Y-123947964D01*
X73045804Y-123947964D02*
X73045804Y-124044726D01*
X73045804Y-124044726D02*
X73065157Y-124122135D01*
X73065157Y-124122135D02*
X73084509Y-124160840D01*
X73084509Y-124160840D02*
X73103862Y-124180193D01*
X73103862Y-124180193D02*
X73142566Y-124199545D01*
X73142566Y-124199545D02*
X73181271Y-124199545D01*
X73181271Y-124199545D02*
X73219976Y-124180193D01*
X73219976Y-124180193D02*
X73239328Y-124160840D01*
X73239328Y-124160840D02*
X73258681Y-124122135D01*
X73258681Y-124122135D02*
X73278033Y-124044726D01*
X73278033Y-124044726D02*
X73278033Y-123947964D01*
X73278033Y-123947964D02*
X73258681Y-123870554D01*
X73258681Y-123870554D02*
X73239328Y-123831850D01*
X73239328Y-123831850D02*
X73219976Y-123812497D01*
X73219976Y-123812497D02*
X73181271Y-123793145D01*
X72794223Y-123793145D02*
X72755518Y-123793145D01*
X72755518Y-123793145D02*
X72716814Y-123812497D01*
X72716814Y-123812497D02*
X72697461Y-123831850D01*
X72697461Y-123831850D02*
X72678109Y-123870554D01*
X72678109Y-123870554D02*
X72658756Y-123947964D01*
X72658756Y-123947964D02*
X72658756Y-124044726D01*
X72658756Y-124044726D02*
X72678109Y-124122135D01*
X72678109Y-124122135D02*
X72697461Y-124160840D01*
X72697461Y-124160840D02*
X72716814Y-124180193D01*
X72716814Y-124180193D02*
X72755518Y-124199545D01*
X72755518Y-124199545D02*
X72794223Y-124199545D01*
X72794223Y-124199545D02*
X72832928Y-124180193D01*
X72832928Y-124180193D02*
X72852280Y-124160840D01*
X72852280Y-124160840D02*
X72871633Y-124122135D01*
X72871633Y-124122135D02*
X72890985Y-124044726D01*
X72890985Y-124044726D02*
X72890985Y-123947964D01*
X72890985Y-123947964D02*
X72871633Y-123870554D01*
X72871633Y-123870554D02*
X72852280Y-123831850D01*
X72852280Y-123831850D02*
X72832928Y-123812497D01*
X72832928Y-123812497D02*
X72794223Y-123793145D01*
X72407175Y-123793145D02*
X72368470Y-123793145D01*
X72368470Y-123793145D02*
X72329766Y-123812497D01*
X72329766Y-123812497D02*
X72310413Y-123831850D01*
X72310413Y-123831850D02*
X72291061Y-123870554D01*
X72291061Y-123870554D02*
X72271708Y-123947964D01*
X72271708Y-123947964D02*
X72271708Y-124044726D01*
X72271708Y-124044726D02*
X72291061Y-124122135D01*
X72291061Y-124122135D02*
X72310413Y-124160840D01*
X72310413Y-124160840D02*
X72329766Y-124180193D01*
X72329766Y-124180193D02*
X72368470Y-124199545D01*
X72368470Y-124199545D02*
X72407175Y-124199545D01*
X72407175Y-124199545D02*
X72445880Y-124180193D01*
X72445880Y-124180193D02*
X72465232Y-124160840D01*
X72465232Y-124160840D02*
X72484585Y-124122135D01*
X72484585Y-124122135D02*
X72503937Y-124044726D01*
X72503937Y-124044726D02*
X72503937Y-123947964D01*
X72503937Y-123947964D02*
X72484585Y-123870554D01*
X72484585Y-123870554D02*
X72465232Y-123831850D01*
X72465232Y-123831850D02*
X72445880Y-123812497D01*
X72445880Y-123812497D02*
X72407175Y-123793145D01*
X72020127Y-123793145D02*
X71981422Y-123793145D01*
X71981422Y-123793145D02*
X71942718Y-123812497D01*
X71942718Y-123812497D02*
X71923365Y-123831850D01*
X71923365Y-123831850D02*
X71904013Y-123870554D01*
X71904013Y-123870554D02*
X71884660Y-123947964D01*
X71884660Y-123947964D02*
X71884660Y-124044726D01*
X71884660Y-124044726D02*
X71904013Y-124122135D01*
X71904013Y-124122135D02*
X71923365Y-124160840D01*
X71923365Y-124160840D02*
X71942718Y-124180193D01*
X71942718Y-124180193D02*
X71981422Y-124199545D01*
X71981422Y-124199545D02*
X72020127Y-124199545D01*
X72020127Y-124199545D02*
X72058832Y-124180193D01*
X72058832Y-124180193D02*
X72078184Y-124160840D01*
X72078184Y-124160840D02*
X72097537Y-124122135D01*
X72097537Y-124122135D02*
X72116889Y-124044726D01*
X72116889Y-124044726D02*
X72116889Y-123947964D01*
X72116889Y-123947964D02*
X72097537Y-123870554D01*
X72097537Y-123870554D02*
X72078184Y-123831850D01*
X72078184Y-123831850D02*
X72058832Y-123812497D01*
X72058832Y-123812497D02*
X72020127Y-123793145D01*
X71633079Y-123793145D02*
X71594374Y-123793145D01*
X71594374Y-123793145D02*
X71555670Y-123812497D01*
X71555670Y-123812497D02*
X71536317Y-123831850D01*
X71536317Y-123831850D02*
X71516965Y-123870554D01*
X71516965Y-123870554D02*
X71497612Y-123947964D01*
X71497612Y-123947964D02*
X71497612Y-124044726D01*
X71497612Y-124044726D02*
X71516965Y-124122135D01*
X71516965Y-124122135D02*
X71536317Y-124160840D01*
X71536317Y-124160840D02*
X71555670Y-124180193D01*
X71555670Y-124180193D02*
X71594374Y-124199545D01*
X71594374Y-124199545D02*
X71633079Y-124199545D01*
X71633079Y-124199545D02*
X71671784Y-124180193D01*
X71671784Y-124180193D02*
X71691136Y-124160840D01*
X71691136Y-124160840D02*
X71710489Y-124122135D01*
X71710489Y-124122135D02*
X71729841Y-124044726D01*
X71729841Y-124044726D02*
X71729841Y-123947964D01*
X71729841Y-123947964D02*
X71710489Y-123870554D01*
X71710489Y-123870554D02*
X71691136Y-123831850D01*
X71691136Y-123831850D02*
X71671784Y-123812497D01*
X71671784Y-123812497D02*
X71633079Y-123793145D01*
X71342793Y-123831850D02*
X71323441Y-123812497D01*
X71323441Y-123812497D02*
X71284736Y-123793145D01*
X71284736Y-123793145D02*
X71187974Y-123793145D01*
X71187974Y-123793145D02*
X71149269Y-123812497D01*
X71149269Y-123812497D02*
X71129917Y-123831850D01*
X71129917Y-123831850D02*
X71110564Y-123870554D01*
X71110564Y-123870554D02*
X71110564Y-123909259D01*
X71110564Y-123909259D02*
X71129917Y-123967316D01*
X71129917Y-123967316D02*
X71362145Y-124199545D01*
X71362145Y-124199545D02*
X71110564Y-124199545D01*
X87793108Y-113482041D02*
X87623774Y-113990041D01*
X87623774Y-113990041D02*
X87454441Y-113482041D01*
X87285107Y-113990041D02*
X87285107Y-113482041D01*
X87285107Y-113482041D02*
X87164155Y-113482041D01*
X87164155Y-113482041D02*
X87091583Y-113506231D01*
X87091583Y-113506231D02*
X87043202Y-113554612D01*
X87043202Y-113554612D02*
X87019012Y-113602993D01*
X87019012Y-113602993D02*
X86994821Y-113699755D01*
X86994821Y-113699755D02*
X86994821Y-113772327D01*
X86994821Y-113772327D02*
X87019012Y-113869089D01*
X87019012Y-113869089D02*
X87043202Y-113917470D01*
X87043202Y-113917470D02*
X87091583Y-113965851D01*
X87091583Y-113965851D02*
X87164155Y-113990041D01*
X87164155Y-113990041D02*
X87285107Y-113990041D01*
X86777107Y-113990041D02*
X86777107Y-113482041D01*
X86777107Y-113482041D02*
X86656155Y-113482041D01*
X86656155Y-113482041D02*
X86583583Y-113506231D01*
X86583583Y-113506231D02*
X86535202Y-113554612D01*
X86535202Y-113554612D02*
X86511012Y-113602993D01*
X86511012Y-113602993D02*
X86486821Y-113699755D01*
X86486821Y-113699755D02*
X86486821Y-113772327D01*
X86486821Y-113772327D02*
X86511012Y-113869089D01*
X86511012Y-113869089D02*
X86535202Y-113917470D01*
X86535202Y-113917470D02*
X86583583Y-113965851D01*
X86583583Y-113965851D02*
X86656155Y-113990041D01*
X86656155Y-113990041D02*
X86777107Y-113990041D01*
X86317488Y-113482041D02*
X86003012Y-113482041D01*
X86003012Y-113482041D02*
X86172345Y-113675565D01*
X86172345Y-113675565D02*
X86099774Y-113675565D01*
X86099774Y-113675565D02*
X86051393Y-113699755D01*
X86051393Y-113699755D02*
X86027202Y-113723946D01*
X86027202Y-113723946D02*
X86003012Y-113772327D01*
X86003012Y-113772327D02*
X86003012Y-113893279D01*
X86003012Y-113893279D02*
X86027202Y-113941660D01*
X86027202Y-113941660D02*
X86051393Y-113965851D01*
X86051393Y-113965851D02*
X86099774Y-113990041D01*
X86099774Y-113990041D02*
X86244917Y-113990041D01*
X86244917Y-113990041D02*
X86293298Y-113965851D01*
X86293298Y-113965851D02*
X86317488Y-113941660D01*
X85857869Y-113482041D02*
X85688535Y-113990041D01*
X85688535Y-113990041D02*
X85519202Y-113482041D01*
X87720536Y-114541798D02*
X87551203Y-114541798D01*
X87478631Y-114807893D02*
X87720536Y-114807893D01*
X87720536Y-114807893D02*
X87720536Y-114299893D01*
X87720536Y-114299893D02*
X87478631Y-114299893D01*
X87309298Y-114299893D02*
X86970631Y-114807893D01*
X86970631Y-114299893D02*
X87309298Y-114807893D01*
X86849679Y-114299893D02*
X86559393Y-114299893D01*
X86704536Y-114807893D02*
X86704536Y-114299893D01*
X107055678Y-107383487D02*
X106886344Y-107891487D01*
X106886344Y-107891487D02*
X106717011Y-107383487D01*
X106547677Y-107891487D02*
X106547677Y-107383487D01*
X106547677Y-107383487D02*
X106426725Y-107383487D01*
X106426725Y-107383487D02*
X106354153Y-107407677D01*
X106354153Y-107407677D02*
X106305772Y-107456058D01*
X106305772Y-107456058D02*
X106281582Y-107504439D01*
X106281582Y-107504439D02*
X106257391Y-107601201D01*
X106257391Y-107601201D02*
X106257391Y-107673773D01*
X106257391Y-107673773D02*
X106281582Y-107770535D01*
X106281582Y-107770535D02*
X106305772Y-107818916D01*
X106305772Y-107818916D02*
X106354153Y-107867297D01*
X106354153Y-107867297D02*
X106426725Y-107891487D01*
X106426725Y-107891487D02*
X106547677Y-107891487D01*
X106039677Y-107891487D02*
X106039677Y-107383487D01*
X106039677Y-107383487D02*
X105918725Y-107383487D01*
X105918725Y-107383487D02*
X105846153Y-107407677D01*
X105846153Y-107407677D02*
X105797772Y-107456058D01*
X105797772Y-107456058D02*
X105773582Y-107504439D01*
X105773582Y-107504439D02*
X105749391Y-107601201D01*
X105749391Y-107601201D02*
X105749391Y-107673773D01*
X105749391Y-107673773D02*
X105773582Y-107770535D01*
X105773582Y-107770535D02*
X105797772Y-107818916D01*
X105797772Y-107818916D02*
X105846153Y-107867297D01*
X105846153Y-107867297D02*
X105918725Y-107891487D01*
X105918725Y-107891487D02*
X106039677Y-107891487D01*
X105265582Y-107891487D02*
X105555868Y-107891487D01*
X105410725Y-107891487D02*
X105410725Y-107383487D01*
X105410725Y-107383487D02*
X105459106Y-107456058D01*
X105459106Y-107456058D02*
X105507487Y-107504439D01*
X105507487Y-107504439D02*
X105555868Y-107528630D01*
X99655448Y-109799027D02*
X99486114Y-110307027D01*
X99486114Y-110307027D02*
X99316781Y-109799027D01*
X99147447Y-110307027D02*
X99147447Y-109799027D01*
X99147447Y-109799027D02*
X99026495Y-109799027D01*
X99026495Y-109799027D02*
X98953923Y-109823217D01*
X98953923Y-109823217D02*
X98905542Y-109871598D01*
X98905542Y-109871598D02*
X98881352Y-109919979D01*
X98881352Y-109919979D02*
X98857161Y-110016741D01*
X98857161Y-110016741D02*
X98857161Y-110089313D01*
X98857161Y-110089313D02*
X98881352Y-110186075D01*
X98881352Y-110186075D02*
X98905542Y-110234456D01*
X98905542Y-110234456D02*
X98953923Y-110282837D01*
X98953923Y-110282837D02*
X99026495Y-110307027D01*
X99026495Y-110307027D02*
X99147447Y-110307027D01*
X98639447Y-110307027D02*
X98639447Y-109799027D01*
X98639447Y-109799027D02*
X98518495Y-109799027D01*
X98518495Y-109799027D02*
X98445923Y-109823217D01*
X98445923Y-109823217D02*
X98397542Y-109871598D01*
X98397542Y-109871598D02*
X98373352Y-109919979D01*
X98373352Y-109919979D02*
X98349161Y-110016741D01*
X98349161Y-110016741D02*
X98349161Y-110089313D01*
X98349161Y-110089313D02*
X98373352Y-110186075D01*
X98373352Y-110186075D02*
X98397542Y-110234456D01*
X98397542Y-110234456D02*
X98445923Y-110282837D01*
X98445923Y-110282837D02*
X98518495Y-110307027D01*
X98518495Y-110307027D02*
X98639447Y-110307027D01*
X98131447Y-110307027D02*
X98131447Y-109799027D01*
X98131447Y-110040932D02*
X97841161Y-110040932D01*
X97841161Y-110307027D02*
X97841161Y-109799027D01*
X94382167Y-113253427D02*
X94212833Y-113761427D01*
X94212833Y-113761427D02*
X94043500Y-113253427D01*
X93874166Y-113761427D02*
X93874166Y-113253427D01*
X93874166Y-113253427D02*
X93753214Y-113253427D01*
X93753214Y-113253427D02*
X93680642Y-113277617D01*
X93680642Y-113277617D02*
X93632261Y-113325998D01*
X93632261Y-113325998D02*
X93608071Y-113374379D01*
X93608071Y-113374379D02*
X93583880Y-113471141D01*
X93583880Y-113471141D02*
X93583880Y-113543713D01*
X93583880Y-113543713D02*
X93608071Y-113640475D01*
X93608071Y-113640475D02*
X93632261Y-113688856D01*
X93632261Y-113688856D02*
X93680642Y-113737237D01*
X93680642Y-113737237D02*
X93753214Y-113761427D01*
X93753214Y-113761427D02*
X93874166Y-113761427D01*
X93366166Y-113761427D02*
X93366166Y-113253427D01*
X93366166Y-113253427D02*
X93245214Y-113253427D01*
X93245214Y-113253427D02*
X93172642Y-113277617D01*
X93172642Y-113277617D02*
X93124261Y-113325998D01*
X93124261Y-113325998D02*
X93100071Y-113374379D01*
X93100071Y-113374379D02*
X93075880Y-113471141D01*
X93075880Y-113471141D02*
X93075880Y-113543713D01*
X93075880Y-113543713D02*
X93100071Y-113640475D01*
X93100071Y-113640475D02*
X93124261Y-113688856D01*
X93124261Y-113688856D02*
X93172642Y-113737237D01*
X93172642Y-113737237D02*
X93245214Y-113761427D01*
X93245214Y-113761427D02*
X93366166Y-113761427D01*
X92882357Y-113616284D02*
X92640452Y-113616284D01*
X92930738Y-113761427D02*
X92761404Y-113253427D01*
X92761404Y-113253427D02*
X92592071Y-113761427D01*
X92471118Y-113253427D02*
X92156642Y-113253427D01*
X92156642Y-113253427D02*
X92325975Y-113446951D01*
X92325975Y-113446951D02*
X92253404Y-113446951D01*
X92253404Y-113446951D02*
X92205023Y-113471141D01*
X92205023Y-113471141D02*
X92180832Y-113495332D01*
X92180832Y-113495332D02*
X92156642Y-113543713D01*
X92156642Y-113543713D02*
X92156642Y-113664665D01*
X92156642Y-113664665D02*
X92180832Y-113713046D01*
X92180832Y-113713046D02*
X92205023Y-113737237D01*
X92205023Y-113737237D02*
X92253404Y-113761427D01*
X92253404Y-113761427D02*
X92398547Y-113761427D01*
X92398547Y-113761427D02*
X92446928Y-113737237D01*
X92446928Y-113737237D02*
X92471118Y-113713046D01*
X92011499Y-113253427D02*
X91842165Y-113761427D01*
X91842165Y-113761427D02*
X91672832Y-113253427D01*
X92024026Y-110241213D02*
X92048217Y-110217022D01*
X92048217Y-110217022D02*
X92072407Y-110144451D01*
X92072407Y-110144451D02*
X92072407Y-110096070D01*
X92072407Y-110096070D02*
X92048217Y-110023498D01*
X92048217Y-110023498D02*
X91999836Y-109975117D01*
X91999836Y-109975117D02*
X91951455Y-109950927D01*
X91951455Y-109950927D02*
X91854693Y-109926736D01*
X91854693Y-109926736D02*
X91782121Y-109926736D01*
X91782121Y-109926736D02*
X91685359Y-109950927D01*
X91685359Y-109950927D02*
X91636978Y-109975117D01*
X91636978Y-109975117D02*
X91588597Y-110023498D01*
X91588597Y-110023498D02*
X91564407Y-110096070D01*
X91564407Y-110096070D02*
X91564407Y-110144451D01*
X91564407Y-110144451D02*
X91588597Y-110217022D01*
X91588597Y-110217022D02*
X91612788Y-110241213D01*
X91733740Y-110676641D02*
X92072407Y-110676641D01*
X91540217Y-110555689D02*
X91903074Y-110434736D01*
X91903074Y-110434736D02*
X91903074Y-110749213D01*
X108408351Y-117121066D02*
X108432542Y-117145257D01*
X108432542Y-117145257D02*
X108505113Y-117169447D01*
X108505113Y-117169447D02*
X108553494Y-117169447D01*
X108553494Y-117169447D02*
X108626066Y-117145257D01*
X108626066Y-117145257D02*
X108674447Y-117096876D01*
X108674447Y-117096876D02*
X108698637Y-117048495D01*
X108698637Y-117048495D02*
X108722828Y-116951733D01*
X108722828Y-116951733D02*
X108722828Y-116879161D01*
X108722828Y-116879161D02*
X108698637Y-116782399D01*
X108698637Y-116782399D02*
X108674447Y-116734018D01*
X108674447Y-116734018D02*
X108626066Y-116685637D01*
X108626066Y-116685637D02*
X108553494Y-116661447D01*
X108553494Y-116661447D02*
X108505113Y-116661447D01*
X108505113Y-116661447D02*
X108432542Y-116685637D01*
X108432542Y-116685637D02*
X108408351Y-116709828D01*
X107924542Y-117169447D02*
X108214828Y-117169447D01*
X108069685Y-117169447D02*
X108069685Y-116661447D01*
X108069685Y-116661447D02*
X108118066Y-116734018D01*
X108118066Y-116734018D02*
X108166447Y-116782399D01*
X108166447Y-116782399D02*
X108214828Y-116806590D01*
X107634256Y-116879161D02*
X107682637Y-116854971D01*
X107682637Y-116854971D02*
X107706827Y-116830780D01*
X107706827Y-116830780D02*
X107731018Y-116782399D01*
X107731018Y-116782399D02*
X107731018Y-116758209D01*
X107731018Y-116758209D02*
X107706827Y-116709828D01*
X107706827Y-116709828D02*
X107682637Y-116685637D01*
X107682637Y-116685637D02*
X107634256Y-116661447D01*
X107634256Y-116661447D02*
X107537494Y-116661447D01*
X107537494Y-116661447D02*
X107489113Y-116685637D01*
X107489113Y-116685637D02*
X107464922Y-116709828D01*
X107464922Y-116709828D02*
X107440732Y-116758209D01*
X107440732Y-116758209D02*
X107440732Y-116782399D01*
X107440732Y-116782399D02*
X107464922Y-116830780D01*
X107464922Y-116830780D02*
X107489113Y-116854971D01*
X107489113Y-116854971D02*
X107537494Y-116879161D01*
X107537494Y-116879161D02*
X107634256Y-116879161D01*
X107634256Y-116879161D02*
X107682637Y-116903352D01*
X107682637Y-116903352D02*
X107706827Y-116927542D01*
X107706827Y-116927542D02*
X107731018Y-116975923D01*
X107731018Y-116975923D02*
X107731018Y-117072685D01*
X107731018Y-117072685D02*
X107706827Y-117121066D01*
X107706827Y-117121066D02*
X107682637Y-117145257D01*
X107682637Y-117145257D02*
X107634256Y-117169447D01*
X107634256Y-117169447D02*
X107537494Y-117169447D01*
X107537494Y-117169447D02*
X107489113Y-117145257D01*
X107489113Y-117145257D02*
X107464922Y-117121066D01*
X107464922Y-117121066D02*
X107440732Y-117072685D01*
X107440732Y-117072685D02*
X107440732Y-116975923D01*
X107440732Y-116975923D02*
X107464922Y-116927542D01*
X107464922Y-116927542D02*
X107489113Y-116903352D01*
X107489113Y-116903352D02*
X107537494Y-116879161D01*
X104700646Y-108308467D02*
X104942551Y-108308467D01*
X104942551Y-108308467D02*
X104942551Y-107800467D01*
X104555504Y-107848848D02*
X104531313Y-107824657D01*
X104531313Y-107824657D02*
X104482932Y-107800467D01*
X104482932Y-107800467D02*
X104361980Y-107800467D01*
X104361980Y-107800467D02*
X104313599Y-107824657D01*
X104313599Y-107824657D02*
X104289408Y-107848848D01*
X104289408Y-107848848D02*
X104265218Y-107897229D01*
X104265218Y-107897229D02*
X104265218Y-107945610D01*
X104265218Y-107945610D02*
X104289408Y-108018181D01*
X104289408Y-108018181D02*
X104579694Y-108308467D01*
X104579694Y-108308467D02*
X104265218Y-108308467D01*
X101403507Y-97565113D02*
X101161602Y-97395779D01*
X101403507Y-97274827D02*
X100895507Y-97274827D01*
X100895507Y-97274827D02*
X100895507Y-97468351D01*
X100895507Y-97468351D02*
X100919697Y-97516732D01*
X100919697Y-97516732D02*
X100943888Y-97540922D01*
X100943888Y-97540922D02*
X100992269Y-97565113D01*
X100992269Y-97565113D02*
X101064840Y-97565113D01*
X101064840Y-97565113D02*
X101113221Y-97540922D01*
X101113221Y-97540922D02*
X101137412Y-97516732D01*
X101137412Y-97516732D02*
X101161602Y-97468351D01*
X101161602Y-97468351D02*
X101161602Y-97274827D01*
X101403507Y-98048922D02*
X101403507Y-97758636D01*
X101403507Y-97903779D02*
X100895507Y-97903779D01*
X100895507Y-97903779D02*
X100968078Y-97855398D01*
X100968078Y-97855398D02*
X101016459Y-97807017D01*
X101016459Y-97807017D02*
X101040650Y-97758636D01*
X101403507Y-98532732D02*
X101403507Y-98242446D01*
X101403507Y-98387589D02*
X100895507Y-98387589D01*
X100895507Y-98387589D02*
X100968078Y-98339208D01*
X100968078Y-98339208D02*
X101016459Y-98290827D01*
X101016459Y-98290827D02*
X101040650Y-98242446D01*
X101697231Y-112105606D02*
X101721422Y-112129797D01*
X101721422Y-112129797D02*
X101793993Y-112153987D01*
X101793993Y-112153987D02*
X101842374Y-112153987D01*
X101842374Y-112153987D02*
X101914946Y-112129797D01*
X101914946Y-112129797D02*
X101963327Y-112081416D01*
X101963327Y-112081416D02*
X101987517Y-112033035D01*
X101987517Y-112033035D02*
X102011708Y-111936273D01*
X102011708Y-111936273D02*
X102011708Y-111863701D01*
X102011708Y-111863701D02*
X101987517Y-111766939D01*
X101987517Y-111766939D02*
X101963327Y-111718558D01*
X101963327Y-111718558D02*
X101914946Y-111670177D01*
X101914946Y-111670177D02*
X101842374Y-111645987D01*
X101842374Y-111645987D02*
X101793993Y-111645987D01*
X101793993Y-111645987D02*
X101721422Y-111670177D01*
X101721422Y-111670177D02*
X101697231Y-111694368D01*
X101213422Y-112153987D02*
X101503708Y-112153987D01*
X101358565Y-112153987D02*
X101358565Y-111645987D01*
X101358565Y-111645987D02*
X101406946Y-111718558D01*
X101406946Y-111718558D02*
X101455327Y-111766939D01*
X101455327Y-111766939D02*
X101503708Y-111791130D01*
X100777993Y-111815320D02*
X100777993Y-112153987D01*
X100898945Y-111621797D02*
X101019898Y-111984654D01*
X101019898Y-111984654D02*
X100705421Y-111984654D01*
X103432846Y-97565113D02*
X103457037Y-97540922D01*
X103457037Y-97540922D02*
X103481227Y-97468351D01*
X103481227Y-97468351D02*
X103481227Y-97419970D01*
X103481227Y-97419970D02*
X103457037Y-97347398D01*
X103457037Y-97347398D02*
X103408656Y-97299017D01*
X103408656Y-97299017D02*
X103360275Y-97274827D01*
X103360275Y-97274827D02*
X103263513Y-97250636D01*
X103263513Y-97250636D02*
X103190941Y-97250636D01*
X103190941Y-97250636D02*
X103094179Y-97274827D01*
X103094179Y-97274827D02*
X103045798Y-97299017D01*
X103045798Y-97299017D02*
X102997417Y-97347398D01*
X102997417Y-97347398D02*
X102973227Y-97419970D01*
X102973227Y-97419970D02*
X102973227Y-97468351D01*
X102973227Y-97468351D02*
X102997417Y-97540922D01*
X102997417Y-97540922D02*
X103021608Y-97565113D01*
X103481227Y-98048922D02*
X103481227Y-97758636D01*
X103481227Y-97903779D02*
X102973227Y-97903779D01*
X102973227Y-97903779D02*
X103045798Y-97855398D01*
X103045798Y-97855398D02*
X103094179Y-97807017D01*
X103094179Y-97807017D02*
X103118370Y-97758636D01*
X102973227Y-98363399D02*
X102973227Y-98411780D01*
X102973227Y-98411780D02*
X102997417Y-98460161D01*
X102997417Y-98460161D02*
X103021608Y-98484351D01*
X103021608Y-98484351D02*
X103069989Y-98508542D01*
X103069989Y-98508542D02*
X103166751Y-98532732D01*
X103166751Y-98532732D02*
X103287703Y-98532732D01*
X103287703Y-98532732D02*
X103384465Y-98508542D01*
X103384465Y-98508542D02*
X103432846Y-98484351D01*
X103432846Y-98484351D02*
X103457037Y-98460161D01*
X103457037Y-98460161D02*
X103481227Y-98411780D01*
X103481227Y-98411780D02*
X103481227Y-98363399D01*
X103481227Y-98363399D02*
X103457037Y-98315018D01*
X103457037Y-98315018D02*
X103432846Y-98290827D01*
X103432846Y-98290827D02*
X103384465Y-98266637D01*
X103384465Y-98266637D02*
X103287703Y-98242446D01*
X103287703Y-98242446D02*
X103166751Y-98242446D01*
X103166751Y-98242446D02*
X103069989Y-98266637D01*
X103069989Y-98266637D02*
X103021608Y-98290827D01*
X103021608Y-98290827D02*
X102997417Y-98315018D01*
X102997417Y-98315018D02*
X102973227Y-98363399D01*
X108909967Y-114720527D02*
X108909967Y-115131765D01*
X108909967Y-115131765D02*
X108885777Y-115180146D01*
X108885777Y-115180146D02*
X108861586Y-115204337D01*
X108861586Y-115204337D02*
X108813205Y-115228527D01*
X108813205Y-115228527D02*
X108716443Y-115228527D01*
X108716443Y-115228527D02*
X108668062Y-115204337D01*
X108668062Y-115204337D02*
X108643872Y-115180146D01*
X108643872Y-115180146D02*
X108619681Y-115131765D01*
X108619681Y-115131765D02*
X108619681Y-114720527D01*
X108135872Y-114720527D02*
X108377777Y-114720527D01*
X108377777Y-114720527D02*
X108401968Y-114962432D01*
X108401968Y-114962432D02*
X108377777Y-114938241D01*
X108377777Y-114938241D02*
X108329396Y-114914051D01*
X108329396Y-114914051D02*
X108208444Y-114914051D01*
X108208444Y-114914051D02*
X108160063Y-114938241D01*
X108160063Y-114938241D02*
X108135872Y-114962432D01*
X108135872Y-114962432D02*
X108111682Y-115010813D01*
X108111682Y-115010813D02*
X108111682Y-115131765D01*
X108111682Y-115131765D02*
X108135872Y-115180146D01*
X108135872Y-115180146D02*
X108160063Y-115204337D01*
X108160063Y-115204337D02*
X108208444Y-115228527D01*
X108208444Y-115228527D02*
X108329396Y-115228527D01*
X108329396Y-115228527D02*
X108377777Y-115204337D01*
X108377777Y-115204337D02*
X108401968Y-115180146D01*
X106083875Y-109190950D02*
X106083875Y-108682950D01*
X106083875Y-108682950D02*
X105962923Y-108682950D01*
X105962923Y-108682950D02*
X105890351Y-108707140D01*
X105890351Y-108707140D02*
X105841970Y-108755521D01*
X105841970Y-108755521D02*
X105817780Y-108803902D01*
X105817780Y-108803902D02*
X105793589Y-108900664D01*
X105793589Y-108900664D02*
X105793589Y-108973236D01*
X105793589Y-108973236D02*
X105817780Y-109069998D01*
X105817780Y-109069998D02*
X105841970Y-109118379D01*
X105841970Y-109118379D02*
X105890351Y-109166760D01*
X105890351Y-109166760D02*
X105962923Y-109190950D01*
X105962923Y-109190950D02*
X106083875Y-109190950D01*
X105600066Y-108731331D02*
X105575875Y-108707140D01*
X105575875Y-108707140D02*
X105527494Y-108682950D01*
X105527494Y-108682950D02*
X105406542Y-108682950D01*
X105406542Y-108682950D02*
X105358161Y-108707140D01*
X105358161Y-108707140D02*
X105333970Y-108731331D01*
X105333970Y-108731331D02*
X105309780Y-108779712D01*
X105309780Y-108779712D02*
X105309780Y-108828093D01*
X105309780Y-108828093D02*
X105333970Y-108900664D01*
X105333970Y-108900664D02*
X105624256Y-109190950D01*
X105624256Y-109190950D02*
X105309780Y-109190950D01*
X104908887Y-97565113D02*
X104666982Y-97395779D01*
X104908887Y-97274827D02*
X104400887Y-97274827D01*
X104400887Y-97274827D02*
X104400887Y-97468351D01*
X104400887Y-97468351D02*
X104425077Y-97516732D01*
X104425077Y-97516732D02*
X104449268Y-97540922D01*
X104449268Y-97540922D02*
X104497649Y-97565113D01*
X104497649Y-97565113D02*
X104570220Y-97565113D01*
X104570220Y-97565113D02*
X104618601Y-97540922D01*
X104618601Y-97540922D02*
X104642792Y-97516732D01*
X104642792Y-97516732D02*
X104666982Y-97468351D01*
X104666982Y-97468351D02*
X104666982Y-97274827D01*
X104908887Y-98048922D02*
X104908887Y-97758636D01*
X104908887Y-97903779D02*
X104400887Y-97903779D01*
X104400887Y-97903779D02*
X104473458Y-97855398D01*
X104473458Y-97855398D02*
X104521839Y-97807017D01*
X104521839Y-97807017D02*
X104546030Y-97758636D01*
X104570220Y-98484351D02*
X104908887Y-98484351D01*
X104376697Y-98363399D02*
X104739554Y-98242446D01*
X104739554Y-98242446D02*
X104739554Y-98556923D01*
X105895607Y-101592427D02*
X105895607Y-102003665D01*
X105895607Y-102003665D02*
X105871417Y-102052046D01*
X105871417Y-102052046D02*
X105847226Y-102076237D01*
X105847226Y-102076237D02*
X105798845Y-102100427D01*
X105798845Y-102100427D02*
X105702083Y-102100427D01*
X105702083Y-102100427D02*
X105653702Y-102076237D01*
X105653702Y-102076237D02*
X105629512Y-102052046D01*
X105629512Y-102052046D02*
X105605321Y-102003665D01*
X105605321Y-102003665D02*
X105605321Y-101592427D01*
X105387608Y-101640808D02*
X105363417Y-101616617D01*
X105363417Y-101616617D02*
X105315036Y-101592427D01*
X105315036Y-101592427D02*
X105194084Y-101592427D01*
X105194084Y-101592427D02*
X105145703Y-101616617D01*
X105145703Y-101616617D02*
X105121512Y-101640808D01*
X105121512Y-101640808D02*
X105097322Y-101689189D01*
X105097322Y-101689189D02*
X105097322Y-101737570D01*
X105097322Y-101737570D02*
X105121512Y-101810141D01*
X105121512Y-101810141D02*
X105411798Y-102100427D01*
X105411798Y-102100427D02*
X105097322Y-102100427D01*
X99490451Y-110938186D02*
X99514642Y-110962377D01*
X99514642Y-110962377D02*
X99587213Y-110986567D01*
X99587213Y-110986567D02*
X99635594Y-110986567D01*
X99635594Y-110986567D02*
X99708166Y-110962377D01*
X99708166Y-110962377D02*
X99756547Y-110913996D01*
X99756547Y-110913996D02*
X99780737Y-110865615D01*
X99780737Y-110865615D02*
X99804928Y-110768853D01*
X99804928Y-110768853D02*
X99804928Y-110696281D01*
X99804928Y-110696281D02*
X99780737Y-110599519D01*
X99780737Y-110599519D02*
X99756547Y-110551138D01*
X99756547Y-110551138D02*
X99708166Y-110502757D01*
X99708166Y-110502757D02*
X99635594Y-110478567D01*
X99635594Y-110478567D02*
X99587213Y-110478567D01*
X99587213Y-110478567D02*
X99514642Y-110502757D01*
X99514642Y-110502757D02*
X99490451Y-110526948D01*
X99006642Y-110986567D02*
X99296928Y-110986567D01*
X99151785Y-110986567D02*
X99151785Y-110478567D01*
X99151785Y-110478567D02*
X99200166Y-110551138D01*
X99200166Y-110551138D02*
X99248547Y-110599519D01*
X99248547Y-110599519D02*
X99296928Y-110623710D01*
X98813118Y-110526948D02*
X98788927Y-110502757D01*
X98788927Y-110502757D02*
X98740546Y-110478567D01*
X98740546Y-110478567D02*
X98619594Y-110478567D01*
X98619594Y-110478567D02*
X98571213Y-110502757D01*
X98571213Y-110502757D02*
X98547022Y-110526948D01*
X98547022Y-110526948D02*
X98522832Y-110575329D01*
X98522832Y-110575329D02*
X98522832Y-110623710D01*
X98522832Y-110623710D02*
X98547022Y-110696281D01*
X98547022Y-110696281D02*
X98837308Y-110986567D01*
X98837308Y-110986567D02*
X98522832Y-110986567D01*
X102666867Y-117109567D02*
X102666867Y-117520805D01*
X102666867Y-117520805D02*
X102642677Y-117569186D01*
X102642677Y-117569186D02*
X102618486Y-117593377D01*
X102618486Y-117593377D02*
X102570105Y-117617567D01*
X102570105Y-117617567D02*
X102473343Y-117617567D01*
X102473343Y-117617567D02*
X102424962Y-117593377D01*
X102424962Y-117593377D02*
X102400772Y-117569186D01*
X102400772Y-117569186D02*
X102376581Y-117520805D01*
X102376581Y-117520805D02*
X102376581Y-117109567D01*
X101916963Y-117278900D02*
X101916963Y-117617567D01*
X102037915Y-117085377D02*
X102158868Y-117448234D01*
X102158868Y-117448234D02*
X101844391Y-117448234D01*
X106330966Y-102745468D02*
X106355157Y-102721277D01*
X106355157Y-102721277D02*
X106379347Y-102648706D01*
X106379347Y-102648706D02*
X106379347Y-102600325D01*
X106379347Y-102600325D02*
X106355157Y-102527753D01*
X106355157Y-102527753D02*
X106306776Y-102479372D01*
X106306776Y-102479372D02*
X106258395Y-102455182D01*
X106258395Y-102455182D02*
X106161633Y-102430991D01*
X106161633Y-102430991D02*
X106089061Y-102430991D01*
X106089061Y-102430991D02*
X105992299Y-102455182D01*
X105992299Y-102455182D02*
X105943918Y-102479372D01*
X105943918Y-102479372D02*
X105895537Y-102527753D01*
X105895537Y-102527753D02*
X105871347Y-102600325D01*
X105871347Y-102600325D02*
X105871347Y-102648706D01*
X105871347Y-102648706D02*
X105895537Y-102721277D01*
X105895537Y-102721277D02*
X105919728Y-102745468D01*
X106379347Y-103229277D02*
X106379347Y-102938991D01*
X106379347Y-103084134D02*
X105871347Y-103084134D01*
X105871347Y-103084134D02*
X105943918Y-103035753D01*
X105943918Y-103035753D02*
X105992299Y-102987372D01*
X105992299Y-102987372D02*
X106016490Y-102938991D01*
X106379347Y-103713087D02*
X106379347Y-103422801D01*
X106379347Y-103567944D02*
X105871347Y-103567944D01*
X105871347Y-103567944D02*
X105943918Y-103519563D01*
X105943918Y-103519563D02*
X105992299Y-103471182D01*
X105992299Y-103471182D02*
X106016490Y-103422801D01*
X105609867Y-97565113D02*
X105367962Y-97395779D01*
X105609867Y-97274827D02*
X105101867Y-97274827D01*
X105101867Y-97274827D02*
X105101867Y-97468351D01*
X105101867Y-97468351D02*
X105126057Y-97516732D01*
X105126057Y-97516732D02*
X105150248Y-97540922D01*
X105150248Y-97540922D02*
X105198629Y-97565113D01*
X105198629Y-97565113D02*
X105271200Y-97565113D01*
X105271200Y-97565113D02*
X105319581Y-97540922D01*
X105319581Y-97540922D02*
X105343772Y-97516732D01*
X105343772Y-97516732D02*
X105367962Y-97468351D01*
X105367962Y-97468351D02*
X105367962Y-97274827D01*
X105609867Y-98048922D02*
X105609867Y-97758636D01*
X105609867Y-97903779D02*
X105101867Y-97903779D01*
X105101867Y-97903779D02*
X105174438Y-97855398D01*
X105174438Y-97855398D02*
X105222819Y-97807017D01*
X105222819Y-97807017D02*
X105247010Y-97758636D01*
X105101867Y-98218256D02*
X105101867Y-98532732D01*
X105101867Y-98532732D02*
X105295391Y-98363399D01*
X105295391Y-98363399D02*
X105295391Y-98435970D01*
X105295391Y-98435970D02*
X105319581Y-98484351D01*
X105319581Y-98484351D02*
X105343772Y-98508542D01*
X105343772Y-98508542D02*
X105392153Y-98532732D01*
X105392153Y-98532732D02*
X105513105Y-98532732D01*
X105513105Y-98532732D02*
X105561486Y-98508542D01*
X105561486Y-98508542D02*
X105585677Y-98484351D01*
X105585677Y-98484351D02*
X105609867Y-98435970D01*
X105609867Y-98435970D02*
X105609867Y-98290827D01*
X105609867Y-98290827D02*
X105585677Y-98242446D01*
X105585677Y-98242446D02*
X105561486Y-98218256D01*
X104826666Y-116720648D02*
X104850857Y-116696457D01*
X104850857Y-116696457D02*
X104875047Y-116623886D01*
X104875047Y-116623886D02*
X104875047Y-116575505D01*
X104875047Y-116575505D02*
X104850857Y-116502933D01*
X104850857Y-116502933D02*
X104802476Y-116454552D01*
X104802476Y-116454552D02*
X104754095Y-116430362D01*
X104754095Y-116430362D02*
X104657333Y-116406171D01*
X104657333Y-116406171D02*
X104584761Y-116406171D01*
X104584761Y-116406171D02*
X104487999Y-116430362D01*
X104487999Y-116430362D02*
X104439618Y-116454552D01*
X104439618Y-116454552D02*
X104391237Y-116502933D01*
X104391237Y-116502933D02*
X104367047Y-116575505D01*
X104367047Y-116575505D02*
X104367047Y-116623886D01*
X104367047Y-116623886D02*
X104391237Y-116696457D01*
X104391237Y-116696457D02*
X104415428Y-116720648D01*
X104415428Y-116914171D02*
X104391237Y-116938362D01*
X104391237Y-116938362D02*
X104367047Y-116986743D01*
X104367047Y-116986743D02*
X104367047Y-117107695D01*
X104367047Y-117107695D02*
X104391237Y-117156076D01*
X104391237Y-117156076D02*
X104415428Y-117180267D01*
X104415428Y-117180267D02*
X104463809Y-117204457D01*
X104463809Y-117204457D02*
X104512190Y-117204457D01*
X104512190Y-117204457D02*
X104584761Y-117180267D01*
X104584761Y-117180267D02*
X104875047Y-116889981D01*
X104875047Y-116889981D02*
X104875047Y-117204457D01*
X104875047Y-117688267D02*
X104875047Y-117397981D01*
X104875047Y-117543124D02*
X104367047Y-117543124D01*
X104367047Y-117543124D02*
X104439618Y-117494743D01*
X104439618Y-117494743D02*
X104487999Y-117446362D01*
X104487999Y-117446362D02*
X104512190Y-117397981D01*
X106330966Y-104389453D02*
X106355157Y-104365262D01*
X106355157Y-104365262D02*
X106379347Y-104292691D01*
X106379347Y-104292691D02*
X106379347Y-104244310D01*
X106379347Y-104244310D02*
X106355157Y-104171738D01*
X106355157Y-104171738D02*
X106306776Y-104123357D01*
X106306776Y-104123357D02*
X106258395Y-104099167D01*
X106258395Y-104099167D02*
X106161633Y-104074976D01*
X106161633Y-104074976D02*
X106089061Y-104074976D01*
X106089061Y-104074976D02*
X105992299Y-104099167D01*
X105992299Y-104099167D02*
X105943918Y-104123357D01*
X105943918Y-104123357D02*
X105895537Y-104171738D01*
X105895537Y-104171738D02*
X105871347Y-104244310D01*
X105871347Y-104244310D02*
X105871347Y-104292691D01*
X105871347Y-104292691D02*
X105895537Y-104365262D01*
X105895537Y-104365262D02*
X105919728Y-104389453D01*
X106379347Y-104631357D02*
X106379347Y-104728119D01*
X106379347Y-104728119D02*
X106355157Y-104776500D01*
X106355157Y-104776500D02*
X106330966Y-104800691D01*
X106330966Y-104800691D02*
X106258395Y-104849072D01*
X106258395Y-104849072D02*
X106161633Y-104873262D01*
X106161633Y-104873262D02*
X105968109Y-104873262D01*
X105968109Y-104873262D02*
X105919728Y-104849072D01*
X105919728Y-104849072D02*
X105895537Y-104824881D01*
X105895537Y-104824881D02*
X105871347Y-104776500D01*
X105871347Y-104776500D02*
X105871347Y-104679738D01*
X105871347Y-104679738D02*
X105895537Y-104631357D01*
X105895537Y-104631357D02*
X105919728Y-104607167D01*
X105919728Y-104607167D02*
X105968109Y-104582976D01*
X105968109Y-104582976D02*
X106089061Y-104582976D01*
X106089061Y-104582976D02*
X106137442Y-104607167D01*
X106137442Y-104607167D02*
X106161633Y-104631357D01*
X106161633Y-104631357D02*
X106185823Y-104679738D01*
X106185823Y-104679738D02*
X106185823Y-104776500D01*
X106185823Y-104776500D02*
X106161633Y-104824881D01*
X106161633Y-104824881D02*
X106137442Y-104849072D01*
X106137442Y-104849072D02*
X106089061Y-104873262D01*
X102055506Y-97565113D02*
X102079697Y-97540922D01*
X102079697Y-97540922D02*
X102103887Y-97468351D01*
X102103887Y-97468351D02*
X102103887Y-97419970D01*
X102103887Y-97419970D02*
X102079697Y-97347398D01*
X102079697Y-97347398D02*
X102031316Y-97299017D01*
X102031316Y-97299017D02*
X101982935Y-97274827D01*
X101982935Y-97274827D02*
X101886173Y-97250636D01*
X101886173Y-97250636D02*
X101813601Y-97250636D01*
X101813601Y-97250636D02*
X101716839Y-97274827D01*
X101716839Y-97274827D02*
X101668458Y-97299017D01*
X101668458Y-97299017D02*
X101620077Y-97347398D01*
X101620077Y-97347398D02*
X101595887Y-97419970D01*
X101595887Y-97419970D02*
X101595887Y-97468351D01*
X101595887Y-97468351D02*
X101620077Y-97540922D01*
X101620077Y-97540922D02*
X101644268Y-97565113D01*
X101813601Y-97855398D02*
X101789411Y-97807017D01*
X101789411Y-97807017D02*
X101765220Y-97782827D01*
X101765220Y-97782827D02*
X101716839Y-97758636D01*
X101716839Y-97758636D02*
X101692649Y-97758636D01*
X101692649Y-97758636D02*
X101644268Y-97782827D01*
X101644268Y-97782827D02*
X101620077Y-97807017D01*
X101620077Y-97807017D02*
X101595887Y-97855398D01*
X101595887Y-97855398D02*
X101595887Y-97952160D01*
X101595887Y-97952160D02*
X101620077Y-98000541D01*
X101620077Y-98000541D02*
X101644268Y-98024732D01*
X101644268Y-98024732D02*
X101692649Y-98048922D01*
X101692649Y-98048922D02*
X101716839Y-98048922D01*
X101716839Y-98048922D02*
X101765220Y-98024732D01*
X101765220Y-98024732D02*
X101789411Y-98000541D01*
X101789411Y-98000541D02*
X101813601Y-97952160D01*
X101813601Y-97952160D02*
X101813601Y-97855398D01*
X101813601Y-97855398D02*
X101837792Y-97807017D01*
X101837792Y-97807017D02*
X101861982Y-97782827D01*
X101861982Y-97782827D02*
X101910363Y-97758636D01*
X101910363Y-97758636D02*
X102007125Y-97758636D01*
X102007125Y-97758636D02*
X102055506Y-97782827D01*
X102055506Y-97782827D02*
X102079697Y-97807017D01*
X102079697Y-97807017D02*
X102103887Y-97855398D01*
X102103887Y-97855398D02*
X102103887Y-97952160D01*
X102103887Y-97952160D02*
X102079697Y-98000541D01*
X102079697Y-98000541D02*
X102055506Y-98024732D01*
X102055506Y-98024732D02*
X102007125Y-98048922D01*
X102007125Y-98048922D02*
X101910363Y-98048922D01*
X101910363Y-98048922D02*
X101861982Y-98024732D01*
X101861982Y-98024732D02*
X101837792Y-98000541D01*
X101837792Y-98000541D02*
X101813601Y-97952160D01*
X85475326Y-111131527D02*
X85644660Y-110889622D01*
X85765612Y-111131527D02*
X85765612Y-110623527D01*
X85765612Y-110623527D02*
X85572088Y-110623527D01*
X85572088Y-110623527D02*
X85523707Y-110647717D01*
X85523707Y-110647717D02*
X85499517Y-110671908D01*
X85499517Y-110671908D02*
X85475326Y-110720289D01*
X85475326Y-110720289D02*
X85475326Y-110792860D01*
X85475326Y-110792860D02*
X85499517Y-110841241D01*
X85499517Y-110841241D02*
X85523707Y-110865432D01*
X85523707Y-110865432D02*
X85572088Y-110889622D01*
X85572088Y-110889622D02*
X85765612Y-110889622D01*
X84991517Y-111131527D02*
X85281803Y-111131527D01*
X85136660Y-111131527D02*
X85136660Y-110623527D01*
X85136660Y-110623527D02*
X85185041Y-110696098D01*
X85185041Y-110696098D02*
X85233422Y-110744479D01*
X85233422Y-110744479D02*
X85281803Y-110768670D01*
X97619286Y-112626488D02*
X97643477Y-112602297D01*
X97643477Y-112602297D02*
X97667667Y-112529726D01*
X97667667Y-112529726D02*
X97667667Y-112481345D01*
X97667667Y-112481345D02*
X97643477Y-112408773D01*
X97643477Y-112408773D02*
X97595096Y-112360392D01*
X97595096Y-112360392D02*
X97546715Y-112336202D01*
X97546715Y-112336202D02*
X97449953Y-112312011D01*
X97449953Y-112312011D02*
X97377381Y-112312011D01*
X97377381Y-112312011D02*
X97280619Y-112336202D01*
X97280619Y-112336202D02*
X97232238Y-112360392D01*
X97232238Y-112360392D02*
X97183857Y-112408773D01*
X97183857Y-112408773D02*
X97159667Y-112481345D01*
X97159667Y-112481345D02*
X97159667Y-112529726D01*
X97159667Y-112529726D02*
X97183857Y-112602297D01*
X97183857Y-112602297D02*
X97208048Y-112626488D01*
X97667667Y-113110297D02*
X97667667Y-112820011D01*
X97667667Y-112965154D02*
X97159667Y-112965154D01*
X97159667Y-112965154D02*
X97232238Y-112916773D01*
X97232238Y-112916773D02*
X97280619Y-112868392D01*
X97280619Y-112868392D02*
X97304810Y-112820011D01*
X97159667Y-113279631D02*
X97159667Y-113618298D01*
X97159667Y-113618298D02*
X97667667Y-113400583D01*
X104189987Y-97565113D02*
X103948082Y-97395779D01*
X104189987Y-97274827D02*
X103681987Y-97274827D01*
X103681987Y-97274827D02*
X103681987Y-97468351D01*
X103681987Y-97468351D02*
X103706177Y-97516732D01*
X103706177Y-97516732D02*
X103730368Y-97540922D01*
X103730368Y-97540922D02*
X103778749Y-97565113D01*
X103778749Y-97565113D02*
X103851320Y-97565113D01*
X103851320Y-97565113D02*
X103899701Y-97540922D01*
X103899701Y-97540922D02*
X103923892Y-97516732D01*
X103923892Y-97516732D02*
X103948082Y-97468351D01*
X103948082Y-97468351D02*
X103948082Y-97274827D01*
X104189987Y-98048922D02*
X104189987Y-97758636D01*
X104189987Y-97903779D02*
X103681987Y-97903779D01*
X103681987Y-97903779D02*
X103754558Y-97855398D01*
X103754558Y-97855398D02*
X103802939Y-97807017D01*
X103802939Y-97807017D02*
X103827130Y-97758636D01*
X103681987Y-98363399D02*
X103681987Y-98411780D01*
X103681987Y-98411780D02*
X103706177Y-98460161D01*
X103706177Y-98460161D02*
X103730368Y-98484351D01*
X103730368Y-98484351D02*
X103778749Y-98508542D01*
X103778749Y-98508542D02*
X103875511Y-98532732D01*
X103875511Y-98532732D02*
X103996463Y-98532732D01*
X103996463Y-98532732D02*
X104093225Y-98508542D01*
X104093225Y-98508542D02*
X104141606Y-98484351D01*
X104141606Y-98484351D02*
X104165797Y-98460161D01*
X104165797Y-98460161D02*
X104189987Y-98411780D01*
X104189987Y-98411780D02*
X104189987Y-98363399D01*
X104189987Y-98363399D02*
X104165797Y-98315018D01*
X104165797Y-98315018D02*
X104141606Y-98290827D01*
X104141606Y-98290827D02*
X104093225Y-98266637D01*
X104093225Y-98266637D02*
X103996463Y-98242446D01*
X103996463Y-98242446D02*
X103875511Y-98242446D01*
X103875511Y-98242446D02*
X103778749Y-98266637D01*
X103778749Y-98266637D02*
X103730368Y-98290827D01*
X103730368Y-98290827D02*
X103706177Y-98315018D01*
X103706177Y-98315018D02*
X103681987Y-98363399D01*
X99972515Y-109249367D02*
X99972515Y-108741367D01*
X99972515Y-108741367D02*
X99851563Y-108741367D01*
X99851563Y-108741367D02*
X99778991Y-108765557D01*
X99778991Y-108765557D02*
X99730610Y-108813938D01*
X99730610Y-108813938D02*
X99706420Y-108862319D01*
X99706420Y-108862319D02*
X99682229Y-108959081D01*
X99682229Y-108959081D02*
X99682229Y-109031653D01*
X99682229Y-109031653D02*
X99706420Y-109128415D01*
X99706420Y-109128415D02*
X99730610Y-109176796D01*
X99730610Y-109176796D02*
X99778991Y-109225177D01*
X99778991Y-109225177D02*
X99851563Y-109249367D01*
X99851563Y-109249367D02*
X99972515Y-109249367D01*
X99198420Y-109249367D02*
X99488706Y-109249367D01*
X99343563Y-109249367D02*
X99343563Y-108741367D01*
X99343563Y-108741367D02*
X99391944Y-108813938D01*
X99391944Y-108813938D02*
X99440325Y-108862319D01*
X99440325Y-108862319D02*
X99488706Y-108886510D01*
X99332147Y-117109567D02*
X99332147Y-117520805D01*
X99332147Y-117520805D02*
X99307957Y-117569186D01*
X99307957Y-117569186D02*
X99283766Y-117593377D01*
X99283766Y-117593377D02*
X99235385Y-117617567D01*
X99235385Y-117617567D02*
X99138623Y-117617567D01*
X99138623Y-117617567D02*
X99090242Y-117593377D01*
X99090242Y-117593377D02*
X99066052Y-117569186D01*
X99066052Y-117569186D02*
X99041861Y-117520805D01*
X99041861Y-117520805D02*
X99041861Y-117109567D01*
X98848338Y-117109567D02*
X98533862Y-117109567D01*
X98533862Y-117109567D02*
X98703195Y-117303091D01*
X98703195Y-117303091D02*
X98630624Y-117303091D01*
X98630624Y-117303091D02*
X98582243Y-117327281D01*
X98582243Y-117327281D02*
X98558052Y-117351472D01*
X98558052Y-117351472D02*
X98533862Y-117399853D01*
X98533862Y-117399853D02*
X98533862Y-117520805D01*
X98533862Y-117520805D02*
X98558052Y-117569186D01*
X98558052Y-117569186D02*
X98582243Y-117593377D01*
X98582243Y-117593377D02*
X98630624Y-117617567D01*
X98630624Y-117617567D02*
X98775767Y-117617567D01*
X98775767Y-117617567D02*
X98824148Y-117593377D01*
X98824148Y-117593377D02*
X98848338Y-117569186D01*
X102911511Y-116568047D02*
X103080845Y-116326142D01*
X103201797Y-116568047D02*
X103201797Y-116060047D01*
X103201797Y-116060047D02*
X103008273Y-116060047D01*
X103008273Y-116060047D02*
X102959892Y-116084237D01*
X102959892Y-116084237D02*
X102935702Y-116108428D01*
X102935702Y-116108428D02*
X102911511Y-116156809D01*
X102911511Y-116156809D02*
X102911511Y-116229380D01*
X102911511Y-116229380D02*
X102935702Y-116277761D01*
X102935702Y-116277761D02*
X102959892Y-116301952D01*
X102959892Y-116301952D02*
X103008273Y-116326142D01*
X103008273Y-116326142D02*
X103201797Y-116326142D01*
X102427702Y-116568047D02*
X102717988Y-116568047D01*
X102572845Y-116568047D02*
X102572845Y-116060047D01*
X102572845Y-116060047D02*
X102621226Y-116132618D01*
X102621226Y-116132618D02*
X102669607Y-116180999D01*
X102669607Y-116180999D02*
X102717988Y-116205190D01*
X102137416Y-116277761D02*
X102185797Y-116253571D01*
X102185797Y-116253571D02*
X102209987Y-116229380D01*
X102209987Y-116229380D02*
X102234178Y-116180999D01*
X102234178Y-116180999D02*
X102234178Y-116156809D01*
X102234178Y-116156809D02*
X102209987Y-116108428D01*
X102209987Y-116108428D02*
X102185797Y-116084237D01*
X102185797Y-116084237D02*
X102137416Y-116060047D01*
X102137416Y-116060047D02*
X102040654Y-116060047D01*
X102040654Y-116060047D02*
X101992273Y-116084237D01*
X101992273Y-116084237D02*
X101968082Y-116108428D01*
X101968082Y-116108428D02*
X101943892Y-116156809D01*
X101943892Y-116156809D02*
X101943892Y-116180999D01*
X101943892Y-116180999D02*
X101968082Y-116229380D01*
X101968082Y-116229380D02*
X101992273Y-116253571D01*
X101992273Y-116253571D02*
X102040654Y-116277761D01*
X102040654Y-116277761D02*
X102137416Y-116277761D01*
X102137416Y-116277761D02*
X102185797Y-116301952D01*
X102185797Y-116301952D02*
X102209987Y-116326142D01*
X102209987Y-116326142D02*
X102234178Y-116374523D01*
X102234178Y-116374523D02*
X102234178Y-116471285D01*
X102234178Y-116471285D02*
X102209987Y-116519666D01*
X102209987Y-116519666D02*
X102185797Y-116543857D01*
X102185797Y-116543857D02*
X102137416Y-116568047D01*
X102137416Y-116568047D02*
X102040654Y-116568047D01*
X102040654Y-116568047D02*
X101992273Y-116543857D01*
X101992273Y-116543857D02*
X101968082Y-116519666D01*
X101968082Y-116519666D02*
X101943892Y-116471285D01*
X101943892Y-116471285D02*
X101943892Y-116374523D01*
X101943892Y-116374523D02*
X101968082Y-116326142D01*
X101968082Y-116326142D02*
X101992273Y-116301952D01*
X101992273Y-116301952D02*
X102040654Y-116277761D01*
X100287311Y-116644247D02*
X100456645Y-116402342D01*
X100577597Y-116644247D02*
X100577597Y-116136247D01*
X100577597Y-116136247D02*
X100384073Y-116136247D01*
X100384073Y-116136247D02*
X100335692Y-116160437D01*
X100335692Y-116160437D02*
X100311502Y-116184628D01*
X100311502Y-116184628D02*
X100287311Y-116233009D01*
X100287311Y-116233009D02*
X100287311Y-116305580D01*
X100287311Y-116305580D02*
X100311502Y-116353961D01*
X100311502Y-116353961D02*
X100335692Y-116378152D01*
X100335692Y-116378152D02*
X100384073Y-116402342D01*
X100384073Y-116402342D02*
X100577597Y-116402342D01*
X99803502Y-116644247D02*
X100093788Y-116644247D01*
X99948645Y-116644247D02*
X99948645Y-116136247D01*
X99948645Y-116136247D02*
X99997026Y-116208818D01*
X99997026Y-116208818D02*
X100045407Y-116257199D01*
X100045407Y-116257199D02*
X100093788Y-116281390D01*
X99343882Y-116136247D02*
X99585787Y-116136247D01*
X99585787Y-116136247D02*
X99609978Y-116378152D01*
X99609978Y-116378152D02*
X99585787Y-116353961D01*
X99585787Y-116353961D02*
X99537406Y-116329771D01*
X99537406Y-116329771D02*
X99416454Y-116329771D01*
X99416454Y-116329771D02*
X99368073Y-116353961D01*
X99368073Y-116353961D02*
X99343882Y-116378152D01*
X99343882Y-116378152D02*
X99319692Y-116426533D01*
X99319692Y-116426533D02*
X99319692Y-116547485D01*
X99319692Y-116547485D02*
X99343882Y-116595866D01*
X99343882Y-116595866D02*
X99368073Y-116620057D01*
X99368073Y-116620057D02*
X99416454Y-116644247D01*
X99416454Y-116644247D02*
X99537406Y-116644247D01*
X99537406Y-116644247D02*
X99585787Y-116620057D01*
X99585787Y-116620057D02*
X99609978Y-116595866D01*
X101509926Y-116669848D02*
X101534117Y-116645657D01*
X101534117Y-116645657D02*
X101558307Y-116573086D01*
X101558307Y-116573086D02*
X101558307Y-116524705D01*
X101558307Y-116524705D02*
X101534117Y-116452133D01*
X101534117Y-116452133D02*
X101485736Y-116403752D01*
X101485736Y-116403752D02*
X101437355Y-116379562D01*
X101437355Y-116379562D02*
X101340593Y-116355371D01*
X101340593Y-116355371D02*
X101268021Y-116355371D01*
X101268021Y-116355371D02*
X101171259Y-116379562D01*
X101171259Y-116379562D02*
X101122878Y-116403752D01*
X101122878Y-116403752D02*
X101074497Y-116452133D01*
X101074497Y-116452133D02*
X101050307Y-116524705D01*
X101050307Y-116524705D02*
X101050307Y-116573086D01*
X101050307Y-116573086D02*
X101074497Y-116645657D01*
X101074497Y-116645657D02*
X101098688Y-116669848D01*
X101098688Y-116863371D02*
X101074497Y-116887562D01*
X101074497Y-116887562D02*
X101050307Y-116935943D01*
X101050307Y-116935943D02*
X101050307Y-117056895D01*
X101050307Y-117056895D02*
X101074497Y-117105276D01*
X101074497Y-117105276D02*
X101098688Y-117129467D01*
X101098688Y-117129467D02*
X101147069Y-117153657D01*
X101147069Y-117153657D02*
X101195450Y-117153657D01*
X101195450Y-117153657D02*
X101268021Y-117129467D01*
X101268021Y-117129467D02*
X101558307Y-116839181D01*
X101558307Y-116839181D02*
X101558307Y-117153657D01*
X101050307Y-117468134D02*
X101050307Y-117516515D01*
X101050307Y-117516515D02*
X101074497Y-117564896D01*
X101074497Y-117564896D02*
X101098688Y-117589086D01*
X101098688Y-117589086D02*
X101147069Y-117613277D01*
X101147069Y-117613277D02*
X101243831Y-117637467D01*
X101243831Y-117637467D02*
X101364783Y-117637467D01*
X101364783Y-117637467D02*
X101461545Y-117613277D01*
X101461545Y-117613277D02*
X101509926Y-117589086D01*
X101509926Y-117589086D02*
X101534117Y-117564896D01*
X101534117Y-117564896D02*
X101558307Y-117516515D01*
X101558307Y-117516515D02*
X101558307Y-117468134D01*
X101558307Y-117468134D02*
X101534117Y-117419753D01*
X101534117Y-117419753D02*
X101509926Y-117395562D01*
X101509926Y-117395562D02*
X101461545Y-117371372D01*
X101461545Y-117371372D02*
X101364783Y-117347181D01*
X101364783Y-117347181D02*
X101243831Y-117347181D01*
X101243831Y-117347181D02*
X101147069Y-117371372D01*
X101147069Y-117371372D02*
X101098688Y-117395562D01*
X101098688Y-117395562D02*
X101074497Y-117419753D01*
X101074497Y-117419753D02*
X101050307Y-117468134D01*
X106692811Y-110938186D02*
X106717002Y-110962377D01*
X106717002Y-110962377D02*
X106789573Y-110986567D01*
X106789573Y-110986567D02*
X106837954Y-110986567D01*
X106837954Y-110986567D02*
X106910526Y-110962377D01*
X106910526Y-110962377D02*
X106958907Y-110913996D01*
X106958907Y-110913996D02*
X106983097Y-110865615D01*
X106983097Y-110865615D02*
X107007288Y-110768853D01*
X107007288Y-110768853D02*
X107007288Y-110696281D01*
X107007288Y-110696281D02*
X106983097Y-110599519D01*
X106983097Y-110599519D02*
X106958907Y-110551138D01*
X106958907Y-110551138D02*
X106910526Y-110502757D01*
X106910526Y-110502757D02*
X106837954Y-110478567D01*
X106837954Y-110478567D02*
X106789573Y-110478567D01*
X106789573Y-110478567D02*
X106717002Y-110502757D01*
X106717002Y-110502757D02*
X106692811Y-110526948D01*
X106209002Y-110986567D02*
X106499288Y-110986567D01*
X106354145Y-110986567D02*
X106354145Y-110478567D01*
X106354145Y-110478567D02*
X106402526Y-110551138D01*
X106402526Y-110551138D02*
X106450907Y-110599519D01*
X106450907Y-110599519D02*
X106499288Y-110623710D01*
X106039668Y-110478567D02*
X105725192Y-110478567D01*
X105725192Y-110478567D02*
X105894525Y-110672091D01*
X105894525Y-110672091D02*
X105821954Y-110672091D01*
X105821954Y-110672091D02*
X105773573Y-110696281D01*
X105773573Y-110696281D02*
X105749382Y-110720472D01*
X105749382Y-110720472D02*
X105725192Y-110768853D01*
X105725192Y-110768853D02*
X105725192Y-110889805D01*
X105725192Y-110889805D02*
X105749382Y-110938186D01*
X105749382Y-110938186D02*
X105773573Y-110962377D01*
X105773573Y-110962377D02*
X105821954Y-110986567D01*
X105821954Y-110986567D02*
X105967097Y-110986567D01*
X105967097Y-110986567D02*
X106015478Y-110962377D01*
X106015478Y-110962377D02*
X106039668Y-110938186D01*
X85475326Y-112610146D02*
X85499517Y-112634337D01*
X85499517Y-112634337D02*
X85572088Y-112658527D01*
X85572088Y-112658527D02*
X85620469Y-112658527D01*
X85620469Y-112658527D02*
X85693041Y-112634337D01*
X85693041Y-112634337D02*
X85741422Y-112585956D01*
X85741422Y-112585956D02*
X85765612Y-112537575D01*
X85765612Y-112537575D02*
X85789803Y-112440813D01*
X85789803Y-112440813D02*
X85789803Y-112368241D01*
X85789803Y-112368241D02*
X85765612Y-112271479D01*
X85765612Y-112271479D02*
X85741422Y-112223098D01*
X85741422Y-112223098D02*
X85693041Y-112174717D01*
X85693041Y-112174717D02*
X85620469Y-112150527D01*
X85620469Y-112150527D02*
X85572088Y-112150527D01*
X85572088Y-112150527D02*
X85499517Y-112174717D01*
X85499517Y-112174717D02*
X85475326Y-112198908D01*
X84991517Y-112658527D02*
X85281803Y-112658527D01*
X85136660Y-112658527D02*
X85136660Y-112150527D01*
X85136660Y-112150527D02*
X85185041Y-112223098D01*
X85185041Y-112223098D02*
X85233422Y-112271479D01*
X85233422Y-112271479D02*
X85281803Y-112295670D01*
X100685327Y-97565113D02*
X100443422Y-97395779D01*
X100685327Y-97274827D02*
X100177327Y-97274827D01*
X100177327Y-97274827D02*
X100177327Y-97468351D01*
X100177327Y-97468351D02*
X100201517Y-97516732D01*
X100201517Y-97516732D02*
X100225708Y-97540922D01*
X100225708Y-97540922D02*
X100274089Y-97565113D01*
X100274089Y-97565113D02*
X100346660Y-97565113D01*
X100346660Y-97565113D02*
X100395041Y-97540922D01*
X100395041Y-97540922D02*
X100419232Y-97516732D01*
X100419232Y-97516732D02*
X100443422Y-97468351D01*
X100443422Y-97468351D02*
X100443422Y-97274827D01*
X100685327Y-98048922D02*
X100685327Y-97758636D01*
X100685327Y-97903779D02*
X100177327Y-97903779D01*
X100177327Y-97903779D02*
X100249898Y-97855398D01*
X100249898Y-97855398D02*
X100298279Y-97807017D01*
X100298279Y-97807017D02*
X100322470Y-97758636D01*
X100225708Y-98242446D02*
X100201517Y-98266637D01*
X100201517Y-98266637D02*
X100177327Y-98315018D01*
X100177327Y-98315018D02*
X100177327Y-98435970D01*
X100177327Y-98435970D02*
X100201517Y-98484351D01*
X100201517Y-98484351D02*
X100225708Y-98508542D01*
X100225708Y-98508542D02*
X100274089Y-98532732D01*
X100274089Y-98532732D02*
X100322470Y-98532732D01*
X100322470Y-98532732D02*
X100395041Y-98508542D01*
X100395041Y-98508542D02*
X100685327Y-98218256D01*
X100685327Y-98218256D02*
X100685327Y-98532732D01*
X105770186Y-107129946D02*
X105794377Y-107154137D01*
X105794377Y-107154137D02*
X105866948Y-107178327D01*
X105866948Y-107178327D02*
X105915329Y-107178327D01*
X105915329Y-107178327D02*
X105987901Y-107154137D01*
X105987901Y-107154137D02*
X106036282Y-107105756D01*
X106036282Y-107105756D02*
X106060472Y-107057375D01*
X106060472Y-107057375D02*
X106084663Y-106960613D01*
X106084663Y-106960613D02*
X106084663Y-106888041D01*
X106084663Y-106888041D02*
X106060472Y-106791279D01*
X106060472Y-106791279D02*
X106036282Y-106742898D01*
X106036282Y-106742898D02*
X105987901Y-106694517D01*
X105987901Y-106694517D02*
X105915329Y-106670327D01*
X105915329Y-106670327D02*
X105866948Y-106670327D01*
X105866948Y-106670327D02*
X105794377Y-106694517D01*
X105794377Y-106694517D02*
X105770186Y-106718708D01*
X105600853Y-106670327D02*
X105262186Y-106670327D01*
X105262186Y-106670327D02*
X105479901Y-107178327D01*
X106008251Y-117611866D02*
X106032442Y-117636057D01*
X106032442Y-117636057D02*
X106105013Y-117660247D01*
X106105013Y-117660247D02*
X106153394Y-117660247D01*
X106153394Y-117660247D02*
X106225966Y-117636057D01*
X106225966Y-117636057D02*
X106274347Y-117587676D01*
X106274347Y-117587676D02*
X106298537Y-117539295D01*
X106298537Y-117539295D02*
X106322728Y-117442533D01*
X106322728Y-117442533D02*
X106322728Y-117369961D01*
X106322728Y-117369961D02*
X106298537Y-117273199D01*
X106298537Y-117273199D02*
X106274347Y-117224818D01*
X106274347Y-117224818D02*
X106225966Y-117176437D01*
X106225966Y-117176437D02*
X106153394Y-117152247D01*
X106153394Y-117152247D02*
X106105013Y-117152247D01*
X106105013Y-117152247D02*
X106032442Y-117176437D01*
X106032442Y-117176437D02*
X106008251Y-117200628D01*
X105524442Y-117660247D02*
X105814728Y-117660247D01*
X105669585Y-117660247D02*
X105669585Y-117152247D01*
X105669585Y-117152247D02*
X105717966Y-117224818D01*
X105717966Y-117224818D02*
X105766347Y-117273199D01*
X105766347Y-117273199D02*
X105814728Y-117297390D01*
X105282537Y-117660247D02*
X105185775Y-117660247D01*
X105185775Y-117660247D02*
X105137394Y-117636057D01*
X105137394Y-117636057D02*
X105113203Y-117611866D01*
X105113203Y-117611866D02*
X105064822Y-117539295D01*
X105064822Y-117539295D02*
X105040632Y-117442533D01*
X105040632Y-117442533D02*
X105040632Y-117249009D01*
X105040632Y-117249009D02*
X105064822Y-117200628D01*
X105064822Y-117200628D02*
X105089013Y-117176437D01*
X105089013Y-117176437D02*
X105137394Y-117152247D01*
X105137394Y-117152247D02*
X105234156Y-117152247D01*
X105234156Y-117152247D02*
X105282537Y-117176437D01*
X105282537Y-117176437D02*
X105306727Y-117200628D01*
X105306727Y-117200628D02*
X105330918Y-117249009D01*
X105330918Y-117249009D02*
X105330918Y-117369961D01*
X105330918Y-117369961D02*
X105306727Y-117418342D01*
X105306727Y-117418342D02*
X105282537Y-117442533D01*
X105282537Y-117442533D02*
X105234156Y-117466723D01*
X105234156Y-117466723D02*
X105137394Y-117466723D01*
X105137394Y-117466723D02*
X105089013Y-117442533D01*
X105089013Y-117442533D02*
X105064822Y-117418342D01*
X105064822Y-117418342D02*
X105040632Y-117369961D01*
X99193266Y-106099770D02*
X99435171Y-106099770D01*
X99435171Y-106099770D02*
X99435171Y-105591770D01*
X98757838Y-106099770D02*
X99048124Y-106099770D01*
X98902981Y-106099770D02*
X98902981Y-105591770D01*
X98902981Y-105591770D02*
X98951362Y-105664341D01*
X98951362Y-105664341D02*
X98999743Y-105712722D01*
X98999743Y-105712722D02*
X99048124Y-105736913D01*
X104694431Y-112090866D02*
X104718622Y-112115057D01*
X104718622Y-112115057D02*
X104791193Y-112139247D01*
X104791193Y-112139247D02*
X104839574Y-112139247D01*
X104839574Y-112139247D02*
X104912146Y-112115057D01*
X104912146Y-112115057D02*
X104960527Y-112066676D01*
X104960527Y-112066676D02*
X104984717Y-112018295D01*
X104984717Y-112018295D02*
X105008908Y-111921533D01*
X105008908Y-111921533D02*
X105008908Y-111848961D01*
X105008908Y-111848961D02*
X104984717Y-111752199D01*
X104984717Y-111752199D02*
X104960527Y-111703818D01*
X104960527Y-111703818D02*
X104912146Y-111655437D01*
X104912146Y-111655437D02*
X104839574Y-111631247D01*
X104839574Y-111631247D02*
X104791193Y-111631247D01*
X104791193Y-111631247D02*
X104718622Y-111655437D01*
X104718622Y-111655437D02*
X104694431Y-111679628D01*
X104210622Y-112139247D02*
X104500908Y-112139247D01*
X104355765Y-112139247D02*
X104355765Y-111631247D01*
X104355765Y-111631247D02*
X104404146Y-111703818D01*
X104404146Y-111703818D02*
X104452527Y-111752199D01*
X104452527Y-111752199D02*
X104500908Y-111776390D01*
X103751002Y-111631247D02*
X103992907Y-111631247D01*
X103992907Y-111631247D02*
X104017098Y-111873152D01*
X104017098Y-111873152D02*
X103992907Y-111848961D01*
X103992907Y-111848961D02*
X103944526Y-111824771D01*
X103944526Y-111824771D02*
X103823574Y-111824771D01*
X103823574Y-111824771D02*
X103775193Y-111848961D01*
X103775193Y-111848961D02*
X103751002Y-111873152D01*
X103751002Y-111873152D02*
X103726812Y-111921533D01*
X103726812Y-111921533D02*
X103726812Y-112042485D01*
X103726812Y-112042485D02*
X103751002Y-112090866D01*
X103751002Y-112090866D02*
X103775193Y-112115057D01*
X103775193Y-112115057D02*
X103823574Y-112139247D01*
X103823574Y-112139247D02*
X103944526Y-112139247D01*
X103944526Y-112139247D02*
X103992907Y-112115057D01*
X103992907Y-112115057D02*
X104017098Y-112090866D01*
X108624306Y-113472308D02*
X108648497Y-113448117D01*
X108648497Y-113448117D02*
X108672687Y-113375546D01*
X108672687Y-113375546D02*
X108672687Y-113327165D01*
X108672687Y-113327165D02*
X108648497Y-113254593D01*
X108648497Y-113254593D02*
X108600116Y-113206212D01*
X108600116Y-113206212D02*
X108551735Y-113182022D01*
X108551735Y-113182022D02*
X108454973Y-113157831D01*
X108454973Y-113157831D02*
X108382401Y-113157831D01*
X108382401Y-113157831D02*
X108285639Y-113182022D01*
X108285639Y-113182022D02*
X108237258Y-113206212D01*
X108237258Y-113206212D02*
X108188877Y-113254593D01*
X108188877Y-113254593D02*
X108164687Y-113327165D01*
X108164687Y-113327165D02*
X108164687Y-113375546D01*
X108164687Y-113375546D02*
X108188877Y-113448117D01*
X108188877Y-113448117D02*
X108213068Y-113472308D01*
X108672687Y-113956117D02*
X108672687Y-113665831D01*
X108672687Y-113810974D02*
X108164687Y-113810974D01*
X108164687Y-113810974D02*
X108237258Y-113762593D01*
X108237258Y-113762593D02*
X108285639Y-113714212D01*
X108285639Y-113714212D02*
X108309830Y-113665831D01*
X108164687Y-114391546D02*
X108164687Y-114294784D01*
X108164687Y-114294784D02*
X108188877Y-114246403D01*
X108188877Y-114246403D02*
X108213068Y-114222213D01*
X108213068Y-114222213D02*
X108285639Y-114173832D01*
X108285639Y-114173832D02*
X108382401Y-114149641D01*
X108382401Y-114149641D02*
X108575925Y-114149641D01*
X108575925Y-114149641D02*
X108624306Y-114173832D01*
X108624306Y-114173832D02*
X108648497Y-114198022D01*
X108648497Y-114198022D02*
X108672687Y-114246403D01*
X108672687Y-114246403D02*
X108672687Y-114343165D01*
X108672687Y-114343165D02*
X108648497Y-114391546D01*
X108648497Y-114391546D02*
X108624306Y-114415737D01*
X108624306Y-114415737D02*
X108575925Y-114439927D01*
X108575925Y-114439927D02*
X108454973Y-114439927D01*
X108454973Y-114439927D02*
X108406592Y-114415737D01*
X108406592Y-114415737D02*
X108382401Y-114391546D01*
X108382401Y-114391546D02*
X108358211Y-114343165D01*
X108358211Y-114343165D02*
X108358211Y-114246403D01*
X108358211Y-114246403D02*
X108382401Y-114198022D01*
X108382401Y-114198022D02*
X108406592Y-114173832D01*
X108406592Y-114173832D02*
X108454973Y-114149641D01*
X98709511Y-116618847D02*
X98878845Y-116376942D01*
X98999797Y-116618847D02*
X98999797Y-116110847D01*
X98999797Y-116110847D02*
X98806273Y-116110847D01*
X98806273Y-116110847D02*
X98757892Y-116135037D01*
X98757892Y-116135037D02*
X98733702Y-116159228D01*
X98733702Y-116159228D02*
X98709511Y-116207609D01*
X98709511Y-116207609D02*
X98709511Y-116280180D01*
X98709511Y-116280180D02*
X98733702Y-116328561D01*
X98733702Y-116328561D02*
X98757892Y-116352752D01*
X98757892Y-116352752D02*
X98806273Y-116376942D01*
X98806273Y-116376942D02*
X98999797Y-116376942D01*
X98225702Y-116618847D02*
X98515988Y-116618847D01*
X98370845Y-116618847D02*
X98370845Y-116110847D01*
X98370845Y-116110847D02*
X98419226Y-116183418D01*
X98419226Y-116183418D02*
X98467607Y-116231799D01*
X98467607Y-116231799D02*
X98515988Y-116255990D01*
X97790273Y-116110847D02*
X97887035Y-116110847D01*
X97887035Y-116110847D02*
X97935416Y-116135037D01*
X97935416Y-116135037D02*
X97959606Y-116159228D01*
X97959606Y-116159228D02*
X98007987Y-116231799D01*
X98007987Y-116231799D02*
X98032178Y-116328561D01*
X98032178Y-116328561D02*
X98032178Y-116522085D01*
X98032178Y-116522085D02*
X98007987Y-116570466D01*
X98007987Y-116570466D02*
X97983797Y-116594657D01*
X97983797Y-116594657D02*
X97935416Y-116618847D01*
X97935416Y-116618847D02*
X97838654Y-116618847D01*
X97838654Y-116618847D02*
X97790273Y-116594657D01*
X97790273Y-116594657D02*
X97766082Y-116570466D01*
X97766082Y-116570466D02*
X97741892Y-116522085D01*
X97741892Y-116522085D02*
X97741892Y-116401133D01*
X97741892Y-116401133D02*
X97766082Y-116352752D01*
X97766082Y-116352752D02*
X97790273Y-116328561D01*
X97790273Y-116328561D02*
X97838654Y-116304371D01*
X97838654Y-116304371D02*
X97935416Y-116304371D01*
X97935416Y-116304371D02*
X97983797Y-116328561D01*
X97983797Y-116328561D02*
X98007987Y-116352752D01*
X98007987Y-116352752D02*
X98032178Y-116401133D01*
X93500226Y-110241213D02*
X93524417Y-110217022D01*
X93524417Y-110217022D02*
X93548607Y-110144451D01*
X93548607Y-110144451D02*
X93548607Y-110096070D01*
X93548607Y-110096070D02*
X93524417Y-110023498D01*
X93524417Y-110023498D02*
X93476036Y-109975117D01*
X93476036Y-109975117D02*
X93427655Y-109950927D01*
X93427655Y-109950927D02*
X93330893Y-109926736D01*
X93330893Y-109926736D02*
X93258321Y-109926736D01*
X93258321Y-109926736D02*
X93161559Y-109950927D01*
X93161559Y-109950927D02*
X93113178Y-109975117D01*
X93113178Y-109975117D02*
X93064797Y-110023498D01*
X93064797Y-110023498D02*
X93040607Y-110096070D01*
X93040607Y-110096070D02*
X93040607Y-110144451D01*
X93040607Y-110144451D02*
X93064797Y-110217022D01*
X93064797Y-110217022D02*
X93088988Y-110241213D01*
X93088988Y-110434736D02*
X93064797Y-110458927D01*
X93064797Y-110458927D02*
X93040607Y-110507308D01*
X93040607Y-110507308D02*
X93040607Y-110628260D01*
X93040607Y-110628260D02*
X93064797Y-110676641D01*
X93064797Y-110676641D02*
X93088988Y-110700832D01*
X93088988Y-110700832D02*
X93137369Y-110725022D01*
X93137369Y-110725022D02*
X93185750Y-110725022D01*
X93185750Y-110725022D02*
X93258321Y-110700832D01*
X93258321Y-110700832D02*
X93548607Y-110410546D01*
X93548607Y-110410546D02*
X93548607Y-110725022D01*
X102813367Y-97565113D02*
X102571462Y-97395779D01*
X102813367Y-97274827D02*
X102305367Y-97274827D01*
X102305367Y-97274827D02*
X102305367Y-97468351D01*
X102305367Y-97468351D02*
X102329557Y-97516732D01*
X102329557Y-97516732D02*
X102353748Y-97540922D01*
X102353748Y-97540922D02*
X102402129Y-97565113D01*
X102402129Y-97565113D02*
X102474700Y-97565113D01*
X102474700Y-97565113D02*
X102523081Y-97540922D01*
X102523081Y-97540922D02*
X102547272Y-97516732D01*
X102547272Y-97516732D02*
X102571462Y-97468351D01*
X102571462Y-97468351D02*
X102571462Y-97274827D01*
X102813367Y-97807017D02*
X102813367Y-97903779D01*
X102813367Y-97903779D02*
X102789177Y-97952160D01*
X102789177Y-97952160D02*
X102764986Y-97976351D01*
X102764986Y-97976351D02*
X102692415Y-98024732D01*
X102692415Y-98024732D02*
X102595653Y-98048922D01*
X102595653Y-98048922D02*
X102402129Y-98048922D01*
X102402129Y-98048922D02*
X102353748Y-98024732D01*
X102353748Y-98024732D02*
X102329557Y-98000541D01*
X102329557Y-98000541D02*
X102305367Y-97952160D01*
X102305367Y-97952160D02*
X102305367Y-97855398D01*
X102305367Y-97855398D02*
X102329557Y-97807017D01*
X102329557Y-97807017D02*
X102353748Y-97782827D01*
X102353748Y-97782827D02*
X102402129Y-97758636D01*
X102402129Y-97758636D02*
X102523081Y-97758636D01*
X102523081Y-97758636D02*
X102571462Y-97782827D01*
X102571462Y-97782827D02*
X102595653Y-97807017D01*
X102595653Y-97807017D02*
X102619843Y-97855398D01*
X102619843Y-97855398D02*
X102619843Y-97952160D01*
X102619843Y-97952160D02*
X102595653Y-98000541D01*
X102595653Y-98000541D02*
X102571462Y-98024732D01*
X102571462Y-98024732D02*
X102523081Y-98048922D01*
X85475326Y-111783146D02*
X85499517Y-111807337D01*
X85499517Y-111807337D02*
X85572088Y-111831527D01*
X85572088Y-111831527D02*
X85620469Y-111831527D01*
X85620469Y-111831527D02*
X85693041Y-111807337D01*
X85693041Y-111807337D02*
X85741422Y-111758956D01*
X85741422Y-111758956D02*
X85765612Y-111710575D01*
X85765612Y-111710575D02*
X85789803Y-111613813D01*
X85789803Y-111613813D02*
X85789803Y-111541241D01*
X85789803Y-111541241D02*
X85765612Y-111444479D01*
X85765612Y-111444479D02*
X85741422Y-111396098D01*
X85741422Y-111396098D02*
X85693041Y-111347717D01*
X85693041Y-111347717D02*
X85620469Y-111323527D01*
X85620469Y-111323527D02*
X85572088Y-111323527D01*
X85572088Y-111323527D02*
X85499517Y-111347717D01*
X85499517Y-111347717D02*
X85475326Y-111371908D01*
X85305993Y-111323527D02*
X84991517Y-111323527D01*
X84991517Y-111323527D02*
X85160850Y-111517051D01*
X85160850Y-111517051D02*
X85088279Y-111517051D01*
X85088279Y-111517051D02*
X85039898Y-111541241D01*
X85039898Y-111541241D02*
X85015707Y-111565432D01*
X85015707Y-111565432D02*
X84991517Y-111613813D01*
X84991517Y-111613813D02*
X84991517Y-111734765D01*
X84991517Y-111734765D02*
X85015707Y-111783146D01*
X85015707Y-111783146D02*
X85039898Y-111807337D01*
X85039898Y-111807337D02*
X85088279Y-111831527D01*
X85088279Y-111831527D02*
X85233422Y-111831527D01*
X85233422Y-111831527D02*
X85281803Y-111807337D01*
X85281803Y-111807337D02*
X85305993Y-111783146D01*
X103879711Y-117304647D02*
X104049045Y-117062742D01*
X104169997Y-117304647D02*
X104169997Y-116796647D01*
X104169997Y-116796647D02*
X103976473Y-116796647D01*
X103976473Y-116796647D02*
X103928092Y-116820837D01*
X103928092Y-116820837D02*
X103903902Y-116845028D01*
X103903902Y-116845028D02*
X103879711Y-116893409D01*
X103879711Y-116893409D02*
X103879711Y-116965980D01*
X103879711Y-116965980D02*
X103903902Y-117014361D01*
X103903902Y-117014361D02*
X103928092Y-117038552D01*
X103928092Y-117038552D02*
X103976473Y-117062742D01*
X103976473Y-117062742D02*
X104169997Y-117062742D01*
X103395902Y-117304647D02*
X103686188Y-117304647D01*
X103541045Y-117304647D02*
X103541045Y-116796647D01*
X103541045Y-116796647D02*
X103589426Y-116869218D01*
X103589426Y-116869218D02*
X103637807Y-116917599D01*
X103637807Y-116917599D02*
X103686188Y-116941790D01*
X103226568Y-116796647D02*
X102887901Y-116796647D01*
X102887901Y-116796647D02*
X103105616Y-117304647D01*
X92698626Y-110241213D02*
X92722817Y-110217022D01*
X92722817Y-110217022D02*
X92747007Y-110144451D01*
X92747007Y-110144451D02*
X92747007Y-110096070D01*
X92747007Y-110096070D02*
X92722817Y-110023498D01*
X92722817Y-110023498D02*
X92674436Y-109975117D01*
X92674436Y-109975117D02*
X92626055Y-109950927D01*
X92626055Y-109950927D02*
X92529293Y-109926736D01*
X92529293Y-109926736D02*
X92456721Y-109926736D01*
X92456721Y-109926736D02*
X92359959Y-109950927D01*
X92359959Y-109950927D02*
X92311578Y-109975117D01*
X92311578Y-109975117D02*
X92263197Y-110023498D01*
X92263197Y-110023498D02*
X92239007Y-110096070D01*
X92239007Y-110096070D02*
X92239007Y-110144451D01*
X92239007Y-110144451D02*
X92263197Y-110217022D01*
X92263197Y-110217022D02*
X92287388Y-110241213D01*
X92239007Y-110700832D02*
X92239007Y-110458927D01*
X92239007Y-110458927D02*
X92480912Y-110434736D01*
X92480912Y-110434736D02*
X92456721Y-110458927D01*
X92456721Y-110458927D02*
X92432531Y-110507308D01*
X92432531Y-110507308D02*
X92432531Y-110628260D01*
X92432531Y-110628260D02*
X92456721Y-110676641D01*
X92456721Y-110676641D02*
X92480912Y-110700832D01*
X92480912Y-110700832D02*
X92529293Y-110725022D01*
X92529293Y-110725022D02*
X92650245Y-110725022D01*
X92650245Y-110725022D02*
X92698626Y-110700832D01*
X92698626Y-110700832D02*
X92722817Y-110676641D01*
X92722817Y-110676641D02*
X92747007Y-110628260D01*
X92747007Y-110628260D02*
X92747007Y-110507308D01*
X92747007Y-110507308D02*
X92722817Y-110458927D01*
X92722817Y-110458927D02*
X92698626Y-110434736D01*
%TO.C,L2*%
D11*
X104039580Y-107793620D02*
X101839580Y-107793620D01*
X101839580Y-109893620D01*
X104039580Y-109893620D01*
X104039580Y-107793620D01*
D12*
X104270481Y-110093620D02*
G75*
G02*
X104108679Y-110093620I-80901J0D01*
G01*
X104108679Y-110093620D02*
G75*
G02*
X104270481Y-110093620I80901J0D01*
G01*
D11*
%TO.C,U5*%
X105422280Y-113875920D02*
X105422280Y-113575920D01*
X105422280Y-115125920D02*
X105422280Y-114675920D01*
X105422280Y-115125920D02*
X105522280Y-115125920D01*
X105522280Y-113425920D02*
X105572280Y-113425920D01*
X107122280Y-113425920D02*
X107022280Y-113425920D01*
X107122280Y-113875920D02*
X107122280Y-113425920D01*
X107122280Y-114675920D02*
X107122280Y-115125920D01*
X107122280Y-115125920D02*
X107022280Y-115125920D01*
X105422280Y-113425920D02*
X105222280Y-113125920D01*
X105622280Y-113125920D01*
X105422280Y-113425920D01*
G36*
X105422280Y-113425920D02*
G01*
X105222280Y-113125920D01*
X105622280Y-113125920D01*
X105422280Y-113425920D01*
G37*
%TO.C,D2*%
X105050503Y-109876677D02*
X104250503Y-109876677D01*
X104250503Y-108676677D01*
X105050503Y-108676677D01*
X105050503Y-109876677D01*
D12*
X105331404Y-108476677D02*
G75*
G02*
X105169602Y-108476677I-80901J0D01*
G01*
X105169602Y-108476677D02*
G75*
G02*
X105331404Y-108476677I80901J0D01*
G01*
D11*
%TO.C,U2*%
X100517440Y-101671560D02*
X100967440Y-101671560D01*
X100517440Y-102121560D02*
X100517440Y-101671560D01*
X100517440Y-105621560D02*
X100517440Y-105421560D01*
X100817440Y-105871560D02*
X100967440Y-105871560D01*
X104717440Y-101671560D02*
X104267440Y-101671560D01*
X104717440Y-102121560D02*
X104717440Y-101671560D01*
X104717440Y-105421560D02*
X104717440Y-105871560D01*
X104717440Y-105871560D02*
X104267440Y-105871560D01*
X100717440Y-106171560D02*
X100317440Y-106171560D01*
X100517440Y-105871560D01*
X100717440Y-106171560D01*
G36*
X100717440Y-106171560D02*
G01*
X100317440Y-106171560D01*
X100517440Y-105871560D01*
X100717440Y-106171560D01*
G37*
D13*
%TO.C,C12*%
X101438060Y-110237920D02*
X101156900Y-110237920D01*
X101438060Y-111257920D02*
X101156900Y-111257920D01*
D11*
%TO.C,U4*%
X101922820Y-112900520D02*
X102122820Y-112900520D01*
X101922820Y-113350520D02*
X101922820Y-112900520D01*
X101922820Y-114650520D02*
X101922820Y-115100520D01*
X101922820Y-115100520D02*
X102122820Y-115100520D01*
X104022820Y-115100520D02*
X103922820Y-115100520D01*
X104122820Y-112900520D02*
X103922820Y-112900520D01*
X104122820Y-112900520D02*
X104122820Y-113350520D01*
X104122820Y-114650520D02*
X104122820Y-114850520D01*
X104322820Y-115400520D02*
X103922820Y-115400520D01*
X104122820Y-115100520D01*
X104322820Y-115400520D01*
G36*
X104322820Y-115400520D02*
G01*
X103922820Y-115400520D01*
X104122820Y-115100520D01*
X104322820Y-115400520D01*
G37*
%TO.C,D1*%
X100199280Y-108700363D02*
X100999280Y-108700363D01*
X100999280Y-109900363D01*
X100199280Y-109900363D01*
X100199280Y-108700363D01*
D12*
X100080181Y-110100363D02*
G75*
G02*
X99918379Y-110100363I-80901J0D01*
G01*
X99918379Y-110100363D02*
G75*
G02*
X100080181Y-110100363I80901J0D01*
G01*
D11*
%TO.C,U3*%
X98588100Y-112900520D02*
X98788100Y-112900520D01*
X98588100Y-113350520D02*
X98588100Y-112900520D01*
X98588100Y-114650520D02*
X98588100Y-115100520D01*
X98588100Y-115100520D02*
X98788100Y-115100520D01*
X100688100Y-115100520D02*
X100588100Y-115100520D01*
X100788100Y-112900520D02*
X100588100Y-112900520D01*
X100788100Y-112900520D02*
X100788100Y-113350520D01*
X100788100Y-114650520D02*
X100788100Y-114850520D01*
X100988100Y-115400520D02*
X100588100Y-115400520D01*
X100788100Y-115100520D01*
X100988100Y-115400520D01*
G36*
X100988100Y-115400520D02*
G01*
X100588100Y-115400520D01*
X100788100Y-115100520D01*
X100988100Y-115400520D01*
G37*
D13*
%TO.C,C13*%
X104398620Y-110237920D02*
X104117460Y-110237920D01*
X104398620Y-111257920D02*
X104117460Y-111257920D01*
%TO.C,C1*%
X86686624Y-112059080D02*
X86902296Y-112059080D01*
X86686624Y-112779080D02*
X86902296Y-112779080D01*
%TO.C,C7*%
X102903340Y-106444880D02*
X103184500Y-106444880D01*
X102903340Y-107464880D02*
X103184500Y-107464880D01*
%TO.C,L1*%
D11*
X98723877Y-106314400D02*
X100823877Y-106314400D01*
X100823877Y-108514400D01*
X98723877Y-108514400D01*
X98723877Y-106314400D01*
D12*
X101104778Y-106164400D02*
G75*
G02*
X100942976Y-106164400I-80901J0D01*
G01*
X100942976Y-106164400D02*
G75*
G02*
X101104778Y-106164400I80901J0D01*
G01*
%TD*%
%LPC*%
D14*
%TO.C,S6*%
X73048000Y-126952000D03*
%TD*%
%TO.C,S3*%
X116952000Y-93048000D03*
%TD*%
D15*
%TO.C,J7*%
X114919760Y-101092000D03*
X117459760Y-101092000D03*
%TD*%
D14*
%TO.C,S2*%
X73048000Y-93048000D03*
%TD*%
D15*
%TO.C,J2*%
X114919760Y-104902000D03*
X117459760Y-104902000D03*
%TD*%
%TO.C,J3*%
X114919760Y-108712000D03*
X117459760Y-108712000D03*
%TD*%
D14*
%TO.C,S7*%
X116952000Y-126952000D03*
%TD*%
D15*
%TO.C,J1*%
X114919760Y-97282000D03*
X117459760Y-97282000D03*
%TD*%
%TO.C,J5*%
X79070000Y-127460500D03*
X79070000Y-124920500D03*
X81610000Y-127460500D03*
X81610000Y-124920500D03*
X84150000Y-127460500D03*
X84150000Y-124920500D03*
X86690000Y-127460500D03*
X86690000Y-124920500D03*
X89230000Y-127460500D03*
X89230000Y-124920500D03*
X91770000Y-127460500D03*
X91770000Y-124920500D03*
X94310000Y-127460500D03*
X94310000Y-124920500D03*
X96850000Y-127460500D03*
X96850000Y-124920500D03*
X99390000Y-127460500D03*
X99390000Y-124920500D03*
X101930000Y-127460500D03*
X101930000Y-124920500D03*
%TD*%
D16*
%TO.C,C4*%
X91832760Y-112296880D03*
X91832760Y-111656880D03*
%TD*%
D17*
%TO.C,C18*%
X106669580Y-115736000D03*
X107309580Y-115736000D03*
%TD*%
D18*
%TO.C,L2*%
X102264580Y-108843620D03*
X103614580Y-108843620D03*
%TD*%
D16*
%TO.C,R11*%
X101163860Y-100077980D03*
X101163860Y-99437980D03*
%TD*%
D19*
%TO.C,C14*%
X101369460Y-112582260D03*
X101369460Y-113222260D03*
%TD*%
D16*
%TO.C,C10*%
X103266980Y-100077980D03*
X103266980Y-99437980D03*
%TD*%
D20*
%TO.C,U5*%
X105772280Y-113725920D03*
D21*
X106272280Y-113675920D03*
X106772280Y-113675920D03*
X106772280Y-114875920D03*
X106272280Y-114875920D03*
X105772280Y-114875920D03*
%TD*%
D22*
%TO.C,D2*%
X104650503Y-108960677D03*
D23*
X104650503Y-109530177D03*
%TD*%
D16*
%TO.C,R14*%
X104669240Y-100077980D03*
X104669240Y-99437980D03*
%TD*%
D24*
%TO.C,U2*%
X100679940Y-104771560D03*
X100679940Y-104271560D03*
X100679940Y-103771560D03*
X100679940Y-103271560D03*
X100679940Y-102771560D03*
D25*
X101617440Y-101834060D03*
X102117440Y-101834060D03*
X102617440Y-101834060D03*
X103117440Y-101834060D03*
X103617440Y-101834060D03*
D24*
X104554940Y-102771560D03*
X104554940Y-103271560D03*
X104554940Y-103771560D03*
X104554940Y-104271560D03*
X104554940Y-104771560D03*
D25*
X103617440Y-105709060D03*
X103117440Y-105709060D03*
X102617440Y-105709060D03*
X102117440Y-105709060D03*
X101617440Y-105709060D03*
D26*
X102617440Y-103771560D03*
%TD*%
D27*
%TO.C,C12*%
X100522480Y-110747920D03*
X102072480Y-110747920D03*
%TD*%
D28*
%TO.C,U4*%
X103672820Y-115000520D03*
X103022820Y-115000520D03*
X102372820Y-115000520D03*
X102372820Y-113000520D03*
X103022820Y-113000520D03*
X103672820Y-113000520D03*
D29*
X103022820Y-114000520D03*
%TD*%
D19*
%TO.C,C11*%
X105445700Y-102752040D03*
X105445700Y-103392040D03*
%TD*%
D16*
%TO.C,R13*%
X105370220Y-100077980D03*
X105370220Y-99437980D03*
%TD*%
%TO.C,C21*%
X104711600Y-115005020D03*
X104711600Y-114365020D03*
%TD*%
D19*
%TO.C,C9*%
X105445700Y-104154120D03*
X105445700Y-104794120D03*
%TD*%
D16*
%TO.C,C8*%
X101864240Y-100077980D03*
X101864240Y-99437980D03*
%TD*%
D30*
%TO.C,R1*%
X86904460Y-110909080D03*
X86264460Y-110909080D03*
%TD*%
D19*
%TO.C,C17*%
X98080220Y-112709260D03*
X98080220Y-113349260D03*
%TD*%
%TO.C,R10*%
X103967540Y-99437980D03*
X103967540Y-100077980D03*
%TD*%
D22*
%TO.C,D1*%
X100599280Y-109616363D03*
D23*
X100599280Y-109046863D03*
%TD*%
D28*
%TO.C,U3*%
X100338100Y-115000520D03*
X99688100Y-115000520D03*
X99038100Y-115000520D03*
X99038100Y-113000520D03*
X99688100Y-113000520D03*
X100338100Y-113000520D03*
D29*
X99688100Y-114000520D03*
%TD*%
D30*
%TO.C,R18*%
X102574740Y-115736000D03*
X101934740Y-115736000D03*
%TD*%
%TO.C,R15*%
X100636340Y-115736000D03*
X99996340Y-115736000D03*
%TD*%
D16*
%TO.C,C20*%
X101369460Y-115005020D03*
X101369460Y-114365020D03*
%TD*%
D27*
%TO.C,C13*%
X103483040Y-110747920D03*
X105033040Y-110747920D03*
%TD*%
D31*
%TO.C,C1*%
X87274460Y-112419080D03*
X86314460Y-112419080D03*
%TD*%
D19*
%TO.C,R12*%
X100462880Y-99437980D03*
X100462880Y-100077980D03*
%TD*%
D32*
%TO.C,C7*%
X103818920Y-106954880D03*
X102268920Y-106954880D03*
%TD*%
D30*
%TO.C,C19*%
X105874680Y-115736000D03*
X105234680Y-115736000D03*
%TD*%
D33*
%TO.C,L1*%
X99773877Y-108089400D03*
X99773877Y-106739400D03*
%TD*%
D19*
%TO.C,C15*%
X104711600Y-112582260D03*
X104711600Y-113222260D03*
%TD*%
%TO.C,C16*%
X107739040Y-113478880D03*
X107739040Y-114118880D03*
%TD*%
D30*
%TO.C,R16*%
X99236340Y-115736000D03*
X98596340Y-115736000D03*
%TD*%
D16*
%TO.C,C2*%
X93232760Y-112296880D03*
X93232760Y-111656880D03*
%TD*%
D19*
%TO.C,R9*%
X102565520Y-99437980D03*
X102565520Y-100077980D03*
%TD*%
D30*
%TO.C,C3*%
X86904460Y-111609080D03*
X86264460Y-111609080D03*
%TD*%
%TO.C,R17*%
X103974740Y-115736000D03*
X103334740Y-115736000D03*
%TD*%
D16*
%TO.C,C5*%
X92532760Y-112296880D03*
X92532760Y-111656880D03*
%TD*%
%LPD*%
M02*
