%TF.GenerationSoftware,KiCad,Pcbnew,8.0.5*%
%TF.CreationDate,2025-10-24T05:58:17-05:00*%
%TF.ProjectId,iris-128s-adapter,69726973-2d31-4323-9873-2d6164617074,1.0.0*%
%TF.SameCoordinates,Original*%
%TF.FileFunction,Paste,Bot*%
%TF.FilePolarity,Positive*%
%FSLAX46Y46*%
G04 Gerber Fmt 4.6, Leading zero omitted, Abs format (unit mm)*
G04 Created by KiCad (PCBNEW 8.0.5) date 2025-10-24 05:58:17*
%MOMM*%
%LPD*%
G01*
G04 APERTURE LIST*
G04 Aperture macros list*
%AMRoundRect*
0 Rectangle with rounded corners*
0 $1 Rounding radius*
0 $2 $3 $4 $5 $6 $7 $8 $9 X,Y pos of 4 corners*
0 Add a 4 corners polygon primitive as box body*
4,1,4,$2,$3,$4,$5,$6,$7,$8,$9,$2,$3,0*
0 Add four circle primitives for the rounded corners*
1,1,$1+$1,$2,$3*
1,1,$1+$1,$4,$5*
1,1,$1+$1,$6,$7*
1,1,$1+$1,$8,$9*
0 Add four rect primitives between the rounded corners*
20,1,$1+$1,$2,$3,$4,$5,0*
20,1,$1+$1,$4,$5,$6,$7,0*
20,1,$1+$1,$6,$7,$8,$9,0*
20,1,$1+$1,$8,$9,$2,$3,0*%
G04 Aperture macros list end*
%ADD10RoundRect,0.079500X0.100500X-0.079500X0.100500X0.079500X-0.100500X0.079500X-0.100500X-0.079500X0*%
%ADD11RoundRect,0.079500X-0.079500X-0.100500X0.079500X-0.100500X0.079500X0.100500X-0.079500X0.100500X0*%
%ADD12R,0.600000X1.800000*%
%ADD13RoundRect,0.079500X-0.100500X0.079500X-0.100500X-0.079500X0.100500X-0.079500X0.100500X0.079500X0*%
%ADD14RoundRect,0.062500X-0.062500X-0.337500X0.062500X-0.337500X0.062500X0.337500X-0.062500X0.337500X0*%
%ADD15RoundRect,0.062500X-0.062500X-0.287500X0.062500X-0.287500X0.062500X0.287500X-0.062500X0.287500X0*%
%ADD16R,0.579000X0.332000*%
%ADD17R,0.579000X0.507000*%
%ADD18RoundRect,0.250000X-0.255000X-0.255000X0.255000X-0.255000X0.255000X0.255000X-0.255000X0.255000X0*%
%ADD19RoundRect,0.062500X-0.375000X-0.062500X0.375000X-0.062500X0.375000X0.062500X-0.375000X0.062500X0*%
%ADD20RoundRect,0.062500X-0.062500X-0.375000X0.062500X-0.375000X0.062500X0.375000X-0.062500X0.375000X0*%
%ADD21RoundRect,0.225000X-0.225000X-0.250000X0.225000X-0.250000X0.225000X0.250000X-0.225000X0.250000X0*%
%ADD22RoundRect,0.198020X0.501980X0.201980X-0.501980X0.201980X-0.501980X-0.201980X0.501980X-0.201980X0*%
%ADD23RoundRect,0.075000X0.075000X0.275000X-0.075000X0.275000X-0.075000X-0.275000X0.075000X-0.275000X0*%
%ADD24RoundRect,0.079500X0.079500X0.100500X-0.079500X0.100500X-0.079500X-0.100500X0.079500X-0.100500X0*%
%ADD25RoundRect,0.140000X0.140000X0.170000X-0.140000X0.170000X-0.140000X-0.170000X0.140000X-0.170000X0*%
%ADD26RoundRect,0.225000X0.225000X0.250000X-0.225000X0.250000X-0.225000X-0.250000X0.225000X-0.250000X0*%
%ADD27R,1.800000X0.600000*%
G04 APERTURE END LIST*
D10*
%TO.C,C4*%
X91832760Y-112321880D03*
X91832760Y-111631880D03*
%TD*%
D11*
%TO.C,C18*%
X106644580Y-115736000D03*
X107334580Y-115736000D03*
%TD*%
D12*
%TO.C,L2*%
X102264580Y-108843620D03*
X103614580Y-108843620D03*
%TD*%
D10*
%TO.C,R11*%
X101163860Y-100102980D03*
X101163860Y-99412980D03*
%TD*%
D13*
%TO.C,C14*%
X101369460Y-112557260D03*
X101369460Y-113247260D03*
%TD*%
D10*
%TO.C,C10*%
X103266980Y-100102980D03*
X103266980Y-99412980D03*
%TD*%
D14*
%TO.C,U5*%
X105772280Y-113725920D03*
D15*
X106272280Y-113675920D03*
X106772280Y-113675920D03*
X106772280Y-114875920D03*
X106272280Y-114875920D03*
X105772280Y-114875920D03*
%TD*%
D16*
%TO.C,D2*%
X104650503Y-108960677D03*
D17*
X104650503Y-109530177D03*
%TD*%
D10*
%TO.C,R14*%
X104669240Y-100102980D03*
X104669240Y-99412980D03*
%TD*%
D18*
%TO.C,U2*%
X101992440Y-103146560D03*
X101992440Y-104396560D03*
X103242440Y-103146560D03*
X103242440Y-104396560D03*
D19*
X100679940Y-104771560D03*
X100679940Y-104271560D03*
X100679940Y-103771560D03*
X100679940Y-103271560D03*
X100679940Y-102771560D03*
D20*
X101617440Y-101834060D03*
X102117440Y-101834060D03*
X102617440Y-101834060D03*
X103117440Y-101834060D03*
X103617440Y-101834060D03*
D19*
X104554940Y-102771560D03*
X104554940Y-103271560D03*
X104554940Y-103771560D03*
X104554940Y-104271560D03*
X104554940Y-104771560D03*
D20*
X103617440Y-105709060D03*
X103117440Y-105709060D03*
X102617440Y-105709060D03*
X102117440Y-105709060D03*
X101617440Y-105709060D03*
%TD*%
D21*
%TO.C,C12*%
X100522480Y-110747920D03*
X102072480Y-110747920D03*
%TD*%
D22*
%TO.C,U4*%
X103022820Y-114000520D03*
D23*
X103672820Y-115000520D03*
X103022820Y-115000520D03*
X102372820Y-115000520D03*
X102372820Y-113000520D03*
X103022820Y-113000520D03*
X103672820Y-113000520D03*
%TD*%
D13*
%TO.C,C11*%
X105445700Y-102727040D03*
X105445700Y-103417040D03*
%TD*%
D10*
%TO.C,R13*%
X105370220Y-100102980D03*
X105370220Y-99412980D03*
%TD*%
%TO.C,C21*%
X104711600Y-115030020D03*
X104711600Y-114340020D03*
%TD*%
D13*
%TO.C,C9*%
X105445700Y-104129120D03*
X105445700Y-104819120D03*
%TD*%
D10*
%TO.C,C8*%
X101864240Y-100102980D03*
X101864240Y-99412980D03*
%TD*%
D24*
%TO.C,R1*%
X86929460Y-110909080D03*
X86239460Y-110909080D03*
%TD*%
D13*
%TO.C,C17*%
X98080220Y-112684260D03*
X98080220Y-113374260D03*
%TD*%
%TO.C,R10*%
X103967540Y-99412980D03*
X103967540Y-100102980D03*
%TD*%
D16*
%TO.C,D1*%
X100599280Y-109616363D03*
D17*
X100599280Y-109046863D03*
%TD*%
D22*
%TO.C,U3*%
X99688100Y-114000520D03*
D23*
X100338100Y-115000520D03*
X99688100Y-115000520D03*
X99038100Y-115000520D03*
X99038100Y-113000520D03*
X99688100Y-113000520D03*
X100338100Y-113000520D03*
%TD*%
D24*
%TO.C,R18*%
X102599740Y-115736000D03*
X101909740Y-115736000D03*
%TD*%
%TO.C,R15*%
X100661340Y-115736000D03*
X99971340Y-115736000D03*
%TD*%
D10*
%TO.C,C20*%
X101369460Y-115030020D03*
X101369460Y-114340020D03*
%TD*%
D21*
%TO.C,C13*%
X103483040Y-110747920D03*
X105033040Y-110747920D03*
%TD*%
D25*
%TO.C,C1*%
X87274460Y-112419080D03*
X86314460Y-112419080D03*
%TD*%
D13*
%TO.C,R12*%
X100462880Y-99412980D03*
X100462880Y-100102980D03*
%TD*%
D26*
%TO.C,C7*%
X103818920Y-106954880D03*
X102268920Y-106954880D03*
%TD*%
D24*
%TO.C,C19*%
X105899680Y-115736000D03*
X105209680Y-115736000D03*
%TD*%
D27*
%TO.C,L1*%
X99773877Y-108089400D03*
X99773877Y-106739400D03*
%TD*%
D13*
%TO.C,C15*%
X104711600Y-112557260D03*
X104711600Y-113247260D03*
%TD*%
%TO.C,C16*%
X107739040Y-113453880D03*
X107739040Y-114143880D03*
%TD*%
D24*
%TO.C,R16*%
X99261340Y-115736000D03*
X98571340Y-115736000D03*
%TD*%
D10*
%TO.C,C2*%
X93232760Y-112321880D03*
X93232760Y-111631880D03*
%TD*%
D13*
%TO.C,R9*%
X102565520Y-99412980D03*
X102565520Y-100102980D03*
%TD*%
D24*
%TO.C,C3*%
X86929460Y-111609080D03*
X86239460Y-111609080D03*
%TD*%
%TO.C,R17*%
X103999740Y-115736000D03*
X103309740Y-115736000D03*
%TD*%
D10*
%TO.C,C5*%
X92532760Y-112321880D03*
X92532760Y-111631880D03*
%TD*%
M02*
