M48
; DRILL file {KiCad 8.0.5} date 2025-10-23T14:51:02-0500
; FORMAT={-:-/ absolute / metric / decimal}
; #@! TF.CreationDate,2025-10-23T14:51:02-05:00
; #@! TF.GenerationSoftware,Kicad,Pcbnew,8.0.5
; #@! TF.FileFunction,Plated,1,4,PTH
FMAT,2
METRIC
; #@! TA.AperFunction,Plated,PTH,ViaDrill
T1C0.254
; #@! TA.AperFunction,Plated,PTH,ComponentDrill
T2C0.914
; #@! TA.AperFunction,Plated,PTH,ComponentDrill
T3C2.540
%
G90
G05
T1
X71.704Y-100.432
X71.704Y-111.887
X71.73Y-106.07
X71.78Y-117.526
X72.619Y-109.677
X72.619Y-110.947
X72.746Y-99.924
X73.387Y-107.777
X73.387Y-109.047
X73.387Y-110.317
X73.387Y-111.587
X73.387Y-112.858
X73.466Y-115.129
X73.762Y-97.46
X73.768Y-106.507
X73.939Y-100.482
X74.149Y-105.873
X74.149Y-107.142
X74.149Y-108.412
X74.149Y-109.682
X74.149Y-110.953
X74.149Y-112.222
X74.149Y-113.492
X74.828Y-103.2
X75.844Y-100.355
X76.479Y-119.786
X76.613Y-106.507
X76.613Y-107.777
X76.613Y-109.047
X76.613Y-112.858
X76.613Y-115.397
X76.683Y-97.765
X76.784Y-101.168
X76.886Y-95.783
X76.994Y-103.2
X76.994Y-105.873
X76.994Y-107.142
X76.994Y-108.412
X76.994Y-109.682
X77.292Y-123.85
X77.375Y-113.492
X77.375Y-114.762
X77.927Y-93.32
X78.181Y-114.427
X78.181Y-115.976
X78.232Y-101.879
X78.453Y-110.241
X78.689Y-99.136
X79.113Y-110.241
X79.197Y-96.952
X79.469Y-109.022
X79.477Y-100.813
X79.985Y-94.488
X80.129Y-109.022
X80.213Y-112.243
X80.315Y-102.997
X80.315Y-104.902
X80.569Y-92.1
X81.026Y-98.654
X81.077Y-96.749
X81.229Y-90.83
X81.534Y-99.847
X81.661Y-119.71
X81.712Y-102.895
X81.712Y-114.554
X81.788Y-108.991
X81.813Y-117.094
X82.245Y-104.013
X82.492Y-93.66
X82.575Y-108.179
X82.575Y-109.957
X82.931Y-97.231
X83.083Y-122.352
X83.742Y-110.8
X83.742Y-111.739
X83.742Y-112.679
X83.742Y-113.619
X83.795Y-115.9
X83.829Y-94.076
X83.829Y-97.632
X84.023Y-117.094
X84.074Y-106.705
X84.464Y-93.314
X84.464Y-96.87
X84.607Y-100.0
X84.912Y-103.505
X84.912Y-104.851
X85.065Y-108.56
X85.099Y-94.076
X85.099Y-97.632
X85.115Y-101.219
X85.141Y-119.71
X85.42Y-114.376
X85.734Y-92.552
X85.734Y-96.87
X85.776Y-98.323
X86.208Y-118.821
X86.264Y-110.299
X86.314Y-113.162
X86.369Y-94.076
X86.369Y-97.251
X86.462Y-116.561
X86.716Y-114.757
X87.02Y-91.796
X87.376Y-106.705
X87.935Y-93.701
X87.96Y-97.231
X87.968Y-121.831
X88.054Y-110.392
X88.138Y-105.486
X88.207Y-112.42
X88.341Y-98.654
X88.562Y-109.892
X88.562Y-110.892
X88.566Y-115.195
X88.697Y-106.121
X88.715Y-111.71
X88.773Y-99.949
X88.9Y-118.593
X89.281Y-116.053
X89.294Y-115.344
X89.299Y-112.972
X89.902Y-106.006
X89.916Y-100.432
X90.221Y-94.894
X90.243Y-113.284
X90.348Y-117.119
X90.402Y-106.514
X90.617Y-122.601
X90.653Y-108.323
X90.653Y-111.1
X90.694Y-115.195
X90.83Y-102.794
X90.902Y-106.006
X91.139Y-113.335
X91.161Y-120.447
X91.237Y-95.783
X91.364Y-103.429
X91.402Y-106.514
X91.44Y-97.409
X91.643Y-98.704
X91.902Y-106.006
X92.029Y-115.286
X92.07Y-119.269
X92.232Y-108.996
X92.26Y-113.02
X92.402Y-106.514
X92.507Y-94.31
X92.533Y-111.1
X92.601Y-113.996
X92.862Y-123.139
X93.091Y-97.409
X93.32Y-119.837
X93.345Y-91.821
X93.688Y-93.695
X93.878Y-104.013
X94.323Y-94.076
X94.323Y-100.68
X94.59Y-107.575
X94.832Y-108.969
X94.874Y-106.144
X94.958Y-93.314
X94.958Y-99.918
X95.021Y-123.139
X95.098Y-108.392
X95.468Y-106.417
X95.555Y-101.194
X95.593Y-94.076
X95.593Y-97.251
X96.164Y-100.076
X96.228Y-93.314
X96.228Y-96.87
X96.266Y-103.403
X96.622Y-117.983
X96.622Y-120.396
X96.825Y-102.133
X96.863Y-99.537
X96.876Y-104.953
X97.053Y-113.919
X97.13Y-108.788
X97.397Y-119.113
X97.397Y-120.055
X97.498Y-98.775
X97.749Y-123.139
X97.841Y-110.617
X98.077Y-115.314
X98.08Y-113.925
X98.196Y-121.768
X98.476Y-91.846
X98.886Y-93.314
X98.984Y-99.974
X99.009Y-101.117
X99.038Y-112.316
X99.861Y-104.272
X99.886Y-93.314
X99.898Y-91.872
X99.915Y-109.616
X99.924Y-97.917
X99.931Y-100.078
X100.635Y-123.139
X100.894Y-116.257
X101.124Y-100.965
X101.164Y-98.906
X101.293Y-115.67
X101.369Y-113.798
X101.536Y-108.008
X101.536Y-106.734
X101.536Y-107.371
X101.648Y-116.257
X101.855Y-103.035
X101.855Y-104.559
X101.93Y-119.228
X102.117Y-101.013
X102.617Y-103.797
X102.835Y-119.113
X102.845Y-95.58
X102.87Y-122.25
X103.023Y-112.316
X103.117Y-101.013
X103.379Y-103.035
X103.379Y-104.559
X103.454Y-91.897
X103.662Y-100.65
X104.232Y-116.257
X104.47Y-90.83
X104.623Y-115.67
X104.669Y-98.906
X104.712Y-113.798
X104.948Y-116.257
X104.957Y-106.474
X104.957Y-107.297
X105.335Y-109.53
X105.442Y-105.326
X105.467Y-116.762
X105.867Y-116.257
X105.958Y-103.772
X106.248Y-118.796
X106.274Y-112.379
X106.629Y-120.574
X106.647Y-116.257
X106.655Y-95.072
X106.705Y-97.841
X106.832Y-105.867
X106.832Y-107.036
X107.046Y-116.762
X107.089Y-112.379
X107.209Y-123.257
X107.209Y-128.743
X107.565Y-116.257
X107.739Y-114.694
X108.077Y-94.437
X108.077Y-101.956
X108.077Y-111.1
X108.102Y-96.52
X108.102Y-97.892
X108.128Y-107.239
X108.839Y-118.389
X108.89Y-120.802
X110.109Y-111.912
X110.128Y-98.219
X110.327Y-119.4
X111.109Y-117.475
X111.109Y-118.745
X111.176Y-107.264
X112.268Y-112.471
X112.674Y-99.543
X112.928Y-104.038
X113.03Y-94.412
X113.335Y-128.194
X113.386Y-122.301
X114.884Y-119.837
X116.205Y-111.023
X118.034Y-122.911
X118.729Y-113.665
X118.729Y-116.205
X118.729Y-117.475
T2
X79.07Y-124.92
X79.07Y-127.46
X81.61Y-124.92
X81.61Y-127.46
X84.15Y-124.92
X84.15Y-127.46
X86.69Y-124.92
X86.69Y-127.46
X89.23Y-124.92
X89.23Y-127.46
X91.77Y-124.92
X91.77Y-127.46
X94.31Y-124.92
X94.31Y-127.46
X96.85Y-124.92
X96.85Y-127.46
X99.39Y-124.92
X99.39Y-127.46
X101.93Y-124.92
X101.93Y-127.46
X114.92Y-97.282
X114.92Y-101.092
X114.92Y-104.902
X114.92Y-108.712
X117.46Y-97.282
X117.46Y-101.092
X117.46Y-104.902
X117.46Y-108.712
T3
X73.048Y-93.048
X73.048Y-126.952
X116.952Y-93.048
X116.952Y-126.952
M30
