%TF.GenerationSoftware,KiCad,Pcbnew,8.0.5*%
%TF.CreationDate,2025-10-23T14:51:03-05:00*%
%TF.ProjectId,iris-128s-adapter,69726973-2d31-4323-9873-2d6164617074,1.0.0*%
%TF.SameCoordinates,Original*%
%TF.FileFunction,Drillmap*%
%TF.FilePolarity,Positive*%
%FSLAX45Y45*%
G04 Gerber Fmt 4.5, Leading zero omitted, Abs format (unit mm)*
G04 Created by KiCad (PCBNEW 8.0.5) date 2025-10-23 14:51:03*
%MOMM*%
%LPD*%
G01*
G04 APERTURE LIST*
%ADD10C,0.050000*%
%ADD11C,0.200000*%
%ADD12C,0.100000*%
%ADD13C,0.254000*%
G04 APERTURE END LIST*
D10*
X7000000Y-9000000D02*
X12000000Y-9000000D01*
X12000000Y-13000000D01*
X7000000Y-13000000D01*
X7000000Y-9000000D01*
D11*
D12*
X7157720Y-10030460D02*
X7183120Y-10055860D01*
X7183120Y-10030460D02*
X7157720Y-10055860D01*
X7157720Y-11176000D02*
X7183120Y-11201400D01*
X7183120Y-11176000D02*
X7157720Y-11201400D01*
X7160260Y-10594340D02*
X7185660Y-10619740D01*
X7185660Y-10594340D02*
X7160260Y-10619740D01*
X7165340Y-11739880D02*
X7190740Y-11765280D01*
X7190740Y-11739880D02*
X7165340Y-11765280D01*
X7249160Y-10955020D02*
X7274560Y-10980420D01*
X7274560Y-10955020D02*
X7249160Y-10980420D01*
X7249160Y-11082020D02*
X7274560Y-11107420D01*
X7274560Y-11082020D02*
X7249160Y-11107420D01*
X7261860Y-9979660D02*
X7287260Y-10005060D01*
X7287260Y-9979660D02*
X7261860Y-10005060D01*
X7326010Y-10765050D02*
X7351410Y-10790450D01*
X7351410Y-10765050D02*
X7326010Y-10790450D01*
X7326010Y-10892050D02*
X7351410Y-10917450D01*
X7351410Y-10892050D02*
X7326010Y-10917450D01*
X7326010Y-11019050D02*
X7351410Y-11044450D01*
X7351410Y-11019050D02*
X7326010Y-11044450D01*
X7326010Y-11146050D02*
X7351410Y-11171450D01*
X7351410Y-11146050D02*
X7326010Y-11171450D01*
X7326010Y-11273050D02*
X7351410Y-11298450D01*
X7351410Y-11273050D02*
X7326010Y-11298450D01*
X7333910Y-11500158D02*
X7359310Y-11525558D01*
X7359310Y-11500158D02*
X7333910Y-11525558D01*
X7363460Y-9733280D02*
X7388860Y-9758680D01*
X7388860Y-9733280D02*
X7363460Y-9758680D01*
X7364110Y-10638050D02*
X7389510Y-10663450D01*
X7389510Y-10638050D02*
X7364110Y-10663450D01*
X7381240Y-10035540D02*
X7406640Y-10060940D01*
X7406640Y-10035540D02*
X7381240Y-10060940D01*
X7402210Y-10574550D02*
X7427610Y-10599950D01*
X7427610Y-10574550D02*
X7402210Y-10599950D01*
X7402210Y-10701550D02*
X7427610Y-10726950D01*
X7427610Y-10701550D02*
X7402210Y-10726950D01*
X7402210Y-10828550D02*
X7427610Y-10853950D01*
X7427610Y-10828550D02*
X7402210Y-10853950D01*
X7402210Y-10955550D02*
X7427610Y-10980950D01*
X7427610Y-10955550D02*
X7402210Y-10980950D01*
X7402210Y-11082550D02*
X7427610Y-11107950D01*
X7427610Y-11082550D02*
X7402210Y-11107950D01*
X7402210Y-11209550D02*
X7427610Y-11234950D01*
X7427610Y-11209550D02*
X7402210Y-11234950D01*
X7402210Y-11336550D02*
X7427610Y-11361950D01*
X7427610Y-11336550D02*
X7402210Y-11361950D01*
X7470140Y-10307320D02*
X7495540Y-10332720D01*
X7495540Y-10307320D02*
X7470140Y-10332720D01*
X7571740Y-10022840D02*
X7597140Y-10048240D01*
X7597140Y-10022840D02*
X7571740Y-10048240D01*
X7635240Y-11965940D02*
X7660640Y-11991340D01*
X7660640Y-11965940D02*
X7635240Y-11991340D01*
X7648590Y-10638050D02*
X7673990Y-10663450D01*
X7673990Y-10638050D02*
X7648590Y-10663450D01*
X7648590Y-10765050D02*
X7673990Y-10790450D01*
X7673990Y-10765050D02*
X7648590Y-10790450D01*
X7648590Y-10892050D02*
X7673990Y-10917450D01*
X7673990Y-10892050D02*
X7648590Y-10917450D01*
X7648590Y-11273050D02*
X7673990Y-11298450D01*
X7673990Y-11273050D02*
X7648590Y-11298450D01*
X7648590Y-11527050D02*
X7673990Y-11552450D01*
X7673990Y-11527050D02*
X7648590Y-11552450D01*
X7655560Y-9763760D02*
X7680960Y-9789160D01*
X7680960Y-9763760D02*
X7655560Y-9789160D01*
X7665720Y-10104120D02*
X7691120Y-10129520D01*
X7691120Y-10104120D02*
X7665720Y-10129520D01*
X7675880Y-9565640D02*
X7701280Y-9591040D01*
X7701280Y-9565640D02*
X7675880Y-9591040D01*
X7686690Y-10307320D02*
X7712090Y-10332720D01*
X7712090Y-10307320D02*
X7686690Y-10332720D01*
X7686690Y-10574550D02*
X7712090Y-10599950D01*
X7712090Y-10574550D02*
X7686690Y-10599950D01*
X7686690Y-10701550D02*
X7712090Y-10726950D01*
X7712090Y-10701550D02*
X7686690Y-10726950D01*
X7686690Y-10828550D02*
X7712090Y-10853950D01*
X7712090Y-10828550D02*
X7686690Y-10853950D01*
X7686690Y-10955550D02*
X7712090Y-10980950D01*
X7712090Y-10955550D02*
X7686690Y-10980950D01*
X7716520Y-12372340D02*
X7741920Y-12397740D01*
X7741920Y-12372340D02*
X7716520Y-12397740D01*
X7724790Y-11336550D02*
X7750190Y-11361950D01*
X7750190Y-11336550D02*
X7724790Y-11361950D01*
X7724790Y-11463550D02*
X7750190Y-11488950D01*
X7750190Y-11463550D02*
X7724790Y-11488950D01*
X7780020Y-9319260D02*
X7805420Y-9344660D01*
X7805420Y-9319260D02*
X7780020Y-9344660D01*
X7805420Y-11430000D02*
X7830820Y-11455400D01*
X7830820Y-11430000D02*
X7805420Y-11455400D01*
X7805420Y-11584940D02*
X7830820Y-11610340D01*
X7830820Y-11584940D02*
X7805420Y-11610340D01*
X7810500Y-10175240D02*
X7835900Y-10200640D01*
X7835900Y-10175240D02*
X7810500Y-10200640D01*
X7832598Y-11011408D02*
X7857998Y-11036808D01*
X7857998Y-11011408D02*
X7832598Y-11036808D01*
X7856220Y-9900920D02*
X7881620Y-9926320D01*
X7881620Y-9900920D02*
X7856220Y-9926320D01*
X7898638Y-11011408D02*
X7924038Y-11036808D01*
X7924038Y-11011408D02*
X7898638Y-11036808D01*
X7907020Y-9682480D02*
X7932420Y-9707880D01*
X7932420Y-9682480D02*
X7907020Y-9707880D01*
X7934198Y-10889488D02*
X7959598Y-10914888D01*
X7959598Y-10889488D02*
X7934198Y-10914888D01*
X7934960Y-10068560D02*
X7960360Y-10093960D01*
X7960360Y-10068560D02*
X7934960Y-10093960D01*
X7985760Y-9436100D02*
X8011160Y-9461500D01*
X8011160Y-9436100D02*
X7985760Y-9461500D01*
X8000238Y-10889488D02*
X8025638Y-10914888D01*
X8025638Y-10889488D02*
X8000238Y-10914888D01*
X8008620Y-11211560D02*
X8034020Y-11236960D01*
X8034020Y-11211560D02*
X8008620Y-11236960D01*
X8018780Y-10287000D02*
X8044180Y-10312400D01*
X8044180Y-10287000D02*
X8018780Y-10312400D01*
X8018780Y-10477500D02*
X8044180Y-10502900D01*
X8044180Y-10477500D02*
X8018780Y-10502900D01*
X8044180Y-9197340D02*
X8069580Y-9222740D01*
X8069580Y-9197340D02*
X8044180Y-9222740D01*
X8089900Y-9852660D02*
X8115300Y-9878060D01*
X8115300Y-9852660D02*
X8089900Y-9878060D01*
X8094980Y-9662160D02*
X8120380Y-9687560D01*
X8120380Y-9662160D02*
X8094980Y-9687560D01*
X8110220Y-9070340D02*
X8135620Y-9095740D01*
X8135620Y-9070340D02*
X8110220Y-9095740D01*
X8140700Y-9972040D02*
X8166100Y-9997440D01*
X8166100Y-9972040D02*
X8140700Y-9997440D01*
X8153400Y-11958320D02*
X8178800Y-11983720D01*
X8178800Y-11958320D02*
X8153400Y-11983720D01*
X8158480Y-10276840D02*
X8183880Y-10302240D01*
X8183880Y-10276840D02*
X8158480Y-10302240D01*
X8158480Y-11442700D02*
X8183880Y-11468100D01*
X8183880Y-11442700D02*
X8158480Y-11468100D01*
X8166100Y-10886440D02*
X8191500Y-10911840D01*
X8191500Y-10886440D02*
X8166100Y-10911840D01*
X8168640Y-11696700D02*
X8194040Y-11722100D01*
X8194040Y-11696700D02*
X8168640Y-11722100D01*
X8211820Y-10388600D02*
X8237220Y-10414000D01*
X8237220Y-10388600D02*
X8211820Y-10414000D01*
X8236470Y-9353308D02*
X8261870Y-9378708D01*
X8261870Y-9353308D02*
X8236470Y-9378708D01*
X8244840Y-10805160D02*
X8270240Y-10830560D01*
X8270240Y-10805160D02*
X8244840Y-10830560D01*
X8244840Y-10982960D02*
X8270240Y-11008360D01*
X8270240Y-10982960D02*
X8244840Y-11008360D01*
X8280400Y-9710420D02*
X8305800Y-9735820D01*
X8305800Y-9710420D02*
X8280400Y-9735820D01*
X8295640Y-12222480D02*
X8321040Y-12247880D01*
X8321040Y-12222480D02*
X8295640Y-12247880D01*
X8361460Y-11067264D02*
X8386860Y-11092664D01*
X8386860Y-11067264D02*
X8361460Y-11092664D01*
X8361460Y-11161244D02*
X8386860Y-11186644D01*
X8386860Y-11161244D02*
X8361460Y-11186644D01*
X8361460Y-11255244D02*
X8386860Y-11280644D01*
X8386860Y-11255244D02*
X8361460Y-11280644D01*
X8361460Y-11349244D02*
X8386860Y-11374644D01*
X8386860Y-11349244D02*
X8361460Y-11374644D01*
X8366760Y-11577320D02*
X8392160Y-11602720D01*
X8392160Y-11577320D02*
X8366760Y-11602720D01*
X8370228Y-9394948D02*
X8395628Y-9420348D01*
X8395628Y-9394948D02*
X8370228Y-9420348D01*
X8370228Y-9750548D02*
X8395628Y-9775948D01*
X8395628Y-9750548D02*
X8370228Y-9775948D01*
X8389620Y-11696700D02*
X8415020Y-11722100D01*
X8415020Y-11696700D02*
X8389620Y-11722100D01*
X8394700Y-10657840D02*
X8420100Y-10683240D01*
X8420100Y-10657840D02*
X8394700Y-10683240D01*
X8433728Y-9318748D02*
X8459128Y-9344148D01*
X8459128Y-9318748D02*
X8433728Y-9344148D01*
X8433728Y-9674348D02*
X8459128Y-9699748D01*
X8459128Y-9674348D02*
X8433728Y-9699748D01*
X8448040Y-9987280D02*
X8473440Y-10012680D01*
X8473440Y-9987280D02*
X8448040Y-10012680D01*
X8478520Y-10337800D02*
X8503920Y-10363200D01*
X8503920Y-10337800D02*
X8478520Y-10363200D01*
X8478520Y-10472420D02*
X8503920Y-10497820D01*
X8503920Y-10472420D02*
X8478520Y-10497820D01*
X8493760Y-10843260D02*
X8519160Y-10868660D01*
X8519160Y-10843260D02*
X8493760Y-10868660D01*
X8497228Y-9394948D02*
X8522628Y-9420348D01*
X8522628Y-9394948D02*
X8497228Y-9420348D01*
X8497228Y-9750548D02*
X8522628Y-9775948D01*
X8522628Y-9750548D02*
X8497228Y-9775948D01*
X8498840Y-10109200D02*
X8524240Y-10134600D01*
X8524240Y-10109200D02*
X8498840Y-10134600D01*
X8501380Y-11958320D02*
X8526780Y-11983720D01*
X8526780Y-11958320D02*
X8501380Y-11983720D01*
X8529320Y-11424920D02*
X8554720Y-11450320D01*
X8554720Y-11424920D02*
X8529320Y-11450320D01*
X8560728Y-9242548D02*
X8586128Y-9267948D01*
X8586128Y-9242548D02*
X8560728Y-9267948D01*
X8560728Y-9674348D02*
X8586128Y-9699748D01*
X8586128Y-9674348D02*
X8560728Y-9699748D01*
X8564880Y-9819640D02*
X8590280Y-9845040D01*
X8590280Y-9819640D02*
X8564880Y-9845040D01*
X8608060Y-11869420D02*
X8633460Y-11894820D01*
X8633460Y-11869420D02*
X8608060Y-11894820D01*
X8613746Y-11017250D02*
X8639146Y-11042650D01*
X8639146Y-11017250D02*
X8613746Y-11042650D01*
X8618746Y-11303508D02*
X8644146Y-11328908D01*
X8644146Y-11303508D02*
X8618746Y-11328908D01*
X8624228Y-9394948D02*
X8649628Y-9420348D01*
X8649628Y-9394948D02*
X8624228Y-9420348D01*
X8624228Y-9712448D02*
X8649628Y-9737848D01*
X8649628Y-9712448D02*
X8624228Y-9737848D01*
X8633460Y-11643360D02*
X8658860Y-11668760D01*
X8658860Y-11643360D02*
X8633460Y-11668760D01*
X8658860Y-11463020D02*
X8684260Y-11488420D01*
X8684260Y-11463020D02*
X8658860Y-11488420D01*
X8689340Y-9166860D02*
X8714740Y-9192260D01*
X8714740Y-9166860D02*
X8689340Y-9192260D01*
X8724900Y-10657840D02*
X8750300Y-10683240D01*
X8750300Y-10657840D02*
X8724900Y-10683240D01*
X8780780Y-9357360D02*
X8806180Y-9382760D01*
X8806180Y-9357360D02*
X8780780Y-9382760D01*
X8783320Y-9710420D02*
X8808720Y-9735820D01*
X8808720Y-9710420D02*
X8783320Y-9735820D01*
X8784082Y-12170410D02*
X8809482Y-12195810D01*
X8809482Y-12170410D02*
X8784082Y-12195810D01*
X8792720Y-11026532D02*
X8818120Y-11051932D01*
X8818120Y-11026532D02*
X8792720Y-11051932D01*
X8801100Y-10535920D02*
X8826500Y-10561320D01*
X8826500Y-10535920D02*
X8801100Y-10561320D01*
X8807960Y-11229340D02*
X8833360Y-11254740D01*
X8833360Y-11229340D02*
X8807960Y-11254740D01*
X8821420Y-9852660D02*
X8846820Y-9878060D01*
X8846820Y-9852660D02*
X8821420Y-9878060D01*
X8843520Y-10976532D02*
X8868920Y-11001932D01*
X8868920Y-10976532D02*
X8843520Y-11001932D01*
X8843520Y-11076532D02*
X8868920Y-11101932D01*
X8868920Y-11076532D02*
X8843520Y-11101932D01*
X8843892Y-11506820D02*
X8869292Y-11532220D01*
X8869292Y-11506820D02*
X8843892Y-11532220D01*
X8856980Y-10599420D02*
X8882380Y-10624820D01*
X8882380Y-10599420D02*
X8856980Y-10624820D01*
X8858760Y-11158282D02*
X8884160Y-11183682D01*
X8884160Y-11158282D02*
X8858760Y-11183682D01*
X8864600Y-9982200D02*
X8890000Y-10007600D01*
X8890000Y-9982200D02*
X8864600Y-10007600D01*
X8877300Y-11846560D02*
X8902700Y-11871960D01*
X8902700Y-11846560D02*
X8877300Y-11871960D01*
X8915400Y-11592560D02*
X8940800Y-11617960D01*
X8940800Y-11592560D02*
X8915400Y-11617960D01*
X8916710Y-11521748D02*
X8942110Y-11547148D01*
X8942110Y-11521748D02*
X8916710Y-11547148D01*
X8917173Y-11284453D02*
X8942573Y-11309853D01*
X8942573Y-11284453D02*
X8917173Y-11309853D01*
X8977524Y-10587886D02*
X9002924Y-10613286D01*
X9002924Y-10587886D02*
X8977524Y-10613286D01*
X8978900Y-10030460D02*
X9004300Y-10055860D01*
X9004300Y-10030460D02*
X8978900Y-10055860D01*
X9009380Y-9476740D02*
X9034780Y-9502140D01*
X9034780Y-9476740D02*
X9009380Y-9502140D01*
X9011650Y-11315700D02*
X9037050Y-11341100D01*
X9037050Y-11315700D02*
X9011650Y-11341100D01*
X9022080Y-11699240D02*
X9047480Y-11724640D01*
X9047480Y-11699240D02*
X9022080Y-11724640D01*
X9027510Y-10638746D02*
X9052910Y-10664146D01*
X9052910Y-10638746D02*
X9027510Y-10664146D01*
X9049004Y-12247372D02*
X9074404Y-12272772D01*
X9074404Y-12247372D02*
X9049004Y-12272772D01*
X9052560Y-10819638D02*
X9077960Y-10845038D01*
X9077960Y-10819638D02*
X9052560Y-10845038D01*
X9052560Y-11097260D02*
X9077960Y-11122660D01*
X9077960Y-11097260D02*
X9052560Y-11122660D01*
X9056750Y-11506820D02*
X9082150Y-11532220D01*
X9082150Y-11506820D02*
X9056750Y-11532220D01*
X9070340Y-10266680D02*
X9095740Y-10292080D01*
X9095740Y-10266680D02*
X9070340Y-10292080D01*
X9077524Y-10587886D02*
X9102924Y-10613286D01*
X9102924Y-10587886D02*
X9077524Y-10613286D01*
X9101200Y-11320780D02*
X9126600Y-11346180D01*
X9126600Y-11320780D02*
X9101200Y-11346180D01*
X9103360Y-12031980D02*
X9128760Y-12057380D01*
X9128760Y-12031980D02*
X9103360Y-12057380D01*
X9110980Y-9565640D02*
X9136380Y-9591040D01*
X9136380Y-9565640D02*
X9110980Y-9591040D01*
X9123680Y-10330180D02*
X9149080Y-10355580D01*
X9149080Y-10330180D02*
X9123680Y-10355580D01*
X9127510Y-10638746D02*
X9152910Y-10664146D01*
X9152910Y-10638746D02*
X9127510Y-10664146D01*
X9131300Y-9728200D02*
X9156700Y-9753600D01*
X9156700Y-9728200D02*
X9131300Y-9753600D01*
X9151620Y-9857740D02*
X9177020Y-9883140D01*
X9177020Y-9857740D02*
X9151620Y-9883140D01*
X9177524Y-10587886D02*
X9202924Y-10613286D01*
X9202924Y-10587886D02*
X9177524Y-10613286D01*
X9190224Y-11515902D02*
X9215624Y-11541302D01*
X9215624Y-11515902D02*
X9190224Y-11541302D01*
X9194347Y-11914179D02*
X9219747Y-11939579D01*
X9219747Y-11914179D02*
X9194347Y-11939579D01*
X9210548Y-10886948D02*
X9235948Y-10912348D01*
X9235948Y-10886948D02*
X9210548Y-10912348D01*
X9213326Y-11289300D02*
X9238726Y-11314700D01*
X9238726Y-11289300D02*
X9213326Y-11314700D01*
X9227510Y-10638746D02*
X9252910Y-10664146D01*
X9252910Y-10638746D02*
X9227510Y-10664146D01*
X9237980Y-9418320D02*
X9263380Y-9443720D01*
X9263380Y-9418320D02*
X9237980Y-9443720D01*
X9240576Y-11097260D02*
X9265976Y-11122660D01*
X9265976Y-11097260D02*
X9240576Y-11122660D01*
X9247378Y-11386940D02*
X9272778Y-11412340D01*
X9272778Y-11386940D02*
X9247378Y-11412340D01*
X9273540Y-12301220D02*
X9298940Y-12326620D01*
X9298940Y-12301220D02*
X9273540Y-12326620D01*
X9296400Y-9728200D02*
X9321800Y-9753600D01*
X9321800Y-9728200D02*
X9296400Y-9753600D01*
X9319260Y-11971020D02*
X9344660Y-11996420D01*
X9344660Y-11971020D02*
X9319260Y-11996420D01*
X9321800Y-9169400D02*
X9347200Y-9194800D01*
X9347200Y-9169400D02*
X9321800Y-9194800D01*
X9356068Y-9356808D02*
X9381468Y-9382208D01*
X9381468Y-9356808D02*
X9356068Y-9382208D01*
X9375140Y-10388600D02*
X9400540Y-10414000D01*
X9400540Y-10388600D02*
X9375140Y-10414000D01*
X9419568Y-9394908D02*
X9444968Y-9420308D01*
X9444968Y-9394908D02*
X9419568Y-9420308D01*
X9419568Y-10055308D02*
X9444968Y-10080708D01*
X9444968Y-10055308D02*
X9419568Y-10080708D01*
X9446288Y-10744782D02*
X9471688Y-10770182D01*
X9471688Y-10744782D02*
X9446288Y-10770182D01*
X9470494Y-10884180D02*
X9495894Y-10909580D01*
X9495894Y-10884180D02*
X9470494Y-10909580D01*
X9474708Y-10601706D02*
X9500108Y-10627106D01*
X9500108Y-10601706D02*
X9474708Y-10627106D01*
X9483068Y-9318708D02*
X9508468Y-9344108D01*
X9508468Y-9318708D02*
X9483068Y-9344108D01*
X9483068Y-9979108D02*
X9508468Y-10004508D01*
X9508468Y-9979108D02*
X9483068Y-10004508D01*
X9489440Y-12301220D02*
X9514840Y-12326620D01*
X9514840Y-12301220D02*
X9489440Y-12326620D01*
X9497120Y-10826532D02*
X9522520Y-10851932D01*
X9522520Y-10826532D02*
X9497120Y-10851932D01*
X9534140Y-10629024D02*
X9559540Y-10654424D01*
X9559540Y-10629024D02*
X9534140Y-10654424D01*
X9542780Y-10106660D02*
X9568180Y-10132060D01*
X9568180Y-10106660D02*
X9542780Y-10132060D01*
X9546568Y-9394908D02*
X9571968Y-9420308D01*
X9571968Y-9394908D02*
X9546568Y-9420308D01*
X9546568Y-9712408D02*
X9571968Y-9737808D01*
X9571968Y-9712408D02*
X9546568Y-9737808D01*
X9603740Y-9994900D02*
X9629140Y-10020300D01*
X9629140Y-9994900D02*
X9603740Y-10020300D01*
X9610068Y-9318708D02*
X9635468Y-9344108D01*
X9635468Y-9318708D02*
X9610068Y-9344108D01*
X9610068Y-9674308D02*
X9635468Y-9699708D01*
X9635468Y-9674308D02*
X9610068Y-9699708D01*
X9613900Y-10327640D02*
X9639300Y-10353040D01*
X9639300Y-10327640D02*
X9613900Y-10353040D01*
X9649460Y-11785600D02*
X9674860Y-11811000D01*
X9674860Y-11785600D02*
X9649460Y-11811000D01*
X9649460Y-12026900D02*
X9674860Y-12052300D01*
X9674860Y-12026900D02*
X9649460Y-12052300D01*
X9669780Y-10200640D02*
X9695180Y-10226040D01*
X9695180Y-10200640D02*
X9669780Y-10226040D01*
X9673568Y-9941008D02*
X9698968Y-9966408D01*
X9698968Y-9941008D02*
X9673568Y-9966408D01*
X9674860Y-10482580D02*
X9700260Y-10507980D01*
X9700260Y-10482580D02*
X9674860Y-10507980D01*
X9692640Y-11379200D02*
X9718040Y-11404600D01*
X9718040Y-11379200D02*
X9692640Y-11404600D01*
X9700260Y-10866120D02*
X9725660Y-10891520D01*
X9725660Y-10866120D02*
X9700260Y-10891520D01*
X9726976Y-11898600D02*
X9752376Y-11924000D01*
X9752376Y-11898600D02*
X9726976Y-11924000D01*
X9726976Y-11992776D02*
X9752376Y-12018176D01*
X9752376Y-11992776D02*
X9726976Y-12018176D01*
X9737068Y-9864808D02*
X9762468Y-9890208D01*
X9762468Y-9864808D02*
X9737068Y-9890208D01*
X9762236Y-12301220D02*
X9787636Y-12326620D01*
X9787636Y-12301220D02*
X9762236Y-12326620D01*
X9771380Y-11049000D02*
X9796780Y-11074400D01*
X9796780Y-11049000D02*
X9771380Y-11074400D01*
X9795002Y-11518700D02*
X9820402Y-11544100D01*
X9820402Y-11518700D02*
X9795002Y-11544100D01*
X9795322Y-11379780D02*
X9820722Y-11405180D01*
X9820722Y-11379780D02*
X9795322Y-11405180D01*
X9806940Y-12164060D02*
X9832340Y-12189460D01*
X9832340Y-12164060D02*
X9806940Y-12189460D01*
X9834880Y-9171940D02*
X9860280Y-9197340D01*
X9860280Y-9171940D02*
X9834880Y-9197340D01*
X9875882Y-9318708D02*
X9901282Y-9344108D01*
X9901282Y-9318708D02*
X9875882Y-9344108D01*
X9885680Y-9984740D02*
X9911080Y-10010140D01*
X9911080Y-9984740D02*
X9885680Y-10010140D01*
X9888220Y-10099040D02*
X9913620Y-10124440D01*
X9913620Y-10099040D02*
X9888220Y-10124440D01*
X9891110Y-11218946D02*
X9916510Y-11244346D01*
X9916510Y-11218946D02*
X9891110Y-11244346D01*
X9973444Y-10414456D02*
X9998844Y-10439856D01*
X9998844Y-10414456D02*
X9973444Y-10439856D01*
X9975882Y-9318708D02*
X10001282Y-9344108D01*
X10001282Y-9318708D02*
X9975882Y-9344108D01*
X9977120Y-9174480D02*
X10002520Y-9199880D01*
X10002520Y-9174480D02*
X9977120Y-9199880D01*
X9978822Y-10948936D02*
X10004222Y-10974336D01*
X10004222Y-10948936D02*
X9978822Y-10974336D01*
X9979660Y-9779000D02*
X10005060Y-9804400D01*
X10005060Y-9779000D02*
X9979660Y-9804400D01*
X9980422Y-9995098D02*
X10005822Y-10020498D01*
X10005822Y-9995098D02*
X9980422Y-10020498D01*
X10050780Y-12301220D02*
X10076180Y-12326620D01*
X10076180Y-12301220D02*
X10050780Y-12326620D01*
X10076680Y-11613020D02*
X10102080Y-11638420D01*
X10102080Y-11613020D02*
X10076680Y-11638420D01*
X10099722Y-10083794D02*
X10125122Y-10109194D01*
X10125122Y-10083794D02*
X10099722Y-10109194D01*
X10103686Y-9877932D02*
X10129086Y-9903332D01*
X10129086Y-9877932D02*
X10103686Y-9903332D01*
X10116626Y-11554260D02*
X10142026Y-11579660D01*
X10142026Y-11554260D02*
X10116626Y-11579660D01*
X10124246Y-11367080D02*
X10149646Y-11392480D01*
X10149646Y-11367080D02*
X10124246Y-11392480D01*
X10140870Y-10788136D02*
X10166270Y-10813536D01*
X10166270Y-10788136D02*
X10140870Y-10813536D01*
X10140950Y-10660688D02*
X10166350Y-10686088D01*
X10166350Y-10660688D02*
X10140950Y-10686088D01*
X10140950Y-10724382D02*
X10166350Y-10749782D01*
X10166350Y-10724382D02*
X10140950Y-10749782D01*
X10152066Y-11613020D02*
X10177466Y-11638420D01*
X10177466Y-11613020D02*
X10152066Y-11638420D01*
X10172844Y-10290756D02*
X10198244Y-10316156D01*
X10198244Y-10290756D02*
X10172844Y-10316156D01*
X10172844Y-10443156D02*
X10198244Y-10468556D01*
X10198244Y-10443156D02*
X10172844Y-10468556D01*
X10180320Y-11910060D02*
X10205720Y-11935460D01*
X10205720Y-11910060D02*
X10180320Y-11935460D01*
X10199044Y-10088620D02*
X10224444Y-10114020D01*
X10224444Y-10088620D02*
X10199044Y-10114020D01*
X10249044Y-10366956D02*
X10274444Y-10392356D01*
X10274444Y-10366956D02*
X10249044Y-10392356D01*
X10270790Y-11898600D02*
X10296190Y-11924000D01*
X10296190Y-11898600D02*
X10270790Y-11924000D01*
X10271760Y-9545320D02*
X10297160Y-9570720D01*
X10297160Y-9545320D02*
X10271760Y-9570720D01*
X10274300Y-12212320D02*
X10299700Y-12237720D01*
X10299700Y-12212320D02*
X10274300Y-12237720D01*
X10289582Y-11218946D02*
X10314982Y-11244346D01*
X10314982Y-11218946D02*
X10289582Y-11244346D01*
X10299044Y-10088620D02*
X10324444Y-10114020D01*
X10324444Y-10088620D02*
X10299044Y-10114020D01*
X10325244Y-10290756D02*
X10350644Y-10316156D01*
X10350644Y-10290756D02*
X10325244Y-10316156D01*
X10325244Y-10443156D02*
X10350644Y-10468556D01*
X10350644Y-10443156D02*
X10325244Y-10468556D01*
X10332720Y-9177020D02*
X10358120Y-9202420D01*
X10358120Y-9177020D02*
X10332720Y-9202420D01*
X10353468Y-10052298D02*
X10378868Y-10077698D01*
X10378868Y-10052298D02*
X10353468Y-10077698D01*
X10410520Y-11613020D02*
X10435920Y-11638420D01*
X10435920Y-11613020D02*
X10410520Y-11638420D01*
X10434320Y-9070340D02*
X10459720Y-9095740D01*
X10459720Y-9070340D02*
X10434320Y-9095740D01*
X10449570Y-11554260D02*
X10474970Y-11579660D01*
X10474970Y-11554260D02*
X10449570Y-11579660D01*
X10454224Y-9877932D02*
X10479624Y-9903332D01*
X10479624Y-9877932D02*
X10454224Y-9903332D01*
X10458460Y-11367080D02*
X10483860Y-11392480D01*
X10483860Y-11367080D02*
X10458460Y-11392480D01*
X10482060Y-11613020D02*
X10507460Y-11638420D01*
X10507460Y-11613020D02*
X10482060Y-11638420D01*
X10483008Y-10634720D02*
X10508408Y-10660120D01*
X10508408Y-10634720D02*
X10483008Y-10660120D01*
X10483008Y-10717022D02*
X10508408Y-10742422D01*
X10508408Y-10717022D02*
X10483008Y-10742422D01*
X10520756Y-10940318D02*
X10546156Y-10965718D01*
X10546156Y-10940318D02*
X10520756Y-10965718D01*
X10531510Y-10519878D02*
X10556910Y-10545278D01*
X10556910Y-10519878D02*
X10531510Y-10545278D01*
X10534000Y-11663480D02*
X10559400Y-11688880D01*
X10559400Y-11663480D02*
X10534000Y-11688880D01*
X10574000Y-11613020D02*
X10599400Y-11638420D01*
X10599400Y-11613020D02*
X10574000Y-11638420D01*
X10583084Y-10364456D02*
X10608484Y-10389856D01*
X10608484Y-10364456D02*
X10583084Y-10389856D01*
X10612120Y-11866880D02*
X10637520Y-11892280D01*
X10637520Y-11866880D02*
X10612120Y-11892280D01*
X10614660Y-11225206D02*
X10640060Y-11250606D01*
X10640060Y-11225206D02*
X10614660Y-11250606D01*
X10650220Y-12044680D02*
X10675620Y-12070080D01*
X10675620Y-12044680D02*
X10650220Y-12070080D01*
X10652000Y-11613020D02*
X10677400Y-11638420D01*
X10677400Y-11613020D02*
X10652000Y-11638420D01*
X10652760Y-9494520D02*
X10678160Y-9519920D01*
X10678160Y-9494520D02*
X10652760Y-9519920D01*
X10657840Y-9771380D02*
X10683240Y-9796780D01*
X10683240Y-9771380D02*
X10657840Y-9796780D01*
X10670540Y-10574020D02*
X10695940Y-10599420D01*
X10695940Y-10574020D02*
X10670540Y-10599420D01*
X10670540Y-10690860D02*
X10695940Y-10716260D01*
X10695940Y-10690860D02*
X10670540Y-10716260D01*
X10691878Y-11663480D02*
X10717278Y-11688880D01*
X10717278Y-11663480D02*
X10691878Y-11688880D01*
X10696194Y-11225206D02*
X10721594Y-11250606D01*
X10721594Y-11225206D02*
X10696194Y-11250606D01*
X10708204Y-12312980D02*
X10733604Y-12338380D01*
X10733604Y-12312980D02*
X10708204Y-12338380D01*
X10708204Y-12861620D02*
X10733604Y-12887020D01*
X10733604Y-12861620D02*
X10708204Y-12887020D01*
X10743842Y-11613020D02*
X10769242Y-11638420D01*
X10769242Y-11613020D02*
X10743842Y-11638420D01*
X10761204Y-11456742D02*
X10786604Y-11482142D01*
X10786604Y-11456742D02*
X10761204Y-11482142D01*
X10795000Y-9431020D02*
X10820400Y-9456420D01*
X10820400Y-9431020D02*
X10795000Y-9456420D01*
X10795000Y-10182860D02*
X10820400Y-10208260D01*
X10820400Y-10182860D02*
X10795000Y-10208260D01*
X10795000Y-11097260D02*
X10820400Y-11122660D01*
X10820400Y-11097260D02*
X10795000Y-11122660D01*
X10797540Y-9639300D02*
X10822940Y-9664700D01*
X10822940Y-9639300D02*
X10797540Y-9664700D01*
X10797540Y-9776460D02*
X10822940Y-9801860D01*
X10822940Y-9776460D02*
X10797540Y-9801860D01*
X10800080Y-10711180D02*
X10825480Y-10736580D01*
X10825480Y-10711180D02*
X10800080Y-10736580D01*
X10871200Y-11826240D02*
X10896600Y-11851640D01*
X10896600Y-11826240D02*
X10871200Y-11851640D01*
X10876280Y-12067540D02*
X10901680Y-12092940D01*
X10901680Y-12067540D02*
X10876280Y-12092940D01*
X10998200Y-11178540D02*
X11023600Y-11203940D01*
X11023600Y-11178540D02*
X10998200Y-11203940D01*
X11000096Y-9809226D02*
X11025496Y-9834626D01*
X11025496Y-9809226D02*
X11000096Y-9834626D01*
X11020044Y-11927332D02*
X11045444Y-11952732D01*
X11045444Y-11927332D02*
X11020044Y-11952732D01*
X11098236Y-11734834D02*
X11123636Y-11760234D01*
X11123636Y-11734834D02*
X11098236Y-11760234D01*
X11098236Y-11861834D02*
X11123636Y-11887234D01*
X11123636Y-11861834D02*
X11098236Y-11887234D01*
X11104880Y-10713720D02*
X11130280Y-10739120D01*
X11130280Y-10713720D02*
X11104880Y-10739120D01*
X11214100Y-11234420D02*
X11239500Y-11259820D01*
X11239500Y-11234420D02*
X11214100Y-11259820D01*
X11254740Y-9941560D02*
X11280140Y-9966960D01*
X11280140Y-9941560D02*
X11254740Y-9966960D01*
X11280140Y-10391140D02*
X11305540Y-10416540D01*
X11305540Y-10391140D02*
X11280140Y-10416540D01*
X11290300Y-9428480D02*
X11315700Y-9453880D01*
X11315700Y-9428480D02*
X11290300Y-9453880D01*
X11320780Y-12806680D02*
X11346180Y-12832080D01*
X11346180Y-12806680D02*
X11320780Y-12832080D01*
X11325860Y-12217400D02*
X11351260Y-12242800D01*
X11351260Y-12217400D02*
X11325860Y-12242800D01*
X11475720Y-11971020D02*
X11501120Y-11996420D01*
X11501120Y-11971020D02*
X11475720Y-11996420D01*
X11607800Y-11089640D02*
X11633200Y-11115040D01*
X11633200Y-11089640D02*
X11607800Y-11115040D01*
X11790680Y-12278360D02*
X11816080Y-12303760D01*
X11816080Y-12278360D02*
X11790680Y-12303760D01*
X11860236Y-11353834D02*
X11885636Y-11379234D01*
X11885636Y-11353834D02*
X11860236Y-11379234D01*
X11860236Y-11607834D02*
X11885636Y-11633234D01*
X11885636Y-11607834D02*
X11860236Y-11633234D01*
X11860236Y-11734834D02*
X11885636Y-11760234D01*
X11885636Y-11734834D02*
X11860236Y-11760234D01*
X7952720Y-12492050D02*
G75*
G02*
X7861280Y-12492050I-45720J0D01*
G01*
X7861280Y-12492050D02*
G75*
G02*
X7952720Y-12492050I45720J0D01*
G01*
X7952720Y-12746050D02*
G75*
G02*
X7861280Y-12746050I-45720J0D01*
G01*
X7861280Y-12746050D02*
G75*
G02*
X7952720Y-12746050I45720J0D01*
G01*
X8206720Y-12492050D02*
G75*
G02*
X8115280Y-12492050I-45720J0D01*
G01*
X8115280Y-12492050D02*
G75*
G02*
X8206720Y-12492050I45720J0D01*
G01*
X8206720Y-12746050D02*
G75*
G02*
X8115280Y-12746050I-45720J0D01*
G01*
X8115280Y-12746050D02*
G75*
G02*
X8206720Y-12746050I45720J0D01*
G01*
X8460720Y-12492050D02*
G75*
G02*
X8369280Y-12492050I-45720J0D01*
G01*
X8369280Y-12492050D02*
G75*
G02*
X8460720Y-12492050I45720J0D01*
G01*
X8460720Y-12746050D02*
G75*
G02*
X8369280Y-12746050I-45720J0D01*
G01*
X8369280Y-12746050D02*
G75*
G02*
X8460720Y-12746050I45720J0D01*
G01*
X8714720Y-12492050D02*
G75*
G02*
X8623280Y-12492050I-45720J0D01*
G01*
X8623280Y-12492050D02*
G75*
G02*
X8714720Y-12492050I45720J0D01*
G01*
X8714720Y-12746050D02*
G75*
G02*
X8623280Y-12746050I-45720J0D01*
G01*
X8623280Y-12746050D02*
G75*
G02*
X8714720Y-12746050I45720J0D01*
G01*
X8968720Y-12492050D02*
G75*
G02*
X8877280Y-12492050I-45720J0D01*
G01*
X8877280Y-12492050D02*
G75*
G02*
X8968720Y-12492050I45720J0D01*
G01*
X8968720Y-12746050D02*
G75*
G02*
X8877280Y-12746050I-45720J0D01*
G01*
X8877280Y-12746050D02*
G75*
G02*
X8968720Y-12746050I45720J0D01*
G01*
X9222720Y-12492050D02*
G75*
G02*
X9131280Y-12492050I-45720J0D01*
G01*
X9131280Y-12492050D02*
G75*
G02*
X9222720Y-12492050I45720J0D01*
G01*
X9222720Y-12746050D02*
G75*
G02*
X9131280Y-12746050I-45720J0D01*
G01*
X9131280Y-12746050D02*
G75*
G02*
X9222720Y-12746050I45720J0D01*
G01*
X9476720Y-12492050D02*
G75*
G02*
X9385280Y-12492050I-45720J0D01*
G01*
X9385280Y-12492050D02*
G75*
G02*
X9476720Y-12492050I45720J0D01*
G01*
X9476720Y-12746050D02*
G75*
G02*
X9385280Y-12746050I-45720J0D01*
G01*
X9385280Y-12746050D02*
G75*
G02*
X9476720Y-12746050I45720J0D01*
G01*
X9730720Y-12492050D02*
G75*
G02*
X9639280Y-12492050I-45720J0D01*
G01*
X9639280Y-12492050D02*
G75*
G02*
X9730720Y-12492050I45720J0D01*
G01*
X9730720Y-12746050D02*
G75*
G02*
X9639280Y-12746050I-45720J0D01*
G01*
X9639280Y-12746050D02*
G75*
G02*
X9730720Y-12746050I45720J0D01*
G01*
X9984720Y-12492050D02*
G75*
G02*
X9893280Y-12492050I-45720J0D01*
G01*
X9893280Y-12492050D02*
G75*
G02*
X9984720Y-12492050I45720J0D01*
G01*
X9984720Y-12746050D02*
G75*
G02*
X9893280Y-12746050I-45720J0D01*
G01*
X9893280Y-12746050D02*
G75*
G02*
X9984720Y-12746050I45720J0D01*
G01*
X10238720Y-12492050D02*
G75*
G02*
X10147280Y-12492050I-45720J0D01*
G01*
X10147280Y-12492050D02*
G75*
G02*
X10238720Y-12492050I45720J0D01*
G01*
X10238720Y-12746050D02*
G75*
G02*
X10147280Y-12746050I-45720J0D01*
G01*
X10147280Y-12746050D02*
G75*
G02*
X10238720Y-12746050I45720J0D01*
G01*
X11537696Y-9728200D02*
G75*
G02*
X11446256Y-9728200I-45720J0D01*
G01*
X11446256Y-9728200D02*
G75*
G02*
X11537696Y-9728200I45720J0D01*
G01*
X11537696Y-10109200D02*
G75*
G02*
X11446256Y-10109200I-45720J0D01*
G01*
X11446256Y-10109200D02*
G75*
G02*
X11537696Y-10109200I45720J0D01*
G01*
X11537696Y-10490200D02*
G75*
G02*
X11446256Y-10490200I-45720J0D01*
G01*
X11446256Y-10490200D02*
G75*
G02*
X11537696Y-10490200I45720J0D01*
G01*
X11537696Y-10871200D02*
G75*
G02*
X11446256Y-10871200I-45720J0D01*
G01*
X11446256Y-10871200D02*
G75*
G02*
X11537696Y-10871200I45720J0D01*
G01*
X11791696Y-9728200D02*
G75*
G02*
X11700256Y-9728200I-45720J0D01*
G01*
X11700256Y-9728200D02*
G75*
G02*
X11791696Y-9728200I45720J0D01*
G01*
X11791696Y-10109200D02*
G75*
G02*
X11700256Y-10109200I-45720J0D01*
G01*
X11700256Y-10109200D02*
G75*
G02*
X11791696Y-10109200I45720J0D01*
G01*
X11791696Y-10490200D02*
G75*
G02*
X11700256Y-10490200I-45720J0D01*
G01*
X11700256Y-10490200D02*
G75*
G02*
X11791696Y-10490200I45720J0D01*
G01*
X11791696Y-10871200D02*
G75*
G02*
X11700256Y-10871200I-45720J0D01*
G01*
X11700256Y-10871200D02*
G75*
G02*
X11791696Y-10871200I45720J0D01*
G01*
D13*
X7304800Y-9177800D02*
X7304800Y-9431800D01*
X7177800Y-9304800D02*
X7431800Y-9304800D01*
X7304800Y-12568200D02*
X7304800Y-12822200D01*
X7177800Y-12695200D02*
X7431800Y-12695200D01*
X11695200Y-9177800D02*
X11695200Y-9431800D01*
X11568200Y-9304800D02*
X11822200Y-9304800D01*
X11695200Y-12568200D02*
X11695200Y-12822200D01*
X11568200Y-12695200D02*
X11822200Y-12695200D01*
D11*
X7258277Y-13313984D02*
X7258277Y-13113984D01*
X7258277Y-13113984D02*
X7305896Y-13113984D01*
X7305896Y-13113984D02*
X7334467Y-13123508D01*
X7334467Y-13123508D02*
X7353515Y-13142555D01*
X7353515Y-13142555D02*
X7363039Y-13161603D01*
X7363039Y-13161603D02*
X7372562Y-13199698D01*
X7372562Y-13199698D02*
X7372562Y-13228269D01*
X7372562Y-13228269D02*
X7363039Y-13266365D01*
X7363039Y-13266365D02*
X7353515Y-13285412D01*
X7353515Y-13285412D02*
X7334467Y-13304460D01*
X7334467Y-13304460D02*
X7305896Y-13313984D01*
X7305896Y-13313984D02*
X7258277Y-13313984D01*
X7458277Y-13313984D02*
X7458277Y-13180650D01*
X7458277Y-13218746D02*
X7467801Y-13199698D01*
X7467801Y-13199698D02*
X7477324Y-13190174D01*
X7477324Y-13190174D02*
X7496372Y-13180650D01*
X7496372Y-13180650D02*
X7515420Y-13180650D01*
X7582086Y-13313984D02*
X7582086Y-13180650D01*
X7582086Y-13113984D02*
X7572562Y-13123508D01*
X7572562Y-13123508D02*
X7582086Y-13133031D01*
X7582086Y-13133031D02*
X7591610Y-13123508D01*
X7591610Y-13123508D02*
X7582086Y-13113984D01*
X7582086Y-13113984D02*
X7582086Y-13133031D01*
X7705896Y-13313984D02*
X7686848Y-13304460D01*
X7686848Y-13304460D02*
X7677324Y-13285412D01*
X7677324Y-13285412D02*
X7677324Y-13113984D01*
X7810658Y-13313984D02*
X7791610Y-13304460D01*
X7791610Y-13304460D02*
X7782086Y-13285412D01*
X7782086Y-13285412D02*
X7782086Y-13113984D01*
X8039229Y-13313984D02*
X8039229Y-13113984D01*
X8039229Y-13113984D02*
X8105896Y-13256841D01*
X8105896Y-13256841D02*
X8172562Y-13113984D01*
X8172562Y-13113984D02*
X8172562Y-13313984D01*
X8353515Y-13313984D02*
X8353515Y-13209222D01*
X8353515Y-13209222D02*
X8343991Y-13190174D01*
X8343991Y-13190174D02*
X8324943Y-13180650D01*
X8324943Y-13180650D02*
X8286848Y-13180650D01*
X8286848Y-13180650D02*
X8267801Y-13190174D01*
X8353515Y-13304460D02*
X8334467Y-13313984D01*
X8334467Y-13313984D02*
X8286848Y-13313984D01*
X8286848Y-13313984D02*
X8267801Y-13304460D01*
X8267801Y-13304460D02*
X8258277Y-13285412D01*
X8258277Y-13285412D02*
X8258277Y-13266365D01*
X8258277Y-13266365D02*
X8267801Y-13247317D01*
X8267801Y-13247317D02*
X8286848Y-13237793D01*
X8286848Y-13237793D02*
X8334467Y-13237793D01*
X8334467Y-13237793D02*
X8353515Y-13228269D01*
X8448753Y-13180650D02*
X8448753Y-13380650D01*
X8448753Y-13190174D02*
X8467801Y-13180650D01*
X8467801Y-13180650D02*
X8505896Y-13180650D01*
X8505896Y-13180650D02*
X8524944Y-13190174D01*
X8524944Y-13190174D02*
X8534467Y-13199698D01*
X8534467Y-13199698D02*
X8543991Y-13218746D01*
X8543991Y-13218746D02*
X8543991Y-13275888D01*
X8543991Y-13275888D02*
X8534467Y-13294936D01*
X8534467Y-13294936D02*
X8524944Y-13304460D01*
X8524944Y-13304460D02*
X8505896Y-13313984D01*
X8505896Y-13313984D02*
X8467801Y-13313984D01*
X8467801Y-13313984D02*
X8448753Y-13304460D01*
X8629705Y-13294936D02*
X8639229Y-13304460D01*
X8639229Y-13304460D02*
X8629705Y-13313984D01*
X8629705Y-13313984D02*
X8620182Y-13304460D01*
X8620182Y-13304460D02*
X8629705Y-13294936D01*
X8629705Y-13294936D02*
X8629705Y-13313984D01*
X8629705Y-13190174D02*
X8639229Y-13199698D01*
X8639229Y-13199698D02*
X8629705Y-13209222D01*
X8629705Y-13209222D02*
X8620182Y-13199698D01*
X8620182Y-13199698D02*
X8629705Y-13190174D01*
X8629705Y-13190174D02*
X8629705Y-13209222D01*
D12*
X6972100Y-13629800D02*
X6997500Y-13655200D01*
X6997500Y-13629800D02*
X6972100Y-13655200D01*
D11*
X7296372Y-13533984D02*
X7315420Y-13533984D01*
X7315420Y-13533984D02*
X7334467Y-13543508D01*
X7334467Y-13543508D02*
X7343991Y-13553031D01*
X7343991Y-13553031D02*
X7353515Y-13572079D01*
X7353515Y-13572079D02*
X7363039Y-13610174D01*
X7363039Y-13610174D02*
X7363039Y-13657793D01*
X7363039Y-13657793D02*
X7353515Y-13695888D01*
X7353515Y-13695888D02*
X7343991Y-13714936D01*
X7343991Y-13714936D02*
X7334467Y-13724460D01*
X7334467Y-13724460D02*
X7315420Y-13733984D01*
X7315420Y-13733984D02*
X7296372Y-13733984D01*
X7296372Y-13733984D02*
X7277324Y-13724460D01*
X7277324Y-13724460D02*
X7267801Y-13714936D01*
X7267801Y-13714936D02*
X7258277Y-13695888D01*
X7258277Y-13695888D02*
X7248753Y-13657793D01*
X7248753Y-13657793D02*
X7248753Y-13610174D01*
X7248753Y-13610174D02*
X7258277Y-13572079D01*
X7258277Y-13572079D02*
X7267801Y-13553031D01*
X7267801Y-13553031D02*
X7277324Y-13543508D01*
X7277324Y-13543508D02*
X7296372Y-13533984D01*
X7448753Y-13714936D02*
X7458277Y-13724460D01*
X7458277Y-13724460D02*
X7448753Y-13733984D01*
X7448753Y-13733984D02*
X7439229Y-13724460D01*
X7439229Y-13724460D02*
X7448753Y-13714936D01*
X7448753Y-13714936D02*
X7448753Y-13733984D01*
X7534467Y-13553031D02*
X7543991Y-13543508D01*
X7543991Y-13543508D02*
X7563039Y-13533984D01*
X7563039Y-13533984D02*
X7610658Y-13533984D01*
X7610658Y-13533984D02*
X7629705Y-13543508D01*
X7629705Y-13543508D02*
X7639229Y-13553031D01*
X7639229Y-13553031D02*
X7648753Y-13572079D01*
X7648753Y-13572079D02*
X7648753Y-13591127D01*
X7648753Y-13591127D02*
X7639229Y-13619698D01*
X7639229Y-13619698D02*
X7524943Y-13733984D01*
X7524943Y-13733984D02*
X7648753Y-13733984D01*
X7829705Y-13533984D02*
X7734467Y-13533984D01*
X7734467Y-13533984D02*
X7724943Y-13629222D01*
X7724943Y-13629222D02*
X7734467Y-13619698D01*
X7734467Y-13619698D02*
X7753515Y-13610174D01*
X7753515Y-13610174D02*
X7801134Y-13610174D01*
X7801134Y-13610174D02*
X7820182Y-13619698D01*
X7820182Y-13619698D02*
X7829705Y-13629222D01*
X7829705Y-13629222D02*
X7839229Y-13648269D01*
X7839229Y-13648269D02*
X7839229Y-13695888D01*
X7839229Y-13695888D02*
X7829705Y-13714936D01*
X7829705Y-13714936D02*
X7820182Y-13724460D01*
X7820182Y-13724460D02*
X7801134Y-13733984D01*
X7801134Y-13733984D02*
X7753515Y-13733984D01*
X7753515Y-13733984D02*
X7734467Y-13724460D01*
X7734467Y-13724460D02*
X7724943Y-13714936D01*
X8010658Y-13600650D02*
X8010658Y-13733984D01*
X7963039Y-13524460D02*
X7915420Y-13667317D01*
X7915420Y-13667317D02*
X8039229Y-13667317D01*
X8115420Y-13733984D02*
X8115420Y-13600650D01*
X8115420Y-13619698D02*
X8124943Y-13610174D01*
X8124943Y-13610174D02*
X8143991Y-13600650D01*
X8143991Y-13600650D02*
X8172563Y-13600650D01*
X8172563Y-13600650D02*
X8191610Y-13610174D01*
X8191610Y-13610174D02*
X8201134Y-13629222D01*
X8201134Y-13629222D02*
X8201134Y-13733984D01*
X8201134Y-13629222D02*
X8210658Y-13610174D01*
X8210658Y-13610174D02*
X8229705Y-13600650D01*
X8229705Y-13600650D02*
X8258277Y-13600650D01*
X8258277Y-13600650D02*
X8277324Y-13610174D01*
X8277324Y-13610174D02*
X8286848Y-13629222D01*
X8286848Y-13629222D02*
X8286848Y-13733984D01*
X8382086Y-13733984D02*
X8382086Y-13600650D01*
X8382086Y-13619698D02*
X8391610Y-13610174D01*
X8391610Y-13610174D02*
X8410658Y-13600650D01*
X8410658Y-13600650D02*
X8439229Y-13600650D01*
X8439229Y-13600650D02*
X8458277Y-13610174D01*
X8458277Y-13610174D02*
X8467801Y-13629222D01*
X8467801Y-13629222D02*
X8467801Y-13733984D01*
X8467801Y-13629222D02*
X8477325Y-13610174D01*
X8477325Y-13610174D02*
X8496372Y-13600650D01*
X8496372Y-13600650D02*
X8524944Y-13600650D01*
X8524944Y-13600650D02*
X8543991Y-13610174D01*
X8543991Y-13610174D02*
X8553515Y-13629222D01*
X8553515Y-13629222D02*
X8553515Y-13733984D01*
X8943991Y-13524460D02*
X8772563Y-13781603D01*
X9201134Y-13533984D02*
X9220182Y-13533984D01*
X9220182Y-13533984D02*
X9239229Y-13543508D01*
X9239229Y-13543508D02*
X9248753Y-13553031D01*
X9248753Y-13553031D02*
X9258277Y-13572079D01*
X9258277Y-13572079D02*
X9267801Y-13610174D01*
X9267801Y-13610174D02*
X9267801Y-13657793D01*
X9267801Y-13657793D02*
X9258277Y-13695888D01*
X9258277Y-13695888D02*
X9248753Y-13714936D01*
X9248753Y-13714936D02*
X9239229Y-13724460D01*
X9239229Y-13724460D02*
X9220182Y-13733984D01*
X9220182Y-13733984D02*
X9201134Y-13733984D01*
X9201134Y-13733984D02*
X9182087Y-13724460D01*
X9182087Y-13724460D02*
X9172563Y-13714936D01*
X9172563Y-13714936D02*
X9163039Y-13695888D01*
X9163039Y-13695888D02*
X9153515Y-13657793D01*
X9153515Y-13657793D02*
X9153515Y-13610174D01*
X9153515Y-13610174D02*
X9163039Y-13572079D01*
X9163039Y-13572079D02*
X9172563Y-13553031D01*
X9172563Y-13553031D02*
X9182087Y-13543508D01*
X9182087Y-13543508D02*
X9201134Y-13533984D01*
X9353515Y-13714936D02*
X9363039Y-13724460D01*
X9363039Y-13724460D02*
X9353515Y-13733984D01*
X9353515Y-13733984D02*
X9343991Y-13724460D01*
X9343991Y-13724460D02*
X9353515Y-13714936D01*
X9353515Y-13714936D02*
X9353515Y-13733984D01*
X9486848Y-13533984D02*
X9505896Y-13533984D01*
X9505896Y-13533984D02*
X9524944Y-13543508D01*
X9524944Y-13543508D02*
X9534468Y-13553031D01*
X9534468Y-13553031D02*
X9543991Y-13572079D01*
X9543991Y-13572079D02*
X9553515Y-13610174D01*
X9553515Y-13610174D02*
X9553515Y-13657793D01*
X9553515Y-13657793D02*
X9543991Y-13695888D01*
X9543991Y-13695888D02*
X9534468Y-13714936D01*
X9534468Y-13714936D02*
X9524944Y-13724460D01*
X9524944Y-13724460D02*
X9505896Y-13733984D01*
X9505896Y-13733984D02*
X9486848Y-13733984D01*
X9486848Y-13733984D02*
X9467801Y-13724460D01*
X9467801Y-13724460D02*
X9458277Y-13714936D01*
X9458277Y-13714936D02*
X9448753Y-13695888D01*
X9448753Y-13695888D02*
X9439229Y-13657793D01*
X9439229Y-13657793D02*
X9439229Y-13610174D01*
X9439229Y-13610174D02*
X9448753Y-13572079D01*
X9448753Y-13572079D02*
X9458277Y-13553031D01*
X9458277Y-13553031D02*
X9467801Y-13543508D01*
X9467801Y-13543508D02*
X9486848Y-13533984D01*
X9743991Y-13733984D02*
X9629706Y-13733984D01*
X9686848Y-13733984D02*
X9686848Y-13533984D01*
X9686848Y-13533984D02*
X9667801Y-13562555D01*
X9667801Y-13562555D02*
X9648753Y-13581603D01*
X9648753Y-13581603D02*
X9629706Y-13591127D01*
X9867801Y-13533984D02*
X9886849Y-13533984D01*
X9886849Y-13533984D02*
X9905896Y-13543508D01*
X9905896Y-13543508D02*
X9915420Y-13553031D01*
X9915420Y-13553031D02*
X9924944Y-13572079D01*
X9924944Y-13572079D02*
X9934468Y-13610174D01*
X9934468Y-13610174D02*
X9934468Y-13657793D01*
X9934468Y-13657793D02*
X9924944Y-13695888D01*
X9924944Y-13695888D02*
X9915420Y-13714936D01*
X9915420Y-13714936D02*
X9905896Y-13724460D01*
X9905896Y-13724460D02*
X9886849Y-13733984D01*
X9886849Y-13733984D02*
X9867801Y-13733984D01*
X9867801Y-13733984D02*
X9848753Y-13724460D01*
X9848753Y-13724460D02*
X9839229Y-13714936D01*
X9839229Y-13714936D02*
X9829706Y-13695888D01*
X9829706Y-13695888D02*
X9820182Y-13657793D01*
X9820182Y-13657793D02*
X9820182Y-13610174D01*
X9820182Y-13610174D02*
X9829706Y-13572079D01*
X9829706Y-13572079D02*
X9839229Y-13553031D01*
X9839229Y-13553031D02*
X9848753Y-13543508D01*
X9848753Y-13543508D02*
X9867801Y-13533984D01*
X10058277Y-13533984D02*
X10077325Y-13533984D01*
X10077325Y-13533984D02*
X10096372Y-13543508D01*
X10096372Y-13543508D02*
X10105896Y-13553031D01*
X10105896Y-13553031D02*
X10115420Y-13572079D01*
X10115420Y-13572079D02*
X10124944Y-13610174D01*
X10124944Y-13610174D02*
X10124944Y-13657793D01*
X10124944Y-13657793D02*
X10115420Y-13695888D01*
X10115420Y-13695888D02*
X10105896Y-13714936D01*
X10105896Y-13714936D02*
X10096372Y-13724460D01*
X10096372Y-13724460D02*
X10077325Y-13733984D01*
X10077325Y-13733984D02*
X10058277Y-13733984D01*
X10058277Y-13733984D02*
X10039229Y-13724460D01*
X10039229Y-13724460D02*
X10029706Y-13714936D01*
X10029706Y-13714936D02*
X10020182Y-13695888D01*
X10020182Y-13695888D02*
X10010658Y-13657793D01*
X10010658Y-13657793D02*
X10010658Y-13610174D01*
X10010658Y-13610174D02*
X10020182Y-13572079D01*
X10020182Y-13572079D02*
X10029706Y-13553031D01*
X10029706Y-13553031D02*
X10039229Y-13543508D01*
X10039229Y-13543508D02*
X10058277Y-13533984D01*
X10201134Y-13533984D02*
X10201134Y-13572079D01*
X10277325Y-13533984D02*
X10277325Y-13572079D01*
X10572563Y-13810174D02*
X10563039Y-13800650D01*
X10563039Y-13800650D02*
X10543991Y-13772079D01*
X10543991Y-13772079D02*
X10534468Y-13753031D01*
X10534468Y-13753031D02*
X10524944Y-13724460D01*
X10524944Y-13724460D02*
X10515420Y-13676841D01*
X10515420Y-13676841D02*
X10515420Y-13638746D01*
X10515420Y-13638746D02*
X10524944Y-13591127D01*
X10524944Y-13591127D02*
X10534468Y-13562555D01*
X10534468Y-13562555D02*
X10543991Y-13543508D01*
X10543991Y-13543508D02*
X10563039Y-13514936D01*
X10563039Y-13514936D02*
X10572563Y-13505412D01*
X10639230Y-13553031D02*
X10648753Y-13543508D01*
X10648753Y-13543508D02*
X10667801Y-13533984D01*
X10667801Y-13533984D02*
X10715420Y-13533984D01*
X10715420Y-13533984D02*
X10734468Y-13543508D01*
X10734468Y-13543508D02*
X10743991Y-13553031D01*
X10743991Y-13553031D02*
X10753515Y-13572079D01*
X10753515Y-13572079D02*
X10753515Y-13591127D01*
X10753515Y-13591127D02*
X10743991Y-13619698D01*
X10743991Y-13619698D02*
X10629706Y-13733984D01*
X10629706Y-13733984D02*
X10753515Y-13733984D01*
X10820182Y-13533984D02*
X10953515Y-13533984D01*
X10953515Y-13533984D02*
X10867801Y-13733984D01*
X11115420Y-13533984D02*
X11077325Y-13533984D01*
X11077325Y-13533984D02*
X11058277Y-13543508D01*
X11058277Y-13543508D02*
X11048753Y-13553031D01*
X11048753Y-13553031D02*
X11029706Y-13581603D01*
X11029706Y-13581603D02*
X11020182Y-13619698D01*
X11020182Y-13619698D02*
X11020182Y-13695888D01*
X11020182Y-13695888D02*
X11029706Y-13714936D01*
X11029706Y-13714936D02*
X11039230Y-13724460D01*
X11039230Y-13724460D02*
X11058277Y-13733984D01*
X11058277Y-13733984D02*
X11096372Y-13733984D01*
X11096372Y-13733984D02*
X11115420Y-13724460D01*
X11115420Y-13724460D02*
X11124944Y-13714936D01*
X11124944Y-13714936D02*
X11134468Y-13695888D01*
X11134468Y-13695888D02*
X11134468Y-13648269D01*
X11134468Y-13648269D02*
X11124944Y-13629222D01*
X11124944Y-13629222D02*
X11115420Y-13619698D01*
X11115420Y-13619698D02*
X11096372Y-13610174D01*
X11096372Y-13610174D02*
X11058277Y-13610174D01*
X11058277Y-13610174D02*
X11039230Y-13619698D01*
X11039230Y-13619698D02*
X11029706Y-13629222D01*
X11029706Y-13629222D02*
X11020182Y-13648269D01*
X11372563Y-13733984D02*
X11372563Y-13533984D01*
X11458277Y-13733984D02*
X11458277Y-13629222D01*
X11458277Y-13629222D02*
X11448753Y-13610174D01*
X11448753Y-13610174D02*
X11429706Y-13600650D01*
X11429706Y-13600650D02*
X11401134Y-13600650D01*
X11401134Y-13600650D02*
X11382087Y-13610174D01*
X11382087Y-13610174D02*
X11372563Y-13619698D01*
X11582087Y-13733984D02*
X11563039Y-13724460D01*
X11563039Y-13724460D02*
X11553515Y-13714936D01*
X11553515Y-13714936D02*
X11543991Y-13695888D01*
X11543991Y-13695888D02*
X11543991Y-13638746D01*
X11543991Y-13638746D02*
X11553515Y-13619698D01*
X11553515Y-13619698D02*
X11563039Y-13610174D01*
X11563039Y-13610174D02*
X11582087Y-13600650D01*
X11582087Y-13600650D02*
X11610658Y-13600650D01*
X11610658Y-13600650D02*
X11629706Y-13610174D01*
X11629706Y-13610174D02*
X11639230Y-13619698D01*
X11639230Y-13619698D02*
X11648753Y-13638746D01*
X11648753Y-13638746D02*
X11648753Y-13695888D01*
X11648753Y-13695888D02*
X11639230Y-13714936D01*
X11639230Y-13714936D02*
X11629706Y-13724460D01*
X11629706Y-13724460D02*
X11610658Y-13733984D01*
X11610658Y-13733984D02*
X11582087Y-13733984D01*
X11763039Y-13733984D02*
X11743991Y-13724460D01*
X11743991Y-13724460D02*
X11734468Y-13705412D01*
X11734468Y-13705412D02*
X11734468Y-13533984D01*
X11915420Y-13724460D02*
X11896372Y-13733984D01*
X11896372Y-13733984D02*
X11858277Y-13733984D01*
X11858277Y-13733984D02*
X11839230Y-13724460D01*
X11839230Y-13724460D02*
X11829706Y-13705412D01*
X11829706Y-13705412D02*
X11829706Y-13629222D01*
X11829706Y-13629222D02*
X11839230Y-13610174D01*
X11839230Y-13610174D02*
X11858277Y-13600650D01*
X11858277Y-13600650D02*
X11896372Y-13600650D01*
X11896372Y-13600650D02*
X11915420Y-13610174D01*
X11915420Y-13610174D02*
X11924944Y-13629222D01*
X11924944Y-13629222D02*
X11924944Y-13648269D01*
X11924944Y-13648269D02*
X11829706Y-13667317D01*
X12001134Y-13724460D02*
X12020182Y-13733984D01*
X12020182Y-13733984D02*
X12058277Y-13733984D01*
X12058277Y-13733984D02*
X12077325Y-13724460D01*
X12077325Y-13724460D02*
X12086849Y-13705412D01*
X12086849Y-13705412D02*
X12086849Y-13695888D01*
X12086849Y-13695888D02*
X12077325Y-13676841D01*
X12077325Y-13676841D02*
X12058277Y-13667317D01*
X12058277Y-13667317D02*
X12029706Y-13667317D01*
X12029706Y-13667317D02*
X12010658Y-13657793D01*
X12010658Y-13657793D02*
X12001134Y-13638746D01*
X12001134Y-13638746D02*
X12001134Y-13629222D01*
X12001134Y-13629222D02*
X12010658Y-13610174D01*
X12010658Y-13610174D02*
X12029706Y-13600650D01*
X12029706Y-13600650D02*
X12058277Y-13600650D01*
X12058277Y-13600650D02*
X12077325Y-13610174D01*
X12153515Y-13810174D02*
X12163039Y-13800650D01*
X12163039Y-13800650D02*
X12182087Y-13772079D01*
X12182087Y-13772079D02*
X12191611Y-13753031D01*
X12191611Y-13753031D02*
X12201134Y-13724460D01*
X12201134Y-13724460D02*
X12210658Y-13676841D01*
X12210658Y-13676841D02*
X12210658Y-13638746D01*
X12210658Y-13638746D02*
X12201134Y-13591127D01*
X12201134Y-13591127D02*
X12191611Y-13562555D01*
X12191611Y-13562555D02*
X12182087Y-13543508D01*
X12182087Y-13543508D02*
X12163039Y-13514936D01*
X12163039Y-13514936D02*
X12153515Y-13505412D01*
D12*
X6997500Y-13906500D02*
G75*
G02*
X6906060Y-13906500I-45720J0D01*
G01*
X6906060Y-13906500D02*
G75*
G02*
X6997500Y-13906500I45720J0D01*
G01*
D11*
X7296372Y-13797984D02*
X7315420Y-13797984D01*
X7315420Y-13797984D02*
X7334467Y-13807508D01*
X7334467Y-13807508D02*
X7343991Y-13817031D01*
X7343991Y-13817031D02*
X7353515Y-13836079D01*
X7353515Y-13836079D02*
X7363039Y-13874174D01*
X7363039Y-13874174D02*
X7363039Y-13921793D01*
X7363039Y-13921793D02*
X7353515Y-13959888D01*
X7353515Y-13959888D02*
X7343991Y-13978936D01*
X7343991Y-13978936D02*
X7334467Y-13988460D01*
X7334467Y-13988460D02*
X7315420Y-13997984D01*
X7315420Y-13997984D02*
X7296372Y-13997984D01*
X7296372Y-13997984D02*
X7277324Y-13988460D01*
X7277324Y-13988460D02*
X7267801Y-13978936D01*
X7267801Y-13978936D02*
X7258277Y-13959888D01*
X7258277Y-13959888D02*
X7248753Y-13921793D01*
X7248753Y-13921793D02*
X7248753Y-13874174D01*
X7248753Y-13874174D02*
X7258277Y-13836079D01*
X7258277Y-13836079D02*
X7267801Y-13817031D01*
X7267801Y-13817031D02*
X7277324Y-13807508D01*
X7277324Y-13807508D02*
X7296372Y-13797984D01*
X7448753Y-13978936D02*
X7458277Y-13988460D01*
X7458277Y-13988460D02*
X7448753Y-13997984D01*
X7448753Y-13997984D02*
X7439229Y-13988460D01*
X7439229Y-13988460D02*
X7448753Y-13978936D01*
X7448753Y-13978936D02*
X7448753Y-13997984D01*
X7553515Y-13997984D02*
X7591610Y-13997984D01*
X7591610Y-13997984D02*
X7610658Y-13988460D01*
X7610658Y-13988460D02*
X7620182Y-13978936D01*
X7620182Y-13978936D02*
X7639229Y-13950365D01*
X7639229Y-13950365D02*
X7648753Y-13912269D01*
X7648753Y-13912269D02*
X7648753Y-13836079D01*
X7648753Y-13836079D02*
X7639229Y-13817031D01*
X7639229Y-13817031D02*
X7629705Y-13807508D01*
X7629705Y-13807508D02*
X7610658Y-13797984D01*
X7610658Y-13797984D02*
X7572562Y-13797984D01*
X7572562Y-13797984D02*
X7553515Y-13807508D01*
X7553515Y-13807508D02*
X7543991Y-13817031D01*
X7543991Y-13817031D02*
X7534467Y-13836079D01*
X7534467Y-13836079D02*
X7534467Y-13883698D01*
X7534467Y-13883698D02*
X7543991Y-13902746D01*
X7543991Y-13902746D02*
X7553515Y-13912269D01*
X7553515Y-13912269D02*
X7572562Y-13921793D01*
X7572562Y-13921793D02*
X7610658Y-13921793D01*
X7610658Y-13921793D02*
X7629705Y-13912269D01*
X7629705Y-13912269D02*
X7639229Y-13902746D01*
X7639229Y-13902746D02*
X7648753Y-13883698D01*
X7839229Y-13997984D02*
X7724943Y-13997984D01*
X7782086Y-13997984D02*
X7782086Y-13797984D01*
X7782086Y-13797984D02*
X7763039Y-13826555D01*
X7763039Y-13826555D02*
X7743991Y-13845603D01*
X7743991Y-13845603D02*
X7724943Y-13855127D01*
X8010658Y-13864650D02*
X8010658Y-13997984D01*
X7963039Y-13788460D02*
X7915420Y-13931317D01*
X7915420Y-13931317D02*
X8039229Y-13931317D01*
X8115420Y-13997984D02*
X8115420Y-13864650D01*
X8115420Y-13883698D02*
X8124943Y-13874174D01*
X8124943Y-13874174D02*
X8143991Y-13864650D01*
X8143991Y-13864650D02*
X8172563Y-13864650D01*
X8172563Y-13864650D02*
X8191610Y-13874174D01*
X8191610Y-13874174D02*
X8201134Y-13893222D01*
X8201134Y-13893222D02*
X8201134Y-13997984D01*
X8201134Y-13893222D02*
X8210658Y-13874174D01*
X8210658Y-13874174D02*
X8229705Y-13864650D01*
X8229705Y-13864650D02*
X8258277Y-13864650D01*
X8258277Y-13864650D02*
X8277324Y-13874174D01*
X8277324Y-13874174D02*
X8286848Y-13893222D01*
X8286848Y-13893222D02*
X8286848Y-13997984D01*
X8382086Y-13997984D02*
X8382086Y-13864650D01*
X8382086Y-13883698D02*
X8391610Y-13874174D01*
X8391610Y-13874174D02*
X8410658Y-13864650D01*
X8410658Y-13864650D02*
X8439229Y-13864650D01*
X8439229Y-13864650D02*
X8458277Y-13874174D01*
X8458277Y-13874174D02*
X8467801Y-13893222D01*
X8467801Y-13893222D02*
X8467801Y-13997984D01*
X8467801Y-13893222D02*
X8477325Y-13874174D01*
X8477325Y-13874174D02*
X8496372Y-13864650D01*
X8496372Y-13864650D02*
X8524944Y-13864650D01*
X8524944Y-13864650D02*
X8543991Y-13874174D01*
X8543991Y-13874174D02*
X8553515Y-13893222D01*
X8553515Y-13893222D02*
X8553515Y-13997984D01*
X8943991Y-13788460D02*
X8772563Y-14045603D01*
X9201134Y-13797984D02*
X9220182Y-13797984D01*
X9220182Y-13797984D02*
X9239229Y-13807508D01*
X9239229Y-13807508D02*
X9248753Y-13817031D01*
X9248753Y-13817031D02*
X9258277Y-13836079D01*
X9258277Y-13836079D02*
X9267801Y-13874174D01*
X9267801Y-13874174D02*
X9267801Y-13921793D01*
X9267801Y-13921793D02*
X9258277Y-13959888D01*
X9258277Y-13959888D02*
X9248753Y-13978936D01*
X9248753Y-13978936D02*
X9239229Y-13988460D01*
X9239229Y-13988460D02*
X9220182Y-13997984D01*
X9220182Y-13997984D02*
X9201134Y-13997984D01*
X9201134Y-13997984D02*
X9182087Y-13988460D01*
X9182087Y-13988460D02*
X9172563Y-13978936D01*
X9172563Y-13978936D02*
X9163039Y-13959888D01*
X9163039Y-13959888D02*
X9153515Y-13921793D01*
X9153515Y-13921793D02*
X9153515Y-13874174D01*
X9153515Y-13874174D02*
X9163039Y-13836079D01*
X9163039Y-13836079D02*
X9172563Y-13817031D01*
X9172563Y-13817031D02*
X9182087Y-13807508D01*
X9182087Y-13807508D02*
X9201134Y-13797984D01*
X9353515Y-13978936D02*
X9363039Y-13988460D01*
X9363039Y-13988460D02*
X9353515Y-13997984D01*
X9353515Y-13997984D02*
X9343991Y-13988460D01*
X9343991Y-13988460D02*
X9353515Y-13978936D01*
X9353515Y-13978936D02*
X9353515Y-13997984D01*
X9486848Y-13797984D02*
X9505896Y-13797984D01*
X9505896Y-13797984D02*
X9524944Y-13807508D01*
X9524944Y-13807508D02*
X9534468Y-13817031D01*
X9534468Y-13817031D02*
X9543991Y-13836079D01*
X9543991Y-13836079D02*
X9553515Y-13874174D01*
X9553515Y-13874174D02*
X9553515Y-13921793D01*
X9553515Y-13921793D02*
X9543991Y-13959888D01*
X9543991Y-13959888D02*
X9534468Y-13978936D01*
X9534468Y-13978936D02*
X9524944Y-13988460D01*
X9524944Y-13988460D02*
X9505896Y-13997984D01*
X9505896Y-13997984D02*
X9486848Y-13997984D01*
X9486848Y-13997984D02*
X9467801Y-13988460D01*
X9467801Y-13988460D02*
X9458277Y-13978936D01*
X9458277Y-13978936D02*
X9448753Y-13959888D01*
X9448753Y-13959888D02*
X9439229Y-13921793D01*
X9439229Y-13921793D02*
X9439229Y-13874174D01*
X9439229Y-13874174D02*
X9448753Y-13836079D01*
X9448753Y-13836079D02*
X9458277Y-13817031D01*
X9458277Y-13817031D02*
X9467801Y-13807508D01*
X9467801Y-13807508D02*
X9486848Y-13797984D01*
X9620182Y-13797984D02*
X9743991Y-13797984D01*
X9743991Y-13797984D02*
X9677325Y-13874174D01*
X9677325Y-13874174D02*
X9705896Y-13874174D01*
X9705896Y-13874174D02*
X9724944Y-13883698D01*
X9724944Y-13883698D02*
X9734468Y-13893222D01*
X9734468Y-13893222D02*
X9743991Y-13912269D01*
X9743991Y-13912269D02*
X9743991Y-13959888D01*
X9743991Y-13959888D02*
X9734468Y-13978936D01*
X9734468Y-13978936D02*
X9724944Y-13988460D01*
X9724944Y-13988460D02*
X9705896Y-13997984D01*
X9705896Y-13997984D02*
X9648753Y-13997984D01*
X9648753Y-13997984D02*
X9629706Y-13988460D01*
X9629706Y-13988460D02*
X9620182Y-13978936D01*
X9915420Y-13797984D02*
X9877325Y-13797984D01*
X9877325Y-13797984D02*
X9858277Y-13807508D01*
X9858277Y-13807508D02*
X9848753Y-13817031D01*
X9848753Y-13817031D02*
X9829706Y-13845603D01*
X9829706Y-13845603D02*
X9820182Y-13883698D01*
X9820182Y-13883698D02*
X9820182Y-13959888D01*
X9820182Y-13959888D02*
X9829706Y-13978936D01*
X9829706Y-13978936D02*
X9839229Y-13988460D01*
X9839229Y-13988460D02*
X9858277Y-13997984D01*
X9858277Y-13997984D02*
X9896372Y-13997984D01*
X9896372Y-13997984D02*
X9915420Y-13988460D01*
X9915420Y-13988460D02*
X9924944Y-13978936D01*
X9924944Y-13978936D02*
X9934468Y-13959888D01*
X9934468Y-13959888D02*
X9934468Y-13912269D01*
X9934468Y-13912269D02*
X9924944Y-13893222D01*
X9924944Y-13893222D02*
X9915420Y-13883698D01*
X9915420Y-13883698D02*
X9896372Y-13874174D01*
X9896372Y-13874174D02*
X9858277Y-13874174D01*
X9858277Y-13874174D02*
X9839229Y-13883698D01*
X9839229Y-13883698D02*
X9829706Y-13893222D01*
X9829706Y-13893222D02*
X9820182Y-13912269D01*
X10058277Y-13797984D02*
X10077325Y-13797984D01*
X10077325Y-13797984D02*
X10096372Y-13807508D01*
X10096372Y-13807508D02*
X10105896Y-13817031D01*
X10105896Y-13817031D02*
X10115420Y-13836079D01*
X10115420Y-13836079D02*
X10124944Y-13874174D01*
X10124944Y-13874174D02*
X10124944Y-13921793D01*
X10124944Y-13921793D02*
X10115420Y-13959888D01*
X10115420Y-13959888D02*
X10105896Y-13978936D01*
X10105896Y-13978936D02*
X10096372Y-13988460D01*
X10096372Y-13988460D02*
X10077325Y-13997984D01*
X10077325Y-13997984D02*
X10058277Y-13997984D01*
X10058277Y-13997984D02*
X10039229Y-13988460D01*
X10039229Y-13988460D02*
X10029706Y-13978936D01*
X10029706Y-13978936D02*
X10020182Y-13959888D01*
X10020182Y-13959888D02*
X10010658Y-13921793D01*
X10010658Y-13921793D02*
X10010658Y-13874174D01*
X10010658Y-13874174D02*
X10020182Y-13836079D01*
X10020182Y-13836079D02*
X10029706Y-13817031D01*
X10029706Y-13817031D02*
X10039229Y-13807508D01*
X10039229Y-13807508D02*
X10058277Y-13797984D01*
X10201134Y-13797984D02*
X10201134Y-13836079D01*
X10277325Y-13797984D02*
X10277325Y-13836079D01*
X10572563Y-14074174D02*
X10563039Y-14064650D01*
X10563039Y-14064650D02*
X10543991Y-14036079D01*
X10543991Y-14036079D02*
X10534468Y-14017031D01*
X10534468Y-14017031D02*
X10524944Y-13988460D01*
X10524944Y-13988460D02*
X10515420Y-13940841D01*
X10515420Y-13940841D02*
X10515420Y-13902746D01*
X10515420Y-13902746D02*
X10524944Y-13855127D01*
X10524944Y-13855127D02*
X10534468Y-13826555D01*
X10534468Y-13826555D02*
X10543991Y-13807508D01*
X10543991Y-13807508D02*
X10563039Y-13778936D01*
X10563039Y-13778936D02*
X10572563Y-13769412D01*
X10639230Y-13817031D02*
X10648753Y-13807508D01*
X10648753Y-13807508D02*
X10667801Y-13797984D01*
X10667801Y-13797984D02*
X10715420Y-13797984D01*
X10715420Y-13797984D02*
X10734468Y-13807508D01*
X10734468Y-13807508D02*
X10743991Y-13817031D01*
X10743991Y-13817031D02*
X10753515Y-13836079D01*
X10753515Y-13836079D02*
X10753515Y-13855127D01*
X10753515Y-13855127D02*
X10743991Y-13883698D01*
X10743991Y-13883698D02*
X10629706Y-13997984D01*
X10629706Y-13997984D02*
X10753515Y-13997984D01*
X10867801Y-13883698D02*
X10848753Y-13874174D01*
X10848753Y-13874174D02*
X10839230Y-13864650D01*
X10839230Y-13864650D02*
X10829706Y-13845603D01*
X10829706Y-13845603D02*
X10829706Y-13836079D01*
X10829706Y-13836079D02*
X10839230Y-13817031D01*
X10839230Y-13817031D02*
X10848753Y-13807508D01*
X10848753Y-13807508D02*
X10867801Y-13797984D01*
X10867801Y-13797984D02*
X10905896Y-13797984D01*
X10905896Y-13797984D02*
X10924944Y-13807508D01*
X10924944Y-13807508D02*
X10934468Y-13817031D01*
X10934468Y-13817031D02*
X10943991Y-13836079D01*
X10943991Y-13836079D02*
X10943991Y-13845603D01*
X10943991Y-13845603D02*
X10934468Y-13864650D01*
X10934468Y-13864650D02*
X10924944Y-13874174D01*
X10924944Y-13874174D02*
X10905896Y-13883698D01*
X10905896Y-13883698D02*
X10867801Y-13883698D01*
X10867801Y-13883698D02*
X10848753Y-13893222D01*
X10848753Y-13893222D02*
X10839230Y-13902746D01*
X10839230Y-13902746D02*
X10829706Y-13921793D01*
X10829706Y-13921793D02*
X10829706Y-13959888D01*
X10829706Y-13959888D02*
X10839230Y-13978936D01*
X10839230Y-13978936D02*
X10848753Y-13988460D01*
X10848753Y-13988460D02*
X10867801Y-13997984D01*
X10867801Y-13997984D02*
X10905896Y-13997984D01*
X10905896Y-13997984D02*
X10924944Y-13988460D01*
X10924944Y-13988460D02*
X10934468Y-13978936D01*
X10934468Y-13978936D02*
X10943991Y-13959888D01*
X10943991Y-13959888D02*
X10943991Y-13921793D01*
X10943991Y-13921793D02*
X10934468Y-13902746D01*
X10934468Y-13902746D02*
X10924944Y-13893222D01*
X10924944Y-13893222D02*
X10905896Y-13883698D01*
X11182087Y-13997984D02*
X11182087Y-13797984D01*
X11267801Y-13997984D02*
X11267801Y-13893222D01*
X11267801Y-13893222D02*
X11258277Y-13874174D01*
X11258277Y-13874174D02*
X11239230Y-13864650D01*
X11239230Y-13864650D02*
X11210658Y-13864650D01*
X11210658Y-13864650D02*
X11191610Y-13874174D01*
X11191610Y-13874174D02*
X11182087Y-13883698D01*
X11391610Y-13997984D02*
X11372563Y-13988460D01*
X11372563Y-13988460D02*
X11363039Y-13978936D01*
X11363039Y-13978936D02*
X11353515Y-13959888D01*
X11353515Y-13959888D02*
X11353515Y-13902746D01*
X11353515Y-13902746D02*
X11363039Y-13883698D01*
X11363039Y-13883698D02*
X11372563Y-13874174D01*
X11372563Y-13874174D02*
X11391610Y-13864650D01*
X11391610Y-13864650D02*
X11420182Y-13864650D01*
X11420182Y-13864650D02*
X11439230Y-13874174D01*
X11439230Y-13874174D02*
X11448753Y-13883698D01*
X11448753Y-13883698D02*
X11458277Y-13902746D01*
X11458277Y-13902746D02*
X11458277Y-13959888D01*
X11458277Y-13959888D02*
X11448753Y-13978936D01*
X11448753Y-13978936D02*
X11439230Y-13988460D01*
X11439230Y-13988460D02*
X11420182Y-13997984D01*
X11420182Y-13997984D02*
X11391610Y-13997984D01*
X11572563Y-13997984D02*
X11553515Y-13988460D01*
X11553515Y-13988460D02*
X11543991Y-13969412D01*
X11543991Y-13969412D02*
X11543991Y-13797984D01*
X11724944Y-13988460D02*
X11705896Y-13997984D01*
X11705896Y-13997984D02*
X11667801Y-13997984D01*
X11667801Y-13997984D02*
X11648753Y-13988460D01*
X11648753Y-13988460D02*
X11639230Y-13969412D01*
X11639230Y-13969412D02*
X11639230Y-13893222D01*
X11639230Y-13893222D02*
X11648753Y-13874174D01*
X11648753Y-13874174D02*
X11667801Y-13864650D01*
X11667801Y-13864650D02*
X11705896Y-13864650D01*
X11705896Y-13864650D02*
X11724944Y-13874174D01*
X11724944Y-13874174D02*
X11734468Y-13893222D01*
X11734468Y-13893222D02*
X11734468Y-13912269D01*
X11734468Y-13912269D02*
X11639230Y-13931317D01*
X11810658Y-13988460D02*
X11829706Y-13997984D01*
X11829706Y-13997984D02*
X11867801Y-13997984D01*
X11867801Y-13997984D02*
X11886849Y-13988460D01*
X11886849Y-13988460D02*
X11896372Y-13969412D01*
X11896372Y-13969412D02*
X11896372Y-13959888D01*
X11896372Y-13959888D02*
X11886849Y-13940841D01*
X11886849Y-13940841D02*
X11867801Y-13931317D01*
X11867801Y-13931317D02*
X11839230Y-13931317D01*
X11839230Y-13931317D02*
X11820182Y-13921793D01*
X11820182Y-13921793D02*
X11810658Y-13902746D01*
X11810658Y-13902746D02*
X11810658Y-13893222D01*
X11810658Y-13893222D02*
X11820182Y-13874174D01*
X11820182Y-13874174D02*
X11839230Y-13864650D01*
X11839230Y-13864650D02*
X11867801Y-13864650D01*
X11867801Y-13864650D02*
X11886849Y-13874174D01*
X11963039Y-14074174D02*
X11972563Y-14064650D01*
X11972563Y-14064650D02*
X11991611Y-14036079D01*
X11991611Y-14036079D02*
X12001134Y-14017031D01*
X12001134Y-14017031D02*
X12010658Y-13988460D01*
X12010658Y-13988460D02*
X12020182Y-13940841D01*
X12020182Y-13940841D02*
X12020182Y-13902746D01*
X12020182Y-13902746D02*
X12010658Y-13855127D01*
X12010658Y-13855127D02*
X12001134Y-13826555D01*
X12001134Y-13826555D02*
X11991611Y-13807508D01*
X11991611Y-13807508D02*
X11972563Y-13778936D01*
X11972563Y-13778936D02*
X11963039Y-13769412D01*
X6897500Y-14070500D02*
X6897500Y-14270500D01*
X6797500Y-14170500D02*
X6997500Y-14170500D01*
X7248753Y-14081031D02*
X7258277Y-14071508D01*
X7258277Y-14071508D02*
X7277324Y-14061984D01*
X7277324Y-14061984D02*
X7324943Y-14061984D01*
X7324943Y-14061984D02*
X7343991Y-14071508D01*
X7343991Y-14071508D02*
X7353515Y-14081031D01*
X7353515Y-14081031D02*
X7363039Y-14100079D01*
X7363039Y-14100079D02*
X7363039Y-14119127D01*
X7363039Y-14119127D02*
X7353515Y-14147698D01*
X7353515Y-14147698D02*
X7239229Y-14261984D01*
X7239229Y-14261984D02*
X7363039Y-14261984D01*
X7448753Y-14242936D02*
X7458277Y-14252460D01*
X7458277Y-14252460D02*
X7448753Y-14261984D01*
X7448753Y-14261984D02*
X7439229Y-14252460D01*
X7439229Y-14252460D02*
X7448753Y-14242936D01*
X7448753Y-14242936D02*
X7448753Y-14261984D01*
X7639229Y-14061984D02*
X7543991Y-14061984D01*
X7543991Y-14061984D02*
X7534467Y-14157222D01*
X7534467Y-14157222D02*
X7543991Y-14147698D01*
X7543991Y-14147698D02*
X7563039Y-14138174D01*
X7563039Y-14138174D02*
X7610658Y-14138174D01*
X7610658Y-14138174D02*
X7629705Y-14147698D01*
X7629705Y-14147698D02*
X7639229Y-14157222D01*
X7639229Y-14157222D02*
X7648753Y-14176269D01*
X7648753Y-14176269D02*
X7648753Y-14223888D01*
X7648753Y-14223888D02*
X7639229Y-14242936D01*
X7639229Y-14242936D02*
X7629705Y-14252460D01*
X7629705Y-14252460D02*
X7610658Y-14261984D01*
X7610658Y-14261984D02*
X7563039Y-14261984D01*
X7563039Y-14261984D02*
X7543991Y-14252460D01*
X7543991Y-14252460D02*
X7534467Y-14242936D01*
X7820182Y-14128650D02*
X7820182Y-14261984D01*
X7772562Y-14052460D02*
X7724943Y-14195317D01*
X7724943Y-14195317D02*
X7848753Y-14195317D01*
X7963039Y-14061984D02*
X7982086Y-14061984D01*
X7982086Y-14061984D02*
X8001134Y-14071508D01*
X8001134Y-14071508D02*
X8010658Y-14081031D01*
X8010658Y-14081031D02*
X8020182Y-14100079D01*
X8020182Y-14100079D02*
X8029705Y-14138174D01*
X8029705Y-14138174D02*
X8029705Y-14185793D01*
X8029705Y-14185793D02*
X8020182Y-14223888D01*
X8020182Y-14223888D02*
X8010658Y-14242936D01*
X8010658Y-14242936D02*
X8001134Y-14252460D01*
X8001134Y-14252460D02*
X7982086Y-14261984D01*
X7982086Y-14261984D02*
X7963039Y-14261984D01*
X7963039Y-14261984D02*
X7943991Y-14252460D01*
X7943991Y-14252460D02*
X7934467Y-14242936D01*
X7934467Y-14242936D02*
X7924943Y-14223888D01*
X7924943Y-14223888D02*
X7915420Y-14185793D01*
X7915420Y-14185793D02*
X7915420Y-14138174D01*
X7915420Y-14138174D02*
X7924943Y-14100079D01*
X7924943Y-14100079D02*
X7934467Y-14081031D01*
X7934467Y-14081031D02*
X7943991Y-14071508D01*
X7943991Y-14071508D02*
X7963039Y-14061984D01*
X8115420Y-14261984D02*
X8115420Y-14128650D01*
X8115420Y-14147698D02*
X8124943Y-14138174D01*
X8124943Y-14138174D02*
X8143991Y-14128650D01*
X8143991Y-14128650D02*
X8172563Y-14128650D01*
X8172563Y-14128650D02*
X8191610Y-14138174D01*
X8191610Y-14138174D02*
X8201134Y-14157222D01*
X8201134Y-14157222D02*
X8201134Y-14261984D01*
X8201134Y-14157222D02*
X8210658Y-14138174D01*
X8210658Y-14138174D02*
X8229705Y-14128650D01*
X8229705Y-14128650D02*
X8258277Y-14128650D01*
X8258277Y-14128650D02*
X8277324Y-14138174D01*
X8277324Y-14138174D02*
X8286848Y-14157222D01*
X8286848Y-14157222D02*
X8286848Y-14261984D01*
X8382086Y-14261984D02*
X8382086Y-14128650D01*
X8382086Y-14147698D02*
X8391610Y-14138174D01*
X8391610Y-14138174D02*
X8410658Y-14128650D01*
X8410658Y-14128650D02*
X8439229Y-14128650D01*
X8439229Y-14128650D02*
X8458277Y-14138174D01*
X8458277Y-14138174D02*
X8467801Y-14157222D01*
X8467801Y-14157222D02*
X8467801Y-14261984D01*
X8467801Y-14157222D02*
X8477325Y-14138174D01*
X8477325Y-14138174D02*
X8496372Y-14128650D01*
X8496372Y-14128650D02*
X8524944Y-14128650D01*
X8524944Y-14128650D02*
X8543991Y-14138174D01*
X8543991Y-14138174D02*
X8553515Y-14157222D01*
X8553515Y-14157222D02*
X8553515Y-14261984D01*
X8943991Y-14052460D02*
X8772563Y-14309603D01*
X9201134Y-14061984D02*
X9220182Y-14061984D01*
X9220182Y-14061984D02*
X9239229Y-14071508D01*
X9239229Y-14071508D02*
X9248753Y-14081031D01*
X9248753Y-14081031D02*
X9258277Y-14100079D01*
X9258277Y-14100079D02*
X9267801Y-14138174D01*
X9267801Y-14138174D02*
X9267801Y-14185793D01*
X9267801Y-14185793D02*
X9258277Y-14223888D01*
X9258277Y-14223888D02*
X9248753Y-14242936D01*
X9248753Y-14242936D02*
X9239229Y-14252460D01*
X9239229Y-14252460D02*
X9220182Y-14261984D01*
X9220182Y-14261984D02*
X9201134Y-14261984D01*
X9201134Y-14261984D02*
X9182087Y-14252460D01*
X9182087Y-14252460D02*
X9172563Y-14242936D01*
X9172563Y-14242936D02*
X9163039Y-14223888D01*
X9163039Y-14223888D02*
X9153515Y-14185793D01*
X9153515Y-14185793D02*
X9153515Y-14138174D01*
X9153515Y-14138174D02*
X9163039Y-14100079D01*
X9163039Y-14100079D02*
X9172563Y-14081031D01*
X9172563Y-14081031D02*
X9182087Y-14071508D01*
X9182087Y-14071508D02*
X9201134Y-14061984D01*
X9353515Y-14242936D02*
X9363039Y-14252460D01*
X9363039Y-14252460D02*
X9353515Y-14261984D01*
X9353515Y-14261984D02*
X9343991Y-14252460D01*
X9343991Y-14252460D02*
X9353515Y-14242936D01*
X9353515Y-14242936D02*
X9353515Y-14261984D01*
X9553515Y-14261984D02*
X9439229Y-14261984D01*
X9496372Y-14261984D02*
X9496372Y-14061984D01*
X9496372Y-14061984D02*
X9477325Y-14090555D01*
X9477325Y-14090555D02*
X9458277Y-14109603D01*
X9458277Y-14109603D02*
X9439229Y-14119127D01*
X9677325Y-14061984D02*
X9696372Y-14061984D01*
X9696372Y-14061984D02*
X9715420Y-14071508D01*
X9715420Y-14071508D02*
X9724944Y-14081031D01*
X9724944Y-14081031D02*
X9734468Y-14100079D01*
X9734468Y-14100079D02*
X9743991Y-14138174D01*
X9743991Y-14138174D02*
X9743991Y-14185793D01*
X9743991Y-14185793D02*
X9734468Y-14223888D01*
X9734468Y-14223888D02*
X9724944Y-14242936D01*
X9724944Y-14242936D02*
X9715420Y-14252460D01*
X9715420Y-14252460D02*
X9696372Y-14261984D01*
X9696372Y-14261984D02*
X9677325Y-14261984D01*
X9677325Y-14261984D02*
X9658277Y-14252460D01*
X9658277Y-14252460D02*
X9648753Y-14242936D01*
X9648753Y-14242936D02*
X9639229Y-14223888D01*
X9639229Y-14223888D02*
X9629706Y-14185793D01*
X9629706Y-14185793D02*
X9629706Y-14138174D01*
X9629706Y-14138174D02*
X9639229Y-14100079D01*
X9639229Y-14100079D02*
X9648753Y-14081031D01*
X9648753Y-14081031D02*
X9658277Y-14071508D01*
X9658277Y-14071508D02*
X9677325Y-14061984D01*
X9867801Y-14061984D02*
X9886849Y-14061984D01*
X9886849Y-14061984D02*
X9905896Y-14071508D01*
X9905896Y-14071508D02*
X9915420Y-14081031D01*
X9915420Y-14081031D02*
X9924944Y-14100079D01*
X9924944Y-14100079D02*
X9934468Y-14138174D01*
X9934468Y-14138174D02*
X9934468Y-14185793D01*
X9934468Y-14185793D02*
X9924944Y-14223888D01*
X9924944Y-14223888D02*
X9915420Y-14242936D01*
X9915420Y-14242936D02*
X9905896Y-14252460D01*
X9905896Y-14252460D02*
X9886849Y-14261984D01*
X9886849Y-14261984D02*
X9867801Y-14261984D01*
X9867801Y-14261984D02*
X9848753Y-14252460D01*
X9848753Y-14252460D02*
X9839229Y-14242936D01*
X9839229Y-14242936D02*
X9829706Y-14223888D01*
X9829706Y-14223888D02*
X9820182Y-14185793D01*
X9820182Y-14185793D02*
X9820182Y-14138174D01*
X9820182Y-14138174D02*
X9829706Y-14100079D01*
X9829706Y-14100079D02*
X9839229Y-14081031D01*
X9839229Y-14081031D02*
X9848753Y-14071508D01*
X9848753Y-14071508D02*
X9867801Y-14061984D01*
X10058277Y-14061984D02*
X10077325Y-14061984D01*
X10077325Y-14061984D02*
X10096372Y-14071508D01*
X10096372Y-14071508D02*
X10105896Y-14081031D01*
X10105896Y-14081031D02*
X10115420Y-14100079D01*
X10115420Y-14100079D02*
X10124944Y-14138174D01*
X10124944Y-14138174D02*
X10124944Y-14185793D01*
X10124944Y-14185793D02*
X10115420Y-14223888D01*
X10115420Y-14223888D02*
X10105896Y-14242936D01*
X10105896Y-14242936D02*
X10096372Y-14252460D01*
X10096372Y-14252460D02*
X10077325Y-14261984D01*
X10077325Y-14261984D02*
X10058277Y-14261984D01*
X10058277Y-14261984D02*
X10039229Y-14252460D01*
X10039229Y-14252460D02*
X10029706Y-14242936D01*
X10029706Y-14242936D02*
X10020182Y-14223888D01*
X10020182Y-14223888D02*
X10010658Y-14185793D01*
X10010658Y-14185793D02*
X10010658Y-14138174D01*
X10010658Y-14138174D02*
X10020182Y-14100079D01*
X10020182Y-14100079D02*
X10029706Y-14081031D01*
X10029706Y-14081031D02*
X10039229Y-14071508D01*
X10039229Y-14071508D02*
X10058277Y-14061984D01*
X10201134Y-14061984D02*
X10201134Y-14100079D01*
X10277325Y-14061984D02*
X10277325Y-14100079D01*
X10572563Y-14338174D02*
X10563039Y-14328650D01*
X10563039Y-14328650D02*
X10543991Y-14300079D01*
X10543991Y-14300079D02*
X10534468Y-14281031D01*
X10534468Y-14281031D02*
X10524944Y-14252460D01*
X10524944Y-14252460D02*
X10515420Y-14204841D01*
X10515420Y-14204841D02*
X10515420Y-14166746D01*
X10515420Y-14166746D02*
X10524944Y-14119127D01*
X10524944Y-14119127D02*
X10534468Y-14090555D01*
X10534468Y-14090555D02*
X10543991Y-14071508D01*
X10543991Y-14071508D02*
X10563039Y-14042936D01*
X10563039Y-14042936D02*
X10572563Y-14033412D01*
X10734468Y-14128650D02*
X10734468Y-14261984D01*
X10686849Y-14052460D02*
X10639230Y-14195317D01*
X10639230Y-14195317D02*
X10763039Y-14195317D01*
X10991611Y-14261984D02*
X10991611Y-14061984D01*
X11077325Y-14261984D02*
X11077325Y-14157222D01*
X11077325Y-14157222D02*
X11067801Y-14138174D01*
X11067801Y-14138174D02*
X11048753Y-14128650D01*
X11048753Y-14128650D02*
X11020182Y-14128650D01*
X11020182Y-14128650D02*
X11001134Y-14138174D01*
X11001134Y-14138174D02*
X10991611Y-14147698D01*
X11201134Y-14261984D02*
X11182087Y-14252460D01*
X11182087Y-14252460D02*
X11172563Y-14242936D01*
X11172563Y-14242936D02*
X11163039Y-14223888D01*
X11163039Y-14223888D02*
X11163039Y-14166746D01*
X11163039Y-14166746D02*
X11172563Y-14147698D01*
X11172563Y-14147698D02*
X11182087Y-14138174D01*
X11182087Y-14138174D02*
X11201134Y-14128650D01*
X11201134Y-14128650D02*
X11229706Y-14128650D01*
X11229706Y-14128650D02*
X11248753Y-14138174D01*
X11248753Y-14138174D02*
X11258277Y-14147698D01*
X11258277Y-14147698D02*
X11267801Y-14166746D01*
X11267801Y-14166746D02*
X11267801Y-14223888D01*
X11267801Y-14223888D02*
X11258277Y-14242936D01*
X11258277Y-14242936D02*
X11248753Y-14252460D01*
X11248753Y-14252460D02*
X11229706Y-14261984D01*
X11229706Y-14261984D02*
X11201134Y-14261984D01*
X11382087Y-14261984D02*
X11363039Y-14252460D01*
X11363039Y-14252460D02*
X11353515Y-14233412D01*
X11353515Y-14233412D02*
X11353515Y-14061984D01*
X11534468Y-14252460D02*
X11515420Y-14261984D01*
X11515420Y-14261984D02*
X11477325Y-14261984D01*
X11477325Y-14261984D02*
X11458277Y-14252460D01*
X11458277Y-14252460D02*
X11448753Y-14233412D01*
X11448753Y-14233412D02*
X11448753Y-14157222D01*
X11448753Y-14157222D02*
X11458277Y-14138174D01*
X11458277Y-14138174D02*
X11477325Y-14128650D01*
X11477325Y-14128650D02*
X11515420Y-14128650D01*
X11515420Y-14128650D02*
X11534468Y-14138174D01*
X11534468Y-14138174D02*
X11543991Y-14157222D01*
X11543991Y-14157222D02*
X11543991Y-14176269D01*
X11543991Y-14176269D02*
X11448753Y-14195317D01*
X11620182Y-14252460D02*
X11639230Y-14261984D01*
X11639230Y-14261984D02*
X11677325Y-14261984D01*
X11677325Y-14261984D02*
X11696372Y-14252460D01*
X11696372Y-14252460D02*
X11705896Y-14233412D01*
X11705896Y-14233412D02*
X11705896Y-14223888D01*
X11705896Y-14223888D02*
X11696372Y-14204841D01*
X11696372Y-14204841D02*
X11677325Y-14195317D01*
X11677325Y-14195317D02*
X11648753Y-14195317D01*
X11648753Y-14195317D02*
X11629706Y-14185793D01*
X11629706Y-14185793D02*
X11620182Y-14166746D01*
X11620182Y-14166746D02*
X11620182Y-14157222D01*
X11620182Y-14157222D02*
X11629706Y-14138174D01*
X11629706Y-14138174D02*
X11648753Y-14128650D01*
X11648753Y-14128650D02*
X11677325Y-14128650D01*
X11677325Y-14128650D02*
X11696372Y-14138174D01*
X11772563Y-14338174D02*
X11782087Y-14328650D01*
X11782087Y-14328650D02*
X11801134Y-14300079D01*
X11801134Y-14300079D02*
X11810658Y-14281031D01*
X11810658Y-14281031D02*
X11820182Y-14252460D01*
X11820182Y-14252460D02*
X11829706Y-14204841D01*
X11829706Y-14204841D02*
X11829706Y-14166746D01*
X11829706Y-14166746D02*
X11820182Y-14119127D01*
X11820182Y-14119127D02*
X11810658Y-14090555D01*
X11810658Y-14090555D02*
X11801134Y-14071508D01*
X11801134Y-14071508D02*
X11782087Y-14042936D01*
X11782087Y-14042936D02*
X11772563Y-14033412D01*
M02*
