%TF.GenerationSoftware,KiCad,Pcbnew,8.0.5*%
%TF.CreationDate,2025-10-24T05:58:17-05:00*%
%TF.ProjectId,iris-128s-adapter,69726973-2d31-4323-9873-2d6164617074,1.0.0*%
%TF.SameCoordinates,Original*%
%TF.FileFunction,Copper,L3,Inr*%
%TF.FilePolarity,Positive*%
%FSLAX46Y46*%
G04 Gerber Fmt 4.6, Leading zero omitted, Abs format (unit mm)*
G04 Created by KiCad (PCBNEW 8.0.5) date 2025-10-24 05:58:17*
%MOMM*%
%LPD*%
G01*
G04 APERTURE LIST*
%TA.AperFunction,ComponentPad*%
%ADD10C,3.581400*%
%TD*%
%TA.AperFunction,ComponentPad*%
%ADD11C,1.422400*%
%TD*%
%TA.AperFunction,ViaPad*%
%ADD12C,0.508000*%
%TD*%
%TA.AperFunction,Conductor*%
%ADD13C,0.127000*%
%TD*%
G04 APERTURE END LIST*
D10*
%TO.N,GND3*%
%TO.C,S6*%
X73048000Y-126952000D03*
%TD*%
%TO.N,GND3*%
%TO.C,S3*%
X116952000Y-93048000D03*
%TD*%
D11*
%TO.N,VDD3V_EXT*%
%TO.C,J7*%
X114919760Y-101092000D03*
%TO.N,GND3*%
X117459760Y-101092000D03*
%TD*%
D10*
%TO.N,GND3*%
%TO.C,S2*%
X73048000Y-93048000D03*
%TD*%
D11*
%TO.N,/VDD_SW_EXT*%
%TO.C,J2*%
X114919760Y-104902000D03*
%TO.N,GND3*%
X117459760Y-104902000D03*
%TD*%
%TO.N,/VSS_SW_EXT*%
%TO.C,J3*%
X114919760Y-108712000D03*
%TO.N,GND3*%
X117459760Y-108712000D03*
%TD*%
D10*
%TO.N,GND3*%
%TO.C,S7*%
X116952000Y-126952000D03*
%TD*%
D11*
%TO.N,/VDD3*%
%TO.C,J1*%
X114919760Y-97282000D03*
%TO.N,GND3*%
X117459760Y-97282000D03*
%TD*%
%TO.N,/mcu/PA0*%
%TO.C,J5*%
X79070000Y-127460500D03*
%TO.N,/mcu/PA1*%
X79070000Y-124920500D03*
%TO.N,/mcu/PA2*%
X81610000Y-127460500D03*
%TO.N,/mcu/PA3*%
X81610000Y-124920500D03*
%TO.N,/mcu/PA4*%
X84150000Y-127460500D03*
%TO.N,/mcu/PA5*%
X84150000Y-124920500D03*
%TO.N,/mcu/PA6*%
X86690000Y-127460500D03*
%TO.N,/mcu/PA7*%
X86690000Y-124920500D03*
%TO.N,GND3*%
X89230000Y-127460500D03*
%TO.N,VDD3V_EXT*%
X89230000Y-124920500D03*
%TO.N,/mcu/PA9*%
X91770000Y-127460500D03*
%TO.N,/mcu/PA10*%
X91770000Y-124920500D03*
%TO.N,/mcu/PA11*%
X94310000Y-127460500D03*
%TO.N,/mcu/PA12*%
X94310000Y-124920500D03*
%TO.N,/mcu/PB0*%
X96850000Y-127460500D03*
%TO.N,/mcu/PB1*%
X96850000Y-124920500D03*
%TO.N,/mcu/PB6*%
X99390000Y-127460500D03*
%TO.N,/mcu/PB7*%
X99390000Y-124920500D03*
%TO.N,GND3*%
X101930000Y-127460500D03*
%TO.N,VDD3V_EXT*%
X101930000Y-124920500D03*
%TD*%
D12*
%TO.N,/VDD3V*%
X105467000Y-116761800D03*
X105867000Y-116257200D03*
%TO.N,/VDDA3V*%
X92260260Y-113020000D03*
X107045780Y-116761800D03*
X106647000Y-116257200D03*
%TO.N,/mcu/NRST*%
X92070474Y-119268794D03*
X92600780Y-113996400D03*
%TO.N,Net-(U2-SEQ)*%
X105442100Y-105325780D03*
X99861440Y-104271560D03*
%TO.N,/VDD_SW*%
X101293260Y-115669600D03*
X100893800Y-116257200D03*
%TO.N,/VSS_SW*%
X104232200Y-116257200D03*
X104622700Y-115669600D03*
%TO.N,Net-(U1-PF3-BOOT0)*%
X88562200Y-110892320D03*
%TO.N,/mcu/PA10*%
X91902240Y-106005860D03*
%TO.N,/mcu/PA9*%
X92402100Y-106514460D03*
%TO.N,/MOSI_SW*%
X74149100Y-113492500D03*
X83741600Y-113619440D03*
%TO.N,/MISO_SW*%
X77374900Y-113492500D03*
X83741600Y-112679440D03*
%TO.N,/SCLK_SW*%
X83741600Y-111739440D03*
X73387100Y-112857500D03*
%TO.N,/CSb_SW*%
X76612900Y-112857500D03*
X83741600Y-110799640D03*
%TO.N,GND3*%
X78181200Y-115976400D03*
X90617040Y-122600720D03*
X84074000Y-106705400D03*
X112268000Y-112471200D03*
X81711800Y-114554000D03*
X110109000Y-111912400D03*
X108102400Y-97891600D03*
X118729360Y-116205340D03*
X104947600Y-116257200D03*
X86461600Y-116560600D03*
X90347800Y-117119400D03*
X100634800Y-123139200D03*
X90694500Y-115195200D03*
X80213200Y-112242600D03*
X118729360Y-117475340D03*
X86314460Y-113162080D03*
X113334800Y-128193800D03*
X108127800Y-107238800D03*
X101369460Y-113797800D03*
X99931220Y-100077980D03*
X93878400Y-104013000D03*
X103379440Y-104558560D03*
X108077000Y-111099600D03*
X102617440Y-103796560D03*
X84023200Y-117094000D03*
X99898200Y-91871800D03*
X99009200Y-101117400D03*
X98077020Y-115314000D03*
X81813400Y-117094000D03*
X86207600Y-118821200D03*
X92029240Y-115286020D03*
X91160600Y-120446800D03*
X90652600Y-108323380D03*
X76479400Y-119786400D03*
X104470200Y-90830400D03*
X102844600Y-95580200D03*
X102870000Y-122250200D03*
X83083400Y-122351800D03*
X95021400Y-123139200D03*
X77927200Y-93319600D03*
X89298731Y-112971531D03*
X108077000Y-101955600D03*
X71704200Y-111887000D03*
X106629200Y-120573800D03*
X108839000Y-118389400D03*
X71729600Y-106070400D03*
X99885820Y-93314080D03*
X94874080Y-106144060D03*
X89294100Y-115344480D03*
X73466100Y-115128580D03*
X107209040Y-128743200D03*
X81229200Y-90830400D03*
X90652600Y-111099600D03*
X108077000Y-94437200D03*
X104711600Y-113797800D03*
X103661680Y-100649980D03*
X85420200Y-114376200D03*
X113385600Y-122301000D03*
X111175800Y-107264200D03*
X85064600Y-108559600D03*
X108102400Y-96520000D03*
X103379440Y-103034560D03*
X101647660Y-116257200D03*
X101536500Y-107370820D03*
X82575400Y-108178600D03*
X71780400Y-117525800D03*
X116205000Y-111023400D03*
X91363800Y-103428800D03*
X103454200Y-91897200D03*
X101855440Y-103034560D03*
X105957840Y-103771560D03*
X82575400Y-109956600D03*
X103022820Y-112316460D03*
X71704200Y-100431600D03*
X97840800Y-110617000D03*
X96875600Y-104952800D03*
X81661000Y-119710200D03*
X92532760Y-111099600D03*
X88714600Y-111709820D03*
X77292200Y-123850400D03*
X106248200Y-118795800D03*
X97749360Y-123139200D03*
X106832400Y-105867200D03*
X101930200Y-119227600D03*
X83794600Y-115900200D03*
X87967820Y-121831100D03*
X73761600Y-97459800D03*
X112674400Y-99542600D03*
X101124220Y-100964940D03*
X92862400Y-123139200D03*
X113030000Y-94411800D03*
X110327440Y-119400320D03*
X106832400Y-107035600D03*
X118033800Y-122910600D03*
X110127960Y-98219260D03*
X87376000Y-106705400D03*
X108889800Y-120802400D03*
X98196400Y-121767600D03*
X90243500Y-113284000D03*
X118729360Y-113665340D03*
X94589880Y-107574820D03*
X88696800Y-106121200D03*
X88565920Y-115195200D03*
X101535700Y-108008360D03*
X85140800Y-119710200D03*
X97129600Y-108788200D03*
X93319600Y-119837200D03*
X106654600Y-95072200D03*
X91139000Y-113334800D03*
X96266000Y-103403400D03*
X112928400Y-104038400D03*
X86715600Y-114757200D03*
X101855440Y-104558560D03*
X92232480Y-108996480D03*
X86264460Y-110299500D03*
X96621600Y-120396000D03*
X78181200Y-114427000D03*
X99923600Y-97917000D03*
X107739040Y-114694420D03*
X107209040Y-123256800D03*
X97053400Y-113919000D03*
X106705400Y-97840800D03*
X114884200Y-119837200D03*
X88900000Y-118592600D03*
X98080220Y-113924800D03*
X89281000Y-116052600D03*
X107565420Y-116257200D03*
X101536500Y-106733880D03*
X96621600Y-117983000D03*
%TO.N,/MISO1m*%
X84464280Y-93314480D03*
X76612900Y-106507500D03*
%TO.N,/CSbm*%
X73768100Y-106507500D03*
X86369280Y-94076480D03*
%TO.N,/SCLKm*%
X85734280Y-92552480D03*
X73387100Y-107777500D03*
%TO.N,/MOSIp*%
X76993900Y-109682500D03*
X85099280Y-97632480D03*
%TO.N,/MISO2p*%
X76993900Y-108412500D03*
X83829280Y-97632480D03*
%TO.N,/MISO1p*%
X84464280Y-96870480D03*
X76993900Y-107142500D03*
%TO.N,/MISO2m*%
X76612900Y-107777500D03*
X83829280Y-94076480D03*
%TO.N,VDD3V_EXT*%
X88206600Y-112420400D03*
X102834900Y-119113000D03*
X95468400Y-106417240D03*
%TO.N,/CSbp*%
X86369280Y-97251480D03*
X74149100Y-107142500D03*
%TO.N,/SCLKp*%
X74149100Y-108412500D03*
X85734280Y-96870480D03*
%TO.N,/MOSIm*%
X76612900Y-109047500D03*
X85099280Y-94076480D03*
%TO.N,/CSbp_STIM*%
X74149100Y-109682500D03*
X94957680Y-93314080D03*
%TO.N,/SCLKp_STIM*%
X74149100Y-110952500D03*
X96862680Y-99537080D03*
%TO.N,/MOSI1m_STIM*%
X96227680Y-96870080D03*
X78452980Y-110241080D03*
%TO.N,VDD1*%
X106273600Y-112379060D03*
X104957080Y-106474200D03*
X103117440Y-101013200D03*
X104957080Y-107297220D03*
X102117440Y-101013200D03*
X107088940Y-112379060D03*
%TO.N,/MOSI2m_STIM*%
X95592680Y-94076080D03*
X79468980Y-109021880D03*
%TO.N,/SCLKm_STIM*%
X97497680Y-98775080D03*
X73387100Y-110317500D03*
%TO.N,/MOSI1p_STIM*%
X95592680Y-97251080D03*
X79113380Y-110241080D03*
%TO.N,/CSbm_STIM*%
X94322680Y-94076080D03*
X73387100Y-109047500D03*
%TO.N,/MOSI2p_STIM*%
X96227680Y-93314080D03*
X80129380Y-109021880D03*
%TO.N,/mcu/PB1*%
X95098200Y-108392320D03*
%TO.N,/mcu/PB0*%
X94831940Y-108968804D03*
%TO.N,/mcu/PB6*%
X88562200Y-109892320D03*
%TO.N,/mcu/SWDIO*%
X111109360Y-118745340D03*
X90402100Y-106514460D03*
%TO.N,/mcu/SWCLK*%
X89902240Y-106005860D03*
X111109360Y-117475340D03*
%TO.N,/mcu/PB7*%
X88054200Y-110392320D03*
%TO.N,/pmu/VDDH*%
X99915220Y-109616363D03*
X101163860Y-98906320D03*
X99038100Y-112316460D03*
%TO.N,/pmu/VSSH*%
X104669240Y-98906320D03*
X105334563Y-109530177D03*
%TO.N,/VDD_SW_EXT*%
X97396760Y-119113000D03*
X77374900Y-114762500D03*
%TO.N,/VSS_SW_EXT*%
X76612900Y-115397500D03*
X97396760Y-120054760D03*
%TO.N,/MISO1p_STIM*%
X94322680Y-100680080D03*
X74149100Y-112222500D03*
%TO.N,/MISO1m_STIM*%
X73387100Y-111587500D03*
X94957680Y-99918080D03*
%TO.N,/mcu/PA12*%
X90902240Y-106005860D03*
%TO.N,/mcu/PA11*%
X91402100Y-106514460D03*
%TO.N,GND1*%
X95554800Y-101193600D03*
X80568800Y-92100400D03*
X98885820Y-93314080D03*
X84607400Y-99999800D03*
X79197200Y-96951800D03*
X84912200Y-104851200D03*
X87020400Y-91795600D03*
X98983800Y-99974400D03*
X74828400Y-103200200D03*
X75844400Y-100355400D03*
X72745600Y-99923600D03*
X82491696Y-93660076D03*
X74149100Y-105872500D03*
X91440000Y-97409000D03*
X90220800Y-94894400D03*
X85115400Y-101219000D03*
X76885800Y-95783400D03*
X79984600Y-94488000D03*
X81534000Y-99847400D03*
X98475800Y-91846400D03*
X89916000Y-100431600D03*
X82245200Y-104013000D03*
X76784200Y-101168200D03*
X73939400Y-100482400D03*
X76682600Y-97764600D03*
X93345000Y-91821000D03*
X76993900Y-103200200D03*
X88138000Y-105486200D03*
X78232000Y-101879400D03*
X81026000Y-98653600D03*
X87934800Y-93700600D03*
X91643200Y-98704400D03*
X85775800Y-98323400D03*
X88341200Y-98653600D03*
X81711800Y-102895400D03*
X84912200Y-103505000D03*
X90830400Y-102793800D03*
X72618600Y-109677200D03*
X91236800Y-95783400D03*
X93687680Y-93695080D03*
X80314800Y-104902000D03*
X93091000Y-97409000D03*
X72618600Y-110947200D03*
X78689200Y-99136200D03*
X96824800Y-102133400D03*
X88773000Y-99949000D03*
X92506800Y-94310200D03*
X81076800Y-96748600D03*
X82931000Y-97231200D03*
X76993900Y-105872500D03*
X87960200Y-97231200D03*
X96164400Y-100076000D03*
X80314800Y-102997000D03*
X79476600Y-100812600D03*
X81788000Y-108991400D03*
%TD*%
D13*
%TO.N,/mcu/NRST*%
X92070474Y-119268794D02*
X92600780Y-118738488D01*
X92600780Y-118738488D02*
X92600780Y-113996400D01*
%TO.N,/mcu/PA10*%
X94780100Y-110889450D02*
X94780100Y-121910400D01*
X94780100Y-121910400D02*
X91770000Y-124920500D01*
X91902240Y-106196360D02*
X91902240Y-108011590D01*
X91902240Y-108011590D02*
X94780100Y-110889450D01*
%TO.N,/mcu/PA9*%
X92402100Y-106704960D02*
X92402100Y-108152240D01*
X92908120Y-124141590D02*
X92908120Y-126322380D01*
X92402100Y-108152240D02*
X95034100Y-110784240D01*
X92908120Y-126322380D02*
X91770000Y-127460500D01*
X95034100Y-110784240D02*
X95034100Y-122015610D01*
X95034100Y-122015610D02*
X92908120Y-124141590D01*
%TO.N,/MOSI_SW*%
X77051018Y-113937000D02*
X83424040Y-113937000D01*
X74339600Y-113683000D02*
X76797018Y-113683000D01*
X74149100Y-113492500D02*
X74339600Y-113683000D01*
X83424040Y-113937000D02*
X83741600Y-113619440D01*
X76797018Y-113683000D02*
X77051018Y-113937000D01*
%TO.N,/MISO_SW*%
X77374900Y-113492500D02*
X82928540Y-113492500D01*
X82928540Y-113492500D02*
X83741600Y-112679440D01*
%TO.N,/SCLK_SW*%
X73387100Y-112857500D02*
X74940380Y-112857500D01*
X82433040Y-113048000D02*
X83741600Y-111739440D01*
X77051018Y-113048000D02*
X82433040Y-113048000D01*
X76797018Y-113302000D02*
X77051018Y-113048000D01*
X75384880Y-113302000D02*
X76797018Y-113302000D01*
X74940380Y-112857500D02*
X75384880Y-113302000D01*
%TO.N,/CSb_SW*%
X76612900Y-112857500D02*
X76676400Y-112794000D01*
X81747240Y-112794000D02*
X83741600Y-110799640D01*
X83741600Y-110799640D02*
X83739360Y-110799640D01*
X76676400Y-112794000D02*
X81747240Y-112794000D01*
%TO.N,/MISO1m*%
X77438400Y-106338790D02*
X77438400Y-99341990D01*
X77269690Y-106507500D02*
X77438400Y-106338790D01*
X77438400Y-99341990D02*
X83587790Y-93192600D01*
X83587790Y-93192600D02*
X84342400Y-93192600D01*
X76612900Y-106507500D02*
X77269690Y-106507500D01*
X84342400Y-93192600D02*
X84464280Y-93314480D01*
%TO.N,/CSbm*%
X73533000Y-106272400D02*
X73533000Y-101931270D01*
X73768100Y-106507500D02*
X73533000Y-106272400D01*
X73533000Y-101931270D02*
X82594290Y-92869980D01*
X84969510Y-92869980D02*
X86176010Y-94076480D01*
X82594290Y-92869980D02*
X84969510Y-92869980D01*
X86176010Y-94076480D02*
X86369280Y-94076480D01*
%TO.N,/SCLKm*%
X81483200Y-92278200D02*
X85460000Y-92278200D01*
X73387100Y-107777500D02*
X73025000Y-107415400D01*
X85460000Y-92278200D02*
X85734280Y-92552480D01*
X73025000Y-100736400D02*
X81483200Y-92278200D01*
X73025000Y-107415400D02*
X73025000Y-100736400D01*
%TO.N,/MOSIp*%
X84829872Y-97632480D02*
X85099280Y-97632480D01*
X78200400Y-107642248D02*
X78200400Y-107372840D01*
X77692400Y-108984000D02*
X77692400Y-108150248D01*
X76993900Y-109682500D02*
X77692400Y-108984000D01*
X78200400Y-107372840D02*
X79857600Y-105715640D01*
X79857600Y-105715640D02*
X79857600Y-102604752D01*
X77692400Y-108150248D02*
X78200400Y-107642248D01*
X79857600Y-102604752D02*
X84829872Y-97632480D01*
%TO.N,/MISO2p*%
X78983840Y-105870980D02*
X78983840Y-99908360D01*
X83063080Y-95829120D02*
X83505040Y-95829120D01*
X76993900Y-108412500D02*
X76993900Y-108130328D01*
X78983840Y-99908360D02*
X83063080Y-95829120D01*
X76993900Y-108130328D02*
X77692400Y-107431828D01*
X83829280Y-96153360D02*
X83829280Y-97632480D01*
X77692400Y-107431828D02*
X77692400Y-107162420D01*
X83505040Y-95829120D02*
X83829280Y-96153360D01*
X77692400Y-107162420D02*
X78983840Y-105870980D01*
%TO.N,/MISO1p*%
X76993900Y-107142500D02*
X77692400Y-106444000D01*
X77692400Y-99447200D02*
X83693000Y-93446600D01*
X83693000Y-93446600D02*
X83967782Y-93446600D01*
X84464280Y-93943098D02*
X84464280Y-96870480D01*
X83967782Y-93446600D02*
X84464280Y-93943098D01*
X77692400Y-106444000D02*
X77692400Y-99447200D01*
%TO.N,/MISO2m*%
X83829280Y-95253420D02*
X83829280Y-94076480D01*
X78729840Y-99803150D02*
X82957870Y-95575120D01*
X82957870Y-95575120D02*
X83507580Y-95575120D01*
X76612900Y-107777500D02*
X76987518Y-107777500D01*
X77438400Y-107326618D02*
X77438400Y-107057210D01*
X83507580Y-95575120D02*
X83829280Y-95253420D01*
X78729840Y-105765770D02*
X78729840Y-99803150D01*
X76987518Y-107777500D02*
X77438400Y-107326618D01*
X77438400Y-107057210D02*
X78729840Y-105765770D01*
%TO.N,/CSbp*%
X86090720Y-93631980D02*
X86553398Y-93631980D01*
X74149100Y-107142500D02*
X73774482Y-107142500D01*
X73774482Y-107142500D02*
X73279000Y-106647018D01*
X86553398Y-93631980D02*
X86813780Y-93892362D01*
X86813780Y-96806980D02*
X86369280Y-97251480D01*
X73279000Y-106647018D02*
X73279000Y-101826060D01*
X73279000Y-101826060D02*
X82489080Y-92615980D01*
X82489080Y-92615980D02*
X85074720Y-92615980D01*
X86813780Y-93892362D02*
X86813780Y-96806980D01*
X85074720Y-92615980D02*
X86090720Y-93631980D01*
%TO.N,/SCLKp*%
X86065360Y-97911920D02*
X85734280Y-97580840D01*
X72771000Y-107790018D02*
X72771000Y-100631190D01*
X87393780Y-97444560D02*
X86926420Y-97911920D01*
X86926420Y-97911920D02*
X86065360Y-97911920D01*
X85734280Y-97580840D02*
X85734280Y-96870480D01*
X87393780Y-93187520D02*
X87393780Y-97444560D01*
X73393482Y-108412500D02*
X72771000Y-107790018D01*
X81377990Y-92024200D02*
X86230460Y-92024200D01*
X86230460Y-92024200D02*
X87393780Y-93187520D01*
X74149100Y-108412500D02*
X73393482Y-108412500D01*
X72771000Y-100631190D02*
X81377990Y-92024200D01*
%TO.N,/MOSIm*%
X76612900Y-109047500D02*
X76987518Y-109047500D01*
X79603600Y-102499542D02*
X85099280Y-97003862D01*
X77438400Y-108596618D02*
X77438400Y-108045038D01*
X76987518Y-109047500D02*
X77438400Y-108596618D01*
X77946400Y-107537038D02*
X77946400Y-107267630D01*
X77946400Y-107267630D02*
X79603600Y-105610430D01*
X79603600Y-105610430D02*
X79603600Y-102499542D01*
X85099280Y-97003862D02*
X85099280Y-94076480D01*
X77438400Y-108045038D02*
X77946400Y-107537038D01*
%TO.N,/CSbp_STIM*%
X77692400Y-109702420D02*
X77692400Y-109971828D01*
X81051400Y-105240260D02*
X78708400Y-107583260D01*
X77692400Y-109971828D02*
X77283228Y-110381000D01*
X94957680Y-94298790D02*
X94191890Y-95064580D01*
X74847600Y-110381000D02*
X74149100Y-109682500D01*
X94957680Y-93314080D02*
X94957680Y-94298790D01*
X78200400Y-108360668D02*
X78200400Y-109194420D01*
X84872945Y-99080005D02*
X81051400Y-102901550D01*
X91227080Y-95064580D02*
X87211655Y-99080005D01*
X81051400Y-102901550D02*
X81051400Y-105240260D01*
X94191890Y-95064580D02*
X91227080Y-95064580D01*
X78200400Y-109194420D02*
X77692400Y-109702420D01*
X87211655Y-99080005D02*
X84872945Y-99080005D01*
X77283228Y-110381000D02*
X74847600Y-110381000D01*
X78708400Y-107583260D02*
X78708400Y-107852668D01*
X78708400Y-107852668D02*
X78200400Y-108360668D01*
%TO.N,/SCLKp_STIM*%
X80827880Y-109514408D02*
X80827880Y-107627020D01*
X84106620Y-104348280D02*
X87005160Y-104348280D01*
X74945460Y-110952500D02*
X75211940Y-111218980D01*
X87005160Y-104348280D02*
X92229940Y-99123500D01*
X75211940Y-111218980D02*
X79123308Y-111218980D01*
X74149100Y-110952500D02*
X74945460Y-110952500D01*
X92229940Y-99123500D02*
X96449100Y-99123500D01*
X96449100Y-99123500D02*
X96862680Y-99537080D01*
X79123308Y-111218980D02*
X80827880Y-109514408D01*
X80827880Y-107627020D02*
X84106620Y-104348280D01*
%TO.N,/MOSI1m_STIM*%
X78452980Y-110241080D02*
X78452980Y-109301050D01*
X91955620Y-95770700D02*
X95128300Y-95770700D01*
X78454400Y-108465878D02*
X78962400Y-107957878D01*
X78962400Y-107688470D02*
X81417160Y-105233710D01*
X78452980Y-109301050D02*
X78454400Y-109299630D01*
X87560130Y-100166190D02*
X91955620Y-95770700D01*
X85083630Y-100166190D02*
X87560130Y-100166190D01*
X81417160Y-105233710D02*
X81417160Y-103832660D01*
X95128300Y-95770700D02*
X96227680Y-96870080D01*
X78454400Y-109299630D02*
X78454400Y-108465878D01*
X81417160Y-103832660D02*
X85083630Y-100166190D01*
X78962400Y-107957878D02*
X78962400Y-107688470D01*
%TO.N,/MOSI2m_STIM*%
X96895920Y-97313950D02*
X96895920Y-94341530D01*
X79470400Y-109020460D02*
X79470400Y-107898890D01*
X96242070Y-97967800D02*
X96895920Y-97313950D01*
X79470400Y-107898890D02*
X82199480Y-105169810D01*
X96630470Y-94076080D02*
X95592680Y-94076080D01*
X86639400Y-102717600D02*
X91389200Y-97967800D01*
X96895920Y-94341530D02*
X96630470Y-94076080D01*
X82199480Y-105169810D02*
X82199480Y-104744520D01*
X91389200Y-97967800D02*
X96242070Y-97967800D01*
X82199480Y-104744520D02*
X84226400Y-102717600D01*
X84226400Y-102717600D02*
X86639400Y-102717600D01*
X79468980Y-109021880D02*
X79470400Y-109020460D01*
%TO.N,/SCLKm_STIM*%
X84001410Y-104094280D02*
X86899950Y-104094280D01*
X80573880Y-109409198D02*
X80573880Y-107521810D01*
X80573880Y-107521810D02*
X84001410Y-104094280D01*
X86899950Y-104094280D02*
X92124730Y-98869500D01*
X97403260Y-98869500D02*
X97497680Y-98775080D01*
X79018098Y-110964980D02*
X80573880Y-109409198D01*
X92124730Y-98869500D02*
X97403260Y-98869500D01*
X73387100Y-110317500D02*
X74246740Y-110317500D01*
X74246740Y-110317500D02*
X74627740Y-110698500D01*
X74627740Y-110698500D02*
X75050670Y-110698500D01*
X75317150Y-110964980D02*
X79018098Y-110964980D01*
X75050670Y-110698500D02*
X75317150Y-110964980D01*
%TO.N,/MOSI1p_STIM*%
X79216400Y-107793680D02*
X81671160Y-105338920D01*
X87665340Y-100420190D02*
X92060830Y-96024700D01*
X78708400Y-109404840D02*
X78708400Y-108571088D01*
X95023090Y-96024700D02*
X95592680Y-96594290D01*
X81671160Y-103937870D02*
X85188840Y-100420190D01*
X78706980Y-109406260D02*
X78708400Y-109404840D01*
X85188840Y-100420190D02*
X87665340Y-100420190D01*
X78706980Y-109834680D02*
X78706980Y-109406260D01*
X79113380Y-110241080D02*
X78706980Y-109834680D01*
X95592680Y-96594290D02*
X95592680Y-97251080D01*
X79216400Y-108063088D02*
X79216400Y-107793680D01*
X92060830Y-96024700D02*
X95023090Y-96024700D01*
X81671160Y-105338920D02*
X81671160Y-103937870D01*
X78708400Y-108571088D02*
X79216400Y-108063088D01*
%TO.N,/CSbm_STIM*%
X77946400Y-108255458D02*
X78454400Y-107747458D01*
X78454400Y-107747458D02*
X78454400Y-107478050D01*
X78454400Y-107478050D02*
X80797400Y-105135050D01*
X80797400Y-102796340D02*
X84767735Y-98826005D01*
X77438400Y-109866618D02*
X77438400Y-109597210D01*
X87106445Y-98826005D02*
X91121870Y-94810580D01*
X75733930Y-110127000D02*
X77178018Y-110127000D01*
X84767735Y-98826005D02*
X87106445Y-98826005D01*
X93588180Y-94810580D02*
X94322680Y-94076080D01*
X91121870Y-94810580D02*
X93588180Y-94810580D01*
X74654430Y-109047500D02*
X75733930Y-110127000D01*
X77178018Y-110127000D02*
X77438400Y-109866618D01*
X73387100Y-109047500D02*
X74654430Y-109047500D01*
X77438400Y-109597210D02*
X77946400Y-109089210D01*
X77946400Y-109089210D02*
X77946400Y-108255458D01*
X80797400Y-105135050D02*
X80797400Y-102796340D01*
%TO.N,/MOSI2p_STIM*%
X96347280Y-98221800D02*
X97149920Y-97419160D01*
X86744610Y-102971600D02*
X91494410Y-98221800D01*
X97149920Y-97419160D02*
X97149920Y-94236320D01*
X79724400Y-108004100D02*
X82453480Y-105275020D01*
X79724400Y-108616900D02*
X79724400Y-108004100D01*
X82453480Y-104871520D02*
X84353400Y-102971600D01*
X80129380Y-109021880D02*
X79724400Y-108616900D01*
X91494410Y-98221800D02*
X96347280Y-98221800D01*
X82453480Y-105275020D02*
X82453480Y-104871520D01*
X97149920Y-94236320D02*
X96227680Y-93314080D01*
X84353400Y-102971600D02*
X86744610Y-102971600D01*
%TO.N,/mcu/PB1*%
X96050100Y-124120600D02*
X96850000Y-124920500D01*
X96050100Y-109344220D02*
X96050100Y-124120600D01*
X95098200Y-108392320D02*
X96050100Y-109344220D01*
%TO.N,/mcu/PB0*%
X94831940Y-108968804D02*
X95796100Y-109932964D01*
X95796100Y-126406600D02*
X96850000Y-127460500D01*
X95796100Y-109932964D02*
X95796100Y-126406600D01*
%TO.N,/mcu/PB6*%
X91240810Y-128851660D02*
X97998840Y-128851660D01*
X97998840Y-128851660D02*
X99390000Y-127460500D01*
X88562200Y-109892320D02*
X93064550Y-109892320D01*
X93064550Y-109892320D02*
X94272100Y-111099870D01*
X94272100Y-120450810D02*
X90484960Y-124237950D01*
X90484960Y-124237950D02*
X90484960Y-128095810D01*
X90484960Y-128095810D02*
X91240810Y-128851660D01*
X94272100Y-111099870D02*
X94272100Y-120450810D01*
%TO.N,/mcu/SWDIO*%
X90402100Y-106514460D02*
X90402100Y-105865210D01*
X96304100Y-115760500D02*
X98272940Y-117729340D01*
X90402100Y-105865210D02*
X91213950Y-105053360D01*
X98272940Y-117729340D02*
X110093360Y-117729340D01*
X95616190Y-105053360D02*
X96304100Y-105741270D01*
X96304100Y-105741270D02*
X96304100Y-115760500D01*
X91213950Y-105053360D02*
X95616190Y-105053360D01*
X110093360Y-117729340D02*
X111109360Y-118745340D01*
%TO.N,/mcu/SWCLK*%
X89902240Y-106005860D02*
X91108740Y-104799360D01*
X98378150Y-117475340D02*
X111109360Y-117475340D01*
X96558100Y-115655290D02*
X98378150Y-117475340D01*
X96558100Y-105636060D02*
X96558100Y-115655290D01*
X95721400Y-104799360D02*
X96558100Y-105636060D01*
X91108740Y-104799360D02*
X95721400Y-104799360D01*
%TO.N,/mcu/PB7*%
X99390000Y-124920500D02*
X97914460Y-126396040D01*
X94526100Y-110994660D02*
X92979260Y-109447820D01*
X97914460Y-127929640D02*
X97246440Y-128597660D01*
X90738960Y-124343160D02*
X94526100Y-120556020D01*
X94526100Y-120556020D02*
X94526100Y-110994660D01*
X91346020Y-128597660D02*
X90738960Y-127990600D01*
X92979260Y-109447820D02*
X88378082Y-109447820D01*
X90738960Y-127990600D02*
X90738960Y-124343160D01*
X97246440Y-128597660D02*
X91346020Y-128597660D01*
X88378082Y-109447820D02*
X88054200Y-109771702D01*
X88054200Y-109771702D02*
X88054200Y-110392320D01*
X97914460Y-126396040D02*
X97914460Y-127929640D01*
%TO.N,/MISO1p_STIM*%
X74827150Y-111841500D02*
X74530100Y-111841500D01*
X79333728Y-111726980D02*
X74941670Y-111726980D01*
X81335880Y-107837440D02*
X81335880Y-109724828D01*
X92261930Y-100680080D02*
X87354210Y-105587800D01*
X81335880Y-109724828D02*
X79333728Y-111726980D01*
X74530100Y-111841500D02*
X74149100Y-112222500D01*
X94322680Y-100680080D02*
X92261930Y-100680080D01*
X87354210Y-105587800D02*
X83585520Y-105587800D01*
X83585520Y-105587800D02*
X81335880Y-107837440D01*
X74941670Y-111726980D02*
X74827150Y-111841500D01*
%TO.N,/MISO1m_STIM*%
X94957680Y-99918080D02*
X92664720Y-99918080D01*
X87249000Y-105333800D02*
X83480310Y-105333800D01*
X92664720Y-99918080D02*
X87249000Y-105333800D01*
X79228518Y-111472980D02*
X74836460Y-111472980D01*
X81081880Y-109619618D02*
X79228518Y-111472980D01*
X74721940Y-111587500D02*
X73387100Y-111587500D01*
X74836460Y-111472980D02*
X74721940Y-111587500D01*
X81081880Y-107732230D02*
X81081880Y-109619618D01*
X83480310Y-105333800D02*
X81081880Y-107732230D01*
%TO.N,/mcu/PA12*%
X93261180Y-108292900D02*
X95542100Y-110573820D01*
X95542100Y-123688400D02*
X94310000Y-124920500D01*
X95542100Y-110573820D02*
X95542100Y-123688400D01*
X92339190Y-105307360D02*
X93261180Y-106229350D01*
X93261180Y-106229350D02*
X93261180Y-108292900D01*
X91600740Y-105307360D02*
X92339190Y-105307360D01*
X90902240Y-106005860D02*
X91600740Y-105307360D01*
%TO.N,/mcu/PA11*%
X93007180Y-106334560D02*
X93007180Y-108398110D01*
X95288100Y-110679030D02*
X95288100Y-122120820D01*
X93162120Y-126312620D02*
X94310000Y-127460500D01*
X95288100Y-122120820D02*
X93162120Y-124246800D01*
X91718122Y-105561360D02*
X92233980Y-105561360D01*
X93162120Y-124246800D02*
X93162120Y-126312620D01*
X92233980Y-105561360D02*
X93007180Y-106334560D01*
X93007180Y-108398110D02*
X95288100Y-110679030D01*
X91402100Y-106514460D02*
X91402100Y-105877382D01*
X91402100Y-105877382D02*
X91718122Y-105561360D01*
%TD*%
%TA.AperFunction,Conductor*%
%TO.N,GND3*%
G36*
X99314000Y-91322821D02*
G01*
X99288139Y-91315228D01*
X99280810Y-91314174D01*
X99251500Y-91309960D01*
X80797888Y-91309960D01*
X80783990Y-91310705D01*
X80777581Y-91311393D01*
X80774035Y-91311775D01*
X80772505Y-91311857D01*
X80770698Y-91312133D01*
X80722288Y-91327291D01*
X80722278Y-91327295D01*
X80691371Y-91344172D01*
X80661741Y-91366354D01*
X72189357Y-99838738D01*
X72180046Y-99849103D01*
X72180039Y-99849112D01*
X72171666Y-99859502D01*
X72148150Y-99904459D01*
X72138228Y-99938248D01*
X72138228Y-99938250D01*
X72132960Y-99974888D01*
X72132960Y-99974892D01*
X72132960Y-112154707D01*
X72135931Y-112182337D01*
X72135932Y-112182342D01*
X72141580Y-112208305D01*
X72145263Y-112221730D01*
X72170370Y-112265821D01*
X72193432Y-112292436D01*
X72210113Y-112308532D01*
X72255072Y-112332050D01*
X72288862Y-112341972D01*
X72325500Y-112347240D01*
X73529793Y-112347240D01*
X73563583Y-112357162D01*
X73572383Y-112363998D01*
X73573142Y-112364705D01*
X73586998Y-112373963D01*
X73607735Y-112387820D01*
X73639769Y-112402450D01*
X73639784Y-112402455D01*
X73639791Y-112402458D01*
X73644690Y-112404186D01*
X73661632Y-112410163D01*
X73661631Y-112410163D01*
X73712291Y-112412878D01*
X73712296Y-112412878D01*
X73712296Y-112412877D01*
X73712298Y-112412878D01*
X73747156Y-112407866D01*
X73754761Y-112406069D01*
X73762730Y-112404186D01*
X73797896Y-112406069D01*
X73826461Y-112426666D01*
X73830025Y-112431757D01*
X73848944Y-112461866D01*
X73909734Y-112522656D01*
X73909736Y-112522657D01*
X73954969Y-112551080D01*
X73978301Y-112577458D01*
X73983668Y-112612264D01*
X73969366Y-112644445D01*
X73939936Y-112663786D01*
X73921717Y-112666500D01*
X73752189Y-112666500D01*
X73718399Y-112656578D01*
X73699269Y-112637252D01*
X73687257Y-112618135D01*
X73626465Y-112557343D01*
X73626463Y-112557342D01*
X73553675Y-112511605D01*
X73472530Y-112483212D01*
X73472525Y-112483211D01*
X73387100Y-112473586D01*
X73301674Y-112483211D01*
X73301669Y-112483212D01*
X73220524Y-112511605D01*
X73147736Y-112557342D01*
X73147734Y-112557343D01*
X73086943Y-112618134D01*
X73086942Y-112618136D01*
X73041205Y-112690924D01*
X73012812Y-112772069D01*
X73012811Y-112772074D01*
X73003186Y-112857500D01*
X73012811Y-112942925D01*
X73012812Y-112942930D01*
X73041205Y-113024075D01*
X73086942Y-113096863D01*
X73086944Y-113096866D01*
X73147734Y-113157656D01*
X73151673Y-113160131D01*
X73216456Y-113200838D01*
X73220526Y-113203395D01*
X73301671Y-113231788D01*
X73387100Y-113241414D01*
X73472529Y-113231788D01*
X73553674Y-113203395D01*
X73626466Y-113157656D01*
X73687256Y-113096866D01*
X73699269Y-113077748D01*
X73725647Y-113054416D01*
X73752189Y-113048500D01*
X73921717Y-113048500D01*
X73955507Y-113058422D01*
X73978569Y-113085037D01*
X73983581Y-113119895D01*
X73968951Y-113151929D01*
X73954969Y-113163920D01*
X73909736Y-113192342D01*
X73909734Y-113192343D01*
X73848943Y-113253134D01*
X73848942Y-113253136D01*
X73803205Y-113325924D01*
X73774812Y-113407069D01*
X73774811Y-113407074D01*
X73765186Y-113492500D01*
X73774811Y-113577925D01*
X73774812Y-113577930D01*
X73803205Y-113659075D01*
X73848942Y-113731863D01*
X73848943Y-113731865D01*
X73909734Y-113792656D01*
X73909736Y-113792657D01*
X73968888Y-113829826D01*
X73982526Y-113838395D01*
X74063671Y-113866788D01*
X74149100Y-113876414D01*
X74234529Y-113866788D01*
X74239321Y-113865110D01*
X74274492Y-113863316D01*
X74276140Y-113863734D01*
X74314449Y-113873999D01*
X74314452Y-113873999D01*
X74314454Y-113874000D01*
X74314455Y-113874000D01*
X74364746Y-113874000D01*
X76692016Y-113874000D01*
X76725806Y-113883922D01*
X76736210Y-113892306D01*
X76933735Y-114089833D01*
X76933741Y-114089838D01*
X76955517Y-114102411D01*
X76977294Y-114114984D01*
X77025872Y-114128000D01*
X77025873Y-114128000D01*
X83449185Y-114128000D01*
X83449186Y-114128000D01*
X83473474Y-114121492D01*
X83473476Y-114121492D01*
X83489667Y-114117153D01*
X83497764Y-114114984D01*
X83519540Y-114102411D01*
X83541317Y-114089838D01*
X83576878Y-114054277D01*
X83576878Y-114054275D01*
X83582023Y-114049131D01*
X83582025Y-114049128D01*
X83618042Y-114013111D01*
X83648950Y-113996234D01*
X83669228Y-113995199D01*
X83741600Y-114003354D01*
X83827029Y-113993728D01*
X83908174Y-113965335D01*
X83980966Y-113919596D01*
X84041756Y-113858806D01*
X84087495Y-113786014D01*
X84115888Y-113704869D01*
X84125514Y-113619440D01*
X84115888Y-113534011D01*
X84087495Y-113452866D01*
X84086537Y-113451342D01*
X84061240Y-113411082D01*
X84041756Y-113380074D01*
X83980966Y-113319284D01*
X83980965Y-113319283D01*
X83980963Y-113319282D01*
X83908175Y-113273545D01*
X83827030Y-113245152D01*
X83827025Y-113245151D01*
X83741600Y-113235526D01*
X83656174Y-113245151D01*
X83656166Y-113245153D01*
X83591339Y-113267836D01*
X83556168Y-113269631D01*
X83525611Y-113252126D01*
X83509368Y-113220878D01*
X83512597Y-113185810D01*
X83526502Y-113164651D01*
X83618043Y-113073110D01*
X83648950Y-113056234D01*
X83669228Y-113055199D01*
X83741600Y-113063354D01*
X83827029Y-113053728D01*
X83908174Y-113025335D01*
X83980966Y-112979596D01*
X84041756Y-112918806D01*
X84087495Y-112846014D01*
X84115888Y-112764869D01*
X84125514Y-112679440D01*
X84115888Y-112594011D01*
X84087495Y-112512866D01*
X84077089Y-112496306D01*
X84041757Y-112440076D01*
X84041756Y-112440074D01*
X84022082Y-112420400D01*
X87822686Y-112420400D01*
X87832311Y-112505825D01*
X87832312Y-112505830D01*
X87860705Y-112586975D01*
X87892297Y-112637252D01*
X87906444Y-112659766D01*
X87967234Y-112720556D01*
X87990511Y-112735182D01*
X88037756Y-112764869D01*
X88040026Y-112766295D01*
X88121171Y-112794688D01*
X88206600Y-112804314D01*
X88292029Y-112794688D01*
X88373174Y-112766295D01*
X88445966Y-112720556D01*
X88506756Y-112659766D01*
X88552495Y-112586974D01*
X88580888Y-112505829D01*
X88590514Y-112420400D01*
X88580888Y-112334971D01*
X88552495Y-112253826D01*
X88506756Y-112181034D01*
X88445966Y-112120244D01*
X88445965Y-112120243D01*
X88445963Y-112120242D01*
X88373175Y-112074505D01*
X88292030Y-112046112D01*
X88292025Y-112046111D01*
X88206600Y-112036486D01*
X88121174Y-112046111D01*
X88121169Y-112046112D01*
X88040024Y-112074505D01*
X87967236Y-112120242D01*
X87967234Y-112120243D01*
X87906443Y-112181034D01*
X87906442Y-112181036D01*
X87860705Y-112253824D01*
X87832312Y-112334969D01*
X87832311Y-112334974D01*
X87822686Y-112420400D01*
X84022082Y-112420400D01*
X83980965Y-112379283D01*
X83980963Y-112379282D01*
X83908175Y-112333545D01*
X83827030Y-112305152D01*
X83827025Y-112305151D01*
X83741600Y-112295526D01*
X83656174Y-112305151D01*
X83656166Y-112305153D01*
X83591339Y-112327836D01*
X83556168Y-112329631D01*
X83525611Y-112312126D01*
X83509368Y-112280878D01*
X83512597Y-112245810D01*
X83526502Y-112224651D01*
X83618043Y-112133110D01*
X83648950Y-112116234D01*
X83669228Y-112115199D01*
X83741600Y-112123354D01*
X83827029Y-112113728D01*
X83908174Y-112085335D01*
X83980966Y-112039596D01*
X84041756Y-111978806D01*
X84087495Y-111906014D01*
X84115888Y-111824869D01*
X84125514Y-111739440D01*
X84115888Y-111654011D01*
X84087495Y-111572866D01*
X84041756Y-111500074D01*
X83980966Y-111439284D01*
X83980965Y-111439283D01*
X83980963Y-111439282D01*
X83908175Y-111393545D01*
X83827030Y-111365152D01*
X83827025Y-111365151D01*
X83741600Y-111355526D01*
X83656174Y-111365151D01*
X83656166Y-111365153D01*
X83591645Y-111387729D01*
X83556474Y-111389524D01*
X83525917Y-111372019D01*
X83509674Y-111340772D01*
X83512903Y-111305703D01*
X83526807Y-111284545D01*
X83618042Y-111193310D01*
X83648949Y-111176434D01*
X83669228Y-111175399D01*
X83741600Y-111183554D01*
X83827029Y-111173928D01*
X83908174Y-111145535D01*
X83980966Y-111099796D01*
X84041756Y-111039006D01*
X84087495Y-110966214D01*
X84115888Y-110885069D01*
X84125514Y-110799640D01*
X84115888Y-110714211D01*
X84087495Y-110633066D01*
X84041756Y-110560274D01*
X83980966Y-110499484D01*
X83980965Y-110499483D01*
X83980963Y-110499482D01*
X83908175Y-110453745D01*
X83827030Y-110425352D01*
X83827025Y-110425351D01*
X83741600Y-110415726D01*
X83656174Y-110425351D01*
X83656169Y-110425352D01*
X83575024Y-110453745D01*
X83502236Y-110499482D01*
X83502234Y-110499483D01*
X83441443Y-110560274D01*
X83441442Y-110560276D01*
X83395705Y-110633064D01*
X83367312Y-110714209D01*
X83367311Y-110714214D01*
X83357686Y-110799639D01*
X83365840Y-110872005D01*
X83359764Y-110906693D01*
X83347927Y-110923197D01*
X81686432Y-112584694D01*
X81655523Y-112601572D01*
X81642238Y-112603000D01*
X79501792Y-112603000D01*
X79468002Y-112593078D01*
X79444940Y-112566463D01*
X79439928Y-112531605D01*
X79454558Y-112499571D01*
X79457598Y-112496306D01*
X80784835Y-111169069D01*
X82115646Y-109838258D01*
X82124949Y-109827902D01*
X82133333Y-109817498D01*
X82156850Y-109772540D01*
X82166772Y-109738750D01*
X82172040Y-109702112D01*
X82172040Y-108029752D01*
X82181962Y-107995962D01*
X82190346Y-107985558D01*
X83855558Y-106320346D01*
X83886467Y-106303468D01*
X83899752Y-106302040D01*
X87858100Y-106302040D01*
X87858112Y-106302040D01*
X87872010Y-106301295D01*
X87881500Y-106300274D01*
X87881965Y-106300225D01*
X87883494Y-106300142D01*
X87885293Y-106299867D01*
X87885295Y-106299867D01*
X87885299Y-106299867D01*
X87917866Y-106289669D01*
X87933711Y-106284708D01*
X87933713Y-106284707D01*
X87933720Y-106284705D01*
X87964629Y-106267827D01*
X87994258Y-106245646D01*
X91221558Y-103018346D01*
X91252467Y-103001468D01*
X91265752Y-103000040D01*
X96494100Y-103000040D01*
X96494112Y-103000040D01*
X96508010Y-102999295D01*
X96517500Y-102998274D01*
X96517965Y-102998225D01*
X96519494Y-102998142D01*
X96521293Y-102997867D01*
X96521295Y-102997867D01*
X96521299Y-102997867D01*
X96553866Y-102987669D01*
X96569711Y-102982708D01*
X96569713Y-102982707D01*
X96569720Y-102982705D01*
X96600629Y-102965827D01*
X96630258Y-102943646D01*
X99314000Y-100259904D01*
X99314000Y-110490000D01*
X96749100Y-110490000D01*
X96749100Y-105610914D01*
X96736084Y-105562337D01*
X96710938Y-105518783D01*
X96675377Y-105483222D01*
X96675376Y-105483221D01*
X95877805Y-104685651D01*
X95877794Y-104685638D01*
X95838682Y-104646526D01*
X95838676Y-104646521D01*
X95805284Y-104627242D01*
X95805284Y-104627241D01*
X95805282Y-104627241D01*
X95795130Y-104621379D01*
X95795126Y-104621377D01*
X95795124Y-104621376D01*
X95795121Y-104621375D01*
X95795116Y-104621373D01*
X95759511Y-104611833D01*
X95759508Y-104611833D01*
X95746550Y-104608360D01*
X95746546Y-104608360D01*
X91083594Y-104608360D01*
X91070629Y-104611834D01*
X91037398Y-104620738D01*
X91035013Y-104621377D01*
X90991464Y-104646520D01*
X90025797Y-105612187D01*
X89994888Y-105629065D01*
X89974605Y-105630100D01*
X89902240Y-105621946D01*
X89816814Y-105631571D01*
X89816809Y-105631572D01*
X89735664Y-105659965D01*
X89662876Y-105705702D01*
X89662874Y-105705703D01*
X89602083Y-105766494D01*
X89602082Y-105766496D01*
X89556345Y-105839284D01*
X89527952Y-105920429D01*
X89527951Y-105920434D01*
X89518326Y-106005860D01*
X89527951Y-106091285D01*
X89527952Y-106091290D01*
X89556345Y-106172435D01*
X89602082Y-106245223D01*
X89602083Y-106245225D01*
X89662874Y-106306016D01*
X89662876Y-106306017D01*
X89729508Y-106347886D01*
X89735666Y-106351755D01*
X89816811Y-106380148D01*
X89902240Y-106389774D01*
X89956027Y-106383713D01*
X89990714Y-106389789D01*
X90016611Y-106413654D01*
X90025495Y-106447731D01*
X90025131Y-106452817D01*
X90018186Y-106514458D01*
X90018186Y-106514459D01*
X90027811Y-106599885D01*
X90027812Y-106599890D01*
X90056205Y-106681035D01*
X90088786Y-106732886D01*
X90101944Y-106753826D01*
X90162734Y-106814616D01*
X90199130Y-106837485D01*
X90232535Y-106858476D01*
X90235526Y-106860355D01*
X90316671Y-106888748D01*
X90402100Y-106898374D01*
X90487529Y-106888748D01*
X90568674Y-106860355D01*
X90641466Y-106814616D01*
X90702256Y-106753826D01*
X90747995Y-106681034D01*
X90776388Y-106599889D01*
X90786014Y-106514460D01*
X90779064Y-106452784D01*
X90785140Y-106418098D01*
X90809005Y-106392201D01*
X90843082Y-106383317D01*
X90848160Y-106383680D01*
X90902240Y-106389774D01*
X90956027Y-106383713D01*
X90990714Y-106389789D01*
X91016611Y-106413654D01*
X91025495Y-106447731D01*
X91025131Y-106452817D01*
X91018186Y-106514458D01*
X91018186Y-106514459D01*
X91027811Y-106599885D01*
X91027812Y-106599890D01*
X91056205Y-106681035D01*
X91088786Y-106732886D01*
X91101944Y-106753826D01*
X91162734Y-106814616D01*
X91199130Y-106837485D01*
X91232535Y-106858476D01*
X91235526Y-106860355D01*
X91316671Y-106888748D01*
X91402100Y-106898374D01*
X91487529Y-106888748D01*
X91568674Y-106860355D01*
X91615489Y-106830938D01*
X91649376Y-106821362D01*
X91683064Y-106831627D01*
X91705853Y-106858476D01*
X91711240Y-106883859D01*
X91711240Y-108036740D01*
X91713835Y-108046424D01*
X91724255Y-108085313D01*
X91724256Y-108085314D01*
X91734248Y-108102620D01*
X91747372Y-108125351D01*
X91749403Y-108128869D01*
X91788518Y-108167984D01*
X91788532Y-108167996D01*
X92770662Y-109150126D01*
X92787540Y-109181035D01*
X92785027Y-109216162D01*
X92763923Y-109244354D01*
X92730927Y-109256661D01*
X92726468Y-109256820D01*
X88403227Y-109256820D01*
X88352936Y-109256820D01*
X88352935Y-109256820D01*
X88352929Y-109256821D01*
X88304358Y-109269835D01*
X88304356Y-109269836D01*
X88260805Y-109294981D01*
X88260799Y-109294986D01*
X87980826Y-109574961D01*
X87936925Y-109618862D01*
X87936923Y-109618864D01*
X87923974Y-109631813D01*
X87901362Y-109654424D01*
X87901359Y-109654428D01*
X87891633Y-109671275D01*
X87876216Y-109697977D01*
X87876216Y-109697978D01*
X87875321Y-109701320D01*
X87874226Y-109705406D01*
X87874225Y-109705408D01*
X87863201Y-109746549D01*
X87863200Y-109746557D01*
X87863200Y-110027230D01*
X87853278Y-110061020D01*
X87833954Y-110080149D01*
X87814835Y-110092162D01*
X87754043Y-110152954D01*
X87754042Y-110152956D01*
X87708305Y-110225744D01*
X87679912Y-110306889D01*
X87679911Y-110306894D01*
X87670286Y-110392320D01*
X87679911Y-110477745D01*
X87679912Y-110477750D01*
X87708305Y-110558895D01*
X87729210Y-110592164D01*
X87754044Y-110631686D01*
X87814834Y-110692476D01*
X87887626Y-110738215D01*
X87968771Y-110766608D01*
X88054200Y-110776234D01*
X88115249Y-110769355D01*
X88149937Y-110775431D01*
X88175834Y-110799296D01*
X88184718Y-110833374D01*
X88184354Y-110838459D01*
X88178286Y-110892318D01*
X88178286Y-110892319D01*
X88187911Y-110977745D01*
X88187912Y-110977750D01*
X88216305Y-111058895D01*
X88242006Y-111099796D01*
X88262044Y-111131686D01*
X88322834Y-111192476D01*
X88395626Y-111238215D01*
X88476771Y-111266608D01*
X88562200Y-111276234D01*
X88647629Y-111266608D01*
X88728774Y-111238215D01*
X88801566Y-111192476D01*
X88862356Y-111131686D01*
X88908095Y-111058894D01*
X88936488Y-110977749D01*
X88946114Y-110892320D01*
X88936488Y-110806891D01*
X88908095Y-110725746D01*
X88862356Y-110652954D01*
X88801566Y-110592164D01*
X88801565Y-110592163D01*
X88801563Y-110592162D01*
X88728775Y-110546425D01*
X88647630Y-110518032D01*
X88647625Y-110518031D01*
X88562200Y-110508406D01*
X88562199Y-110508406D01*
X88501149Y-110515284D01*
X88466461Y-110509208D01*
X88440564Y-110485342D01*
X88431681Y-110451264D01*
X88432045Y-110446179D01*
X88438114Y-110392320D01*
X88432045Y-110338459D01*
X88438121Y-110303772D01*
X88461986Y-110277875D01*
X88496064Y-110268991D01*
X88501150Y-110269355D01*
X88562200Y-110276234D01*
X88647629Y-110266608D01*
X88728774Y-110238215D01*
X88801566Y-110192476D01*
X88862356Y-110131686D01*
X88874369Y-110112568D01*
X88900747Y-110089236D01*
X88927289Y-110083320D01*
X92959548Y-110083320D01*
X92993338Y-110093242D01*
X93003742Y-110101626D01*
X93392116Y-110490000D01*
X91262200Y-110490000D01*
X91262200Y-110667800D01*
X90043000Y-110667800D01*
X90043000Y-112484900D01*
X90033078Y-112518690D01*
X90006463Y-112541752D01*
X89980500Y-112547400D01*
X88798400Y-112547400D01*
X87884000Y-113461800D01*
X87884000Y-115087400D01*
X88569800Y-115773200D01*
X90678000Y-115773200D01*
X90678000Y-123774794D01*
X90332121Y-124120673D01*
X90327013Y-124129522D01*
X90327012Y-124129524D01*
X90306976Y-124164225D01*
X90306976Y-124164226D01*
X90306304Y-124166735D01*
X90304246Y-124174413D01*
X90293960Y-124212799D01*
X90293960Y-128120953D01*
X90293961Y-128120961D01*
X90306973Y-128169526D01*
X90306975Y-128169530D01*
X90306976Y-128169534D01*
X90306978Y-128169537D01*
X90313941Y-128181596D01*
X90313942Y-128181599D01*
X90332121Y-128213086D01*
X90332126Y-128213092D01*
X90371238Y-128252204D01*
X90371251Y-128252215D01*
X90678000Y-128558964D01*
X90678000Y-129745500D01*
X70317000Y-129745500D01*
X70283210Y-129735578D01*
X70260148Y-129708963D01*
X70254500Y-129683000D01*
X70254500Y-127460495D01*
X78228707Y-127460495D01*
X78228707Y-127460504D01*
X78239063Y-127592100D01*
X78239064Y-127592104D01*
X78269881Y-127720468D01*
X78269882Y-127720470D01*
X78269883Y-127720474D01*
X78320402Y-127842439D01*
X78325358Y-127850526D01*
X78389377Y-127954996D01*
X78389378Y-127954998D01*
X78389380Y-127955000D01*
X78414579Y-127984504D01*
X78475115Y-128055384D01*
X78506839Y-128082478D01*
X78575500Y-128141120D01*
X78688061Y-128210098D01*
X78810026Y-128260617D01*
X78938393Y-128291435D01*
X78938395Y-128291435D01*
X78938399Y-128291436D01*
X79069996Y-128301793D01*
X79070000Y-128301793D01*
X79070004Y-128301793D01*
X79201600Y-128291436D01*
X79201602Y-128291435D01*
X79201607Y-128291435D01*
X79329974Y-128260617D01*
X79451939Y-128210098D01*
X79564500Y-128141120D01*
X79664884Y-128055384D01*
X79750620Y-127955000D01*
X79819598Y-127842439D01*
X79870117Y-127720474D01*
X79900935Y-127592107D01*
X79911293Y-127460500D01*
X79911293Y-127460495D01*
X80768707Y-127460495D01*
X80768707Y-127460504D01*
X80779063Y-127592100D01*
X80779064Y-127592104D01*
X80809881Y-127720468D01*
X80809882Y-127720470D01*
X80809883Y-127720474D01*
X80860402Y-127842439D01*
X80865358Y-127850526D01*
X80929377Y-127954996D01*
X80929378Y-127954998D01*
X80929380Y-127955000D01*
X80954579Y-127984504D01*
X81015115Y-128055384D01*
X81046839Y-128082478D01*
X81115500Y-128141120D01*
X81228061Y-128210098D01*
X81350026Y-128260617D01*
X81478393Y-128291435D01*
X81478395Y-128291435D01*
X81478399Y-128291436D01*
X81609996Y-128301793D01*
X81610000Y-128301793D01*
X81610004Y-128301793D01*
X81741600Y-128291436D01*
X81741602Y-128291435D01*
X81741607Y-128291435D01*
X81869974Y-128260617D01*
X81991939Y-128210098D01*
X82104500Y-128141120D01*
X82204884Y-128055384D01*
X82290620Y-127955000D01*
X82359598Y-127842439D01*
X82410117Y-127720474D01*
X82440935Y-127592107D01*
X82451293Y-127460500D01*
X82451293Y-127460495D01*
X83308707Y-127460495D01*
X83308707Y-127460504D01*
X83319063Y-127592100D01*
X83319064Y-127592104D01*
X83349881Y-127720468D01*
X83349882Y-127720470D01*
X83349883Y-127720474D01*
X83400402Y-127842439D01*
X83405358Y-127850526D01*
X83469377Y-127954996D01*
X83469378Y-127954998D01*
X83469380Y-127955000D01*
X83494579Y-127984504D01*
X83555115Y-128055384D01*
X83586839Y-128082478D01*
X83655500Y-128141120D01*
X83768061Y-128210098D01*
X83890026Y-128260617D01*
X84018393Y-128291435D01*
X84018395Y-128291435D01*
X84018399Y-128291436D01*
X84149996Y-128301793D01*
X84150000Y-128301793D01*
X84150004Y-128301793D01*
X84281600Y-128291436D01*
X84281602Y-128291435D01*
X84281607Y-128291435D01*
X84409974Y-128260617D01*
X84531939Y-128210098D01*
X84644500Y-128141120D01*
X84744884Y-128055384D01*
X84830620Y-127955000D01*
X84899598Y-127842439D01*
X84950117Y-127720474D01*
X84980935Y-127592107D01*
X84991293Y-127460500D01*
X84991293Y-127460495D01*
X85848707Y-127460495D01*
X85848707Y-127460504D01*
X85859063Y-127592100D01*
X85859064Y-127592104D01*
X85889881Y-127720468D01*
X85889882Y-127720470D01*
X85889883Y-127720474D01*
X85940402Y-127842439D01*
X85945358Y-127850526D01*
X86009377Y-127954996D01*
X86009378Y-127954998D01*
X86009380Y-127955000D01*
X86034579Y-127984504D01*
X86095115Y-128055384D01*
X86126839Y-128082478D01*
X86195500Y-128141120D01*
X86308061Y-128210098D01*
X86430026Y-128260617D01*
X86558393Y-128291435D01*
X86558395Y-128291435D01*
X86558399Y-128291436D01*
X86689996Y-128301793D01*
X86690000Y-128301793D01*
X86690004Y-128301793D01*
X86821600Y-128291436D01*
X86821602Y-128291435D01*
X86821607Y-128291435D01*
X86949974Y-128260617D01*
X87071939Y-128210098D01*
X87184500Y-128141120D01*
X87284884Y-128055384D01*
X87370620Y-127955000D01*
X87439598Y-127842439D01*
X87490117Y-127720474D01*
X87520935Y-127592107D01*
X87531293Y-127460500D01*
X87530040Y-127444579D01*
X87520936Y-127328899D01*
X87520935Y-127328895D01*
X87490118Y-127200531D01*
X87490117Y-127200526D01*
X87439598Y-127078561D01*
X87370620Y-126966000D01*
X87336586Y-126926151D01*
X87284884Y-126865615D01*
X87184496Y-126779877D01*
X87131319Y-126747290D01*
X87071939Y-126710902D01*
X86949974Y-126660383D01*
X86949970Y-126660382D01*
X86949968Y-126660381D01*
X86821604Y-126629564D01*
X86821600Y-126629563D01*
X86690004Y-126619207D01*
X86689996Y-126619207D01*
X86558399Y-126629563D01*
X86558395Y-126629564D01*
X86430031Y-126660381D01*
X86430029Y-126660382D01*
X86430027Y-126660382D01*
X86430026Y-126660383D01*
X86308061Y-126710902D01*
X86195503Y-126779877D01*
X86095115Y-126865615D01*
X86009377Y-126966003D01*
X85940402Y-127078561D01*
X85889882Y-127200529D01*
X85889881Y-127200531D01*
X85859064Y-127328895D01*
X85859063Y-127328899D01*
X85848707Y-127460495D01*
X84991293Y-127460495D01*
X84990040Y-127444579D01*
X84980936Y-127328899D01*
X84980935Y-127328895D01*
X84950118Y-127200531D01*
X84950117Y-127200526D01*
X84899598Y-127078561D01*
X84830620Y-126966000D01*
X84796586Y-126926151D01*
X84744884Y-126865615D01*
X84644496Y-126779877D01*
X84591319Y-126747290D01*
X84531939Y-126710902D01*
X84409974Y-126660383D01*
X84409970Y-126660382D01*
X84409968Y-126660381D01*
X84281604Y-126629564D01*
X84281600Y-126629563D01*
X84150004Y-126619207D01*
X84149996Y-126619207D01*
X84018399Y-126629563D01*
X84018395Y-126629564D01*
X83890031Y-126660381D01*
X83890029Y-126660382D01*
X83890027Y-126660382D01*
X83890026Y-126660383D01*
X83768061Y-126710902D01*
X83655503Y-126779877D01*
X83555115Y-126865615D01*
X83469377Y-126966003D01*
X83400402Y-127078561D01*
X83349882Y-127200529D01*
X83349881Y-127200531D01*
X83319064Y-127328895D01*
X83319063Y-127328899D01*
X83308707Y-127460495D01*
X82451293Y-127460495D01*
X82450040Y-127444579D01*
X82440936Y-127328899D01*
X82440935Y-127328895D01*
X82410118Y-127200531D01*
X82410117Y-127200526D01*
X82359598Y-127078561D01*
X82290620Y-126966000D01*
X82256586Y-126926151D01*
X82204884Y-126865615D01*
X82104496Y-126779877D01*
X82051319Y-126747290D01*
X81991939Y-126710902D01*
X81869974Y-126660383D01*
X81869970Y-126660382D01*
X81869968Y-126660381D01*
X81741604Y-126629564D01*
X81741600Y-126629563D01*
X81610004Y-126619207D01*
X81609996Y-126619207D01*
X81478399Y-126629563D01*
X81478395Y-126629564D01*
X81350031Y-126660381D01*
X81350029Y-126660382D01*
X81350027Y-126660382D01*
X81350026Y-126660383D01*
X81228061Y-126710902D01*
X81115503Y-126779877D01*
X81015115Y-126865615D01*
X80929377Y-126966003D01*
X80860402Y-127078561D01*
X80809882Y-127200529D01*
X80809881Y-127200531D01*
X80779064Y-127328895D01*
X80779063Y-127328899D01*
X80768707Y-127460495D01*
X79911293Y-127460495D01*
X79910040Y-127444579D01*
X79900936Y-127328899D01*
X79900935Y-127328895D01*
X79870118Y-127200531D01*
X79870117Y-127200526D01*
X79819598Y-127078561D01*
X79750620Y-126966000D01*
X79716586Y-126926151D01*
X79664884Y-126865615D01*
X79564496Y-126779877D01*
X79511319Y-126747290D01*
X79451939Y-126710902D01*
X79329974Y-126660383D01*
X79329970Y-126660382D01*
X79329968Y-126660381D01*
X79201604Y-126629564D01*
X79201600Y-126629563D01*
X79070004Y-126619207D01*
X79069996Y-126619207D01*
X78938399Y-126629563D01*
X78938395Y-126629564D01*
X78810031Y-126660381D01*
X78810029Y-126660382D01*
X78810027Y-126660382D01*
X78810026Y-126660383D01*
X78688061Y-126710902D01*
X78575503Y-126779877D01*
X78475115Y-126865615D01*
X78389377Y-126966003D01*
X78320402Y-127078561D01*
X78269882Y-127200529D01*
X78269881Y-127200531D01*
X78239064Y-127328895D01*
X78239063Y-127328899D01*
X78228707Y-127460495D01*
X70254500Y-127460495D01*
X70254500Y-124920495D01*
X78228707Y-124920495D01*
X78228707Y-124920504D01*
X78239063Y-125052100D01*
X78239064Y-125052104D01*
X78269881Y-125180468D01*
X78269882Y-125180470D01*
X78269883Y-125180474D01*
X78320402Y-125302439D01*
X78356790Y-125361819D01*
X78389377Y-125414996D01*
X78475115Y-125515384D01*
X78535651Y-125567086D01*
X78575500Y-125601120D01*
X78688061Y-125670098D01*
X78810026Y-125720617D01*
X78938393Y-125751435D01*
X78938395Y-125751435D01*
X78938399Y-125751436D01*
X79069996Y-125761793D01*
X79070000Y-125761793D01*
X79070004Y-125761793D01*
X79201600Y-125751436D01*
X79201602Y-125751435D01*
X79201607Y-125751435D01*
X79329974Y-125720617D01*
X79451939Y-125670098D01*
X79564500Y-125601120D01*
X79664884Y-125515384D01*
X79750620Y-125415000D01*
X79819598Y-125302439D01*
X79870117Y-125180474D01*
X79900935Y-125052107D01*
X79911293Y-124920500D01*
X79911293Y-124920495D01*
X80768707Y-124920495D01*
X80768707Y-124920504D01*
X80779063Y-125052100D01*
X80779064Y-125052104D01*
X80809881Y-125180468D01*
X80809882Y-125180470D01*
X80809883Y-125180474D01*
X80860402Y-125302439D01*
X80896790Y-125361819D01*
X80929377Y-125414996D01*
X81015115Y-125515384D01*
X81075651Y-125567086D01*
X81115500Y-125601120D01*
X81228061Y-125670098D01*
X81350026Y-125720617D01*
X81478393Y-125751435D01*
X81478395Y-125751435D01*
X81478399Y-125751436D01*
X81609996Y-125761793D01*
X81610000Y-125761793D01*
X81610004Y-125761793D01*
X81741600Y-125751436D01*
X81741602Y-125751435D01*
X81741607Y-125751435D01*
X81869974Y-125720617D01*
X81991939Y-125670098D01*
X82104500Y-125601120D01*
X82204884Y-125515384D01*
X82290620Y-125415000D01*
X82359598Y-125302439D01*
X82410117Y-125180474D01*
X82440935Y-125052107D01*
X82451293Y-124920500D01*
X82451293Y-124920495D01*
X83308707Y-124920495D01*
X83308707Y-124920504D01*
X83319063Y-125052100D01*
X83319064Y-125052104D01*
X83349881Y-125180468D01*
X83349882Y-125180470D01*
X83349883Y-125180474D01*
X83400402Y-125302439D01*
X83436790Y-125361819D01*
X83469377Y-125414996D01*
X83555115Y-125515384D01*
X83615651Y-125567086D01*
X83655500Y-125601120D01*
X83768061Y-125670098D01*
X83890026Y-125720617D01*
X84018393Y-125751435D01*
X84018395Y-125751435D01*
X84018399Y-125751436D01*
X84149996Y-125761793D01*
X84150000Y-125761793D01*
X84150004Y-125761793D01*
X84281600Y-125751436D01*
X84281602Y-125751435D01*
X84281607Y-125751435D01*
X84409974Y-125720617D01*
X84531939Y-125670098D01*
X84644500Y-125601120D01*
X84744884Y-125515384D01*
X84830620Y-125415000D01*
X84899598Y-125302439D01*
X84950117Y-125180474D01*
X84980935Y-125052107D01*
X84991293Y-124920500D01*
X84991293Y-124920495D01*
X85848707Y-124920495D01*
X85848707Y-124920504D01*
X85859063Y-125052100D01*
X85859064Y-125052104D01*
X85889881Y-125180468D01*
X85889882Y-125180470D01*
X85889883Y-125180474D01*
X85940402Y-125302439D01*
X85976790Y-125361819D01*
X86009377Y-125414996D01*
X86095115Y-125515384D01*
X86155651Y-125567086D01*
X86195500Y-125601120D01*
X86308061Y-125670098D01*
X86430026Y-125720617D01*
X86558393Y-125751435D01*
X86558395Y-125751435D01*
X86558399Y-125751436D01*
X86689996Y-125761793D01*
X86690000Y-125761793D01*
X86690004Y-125761793D01*
X86821600Y-125751436D01*
X86821602Y-125751435D01*
X86821607Y-125751435D01*
X86949974Y-125720617D01*
X87071939Y-125670098D01*
X87184500Y-125601120D01*
X87284884Y-125515384D01*
X87370620Y-125415000D01*
X87439598Y-125302439D01*
X87490117Y-125180474D01*
X87520935Y-125052107D01*
X87531293Y-124920500D01*
X87531293Y-124920495D01*
X88388707Y-124920495D01*
X88388707Y-124920504D01*
X88399063Y-125052100D01*
X88399064Y-125052104D01*
X88429881Y-125180468D01*
X88429882Y-125180470D01*
X88429883Y-125180474D01*
X88480402Y-125302439D01*
X88516790Y-125361819D01*
X88549377Y-125414996D01*
X88635115Y-125515384D01*
X88695651Y-125567086D01*
X88735500Y-125601120D01*
X88848061Y-125670098D01*
X88970026Y-125720617D01*
X89098393Y-125751435D01*
X89098395Y-125751435D01*
X89098399Y-125751436D01*
X89229996Y-125761793D01*
X89230000Y-125761793D01*
X89230004Y-125761793D01*
X89361600Y-125751436D01*
X89361602Y-125751435D01*
X89361607Y-125751435D01*
X89489974Y-125720617D01*
X89611939Y-125670098D01*
X89724500Y-125601120D01*
X89824884Y-125515384D01*
X89910620Y-125415000D01*
X89979598Y-125302439D01*
X90030117Y-125180474D01*
X90060935Y-125052107D01*
X90071293Y-124920500D01*
X90070040Y-124904579D01*
X90060936Y-124788899D01*
X90060935Y-124788895D01*
X90030118Y-124660531D01*
X90030117Y-124660526D01*
X89979598Y-124538561D01*
X89910620Y-124426000D01*
X89876586Y-124386151D01*
X89824884Y-124325615D01*
X89724496Y-124239877D01*
X89671319Y-124207290D01*
X89611939Y-124170902D01*
X89489974Y-124120383D01*
X89489970Y-124120382D01*
X89489968Y-124120381D01*
X89361604Y-124089564D01*
X89361600Y-124089563D01*
X89230004Y-124079207D01*
X89229996Y-124079207D01*
X89098399Y-124089563D01*
X89098395Y-124089564D01*
X88970031Y-124120381D01*
X88970029Y-124120382D01*
X88970027Y-124120382D01*
X88970026Y-124120383D01*
X88858153Y-124166722D01*
X88848061Y-124170902D01*
X88735503Y-124239877D01*
X88635115Y-124325615D01*
X88549377Y-124426003D01*
X88480402Y-124538561D01*
X88429882Y-124660529D01*
X88429881Y-124660531D01*
X88399064Y-124788895D01*
X88399063Y-124788899D01*
X88388707Y-124920495D01*
X87531293Y-124920495D01*
X87530040Y-124904579D01*
X87520936Y-124788899D01*
X87520935Y-124788895D01*
X87490118Y-124660531D01*
X87490117Y-124660526D01*
X87439598Y-124538561D01*
X87370620Y-124426000D01*
X87336586Y-124386151D01*
X87284884Y-124325615D01*
X87184496Y-124239877D01*
X87131319Y-124207290D01*
X87071939Y-124170902D01*
X86949974Y-124120383D01*
X86949970Y-124120382D01*
X86949968Y-124120381D01*
X86821604Y-124089564D01*
X86821600Y-124089563D01*
X86690004Y-124079207D01*
X86689996Y-124079207D01*
X86558399Y-124089563D01*
X86558395Y-124089564D01*
X86430031Y-124120381D01*
X86430029Y-124120382D01*
X86430027Y-124120382D01*
X86430026Y-124120383D01*
X86318153Y-124166722D01*
X86308061Y-124170902D01*
X86195503Y-124239877D01*
X86095115Y-124325615D01*
X86009377Y-124426003D01*
X85940402Y-124538561D01*
X85889882Y-124660529D01*
X85889881Y-124660531D01*
X85859064Y-124788895D01*
X85859063Y-124788899D01*
X85848707Y-124920495D01*
X84991293Y-124920495D01*
X84990040Y-124904579D01*
X84980936Y-124788899D01*
X84980935Y-124788895D01*
X84950118Y-124660531D01*
X84950117Y-124660526D01*
X84899598Y-124538561D01*
X84830620Y-124426000D01*
X84796586Y-124386151D01*
X84744884Y-124325615D01*
X84644496Y-124239877D01*
X84591319Y-124207290D01*
X84531939Y-124170902D01*
X84409974Y-124120383D01*
X84409970Y-124120382D01*
X84409968Y-124120381D01*
X84281604Y-124089564D01*
X84281600Y-124089563D01*
X84150004Y-124079207D01*
X84149996Y-124079207D01*
X84018399Y-124089563D01*
X84018395Y-124089564D01*
X83890031Y-124120381D01*
X83890029Y-124120382D01*
X83890027Y-124120382D01*
X83890026Y-124120383D01*
X83778153Y-124166722D01*
X83768061Y-124170902D01*
X83655503Y-124239877D01*
X83555115Y-124325615D01*
X83469377Y-124426003D01*
X83400402Y-124538561D01*
X83349882Y-124660529D01*
X83349881Y-124660531D01*
X83319064Y-124788895D01*
X83319063Y-124788899D01*
X83308707Y-124920495D01*
X82451293Y-124920495D01*
X82450040Y-124904579D01*
X82440936Y-124788899D01*
X82440935Y-124788895D01*
X82410118Y-124660531D01*
X82410117Y-124660526D01*
X82359598Y-124538561D01*
X82290620Y-124426000D01*
X82256586Y-124386151D01*
X82204884Y-124325615D01*
X82104496Y-124239877D01*
X82051319Y-124207290D01*
X81991939Y-124170902D01*
X81869974Y-124120383D01*
X81869970Y-124120382D01*
X81869968Y-124120381D01*
X81741604Y-124089564D01*
X81741600Y-124089563D01*
X81610004Y-124079207D01*
X81609996Y-124079207D01*
X81478399Y-124089563D01*
X81478395Y-124089564D01*
X81350031Y-124120381D01*
X81350029Y-124120382D01*
X81350027Y-124120382D01*
X81350026Y-124120383D01*
X81238153Y-124166722D01*
X81228061Y-124170902D01*
X81115503Y-124239877D01*
X81015115Y-124325615D01*
X80929377Y-124426003D01*
X80860402Y-124538561D01*
X80809882Y-124660529D01*
X80809881Y-124660531D01*
X80779064Y-124788895D01*
X80779063Y-124788899D01*
X80768707Y-124920495D01*
X79911293Y-124920495D01*
X79910040Y-124904579D01*
X79900936Y-124788899D01*
X79900935Y-124788895D01*
X79870118Y-124660531D01*
X79870117Y-124660526D01*
X79819598Y-124538561D01*
X79750620Y-124426000D01*
X79716586Y-124386151D01*
X79664884Y-124325615D01*
X79564496Y-124239877D01*
X79511319Y-124207290D01*
X79451939Y-124170902D01*
X79329974Y-124120383D01*
X79329970Y-124120382D01*
X79329968Y-124120381D01*
X79201604Y-124089564D01*
X79201600Y-124089563D01*
X79070004Y-124079207D01*
X79069996Y-124079207D01*
X78938399Y-124089563D01*
X78938395Y-124089564D01*
X78810031Y-124120381D01*
X78810029Y-124120382D01*
X78810027Y-124120382D01*
X78810026Y-124120383D01*
X78698153Y-124166722D01*
X78688061Y-124170902D01*
X78575503Y-124239877D01*
X78475115Y-124325615D01*
X78389377Y-124426003D01*
X78320402Y-124538561D01*
X78269882Y-124660529D01*
X78269881Y-124660531D01*
X78239064Y-124788895D01*
X78239063Y-124788899D01*
X78228707Y-124920495D01*
X70254500Y-124920495D01*
X70254500Y-115397500D01*
X76228986Y-115397500D01*
X76238611Y-115482925D01*
X76238612Y-115482930D01*
X76267005Y-115564075D01*
X76312742Y-115636863D01*
X76312744Y-115636866D01*
X76373534Y-115697656D01*
X76446326Y-115743395D01*
X76527471Y-115771788D01*
X76612900Y-115781414D01*
X76698329Y-115771788D01*
X76779474Y-115743395D01*
X76852266Y-115697656D01*
X76913056Y-115636866D01*
X76958795Y-115564074D01*
X76987188Y-115482929D01*
X76996814Y-115397500D01*
X76987188Y-115312071D01*
X76958795Y-115230926D01*
X76913056Y-115158134D01*
X76852266Y-115097344D01*
X76852265Y-115097343D01*
X76852263Y-115097342D01*
X76779475Y-115051605D01*
X76698330Y-115023212D01*
X76698325Y-115023211D01*
X76612900Y-115013586D01*
X76527474Y-115023211D01*
X76527469Y-115023212D01*
X76446324Y-115051605D01*
X76373536Y-115097342D01*
X76373534Y-115097343D01*
X76312743Y-115158134D01*
X76312742Y-115158136D01*
X76267005Y-115230924D01*
X76238612Y-115312069D01*
X76238611Y-115312074D01*
X76228986Y-115397500D01*
X70254500Y-115397500D01*
X70254500Y-114762500D01*
X76990986Y-114762500D01*
X77000611Y-114847925D01*
X77000612Y-114847930D01*
X77029005Y-114929075D01*
X77074742Y-115001863D01*
X77074743Y-115001865D01*
X77135534Y-115062656D01*
X77135536Y-115062657D01*
X77190735Y-115097342D01*
X77208326Y-115108395D01*
X77289471Y-115136788D01*
X77374900Y-115146414D01*
X77460329Y-115136788D01*
X77541474Y-115108395D01*
X77614266Y-115062656D01*
X77675056Y-115001866D01*
X77720795Y-114929074D01*
X77749188Y-114847929D01*
X77758814Y-114762500D01*
X77749188Y-114677071D01*
X77720795Y-114595926D01*
X77675056Y-114523134D01*
X77614266Y-114462344D01*
X77614265Y-114462343D01*
X77614263Y-114462342D01*
X77541475Y-114416605D01*
X77460330Y-114388212D01*
X77460325Y-114388211D01*
X77374900Y-114378586D01*
X77289474Y-114388211D01*
X77289469Y-114388212D01*
X77208324Y-114416605D01*
X77135536Y-114462342D01*
X77135534Y-114462343D01*
X77074743Y-114523134D01*
X77074742Y-114523136D01*
X77029005Y-114595924D01*
X77000612Y-114677069D01*
X77000611Y-114677074D01*
X76990986Y-114762500D01*
X70254500Y-114762500D01*
X70254500Y-90317000D01*
X70264422Y-90283210D01*
X70291037Y-90260148D01*
X70317000Y-90254500D01*
X99314000Y-90254500D01*
X99314000Y-91322821D01*
G37*
%TD.AperFunction*%
%TA.AperFunction,Conductor*%
G36*
X95544978Y-105254282D02*
G01*
X95555382Y-105262666D01*
X96094794Y-105802078D01*
X96111672Y-105832987D01*
X96113100Y-105846272D01*
X96113100Y-108986218D01*
X96103178Y-109020008D01*
X96076563Y-109043070D01*
X96041705Y-109048082D01*
X96009671Y-109033452D01*
X96006406Y-109030412D01*
X95491872Y-108515878D01*
X95474994Y-108484969D01*
X95473959Y-108464691D01*
X95482114Y-108392320D01*
X95472488Y-108306891D01*
X95444095Y-108225746D01*
X95398356Y-108152954D01*
X95337566Y-108092164D01*
X95337565Y-108092163D01*
X95337563Y-108092162D01*
X95264775Y-108046425D01*
X95183630Y-108018032D01*
X95183625Y-108018031D01*
X95098200Y-108008406D01*
X95012774Y-108018031D01*
X95012769Y-108018032D01*
X94931624Y-108046425D01*
X94858836Y-108092162D01*
X94858834Y-108092163D01*
X94798043Y-108152954D01*
X94798042Y-108152956D01*
X94752305Y-108225744D01*
X94723912Y-108306889D01*
X94723911Y-108306894D01*
X94714286Y-108392320D01*
X94723911Y-108477745D01*
X94723913Y-108477753D01*
X94742135Y-108529831D01*
X94743930Y-108565002D01*
X94726425Y-108595559D01*
X94703785Y-108609464D01*
X94665367Y-108622907D01*
X94592576Y-108668646D01*
X94592574Y-108668647D01*
X94531783Y-108729438D01*
X94531782Y-108729440D01*
X94486045Y-108802228D01*
X94457652Y-108883373D01*
X94457651Y-108883378D01*
X94448026Y-108968804D01*
X94457652Y-109054237D01*
X94458183Y-109056562D01*
X94456028Y-109091713D01*
X94435212Y-109120118D01*
X94402343Y-109132760D01*
X94367856Y-109125625D01*
X94353056Y-109114662D01*
X93470486Y-108232092D01*
X93453608Y-108201183D01*
X93452180Y-108187898D01*
X93452180Y-106417240D01*
X95084486Y-106417240D01*
X95094111Y-106502665D01*
X95094112Y-106502670D01*
X95122505Y-106583815D01*
X95132606Y-106599890D01*
X95168244Y-106656606D01*
X95229034Y-106717396D01*
X95301826Y-106763135D01*
X95382971Y-106791528D01*
X95468400Y-106801154D01*
X95553829Y-106791528D01*
X95634974Y-106763135D01*
X95707766Y-106717396D01*
X95768556Y-106656606D01*
X95814295Y-106583814D01*
X95842688Y-106502669D01*
X95852314Y-106417240D01*
X95842688Y-106331811D01*
X95814295Y-106250666D01*
X95768556Y-106177874D01*
X95707766Y-106117084D01*
X95707765Y-106117083D01*
X95707763Y-106117082D01*
X95634975Y-106071345D01*
X95553830Y-106042952D01*
X95553825Y-106042951D01*
X95468400Y-106033326D01*
X95382974Y-106042951D01*
X95382969Y-106042952D01*
X95301824Y-106071345D01*
X95229036Y-106117082D01*
X95229034Y-106117083D01*
X95168243Y-106177874D01*
X95168242Y-106177876D01*
X95122505Y-106250664D01*
X95094112Y-106331809D01*
X95094111Y-106331814D01*
X95084486Y-106417240D01*
X93452180Y-106417240D01*
X93452180Y-106204205D01*
X93452178Y-106204197D01*
X93445125Y-106177876D01*
X93439164Y-106155627D01*
X93424683Y-106130546D01*
X93414020Y-106112076D01*
X93414017Y-106112072D01*
X93378457Y-106076512D01*
X93378454Y-106076510D01*
X93376274Y-106074330D01*
X93376274Y-106074329D01*
X93376268Y-106074324D01*
X92652998Y-105351054D01*
X92636120Y-105320145D01*
X92638633Y-105285018D01*
X92659737Y-105256826D01*
X92692733Y-105244519D01*
X92697192Y-105244360D01*
X95511188Y-105244360D01*
X95544978Y-105254282D01*
G37*
%TD.AperFunction*%
%TD*%
%TA.AperFunction,Conductor*%
%TO.N,GND3*%
G36*
X119716790Y-90264422D02*
G01*
X119739852Y-90291037D01*
X119745500Y-90317000D01*
X119745500Y-129683000D01*
X119735578Y-129716790D01*
X119708963Y-129739852D01*
X119683000Y-129745500D01*
X90678000Y-129745500D01*
X90678000Y-128558964D01*
X91087971Y-128968936D01*
X91087972Y-128968937D01*
X91123532Y-129004497D01*
X91123536Y-129004500D01*
X91167081Y-129029641D01*
X91167083Y-129029642D01*
X91167087Y-129029644D01*
X91215664Y-129042660D01*
X91215665Y-129042660D01*
X98023985Y-129042660D01*
X98023986Y-129042660D01*
X98048274Y-129036152D01*
X98048276Y-129036152D01*
X98064467Y-129031813D01*
X98072564Y-129029644D01*
X98094340Y-129017071D01*
X98116117Y-129004498D01*
X98151678Y-128968937D01*
X98151678Y-128968935D01*
X98156823Y-128963791D01*
X98156825Y-128963788D01*
X98912740Y-128207872D01*
X98943647Y-128190996D01*
X98978774Y-128193509D01*
X98989588Y-128198778D01*
X99003153Y-128207090D01*
X99008061Y-128210098D01*
X99130026Y-128260617D01*
X99258393Y-128291435D01*
X99258395Y-128291435D01*
X99258399Y-128291436D01*
X99389996Y-128301793D01*
X99390000Y-128301793D01*
X99390004Y-128301793D01*
X99521600Y-128291436D01*
X99521602Y-128291435D01*
X99521607Y-128291435D01*
X99649974Y-128260617D01*
X99771939Y-128210098D01*
X99884500Y-128141120D01*
X99984884Y-128055384D01*
X100070620Y-127955000D01*
X100139598Y-127842439D01*
X100190117Y-127720474D01*
X100220935Y-127592107D01*
X100231293Y-127460500D01*
X100230040Y-127444579D01*
X100220936Y-127328899D01*
X100220935Y-127328895D01*
X100190118Y-127200531D01*
X100190117Y-127200526D01*
X100139598Y-127078561D01*
X100070620Y-126966000D01*
X100036586Y-126926151D01*
X99984884Y-126865615D01*
X99884496Y-126779877D01*
X99805416Y-126731417D01*
X99771939Y-126710902D01*
X99649974Y-126660383D01*
X99649970Y-126660382D01*
X99649968Y-126660381D01*
X99521604Y-126629564D01*
X99521600Y-126629563D01*
X99390004Y-126619207D01*
X99389996Y-126619207D01*
X99258399Y-126629563D01*
X99258395Y-126629564D01*
X99130031Y-126660381D01*
X99130029Y-126660382D01*
X99130027Y-126660382D01*
X99130026Y-126660383D01*
X99008066Y-126710900D01*
X99008061Y-126710902D01*
X98895503Y-126779877D01*
X98795115Y-126865615D01*
X98709377Y-126966003D01*
X98640402Y-127078561D01*
X98589882Y-127200529D01*
X98589881Y-127200531D01*
X98559064Y-127328895D01*
X98559063Y-127328899D01*
X98548707Y-127460495D01*
X98548707Y-127460504D01*
X98559063Y-127592100D01*
X98559064Y-127592104D01*
X98589881Y-127720468D01*
X98589882Y-127720470D01*
X98589883Y-127720474D01*
X98640402Y-127842439D01*
X98651721Y-127860911D01*
X98660917Y-127894903D01*
X98650274Y-127928473D01*
X98642625Y-127937759D01*
X97938032Y-128642354D01*
X97907123Y-128659232D01*
X97893838Y-128660660D01*
X97604442Y-128660660D01*
X97570652Y-128650738D01*
X97547590Y-128624123D01*
X97542578Y-128589265D01*
X97557208Y-128557231D01*
X97560248Y-128553966D01*
X97632354Y-128481858D01*
X98026590Y-128087622D01*
X98026595Y-128087619D01*
X98031735Y-128082478D01*
X98031737Y-128082478D01*
X98067298Y-128046917D01*
X98085295Y-128015745D01*
X98092444Y-128003364D01*
X98102601Y-127965455D01*
X98105460Y-127954786D01*
X98105460Y-126501041D01*
X98115382Y-126467251D01*
X98123761Y-126456852D01*
X98912740Y-125667872D01*
X98943647Y-125650996D01*
X98978773Y-125653509D01*
X98989588Y-125658778D01*
X99003153Y-125667090D01*
X99008061Y-125670098D01*
X99130026Y-125720617D01*
X99258393Y-125751435D01*
X99258395Y-125751435D01*
X99258399Y-125751436D01*
X99389996Y-125761793D01*
X99390000Y-125761793D01*
X99390004Y-125761793D01*
X99521600Y-125751436D01*
X99521602Y-125751435D01*
X99521607Y-125751435D01*
X99649974Y-125720617D01*
X99771939Y-125670098D01*
X99884500Y-125601120D01*
X99984884Y-125515384D01*
X100070620Y-125415000D01*
X100139598Y-125302439D01*
X100190117Y-125180474D01*
X100220935Y-125052107D01*
X100221687Y-125042559D01*
X100231293Y-124920504D01*
X100231293Y-124920495D01*
X101088707Y-124920495D01*
X101088707Y-124920504D01*
X101099063Y-125052100D01*
X101099064Y-125052104D01*
X101129881Y-125180468D01*
X101129882Y-125180470D01*
X101129883Y-125180474D01*
X101180402Y-125302439D01*
X101212552Y-125354903D01*
X101249377Y-125414996D01*
X101335115Y-125515384D01*
X101395651Y-125567086D01*
X101435500Y-125601120D01*
X101548061Y-125670098D01*
X101670026Y-125720617D01*
X101798393Y-125751435D01*
X101798395Y-125751435D01*
X101798399Y-125751436D01*
X101929996Y-125761793D01*
X101930000Y-125761793D01*
X101930004Y-125761793D01*
X102061600Y-125751436D01*
X102061602Y-125751435D01*
X102061607Y-125751435D01*
X102189974Y-125720617D01*
X102311939Y-125670098D01*
X102424500Y-125601120D01*
X102524884Y-125515384D01*
X102610620Y-125415000D01*
X102679598Y-125302439D01*
X102730117Y-125180474D01*
X102760935Y-125052107D01*
X102761687Y-125042559D01*
X102771293Y-124920504D01*
X102771293Y-124920495D01*
X102760936Y-124788899D01*
X102760935Y-124788895D01*
X102754571Y-124762387D01*
X102730117Y-124660526D01*
X102679598Y-124538561D01*
X102610620Y-124426000D01*
X102576586Y-124386151D01*
X102524884Y-124325615D01*
X102424496Y-124239877D01*
X102371319Y-124207290D01*
X102311939Y-124170902D01*
X102189974Y-124120383D01*
X102189970Y-124120382D01*
X102189968Y-124120381D01*
X102061604Y-124089564D01*
X102061600Y-124089563D01*
X101930004Y-124079207D01*
X101929996Y-124079207D01*
X101798399Y-124089563D01*
X101798395Y-124089564D01*
X101670031Y-124120381D01*
X101670029Y-124120382D01*
X101670027Y-124120382D01*
X101670026Y-124120383D01*
X101558121Y-124166735D01*
X101548061Y-124170902D01*
X101435503Y-124239877D01*
X101335115Y-124325615D01*
X101249377Y-124426003D01*
X101180402Y-124538561D01*
X101129882Y-124660529D01*
X101129881Y-124660531D01*
X101099064Y-124788895D01*
X101099063Y-124788899D01*
X101088707Y-124920495D01*
X100231293Y-124920495D01*
X100220936Y-124788899D01*
X100220935Y-124788895D01*
X100214571Y-124762387D01*
X100190117Y-124660526D01*
X100139598Y-124538561D01*
X100070620Y-124426000D01*
X100036586Y-124386151D01*
X99984884Y-124325615D01*
X99884496Y-124239877D01*
X99831319Y-124207290D01*
X99771939Y-124170902D01*
X99649974Y-124120383D01*
X99649970Y-124120382D01*
X99649968Y-124120381D01*
X99521604Y-124089564D01*
X99521600Y-124089563D01*
X99390004Y-124079207D01*
X99389996Y-124079207D01*
X99258399Y-124089563D01*
X99258395Y-124089564D01*
X99130031Y-124120381D01*
X99130029Y-124120382D01*
X99130027Y-124120382D01*
X99130026Y-124120383D01*
X99018121Y-124166735D01*
X99008061Y-124170902D01*
X98895503Y-124239877D01*
X98795115Y-124325615D01*
X98709377Y-124426003D01*
X98640402Y-124538561D01*
X98589882Y-124660529D01*
X98589881Y-124660531D01*
X98559064Y-124788895D01*
X98559063Y-124788899D01*
X98548707Y-124920495D01*
X98548707Y-124920504D01*
X98559063Y-125052100D01*
X98559064Y-125052104D01*
X98589881Y-125180468D01*
X98589882Y-125180470D01*
X98589883Y-125180474D01*
X98640402Y-125302439D01*
X98651721Y-125320911D01*
X98660917Y-125354903D01*
X98650274Y-125388473D01*
X98642625Y-125397759D01*
X97832768Y-126207617D01*
X97797185Y-126243200D01*
X97797183Y-126243202D01*
X97779402Y-126260982D01*
X97761622Y-126278762D01*
X97761621Y-126278763D01*
X97756592Y-126287475D01*
X97736477Y-126322312D01*
X97736476Y-126322316D01*
X97729968Y-126346605D01*
X97729968Y-126346606D01*
X97723460Y-126370889D01*
X97723460Y-127063381D01*
X97713538Y-127097171D01*
X97686923Y-127120233D01*
X97652065Y-127125245D01*
X97620031Y-127110615D01*
X97603218Y-127087299D01*
X97599600Y-127078566D01*
X97599598Y-127078562D01*
X97599598Y-127078561D01*
X97530620Y-126966000D01*
X97496586Y-126926151D01*
X97444884Y-126865615D01*
X97344496Y-126779877D01*
X97265416Y-126731417D01*
X97231939Y-126710902D01*
X97109974Y-126660383D01*
X97109970Y-126660382D01*
X97109968Y-126660381D01*
X96981604Y-126629564D01*
X96981600Y-126629563D01*
X96850004Y-126619207D01*
X96849996Y-126619207D01*
X96718399Y-126629563D01*
X96718395Y-126629564D01*
X96590031Y-126660381D01*
X96590029Y-126660382D01*
X96590027Y-126660382D01*
X96590026Y-126660383D01*
X96554307Y-126675178D01*
X96468062Y-126710901D01*
X96449588Y-126722222D01*
X96415592Y-126731417D01*
X96382023Y-126720772D01*
X96372739Y-126713125D01*
X96005406Y-126345791D01*
X95988528Y-126314882D01*
X95987100Y-126301597D01*
X95987100Y-125339154D01*
X95997022Y-125305364D01*
X96023637Y-125282302D01*
X96058495Y-125277290D01*
X96090529Y-125291920D01*
X96102887Y-125306495D01*
X96132552Y-125354903D01*
X96169377Y-125414996D01*
X96255115Y-125515384D01*
X96315651Y-125567086D01*
X96355500Y-125601120D01*
X96468061Y-125670098D01*
X96590026Y-125720617D01*
X96718393Y-125751435D01*
X96718395Y-125751435D01*
X96718399Y-125751436D01*
X96849996Y-125761793D01*
X96850000Y-125761793D01*
X96850004Y-125761793D01*
X96981600Y-125751436D01*
X96981602Y-125751435D01*
X96981607Y-125751435D01*
X97109974Y-125720617D01*
X97231939Y-125670098D01*
X97344500Y-125601120D01*
X97444884Y-125515384D01*
X97530620Y-125415000D01*
X97599598Y-125302439D01*
X97650117Y-125180474D01*
X97680935Y-125052107D01*
X97681687Y-125042559D01*
X97691293Y-124920504D01*
X97691293Y-124920495D01*
X97680936Y-124788899D01*
X97680935Y-124788895D01*
X97674571Y-124762387D01*
X97650117Y-124660526D01*
X97599598Y-124538561D01*
X97530620Y-124426000D01*
X97496586Y-124386151D01*
X97444884Y-124325615D01*
X97344496Y-124239877D01*
X97291319Y-124207290D01*
X97231939Y-124170902D01*
X97109974Y-124120383D01*
X97109970Y-124120382D01*
X97109968Y-124120381D01*
X96981604Y-124089564D01*
X96981600Y-124089563D01*
X96850004Y-124079207D01*
X96849996Y-124079207D01*
X96718399Y-124089563D01*
X96718395Y-124089564D01*
X96590031Y-124120381D01*
X96590029Y-124120382D01*
X96590027Y-124120382D01*
X96590026Y-124120383D01*
X96554307Y-124135178D01*
X96468062Y-124170901D01*
X96449588Y-124182222D01*
X96415592Y-124191417D01*
X96382023Y-124180772D01*
X96372739Y-124173125D01*
X96324302Y-124124688D01*
X96259406Y-124059791D01*
X96242528Y-124028882D01*
X96241100Y-124015597D01*
X96241100Y-120054760D01*
X97012846Y-120054760D01*
X97022471Y-120140185D01*
X97022472Y-120140190D01*
X97050865Y-120221335D01*
X97096602Y-120294123D01*
X97096603Y-120294125D01*
X97157394Y-120354916D01*
X97157396Y-120354917D01*
X97213230Y-120390001D01*
X97230186Y-120400655D01*
X97311331Y-120429048D01*
X97396760Y-120438674D01*
X97482189Y-120429048D01*
X97563334Y-120400655D01*
X97636126Y-120354916D01*
X97696916Y-120294126D01*
X97742655Y-120221334D01*
X97771048Y-120140189D01*
X97780674Y-120054760D01*
X97771048Y-119969331D01*
X97742655Y-119888186D01*
X97696916Y-119815394D01*
X97636126Y-119754604D01*
X97636125Y-119754603D01*
X97636123Y-119754602D01*
X97563335Y-119708865D01*
X97482190Y-119680472D01*
X97482185Y-119680471D01*
X97396760Y-119670846D01*
X97311334Y-119680471D01*
X97311329Y-119680472D01*
X97230184Y-119708865D01*
X97157396Y-119754602D01*
X97157394Y-119754603D01*
X97096603Y-119815394D01*
X97096602Y-119815396D01*
X97050865Y-119888184D01*
X97022472Y-119969329D01*
X97022471Y-119969334D01*
X97012846Y-120054760D01*
X96241100Y-120054760D01*
X96241100Y-119113000D01*
X97012846Y-119113000D01*
X97022471Y-119198425D01*
X97022472Y-119198430D01*
X97050865Y-119279575D01*
X97096602Y-119352363D01*
X97096604Y-119352366D01*
X97157394Y-119413156D01*
X97230186Y-119458895D01*
X97311331Y-119487288D01*
X97396760Y-119496914D01*
X97482189Y-119487288D01*
X97563334Y-119458895D01*
X97636126Y-119413156D01*
X97696916Y-119352366D01*
X97742655Y-119279574D01*
X97771048Y-119198429D01*
X97780674Y-119113000D01*
X102450986Y-119113000D01*
X102460611Y-119198425D01*
X102460612Y-119198430D01*
X102489005Y-119279575D01*
X102534742Y-119352363D01*
X102534744Y-119352366D01*
X102595534Y-119413156D01*
X102668326Y-119458895D01*
X102749471Y-119487288D01*
X102834900Y-119496914D01*
X102920329Y-119487288D01*
X103001474Y-119458895D01*
X103074266Y-119413156D01*
X103135056Y-119352366D01*
X103180795Y-119279574D01*
X103209188Y-119198429D01*
X103218814Y-119113000D01*
X103209188Y-119027571D01*
X103180795Y-118946426D01*
X103135056Y-118873634D01*
X103074266Y-118812844D01*
X103074265Y-118812843D01*
X103074263Y-118812842D01*
X103001475Y-118767105D01*
X102920330Y-118738712D01*
X102920325Y-118738711D01*
X102834900Y-118729086D01*
X102749474Y-118738711D01*
X102749469Y-118738712D01*
X102668324Y-118767105D01*
X102595536Y-118812842D01*
X102595534Y-118812843D01*
X102534743Y-118873634D01*
X102534742Y-118873636D01*
X102489005Y-118946424D01*
X102460612Y-119027569D01*
X102460611Y-119027574D01*
X102450986Y-119113000D01*
X97780674Y-119113000D01*
X97771048Y-119027571D01*
X97742655Y-118946426D01*
X97696916Y-118873634D01*
X97636126Y-118812844D01*
X97636125Y-118812843D01*
X97636123Y-118812842D01*
X97563335Y-118767105D01*
X97482190Y-118738712D01*
X97482185Y-118738711D01*
X97396760Y-118729086D01*
X97311334Y-118738711D01*
X97311329Y-118738712D01*
X97230184Y-118767105D01*
X97157396Y-118812842D01*
X97157394Y-118812843D01*
X97096603Y-118873634D01*
X97096602Y-118873636D01*
X97050865Y-118946424D01*
X97022472Y-119027569D01*
X97022471Y-119027574D01*
X97012846Y-119113000D01*
X96241100Y-119113000D01*
X96241100Y-116118502D01*
X96251022Y-116084712D01*
X96277637Y-116061650D01*
X96312495Y-116056638D01*
X96344529Y-116071268D01*
X96347794Y-116074308D01*
X98155657Y-117882173D01*
X98155663Y-117882178D01*
X98199216Y-117907324D01*
X98247794Y-117920340D01*
X109988358Y-117920340D01*
X110022148Y-117930262D01*
X110032552Y-117938646D01*
X110715687Y-118621781D01*
X110732565Y-118652690D01*
X110733600Y-118672973D01*
X110725446Y-118745339D01*
X110735071Y-118830765D01*
X110735072Y-118830770D01*
X110763465Y-118911915D01*
X110809202Y-118984703D01*
X110809204Y-118984706D01*
X110869994Y-119045496D01*
X110942786Y-119091235D01*
X111023931Y-119119628D01*
X111109360Y-119129254D01*
X111194789Y-119119628D01*
X111275934Y-119091235D01*
X111348726Y-119045496D01*
X111409516Y-118984706D01*
X111455255Y-118911914D01*
X111483648Y-118830769D01*
X111493274Y-118745340D01*
X111483648Y-118659911D01*
X111455255Y-118578766D01*
X111409516Y-118505974D01*
X111348726Y-118445184D01*
X111348725Y-118445183D01*
X111348723Y-118445182D01*
X111275935Y-118399445D01*
X111194790Y-118371052D01*
X111194785Y-118371051D01*
X111109360Y-118361426D01*
X111036993Y-118369580D01*
X111002304Y-118363504D01*
X110985801Y-118351667D01*
X110407168Y-117773034D01*
X110390290Y-117742125D01*
X110392803Y-117706998D01*
X110413907Y-117678806D01*
X110446903Y-117666499D01*
X110451362Y-117666340D01*
X110744271Y-117666340D01*
X110778061Y-117676262D01*
X110797191Y-117695588D01*
X110809202Y-117714704D01*
X110809203Y-117714705D01*
X110809204Y-117714706D01*
X110869994Y-117775496D01*
X110942786Y-117821235D01*
X111023931Y-117849628D01*
X111109360Y-117859254D01*
X111194789Y-117849628D01*
X111275934Y-117821235D01*
X111348726Y-117775496D01*
X111409516Y-117714706D01*
X111455255Y-117641914D01*
X111483648Y-117560769D01*
X111493274Y-117475340D01*
X111483648Y-117389911D01*
X111455255Y-117308766D01*
X111409516Y-117235974D01*
X111348726Y-117175184D01*
X111348725Y-117175183D01*
X111348723Y-117175182D01*
X111275935Y-117129445D01*
X111194790Y-117101052D01*
X111194785Y-117101051D01*
X111109360Y-117091426D01*
X111023934Y-117101051D01*
X111023929Y-117101052D01*
X110942784Y-117129445D01*
X110869996Y-117175182D01*
X110869994Y-117175183D01*
X110809202Y-117235975D01*
X110797191Y-117255092D01*
X110770813Y-117278424D01*
X110744271Y-117284340D01*
X98483153Y-117284340D01*
X98449363Y-117274418D01*
X98438959Y-117266034D01*
X97934725Y-116761800D01*
X105083086Y-116761800D01*
X105092711Y-116847225D01*
X105092712Y-116847230D01*
X105121105Y-116928375D01*
X105166842Y-117001163D01*
X105166844Y-117001166D01*
X105227634Y-117061956D01*
X105300426Y-117107695D01*
X105381571Y-117136088D01*
X105467000Y-117145714D01*
X105552429Y-117136088D01*
X105633574Y-117107695D01*
X105706366Y-117061956D01*
X105767156Y-117001166D01*
X105812895Y-116928374D01*
X105841288Y-116847229D01*
X105850914Y-116761800D01*
X105844685Y-116706521D01*
X105850761Y-116671835D01*
X105874626Y-116645938D01*
X105899791Y-116637419D01*
X105952429Y-116631488D01*
X106033574Y-116603095D01*
X106106366Y-116557356D01*
X106167156Y-116496566D01*
X106204080Y-116437803D01*
X106230458Y-116414471D01*
X106265263Y-116409104D01*
X106297445Y-116423406D01*
X106309920Y-116437803D01*
X106346842Y-116496563D01*
X106346843Y-116496565D01*
X106407634Y-116557356D01*
X106407636Y-116557357D01*
X106467902Y-116595226D01*
X106480426Y-116603095D01*
X106561571Y-116631488D01*
X106604771Y-116636355D01*
X106613000Y-116637283D01*
X106645467Y-116650926D01*
X106665404Y-116679956D01*
X106668109Y-116706387D01*
X106661866Y-116761798D01*
X106661866Y-116761799D01*
X106671491Y-116847225D01*
X106671492Y-116847230D01*
X106699885Y-116928375D01*
X106745622Y-117001163D01*
X106745624Y-117001166D01*
X106806414Y-117061956D01*
X106879206Y-117107695D01*
X106960351Y-117136088D01*
X107045780Y-117145714D01*
X107131209Y-117136088D01*
X107212354Y-117107695D01*
X107285146Y-117061956D01*
X107345936Y-117001166D01*
X107391675Y-116928374D01*
X107420068Y-116847229D01*
X107429694Y-116761800D01*
X107420068Y-116676371D01*
X107391675Y-116595226D01*
X107345936Y-116522434D01*
X107285146Y-116461644D01*
X107285145Y-116461643D01*
X107285143Y-116461642D01*
X107212355Y-116415905D01*
X107131210Y-116387512D01*
X107131206Y-116387511D01*
X107079778Y-116381716D01*
X107047311Y-116368073D01*
X107027375Y-116339042D01*
X107024670Y-116312611D01*
X107030914Y-116257200D01*
X107021288Y-116171771D01*
X106992895Y-116090626D01*
X106947156Y-116017834D01*
X106886366Y-115957044D01*
X106886365Y-115957043D01*
X106886363Y-115957042D01*
X106813575Y-115911305D01*
X106732430Y-115882912D01*
X106732425Y-115882911D01*
X106647000Y-115873286D01*
X106561574Y-115882911D01*
X106561569Y-115882912D01*
X106480424Y-115911305D01*
X106407636Y-115957042D01*
X106407634Y-115957043D01*
X106346844Y-116017833D01*
X106309920Y-116076597D01*
X106283541Y-116099929D01*
X106248736Y-116105295D01*
X106216555Y-116090993D01*
X106204080Y-116076597D01*
X106167155Y-116017833D01*
X106106365Y-115957043D01*
X106106363Y-115957042D01*
X106033575Y-115911305D01*
X105952430Y-115882912D01*
X105952425Y-115882911D01*
X105867000Y-115873286D01*
X105781574Y-115882911D01*
X105781569Y-115882912D01*
X105700424Y-115911305D01*
X105627636Y-115957042D01*
X105627634Y-115957043D01*
X105566843Y-116017834D01*
X105566842Y-116017836D01*
X105521105Y-116090624D01*
X105492712Y-116171769D01*
X105492711Y-116171774D01*
X105483086Y-116257200D01*
X105489314Y-116312476D01*
X105483238Y-116347165D01*
X105459372Y-116373062D01*
X105434205Y-116381581D01*
X105381574Y-116387511D01*
X105381569Y-116387512D01*
X105300424Y-116415905D01*
X105227636Y-116461642D01*
X105227634Y-116461643D01*
X105166843Y-116522434D01*
X105166842Y-116522436D01*
X105121105Y-116595224D01*
X105092712Y-116676369D01*
X105092711Y-116676374D01*
X105083086Y-116761800D01*
X97934725Y-116761800D01*
X97430125Y-116257200D01*
X100509886Y-116257200D01*
X100519511Y-116342625D01*
X100519512Y-116342630D01*
X100547905Y-116423775D01*
X100593642Y-116496563D01*
X100593643Y-116496565D01*
X100654434Y-116557356D01*
X100654436Y-116557357D01*
X100714702Y-116595226D01*
X100727226Y-116603095D01*
X100808371Y-116631488D01*
X100893800Y-116641114D01*
X100979229Y-116631488D01*
X101060374Y-116603095D01*
X101133166Y-116557356D01*
X101193956Y-116496566D01*
X101239695Y-116423774D01*
X101268088Y-116342629D01*
X101277714Y-116257200D01*
X103848286Y-116257200D01*
X103857911Y-116342625D01*
X103857912Y-116342630D01*
X103886305Y-116423775D01*
X103932042Y-116496563D01*
X103932043Y-116496565D01*
X103992834Y-116557356D01*
X103992836Y-116557357D01*
X104053102Y-116595226D01*
X104065626Y-116603095D01*
X104146771Y-116631488D01*
X104232200Y-116641114D01*
X104317629Y-116631488D01*
X104398774Y-116603095D01*
X104471566Y-116557356D01*
X104532356Y-116496566D01*
X104578095Y-116423774D01*
X104606488Y-116342629D01*
X104616114Y-116257200D01*
X104606488Y-116171771D01*
X104593176Y-116133729D01*
X104591382Y-116098559D01*
X104608887Y-116068001D01*
X104640134Y-116051758D01*
X104645154Y-116050983D01*
X104708129Y-116043888D01*
X104789274Y-116015495D01*
X104862066Y-115969756D01*
X104922856Y-115908966D01*
X104968595Y-115836174D01*
X104996988Y-115755029D01*
X105006614Y-115669600D01*
X104996988Y-115584171D01*
X104968595Y-115503026D01*
X104922856Y-115430234D01*
X104862066Y-115369444D01*
X104862065Y-115369443D01*
X104862063Y-115369442D01*
X104789275Y-115323705D01*
X104708130Y-115295312D01*
X104708125Y-115295311D01*
X104622700Y-115285686D01*
X104537274Y-115295311D01*
X104537269Y-115295312D01*
X104456124Y-115323705D01*
X104383336Y-115369442D01*
X104383334Y-115369443D01*
X104322543Y-115430234D01*
X104322542Y-115430236D01*
X104276805Y-115503024D01*
X104248412Y-115584169D01*
X104248411Y-115584174D01*
X104238786Y-115669600D01*
X104248411Y-115755025D01*
X104248413Y-115755033D01*
X104261722Y-115793070D01*
X104263517Y-115828241D01*
X104246011Y-115858798D01*
X104214764Y-115875041D01*
X104209727Y-115875818D01*
X104146774Y-115882911D01*
X104146769Y-115882912D01*
X104065624Y-115911305D01*
X103992836Y-115957042D01*
X103992834Y-115957043D01*
X103932043Y-116017834D01*
X103932042Y-116017836D01*
X103886305Y-116090624D01*
X103857912Y-116171769D01*
X103857911Y-116171774D01*
X103848286Y-116257200D01*
X101277714Y-116257200D01*
X101268088Y-116171771D01*
X101255116Y-116134700D01*
X101253322Y-116099531D01*
X101270827Y-116068973D01*
X101302074Y-116052730D01*
X101307107Y-116051953D01*
X101378689Y-116043888D01*
X101459834Y-116015495D01*
X101532626Y-115969756D01*
X101593416Y-115908966D01*
X101639155Y-115836174D01*
X101667548Y-115755029D01*
X101677174Y-115669600D01*
X101667548Y-115584171D01*
X101639155Y-115503026D01*
X101593416Y-115430234D01*
X101532626Y-115369444D01*
X101532625Y-115369443D01*
X101532623Y-115369442D01*
X101459835Y-115323705D01*
X101378690Y-115295312D01*
X101378685Y-115295311D01*
X101293260Y-115285686D01*
X101207834Y-115295311D01*
X101207829Y-115295312D01*
X101126684Y-115323705D01*
X101053896Y-115369442D01*
X101053894Y-115369443D01*
X100993103Y-115430234D01*
X100993102Y-115430236D01*
X100947365Y-115503024D01*
X100918972Y-115584169D01*
X100918971Y-115584174D01*
X100909346Y-115669600D01*
X100918971Y-115755025D01*
X100918973Y-115755033D01*
X100931942Y-115792098D01*
X100933737Y-115827269D01*
X100916232Y-115857826D01*
X100884985Y-115874069D01*
X100879948Y-115874846D01*
X100808373Y-115882911D01*
X100808369Y-115882912D01*
X100727224Y-115911305D01*
X100654436Y-115957042D01*
X100654434Y-115957043D01*
X100593643Y-116017834D01*
X100593642Y-116017836D01*
X100547905Y-116090624D01*
X100519512Y-116171769D01*
X100519511Y-116171774D01*
X100509886Y-116257200D01*
X97430125Y-116257200D01*
X96767406Y-115594481D01*
X96750528Y-115563572D01*
X96749100Y-115550287D01*
X96749100Y-112316460D01*
X98654186Y-112316460D01*
X98663811Y-112401885D01*
X98663812Y-112401890D01*
X98692205Y-112483035D01*
X98731540Y-112545634D01*
X98737944Y-112555826D01*
X98798734Y-112616616D01*
X98871526Y-112662355D01*
X98952671Y-112690748D01*
X99038100Y-112700374D01*
X99123529Y-112690748D01*
X99204674Y-112662355D01*
X99277466Y-112616616D01*
X99338256Y-112555826D01*
X99383995Y-112483034D01*
X99412388Y-112401889D01*
X99414960Y-112379060D01*
X105889686Y-112379060D01*
X105899311Y-112464485D01*
X105899312Y-112464490D01*
X105927705Y-112545635D01*
X105973442Y-112618423D01*
X105973444Y-112618426D01*
X106034234Y-112679216D01*
X106107026Y-112724955D01*
X106188171Y-112753348D01*
X106273600Y-112762974D01*
X106359029Y-112753348D01*
X106440174Y-112724955D01*
X106512966Y-112679216D01*
X106573756Y-112618426D01*
X106619495Y-112545634D01*
X106619496Y-112545632D01*
X106622277Y-112537685D01*
X106642801Y-112509067D01*
X106675538Y-112496088D01*
X106710096Y-112502869D01*
X106735501Y-112527257D01*
X106740263Y-112537685D01*
X106743043Y-112545632D01*
X106788782Y-112618423D01*
X106788784Y-112618426D01*
X106849574Y-112679216D01*
X106922366Y-112724955D01*
X107003511Y-112753348D01*
X107088940Y-112762974D01*
X107174369Y-112753348D01*
X107255514Y-112724955D01*
X107328306Y-112679216D01*
X107389096Y-112618426D01*
X107434835Y-112545634D01*
X107463228Y-112464489D01*
X107472854Y-112379060D01*
X107463228Y-112293631D01*
X107434835Y-112212486D01*
X107389096Y-112139694D01*
X107328306Y-112078904D01*
X107328305Y-112078903D01*
X107328303Y-112078902D01*
X107255515Y-112033165D01*
X107174370Y-112004772D01*
X107174365Y-112004771D01*
X107088940Y-111995146D01*
X107003514Y-112004771D01*
X107003509Y-112004772D01*
X106922364Y-112033165D01*
X106849576Y-112078902D01*
X106849574Y-112078903D01*
X106788783Y-112139694D01*
X106788782Y-112139696D01*
X106743045Y-112212484D01*
X106740263Y-112220436D01*
X106719738Y-112249053D01*
X106687000Y-112262031D01*
X106652443Y-112255249D01*
X106627038Y-112230860D01*
X106622277Y-112220436D01*
X106619494Y-112212484D01*
X106573757Y-112139696D01*
X106573756Y-112139694D01*
X106512965Y-112078903D01*
X106512963Y-112078902D01*
X106440175Y-112033165D01*
X106359030Y-112004772D01*
X106359025Y-112004771D01*
X106273600Y-111995146D01*
X106188174Y-112004771D01*
X106188169Y-112004772D01*
X106107024Y-112033165D01*
X106034236Y-112078902D01*
X106034234Y-112078903D01*
X105973443Y-112139694D01*
X105973442Y-112139696D01*
X105927705Y-112212484D01*
X105899312Y-112293629D01*
X105899311Y-112293634D01*
X105889686Y-112379060D01*
X99414960Y-112379060D01*
X99422014Y-112316460D01*
X99412388Y-112231031D01*
X99383995Y-112149886D01*
X99338256Y-112077094D01*
X99277466Y-112016304D01*
X99277465Y-112016303D01*
X99277463Y-112016302D01*
X99204675Y-111970565D01*
X99123530Y-111942172D01*
X99123525Y-111942171D01*
X99038100Y-111932546D01*
X98952674Y-111942171D01*
X98952669Y-111942172D01*
X98871524Y-111970565D01*
X98798736Y-112016302D01*
X98798734Y-112016303D01*
X98737943Y-112077094D01*
X98737942Y-112077096D01*
X98692205Y-112149884D01*
X98663812Y-112231029D01*
X98663811Y-112231034D01*
X98654186Y-112316460D01*
X96749100Y-112316460D01*
X96749100Y-110490000D01*
X99314000Y-110490000D01*
X99314000Y-109616363D01*
X99531306Y-109616363D01*
X99540931Y-109701788D01*
X99540932Y-109701793D01*
X99569325Y-109782938D01*
X99604086Y-109838258D01*
X99615064Y-109855729D01*
X99675854Y-109916519D01*
X99748646Y-109962258D01*
X99829791Y-109990651D01*
X99915220Y-110000277D01*
X100000649Y-109990651D01*
X100081794Y-109962258D01*
X100154586Y-109916519D01*
X100215376Y-109855729D01*
X100261115Y-109782937D01*
X100289508Y-109701792D01*
X100299134Y-109616363D01*
X100289508Y-109530934D01*
X100289243Y-109530177D01*
X104950649Y-109530177D01*
X104960274Y-109615602D01*
X104960275Y-109615607D01*
X104988668Y-109696752D01*
X105029829Y-109762257D01*
X105034407Y-109769543D01*
X105095197Y-109830333D01*
X105167989Y-109876072D01*
X105249134Y-109904465D01*
X105334563Y-109914091D01*
X105419992Y-109904465D01*
X105501137Y-109876072D01*
X105573929Y-109830333D01*
X105634719Y-109769543D01*
X105680458Y-109696751D01*
X105708851Y-109615606D01*
X105718477Y-109530177D01*
X105708851Y-109444748D01*
X105680458Y-109363603D01*
X105673618Y-109352718D01*
X105646629Y-109309766D01*
X105634719Y-109290811D01*
X105573929Y-109230021D01*
X105573928Y-109230020D01*
X105573926Y-109230019D01*
X105501138Y-109184282D01*
X105419993Y-109155889D01*
X105419988Y-109155888D01*
X105334563Y-109146263D01*
X105249137Y-109155888D01*
X105249132Y-109155889D01*
X105167987Y-109184282D01*
X105095199Y-109230019D01*
X105095197Y-109230020D01*
X105034406Y-109290811D01*
X105034405Y-109290813D01*
X104988668Y-109363601D01*
X104960275Y-109444746D01*
X104960274Y-109444751D01*
X104950649Y-109530177D01*
X100289243Y-109530177D01*
X100261115Y-109449789D01*
X100257949Y-109444751D01*
X100237549Y-109412284D01*
X100215376Y-109376997D01*
X100154586Y-109316207D01*
X100154585Y-109316206D01*
X100154583Y-109316205D01*
X100081795Y-109270468D01*
X100000650Y-109242075D01*
X100000645Y-109242074D01*
X99915220Y-109232449D01*
X99829794Y-109242074D01*
X99829789Y-109242075D01*
X99748644Y-109270468D01*
X99675856Y-109316205D01*
X99675854Y-109316206D01*
X99615063Y-109376997D01*
X99615062Y-109376999D01*
X99569325Y-109449787D01*
X99540932Y-109530932D01*
X99540931Y-109530937D01*
X99531306Y-109616363D01*
X99314000Y-109616363D01*
X99314000Y-108711995D01*
X114078467Y-108711995D01*
X114078467Y-108712004D01*
X114088823Y-108843600D01*
X114088824Y-108843604D01*
X114119641Y-108971968D01*
X114119642Y-108971970D01*
X114119643Y-108971974D01*
X114170162Y-109093939D01*
X114202685Y-109147012D01*
X114239137Y-109206496D01*
X114239138Y-109206498D01*
X114239140Y-109206500D01*
X114250433Y-109219722D01*
X114324875Y-109306884D01*
X114367270Y-109343092D01*
X114425260Y-109392620D01*
X114425262Y-109392621D01*
X114425263Y-109392622D01*
X114435191Y-109398706D01*
X114537821Y-109461598D01*
X114659786Y-109512117D01*
X114788153Y-109542935D01*
X114788155Y-109542935D01*
X114788159Y-109542936D01*
X114919756Y-109553293D01*
X114919760Y-109553293D01*
X114919764Y-109553293D01*
X115051360Y-109542936D01*
X115051362Y-109542935D01*
X115051367Y-109542935D01*
X115179734Y-109512117D01*
X115301699Y-109461598D01*
X115414260Y-109392620D01*
X115514644Y-109306884D01*
X115600380Y-109206500D01*
X115669358Y-109093939D01*
X115719877Y-108971974D01*
X115750695Y-108843607D01*
X115751100Y-108838470D01*
X115761053Y-108712004D01*
X115761053Y-108711995D01*
X115750696Y-108580399D01*
X115750695Y-108580395D01*
X115748265Y-108570275D01*
X115719877Y-108452026D01*
X115669358Y-108330061D01*
X115600380Y-108217500D01*
X115545253Y-108152954D01*
X115514644Y-108117115D01*
X115431875Y-108046425D01*
X115414260Y-108031380D01*
X115414258Y-108031378D01*
X115414256Y-108031377D01*
X115352798Y-107993716D01*
X115301699Y-107962402D01*
X115179734Y-107911883D01*
X115179730Y-107911882D01*
X115179728Y-107911881D01*
X115051364Y-107881064D01*
X115051360Y-107881063D01*
X114919764Y-107870707D01*
X114919756Y-107870707D01*
X114788159Y-107881063D01*
X114788155Y-107881064D01*
X114659791Y-107911881D01*
X114659789Y-107911882D01*
X114659787Y-107911882D01*
X114659786Y-107911883D01*
X114610072Y-107932475D01*
X114537821Y-107962402D01*
X114425263Y-108031377D01*
X114324875Y-108117115D01*
X114239137Y-108217503D01*
X114180720Y-108312832D01*
X114170162Y-108330061D01*
X114134377Y-108416456D01*
X114119642Y-108452029D01*
X114119641Y-108452031D01*
X114088824Y-108580395D01*
X114088823Y-108580399D01*
X114078467Y-108711995D01*
X99314000Y-108711995D01*
X99314000Y-106474200D01*
X104573166Y-106474200D01*
X104582791Y-106559625D01*
X104582792Y-106559630D01*
X104611185Y-106640775D01*
X104636482Y-106681034D01*
X104656924Y-106713566D01*
X104717714Y-106774356D01*
X104790506Y-106820095D01*
X104802139Y-106824165D01*
X104809430Y-106826717D01*
X104838047Y-106847242D01*
X104851025Y-106879980D01*
X104844243Y-106914538D01*
X104819854Y-106939942D01*
X104809430Y-106944703D01*
X104790505Y-106951325D01*
X104717716Y-106997062D01*
X104717714Y-106997063D01*
X104656923Y-107057854D01*
X104656922Y-107057856D01*
X104611185Y-107130644D01*
X104582792Y-107211789D01*
X104582791Y-107211794D01*
X104573166Y-107297220D01*
X104582791Y-107382645D01*
X104582792Y-107382650D01*
X104611185Y-107463795D01*
X104648127Y-107522586D01*
X104656924Y-107536586D01*
X104717714Y-107597376D01*
X104790506Y-107643115D01*
X104871651Y-107671508D01*
X104957080Y-107681134D01*
X105042509Y-107671508D01*
X105123654Y-107643115D01*
X105196446Y-107597376D01*
X105257236Y-107536586D01*
X105302975Y-107463794D01*
X105331368Y-107382649D01*
X105340994Y-107297220D01*
X105331368Y-107211791D01*
X105302975Y-107130646D01*
X105257236Y-107057854D01*
X105196446Y-106997064D01*
X105196445Y-106997063D01*
X105196443Y-106997062D01*
X105123653Y-106951324D01*
X105104730Y-106944703D01*
X105076112Y-106924178D01*
X105063134Y-106891440D01*
X105069916Y-106856883D01*
X105094304Y-106831478D01*
X105104730Y-106826717D01*
X105114909Y-106823154D01*
X105123654Y-106820095D01*
X105196446Y-106774356D01*
X105257236Y-106713566D01*
X105302975Y-106640774D01*
X105331368Y-106559629D01*
X105340994Y-106474200D01*
X105331368Y-106388771D01*
X105302975Y-106307626D01*
X105300832Y-106304216D01*
X105257237Y-106234836D01*
X105257236Y-106234834D01*
X105196445Y-106174043D01*
X105196443Y-106174042D01*
X105123655Y-106128305D01*
X105042510Y-106099912D01*
X105042505Y-106099911D01*
X104957080Y-106090286D01*
X104871654Y-106099911D01*
X104871649Y-106099912D01*
X104790504Y-106128305D01*
X104717716Y-106174042D01*
X104717714Y-106174043D01*
X104656923Y-106234834D01*
X104656922Y-106234836D01*
X104611185Y-106307624D01*
X104582792Y-106388769D01*
X104582791Y-106388774D01*
X104573166Y-106474200D01*
X99314000Y-106474200D01*
X99314000Y-105325780D01*
X105058186Y-105325780D01*
X105067811Y-105411205D01*
X105067812Y-105411210D01*
X105096205Y-105492355D01*
X105140179Y-105562337D01*
X105141944Y-105565146D01*
X105202734Y-105625936D01*
X105219435Y-105636430D01*
X105266645Y-105666095D01*
X105275526Y-105671675D01*
X105356671Y-105700068D01*
X105442100Y-105709694D01*
X105527529Y-105700068D01*
X105608674Y-105671675D01*
X105681466Y-105625936D01*
X105742256Y-105565146D01*
X105787995Y-105492354D01*
X105816388Y-105411209D01*
X105826014Y-105325780D01*
X105816388Y-105240351D01*
X105787995Y-105159206D01*
X105742256Y-105086414D01*
X105681466Y-105025624D01*
X105681465Y-105025623D01*
X105681463Y-105025622D01*
X105608675Y-104979885D01*
X105527530Y-104951492D01*
X105527525Y-104951491D01*
X105442100Y-104941866D01*
X105356674Y-104951491D01*
X105356669Y-104951492D01*
X105275524Y-104979885D01*
X105202736Y-105025622D01*
X105202734Y-105025623D01*
X105141943Y-105086414D01*
X105141942Y-105086416D01*
X105096205Y-105159204D01*
X105067812Y-105240349D01*
X105067811Y-105240354D01*
X105058186Y-105325780D01*
X99314000Y-105325780D01*
X99314000Y-104901995D01*
X114078467Y-104901995D01*
X114078467Y-104902004D01*
X114088823Y-105033600D01*
X114088824Y-105033604D01*
X114119641Y-105161968D01*
X114119642Y-105161970D01*
X114119643Y-105161974D01*
X114170162Y-105283939D01*
X114206550Y-105343319D01*
X114239137Y-105396496D01*
X114239138Y-105396498D01*
X114239140Y-105396500D01*
X114251699Y-105411205D01*
X114324875Y-105496884D01*
X114345005Y-105514076D01*
X114425260Y-105582620D01*
X114537821Y-105651598D01*
X114659786Y-105702117D01*
X114788153Y-105732935D01*
X114788155Y-105732935D01*
X114788159Y-105732936D01*
X114919756Y-105743293D01*
X114919760Y-105743293D01*
X114919764Y-105743293D01*
X115051360Y-105732936D01*
X115051362Y-105732935D01*
X115051367Y-105732935D01*
X115179734Y-105702117D01*
X115301699Y-105651598D01*
X115414260Y-105582620D01*
X115514644Y-105496884D01*
X115600380Y-105396500D01*
X115669358Y-105283939D01*
X115719877Y-105161974D01*
X115750695Y-105033607D01*
X115750976Y-105030047D01*
X115761053Y-104902004D01*
X115761053Y-104901995D01*
X115750696Y-104770399D01*
X115750695Y-104770395D01*
X115738833Y-104720987D01*
X115719877Y-104642026D01*
X115669358Y-104520061D01*
X115600380Y-104407500D01*
X115566346Y-104367651D01*
X115514644Y-104307115D01*
X115414256Y-104221377D01*
X115356736Y-104186129D01*
X115301699Y-104152402D01*
X115179734Y-104101883D01*
X115179730Y-104101882D01*
X115179728Y-104101881D01*
X115051364Y-104071064D01*
X115051360Y-104071063D01*
X114919764Y-104060707D01*
X114919756Y-104060707D01*
X114788159Y-104071063D01*
X114788155Y-104071064D01*
X114659791Y-104101881D01*
X114659789Y-104101882D01*
X114659787Y-104101882D01*
X114659786Y-104101883D01*
X114537821Y-104152402D01*
X114425263Y-104221377D01*
X114324875Y-104307115D01*
X114239137Y-104407503D01*
X114175760Y-104510926D01*
X114170162Y-104520061D01*
X114128197Y-104621376D01*
X114119642Y-104642029D01*
X114119641Y-104642031D01*
X114088824Y-104770395D01*
X114088823Y-104770399D01*
X114078467Y-104901995D01*
X99314000Y-104901995D01*
X99314000Y-104271560D01*
X99477526Y-104271560D01*
X99487151Y-104356985D01*
X99487152Y-104356990D01*
X99515545Y-104438135D01*
X99561282Y-104510923D01*
X99561283Y-104510925D01*
X99622074Y-104571716D01*
X99622076Y-104571717D01*
X99680391Y-104608360D01*
X99694866Y-104617455D01*
X99776011Y-104645848D01*
X99861440Y-104655474D01*
X99946869Y-104645848D01*
X100028014Y-104617455D01*
X100100806Y-104571716D01*
X100161596Y-104510926D01*
X100207335Y-104438134D01*
X100235728Y-104356989D01*
X100245354Y-104271560D01*
X100235728Y-104186131D01*
X100207335Y-104104986D01*
X100161596Y-104032194D01*
X100100806Y-103971404D01*
X100100805Y-103971403D01*
X100100803Y-103971402D01*
X100028015Y-103925665D01*
X99946870Y-103897272D01*
X99946865Y-103897271D01*
X99861440Y-103887646D01*
X99776014Y-103897271D01*
X99776009Y-103897272D01*
X99694864Y-103925665D01*
X99622076Y-103971402D01*
X99622074Y-103971403D01*
X99561283Y-104032194D01*
X99561282Y-104032196D01*
X99515545Y-104104984D01*
X99487152Y-104186129D01*
X99487151Y-104186134D01*
X99477526Y-104271560D01*
X99314000Y-104271560D01*
X99314000Y-101013200D01*
X101733526Y-101013200D01*
X101743151Y-101098625D01*
X101743152Y-101098630D01*
X101771545Y-101179775D01*
X101817282Y-101252563D01*
X101817283Y-101252565D01*
X101878074Y-101313356D01*
X101878076Y-101313357D01*
X101939523Y-101351968D01*
X101950866Y-101359095D01*
X102032011Y-101387488D01*
X102117440Y-101397114D01*
X102202869Y-101387488D01*
X102284014Y-101359095D01*
X102356806Y-101313356D01*
X102417596Y-101252566D01*
X102463335Y-101179774D01*
X102491728Y-101098629D01*
X102501354Y-101013200D01*
X102733526Y-101013200D01*
X102743151Y-101098625D01*
X102743152Y-101098630D01*
X102771545Y-101179775D01*
X102817282Y-101252563D01*
X102817283Y-101252565D01*
X102878074Y-101313356D01*
X102878076Y-101313357D01*
X102939523Y-101351968D01*
X102950866Y-101359095D01*
X103032011Y-101387488D01*
X103117440Y-101397114D01*
X103202869Y-101387488D01*
X103284014Y-101359095D01*
X103356806Y-101313356D01*
X103417596Y-101252566D01*
X103463335Y-101179774D01*
X103491728Y-101098629D01*
X103492476Y-101091995D01*
X114078467Y-101091995D01*
X114078467Y-101092004D01*
X114088823Y-101223600D01*
X114088824Y-101223604D01*
X114119641Y-101351968D01*
X114119642Y-101351970D01*
X114119643Y-101351974D01*
X114170162Y-101473939D01*
X114172130Y-101477150D01*
X114239137Y-101586496D01*
X114324875Y-101686884D01*
X114385411Y-101738586D01*
X114425260Y-101772620D01*
X114537821Y-101841598D01*
X114659786Y-101892117D01*
X114788153Y-101922935D01*
X114788155Y-101922935D01*
X114788159Y-101922936D01*
X114919756Y-101933293D01*
X114919760Y-101933293D01*
X114919764Y-101933293D01*
X115051360Y-101922936D01*
X115051362Y-101922935D01*
X115051367Y-101922935D01*
X115179734Y-101892117D01*
X115301699Y-101841598D01*
X115414260Y-101772620D01*
X115514644Y-101686884D01*
X115600380Y-101586500D01*
X115669358Y-101473939D01*
X115719877Y-101351974D01*
X115750695Y-101223607D01*
X115760532Y-101098630D01*
X115761053Y-101092004D01*
X115761053Y-101091995D01*
X115750696Y-100960399D01*
X115750695Y-100960395D01*
X115742862Y-100927769D01*
X115719877Y-100832026D01*
X115669358Y-100710061D01*
X115600380Y-100597500D01*
X115549173Y-100537544D01*
X115514644Y-100497115D01*
X115414256Y-100411377D01*
X115361079Y-100378790D01*
X115301699Y-100342402D01*
X115179734Y-100291883D01*
X115179730Y-100291882D01*
X115179728Y-100291881D01*
X115051364Y-100261064D01*
X115051360Y-100261063D01*
X114919764Y-100250707D01*
X114919756Y-100250707D01*
X114788159Y-100261063D01*
X114788155Y-100261064D01*
X114659791Y-100291881D01*
X114659789Y-100291882D01*
X114659787Y-100291882D01*
X114659786Y-100291883D01*
X114537821Y-100342402D01*
X114425263Y-100411377D01*
X114324875Y-100497115D01*
X114239137Y-100597503D01*
X114170162Y-100710061D01*
X114119642Y-100832029D01*
X114119641Y-100832031D01*
X114088824Y-100960395D01*
X114088823Y-100960399D01*
X114078467Y-101091995D01*
X103492476Y-101091995D01*
X103501354Y-101013200D01*
X103491728Y-100927771D01*
X103463335Y-100846626D01*
X103460052Y-100841402D01*
X103417597Y-100773836D01*
X103417596Y-100773834D01*
X103356805Y-100713043D01*
X103356803Y-100713042D01*
X103284015Y-100667305D01*
X103202870Y-100638912D01*
X103202865Y-100638911D01*
X103117440Y-100629286D01*
X103032014Y-100638911D01*
X103032009Y-100638912D01*
X102950864Y-100667305D01*
X102878076Y-100713042D01*
X102878074Y-100713043D01*
X102817283Y-100773834D01*
X102817282Y-100773836D01*
X102771545Y-100846624D01*
X102743152Y-100927769D01*
X102743151Y-100927774D01*
X102733526Y-101013200D01*
X102501354Y-101013200D01*
X102491728Y-100927771D01*
X102463335Y-100846626D01*
X102460052Y-100841402D01*
X102417597Y-100773836D01*
X102417596Y-100773834D01*
X102356805Y-100713043D01*
X102356803Y-100713042D01*
X102284015Y-100667305D01*
X102202870Y-100638912D01*
X102202865Y-100638911D01*
X102117440Y-100629286D01*
X102032014Y-100638911D01*
X102032009Y-100638912D01*
X101950864Y-100667305D01*
X101878076Y-100713042D01*
X101878074Y-100713043D01*
X101817283Y-100773834D01*
X101817282Y-100773836D01*
X101771545Y-100846624D01*
X101743152Y-100927769D01*
X101743151Y-100927774D01*
X101733526Y-101013200D01*
X99314000Y-101013200D01*
X99314000Y-100259904D01*
X99387646Y-100186258D01*
X99396949Y-100175902D01*
X99405333Y-100165498D01*
X99428850Y-100120540D01*
X99438772Y-100086750D01*
X99444040Y-100050112D01*
X99444040Y-98906320D01*
X100779946Y-98906320D01*
X100789571Y-98991745D01*
X100789572Y-98991750D01*
X100817965Y-99072895D01*
X100861206Y-99141710D01*
X100863704Y-99145686D01*
X100924494Y-99206476D01*
X100997286Y-99252215D01*
X101078431Y-99280608D01*
X101163860Y-99290234D01*
X101249289Y-99280608D01*
X101330434Y-99252215D01*
X101403226Y-99206476D01*
X101464016Y-99145686D01*
X101509755Y-99072894D01*
X101538148Y-98991749D01*
X101547774Y-98906320D01*
X104285326Y-98906320D01*
X104294951Y-98991745D01*
X104294952Y-98991750D01*
X104323345Y-99072895D01*
X104366586Y-99141710D01*
X104369084Y-99145686D01*
X104429874Y-99206476D01*
X104502666Y-99252215D01*
X104583811Y-99280608D01*
X104669240Y-99290234D01*
X104754669Y-99280608D01*
X104835814Y-99252215D01*
X104908606Y-99206476D01*
X104969396Y-99145686D01*
X105015135Y-99072894D01*
X105043528Y-98991749D01*
X105053154Y-98906320D01*
X105043528Y-98820891D01*
X105015135Y-98739746D01*
X104969396Y-98666954D01*
X104908606Y-98606164D01*
X104908605Y-98606163D01*
X104908603Y-98606162D01*
X104835815Y-98560425D01*
X104754670Y-98532032D01*
X104754665Y-98532031D01*
X104669240Y-98522406D01*
X104583814Y-98532031D01*
X104583809Y-98532032D01*
X104502664Y-98560425D01*
X104429876Y-98606162D01*
X104429874Y-98606163D01*
X104369083Y-98666954D01*
X104369082Y-98666956D01*
X104323345Y-98739744D01*
X104294952Y-98820889D01*
X104294951Y-98820894D01*
X104285326Y-98906320D01*
X101547774Y-98906320D01*
X101538148Y-98820891D01*
X101509755Y-98739746D01*
X101464016Y-98666954D01*
X101403226Y-98606164D01*
X101403225Y-98606163D01*
X101403223Y-98606162D01*
X101330435Y-98560425D01*
X101249290Y-98532032D01*
X101249285Y-98532031D01*
X101163860Y-98522406D01*
X101078434Y-98532031D01*
X101078429Y-98532032D01*
X100997284Y-98560425D01*
X100924496Y-98606162D01*
X100924494Y-98606163D01*
X100863703Y-98666954D01*
X100863702Y-98666956D01*
X100817965Y-98739744D01*
X100789572Y-98820889D01*
X100789571Y-98820894D01*
X100779946Y-98906320D01*
X99444040Y-98906320D01*
X99444040Y-97281995D01*
X114078467Y-97281995D01*
X114078467Y-97282004D01*
X114088823Y-97413600D01*
X114088824Y-97413604D01*
X114119641Y-97541968D01*
X114119642Y-97541970D01*
X114119643Y-97541974D01*
X114170162Y-97663939D01*
X114206550Y-97723319D01*
X114239137Y-97776496D01*
X114324875Y-97876884D01*
X114335000Y-97885531D01*
X114425260Y-97962620D01*
X114537821Y-98031598D01*
X114659786Y-98082117D01*
X114788153Y-98112935D01*
X114788155Y-98112935D01*
X114788159Y-98112936D01*
X114919756Y-98123293D01*
X114919760Y-98123293D01*
X114919764Y-98123293D01*
X115051360Y-98112936D01*
X115051362Y-98112935D01*
X115051367Y-98112935D01*
X115179734Y-98082117D01*
X115301699Y-98031598D01*
X115414260Y-97962620D01*
X115514644Y-97876884D01*
X115600380Y-97776500D01*
X115669358Y-97663939D01*
X115719877Y-97541974D01*
X115750695Y-97413607D01*
X115750765Y-97412726D01*
X115761053Y-97282004D01*
X115761053Y-97281995D01*
X115750696Y-97150399D01*
X115750695Y-97150395D01*
X115749447Y-97145198D01*
X115719877Y-97022026D01*
X115669358Y-96900061D01*
X115600380Y-96787500D01*
X115558628Y-96738615D01*
X115514644Y-96687115D01*
X115436971Y-96620777D01*
X115414260Y-96601380D01*
X115414258Y-96601378D01*
X115414256Y-96601377D01*
X115347090Y-96560218D01*
X115301699Y-96532402D01*
X115179734Y-96481883D01*
X115179730Y-96481882D01*
X115179728Y-96481881D01*
X115051364Y-96451064D01*
X115051360Y-96451063D01*
X114919764Y-96440707D01*
X114919756Y-96440707D01*
X114788159Y-96451063D01*
X114788155Y-96451064D01*
X114659791Y-96481881D01*
X114659789Y-96481882D01*
X114659787Y-96481882D01*
X114659786Y-96481883D01*
X114537821Y-96532402D01*
X114425263Y-96601377D01*
X114324875Y-96687115D01*
X114239137Y-96787503D01*
X114177372Y-96888295D01*
X114170162Y-96900061D01*
X114122599Y-97014891D01*
X114119642Y-97022029D01*
X114119641Y-97022031D01*
X114088824Y-97150395D01*
X114088823Y-97150399D01*
X114078467Y-97281995D01*
X99444040Y-97281995D01*
X99444040Y-91502500D01*
X99441068Y-91474858D01*
X99435420Y-91448895D01*
X99431737Y-91435470D01*
X99406630Y-91391379D01*
X99383568Y-91364764D01*
X99366887Y-91348668D01*
X99321928Y-91325150D01*
X99321927Y-91325149D01*
X99321926Y-91325149D01*
X99314000Y-91322821D01*
X99314000Y-90254500D01*
X119683000Y-90254500D01*
X119716790Y-90264422D01*
G37*
%TD.AperFunction*%
%TA.AperFunction,Conductor*%
G36*
X95310442Y-122420263D02*
G01*
X95338634Y-122441367D01*
X95350941Y-122474363D01*
X95351100Y-122478822D01*
X95351100Y-123583397D01*
X95341178Y-123617187D01*
X95332794Y-123627591D01*
X94787259Y-124173125D01*
X94756350Y-124190003D01*
X94721223Y-124187490D01*
X94710416Y-124182225D01*
X94691939Y-124170902D01*
X94691936Y-124170901D01*
X94691935Y-124170900D01*
X94650081Y-124153564D01*
X94569974Y-124120383D01*
X94569970Y-124120382D01*
X94569968Y-124120381D01*
X94441604Y-124089564D01*
X94441600Y-124089563D01*
X94310004Y-124079207D01*
X94309996Y-124079207D01*
X94178399Y-124089563D01*
X94178395Y-124089564D01*
X94050031Y-124120381D01*
X94050029Y-124120382D01*
X94050027Y-124120382D01*
X94050026Y-124120383D01*
X93938121Y-124166735D01*
X93928061Y-124170902D01*
X93815503Y-124239877D01*
X93715115Y-124325615D01*
X93629377Y-124426003D01*
X93560402Y-124538561D01*
X93509882Y-124660529D01*
X93509881Y-124660531D01*
X93479064Y-124788895D01*
X93479063Y-124788899D01*
X93477927Y-124803344D01*
X93465385Y-124836251D01*
X93437043Y-124857154D01*
X93401899Y-124859415D01*
X93371111Y-124842317D01*
X93354455Y-124811289D01*
X93353120Y-124798440D01*
X93353120Y-124351802D01*
X93363042Y-124318012D01*
X93371426Y-124307608D01*
X95244406Y-122434628D01*
X95275315Y-122417750D01*
X95310442Y-122420263D01*
G37*
%TD.AperFunction*%
%TA.AperFunction,Conductor*%
G36*
X94548442Y-120855463D02*
G01*
X94576634Y-120876567D01*
X94588941Y-120909563D01*
X94589100Y-120914022D01*
X94589100Y-121805397D01*
X94579178Y-121839187D01*
X94570794Y-121849591D01*
X92247259Y-124173125D01*
X92216350Y-124190003D01*
X92181223Y-124187490D01*
X92170416Y-124182225D01*
X92151939Y-124170902D01*
X92151936Y-124170901D01*
X92151935Y-124170900D01*
X92110081Y-124153564D01*
X92029974Y-124120383D01*
X92029970Y-124120382D01*
X92029968Y-124120381D01*
X91901604Y-124089564D01*
X91901600Y-124089563D01*
X91770004Y-124079207D01*
X91769996Y-124079207D01*
X91638399Y-124089563D01*
X91638395Y-124089564D01*
X91510031Y-124120381D01*
X91510029Y-124120382D01*
X91510027Y-124120382D01*
X91510026Y-124120383D01*
X91398121Y-124166735D01*
X91388061Y-124170902D01*
X91304395Y-124222172D01*
X91270400Y-124231368D01*
X91236830Y-124220724D01*
X91214344Y-124193621D01*
X91210080Y-124158664D01*
X91225392Y-124126951D01*
X91227525Y-124124708D01*
X94482406Y-120869828D01*
X94513315Y-120852950D01*
X94548442Y-120855463D01*
G37*
%TD.AperFunction*%
%TA.AperFunction,Conductor*%
G36*
X94062794Y-111160678D02*
G01*
X94079672Y-111191587D01*
X94081100Y-111204872D01*
X94081100Y-120345807D01*
X94071178Y-120379597D01*
X94062794Y-120390001D01*
X90678000Y-123774795D01*
X90678000Y-119268794D01*
X91686560Y-119268794D01*
X91696185Y-119354219D01*
X91696186Y-119354224D01*
X91724579Y-119435369D01*
X91770316Y-119508157D01*
X91770318Y-119508160D01*
X91831108Y-119568950D01*
X91903900Y-119614689D01*
X91985045Y-119643082D01*
X92070474Y-119652708D01*
X92155903Y-119643082D01*
X92237048Y-119614689D01*
X92309840Y-119568950D01*
X92370630Y-119508160D01*
X92416369Y-119435368D01*
X92444762Y-119354223D01*
X92454388Y-119268794D01*
X92446233Y-119196424D01*
X92452309Y-119161738D01*
X92464143Y-119145237D01*
X92718054Y-118891327D01*
X92718057Y-118891326D01*
X92753618Y-118855765D01*
X92766191Y-118833988D01*
X92778764Y-118812212D01*
X92791780Y-118763633D01*
X92791780Y-118713343D01*
X92791780Y-114361488D01*
X92801702Y-114327698D01*
X92821030Y-114308567D01*
X92840143Y-114296558D01*
X92840143Y-114296557D01*
X92840146Y-114296556D01*
X92900936Y-114235766D01*
X92946675Y-114162974D01*
X92975068Y-114081829D01*
X92984694Y-113996400D01*
X92975068Y-113910971D01*
X92946675Y-113829826D01*
X92900936Y-113757034D01*
X92840146Y-113696244D01*
X92840145Y-113696243D01*
X92840143Y-113696242D01*
X92767355Y-113650505D01*
X92686210Y-113622112D01*
X92686205Y-113622111D01*
X92600780Y-113612486D01*
X92515354Y-113622111D01*
X92515349Y-113622112D01*
X92434204Y-113650505D01*
X92361416Y-113696242D01*
X92361414Y-113696243D01*
X92300623Y-113757034D01*
X92300622Y-113757036D01*
X92254885Y-113829824D01*
X92226492Y-113910969D01*
X92226491Y-113910974D01*
X92216866Y-113996400D01*
X92226491Y-114081825D01*
X92226492Y-114081830D01*
X92254885Y-114162975D01*
X92300622Y-114235763D01*
X92300623Y-114235765D01*
X92361416Y-114296558D01*
X92380530Y-114308567D01*
X92403863Y-114334944D01*
X92409780Y-114361488D01*
X92409780Y-118633485D01*
X92399858Y-118667275D01*
X92391474Y-118677679D01*
X92194031Y-118875121D01*
X92163122Y-118891999D01*
X92142839Y-118893034D01*
X92070474Y-118884880D01*
X91985048Y-118894505D01*
X91985043Y-118894506D01*
X91903898Y-118922899D01*
X91831110Y-118968636D01*
X91831108Y-118968637D01*
X91770317Y-119029428D01*
X91770316Y-119029430D01*
X91724579Y-119102218D01*
X91696186Y-119183363D01*
X91696185Y-119183368D01*
X91686560Y-119268794D01*
X90678000Y-119268794D01*
X90678000Y-115773200D01*
X90805000Y-115773200D01*
X91567000Y-115011200D01*
X91567000Y-113020000D01*
X91876346Y-113020000D01*
X91885971Y-113105425D01*
X91885972Y-113105430D01*
X91914365Y-113186575D01*
X91960102Y-113259363D01*
X91960104Y-113259366D01*
X92020894Y-113320156D01*
X92093686Y-113365895D01*
X92174831Y-113394288D01*
X92260260Y-113403914D01*
X92345689Y-113394288D01*
X92426834Y-113365895D01*
X92499626Y-113320156D01*
X92560416Y-113259366D01*
X92606155Y-113186574D01*
X92634548Y-113105429D01*
X92644174Y-113020000D01*
X92634548Y-112934571D01*
X92606155Y-112853426D01*
X92560416Y-112780634D01*
X92499626Y-112719844D01*
X92499625Y-112719843D01*
X92499623Y-112719842D01*
X92426835Y-112674105D01*
X92345690Y-112645712D01*
X92345685Y-112645711D01*
X92260260Y-112636086D01*
X92174834Y-112645711D01*
X92174829Y-112645712D01*
X92093684Y-112674105D01*
X92020896Y-112719842D01*
X92020894Y-112719843D01*
X91960103Y-112780634D01*
X91960102Y-112780636D01*
X91914365Y-112853424D01*
X91885972Y-112934569D01*
X91885971Y-112934574D01*
X91876346Y-113020000D01*
X91567000Y-113020000D01*
X91567000Y-112903000D01*
X91280506Y-112616506D01*
X91263628Y-112585597D01*
X91262200Y-112572312D01*
X91262200Y-110667800D01*
X91262200Y-110490000D01*
X93392116Y-110490000D01*
X94062794Y-111160678D01*
G37*
%TD.AperFunction*%
%TD*%
%TA.AperFunction,Conductor*%
%TO.N,GND1*%
G36*
X99285290Y-91449922D02*
G01*
X99308352Y-91476537D01*
X99314000Y-91502500D01*
X99314000Y-100050112D01*
X99304078Y-100083902D01*
X99295694Y-100094306D01*
X96538306Y-102851694D01*
X96507397Y-102868572D01*
X96494112Y-102870000D01*
X91186000Y-102870000D01*
X87902306Y-106153694D01*
X87871397Y-106170572D01*
X87858112Y-106172000D01*
X83820000Y-106172000D01*
X82042000Y-107950000D01*
X82042000Y-109702112D01*
X82032078Y-109735902D01*
X82023694Y-109746306D01*
X79266306Y-112503694D01*
X79235397Y-112520572D01*
X79222112Y-112522000D01*
X76814023Y-112522000D01*
X76782705Y-112512976D01*
X76782633Y-112513127D01*
X76781749Y-112512701D01*
X76780769Y-112512419D01*
X76779474Y-112511605D01*
X76779470Y-112511603D01*
X76779469Y-112511603D01*
X76698330Y-112483212D01*
X76698325Y-112483211D01*
X76612900Y-112473586D01*
X76527474Y-112483211D01*
X76527469Y-112483212D01*
X76446330Y-112511603D01*
X76446324Y-112511606D01*
X76445031Y-112512419D01*
X76444050Y-112512701D01*
X76443167Y-112513127D01*
X76443094Y-112512976D01*
X76411777Y-112522000D01*
X74524557Y-112522000D01*
X74490767Y-112512078D01*
X74467705Y-112485463D01*
X74462693Y-112450605D01*
X74471637Y-112426247D01*
X74475311Y-112420400D01*
X74494995Y-112389074D01*
X74523388Y-112307929D01*
X74533014Y-112222500D01*
X74524859Y-112150130D01*
X74530935Y-112115445D01*
X74542769Y-112098944D01*
X74590910Y-112050805D01*
X74621819Y-112033928D01*
X74635103Y-112032500D01*
X74852295Y-112032500D01*
X74852296Y-112032500D01*
X74876584Y-112025992D01*
X74876586Y-112025992D01*
X74892777Y-112021653D01*
X74900874Y-112019484D01*
X74922650Y-112006911D01*
X74944427Y-111994338D01*
X74979988Y-111958777D01*
X74979988Y-111958775D01*
X74985133Y-111953631D01*
X74985134Y-111953628D01*
X75002481Y-111936283D01*
X75033391Y-111919408D01*
X75046673Y-111917980D01*
X79358873Y-111917980D01*
X79358874Y-111917980D01*
X79383162Y-111911472D01*
X79383164Y-111911472D01*
X79395307Y-111908218D01*
X79407452Y-111904964D01*
X79438565Y-111887000D01*
X79451005Y-111879818D01*
X79486566Y-111844257D01*
X79486566Y-111844255D01*
X79491707Y-111839115D01*
X79491710Y-111839110D01*
X81488719Y-109842104D01*
X81513864Y-109798551D01*
X81520122Y-109775194D01*
X81526880Y-109749974D01*
X81526880Y-107942442D01*
X81536802Y-107908652D01*
X81545186Y-107898248D01*
X83646329Y-105797106D01*
X83677238Y-105780228D01*
X83690523Y-105778800D01*
X87379355Y-105778800D01*
X87379356Y-105778800D01*
X87411288Y-105770244D01*
X87411289Y-105770244D01*
X87415651Y-105769075D01*
X87427934Y-105765784D01*
X87458850Y-105747934D01*
X87471487Y-105740638D01*
X87507048Y-105705077D01*
X87507048Y-105705075D01*
X87512193Y-105699931D01*
X87512194Y-105699928D01*
X92322739Y-100889386D01*
X92353648Y-100872508D01*
X92366933Y-100871080D01*
X93957591Y-100871080D01*
X93991381Y-100881002D01*
X94010511Y-100900328D01*
X94022522Y-100919444D01*
X94022523Y-100919445D01*
X94022524Y-100919446D01*
X94083314Y-100980236D01*
X94156106Y-101025975D01*
X94237251Y-101054368D01*
X94322680Y-101063994D01*
X94408109Y-101054368D01*
X94489254Y-101025975D01*
X94562046Y-100980236D01*
X94622836Y-100919446D01*
X94668575Y-100846654D01*
X94696968Y-100765509D01*
X94706594Y-100680080D01*
X94696968Y-100594651D01*
X94668575Y-100513506D01*
X94622836Y-100440714D01*
X94562046Y-100379924D01*
X94562045Y-100379923D01*
X94562043Y-100379922D01*
X94489255Y-100334185D01*
X94408110Y-100305792D01*
X94408105Y-100305791D01*
X94322680Y-100296166D01*
X94237254Y-100305791D01*
X94237249Y-100305792D01*
X94156104Y-100334185D01*
X94083316Y-100379922D01*
X94083314Y-100379923D01*
X94022522Y-100440715D01*
X94010511Y-100459832D01*
X93984133Y-100483164D01*
X93957591Y-100489080D01*
X92514723Y-100489080D01*
X92480933Y-100479158D01*
X92457871Y-100452543D01*
X92452859Y-100417685D01*
X92467489Y-100385651D01*
X92470529Y-100382386D01*
X92725529Y-100127386D01*
X92756438Y-100110508D01*
X92769723Y-100109080D01*
X94592591Y-100109080D01*
X94626381Y-100119002D01*
X94645511Y-100138328D01*
X94657522Y-100157444D01*
X94657523Y-100157445D01*
X94657524Y-100157446D01*
X94718314Y-100218236D01*
X94791106Y-100263975D01*
X94872251Y-100292368D01*
X94957680Y-100301994D01*
X95043109Y-100292368D01*
X95124254Y-100263975D01*
X95197046Y-100218236D01*
X95257836Y-100157446D01*
X95303575Y-100084654D01*
X95331968Y-100003509D01*
X95341594Y-99918080D01*
X95331968Y-99832651D01*
X95303575Y-99751506D01*
X95291372Y-99732086D01*
X95264876Y-99689918D01*
X95257836Y-99678714D01*
X95197046Y-99617924D01*
X95197045Y-99617923D01*
X95197043Y-99617922D01*
X95124255Y-99572185D01*
X95043110Y-99543792D01*
X95043105Y-99543791D01*
X94957680Y-99534166D01*
X94872254Y-99543791D01*
X94872249Y-99543792D01*
X94791104Y-99572185D01*
X94718316Y-99617922D01*
X94718314Y-99617923D01*
X94657522Y-99678715D01*
X94645511Y-99697832D01*
X94619133Y-99721164D01*
X94592591Y-99727080D01*
X92639572Y-99727080D01*
X92630234Y-99729582D01*
X92620895Y-99732085D01*
X92603631Y-99736710D01*
X92590995Y-99740096D01*
X92590994Y-99740097D01*
X92547444Y-99765240D01*
X87188192Y-105124494D01*
X87157283Y-105141372D01*
X87143998Y-105142800D01*
X83733103Y-105142800D01*
X83699313Y-105132878D01*
X83676251Y-105106263D01*
X83671239Y-105071405D01*
X83685869Y-105039371D01*
X83688909Y-105036106D01*
X84167429Y-104557586D01*
X84198338Y-104540708D01*
X84211623Y-104539280D01*
X87030305Y-104539280D01*
X87030306Y-104539280D01*
X87054594Y-104532772D01*
X87054596Y-104532772D01*
X87070787Y-104528433D01*
X87078884Y-104526264D01*
X87105449Y-104510926D01*
X87122437Y-104501118D01*
X87157998Y-104465557D01*
X87157998Y-104465555D01*
X87163143Y-104460411D01*
X87163144Y-104460408D01*
X92290748Y-99332806D01*
X92321657Y-99315928D01*
X92334942Y-99314500D01*
X96344098Y-99314500D01*
X96377888Y-99324422D01*
X96388291Y-99332805D01*
X96469007Y-99413522D01*
X96485885Y-99444430D01*
X96486920Y-99464713D01*
X96478766Y-99537079D01*
X96488391Y-99622505D01*
X96488392Y-99622510D01*
X96516785Y-99703655D01*
X96555483Y-99765241D01*
X96562524Y-99776446D01*
X96623314Y-99837236D01*
X96696106Y-99882975D01*
X96777251Y-99911368D01*
X96862680Y-99920994D01*
X96948109Y-99911368D01*
X97029254Y-99882975D01*
X97102046Y-99837236D01*
X97162836Y-99776446D01*
X97208575Y-99703654D01*
X97236968Y-99622509D01*
X97246594Y-99537080D01*
X97236968Y-99451651D01*
X97208575Y-99370506D01*
X97162836Y-99297714D01*
X97102046Y-99236924D01*
X97102045Y-99236923D01*
X97102043Y-99236922D01*
X97029253Y-99191184D01*
X97002985Y-99181993D01*
X96974367Y-99161468D01*
X96961389Y-99128730D01*
X96968171Y-99094173D01*
X96992559Y-99068768D01*
X97023626Y-99060500D01*
X97217966Y-99060500D01*
X97251756Y-99070422D01*
X97256936Y-99074137D01*
X97258316Y-99075238D01*
X97331104Y-99120974D01*
X97331106Y-99120975D01*
X97412251Y-99149368D01*
X97497680Y-99158994D01*
X97583109Y-99149368D01*
X97664254Y-99120975D01*
X97737046Y-99075236D01*
X97797836Y-99014446D01*
X97843575Y-98941654D01*
X97871968Y-98860509D01*
X97881594Y-98775080D01*
X97871968Y-98689651D01*
X97843575Y-98608506D01*
X97797836Y-98535714D01*
X97737046Y-98474924D01*
X97737045Y-98474923D01*
X97737043Y-98474922D01*
X97664255Y-98429185D01*
X97583110Y-98400792D01*
X97583105Y-98400791D01*
X97497680Y-98391166D01*
X97412254Y-98400791D01*
X97412249Y-98400792D01*
X97331104Y-98429185D01*
X97258316Y-98474922D01*
X97258314Y-98474923D01*
X97197523Y-98535714D01*
X97197522Y-98535716D01*
X97151785Y-98608504D01*
X97141940Y-98636642D01*
X97121415Y-98665259D01*
X97088677Y-98678237D01*
X97082947Y-98678500D01*
X92099584Y-98678500D01*
X92099583Y-98678500D01*
X92099577Y-98678501D01*
X92051011Y-98691514D01*
X92051001Y-98691518D01*
X92007456Y-98716659D01*
X92007452Y-98716662D01*
X91989672Y-98734442D01*
X91971892Y-98752223D01*
X91971890Y-98752225D01*
X86839142Y-103884974D01*
X86808233Y-103901852D01*
X86794948Y-103903280D01*
X83976264Y-103903280D01*
X83976263Y-103903280D01*
X83976257Y-103903281D01*
X83927691Y-103916294D01*
X83927684Y-103916297D01*
X83885654Y-103940563D01*
X83885653Y-103940562D01*
X83884138Y-103941437D01*
X83884133Y-103941441D01*
X82751174Y-105074401D01*
X82720265Y-105091279D01*
X82685138Y-105088766D01*
X82656946Y-105067662D01*
X82644639Y-105034666D01*
X82644480Y-105030207D01*
X82644480Y-104976522D01*
X82654402Y-104942732D01*
X82662786Y-104932328D01*
X84414209Y-103180906D01*
X84445118Y-103164028D01*
X84458403Y-103162600D01*
X86769755Y-103162600D01*
X86769756Y-103162600D01*
X86794044Y-103156092D01*
X86794046Y-103156092D01*
X86810237Y-103151753D01*
X86818334Y-103149584D01*
X86840110Y-103137011D01*
X86861887Y-103124438D01*
X86897448Y-103088877D01*
X86897448Y-103088875D01*
X86902593Y-103083731D01*
X86902594Y-103083728D01*
X91555219Y-98431106D01*
X91586128Y-98414228D01*
X91599413Y-98412800D01*
X96372425Y-98412800D01*
X96372426Y-98412800D01*
X96396714Y-98406292D01*
X96396716Y-98406292D01*
X96412907Y-98401953D01*
X96421004Y-98399784D01*
X96442780Y-98387211D01*
X96464557Y-98374638D01*
X96500118Y-98339077D01*
X96500118Y-98339075D01*
X96505263Y-98333931D01*
X96505264Y-98333928D01*
X97302758Y-97536437D01*
X97305182Y-97532238D01*
X97327904Y-97492883D01*
X97340920Y-97444306D01*
X97340920Y-94211174D01*
X97334896Y-94188692D01*
X97334896Y-94188689D01*
X97327904Y-94162596D01*
X97327903Y-94162594D01*
X97302758Y-94119043D01*
X97302753Y-94119037D01*
X96621352Y-93437637D01*
X96604474Y-93406728D01*
X96603439Y-93386450D01*
X96611594Y-93314080D01*
X96601968Y-93228651D01*
X96573575Y-93147506D01*
X96564067Y-93132375D01*
X96538710Y-93092020D01*
X96527836Y-93074714D01*
X96467046Y-93013924D01*
X96467045Y-93013923D01*
X96467043Y-93013922D01*
X96394255Y-92968185D01*
X96313110Y-92939792D01*
X96313105Y-92939791D01*
X96227680Y-92930166D01*
X96142254Y-92939791D01*
X96142249Y-92939792D01*
X96061104Y-92968185D01*
X95988316Y-93013922D01*
X95988314Y-93013923D01*
X95927523Y-93074714D01*
X95927522Y-93074716D01*
X95881785Y-93147504D01*
X95853392Y-93228649D01*
X95853391Y-93228654D01*
X95843766Y-93314080D01*
X95853391Y-93399505D01*
X95853392Y-93399510D01*
X95881785Y-93480655D01*
X95905422Y-93518272D01*
X95927524Y-93553446D01*
X95988314Y-93614236D01*
X96007429Y-93626247D01*
X96036678Y-93644626D01*
X96061106Y-93659975D01*
X96142251Y-93688368D01*
X96227680Y-93697994D01*
X96300048Y-93689839D01*
X96334734Y-93695914D01*
X96351234Y-93707749D01*
X96389731Y-93746246D01*
X96421871Y-93778386D01*
X96438749Y-93809295D01*
X96436236Y-93844422D01*
X96415131Y-93872614D01*
X96382135Y-93884921D01*
X96377677Y-93885080D01*
X95957769Y-93885080D01*
X95923979Y-93875158D01*
X95904849Y-93855832D01*
X95892837Y-93836715D01*
X95832045Y-93775923D01*
X95832043Y-93775922D01*
X95759255Y-93730185D01*
X95678110Y-93701792D01*
X95678105Y-93701791D01*
X95592680Y-93692166D01*
X95507254Y-93701791D01*
X95507249Y-93701792D01*
X95426104Y-93730185D01*
X95353316Y-93775922D01*
X95353314Y-93775923D01*
X95292524Y-93836713D01*
X95264100Y-93881949D01*
X95237721Y-93905281D01*
X95202916Y-93910647D01*
X95170734Y-93896345D01*
X95151394Y-93866914D01*
X95148680Y-93848696D01*
X95148680Y-93679168D01*
X95158602Y-93645378D01*
X95177930Y-93626247D01*
X95197043Y-93614238D01*
X95197043Y-93614237D01*
X95197046Y-93614236D01*
X95257836Y-93553446D01*
X95303575Y-93480654D01*
X95331968Y-93399509D01*
X95341594Y-93314080D01*
X95331968Y-93228651D01*
X95303575Y-93147506D01*
X95294067Y-93132375D01*
X95268710Y-93092020D01*
X95257836Y-93074714D01*
X95197046Y-93013924D01*
X95197045Y-93013923D01*
X95197043Y-93013922D01*
X95124255Y-92968185D01*
X95043110Y-92939792D01*
X95043105Y-92939791D01*
X94957680Y-92930166D01*
X94872254Y-92939791D01*
X94872249Y-92939792D01*
X94791104Y-92968185D01*
X94718316Y-93013922D01*
X94718314Y-93013923D01*
X94657523Y-93074714D01*
X94657522Y-93074716D01*
X94611785Y-93147504D01*
X94583392Y-93228649D01*
X94583391Y-93228654D01*
X94573766Y-93314080D01*
X94583391Y-93399505D01*
X94583392Y-93399510D01*
X94611785Y-93480655D01*
X94657522Y-93553443D01*
X94657523Y-93553445D01*
X94718316Y-93614238D01*
X94737430Y-93626247D01*
X94760763Y-93652624D01*
X94766680Y-93679168D01*
X94766680Y-93848696D01*
X94756758Y-93882486D01*
X94730143Y-93905548D01*
X94695285Y-93910560D01*
X94663251Y-93895930D01*
X94651260Y-93881949D01*
X94627679Y-93844422D01*
X94622836Y-93836714D01*
X94562046Y-93775924D01*
X94562045Y-93775923D01*
X94562043Y-93775922D01*
X94489255Y-93730185D01*
X94408110Y-93701792D01*
X94408105Y-93701791D01*
X94322680Y-93692166D01*
X94237254Y-93701791D01*
X94237249Y-93701792D01*
X94156104Y-93730185D01*
X94083316Y-93775922D01*
X94083314Y-93775923D01*
X94022523Y-93836714D01*
X94022522Y-93836716D01*
X93976785Y-93909504D01*
X93948392Y-93990649D01*
X93948391Y-93990654D01*
X93938766Y-94076079D01*
X93946920Y-94148445D01*
X93940844Y-94183133D01*
X93929007Y-94199637D01*
X93527372Y-94601274D01*
X93496463Y-94618152D01*
X93483178Y-94619580D01*
X91096724Y-94619580D01*
X91096723Y-94619580D01*
X91096717Y-94619581D01*
X91048151Y-94632594D01*
X91048141Y-94632598D01*
X91004596Y-94657739D01*
X91004587Y-94657746D01*
X87045637Y-98616699D01*
X87014728Y-98633577D01*
X87001443Y-98635005D01*
X84742589Y-98635005D01*
X84742588Y-98635005D01*
X84742582Y-98635006D01*
X84694016Y-98648019D01*
X84694009Y-98648022D01*
X84650459Y-98673165D01*
X80644562Y-102679062D01*
X80637937Y-102690539D01*
X80637935Y-102690542D01*
X80619416Y-102722615D01*
X80619416Y-102722616D01*
X80612908Y-102746905D01*
X80612908Y-102746906D01*
X80606400Y-102771189D01*
X80606400Y-105030047D01*
X80596478Y-105063837D01*
X80588094Y-105074241D01*
X80155294Y-105507041D01*
X80124385Y-105523919D01*
X80089258Y-105521406D01*
X80061066Y-105500302D01*
X80048759Y-105467306D01*
X80048600Y-105462847D01*
X80048600Y-102709754D01*
X80058522Y-102675964D01*
X80066906Y-102665560D01*
X82426675Y-100305791D01*
X84787773Y-97944692D01*
X84818680Y-97927816D01*
X84853807Y-97930329D01*
X84865212Y-97935965D01*
X84932706Y-97978375D01*
X85013851Y-98006768D01*
X85099280Y-98016394D01*
X85184709Y-98006768D01*
X85265854Y-97978375D01*
X85338646Y-97932636D01*
X85399436Y-97871846D01*
X85445175Y-97799054D01*
X85473568Y-97717909D01*
X85473568Y-97717904D01*
X85473920Y-97716900D01*
X85494444Y-97688283D01*
X85527182Y-97675304D01*
X85561739Y-97682086D01*
X85578023Y-97695742D01*
X85578545Y-97695221D01*
X85620558Y-97737234D01*
X85620572Y-97737246D01*
X85910334Y-98027008D01*
X85910339Y-98027014D01*
X85912522Y-98029197D01*
X85948083Y-98064758D01*
X85955360Y-98068959D01*
X85955362Y-98068961D01*
X85955363Y-98068961D01*
X85991632Y-98089902D01*
X85991633Y-98089902D01*
X85991636Y-98089904D01*
X86015925Y-98096412D01*
X86023580Y-98098463D01*
X86040209Y-98102919D01*
X86040212Y-98102919D01*
X86040214Y-98102920D01*
X86040215Y-98102920D01*
X86951565Y-98102920D01*
X86951566Y-98102920D01*
X86975854Y-98096412D01*
X86975855Y-98096412D01*
X86984745Y-98094029D01*
X87000144Y-98089904D01*
X87000148Y-98089902D01*
X87011937Y-98083095D01*
X87036417Y-98068961D01*
X87043697Y-98064758D01*
X87079258Y-98029197D01*
X87079258Y-98029195D01*
X87084399Y-98024055D01*
X87084403Y-98024050D01*
X87511054Y-97597399D01*
X87511057Y-97597398D01*
X87546618Y-97561837D01*
X87561283Y-97536437D01*
X87571764Y-97518284D01*
X87584780Y-97469705D01*
X87584780Y-97419414D01*
X87584780Y-93162374D01*
X87574842Y-93125284D01*
X87574842Y-93125282D01*
X87573540Y-93120427D01*
X87571764Y-93113796D01*
X87571762Y-93113793D01*
X87571762Y-93113791D01*
X87559192Y-93092021D01*
X87559191Y-93092019D01*
X87546620Y-93070246D01*
X87546617Y-93070242D01*
X87537355Y-93060980D01*
X87511057Y-93034682D01*
X87511054Y-93034680D01*
X87508874Y-93032500D01*
X87508874Y-93032499D01*
X87508868Y-93032494D01*
X86386866Y-91910492D01*
X86386854Y-91910478D01*
X86347742Y-91871366D01*
X86347736Y-91871361D01*
X86325959Y-91858788D01*
X86325959Y-91858787D01*
X86325957Y-91858787D01*
X86304187Y-91846217D01*
X86304183Y-91846215D01*
X86279894Y-91839707D01*
X86279891Y-91839707D01*
X86255610Y-91833200D01*
X86255606Y-91833200D01*
X81352844Y-91833200D01*
X81352839Y-91833200D01*
X81332603Y-91838623D01*
X81328555Y-91839708D01*
X81304270Y-91846215D01*
X81304266Y-91846216D01*
X81282490Y-91858789D01*
X81282489Y-91858788D01*
X81260713Y-91871361D01*
X81260712Y-91871362D01*
X81242932Y-91889142D01*
X81225152Y-91906923D01*
X81225150Y-91906925D01*
X72653725Y-100478350D01*
X72653723Y-100478352D01*
X72642995Y-100489080D01*
X72618162Y-100513912D01*
X72618159Y-100513916D01*
X72593016Y-100557464D01*
X72591587Y-100562801D01*
X72591586Y-100562804D01*
X72580000Y-100606039D01*
X72580000Y-107815168D01*
X72586507Y-107839449D01*
X72586507Y-107839451D01*
X72593015Y-107863740D01*
X72601140Y-107877814D01*
X72601141Y-107877815D01*
X72618159Y-107907291D01*
X72618166Y-107907300D01*
X72657278Y-107946412D01*
X72657291Y-107946423D01*
X73240643Y-108529776D01*
X73240644Y-108529777D01*
X73259701Y-108548834D01*
X73276204Y-108565337D01*
X73276205Y-108565338D01*
X73284159Y-108569930D01*
X73308462Y-108595417D01*
X73315127Y-108629997D01*
X73302039Y-108662691D01*
X73273553Y-108683050D01*
X73220523Y-108701605D01*
X73147736Y-108747342D01*
X73147734Y-108747343D01*
X73086943Y-108808134D01*
X73086942Y-108808136D01*
X73041205Y-108880924D01*
X73012812Y-108962069D01*
X73012811Y-108962074D01*
X73003186Y-109047500D01*
X73012811Y-109132925D01*
X73012812Y-109132930D01*
X73041205Y-109214075D01*
X73086942Y-109286863D01*
X73086943Y-109286865D01*
X73147734Y-109347656D01*
X73147736Y-109347657D01*
X73202935Y-109382342D01*
X73220526Y-109393395D01*
X73301671Y-109421788D01*
X73387100Y-109431414D01*
X73472529Y-109421788D01*
X73553674Y-109393395D01*
X73626466Y-109347656D01*
X73687256Y-109286866D01*
X73699269Y-109267748D01*
X73725647Y-109244416D01*
X73752189Y-109238500D01*
X73921717Y-109238500D01*
X73955507Y-109248422D01*
X73978569Y-109275037D01*
X73983581Y-109309895D01*
X73968951Y-109341929D01*
X73954969Y-109353920D01*
X73909736Y-109382342D01*
X73909734Y-109382343D01*
X73848943Y-109443134D01*
X73848942Y-109443136D01*
X73803205Y-109515924D01*
X73774812Y-109597069D01*
X73774811Y-109597074D01*
X73765186Y-109682500D01*
X73774811Y-109767925D01*
X73774812Y-109767930D01*
X73803205Y-109849075D01*
X73848942Y-109921863D01*
X73848943Y-109921865D01*
X73909734Y-109982656D01*
X73909736Y-109982657D01*
X73954969Y-110011080D01*
X73978301Y-110037458D01*
X73983668Y-110072264D01*
X73969366Y-110104445D01*
X73939936Y-110123786D01*
X73921717Y-110126500D01*
X73752189Y-110126500D01*
X73718399Y-110116578D01*
X73699269Y-110097252D01*
X73687257Y-110078135D01*
X73626465Y-110017343D01*
X73626463Y-110017342D01*
X73553675Y-109971605D01*
X73472530Y-109943212D01*
X73472525Y-109943211D01*
X73387100Y-109933586D01*
X73301674Y-109943211D01*
X73301669Y-109943212D01*
X73220524Y-109971605D01*
X73147736Y-110017342D01*
X73147734Y-110017343D01*
X73086943Y-110078134D01*
X73086942Y-110078136D01*
X73041205Y-110150924D01*
X73012812Y-110232069D01*
X73012811Y-110232074D01*
X73003186Y-110317500D01*
X73012811Y-110402925D01*
X73012812Y-110402930D01*
X73041205Y-110484075D01*
X73080383Y-110546425D01*
X73086944Y-110556866D01*
X73147734Y-110617656D01*
X73184130Y-110640525D01*
X73205303Y-110653830D01*
X73220526Y-110663395D01*
X73301671Y-110691788D01*
X73387100Y-110701414D01*
X73472529Y-110691788D01*
X73553674Y-110663395D01*
X73626466Y-110617656D01*
X73687256Y-110556866D01*
X73699269Y-110537748D01*
X73725647Y-110514416D01*
X73752189Y-110508500D01*
X73921717Y-110508500D01*
X73955507Y-110518422D01*
X73978569Y-110545037D01*
X73983581Y-110579895D01*
X73968951Y-110611929D01*
X73954969Y-110623920D01*
X73909736Y-110652342D01*
X73909734Y-110652343D01*
X73848943Y-110713134D01*
X73848942Y-110713136D01*
X73803205Y-110785924D01*
X73774812Y-110867069D01*
X73774811Y-110867074D01*
X73765186Y-110952500D01*
X73774811Y-111037925D01*
X73774812Y-111037930D01*
X73803205Y-111119075D01*
X73848942Y-111191863D01*
X73848943Y-111191865D01*
X73909734Y-111252656D01*
X73909736Y-111252657D01*
X73954969Y-111281080D01*
X73978301Y-111307458D01*
X73983668Y-111342264D01*
X73969366Y-111374445D01*
X73939936Y-111393786D01*
X73921717Y-111396500D01*
X73752189Y-111396500D01*
X73718399Y-111386578D01*
X73699269Y-111367252D01*
X73687257Y-111348135D01*
X73626465Y-111287343D01*
X73626463Y-111287342D01*
X73553675Y-111241605D01*
X73472530Y-111213212D01*
X73472525Y-111213211D01*
X73387100Y-111203586D01*
X73301674Y-111213211D01*
X73301669Y-111213212D01*
X73220524Y-111241605D01*
X73147736Y-111287342D01*
X73147734Y-111287343D01*
X73086943Y-111348134D01*
X73086942Y-111348136D01*
X73041205Y-111420924D01*
X73012812Y-111502069D01*
X73012811Y-111502074D01*
X73003186Y-111587500D01*
X73012811Y-111672925D01*
X73012812Y-111672930D01*
X73041205Y-111754075D01*
X73086942Y-111826863D01*
X73086943Y-111826865D01*
X73147734Y-111887656D01*
X73147736Y-111887657D01*
X73219174Y-111932546D01*
X73220526Y-111933395D01*
X73301671Y-111961788D01*
X73387100Y-111971414D01*
X73472529Y-111961788D01*
X73553674Y-111933395D01*
X73626466Y-111887656D01*
X73687256Y-111826866D01*
X73699269Y-111807748D01*
X73725647Y-111784416D01*
X73752189Y-111778500D01*
X73921717Y-111778500D01*
X73955507Y-111788422D01*
X73978569Y-111815037D01*
X73983581Y-111849895D01*
X73968951Y-111881929D01*
X73954969Y-111893920D01*
X73909736Y-111922342D01*
X73909734Y-111922343D01*
X73848943Y-111983134D01*
X73848942Y-111983136D01*
X73803205Y-112055924D01*
X73774812Y-112137069D01*
X73774811Y-112137074D01*
X73764793Y-112225988D01*
X73764124Y-112225912D01*
X73755264Y-112256088D01*
X73728649Y-112279150D01*
X73693791Y-112284162D01*
X73661757Y-112269532D01*
X73658492Y-112266492D01*
X73609200Y-112217200D01*
X72325500Y-112217200D01*
X72291710Y-112207278D01*
X72268648Y-112180663D01*
X72263000Y-112154700D01*
X72263000Y-99974888D01*
X72272922Y-99941098D01*
X72281306Y-99930694D01*
X80753694Y-91458306D01*
X80784603Y-91441428D01*
X80797888Y-91440000D01*
X99251500Y-91440000D01*
X99285290Y-91449922D01*
G37*
%TD.AperFunction*%
%TA.AperFunction,Conductor*%
G36*
X83332197Y-93070902D02*
G01*
X83355259Y-93097517D01*
X83360271Y-93132375D01*
X83345641Y-93164409D01*
X83342601Y-93167674D01*
X77321125Y-99189150D01*
X77321123Y-99189152D01*
X77303342Y-99206932D01*
X77285562Y-99224712D01*
X77285559Y-99224716D01*
X77272989Y-99246489D01*
X77272989Y-99246490D01*
X77260414Y-99268267D01*
X77259683Y-99271000D01*
X77259682Y-99271004D01*
X77247401Y-99316837D01*
X77247400Y-99316845D01*
X77247400Y-106233788D01*
X77237478Y-106267578D01*
X77229094Y-106277982D01*
X77208882Y-106298194D01*
X77177973Y-106315072D01*
X77164688Y-106316500D01*
X76977989Y-106316500D01*
X76944199Y-106306578D01*
X76925069Y-106287252D01*
X76913057Y-106268135D01*
X76852265Y-106207343D01*
X76852263Y-106207342D01*
X76779475Y-106161605D01*
X76698330Y-106133212D01*
X76698325Y-106133211D01*
X76612900Y-106123586D01*
X76527474Y-106133211D01*
X76527469Y-106133212D01*
X76446324Y-106161605D01*
X76373536Y-106207342D01*
X76373534Y-106207343D01*
X76312743Y-106268134D01*
X76312742Y-106268136D01*
X76267005Y-106340924D01*
X76238612Y-106422069D01*
X76238611Y-106422074D01*
X76228986Y-106507500D01*
X76238611Y-106592925D01*
X76238612Y-106592930D01*
X76267005Y-106674075D01*
X76312742Y-106746863D01*
X76312743Y-106746865D01*
X76373534Y-106807656D01*
X76373536Y-106807657D01*
X76428735Y-106842342D01*
X76446326Y-106853395D01*
X76527471Y-106881788D01*
X76597271Y-106889652D01*
X76629736Y-106903294D01*
X76649673Y-106932324D01*
X76650751Y-106967524D01*
X76648925Y-106972529D01*
X76649164Y-106972613D01*
X76619612Y-107057069D01*
X76619611Y-107057074D01*
X76609986Y-107142500D01*
X76619611Y-107227925D01*
X76619612Y-107227930D01*
X76649164Y-107312387D01*
X76647722Y-107312891D01*
X76652286Y-107341017D01*
X76638237Y-107373310D01*
X76608959Y-107392881D01*
X76597270Y-107395347D01*
X76527474Y-107403211D01*
X76527469Y-107403212D01*
X76446324Y-107431605D01*
X76373536Y-107477342D01*
X76373534Y-107477343D01*
X76312743Y-107538134D01*
X76312742Y-107538136D01*
X76267005Y-107610924D01*
X76238612Y-107692069D01*
X76238611Y-107692074D01*
X76228986Y-107777500D01*
X76238611Y-107862925D01*
X76238612Y-107862930D01*
X76267005Y-107944075D01*
X76307428Y-108008406D01*
X76312744Y-108016866D01*
X76373534Y-108077656D01*
X76396623Y-108092164D01*
X76428735Y-108112342D01*
X76446326Y-108123395D01*
X76527471Y-108151788D01*
X76597271Y-108159652D01*
X76629736Y-108173294D01*
X76649673Y-108202324D01*
X76650751Y-108237524D01*
X76648925Y-108242529D01*
X76649164Y-108242613D01*
X76619612Y-108327069D01*
X76619611Y-108327074D01*
X76609986Y-108412500D01*
X76619611Y-108497925D01*
X76619612Y-108497930D01*
X76649164Y-108582387D01*
X76647722Y-108582891D01*
X76652286Y-108611017D01*
X76638237Y-108643310D01*
X76608959Y-108662881D01*
X76597270Y-108665347D01*
X76527474Y-108673211D01*
X76527469Y-108673212D01*
X76446324Y-108701605D01*
X76373536Y-108747342D01*
X76373534Y-108747343D01*
X76312743Y-108808134D01*
X76312742Y-108808136D01*
X76267005Y-108880924D01*
X76238612Y-108962069D01*
X76238611Y-108962074D01*
X76228986Y-109047500D01*
X76238611Y-109132925D01*
X76238612Y-109132930D01*
X76267005Y-109214075D01*
X76312742Y-109286863D01*
X76312743Y-109286865D01*
X76373534Y-109347656D01*
X76373536Y-109347657D01*
X76428735Y-109382342D01*
X76446326Y-109393395D01*
X76527471Y-109421788D01*
X76597271Y-109429652D01*
X76629736Y-109443294D01*
X76649673Y-109472324D01*
X76650751Y-109507524D01*
X76648925Y-109512529D01*
X76649164Y-109512613D01*
X76619612Y-109597069D01*
X76619611Y-109597074D01*
X76609986Y-109682500D01*
X76619611Y-109767925D01*
X76619612Y-109767930D01*
X76649164Y-109852387D01*
X76647773Y-109852873D01*
X76652433Y-109881112D01*
X76638470Y-109913442D01*
X76609244Y-109933091D01*
X76590398Y-109936000D01*
X75838933Y-109936000D01*
X75805143Y-109926078D01*
X75794739Y-109917694D01*
X74810836Y-108933792D01*
X74810824Y-108933778D01*
X74771709Y-108894663D01*
X74768520Y-108892822D01*
X74747916Y-108880926D01*
X74728154Y-108869516D01*
X74728153Y-108869515D01*
X74695019Y-108860637D01*
X74695016Y-108860637D01*
X74679580Y-108856500D01*
X74679576Y-108856500D01*
X74376483Y-108856500D01*
X74342693Y-108846578D01*
X74319631Y-108819963D01*
X74314619Y-108785105D01*
X74329249Y-108753071D01*
X74343231Y-108741080D01*
X74361758Y-108729438D01*
X74388466Y-108712656D01*
X74449256Y-108651866D01*
X74494995Y-108579074D01*
X74523388Y-108497929D01*
X74533014Y-108412500D01*
X74523388Y-108327071D01*
X74494995Y-108245926D01*
X74492913Y-108242613D01*
X74456689Y-108184963D01*
X74449256Y-108173134D01*
X74388466Y-108112344D01*
X74388465Y-108112343D01*
X74388463Y-108112342D01*
X74315675Y-108066605D01*
X74234530Y-108038212D01*
X74234525Y-108038211D01*
X74149100Y-108028586D01*
X74063674Y-108038211D01*
X74063669Y-108038212D01*
X73982524Y-108066605D01*
X73909736Y-108112342D01*
X73909734Y-108112343D01*
X73848942Y-108173135D01*
X73836931Y-108192252D01*
X73810553Y-108215584D01*
X73784011Y-108221500D01*
X73614483Y-108221500D01*
X73580693Y-108211578D01*
X73557631Y-108184963D01*
X73552619Y-108150105D01*
X73567249Y-108118071D01*
X73581231Y-108106080D01*
X73603377Y-108092164D01*
X73626466Y-108077656D01*
X73687256Y-108016866D01*
X73732995Y-107944074D01*
X73761388Y-107862929D01*
X73771014Y-107777500D01*
X73761388Y-107692071D01*
X73732995Y-107610926D01*
X73687256Y-107538134D01*
X73626466Y-107477344D01*
X73626465Y-107477343D01*
X73626463Y-107477342D01*
X73553675Y-107431605D01*
X73472530Y-107403212D01*
X73472525Y-107403211D01*
X73387100Y-107393586D01*
X73314733Y-107401740D01*
X73280044Y-107395664D01*
X73263541Y-107383827D01*
X73234306Y-107354592D01*
X73217428Y-107323683D01*
X73216000Y-107310398D01*
X73216000Y-107005020D01*
X73225922Y-106971230D01*
X73252537Y-106948168D01*
X73287395Y-106943156D01*
X73319429Y-106957786D01*
X73322690Y-106960822D01*
X73621643Y-107259776D01*
X73621644Y-107259777D01*
X73657204Y-107295337D01*
X73657208Y-107295340D01*
X73700753Y-107320481D01*
X73700755Y-107320482D01*
X73700759Y-107320484D01*
X73749336Y-107333500D01*
X73784011Y-107333500D01*
X73817801Y-107343422D01*
X73836931Y-107362748D01*
X73848942Y-107381864D01*
X73909734Y-107442656D01*
X73909736Y-107442657D01*
X73964935Y-107477342D01*
X73982526Y-107488395D01*
X74063671Y-107516788D01*
X74149100Y-107526414D01*
X74234529Y-107516788D01*
X74315674Y-107488395D01*
X74388466Y-107442656D01*
X74449256Y-107381866D01*
X74494995Y-107309074D01*
X74523388Y-107227929D01*
X74533014Y-107142500D01*
X74523388Y-107057071D01*
X74494995Y-106975926D01*
X74492913Y-106972613D01*
X74466124Y-106929979D01*
X74449256Y-106903134D01*
X74388466Y-106842344D01*
X74388465Y-106842343D01*
X74388463Y-106842342D01*
X74315675Y-106796605D01*
X74234530Y-106768212D01*
X74234525Y-106768211D01*
X74164729Y-106760347D01*
X74132262Y-106746704D01*
X74112325Y-106717674D01*
X74111248Y-106682474D01*
X74113087Y-106677475D01*
X74112836Y-106677387D01*
X74132926Y-106619971D01*
X74142388Y-106592929D01*
X74152014Y-106507500D01*
X74142388Y-106422071D01*
X74113995Y-106340926D01*
X74107828Y-106331112D01*
X74068257Y-106268136D01*
X74068256Y-106268134D01*
X74007465Y-106207343D01*
X74007463Y-106207342D01*
X73934675Y-106161605D01*
X73853530Y-106133212D01*
X73853526Y-106133211D01*
X73779501Y-106124870D01*
X73747035Y-106111227D01*
X73727098Y-106082197D01*
X73724000Y-106062763D01*
X73724000Y-102036272D01*
X73733922Y-102002482D01*
X73742306Y-101992078D01*
X82655099Y-93079286D01*
X82686008Y-93062408D01*
X82699293Y-93060980D01*
X83298407Y-93060980D01*
X83332197Y-93070902D01*
G37*
%TD.AperFunction*%
%TA.AperFunction,Conductor*%
G36*
X83408277Y-94053106D02*
G01*
X83436469Y-94074210D01*
X83448542Y-94104667D01*
X83454991Y-94161905D01*
X83454992Y-94161910D01*
X83483385Y-94243055D01*
X83529122Y-94315843D01*
X83529123Y-94315845D01*
X83589916Y-94376638D01*
X83609030Y-94388647D01*
X83632363Y-94415024D01*
X83638280Y-94441568D01*
X83638280Y-95148417D01*
X83628358Y-95182207D01*
X83619974Y-95192611D01*
X83446772Y-95365814D01*
X83415864Y-95382692D01*
X83402578Y-95384120D01*
X82932724Y-95384120D01*
X82932723Y-95384120D01*
X82932717Y-95384121D01*
X82884151Y-95397134D01*
X82884141Y-95397138D01*
X82840596Y-95422279D01*
X82840587Y-95422286D01*
X79654371Y-98608504D01*
X78612565Y-99650310D01*
X78612563Y-99650312D01*
X78594782Y-99668093D01*
X78577001Y-99685873D01*
X78574669Y-99689914D01*
X78574667Y-99689918D01*
X78551856Y-99729425D01*
X78551856Y-99729426D01*
X78551328Y-99731396D01*
X78551327Y-99731400D01*
X78551326Y-99731399D01*
X78538841Y-99777997D01*
X78538840Y-99778005D01*
X78538840Y-105660768D01*
X78528918Y-105694558D01*
X78520534Y-105704962D01*
X77990094Y-106235402D01*
X77959185Y-106252280D01*
X77924058Y-106249767D01*
X77895866Y-106228663D01*
X77883559Y-106195667D01*
X77883400Y-106191208D01*
X77883400Y-99552201D01*
X77893322Y-99518411D01*
X77901701Y-99508012D01*
X83342243Y-94067469D01*
X83373150Y-94050593D01*
X83408277Y-94053106D01*
G37*
%TD.AperFunction*%
%TA.AperFunction,Conductor*%
G36*
X83433828Y-96030042D02*
G01*
X83444232Y-96038426D01*
X83619974Y-96214168D01*
X83636852Y-96245077D01*
X83638280Y-96258362D01*
X83638280Y-97267390D01*
X83628358Y-97301180D01*
X83609034Y-97320309D01*
X83589915Y-97332322D01*
X83529123Y-97393114D01*
X83529122Y-97393116D01*
X83483385Y-97465904D01*
X83454992Y-97547049D01*
X83454991Y-97547054D01*
X83445366Y-97632480D01*
X83454991Y-97717905D01*
X83454992Y-97717910D01*
X83483385Y-97799055D01*
X83529122Y-97871843D01*
X83529123Y-97871845D01*
X83589914Y-97932636D01*
X83589916Y-97932637D01*
X83662705Y-97978375D01*
X83684192Y-97985893D01*
X83711010Y-97995276D01*
X83739626Y-98015800D01*
X83752605Y-98048538D01*
X83745823Y-98083095D01*
X83734562Y-98098463D01*
X80476261Y-101356766D01*
X79486325Y-102346702D01*
X79486323Y-102346704D01*
X79468542Y-102364484D01*
X79450762Y-102382264D01*
X79450759Y-102382268D01*
X79425617Y-102425815D01*
X79425616Y-102425817D01*
X79425616Y-102425818D01*
X79419108Y-102450107D01*
X79419108Y-102450108D01*
X79412600Y-102474391D01*
X79412600Y-105505427D01*
X79402678Y-105539217D01*
X79394294Y-105549621D01*
X79281534Y-105662381D01*
X79250625Y-105679259D01*
X79215498Y-105676746D01*
X79187306Y-105655642D01*
X79174999Y-105622646D01*
X79174840Y-105618187D01*
X79174840Y-100013362D01*
X79184762Y-99979572D01*
X79193146Y-99969168D01*
X83123889Y-96038426D01*
X83154798Y-96021548D01*
X83168083Y-96020120D01*
X83400038Y-96020120D01*
X83433828Y-96030042D01*
G37*
%TD.AperFunction*%
%TA.AperFunction,Conductor*%
G36*
X94951878Y-96225622D02*
G01*
X94962282Y-96234006D01*
X95383374Y-96655098D01*
X95400252Y-96686007D01*
X95401680Y-96699292D01*
X95401680Y-96885990D01*
X95391758Y-96919780D01*
X95372434Y-96938909D01*
X95353315Y-96950922D01*
X95292523Y-97011714D01*
X95292522Y-97011716D01*
X95246785Y-97084504D01*
X95218392Y-97165649D01*
X95218391Y-97165654D01*
X95208766Y-97251080D01*
X95218391Y-97336505D01*
X95218392Y-97336510D01*
X95246785Y-97417655D01*
X95279490Y-97469703D01*
X95292524Y-97490446D01*
X95353314Y-97551236D01*
X95426106Y-97596975D01*
X95507251Y-97625368D01*
X95592680Y-97634994D01*
X95678109Y-97625368D01*
X95759254Y-97596975D01*
X95832046Y-97551236D01*
X95892836Y-97490446D01*
X95938575Y-97417654D01*
X95966968Y-97336509D01*
X95974833Y-97266707D01*
X95988474Y-97234243D01*
X96017504Y-97214306D01*
X96052704Y-97213228D01*
X96057706Y-97215063D01*
X96057793Y-97214816D01*
X96073849Y-97220434D01*
X96142251Y-97244368D01*
X96227680Y-97253994D01*
X96313109Y-97244368D01*
X96394254Y-97215975D01*
X96467046Y-97170236D01*
X96527836Y-97109446D01*
X96573575Y-97036654D01*
X96583427Y-97008498D01*
X96603951Y-96979881D01*
X96636689Y-96966902D01*
X96671247Y-96973684D01*
X96696652Y-96998072D01*
X96704920Y-97029139D01*
X96704920Y-97208947D01*
X96694998Y-97242737D01*
X96686614Y-97253141D01*
X96181262Y-97758494D01*
X96150353Y-97775372D01*
X96137068Y-97776800D01*
X91364049Y-97776800D01*
X91337562Y-97783898D01*
X91332264Y-97785318D01*
X91322570Y-97787915D01*
X91315475Y-97789816D01*
X91315474Y-97789817D01*
X91271924Y-97814960D01*
X86578592Y-102508294D01*
X86547683Y-102525172D01*
X86534398Y-102526600D01*
X84201254Y-102526600D01*
X84201253Y-102526600D01*
X84201247Y-102526601D01*
X84152681Y-102539614D01*
X84152671Y-102539618D01*
X84109126Y-102564759D01*
X84109122Y-102564762D01*
X84091342Y-102582542D01*
X84073562Y-102600323D01*
X84073560Y-102600325D01*
X82082205Y-104591680D01*
X82082203Y-104591682D01*
X82066980Y-104606905D01*
X82046642Y-104627242D01*
X82046641Y-104627243D01*
X82035900Y-104645848D01*
X82021496Y-104670794D01*
X82019367Y-104678743D01*
X82019366Y-104678742D01*
X82019366Y-104678745D01*
X82008481Y-104719367D01*
X82008480Y-104719375D01*
X82008480Y-105064808D01*
X81998558Y-105098598D01*
X81990174Y-105109002D01*
X81968854Y-105130322D01*
X81937945Y-105147200D01*
X81902818Y-105144687D01*
X81874626Y-105123583D01*
X81862319Y-105090587D01*
X81862160Y-105086128D01*
X81862160Y-104042872D01*
X81872082Y-104009082D01*
X81880466Y-103998678D01*
X85249648Y-100629496D01*
X85280557Y-100612618D01*
X85293842Y-100611190D01*
X87690485Y-100611190D01*
X87690486Y-100611190D01*
X87714774Y-100604682D01*
X87714776Y-100604682D01*
X87730967Y-100600343D01*
X87739064Y-100598174D01*
X87760840Y-100585601D01*
X87782617Y-100573028D01*
X87818178Y-100537467D01*
X87818178Y-100537465D01*
X87823323Y-100532321D01*
X87823324Y-100532318D01*
X92121639Y-96234006D01*
X92152548Y-96217128D01*
X92165833Y-96215700D01*
X94918088Y-96215700D01*
X94951878Y-96225622D01*
G37*
%TD.AperFunction*%
%TA.AperFunction,Conductor*%
G36*
X95252109Y-94256229D02*
G01*
X95264100Y-94270211D01*
X95280511Y-94296328D01*
X95292524Y-94315446D01*
X95353314Y-94376236D01*
X95353954Y-94376638D01*
X95423987Y-94420644D01*
X95426106Y-94421975D01*
X95507251Y-94450368D01*
X95592680Y-94459994D01*
X95678109Y-94450368D01*
X95759254Y-94421975D01*
X95832046Y-94376236D01*
X95892836Y-94315446D01*
X95904849Y-94296328D01*
X95931227Y-94272996D01*
X95957769Y-94267080D01*
X96525468Y-94267080D01*
X96559258Y-94277002D01*
X96569662Y-94285386D01*
X96686614Y-94402338D01*
X96703492Y-94433247D01*
X96704920Y-94446532D01*
X96704920Y-96711020D01*
X96694998Y-96744810D01*
X96668383Y-96767872D01*
X96633525Y-96772884D01*
X96601491Y-96758254D01*
X96583427Y-96731662D01*
X96574114Y-96705047D01*
X96573575Y-96703506D01*
X96571339Y-96699948D01*
X96535616Y-96643096D01*
X96527836Y-96630714D01*
X96467046Y-96569924D01*
X96467045Y-96569923D01*
X96467043Y-96569922D01*
X96394255Y-96524185D01*
X96313110Y-96495792D01*
X96313105Y-96495791D01*
X96227680Y-96486166D01*
X96155314Y-96494320D01*
X96120626Y-96488244D01*
X96104122Y-96476407D01*
X95284706Y-95656992D01*
X95284694Y-95656978D01*
X95245582Y-95617866D01*
X95245576Y-95617861D01*
X95215099Y-95600265D01*
X95215099Y-95600264D01*
X95203305Y-95593455D01*
X95202024Y-95592716D01*
X95202023Y-95592715D01*
X95202022Y-95592715D01*
X95177734Y-95586207D01*
X95177731Y-95586207D01*
X95153450Y-95579700D01*
X95153446Y-95579700D01*
X91930474Y-95579700D01*
X91930473Y-95579700D01*
X91930467Y-95579701D01*
X91881901Y-95592714D01*
X91881894Y-95592717D01*
X91838344Y-95617860D01*
X87499322Y-99956884D01*
X87468413Y-99973762D01*
X87455128Y-99975190D01*
X85058480Y-99975190D01*
X85037900Y-99980705D01*
X85032755Y-99982084D01*
X85019561Y-99985618D01*
X85009905Y-99988206D01*
X85009904Y-99988207D01*
X84966354Y-100013350D01*
X81349094Y-103630611D01*
X81318185Y-103647489D01*
X81283058Y-103644976D01*
X81254866Y-103623872D01*
X81242559Y-103590876D01*
X81242400Y-103586417D01*
X81242400Y-103006552D01*
X81252322Y-102972762D01*
X81260706Y-102962358D01*
X84933753Y-99289311D01*
X84964662Y-99272433D01*
X84977947Y-99271005D01*
X87236800Y-99271005D01*
X87236801Y-99271005D01*
X87261089Y-99264497D01*
X87261090Y-99264497D01*
X87269980Y-99262114D01*
X87285379Y-99257989D01*
X87315190Y-99240777D01*
X87328932Y-99232843D01*
X87364493Y-99197282D01*
X87364493Y-99197280D01*
X87369638Y-99192136D01*
X87369639Y-99192133D01*
X91287889Y-95273886D01*
X91318798Y-95257008D01*
X91332083Y-95255580D01*
X94217035Y-95255580D01*
X94217036Y-95255580D01*
X94241324Y-95249072D01*
X94241326Y-95249072D01*
X94253469Y-95245818D01*
X94265614Y-95242564D01*
X94290364Y-95228274D01*
X94309167Y-95217418D01*
X94344728Y-95181857D01*
X94344728Y-95181855D01*
X94349873Y-95176711D01*
X94349874Y-95176708D01*
X95110519Y-94416066D01*
X95135664Y-94372513D01*
X95144066Y-94341156D01*
X95148680Y-94323936D01*
X95148680Y-94303463D01*
X95158602Y-94269673D01*
X95185217Y-94246611D01*
X95220075Y-94241599D01*
X95252109Y-94256229D01*
G37*
%TD.AperFunction*%
%TA.AperFunction,Conductor*%
G36*
X82248647Y-92479122D02*
G01*
X82271709Y-92505737D01*
X82276721Y-92540595D01*
X82262091Y-92572629D01*
X82259051Y-92575894D01*
X73322694Y-101512251D01*
X73291785Y-101529129D01*
X73256658Y-101526616D01*
X73228466Y-101505512D01*
X73216159Y-101472516D01*
X73216000Y-101468057D01*
X73216000Y-100841402D01*
X73225922Y-100807612D01*
X73234306Y-100797208D01*
X81544009Y-92487506D01*
X81574918Y-92470628D01*
X81588203Y-92469200D01*
X82214857Y-92469200D01*
X82248647Y-92479122D01*
G37*
%TD.AperFunction*%
%TD*%
%TA.AperFunction,Conductor*%
%TO.N,GND3*%
G36*
X99314000Y-91322821D02*
G01*
X99288139Y-91315228D01*
X99280810Y-91314174D01*
X99251500Y-91309960D01*
X80797888Y-91309960D01*
X80783990Y-91310705D01*
X80777581Y-91311393D01*
X80774035Y-91311775D01*
X80772505Y-91311857D01*
X80770698Y-91312133D01*
X80722288Y-91327291D01*
X80722278Y-91327295D01*
X80691371Y-91344172D01*
X80661741Y-91366354D01*
X72189357Y-99838738D01*
X72180046Y-99849103D01*
X72180039Y-99849112D01*
X72171666Y-99859502D01*
X72148150Y-99904459D01*
X72138228Y-99938248D01*
X72138228Y-99938250D01*
X72132960Y-99974888D01*
X72132960Y-99974892D01*
X72132960Y-112154707D01*
X72135931Y-112182337D01*
X72135932Y-112182342D01*
X72141580Y-112208305D01*
X72145263Y-112221730D01*
X72170370Y-112265821D01*
X72193432Y-112292436D01*
X72210113Y-112308532D01*
X72255072Y-112332050D01*
X72288862Y-112341972D01*
X72325500Y-112347240D01*
X73529793Y-112347240D01*
X73563583Y-112357162D01*
X73572383Y-112363998D01*
X73573142Y-112364705D01*
X73586998Y-112373963D01*
X73607735Y-112387820D01*
X73639769Y-112402450D01*
X73639784Y-112402455D01*
X73639791Y-112402458D01*
X73644690Y-112404186D01*
X73661632Y-112410163D01*
X73661631Y-112410163D01*
X73712291Y-112412878D01*
X73712296Y-112412878D01*
X73712296Y-112412877D01*
X73712298Y-112412878D01*
X73747156Y-112407866D01*
X73754761Y-112406069D01*
X73762730Y-112404186D01*
X73797896Y-112406069D01*
X73826461Y-112426666D01*
X73830025Y-112431757D01*
X73848944Y-112461866D01*
X73909734Y-112522656D01*
X73909736Y-112522657D01*
X73954969Y-112551080D01*
X73978301Y-112577458D01*
X73983668Y-112612264D01*
X73969366Y-112644445D01*
X73939936Y-112663786D01*
X73921717Y-112666500D01*
X73752189Y-112666500D01*
X73718399Y-112656578D01*
X73699269Y-112637252D01*
X73687257Y-112618135D01*
X73626465Y-112557343D01*
X73626463Y-112557342D01*
X73553675Y-112511605D01*
X73472530Y-112483212D01*
X73472525Y-112483211D01*
X73387100Y-112473586D01*
X73301674Y-112483211D01*
X73301669Y-112483212D01*
X73220524Y-112511605D01*
X73147736Y-112557342D01*
X73147734Y-112557343D01*
X73086943Y-112618134D01*
X73086942Y-112618136D01*
X73041205Y-112690924D01*
X73012812Y-112772069D01*
X73012811Y-112772074D01*
X73003186Y-112857500D01*
X73012811Y-112942925D01*
X73012812Y-112942930D01*
X73041205Y-113024075D01*
X73086942Y-113096863D01*
X73086944Y-113096866D01*
X73147734Y-113157656D01*
X73151673Y-113160131D01*
X73216456Y-113200838D01*
X73220526Y-113203395D01*
X73301671Y-113231788D01*
X73387100Y-113241414D01*
X73472529Y-113231788D01*
X73553674Y-113203395D01*
X73626466Y-113157656D01*
X73687256Y-113096866D01*
X73699269Y-113077748D01*
X73725647Y-113054416D01*
X73752189Y-113048500D01*
X73921717Y-113048500D01*
X73955507Y-113058422D01*
X73978569Y-113085037D01*
X73983581Y-113119895D01*
X73968951Y-113151929D01*
X73954969Y-113163920D01*
X73909736Y-113192342D01*
X73909734Y-113192343D01*
X73848943Y-113253134D01*
X73848942Y-113253136D01*
X73803205Y-113325924D01*
X73774812Y-113407069D01*
X73774811Y-113407074D01*
X73765186Y-113492500D01*
X73774811Y-113577925D01*
X73774812Y-113577930D01*
X73803205Y-113659075D01*
X73848942Y-113731863D01*
X73848943Y-113731865D01*
X73909734Y-113792656D01*
X73909736Y-113792657D01*
X73968888Y-113829826D01*
X73982526Y-113838395D01*
X74063671Y-113866788D01*
X74149100Y-113876414D01*
X74234529Y-113866788D01*
X74239321Y-113865110D01*
X74274492Y-113863316D01*
X74276140Y-113863734D01*
X74314449Y-113873999D01*
X74314452Y-113873999D01*
X74314454Y-113874000D01*
X74314455Y-113874000D01*
X74364746Y-113874000D01*
X76692016Y-113874000D01*
X76725806Y-113883922D01*
X76736210Y-113892306D01*
X76933735Y-114089833D01*
X76933741Y-114089838D01*
X76955517Y-114102411D01*
X76977294Y-114114984D01*
X77025872Y-114128000D01*
X77025873Y-114128000D01*
X83449185Y-114128000D01*
X83449186Y-114128000D01*
X83473474Y-114121492D01*
X83473476Y-114121492D01*
X83489667Y-114117153D01*
X83497764Y-114114984D01*
X83519540Y-114102411D01*
X83541317Y-114089838D01*
X83576878Y-114054277D01*
X83576878Y-114054275D01*
X83582023Y-114049131D01*
X83582025Y-114049128D01*
X83618042Y-114013111D01*
X83648950Y-113996234D01*
X83669228Y-113995199D01*
X83741600Y-114003354D01*
X83827029Y-113993728D01*
X83908174Y-113965335D01*
X83980966Y-113919596D01*
X84041756Y-113858806D01*
X84087495Y-113786014D01*
X84115888Y-113704869D01*
X84125514Y-113619440D01*
X84115888Y-113534011D01*
X84087495Y-113452866D01*
X84086537Y-113451342D01*
X84061240Y-113411082D01*
X84041756Y-113380074D01*
X83980966Y-113319284D01*
X83980965Y-113319283D01*
X83980963Y-113319282D01*
X83908175Y-113273545D01*
X83827030Y-113245152D01*
X83827025Y-113245151D01*
X83741600Y-113235526D01*
X83656174Y-113245151D01*
X83656166Y-113245153D01*
X83591339Y-113267836D01*
X83556168Y-113269631D01*
X83525611Y-113252126D01*
X83509368Y-113220878D01*
X83512597Y-113185810D01*
X83526502Y-113164651D01*
X83618043Y-113073110D01*
X83648950Y-113056234D01*
X83669228Y-113055199D01*
X83741600Y-113063354D01*
X83827029Y-113053728D01*
X83908174Y-113025335D01*
X83980966Y-112979596D01*
X84041756Y-112918806D01*
X84087495Y-112846014D01*
X84115888Y-112764869D01*
X84125514Y-112679440D01*
X84115888Y-112594011D01*
X84087495Y-112512866D01*
X84077089Y-112496306D01*
X84041757Y-112440076D01*
X84041756Y-112440074D01*
X84022082Y-112420400D01*
X87822686Y-112420400D01*
X87832311Y-112505825D01*
X87832312Y-112505830D01*
X87860705Y-112586975D01*
X87892297Y-112637252D01*
X87906444Y-112659766D01*
X87967234Y-112720556D01*
X87990511Y-112735182D01*
X88037756Y-112764869D01*
X88040026Y-112766295D01*
X88121171Y-112794688D01*
X88206600Y-112804314D01*
X88292029Y-112794688D01*
X88373174Y-112766295D01*
X88445966Y-112720556D01*
X88506756Y-112659766D01*
X88552495Y-112586974D01*
X88580888Y-112505829D01*
X88590514Y-112420400D01*
X88580888Y-112334971D01*
X88552495Y-112253826D01*
X88506756Y-112181034D01*
X88445966Y-112120244D01*
X88445965Y-112120243D01*
X88445963Y-112120242D01*
X88373175Y-112074505D01*
X88292030Y-112046112D01*
X88292025Y-112046111D01*
X88206600Y-112036486D01*
X88121174Y-112046111D01*
X88121169Y-112046112D01*
X88040024Y-112074505D01*
X87967236Y-112120242D01*
X87967234Y-112120243D01*
X87906443Y-112181034D01*
X87906442Y-112181036D01*
X87860705Y-112253824D01*
X87832312Y-112334969D01*
X87832311Y-112334974D01*
X87822686Y-112420400D01*
X84022082Y-112420400D01*
X83980965Y-112379283D01*
X83980963Y-112379282D01*
X83908175Y-112333545D01*
X83827030Y-112305152D01*
X83827025Y-112305151D01*
X83741600Y-112295526D01*
X83656174Y-112305151D01*
X83656166Y-112305153D01*
X83591339Y-112327836D01*
X83556168Y-112329631D01*
X83525611Y-112312126D01*
X83509368Y-112280878D01*
X83512597Y-112245810D01*
X83526502Y-112224651D01*
X83618043Y-112133110D01*
X83648950Y-112116234D01*
X83669228Y-112115199D01*
X83741600Y-112123354D01*
X83827029Y-112113728D01*
X83908174Y-112085335D01*
X83980966Y-112039596D01*
X84041756Y-111978806D01*
X84087495Y-111906014D01*
X84115888Y-111824869D01*
X84125514Y-111739440D01*
X84115888Y-111654011D01*
X84087495Y-111572866D01*
X84041756Y-111500074D01*
X83980966Y-111439284D01*
X83980965Y-111439283D01*
X83980963Y-111439282D01*
X83908175Y-111393545D01*
X83827030Y-111365152D01*
X83827025Y-111365151D01*
X83741600Y-111355526D01*
X83656174Y-111365151D01*
X83656166Y-111365153D01*
X83591645Y-111387729D01*
X83556474Y-111389524D01*
X83525917Y-111372019D01*
X83509674Y-111340772D01*
X83512903Y-111305703D01*
X83526807Y-111284545D01*
X83618042Y-111193310D01*
X83648949Y-111176434D01*
X83669228Y-111175399D01*
X83741600Y-111183554D01*
X83827029Y-111173928D01*
X83908174Y-111145535D01*
X83980966Y-111099796D01*
X84041756Y-111039006D01*
X84087495Y-110966214D01*
X84115888Y-110885069D01*
X84125514Y-110799640D01*
X84115888Y-110714211D01*
X84087495Y-110633066D01*
X84041756Y-110560274D01*
X83980966Y-110499484D01*
X83980965Y-110499483D01*
X83980963Y-110499482D01*
X83908175Y-110453745D01*
X83827030Y-110425352D01*
X83827025Y-110425351D01*
X83741600Y-110415726D01*
X83656174Y-110425351D01*
X83656169Y-110425352D01*
X83575024Y-110453745D01*
X83502236Y-110499482D01*
X83502234Y-110499483D01*
X83441443Y-110560274D01*
X83441442Y-110560276D01*
X83395705Y-110633064D01*
X83367312Y-110714209D01*
X83367311Y-110714214D01*
X83357686Y-110799639D01*
X83365840Y-110872005D01*
X83359764Y-110906693D01*
X83347927Y-110923197D01*
X81686432Y-112584694D01*
X81655523Y-112601572D01*
X81642238Y-112603000D01*
X79501792Y-112603000D01*
X79468002Y-112593078D01*
X79444940Y-112566463D01*
X79439928Y-112531605D01*
X79454558Y-112499571D01*
X79457598Y-112496306D01*
X80784835Y-111169069D01*
X82115646Y-109838258D01*
X82124949Y-109827902D01*
X82133333Y-109817498D01*
X82156850Y-109772540D01*
X82166772Y-109738750D01*
X82172040Y-109702112D01*
X82172040Y-108029752D01*
X82181962Y-107995962D01*
X82190346Y-107985558D01*
X83855558Y-106320346D01*
X83886467Y-106303468D01*
X83899752Y-106302040D01*
X87858100Y-106302040D01*
X87858112Y-106302040D01*
X87872010Y-106301295D01*
X87881500Y-106300274D01*
X87881965Y-106300225D01*
X87883494Y-106300142D01*
X87885293Y-106299867D01*
X87885295Y-106299867D01*
X87885299Y-106299867D01*
X87917866Y-106289669D01*
X87933711Y-106284708D01*
X87933713Y-106284707D01*
X87933720Y-106284705D01*
X87964629Y-106267827D01*
X87994258Y-106245646D01*
X91221558Y-103018346D01*
X91252467Y-103001468D01*
X91265752Y-103000040D01*
X96494100Y-103000040D01*
X96494112Y-103000040D01*
X96508010Y-102999295D01*
X96517500Y-102998274D01*
X96517965Y-102998225D01*
X96519494Y-102998142D01*
X96521293Y-102997867D01*
X96521295Y-102997867D01*
X96521299Y-102997867D01*
X96553866Y-102987669D01*
X96569711Y-102982708D01*
X96569713Y-102982707D01*
X96569720Y-102982705D01*
X96600629Y-102965827D01*
X96630258Y-102943646D01*
X99314000Y-100259904D01*
X99314000Y-100584000D01*
X97282000Y-102616000D01*
X97282000Y-110490000D01*
X96749100Y-110490000D01*
X96749100Y-105610914D01*
X96736084Y-105562337D01*
X96710938Y-105518783D01*
X96675377Y-105483222D01*
X96675376Y-105483221D01*
X95877805Y-104685651D01*
X95877794Y-104685638D01*
X95838682Y-104646526D01*
X95838676Y-104646521D01*
X95805284Y-104627242D01*
X95805284Y-104627241D01*
X95805282Y-104627241D01*
X95795130Y-104621379D01*
X95795126Y-104621377D01*
X95795124Y-104621376D01*
X95795121Y-104621375D01*
X95795116Y-104621373D01*
X95759511Y-104611833D01*
X95759508Y-104611833D01*
X95746550Y-104608360D01*
X95746546Y-104608360D01*
X91083594Y-104608360D01*
X91070629Y-104611834D01*
X91037398Y-104620738D01*
X91035013Y-104621377D01*
X90991464Y-104646520D01*
X90025797Y-105612187D01*
X89994888Y-105629065D01*
X89974605Y-105630100D01*
X89902240Y-105621946D01*
X89816814Y-105631571D01*
X89816809Y-105631572D01*
X89735664Y-105659965D01*
X89662876Y-105705702D01*
X89662874Y-105705703D01*
X89602083Y-105766494D01*
X89602082Y-105766496D01*
X89556345Y-105839284D01*
X89527952Y-105920429D01*
X89527951Y-105920434D01*
X89518326Y-106005860D01*
X89527951Y-106091285D01*
X89527952Y-106091290D01*
X89556345Y-106172435D01*
X89602082Y-106245223D01*
X89602083Y-106245225D01*
X89662874Y-106306016D01*
X89662876Y-106306017D01*
X89729508Y-106347886D01*
X89735666Y-106351755D01*
X89816811Y-106380148D01*
X89902240Y-106389774D01*
X89956027Y-106383713D01*
X89990714Y-106389789D01*
X90016611Y-106413654D01*
X90025495Y-106447731D01*
X90025131Y-106452817D01*
X90018186Y-106514458D01*
X90018186Y-106514459D01*
X90027811Y-106599885D01*
X90027812Y-106599890D01*
X90056205Y-106681035D01*
X90088786Y-106732886D01*
X90101944Y-106753826D01*
X90162734Y-106814616D01*
X90199130Y-106837485D01*
X90232535Y-106858476D01*
X90235526Y-106860355D01*
X90316671Y-106888748D01*
X90402100Y-106898374D01*
X90487529Y-106888748D01*
X90568674Y-106860355D01*
X90641466Y-106814616D01*
X90702256Y-106753826D01*
X90747995Y-106681034D01*
X90776388Y-106599889D01*
X90786014Y-106514460D01*
X90779064Y-106452784D01*
X90785140Y-106418098D01*
X90809005Y-106392201D01*
X90843082Y-106383317D01*
X90848160Y-106383680D01*
X90902240Y-106389774D01*
X90956027Y-106383713D01*
X90990714Y-106389789D01*
X91016611Y-106413654D01*
X91025495Y-106447731D01*
X91025131Y-106452817D01*
X91018186Y-106514458D01*
X91018186Y-106514459D01*
X91027811Y-106599885D01*
X91027812Y-106599890D01*
X91056205Y-106681035D01*
X91088786Y-106732886D01*
X91101944Y-106753826D01*
X91162734Y-106814616D01*
X91199130Y-106837485D01*
X91232535Y-106858476D01*
X91235526Y-106860355D01*
X91316671Y-106888748D01*
X91402100Y-106898374D01*
X91487529Y-106888748D01*
X91568674Y-106860355D01*
X91615489Y-106830938D01*
X91649376Y-106821362D01*
X91683064Y-106831627D01*
X91705853Y-106858476D01*
X91711240Y-106883859D01*
X91711240Y-108036740D01*
X91713835Y-108046424D01*
X91724255Y-108085313D01*
X91724256Y-108085314D01*
X91734248Y-108102620D01*
X91747372Y-108125351D01*
X91749403Y-108128869D01*
X91788518Y-108167984D01*
X91788532Y-108167996D01*
X92770662Y-109150126D01*
X92787540Y-109181035D01*
X92785027Y-109216162D01*
X92763923Y-109244354D01*
X92730927Y-109256661D01*
X92726468Y-109256820D01*
X88403227Y-109256820D01*
X88352936Y-109256820D01*
X88352935Y-109256820D01*
X88352929Y-109256821D01*
X88304358Y-109269835D01*
X88304356Y-109269836D01*
X88260805Y-109294981D01*
X88260799Y-109294986D01*
X87980826Y-109574961D01*
X87936925Y-109618862D01*
X87936923Y-109618864D01*
X87923974Y-109631813D01*
X87901362Y-109654424D01*
X87901359Y-109654428D01*
X87891633Y-109671275D01*
X87876216Y-109697977D01*
X87876216Y-109697978D01*
X87875321Y-109701320D01*
X87874226Y-109705406D01*
X87874225Y-109705408D01*
X87863201Y-109746549D01*
X87863200Y-109746557D01*
X87863200Y-110027230D01*
X87853278Y-110061020D01*
X87833954Y-110080149D01*
X87814835Y-110092162D01*
X87754043Y-110152954D01*
X87754042Y-110152956D01*
X87708305Y-110225744D01*
X87679912Y-110306889D01*
X87679911Y-110306894D01*
X87670286Y-110392320D01*
X87679911Y-110477745D01*
X87679912Y-110477750D01*
X87708305Y-110558895D01*
X87729210Y-110592164D01*
X87754044Y-110631686D01*
X87814834Y-110692476D01*
X87887626Y-110738215D01*
X87968771Y-110766608D01*
X88054200Y-110776234D01*
X88115249Y-110769355D01*
X88149937Y-110775431D01*
X88175834Y-110799296D01*
X88184718Y-110833374D01*
X88184354Y-110838459D01*
X88178286Y-110892318D01*
X88178286Y-110892319D01*
X88187911Y-110977745D01*
X88187912Y-110977750D01*
X88216305Y-111058895D01*
X88242006Y-111099796D01*
X88262044Y-111131686D01*
X88322834Y-111192476D01*
X88395626Y-111238215D01*
X88476771Y-111266608D01*
X88562200Y-111276234D01*
X88647629Y-111266608D01*
X88728774Y-111238215D01*
X88801566Y-111192476D01*
X88862356Y-111131686D01*
X88908095Y-111058894D01*
X88936488Y-110977749D01*
X88946114Y-110892320D01*
X88936488Y-110806891D01*
X88908095Y-110725746D01*
X88862356Y-110652954D01*
X88801566Y-110592164D01*
X88801565Y-110592163D01*
X88801563Y-110592162D01*
X88728775Y-110546425D01*
X88647630Y-110518032D01*
X88647625Y-110518031D01*
X88562200Y-110508406D01*
X88562199Y-110508406D01*
X88501149Y-110515284D01*
X88466461Y-110509208D01*
X88440564Y-110485342D01*
X88431681Y-110451264D01*
X88432045Y-110446179D01*
X88438114Y-110392320D01*
X88432045Y-110338459D01*
X88438121Y-110303772D01*
X88461986Y-110277875D01*
X88496064Y-110268991D01*
X88501150Y-110269355D01*
X88562200Y-110276234D01*
X88647629Y-110266608D01*
X88728774Y-110238215D01*
X88801566Y-110192476D01*
X88862356Y-110131686D01*
X88874369Y-110112568D01*
X88900747Y-110089236D01*
X88927289Y-110083320D01*
X92959548Y-110083320D01*
X92993338Y-110093242D01*
X93003742Y-110101626D01*
X93392116Y-110490000D01*
X91262200Y-110490000D01*
X91262200Y-110667800D01*
X90043000Y-110667800D01*
X90043000Y-112484900D01*
X90033078Y-112518690D01*
X90006463Y-112541752D01*
X89980500Y-112547400D01*
X88798400Y-112547400D01*
X87884000Y-113461800D01*
X87884000Y-115087400D01*
X88569800Y-115773200D01*
X90678000Y-115773200D01*
X90678000Y-123774794D01*
X90332121Y-124120673D01*
X90327013Y-124129522D01*
X90327012Y-124129524D01*
X90306976Y-124164225D01*
X90306976Y-124164226D01*
X90306304Y-124166735D01*
X90304246Y-124174413D01*
X90293960Y-124212799D01*
X90293960Y-128120953D01*
X90293961Y-128120961D01*
X90306973Y-128169526D01*
X90306975Y-128169530D01*
X90306976Y-128169534D01*
X90306978Y-128169537D01*
X90313941Y-128181596D01*
X90313942Y-128181599D01*
X90332121Y-128213086D01*
X90332126Y-128213092D01*
X90371238Y-128252204D01*
X90371251Y-128252215D01*
X90678000Y-128558964D01*
X90678000Y-129745500D01*
X70317000Y-129745500D01*
X70283210Y-129735578D01*
X70260148Y-129708963D01*
X70254500Y-129683000D01*
X70254500Y-127460495D01*
X78228707Y-127460495D01*
X78228707Y-127460504D01*
X78239063Y-127592100D01*
X78239064Y-127592104D01*
X78269881Y-127720468D01*
X78269882Y-127720470D01*
X78269883Y-127720474D01*
X78320402Y-127842439D01*
X78325358Y-127850526D01*
X78389377Y-127954996D01*
X78389378Y-127954998D01*
X78389380Y-127955000D01*
X78414579Y-127984504D01*
X78475115Y-128055384D01*
X78506839Y-128082478D01*
X78575500Y-128141120D01*
X78688061Y-128210098D01*
X78810026Y-128260617D01*
X78938393Y-128291435D01*
X78938395Y-128291435D01*
X78938399Y-128291436D01*
X79069996Y-128301793D01*
X79070000Y-128301793D01*
X79070004Y-128301793D01*
X79201600Y-128291436D01*
X79201602Y-128291435D01*
X79201607Y-128291435D01*
X79329974Y-128260617D01*
X79451939Y-128210098D01*
X79564500Y-128141120D01*
X79664884Y-128055384D01*
X79750620Y-127955000D01*
X79819598Y-127842439D01*
X79870117Y-127720474D01*
X79900935Y-127592107D01*
X79911293Y-127460500D01*
X79911293Y-127460495D01*
X80768707Y-127460495D01*
X80768707Y-127460504D01*
X80779063Y-127592100D01*
X80779064Y-127592104D01*
X80809881Y-127720468D01*
X80809882Y-127720470D01*
X80809883Y-127720474D01*
X80860402Y-127842439D01*
X80865358Y-127850526D01*
X80929377Y-127954996D01*
X80929378Y-127954998D01*
X80929380Y-127955000D01*
X80954579Y-127984504D01*
X81015115Y-128055384D01*
X81046839Y-128082478D01*
X81115500Y-128141120D01*
X81228061Y-128210098D01*
X81350026Y-128260617D01*
X81478393Y-128291435D01*
X81478395Y-128291435D01*
X81478399Y-128291436D01*
X81609996Y-128301793D01*
X81610000Y-128301793D01*
X81610004Y-128301793D01*
X81741600Y-128291436D01*
X81741602Y-128291435D01*
X81741607Y-128291435D01*
X81869974Y-128260617D01*
X81991939Y-128210098D01*
X82104500Y-128141120D01*
X82204884Y-128055384D01*
X82290620Y-127955000D01*
X82359598Y-127842439D01*
X82410117Y-127720474D01*
X82440935Y-127592107D01*
X82451293Y-127460500D01*
X82451293Y-127460495D01*
X83308707Y-127460495D01*
X83308707Y-127460504D01*
X83319063Y-127592100D01*
X83319064Y-127592104D01*
X83349881Y-127720468D01*
X83349882Y-127720470D01*
X83349883Y-127720474D01*
X83400402Y-127842439D01*
X83405358Y-127850526D01*
X83469377Y-127954996D01*
X83469378Y-127954998D01*
X83469380Y-127955000D01*
X83494579Y-127984504D01*
X83555115Y-128055384D01*
X83586839Y-128082478D01*
X83655500Y-128141120D01*
X83768061Y-128210098D01*
X83890026Y-128260617D01*
X84018393Y-128291435D01*
X84018395Y-128291435D01*
X84018399Y-128291436D01*
X84149996Y-128301793D01*
X84150000Y-128301793D01*
X84150004Y-128301793D01*
X84281600Y-128291436D01*
X84281602Y-128291435D01*
X84281607Y-128291435D01*
X84409974Y-128260617D01*
X84531939Y-128210098D01*
X84644500Y-128141120D01*
X84744884Y-128055384D01*
X84830620Y-127955000D01*
X84899598Y-127842439D01*
X84950117Y-127720474D01*
X84980935Y-127592107D01*
X84991293Y-127460500D01*
X84991293Y-127460495D01*
X85848707Y-127460495D01*
X85848707Y-127460504D01*
X85859063Y-127592100D01*
X85859064Y-127592104D01*
X85889881Y-127720468D01*
X85889882Y-127720470D01*
X85889883Y-127720474D01*
X85940402Y-127842439D01*
X85945358Y-127850526D01*
X86009377Y-127954996D01*
X86009378Y-127954998D01*
X86009380Y-127955000D01*
X86034579Y-127984504D01*
X86095115Y-128055384D01*
X86126839Y-128082478D01*
X86195500Y-128141120D01*
X86308061Y-128210098D01*
X86430026Y-128260617D01*
X86558393Y-128291435D01*
X86558395Y-128291435D01*
X86558399Y-128291436D01*
X86689996Y-128301793D01*
X86690000Y-128301793D01*
X86690004Y-128301793D01*
X86821600Y-128291436D01*
X86821602Y-128291435D01*
X86821607Y-128291435D01*
X86949974Y-128260617D01*
X87071939Y-128210098D01*
X87184500Y-128141120D01*
X87284884Y-128055384D01*
X87370620Y-127955000D01*
X87439598Y-127842439D01*
X87490117Y-127720474D01*
X87520935Y-127592107D01*
X87531293Y-127460500D01*
X87530040Y-127444579D01*
X87520936Y-127328899D01*
X87520935Y-127328895D01*
X87490118Y-127200531D01*
X87490117Y-127200526D01*
X87439598Y-127078561D01*
X87370620Y-126966000D01*
X87336586Y-126926151D01*
X87284884Y-126865615D01*
X87184496Y-126779877D01*
X87131319Y-126747290D01*
X87071939Y-126710902D01*
X86949974Y-126660383D01*
X86949970Y-126660382D01*
X86949968Y-126660381D01*
X86821604Y-126629564D01*
X86821600Y-126629563D01*
X86690004Y-126619207D01*
X86689996Y-126619207D01*
X86558399Y-126629563D01*
X86558395Y-126629564D01*
X86430031Y-126660381D01*
X86430029Y-126660382D01*
X86430027Y-126660382D01*
X86430026Y-126660383D01*
X86308061Y-126710902D01*
X86195503Y-126779877D01*
X86095115Y-126865615D01*
X86009377Y-126966003D01*
X85940402Y-127078561D01*
X85889882Y-127200529D01*
X85889881Y-127200531D01*
X85859064Y-127328895D01*
X85859063Y-127328899D01*
X85848707Y-127460495D01*
X84991293Y-127460495D01*
X84990040Y-127444579D01*
X84980936Y-127328899D01*
X84980935Y-127328895D01*
X84950118Y-127200531D01*
X84950117Y-127200526D01*
X84899598Y-127078561D01*
X84830620Y-126966000D01*
X84796586Y-126926151D01*
X84744884Y-126865615D01*
X84644496Y-126779877D01*
X84591319Y-126747290D01*
X84531939Y-126710902D01*
X84409974Y-126660383D01*
X84409970Y-126660382D01*
X84409968Y-126660381D01*
X84281604Y-126629564D01*
X84281600Y-126629563D01*
X84150004Y-126619207D01*
X84149996Y-126619207D01*
X84018399Y-126629563D01*
X84018395Y-126629564D01*
X83890031Y-126660381D01*
X83890029Y-126660382D01*
X83890027Y-126660382D01*
X83890026Y-126660383D01*
X83768061Y-126710902D01*
X83655503Y-126779877D01*
X83555115Y-126865615D01*
X83469377Y-126966003D01*
X83400402Y-127078561D01*
X83349882Y-127200529D01*
X83349881Y-127200531D01*
X83319064Y-127328895D01*
X83319063Y-127328899D01*
X83308707Y-127460495D01*
X82451293Y-127460495D01*
X82450040Y-127444579D01*
X82440936Y-127328899D01*
X82440935Y-127328895D01*
X82410118Y-127200531D01*
X82410117Y-127200526D01*
X82359598Y-127078561D01*
X82290620Y-126966000D01*
X82256586Y-126926151D01*
X82204884Y-126865615D01*
X82104496Y-126779877D01*
X82051319Y-126747290D01*
X81991939Y-126710902D01*
X81869974Y-126660383D01*
X81869970Y-126660382D01*
X81869968Y-126660381D01*
X81741604Y-126629564D01*
X81741600Y-126629563D01*
X81610004Y-126619207D01*
X81609996Y-126619207D01*
X81478399Y-126629563D01*
X81478395Y-126629564D01*
X81350031Y-126660381D01*
X81350029Y-126660382D01*
X81350027Y-126660382D01*
X81350026Y-126660383D01*
X81228061Y-126710902D01*
X81115503Y-126779877D01*
X81015115Y-126865615D01*
X80929377Y-126966003D01*
X80860402Y-127078561D01*
X80809882Y-127200529D01*
X80809881Y-127200531D01*
X80779064Y-127328895D01*
X80779063Y-127328899D01*
X80768707Y-127460495D01*
X79911293Y-127460495D01*
X79910040Y-127444579D01*
X79900936Y-127328899D01*
X79900935Y-127328895D01*
X79870118Y-127200531D01*
X79870117Y-127200526D01*
X79819598Y-127078561D01*
X79750620Y-126966000D01*
X79716586Y-126926151D01*
X79664884Y-126865615D01*
X79564496Y-126779877D01*
X79511319Y-126747290D01*
X79451939Y-126710902D01*
X79329974Y-126660383D01*
X79329970Y-126660382D01*
X79329968Y-126660381D01*
X79201604Y-126629564D01*
X79201600Y-126629563D01*
X79070004Y-126619207D01*
X79069996Y-126619207D01*
X78938399Y-126629563D01*
X78938395Y-126629564D01*
X78810031Y-126660381D01*
X78810029Y-126660382D01*
X78810027Y-126660382D01*
X78810026Y-126660383D01*
X78688061Y-126710902D01*
X78575503Y-126779877D01*
X78475115Y-126865615D01*
X78389377Y-126966003D01*
X78320402Y-127078561D01*
X78269882Y-127200529D01*
X78269881Y-127200531D01*
X78239064Y-127328895D01*
X78239063Y-127328899D01*
X78228707Y-127460495D01*
X70254500Y-127460495D01*
X70254500Y-124920495D01*
X78228707Y-124920495D01*
X78228707Y-124920504D01*
X78239063Y-125052100D01*
X78239064Y-125052104D01*
X78269881Y-125180468D01*
X78269882Y-125180470D01*
X78269883Y-125180474D01*
X78320402Y-125302439D01*
X78356790Y-125361819D01*
X78389377Y-125414996D01*
X78475115Y-125515384D01*
X78535651Y-125567086D01*
X78575500Y-125601120D01*
X78688061Y-125670098D01*
X78810026Y-125720617D01*
X78938393Y-125751435D01*
X78938395Y-125751435D01*
X78938399Y-125751436D01*
X79069996Y-125761793D01*
X79070000Y-125761793D01*
X79070004Y-125761793D01*
X79201600Y-125751436D01*
X79201602Y-125751435D01*
X79201607Y-125751435D01*
X79329974Y-125720617D01*
X79451939Y-125670098D01*
X79564500Y-125601120D01*
X79664884Y-125515384D01*
X79750620Y-125415000D01*
X79819598Y-125302439D01*
X79870117Y-125180474D01*
X79900935Y-125052107D01*
X79911293Y-124920500D01*
X79911293Y-124920495D01*
X80768707Y-124920495D01*
X80768707Y-124920504D01*
X80779063Y-125052100D01*
X80779064Y-125052104D01*
X80809881Y-125180468D01*
X80809882Y-125180470D01*
X80809883Y-125180474D01*
X80860402Y-125302439D01*
X80896790Y-125361819D01*
X80929377Y-125414996D01*
X81015115Y-125515384D01*
X81075651Y-125567086D01*
X81115500Y-125601120D01*
X81228061Y-125670098D01*
X81350026Y-125720617D01*
X81478393Y-125751435D01*
X81478395Y-125751435D01*
X81478399Y-125751436D01*
X81609996Y-125761793D01*
X81610000Y-125761793D01*
X81610004Y-125761793D01*
X81741600Y-125751436D01*
X81741602Y-125751435D01*
X81741607Y-125751435D01*
X81869974Y-125720617D01*
X81991939Y-125670098D01*
X82104500Y-125601120D01*
X82204884Y-125515384D01*
X82290620Y-125415000D01*
X82359598Y-125302439D01*
X82410117Y-125180474D01*
X82440935Y-125052107D01*
X82451293Y-124920500D01*
X82451293Y-124920495D01*
X83308707Y-124920495D01*
X83308707Y-124920504D01*
X83319063Y-125052100D01*
X83319064Y-125052104D01*
X83349881Y-125180468D01*
X83349882Y-125180470D01*
X83349883Y-125180474D01*
X83400402Y-125302439D01*
X83436790Y-125361819D01*
X83469377Y-125414996D01*
X83555115Y-125515384D01*
X83615651Y-125567086D01*
X83655500Y-125601120D01*
X83768061Y-125670098D01*
X83890026Y-125720617D01*
X84018393Y-125751435D01*
X84018395Y-125751435D01*
X84018399Y-125751436D01*
X84149996Y-125761793D01*
X84150000Y-125761793D01*
X84150004Y-125761793D01*
X84281600Y-125751436D01*
X84281602Y-125751435D01*
X84281607Y-125751435D01*
X84409974Y-125720617D01*
X84531939Y-125670098D01*
X84644500Y-125601120D01*
X84744884Y-125515384D01*
X84830620Y-125415000D01*
X84899598Y-125302439D01*
X84950117Y-125180474D01*
X84980935Y-125052107D01*
X84991293Y-124920500D01*
X84991293Y-124920495D01*
X85848707Y-124920495D01*
X85848707Y-124920504D01*
X85859063Y-125052100D01*
X85859064Y-125052104D01*
X85889881Y-125180468D01*
X85889882Y-125180470D01*
X85889883Y-125180474D01*
X85940402Y-125302439D01*
X85976790Y-125361819D01*
X86009377Y-125414996D01*
X86095115Y-125515384D01*
X86155651Y-125567086D01*
X86195500Y-125601120D01*
X86308061Y-125670098D01*
X86430026Y-125720617D01*
X86558393Y-125751435D01*
X86558395Y-125751435D01*
X86558399Y-125751436D01*
X86689996Y-125761793D01*
X86690000Y-125761793D01*
X86690004Y-125761793D01*
X86821600Y-125751436D01*
X86821602Y-125751435D01*
X86821607Y-125751435D01*
X86949974Y-125720617D01*
X87071939Y-125670098D01*
X87184500Y-125601120D01*
X87284884Y-125515384D01*
X87370620Y-125415000D01*
X87439598Y-125302439D01*
X87490117Y-125180474D01*
X87520935Y-125052107D01*
X87531293Y-124920500D01*
X87531293Y-124920495D01*
X88388707Y-124920495D01*
X88388707Y-124920504D01*
X88399063Y-125052100D01*
X88399064Y-125052104D01*
X88429881Y-125180468D01*
X88429882Y-125180470D01*
X88429883Y-125180474D01*
X88480402Y-125302439D01*
X88516790Y-125361819D01*
X88549377Y-125414996D01*
X88635115Y-125515384D01*
X88695651Y-125567086D01*
X88735500Y-125601120D01*
X88848061Y-125670098D01*
X88970026Y-125720617D01*
X89098393Y-125751435D01*
X89098395Y-125751435D01*
X89098399Y-125751436D01*
X89229996Y-125761793D01*
X89230000Y-125761793D01*
X89230004Y-125761793D01*
X89361600Y-125751436D01*
X89361602Y-125751435D01*
X89361607Y-125751435D01*
X89489974Y-125720617D01*
X89611939Y-125670098D01*
X89724500Y-125601120D01*
X89824884Y-125515384D01*
X89910620Y-125415000D01*
X89979598Y-125302439D01*
X90030117Y-125180474D01*
X90060935Y-125052107D01*
X90071293Y-124920500D01*
X90070040Y-124904579D01*
X90060936Y-124788899D01*
X90060935Y-124788895D01*
X90030118Y-124660531D01*
X90030117Y-124660526D01*
X89979598Y-124538561D01*
X89910620Y-124426000D01*
X89876586Y-124386151D01*
X89824884Y-124325615D01*
X89724496Y-124239877D01*
X89671319Y-124207290D01*
X89611939Y-124170902D01*
X89489974Y-124120383D01*
X89489970Y-124120382D01*
X89489968Y-124120381D01*
X89361604Y-124089564D01*
X89361600Y-124089563D01*
X89230004Y-124079207D01*
X89229996Y-124079207D01*
X89098399Y-124089563D01*
X89098395Y-124089564D01*
X88970031Y-124120381D01*
X88970029Y-124120382D01*
X88970027Y-124120382D01*
X88970026Y-124120383D01*
X88858153Y-124166722D01*
X88848061Y-124170902D01*
X88735503Y-124239877D01*
X88635115Y-124325615D01*
X88549377Y-124426003D01*
X88480402Y-124538561D01*
X88429882Y-124660529D01*
X88429881Y-124660531D01*
X88399064Y-124788895D01*
X88399063Y-124788899D01*
X88388707Y-124920495D01*
X87531293Y-124920495D01*
X87530040Y-124904579D01*
X87520936Y-124788899D01*
X87520935Y-124788895D01*
X87490118Y-124660531D01*
X87490117Y-124660526D01*
X87439598Y-124538561D01*
X87370620Y-124426000D01*
X87336586Y-124386151D01*
X87284884Y-124325615D01*
X87184496Y-124239877D01*
X87131319Y-124207290D01*
X87071939Y-124170902D01*
X86949974Y-124120383D01*
X86949970Y-124120382D01*
X86949968Y-124120381D01*
X86821604Y-124089564D01*
X86821600Y-124089563D01*
X86690004Y-124079207D01*
X86689996Y-124079207D01*
X86558399Y-124089563D01*
X86558395Y-124089564D01*
X86430031Y-124120381D01*
X86430029Y-124120382D01*
X86430027Y-124120382D01*
X86430026Y-124120383D01*
X86318153Y-124166722D01*
X86308061Y-124170902D01*
X86195503Y-124239877D01*
X86095115Y-124325615D01*
X86009377Y-124426003D01*
X85940402Y-124538561D01*
X85889882Y-124660529D01*
X85889881Y-124660531D01*
X85859064Y-124788895D01*
X85859063Y-124788899D01*
X85848707Y-124920495D01*
X84991293Y-124920495D01*
X84990040Y-124904579D01*
X84980936Y-124788899D01*
X84980935Y-124788895D01*
X84950118Y-124660531D01*
X84950117Y-124660526D01*
X84899598Y-124538561D01*
X84830620Y-124426000D01*
X84796586Y-124386151D01*
X84744884Y-124325615D01*
X84644496Y-124239877D01*
X84591319Y-124207290D01*
X84531939Y-124170902D01*
X84409974Y-124120383D01*
X84409970Y-124120382D01*
X84409968Y-124120381D01*
X84281604Y-124089564D01*
X84281600Y-124089563D01*
X84150004Y-124079207D01*
X84149996Y-124079207D01*
X84018399Y-124089563D01*
X84018395Y-124089564D01*
X83890031Y-124120381D01*
X83890029Y-124120382D01*
X83890027Y-124120382D01*
X83890026Y-124120383D01*
X83778153Y-124166722D01*
X83768061Y-124170902D01*
X83655503Y-124239877D01*
X83555115Y-124325615D01*
X83469377Y-124426003D01*
X83400402Y-124538561D01*
X83349882Y-124660529D01*
X83349881Y-124660531D01*
X83319064Y-124788895D01*
X83319063Y-124788899D01*
X83308707Y-124920495D01*
X82451293Y-124920495D01*
X82450040Y-124904579D01*
X82440936Y-124788899D01*
X82440935Y-124788895D01*
X82410118Y-124660531D01*
X82410117Y-124660526D01*
X82359598Y-124538561D01*
X82290620Y-124426000D01*
X82256586Y-124386151D01*
X82204884Y-124325615D01*
X82104496Y-124239877D01*
X82051319Y-124207290D01*
X81991939Y-124170902D01*
X81869974Y-124120383D01*
X81869970Y-124120382D01*
X81869968Y-124120381D01*
X81741604Y-124089564D01*
X81741600Y-124089563D01*
X81610004Y-124079207D01*
X81609996Y-124079207D01*
X81478399Y-124089563D01*
X81478395Y-124089564D01*
X81350031Y-124120381D01*
X81350029Y-124120382D01*
X81350027Y-124120382D01*
X81350026Y-124120383D01*
X81238153Y-124166722D01*
X81228061Y-124170902D01*
X81115503Y-124239877D01*
X81015115Y-124325615D01*
X80929377Y-124426003D01*
X80860402Y-124538561D01*
X80809882Y-124660529D01*
X80809881Y-124660531D01*
X80779064Y-124788895D01*
X80779063Y-124788899D01*
X80768707Y-124920495D01*
X79911293Y-124920495D01*
X79910040Y-124904579D01*
X79900936Y-124788899D01*
X79900935Y-124788895D01*
X79870118Y-124660531D01*
X79870117Y-124660526D01*
X79819598Y-124538561D01*
X79750620Y-124426000D01*
X79716586Y-124386151D01*
X79664884Y-124325615D01*
X79564496Y-124239877D01*
X79511319Y-124207290D01*
X79451939Y-124170902D01*
X79329974Y-124120383D01*
X79329970Y-124120382D01*
X79329968Y-124120381D01*
X79201604Y-124089564D01*
X79201600Y-124089563D01*
X79070004Y-124079207D01*
X79069996Y-124079207D01*
X78938399Y-124089563D01*
X78938395Y-124089564D01*
X78810031Y-124120381D01*
X78810029Y-124120382D01*
X78810027Y-124120382D01*
X78810026Y-124120383D01*
X78698153Y-124166722D01*
X78688061Y-124170902D01*
X78575503Y-124239877D01*
X78475115Y-124325615D01*
X78389377Y-124426003D01*
X78320402Y-124538561D01*
X78269882Y-124660529D01*
X78269881Y-124660531D01*
X78239064Y-124788895D01*
X78239063Y-124788899D01*
X78228707Y-124920495D01*
X70254500Y-124920495D01*
X70254500Y-115397500D01*
X76228986Y-115397500D01*
X76238611Y-115482925D01*
X76238612Y-115482930D01*
X76267005Y-115564075D01*
X76312742Y-115636863D01*
X76312744Y-115636866D01*
X76373534Y-115697656D01*
X76446326Y-115743395D01*
X76527471Y-115771788D01*
X76612900Y-115781414D01*
X76698329Y-115771788D01*
X76779474Y-115743395D01*
X76852266Y-115697656D01*
X76913056Y-115636866D01*
X76958795Y-115564074D01*
X76987188Y-115482929D01*
X76996814Y-115397500D01*
X76987188Y-115312071D01*
X76958795Y-115230926D01*
X76913056Y-115158134D01*
X76852266Y-115097344D01*
X76852265Y-115097343D01*
X76852263Y-115097342D01*
X76779475Y-115051605D01*
X76698330Y-115023212D01*
X76698325Y-115023211D01*
X76612900Y-115013586D01*
X76527474Y-115023211D01*
X76527469Y-115023212D01*
X76446324Y-115051605D01*
X76373536Y-115097342D01*
X76373534Y-115097343D01*
X76312743Y-115158134D01*
X76312742Y-115158136D01*
X76267005Y-115230924D01*
X76238612Y-115312069D01*
X76238611Y-115312074D01*
X76228986Y-115397500D01*
X70254500Y-115397500D01*
X70254500Y-114762500D01*
X76990986Y-114762500D01*
X77000611Y-114847925D01*
X77000612Y-114847930D01*
X77029005Y-114929075D01*
X77074742Y-115001863D01*
X77074743Y-115001865D01*
X77135534Y-115062656D01*
X77135536Y-115062657D01*
X77190735Y-115097342D01*
X77208326Y-115108395D01*
X77289471Y-115136788D01*
X77374900Y-115146414D01*
X77460329Y-115136788D01*
X77541474Y-115108395D01*
X77614266Y-115062656D01*
X77675056Y-115001866D01*
X77720795Y-114929074D01*
X77749188Y-114847929D01*
X77758814Y-114762500D01*
X77749188Y-114677071D01*
X77720795Y-114595926D01*
X77675056Y-114523134D01*
X77614266Y-114462344D01*
X77614265Y-114462343D01*
X77614263Y-114462342D01*
X77541475Y-114416605D01*
X77460330Y-114388212D01*
X77460325Y-114388211D01*
X77374900Y-114378586D01*
X77289474Y-114388211D01*
X77289469Y-114388212D01*
X77208324Y-114416605D01*
X77135536Y-114462342D01*
X77135534Y-114462343D01*
X77074743Y-114523134D01*
X77074742Y-114523136D01*
X77029005Y-114595924D01*
X77000612Y-114677069D01*
X77000611Y-114677074D01*
X76990986Y-114762500D01*
X70254500Y-114762500D01*
X70254500Y-90317000D01*
X70264422Y-90283210D01*
X70291037Y-90260148D01*
X70317000Y-90254500D01*
X99314000Y-90254500D01*
X99314000Y-91322821D01*
G37*
%TD.AperFunction*%
%TA.AperFunction,Conductor*%
G36*
X95544978Y-105254282D02*
G01*
X95555382Y-105262666D01*
X96094794Y-105802078D01*
X96111672Y-105832987D01*
X96113100Y-105846272D01*
X96113100Y-108986218D01*
X96103178Y-109020008D01*
X96076563Y-109043070D01*
X96041705Y-109048082D01*
X96009671Y-109033452D01*
X96006406Y-109030412D01*
X95491872Y-108515878D01*
X95474994Y-108484969D01*
X95473959Y-108464691D01*
X95482114Y-108392320D01*
X95472488Y-108306891D01*
X95444095Y-108225746D01*
X95398356Y-108152954D01*
X95337566Y-108092164D01*
X95337565Y-108092163D01*
X95337563Y-108092162D01*
X95264775Y-108046425D01*
X95183630Y-108018032D01*
X95183625Y-108018031D01*
X95098200Y-108008406D01*
X95012774Y-108018031D01*
X95012769Y-108018032D01*
X94931624Y-108046425D01*
X94858836Y-108092162D01*
X94858834Y-108092163D01*
X94798043Y-108152954D01*
X94798042Y-108152956D01*
X94752305Y-108225744D01*
X94723912Y-108306889D01*
X94723911Y-108306894D01*
X94714286Y-108392320D01*
X94723911Y-108477745D01*
X94723913Y-108477753D01*
X94742135Y-108529831D01*
X94743930Y-108565002D01*
X94726425Y-108595559D01*
X94703785Y-108609464D01*
X94665367Y-108622907D01*
X94592576Y-108668646D01*
X94592574Y-108668647D01*
X94531783Y-108729438D01*
X94531782Y-108729440D01*
X94486045Y-108802228D01*
X94457652Y-108883373D01*
X94457651Y-108883378D01*
X94448026Y-108968804D01*
X94457652Y-109054237D01*
X94458183Y-109056562D01*
X94456028Y-109091713D01*
X94435212Y-109120118D01*
X94402343Y-109132760D01*
X94367856Y-109125625D01*
X94353056Y-109114662D01*
X93470486Y-108232092D01*
X93453608Y-108201183D01*
X93452180Y-108187898D01*
X93452180Y-106417240D01*
X95084486Y-106417240D01*
X95094111Y-106502665D01*
X95094112Y-106502670D01*
X95122505Y-106583815D01*
X95132606Y-106599890D01*
X95168244Y-106656606D01*
X95229034Y-106717396D01*
X95301826Y-106763135D01*
X95382971Y-106791528D01*
X95468400Y-106801154D01*
X95553829Y-106791528D01*
X95634974Y-106763135D01*
X95707766Y-106717396D01*
X95768556Y-106656606D01*
X95814295Y-106583814D01*
X95842688Y-106502669D01*
X95852314Y-106417240D01*
X95842688Y-106331811D01*
X95814295Y-106250666D01*
X95768556Y-106177874D01*
X95707766Y-106117084D01*
X95707765Y-106117083D01*
X95707763Y-106117082D01*
X95634975Y-106071345D01*
X95553830Y-106042952D01*
X95553825Y-106042951D01*
X95468400Y-106033326D01*
X95382974Y-106042951D01*
X95382969Y-106042952D01*
X95301824Y-106071345D01*
X95229036Y-106117082D01*
X95229034Y-106117083D01*
X95168243Y-106177874D01*
X95168242Y-106177876D01*
X95122505Y-106250664D01*
X95094112Y-106331809D01*
X95094111Y-106331814D01*
X95084486Y-106417240D01*
X93452180Y-106417240D01*
X93452180Y-106204205D01*
X93452178Y-106204197D01*
X93445125Y-106177876D01*
X93439164Y-106155627D01*
X93424683Y-106130546D01*
X93414020Y-106112076D01*
X93414017Y-106112072D01*
X93378457Y-106076512D01*
X93378454Y-106076510D01*
X93376274Y-106074330D01*
X93376274Y-106074329D01*
X93376268Y-106074324D01*
X92652998Y-105351054D01*
X92636120Y-105320145D01*
X92638633Y-105285018D01*
X92659737Y-105256826D01*
X92692733Y-105244519D01*
X92697192Y-105244360D01*
X95511188Y-105244360D01*
X95544978Y-105254282D01*
G37*
%TD.AperFunction*%
%TD*%
%TA.AperFunction,Conductor*%
%TO.N,GND3*%
G36*
X91106490Y-110804722D02*
G01*
X91129552Y-110831337D01*
X91135200Y-110857300D01*
X91135200Y-112674400D01*
X91421694Y-112960894D01*
X91438572Y-112991803D01*
X91440000Y-113005088D01*
X91440000Y-114909112D01*
X91430078Y-114942902D01*
X91421694Y-114953306D01*
X90747106Y-115627894D01*
X90716197Y-115644772D01*
X90702912Y-115646200D01*
X88671888Y-115646200D01*
X88638098Y-115636278D01*
X88627694Y-115627894D01*
X88029306Y-115029506D01*
X88012428Y-114998597D01*
X88011000Y-114985312D01*
X88011000Y-113563888D01*
X88020922Y-113530098D01*
X88029306Y-113519694D01*
X88856294Y-112692706D01*
X88887203Y-112675828D01*
X88900488Y-112674400D01*
X90170000Y-112674400D01*
X90170000Y-110857300D01*
X90179922Y-110823510D01*
X90206537Y-110800448D01*
X90232500Y-110794800D01*
X91072700Y-110794800D01*
X91106490Y-110804722D01*
G37*
%TD.AperFunction*%
%TD*%
M02*
