%TF.GenerationSoftware,KiCad,Pcbnew,8.0.5*%
%TF.CreationDate,2025-10-24T05:58:17-05:00*%
%TF.ProjectId,iris-128s-adapter,69726973-2d31-4323-9873-2d6164617074,1.0.0*%
%TF.SameCoordinates,Original*%
%TF.FileFunction,Soldermask,Bot*%
%TF.FilePolarity,Negative*%
%FSLAX46Y46*%
G04 Gerber Fmt 4.6, Leading zero omitted, Abs format (unit mm)*
G04 Created by KiCad (PCBNEW 8.0.5) date 2025-10-24 05:58:17*
%MOMM*%
%LPD*%
G01*
G04 APERTURE LIST*
G04 Aperture macros list*
%AMRoundRect*
0 Rectangle with rounded corners*
0 $1 Rounding radius*
0 $2 $3 $4 $5 $6 $7 $8 $9 X,Y pos of 4 corners*
0 Add a 4 corners polygon primitive as box body*
4,1,4,$2,$3,$4,$5,$6,$7,$8,$9,$2,$3,0*
0 Add four circle primitives for the rounded corners*
1,1,$1+$1,$2,$3*
1,1,$1+$1,$4,$5*
1,1,$1+$1,$6,$7*
1,1,$1+$1,$8,$9*
0 Add four rect primitives between the rounded corners*
20,1,$1+$1,$2,$3,$4,$5,0*
20,1,$1+$1,$4,$5,$6,$7,0*
20,1,$1+$1,$6,$7,$8,$9,0*
20,1,$1+$1,$8,$9,$2,$3,0*%
G04 Aperture macros list end*
%ADD10C,3.581400*%
%ADD11C,1.422400*%
%ADD12RoundRect,0.100000X0.100000X-0.130000X0.100000X0.130000X-0.100000X0.130000X-0.100000X-0.130000X0*%
%ADD13RoundRect,0.100000X-0.130000X-0.100000X0.130000X-0.100000X0.130000X0.100000X-0.130000X0.100000X0*%
%ADD14R,0.600000X1.800000*%
%ADD15RoundRect,0.100000X-0.100000X0.130000X-0.100000X-0.130000X0.100000X-0.130000X0.100000X0.130000X0*%
%ADD16RoundRect,0.087500X-0.087500X-0.362500X0.087500X-0.362500X0.087500X0.362500X-0.087500X0.362500X0*%
%ADD17RoundRect,0.087500X-0.087500X-0.312500X0.087500X-0.312500X0.087500X0.312500X-0.087500X0.312500X0*%
%ADD18R,0.579000X0.332000*%
%ADD19R,0.579000X0.507000*%
%ADD20RoundRect,0.062500X-0.375000X-0.062500X0.375000X-0.062500X0.375000X0.062500X-0.375000X0.062500X0*%
%ADD21RoundRect,0.062500X-0.062500X-0.375000X0.062500X-0.375000X0.062500X0.375000X-0.062500X0.375000X0*%
%ADD22R,2.600000X2.600000*%
%ADD23RoundRect,0.225000X-0.225000X-0.250000X0.225000X-0.250000X0.225000X0.250000X-0.225000X0.250000X0*%
%ADD24RoundRect,0.075000X0.075000X0.275000X-0.075000X0.275000X-0.075000X-0.275000X0.075000X-0.275000X0*%
%ADD25R,1.600000X1.000000*%
%ADD26RoundRect,0.100000X0.130000X0.100000X-0.130000X0.100000X-0.130000X-0.100000X0.130000X-0.100000X0*%
%ADD27RoundRect,0.140000X0.140000X0.170000X-0.140000X0.170000X-0.140000X-0.170000X0.140000X-0.170000X0*%
%ADD28RoundRect,0.225000X0.225000X0.250000X-0.225000X0.250000X-0.225000X-0.250000X0.225000X-0.250000X0*%
%ADD29R,1.800000X0.600000*%
G04 APERTURE END LIST*
D10*
%TO.C,S6*%
X73048000Y-126952000D03*
%TD*%
%TO.C,S3*%
X116952000Y-93048000D03*
%TD*%
D11*
%TO.C,J7*%
X114919760Y-101092000D03*
X117459760Y-101092000D03*
%TD*%
D10*
%TO.C,S2*%
X73048000Y-93048000D03*
%TD*%
D11*
%TO.C,J2*%
X114919760Y-104902000D03*
X117459760Y-104902000D03*
%TD*%
%TO.C,J3*%
X114919760Y-108712000D03*
X117459760Y-108712000D03*
%TD*%
D10*
%TO.C,S7*%
X116952000Y-126952000D03*
%TD*%
D11*
%TO.C,J1*%
X114919760Y-97282000D03*
X117459760Y-97282000D03*
%TD*%
%TO.C,J5*%
X79070000Y-127460500D03*
X79070000Y-124920500D03*
X81610000Y-127460500D03*
X81610000Y-124920500D03*
X84150000Y-127460500D03*
X84150000Y-124920500D03*
X86690000Y-127460500D03*
X86690000Y-124920500D03*
X89230000Y-127460500D03*
X89230000Y-124920500D03*
X91770000Y-127460500D03*
X91770000Y-124920500D03*
X94310000Y-127460500D03*
X94310000Y-124920500D03*
X96850000Y-127460500D03*
X96850000Y-124920500D03*
X99390000Y-127460500D03*
X99390000Y-124920500D03*
X101930000Y-127460500D03*
X101930000Y-124920500D03*
%TD*%
D12*
%TO.C,C4*%
X91832760Y-112296880D03*
X91832760Y-111656880D03*
%TD*%
D13*
%TO.C,C18*%
X106669580Y-115736000D03*
X107309580Y-115736000D03*
%TD*%
D14*
%TO.C,L2*%
X102264580Y-108843620D03*
X103614580Y-108843620D03*
%TD*%
D12*
%TO.C,R11*%
X101163860Y-100077980D03*
X101163860Y-99437980D03*
%TD*%
D15*
%TO.C,C14*%
X101369460Y-112582260D03*
X101369460Y-113222260D03*
%TD*%
D12*
%TO.C,C10*%
X103266980Y-100077980D03*
X103266980Y-99437980D03*
%TD*%
D16*
%TO.C,U5*%
X105772280Y-113725920D03*
D17*
X106272280Y-113675920D03*
X106772280Y-113675920D03*
X106772280Y-114875920D03*
X106272280Y-114875920D03*
X105772280Y-114875920D03*
%TD*%
D18*
%TO.C,D2*%
X104650503Y-108960677D03*
D19*
X104650503Y-109530177D03*
%TD*%
D12*
%TO.C,R14*%
X104669240Y-100077980D03*
X104669240Y-99437980D03*
%TD*%
D20*
%TO.C,U2*%
X100679940Y-104771560D03*
X100679940Y-104271560D03*
X100679940Y-103771560D03*
X100679940Y-103271560D03*
X100679940Y-102771560D03*
D21*
X101617440Y-101834060D03*
X102117440Y-101834060D03*
X102617440Y-101834060D03*
X103117440Y-101834060D03*
X103617440Y-101834060D03*
D20*
X104554940Y-102771560D03*
X104554940Y-103271560D03*
X104554940Y-103771560D03*
X104554940Y-104271560D03*
X104554940Y-104771560D03*
D21*
X103617440Y-105709060D03*
X103117440Y-105709060D03*
X102617440Y-105709060D03*
X102117440Y-105709060D03*
X101617440Y-105709060D03*
D22*
X102617440Y-103771560D03*
%TD*%
D23*
%TO.C,C12*%
X100522480Y-110747920D03*
X102072480Y-110747920D03*
%TD*%
D24*
%TO.C,U4*%
X103672820Y-115000520D03*
X103022820Y-115000520D03*
X102372820Y-115000520D03*
X102372820Y-113000520D03*
X103022820Y-113000520D03*
X103672820Y-113000520D03*
D25*
X103022820Y-114000520D03*
%TD*%
D15*
%TO.C,C11*%
X105445700Y-102752040D03*
X105445700Y-103392040D03*
%TD*%
D12*
%TO.C,R13*%
X105370220Y-100077980D03*
X105370220Y-99437980D03*
%TD*%
%TO.C,C21*%
X104711600Y-115005020D03*
X104711600Y-114365020D03*
%TD*%
D15*
%TO.C,C9*%
X105445700Y-104154120D03*
X105445700Y-104794120D03*
%TD*%
D12*
%TO.C,C8*%
X101864240Y-100077980D03*
X101864240Y-99437980D03*
%TD*%
D26*
%TO.C,R1*%
X86904460Y-110909080D03*
X86264460Y-110909080D03*
%TD*%
D15*
%TO.C,C17*%
X98080220Y-112709260D03*
X98080220Y-113349260D03*
%TD*%
%TO.C,R10*%
X103967540Y-99437980D03*
X103967540Y-100077980D03*
%TD*%
D18*
%TO.C,D1*%
X100599280Y-109616363D03*
D19*
X100599280Y-109046863D03*
%TD*%
D24*
%TO.C,U3*%
X100338100Y-115000520D03*
X99688100Y-115000520D03*
X99038100Y-115000520D03*
X99038100Y-113000520D03*
X99688100Y-113000520D03*
X100338100Y-113000520D03*
D25*
X99688100Y-114000520D03*
%TD*%
D26*
%TO.C,R18*%
X102574740Y-115736000D03*
X101934740Y-115736000D03*
%TD*%
%TO.C,R15*%
X100636340Y-115736000D03*
X99996340Y-115736000D03*
%TD*%
D12*
%TO.C,C20*%
X101369460Y-115005020D03*
X101369460Y-114365020D03*
%TD*%
D23*
%TO.C,C13*%
X103483040Y-110747920D03*
X105033040Y-110747920D03*
%TD*%
D27*
%TO.C,C1*%
X87274460Y-112419080D03*
X86314460Y-112419080D03*
%TD*%
D15*
%TO.C,R12*%
X100462880Y-99437980D03*
X100462880Y-100077980D03*
%TD*%
D28*
%TO.C,C7*%
X103818920Y-106954880D03*
X102268920Y-106954880D03*
%TD*%
D26*
%TO.C,C19*%
X105874680Y-115736000D03*
X105234680Y-115736000D03*
%TD*%
D29*
%TO.C,L1*%
X99773877Y-108089400D03*
X99773877Y-106739400D03*
%TD*%
D15*
%TO.C,C15*%
X104711600Y-112582260D03*
X104711600Y-113222260D03*
%TD*%
%TO.C,C16*%
X107739040Y-113478880D03*
X107739040Y-114118880D03*
%TD*%
D26*
%TO.C,R16*%
X99236340Y-115736000D03*
X98596340Y-115736000D03*
%TD*%
D12*
%TO.C,C2*%
X93232760Y-112296880D03*
X93232760Y-111656880D03*
%TD*%
D15*
%TO.C,R9*%
X102565520Y-99437980D03*
X102565520Y-100077980D03*
%TD*%
D26*
%TO.C,C3*%
X86904460Y-111609080D03*
X86264460Y-111609080D03*
%TD*%
%TO.C,R17*%
X103974740Y-115736000D03*
X103334740Y-115736000D03*
%TD*%
D12*
%TO.C,C5*%
X92532760Y-112296880D03*
X92532760Y-111656880D03*
%TD*%
M02*
