%TF.GenerationSoftware,KiCad,Pcbnew,8.0.5*%
%TF.CreationDate,2025-10-24T05:58:17-05:00*%
%TF.ProjectId,iris-128s-adapter,69726973-2d31-4323-9873-2d6164617074,1.0.0*%
%TF.SameCoordinates,Original*%
%TF.FileFunction,Copper,L4,Bot*%
%TF.FilePolarity,Positive*%
%FSLAX46Y46*%
G04 Gerber Fmt 4.6, Leading zero omitted, Abs format (unit mm)*
G04 Created by KiCad (PCBNEW 8.0.5) date 2025-10-24 05:58:17*
%MOMM*%
%LPD*%
G01*
G04 APERTURE LIST*
G04 Aperture macros list*
%AMRoundRect*
0 Rectangle with rounded corners*
0 $1 Rounding radius*
0 $2 $3 $4 $5 $6 $7 $8 $9 X,Y pos of 4 corners*
0 Add a 4 corners polygon primitive as box body*
4,1,4,$2,$3,$4,$5,$6,$7,$8,$9,$2,$3,0*
0 Add four circle primitives for the rounded corners*
1,1,$1+$1,$2,$3*
1,1,$1+$1,$4,$5*
1,1,$1+$1,$6,$7*
1,1,$1+$1,$8,$9*
0 Add four rect primitives between the rounded corners*
20,1,$1+$1,$2,$3,$4,$5,0*
20,1,$1+$1,$4,$5,$6,$7,0*
20,1,$1+$1,$6,$7,$8,$9,0*
20,1,$1+$1,$8,$9,$2,$3,0*%
G04 Aperture macros list end*
%TA.AperFunction,ComponentPad*%
%ADD10C,3.581400*%
%TD*%
%TA.AperFunction,ComponentPad*%
%ADD11C,1.422400*%
%TD*%
%TA.AperFunction,SMDPad,CuDef*%
%ADD12RoundRect,0.100000X0.100000X-0.130000X0.100000X0.130000X-0.100000X0.130000X-0.100000X-0.130000X0*%
%TD*%
%TA.AperFunction,SMDPad,CuDef*%
%ADD13RoundRect,0.100000X-0.130000X-0.100000X0.130000X-0.100000X0.130000X0.100000X-0.130000X0.100000X0*%
%TD*%
%TA.AperFunction,SMDPad,CuDef*%
%ADD14R,0.600000X1.800000*%
%TD*%
%TA.AperFunction,SMDPad,CuDef*%
%ADD15RoundRect,0.100000X-0.100000X0.130000X-0.100000X-0.130000X0.100000X-0.130000X0.100000X0.130000X0*%
%TD*%
%TA.AperFunction,SMDPad,CuDef*%
%ADD16RoundRect,0.062500X-0.062500X-0.337500X0.062500X-0.337500X0.062500X0.337500X-0.062500X0.337500X0*%
%TD*%
%TA.AperFunction,SMDPad,CuDef*%
%ADD17RoundRect,0.062500X-0.062500X-0.287500X0.062500X-0.287500X0.062500X0.287500X-0.062500X0.287500X0*%
%TD*%
%TA.AperFunction,SMDPad,CuDef*%
%ADD18R,0.579000X0.332000*%
%TD*%
%TA.AperFunction,SMDPad,CuDef*%
%ADD19R,0.579000X0.507000*%
%TD*%
%TA.AperFunction,SMDPad,CuDef*%
%ADD20RoundRect,0.062500X-0.375000X-0.062500X0.375000X-0.062500X0.375000X0.062500X-0.375000X0.062500X0*%
%TD*%
%TA.AperFunction,SMDPad,CuDef*%
%ADD21RoundRect,0.062500X-0.062500X-0.375000X0.062500X-0.375000X0.062500X0.375000X-0.062500X0.375000X0*%
%TD*%
%TA.AperFunction,HeatsinkPad*%
%ADD22R,2.600000X2.600000*%
%TD*%
%TA.AperFunction,SMDPad,CuDef*%
%ADD23RoundRect,0.225000X-0.225000X-0.250000X0.225000X-0.250000X0.225000X0.250000X-0.225000X0.250000X0*%
%TD*%
%TA.AperFunction,SMDPad,CuDef*%
%ADD24RoundRect,0.075000X0.075000X0.275000X-0.075000X0.275000X-0.075000X-0.275000X0.075000X-0.275000X0*%
%TD*%
%TA.AperFunction,HeatsinkPad*%
%ADD25R,1.600000X1.000000*%
%TD*%
%TA.AperFunction,SMDPad,CuDef*%
%ADD26RoundRect,0.100000X0.130000X0.100000X-0.130000X0.100000X-0.130000X-0.100000X0.130000X-0.100000X0*%
%TD*%
%TA.AperFunction,SMDPad,CuDef*%
%ADD27RoundRect,0.140000X0.140000X0.170000X-0.140000X0.170000X-0.140000X-0.170000X0.140000X-0.170000X0*%
%TD*%
%TA.AperFunction,SMDPad,CuDef*%
%ADD28RoundRect,0.225000X0.225000X0.250000X-0.225000X0.250000X-0.225000X-0.250000X0.225000X-0.250000X0*%
%TD*%
%TA.AperFunction,SMDPad,CuDef*%
%ADD29R,1.800000X0.600000*%
%TD*%
%TA.AperFunction,ViaPad*%
%ADD30C,0.508000*%
%TD*%
%TA.AperFunction,Conductor*%
%ADD31C,0.203200*%
%TD*%
%TA.AperFunction,Conductor*%
%ADD32C,0.254000*%
%TD*%
%TA.AperFunction,Conductor*%
%ADD33C,0.127000*%
%TD*%
G04 APERTURE END LIST*
D10*
%TO.P,S6,1,1*%
%TO.N,GND3*%
X73048000Y-126952000D03*
%TD*%
%TO.P,S3,1,1*%
%TO.N,GND3*%
X116952000Y-93048000D03*
%TD*%
D11*
%TO.P,J7,1,1*%
%TO.N,VDD3V_EXT*%
X114919760Y-101092000D03*
%TO.P,J7,2,2*%
%TO.N,GND3*%
X117459760Y-101092000D03*
%TD*%
D10*
%TO.P,S2,1,1*%
%TO.N,GND3*%
X73048000Y-93048000D03*
%TD*%
D11*
%TO.P,J2,1,1*%
%TO.N,/VDD_SW_EXT*%
X114919760Y-104902000D03*
%TO.P,J2,2,2*%
%TO.N,GND3*%
X117459760Y-104902000D03*
%TD*%
%TO.P,J3,1,1*%
%TO.N,/VSS_SW_EXT*%
X114919760Y-108712000D03*
%TO.P,J3,2,2*%
%TO.N,GND3*%
X117459760Y-108712000D03*
%TD*%
D10*
%TO.P,S7,1,1*%
%TO.N,GND3*%
X116952000Y-126952000D03*
%TD*%
D11*
%TO.P,J1,1,1*%
%TO.N,/VDD3*%
X114919760Y-97282000D03*
%TO.P,J1,2,2*%
%TO.N,GND3*%
X117459760Y-97282000D03*
%TD*%
%TO.P,J5,1,1*%
%TO.N,/mcu/PA0*%
X79070000Y-127460500D03*
%TO.P,J5,2,2*%
%TO.N,/mcu/PA1*%
X79070000Y-124920500D03*
%TO.P,J5,3,3*%
%TO.N,/mcu/PA2*%
X81610000Y-127460500D03*
%TO.P,J5,4,4*%
%TO.N,/mcu/PA3*%
X81610000Y-124920500D03*
%TO.P,J5,5,5*%
%TO.N,/mcu/PA4*%
X84150000Y-127460500D03*
%TO.P,J5,6,6*%
%TO.N,/mcu/PA5*%
X84150000Y-124920500D03*
%TO.P,J5,7,7*%
%TO.N,/mcu/PA6*%
X86690000Y-127460500D03*
%TO.P,J5,8,8*%
%TO.N,/mcu/PA7*%
X86690000Y-124920500D03*
%TO.P,J5,9,9*%
%TO.N,GND3*%
X89230000Y-127460500D03*
%TO.P,J5,10,10*%
%TO.N,VDD3V_EXT*%
X89230000Y-124920500D03*
%TO.P,J5,11,11*%
%TO.N,/mcu/PA9*%
X91770000Y-127460500D03*
%TO.P,J5,12,12*%
%TO.N,/mcu/PA10*%
X91770000Y-124920500D03*
%TO.P,J5,13,13*%
%TO.N,/mcu/PA11*%
X94310000Y-127460500D03*
%TO.P,J5,14,14*%
%TO.N,/mcu/PA12*%
X94310000Y-124920500D03*
%TO.P,J5,15,15*%
%TO.N,/mcu/PB0*%
X96850000Y-127460500D03*
%TO.P,J5,16,16*%
%TO.N,/mcu/PB1*%
X96850000Y-124920500D03*
%TO.P,J5,17,17*%
%TO.N,/mcu/PB6*%
X99390000Y-127460500D03*
%TO.P,J5,18,18*%
%TO.N,/mcu/PB7*%
X99390000Y-124920500D03*
%TO.P,J5,19,19*%
%TO.N,GND3*%
X101930000Y-127460500D03*
%TO.P,J5,20,20*%
%TO.N,VDD3V_EXT*%
X101930000Y-124920500D03*
%TD*%
D12*
%TO.P,C4,1*%
%TO.N,/VDDA3V*%
X91832760Y-112296880D03*
%TO.P,C4,2*%
%TO.N,GND3*%
X91832760Y-111656880D03*
%TD*%
D13*
%TO.P,C18,1*%
%TO.N,/VDDA3V*%
X106669580Y-115736000D03*
%TO.P,C18,2*%
%TO.N,GND3*%
X107309580Y-115736000D03*
%TD*%
D14*
%TO.P,L2,1,1*%
%TO.N,GND3*%
X102264580Y-108843620D03*
%TO.P,L2,2,2*%
%TO.N,Net-(U2-SW2)*%
X103614580Y-108843620D03*
%TD*%
D12*
%TO.P,R11,1*%
%TO.N,Net-(U2-FB1)*%
X101163860Y-100077980D03*
%TO.P,R11,2*%
%TO.N,/pmu/VDDH*%
X101163860Y-99437980D03*
%TD*%
D15*
%TO.P,C14,1*%
%TO.N,/pmu/VDDH*%
X101369460Y-112582260D03*
%TO.P,C14,2*%
%TO.N,GND3*%
X101369460Y-113222260D03*
%TD*%
D12*
%TO.P,C10,1*%
%TO.N,GND3*%
X103266980Y-100077980D03*
%TO.P,C10,2*%
%TO.N,Net-(C10-Pad2)*%
X103266980Y-99437980D03*
%TD*%
D16*
%TO.P,U5,1,EN1*%
%TO.N,VDD1*%
X105772280Y-113725920D03*
D17*
%TO.P,U5,2,IN*%
X106272280Y-113675920D03*
%TO.P,U5,3,EN2*%
X106772280Y-113675920D03*
%TO.P,U5,4,GND*%
%TO.N,GND3*%
X106772280Y-114875920D03*
%TO.P,U5,5,OUT2*%
%TO.N,/VDDA3V*%
X106272280Y-114875920D03*
%TO.P,U5,6,OUT1*%
%TO.N,/VDD3V*%
X105772280Y-114875920D03*
%TD*%
D18*
%TO.P,D2,1*%
%TO.N,Net-(U2-SW2)*%
X104650503Y-108960677D03*
D19*
%TO.P,D2,2*%
%TO.N,/pmu/VSSH*%
X104650503Y-109530177D03*
%TD*%
D12*
%TO.P,R14,1*%
%TO.N,Net-(U2-FB2)*%
X104669240Y-100077980D03*
%TO.P,R14,2*%
%TO.N,/pmu/VSSH*%
X104669240Y-99437980D03*
%TD*%
D20*
%TO.P,U2,1,INBK*%
%TO.N,Net-(U2-INBK)*%
X100679940Y-104771560D03*
%TO.P,U2,2,SYNC/FREQ*%
%TO.N,Net-(U2-SEQ)*%
X100679940Y-104271560D03*
%TO.P,U2,3,SEQ*%
X100679940Y-103771560D03*
%TO.P,U2,4,SLEW*%
%TO.N,unconnected-(U2-SLEW-Pad4)*%
X100679940Y-103271560D03*
%TO.P,U2,5,FB1*%
%TO.N,Net-(U2-FB1)*%
X100679940Y-102771560D03*
D21*
%TO.P,U2,6,COMP1*%
%TO.N,Net-(U2-COMP1)*%
X101617440Y-101834060D03*
%TO.P,U2,7,EN1*%
%TO.N,VDD1*%
X102117440Y-101834060D03*
%TO.P,U2,8,SS*%
%TO.N,unconnected-(U2-SS-Pad8)*%
X102617440Y-101834060D03*
%TO.P,U2,9,EN2*%
%TO.N,VDD1*%
X103117440Y-101834060D03*
%TO.P,U2,10,COMP2*%
%TO.N,Net-(U2-COMP2)*%
X103617440Y-101834060D03*
D20*
%TO.P,U2,11,FB2*%
%TO.N,Net-(U2-FB2)*%
X104554940Y-102771560D03*
%TO.P,U2,12,VREF*%
%TO.N,Net-(U2-VREF)*%
X104554940Y-103271560D03*
%TO.P,U2,13,AGND*%
%TO.N,GND3*%
X104554940Y-103771560D03*
%TO.P,U2,14,VREG*%
%TO.N,Net-(U2-SEQ)*%
X104554940Y-104271560D03*
%TO.P,U2,15,PVIN1*%
%TO.N,VDD1*%
X104554940Y-104771560D03*
D21*
%TO.P,U2,16,PVINSYS*%
X103617440Y-105709060D03*
%TO.P,U2,17,PVIN2*%
X103117440Y-105709060D03*
%TO.P,U2,18,SW2*%
%TO.N,Net-(U2-SW2)*%
X102617440Y-105709060D03*
%TO.P,U2,19,PGND*%
%TO.N,GND3*%
X102117440Y-105709060D03*
%TO.P,U2,20,SW1*%
%TO.N,Net-(U2-SW1)*%
X101617440Y-105709060D03*
D22*
%TO.P,U2,21,EP*%
%TO.N,GND3*%
X102617440Y-103771560D03*
%TD*%
D23*
%TO.P,C12,1*%
%TO.N,/pmu/VDDH*%
X100522480Y-110747920D03*
%TO.P,C12,2*%
%TO.N,GND3*%
X102072480Y-110747920D03*
%TD*%
D24*
%TO.P,U4,1,VOUT*%
%TO.N,/VSS_SW*%
X103672820Y-115000520D03*
%TO.P,U4,2,ADJ*%
%TO.N,Net-(U4-ADJ)*%
X103022820Y-115000520D03*
%TO.P,U4,3,EN*%
%TO.N,/pmu/VSSH*%
X102372820Y-115000520D03*
%TO.P,U4,4,NC*%
%TO.N,unconnected-(U4-NC-Pad4)*%
X102372820Y-113000520D03*
%TO.P,U4,5,GND*%
%TO.N,GND3*%
X103022820Y-113000520D03*
%TO.P,U4,6,VIN*%
%TO.N,/pmu/VSSH*%
X103672820Y-113000520D03*
D25*
%TO.P,U4,7,EP*%
X103022820Y-114000520D03*
%TD*%
D15*
%TO.P,C11,1*%
%TO.N,Net-(U2-VREF)*%
X105445700Y-102752040D03*
%TO.P,C11,2*%
%TO.N,GND3*%
X105445700Y-103392040D03*
%TD*%
D12*
%TO.P,R13,1*%
%TO.N,Net-(U2-VREF)*%
X105370220Y-100077980D03*
%TO.P,R13,2*%
%TO.N,Net-(U2-FB2)*%
X105370220Y-99437980D03*
%TD*%
%TO.P,C21,1*%
%TO.N,/VSS_SW*%
X104711600Y-115005020D03*
%TO.P,C21,2*%
%TO.N,GND3*%
X104711600Y-114365020D03*
%TD*%
D15*
%TO.P,C9,1*%
%TO.N,GND3*%
X105445700Y-104154120D03*
%TO.P,C9,2*%
%TO.N,Net-(U2-SEQ)*%
X105445700Y-104794120D03*
%TD*%
D12*
%TO.P,C8,1*%
%TO.N,GND3*%
X101864240Y-100077980D03*
%TO.P,C8,2*%
%TO.N,Net-(C8-Pad2)*%
X101864240Y-99437980D03*
%TD*%
D26*
%TO.P,R1,1*%
%TO.N,Net-(U1-PF3-BOOT0)*%
X86904460Y-110909080D03*
%TO.P,R1,2*%
%TO.N,GND3*%
X86264460Y-110909080D03*
%TD*%
D15*
%TO.P,C17,1*%
%TO.N,Net-(U3-SS)*%
X98080220Y-112709260D03*
%TO.P,C17,2*%
%TO.N,GND3*%
X98080220Y-113349260D03*
%TD*%
%TO.P,R10,1*%
%TO.N,Net-(C10-Pad2)*%
X103967540Y-99437980D03*
%TO.P,R10,2*%
%TO.N,Net-(U2-COMP2)*%
X103967540Y-100077980D03*
%TD*%
D18*
%TO.P,D1,1*%
%TO.N,/pmu/VDDH*%
X100599280Y-109616363D03*
D19*
%TO.P,D1,2*%
%TO.N,Net-(U2-SW1)*%
X100599280Y-109046863D03*
%TD*%
D24*
%TO.P,U3,1,VOUT*%
%TO.N,/VDD_SW*%
X100338100Y-115000520D03*
%TO.P,U3,2,SENSE/ADJ*%
%TO.N,Net-(U3-SENSE{slash}ADJ)*%
X99688100Y-115000520D03*
%TO.P,U3,3,GND*%
%TO.N,GND3*%
X99038100Y-115000520D03*
%TO.P,U3,4,EN*%
%TO.N,/pmu/VDDH*%
X99038100Y-113000520D03*
%TO.P,U3,5,SS*%
%TO.N,Net-(U3-SS)*%
X99688100Y-113000520D03*
%TO.P,U3,6,VIN*%
%TO.N,/pmu/VDDH*%
X100338100Y-113000520D03*
D25*
%TO.P,U3,7,EP*%
%TO.N,GND3*%
X99688100Y-114000520D03*
%TD*%
D26*
%TO.P,R18,1*%
%TO.N,Net-(U4-ADJ)*%
X102574740Y-115736000D03*
%TO.P,R18,2*%
%TO.N,GND3*%
X101934740Y-115736000D03*
%TD*%
%TO.P,R15,1*%
%TO.N,/VDD_SW*%
X100636340Y-115736000D03*
%TO.P,R15,2*%
%TO.N,Net-(U3-SENSE{slash}ADJ)*%
X99996340Y-115736000D03*
%TD*%
D12*
%TO.P,C20,1*%
%TO.N,/VDD_SW*%
X101369460Y-115005020D03*
%TO.P,C20,2*%
%TO.N,GND3*%
X101369460Y-114365020D03*
%TD*%
D23*
%TO.P,C13,1*%
%TO.N,GND3*%
X103483040Y-110747920D03*
%TO.P,C13,2*%
%TO.N,/pmu/VSSH*%
X105033040Y-110747920D03*
%TD*%
D27*
%TO.P,C1,1*%
%TO.N,VDD3V_EXT*%
X87274460Y-112419080D03*
%TO.P,C1,2*%
%TO.N,GND3*%
X86314460Y-112419080D03*
%TD*%
D15*
%TO.P,R12,1*%
%TO.N,Net-(U2-FB1)*%
X100462880Y-99437980D03*
%TO.P,R12,2*%
%TO.N,GND3*%
X100462880Y-100077980D03*
%TD*%
D28*
%TO.P,C7,1*%
%TO.N,VDD1*%
X103818920Y-106954880D03*
%TO.P,C7,2*%
%TO.N,GND3*%
X102268920Y-106954880D03*
%TD*%
D26*
%TO.P,C19,1*%
%TO.N,/VDD3V*%
X105874680Y-115736000D03*
%TO.P,C19,2*%
%TO.N,GND3*%
X105234680Y-115736000D03*
%TD*%
D29*
%TO.P,L1,1,1*%
%TO.N,Net-(U2-SW1)*%
X99773877Y-108089400D03*
%TO.P,L1,2,2*%
%TO.N,Net-(U2-INBK)*%
X99773877Y-106739400D03*
%TD*%
D15*
%TO.P,C15,1*%
%TO.N,/pmu/VSSH*%
X104711600Y-112582260D03*
%TO.P,C15,2*%
%TO.N,GND3*%
X104711600Y-113222260D03*
%TD*%
%TO.P,C16,1*%
%TO.N,VDD1*%
X107739040Y-113478880D03*
%TO.P,C16,2*%
%TO.N,GND3*%
X107739040Y-114118880D03*
%TD*%
D26*
%TO.P,R16,1*%
%TO.N,Net-(U3-SENSE{slash}ADJ)*%
X99236340Y-115736000D03*
%TO.P,R16,2*%
%TO.N,GND3*%
X98596340Y-115736000D03*
%TD*%
D12*
%TO.P,C2,1*%
%TO.N,/VDDA3V*%
X93232760Y-112296880D03*
%TO.P,C2,2*%
%TO.N,GND3*%
X93232760Y-111656880D03*
%TD*%
D15*
%TO.P,R9,1*%
%TO.N,Net-(C8-Pad2)*%
X102565520Y-99437980D03*
%TO.P,R9,2*%
%TO.N,Net-(U2-COMP1)*%
X102565520Y-100077980D03*
%TD*%
D26*
%TO.P,C3,1*%
%TO.N,VDD3V_EXT*%
X86904460Y-111609080D03*
%TO.P,C3,2*%
%TO.N,GND3*%
X86264460Y-111609080D03*
%TD*%
%TO.P,R17,1*%
%TO.N,/VSS_SW*%
X103974740Y-115736000D03*
%TO.P,R17,2*%
%TO.N,Net-(U4-ADJ)*%
X103334740Y-115736000D03*
%TD*%
D12*
%TO.P,C5,1*%
%TO.N,/VDDA3V*%
X92532760Y-112296880D03*
%TO.P,C5,2*%
%TO.N,GND3*%
X92532760Y-111656880D03*
%TD*%
D30*
%TO.N,/VDD3V*%
X105467000Y-116761800D03*
X105867000Y-116257200D03*
%TO.N,/VDDA3V*%
X92260260Y-113020000D03*
X107045780Y-116761800D03*
X106647000Y-116257200D03*
%TO.N,/mcu/NRST*%
X92070474Y-119268794D03*
X92600780Y-113996400D03*
%TO.N,Net-(U2-SEQ)*%
X105442100Y-105325780D03*
X99861440Y-104271560D03*
%TO.N,/VDD_SW*%
X101293260Y-115669600D03*
X100893800Y-116257200D03*
%TO.N,/VSS_SW*%
X104232200Y-116257200D03*
X104622700Y-115669600D03*
%TO.N,Net-(U1-PF3-BOOT0)*%
X88562200Y-110892320D03*
%TO.N,/mcu/PA10*%
X91902240Y-106005860D03*
%TO.N,/mcu/PA9*%
X92402100Y-106514460D03*
%TO.N,/MOSI_SW*%
X74149100Y-113492500D03*
X83741600Y-113619440D03*
%TO.N,/MISO_SW*%
X77374900Y-113492500D03*
X83741600Y-112679440D03*
%TO.N,/SCLK_SW*%
X83741600Y-111739440D03*
X73387100Y-112857500D03*
%TO.N,/CSb_SW*%
X76612900Y-112857500D03*
X83741600Y-110799640D03*
%TO.N,GND3*%
X78181200Y-115976400D03*
X90617040Y-122600720D03*
X84074000Y-106705400D03*
X112268000Y-112471200D03*
X81711800Y-114554000D03*
X110109000Y-111912400D03*
X108102400Y-97891600D03*
X118729360Y-116205340D03*
X104947600Y-116257200D03*
X86461600Y-116560600D03*
X90347800Y-117119400D03*
X100634800Y-123139200D03*
X90694500Y-115195200D03*
X80213200Y-112242600D03*
X118729360Y-117475340D03*
X86314460Y-113162080D03*
X113334800Y-128193800D03*
X108127800Y-107238800D03*
X101369460Y-113797800D03*
X99931220Y-100077980D03*
X93878400Y-104013000D03*
X103379440Y-104558560D03*
X108077000Y-111099600D03*
X102617440Y-103796560D03*
X84023200Y-117094000D03*
X99898200Y-91871800D03*
X99009200Y-101117400D03*
X98077020Y-115314000D03*
X81813400Y-117094000D03*
X86207600Y-118821200D03*
X92029240Y-115286020D03*
X91160600Y-120446800D03*
X90652600Y-108323380D03*
X76479400Y-119786400D03*
X104470200Y-90830400D03*
X102844600Y-95580200D03*
X102870000Y-122250200D03*
X83083400Y-122351800D03*
X95021400Y-123139200D03*
X77927200Y-93319600D03*
X89298731Y-112971531D03*
X108077000Y-101955600D03*
X71704200Y-111887000D03*
X106629200Y-120573800D03*
X108839000Y-118389400D03*
X71729600Y-106070400D03*
X99885820Y-93314080D03*
X94874080Y-106144060D03*
X89294100Y-115344480D03*
X73466100Y-115128580D03*
X107209040Y-128743200D03*
X81229200Y-90830400D03*
X90652600Y-111099600D03*
X108077000Y-94437200D03*
X104711600Y-113797800D03*
X103661680Y-100649980D03*
X85420200Y-114376200D03*
X113385600Y-122301000D03*
X111175800Y-107264200D03*
X85064600Y-108559600D03*
X108102400Y-96520000D03*
X103379440Y-103034560D03*
X101647660Y-116257200D03*
X101536500Y-107370820D03*
X82575400Y-108178600D03*
X71780400Y-117525800D03*
X116205000Y-111023400D03*
X91363800Y-103428800D03*
X103454200Y-91897200D03*
X101855440Y-103034560D03*
X105957840Y-103771560D03*
X82575400Y-109956600D03*
X103022820Y-112316460D03*
X71704200Y-100431600D03*
X97840800Y-110617000D03*
X96875600Y-104952800D03*
X81661000Y-119710200D03*
X92532760Y-111099600D03*
X88714600Y-111709820D03*
X77292200Y-123850400D03*
X106248200Y-118795800D03*
X97749360Y-123139200D03*
X106832400Y-105867200D03*
X101930200Y-119227600D03*
X83794600Y-115900200D03*
X87967820Y-121831100D03*
X73761600Y-97459800D03*
X112674400Y-99542600D03*
X101124220Y-100964940D03*
X92862400Y-123139200D03*
X113030000Y-94411800D03*
X110327440Y-119400320D03*
X106832400Y-107035600D03*
X118033800Y-122910600D03*
X110127960Y-98219260D03*
X87376000Y-106705400D03*
X108889800Y-120802400D03*
X98196400Y-121767600D03*
X90243500Y-113284000D03*
X118729360Y-113665340D03*
X94589880Y-107574820D03*
X88696800Y-106121200D03*
X88565920Y-115195200D03*
X101535700Y-108008360D03*
X85140800Y-119710200D03*
X97129600Y-108788200D03*
X93319600Y-119837200D03*
X106654600Y-95072200D03*
X91139000Y-113334800D03*
X96266000Y-103403400D03*
X112928400Y-104038400D03*
X86715600Y-114757200D03*
X101855440Y-104558560D03*
X92232480Y-108996480D03*
X86264460Y-110299500D03*
X96621600Y-120396000D03*
X78181200Y-114427000D03*
X99923600Y-97917000D03*
X107739040Y-114694420D03*
X107209040Y-123256800D03*
X97053400Y-113919000D03*
X106705400Y-97840800D03*
X114884200Y-119837200D03*
X88900000Y-118592600D03*
X98080220Y-113924800D03*
X89281000Y-116052600D03*
X107565420Y-116257200D03*
X101536500Y-106733880D03*
X96621600Y-117983000D03*
%TO.N,/MISO1m*%
X84464280Y-93314480D03*
X76612900Y-106507500D03*
%TO.N,/CSbm*%
X73768100Y-106507500D03*
X86369280Y-94076480D03*
%TO.N,/SCLKm*%
X85734280Y-92552480D03*
X73387100Y-107777500D03*
%TO.N,/MOSIp*%
X76993900Y-109682500D03*
X85099280Y-97632480D03*
%TO.N,/MISO2p*%
X76993900Y-108412500D03*
X83829280Y-97632480D03*
%TO.N,/MISO1p*%
X84464280Y-96870480D03*
X76993900Y-107142500D03*
%TO.N,/MISO2m*%
X76612900Y-107777500D03*
X83829280Y-94076480D03*
%TO.N,VDD3V_EXT*%
X88206600Y-112420400D03*
X102834900Y-119113000D03*
X95468400Y-106417240D03*
%TO.N,/CSbp*%
X86369280Y-97251480D03*
X74149100Y-107142500D03*
%TO.N,/SCLKp*%
X74149100Y-108412500D03*
X85734280Y-96870480D03*
%TO.N,/MOSIm*%
X76612900Y-109047500D03*
X85099280Y-94076480D03*
%TO.N,/CSbp_STIM*%
X74149100Y-109682500D03*
X94957680Y-93314080D03*
%TO.N,/SCLKp_STIM*%
X74149100Y-110952500D03*
X96862680Y-99537080D03*
%TO.N,/MOSI1m_STIM*%
X96227680Y-96870080D03*
X78452980Y-110241080D03*
%TO.N,VDD1*%
X106273600Y-112379060D03*
X104957080Y-106474200D03*
X103117440Y-101013200D03*
X104957080Y-107297220D03*
X102117440Y-101013200D03*
X107088940Y-112379060D03*
%TO.N,/MOSI2m_STIM*%
X95592680Y-94076080D03*
X79468980Y-109021880D03*
%TO.N,/SCLKm_STIM*%
X97497680Y-98775080D03*
X73387100Y-110317500D03*
%TO.N,/MOSI1p_STIM*%
X95592680Y-97251080D03*
X79113380Y-110241080D03*
%TO.N,/CSbm_STIM*%
X94322680Y-94076080D03*
X73387100Y-109047500D03*
%TO.N,/MOSI2p_STIM*%
X96227680Y-93314080D03*
X80129380Y-109021880D03*
%TO.N,/mcu/PB1*%
X95098200Y-108392320D03*
%TO.N,/mcu/PB0*%
X94831940Y-108968804D03*
%TO.N,/mcu/PB6*%
X88562200Y-109892320D03*
%TO.N,/mcu/SWDIO*%
X111109360Y-118745340D03*
X90402100Y-106514460D03*
%TO.N,/mcu/SWCLK*%
X89902240Y-106005860D03*
X111109360Y-117475340D03*
%TO.N,/mcu/PB7*%
X88054200Y-110392320D03*
%TO.N,/pmu/VDDH*%
X99915220Y-109616363D03*
X101163860Y-98906320D03*
X99038100Y-112316460D03*
%TO.N,/pmu/VSSH*%
X104669240Y-98906320D03*
X105334563Y-109530177D03*
%TO.N,/VDD_SW_EXT*%
X97396760Y-119113000D03*
X77374900Y-114762500D03*
%TO.N,/VSS_SW_EXT*%
X76612900Y-115397500D03*
X97396760Y-120054760D03*
%TO.N,/MISO1p_STIM*%
X94322680Y-100680080D03*
X74149100Y-112222500D03*
%TO.N,/MISO1m_STIM*%
X73387100Y-111587500D03*
X94957680Y-99918080D03*
%TO.N,/mcu/PA12*%
X90902240Y-106005860D03*
%TO.N,/mcu/PA11*%
X91402100Y-106514460D03*
%TO.N,GND1*%
X95554800Y-101193600D03*
X80568800Y-92100400D03*
X98885820Y-93314080D03*
X84607400Y-99999800D03*
X79197200Y-96951800D03*
X84912200Y-104851200D03*
X87020400Y-91795600D03*
X98983800Y-99974400D03*
X74828400Y-103200200D03*
X75844400Y-100355400D03*
X72745600Y-99923600D03*
X82491696Y-93660076D03*
X74149100Y-105872500D03*
X91440000Y-97409000D03*
X90220800Y-94894400D03*
X85115400Y-101219000D03*
X76885800Y-95783400D03*
X79984600Y-94488000D03*
X81534000Y-99847400D03*
X98475800Y-91846400D03*
X89916000Y-100431600D03*
X82245200Y-104013000D03*
X76784200Y-101168200D03*
X73939400Y-100482400D03*
X76682600Y-97764600D03*
X93345000Y-91821000D03*
X76993900Y-103200200D03*
X88138000Y-105486200D03*
X78232000Y-101879400D03*
X81026000Y-98653600D03*
X87934800Y-93700600D03*
X91643200Y-98704400D03*
X85775800Y-98323400D03*
X88341200Y-98653600D03*
X81711800Y-102895400D03*
X84912200Y-103505000D03*
X90830400Y-102793800D03*
X72618600Y-109677200D03*
X91236800Y-95783400D03*
X93687680Y-93695080D03*
X80314800Y-104902000D03*
X93091000Y-97409000D03*
X72618600Y-110947200D03*
X78689200Y-99136200D03*
X96824800Y-102133400D03*
X88773000Y-99949000D03*
X92506800Y-94310200D03*
X81076800Y-96748600D03*
X82931000Y-97231200D03*
X76993900Y-105872500D03*
X87960200Y-97231200D03*
X96164400Y-100076000D03*
X80314800Y-102997000D03*
X79476600Y-100812600D03*
X81788000Y-108991400D03*
%TD*%
D31*
%TO.N,/VDD3V*%
X105772280Y-114875920D02*
X105772280Y-115633600D01*
X105772280Y-115633600D02*
X105874680Y-115736000D01*
X105867000Y-115743680D02*
X105874680Y-115736000D01*
X105467000Y-116761800D02*
X105467000Y-116657200D01*
X105467000Y-116657200D02*
X105867000Y-116257200D01*
X105867000Y-116257200D02*
X105867000Y-115743680D01*
%TO.N,/VDDA3V*%
X106647000Y-116257200D02*
X106647000Y-115758580D01*
D32*
X107045780Y-117490220D02*
X107045780Y-116761800D01*
X106502200Y-118033800D02*
X107045780Y-117490220D01*
D31*
X106272280Y-115338700D02*
X106669580Y-115736000D01*
X107045780Y-116761800D02*
X107045780Y-116655980D01*
X93116960Y-112747500D02*
X93232760Y-112631700D01*
X92260260Y-113020000D02*
X92532760Y-112747500D01*
X92260260Y-113020000D02*
X92115800Y-113020000D01*
X92532760Y-112747500D02*
X92532760Y-112296880D01*
X106647000Y-115758580D02*
X106669580Y-115736000D01*
X92260260Y-113020000D02*
X91832760Y-112592500D01*
D32*
X98094800Y-118033800D02*
X106502200Y-118033800D01*
D31*
X91832760Y-112592500D02*
X91832760Y-112296880D01*
X106272280Y-114875920D02*
X106272280Y-115338700D01*
X93232760Y-112631700D02*
X93232760Y-112296880D01*
X92532760Y-112747500D02*
X93116960Y-112747500D01*
X107045780Y-116655980D02*
X106647000Y-116257200D01*
D32*
X93116960Y-112747500D02*
X93116960Y-113055960D01*
X93116960Y-113055960D02*
X98094800Y-118033800D01*
D33*
%TO.N,Net-(C8-Pad2)*%
X101864240Y-99437980D02*
X102565520Y-99437980D01*
%TO.N,Net-(U2-SEQ)*%
X105442100Y-104794120D02*
X105442100Y-105325780D01*
X104554940Y-104271560D02*
X104919540Y-104271560D01*
X99861440Y-103922760D02*
X99861440Y-104271560D01*
X104919540Y-104271560D02*
X105442100Y-104794120D01*
X105442100Y-104794120D02*
X105445700Y-104794120D01*
X100679940Y-104271560D02*
X99861440Y-104271560D01*
X100012640Y-103771560D02*
X99861440Y-103922760D01*
X100679940Y-103771560D02*
X100012640Y-103771560D01*
%TO.N,Net-(C10-Pad2)*%
X103266980Y-99437980D02*
X103967540Y-99437980D01*
%TO.N,Net-(U2-VREF)*%
X104554940Y-103271560D02*
X104922580Y-103271560D01*
X104922580Y-103271560D02*
X105442100Y-102752040D01*
X105445700Y-102752040D02*
X105445700Y-100153460D01*
X105442100Y-102752040D02*
X105445700Y-102752040D01*
X105445700Y-100153460D02*
X105370220Y-100077980D01*
%TO.N,Net-(U3-SS)*%
X98080220Y-112285120D02*
X98080220Y-112709260D01*
X99222760Y-111871960D02*
X98493380Y-111871960D01*
X99688100Y-112337300D02*
X99222760Y-111871960D01*
X99688100Y-113000520D02*
X99688100Y-112337300D01*
X98493380Y-111871960D02*
X98080220Y-112285120D01*
D31*
%TO.N,/VDD_SW*%
X100338100Y-115232360D02*
X100419740Y-115314000D01*
X100637880Y-115313460D02*
X101293260Y-115313460D01*
X100893800Y-116257200D02*
X100893800Y-115993460D01*
X101293260Y-115669600D02*
X101293260Y-115313460D01*
X100636340Y-115736000D02*
X100636340Y-115315000D01*
X100636340Y-115315000D02*
X100637880Y-115313460D01*
X101293260Y-115081220D02*
X101369460Y-115005020D01*
X100419740Y-115314000D02*
X100637340Y-115314000D01*
X100338100Y-115000520D02*
X100338100Y-115232360D01*
X101293260Y-115313460D02*
X101293260Y-115081220D01*
X100893800Y-115993460D02*
X100636340Y-115736000D01*
%TO.N,/VSS_SW*%
X104622700Y-115669600D02*
X104622700Y-115313460D01*
X103975440Y-115313460D02*
X104622700Y-115313460D01*
X103672820Y-115000520D02*
X103672820Y-115232360D01*
X104232200Y-116257200D02*
X104232200Y-115993460D01*
X104622700Y-115093920D02*
X104711600Y-115005020D01*
X104232200Y-115993460D02*
X103974740Y-115736000D01*
X103754460Y-115314000D02*
X103974900Y-115314000D01*
X103672820Y-115232360D02*
X103754460Y-115314000D01*
X104622700Y-115313460D02*
X104622700Y-115093920D01*
X103974740Y-115736000D02*
X103974740Y-115314160D01*
X103974740Y-115314160D02*
X103975440Y-115313460D01*
D33*
%TO.N,Net-(U2-SW1)*%
X99773877Y-108089400D02*
X100334780Y-108089400D01*
D31*
X101041200Y-106539030D02*
X101041200Y-107436920D01*
D33*
X99900877Y-108089400D02*
X100372880Y-108089400D01*
X100609400Y-108364020D02*
X100609400Y-109036743D01*
D31*
X101041200Y-107436920D02*
X100388720Y-108089400D01*
D33*
X100609400Y-109036743D02*
X100599280Y-109046863D01*
D31*
X100388720Y-108089400D02*
X99773877Y-108089400D01*
X101617440Y-105709060D02*
X101617440Y-105962790D01*
D33*
X101617440Y-105709060D02*
X101617440Y-106041940D01*
X100334780Y-108089400D02*
X100609400Y-108364020D01*
D31*
X101617440Y-105962790D02*
X101041200Y-106539030D01*
%TO.N,Net-(U2-SW2)*%
X103614580Y-108220340D02*
X103039380Y-107645140D01*
D33*
X103731637Y-108960677D02*
X103614580Y-108843620D01*
D31*
X103039380Y-106493780D02*
X102617440Y-106071840D01*
X102617440Y-106071840D02*
X102617440Y-105709060D01*
D33*
X104650503Y-108960677D02*
X103731637Y-108960677D01*
D31*
X103614580Y-108843620D02*
X103614580Y-108220340D01*
X103039380Y-107645140D02*
X103039380Y-106493780D01*
%TO.N,Net-(U2-INBK)*%
X100280940Y-104807960D02*
X100317340Y-104771560D01*
D33*
X99900877Y-106739400D02*
X100117340Y-106739400D01*
D31*
X100317340Y-104771560D02*
X100679940Y-104771560D01*
D33*
X100117340Y-106739400D02*
X100280940Y-106575800D01*
D31*
X100280940Y-106575800D02*
X100280940Y-104807960D01*
D33*
%TO.N,Net-(U1-PF3-BOOT0)*%
X88545440Y-110909080D02*
X86904460Y-110909080D01*
X88697840Y-110909080D02*
X88714600Y-110892320D01*
X88562200Y-110892320D02*
X88545440Y-110909080D01*
%TO.N,Net-(U2-COMP1)*%
X102565520Y-100077980D02*
X102565520Y-100384700D01*
X101930200Y-100556060D02*
X101617440Y-100868820D01*
X101617440Y-100868820D02*
X101617440Y-101834060D01*
X102394160Y-100556060D02*
X101930200Y-100556060D01*
X102565520Y-100384700D02*
X102394160Y-100556060D01*
%TO.N,Net-(U2-COMP2)*%
X104200160Y-100310600D02*
X104200160Y-101008120D01*
X104200160Y-101008120D02*
X103617440Y-101590840D01*
X103617440Y-101590840D02*
X103617440Y-101834060D01*
X103967540Y-100077980D02*
X104200160Y-100310600D01*
%TO.N,Net-(U2-FB1)*%
X101160260Y-100077980D02*
X101163860Y-100077980D01*
X100280940Y-100960900D02*
X100280940Y-102699760D01*
X100280940Y-102699760D02*
X100352740Y-102771560D01*
X100520260Y-99437980D02*
X101160260Y-100077980D01*
X100352740Y-102771560D02*
X100679940Y-102771560D01*
X101163860Y-100077980D02*
X100280940Y-100960900D01*
X100462880Y-99437980D02*
X100520260Y-99437980D01*
%TO.N,Net-(U2-FB2)*%
X104954540Y-100363280D02*
X104954540Y-102689600D01*
X104954540Y-102689600D02*
X104872580Y-102771560D01*
X105370220Y-99437980D02*
X105312840Y-99437980D01*
X105312840Y-99437980D02*
X104672840Y-100077980D01*
X104672840Y-100077980D02*
X104669240Y-100077980D01*
X104669240Y-100077980D02*
X104954540Y-100363280D01*
X104872580Y-102771560D02*
X104554940Y-102771560D01*
%TO.N,Net-(U3-SENSE{slash}ADJ)*%
X99621340Y-115736000D02*
X99236340Y-115736000D01*
X99621340Y-115067280D02*
X99688100Y-115000520D01*
X99996340Y-115736000D02*
X99621340Y-115736000D01*
X99621340Y-115736000D02*
X99621340Y-115067280D01*
%TO.N,Net-(U4-ADJ)*%
X102958900Y-115736000D02*
X102574740Y-115736000D01*
X102958900Y-115736000D02*
X102958900Y-115064440D01*
X103334740Y-115736000D02*
X102958900Y-115736000D01*
X102958900Y-115064440D02*
X103022820Y-115000520D01*
D31*
%TO.N,GND3*%
X86314460Y-112419080D02*
X86314460Y-113162080D01*
D33*
X101934740Y-115736000D02*
X101934740Y-115792320D01*
X98080220Y-113924800D02*
X98080220Y-113349260D01*
D31*
X99688100Y-114000520D02*
X99354400Y-114000520D01*
X86264460Y-110909080D02*
X86264460Y-110299500D01*
D33*
X105444760Y-103771560D02*
X105957840Y-103771560D01*
D31*
X105095040Y-116109760D02*
X104947600Y-116257200D01*
X99354400Y-114000520D02*
X99038100Y-114316820D01*
D33*
X103266980Y-100077980D02*
X103661680Y-100472680D01*
X105445700Y-104154120D02*
X105445700Y-103772500D01*
D31*
X99038100Y-115000520D02*
X99038100Y-115195660D01*
D33*
X101124220Y-100964940D02*
X101124220Y-100818000D01*
D31*
X92532760Y-111656880D02*
X93232760Y-111656880D01*
D33*
X105445700Y-103392040D02*
X105445700Y-103770620D01*
D31*
X92532760Y-111656880D02*
X91832760Y-111656880D01*
X92532760Y-111656880D02*
X92532760Y-111099600D01*
D33*
X100462880Y-100077980D02*
X99931220Y-100077980D01*
D31*
X86264460Y-111609080D02*
X86264460Y-110909080D01*
D33*
X104554940Y-103771560D02*
X105444760Y-103771560D01*
X105445700Y-103770620D02*
X105444760Y-103771560D01*
D31*
X105095040Y-115875640D02*
X105095040Y-116109760D01*
D33*
X102268920Y-108839280D02*
X102264580Y-108843620D01*
D31*
X102117440Y-105709060D02*
X102117440Y-106803400D01*
D33*
X102117440Y-106803400D02*
X102268920Y-106954880D01*
D31*
X101369460Y-113797800D02*
X101369460Y-114365020D01*
X86314460Y-112419080D02*
X86314460Y-111659080D01*
X103022820Y-113000520D02*
X103022820Y-112316460D01*
X104711600Y-113797800D02*
X104711600Y-114365020D01*
X101369460Y-113797800D02*
X101369460Y-113222260D01*
X105234680Y-115736000D02*
X105095040Y-115875640D01*
X98595180Y-115314000D02*
X98077020Y-115314000D01*
X101647660Y-116257200D02*
X101647660Y-116023080D01*
X99038100Y-115195660D02*
X98919760Y-115314000D01*
X99038100Y-114316820D02*
X99038100Y-115000520D01*
D33*
X102264580Y-110555820D02*
X102072480Y-110747920D01*
X102264580Y-108843620D02*
X102264580Y-110555820D01*
D31*
X98596340Y-115315160D02*
X98595180Y-115314000D01*
X106772280Y-114875920D02*
X106772280Y-115111100D01*
X98919760Y-115314000D02*
X98595180Y-115314000D01*
D33*
X101536500Y-106733880D02*
X102047920Y-106733880D01*
D31*
X107309580Y-115648400D02*
X107309580Y-115736000D01*
X107565420Y-115991840D02*
X107309580Y-115736000D01*
X101647660Y-116023080D02*
X101934740Y-115736000D01*
X107565420Y-116257200D02*
X107565420Y-115991840D01*
X104711600Y-113797800D02*
X104711600Y-113222260D01*
X98596340Y-115736000D02*
X98596340Y-115315160D01*
D33*
X105445700Y-103772500D02*
X105444760Y-103771560D01*
D31*
X106772280Y-115111100D02*
X107309580Y-115648400D01*
D33*
X102268920Y-106954880D02*
X102268920Y-108839280D01*
X103661680Y-100472680D02*
X103661680Y-100649980D01*
X102047920Y-106733880D02*
X102268920Y-106954880D01*
D31*
X86314460Y-111659080D02*
X86264460Y-111609080D01*
X107739040Y-114694420D02*
X107739040Y-114118880D01*
D33*
X101124220Y-100818000D02*
X101864240Y-100077980D01*
X103483040Y-110747920D02*
X102072480Y-110747920D01*
D31*
%TO.N,VDD3V_EXT*%
X87274460Y-111979080D02*
X86904460Y-111609080D01*
X87275780Y-112420400D02*
X87274460Y-112419080D01*
D32*
X96108184Y-116586000D02*
X97936984Y-118414800D01*
D31*
X89197200Y-108465600D02*
X90230960Y-107431840D01*
D32*
X102834900Y-119113000D02*
X103940100Y-120218200D01*
D31*
X93629480Y-107431840D02*
X94127320Y-106934000D01*
D32*
X87274460Y-112419080D02*
X87274460Y-115511640D01*
D31*
X94127320Y-106934000D02*
X94951640Y-106934000D01*
D32*
X109202220Y-116959380D02*
X109202220Y-105737660D01*
X102136700Y-118414800D02*
X102834900Y-119113000D01*
X113847880Y-101092000D02*
X114919760Y-101092000D01*
D31*
X94951640Y-106934000D02*
X95468400Y-106417240D01*
D32*
X105943400Y-120218200D02*
X109202220Y-116959380D01*
D31*
X89197200Y-111909720D02*
X89197200Y-108465600D01*
D32*
X87274460Y-115511640D02*
X88348820Y-116586000D01*
D31*
X88206600Y-112420400D02*
X87275780Y-112420400D01*
X88206600Y-112420400D02*
X88434580Y-112192420D01*
D32*
X103940100Y-120218200D02*
X105943400Y-120218200D01*
D31*
X88434580Y-112192420D02*
X88914500Y-112192420D01*
D32*
X97936984Y-118414800D02*
X102136700Y-118414800D01*
X109202220Y-105737660D02*
X113847880Y-101092000D01*
D31*
X88914500Y-112192420D02*
X89197200Y-111909720D01*
D32*
X88348820Y-116586000D02*
X96108184Y-116586000D01*
D31*
X90230960Y-107431840D02*
X93629480Y-107431840D01*
X87274460Y-112419080D02*
X87274460Y-111979080D01*
D33*
%TO.N,VDD1*%
X104818740Y-107297220D02*
X104476400Y-106954880D01*
D31*
X107739040Y-113105360D02*
X107520740Y-112887060D01*
X103117440Y-106059500D02*
X103818920Y-106760980D01*
X106273600Y-112887060D02*
X106273600Y-112379060D01*
D33*
X103818920Y-106760980D02*
X103818920Y-106954880D01*
D31*
X104907980Y-104771560D02*
X104957080Y-104820660D01*
D33*
X104476400Y-106954880D02*
X103818920Y-106954880D01*
D31*
X106773980Y-112887060D02*
X106273600Y-112887060D01*
X106772280Y-112888760D02*
X106773980Y-112887060D01*
X103617440Y-106074360D02*
X103818920Y-106275840D01*
X106272280Y-113675920D02*
X106272280Y-112888380D01*
X106772280Y-113675920D02*
X106772280Y-112888760D01*
X107739040Y-113105360D02*
X107739040Y-113478880D01*
X104957080Y-104820660D02*
X104957080Y-106474200D01*
X104554940Y-104771560D02*
X104907980Y-104771560D01*
X107520740Y-112887060D02*
X107088940Y-112887060D01*
X107088940Y-112887060D02*
X106773980Y-112887060D01*
X106273600Y-112887060D02*
X106088880Y-112887060D01*
D33*
X102117440Y-101013200D02*
X102117440Y-101834060D01*
D31*
X105772280Y-113203660D02*
X105772280Y-113725920D01*
X106272280Y-112888380D02*
X106273600Y-112887060D01*
X106088880Y-112887060D02*
X105772280Y-113203660D01*
D33*
X104957080Y-107297220D02*
X104818740Y-107297220D01*
X104957080Y-106474200D02*
X104476400Y-106954880D01*
D31*
X103117440Y-105709060D02*
X103117440Y-106059500D01*
D33*
X103117440Y-101013200D02*
X103117440Y-101834060D01*
D31*
X107088940Y-112379060D02*
X107088940Y-112887060D01*
X103818920Y-106275840D02*
X103818920Y-106954880D01*
X103617440Y-105709060D02*
X103617440Y-106074360D01*
%TO.N,/pmu/VDDH*%
X100338100Y-113000520D02*
X100338100Y-112252280D01*
X101178920Y-112067900D02*
X101369460Y-112258440D01*
D33*
X101163860Y-99437980D02*
X101163860Y-98906320D01*
D31*
X99038100Y-113000520D02*
X99038100Y-112316460D01*
D33*
X100599280Y-109616363D02*
X99915220Y-109616363D01*
D31*
X101369460Y-112258440D02*
X101369460Y-112582260D01*
X100522480Y-111716820D02*
X100522480Y-110747920D01*
X100338100Y-112252280D02*
X100522480Y-112067900D01*
D33*
X100599280Y-109616363D02*
X100599280Y-110671120D01*
X100599280Y-110671120D02*
X100522480Y-110747920D01*
D31*
X100522480Y-112067900D02*
X100522480Y-111716820D01*
X100522480Y-112067900D02*
X101178920Y-112067900D01*
%TO.N,/pmu/VSSH*%
X103022820Y-114000520D02*
X103375220Y-114000520D01*
X103672820Y-113702920D02*
X103672820Y-113000520D01*
X103672820Y-113000520D02*
X103672820Y-112496420D01*
D33*
X104650503Y-109530177D02*
X104650503Y-110365383D01*
D31*
X105033040Y-111608640D02*
X105033040Y-110747920D01*
D33*
X102372820Y-115221360D02*
X102306120Y-115288060D01*
X101813960Y-115164200D02*
X101813960Y-112488380D01*
X101813960Y-112488380D02*
X102430380Y-111871960D01*
X101937820Y-115288060D02*
X101813960Y-115164200D01*
D31*
X103672820Y-112496420D02*
X104178100Y-111991140D01*
X104938830Y-111702850D02*
X105033040Y-111608640D01*
D33*
X103360420Y-111871960D02*
X103828850Y-112340390D01*
X102306120Y-115288060D02*
X101937820Y-115288060D01*
X102372820Y-115000520D02*
X102372820Y-115221360D01*
X104650503Y-109530177D02*
X105334563Y-109530177D01*
D31*
X103375220Y-114000520D02*
X103672820Y-113702920D01*
D33*
X104650503Y-110365383D02*
X105033040Y-110747920D01*
D31*
X104711600Y-112052200D02*
X104711600Y-112582260D01*
X104650540Y-111991140D02*
X104711600Y-112052200D01*
D33*
X102430380Y-111871960D02*
X103360420Y-111871960D01*
D31*
X104650540Y-111991140D02*
X104938830Y-111702850D01*
D33*
X104669240Y-99437980D02*
X104669240Y-98906320D01*
D31*
X104178100Y-111991140D02*
X104650540Y-111991140D01*
D32*
%TO.N,/VDD_SW_EXT*%
X109946440Y-113146504D02*
X112725200Y-110367744D01*
X99517960Y-121234200D02*
X106953984Y-121234200D01*
X92646836Y-117635020D02*
X83748880Y-117635020D01*
X97396760Y-119113000D02*
X99517960Y-121234200D01*
X83748880Y-117635020D02*
X81130360Y-115016500D01*
X112725200Y-110367744D02*
X112725200Y-107096560D01*
X94124816Y-119113000D02*
X92646836Y-117635020D01*
X112725200Y-107096560D02*
X114919760Y-104902000D01*
X97396760Y-119113000D02*
X94124816Y-119113000D01*
X109946440Y-118241744D02*
X109946440Y-113146504D01*
X77628900Y-115016500D02*
X77374900Y-114762500D01*
X106953984Y-121234200D02*
X109946440Y-118241744D01*
X81130360Y-115016500D02*
X77628900Y-115016500D01*
%TO.N,/VSS_SW_EXT*%
X93967000Y-119494000D02*
X92489020Y-118016020D01*
X83591064Y-118016020D02*
X80972544Y-115397500D01*
X98957200Y-121615200D02*
X107111800Y-121615200D01*
X80972544Y-115397500D02*
X76612900Y-115397500D01*
X96836000Y-119494000D02*
X93967000Y-119494000D01*
X97396760Y-120054760D02*
X96836000Y-119494000D01*
X97396760Y-120054760D02*
X98957200Y-121615200D01*
X107111800Y-121615200D02*
X110327440Y-118399560D01*
X110327440Y-118399560D02*
X110327440Y-113304320D01*
X110327440Y-113304320D02*
X114919760Y-108712000D01*
X92489020Y-118016020D02*
X83591064Y-118016020D01*
%TD*%
%TA.AperFunction,Conductor*%
%TO.N,GND1*%
G36*
X99285290Y-91449922D02*
G01*
X99308352Y-91476537D01*
X99314000Y-91502500D01*
X99314000Y-100050112D01*
X99304078Y-100083902D01*
X99295694Y-100094306D01*
X96538306Y-102851694D01*
X96507397Y-102868572D01*
X96494112Y-102870000D01*
X91186000Y-102870000D01*
X87902306Y-106153694D01*
X87871397Y-106170572D01*
X87858112Y-106172000D01*
X83820000Y-106172000D01*
X82042000Y-107950000D01*
X82042000Y-109702112D01*
X82032078Y-109735902D01*
X82023694Y-109746306D01*
X79266306Y-112503694D01*
X79235397Y-112520572D01*
X79222112Y-112522000D01*
X76814023Y-112522000D01*
X76782705Y-112512976D01*
X76782633Y-112513127D01*
X76781749Y-112512701D01*
X76780769Y-112512419D01*
X76779474Y-112511605D01*
X76779470Y-112511603D01*
X76779469Y-112511603D01*
X76698330Y-112483212D01*
X76698325Y-112483211D01*
X76612900Y-112473586D01*
X76527474Y-112483211D01*
X76527469Y-112483212D01*
X76446330Y-112511603D01*
X76446324Y-112511606D01*
X76445031Y-112512419D01*
X76444050Y-112512701D01*
X76443167Y-112513127D01*
X76443094Y-112512976D01*
X76411777Y-112522000D01*
X74524557Y-112522000D01*
X74490767Y-112512078D01*
X74467705Y-112485463D01*
X74462693Y-112450605D01*
X74471637Y-112426247D01*
X74477714Y-112416576D01*
X74494995Y-112389074D01*
X74523388Y-112307929D01*
X74533014Y-112222500D01*
X74523388Y-112137071D01*
X74494995Y-112055926D01*
X74488828Y-112046112D01*
X74449257Y-111983136D01*
X74449256Y-111983134D01*
X74388465Y-111922343D01*
X74388463Y-111922342D01*
X74315675Y-111876605D01*
X74234530Y-111848212D01*
X74234525Y-111848211D01*
X74149100Y-111838586D01*
X74063674Y-111848211D01*
X74063669Y-111848212D01*
X73982524Y-111876605D01*
X73909736Y-111922342D01*
X73909734Y-111922343D01*
X73848943Y-111983134D01*
X73848942Y-111983136D01*
X73803205Y-112055924D01*
X73774812Y-112137069D01*
X73774811Y-112137074D01*
X73764793Y-112225988D01*
X73764124Y-112225912D01*
X73755264Y-112256088D01*
X73728649Y-112279150D01*
X73693791Y-112284162D01*
X73661757Y-112269532D01*
X73658492Y-112266492D01*
X73609200Y-112217200D01*
X72325500Y-112217200D01*
X72291710Y-112207278D01*
X72268648Y-112180663D01*
X72263000Y-112154700D01*
X72263000Y-111587500D01*
X73003186Y-111587500D01*
X73012811Y-111672925D01*
X73012812Y-111672930D01*
X73041205Y-111754075D01*
X73071050Y-111801571D01*
X73086944Y-111826866D01*
X73147734Y-111887656D01*
X73162135Y-111896705D01*
X73202935Y-111922342D01*
X73220526Y-111933395D01*
X73301671Y-111961788D01*
X73387100Y-111971414D01*
X73472529Y-111961788D01*
X73553674Y-111933395D01*
X73626466Y-111887656D01*
X73687256Y-111826866D01*
X73732995Y-111754074D01*
X73761388Y-111672929D01*
X73771014Y-111587500D01*
X73761388Y-111502071D01*
X73732995Y-111420926D01*
X73725918Y-111409664D01*
X73708051Y-111381228D01*
X73687256Y-111348134D01*
X73626466Y-111287344D01*
X73626465Y-111287343D01*
X73626463Y-111287342D01*
X73553675Y-111241605D01*
X73472530Y-111213212D01*
X73472525Y-111213211D01*
X73387100Y-111203586D01*
X73301674Y-111213211D01*
X73301669Y-111213212D01*
X73220524Y-111241605D01*
X73147736Y-111287342D01*
X73147734Y-111287343D01*
X73086943Y-111348134D01*
X73086942Y-111348136D01*
X73041205Y-111420924D01*
X73012812Y-111502069D01*
X73012811Y-111502074D01*
X73003186Y-111587500D01*
X72263000Y-111587500D01*
X72263000Y-110952500D01*
X73765186Y-110952500D01*
X73774811Y-111037925D01*
X73774812Y-111037930D01*
X73803205Y-111119075D01*
X73843721Y-111183554D01*
X73848944Y-111191866D01*
X73909734Y-111252656D01*
X73931938Y-111266608D01*
X73964935Y-111287342D01*
X73982526Y-111298395D01*
X74063671Y-111326788D01*
X74149100Y-111336414D01*
X74234529Y-111326788D01*
X74315674Y-111298395D01*
X74388466Y-111252656D01*
X74449256Y-111191866D01*
X74494995Y-111119074D01*
X74523388Y-111037929D01*
X74533014Y-110952500D01*
X74523388Y-110867071D01*
X74494995Y-110785926D01*
X74449256Y-110713134D01*
X74388466Y-110652344D01*
X74388465Y-110652343D01*
X74388463Y-110652342D01*
X74315675Y-110606605D01*
X74234530Y-110578212D01*
X74234525Y-110578211D01*
X74149100Y-110568586D01*
X74063674Y-110578211D01*
X74063669Y-110578212D01*
X73982524Y-110606605D01*
X73909736Y-110652342D01*
X73909734Y-110652343D01*
X73848943Y-110713134D01*
X73848942Y-110713136D01*
X73803205Y-110785924D01*
X73774812Y-110867069D01*
X73774811Y-110867074D01*
X73765186Y-110952500D01*
X72263000Y-110952500D01*
X72263000Y-110317500D01*
X73003186Y-110317500D01*
X73012811Y-110402925D01*
X73012812Y-110402930D01*
X73041205Y-110484075D01*
X73077123Y-110541236D01*
X73086944Y-110556866D01*
X73147734Y-110617656D01*
X73184130Y-110640525D01*
X73203909Y-110652954D01*
X73220526Y-110663395D01*
X73301671Y-110691788D01*
X73387100Y-110701414D01*
X73472529Y-110691788D01*
X73553674Y-110663395D01*
X73626466Y-110617656D01*
X73687256Y-110556866D01*
X73732995Y-110484074D01*
X73761388Y-110402929D01*
X73771014Y-110317500D01*
X73762403Y-110241080D01*
X78069066Y-110241080D01*
X78078691Y-110326505D01*
X78078692Y-110326510D01*
X78107085Y-110407655D01*
X78152822Y-110480443D01*
X78152823Y-110480445D01*
X78213614Y-110541236D01*
X78213616Y-110541237D01*
X78257140Y-110568586D01*
X78286406Y-110586975D01*
X78367551Y-110615368D01*
X78452980Y-110624994D01*
X78538409Y-110615368D01*
X78619554Y-110586975D01*
X78692346Y-110541236D01*
X78738986Y-110494596D01*
X78769895Y-110477718D01*
X78805022Y-110480231D01*
X78827374Y-110494596D01*
X78874014Y-110541236D01*
X78874016Y-110541237D01*
X78917540Y-110568586D01*
X78946806Y-110586975D01*
X79027951Y-110615368D01*
X79113380Y-110624994D01*
X79198809Y-110615368D01*
X79279954Y-110586975D01*
X79352746Y-110541236D01*
X79413536Y-110480446D01*
X79459275Y-110407654D01*
X79487668Y-110326509D01*
X79497294Y-110241080D01*
X79487668Y-110155651D01*
X79459275Y-110074506D01*
X79454190Y-110066414D01*
X79423357Y-110017344D01*
X79413536Y-110001714D01*
X79352746Y-109940924D01*
X79352745Y-109940923D01*
X79352743Y-109940922D01*
X79279955Y-109895185D01*
X79198810Y-109866792D01*
X79198805Y-109866791D01*
X79113380Y-109857166D01*
X79027954Y-109866791D01*
X79027949Y-109866792D01*
X78946804Y-109895185D01*
X78874016Y-109940922D01*
X78874014Y-109940923D01*
X78827374Y-109987564D01*
X78796465Y-110004442D01*
X78761338Y-110001929D01*
X78738986Y-109987564D01*
X78692345Y-109940923D01*
X78692343Y-109940922D01*
X78619555Y-109895185D01*
X78538410Y-109866792D01*
X78538405Y-109866791D01*
X78452980Y-109857166D01*
X78367554Y-109866791D01*
X78367549Y-109866792D01*
X78286404Y-109895185D01*
X78213616Y-109940922D01*
X78213614Y-109940923D01*
X78152823Y-110001714D01*
X78152822Y-110001716D01*
X78107085Y-110074504D01*
X78078692Y-110155649D01*
X78078691Y-110155654D01*
X78069066Y-110241080D01*
X73762403Y-110241080D01*
X73761388Y-110232071D01*
X73732995Y-110150926D01*
X73687256Y-110078134D01*
X73626466Y-110017344D01*
X73626465Y-110017343D01*
X73626463Y-110017342D01*
X73553675Y-109971605D01*
X73472530Y-109943212D01*
X73472525Y-109943211D01*
X73387100Y-109933586D01*
X73301674Y-109943211D01*
X73301669Y-109943212D01*
X73220524Y-109971605D01*
X73147736Y-110017342D01*
X73147734Y-110017343D01*
X73086943Y-110078134D01*
X73086942Y-110078136D01*
X73041205Y-110150924D01*
X73012812Y-110232069D01*
X73012811Y-110232074D01*
X73003186Y-110317500D01*
X72263000Y-110317500D01*
X72263000Y-109682500D01*
X73765186Y-109682500D01*
X73774811Y-109767925D01*
X73774812Y-109767930D01*
X73803205Y-109849075D01*
X73848942Y-109921863D01*
X73848943Y-109921865D01*
X73909734Y-109982656D01*
X73909736Y-109982657D01*
X73966033Y-110018032D01*
X73982526Y-110028395D01*
X74063671Y-110056788D01*
X74149100Y-110066414D01*
X74234529Y-110056788D01*
X74315674Y-110028395D01*
X74388466Y-109982656D01*
X74449256Y-109921866D01*
X74494995Y-109849074D01*
X74523388Y-109767929D01*
X74533014Y-109682500D01*
X74523388Y-109597071D01*
X74494995Y-109515926D01*
X74492913Y-109512613D01*
X74449844Y-109444070D01*
X74449256Y-109443134D01*
X74388466Y-109382344D01*
X74388465Y-109382343D01*
X74388463Y-109382342D01*
X74315675Y-109336605D01*
X74234530Y-109308212D01*
X74234525Y-109308211D01*
X74149100Y-109298586D01*
X74063674Y-109308211D01*
X74063669Y-109308212D01*
X73982524Y-109336605D01*
X73909736Y-109382342D01*
X73909734Y-109382343D01*
X73848943Y-109443134D01*
X73848942Y-109443136D01*
X73803205Y-109515924D01*
X73774812Y-109597069D01*
X73774811Y-109597074D01*
X73765186Y-109682500D01*
X72263000Y-109682500D01*
X72263000Y-109047500D01*
X73003186Y-109047500D01*
X73012811Y-109132925D01*
X73012812Y-109132930D01*
X73041205Y-109214075D01*
X73076640Y-109270468D01*
X73086944Y-109286866D01*
X73147734Y-109347656D01*
X73163031Y-109357268D01*
X73202935Y-109382342D01*
X73220526Y-109393395D01*
X73301671Y-109421788D01*
X73387100Y-109431414D01*
X73472529Y-109421788D01*
X73553674Y-109393395D01*
X73626466Y-109347656D01*
X73687256Y-109286866D01*
X73732995Y-109214074D01*
X73761388Y-109132929D01*
X73771014Y-109047500D01*
X73761388Y-108962071D01*
X73732995Y-108880926D01*
X73730913Y-108877613D01*
X73687257Y-108808136D01*
X73687256Y-108808134D01*
X73626465Y-108747343D01*
X73626463Y-108747342D01*
X73553675Y-108701605D01*
X73472530Y-108673212D01*
X73472525Y-108673211D01*
X73387100Y-108663586D01*
X73301674Y-108673211D01*
X73301669Y-108673212D01*
X73220524Y-108701605D01*
X73147736Y-108747342D01*
X73147734Y-108747343D01*
X73086943Y-108808134D01*
X73086942Y-108808136D01*
X73041205Y-108880924D01*
X73012812Y-108962069D01*
X73012811Y-108962074D01*
X73003186Y-109047500D01*
X72263000Y-109047500D01*
X72263000Y-108412500D01*
X73765186Y-108412500D01*
X73774811Y-108497925D01*
X73774812Y-108497930D01*
X73803205Y-108579075D01*
X73836264Y-108631686D01*
X73848944Y-108651866D01*
X73909734Y-108712656D01*
X73936442Y-108729438D01*
X73964935Y-108747342D01*
X73982526Y-108758395D01*
X74063671Y-108786788D01*
X74149100Y-108796414D01*
X74234529Y-108786788D01*
X74315674Y-108758395D01*
X74388466Y-108712656D01*
X74449256Y-108651866D01*
X74494995Y-108579074D01*
X74523388Y-108497929D01*
X74533014Y-108412500D01*
X74523388Y-108327071D01*
X74494995Y-108245926D01*
X74492913Y-108242613D01*
X74456908Y-108185312D01*
X74449256Y-108173134D01*
X74388466Y-108112344D01*
X74388465Y-108112343D01*
X74388463Y-108112342D01*
X74315675Y-108066605D01*
X74234530Y-108038212D01*
X74234525Y-108038211D01*
X74149100Y-108028586D01*
X74063674Y-108038211D01*
X74063669Y-108038212D01*
X73982524Y-108066605D01*
X73909736Y-108112342D01*
X73909734Y-108112343D01*
X73848943Y-108173134D01*
X73848942Y-108173136D01*
X73803205Y-108245924D01*
X73774812Y-108327069D01*
X73774811Y-108327074D01*
X73765186Y-108412500D01*
X72263000Y-108412500D01*
X72263000Y-107777500D01*
X73003186Y-107777500D01*
X73012811Y-107862925D01*
X73012812Y-107862930D01*
X73041205Y-107944075D01*
X73086942Y-108016863D01*
X73086943Y-108016865D01*
X73147734Y-108077656D01*
X73147736Y-108077657D01*
X73202935Y-108112342D01*
X73220526Y-108123395D01*
X73301671Y-108151788D01*
X73387100Y-108161414D01*
X73472529Y-108151788D01*
X73553674Y-108123395D01*
X73626466Y-108077656D01*
X73687256Y-108016866D01*
X73732995Y-107944074D01*
X73761388Y-107862929D01*
X73771014Y-107777500D01*
X73761388Y-107692071D01*
X73732995Y-107610926D01*
X73730913Y-107607613D01*
X73687257Y-107538136D01*
X73687256Y-107538134D01*
X73626465Y-107477343D01*
X73626463Y-107477342D01*
X73553675Y-107431605D01*
X73472530Y-107403212D01*
X73472525Y-107403211D01*
X73387100Y-107393586D01*
X73301674Y-107403211D01*
X73301669Y-107403212D01*
X73220524Y-107431605D01*
X73147736Y-107477342D01*
X73147734Y-107477343D01*
X73086943Y-107538134D01*
X73086942Y-107538136D01*
X73041205Y-107610924D01*
X73012812Y-107692069D01*
X73012811Y-107692074D01*
X73003186Y-107777500D01*
X72263000Y-107777500D01*
X72263000Y-106507500D01*
X73384186Y-106507500D01*
X73393811Y-106592925D01*
X73393812Y-106592930D01*
X73422205Y-106674075D01*
X73467942Y-106746863D01*
X73467943Y-106746865D01*
X73528734Y-106807656D01*
X73528736Y-106807657D01*
X73583935Y-106842342D01*
X73601526Y-106853395D01*
X73682671Y-106881788D01*
X73752471Y-106889652D01*
X73784936Y-106903294D01*
X73804873Y-106932324D01*
X73805951Y-106967524D01*
X73804125Y-106972529D01*
X73804364Y-106972613D01*
X73774812Y-107057069D01*
X73774811Y-107057074D01*
X73765186Y-107142500D01*
X73774811Y-107227925D01*
X73774812Y-107227930D01*
X73803205Y-107309075D01*
X73848942Y-107381863D01*
X73848943Y-107381865D01*
X73909734Y-107442656D01*
X73909736Y-107442657D01*
X73964935Y-107477342D01*
X73982526Y-107488395D01*
X74063671Y-107516788D01*
X74149100Y-107526414D01*
X74234529Y-107516788D01*
X74315674Y-107488395D01*
X74388466Y-107442656D01*
X74449256Y-107381866D01*
X74494995Y-107309074D01*
X74523388Y-107227929D01*
X74533014Y-107142500D01*
X74523388Y-107057071D01*
X74494995Y-106975926D01*
X74492913Y-106972613D01*
X74467598Y-106932324D01*
X74449256Y-106903134D01*
X74388466Y-106842344D01*
X74388465Y-106842343D01*
X74388463Y-106842342D01*
X74315675Y-106796605D01*
X74234530Y-106768212D01*
X74234525Y-106768211D01*
X74164729Y-106760347D01*
X74132262Y-106746704D01*
X74112325Y-106717674D01*
X74111248Y-106682474D01*
X74113087Y-106677475D01*
X74112836Y-106677387D01*
X74132926Y-106619971D01*
X74142388Y-106592929D01*
X74152014Y-106507500D01*
X76228986Y-106507500D01*
X76238611Y-106592925D01*
X76238612Y-106592930D01*
X76267005Y-106674075D01*
X76312742Y-106746863D01*
X76312743Y-106746865D01*
X76373534Y-106807656D01*
X76373536Y-106807657D01*
X76428735Y-106842342D01*
X76446326Y-106853395D01*
X76527471Y-106881788D01*
X76597271Y-106889652D01*
X76629736Y-106903294D01*
X76649673Y-106932324D01*
X76650751Y-106967524D01*
X76648925Y-106972529D01*
X76649164Y-106972613D01*
X76619612Y-107057069D01*
X76619611Y-107057074D01*
X76609986Y-107142500D01*
X76619611Y-107227925D01*
X76619612Y-107227930D01*
X76649164Y-107312387D01*
X76647722Y-107312891D01*
X76652286Y-107341017D01*
X76638237Y-107373310D01*
X76608959Y-107392881D01*
X76597270Y-107395347D01*
X76527474Y-107403211D01*
X76527469Y-107403212D01*
X76446324Y-107431605D01*
X76373536Y-107477342D01*
X76373534Y-107477343D01*
X76312743Y-107538134D01*
X76312742Y-107538136D01*
X76267005Y-107610924D01*
X76238612Y-107692069D01*
X76238611Y-107692074D01*
X76228986Y-107777500D01*
X76238611Y-107862925D01*
X76238612Y-107862930D01*
X76267005Y-107944075D01*
X76312742Y-108016863D01*
X76312743Y-108016865D01*
X76373534Y-108077656D01*
X76373536Y-108077657D01*
X76428735Y-108112342D01*
X76446326Y-108123395D01*
X76527471Y-108151788D01*
X76597271Y-108159652D01*
X76629736Y-108173294D01*
X76649673Y-108202324D01*
X76650751Y-108237524D01*
X76648925Y-108242529D01*
X76649164Y-108242613D01*
X76619612Y-108327069D01*
X76619611Y-108327074D01*
X76609986Y-108412500D01*
X76619611Y-108497925D01*
X76619612Y-108497930D01*
X76649164Y-108582387D01*
X76647722Y-108582891D01*
X76652286Y-108611017D01*
X76638237Y-108643310D01*
X76608959Y-108662881D01*
X76597270Y-108665347D01*
X76527474Y-108673211D01*
X76527469Y-108673212D01*
X76446324Y-108701605D01*
X76373536Y-108747342D01*
X76373534Y-108747343D01*
X76312743Y-108808134D01*
X76312742Y-108808136D01*
X76267005Y-108880924D01*
X76238612Y-108962069D01*
X76238611Y-108962074D01*
X76228986Y-109047500D01*
X76238611Y-109132925D01*
X76238612Y-109132930D01*
X76267005Y-109214075D01*
X76302440Y-109270468D01*
X76312744Y-109286866D01*
X76373534Y-109347656D01*
X76388831Y-109357268D01*
X76428735Y-109382342D01*
X76446326Y-109393395D01*
X76527471Y-109421788D01*
X76597271Y-109429652D01*
X76629736Y-109443294D01*
X76649673Y-109472324D01*
X76650751Y-109507524D01*
X76648925Y-109512529D01*
X76649164Y-109512613D01*
X76619612Y-109597069D01*
X76619611Y-109597074D01*
X76609986Y-109682500D01*
X76619611Y-109767925D01*
X76619612Y-109767930D01*
X76648005Y-109849075D01*
X76693742Y-109921863D01*
X76693743Y-109921865D01*
X76754534Y-109982656D01*
X76754536Y-109982657D01*
X76810833Y-110018032D01*
X76827326Y-110028395D01*
X76908471Y-110056788D01*
X76993900Y-110066414D01*
X77079329Y-110056788D01*
X77160474Y-110028395D01*
X77233266Y-109982656D01*
X77294056Y-109921866D01*
X77339795Y-109849074D01*
X77368188Y-109767929D01*
X77377814Y-109682500D01*
X77368188Y-109597071D01*
X77339795Y-109515926D01*
X77337713Y-109512613D01*
X77294644Y-109444070D01*
X77294056Y-109443134D01*
X77233266Y-109382344D01*
X77233265Y-109382343D01*
X77233263Y-109382342D01*
X77160475Y-109336605D01*
X77079330Y-109308212D01*
X77079325Y-109308211D01*
X77009529Y-109300347D01*
X76977062Y-109286704D01*
X76957125Y-109257674D01*
X76956048Y-109222474D01*
X76957887Y-109217475D01*
X76957636Y-109217387D01*
X76967759Y-109188455D01*
X76987188Y-109132929D01*
X76996814Y-109047500D01*
X76993927Y-109021880D01*
X79085066Y-109021880D01*
X79094691Y-109107305D01*
X79094692Y-109107310D01*
X79123085Y-109188455D01*
X79167110Y-109258518D01*
X79168824Y-109261246D01*
X79229614Y-109322036D01*
X79302406Y-109367775D01*
X79383551Y-109396168D01*
X79468980Y-109405794D01*
X79554409Y-109396168D01*
X79635554Y-109367775D01*
X79708346Y-109322036D01*
X79754986Y-109275396D01*
X79785895Y-109258518D01*
X79821022Y-109261031D01*
X79843374Y-109275396D01*
X79890014Y-109322036D01*
X79962806Y-109367775D01*
X80043951Y-109396168D01*
X80129380Y-109405794D01*
X80214809Y-109396168D01*
X80295954Y-109367775D01*
X80368746Y-109322036D01*
X80429536Y-109261246D01*
X80475275Y-109188454D01*
X80503668Y-109107309D01*
X80513294Y-109021880D01*
X80503668Y-108936451D01*
X80475275Y-108855306D01*
X80429536Y-108782514D01*
X80368746Y-108721724D01*
X80368745Y-108721723D01*
X80368743Y-108721722D01*
X80295955Y-108675985D01*
X80214810Y-108647592D01*
X80214805Y-108647591D01*
X80129380Y-108637966D01*
X80043954Y-108647591D01*
X80043949Y-108647592D01*
X79962804Y-108675985D01*
X79890016Y-108721722D01*
X79890014Y-108721723D01*
X79843374Y-108768364D01*
X79812465Y-108785242D01*
X79777338Y-108782729D01*
X79754986Y-108768364D01*
X79708345Y-108721723D01*
X79708343Y-108721722D01*
X79635555Y-108675985D01*
X79554410Y-108647592D01*
X79554405Y-108647591D01*
X79468980Y-108637966D01*
X79383554Y-108647591D01*
X79383549Y-108647592D01*
X79302404Y-108675985D01*
X79229616Y-108721722D01*
X79229614Y-108721723D01*
X79168823Y-108782514D01*
X79168822Y-108782516D01*
X79123085Y-108855304D01*
X79094692Y-108936449D01*
X79094691Y-108936454D01*
X79085066Y-109021880D01*
X76993927Y-109021880D01*
X76987188Y-108962071D01*
X76958795Y-108880926D01*
X76957636Y-108877613D01*
X76959097Y-108877101D01*
X76954497Y-108849106D01*
X76968482Y-108816785D01*
X76997721Y-108797156D01*
X77009521Y-108794653D01*
X77079329Y-108786788D01*
X77160474Y-108758395D01*
X77233266Y-108712656D01*
X77294056Y-108651866D01*
X77339795Y-108579074D01*
X77368188Y-108497929D01*
X77377814Y-108412500D01*
X77368188Y-108327071D01*
X77339795Y-108245926D01*
X77337713Y-108242613D01*
X77301708Y-108185312D01*
X77294056Y-108173134D01*
X77233266Y-108112344D01*
X77233265Y-108112343D01*
X77233263Y-108112342D01*
X77160475Y-108066605D01*
X77079330Y-108038212D01*
X77079325Y-108038211D01*
X77009529Y-108030347D01*
X76977062Y-108016704D01*
X76957125Y-107987674D01*
X76956048Y-107952474D01*
X76957887Y-107947475D01*
X76957636Y-107947387D01*
X76981759Y-107878444D01*
X76987188Y-107862929D01*
X76996814Y-107777500D01*
X76987188Y-107692071D01*
X76970567Y-107644571D01*
X76957636Y-107607613D01*
X76959097Y-107607101D01*
X76954497Y-107579106D01*
X76968482Y-107546785D01*
X76997721Y-107527156D01*
X77009521Y-107524653D01*
X77079329Y-107516788D01*
X77160474Y-107488395D01*
X77233266Y-107442656D01*
X77294056Y-107381866D01*
X77339795Y-107309074D01*
X77368188Y-107227929D01*
X77377814Y-107142500D01*
X77368188Y-107057071D01*
X77339795Y-106975926D01*
X77337713Y-106972613D01*
X77312398Y-106932324D01*
X77294056Y-106903134D01*
X77233266Y-106842344D01*
X77233265Y-106842343D01*
X77233263Y-106842342D01*
X77160475Y-106796605D01*
X77079330Y-106768212D01*
X77079325Y-106768211D01*
X77009529Y-106760347D01*
X76977062Y-106746704D01*
X76957125Y-106717674D01*
X76956048Y-106682474D01*
X76957887Y-106677475D01*
X76957636Y-106677387D01*
X76977726Y-106619971D01*
X76987188Y-106592929D01*
X76996814Y-106507500D01*
X76987188Y-106422071D01*
X76958795Y-106340926D01*
X76952628Y-106331112D01*
X76932408Y-106298932D01*
X76913056Y-106268134D01*
X76852266Y-106207344D01*
X76852265Y-106207343D01*
X76852263Y-106207342D01*
X76779475Y-106161605D01*
X76698330Y-106133212D01*
X76698325Y-106133211D01*
X76612900Y-106123586D01*
X76527474Y-106133211D01*
X76527469Y-106133212D01*
X76446324Y-106161605D01*
X76373536Y-106207342D01*
X76373534Y-106207343D01*
X76312743Y-106268134D01*
X76312742Y-106268136D01*
X76267005Y-106340924D01*
X76238612Y-106422069D01*
X76238611Y-106422074D01*
X76228986Y-106507500D01*
X74152014Y-106507500D01*
X74142388Y-106422071D01*
X74113995Y-106340926D01*
X74107828Y-106331112D01*
X74087608Y-106298932D01*
X74068256Y-106268134D01*
X74007466Y-106207344D01*
X74007465Y-106207343D01*
X74007463Y-106207342D01*
X73934675Y-106161605D01*
X73853530Y-106133212D01*
X73853525Y-106133211D01*
X73768100Y-106123586D01*
X73682674Y-106133211D01*
X73682669Y-106133212D01*
X73601524Y-106161605D01*
X73528736Y-106207342D01*
X73528734Y-106207343D01*
X73467943Y-106268134D01*
X73467942Y-106268136D01*
X73422205Y-106340924D01*
X73393812Y-106422069D01*
X73393811Y-106422074D01*
X73384186Y-106507500D01*
X72263000Y-106507500D01*
X72263000Y-100680080D01*
X93938766Y-100680080D01*
X93948391Y-100765505D01*
X93948392Y-100765510D01*
X93976785Y-100846655D01*
X94022522Y-100919443D01*
X94022524Y-100919446D01*
X94083314Y-100980236D01*
X94156106Y-101025975D01*
X94237251Y-101054368D01*
X94322680Y-101063994D01*
X94408109Y-101054368D01*
X94489254Y-101025975D01*
X94562046Y-100980236D01*
X94622836Y-100919446D01*
X94668575Y-100846654D01*
X94696968Y-100765509D01*
X94706594Y-100680080D01*
X94696968Y-100594651D01*
X94668575Y-100513506D01*
X94622836Y-100440714D01*
X94562046Y-100379924D01*
X94562045Y-100379923D01*
X94562043Y-100379922D01*
X94489255Y-100334185D01*
X94408110Y-100305792D01*
X94408105Y-100305791D01*
X94322680Y-100296166D01*
X94237254Y-100305791D01*
X94237249Y-100305792D01*
X94156104Y-100334185D01*
X94083316Y-100379922D01*
X94083314Y-100379923D01*
X94022523Y-100440714D01*
X94022522Y-100440716D01*
X93976785Y-100513504D01*
X93948392Y-100594649D01*
X93948391Y-100594654D01*
X93938766Y-100680080D01*
X72263000Y-100680080D01*
X72263000Y-99974888D01*
X72272922Y-99941098D01*
X72281306Y-99930694D01*
X72293920Y-99918080D01*
X94573766Y-99918080D01*
X94583391Y-100003505D01*
X94583392Y-100003510D01*
X94611785Y-100084655D01*
X94657522Y-100157443D01*
X94657524Y-100157446D01*
X94718314Y-100218236D01*
X94791106Y-100263975D01*
X94872251Y-100292368D01*
X94957680Y-100301994D01*
X95043109Y-100292368D01*
X95124254Y-100263975D01*
X95197046Y-100218236D01*
X95257836Y-100157446D01*
X95303575Y-100084654D01*
X95331968Y-100003509D01*
X95341594Y-99918080D01*
X95331968Y-99832651D01*
X95303575Y-99751506D01*
X95257836Y-99678714D01*
X95197046Y-99617924D01*
X95197045Y-99617923D01*
X95197043Y-99617922D01*
X95124255Y-99572185D01*
X95043110Y-99543792D01*
X95043105Y-99543791D01*
X94983543Y-99537080D01*
X96478766Y-99537080D01*
X96488391Y-99622505D01*
X96488392Y-99622510D01*
X96516785Y-99703655D01*
X96546853Y-99751506D01*
X96562524Y-99776446D01*
X96623314Y-99837236D01*
X96696106Y-99882975D01*
X96777251Y-99911368D01*
X96862680Y-99920994D01*
X96948109Y-99911368D01*
X97029254Y-99882975D01*
X97102046Y-99837236D01*
X97162836Y-99776446D01*
X97208575Y-99703654D01*
X97236968Y-99622509D01*
X97246594Y-99537080D01*
X97236968Y-99451651D01*
X97208575Y-99370506D01*
X97162836Y-99297714D01*
X97102046Y-99236924D01*
X97102045Y-99236923D01*
X97102043Y-99236922D01*
X97029255Y-99191185D01*
X96948110Y-99162792D01*
X96948105Y-99162791D01*
X96862680Y-99153166D01*
X96777254Y-99162791D01*
X96777249Y-99162792D01*
X96696104Y-99191185D01*
X96623316Y-99236922D01*
X96623314Y-99236923D01*
X96562523Y-99297714D01*
X96562522Y-99297716D01*
X96516785Y-99370504D01*
X96488392Y-99451649D01*
X96488391Y-99451654D01*
X96478766Y-99537080D01*
X94983543Y-99537080D01*
X94957680Y-99534166D01*
X94872254Y-99543791D01*
X94872249Y-99543792D01*
X94791104Y-99572185D01*
X94718316Y-99617922D01*
X94718314Y-99617923D01*
X94657523Y-99678714D01*
X94657522Y-99678716D01*
X94611785Y-99751504D01*
X94583392Y-99832649D01*
X94583391Y-99832654D01*
X94573766Y-99918080D01*
X72293920Y-99918080D01*
X73436920Y-98775080D01*
X97113766Y-98775080D01*
X97123391Y-98860505D01*
X97123392Y-98860510D01*
X97151785Y-98941655D01*
X97197522Y-99014443D01*
X97197524Y-99014446D01*
X97258314Y-99075236D01*
X97331106Y-99120975D01*
X97412251Y-99149368D01*
X97497680Y-99158994D01*
X97583109Y-99149368D01*
X97664254Y-99120975D01*
X97737046Y-99075236D01*
X97797836Y-99014446D01*
X97843575Y-98941654D01*
X97871968Y-98860509D01*
X97881594Y-98775080D01*
X97871968Y-98689651D01*
X97843575Y-98608506D01*
X97797836Y-98535714D01*
X97737046Y-98474924D01*
X97737045Y-98474923D01*
X97737043Y-98474922D01*
X97664255Y-98429185D01*
X97583110Y-98400792D01*
X97583105Y-98400791D01*
X97497680Y-98391166D01*
X97412254Y-98400791D01*
X97412249Y-98400792D01*
X97331104Y-98429185D01*
X97258316Y-98474922D01*
X97258314Y-98474923D01*
X97197523Y-98535714D01*
X97197522Y-98535716D01*
X97151785Y-98608504D01*
X97123392Y-98689649D01*
X97123391Y-98689654D01*
X97113766Y-98775080D01*
X73436920Y-98775080D01*
X74579520Y-97632480D01*
X83445366Y-97632480D01*
X83454991Y-97717905D01*
X83454992Y-97717910D01*
X83483385Y-97799055D01*
X83511447Y-97843714D01*
X83529124Y-97871846D01*
X83589914Y-97932636D01*
X83662706Y-97978375D01*
X83743851Y-98006768D01*
X83829280Y-98016394D01*
X83914709Y-98006768D01*
X83995854Y-97978375D01*
X84068646Y-97932636D01*
X84129436Y-97871846D01*
X84175175Y-97799054D01*
X84203568Y-97717909D01*
X84213194Y-97632480D01*
X84715366Y-97632480D01*
X84724991Y-97717905D01*
X84724992Y-97717910D01*
X84753385Y-97799055D01*
X84781447Y-97843714D01*
X84799124Y-97871846D01*
X84859914Y-97932636D01*
X84932706Y-97978375D01*
X85013851Y-98006768D01*
X85099280Y-98016394D01*
X85184709Y-98006768D01*
X85265854Y-97978375D01*
X85338646Y-97932636D01*
X85399436Y-97871846D01*
X85445175Y-97799054D01*
X85473568Y-97717909D01*
X85483194Y-97632480D01*
X85473568Y-97547051D01*
X85445175Y-97465906D01*
X85399436Y-97393114D01*
X85338646Y-97332324D01*
X85338645Y-97332323D01*
X85338643Y-97332322D01*
X85265855Y-97286585D01*
X85184710Y-97258192D01*
X85184705Y-97258191D01*
X85099280Y-97248566D01*
X85013854Y-97258191D01*
X85013849Y-97258192D01*
X84932704Y-97286585D01*
X84859916Y-97332322D01*
X84859914Y-97332323D01*
X84799123Y-97393114D01*
X84799122Y-97393116D01*
X84753385Y-97465904D01*
X84724992Y-97547049D01*
X84724991Y-97547054D01*
X84715366Y-97632480D01*
X84213194Y-97632480D01*
X84203568Y-97547051D01*
X84175175Y-97465906D01*
X84129436Y-97393114D01*
X84068646Y-97332324D01*
X84068645Y-97332323D01*
X84068643Y-97332322D01*
X83995855Y-97286585D01*
X83914710Y-97258192D01*
X83914705Y-97258191D01*
X83829280Y-97248566D01*
X83743854Y-97258191D01*
X83743849Y-97258192D01*
X83662704Y-97286585D01*
X83589916Y-97332322D01*
X83589914Y-97332323D01*
X83529123Y-97393114D01*
X83529122Y-97393116D01*
X83483385Y-97465904D01*
X83454992Y-97547049D01*
X83454991Y-97547054D01*
X83445366Y-97632480D01*
X74579520Y-97632480D01*
X75341520Y-96870480D01*
X84080366Y-96870480D01*
X84089991Y-96955905D01*
X84089992Y-96955910D01*
X84118385Y-97037055D01*
X84164122Y-97109843D01*
X84164123Y-97109845D01*
X84224914Y-97170636D01*
X84224916Y-97170637D01*
X84297067Y-97215974D01*
X84297706Y-97216375D01*
X84378851Y-97244768D01*
X84464280Y-97254394D01*
X84549709Y-97244768D01*
X84630854Y-97216375D01*
X84703646Y-97170636D01*
X84764436Y-97109846D01*
X84810175Y-97037054D01*
X84838568Y-96955909D01*
X84848194Y-96870480D01*
X85350366Y-96870480D01*
X85359991Y-96955905D01*
X85359992Y-96955910D01*
X85388385Y-97037055D01*
X85434122Y-97109843D01*
X85434123Y-97109845D01*
X85494914Y-97170636D01*
X85494916Y-97170637D01*
X85567067Y-97215974D01*
X85567706Y-97216375D01*
X85648851Y-97244768D01*
X85734280Y-97254394D01*
X85819709Y-97244768D01*
X85889254Y-97220434D01*
X85904167Y-97215216D01*
X85904684Y-97216695D01*
X85932558Y-97212063D01*
X85964905Y-97225988D01*
X85984589Y-97255190D01*
X85987127Y-97267109D01*
X85994991Y-97336905D01*
X85994992Y-97336910D01*
X86023385Y-97418055D01*
X86069122Y-97490843D01*
X86069123Y-97490845D01*
X86129914Y-97551636D01*
X86129916Y-97551637D01*
X86202067Y-97596974D01*
X86202706Y-97597375D01*
X86283851Y-97625768D01*
X86369280Y-97635394D01*
X86454709Y-97625768D01*
X86535854Y-97597375D01*
X86608646Y-97551636D01*
X86669436Y-97490846D01*
X86715175Y-97418054D01*
X86743568Y-97336909D01*
X86753194Y-97251480D01*
X86753149Y-97251080D01*
X95208766Y-97251080D01*
X95218391Y-97336505D01*
X95218392Y-97336510D01*
X95246785Y-97417655D01*
X95277103Y-97465904D01*
X95292524Y-97490446D01*
X95353314Y-97551236D01*
X95426106Y-97596975D01*
X95507251Y-97625368D01*
X95592680Y-97634994D01*
X95678109Y-97625368D01*
X95759254Y-97596975D01*
X95832046Y-97551236D01*
X95892836Y-97490446D01*
X95938575Y-97417654D01*
X95966968Y-97336509D01*
X95974833Y-97266707D01*
X95988474Y-97234243D01*
X96017504Y-97214306D01*
X96052704Y-97213228D01*
X96057706Y-97215063D01*
X96057793Y-97214816D01*
X96073849Y-97220434D01*
X96142251Y-97244368D01*
X96227680Y-97253994D01*
X96313109Y-97244368D01*
X96394254Y-97215975D01*
X96467046Y-97170236D01*
X96527836Y-97109446D01*
X96573575Y-97036654D01*
X96601968Y-96955509D01*
X96611594Y-96870080D01*
X96601968Y-96784651D01*
X96573575Y-96703506D01*
X96527836Y-96630714D01*
X96467046Y-96569924D01*
X96467045Y-96569923D01*
X96467043Y-96569922D01*
X96394255Y-96524185D01*
X96313110Y-96495792D01*
X96313105Y-96495791D01*
X96227680Y-96486166D01*
X96142254Y-96495791D01*
X96142249Y-96495792D01*
X96061104Y-96524185D01*
X95988316Y-96569922D01*
X95988314Y-96569923D01*
X95927523Y-96630714D01*
X95927522Y-96630716D01*
X95881785Y-96703504D01*
X95853392Y-96784649D01*
X95853391Y-96784654D01*
X95845527Y-96854450D01*
X95831884Y-96886917D01*
X95802854Y-96906854D01*
X95767654Y-96907931D01*
X95762652Y-96906100D01*
X95762567Y-96906344D01*
X95678110Y-96876792D01*
X95678105Y-96876791D01*
X95592680Y-96867166D01*
X95507254Y-96876791D01*
X95507249Y-96876792D01*
X95426104Y-96905185D01*
X95353316Y-96950922D01*
X95353314Y-96950923D01*
X95292523Y-97011714D01*
X95292522Y-97011716D01*
X95246785Y-97084504D01*
X95218392Y-97165649D01*
X95218391Y-97165654D01*
X95208766Y-97251080D01*
X86753149Y-97251080D01*
X86743568Y-97166051D01*
X86715175Y-97084906D01*
X86714922Y-97084504D01*
X86669437Y-97012116D01*
X86669436Y-97012114D01*
X86608645Y-96951323D01*
X86608643Y-96951322D01*
X86535855Y-96905585D01*
X86454710Y-96877192D01*
X86454705Y-96877191D01*
X86369280Y-96867566D01*
X86283854Y-96877191D01*
X86283849Y-96877192D01*
X86199393Y-96906744D01*
X86198895Y-96905322D01*
X86170648Y-96909852D01*
X86138381Y-96895743D01*
X86118864Y-96866430D01*
X86116433Y-96854856D01*
X86108568Y-96785051D01*
X86080175Y-96703906D01*
X86079922Y-96703504D01*
X86034437Y-96631116D01*
X86034436Y-96631114D01*
X85973645Y-96570323D01*
X85973643Y-96570322D01*
X85900855Y-96524585D01*
X85819710Y-96496192D01*
X85819705Y-96496191D01*
X85734280Y-96486566D01*
X85648854Y-96496191D01*
X85648849Y-96496192D01*
X85567704Y-96524585D01*
X85494916Y-96570322D01*
X85494914Y-96570323D01*
X85434123Y-96631114D01*
X85434122Y-96631116D01*
X85388385Y-96703904D01*
X85359992Y-96785049D01*
X85359991Y-96785054D01*
X85350366Y-96870480D01*
X84848194Y-96870480D01*
X84838568Y-96785051D01*
X84810175Y-96703906D01*
X84809922Y-96703504D01*
X84764437Y-96631116D01*
X84764436Y-96631114D01*
X84703645Y-96570323D01*
X84703643Y-96570322D01*
X84630855Y-96524585D01*
X84549710Y-96496192D01*
X84549705Y-96496191D01*
X84464280Y-96486566D01*
X84378854Y-96496191D01*
X84378849Y-96496192D01*
X84297704Y-96524585D01*
X84224916Y-96570322D01*
X84224914Y-96570323D01*
X84164123Y-96631114D01*
X84164122Y-96631116D01*
X84118385Y-96703904D01*
X84089992Y-96785049D01*
X84089991Y-96785054D01*
X84080366Y-96870480D01*
X75341520Y-96870480D01*
X78135520Y-94076480D01*
X83445366Y-94076480D01*
X83454991Y-94161905D01*
X83454992Y-94161910D01*
X83483385Y-94243055D01*
X83529122Y-94315843D01*
X83529123Y-94315845D01*
X83589914Y-94376636D01*
X83589916Y-94376637D01*
X83662067Y-94421974D01*
X83662706Y-94422375D01*
X83743851Y-94450768D01*
X83829280Y-94460394D01*
X83914709Y-94450768D01*
X83995854Y-94422375D01*
X84068646Y-94376636D01*
X84129436Y-94315846D01*
X84175175Y-94243054D01*
X84203568Y-94161909D01*
X84213194Y-94076480D01*
X84715366Y-94076480D01*
X84724991Y-94161905D01*
X84724992Y-94161910D01*
X84753385Y-94243055D01*
X84799122Y-94315843D01*
X84799123Y-94315845D01*
X84859914Y-94376636D01*
X84859916Y-94376637D01*
X84932067Y-94421974D01*
X84932706Y-94422375D01*
X85013851Y-94450768D01*
X85099280Y-94460394D01*
X85184709Y-94450768D01*
X85265854Y-94422375D01*
X85338646Y-94376636D01*
X85399436Y-94315846D01*
X85445175Y-94243054D01*
X85473568Y-94161909D01*
X85483194Y-94076480D01*
X85985366Y-94076480D01*
X85994991Y-94161905D01*
X85994992Y-94161910D01*
X86023385Y-94243055D01*
X86069122Y-94315843D01*
X86069123Y-94315845D01*
X86129914Y-94376636D01*
X86129916Y-94376637D01*
X86202067Y-94421974D01*
X86202706Y-94422375D01*
X86283851Y-94450768D01*
X86369280Y-94460394D01*
X86454709Y-94450768D01*
X86535854Y-94422375D01*
X86608646Y-94376636D01*
X86669436Y-94315846D01*
X86715175Y-94243054D01*
X86743568Y-94161909D01*
X86753194Y-94076480D01*
X86753149Y-94076080D01*
X93938766Y-94076080D01*
X93948391Y-94161505D01*
X93948392Y-94161510D01*
X93976785Y-94242655D01*
X94012233Y-94299068D01*
X94022524Y-94315446D01*
X94083314Y-94376236D01*
X94156106Y-94421975D01*
X94237251Y-94450368D01*
X94322680Y-94459994D01*
X94408109Y-94450368D01*
X94489254Y-94421975D01*
X94562046Y-94376236D01*
X94622836Y-94315446D01*
X94668575Y-94242654D01*
X94696968Y-94161509D01*
X94706594Y-94076080D01*
X95208766Y-94076080D01*
X95218391Y-94161505D01*
X95218392Y-94161510D01*
X95246785Y-94242655D01*
X95282233Y-94299068D01*
X95292524Y-94315446D01*
X95353314Y-94376236D01*
X95426106Y-94421975D01*
X95507251Y-94450368D01*
X95592680Y-94459994D01*
X95678109Y-94450368D01*
X95759254Y-94421975D01*
X95832046Y-94376236D01*
X95892836Y-94315446D01*
X95938575Y-94242654D01*
X95966968Y-94161509D01*
X95976594Y-94076080D01*
X95966968Y-93990651D01*
X95938575Y-93909506D01*
X95892836Y-93836714D01*
X95832046Y-93775924D01*
X95832045Y-93775923D01*
X95832043Y-93775922D01*
X95759255Y-93730185D01*
X95678110Y-93701792D01*
X95678105Y-93701791D01*
X95592680Y-93692166D01*
X95507254Y-93701791D01*
X95507249Y-93701792D01*
X95426104Y-93730185D01*
X95353316Y-93775922D01*
X95353314Y-93775923D01*
X95292523Y-93836714D01*
X95292522Y-93836716D01*
X95246785Y-93909504D01*
X95218392Y-93990649D01*
X95218391Y-93990654D01*
X95208766Y-94076080D01*
X94706594Y-94076080D01*
X94696968Y-93990651D01*
X94668575Y-93909506D01*
X94622836Y-93836714D01*
X94562046Y-93775924D01*
X94562045Y-93775923D01*
X94562043Y-93775922D01*
X94489255Y-93730185D01*
X94408110Y-93701792D01*
X94408105Y-93701791D01*
X94322680Y-93692166D01*
X94237254Y-93701791D01*
X94237249Y-93701792D01*
X94156104Y-93730185D01*
X94083316Y-93775922D01*
X94083314Y-93775923D01*
X94022523Y-93836714D01*
X94022522Y-93836716D01*
X93976785Y-93909504D01*
X93948392Y-93990649D01*
X93948391Y-93990654D01*
X93938766Y-94076080D01*
X86753149Y-94076080D01*
X86743568Y-93991051D01*
X86715175Y-93909906D01*
X86714922Y-93909504D01*
X86669437Y-93837116D01*
X86669436Y-93837114D01*
X86608645Y-93776323D01*
X86608643Y-93776322D01*
X86535855Y-93730585D01*
X86454710Y-93702192D01*
X86454705Y-93702191D01*
X86369280Y-93692566D01*
X86283854Y-93702191D01*
X86283849Y-93702192D01*
X86202704Y-93730585D01*
X86129916Y-93776322D01*
X86129914Y-93776323D01*
X86069123Y-93837114D01*
X86069122Y-93837116D01*
X86023385Y-93909904D01*
X85994992Y-93991049D01*
X85994991Y-93991054D01*
X85985366Y-94076480D01*
X85483194Y-94076480D01*
X85473568Y-93991051D01*
X85445175Y-93909906D01*
X85444922Y-93909504D01*
X85399437Y-93837116D01*
X85399436Y-93837114D01*
X85338645Y-93776323D01*
X85338643Y-93776322D01*
X85265855Y-93730585D01*
X85184710Y-93702192D01*
X85184705Y-93702191D01*
X85099280Y-93692566D01*
X85013854Y-93702191D01*
X85013849Y-93702192D01*
X84932704Y-93730585D01*
X84859916Y-93776322D01*
X84859914Y-93776323D01*
X84799123Y-93837114D01*
X84799122Y-93837116D01*
X84753385Y-93909904D01*
X84724992Y-93991049D01*
X84724991Y-93991054D01*
X84715366Y-94076480D01*
X84213194Y-94076480D01*
X84203568Y-93991051D01*
X84175175Y-93909906D01*
X84174922Y-93909504D01*
X84129437Y-93837116D01*
X84129436Y-93837114D01*
X84068645Y-93776323D01*
X84068643Y-93776322D01*
X83995855Y-93730585D01*
X83914710Y-93702192D01*
X83914705Y-93702191D01*
X83829280Y-93692566D01*
X83743854Y-93702191D01*
X83743849Y-93702192D01*
X83662704Y-93730585D01*
X83589916Y-93776322D01*
X83589914Y-93776323D01*
X83529123Y-93837114D01*
X83529122Y-93837116D01*
X83483385Y-93909904D01*
X83454992Y-93991049D01*
X83454991Y-93991054D01*
X83445366Y-94076480D01*
X78135520Y-94076480D01*
X78897520Y-93314480D01*
X84080366Y-93314480D01*
X84089991Y-93399905D01*
X84089992Y-93399910D01*
X84118385Y-93481055D01*
X84121602Y-93486174D01*
X84164124Y-93553846D01*
X84224914Y-93614636D01*
X84238187Y-93622976D01*
X84297067Y-93659974D01*
X84297706Y-93660375D01*
X84378851Y-93688768D01*
X84464280Y-93698394D01*
X84549709Y-93688768D01*
X84630854Y-93660375D01*
X84703646Y-93614636D01*
X84764436Y-93553846D01*
X84810175Y-93481054D01*
X84838568Y-93399909D01*
X84848194Y-93314480D01*
X84848149Y-93314080D01*
X94573766Y-93314080D01*
X94583391Y-93399505D01*
X94583392Y-93399510D01*
X94611785Y-93480655D01*
X94657522Y-93553443D01*
X94657524Y-93553446D01*
X94718314Y-93614236D01*
X94791106Y-93659975D01*
X94872251Y-93688368D01*
X94957680Y-93697994D01*
X95043109Y-93688368D01*
X95124254Y-93659975D01*
X95197046Y-93614236D01*
X95257836Y-93553446D01*
X95303575Y-93480654D01*
X95331968Y-93399509D01*
X95341594Y-93314080D01*
X95843766Y-93314080D01*
X95853391Y-93399505D01*
X95853392Y-93399510D01*
X95881785Y-93480655D01*
X95927522Y-93553443D01*
X95927524Y-93553446D01*
X95988314Y-93614236D01*
X96061106Y-93659975D01*
X96142251Y-93688368D01*
X96227680Y-93697994D01*
X96313109Y-93688368D01*
X96394254Y-93659975D01*
X96467046Y-93614236D01*
X96527836Y-93553446D01*
X96573575Y-93480654D01*
X96601968Y-93399509D01*
X96611594Y-93314080D01*
X96601968Y-93228651D01*
X96573575Y-93147506D01*
X96527836Y-93074714D01*
X96467046Y-93013924D01*
X96467045Y-93013923D01*
X96467043Y-93013922D01*
X96394255Y-92968185D01*
X96313110Y-92939792D01*
X96313105Y-92939791D01*
X96227680Y-92930166D01*
X96142254Y-92939791D01*
X96142249Y-92939792D01*
X96061104Y-92968185D01*
X95988316Y-93013922D01*
X95988314Y-93013923D01*
X95927523Y-93074714D01*
X95927522Y-93074716D01*
X95881785Y-93147504D01*
X95853392Y-93228649D01*
X95853391Y-93228654D01*
X95843766Y-93314080D01*
X95341594Y-93314080D01*
X95331968Y-93228651D01*
X95303575Y-93147506D01*
X95257836Y-93074714D01*
X95197046Y-93013924D01*
X95197045Y-93013923D01*
X95197043Y-93013922D01*
X95124255Y-92968185D01*
X95043110Y-92939792D01*
X95043105Y-92939791D01*
X94957680Y-92930166D01*
X94872254Y-92939791D01*
X94872249Y-92939792D01*
X94791104Y-92968185D01*
X94718316Y-93013922D01*
X94718314Y-93013923D01*
X94657523Y-93074714D01*
X94657522Y-93074716D01*
X94611785Y-93147504D01*
X94583392Y-93228649D01*
X94583391Y-93228654D01*
X94573766Y-93314080D01*
X84848149Y-93314080D01*
X84838568Y-93229051D01*
X84810175Y-93147906D01*
X84809922Y-93147504D01*
X84764437Y-93075116D01*
X84764436Y-93075114D01*
X84703645Y-93014323D01*
X84703643Y-93014322D01*
X84630855Y-92968585D01*
X84549710Y-92940192D01*
X84549705Y-92940191D01*
X84464280Y-92930566D01*
X84378854Y-92940191D01*
X84378849Y-92940192D01*
X84297704Y-92968585D01*
X84224916Y-93014322D01*
X84224914Y-93014323D01*
X84164123Y-93075114D01*
X84164122Y-93075116D01*
X84118385Y-93147904D01*
X84089992Y-93229049D01*
X84089991Y-93229054D01*
X84080366Y-93314480D01*
X78897520Y-93314480D01*
X79659520Y-92552480D01*
X85350366Y-92552480D01*
X85359991Y-92637905D01*
X85359992Y-92637910D01*
X85388385Y-92719055D01*
X85434122Y-92791843D01*
X85434124Y-92791846D01*
X85494914Y-92852636D01*
X85567706Y-92898375D01*
X85648851Y-92926768D01*
X85734280Y-92936394D01*
X85819709Y-92926768D01*
X85900854Y-92898375D01*
X85973646Y-92852636D01*
X86034436Y-92791846D01*
X86080175Y-92719054D01*
X86108568Y-92637909D01*
X86118194Y-92552480D01*
X86108568Y-92467051D01*
X86080175Y-92385906D01*
X86034436Y-92313114D01*
X85973646Y-92252324D01*
X85973645Y-92252323D01*
X85973643Y-92252322D01*
X85900855Y-92206585D01*
X85819710Y-92178192D01*
X85819705Y-92178191D01*
X85734280Y-92168566D01*
X85648854Y-92178191D01*
X85648849Y-92178192D01*
X85567704Y-92206585D01*
X85494916Y-92252322D01*
X85494914Y-92252323D01*
X85434123Y-92313114D01*
X85434122Y-92313116D01*
X85388385Y-92385904D01*
X85359992Y-92467049D01*
X85359991Y-92467054D01*
X85350366Y-92552480D01*
X79659520Y-92552480D01*
X80753694Y-91458306D01*
X80784603Y-91441428D01*
X80797888Y-91440000D01*
X99251500Y-91440000D01*
X99285290Y-91449922D01*
G37*
%TD.AperFunction*%
%TD*%
%TA.AperFunction,Conductor*%
%TO.N,GND3*%
G36*
X99314000Y-91322821D02*
G01*
X99288139Y-91315228D01*
X99280810Y-91314174D01*
X99251500Y-91309960D01*
X80797888Y-91309960D01*
X80783990Y-91310705D01*
X80777581Y-91311393D01*
X80774035Y-91311775D01*
X80772505Y-91311857D01*
X80770698Y-91312133D01*
X80722288Y-91327291D01*
X80722278Y-91327295D01*
X80691371Y-91344172D01*
X80661741Y-91366354D01*
X72189357Y-99838738D01*
X72180046Y-99849103D01*
X72180039Y-99849112D01*
X72171666Y-99859502D01*
X72148150Y-99904459D01*
X72144151Y-99918079D01*
X72138228Y-99938248D01*
X72138228Y-99938250D01*
X72132960Y-99974888D01*
X72132960Y-99974892D01*
X72132960Y-112154707D01*
X72135931Y-112182337D01*
X72141577Y-112208293D01*
X72144794Y-112220023D01*
X72145263Y-112221730D01*
X72170370Y-112265821D01*
X72193432Y-112292436D01*
X72210113Y-112308532D01*
X72255072Y-112332050D01*
X72288862Y-112341972D01*
X72325500Y-112347240D01*
X73529793Y-112347240D01*
X73563583Y-112357162D01*
X73572383Y-112363998D01*
X73573142Y-112364705D01*
X73586998Y-112373963D01*
X73607735Y-112387820D01*
X73639769Y-112402450D01*
X73639784Y-112402455D01*
X73639791Y-112402458D01*
X73644690Y-112404186D01*
X73661632Y-112410163D01*
X73661631Y-112410163D01*
X73712291Y-112412878D01*
X73712296Y-112412878D01*
X73712296Y-112412877D01*
X73712298Y-112412878D01*
X73747156Y-112407866D01*
X73754761Y-112406069D01*
X73762730Y-112404186D01*
X73797896Y-112406069D01*
X73826461Y-112426666D01*
X73830025Y-112431757D01*
X73848944Y-112461866D01*
X73909734Y-112522656D01*
X73909736Y-112522657D01*
X73979839Y-112566707D01*
X73982526Y-112568395D01*
X74063671Y-112596788D01*
X74149100Y-112606414D01*
X74234529Y-112596788D01*
X74315368Y-112568501D01*
X74350538Y-112566707D01*
X74381096Y-112584212D01*
X74383243Y-112586566D01*
X74392478Y-112597224D01*
X74392481Y-112597227D01*
X74392489Y-112597236D01*
X74409170Y-112613332D01*
X74454129Y-112636850D01*
X74487919Y-112646772D01*
X74524557Y-112652040D01*
X76192527Y-112652040D01*
X76226317Y-112661962D01*
X76249379Y-112688577D01*
X76254391Y-112723435D01*
X76251520Y-112735182D01*
X76238612Y-112772070D01*
X76238611Y-112772074D01*
X76228986Y-112857500D01*
X76238611Y-112942925D01*
X76238612Y-112942930D01*
X76267005Y-113024075D01*
X76312742Y-113096863D01*
X76312743Y-113096865D01*
X76373534Y-113157656D01*
X76373536Y-113157657D01*
X76428735Y-113192342D01*
X76446326Y-113203395D01*
X76527471Y-113231788D01*
X76612900Y-113241414D01*
X76698329Y-113231788D01*
X76779474Y-113203395D01*
X76852266Y-113157656D01*
X76913056Y-113096866D01*
X76958795Y-113024074D01*
X76987188Y-112942929D01*
X76996814Y-112857500D01*
X76987188Y-112772071D01*
X76974279Y-112735180D01*
X76972485Y-112700011D01*
X76984269Y-112679440D01*
X83357686Y-112679440D01*
X83367311Y-112764865D01*
X83367312Y-112764870D01*
X83395705Y-112846015D01*
X83441442Y-112918803D01*
X83441443Y-112918805D01*
X83502234Y-112979596D01*
X83502236Y-112979597D01*
X83573020Y-113024075D01*
X83575026Y-113025335D01*
X83656171Y-113053728D01*
X83741600Y-113063354D01*
X83827029Y-113053728D01*
X83908174Y-113025335D01*
X83980966Y-112979596D01*
X84041756Y-112918806D01*
X84087495Y-112846014D01*
X84115888Y-112764869D01*
X84125514Y-112679440D01*
X84115888Y-112594011D01*
X84087495Y-112512866D01*
X84079199Y-112499664D01*
X84050686Y-112454286D01*
X84041756Y-112440074D01*
X83980966Y-112379284D01*
X83980965Y-112379283D01*
X83980963Y-112379282D01*
X83908175Y-112333545D01*
X83827030Y-112305152D01*
X83827025Y-112305151D01*
X83741600Y-112295526D01*
X83656174Y-112305151D01*
X83656169Y-112305152D01*
X83575024Y-112333545D01*
X83502236Y-112379282D01*
X83502234Y-112379283D01*
X83441443Y-112440074D01*
X83441442Y-112440076D01*
X83395705Y-112512864D01*
X83367312Y-112594009D01*
X83367311Y-112594014D01*
X83357686Y-112679440D01*
X76984269Y-112679440D01*
X76989990Y-112669453D01*
X77021237Y-112653210D01*
X77033273Y-112652040D01*
X79222100Y-112652040D01*
X79222112Y-112652040D01*
X79236010Y-112651295D01*
X79245500Y-112650274D01*
X79245965Y-112650225D01*
X79247494Y-112650142D01*
X79249293Y-112649867D01*
X79249295Y-112649867D01*
X79249299Y-112649867D01*
X79293310Y-112636086D01*
X79297711Y-112634708D01*
X79297713Y-112634707D01*
X79297720Y-112634705D01*
X79328629Y-112617827D01*
X79358258Y-112595646D01*
X80214464Y-111739440D01*
X83357686Y-111739440D01*
X83367311Y-111824865D01*
X83367312Y-111824870D01*
X83395705Y-111906015D01*
X83426414Y-111954886D01*
X83441444Y-111978806D01*
X83502234Y-112039596D01*
X83512604Y-112046112D01*
X83561910Y-112077094D01*
X83575026Y-112085335D01*
X83656171Y-112113728D01*
X83741600Y-112123354D01*
X83827029Y-112113728D01*
X83908174Y-112085335D01*
X83980966Y-112039596D01*
X84041756Y-111978806D01*
X84087495Y-111906014D01*
X84115888Y-111824869D01*
X84125514Y-111739440D01*
X84115888Y-111654011D01*
X84087495Y-111572866D01*
X84041756Y-111500074D01*
X83980966Y-111439284D01*
X83980965Y-111439283D01*
X83980963Y-111439282D01*
X83908175Y-111393545D01*
X83827030Y-111365152D01*
X83827025Y-111365151D01*
X83741600Y-111355526D01*
X83656174Y-111365151D01*
X83656169Y-111365152D01*
X83575024Y-111393545D01*
X83502236Y-111439282D01*
X83502234Y-111439283D01*
X83441443Y-111500074D01*
X83441442Y-111500076D01*
X83395705Y-111572864D01*
X83367312Y-111654009D01*
X83367311Y-111654014D01*
X83357686Y-111739440D01*
X80214464Y-111739440D01*
X81154264Y-110799640D01*
X83357686Y-110799640D01*
X83367311Y-110885065D01*
X83367312Y-110885070D01*
X83395705Y-110966215D01*
X83441442Y-111039003D01*
X83441444Y-111039006D01*
X83502234Y-111099796D01*
X83527637Y-111115758D01*
X83565222Y-111139375D01*
X83575026Y-111145535D01*
X83656171Y-111173928D01*
X83741600Y-111183554D01*
X83827029Y-111173928D01*
X83908174Y-111145535D01*
X83980966Y-111099796D01*
X84041756Y-111039006D01*
X84087495Y-110966214D01*
X84115888Y-110885069D01*
X84125514Y-110799640D01*
X84115888Y-110714211D01*
X84087495Y-110633066D01*
X84041756Y-110560274D01*
X83980966Y-110499484D01*
X83980965Y-110499483D01*
X83980963Y-110499482D01*
X83908175Y-110453745D01*
X83827030Y-110425352D01*
X83827025Y-110425351D01*
X83741600Y-110415726D01*
X83656174Y-110425351D01*
X83656169Y-110425352D01*
X83575024Y-110453745D01*
X83502236Y-110499482D01*
X83502234Y-110499483D01*
X83441443Y-110560274D01*
X83441442Y-110560276D01*
X83395705Y-110633064D01*
X83367312Y-110714209D01*
X83367311Y-110714214D01*
X83357686Y-110799640D01*
X81154264Y-110799640D01*
X82115646Y-109838258D01*
X82124949Y-109827902D01*
X82133333Y-109817498D01*
X82156850Y-109772540D01*
X82166772Y-109738750D01*
X82172040Y-109702112D01*
X82172040Y-108029752D01*
X82181962Y-107995962D01*
X82190346Y-107985558D01*
X83855558Y-106320346D01*
X83886467Y-106303468D01*
X83899752Y-106302040D01*
X87858100Y-106302040D01*
X87858112Y-106302040D01*
X87872010Y-106301295D01*
X87881500Y-106300274D01*
X87881965Y-106300225D01*
X87883494Y-106300142D01*
X87885293Y-106299867D01*
X87885295Y-106299867D01*
X87885299Y-106299867D01*
X87917866Y-106289669D01*
X87933711Y-106284708D01*
X87933713Y-106284707D01*
X87933720Y-106284705D01*
X87964629Y-106267827D01*
X87994258Y-106245646D01*
X88234044Y-106005860D01*
X89518326Y-106005860D01*
X89527951Y-106091285D01*
X89527952Y-106091290D01*
X89556345Y-106172435D01*
X89577699Y-106206418D01*
X89602084Y-106245226D01*
X89662874Y-106306016D01*
X89684012Y-106319298D01*
X89734088Y-106350764D01*
X89735666Y-106351755D01*
X89816811Y-106380148D01*
X89902240Y-106389774D01*
X89956027Y-106383713D01*
X89990714Y-106389789D01*
X90016611Y-106413654D01*
X90025495Y-106447731D01*
X90025131Y-106452817D01*
X90018186Y-106514458D01*
X90018186Y-106514459D01*
X90027811Y-106599885D01*
X90027812Y-106599890D01*
X90056205Y-106681035D01*
X90081012Y-106720514D01*
X90101944Y-106753826D01*
X90162734Y-106814616D01*
X90235526Y-106860355D01*
X90316671Y-106888748D01*
X90402100Y-106898374D01*
X90487529Y-106888748D01*
X90568674Y-106860355D01*
X90641466Y-106814616D01*
X90702256Y-106753826D01*
X90747995Y-106681034D01*
X90776388Y-106599889D01*
X90786014Y-106514460D01*
X90779064Y-106452784D01*
X90785140Y-106418098D01*
X90809005Y-106392201D01*
X90843082Y-106383317D01*
X90848160Y-106383680D01*
X90902240Y-106389774D01*
X90956027Y-106383713D01*
X90990714Y-106389789D01*
X91016611Y-106413654D01*
X91025495Y-106447731D01*
X91025131Y-106452817D01*
X91018186Y-106514458D01*
X91018186Y-106514459D01*
X91027811Y-106599885D01*
X91027812Y-106599890D01*
X91056205Y-106681035D01*
X91081012Y-106720514D01*
X91101944Y-106753826D01*
X91162734Y-106814616D01*
X91235526Y-106860355D01*
X91316671Y-106888748D01*
X91402100Y-106898374D01*
X91487529Y-106888748D01*
X91568674Y-106860355D01*
X91641466Y-106814616D01*
X91702256Y-106753826D01*
X91747995Y-106681034D01*
X91776388Y-106599889D01*
X91786014Y-106514460D01*
X91779064Y-106452784D01*
X91785140Y-106418098D01*
X91809005Y-106392201D01*
X91843082Y-106383317D01*
X91848160Y-106383680D01*
X91902240Y-106389774D01*
X91956027Y-106383713D01*
X91990714Y-106389789D01*
X92016611Y-106413654D01*
X92025495Y-106447731D01*
X92025131Y-106452817D01*
X92018186Y-106514458D01*
X92018186Y-106514459D01*
X92027811Y-106599885D01*
X92027812Y-106599890D01*
X92056205Y-106681035D01*
X92081012Y-106720514D01*
X92101944Y-106753826D01*
X92162734Y-106814616D01*
X92235526Y-106860355D01*
X92316671Y-106888748D01*
X92402100Y-106898374D01*
X92487529Y-106888748D01*
X92568674Y-106860355D01*
X92641466Y-106814616D01*
X92702256Y-106753826D01*
X92747995Y-106681034D01*
X92776388Y-106599889D01*
X92786014Y-106514460D01*
X92776388Y-106429031D01*
X92747995Y-106347886D01*
X92739689Y-106334668D01*
X92723098Y-106308263D01*
X92702256Y-106275094D01*
X92641466Y-106214304D01*
X92641465Y-106214303D01*
X92641463Y-106214302D01*
X92568675Y-106168565D01*
X92487530Y-106140172D01*
X92487525Y-106140171D01*
X92402100Y-106130546D01*
X92402099Y-106130546D01*
X92348312Y-106136606D01*
X92313624Y-106130530D01*
X92287727Y-106106664D01*
X92278844Y-106072586D01*
X92279208Y-106067501D01*
X92281542Y-106046788D01*
X92286154Y-106005860D01*
X92276528Y-105920431D01*
X92248135Y-105839286D01*
X92202396Y-105766494D01*
X92141606Y-105705704D01*
X92141605Y-105705703D01*
X92141603Y-105705702D01*
X92068815Y-105659965D01*
X91987670Y-105631572D01*
X91987665Y-105631571D01*
X91902240Y-105621946D01*
X91816814Y-105631571D01*
X91816809Y-105631572D01*
X91735664Y-105659965D01*
X91662876Y-105705702D01*
X91662874Y-105705703D01*
X91602083Y-105766494D01*
X91602082Y-105766496D01*
X91556345Y-105839284D01*
X91527952Y-105920429D01*
X91527951Y-105920434D01*
X91518326Y-106005860D01*
X91525275Y-106067533D01*
X91519199Y-106102222D01*
X91495334Y-106128118D01*
X91461256Y-106137002D01*
X91456170Y-106136638D01*
X91402100Y-106130546D01*
X91402099Y-106130546D01*
X91348312Y-106136606D01*
X91313624Y-106130530D01*
X91287727Y-106106664D01*
X91278844Y-106072586D01*
X91279208Y-106067501D01*
X91281542Y-106046788D01*
X91286154Y-106005860D01*
X91276528Y-105920431D01*
X91248135Y-105839286D01*
X91202396Y-105766494D01*
X91141606Y-105705704D01*
X91141605Y-105705703D01*
X91141603Y-105705702D01*
X91068815Y-105659965D01*
X90987670Y-105631572D01*
X90987665Y-105631571D01*
X90902240Y-105621946D01*
X90816814Y-105631571D01*
X90816809Y-105631572D01*
X90735664Y-105659965D01*
X90662876Y-105705702D01*
X90662874Y-105705703D01*
X90602083Y-105766494D01*
X90602082Y-105766496D01*
X90556345Y-105839284D01*
X90527952Y-105920429D01*
X90527951Y-105920434D01*
X90518326Y-106005860D01*
X90525275Y-106067533D01*
X90519199Y-106102222D01*
X90495334Y-106128118D01*
X90461256Y-106137002D01*
X90456170Y-106136638D01*
X90402100Y-106130546D01*
X90402099Y-106130546D01*
X90348312Y-106136606D01*
X90313624Y-106130530D01*
X90287727Y-106106664D01*
X90278844Y-106072586D01*
X90279208Y-106067501D01*
X90281542Y-106046788D01*
X90286154Y-106005860D01*
X90276528Y-105920431D01*
X90248135Y-105839286D01*
X90202396Y-105766494D01*
X90141606Y-105705704D01*
X90141605Y-105705703D01*
X90141603Y-105705702D01*
X90068815Y-105659965D01*
X89987670Y-105631572D01*
X89987665Y-105631571D01*
X89902240Y-105621946D01*
X89816814Y-105631571D01*
X89816809Y-105631572D01*
X89735664Y-105659965D01*
X89662876Y-105705702D01*
X89662874Y-105705703D01*
X89602083Y-105766494D01*
X89602082Y-105766496D01*
X89556345Y-105839284D01*
X89527952Y-105920429D01*
X89527951Y-105920434D01*
X89518326Y-106005860D01*
X88234044Y-106005860D01*
X91221558Y-103018346D01*
X91252467Y-103001468D01*
X91265752Y-103000040D01*
X96494100Y-103000040D01*
X96494112Y-103000040D01*
X96508010Y-102999295D01*
X96517500Y-102998274D01*
X96517965Y-102998225D01*
X96519494Y-102998142D01*
X96521293Y-102997867D01*
X96521295Y-102997867D01*
X96521299Y-102997867D01*
X96553866Y-102987669D01*
X96569711Y-102982708D01*
X96569713Y-102982707D01*
X96569720Y-102982705D01*
X96600629Y-102965827D01*
X96630258Y-102943646D01*
X97028000Y-102545904D01*
X97028000Y-110490000D01*
X91262200Y-110490000D01*
X91262200Y-110667800D01*
X90043000Y-110667800D01*
X90043000Y-112484900D01*
X90033078Y-112518690D01*
X90006463Y-112541752D01*
X89980500Y-112547400D01*
X88798400Y-112547400D01*
X87884000Y-113461800D01*
X87884000Y-115087400D01*
X88569800Y-115773200D01*
X90678000Y-115773200D01*
X90678000Y-116331500D01*
X88480126Y-116331500D01*
X88446336Y-116321578D01*
X88435932Y-116313194D01*
X87547266Y-115424528D01*
X87530388Y-115393619D01*
X87528960Y-115380334D01*
X87528960Y-112869009D01*
X87538882Y-112835219D01*
X87553692Y-112819212D01*
X87605389Y-112780009D01*
X87649821Y-112721417D01*
X87658263Y-112700011D01*
X87662577Y-112689072D01*
X87684203Y-112661277D01*
X87717422Y-112649587D01*
X87720719Y-112649500D01*
X87870289Y-112649500D01*
X87904079Y-112659422D01*
X87914483Y-112667805D01*
X87967234Y-112720556D01*
X87967236Y-112720557D01*
X87967237Y-112720558D01*
X88037756Y-112764869D01*
X88040026Y-112766295D01*
X88121171Y-112794688D01*
X88206600Y-112804314D01*
X88292029Y-112794688D01*
X88373174Y-112766295D01*
X88445966Y-112720556D01*
X88506756Y-112659766D01*
X88552495Y-112586974D01*
X88580888Y-112505829D01*
X88584134Y-112477022D01*
X88597777Y-112444555D01*
X88626807Y-112424618D01*
X88646241Y-112421520D01*
X88944662Y-112421520D01*
X88944667Y-112421519D01*
X88967272Y-112415461D01*
X89002929Y-112405907D01*
X89009010Y-112402396D01*
X89055171Y-112375746D01*
X89097826Y-112333091D01*
X89097826Y-112333089D01*
X89102967Y-112327949D01*
X89102970Y-112327944D01*
X89380526Y-112050391D01*
X89410687Y-111998149D01*
X89423879Y-111948918D01*
X89426299Y-111939887D01*
X89426300Y-111939881D01*
X89426300Y-108968804D01*
X94448026Y-108968804D01*
X94457651Y-109054229D01*
X94457652Y-109054234D01*
X94486045Y-109135379D01*
X94531782Y-109208167D01*
X94531783Y-109208169D01*
X94592574Y-109268960D01*
X94592576Y-109268961D01*
X94648542Y-109304128D01*
X94665366Y-109314699D01*
X94746511Y-109343092D01*
X94831940Y-109352718D01*
X94917369Y-109343092D01*
X94998514Y-109314699D01*
X95071306Y-109268960D01*
X95132096Y-109208170D01*
X95177835Y-109135378D01*
X95206228Y-109054233D01*
X95215854Y-108968804D01*
X95206228Y-108883375D01*
X95188002Y-108831288D01*
X95186208Y-108796123D01*
X95203712Y-108765565D01*
X95226355Y-108751658D01*
X95228365Y-108750954D01*
X95264774Y-108738215D01*
X95337566Y-108692476D01*
X95398356Y-108631686D01*
X95444095Y-108558894D01*
X95472488Y-108477749D01*
X95482114Y-108392320D01*
X95472488Y-108306891D01*
X95444095Y-108225746D01*
X95398356Y-108152954D01*
X95337566Y-108092164D01*
X95337565Y-108092163D01*
X95337563Y-108092162D01*
X95264775Y-108046425D01*
X95183630Y-108018032D01*
X95183625Y-108018031D01*
X95098200Y-108008406D01*
X95012774Y-108018031D01*
X95012769Y-108018032D01*
X94931624Y-108046425D01*
X94858836Y-108092162D01*
X94858834Y-108092163D01*
X94798043Y-108152954D01*
X94798042Y-108152956D01*
X94752305Y-108225744D01*
X94723912Y-108306889D01*
X94723911Y-108306894D01*
X94714286Y-108392320D01*
X94723911Y-108477745D01*
X94723913Y-108477753D01*
X94742135Y-108529831D01*
X94743930Y-108565002D01*
X94726425Y-108595559D01*
X94703785Y-108609464D01*
X94665367Y-108622907D01*
X94592576Y-108668646D01*
X94592574Y-108668647D01*
X94531783Y-108729438D01*
X94531782Y-108729440D01*
X94486045Y-108802228D01*
X94457652Y-108883373D01*
X94457651Y-108883378D01*
X94448026Y-108968804D01*
X89426300Y-108968804D01*
X89426300Y-108586384D01*
X89436222Y-108552594D01*
X89444606Y-108542190D01*
X90307551Y-107679246D01*
X90338460Y-107662368D01*
X90351745Y-107660940D01*
X93659642Y-107660940D01*
X93659647Y-107660939D01*
X93676955Y-107656300D01*
X93717909Y-107645327D01*
X93729748Y-107638492D01*
X93770151Y-107615166D01*
X93812806Y-107572511D01*
X93812806Y-107572509D01*
X93817947Y-107567369D01*
X93817950Y-107567364D01*
X94203910Y-107181406D01*
X94234819Y-107164528D01*
X94248104Y-107163100D01*
X94981802Y-107163100D01*
X94981807Y-107163099D01*
X94999115Y-107158460D01*
X95040069Y-107147487D01*
X95068068Y-107131322D01*
X95092311Y-107117326D01*
X95134966Y-107074671D01*
X95134966Y-107074669D01*
X95140107Y-107069529D01*
X95140111Y-107069524D01*
X95393267Y-106816367D01*
X95424174Y-106799491D01*
X95444456Y-106798456D01*
X95468400Y-106801154D01*
X95553829Y-106791528D01*
X95634974Y-106763135D01*
X95707766Y-106717396D01*
X95768556Y-106656606D01*
X95814295Y-106583814D01*
X95842688Y-106502669D01*
X95852314Y-106417240D01*
X95842688Y-106331811D01*
X95814295Y-106250666D01*
X95768556Y-106177874D01*
X95707766Y-106117084D01*
X95707765Y-106117083D01*
X95707763Y-106117082D01*
X95634975Y-106071345D01*
X95553830Y-106042952D01*
X95553825Y-106042951D01*
X95468400Y-106033326D01*
X95382974Y-106042951D01*
X95382969Y-106042952D01*
X95301824Y-106071345D01*
X95229036Y-106117082D01*
X95229034Y-106117083D01*
X95168243Y-106177874D01*
X95168242Y-106177876D01*
X95122505Y-106250664D01*
X95094112Y-106331809D01*
X95094111Y-106331814D01*
X95084486Y-106417240D01*
X95087183Y-106441181D01*
X95081107Y-106475870D01*
X95069270Y-106492372D01*
X94875050Y-106686594D01*
X94844142Y-106703472D01*
X94830856Y-106704900D01*
X94097152Y-106704900D01*
X94038893Y-106720512D01*
X94038887Y-106720514D01*
X93986649Y-106750673D01*
X93943992Y-106793331D01*
X93552890Y-107184434D01*
X93521981Y-107201312D01*
X93508696Y-107202740D01*
X90200793Y-107202740D01*
X90142532Y-107218352D01*
X90142524Y-107218355D01*
X90090293Y-107248511D01*
X90090284Y-107248518D01*
X89013873Y-108324929D01*
X88983714Y-108377167D01*
X88983712Y-108377173D01*
X88968100Y-108435432D01*
X88968100Y-109607810D01*
X88958178Y-109641600D01*
X88931563Y-109664662D01*
X88896705Y-109669674D01*
X88864671Y-109655044D01*
X88861406Y-109652004D01*
X88801565Y-109592163D01*
X88801563Y-109592162D01*
X88728775Y-109546425D01*
X88647630Y-109518032D01*
X88647625Y-109518031D01*
X88562200Y-109508406D01*
X88476774Y-109518031D01*
X88476769Y-109518032D01*
X88395624Y-109546425D01*
X88322836Y-109592162D01*
X88322834Y-109592163D01*
X88262043Y-109652954D01*
X88262042Y-109652956D01*
X88216305Y-109725744D01*
X88187912Y-109806889D01*
X88187911Y-109806894D01*
X88178286Y-109892320D01*
X88178286Y-109892321D01*
X88184354Y-109946180D01*
X88178278Y-109980868D01*
X88154412Y-110006765D01*
X88120334Y-110015648D01*
X88115250Y-110015284D01*
X88054201Y-110008406D01*
X88054200Y-110008406D01*
X87968774Y-110018031D01*
X87968769Y-110018032D01*
X87887624Y-110046425D01*
X87814836Y-110092162D01*
X87814834Y-110092163D01*
X87754043Y-110152954D01*
X87754042Y-110152956D01*
X87708305Y-110225744D01*
X87679912Y-110306889D01*
X87679911Y-110306894D01*
X87670286Y-110392320D01*
X87679911Y-110477745D01*
X87679912Y-110477750D01*
X87708305Y-110558895D01*
X87748163Y-110622328D01*
X87757740Y-110656217D01*
X87747474Y-110689904D01*
X87720625Y-110712694D01*
X87695243Y-110718080D01*
X87281600Y-110718080D01*
X87247810Y-110708158D01*
X87231314Y-110692696D01*
X87197144Y-110646396D01*
X87141964Y-110605672D01*
X87077233Y-110583021D01*
X87077231Y-110583020D01*
X87077230Y-110583020D01*
X87066186Y-110581985D01*
X87061866Y-110581580D01*
X86747054Y-110581580D01*
X86743104Y-110581950D01*
X86731689Y-110583020D01*
X86731687Y-110583021D01*
X86666955Y-110605672D01*
X86611776Y-110646396D01*
X86571052Y-110701575D01*
X86548401Y-110766307D01*
X86548400Y-110766309D01*
X86547330Y-110777724D01*
X86546960Y-110781674D01*
X86546960Y-111036486D01*
X86547453Y-111041752D01*
X86548400Y-111051850D01*
X86548400Y-111051851D01*
X86548401Y-111051853D01*
X86565178Y-111099797D01*
X86571052Y-111116584D01*
X86611776Y-111171764D01*
X86661948Y-111208793D01*
X86683244Y-111236841D01*
X86685995Y-111271950D01*
X86669327Y-111302973D01*
X86661948Y-111309367D01*
X86611776Y-111346395D01*
X86571052Y-111401575D01*
X86548401Y-111466307D01*
X86548400Y-111466309D01*
X86546960Y-111481677D01*
X86546960Y-111736482D01*
X86548400Y-111751850D01*
X86548400Y-111751851D01*
X86548401Y-111751853D01*
X86571052Y-111816584D01*
X86611776Y-111871764D01*
X86666956Y-111912488D01*
X86731687Y-111935139D01*
X86747054Y-111936580D01*
X86882076Y-111936580D01*
X86915866Y-111946502D01*
X86926270Y-111954886D01*
X86942338Y-111970954D01*
X86959216Y-112001863D01*
X86956703Y-112036990D01*
X86945566Y-112054329D01*
X86946114Y-112054745D01*
X86899100Y-112116740D01*
X86899097Y-112116747D01*
X86872122Y-112185150D01*
X86867730Y-112221728D01*
X86866960Y-112228136D01*
X86866960Y-112610024D01*
X86872122Y-112653010D01*
X86887074Y-112690924D01*
X86899097Y-112721412D01*
X86899100Y-112721419D01*
X86943530Y-112780008D01*
X86943531Y-112780009D01*
X86995226Y-112819210D01*
X87016154Y-112847531D01*
X87019960Y-112869009D01*
X87019960Y-115545151D01*
X87037303Y-115609870D01*
X87037305Y-115609876D01*
X87070806Y-115667903D01*
X87070807Y-115667904D01*
X87070809Y-115667907D01*
X87100558Y-115697656D01*
X87121755Y-115718853D01*
X87121762Y-115718859D01*
X88145168Y-116742266D01*
X88192553Y-116789651D01*
X88250583Y-116823154D01*
X88250584Y-116823154D01*
X88250587Y-116823156D01*
X88280916Y-116831282D01*
X88315308Y-116840499D01*
X88315314Y-116840500D01*
X90678000Y-116840500D01*
X90678000Y-117380520D01*
X83880186Y-117380520D01*
X83846396Y-117370598D01*
X83835992Y-117362214D01*
X81337579Y-114863802D01*
X81337574Y-114863796D01*
X81321703Y-114847925D01*
X81286627Y-114812849D01*
X81286624Y-114812847D01*
X81286623Y-114812846D01*
X81228596Y-114779345D01*
X81228590Y-114779343D01*
X81163871Y-114762000D01*
X81163866Y-114762000D01*
X77814611Y-114762000D01*
X77780821Y-114752078D01*
X77757759Y-114725463D01*
X77752504Y-114706498D01*
X77749188Y-114677074D01*
X77749188Y-114677071D01*
X77720795Y-114595926D01*
X77675056Y-114523134D01*
X77614266Y-114462344D01*
X77614265Y-114462343D01*
X77614263Y-114462342D01*
X77541475Y-114416605D01*
X77460330Y-114388212D01*
X77460325Y-114388211D01*
X77374900Y-114378586D01*
X77289474Y-114388211D01*
X77289469Y-114388212D01*
X77208324Y-114416605D01*
X77135536Y-114462342D01*
X77135534Y-114462343D01*
X77074743Y-114523134D01*
X77074742Y-114523136D01*
X77029005Y-114595924D01*
X77000612Y-114677069D01*
X77000611Y-114677074D01*
X76990986Y-114762500D01*
X77000611Y-114847925D01*
X77000612Y-114847930D01*
X77029005Y-114929075D01*
X77074742Y-115001863D01*
X77074743Y-115001865D01*
X77109184Y-115036306D01*
X77126062Y-115067215D01*
X77123549Y-115102342D01*
X77102445Y-115130534D01*
X77069449Y-115142841D01*
X77064990Y-115143000D01*
X76923810Y-115143000D01*
X76890020Y-115133078D01*
X76879616Y-115124694D01*
X76852265Y-115097343D01*
X76852263Y-115097342D01*
X76779475Y-115051605D01*
X76698330Y-115023212D01*
X76698325Y-115023211D01*
X76612900Y-115013586D01*
X76527474Y-115023211D01*
X76527469Y-115023212D01*
X76446324Y-115051605D01*
X76373536Y-115097342D01*
X76373534Y-115097343D01*
X76312743Y-115158134D01*
X76312742Y-115158136D01*
X76267005Y-115230924D01*
X76238612Y-115312069D01*
X76238611Y-115312074D01*
X76228986Y-115397500D01*
X76238611Y-115482925D01*
X76238612Y-115482930D01*
X76267005Y-115564075D01*
X76312742Y-115636863D01*
X76312744Y-115636866D01*
X76373534Y-115697656D01*
X76446326Y-115743395D01*
X76527471Y-115771788D01*
X76612900Y-115781414D01*
X76698329Y-115771788D01*
X76779474Y-115743395D01*
X76852266Y-115697656D01*
X76879616Y-115670306D01*
X76910525Y-115653428D01*
X76923810Y-115652000D01*
X80841239Y-115652000D01*
X80875029Y-115661922D01*
X80885433Y-115670306D01*
X83387412Y-118172286D01*
X83434797Y-118219671D01*
X83492827Y-118253174D01*
X83492828Y-118253174D01*
X83492831Y-118253176D01*
X83523160Y-118261302D01*
X83557552Y-118270519D01*
X83557558Y-118270520D01*
X90678000Y-118270520D01*
X90678000Y-129745500D01*
X70317000Y-129745500D01*
X70283210Y-129735578D01*
X70260148Y-129708963D01*
X70254500Y-129683000D01*
X70254500Y-127460495D01*
X78228707Y-127460495D01*
X78228707Y-127460504D01*
X78239063Y-127592100D01*
X78239064Y-127592104D01*
X78269881Y-127720468D01*
X78269882Y-127720470D01*
X78269883Y-127720474D01*
X78320402Y-127842439D01*
X78356790Y-127901819D01*
X78389377Y-127954996D01*
X78475115Y-128055384D01*
X78535651Y-128107086D01*
X78575500Y-128141120D01*
X78688061Y-128210098D01*
X78810026Y-128260617D01*
X78938393Y-128291435D01*
X78938395Y-128291435D01*
X78938399Y-128291436D01*
X79069996Y-128301793D01*
X79070000Y-128301793D01*
X79070004Y-128301793D01*
X79201600Y-128291436D01*
X79201602Y-128291435D01*
X79201607Y-128291435D01*
X79329974Y-128260617D01*
X79451939Y-128210098D01*
X79564500Y-128141120D01*
X79664884Y-128055384D01*
X79750620Y-127955000D01*
X79819598Y-127842439D01*
X79870117Y-127720474D01*
X79900935Y-127592107D01*
X79911293Y-127460500D01*
X79911293Y-127460495D01*
X80768707Y-127460495D01*
X80768707Y-127460504D01*
X80779063Y-127592100D01*
X80779064Y-127592104D01*
X80809881Y-127720468D01*
X80809882Y-127720470D01*
X80809883Y-127720474D01*
X80860402Y-127842439D01*
X80896790Y-127901819D01*
X80929377Y-127954996D01*
X81015115Y-128055384D01*
X81075651Y-128107086D01*
X81115500Y-128141120D01*
X81228061Y-128210098D01*
X81350026Y-128260617D01*
X81478393Y-128291435D01*
X81478395Y-128291435D01*
X81478399Y-128291436D01*
X81609996Y-128301793D01*
X81610000Y-128301793D01*
X81610004Y-128301793D01*
X81741600Y-128291436D01*
X81741602Y-128291435D01*
X81741607Y-128291435D01*
X81869974Y-128260617D01*
X81991939Y-128210098D01*
X82104500Y-128141120D01*
X82204884Y-128055384D01*
X82290620Y-127955000D01*
X82359598Y-127842439D01*
X82410117Y-127720474D01*
X82440935Y-127592107D01*
X82451293Y-127460500D01*
X82451293Y-127460495D01*
X83308707Y-127460495D01*
X83308707Y-127460504D01*
X83319063Y-127592100D01*
X83319064Y-127592104D01*
X83349881Y-127720468D01*
X83349882Y-127720470D01*
X83349883Y-127720474D01*
X83400402Y-127842439D01*
X83436790Y-127901819D01*
X83469377Y-127954996D01*
X83555115Y-128055384D01*
X83615651Y-128107086D01*
X83655500Y-128141120D01*
X83768061Y-128210098D01*
X83890026Y-128260617D01*
X84018393Y-128291435D01*
X84018395Y-128291435D01*
X84018399Y-128291436D01*
X84149996Y-128301793D01*
X84150000Y-128301793D01*
X84150004Y-128301793D01*
X84281600Y-128291436D01*
X84281602Y-128291435D01*
X84281607Y-128291435D01*
X84409974Y-128260617D01*
X84531939Y-128210098D01*
X84644500Y-128141120D01*
X84744884Y-128055384D01*
X84830620Y-127955000D01*
X84899598Y-127842439D01*
X84950117Y-127720474D01*
X84980935Y-127592107D01*
X84991293Y-127460500D01*
X84991293Y-127460495D01*
X85848707Y-127460495D01*
X85848707Y-127460504D01*
X85859063Y-127592100D01*
X85859064Y-127592104D01*
X85889881Y-127720468D01*
X85889882Y-127720470D01*
X85889883Y-127720474D01*
X85940402Y-127842439D01*
X85976790Y-127901819D01*
X86009377Y-127954996D01*
X86095115Y-128055384D01*
X86155651Y-128107086D01*
X86195500Y-128141120D01*
X86308061Y-128210098D01*
X86430026Y-128260617D01*
X86558393Y-128291435D01*
X86558395Y-128291435D01*
X86558399Y-128291436D01*
X86689996Y-128301793D01*
X86690000Y-128301793D01*
X86690004Y-128301793D01*
X86821600Y-128291436D01*
X86821602Y-128291435D01*
X86821607Y-128291435D01*
X86949974Y-128260617D01*
X87071939Y-128210098D01*
X87184500Y-128141120D01*
X87284884Y-128055384D01*
X87370620Y-127955000D01*
X87439598Y-127842439D01*
X87490117Y-127720474D01*
X87520935Y-127592107D01*
X87531293Y-127460500D01*
X87531293Y-127460495D01*
X87520936Y-127328899D01*
X87520935Y-127328895D01*
X87490118Y-127200531D01*
X87490117Y-127200526D01*
X87439598Y-127078561D01*
X87370620Y-126966000D01*
X87336586Y-126926151D01*
X87284884Y-126865615D01*
X87184496Y-126779877D01*
X87131319Y-126747290D01*
X87071939Y-126710902D01*
X86949974Y-126660383D01*
X86949970Y-126660382D01*
X86949968Y-126660381D01*
X86821604Y-126629564D01*
X86821600Y-126629563D01*
X86690004Y-126619207D01*
X86689996Y-126619207D01*
X86558399Y-126629563D01*
X86558395Y-126629564D01*
X86430031Y-126660381D01*
X86430029Y-126660382D01*
X86430027Y-126660382D01*
X86430026Y-126660383D01*
X86308061Y-126710902D01*
X86195503Y-126779877D01*
X86095115Y-126865615D01*
X86009377Y-126966003D01*
X85940402Y-127078561D01*
X85889882Y-127200529D01*
X85889881Y-127200531D01*
X85859064Y-127328895D01*
X85859063Y-127328899D01*
X85848707Y-127460495D01*
X84991293Y-127460495D01*
X84980936Y-127328899D01*
X84980935Y-127328895D01*
X84950118Y-127200531D01*
X84950117Y-127200526D01*
X84899598Y-127078561D01*
X84830620Y-126966000D01*
X84796586Y-126926151D01*
X84744884Y-126865615D01*
X84644496Y-126779877D01*
X84591319Y-126747290D01*
X84531939Y-126710902D01*
X84409974Y-126660383D01*
X84409970Y-126660382D01*
X84409968Y-126660381D01*
X84281604Y-126629564D01*
X84281600Y-126629563D01*
X84150004Y-126619207D01*
X84149996Y-126619207D01*
X84018399Y-126629563D01*
X84018395Y-126629564D01*
X83890031Y-126660381D01*
X83890029Y-126660382D01*
X83890027Y-126660382D01*
X83890026Y-126660383D01*
X83768061Y-126710902D01*
X83655503Y-126779877D01*
X83555115Y-126865615D01*
X83469377Y-126966003D01*
X83400402Y-127078561D01*
X83349882Y-127200529D01*
X83349881Y-127200531D01*
X83319064Y-127328895D01*
X83319063Y-127328899D01*
X83308707Y-127460495D01*
X82451293Y-127460495D01*
X82440936Y-127328899D01*
X82440935Y-127328895D01*
X82410118Y-127200531D01*
X82410117Y-127200526D01*
X82359598Y-127078561D01*
X82290620Y-126966000D01*
X82256586Y-126926151D01*
X82204884Y-126865615D01*
X82104496Y-126779877D01*
X82051319Y-126747290D01*
X81991939Y-126710902D01*
X81869974Y-126660383D01*
X81869970Y-126660382D01*
X81869968Y-126660381D01*
X81741604Y-126629564D01*
X81741600Y-126629563D01*
X81610004Y-126619207D01*
X81609996Y-126619207D01*
X81478399Y-126629563D01*
X81478395Y-126629564D01*
X81350031Y-126660381D01*
X81350029Y-126660382D01*
X81350027Y-126660382D01*
X81350026Y-126660383D01*
X81228061Y-126710902D01*
X81115503Y-126779877D01*
X81015115Y-126865615D01*
X80929377Y-126966003D01*
X80860402Y-127078561D01*
X80809882Y-127200529D01*
X80809881Y-127200531D01*
X80779064Y-127328895D01*
X80779063Y-127328899D01*
X80768707Y-127460495D01*
X79911293Y-127460495D01*
X79900936Y-127328899D01*
X79900935Y-127328895D01*
X79870118Y-127200531D01*
X79870117Y-127200526D01*
X79819598Y-127078561D01*
X79750620Y-126966000D01*
X79716586Y-126926151D01*
X79664884Y-126865615D01*
X79564496Y-126779877D01*
X79511319Y-126747290D01*
X79451939Y-126710902D01*
X79329974Y-126660383D01*
X79329970Y-126660382D01*
X79329968Y-126660381D01*
X79201604Y-126629564D01*
X79201600Y-126629563D01*
X79070004Y-126619207D01*
X79069996Y-126619207D01*
X78938399Y-126629563D01*
X78938395Y-126629564D01*
X78810031Y-126660381D01*
X78810029Y-126660382D01*
X78810027Y-126660382D01*
X78810026Y-126660383D01*
X78688061Y-126710902D01*
X78575503Y-126779877D01*
X78475115Y-126865615D01*
X78389377Y-126966003D01*
X78320402Y-127078561D01*
X78269882Y-127200529D01*
X78269881Y-127200531D01*
X78239064Y-127328895D01*
X78239063Y-127328899D01*
X78228707Y-127460495D01*
X70254500Y-127460495D01*
X70254500Y-124920495D01*
X78228707Y-124920495D01*
X78228707Y-124920504D01*
X78239063Y-125052100D01*
X78239064Y-125052104D01*
X78269881Y-125180468D01*
X78269882Y-125180470D01*
X78269883Y-125180474D01*
X78320402Y-125302439D01*
X78356790Y-125361819D01*
X78389377Y-125414996D01*
X78475115Y-125515384D01*
X78535651Y-125567086D01*
X78575500Y-125601120D01*
X78688061Y-125670098D01*
X78810026Y-125720617D01*
X78938393Y-125751435D01*
X78938395Y-125751435D01*
X78938399Y-125751436D01*
X79069996Y-125761793D01*
X79070000Y-125761793D01*
X79070004Y-125761793D01*
X79201600Y-125751436D01*
X79201602Y-125751435D01*
X79201607Y-125751435D01*
X79329974Y-125720617D01*
X79451939Y-125670098D01*
X79564500Y-125601120D01*
X79664884Y-125515384D01*
X79750620Y-125415000D01*
X79819598Y-125302439D01*
X79870117Y-125180474D01*
X79900935Y-125052107D01*
X79911293Y-124920500D01*
X79911293Y-124920495D01*
X80768707Y-124920495D01*
X80768707Y-124920504D01*
X80779063Y-125052100D01*
X80779064Y-125052104D01*
X80809881Y-125180468D01*
X80809882Y-125180470D01*
X80809883Y-125180474D01*
X80860402Y-125302439D01*
X80896790Y-125361819D01*
X80929377Y-125414996D01*
X81015115Y-125515384D01*
X81075651Y-125567086D01*
X81115500Y-125601120D01*
X81228061Y-125670098D01*
X81350026Y-125720617D01*
X81478393Y-125751435D01*
X81478395Y-125751435D01*
X81478399Y-125751436D01*
X81609996Y-125761793D01*
X81610000Y-125761793D01*
X81610004Y-125761793D01*
X81741600Y-125751436D01*
X81741602Y-125751435D01*
X81741607Y-125751435D01*
X81869974Y-125720617D01*
X81991939Y-125670098D01*
X82104500Y-125601120D01*
X82204884Y-125515384D01*
X82290620Y-125415000D01*
X82359598Y-125302439D01*
X82410117Y-125180474D01*
X82440935Y-125052107D01*
X82451293Y-124920500D01*
X82451293Y-124920495D01*
X83308707Y-124920495D01*
X83308707Y-124920504D01*
X83319063Y-125052100D01*
X83319064Y-125052104D01*
X83349881Y-125180468D01*
X83349882Y-125180470D01*
X83349883Y-125180474D01*
X83400402Y-125302439D01*
X83436790Y-125361819D01*
X83469377Y-125414996D01*
X83555115Y-125515384D01*
X83615651Y-125567086D01*
X83655500Y-125601120D01*
X83768061Y-125670098D01*
X83890026Y-125720617D01*
X84018393Y-125751435D01*
X84018395Y-125751435D01*
X84018399Y-125751436D01*
X84149996Y-125761793D01*
X84150000Y-125761793D01*
X84150004Y-125761793D01*
X84281600Y-125751436D01*
X84281602Y-125751435D01*
X84281607Y-125751435D01*
X84409974Y-125720617D01*
X84531939Y-125670098D01*
X84644500Y-125601120D01*
X84744884Y-125515384D01*
X84830620Y-125415000D01*
X84899598Y-125302439D01*
X84950117Y-125180474D01*
X84980935Y-125052107D01*
X84991293Y-124920500D01*
X84991293Y-124920495D01*
X85848707Y-124920495D01*
X85848707Y-124920504D01*
X85859063Y-125052100D01*
X85859064Y-125052104D01*
X85889881Y-125180468D01*
X85889882Y-125180470D01*
X85889883Y-125180474D01*
X85940402Y-125302439D01*
X85976790Y-125361819D01*
X86009377Y-125414996D01*
X86095115Y-125515384D01*
X86155651Y-125567086D01*
X86195500Y-125601120D01*
X86308061Y-125670098D01*
X86430026Y-125720617D01*
X86558393Y-125751435D01*
X86558395Y-125751435D01*
X86558399Y-125751436D01*
X86689996Y-125761793D01*
X86690000Y-125761793D01*
X86690004Y-125761793D01*
X86821600Y-125751436D01*
X86821602Y-125751435D01*
X86821607Y-125751435D01*
X86949974Y-125720617D01*
X87071939Y-125670098D01*
X87184500Y-125601120D01*
X87284884Y-125515384D01*
X87370620Y-125415000D01*
X87439598Y-125302439D01*
X87490117Y-125180474D01*
X87520935Y-125052107D01*
X87531293Y-124920500D01*
X87531293Y-124920495D01*
X88388707Y-124920495D01*
X88388707Y-124920504D01*
X88399063Y-125052100D01*
X88399064Y-125052104D01*
X88429881Y-125180468D01*
X88429882Y-125180470D01*
X88429883Y-125180474D01*
X88480402Y-125302439D01*
X88516790Y-125361819D01*
X88549377Y-125414996D01*
X88635115Y-125515384D01*
X88695651Y-125567086D01*
X88735500Y-125601120D01*
X88848061Y-125670098D01*
X88970026Y-125720617D01*
X89098393Y-125751435D01*
X89098395Y-125751435D01*
X89098399Y-125751436D01*
X89229996Y-125761793D01*
X89230000Y-125761793D01*
X89230004Y-125761793D01*
X89361600Y-125751436D01*
X89361602Y-125751435D01*
X89361607Y-125751435D01*
X89489974Y-125720617D01*
X89611939Y-125670098D01*
X89724500Y-125601120D01*
X89824884Y-125515384D01*
X89910620Y-125415000D01*
X89979598Y-125302439D01*
X90030117Y-125180474D01*
X90060935Y-125052107D01*
X90071293Y-124920500D01*
X90071293Y-124920495D01*
X90060936Y-124788899D01*
X90060935Y-124788895D01*
X90030118Y-124660531D01*
X90030117Y-124660526D01*
X89979598Y-124538561D01*
X89910620Y-124426000D01*
X89876586Y-124386151D01*
X89824884Y-124325615D01*
X89724496Y-124239877D01*
X89671319Y-124207290D01*
X89611939Y-124170902D01*
X89489974Y-124120383D01*
X89489970Y-124120382D01*
X89489968Y-124120381D01*
X89361604Y-124089564D01*
X89361600Y-124089563D01*
X89230004Y-124079207D01*
X89229996Y-124079207D01*
X89098399Y-124089563D01*
X89098395Y-124089564D01*
X88970031Y-124120381D01*
X88970029Y-124120382D01*
X88970027Y-124120382D01*
X88970026Y-124120383D01*
X88848061Y-124170902D01*
X88735503Y-124239877D01*
X88635115Y-124325615D01*
X88549377Y-124426003D01*
X88480402Y-124538561D01*
X88429882Y-124660529D01*
X88429881Y-124660531D01*
X88399064Y-124788895D01*
X88399063Y-124788899D01*
X88388707Y-124920495D01*
X87531293Y-124920495D01*
X87520936Y-124788899D01*
X87520935Y-124788895D01*
X87490118Y-124660531D01*
X87490117Y-124660526D01*
X87439598Y-124538561D01*
X87370620Y-124426000D01*
X87336586Y-124386151D01*
X87284884Y-124325615D01*
X87184496Y-124239877D01*
X87131319Y-124207290D01*
X87071939Y-124170902D01*
X86949974Y-124120383D01*
X86949970Y-124120382D01*
X86949968Y-124120381D01*
X86821604Y-124089564D01*
X86821600Y-124089563D01*
X86690004Y-124079207D01*
X86689996Y-124079207D01*
X86558399Y-124089563D01*
X86558395Y-124089564D01*
X86430031Y-124120381D01*
X86430029Y-124120382D01*
X86430027Y-124120382D01*
X86430026Y-124120383D01*
X86308061Y-124170902D01*
X86195503Y-124239877D01*
X86095115Y-124325615D01*
X86009377Y-124426003D01*
X85940402Y-124538561D01*
X85889882Y-124660529D01*
X85889881Y-124660531D01*
X85859064Y-124788895D01*
X85859063Y-124788899D01*
X85848707Y-124920495D01*
X84991293Y-124920495D01*
X84980936Y-124788899D01*
X84980935Y-124788895D01*
X84950118Y-124660531D01*
X84950117Y-124660526D01*
X84899598Y-124538561D01*
X84830620Y-124426000D01*
X84796586Y-124386151D01*
X84744884Y-124325615D01*
X84644496Y-124239877D01*
X84591319Y-124207290D01*
X84531939Y-124170902D01*
X84409974Y-124120383D01*
X84409970Y-124120382D01*
X84409968Y-124120381D01*
X84281604Y-124089564D01*
X84281600Y-124089563D01*
X84150004Y-124079207D01*
X84149996Y-124079207D01*
X84018399Y-124089563D01*
X84018395Y-124089564D01*
X83890031Y-124120381D01*
X83890029Y-124120382D01*
X83890027Y-124120382D01*
X83890026Y-124120383D01*
X83768061Y-124170902D01*
X83655503Y-124239877D01*
X83555115Y-124325615D01*
X83469377Y-124426003D01*
X83400402Y-124538561D01*
X83349882Y-124660529D01*
X83349881Y-124660531D01*
X83319064Y-124788895D01*
X83319063Y-124788899D01*
X83308707Y-124920495D01*
X82451293Y-124920495D01*
X82440936Y-124788899D01*
X82440935Y-124788895D01*
X82410118Y-124660531D01*
X82410117Y-124660526D01*
X82359598Y-124538561D01*
X82290620Y-124426000D01*
X82256586Y-124386151D01*
X82204884Y-124325615D01*
X82104496Y-124239877D01*
X82051319Y-124207290D01*
X81991939Y-124170902D01*
X81869974Y-124120383D01*
X81869970Y-124120382D01*
X81869968Y-124120381D01*
X81741604Y-124089564D01*
X81741600Y-124089563D01*
X81610004Y-124079207D01*
X81609996Y-124079207D01*
X81478399Y-124089563D01*
X81478395Y-124089564D01*
X81350031Y-124120381D01*
X81350029Y-124120382D01*
X81350027Y-124120382D01*
X81350026Y-124120383D01*
X81228061Y-124170902D01*
X81115503Y-124239877D01*
X81015115Y-124325615D01*
X80929377Y-124426003D01*
X80860402Y-124538561D01*
X80809882Y-124660529D01*
X80809881Y-124660531D01*
X80779064Y-124788895D01*
X80779063Y-124788899D01*
X80768707Y-124920495D01*
X79911293Y-124920495D01*
X79900936Y-124788899D01*
X79900935Y-124788895D01*
X79870118Y-124660531D01*
X79870117Y-124660526D01*
X79819598Y-124538561D01*
X79750620Y-124426000D01*
X79716586Y-124386151D01*
X79664884Y-124325615D01*
X79564496Y-124239877D01*
X79511319Y-124207290D01*
X79451939Y-124170902D01*
X79329974Y-124120383D01*
X79329970Y-124120382D01*
X79329968Y-124120381D01*
X79201604Y-124089564D01*
X79201600Y-124089563D01*
X79070004Y-124079207D01*
X79069996Y-124079207D01*
X78938399Y-124089563D01*
X78938395Y-124089564D01*
X78810031Y-124120381D01*
X78810029Y-124120382D01*
X78810027Y-124120382D01*
X78810026Y-124120383D01*
X78688061Y-124170902D01*
X78575503Y-124239877D01*
X78475115Y-124325615D01*
X78389377Y-124426003D01*
X78320402Y-124538561D01*
X78269882Y-124660529D01*
X78269881Y-124660531D01*
X78239064Y-124788895D01*
X78239063Y-124788899D01*
X78228707Y-124920495D01*
X70254500Y-124920495D01*
X70254500Y-113492500D01*
X73765186Y-113492500D01*
X73774811Y-113577925D01*
X73774812Y-113577930D01*
X73803205Y-113659075D01*
X73848942Y-113731863D01*
X73848943Y-113731865D01*
X73909734Y-113792656D01*
X73909736Y-113792657D01*
X73968888Y-113829826D01*
X73982526Y-113838395D01*
X74063671Y-113866788D01*
X74149100Y-113876414D01*
X74234529Y-113866788D01*
X74315674Y-113838395D01*
X74388466Y-113792656D01*
X74449256Y-113731866D01*
X74494995Y-113659074D01*
X74523388Y-113577929D01*
X74533014Y-113492500D01*
X76990986Y-113492500D01*
X77000611Y-113577925D01*
X77000612Y-113577930D01*
X77029005Y-113659075D01*
X77074742Y-113731863D01*
X77074743Y-113731865D01*
X77135534Y-113792656D01*
X77135536Y-113792657D01*
X77194688Y-113829826D01*
X77208326Y-113838395D01*
X77289471Y-113866788D01*
X77374900Y-113876414D01*
X77460329Y-113866788D01*
X77541474Y-113838395D01*
X77614266Y-113792656D01*
X77675056Y-113731866D01*
X77720795Y-113659074D01*
X77734663Y-113619440D01*
X83357686Y-113619440D01*
X83367311Y-113704865D01*
X83367312Y-113704870D01*
X83395705Y-113786015D01*
X83441442Y-113858803D01*
X83441444Y-113858806D01*
X83502234Y-113919596D01*
X83575026Y-113965335D01*
X83656171Y-113993728D01*
X83741600Y-114003354D01*
X83827029Y-113993728D01*
X83908174Y-113965335D01*
X83980966Y-113919596D01*
X84041756Y-113858806D01*
X84087495Y-113786014D01*
X84115888Y-113704869D01*
X84125514Y-113619440D01*
X84115888Y-113534011D01*
X84087495Y-113452866D01*
X84041756Y-113380074D01*
X83980966Y-113319284D01*
X83980965Y-113319283D01*
X83980963Y-113319282D01*
X83908175Y-113273545D01*
X83827030Y-113245152D01*
X83827025Y-113245151D01*
X83741600Y-113235526D01*
X83656174Y-113245151D01*
X83656169Y-113245152D01*
X83575024Y-113273545D01*
X83502236Y-113319282D01*
X83502234Y-113319283D01*
X83441443Y-113380074D01*
X83441442Y-113380076D01*
X83395705Y-113452864D01*
X83367312Y-113534009D01*
X83367311Y-113534014D01*
X83357686Y-113619440D01*
X77734663Y-113619440D01*
X77749188Y-113577929D01*
X77758814Y-113492500D01*
X77749188Y-113407071D01*
X77720795Y-113325926D01*
X77717169Y-113320156D01*
X77675057Y-113253136D01*
X77675056Y-113253134D01*
X77614265Y-113192343D01*
X77614263Y-113192342D01*
X77541475Y-113146605D01*
X77460330Y-113118212D01*
X77460325Y-113118211D01*
X77374900Y-113108586D01*
X77289474Y-113118211D01*
X77289469Y-113118212D01*
X77208324Y-113146605D01*
X77135536Y-113192342D01*
X77135534Y-113192343D01*
X77074743Y-113253134D01*
X77074742Y-113253136D01*
X77029005Y-113325924D01*
X77000612Y-113407069D01*
X77000611Y-113407074D01*
X76990986Y-113492500D01*
X74533014Y-113492500D01*
X74523388Y-113407071D01*
X74494995Y-113325926D01*
X74491369Y-113320156D01*
X74449257Y-113253136D01*
X74449256Y-113253134D01*
X74388465Y-113192343D01*
X74388463Y-113192342D01*
X74315675Y-113146605D01*
X74234530Y-113118212D01*
X74234525Y-113118211D01*
X74149100Y-113108586D01*
X74063674Y-113118211D01*
X74063669Y-113118212D01*
X73982524Y-113146605D01*
X73909736Y-113192342D01*
X73909734Y-113192343D01*
X73848943Y-113253134D01*
X73848942Y-113253136D01*
X73803205Y-113325924D01*
X73774812Y-113407069D01*
X73774811Y-113407074D01*
X73765186Y-113492500D01*
X70254500Y-113492500D01*
X70254500Y-112857500D01*
X73003186Y-112857500D01*
X73012811Y-112942925D01*
X73012812Y-112942930D01*
X73041205Y-113024075D01*
X73086942Y-113096863D01*
X73086943Y-113096865D01*
X73147734Y-113157656D01*
X73147736Y-113157657D01*
X73202935Y-113192342D01*
X73220526Y-113203395D01*
X73301671Y-113231788D01*
X73387100Y-113241414D01*
X73472529Y-113231788D01*
X73553674Y-113203395D01*
X73626466Y-113157656D01*
X73687256Y-113096866D01*
X73732995Y-113024074D01*
X73761388Y-112942929D01*
X73771014Y-112857500D01*
X73761388Y-112772071D01*
X73732995Y-112690926D01*
X73726713Y-112680929D01*
X73687257Y-112618136D01*
X73687256Y-112618134D01*
X73626465Y-112557343D01*
X73626463Y-112557342D01*
X73553675Y-112511605D01*
X73472530Y-112483212D01*
X73472525Y-112483211D01*
X73387100Y-112473586D01*
X73301674Y-112483211D01*
X73301669Y-112483212D01*
X73220524Y-112511605D01*
X73147736Y-112557342D01*
X73147734Y-112557343D01*
X73086943Y-112618134D01*
X73086942Y-112618136D01*
X73041205Y-112690924D01*
X73012812Y-112772069D01*
X73012811Y-112772074D01*
X73003186Y-112857500D01*
X70254500Y-112857500D01*
X70254500Y-90317000D01*
X70264422Y-90283210D01*
X70291037Y-90260148D01*
X70317000Y-90254500D01*
X99314000Y-90254500D01*
X99314000Y-91322821D01*
G37*
%TD.AperFunction*%
%TA.AperFunction,Conductor*%
G36*
X88241433Y-111110002D02*
G01*
X88260559Y-111129323D01*
X88262044Y-111131686D01*
X88262048Y-111131690D01*
X88322834Y-111192476D01*
X88322836Y-111192477D01*
X88390730Y-111235139D01*
X88395626Y-111238215D01*
X88476771Y-111266608D01*
X88562200Y-111276234D01*
X88647629Y-111266608D01*
X88728774Y-111238215D01*
X88801566Y-111192476D01*
X88861406Y-111132636D01*
X88892315Y-111115758D01*
X88927442Y-111118271D01*
X88955634Y-111139375D01*
X88967941Y-111172371D01*
X88968100Y-111176830D01*
X88968100Y-111788935D01*
X88958178Y-111822725D01*
X88949794Y-111833129D01*
X88837910Y-111945014D01*
X88807002Y-111961892D01*
X88793716Y-111963320D01*
X88404413Y-111963320D01*
X88346152Y-111978932D01*
X88346150Y-111978933D01*
X88293907Y-112009094D01*
X88281728Y-112021273D01*
X88250818Y-112038149D01*
X88230540Y-112039183D01*
X88206601Y-112036486D01*
X88206600Y-112036486D01*
X88121174Y-112046111D01*
X88121169Y-112046112D01*
X88040024Y-112074505D01*
X87967237Y-112120241D01*
X87914483Y-112172995D01*
X87883574Y-112189872D01*
X87870289Y-112191300D01*
X87721760Y-112191300D01*
X87687970Y-112181378D01*
X87664908Y-112154763D01*
X87663618Y-112151728D01*
X87649824Y-112116749D01*
X87649819Y-112116740D01*
X87626003Y-112085335D01*
X87605389Y-112058151D01*
X87570540Y-112031724D01*
X87546799Y-112013720D01*
X87546792Y-112013716D01*
X87543125Y-112012270D01*
X87515333Y-111990641D01*
X87503647Y-111957420D01*
X87503560Y-111954130D01*
X87503560Y-111948918D01*
X87503559Y-111948912D01*
X87492064Y-111906015D01*
X87487947Y-111890651D01*
X87477042Y-111871763D01*
X87457786Y-111838409D01*
X87412953Y-111793576D01*
X87412942Y-111793566D01*
X87280266Y-111660890D01*
X87263388Y-111629981D01*
X87261960Y-111616696D01*
X87261960Y-111481677D01*
X87260519Y-111466309D01*
X87260519Y-111466307D01*
X87237868Y-111401576D01*
X87197144Y-111346396D01*
X87146971Y-111309367D01*
X87125676Y-111281319D01*
X87122924Y-111246210D01*
X87139591Y-111215188D01*
X87146971Y-111208793D01*
X87169078Y-111192477D01*
X87197144Y-111171764D01*
X87231314Y-111125464D01*
X87259360Y-111104171D01*
X87281600Y-111100080D01*
X88207643Y-111100080D01*
X88241433Y-111110002D01*
G37*
%TD.AperFunction*%
%TD*%
%TA.AperFunction,Conductor*%
%TO.N,GND3*%
G36*
X91106490Y-110804722D02*
G01*
X91129552Y-110831337D01*
X91135200Y-110857300D01*
X91135200Y-112674400D01*
X91421694Y-112960894D01*
X91438572Y-112991803D01*
X91440000Y-113005088D01*
X91440000Y-114909112D01*
X91430078Y-114942902D01*
X91421694Y-114953306D01*
X90747106Y-115627894D01*
X90716197Y-115644772D01*
X90702912Y-115646200D01*
X88671888Y-115646200D01*
X88638098Y-115636278D01*
X88627694Y-115627894D01*
X88029306Y-115029506D01*
X88012428Y-114998597D01*
X88011000Y-114985312D01*
X88011000Y-113563888D01*
X88020922Y-113530098D01*
X88029306Y-113519694D01*
X88856294Y-112692706D01*
X88887203Y-112675828D01*
X88900488Y-112674400D01*
X90170000Y-112674400D01*
X90170000Y-110857300D01*
X90179922Y-110823510D01*
X90206537Y-110800448D01*
X90232500Y-110794800D01*
X91072700Y-110794800D01*
X91106490Y-110804722D01*
G37*
%TD.AperFunction*%
%TD*%
%TA.AperFunction,Conductor*%
%TO.N,Net-(U2-INBK)*%
G36*
X100188730Y-105038922D02*
G01*
X100211792Y-105065537D01*
X100217440Y-105091500D01*
X100217440Y-106171560D01*
X100343700Y-106171560D01*
X100377490Y-106181482D01*
X100400552Y-106208097D01*
X100406200Y-106234060D01*
X100406200Y-106426000D01*
X100623100Y-106426000D01*
X100656890Y-106435922D01*
X100679952Y-106462537D01*
X100685600Y-106488500D01*
X100685600Y-107252500D01*
X100675678Y-107286290D01*
X100649063Y-107309352D01*
X100623100Y-107315000D01*
X98919300Y-107315000D01*
X98885510Y-107305078D01*
X98862448Y-107278463D01*
X98856800Y-107252500D01*
X98856800Y-106488500D01*
X98866722Y-106454710D01*
X98893337Y-106431648D01*
X98919300Y-106426000D01*
X99822000Y-106426000D01*
X99822000Y-105091500D01*
X99831922Y-105057710D01*
X99858537Y-105034648D01*
X99884500Y-105029000D01*
X100154940Y-105029000D01*
X100188730Y-105038922D01*
G37*
%TD.AperFunction*%
%TD*%
%TA.AperFunction,Conductor*%
%TO.N,GND3*%
G36*
X102547702Y-106435922D02*
G01*
X102558106Y-106444306D01*
X102724694Y-106610894D01*
X102741572Y-106641803D01*
X102743000Y-106655088D01*
X102743000Y-109905800D01*
X104077500Y-109905800D01*
X104111290Y-109915722D01*
X104134352Y-109942337D01*
X104140000Y-109968300D01*
X104140000Y-111291100D01*
X104130078Y-111324890D01*
X104103463Y-111347952D01*
X104077500Y-111353600D01*
X101335340Y-111353600D01*
X101301550Y-111343678D01*
X101278488Y-111317063D01*
X101272840Y-111291100D01*
X101272840Y-109511105D01*
X101272839Y-109511095D01*
X101270157Y-109486150D01*
X101269800Y-109479478D01*
X101269800Y-107474975D01*
X101270300Y-107467357D01*
X101270300Y-106659814D01*
X101280222Y-106626024D01*
X101288606Y-106615620D01*
X101459921Y-106444306D01*
X101490830Y-106427428D01*
X101504115Y-106426000D01*
X102513912Y-106426000D01*
X102547702Y-106435922D01*
G37*
%TD.AperFunction*%
%TD*%
%TA.AperFunction,Conductor*%
%TO.N,/pmu/VDDH*%
G36*
X101114090Y-109458522D02*
G01*
X101137152Y-109485137D01*
X101142800Y-109511100D01*
X101142800Y-111506000D01*
X101537500Y-111506000D01*
X101571290Y-111515922D01*
X101594352Y-111542537D01*
X101600000Y-111568500D01*
X101600000Y-112764300D01*
X101590078Y-112798090D01*
X101563463Y-112821152D01*
X101537500Y-112826800D01*
X101000600Y-112826800D01*
X100966810Y-112816878D01*
X100943748Y-112790263D01*
X100938100Y-112764300D01*
X100938100Y-112600520D01*
X100138500Y-112600520D01*
X100104710Y-112590598D01*
X100081648Y-112563983D01*
X100076000Y-112538020D01*
X100076000Y-112445800D01*
X99586306Y-111956106D01*
X99569428Y-111925197D01*
X99568000Y-111911912D01*
X99568000Y-109511100D01*
X99577922Y-109477310D01*
X99604537Y-109454248D01*
X99630500Y-109448600D01*
X101080300Y-109448600D01*
X101114090Y-109458522D01*
G37*
%TD.AperFunction*%
%TD*%
%TA.AperFunction,Conductor*%
%TO.N,GND3*%
G36*
X119716790Y-90264422D02*
G01*
X119739852Y-90291037D01*
X119745500Y-90317000D01*
X119745500Y-129683000D01*
X119735578Y-129716790D01*
X119708963Y-129739852D01*
X119683000Y-129745500D01*
X90678000Y-129745500D01*
X90678000Y-127460495D01*
X90928707Y-127460495D01*
X90928707Y-127460504D01*
X90939063Y-127592100D01*
X90939064Y-127592104D01*
X90969881Y-127720468D01*
X90969882Y-127720470D01*
X90969883Y-127720474D01*
X91020402Y-127842439D01*
X91056790Y-127901819D01*
X91089377Y-127954996D01*
X91175115Y-128055384D01*
X91235651Y-128107086D01*
X91275500Y-128141120D01*
X91388061Y-128210098D01*
X91510026Y-128260617D01*
X91638393Y-128291435D01*
X91638395Y-128291435D01*
X91638399Y-128291436D01*
X91769996Y-128301793D01*
X91770000Y-128301793D01*
X91770004Y-128301793D01*
X91901600Y-128291436D01*
X91901602Y-128291435D01*
X91901607Y-128291435D01*
X92029974Y-128260617D01*
X92151939Y-128210098D01*
X92264500Y-128141120D01*
X92364884Y-128055384D01*
X92450620Y-127955000D01*
X92519598Y-127842439D01*
X92570117Y-127720474D01*
X92600935Y-127592107D01*
X92611293Y-127460500D01*
X92611293Y-127460495D01*
X93468707Y-127460495D01*
X93468707Y-127460504D01*
X93479063Y-127592100D01*
X93479064Y-127592104D01*
X93509881Y-127720468D01*
X93509882Y-127720470D01*
X93509883Y-127720474D01*
X93560402Y-127842439D01*
X93596790Y-127901819D01*
X93629377Y-127954996D01*
X93715115Y-128055384D01*
X93775651Y-128107086D01*
X93815500Y-128141120D01*
X93928061Y-128210098D01*
X94050026Y-128260617D01*
X94178393Y-128291435D01*
X94178395Y-128291435D01*
X94178399Y-128291436D01*
X94309996Y-128301793D01*
X94310000Y-128301793D01*
X94310004Y-128301793D01*
X94441600Y-128291436D01*
X94441602Y-128291435D01*
X94441607Y-128291435D01*
X94569974Y-128260617D01*
X94691939Y-128210098D01*
X94804500Y-128141120D01*
X94904884Y-128055384D01*
X94990620Y-127955000D01*
X95059598Y-127842439D01*
X95110117Y-127720474D01*
X95140935Y-127592107D01*
X95151293Y-127460500D01*
X95151293Y-127460495D01*
X96008707Y-127460495D01*
X96008707Y-127460504D01*
X96019063Y-127592100D01*
X96019064Y-127592104D01*
X96049881Y-127720468D01*
X96049882Y-127720470D01*
X96049883Y-127720474D01*
X96100402Y-127842439D01*
X96136790Y-127901819D01*
X96169377Y-127954996D01*
X96255115Y-128055384D01*
X96315651Y-128107086D01*
X96355500Y-128141120D01*
X96468061Y-128210098D01*
X96590026Y-128260617D01*
X96718393Y-128291435D01*
X96718395Y-128291435D01*
X96718399Y-128291436D01*
X96849996Y-128301793D01*
X96850000Y-128301793D01*
X96850004Y-128301793D01*
X96981600Y-128291436D01*
X96981602Y-128291435D01*
X96981607Y-128291435D01*
X97109974Y-128260617D01*
X97231939Y-128210098D01*
X97344500Y-128141120D01*
X97444884Y-128055384D01*
X97530620Y-127955000D01*
X97599598Y-127842439D01*
X97650117Y-127720474D01*
X97680935Y-127592107D01*
X97691293Y-127460500D01*
X97691293Y-127460495D01*
X98548707Y-127460495D01*
X98548707Y-127460504D01*
X98559063Y-127592100D01*
X98559064Y-127592104D01*
X98589881Y-127720468D01*
X98589882Y-127720470D01*
X98589883Y-127720474D01*
X98640402Y-127842439D01*
X98676790Y-127901819D01*
X98709377Y-127954996D01*
X98795115Y-128055384D01*
X98855651Y-128107086D01*
X98895500Y-128141120D01*
X99008061Y-128210098D01*
X99130026Y-128260617D01*
X99258393Y-128291435D01*
X99258395Y-128291435D01*
X99258399Y-128291436D01*
X99389996Y-128301793D01*
X99390000Y-128301793D01*
X99390004Y-128301793D01*
X99521600Y-128291436D01*
X99521602Y-128291435D01*
X99521607Y-128291435D01*
X99649974Y-128260617D01*
X99771939Y-128210098D01*
X99884500Y-128141120D01*
X99984884Y-128055384D01*
X100070620Y-127955000D01*
X100139598Y-127842439D01*
X100190117Y-127720474D01*
X100220935Y-127592107D01*
X100231293Y-127460500D01*
X100231293Y-127460495D01*
X100220936Y-127328899D01*
X100220935Y-127328895D01*
X100190118Y-127200531D01*
X100190117Y-127200526D01*
X100139598Y-127078561D01*
X100070620Y-126966000D01*
X100036586Y-126926151D01*
X99984884Y-126865615D01*
X99884496Y-126779877D01*
X99831319Y-126747290D01*
X99771939Y-126710902D01*
X99649974Y-126660383D01*
X99649970Y-126660382D01*
X99649968Y-126660381D01*
X99521604Y-126629564D01*
X99521600Y-126629563D01*
X99390004Y-126619207D01*
X99389996Y-126619207D01*
X99258399Y-126629563D01*
X99258395Y-126629564D01*
X99130031Y-126660381D01*
X99130029Y-126660382D01*
X99130027Y-126660382D01*
X99130026Y-126660383D01*
X99008061Y-126710902D01*
X98895503Y-126779877D01*
X98795115Y-126865615D01*
X98709377Y-126966003D01*
X98640402Y-127078561D01*
X98589882Y-127200529D01*
X98589881Y-127200531D01*
X98559064Y-127328895D01*
X98559063Y-127328899D01*
X98548707Y-127460495D01*
X97691293Y-127460495D01*
X97680936Y-127328899D01*
X97680935Y-127328895D01*
X97650118Y-127200531D01*
X97650117Y-127200526D01*
X97599598Y-127078561D01*
X97530620Y-126966000D01*
X97496586Y-126926151D01*
X97444884Y-126865615D01*
X97344496Y-126779877D01*
X97291319Y-126747290D01*
X97231939Y-126710902D01*
X97109974Y-126660383D01*
X97109970Y-126660382D01*
X97109968Y-126660381D01*
X96981604Y-126629564D01*
X96981600Y-126629563D01*
X96850004Y-126619207D01*
X96849996Y-126619207D01*
X96718399Y-126629563D01*
X96718395Y-126629564D01*
X96590031Y-126660381D01*
X96590029Y-126660382D01*
X96590027Y-126660382D01*
X96590026Y-126660383D01*
X96468061Y-126710902D01*
X96355503Y-126779877D01*
X96255115Y-126865615D01*
X96169377Y-126966003D01*
X96100402Y-127078561D01*
X96049882Y-127200529D01*
X96049881Y-127200531D01*
X96019064Y-127328895D01*
X96019063Y-127328899D01*
X96008707Y-127460495D01*
X95151293Y-127460495D01*
X95140936Y-127328899D01*
X95140935Y-127328895D01*
X95110118Y-127200531D01*
X95110117Y-127200526D01*
X95059598Y-127078561D01*
X94990620Y-126966000D01*
X94956586Y-126926151D01*
X94904884Y-126865615D01*
X94804496Y-126779877D01*
X94751319Y-126747290D01*
X94691939Y-126710902D01*
X94569974Y-126660383D01*
X94569970Y-126660382D01*
X94569968Y-126660381D01*
X94441604Y-126629564D01*
X94441600Y-126629563D01*
X94310004Y-126619207D01*
X94309996Y-126619207D01*
X94178399Y-126629563D01*
X94178395Y-126629564D01*
X94050031Y-126660381D01*
X94050029Y-126660382D01*
X94050027Y-126660382D01*
X94050026Y-126660383D01*
X93928061Y-126710902D01*
X93815503Y-126779877D01*
X93715115Y-126865615D01*
X93629377Y-126966003D01*
X93560402Y-127078561D01*
X93509882Y-127200529D01*
X93509881Y-127200531D01*
X93479064Y-127328895D01*
X93479063Y-127328899D01*
X93468707Y-127460495D01*
X92611293Y-127460495D01*
X92600936Y-127328899D01*
X92600935Y-127328895D01*
X92570118Y-127200531D01*
X92570117Y-127200526D01*
X92519598Y-127078561D01*
X92450620Y-126966000D01*
X92416586Y-126926151D01*
X92364884Y-126865615D01*
X92264496Y-126779877D01*
X92211319Y-126747290D01*
X92151939Y-126710902D01*
X92029974Y-126660383D01*
X92029970Y-126660382D01*
X92029968Y-126660381D01*
X91901604Y-126629564D01*
X91901600Y-126629563D01*
X91770004Y-126619207D01*
X91769996Y-126619207D01*
X91638399Y-126629563D01*
X91638395Y-126629564D01*
X91510031Y-126660381D01*
X91510029Y-126660382D01*
X91510027Y-126660382D01*
X91510026Y-126660383D01*
X91388061Y-126710902D01*
X91275503Y-126779877D01*
X91175115Y-126865615D01*
X91089377Y-126966003D01*
X91020402Y-127078561D01*
X90969882Y-127200529D01*
X90969881Y-127200531D01*
X90939064Y-127328895D01*
X90939063Y-127328899D01*
X90928707Y-127460495D01*
X90678000Y-127460495D01*
X90678000Y-124920495D01*
X90928707Y-124920495D01*
X90928707Y-124920504D01*
X90939063Y-125052100D01*
X90939064Y-125052104D01*
X90969881Y-125180468D01*
X90969882Y-125180470D01*
X90969883Y-125180474D01*
X91020402Y-125302439D01*
X91056790Y-125361819D01*
X91089377Y-125414996D01*
X91175115Y-125515384D01*
X91235651Y-125567086D01*
X91275500Y-125601120D01*
X91388061Y-125670098D01*
X91510026Y-125720617D01*
X91638393Y-125751435D01*
X91638395Y-125751435D01*
X91638399Y-125751436D01*
X91769996Y-125761793D01*
X91770000Y-125761793D01*
X91770004Y-125761793D01*
X91901600Y-125751436D01*
X91901602Y-125751435D01*
X91901607Y-125751435D01*
X92029974Y-125720617D01*
X92151939Y-125670098D01*
X92264500Y-125601120D01*
X92364884Y-125515384D01*
X92450620Y-125415000D01*
X92519598Y-125302439D01*
X92570117Y-125180474D01*
X92600935Y-125052107D01*
X92611293Y-124920500D01*
X92611293Y-124920495D01*
X93468707Y-124920495D01*
X93468707Y-124920504D01*
X93479063Y-125052100D01*
X93479064Y-125052104D01*
X93509881Y-125180468D01*
X93509882Y-125180470D01*
X93509883Y-125180474D01*
X93560402Y-125302439D01*
X93596790Y-125361819D01*
X93629377Y-125414996D01*
X93715115Y-125515384D01*
X93775651Y-125567086D01*
X93815500Y-125601120D01*
X93928061Y-125670098D01*
X94050026Y-125720617D01*
X94178393Y-125751435D01*
X94178395Y-125751435D01*
X94178399Y-125751436D01*
X94309996Y-125761793D01*
X94310000Y-125761793D01*
X94310004Y-125761793D01*
X94441600Y-125751436D01*
X94441602Y-125751435D01*
X94441607Y-125751435D01*
X94569974Y-125720617D01*
X94691939Y-125670098D01*
X94804500Y-125601120D01*
X94904884Y-125515384D01*
X94990620Y-125415000D01*
X95059598Y-125302439D01*
X95110117Y-125180474D01*
X95140935Y-125052107D01*
X95151293Y-124920500D01*
X95151293Y-124920495D01*
X96008707Y-124920495D01*
X96008707Y-124920504D01*
X96019063Y-125052100D01*
X96019064Y-125052104D01*
X96049881Y-125180468D01*
X96049882Y-125180470D01*
X96049883Y-125180474D01*
X96100402Y-125302439D01*
X96136790Y-125361819D01*
X96169377Y-125414996D01*
X96255115Y-125515384D01*
X96315651Y-125567086D01*
X96355500Y-125601120D01*
X96468061Y-125670098D01*
X96590026Y-125720617D01*
X96718393Y-125751435D01*
X96718395Y-125751435D01*
X96718399Y-125751436D01*
X96849996Y-125761793D01*
X96850000Y-125761793D01*
X96850004Y-125761793D01*
X96981600Y-125751436D01*
X96981602Y-125751435D01*
X96981607Y-125751435D01*
X97109974Y-125720617D01*
X97231939Y-125670098D01*
X97344500Y-125601120D01*
X97444884Y-125515384D01*
X97530620Y-125415000D01*
X97599598Y-125302439D01*
X97650117Y-125180474D01*
X97680935Y-125052107D01*
X97691293Y-124920500D01*
X97691293Y-124920495D01*
X98548707Y-124920495D01*
X98548707Y-124920504D01*
X98559063Y-125052100D01*
X98559064Y-125052104D01*
X98589881Y-125180468D01*
X98589882Y-125180470D01*
X98589883Y-125180474D01*
X98640402Y-125302439D01*
X98676790Y-125361819D01*
X98709377Y-125414996D01*
X98795115Y-125515384D01*
X98855651Y-125567086D01*
X98895500Y-125601120D01*
X99008061Y-125670098D01*
X99130026Y-125720617D01*
X99258393Y-125751435D01*
X99258395Y-125751435D01*
X99258399Y-125751436D01*
X99389996Y-125761793D01*
X99390000Y-125761793D01*
X99390004Y-125761793D01*
X99521600Y-125751436D01*
X99521602Y-125751435D01*
X99521607Y-125751435D01*
X99649974Y-125720617D01*
X99771939Y-125670098D01*
X99884500Y-125601120D01*
X99984884Y-125515384D01*
X100070620Y-125415000D01*
X100139598Y-125302439D01*
X100190117Y-125180474D01*
X100220935Y-125052107D01*
X100231293Y-124920500D01*
X100231293Y-124920495D01*
X101088707Y-124920495D01*
X101088707Y-124920504D01*
X101099063Y-125052100D01*
X101099064Y-125052104D01*
X101129881Y-125180468D01*
X101129882Y-125180470D01*
X101129883Y-125180474D01*
X101180402Y-125302439D01*
X101216790Y-125361819D01*
X101249377Y-125414996D01*
X101335115Y-125515384D01*
X101395651Y-125567086D01*
X101435500Y-125601120D01*
X101548061Y-125670098D01*
X101670026Y-125720617D01*
X101798393Y-125751435D01*
X101798395Y-125751435D01*
X101798399Y-125751436D01*
X101929996Y-125761793D01*
X101930000Y-125761793D01*
X101930004Y-125761793D01*
X102061600Y-125751436D01*
X102061602Y-125751435D01*
X102061607Y-125751435D01*
X102189974Y-125720617D01*
X102311939Y-125670098D01*
X102424500Y-125601120D01*
X102524884Y-125515384D01*
X102610620Y-125415000D01*
X102679598Y-125302439D01*
X102730117Y-125180474D01*
X102760935Y-125052107D01*
X102771293Y-124920500D01*
X102771293Y-124920495D01*
X102760936Y-124788899D01*
X102760935Y-124788895D01*
X102730118Y-124660531D01*
X102730117Y-124660526D01*
X102679598Y-124538561D01*
X102610620Y-124426000D01*
X102576586Y-124386151D01*
X102524884Y-124325615D01*
X102424496Y-124239877D01*
X102371319Y-124207290D01*
X102311939Y-124170902D01*
X102189974Y-124120383D01*
X102189970Y-124120382D01*
X102189968Y-124120381D01*
X102061604Y-124089564D01*
X102061600Y-124089563D01*
X101930004Y-124079207D01*
X101929996Y-124079207D01*
X101798399Y-124089563D01*
X101798395Y-124089564D01*
X101670031Y-124120381D01*
X101670029Y-124120382D01*
X101670027Y-124120382D01*
X101670026Y-124120383D01*
X101548061Y-124170902D01*
X101435503Y-124239877D01*
X101335115Y-124325615D01*
X101249377Y-124426003D01*
X101180402Y-124538561D01*
X101129882Y-124660529D01*
X101129881Y-124660531D01*
X101099064Y-124788895D01*
X101099063Y-124788899D01*
X101088707Y-124920495D01*
X100231293Y-124920495D01*
X100220936Y-124788899D01*
X100220935Y-124788895D01*
X100190118Y-124660531D01*
X100190117Y-124660526D01*
X100139598Y-124538561D01*
X100070620Y-124426000D01*
X100036586Y-124386151D01*
X99984884Y-124325615D01*
X99884496Y-124239877D01*
X99831319Y-124207290D01*
X99771939Y-124170902D01*
X99649974Y-124120383D01*
X99649970Y-124120382D01*
X99649968Y-124120381D01*
X99521604Y-124089564D01*
X99521600Y-124089563D01*
X99390004Y-124079207D01*
X99389996Y-124079207D01*
X99258399Y-124089563D01*
X99258395Y-124089564D01*
X99130031Y-124120381D01*
X99130029Y-124120382D01*
X99130027Y-124120382D01*
X99130026Y-124120383D01*
X99008061Y-124170902D01*
X98895503Y-124239877D01*
X98795115Y-124325615D01*
X98709377Y-124426003D01*
X98640402Y-124538561D01*
X98589882Y-124660529D01*
X98589881Y-124660531D01*
X98559064Y-124788895D01*
X98559063Y-124788899D01*
X98548707Y-124920495D01*
X97691293Y-124920495D01*
X97680936Y-124788899D01*
X97680935Y-124788895D01*
X97650118Y-124660531D01*
X97650117Y-124660526D01*
X97599598Y-124538561D01*
X97530620Y-124426000D01*
X97496586Y-124386151D01*
X97444884Y-124325615D01*
X97344496Y-124239877D01*
X97291319Y-124207290D01*
X97231939Y-124170902D01*
X97109974Y-124120383D01*
X97109970Y-124120382D01*
X97109968Y-124120381D01*
X96981604Y-124089564D01*
X96981600Y-124089563D01*
X96850004Y-124079207D01*
X96849996Y-124079207D01*
X96718399Y-124089563D01*
X96718395Y-124089564D01*
X96590031Y-124120381D01*
X96590029Y-124120382D01*
X96590027Y-124120382D01*
X96590026Y-124120383D01*
X96468061Y-124170902D01*
X96355503Y-124239877D01*
X96255115Y-124325615D01*
X96169377Y-124426003D01*
X96100402Y-124538561D01*
X96049882Y-124660529D01*
X96049881Y-124660531D01*
X96019064Y-124788895D01*
X96019063Y-124788899D01*
X96008707Y-124920495D01*
X95151293Y-124920495D01*
X95140936Y-124788899D01*
X95140935Y-124788895D01*
X95110118Y-124660531D01*
X95110117Y-124660526D01*
X95059598Y-124538561D01*
X94990620Y-124426000D01*
X94956586Y-124386151D01*
X94904884Y-124325615D01*
X94804496Y-124239877D01*
X94751319Y-124207290D01*
X94691939Y-124170902D01*
X94569974Y-124120383D01*
X94569970Y-124120382D01*
X94569968Y-124120381D01*
X94441604Y-124089564D01*
X94441600Y-124089563D01*
X94310004Y-124079207D01*
X94309996Y-124079207D01*
X94178399Y-124089563D01*
X94178395Y-124089564D01*
X94050031Y-124120381D01*
X94050029Y-124120382D01*
X94050027Y-124120382D01*
X94050026Y-124120383D01*
X93928061Y-124170902D01*
X93815503Y-124239877D01*
X93715115Y-124325615D01*
X93629377Y-124426003D01*
X93560402Y-124538561D01*
X93509882Y-124660529D01*
X93509881Y-124660531D01*
X93479064Y-124788895D01*
X93479063Y-124788899D01*
X93468707Y-124920495D01*
X92611293Y-124920495D01*
X92600936Y-124788899D01*
X92600935Y-124788895D01*
X92570118Y-124660531D01*
X92570117Y-124660526D01*
X92519598Y-124538561D01*
X92450620Y-124426000D01*
X92416586Y-124386151D01*
X92364884Y-124325615D01*
X92264496Y-124239877D01*
X92211319Y-124207290D01*
X92151939Y-124170902D01*
X92029974Y-124120383D01*
X92029970Y-124120382D01*
X92029968Y-124120381D01*
X91901604Y-124089564D01*
X91901600Y-124089563D01*
X91770004Y-124079207D01*
X91769996Y-124079207D01*
X91638399Y-124089563D01*
X91638395Y-124089564D01*
X91510031Y-124120381D01*
X91510029Y-124120382D01*
X91510027Y-124120382D01*
X91510026Y-124120383D01*
X91388061Y-124170902D01*
X91275503Y-124239877D01*
X91175115Y-124325615D01*
X91089377Y-124426003D01*
X91020402Y-124538561D01*
X90969882Y-124660529D01*
X90969881Y-124660531D01*
X90939064Y-124788895D01*
X90939063Y-124788899D01*
X90928707Y-124920495D01*
X90678000Y-124920495D01*
X90678000Y-119268794D01*
X91686560Y-119268794D01*
X91696185Y-119354219D01*
X91696186Y-119354224D01*
X91724579Y-119435369D01*
X91763498Y-119497307D01*
X91770318Y-119508160D01*
X91831108Y-119568950D01*
X91903900Y-119614689D01*
X91985045Y-119643082D01*
X92070474Y-119652708D01*
X92155903Y-119643082D01*
X92237048Y-119614689D01*
X92309840Y-119568950D01*
X92370630Y-119508160D01*
X92416369Y-119435368D01*
X92444762Y-119354223D01*
X92454388Y-119268794D01*
X92444762Y-119183365D01*
X92416369Y-119102220D01*
X92370630Y-119029428D01*
X92309840Y-118968638D01*
X92309839Y-118968637D01*
X92309837Y-118968636D01*
X92237049Y-118922899D01*
X92155904Y-118894506D01*
X92155899Y-118894505D01*
X92070474Y-118884880D01*
X91985048Y-118894505D01*
X91985043Y-118894506D01*
X91903898Y-118922899D01*
X91831110Y-118968636D01*
X91831108Y-118968637D01*
X91770317Y-119029428D01*
X91770316Y-119029430D01*
X91724579Y-119102218D01*
X91696186Y-119183363D01*
X91696185Y-119183368D01*
X91686560Y-119268794D01*
X90678000Y-119268794D01*
X90678000Y-118270520D01*
X92357715Y-118270520D01*
X92391505Y-118280442D01*
X92401908Y-118288825D01*
X93810733Y-119697651D01*
X93833946Y-119711053D01*
X93868760Y-119731153D01*
X93868762Y-119731153D01*
X93868766Y-119731156D01*
X93908377Y-119741769D01*
X93933489Y-119748499D01*
X93933491Y-119748499D01*
X93933494Y-119748500D01*
X96704695Y-119748500D01*
X96738485Y-119758422D01*
X96748889Y-119766806D01*
X96994540Y-120012457D01*
X97011418Y-120043366D01*
X97012270Y-120051292D01*
X97012453Y-120051272D01*
X97022471Y-120140185D01*
X97022472Y-120140190D01*
X97050865Y-120221335D01*
X97096602Y-120294123D01*
X97096604Y-120294126D01*
X97157394Y-120354916D01*
X97230186Y-120400655D01*
X97311331Y-120429048D01*
X97396760Y-120438674D01*
X97396760Y-120438673D01*
X97400249Y-120439067D01*
X97400119Y-120440215D01*
X97428659Y-120448596D01*
X97439062Y-120456979D01*
X98800933Y-121818851D01*
X98824146Y-121832253D01*
X98858960Y-121852353D01*
X98858962Y-121852353D01*
X98858966Y-121852356D01*
X98898577Y-121862969D01*
X98923689Y-121869699D01*
X98923691Y-121869699D01*
X98923694Y-121869700D01*
X98923696Y-121869700D01*
X107145306Y-121869700D01*
X107145311Y-121869699D01*
X107164539Y-121864546D01*
X107210033Y-121852356D01*
X107268067Y-121818851D01*
X107315451Y-121771467D01*
X107315451Y-121771465D01*
X107320592Y-121766325D01*
X107320596Y-121766320D01*
X110341576Y-118745340D01*
X110725446Y-118745340D01*
X110735071Y-118830765D01*
X110735072Y-118830770D01*
X110763465Y-118911915D01*
X110809202Y-118984703D01*
X110809204Y-118984706D01*
X110869994Y-119045496D01*
X110942786Y-119091235D01*
X111023931Y-119119628D01*
X111109360Y-119129254D01*
X111194789Y-119119628D01*
X111275934Y-119091235D01*
X111348726Y-119045496D01*
X111409516Y-118984706D01*
X111455255Y-118911914D01*
X111483648Y-118830769D01*
X111493274Y-118745340D01*
X111483648Y-118659911D01*
X111455255Y-118578766D01*
X111450417Y-118571067D01*
X111409517Y-118505976D01*
X111409516Y-118505974D01*
X111348725Y-118445183D01*
X111348723Y-118445182D01*
X111275935Y-118399445D01*
X111194790Y-118371052D01*
X111194785Y-118371051D01*
X111109360Y-118361426D01*
X111023934Y-118371051D01*
X111023929Y-118371052D01*
X110942784Y-118399445D01*
X110869996Y-118445182D01*
X110869994Y-118445183D01*
X110809203Y-118505974D01*
X110809202Y-118505976D01*
X110763465Y-118578764D01*
X110735072Y-118659909D01*
X110735071Y-118659914D01*
X110725446Y-118745340D01*
X110341576Y-118745340D01*
X110478560Y-118608356D01*
X110478565Y-118608352D01*
X110483705Y-118603211D01*
X110483707Y-118603211D01*
X110531091Y-118555827D01*
X110564596Y-118497793D01*
X110566459Y-118490840D01*
X110581941Y-118433065D01*
X110581941Y-118366054D01*
X110581941Y-118362230D01*
X110581940Y-118362212D01*
X110581940Y-117475340D01*
X110725446Y-117475340D01*
X110735071Y-117560765D01*
X110735072Y-117560770D01*
X110763465Y-117641915D01*
X110809202Y-117714703D01*
X110809204Y-117714706D01*
X110869994Y-117775496D01*
X110942786Y-117821235D01*
X111023931Y-117849628D01*
X111109360Y-117859254D01*
X111194789Y-117849628D01*
X111275934Y-117821235D01*
X111348726Y-117775496D01*
X111409516Y-117714706D01*
X111455255Y-117641914D01*
X111483648Y-117560769D01*
X111493274Y-117475340D01*
X111483648Y-117389911D01*
X111455255Y-117308766D01*
X111409516Y-117235974D01*
X111348726Y-117175184D01*
X111348725Y-117175183D01*
X111348723Y-117175182D01*
X111275935Y-117129445D01*
X111194790Y-117101052D01*
X111194785Y-117101051D01*
X111109360Y-117091426D01*
X111023934Y-117101051D01*
X111023929Y-117101052D01*
X110942784Y-117129445D01*
X110869996Y-117175182D01*
X110869994Y-117175183D01*
X110809203Y-117235974D01*
X110809202Y-117235976D01*
X110763465Y-117308764D01*
X110735072Y-117389909D01*
X110735071Y-117389914D01*
X110725446Y-117475340D01*
X110581940Y-117475340D01*
X110581940Y-113435625D01*
X110591862Y-113401835D01*
X110600246Y-113391431D01*
X112541266Y-111450411D01*
X114502819Y-109488857D01*
X114533726Y-109471981D01*
X114568853Y-109474494D01*
X114570898Y-109475298D01*
X114659786Y-109512117D01*
X114788153Y-109542935D01*
X114788155Y-109542935D01*
X114788159Y-109542936D01*
X114919756Y-109553293D01*
X114919760Y-109553293D01*
X114919764Y-109553293D01*
X115051360Y-109542936D01*
X115051362Y-109542935D01*
X115051367Y-109542935D01*
X115179734Y-109512117D01*
X115301699Y-109461598D01*
X115414260Y-109392620D01*
X115514644Y-109306884D01*
X115600380Y-109206500D01*
X115669358Y-109093939D01*
X115719877Y-108971974D01*
X115750695Y-108843607D01*
X115752236Y-108824036D01*
X115761053Y-108712004D01*
X115761053Y-108711995D01*
X115750696Y-108580399D01*
X115750695Y-108580395D01*
X115748265Y-108570275D01*
X115719877Y-108452026D01*
X115669358Y-108330061D01*
X115600380Y-108217500D01*
X115556217Y-108165792D01*
X115514644Y-108117115D01*
X115431875Y-108046425D01*
X115414260Y-108031380D01*
X115414258Y-108031378D01*
X115414256Y-108031377D01*
X115361079Y-107998790D01*
X115301699Y-107962402D01*
X115179734Y-107911883D01*
X115179730Y-107911882D01*
X115179728Y-107911881D01*
X115051364Y-107881064D01*
X115051360Y-107881063D01*
X114919764Y-107870707D01*
X114919756Y-107870707D01*
X114788159Y-107881063D01*
X114788155Y-107881064D01*
X114659791Y-107911881D01*
X114659789Y-107911882D01*
X114659787Y-107911882D01*
X114659786Y-107911883D01*
X114603315Y-107935274D01*
X114537821Y-107962402D01*
X114425263Y-108031377D01*
X114324875Y-108117115D01*
X114239137Y-108217503D01*
X114173306Y-108324930D01*
X114170162Y-108330061D01*
X114136016Y-108412499D01*
X114119642Y-108452029D01*
X114119641Y-108452031D01*
X114088824Y-108580395D01*
X114088823Y-108580399D01*
X114078467Y-108711995D01*
X114078467Y-108712004D01*
X114088823Y-108843600D01*
X114088824Y-108843604D01*
X114119641Y-108971968D01*
X114119642Y-108971970D01*
X114119643Y-108971974D01*
X114156448Y-109060830D01*
X114160212Y-109095845D01*
X114144448Y-109127336D01*
X114142899Y-109128941D01*
X113086394Y-110185447D01*
X113055485Y-110202325D01*
X113020359Y-110199812D01*
X112992166Y-110178708D01*
X112979859Y-110145712D01*
X112979700Y-110141253D01*
X112979700Y-107227864D01*
X112989622Y-107194074D01*
X112998001Y-107183675D01*
X114502818Y-105678857D01*
X114533725Y-105661981D01*
X114568851Y-105664494D01*
X114570917Y-105665306D01*
X114659786Y-105702117D01*
X114788153Y-105732935D01*
X114788155Y-105732935D01*
X114788159Y-105732936D01*
X114919756Y-105743293D01*
X114919760Y-105743293D01*
X114919764Y-105743293D01*
X115051360Y-105732936D01*
X115051362Y-105732935D01*
X115051367Y-105732935D01*
X115179734Y-105702117D01*
X115301699Y-105651598D01*
X115414260Y-105582620D01*
X115514644Y-105496884D01*
X115600380Y-105396500D01*
X115669358Y-105283939D01*
X115719877Y-105161974D01*
X115750695Y-105033607D01*
X115750852Y-105031624D01*
X115761053Y-104902004D01*
X115761053Y-104901995D01*
X115750696Y-104770399D01*
X115750695Y-104770395D01*
X115723105Y-104655474D01*
X115719877Y-104642026D01*
X115669358Y-104520061D01*
X115600380Y-104407500D01*
X115557240Y-104356989D01*
X115514644Y-104307115D01*
X115414256Y-104221377D01*
X115356739Y-104186131D01*
X115301699Y-104152402D01*
X115179734Y-104101883D01*
X115179730Y-104101882D01*
X115179728Y-104101881D01*
X115051364Y-104071064D01*
X115051360Y-104071063D01*
X114919764Y-104060707D01*
X114919756Y-104060707D01*
X114788159Y-104071063D01*
X114788155Y-104071064D01*
X114659791Y-104101881D01*
X114659789Y-104101882D01*
X114659787Y-104101882D01*
X114659786Y-104101883D01*
X114537821Y-104152402D01*
X114425263Y-104221377D01*
X114324875Y-104307115D01*
X114239137Y-104407503D01*
X114180757Y-104502772D01*
X114170162Y-104520061D01*
X114121844Y-104636714D01*
X114119642Y-104642029D01*
X114119641Y-104642031D01*
X114088824Y-104770395D01*
X114088823Y-104770399D01*
X114078467Y-104901995D01*
X114078467Y-104902004D01*
X114088823Y-105033600D01*
X114088824Y-105033604D01*
X114119641Y-105161968D01*
X114119642Y-105161970D01*
X114119643Y-105161974D01*
X114143217Y-105218888D01*
X114156448Y-105250831D01*
X114160212Y-105285846D01*
X114144448Y-105317337D01*
X114142899Y-105318942D01*
X112568935Y-106892907D01*
X112521548Y-106940293D01*
X112488045Y-106998323D01*
X112488043Y-106998329D01*
X112470700Y-107063048D01*
X112470700Y-110236438D01*
X112460778Y-110270228D01*
X112452394Y-110280632D01*
X109742788Y-112990237D01*
X109709285Y-113048267D01*
X109709283Y-113048273D01*
X109691940Y-113112992D01*
X109691940Y-118110439D01*
X109682018Y-118144229D01*
X109673634Y-118154633D01*
X106866873Y-120961394D01*
X106835964Y-120978272D01*
X106822679Y-120979700D01*
X99649265Y-120979700D01*
X99615475Y-120969778D01*
X99605071Y-120961394D01*
X97798980Y-119155303D01*
X97782102Y-119124394D01*
X97781250Y-119116468D01*
X97781067Y-119116489D01*
X97778244Y-119091433D01*
X97771048Y-119027571D01*
X97742655Y-118946426D01*
X97696916Y-118873634D01*
X97636126Y-118812844D01*
X97636125Y-118812843D01*
X97636123Y-118812842D01*
X97563335Y-118767105D01*
X97482190Y-118738712D01*
X97482185Y-118738711D01*
X97396760Y-118729086D01*
X97311334Y-118738711D01*
X97311329Y-118738712D01*
X97230184Y-118767105D01*
X97157396Y-118812842D01*
X97157394Y-118812843D01*
X97130044Y-118840194D01*
X97099135Y-118857072D01*
X97085850Y-118858500D01*
X94256122Y-118858500D01*
X94222332Y-118848578D01*
X94211928Y-118840194D01*
X92854055Y-117482322D01*
X92854050Y-117482316D01*
X92847074Y-117475340D01*
X92803103Y-117431369D01*
X92803100Y-117431367D01*
X92803099Y-117431366D01*
X92745072Y-117397865D01*
X92745066Y-117397863D01*
X92680347Y-117380520D01*
X92680342Y-117380520D01*
X90678000Y-117380520D01*
X90678000Y-116840500D01*
X95976879Y-116840500D01*
X96010669Y-116850422D01*
X96021073Y-116858806D01*
X97731145Y-118568878D01*
X97731150Y-118568884D01*
X97733333Y-118571067D01*
X97780717Y-118618451D01*
X97812354Y-118636716D01*
X97812355Y-118636717D01*
X97825552Y-118644336D01*
X97838751Y-118651956D01*
X97903479Y-118669301D01*
X97903482Y-118669301D01*
X97974315Y-118669301D01*
X97974331Y-118669300D01*
X102005395Y-118669300D01*
X102039185Y-118679222D01*
X102049589Y-118687606D01*
X102432680Y-119070697D01*
X102449558Y-119101606D01*
X102450410Y-119109532D01*
X102450593Y-119109512D01*
X102460611Y-119198425D01*
X102460612Y-119198430D01*
X102489005Y-119279575D01*
X102534742Y-119352363D01*
X102534744Y-119352366D01*
X102595534Y-119413156D01*
X102668326Y-119458895D01*
X102749471Y-119487288D01*
X102834900Y-119496914D01*
X102834900Y-119496913D01*
X102838389Y-119497307D01*
X102838259Y-119498455D01*
X102866799Y-119506836D01*
X102877203Y-119515220D01*
X103734261Y-120372278D01*
X103734266Y-120372284D01*
X103736449Y-120374467D01*
X103783833Y-120421851D01*
X103841867Y-120455356D01*
X103906595Y-120472701D01*
X103906598Y-120472701D01*
X103977431Y-120472701D01*
X103977447Y-120472700D01*
X105976906Y-120472700D01*
X105976911Y-120472699D01*
X105996139Y-120467546D01*
X106041633Y-120455356D01*
X106099667Y-120421851D01*
X106147051Y-120374467D01*
X106147051Y-120374465D01*
X106152192Y-120369325D01*
X106152195Y-120369320D01*
X109405871Y-117115647D01*
X109439376Y-117057614D01*
X109456720Y-116992886D01*
X109456720Y-116925875D01*
X109456720Y-105868965D01*
X109466642Y-105835175D01*
X109475026Y-105824771D01*
X113934992Y-101364806D01*
X113965901Y-101347928D01*
X113979186Y-101346500D01*
X114075615Y-101346500D01*
X114109405Y-101356422D01*
X114132467Y-101383037D01*
X114133338Y-101385038D01*
X114170162Y-101473939D01*
X114206550Y-101533319D01*
X114239137Y-101586496D01*
X114324875Y-101686884D01*
X114385411Y-101738586D01*
X114425260Y-101772620D01*
X114537821Y-101841598D01*
X114659786Y-101892117D01*
X114788153Y-101922935D01*
X114788155Y-101922935D01*
X114788159Y-101922936D01*
X114919756Y-101933293D01*
X114919760Y-101933293D01*
X114919764Y-101933293D01*
X115051360Y-101922936D01*
X115051362Y-101922935D01*
X115051367Y-101922935D01*
X115179734Y-101892117D01*
X115301699Y-101841598D01*
X115414260Y-101772620D01*
X115514644Y-101686884D01*
X115600380Y-101586500D01*
X115669358Y-101473939D01*
X115719877Y-101351974D01*
X115750695Y-101223607D01*
X115760532Y-101098629D01*
X115761053Y-101092004D01*
X115761053Y-101091995D01*
X115750696Y-100960399D01*
X115750695Y-100960395D01*
X115744779Y-100935754D01*
X115719877Y-100832026D01*
X115669358Y-100710061D01*
X115600380Y-100597500D01*
X115566346Y-100557651D01*
X115514644Y-100497115D01*
X115414256Y-100411377D01*
X115347818Y-100370664D01*
X115301699Y-100342402D01*
X115179734Y-100291883D01*
X115179730Y-100291882D01*
X115179728Y-100291881D01*
X115051364Y-100261064D01*
X115051360Y-100261063D01*
X114919764Y-100250707D01*
X114919756Y-100250707D01*
X114788159Y-100261063D01*
X114788155Y-100261064D01*
X114659791Y-100291881D01*
X114659789Y-100291882D01*
X114659787Y-100291882D01*
X114659786Y-100291883D01*
X114602808Y-100315484D01*
X114537821Y-100342402D01*
X114425263Y-100411377D01*
X114324875Y-100497115D01*
X114239137Y-100597503D01*
X114188535Y-100680079D01*
X114170162Y-100710061D01*
X114133356Y-100798919D01*
X114111261Y-100826338D01*
X114077846Y-100837460D01*
X114075615Y-100837500D01*
X113814369Y-100837500D01*
X113749648Y-100854843D01*
X113749640Y-100854846D01*
X113691617Y-100888346D01*
X113691608Y-100888353D01*
X108998568Y-105581393D01*
X108965065Y-105639423D01*
X108965063Y-105639429D01*
X108947720Y-105704148D01*
X108947720Y-116828074D01*
X108937798Y-116861864D01*
X108929414Y-116872268D01*
X105856289Y-119945394D01*
X105825380Y-119962272D01*
X105812095Y-119963700D01*
X104071405Y-119963700D01*
X104037615Y-119953778D01*
X104027211Y-119945394D01*
X103237120Y-119155303D01*
X103220242Y-119124394D01*
X103219390Y-119116468D01*
X103219207Y-119116489D01*
X103216384Y-119091433D01*
X103209188Y-119027571D01*
X103180795Y-118946426D01*
X103135056Y-118873634D01*
X103074266Y-118812844D01*
X103074265Y-118812843D01*
X103074263Y-118812842D01*
X103001475Y-118767105D01*
X102920330Y-118738712D01*
X102920325Y-118738711D01*
X102831412Y-118728693D01*
X102831541Y-118727544D01*
X102803001Y-118719164D01*
X102792597Y-118710780D01*
X102476811Y-118394994D01*
X102459933Y-118364085D01*
X102462446Y-118328958D01*
X102483550Y-118300766D01*
X102516546Y-118288459D01*
X102521005Y-118288300D01*
X106535706Y-118288300D01*
X106535711Y-118288299D01*
X106554939Y-118283146D01*
X106600433Y-118270956D01*
X106621951Y-118258533D01*
X106658467Y-118237451D01*
X106705851Y-118190067D01*
X106705851Y-118190065D01*
X106710992Y-118184925D01*
X106710995Y-118184920D01*
X107249431Y-117646487D01*
X107282936Y-117588454D01*
X107300280Y-117523726D01*
X107300280Y-117456715D01*
X107300280Y-117207300D01*
X107310202Y-117173510D01*
X107336817Y-117150448D01*
X107362780Y-117144800D01*
X107949999Y-117144800D01*
X107950000Y-117144800D01*
X108458000Y-116586000D01*
X108458000Y-112014000D01*
X108458000Y-112013998D01*
X106597950Y-110254493D01*
X106580221Y-110224065D01*
X106578400Y-110209089D01*
X106578400Y-98298000D01*
X99506540Y-98298000D01*
X99472750Y-98288078D01*
X99449688Y-98261463D01*
X99444040Y-98235500D01*
X99444040Y-97281995D01*
X114078467Y-97281995D01*
X114078467Y-97282004D01*
X114088823Y-97413600D01*
X114088824Y-97413604D01*
X114119641Y-97541968D01*
X114119642Y-97541970D01*
X114119643Y-97541974D01*
X114170162Y-97663939D01*
X114206550Y-97723319D01*
X114239137Y-97776496D01*
X114324875Y-97876884D01*
X114335000Y-97885531D01*
X114425260Y-97962620D01*
X114537821Y-98031598D01*
X114659786Y-98082117D01*
X114788153Y-98112935D01*
X114788155Y-98112935D01*
X114788159Y-98112936D01*
X114919756Y-98123293D01*
X114919760Y-98123293D01*
X114919764Y-98123293D01*
X115051360Y-98112936D01*
X115051362Y-98112935D01*
X115051367Y-98112935D01*
X115179734Y-98082117D01*
X115301699Y-98031598D01*
X115414260Y-97962620D01*
X115514644Y-97876884D01*
X115600380Y-97776500D01*
X115669358Y-97663939D01*
X115719877Y-97541974D01*
X115750695Y-97413607D01*
X115759024Y-97307789D01*
X115761053Y-97282004D01*
X115761053Y-97281995D01*
X115750696Y-97150399D01*
X115750695Y-97150395D01*
X115742722Y-97117186D01*
X115719877Y-97022026D01*
X115669358Y-96900061D01*
X115600380Y-96787500D01*
X115566346Y-96747651D01*
X115514644Y-96687115D01*
X115414256Y-96601377D01*
X115361079Y-96568790D01*
X115301699Y-96532402D01*
X115179734Y-96481883D01*
X115179730Y-96481882D01*
X115179728Y-96481881D01*
X115051364Y-96451064D01*
X115051360Y-96451063D01*
X114919764Y-96440707D01*
X114919756Y-96440707D01*
X114788159Y-96451063D01*
X114788155Y-96451064D01*
X114659791Y-96481881D01*
X114659789Y-96481882D01*
X114659787Y-96481882D01*
X114659786Y-96481883D01*
X114537821Y-96532402D01*
X114425263Y-96601377D01*
X114324875Y-96687115D01*
X114239137Y-96787503D01*
X114174391Y-96893160D01*
X114170162Y-96900061D01*
X114122599Y-97014891D01*
X114119642Y-97022029D01*
X114119641Y-97022031D01*
X114088824Y-97150395D01*
X114088823Y-97150399D01*
X114078467Y-97281995D01*
X99444040Y-97281995D01*
X99444040Y-91502505D01*
X99444039Y-91502492D01*
X99441068Y-91474862D01*
X99441068Y-91474858D01*
X99435420Y-91448895D01*
X99431737Y-91435470D01*
X99406630Y-91391379D01*
X99383568Y-91364764D01*
X99366887Y-91348668D01*
X99321928Y-91325150D01*
X99321927Y-91325149D01*
X99321926Y-91325149D01*
X99314000Y-91322821D01*
X99314000Y-90254500D01*
X119683000Y-90254500D01*
X119716790Y-90264422D01*
G37*
%TD.AperFunction*%
%TA.AperFunction,Conductor*%
G36*
X99400342Y-100225233D02*
G01*
X99428534Y-100246337D01*
X99440841Y-100279333D01*
X99441000Y-100283792D01*
X99441000Y-102971112D01*
X99431078Y-103004902D01*
X99422694Y-103015306D01*
X98298000Y-104140000D01*
X98298000Y-110718112D01*
X98288078Y-110751902D01*
X98279694Y-110762306D01*
X97409000Y-111633000D01*
X97409000Y-115824000D01*
X98679000Y-117144800D01*
X98679001Y-117144800D01*
X105243686Y-117144800D01*
X105252579Y-117145436D01*
X105256677Y-117146025D01*
X105269300Y-117147840D01*
X105269303Y-117147840D01*
X105638100Y-117147840D01*
X105638112Y-117147840D01*
X105652010Y-117147095D01*
X105661500Y-117146074D01*
X105661965Y-117146025D01*
X105663495Y-117145942D01*
X105665298Y-117145667D01*
X105665299Y-117145667D01*
X105665299Y-117145666D01*
X105666275Y-117145518D01*
X105675720Y-117144800D01*
X106728780Y-117144800D01*
X106762570Y-117154722D01*
X106785632Y-117181337D01*
X106791280Y-117207300D01*
X106791280Y-117358914D01*
X106781358Y-117392704D01*
X106772974Y-117403108D01*
X106415089Y-117760994D01*
X106384180Y-117777872D01*
X106370895Y-117779300D01*
X98226105Y-117779300D01*
X98192315Y-117769378D01*
X98181911Y-117760994D01*
X93389766Y-112968849D01*
X93372888Y-112937940D01*
X93371460Y-112924655D01*
X93371460Y-112842885D01*
X93381382Y-112809095D01*
X93389766Y-112798691D01*
X93416086Y-112772371D01*
X93446247Y-112720129D01*
X93449072Y-112709586D01*
X93461861Y-112661862D01*
X93461861Y-112645900D01*
X93471783Y-112612110D01*
X93487250Y-112595611D01*
X93492651Y-112591625D01*
X93495444Y-112589564D01*
X93536168Y-112534384D01*
X93558819Y-112469653D01*
X93560260Y-112454286D01*
X93560260Y-112139474D01*
X93558819Y-112124107D01*
X93536168Y-112059376D01*
X93495444Y-112004196D01*
X93440264Y-111963472D01*
X93375533Y-111940821D01*
X93375531Y-111940820D01*
X93375530Y-111940820D01*
X93364486Y-111939785D01*
X93360166Y-111939380D01*
X93105354Y-111939380D01*
X93101404Y-111939750D01*
X93089989Y-111940820D01*
X93089987Y-111940821D01*
X93025255Y-111963472D01*
X92970075Y-112004196D01*
X92933047Y-112054368D01*
X92904999Y-112075664D01*
X92869890Y-112078415D01*
X92838867Y-112061747D01*
X92832473Y-112054368D01*
X92795444Y-112004196D01*
X92740264Y-111963472D01*
X92675533Y-111940821D01*
X92675531Y-111940820D01*
X92675530Y-111940820D01*
X92664486Y-111939785D01*
X92660166Y-111939380D01*
X92405354Y-111939380D01*
X92401404Y-111939750D01*
X92389989Y-111940820D01*
X92389987Y-111940821D01*
X92325255Y-111963472D01*
X92270075Y-112004196D01*
X92233047Y-112054368D01*
X92204999Y-112075664D01*
X92169890Y-112078415D01*
X92138867Y-112061747D01*
X92132473Y-112054368D01*
X92095444Y-112004196D01*
X92040264Y-111963472D01*
X91975533Y-111940821D01*
X91975531Y-111940820D01*
X91975530Y-111940820D01*
X91964486Y-111939785D01*
X91960166Y-111939380D01*
X91705354Y-111939380D01*
X91701404Y-111939750D01*
X91689989Y-111940820D01*
X91689987Y-111940821D01*
X91625255Y-111963472D01*
X91570076Y-112004196D01*
X91529352Y-112059375D01*
X91506701Y-112124107D01*
X91506700Y-112124109D01*
X91505260Y-112139477D01*
X91505260Y-112454282D01*
X91506700Y-112469650D01*
X91506700Y-112469651D01*
X91506701Y-112469653D01*
X91525376Y-112523021D01*
X91529352Y-112534384D01*
X91570074Y-112589562D01*
X91570075Y-112589562D01*
X91570076Y-112589564D01*
X91580472Y-112597236D01*
X91583285Y-112599312D01*
X91604582Y-112627359D01*
X91606543Y-112633424D01*
X91619272Y-112680926D01*
X91619274Y-112680932D01*
X91649431Y-112733167D01*
X91649432Y-112733168D01*
X91649434Y-112733171D01*
X91688633Y-112772370D01*
X91695651Y-112779388D01*
X91695658Y-112779394D01*
X91861130Y-112944867D01*
X91878008Y-112975776D01*
X91879043Y-112996057D01*
X91878640Y-112999635D01*
X91876346Y-113020000D01*
X91876384Y-113020334D01*
X91885971Y-113105425D01*
X91885972Y-113105430D01*
X91914365Y-113186575D01*
X91930484Y-113212227D01*
X91960104Y-113259366D01*
X92020894Y-113320156D01*
X92093686Y-113365895D01*
X92174831Y-113394288D01*
X92260260Y-113403914D01*
X92345689Y-113394288D01*
X92426834Y-113365895D01*
X92499626Y-113320156D01*
X92560416Y-113259366D01*
X92606155Y-113186574D01*
X92634548Y-113105429D01*
X92642810Y-113032100D01*
X92656453Y-112999635D01*
X92685482Y-112979698D01*
X92704917Y-112976600D01*
X92799960Y-112976600D01*
X92833750Y-112986522D01*
X92856812Y-113013137D01*
X92862460Y-113039100D01*
X92862460Y-113089471D01*
X92879803Y-113154190D01*
X92879805Y-113154196D01*
X92913306Y-113212223D01*
X92913307Y-113212224D01*
X92913309Y-113212227D01*
X92942458Y-113241376D01*
X92964255Y-113263173D01*
X92964262Y-113263179D01*
X95925889Y-116224806D01*
X95942767Y-116255715D01*
X95940254Y-116290842D01*
X95919150Y-116319034D01*
X95886154Y-116331341D01*
X95881695Y-116331500D01*
X90678000Y-116331500D01*
X90678000Y-115773200D01*
X90805000Y-115773200D01*
X91567000Y-115011200D01*
X91567000Y-113996400D01*
X92216866Y-113996400D01*
X92226491Y-114081825D01*
X92226492Y-114081830D01*
X92254885Y-114162975D01*
X92300622Y-114235763D01*
X92300624Y-114235766D01*
X92361414Y-114296556D01*
X92434206Y-114342295D01*
X92515351Y-114370688D01*
X92600780Y-114380314D01*
X92686209Y-114370688D01*
X92767354Y-114342295D01*
X92840146Y-114296556D01*
X92900936Y-114235766D01*
X92946675Y-114162974D01*
X92975068Y-114081829D01*
X92984694Y-113996400D01*
X92975068Y-113910971D01*
X92946675Y-113829826D01*
X92900936Y-113757034D01*
X92840146Y-113696244D01*
X92840145Y-113696243D01*
X92840143Y-113696242D01*
X92767355Y-113650505D01*
X92686210Y-113622112D01*
X92686205Y-113622111D01*
X92600780Y-113612486D01*
X92515354Y-113622111D01*
X92515349Y-113622112D01*
X92434204Y-113650505D01*
X92361416Y-113696242D01*
X92361414Y-113696243D01*
X92300623Y-113757034D01*
X92300622Y-113757036D01*
X92254885Y-113829824D01*
X92226492Y-113910969D01*
X92226491Y-113910974D01*
X92216866Y-113996400D01*
X91567000Y-113996400D01*
X91567000Y-112903000D01*
X91280506Y-112616506D01*
X91263628Y-112585597D01*
X91262200Y-112572312D01*
X91262200Y-110667800D01*
X91262200Y-110490000D01*
X97028000Y-110490000D01*
X97028000Y-102545904D01*
X99334306Y-100239598D01*
X99365215Y-100222720D01*
X99400342Y-100225233D01*
G37*
%TD.AperFunction*%
%TD*%
%TA.AperFunction,Conductor*%
%TO.N,/pmu/VSSH*%
G36*
X105635290Y-109280722D02*
G01*
X105658352Y-109307337D01*
X105664000Y-109333300D01*
X105664000Y-112764300D01*
X105654078Y-112798090D01*
X105627463Y-112821152D01*
X105601500Y-112826800D01*
X104335320Y-112826800D01*
X104301530Y-112816878D01*
X104278468Y-112790263D01*
X104272820Y-112764300D01*
X104272820Y-112600520D01*
X103491300Y-112600520D01*
X103457510Y-112590598D01*
X103434448Y-112563983D01*
X103428800Y-112538020D01*
X103428800Y-111568500D01*
X103438722Y-111534710D01*
X103465337Y-111511648D01*
X103491300Y-111506000D01*
X104292400Y-111506000D01*
X104292400Y-109333300D01*
X104302322Y-109299510D01*
X104328937Y-109276448D01*
X104354900Y-109270800D01*
X105601500Y-109270800D01*
X105635290Y-109280722D01*
G37*
%TD.AperFunction*%
%TD*%
%TA.AperFunction,Conductor*%
%TO.N,/VDDA3V*%
G36*
X106864286Y-115529122D02*
G01*
X106874690Y-115537506D01*
X106890294Y-115553110D01*
X106907172Y-115584019D01*
X106908600Y-115597304D01*
X106908600Y-116179600D01*
X107296694Y-116567694D01*
X107313572Y-116598603D01*
X107315000Y-116611888D01*
X107315000Y-116955300D01*
X107305078Y-116989090D01*
X107278463Y-117012152D01*
X107252500Y-117017800D01*
X106858288Y-117017800D01*
X106824498Y-117007878D01*
X106814094Y-116999494D01*
X106342706Y-116528106D01*
X106325828Y-116497197D01*
X106324400Y-116483912D01*
X106324400Y-115581700D01*
X106334322Y-115547910D01*
X106360937Y-115524848D01*
X106386900Y-115519200D01*
X106830496Y-115519200D01*
X106864286Y-115529122D01*
G37*
%TD.AperFunction*%
%TD*%
%TA.AperFunction,Conductor*%
%TO.N,VDD1*%
G36*
X107667290Y-112023922D02*
G01*
X107690352Y-112050537D01*
X107696000Y-112076500D01*
X107696000Y-112967500D01*
X107686078Y-113001290D01*
X107659463Y-113024352D01*
X107633500Y-113030000D01*
X105980500Y-113030000D01*
X105946710Y-113020078D01*
X105923648Y-112993463D01*
X105918000Y-112967500D01*
X105918000Y-112076500D01*
X105927922Y-112042710D01*
X105954537Y-112019648D01*
X105980500Y-112014000D01*
X107633500Y-112014000D01*
X107667290Y-112023922D01*
G37*
%TD.AperFunction*%
%TD*%
%TA.AperFunction,Conductor*%
%TO.N,/VSS_SW*%
G36*
X104898690Y-114767122D02*
G01*
X104921752Y-114793737D01*
X104927400Y-114819700D01*
X104927400Y-115366312D01*
X104917478Y-115400102D01*
X104909094Y-115410506D01*
X104876600Y-115443000D01*
X104876600Y-115772711D01*
X104866678Y-115806501D01*
X104858294Y-115816905D01*
X104739910Y-115935288D01*
X104728971Y-115944012D01*
X104708235Y-115957042D01*
X104647442Y-116017835D01*
X104634412Y-116038571D01*
X104625689Y-116049510D01*
X104546400Y-116128800D01*
X104546400Y-116523500D01*
X104536478Y-116557290D01*
X104509863Y-116580352D01*
X104483900Y-116586000D01*
X103796100Y-116586000D01*
X103762310Y-116576078D01*
X103739248Y-116549463D01*
X103733600Y-116523500D01*
X103733600Y-115463020D01*
X103743522Y-115429230D01*
X103770137Y-115406168D01*
X103796100Y-115400520D01*
X104272820Y-115400520D01*
X104272820Y-114819700D01*
X104282742Y-114785910D01*
X104309357Y-114762848D01*
X104335320Y-114757200D01*
X104864900Y-114757200D01*
X104898690Y-114767122D01*
G37*
%TD.AperFunction*%
%TD*%
%TA.AperFunction,Conductor*%
%TO.N,/VDD_SW*%
G36*
X101571290Y-114767122D02*
G01*
X101594352Y-114793737D01*
X101600000Y-114819700D01*
X101600000Y-115417112D01*
X101590078Y-115450902D01*
X101581694Y-115461306D01*
X101549200Y-115493800D01*
X101549200Y-115771655D01*
X101539278Y-115805445D01*
X101530894Y-115815849D01*
X101506991Y-115839752D01*
X101506989Y-115839754D01*
X101493466Y-115853277D01*
X101464330Y-115882412D01*
X101463337Y-115883707D01*
X101457952Y-115889846D01*
X101193600Y-116154199D01*
X101193600Y-116523500D01*
X101183678Y-116557290D01*
X101157063Y-116580352D01*
X101131100Y-116586000D01*
X100468700Y-116586000D01*
X100434910Y-116576078D01*
X100411848Y-116549463D01*
X100406200Y-116523500D01*
X100406200Y-115463020D01*
X100416122Y-115429230D01*
X100442737Y-115406168D01*
X100468700Y-115400520D01*
X100938100Y-115400520D01*
X100938100Y-114819700D01*
X100948022Y-114785910D01*
X100974637Y-114762848D01*
X101000600Y-114757200D01*
X101537500Y-114757200D01*
X101571290Y-114767122D01*
G37*
%TD.AperFunction*%
%TD*%
%TA.AperFunction,Conductor*%
%TO.N,/VDD3V*%
G36*
X106136686Y-115529122D02*
G01*
X106147090Y-115537506D01*
X106153694Y-115544110D01*
X106170572Y-115575019D01*
X106172000Y-115588304D01*
X106172000Y-116483912D01*
X106162078Y-116517702D01*
X106153694Y-116528106D01*
X105682306Y-116999494D01*
X105651397Y-117016372D01*
X105638112Y-117017800D01*
X105269300Y-117017800D01*
X105235510Y-117007878D01*
X105212448Y-116981263D01*
X105206800Y-116955300D01*
X105206800Y-116586488D01*
X105216722Y-116552698D01*
X105225106Y-116542294D01*
X105638600Y-116128800D01*
X105638600Y-115581700D01*
X105648522Y-115547910D01*
X105675137Y-115524848D01*
X105701100Y-115519200D01*
X106102896Y-115519200D01*
X106136686Y-115529122D01*
G37*
%TD.AperFunction*%
%TD*%
%TA.AperFunction,Conductor*%
%TO.N,VDD1*%
G36*
X105120869Y-105629094D02*
G01*
X105124134Y-105632134D01*
X105391694Y-105899694D01*
X105408572Y-105930603D01*
X105410000Y-105943888D01*
X105410000Y-107709700D01*
X105400078Y-107743490D01*
X105373463Y-107766552D01*
X105347500Y-107772200D01*
X103607088Y-107772200D01*
X103573298Y-107762278D01*
X103562894Y-107753894D01*
X103320106Y-107511106D01*
X103303228Y-107480197D01*
X103301800Y-107466912D01*
X103301800Y-106310700D01*
X103311722Y-106276910D01*
X103338337Y-106253848D01*
X103364300Y-106248200D01*
X104775000Y-106248200D01*
X104833334Y-106189866D01*
X104864243Y-106172988D01*
X104877528Y-106171560D01*
X105017440Y-106171560D01*
X105017440Y-105676328D01*
X105027362Y-105642538D01*
X105053977Y-105619476D01*
X105088835Y-105614464D01*
X105120869Y-105629094D01*
G37*
%TD.AperFunction*%
%TD*%
%TA.AperFunction,Conductor*%
%TO.N,Net-(U2-SW2)*%
G36*
X103120690Y-106435922D02*
G01*
X103143752Y-106462537D01*
X103149400Y-106488500D01*
X103149400Y-107594400D01*
X103479600Y-107924600D01*
X104941100Y-107924600D01*
X104974890Y-107934522D01*
X104997952Y-107961137D01*
X105003600Y-107987100D01*
X105003600Y-109078260D01*
X104993678Y-109112050D01*
X104967063Y-109135112D01*
X104941100Y-109140760D01*
X104354895Y-109140760D01*
X104342128Y-109142133D01*
X104329950Y-109143442D01*
X104323278Y-109143800D01*
X104140000Y-109143800D01*
X104140000Y-109690900D01*
X104130078Y-109724690D01*
X104103463Y-109747752D01*
X104077500Y-109753400D01*
X102957900Y-109753400D01*
X102924110Y-109743478D01*
X102901048Y-109716863D01*
X102895400Y-109690900D01*
X102895400Y-106488500D01*
X102905322Y-106454710D01*
X102931937Y-106431648D01*
X102957900Y-106426000D01*
X103086900Y-106426000D01*
X103120690Y-106435922D01*
G37*
%TD.AperFunction*%
%TD*%
%TA.AperFunction,Conductor*%
%TO.N,Net-(U2-SW1)*%
G36*
X101114090Y-106435922D02*
G01*
X101137152Y-106462537D01*
X101142800Y-106488500D01*
X101142800Y-106637676D01*
X101142164Y-106646571D01*
X101140260Y-106659812D01*
X101140260Y-107461040D01*
X101140126Y-107465130D01*
X101140039Y-107466458D01*
X101139801Y-107473750D01*
X101139760Y-107474990D01*
X101139760Y-109233700D01*
X101129838Y-109267490D01*
X101103223Y-109290552D01*
X101077260Y-109296200D01*
X100140752Y-109296200D01*
X100107501Y-109286621D01*
X100105246Y-109285204D01*
X100081916Y-109258827D01*
X100076000Y-109232285D01*
X100076000Y-108610400D01*
X98919300Y-108610400D01*
X98885510Y-108600478D01*
X98862448Y-108573863D01*
X98856800Y-108547900D01*
X98856800Y-107507540D01*
X98866722Y-107473750D01*
X98893337Y-107450688D01*
X98919300Y-107445040D01*
X100623094Y-107445040D01*
X100623100Y-107445040D01*
X100648049Y-107442357D01*
X100654722Y-107442000D01*
X100838000Y-107442000D01*
X100838000Y-106488500D01*
X100847922Y-106454710D01*
X100874537Y-106431648D01*
X100900500Y-106426000D01*
X101080300Y-106426000D01*
X101114090Y-106435922D01*
G37*
%TD.AperFunction*%
%TD*%
M02*
