%TF.GenerationSoftware,KiCad,Pcbnew,8.0.5*%
%TF.CreationDate,2025-10-24T05:54:48-05:00*%
%TF.ProjectId,iris-128s,69726973-2d31-4323-9873-2e6b69636164,1*%
%TF.SameCoordinates,Original*%
%TF.FileFunction,Profile,NP*%
%FSLAX46Y46*%
G04 Gerber Fmt 4.6, Leading zero omitted, Abs format (unit mm)*
G04 Created by KiCad (PCBNEW 8.0.5) date 2025-10-24 05:54:48*
%MOMM*%
%LPD*%
G01*
G04 APERTURE LIST*
%TA.AperFunction,Profile*%
%ADD10C,0.050000*%
%TD*%
G04 APERTURE END LIST*
D10*
X95500000Y-104000000D02*
X95500000Y-80000000D01*
X109900000Y-103600000D02*
X110300000Y-104000000D01*
X110000000Y-80350000D02*
X110300000Y-80000000D01*
X125700000Y-80000000D02*
X125700000Y-92300000D01*
X107900000Y-104000000D02*
X108300000Y-103600000D01*
X108950000Y-80700000D02*
X109300000Y-80700000D01*
X95500000Y-80000000D02*
X107900000Y-80000000D01*
X108300000Y-103600000D02*
X108700000Y-103400000D01*
X107900000Y-104000000D02*
X95500000Y-104000000D01*
X110300000Y-104000000D02*
X110500000Y-104500000D01*
X121000000Y-105500000D02*
X111200000Y-105500000D01*
X107900000Y-80000000D02*
X108250000Y-80400000D01*
X110500000Y-104500000D02*
X110500000Y-104800000D01*
X109500000Y-103402497D02*
X109900000Y-103600000D01*
X109700000Y-80550000D02*
X110000000Y-80350000D01*
X125000000Y-93000000D02*
X125000000Y-105500000D01*
X109100000Y-103300000D02*
X109500000Y-103402497D01*
X109300000Y-80700000D02*
X109700000Y-80550000D01*
X108250000Y-80400000D02*
X108600000Y-80600000D01*
X125700000Y-92300000D02*
X125000000Y-93000000D01*
X111200000Y-105500000D02*
X110500000Y-104800000D01*
X108700000Y-103400000D02*
X109100000Y-103300000D01*
X125000000Y-105500000D02*
X121000000Y-105500000D01*
X108600000Y-80600000D02*
X108950000Y-80700000D01*
X110300000Y-80000000D02*
X125700000Y-80000000D01*
M02*
