M48
; DRILL file {KiCad 8.0.5} date 2025-10-23T09:57:43-0500
; FORMAT={-:-/ absolute / metric / decimal}
; #@! TF.CreationDate,2025-10-23T09:57:43-05:00
; #@! TF.GenerationSoftware,Kicad,Pcbnew,8.0.5
; #@! TF.FileFunction,Plated,7,8,Blind
FMAT,2
METRIC
; #@! TA.AperFunction,Plated,Buried,ViaDrill
T1C0.152
%
G90
G05
T1
X106.987Y-86.523
X106.99Y-91.869
X106.992Y-97.23
X106.992Y-102.58
X107.417Y-81.42
X107.419Y-86.766
X107.421Y-92.127
X107.421Y-97.477
X107.752Y-82.7
X107.752Y-83.7
X107.752Y-84.2
X107.752Y-85.2
X107.752Y-88.05
X107.752Y-89.05
X107.752Y-89.55
X107.752Y-90.55
X107.752Y-93.4
X107.752Y-94.4
X107.752Y-94.9
X107.752Y-95.9
X107.752Y-98.75
X107.752Y-99.75
X107.752Y-100.25
X107.752Y-101.25
X108.753Y-81.701
X108.753Y-86.195
X108.755Y-87.048
X108.755Y-91.542
X108.757Y-92.409
X108.757Y-96.902
X108.757Y-97.759
X108.757Y-102.252
X109.261Y-81.701
X109.261Y-86.195
X109.263Y-87.048
X109.263Y-91.542
X109.265Y-92.409
X109.265Y-96.902
X109.265Y-97.759
X109.265Y-102.252
X109.743Y-81.701
X109.743Y-86.195
X109.746Y-87.048
X109.746Y-91.542
X109.748Y-92.409
X109.748Y-96.902
X109.748Y-97.759
X109.748Y-102.252
X110.251Y-81.701
X110.251Y-86.195
X110.254Y-87.048
X110.254Y-91.542
X110.256Y-92.409
X110.256Y-96.902
X110.256Y-97.759
X110.256Y-102.252
X110.759Y-81.701
X110.759Y-86.195
X110.762Y-87.048
X110.762Y-91.542
X110.764Y-92.409
X110.764Y-96.902
X110.764Y-97.759
X110.764Y-102.252
X115.037Y-96.716
X115.037Y-97.216
X115.037Y-97.716
X115.037Y-98.216
X115.037Y-98.716
X115.037Y-99.216
X115.037Y-99.716
X115.037Y-100.216
X115.037Y-100.716
X115.037Y-101.216
X115.037Y-101.716
X116.001Y-82.897
X116.001Y-83.397
X116.001Y-83.897
X116.001Y-84.397
X116.001Y-84.897
X116.001Y-85.397
X116.001Y-85.897
X116.001Y-86.397
X116.001Y-86.897
X116.001Y-87.397
X116.001Y-87.897
X116.001Y-88.397
X116.001Y-88.897
X116.001Y-89.397
X116.001Y-89.897
X116.001Y-90.397
X116.001Y-90.897
X116.001Y-91.397
X116.001Y-91.897
X116.45Y-103.216
X116.95Y-103.216
X117.001Y-82.897
X117.001Y-91.897
X117.45Y-103.216
X117.45Y-95.216
X117.501Y-82.897
X117.501Y-91.897
X117.601Y-85.097
X117.601Y-89.517
X117.901Y-85.497
X117.901Y-89.167
X117.95Y-103.216
X118.001Y-82.897
X118.001Y-91.897
X118.201Y-85.897
X118.201Y-88.817
X118.45Y-103.216
X118.501Y-82.897
X118.501Y-86.297
X118.501Y-88.467
X118.501Y-91.897
X118.601Y-84.697
X118.601Y-90.197
X118.801Y-86.697
X118.801Y-88.097
X119.001Y-82.897
X119.001Y-85.097
X119.001Y-89.997
X119.001Y-91.897
X119.051Y-87.047
X119.051Y-87.747
X119.301Y-87.397
X119.401Y-85.397
X119.401Y-89.797
X119.501Y-82.897
X119.501Y-91.897
X119.801Y-85.697
X119.801Y-89.597
X120.001Y-82.897
X120.001Y-91.897
X120.201Y-85.997
X120.201Y-89.397
X120.501Y-82.897
X120.501Y-91.897
X120.601Y-86.297
X120.601Y-89.197
X121.001Y-86.597
X121.001Y-88.997
X121.401Y-86.897
X121.401Y-88.797
X122.0Y-82.897
X122.869Y-100.716
X122.869Y-101.216
X122.871Y-98.215
X122.871Y-98.715
X122.871Y-99.215
X122.871Y-99.715
X122.871Y-100.215
X122.871Y-89.891
X122.872Y-86.4
X122.872Y-86.9
X122.872Y-87.399
X122.872Y-87.9
X122.872Y-89.4
X122.872Y-97.716
M30
