M48
; DRILL file {KiCad 8.0.5} date 2025-10-23T09:57:43-0500
; FORMAT={-:-/ absolute / metric / decimal}
; #@! TF.CreationDate,2025-10-23T09:57:43-05:00
; #@! TF.GenerationSoftware,Kicad,Pcbnew,8.0.5
; #@! TF.FileFunction,Plated,6,7,Buried
FMAT,2
METRIC
; #@! TA.AperFunction,Plated,Buried,ViaDrill
T1C0.152
%
G90
G05
T1
X106.172Y-92.558
X106.578Y-92.558
X106.985Y-92.558
X107.696Y-81.699
X107.696Y-86.192
X107.699Y-87.046
X107.699Y-91.539
X107.701Y-92.407
X107.701Y-96.9
X107.701Y-97.757
X108.158Y-94.399
X108.158Y-94.9
X108.158Y-95.9
X108.158Y-98.75
X108.158Y-99.75
X108.158Y-100.25
X108.158Y-101.25
X108.524Y-86.525
X108.527Y-91.872
X108.529Y-102.583
X108.956Y-81.42
X108.958Y-86.766
X109.266Y-96.495
X109.266Y-98.166
X109.266Y-101.846
X109.515Y-86.525
X109.517Y-91.872
X109.519Y-97.233
X109.519Y-102.583
X109.946Y-81.42
X109.949Y-86.766
X109.951Y-92.127
X109.951Y-97.477
X110.256Y-96.495
X110.256Y-98.166
X110.256Y-101.846
X110.505Y-86.525
X110.508Y-91.872
X110.962Y-81.42
X110.962Y-86.766
X114.901Y-83.397
X114.901Y-86.397
X114.901Y-87.397
X114.901Y-88.397
X114.901Y-89.397
X114.901Y-90.397
X114.901Y-91.397
X115.347Y-84.397
X115.347Y-85.397
X115.468Y-96.716
X115.468Y-97.216
X115.468Y-97.716
X115.468Y-98.216
X115.468Y-98.716
X115.468Y-99.216
X115.468Y-99.716
X115.468Y-100.216
X115.468Y-100.716
X115.468Y-101.216
X115.468Y-101.716
X115.601Y-82.897
X115.601Y-83.897
X115.601Y-84.897
X115.601Y-85.897
X115.601Y-86.897
X115.601Y-87.897
X115.601Y-88.897
X115.601Y-89.897
X115.601Y-90.897
X115.601Y-91.897
X116.45Y-102.784
X116.95Y-102.784
X117.001Y-82.497
X117.001Y-91.4
X117.45Y-95.654
X117.45Y-102.784
X117.501Y-82.497
X117.501Y-91.4
X117.95Y-102.784
X118.001Y-82.497
X118.001Y-85.097
X118.001Y-91.4
X118.101Y-89.517
X118.301Y-85.497
X118.401Y-89.167
X118.45Y-102.784
X118.501Y-82.497
X118.501Y-91.4
X118.601Y-85.097
X118.601Y-85.897
X118.601Y-89.797
X118.701Y-88.817
X118.901Y-86.297
X118.901Y-88.467
X119.001Y-82.497
X119.001Y-85.497
X119.001Y-89.597
X119.001Y-91.4
X119.201Y-86.697
X119.201Y-88.097
X119.401Y-85.797
X119.401Y-89.397
X119.451Y-87.047
X119.451Y-87.747
X119.501Y-82.497
X119.501Y-91.4
X119.701Y-87.397
X119.801Y-86.097
X119.801Y-89.197
X120.001Y-82.497
X120.001Y-91.4
X120.201Y-86.397
X120.201Y-88.997
X120.251Y-101.962
X120.251Y-102.597
X120.501Y-82.497
X120.501Y-91.4
X120.601Y-86.697
X120.601Y-88.797
X121.001Y-86.997
X121.001Y-88.597
X121.401Y-87.297
X121.401Y-88.397
X121.953Y-101.962
X121.953Y-102.597
X122.0Y-82.497
X122.475Y-100.717
X122.475Y-101.217
X122.477Y-98.216
X122.477Y-98.716
X122.477Y-99.216
X122.477Y-99.716
X122.477Y-100.216
X122.479Y-97.717
X123.264Y-89.891
X123.266Y-86.401
X123.266Y-86.901
X123.266Y-87.399
X123.266Y-87.901
X123.266Y-89.401
M30
