%TF.GenerationSoftware,KiCad,Pcbnew,8.0.5*%
%TF.CreationDate,2025-10-23T09:57:47-05:00*%
%TF.ProjectId,iris-128s,69726973-2d31-4323-9873-2e6b69636164,1*%
%TF.SameCoordinates,Original*%
%TF.FileFunction,Drillmap*%
%TF.FilePolarity,Positive*%
%FSLAX45Y45*%
G04 Gerber Fmt 4.5, Leading zero omitted, Abs format (unit mm)*
G04 Created by KiCad (PCBNEW 8.0.5) date 2025-10-23 09:57:47*
%MOMM*%
%LPD*%
G01*
G04 APERTURE LIST*
%ADD10C,0.050000*%
%ADD11C,0.200000*%
%ADD12C,0.100000*%
G04 APERTURE END LIST*
D10*
X9550000Y-10400000D02*
X9550000Y-8000000D01*
X10990000Y-10360000D02*
X11030000Y-10400000D01*
X11000000Y-8035000D02*
X11030000Y-8000000D01*
X12570000Y-8000000D02*
X12570000Y-9230000D01*
X10790000Y-10400000D02*
X10830000Y-10360000D01*
X10895000Y-8070000D02*
X10930000Y-8070000D01*
X9550000Y-8000000D02*
X10790000Y-8000000D01*
X10830000Y-10360000D02*
X10870000Y-10340000D01*
X10790000Y-10400000D02*
X9550000Y-10400000D01*
X11030000Y-10400000D02*
X11050000Y-10450000D01*
X12100000Y-10550000D02*
X11120000Y-10550000D01*
X10790000Y-8000000D02*
X10825000Y-8040000D01*
X11050000Y-10450000D02*
X11050000Y-10480000D01*
X10950000Y-10340250D02*
X10990000Y-10360000D01*
X10970000Y-8055000D02*
X11000000Y-8035000D01*
X12500000Y-9300000D02*
X12500000Y-10550000D01*
X10910000Y-10330000D02*
X10950000Y-10340250D01*
X10930000Y-8070000D02*
X10970000Y-8055000D01*
X10825000Y-8040000D02*
X10860000Y-8060000D01*
X12570000Y-9230000D02*
X12500000Y-9300000D01*
X11120000Y-10550000D02*
X11050000Y-10480000D01*
X10870000Y-10340000D02*
X10910000Y-10330000D01*
X12500000Y-10550000D02*
X12100000Y-10550000D01*
X10860000Y-8060000D02*
X10895000Y-8070000D01*
X11030000Y-8000000D02*
X12570000Y-8000000D01*
D11*
D12*
X9772852Y-8632720D02*
X9788092Y-8647960D01*
X9788092Y-8632720D02*
X9772852Y-8647960D01*
X9772852Y-8712720D02*
X9788092Y-8727960D01*
X9788092Y-8712720D02*
X9772852Y-8727960D01*
X9772852Y-8792720D02*
X9788092Y-8807960D01*
X9788092Y-8792720D02*
X9772852Y-8807960D01*
X9772852Y-8872720D02*
X9788092Y-8887960D01*
X9788092Y-8872720D02*
X9772852Y-8887960D01*
X9772852Y-8952720D02*
X9788092Y-8967960D01*
X9788092Y-8952720D02*
X9772852Y-8967960D01*
X9772852Y-9032720D02*
X9788092Y-9047960D01*
X9788092Y-9032720D02*
X9772852Y-9047960D01*
X9772852Y-9112720D02*
X9788092Y-9127960D01*
X9788092Y-9112720D02*
X9772852Y-9127960D01*
X9772852Y-9192720D02*
X9788092Y-9207960D01*
X9788092Y-9192720D02*
X9772852Y-9207960D01*
X9772852Y-9272720D02*
X9788092Y-9287960D01*
X9788092Y-9272720D02*
X9772852Y-9287960D01*
X9772852Y-9352720D02*
X9788092Y-9367960D01*
X9788092Y-9352720D02*
X9772852Y-9367960D01*
X9772852Y-9432720D02*
X9788092Y-9447960D01*
X9788092Y-9432720D02*
X9772852Y-9447960D01*
X9772852Y-9512720D02*
X9788092Y-9527960D01*
X9788092Y-9512720D02*
X9772852Y-9527960D01*
X9772852Y-9592720D02*
X9788092Y-9607960D01*
X9788092Y-9592720D02*
X9772852Y-9607960D01*
X9772852Y-9672720D02*
X9788092Y-9687960D01*
X9788092Y-9672720D02*
X9772852Y-9687960D01*
X9772852Y-9752720D02*
X9788092Y-9767960D01*
X9788092Y-9752720D02*
X9772852Y-9767960D01*
X9772852Y-9832720D02*
X9788092Y-9847960D01*
X9788092Y-9832720D02*
X9772852Y-9847960D01*
X9796780Y-8340890D02*
X9812020Y-8356130D01*
X9812020Y-8340890D02*
X9796780Y-8356130D01*
X9811570Y-8632732D02*
X9826810Y-8647972D01*
X9826810Y-8632732D02*
X9811570Y-8647972D01*
X9811570Y-8712732D02*
X9826810Y-8727972D01*
X9826810Y-8712732D02*
X9811570Y-8727972D01*
X9811570Y-8792732D02*
X9826810Y-8807972D01*
X9826810Y-8792732D02*
X9811570Y-8807972D01*
X9811570Y-8872732D02*
X9826810Y-8887972D01*
X9826810Y-8872732D02*
X9811570Y-8887972D01*
X9811570Y-8952732D02*
X9826810Y-8967972D01*
X9826810Y-8952732D02*
X9811570Y-8967972D01*
X9811570Y-9032732D02*
X9826810Y-9047972D01*
X9826810Y-9032732D02*
X9811570Y-9047972D01*
X9811570Y-9112732D02*
X9826810Y-9127972D01*
X9826810Y-9112732D02*
X9811570Y-9127972D01*
X9811570Y-9192732D02*
X9826810Y-9207972D01*
X9826810Y-9192732D02*
X9811570Y-9207972D01*
X9811570Y-9272732D02*
X9826810Y-9287972D01*
X9826810Y-9272732D02*
X9811570Y-9287972D01*
X9811570Y-9352732D02*
X9826810Y-9367972D01*
X9826810Y-9352732D02*
X9811570Y-9367972D01*
X9811570Y-9432732D02*
X9826810Y-9447972D01*
X9826810Y-9432732D02*
X9811570Y-9447972D01*
X9811570Y-9512732D02*
X9826810Y-9527972D01*
X9826810Y-9512732D02*
X9811570Y-9527972D01*
X9811570Y-9592732D02*
X9826810Y-9607972D01*
X9826810Y-9592732D02*
X9811570Y-9607972D01*
X9811570Y-9672732D02*
X9826810Y-9687972D01*
X9826810Y-9672732D02*
X9811570Y-9687972D01*
X9811570Y-9752732D02*
X9826810Y-9767972D01*
X9826810Y-9752732D02*
X9811570Y-9767972D01*
X9811570Y-9832732D02*
X9826810Y-9847972D01*
X9826810Y-9832732D02*
X9811570Y-9847972D01*
X9972852Y-8632720D02*
X9988092Y-8647960D01*
X9988092Y-8632720D02*
X9972852Y-8647960D01*
X9972852Y-8712720D02*
X9988092Y-8727960D01*
X9988092Y-8712720D02*
X9972852Y-8727960D01*
X9972852Y-8792720D02*
X9988092Y-8807960D01*
X9988092Y-8792720D02*
X9972852Y-8807960D01*
X9972852Y-8872720D02*
X9988092Y-8887960D01*
X9988092Y-8872720D02*
X9972852Y-8887960D01*
X9972852Y-8952720D02*
X9988092Y-8967960D01*
X9988092Y-8952720D02*
X9972852Y-8967960D01*
X9972852Y-9032720D02*
X9988092Y-9047960D01*
X9988092Y-9032720D02*
X9972852Y-9047960D01*
X9972852Y-9112720D02*
X9988092Y-9127960D01*
X9988092Y-9112720D02*
X9972852Y-9127960D01*
X9972852Y-9192720D02*
X9988092Y-9207960D01*
X9988092Y-9192720D02*
X9972852Y-9207960D01*
X9972852Y-9272720D02*
X9988092Y-9287960D01*
X9988092Y-9272720D02*
X9972852Y-9287960D01*
X9972852Y-9352720D02*
X9988092Y-9367960D01*
X9988092Y-9352720D02*
X9972852Y-9367960D01*
X9972852Y-9432720D02*
X9988092Y-9447960D01*
X9988092Y-9432720D02*
X9972852Y-9447960D01*
X9972852Y-9512720D02*
X9988092Y-9527960D01*
X9988092Y-9512720D02*
X9972852Y-9527960D01*
X9972852Y-9592720D02*
X9988092Y-9607960D01*
X9988092Y-9592720D02*
X9972852Y-9607960D01*
X9972852Y-9672720D02*
X9988092Y-9687960D01*
X9988092Y-9672720D02*
X9972852Y-9687960D01*
X9972852Y-9752720D02*
X9988092Y-9767960D01*
X9988092Y-9752720D02*
X9972852Y-9767960D01*
X9972852Y-9832720D02*
X9988092Y-9847960D01*
X9988092Y-9832720D02*
X9972852Y-9847960D01*
X10011570Y-8632732D02*
X10026810Y-8647972D01*
X10026810Y-8632732D02*
X10011570Y-8647972D01*
X10011570Y-8712732D02*
X10026810Y-8727972D01*
X10026810Y-8712732D02*
X10011570Y-8727972D01*
X10011570Y-8792732D02*
X10026810Y-8807972D01*
X10026810Y-8792732D02*
X10011570Y-8807972D01*
X10011570Y-8872732D02*
X10026810Y-8887972D01*
X10026810Y-8872732D02*
X10011570Y-8887972D01*
X10011570Y-8952732D02*
X10026810Y-8967972D01*
X10026810Y-8952732D02*
X10011570Y-8967972D01*
X10011570Y-9032732D02*
X10026810Y-9047972D01*
X10026810Y-9032732D02*
X10011570Y-9047972D01*
X10011570Y-9112732D02*
X10026810Y-9127972D01*
X10026810Y-9112732D02*
X10011570Y-9127972D01*
X10011570Y-9192732D02*
X10026810Y-9207972D01*
X10026810Y-9192732D02*
X10011570Y-9207972D01*
X10011570Y-9272732D02*
X10026810Y-9287972D01*
X10026810Y-9272732D02*
X10011570Y-9287972D01*
X10011570Y-9352732D02*
X10026810Y-9367972D01*
X10026810Y-9352732D02*
X10011570Y-9367972D01*
X10011570Y-9432732D02*
X10026810Y-9447972D01*
X10026810Y-9432732D02*
X10011570Y-9447972D01*
X10011570Y-9512732D02*
X10026810Y-9527972D01*
X10026810Y-9512732D02*
X10011570Y-9527972D01*
X10011570Y-9592732D02*
X10026810Y-9607972D01*
X10026810Y-9592732D02*
X10011570Y-9607972D01*
X10011570Y-9672732D02*
X10026810Y-9687972D01*
X10026810Y-9672732D02*
X10011570Y-9687972D01*
X10011570Y-9752732D02*
X10026810Y-9767972D01*
X10026810Y-9752732D02*
X10011570Y-9767972D01*
X10011570Y-9832732D02*
X10026810Y-9847972D01*
X10026810Y-9832732D02*
X10011570Y-9847972D01*
X10124186Y-10047440D02*
X10139426Y-10062680D01*
X10139426Y-10047440D02*
X10124186Y-10062680D01*
X10172852Y-8632720D02*
X10188092Y-8647960D01*
X10188092Y-8632720D02*
X10172852Y-8647960D01*
X10172852Y-8712720D02*
X10188092Y-8727960D01*
X10188092Y-8712720D02*
X10172852Y-8727960D01*
X10172852Y-8792720D02*
X10188092Y-8807960D01*
X10188092Y-8792720D02*
X10172852Y-8807960D01*
X10172852Y-8872720D02*
X10188092Y-8887960D01*
X10188092Y-8872720D02*
X10172852Y-8887960D01*
X10172852Y-8952720D02*
X10188092Y-8967960D01*
X10188092Y-8952720D02*
X10172852Y-8967960D01*
X10172852Y-9032720D02*
X10188092Y-9047960D01*
X10188092Y-9032720D02*
X10172852Y-9047960D01*
X10172852Y-9112720D02*
X10188092Y-9127960D01*
X10188092Y-9112720D02*
X10172852Y-9127960D01*
X10172852Y-9192720D02*
X10188092Y-9207960D01*
X10188092Y-9192720D02*
X10172852Y-9207960D01*
X10172852Y-9272720D02*
X10188092Y-9287960D01*
X10188092Y-9272720D02*
X10172852Y-9287960D01*
X10172852Y-9352720D02*
X10188092Y-9367960D01*
X10188092Y-9352720D02*
X10172852Y-9367960D01*
X10172852Y-9432720D02*
X10188092Y-9447960D01*
X10188092Y-9432720D02*
X10172852Y-9447960D01*
X10172852Y-9512720D02*
X10188092Y-9527960D01*
X10188092Y-9512720D02*
X10172852Y-9527960D01*
X10172852Y-9592720D02*
X10188092Y-9607960D01*
X10188092Y-9592720D02*
X10172852Y-9607960D01*
X10172852Y-9672720D02*
X10188092Y-9687960D01*
X10188092Y-9672720D02*
X10172852Y-9687960D01*
X10172852Y-9752720D02*
X10188092Y-9767960D01*
X10188092Y-9752720D02*
X10172852Y-9767960D01*
X10172852Y-9832720D02*
X10188092Y-9847960D01*
X10188092Y-9832720D02*
X10172852Y-9847960D01*
X10211570Y-8632732D02*
X10226810Y-8647972D01*
X10226810Y-8632732D02*
X10211570Y-8647972D01*
X10211570Y-8712732D02*
X10226810Y-8727972D01*
X10226810Y-8712732D02*
X10211570Y-8727972D01*
X10211570Y-8792732D02*
X10226810Y-8807972D01*
X10226810Y-8792732D02*
X10211570Y-8807972D01*
X10211570Y-8872732D02*
X10226810Y-8887972D01*
X10226810Y-8872732D02*
X10211570Y-8887972D01*
X10211570Y-8952732D02*
X10226810Y-8967972D01*
X10226810Y-8952732D02*
X10211570Y-8967972D01*
X10211570Y-9032732D02*
X10226810Y-9047972D01*
X10226810Y-9032732D02*
X10211570Y-9047972D01*
X10211570Y-9112732D02*
X10226810Y-9127972D01*
X10226810Y-9112732D02*
X10211570Y-9127972D01*
X10211570Y-9192732D02*
X10226810Y-9207972D01*
X10226810Y-9192732D02*
X10211570Y-9207972D01*
X10211570Y-9272732D02*
X10226810Y-9287972D01*
X10226810Y-9272732D02*
X10211570Y-9287972D01*
X10211570Y-9352732D02*
X10226810Y-9367972D01*
X10226810Y-9352732D02*
X10211570Y-9367972D01*
X10211570Y-9432732D02*
X10226810Y-9447972D01*
X10226810Y-9432732D02*
X10211570Y-9447972D01*
X10211570Y-9512732D02*
X10226810Y-9527972D01*
X10226810Y-9512732D02*
X10211570Y-9527972D01*
X10211570Y-9592732D02*
X10226810Y-9607972D01*
X10226810Y-9592732D02*
X10211570Y-9607972D01*
X10211570Y-9672732D02*
X10226810Y-9687972D01*
X10226810Y-9672732D02*
X10211570Y-9687972D01*
X10211570Y-9752732D02*
X10226810Y-9767972D01*
X10226810Y-9752732D02*
X10211570Y-9767972D01*
X10211570Y-9832732D02*
X10226810Y-9847972D01*
X10226810Y-9832732D02*
X10211570Y-9847972D01*
X10372852Y-9272720D02*
X10388092Y-9287960D01*
X10388092Y-9272720D02*
X10372852Y-9287960D01*
X10372852Y-9352720D02*
X10388092Y-9367960D01*
X10388092Y-9352720D02*
X10372852Y-9367960D01*
X10372852Y-9432720D02*
X10388092Y-9447960D01*
X10388092Y-9432720D02*
X10372852Y-9447960D01*
X10372852Y-9512720D02*
X10388092Y-9527960D01*
X10388092Y-9512720D02*
X10372852Y-9527960D01*
X10372852Y-9592720D02*
X10388092Y-9607960D01*
X10388092Y-9592720D02*
X10372852Y-9607960D01*
X10372852Y-9672720D02*
X10388092Y-9687960D01*
X10388092Y-9672720D02*
X10372852Y-9687960D01*
X10372852Y-9752720D02*
X10388092Y-9767960D01*
X10388092Y-9752720D02*
X10372852Y-9767960D01*
X10372852Y-9832720D02*
X10388092Y-9847960D01*
X10388092Y-9832720D02*
X10372852Y-9847960D01*
X10375900Y-8712720D02*
X10391140Y-8727960D01*
X10391140Y-8712720D02*
X10375900Y-8727960D01*
X10375900Y-8792720D02*
X10391140Y-8807960D01*
X10391140Y-8792720D02*
X10375900Y-8807960D01*
X10375900Y-8872720D02*
X10391140Y-8887960D01*
X10391140Y-8872720D02*
X10375900Y-8887960D01*
X10375900Y-8952720D02*
X10391140Y-8967960D01*
X10391140Y-8952720D02*
X10375900Y-8967960D01*
X10375900Y-9032720D02*
X10391140Y-9047960D01*
X10391140Y-9032720D02*
X10375900Y-9047960D01*
X10407904Y-8632720D02*
X10423144Y-8647960D01*
X10423144Y-8632720D02*
X10407904Y-8647960D01*
X10407904Y-9112720D02*
X10423144Y-9127960D01*
X10423144Y-9112720D02*
X10407904Y-9127960D01*
X10407904Y-9192720D02*
X10423144Y-9207960D01*
X10423144Y-9192720D02*
X10407904Y-9207960D01*
X10492852Y-9272720D02*
X10508092Y-9287960D01*
X10508092Y-9272720D02*
X10492852Y-9287960D01*
X10492852Y-9352720D02*
X10508092Y-9367960D01*
X10508092Y-9352720D02*
X10492852Y-9367960D01*
X10492852Y-9432720D02*
X10508092Y-9447960D01*
X10508092Y-9432720D02*
X10492852Y-9447960D01*
X10492852Y-9512720D02*
X10508092Y-9527960D01*
X10508092Y-9512720D02*
X10492852Y-9527960D01*
X10492852Y-9592720D02*
X10508092Y-9607960D01*
X10508092Y-9592720D02*
X10492852Y-9607960D01*
X10492852Y-9672720D02*
X10508092Y-9687960D01*
X10508092Y-9672720D02*
X10492852Y-9687960D01*
X10492852Y-9752720D02*
X10508092Y-9767960D01*
X10508092Y-9752720D02*
X10492852Y-9767960D01*
X10492852Y-9832720D02*
X10508092Y-9847960D01*
X10508092Y-9832720D02*
X10492852Y-9847960D01*
X10495900Y-8632720D02*
X10511140Y-8647960D01*
X10511140Y-8632720D02*
X10495900Y-8647960D01*
X10495900Y-8712720D02*
X10511140Y-8727960D01*
X10511140Y-8712720D02*
X10495900Y-8727960D01*
X10495900Y-8792720D02*
X10511140Y-8807960D01*
X10511140Y-8792720D02*
X10495900Y-8807960D01*
X10495900Y-8872720D02*
X10511140Y-8887960D01*
X10511140Y-8872720D02*
X10495900Y-8887960D01*
X10495900Y-8952720D02*
X10511140Y-8967960D01*
X10511140Y-8952720D02*
X10495900Y-8967960D01*
X10495900Y-9032720D02*
X10511140Y-9047960D01*
X10511140Y-9032720D02*
X10495900Y-9047960D01*
X10534000Y-9072720D02*
X10549240Y-9087960D01*
X10549240Y-9072720D02*
X10534000Y-9087960D01*
X10536540Y-9167960D02*
X10551780Y-9183200D01*
X10551780Y-9167960D02*
X10536540Y-9183200D01*
X10576814Y-9224772D02*
X10592054Y-9240012D01*
X10592054Y-9224772D02*
X10576814Y-9240012D01*
X10690860Y-8644650D02*
X10706100Y-8659890D01*
X10706100Y-8644650D02*
X10690860Y-8659890D01*
X10691114Y-9179320D02*
X10706354Y-9194560D01*
X10706354Y-9179320D02*
X10691114Y-9194560D01*
X10691317Y-9715400D02*
X10706557Y-9730640D01*
X10706557Y-9715400D02*
X10691317Y-9730640D01*
X10691317Y-10250400D02*
X10706557Y-10265640D01*
X10706557Y-10250400D02*
X10691317Y-10265640D01*
X10734040Y-8134350D02*
X10749280Y-8149590D01*
X10749280Y-8134350D02*
X10734040Y-8149590D01*
X10734294Y-8669020D02*
X10749534Y-8684260D01*
X10749534Y-8669020D02*
X10734294Y-8684260D01*
X10734497Y-9205100D02*
X10749737Y-9220340D01*
X10749737Y-9205100D02*
X10734497Y-9220340D01*
X10734497Y-9740100D02*
X10749737Y-9755340D01*
X10749737Y-9740100D02*
X10734497Y-9755340D01*
X10767060Y-8262620D02*
X10782300Y-8277860D01*
X10782300Y-8262620D02*
X10767060Y-8277860D01*
X10767060Y-8362380D02*
X10782300Y-8377620D01*
X10782300Y-8362380D02*
X10767060Y-8377620D01*
X10767060Y-8412380D02*
X10782300Y-8427620D01*
X10782300Y-8412380D02*
X10767060Y-8427620D01*
X10767060Y-8511540D02*
X10782300Y-8526780D01*
X10782300Y-8511540D02*
X10767060Y-8526780D01*
X10767314Y-8797290D02*
X10782554Y-8812530D01*
X10782554Y-8797290D02*
X10767314Y-8812530D01*
X10767314Y-8897380D02*
X10782554Y-8912620D01*
X10782554Y-8897380D02*
X10767314Y-8912620D01*
X10767314Y-8947380D02*
X10782554Y-8962620D01*
X10782554Y-8947380D02*
X10767314Y-8962620D01*
X10767314Y-9046210D02*
X10782554Y-9061450D01*
X10782554Y-9046210D02*
X10767314Y-9061450D01*
X10767517Y-9333370D02*
X10782757Y-9348610D01*
X10782757Y-9333370D02*
X10767517Y-9348610D01*
X10767517Y-9432380D02*
X10782757Y-9447620D01*
X10782757Y-9432380D02*
X10767517Y-9447620D01*
X10767517Y-9482380D02*
X10782757Y-9497620D01*
X10782757Y-9482380D02*
X10767517Y-9497620D01*
X10767517Y-9582290D02*
X10782757Y-9597530D01*
X10782757Y-9582290D02*
X10767517Y-9597530D01*
X10767517Y-9868370D02*
X10782757Y-9883610D01*
X10782757Y-9868370D02*
X10767517Y-9883610D01*
X10767517Y-9967380D02*
X10782757Y-9982620D01*
X10782757Y-9967380D02*
X10767517Y-9982620D01*
X10767517Y-10017380D02*
X10782757Y-10032620D01*
X10782757Y-10017380D02*
X10767517Y-10032620D01*
X10767517Y-10117290D02*
X10782757Y-10132530D01*
X10782757Y-10117290D02*
X10767517Y-10132530D01*
X10868660Y-8162290D02*
X10883900Y-8177530D01*
X10883900Y-8162290D02*
X10868660Y-8177530D01*
X10868660Y-8611630D02*
X10883900Y-8626870D01*
X10883900Y-8611630D02*
X10868660Y-8626870D01*
X10868914Y-8696960D02*
X10884154Y-8712200D01*
X10884154Y-8696960D02*
X10868914Y-8712200D01*
X10868914Y-9146300D02*
X10884154Y-9161540D01*
X10884154Y-9146300D02*
X10868914Y-9161540D01*
X10869117Y-9233040D02*
X10884357Y-9248280D01*
X10884357Y-9233040D02*
X10869117Y-9248280D01*
X10869117Y-9682380D02*
X10884357Y-9697620D01*
X10884357Y-9682380D02*
X10869117Y-9697620D01*
X10869117Y-9768040D02*
X10884357Y-9783280D01*
X10884357Y-9768040D02*
X10869117Y-9783280D01*
X10869117Y-10217380D02*
X10884357Y-10232620D01*
X10884357Y-10217380D02*
X10869117Y-10232620D01*
X10919460Y-8162290D02*
X10934700Y-8177530D01*
X10934700Y-8162290D02*
X10919460Y-8177530D01*
X10919460Y-8611630D02*
X10934700Y-8626870D01*
X10934700Y-8611630D02*
X10919460Y-8626870D01*
X10919714Y-8696960D02*
X10934954Y-8712200D01*
X10934954Y-8696960D02*
X10919714Y-8712200D01*
X10919714Y-9146300D02*
X10934954Y-9161540D01*
X10934954Y-9146300D02*
X10919714Y-9161540D01*
X10919917Y-9233040D02*
X10935157Y-9248280D01*
X10935157Y-9233040D02*
X10919917Y-9248280D01*
X10919917Y-9682380D02*
X10935157Y-9697620D01*
X10935157Y-9682380D02*
X10919917Y-9697620D01*
X10919917Y-9768040D02*
X10935157Y-9783280D01*
X10935157Y-9768040D02*
X10919917Y-9783280D01*
X10919917Y-10217380D02*
X10935157Y-10232620D01*
X10935157Y-10217380D02*
X10919917Y-10232620D01*
X10967720Y-8162290D02*
X10982960Y-8177530D01*
X10982960Y-8162290D02*
X10967720Y-8177530D01*
X10967720Y-8611630D02*
X10982960Y-8626870D01*
X10982960Y-8611630D02*
X10967720Y-8626870D01*
X10967974Y-8696960D02*
X10983214Y-8712200D01*
X10983214Y-8696960D02*
X10967974Y-8712200D01*
X10967974Y-9146300D02*
X10983214Y-9161540D01*
X10983214Y-9146300D02*
X10967974Y-9161540D01*
X10968177Y-9233040D02*
X10983417Y-9248280D01*
X10983417Y-9233040D02*
X10968177Y-9248280D01*
X10968177Y-9682380D02*
X10983417Y-9697620D01*
X10983417Y-9682380D02*
X10968177Y-9697620D01*
X10968177Y-9768040D02*
X10983417Y-9783280D01*
X10983417Y-9768040D02*
X10968177Y-9783280D01*
X10968177Y-10217380D02*
X10983417Y-10232620D01*
X10983417Y-10217380D02*
X10968177Y-10232620D01*
X11018520Y-8162290D02*
X11033760Y-8177530D01*
X11033760Y-8162290D02*
X11018520Y-8177530D01*
X11018520Y-8611630D02*
X11033760Y-8626870D01*
X11033760Y-8611630D02*
X11018520Y-8626870D01*
X11018774Y-8696960D02*
X11034014Y-8712200D01*
X11034014Y-8696960D02*
X11018774Y-8712200D01*
X11018774Y-9146300D02*
X11034014Y-9161540D01*
X11034014Y-9146300D02*
X11018774Y-9161540D01*
X11018977Y-9233040D02*
X11034217Y-9248280D01*
X11034217Y-9233040D02*
X11018977Y-9248280D01*
X11018977Y-9682380D02*
X11034217Y-9697620D01*
X11034217Y-9682380D02*
X11018977Y-9697620D01*
X11018977Y-9768040D02*
X11034217Y-9783280D01*
X11034217Y-9768040D02*
X11018977Y-9783280D01*
X11018977Y-10217380D02*
X11034217Y-10232620D01*
X11034217Y-10217380D02*
X11018977Y-10232620D01*
X11069320Y-8162290D02*
X11084560Y-8177530D01*
X11084560Y-8162290D02*
X11069320Y-8177530D01*
X11069320Y-8611630D02*
X11084560Y-8626870D01*
X11084560Y-8611630D02*
X11069320Y-8626870D01*
X11069574Y-8696960D02*
X11084814Y-8712200D01*
X11084814Y-8696960D02*
X11069574Y-8712200D01*
X11069574Y-9146300D02*
X11084814Y-9161540D01*
X11084814Y-9146300D02*
X11069574Y-9161540D01*
X11069777Y-9233040D02*
X11085017Y-9248280D01*
X11085017Y-9233040D02*
X11069777Y-9248280D01*
X11069777Y-9682380D02*
X11085017Y-9697620D01*
X11085017Y-9682380D02*
X11069777Y-9697620D01*
X11069777Y-9768040D02*
X11085017Y-9783280D01*
X11085017Y-9768040D02*
X11069777Y-9783280D01*
X11069777Y-10217380D02*
X11085017Y-10232620D01*
X11085017Y-10217380D02*
X11069777Y-10232620D01*
X11231880Y-8618220D02*
X11247120Y-8633460D01*
X11247120Y-8618220D02*
X11231880Y-8633460D01*
X11233404Y-9149334D02*
X11248644Y-9164574D01*
X11248644Y-9149334D02*
X11233404Y-9164574D01*
X11233912Y-9682480D02*
X11249152Y-9697720D01*
X11249152Y-9682480D02*
X11233912Y-9697720D01*
X11264900Y-8122248D02*
X11280140Y-8137488D01*
X11280140Y-8122248D02*
X11264900Y-8137488D01*
X11264900Y-8192600D02*
X11280140Y-8207840D01*
X11280140Y-8192600D02*
X11264900Y-8207840D01*
X11264900Y-8662560D02*
X11280140Y-8677800D01*
X11280140Y-8662560D02*
X11264900Y-8677800D01*
X11264900Y-8733940D02*
X11280140Y-8749180D01*
X11280140Y-8733940D02*
X11264900Y-8749180D01*
X11264900Y-9198500D02*
X11280140Y-9213740D01*
X11280140Y-9198500D02*
X11264900Y-9213740D01*
X11264900Y-9270400D02*
X11280140Y-9285640D01*
X11280140Y-9270400D02*
X11264900Y-9285640D01*
X11264900Y-9732420D02*
X11280140Y-9747660D01*
X11280140Y-9732420D02*
X11264900Y-9747660D01*
X11264900Y-9803800D02*
X11280140Y-9819040D01*
X11280140Y-9803800D02*
X11264900Y-9819040D01*
X11415014Y-8122248D02*
X11430254Y-8137488D01*
X11430254Y-8122248D02*
X11415014Y-8137488D01*
X11415014Y-8192600D02*
X11430254Y-8207840D01*
X11430254Y-8192600D02*
X11415014Y-8207840D01*
X11415014Y-8589380D02*
X11430254Y-8604620D01*
X11430254Y-8589380D02*
X11415014Y-8604620D01*
X11415014Y-8662560D02*
X11430254Y-8677800D01*
X11430254Y-8662560D02*
X11415014Y-8677800D01*
X11415014Y-8733940D02*
X11430254Y-8749180D01*
X11430254Y-8733940D02*
X11415014Y-8749180D01*
X11415014Y-9124380D02*
X11430254Y-9139620D01*
X11430254Y-9124380D02*
X11415014Y-9139620D01*
X11415014Y-9198500D02*
X11430254Y-9213740D01*
X11430254Y-9198500D02*
X11415014Y-9213740D01*
X11415014Y-9270400D02*
X11430254Y-9285640D01*
X11430254Y-9270400D02*
X11415014Y-9285640D01*
X11415014Y-9659380D02*
X11430254Y-9674620D01*
X11430254Y-9659380D02*
X11415014Y-9674620D01*
X11415014Y-9732420D02*
X11430254Y-9747660D01*
X11430254Y-9732420D02*
X11415014Y-9747660D01*
X11415014Y-9803800D02*
X11430254Y-9819040D01*
X11430254Y-9803800D02*
X11415014Y-9819040D01*
X11499314Y-9897780D02*
X11514554Y-9913020D01*
X11514554Y-9897780D02*
X11499314Y-9913020D01*
X11499314Y-9997780D02*
X11514554Y-10013020D01*
X11514554Y-9997780D02*
X11499314Y-10013020D01*
X11499314Y-10097780D02*
X11514554Y-10113020D01*
X11514554Y-10097780D02*
X11499314Y-10113020D01*
X11529666Y-10215764D02*
X11544906Y-10231004D01*
X11544906Y-10215764D02*
X11529666Y-10231004D01*
X11592380Y-8282380D02*
X11607620Y-8297620D01*
X11607620Y-8282380D02*
X11592380Y-8297620D01*
X11592380Y-8332380D02*
X11607620Y-8347620D01*
X11607620Y-8332380D02*
X11592380Y-8347620D01*
X11592380Y-8382380D02*
X11607620Y-8397620D01*
X11607620Y-8382380D02*
X11592380Y-8397620D01*
X11592380Y-8432380D02*
X11607620Y-8447620D01*
X11607620Y-8432380D02*
X11592380Y-8447620D01*
X11592380Y-8482380D02*
X11607620Y-8497620D01*
X11607620Y-8482380D02*
X11592380Y-8497620D01*
X11592380Y-8532380D02*
X11607620Y-8547620D01*
X11607620Y-8532380D02*
X11592380Y-8547620D01*
X11592380Y-8582380D02*
X11607620Y-8597620D01*
X11607620Y-8582380D02*
X11592380Y-8597620D01*
X11592380Y-8632380D02*
X11607620Y-8647620D01*
X11607620Y-8632380D02*
X11592380Y-8647620D01*
X11592380Y-8682380D02*
X11607620Y-8697620D01*
X11607620Y-8682380D02*
X11592380Y-8697620D01*
X11592380Y-8732380D02*
X11607620Y-8747620D01*
X11607620Y-8732380D02*
X11592380Y-8747620D01*
X11592380Y-8782380D02*
X11607620Y-8797620D01*
X11607620Y-8782380D02*
X11592380Y-8797620D01*
X11592380Y-8832380D02*
X11607620Y-8847620D01*
X11607620Y-8832380D02*
X11592380Y-8847620D01*
X11592380Y-8882380D02*
X11607620Y-8897620D01*
X11607620Y-8882380D02*
X11592380Y-8897620D01*
X11592380Y-8932380D02*
X11607620Y-8947620D01*
X11607620Y-8932380D02*
X11592380Y-8947620D01*
X11592380Y-8982380D02*
X11607620Y-8997620D01*
X11607620Y-8982380D02*
X11592380Y-8997620D01*
X11592380Y-9032380D02*
X11607620Y-9047620D01*
X11607620Y-9032380D02*
X11592380Y-9047620D01*
X11592380Y-9082380D02*
X11607620Y-9097620D01*
X11607620Y-9082380D02*
X11592380Y-9097620D01*
X11592380Y-9132380D02*
X11607620Y-9147620D01*
X11607620Y-9132380D02*
X11592380Y-9147620D01*
X11592380Y-9182380D02*
X11607620Y-9197620D01*
X11607620Y-9182380D02*
X11592380Y-9197620D01*
X11621666Y-10215764D02*
X11636906Y-10231004D01*
X11636906Y-10215764D02*
X11621666Y-10231004D01*
X11692380Y-8282380D02*
X11707620Y-8297620D01*
X11707620Y-8282380D02*
X11692380Y-8297620D01*
X11692380Y-9182380D02*
X11707620Y-9197620D01*
X11707620Y-9182380D02*
X11692380Y-9197620D01*
X11713666Y-10215764D02*
X11728906Y-10231004D01*
X11728906Y-10215764D02*
X11713666Y-10231004D01*
X11742380Y-8282380D02*
X11757620Y-8297620D01*
X11757620Y-8282380D02*
X11742380Y-8297620D01*
X11742380Y-9182380D02*
X11757620Y-9197620D01*
X11757620Y-9182380D02*
X11742380Y-9197620D01*
X11752380Y-8502380D02*
X11767620Y-8517620D01*
X11767620Y-8502380D02*
X11752380Y-8517620D01*
X11752380Y-8944380D02*
X11767620Y-8959620D01*
X11767620Y-8944380D02*
X11752380Y-8959620D01*
X11782380Y-8542380D02*
X11797620Y-8557620D01*
X11797620Y-8542380D02*
X11782380Y-8557620D01*
X11782380Y-8909380D02*
X11797620Y-8924620D01*
X11797620Y-8909380D02*
X11782380Y-8924620D01*
X11792380Y-8282380D02*
X11807620Y-8297620D01*
X11807620Y-8282380D02*
X11792380Y-8297620D01*
X11792380Y-9182380D02*
X11807620Y-9197620D01*
X11807620Y-9182380D02*
X11792380Y-9197620D01*
X11812380Y-8582380D02*
X11827620Y-8597620D01*
X11827620Y-8582380D02*
X11812380Y-8597620D01*
X11812380Y-8874380D02*
X11827620Y-8889620D01*
X11827620Y-8874380D02*
X11812380Y-8889620D01*
X11842380Y-8282380D02*
X11857620Y-8297620D01*
X11857620Y-8282380D02*
X11842380Y-8297620D01*
X11842380Y-8622380D02*
X11857620Y-8637620D01*
X11857620Y-8622380D02*
X11842380Y-8637620D01*
X11842380Y-8839380D02*
X11857620Y-8854620D01*
X11857620Y-8839380D02*
X11842380Y-8854620D01*
X11842380Y-9182380D02*
X11857620Y-9197620D01*
X11857620Y-9182380D02*
X11842380Y-9197620D01*
X11852380Y-8462380D02*
X11867620Y-8477620D01*
X11867620Y-8462380D02*
X11852380Y-8477620D01*
X11852380Y-9012380D02*
X11867620Y-9027620D01*
X11867620Y-9012380D02*
X11852380Y-9027620D01*
X11872380Y-8662380D02*
X11887620Y-8677620D01*
X11887620Y-8662380D02*
X11872380Y-8677620D01*
X11872380Y-8802380D02*
X11887620Y-8817620D01*
X11887620Y-8802380D02*
X11872380Y-8817620D01*
X11892380Y-8282380D02*
X11907620Y-8297620D01*
X11907620Y-8282380D02*
X11892380Y-8297620D01*
X11892380Y-8502380D02*
X11907620Y-8517620D01*
X11907620Y-8502380D02*
X11892380Y-8517620D01*
X11892380Y-8992380D02*
X11907620Y-9007620D01*
X11907620Y-8992380D02*
X11892380Y-9007620D01*
X11892380Y-9182380D02*
X11907620Y-9197620D01*
X11907620Y-9182380D02*
X11892380Y-9197620D01*
X11897380Y-8697380D02*
X11912620Y-8712620D01*
X11912620Y-8697380D02*
X11897380Y-8712620D01*
X11897380Y-8767380D02*
X11912620Y-8782620D01*
X11912620Y-8767380D02*
X11897380Y-8782620D01*
X11922380Y-8732380D02*
X11937620Y-8747620D01*
X11937620Y-8732380D02*
X11922380Y-8747620D01*
X11932380Y-8532380D02*
X11947620Y-8547620D01*
X11947620Y-8532380D02*
X11932380Y-8547620D01*
X11932380Y-8972380D02*
X11947620Y-8987620D01*
X11947620Y-8972380D02*
X11932380Y-8987620D01*
X11942380Y-8282380D02*
X11957620Y-8297620D01*
X11957620Y-8282380D02*
X11942380Y-8297620D01*
X11942380Y-9182380D02*
X11957620Y-9197620D01*
X11957620Y-9182380D02*
X11942380Y-9197620D01*
X11972380Y-8562380D02*
X11987620Y-8577620D01*
X11987620Y-8562380D02*
X11972380Y-8577620D01*
X11972380Y-8952380D02*
X11987620Y-8967620D01*
X11987620Y-8952380D02*
X11972380Y-8967620D01*
X11979362Y-9553536D02*
X11994602Y-9568776D01*
X11994602Y-9553536D02*
X11979362Y-9568776D01*
X11979362Y-9617036D02*
X11994602Y-9632276D01*
X11994602Y-9617036D02*
X11979362Y-9632276D01*
X11979362Y-9680536D02*
X11994602Y-9695776D01*
X11994602Y-9680536D02*
X11979362Y-9695776D01*
X11979362Y-9744036D02*
X11994602Y-9759276D01*
X11994602Y-9744036D02*
X11979362Y-9759276D01*
X11979362Y-9807536D02*
X11994602Y-9822776D01*
X11994602Y-9807536D02*
X11979362Y-9822776D01*
X11979362Y-9871036D02*
X11994602Y-9886276D01*
X11994602Y-9871036D02*
X11979362Y-9886276D01*
X11979362Y-9934536D02*
X11994602Y-9949776D01*
X11994602Y-9934536D02*
X11979362Y-9949776D01*
X11979362Y-9998036D02*
X11994602Y-10013276D01*
X11994602Y-9998036D02*
X11979362Y-10013276D01*
X11979362Y-10188536D02*
X11994602Y-10203776D01*
X11994602Y-10188536D02*
X11979362Y-10203776D01*
X11979362Y-10252036D02*
X11994602Y-10267276D01*
X11994602Y-10252036D02*
X11979362Y-10267276D01*
X11979362Y-10315536D02*
X11994602Y-10330776D01*
X11994602Y-10315536D02*
X11979362Y-10330776D01*
X11992380Y-8282380D02*
X12007620Y-8297620D01*
X12007620Y-8282380D02*
X11992380Y-8297620D01*
X11992380Y-9182380D02*
X12007620Y-9197620D01*
X12007620Y-9182380D02*
X11992380Y-9197620D01*
X12012380Y-8592380D02*
X12027620Y-8607620D01*
X12027620Y-8592380D02*
X12012380Y-8607620D01*
X12012380Y-8932380D02*
X12027620Y-8947620D01*
X12027620Y-8932380D02*
X12012380Y-8947620D01*
X12042380Y-8282380D02*
X12057620Y-8297620D01*
X12057620Y-8282380D02*
X12042380Y-8297620D01*
X12042380Y-9182380D02*
X12057620Y-9197620D01*
X12057620Y-9182380D02*
X12042380Y-9197620D01*
X12052380Y-8622380D02*
X12067620Y-8637620D01*
X12067620Y-8622380D02*
X12052380Y-8637620D01*
X12052380Y-8912380D02*
X12067620Y-8927620D01*
X12067620Y-8912380D02*
X12052380Y-8927620D01*
X12092380Y-8652380D02*
X12107620Y-8667620D01*
X12107620Y-8652380D02*
X12092380Y-8667620D01*
X12092380Y-8892380D02*
X12107620Y-8907620D01*
X12107620Y-8892380D02*
X12092380Y-8907620D01*
X12132380Y-8682380D02*
X12147620Y-8697620D01*
X12147620Y-8682380D02*
X12132380Y-8697620D01*
X12132380Y-8872380D02*
X12147620Y-8887620D01*
X12147620Y-8872380D02*
X12132380Y-8887620D01*
X12149542Y-10188536D02*
X12164782Y-10203776D01*
X12164782Y-10188536D02*
X12149542Y-10203776D01*
X12149542Y-10252036D02*
X12164782Y-10267276D01*
X12164782Y-10252036D02*
X12149542Y-10267276D01*
X12192380Y-9182380D02*
X12207620Y-9197620D01*
X12207620Y-9182380D02*
X12192380Y-9197620D01*
X12279188Y-10064044D02*
X12294428Y-10079284D01*
X12294428Y-10064044D02*
X12279188Y-10079284D01*
X12279188Y-10114044D02*
X12294428Y-10129284D01*
X12294428Y-10114044D02*
X12279188Y-10129284D01*
X12279378Y-9863980D02*
X12294618Y-9879220D01*
X12294618Y-9863980D02*
X12279378Y-9879220D01*
X12279378Y-9913980D02*
X12294618Y-9929220D01*
X12294618Y-9913980D02*
X12279378Y-9929220D01*
X12279630Y-8482380D02*
X12294870Y-8497620D01*
X12294870Y-8482380D02*
X12279630Y-8497620D01*
X12279630Y-8532380D02*
X12294870Y-8547620D01*
X12294870Y-8532380D02*
X12279630Y-8547620D01*
X12279630Y-8682482D02*
X12294870Y-8697722D01*
X12294870Y-8682482D02*
X12279630Y-8697722D01*
X12279630Y-8732266D02*
X12294870Y-8747506D01*
X12294870Y-8732266D02*
X12279630Y-8747506D01*
X12279630Y-8815070D02*
X12294870Y-8830310D01*
X12294870Y-8815070D02*
X12279630Y-8830310D01*
X12279630Y-8857742D02*
X12294870Y-8872982D01*
X12294870Y-8857742D02*
X12279630Y-8872982D01*
X12380978Y-9813980D02*
X12396218Y-9829220D01*
X12396218Y-9813980D02*
X12380978Y-9829220D01*
X12381166Y-9764044D02*
X12396406Y-9779284D01*
X12396406Y-9764044D02*
X12381166Y-9779284D01*
X12392708Y-9087118D02*
X12407948Y-9102358D01*
X12407948Y-9087118D02*
X12392708Y-9102358D01*
D11*
X9808277Y-10863984D02*
X9808277Y-10663984D01*
X9808277Y-10663984D02*
X9855896Y-10663984D01*
X9855896Y-10663984D02*
X9884467Y-10673508D01*
X9884467Y-10673508D02*
X9903515Y-10692555D01*
X9903515Y-10692555D02*
X9913039Y-10711603D01*
X9913039Y-10711603D02*
X9922563Y-10749698D01*
X9922563Y-10749698D02*
X9922563Y-10778270D01*
X9922563Y-10778270D02*
X9913039Y-10816365D01*
X9913039Y-10816365D02*
X9903515Y-10835412D01*
X9903515Y-10835412D02*
X9884467Y-10854460D01*
X9884467Y-10854460D02*
X9855896Y-10863984D01*
X9855896Y-10863984D02*
X9808277Y-10863984D01*
X10008277Y-10863984D02*
X10008277Y-10730650D01*
X10008277Y-10768746D02*
X10017801Y-10749698D01*
X10017801Y-10749698D02*
X10027324Y-10740174D01*
X10027324Y-10740174D02*
X10046372Y-10730650D01*
X10046372Y-10730650D02*
X10065420Y-10730650D01*
X10132086Y-10863984D02*
X10132086Y-10730650D01*
X10132086Y-10663984D02*
X10122563Y-10673508D01*
X10122563Y-10673508D02*
X10132086Y-10683031D01*
X10132086Y-10683031D02*
X10141610Y-10673508D01*
X10141610Y-10673508D02*
X10132086Y-10663984D01*
X10132086Y-10663984D02*
X10132086Y-10683031D01*
X10255896Y-10863984D02*
X10236848Y-10854460D01*
X10236848Y-10854460D02*
X10227324Y-10835412D01*
X10227324Y-10835412D02*
X10227324Y-10663984D01*
X10360658Y-10863984D02*
X10341610Y-10854460D01*
X10341610Y-10854460D02*
X10332086Y-10835412D01*
X10332086Y-10835412D02*
X10332086Y-10663984D01*
X10589229Y-10863984D02*
X10589229Y-10663984D01*
X10589229Y-10663984D02*
X10655896Y-10806841D01*
X10655896Y-10806841D02*
X10722563Y-10663984D01*
X10722563Y-10663984D02*
X10722563Y-10863984D01*
X10903515Y-10863984D02*
X10903515Y-10759222D01*
X10903515Y-10759222D02*
X10893991Y-10740174D01*
X10893991Y-10740174D02*
X10874944Y-10730650D01*
X10874944Y-10730650D02*
X10836848Y-10730650D01*
X10836848Y-10730650D02*
X10817801Y-10740174D01*
X10903515Y-10854460D02*
X10884467Y-10863984D01*
X10884467Y-10863984D02*
X10836848Y-10863984D01*
X10836848Y-10863984D02*
X10817801Y-10854460D01*
X10817801Y-10854460D02*
X10808277Y-10835412D01*
X10808277Y-10835412D02*
X10808277Y-10816365D01*
X10808277Y-10816365D02*
X10817801Y-10797317D01*
X10817801Y-10797317D02*
X10836848Y-10787793D01*
X10836848Y-10787793D02*
X10884467Y-10787793D01*
X10884467Y-10787793D02*
X10903515Y-10778270D01*
X10998753Y-10730650D02*
X10998753Y-10930650D01*
X10998753Y-10740174D02*
X11017801Y-10730650D01*
X11017801Y-10730650D02*
X11055896Y-10730650D01*
X11055896Y-10730650D02*
X11074944Y-10740174D01*
X11074944Y-10740174D02*
X11084467Y-10749698D01*
X11084467Y-10749698D02*
X11093991Y-10768746D01*
X11093991Y-10768746D02*
X11093991Y-10825889D01*
X11093991Y-10825889D02*
X11084467Y-10844936D01*
X11084467Y-10844936D02*
X11074944Y-10854460D01*
X11074944Y-10854460D02*
X11055896Y-10863984D01*
X11055896Y-10863984D02*
X11017801Y-10863984D01*
X11017801Y-10863984D02*
X10998753Y-10854460D01*
X11179705Y-10844936D02*
X11189229Y-10854460D01*
X11189229Y-10854460D02*
X11179705Y-10863984D01*
X11179705Y-10863984D02*
X11170182Y-10854460D01*
X11170182Y-10854460D02*
X11179705Y-10844936D01*
X11179705Y-10844936D02*
X11179705Y-10863984D01*
X11179705Y-10740174D02*
X11189229Y-10749698D01*
X11189229Y-10749698D02*
X11179705Y-10759222D01*
X11179705Y-10759222D02*
X11170182Y-10749698D01*
X11170182Y-10749698D02*
X11179705Y-10740174D01*
X11179705Y-10740174D02*
X11179705Y-10759222D01*
D12*
X9532260Y-11184880D02*
X9547500Y-11200120D01*
X9547500Y-11184880D02*
X9532260Y-11200120D01*
D11*
X9846372Y-11083984D02*
X9865420Y-11083984D01*
X9865420Y-11083984D02*
X9884467Y-11093508D01*
X9884467Y-11093508D02*
X9893991Y-11103031D01*
X9893991Y-11103031D02*
X9903515Y-11122079D01*
X9903515Y-11122079D02*
X9913039Y-11160174D01*
X9913039Y-11160174D02*
X9913039Y-11207793D01*
X9913039Y-11207793D02*
X9903515Y-11245888D01*
X9903515Y-11245888D02*
X9893991Y-11264936D01*
X9893991Y-11264936D02*
X9884467Y-11274460D01*
X9884467Y-11274460D02*
X9865420Y-11283984D01*
X9865420Y-11283984D02*
X9846372Y-11283984D01*
X9846372Y-11283984D02*
X9827324Y-11274460D01*
X9827324Y-11274460D02*
X9817801Y-11264936D01*
X9817801Y-11264936D02*
X9808277Y-11245888D01*
X9808277Y-11245888D02*
X9798753Y-11207793D01*
X9798753Y-11207793D02*
X9798753Y-11160174D01*
X9798753Y-11160174D02*
X9808277Y-11122079D01*
X9808277Y-11122079D02*
X9817801Y-11103031D01*
X9817801Y-11103031D02*
X9827324Y-11093508D01*
X9827324Y-11093508D02*
X9846372Y-11083984D01*
X9998753Y-11264936D02*
X10008277Y-11274460D01*
X10008277Y-11274460D02*
X9998753Y-11283984D01*
X9998753Y-11283984D02*
X9989229Y-11274460D01*
X9989229Y-11274460D02*
X9998753Y-11264936D01*
X9998753Y-11264936D02*
X9998753Y-11283984D01*
X10198753Y-11283984D02*
X10084467Y-11283984D01*
X10141610Y-11283984D02*
X10141610Y-11083984D01*
X10141610Y-11083984D02*
X10122563Y-11112555D01*
X10122563Y-11112555D02*
X10103515Y-11131603D01*
X10103515Y-11131603D02*
X10084467Y-11141127D01*
X10379705Y-11083984D02*
X10284467Y-11083984D01*
X10284467Y-11083984D02*
X10274944Y-11179222D01*
X10274944Y-11179222D02*
X10284467Y-11169698D01*
X10284467Y-11169698D02*
X10303515Y-11160174D01*
X10303515Y-11160174D02*
X10351134Y-11160174D01*
X10351134Y-11160174D02*
X10370182Y-11169698D01*
X10370182Y-11169698D02*
X10379705Y-11179222D01*
X10379705Y-11179222D02*
X10389229Y-11198269D01*
X10389229Y-11198269D02*
X10389229Y-11245888D01*
X10389229Y-11245888D02*
X10379705Y-11264936D01*
X10379705Y-11264936D02*
X10370182Y-11274460D01*
X10370182Y-11274460D02*
X10351134Y-11283984D01*
X10351134Y-11283984D02*
X10303515Y-11283984D01*
X10303515Y-11283984D02*
X10284467Y-11274460D01*
X10284467Y-11274460D02*
X10274944Y-11264936D01*
X10465420Y-11103031D02*
X10474944Y-11093508D01*
X10474944Y-11093508D02*
X10493991Y-11083984D01*
X10493991Y-11083984D02*
X10541610Y-11083984D01*
X10541610Y-11083984D02*
X10560658Y-11093508D01*
X10560658Y-11093508D02*
X10570182Y-11103031D01*
X10570182Y-11103031D02*
X10579705Y-11122079D01*
X10579705Y-11122079D02*
X10579705Y-11141127D01*
X10579705Y-11141127D02*
X10570182Y-11169698D01*
X10570182Y-11169698D02*
X10455896Y-11283984D01*
X10455896Y-11283984D02*
X10579705Y-11283984D01*
X10665420Y-11283984D02*
X10665420Y-11150650D01*
X10665420Y-11169698D02*
X10674944Y-11160174D01*
X10674944Y-11160174D02*
X10693991Y-11150650D01*
X10693991Y-11150650D02*
X10722563Y-11150650D01*
X10722563Y-11150650D02*
X10741610Y-11160174D01*
X10741610Y-11160174D02*
X10751134Y-11179222D01*
X10751134Y-11179222D02*
X10751134Y-11283984D01*
X10751134Y-11179222D02*
X10760658Y-11160174D01*
X10760658Y-11160174D02*
X10779705Y-11150650D01*
X10779705Y-11150650D02*
X10808277Y-11150650D01*
X10808277Y-11150650D02*
X10827325Y-11160174D01*
X10827325Y-11160174D02*
X10836848Y-11179222D01*
X10836848Y-11179222D02*
X10836848Y-11283984D01*
X10932086Y-11283984D02*
X10932086Y-11150650D01*
X10932086Y-11169698D02*
X10941610Y-11160174D01*
X10941610Y-11160174D02*
X10960658Y-11150650D01*
X10960658Y-11150650D02*
X10989229Y-11150650D01*
X10989229Y-11150650D02*
X11008277Y-11160174D01*
X11008277Y-11160174D02*
X11017801Y-11179222D01*
X11017801Y-11179222D02*
X11017801Y-11283984D01*
X11017801Y-11179222D02*
X11027325Y-11160174D01*
X11027325Y-11160174D02*
X11046372Y-11150650D01*
X11046372Y-11150650D02*
X11074944Y-11150650D01*
X11074944Y-11150650D02*
X11093991Y-11160174D01*
X11093991Y-11160174D02*
X11103515Y-11179222D01*
X11103515Y-11179222D02*
X11103515Y-11283984D01*
X11493991Y-11074460D02*
X11322563Y-11331603D01*
X11751134Y-11083984D02*
X11770182Y-11083984D01*
X11770182Y-11083984D02*
X11789229Y-11093508D01*
X11789229Y-11093508D02*
X11798753Y-11103031D01*
X11798753Y-11103031D02*
X11808277Y-11122079D01*
X11808277Y-11122079D02*
X11817801Y-11160174D01*
X11817801Y-11160174D02*
X11817801Y-11207793D01*
X11817801Y-11207793D02*
X11808277Y-11245888D01*
X11808277Y-11245888D02*
X11798753Y-11264936D01*
X11798753Y-11264936D02*
X11789229Y-11274460D01*
X11789229Y-11274460D02*
X11770182Y-11283984D01*
X11770182Y-11283984D02*
X11751134Y-11283984D01*
X11751134Y-11283984D02*
X11732086Y-11274460D01*
X11732086Y-11274460D02*
X11722563Y-11264936D01*
X11722563Y-11264936D02*
X11713039Y-11245888D01*
X11713039Y-11245888D02*
X11703515Y-11207793D01*
X11703515Y-11207793D02*
X11703515Y-11160174D01*
X11703515Y-11160174D02*
X11713039Y-11122079D01*
X11713039Y-11122079D02*
X11722563Y-11103031D01*
X11722563Y-11103031D02*
X11732086Y-11093508D01*
X11732086Y-11093508D02*
X11751134Y-11083984D01*
X11903515Y-11264936D02*
X11913039Y-11274460D01*
X11913039Y-11274460D02*
X11903515Y-11283984D01*
X11903515Y-11283984D02*
X11893991Y-11274460D01*
X11893991Y-11274460D02*
X11903515Y-11264936D01*
X11903515Y-11264936D02*
X11903515Y-11283984D01*
X12036848Y-11083984D02*
X12055896Y-11083984D01*
X12055896Y-11083984D02*
X12074944Y-11093508D01*
X12074944Y-11093508D02*
X12084467Y-11103031D01*
X12084467Y-11103031D02*
X12093991Y-11122079D01*
X12093991Y-11122079D02*
X12103515Y-11160174D01*
X12103515Y-11160174D02*
X12103515Y-11207793D01*
X12103515Y-11207793D02*
X12093991Y-11245888D01*
X12093991Y-11245888D02*
X12084467Y-11264936D01*
X12084467Y-11264936D02*
X12074944Y-11274460D01*
X12074944Y-11274460D02*
X12055896Y-11283984D01*
X12055896Y-11283984D02*
X12036848Y-11283984D01*
X12036848Y-11283984D02*
X12017801Y-11274460D01*
X12017801Y-11274460D02*
X12008277Y-11264936D01*
X12008277Y-11264936D02*
X11998753Y-11245888D01*
X11998753Y-11245888D02*
X11989229Y-11207793D01*
X11989229Y-11207793D02*
X11989229Y-11160174D01*
X11989229Y-11160174D02*
X11998753Y-11122079D01*
X11998753Y-11122079D02*
X12008277Y-11103031D01*
X12008277Y-11103031D02*
X12017801Y-11093508D01*
X12017801Y-11093508D02*
X12036848Y-11083984D01*
X12227325Y-11083984D02*
X12246372Y-11083984D01*
X12246372Y-11083984D02*
X12265420Y-11093508D01*
X12265420Y-11093508D02*
X12274944Y-11103031D01*
X12274944Y-11103031D02*
X12284467Y-11122079D01*
X12284467Y-11122079D02*
X12293991Y-11160174D01*
X12293991Y-11160174D02*
X12293991Y-11207793D01*
X12293991Y-11207793D02*
X12284467Y-11245888D01*
X12284467Y-11245888D02*
X12274944Y-11264936D01*
X12274944Y-11264936D02*
X12265420Y-11274460D01*
X12265420Y-11274460D02*
X12246372Y-11283984D01*
X12246372Y-11283984D02*
X12227325Y-11283984D01*
X12227325Y-11283984D02*
X12208277Y-11274460D01*
X12208277Y-11274460D02*
X12198753Y-11264936D01*
X12198753Y-11264936D02*
X12189229Y-11245888D01*
X12189229Y-11245888D02*
X12179706Y-11207793D01*
X12179706Y-11207793D02*
X12179706Y-11160174D01*
X12179706Y-11160174D02*
X12189229Y-11122079D01*
X12189229Y-11122079D02*
X12198753Y-11103031D01*
X12198753Y-11103031D02*
X12208277Y-11093508D01*
X12208277Y-11093508D02*
X12227325Y-11083984D01*
X12465420Y-11083984D02*
X12427325Y-11083984D01*
X12427325Y-11083984D02*
X12408277Y-11093508D01*
X12408277Y-11093508D02*
X12398753Y-11103031D01*
X12398753Y-11103031D02*
X12379706Y-11131603D01*
X12379706Y-11131603D02*
X12370182Y-11169698D01*
X12370182Y-11169698D02*
X12370182Y-11245888D01*
X12370182Y-11245888D02*
X12379706Y-11264936D01*
X12379706Y-11264936D02*
X12389229Y-11274460D01*
X12389229Y-11274460D02*
X12408277Y-11283984D01*
X12408277Y-11283984D02*
X12446372Y-11283984D01*
X12446372Y-11283984D02*
X12465420Y-11274460D01*
X12465420Y-11274460D02*
X12474944Y-11264936D01*
X12474944Y-11264936D02*
X12484467Y-11245888D01*
X12484467Y-11245888D02*
X12484467Y-11198269D01*
X12484467Y-11198269D02*
X12474944Y-11179222D01*
X12474944Y-11179222D02*
X12465420Y-11169698D01*
X12465420Y-11169698D02*
X12446372Y-11160174D01*
X12446372Y-11160174D02*
X12408277Y-11160174D01*
X12408277Y-11160174D02*
X12389229Y-11169698D01*
X12389229Y-11169698D02*
X12379706Y-11179222D01*
X12379706Y-11179222D02*
X12370182Y-11198269D01*
X12608277Y-11083984D02*
X12627325Y-11083984D01*
X12627325Y-11083984D02*
X12646372Y-11093508D01*
X12646372Y-11093508D02*
X12655896Y-11103031D01*
X12655896Y-11103031D02*
X12665420Y-11122079D01*
X12665420Y-11122079D02*
X12674944Y-11160174D01*
X12674944Y-11160174D02*
X12674944Y-11207793D01*
X12674944Y-11207793D02*
X12665420Y-11245888D01*
X12665420Y-11245888D02*
X12655896Y-11264936D01*
X12655896Y-11264936D02*
X12646372Y-11274460D01*
X12646372Y-11274460D02*
X12627325Y-11283984D01*
X12627325Y-11283984D02*
X12608277Y-11283984D01*
X12608277Y-11283984D02*
X12589229Y-11274460D01*
X12589229Y-11274460D02*
X12579706Y-11264936D01*
X12579706Y-11264936D02*
X12570182Y-11245888D01*
X12570182Y-11245888D02*
X12560658Y-11207793D01*
X12560658Y-11207793D02*
X12560658Y-11160174D01*
X12560658Y-11160174D02*
X12570182Y-11122079D01*
X12570182Y-11122079D02*
X12579706Y-11103031D01*
X12579706Y-11103031D02*
X12589229Y-11093508D01*
X12589229Y-11093508D02*
X12608277Y-11083984D01*
X12751134Y-11083984D02*
X12751134Y-11122079D01*
X12827325Y-11083984D02*
X12827325Y-11122079D01*
X13122563Y-11360174D02*
X13113039Y-11350650D01*
X13113039Y-11350650D02*
X13093991Y-11322079D01*
X13093991Y-11322079D02*
X13084468Y-11303031D01*
X13084468Y-11303031D02*
X13074944Y-11274460D01*
X13074944Y-11274460D02*
X13065420Y-11226841D01*
X13065420Y-11226841D02*
X13065420Y-11188746D01*
X13065420Y-11188746D02*
X13074944Y-11141127D01*
X13074944Y-11141127D02*
X13084468Y-11112555D01*
X13084468Y-11112555D02*
X13093991Y-11093508D01*
X13093991Y-11093508D02*
X13113039Y-11064936D01*
X13113039Y-11064936D02*
X13122563Y-11055412D01*
X13179706Y-11083984D02*
X13303515Y-11083984D01*
X13303515Y-11083984D02*
X13236848Y-11160174D01*
X13236848Y-11160174D02*
X13265420Y-11160174D01*
X13265420Y-11160174D02*
X13284468Y-11169698D01*
X13284468Y-11169698D02*
X13293991Y-11179222D01*
X13293991Y-11179222D02*
X13303515Y-11198269D01*
X13303515Y-11198269D02*
X13303515Y-11245888D01*
X13303515Y-11245888D02*
X13293991Y-11264936D01*
X13293991Y-11264936D02*
X13284468Y-11274460D01*
X13284468Y-11274460D02*
X13265420Y-11283984D01*
X13265420Y-11283984D02*
X13208277Y-11283984D01*
X13208277Y-11283984D02*
X13189229Y-11274460D01*
X13189229Y-11274460D02*
X13179706Y-11264936D01*
X13493991Y-11283984D02*
X13379706Y-11283984D01*
X13436848Y-11283984D02*
X13436848Y-11083984D01*
X13436848Y-11083984D02*
X13417801Y-11112555D01*
X13417801Y-11112555D02*
X13398753Y-11131603D01*
X13398753Y-11131603D02*
X13379706Y-11141127D01*
X13665420Y-11150650D02*
X13665420Y-11283984D01*
X13617801Y-11074460D02*
X13570182Y-11217317D01*
X13570182Y-11217317D02*
X13693991Y-11217317D01*
X13922563Y-11283984D02*
X13922563Y-11083984D01*
X14008277Y-11283984D02*
X14008277Y-11179222D01*
X14008277Y-11179222D02*
X13998753Y-11160174D01*
X13998753Y-11160174D02*
X13979706Y-11150650D01*
X13979706Y-11150650D02*
X13951134Y-11150650D01*
X13951134Y-11150650D02*
X13932087Y-11160174D01*
X13932087Y-11160174D02*
X13922563Y-11169698D01*
X14132087Y-11283984D02*
X14113039Y-11274460D01*
X14113039Y-11274460D02*
X14103515Y-11264936D01*
X14103515Y-11264936D02*
X14093991Y-11245888D01*
X14093991Y-11245888D02*
X14093991Y-11188746D01*
X14093991Y-11188746D02*
X14103515Y-11169698D01*
X14103515Y-11169698D02*
X14113039Y-11160174D01*
X14113039Y-11160174D02*
X14132087Y-11150650D01*
X14132087Y-11150650D02*
X14160658Y-11150650D01*
X14160658Y-11150650D02*
X14179706Y-11160174D01*
X14179706Y-11160174D02*
X14189230Y-11169698D01*
X14189230Y-11169698D02*
X14198753Y-11188746D01*
X14198753Y-11188746D02*
X14198753Y-11245888D01*
X14198753Y-11245888D02*
X14189230Y-11264936D01*
X14189230Y-11264936D02*
X14179706Y-11274460D01*
X14179706Y-11274460D02*
X14160658Y-11283984D01*
X14160658Y-11283984D02*
X14132087Y-11283984D01*
X14313039Y-11283984D02*
X14293991Y-11274460D01*
X14293991Y-11274460D02*
X14284468Y-11255412D01*
X14284468Y-11255412D02*
X14284468Y-11083984D01*
X14465420Y-11274460D02*
X14446372Y-11283984D01*
X14446372Y-11283984D02*
X14408277Y-11283984D01*
X14408277Y-11283984D02*
X14389230Y-11274460D01*
X14389230Y-11274460D02*
X14379706Y-11255412D01*
X14379706Y-11255412D02*
X14379706Y-11179222D01*
X14379706Y-11179222D02*
X14389230Y-11160174D01*
X14389230Y-11160174D02*
X14408277Y-11150650D01*
X14408277Y-11150650D02*
X14446372Y-11150650D01*
X14446372Y-11150650D02*
X14465420Y-11160174D01*
X14465420Y-11160174D02*
X14474944Y-11179222D01*
X14474944Y-11179222D02*
X14474944Y-11198269D01*
X14474944Y-11198269D02*
X14379706Y-11217317D01*
X14551134Y-11274460D02*
X14570182Y-11283984D01*
X14570182Y-11283984D02*
X14608277Y-11283984D01*
X14608277Y-11283984D02*
X14627325Y-11274460D01*
X14627325Y-11274460D02*
X14636849Y-11255412D01*
X14636849Y-11255412D02*
X14636849Y-11245888D01*
X14636849Y-11245888D02*
X14627325Y-11226841D01*
X14627325Y-11226841D02*
X14608277Y-11217317D01*
X14608277Y-11217317D02*
X14579706Y-11217317D01*
X14579706Y-11217317D02*
X14560658Y-11207793D01*
X14560658Y-11207793D02*
X14551134Y-11188746D01*
X14551134Y-11188746D02*
X14551134Y-11179222D01*
X14551134Y-11179222D02*
X14560658Y-11160174D01*
X14560658Y-11160174D02*
X14579706Y-11150650D01*
X14579706Y-11150650D02*
X14608277Y-11150650D01*
X14608277Y-11150650D02*
X14627325Y-11160174D01*
X14703515Y-11360174D02*
X14713039Y-11350650D01*
X14713039Y-11350650D02*
X14732087Y-11322079D01*
X14732087Y-11322079D02*
X14741611Y-11303031D01*
X14741611Y-11303031D02*
X14751134Y-11274460D01*
X14751134Y-11274460D02*
X14760658Y-11226841D01*
X14760658Y-11226841D02*
X14760658Y-11188746D01*
X14760658Y-11188746D02*
X14751134Y-11141127D01*
X14751134Y-11141127D02*
X14741611Y-11112555D01*
X14741611Y-11112555D02*
X14732087Y-11093508D01*
X14732087Y-11093508D02*
X14713039Y-11064936D01*
X14713039Y-11064936D02*
X14703515Y-11055412D01*
M02*
