M48
; DRILL file {KiCad 8.0.5} date 2025-10-23T09:57:43-0500
; FORMAT={-:-/ absolute / metric / decimal}
; #@! TF.CreationDate,2025-10-23T09:57:43-05:00
; #@! TF.GenerationSoftware,Kicad,Pcbnew,8.0.5
; #@! TF.FileFunction,Plated,3,4,Buried
FMAT,2
METRIC
; #@! TA.AperFunction,Plated,Buried,ViaDrill
T1C0.152
%
G90
G05
T1
X97.805Y-86.403
X97.805Y-87.203
X97.805Y-88.003
X97.805Y-88.803
X97.805Y-89.603
X97.805Y-90.403
X97.805Y-91.203
X97.805Y-92.003
X97.805Y-92.803
X97.805Y-93.603
X97.805Y-94.403
X97.805Y-95.203
X97.805Y-96.003
X97.805Y-96.803
X97.805Y-97.603
X97.805Y-98.403
X98.044Y-83.485
X98.192Y-86.404
X98.192Y-87.204
X98.192Y-88.004
X98.192Y-88.804
X98.192Y-89.604
X98.192Y-90.404
X98.192Y-91.204
X98.192Y-92.004
X98.192Y-92.804
X98.192Y-93.604
X98.192Y-94.404
X98.192Y-95.204
X98.192Y-96.004
X98.192Y-96.804
X98.192Y-97.604
X98.192Y-98.404
X99.805Y-86.403
X99.805Y-87.203
X99.805Y-88.003
X99.805Y-88.803
X99.805Y-89.603
X99.805Y-90.403
X99.805Y-91.203
X99.805Y-92.003
X99.805Y-92.803
X99.805Y-93.603
X99.805Y-94.403
X99.805Y-95.203
X99.805Y-96.003
X99.805Y-96.803
X99.805Y-97.603
X99.805Y-98.403
X100.192Y-86.404
X100.192Y-87.204
X100.192Y-88.004
X100.192Y-88.804
X100.192Y-89.604
X100.192Y-90.404
X100.192Y-91.204
X100.192Y-92.004
X100.192Y-92.804
X100.192Y-93.604
X100.192Y-94.404
X100.192Y-95.204
X100.192Y-96.004
X100.192Y-96.804
X100.192Y-97.604
X100.192Y-98.404
X101.318Y-100.551
X101.805Y-86.403
X101.805Y-87.203
X101.805Y-88.003
X101.805Y-88.803
X101.805Y-89.603
X101.805Y-90.403
X101.805Y-91.203
X101.805Y-92.003
X101.805Y-92.803
X101.805Y-93.603
X101.805Y-94.403
X101.805Y-95.203
X101.805Y-96.003
X101.805Y-96.803
X101.805Y-97.603
X101.805Y-98.403
X102.192Y-86.404
X102.192Y-87.204
X102.192Y-88.004
X102.192Y-88.804
X102.192Y-89.604
X102.192Y-90.404
X102.192Y-91.204
X102.192Y-92.004
X102.192Y-92.804
X102.192Y-93.604
X102.192Y-94.404
X102.192Y-95.204
X102.192Y-96.004
X102.192Y-96.804
X102.192Y-97.604
X102.192Y-98.404
X103.805Y-92.803
X103.805Y-93.603
X103.805Y-94.403
X103.805Y-95.203
X103.805Y-96.003
X103.805Y-96.803
X103.805Y-97.603
X103.805Y-98.403
X105.005Y-92.803
X105.005Y-93.603
X105.005Y-94.403
X105.005Y-95.203
X105.005Y-96.003
X105.005Y-96.803
X105.005Y-97.603
X105.005Y-98.403
X106.985Y-86.523
X106.987Y-91.869
X106.989Y-102.58
X107.417Y-81.42
X107.419Y-86.766
X108.763Y-81.699
X108.763Y-86.192
X108.765Y-87.046
X108.765Y-91.539
X108.767Y-92.407
X108.767Y-96.9
X108.767Y-97.757
X109.753Y-81.699
X109.753Y-86.192
X109.756Y-87.046
X109.756Y-91.539
X110.769Y-81.699
X110.769Y-86.192
X110.772Y-87.046
X110.772Y-91.539
X110.774Y-92.407
X110.774Y-96.9
X110.774Y-97.757
X110.774Y-102.25
X114.9Y-83.4
X114.9Y-84.4
X114.9Y-85.4
X114.9Y-86.4
X114.9Y-87.4
X114.9Y-88.4
X114.9Y-89.4
X114.9Y-90.4
X114.9Y-91.4
X115.998Y-85.9
X115.998Y-86.901
X115.998Y-87.899
X116.001Y-82.901
X116.001Y-83.901
X116.001Y-84.899
X116.001Y-88.898
X116.001Y-89.898
X116.001Y-90.899
X116.001Y-91.899
X116.999Y-91.9
X117.0Y-82.901
X117.499Y-91.9
X117.5Y-82.901
X117.601Y-85.1
X117.601Y-89.52
X117.901Y-85.5
X117.901Y-89.17
X117.999Y-91.9
X118.0Y-82.901
X118.201Y-88.819
X118.201Y-85.9
X118.499Y-91.9
X118.5Y-82.901
X118.5Y-86.3
X118.503Y-88.468
X118.601Y-84.701
X118.601Y-90.201
X118.8Y-86.7
X118.803Y-88.1
X119.0Y-82.9
X119.0Y-91.9
X119.001Y-85.101
X119.001Y-90.001
X119.05Y-87.05
X119.052Y-87.749
X119.3Y-87.4
X119.401Y-85.401
X119.401Y-89.801
X119.5Y-82.9
X119.5Y-91.9
X119.801Y-85.701
X119.801Y-89.601
X119.87Y-101.962
X119.87Y-102.597
X120.0Y-82.9
X120.0Y-91.9
X120.201Y-86.001
X120.201Y-89.401
X120.5Y-82.9
X120.5Y-91.9
X120.601Y-86.301
X120.601Y-89.201
X121.001Y-86.601
X121.001Y-89.001
X121.401Y-86.901
X121.401Y-88.801
X121.572Y-101.962
X121.572Y-102.597
X122.0Y-91.9
X122.869Y-100.716
X122.869Y-101.216
X122.871Y-98.715
X122.871Y-99.215
X122.871Y-99.715
X122.871Y-100.215
X122.871Y-89.891
X122.872Y-86.401
X122.872Y-86.901
X122.872Y-87.399
X122.872Y-87.901
X122.872Y-89.401
X123.887Y-98.215
X123.888Y-97.716
X124.003Y-90.947
M30
