%TF.GenerationSoftware,KiCad,Pcbnew,8.0.5*%
%TF.CreationDate,2025-10-24T05:54:48-05:00*%
%TF.ProjectId,iris-128s,69726973-2d31-4323-9873-2e6b69636164,1*%
%TF.SameCoordinates,Original*%
%TF.FileFunction,Legend,Top*%
%TF.FilePolarity,Positive*%
%FSLAX46Y46*%
G04 Gerber Fmt 4.6, Leading zero omitted, Abs format (unit mm)*
G04 Created by KiCad (PCBNEW 8.0.5) date 2025-10-24 05:54:48*
%MOMM*%
%LPD*%
G01*
G04 APERTURE LIST*
G04 Aperture macros list*
%AMRoundRect*
0 Rectangle with rounded corners*
0 $1 Rounding radius*
0 $2 $3 $4 $5 $6 $7 $8 $9 X,Y pos of 4 corners*
0 Add a 4 corners polygon primitive as box body*
4,1,4,$2,$3,$4,$5,$6,$7,$8,$9,$2,$3,0*
0 Add four circle primitives for the rounded corners*
1,1,$1+$1,$2,$3*
1,1,$1+$1,$4,$5*
1,1,$1+$1,$6,$7*
1,1,$1+$1,$8,$9*
0 Add four rect primitives between the rounded corners*
20,1,$1+$1,$2,$3,$4,$5,0*
20,1,$1+$1,$4,$5,$6,$7,0*
20,1,$1+$1,$6,$7,$8,$9,0*
20,1,$1+$1,$8,$9,$2,$3,0*%
%AMFreePoly0*
4,1,17,0.288426,0.645521,0.645521,0.288426,0.660400,0.252505,0.660400,-0.252505,0.645521,-0.288426,0.288426,-0.645521,0.252505,-0.660400,-0.252505,-0.660400,-0.288426,-0.645521,-0.645521,-0.288426,-0.660400,-0.252505,-0.660400,0.252505,-0.645521,0.288426,-0.288426,0.645521,-0.252505,0.660400,0.252505,0.660400,0.288426,0.645521,0.288426,0.645521,$1*%
G04 Aperture macros list end*
%ADD10C,0.076200*%
%ADD11C,0.120000*%
%ADD12C,0.200000*%
%ADD13C,0.100000*%
%ADD14RoundRect,0.140000X-0.170000X0.140000X-0.170000X-0.140000X0.170000X-0.140000X0.170000X0.140000X0*%
%ADD15RoundRect,0.100000X0.100000X-0.130000X0.100000X0.130000X-0.100000X0.130000X-0.100000X-0.130000X0*%
%ADD16RoundRect,0.100000X-0.100000X0.130000X-0.100000X-0.130000X0.100000X-0.130000X0.100000X0.130000X0*%
%ADD17C,1.450000*%
%ADD18C,0.764000*%
%ADD19RoundRect,0.100000X-0.130000X-0.100000X0.130000X-0.100000X0.130000X0.100000X-0.130000X0.100000X0*%
%ADD20FreePoly0,90.000000*%
%ADD21RoundRect,0.135000X0.135000X0.185000X-0.135000X0.185000X-0.135000X-0.185000X0.135000X-0.185000X0*%
%ADD22C,0.351600*%
%ADD23R,0.500000X0.500000*%
%ADD24RoundRect,0.062500X-0.062500X0.375000X-0.062500X-0.375000X0.062500X-0.375000X0.062500X0.375000X0*%
%ADD25RoundRect,0.062500X-0.375000X0.062500X-0.375000X-0.062500X0.375000X-0.062500X0.375000X0.062500X0*%
%ADD26R,2.600000X2.600000*%
%ADD27R,0.762000X0.381000*%
%ADD28RoundRect,0.100000X0.130000X0.100000X-0.130000X0.100000X-0.130000X-0.100000X0.130000X-0.100000X0*%
G04 APERTURE END LIST*
D10*
X97010859Y-80825223D02*
X97010859Y-80389794D01*
X97228574Y-80607509D02*
X97460803Y-80607509D01*
X97605945Y-80607509D02*
X97838174Y-80607509D01*
X97983316Y-80607509D02*
X98215545Y-80607509D01*
X98360687Y-80607509D02*
X98592916Y-80607509D01*
X98738058Y-80607509D02*
X98970287Y-80607509D01*
X99115429Y-80607509D02*
X99347658Y-80607509D01*
X99492800Y-80607509D02*
X99725029Y-80607509D01*
X100044342Y-80723623D02*
X99942742Y-80578480D01*
X99870171Y-80723623D02*
X99870171Y-80418823D01*
X99870171Y-80418823D02*
X99986285Y-80418823D01*
X99986285Y-80418823D02*
X100015314Y-80433337D01*
X100015314Y-80433337D02*
X100029828Y-80447851D01*
X100029828Y-80447851D02*
X100044342Y-80476880D01*
X100044342Y-80476880D02*
X100044342Y-80520423D01*
X100044342Y-80520423D02*
X100029828Y-80549451D01*
X100029828Y-80549451D02*
X100015314Y-80563966D01*
X100015314Y-80563966D02*
X99986285Y-80578480D01*
X99986285Y-80578480D02*
X99870171Y-80578480D01*
X100174971Y-80607509D02*
X100407200Y-80607509D01*
X100552342Y-80607509D02*
X100784571Y-80607509D01*
X100929713Y-80607509D02*
X101161942Y-80607509D01*
X101307084Y-80607509D02*
X101539313Y-80607509D01*
X101684455Y-80607509D02*
X101916684Y-80607509D01*
X102061826Y-80607509D02*
X102294055Y-80607509D01*
X102439197Y-80607509D02*
X102671426Y-80607509D01*
X102889139Y-80825223D02*
X102889139Y-80389794D01*
X110472461Y-102982925D02*
X110607928Y-103389325D01*
X110607928Y-103389325D02*
X110743395Y-102982925D01*
X110878861Y-103389325D02*
X110878861Y-102982925D01*
X110878861Y-102982925D02*
X110975623Y-102982925D01*
X110975623Y-102982925D02*
X111033680Y-103002277D01*
X111033680Y-103002277D02*
X111072385Y-103040982D01*
X111072385Y-103040982D02*
X111091738Y-103079687D01*
X111091738Y-103079687D02*
X111111090Y-103157096D01*
X111111090Y-103157096D02*
X111111090Y-103215153D01*
X111111090Y-103215153D02*
X111091738Y-103292563D01*
X111091738Y-103292563D02*
X111072385Y-103331268D01*
X111072385Y-103331268D02*
X111033680Y-103369973D01*
X111033680Y-103369973D02*
X110975623Y-103389325D01*
X110975623Y-103389325D02*
X110878861Y-103389325D01*
X111285261Y-103389325D02*
X111285261Y-102982925D01*
X111285261Y-102982925D02*
X111382023Y-102982925D01*
X111382023Y-102982925D02*
X111440080Y-103002277D01*
X111440080Y-103002277D02*
X111478785Y-103040982D01*
X111478785Y-103040982D02*
X111498138Y-103079687D01*
X111498138Y-103079687D02*
X111517490Y-103157096D01*
X111517490Y-103157096D02*
X111517490Y-103215153D01*
X111517490Y-103215153D02*
X111498138Y-103292563D01*
X111498138Y-103292563D02*
X111478785Y-103331268D01*
X111478785Y-103331268D02*
X111440080Y-103369973D01*
X111440080Y-103369973D02*
X111382023Y-103389325D01*
X111382023Y-103389325D02*
X111285261Y-103389325D01*
X111594900Y-103428030D02*
X111904538Y-103428030D01*
X111981947Y-103369973D02*
X112040004Y-103389325D01*
X112040004Y-103389325D02*
X112136766Y-103389325D01*
X112136766Y-103389325D02*
X112175471Y-103369973D01*
X112175471Y-103369973D02*
X112194823Y-103350620D01*
X112194823Y-103350620D02*
X112214176Y-103311915D01*
X112214176Y-103311915D02*
X112214176Y-103273211D01*
X112214176Y-103273211D02*
X112194823Y-103234506D01*
X112194823Y-103234506D02*
X112175471Y-103215153D01*
X112175471Y-103215153D02*
X112136766Y-103195801D01*
X112136766Y-103195801D02*
X112059357Y-103176449D01*
X112059357Y-103176449D02*
X112020652Y-103157096D01*
X112020652Y-103157096D02*
X112001299Y-103137744D01*
X112001299Y-103137744D02*
X111981947Y-103099039D01*
X111981947Y-103099039D02*
X111981947Y-103060334D01*
X111981947Y-103060334D02*
X112001299Y-103021630D01*
X112001299Y-103021630D02*
X112020652Y-103002277D01*
X112020652Y-103002277D02*
X112059357Y-102982925D01*
X112059357Y-102982925D02*
X112156118Y-102982925D01*
X112156118Y-102982925D02*
X112214176Y-103002277D01*
X112349643Y-102982925D02*
X112446405Y-103389325D01*
X112446405Y-103389325D02*
X112523814Y-103099039D01*
X112523814Y-103099039D02*
X112601224Y-103389325D01*
X112601224Y-103389325D02*
X112697986Y-102982925D01*
X116034931Y-100777047D02*
X116204265Y-101285047D01*
X116204265Y-101285047D02*
X116373598Y-100777047D01*
X116542932Y-101285047D02*
X116542932Y-100777047D01*
X116542932Y-100777047D02*
X116663884Y-100777047D01*
X116663884Y-100777047D02*
X116736456Y-100801237D01*
X116736456Y-100801237D02*
X116784837Y-100849618D01*
X116784837Y-100849618D02*
X116809027Y-100897999D01*
X116809027Y-100897999D02*
X116833218Y-100994761D01*
X116833218Y-100994761D02*
X116833218Y-101067333D01*
X116833218Y-101067333D02*
X116809027Y-101164095D01*
X116809027Y-101164095D02*
X116784837Y-101212476D01*
X116784837Y-101212476D02*
X116736456Y-101260857D01*
X116736456Y-101260857D02*
X116663884Y-101285047D01*
X116663884Y-101285047D02*
X116542932Y-101285047D01*
X117050932Y-101285047D02*
X117050932Y-100777047D01*
X117050932Y-100777047D02*
X117171884Y-100777047D01*
X117171884Y-100777047D02*
X117244456Y-100801237D01*
X117244456Y-100801237D02*
X117292837Y-100849618D01*
X117292837Y-100849618D02*
X117317027Y-100897999D01*
X117317027Y-100897999D02*
X117341218Y-100994761D01*
X117341218Y-100994761D02*
X117341218Y-101067333D01*
X117341218Y-101067333D02*
X117317027Y-101164095D01*
X117317027Y-101164095D02*
X117292837Y-101212476D01*
X117292837Y-101212476D02*
X117244456Y-101260857D01*
X117244456Y-101260857D02*
X117171884Y-101285047D01*
X117171884Y-101285047D02*
X117050932Y-101285047D01*
X117510551Y-100777047D02*
X117825027Y-100777047D01*
X117825027Y-100777047D02*
X117655694Y-100970571D01*
X117655694Y-100970571D02*
X117728265Y-100970571D01*
X117728265Y-100970571D02*
X117776646Y-100994761D01*
X117776646Y-100994761D02*
X117800837Y-101018952D01*
X117800837Y-101018952D02*
X117825027Y-101067333D01*
X117825027Y-101067333D02*
X117825027Y-101188285D01*
X117825027Y-101188285D02*
X117800837Y-101236666D01*
X117800837Y-101236666D02*
X117776646Y-101260857D01*
X117776646Y-101260857D02*
X117728265Y-101285047D01*
X117728265Y-101285047D02*
X117583122Y-101285047D01*
X117583122Y-101285047D02*
X117534741Y-101260857D01*
X117534741Y-101260857D02*
X117510551Y-101236666D01*
X117367352Y-97834417D02*
X117318971Y-97810227D01*
X117318971Y-97810227D02*
X117246400Y-97810227D01*
X117246400Y-97810227D02*
X117173828Y-97834417D01*
X117173828Y-97834417D02*
X117125447Y-97882798D01*
X117125447Y-97882798D02*
X117101257Y-97931179D01*
X117101257Y-97931179D02*
X117077066Y-98027941D01*
X117077066Y-98027941D02*
X117077066Y-98100513D01*
X117077066Y-98100513D02*
X117101257Y-98197275D01*
X117101257Y-98197275D02*
X117125447Y-98245656D01*
X117125447Y-98245656D02*
X117173828Y-98294037D01*
X117173828Y-98294037D02*
X117246400Y-98318227D01*
X117246400Y-98318227D02*
X117294781Y-98318227D01*
X117294781Y-98318227D02*
X117367352Y-98294037D01*
X117367352Y-98294037D02*
X117391543Y-98269846D01*
X117391543Y-98269846D02*
X117391543Y-98100513D01*
X117391543Y-98100513D02*
X117294781Y-98100513D01*
X117609257Y-98318227D02*
X117609257Y-97810227D01*
X117609257Y-97810227D02*
X117899543Y-98318227D01*
X117899543Y-98318227D02*
X117899543Y-97810227D01*
X118141447Y-98318227D02*
X118141447Y-97810227D01*
X118141447Y-97810227D02*
X118262399Y-97810227D01*
X118262399Y-97810227D02*
X118334971Y-97834417D01*
X118334971Y-97834417D02*
X118383352Y-97882798D01*
X118383352Y-97882798D02*
X118407542Y-97931179D01*
X118407542Y-97931179D02*
X118431733Y-98027941D01*
X118431733Y-98027941D02*
X118431733Y-98100513D01*
X118431733Y-98100513D02*
X118407542Y-98197275D01*
X118407542Y-98197275D02*
X118383352Y-98245656D01*
X118383352Y-98245656D02*
X118334971Y-98294037D01*
X118334971Y-98294037D02*
X118262399Y-98318227D01*
X118262399Y-98318227D02*
X118141447Y-98318227D01*
X103129942Y-103614103D02*
X103129942Y-103178674D01*
X103347657Y-103396389D02*
X103579886Y-103396389D01*
X103899199Y-103512503D02*
X103797599Y-103367360D01*
X103725028Y-103512503D02*
X103725028Y-103207703D01*
X103725028Y-103207703D02*
X103841142Y-103207703D01*
X103841142Y-103207703D02*
X103870171Y-103222217D01*
X103870171Y-103222217D02*
X103884685Y-103236731D01*
X103884685Y-103236731D02*
X103899199Y-103265760D01*
X103899199Y-103265760D02*
X103899199Y-103309303D01*
X103899199Y-103309303D02*
X103884685Y-103338331D01*
X103884685Y-103338331D02*
X103870171Y-103352846D01*
X103870171Y-103352846D02*
X103841142Y-103367360D01*
X103841142Y-103367360D02*
X103725028Y-103367360D01*
X104015314Y-103497989D02*
X104058857Y-103512503D01*
X104058857Y-103512503D02*
X104131428Y-103512503D01*
X104131428Y-103512503D02*
X104160457Y-103497989D01*
X104160457Y-103497989D02*
X104174971Y-103483474D01*
X104174971Y-103483474D02*
X104189485Y-103454446D01*
X104189485Y-103454446D02*
X104189485Y-103425417D01*
X104189485Y-103425417D02*
X104174971Y-103396389D01*
X104174971Y-103396389D02*
X104160457Y-103381874D01*
X104160457Y-103381874D02*
X104131428Y-103367360D01*
X104131428Y-103367360D02*
X104073371Y-103352846D01*
X104073371Y-103352846D02*
X104044342Y-103338331D01*
X104044342Y-103338331D02*
X104029828Y-103323817D01*
X104029828Y-103323817D02*
X104015314Y-103294789D01*
X104015314Y-103294789D02*
X104015314Y-103265760D01*
X104015314Y-103265760D02*
X104029828Y-103236731D01*
X104029828Y-103236731D02*
X104044342Y-103222217D01*
X104044342Y-103222217D02*
X104073371Y-103207703D01*
X104073371Y-103207703D02*
X104145942Y-103207703D01*
X104145942Y-103207703D02*
X104189485Y-103222217D01*
X104320114Y-103396389D02*
X104552343Y-103396389D01*
X104770056Y-103614103D02*
X104770056Y-103178674D01*
X103129942Y-80825223D02*
X103129942Y-80389794D01*
X103347657Y-80607509D02*
X103579886Y-80607509D01*
X103899199Y-80723623D02*
X103797599Y-80578480D01*
X103725028Y-80723623D02*
X103725028Y-80418823D01*
X103725028Y-80418823D02*
X103841142Y-80418823D01*
X103841142Y-80418823D02*
X103870171Y-80433337D01*
X103870171Y-80433337D02*
X103884685Y-80447851D01*
X103884685Y-80447851D02*
X103899199Y-80476880D01*
X103899199Y-80476880D02*
X103899199Y-80520423D01*
X103899199Y-80520423D02*
X103884685Y-80549451D01*
X103884685Y-80549451D02*
X103870171Y-80563966D01*
X103870171Y-80563966D02*
X103841142Y-80578480D01*
X103841142Y-80578480D02*
X103725028Y-80578480D01*
X104015314Y-80709109D02*
X104058857Y-80723623D01*
X104058857Y-80723623D02*
X104131428Y-80723623D01*
X104131428Y-80723623D02*
X104160457Y-80709109D01*
X104160457Y-80709109D02*
X104174971Y-80694594D01*
X104174971Y-80694594D02*
X104189485Y-80665566D01*
X104189485Y-80665566D02*
X104189485Y-80636537D01*
X104189485Y-80636537D02*
X104174971Y-80607509D01*
X104174971Y-80607509D02*
X104160457Y-80592994D01*
X104160457Y-80592994D02*
X104131428Y-80578480D01*
X104131428Y-80578480D02*
X104073371Y-80563966D01*
X104073371Y-80563966D02*
X104044342Y-80549451D01*
X104044342Y-80549451D02*
X104029828Y-80534937D01*
X104029828Y-80534937D02*
X104015314Y-80505909D01*
X104015314Y-80505909D02*
X104015314Y-80476880D01*
X104015314Y-80476880D02*
X104029828Y-80447851D01*
X104029828Y-80447851D02*
X104044342Y-80433337D01*
X104044342Y-80433337D02*
X104073371Y-80418823D01*
X104073371Y-80418823D02*
X104145942Y-80418823D01*
X104145942Y-80418823D02*
X104189485Y-80433337D01*
X104320114Y-80607509D02*
X104552343Y-80607509D01*
X104770056Y-80825223D02*
X104770056Y-80389794D01*
X124113592Y-82025457D02*
X124065211Y-82001267D01*
X124065211Y-82001267D02*
X123992640Y-82001267D01*
X123992640Y-82001267D02*
X123920068Y-82025457D01*
X123920068Y-82025457D02*
X123871687Y-82073838D01*
X123871687Y-82073838D02*
X123847497Y-82122219D01*
X123847497Y-82122219D02*
X123823306Y-82218981D01*
X123823306Y-82218981D02*
X123823306Y-82291553D01*
X123823306Y-82291553D02*
X123847497Y-82388315D01*
X123847497Y-82388315D02*
X123871687Y-82436696D01*
X123871687Y-82436696D02*
X123920068Y-82485077D01*
X123920068Y-82485077D02*
X123992640Y-82509267D01*
X123992640Y-82509267D02*
X124041021Y-82509267D01*
X124041021Y-82509267D02*
X124113592Y-82485077D01*
X124113592Y-82485077D02*
X124137783Y-82460886D01*
X124137783Y-82460886D02*
X124137783Y-82291553D01*
X124137783Y-82291553D02*
X124041021Y-82291553D01*
X124355497Y-82509267D02*
X124355497Y-82001267D01*
X124355497Y-82001267D02*
X124645783Y-82509267D01*
X124645783Y-82509267D02*
X124645783Y-82001267D01*
X124887687Y-82509267D02*
X124887687Y-82001267D01*
X124887687Y-82001267D02*
X125008639Y-82001267D01*
X125008639Y-82001267D02*
X125081211Y-82025457D01*
X125081211Y-82025457D02*
X125129592Y-82073838D01*
X125129592Y-82073838D02*
X125153782Y-82122219D01*
X125153782Y-82122219D02*
X125177973Y-82218981D01*
X125177973Y-82218981D02*
X125177973Y-82291553D01*
X125177973Y-82291553D02*
X125153782Y-82388315D01*
X125153782Y-82388315D02*
X125129592Y-82436696D01*
X125129592Y-82436696D02*
X125081211Y-82485077D01*
X125081211Y-82485077D02*
X125008639Y-82509267D01*
X125008639Y-82509267D02*
X124887687Y-82509267D01*
X118889054Y-81485647D02*
X118719720Y-81243742D01*
X118598768Y-81485647D02*
X118598768Y-80977647D01*
X118598768Y-80977647D02*
X118792292Y-80977647D01*
X118792292Y-80977647D02*
X118840673Y-81001837D01*
X118840673Y-81001837D02*
X118864863Y-81026028D01*
X118864863Y-81026028D02*
X118889054Y-81074409D01*
X118889054Y-81074409D02*
X118889054Y-81146980D01*
X118889054Y-81146980D02*
X118864863Y-81195361D01*
X118864863Y-81195361D02*
X118840673Y-81219552D01*
X118840673Y-81219552D02*
X118792292Y-81243742D01*
X118792292Y-81243742D02*
X118598768Y-81243742D01*
X119106768Y-81219552D02*
X119276101Y-81219552D01*
X119348673Y-81485647D02*
X119106768Y-81485647D01*
X119106768Y-81485647D02*
X119106768Y-80977647D01*
X119106768Y-80977647D02*
X119348673Y-80977647D01*
X119735720Y-81219552D02*
X119566387Y-81219552D01*
X119566387Y-81485647D02*
X119566387Y-80977647D01*
X119566387Y-80977647D02*
X119808292Y-80977647D01*
X116034931Y-98777047D02*
X116204265Y-99285047D01*
X116204265Y-99285047D02*
X116373598Y-98777047D01*
X116542932Y-99285047D02*
X116542932Y-98777047D01*
X116542932Y-98777047D02*
X116663884Y-98777047D01*
X116663884Y-98777047D02*
X116736456Y-98801237D01*
X116736456Y-98801237D02*
X116784837Y-98849618D01*
X116784837Y-98849618D02*
X116809027Y-98897999D01*
X116809027Y-98897999D02*
X116833218Y-98994761D01*
X116833218Y-98994761D02*
X116833218Y-99067333D01*
X116833218Y-99067333D02*
X116809027Y-99164095D01*
X116809027Y-99164095D02*
X116784837Y-99212476D01*
X116784837Y-99212476D02*
X116736456Y-99260857D01*
X116736456Y-99260857D02*
X116663884Y-99285047D01*
X116663884Y-99285047D02*
X116542932Y-99285047D01*
X117050932Y-99285047D02*
X117050932Y-98777047D01*
X117050932Y-98777047D02*
X117171884Y-98777047D01*
X117171884Y-98777047D02*
X117244456Y-98801237D01*
X117244456Y-98801237D02*
X117292837Y-98849618D01*
X117292837Y-98849618D02*
X117317027Y-98897999D01*
X117317027Y-98897999D02*
X117341218Y-98994761D01*
X117341218Y-98994761D02*
X117341218Y-99067333D01*
X117341218Y-99067333D02*
X117317027Y-99164095D01*
X117317027Y-99164095D02*
X117292837Y-99212476D01*
X117292837Y-99212476D02*
X117244456Y-99260857D01*
X117244456Y-99260857D02*
X117171884Y-99285047D01*
X117171884Y-99285047D02*
X117050932Y-99285047D01*
X117825027Y-99285047D02*
X117534741Y-99285047D01*
X117679884Y-99285047D02*
X117679884Y-98777047D01*
X117679884Y-98777047D02*
X117631503Y-98849618D01*
X117631503Y-98849618D02*
X117583122Y-98897999D01*
X117583122Y-98897999D02*
X117534741Y-98922190D01*
X114709786Y-93224245D02*
X114845253Y-93630645D01*
X114845253Y-93630645D02*
X114980720Y-93224245D01*
X115096834Y-93611293D02*
X115154891Y-93630645D01*
X115154891Y-93630645D02*
X115251653Y-93630645D01*
X115251653Y-93630645D02*
X115290358Y-93611293D01*
X115290358Y-93611293D02*
X115309710Y-93591940D01*
X115309710Y-93591940D02*
X115329063Y-93553235D01*
X115329063Y-93553235D02*
X115329063Y-93514531D01*
X115329063Y-93514531D02*
X115309710Y-93475826D01*
X115309710Y-93475826D02*
X115290358Y-93456473D01*
X115290358Y-93456473D02*
X115251653Y-93437121D01*
X115251653Y-93437121D02*
X115174244Y-93417769D01*
X115174244Y-93417769D02*
X115135539Y-93398416D01*
X115135539Y-93398416D02*
X115116186Y-93379064D01*
X115116186Y-93379064D02*
X115096834Y-93340359D01*
X115096834Y-93340359D02*
X115096834Y-93301654D01*
X115096834Y-93301654D02*
X115116186Y-93262950D01*
X115116186Y-93262950D02*
X115135539Y-93243597D01*
X115135539Y-93243597D02*
X115174244Y-93224245D01*
X115174244Y-93224245D02*
X115271005Y-93224245D01*
X115271005Y-93224245D02*
X115329063Y-93243597D01*
X115445177Y-93224245D02*
X115677406Y-93224245D01*
X115561292Y-93630645D02*
X115561292Y-93224245D01*
X115812872Y-93630645D02*
X115812872Y-93224245D01*
X116006396Y-93630645D02*
X116006396Y-93224245D01*
X116006396Y-93224245D02*
X116141863Y-93514531D01*
X116141863Y-93514531D02*
X116277330Y-93224245D01*
X116277330Y-93224245D02*
X116277330Y-93630645D01*
X116470853Y-93630645D02*
X116470853Y-93359712D01*
X116470853Y-93398416D02*
X116490206Y-93379064D01*
X116490206Y-93379064D02*
X116528911Y-93359712D01*
X116528911Y-93359712D02*
X116586968Y-93359712D01*
X116586968Y-93359712D02*
X116625672Y-93379064D01*
X116625672Y-93379064D02*
X116645025Y-93417769D01*
X116645025Y-93417769D02*
X116645025Y-93630645D01*
X116645025Y-93417769D02*
X116664377Y-93379064D01*
X116664377Y-93379064D02*
X116703082Y-93359712D01*
X116703082Y-93359712D02*
X116761139Y-93359712D01*
X116761139Y-93359712D02*
X116799844Y-93379064D01*
X116799844Y-93379064D02*
X116819196Y-93417769D01*
X116819196Y-93417769D02*
X116819196Y-93630645D01*
X97010859Y-103614103D02*
X97010859Y-103178674D01*
X97228574Y-103396389D02*
X97460803Y-103396389D01*
X97605945Y-103396389D02*
X97838174Y-103396389D01*
X97983316Y-103396389D02*
X98215545Y-103396389D01*
X98360687Y-103396389D02*
X98592916Y-103396389D01*
X98738058Y-103396389D02*
X98970287Y-103396389D01*
X99115429Y-103396389D02*
X99347658Y-103396389D01*
X99492800Y-103396389D02*
X99725029Y-103396389D01*
X100044342Y-103512503D02*
X99942742Y-103367360D01*
X99870171Y-103512503D02*
X99870171Y-103207703D01*
X99870171Y-103207703D02*
X99986285Y-103207703D01*
X99986285Y-103207703D02*
X100015314Y-103222217D01*
X100015314Y-103222217D02*
X100029828Y-103236731D01*
X100029828Y-103236731D02*
X100044342Y-103265760D01*
X100044342Y-103265760D02*
X100044342Y-103309303D01*
X100044342Y-103309303D02*
X100029828Y-103338331D01*
X100029828Y-103338331D02*
X100015314Y-103352846D01*
X100015314Y-103352846D02*
X99986285Y-103367360D01*
X99986285Y-103367360D02*
X99870171Y-103367360D01*
X100174971Y-103396389D02*
X100407200Y-103396389D01*
X100552342Y-103396389D02*
X100784571Y-103396389D01*
X100929713Y-103396389D02*
X101161942Y-103396389D01*
X101307084Y-103396389D02*
X101539313Y-103396389D01*
X101684455Y-103396389D02*
X101916684Y-103396389D01*
X102061826Y-103396389D02*
X102294055Y-103396389D01*
X102439197Y-103396389D02*
X102671426Y-103396389D01*
X102889139Y-103614103D02*
X102889139Y-103178674D01*
X110534993Y-103785565D02*
X110670460Y-104191965D01*
X110670460Y-104191965D02*
X110805927Y-103785565D01*
X110922041Y-104172613D02*
X110980098Y-104191965D01*
X110980098Y-104191965D02*
X111076860Y-104191965D01*
X111076860Y-104191965D02*
X111115565Y-104172613D01*
X111115565Y-104172613D02*
X111134917Y-104153260D01*
X111134917Y-104153260D02*
X111154270Y-104114555D01*
X111154270Y-104114555D02*
X111154270Y-104075851D01*
X111154270Y-104075851D02*
X111134917Y-104037146D01*
X111134917Y-104037146D02*
X111115565Y-104017793D01*
X111115565Y-104017793D02*
X111076860Y-103998441D01*
X111076860Y-103998441D02*
X110999451Y-103979089D01*
X110999451Y-103979089D02*
X110960746Y-103959736D01*
X110960746Y-103959736D02*
X110941393Y-103940384D01*
X110941393Y-103940384D02*
X110922041Y-103901679D01*
X110922041Y-103901679D02*
X110922041Y-103862974D01*
X110922041Y-103862974D02*
X110941393Y-103824270D01*
X110941393Y-103824270D02*
X110960746Y-103804917D01*
X110960746Y-103804917D02*
X110999451Y-103785565D01*
X110999451Y-103785565D02*
X111096212Y-103785565D01*
X111096212Y-103785565D02*
X111154270Y-103804917D01*
X111309089Y-104172613D02*
X111367146Y-104191965D01*
X111367146Y-104191965D02*
X111463908Y-104191965D01*
X111463908Y-104191965D02*
X111502613Y-104172613D01*
X111502613Y-104172613D02*
X111521965Y-104153260D01*
X111521965Y-104153260D02*
X111541318Y-104114555D01*
X111541318Y-104114555D02*
X111541318Y-104075851D01*
X111541318Y-104075851D02*
X111521965Y-104037146D01*
X111521965Y-104037146D02*
X111502613Y-104017793D01*
X111502613Y-104017793D02*
X111463908Y-103998441D01*
X111463908Y-103998441D02*
X111386499Y-103979089D01*
X111386499Y-103979089D02*
X111347794Y-103959736D01*
X111347794Y-103959736D02*
X111328441Y-103940384D01*
X111328441Y-103940384D02*
X111309089Y-103901679D01*
X111309089Y-103901679D02*
X111309089Y-103862974D01*
X111309089Y-103862974D02*
X111328441Y-103824270D01*
X111328441Y-103824270D02*
X111347794Y-103804917D01*
X111347794Y-103804917D02*
X111386499Y-103785565D01*
X111386499Y-103785565D02*
X111483260Y-103785565D01*
X111483260Y-103785565D02*
X111541318Y-103804917D01*
X111618728Y-104230670D02*
X111928366Y-104230670D01*
X112005775Y-104172613D02*
X112063832Y-104191965D01*
X112063832Y-104191965D02*
X112160594Y-104191965D01*
X112160594Y-104191965D02*
X112199299Y-104172613D01*
X112199299Y-104172613D02*
X112218651Y-104153260D01*
X112218651Y-104153260D02*
X112238004Y-104114555D01*
X112238004Y-104114555D02*
X112238004Y-104075851D01*
X112238004Y-104075851D02*
X112218651Y-104037146D01*
X112218651Y-104037146D02*
X112199299Y-104017793D01*
X112199299Y-104017793D02*
X112160594Y-103998441D01*
X112160594Y-103998441D02*
X112083185Y-103979089D01*
X112083185Y-103979089D02*
X112044480Y-103959736D01*
X112044480Y-103959736D02*
X112025127Y-103940384D01*
X112025127Y-103940384D02*
X112005775Y-103901679D01*
X112005775Y-103901679D02*
X112005775Y-103862974D01*
X112005775Y-103862974D02*
X112025127Y-103824270D01*
X112025127Y-103824270D02*
X112044480Y-103804917D01*
X112044480Y-103804917D02*
X112083185Y-103785565D01*
X112083185Y-103785565D02*
X112179946Y-103785565D01*
X112179946Y-103785565D02*
X112238004Y-103804917D01*
X112373471Y-103785565D02*
X112470233Y-104191965D01*
X112470233Y-104191965D02*
X112547642Y-103901679D01*
X112547642Y-103901679D02*
X112625052Y-104191965D01*
X112625052Y-104191965D02*
X112721814Y-103785565D01*
X114786712Y-95383245D02*
X114922179Y-95789645D01*
X114922179Y-95789645D02*
X115057646Y-95383245D01*
X115173760Y-95770293D02*
X115231817Y-95789645D01*
X115231817Y-95789645D02*
X115328579Y-95789645D01*
X115328579Y-95789645D02*
X115367284Y-95770293D01*
X115367284Y-95770293D02*
X115386636Y-95750940D01*
X115386636Y-95750940D02*
X115405989Y-95712235D01*
X115405989Y-95712235D02*
X115405989Y-95673531D01*
X115405989Y-95673531D02*
X115386636Y-95634826D01*
X115386636Y-95634826D02*
X115367284Y-95615473D01*
X115367284Y-95615473D02*
X115328579Y-95596121D01*
X115328579Y-95596121D02*
X115251170Y-95576769D01*
X115251170Y-95576769D02*
X115212465Y-95557416D01*
X115212465Y-95557416D02*
X115193112Y-95538064D01*
X115193112Y-95538064D02*
X115173760Y-95499359D01*
X115173760Y-95499359D02*
X115173760Y-95460654D01*
X115173760Y-95460654D02*
X115193112Y-95421950D01*
X115193112Y-95421950D02*
X115212465Y-95402597D01*
X115212465Y-95402597D02*
X115251170Y-95383245D01*
X115251170Y-95383245D02*
X115347931Y-95383245D01*
X115347931Y-95383245D02*
X115405989Y-95402597D01*
X115522103Y-95383245D02*
X115754332Y-95383245D01*
X115638218Y-95789645D02*
X115638218Y-95383245D01*
X115889798Y-95789645D02*
X115889798Y-95383245D01*
X116083322Y-95789645D02*
X116083322Y-95383245D01*
X116083322Y-95383245D02*
X116218789Y-95673531D01*
X116218789Y-95673531D02*
X116354256Y-95383245D01*
X116354256Y-95383245D02*
X116354256Y-95789645D01*
X116547779Y-95518712D02*
X116547779Y-95925112D01*
X116547779Y-95538064D02*
X116586484Y-95518712D01*
X116586484Y-95518712D02*
X116663894Y-95518712D01*
X116663894Y-95518712D02*
X116702598Y-95538064D01*
X116702598Y-95538064D02*
X116721951Y-95557416D01*
X116721951Y-95557416D02*
X116741303Y-95596121D01*
X116741303Y-95596121D02*
X116741303Y-95712235D01*
X116741303Y-95712235D02*
X116721951Y-95750940D01*
X116721951Y-95750940D02*
X116702598Y-95770293D01*
X116702598Y-95770293D02*
X116663894Y-95789645D01*
X116663894Y-95789645D02*
X116586484Y-95789645D01*
X116586484Y-95789645D02*
X116547779Y-95770293D01*
X116034931Y-99777047D02*
X116204265Y-100285047D01*
X116204265Y-100285047D02*
X116373598Y-99777047D01*
X116542932Y-100285047D02*
X116542932Y-99777047D01*
X116542932Y-99777047D02*
X116663884Y-99777047D01*
X116663884Y-99777047D02*
X116736456Y-99801237D01*
X116736456Y-99801237D02*
X116784837Y-99849618D01*
X116784837Y-99849618D02*
X116809027Y-99897999D01*
X116809027Y-99897999D02*
X116833218Y-99994761D01*
X116833218Y-99994761D02*
X116833218Y-100067333D01*
X116833218Y-100067333D02*
X116809027Y-100164095D01*
X116809027Y-100164095D02*
X116784837Y-100212476D01*
X116784837Y-100212476D02*
X116736456Y-100260857D01*
X116736456Y-100260857D02*
X116663884Y-100285047D01*
X116663884Y-100285047D02*
X116542932Y-100285047D01*
X117050932Y-100285047D02*
X117050932Y-99777047D01*
X117050932Y-99777047D02*
X117171884Y-99777047D01*
X117171884Y-99777047D02*
X117244456Y-99801237D01*
X117244456Y-99801237D02*
X117292837Y-99849618D01*
X117292837Y-99849618D02*
X117317027Y-99897999D01*
X117317027Y-99897999D02*
X117341218Y-99994761D01*
X117341218Y-99994761D02*
X117341218Y-100067333D01*
X117341218Y-100067333D02*
X117317027Y-100164095D01*
X117317027Y-100164095D02*
X117292837Y-100212476D01*
X117292837Y-100212476D02*
X117244456Y-100260857D01*
X117244456Y-100260857D02*
X117171884Y-100285047D01*
X117171884Y-100285047D02*
X117050932Y-100285047D01*
X117534741Y-99825428D02*
X117558932Y-99801237D01*
X117558932Y-99801237D02*
X117607313Y-99777047D01*
X117607313Y-99777047D02*
X117728265Y-99777047D01*
X117728265Y-99777047D02*
X117776646Y-99801237D01*
X117776646Y-99801237D02*
X117800837Y-99825428D01*
X117800837Y-99825428D02*
X117825027Y-99873809D01*
X117825027Y-99873809D02*
X117825027Y-99922190D01*
X117825027Y-99922190D02*
X117800837Y-99994761D01*
X117800837Y-99994761D02*
X117510551Y-100285047D01*
X117510551Y-100285047D02*
X117825027Y-100285047D01*
X116024402Y-102173880D02*
X116005050Y-102193233D01*
X116005050Y-102193233D02*
X115946992Y-102212585D01*
X115946992Y-102212585D02*
X115908288Y-102212585D01*
X115908288Y-102212585D02*
X115850231Y-102193233D01*
X115850231Y-102193233D02*
X115811526Y-102154528D01*
X115811526Y-102154528D02*
X115792173Y-102115823D01*
X115792173Y-102115823D02*
X115772821Y-102038413D01*
X115772821Y-102038413D02*
X115772821Y-101980356D01*
X115772821Y-101980356D02*
X115792173Y-101902947D01*
X115792173Y-101902947D02*
X115811526Y-101864242D01*
X115811526Y-101864242D02*
X115850231Y-101825537D01*
X115850231Y-101825537D02*
X115908288Y-101806185D01*
X115908288Y-101806185D02*
X115946992Y-101806185D01*
X115946992Y-101806185D02*
X116005050Y-101825537D01*
X116005050Y-101825537D02*
X116024402Y-101844890D01*
X116411450Y-102212585D02*
X116179221Y-102212585D01*
X116295335Y-102212585D02*
X116295335Y-101806185D01*
X116295335Y-101806185D02*
X116256631Y-101864242D01*
X116256631Y-101864242D02*
X116217926Y-101902947D01*
X116217926Y-101902947D02*
X116179221Y-101922299D01*
X116798498Y-102212585D02*
X116566269Y-102212585D01*
X116682383Y-102212585D02*
X116682383Y-101806185D01*
X116682383Y-101806185D02*
X116643679Y-101864242D01*
X116643679Y-101864242D02*
X116604974Y-101902947D01*
X116604974Y-101902947D02*
X116566269Y-101922299D01*
X113329905Y-100838093D02*
X113136381Y-100973560D01*
X113329905Y-101070322D02*
X112923505Y-101070322D01*
X112923505Y-101070322D02*
X112923505Y-100915503D01*
X112923505Y-100915503D02*
X112942857Y-100876798D01*
X112942857Y-100876798D02*
X112962210Y-100857445D01*
X112962210Y-100857445D02*
X113000914Y-100838093D01*
X113000914Y-100838093D02*
X113058972Y-100838093D01*
X113058972Y-100838093D02*
X113097676Y-100857445D01*
X113097676Y-100857445D02*
X113117029Y-100876798D01*
X113117029Y-100876798D02*
X113136381Y-100915503D01*
X113136381Y-100915503D02*
X113136381Y-101070322D01*
X113329905Y-100644569D02*
X113329905Y-100567160D01*
X113329905Y-100567160D02*
X113310553Y-100528455D01*
X113310553Y-100528455D02*
X113291200Y-100509103D01*
X113291200Y-100509103D02*
X113233143Y-100470398D01*
X113233143Y-100470398D02*
X113155733Y-100451045D01*
X113155733Y-100451045D02*
X113000914Y-100451045D01*
X113000914Y-100451045D02*
X112962210Y-100470398D01*
X112962210Y-100470398D02*
X112942857Y-100489750D01*
X112942857Y-100489750D02*
X112923505Y-100528455D01*
X112923505Y-100528455D02*
X112923505Y-100605864D01*
X112923505Y-100605864D02*
X112942857Y-100644569D01*
X112942857Y-100644569D02*
X112962210Y-100663922D01*
X112962210Y-100663922D02*
X113000914Y-100683274D01*
X113000914Y-100683274D02*
X113097676Y-100683274D01*
X113097676Y-100683274D02*
X113136381Y-100663922D01*
X113136381Y-100663922D02*
X113155733Y-100644569D01*
X113155733Y-100644569D02*
X113175086Y-100605864D01*
X113175086Y-100605864D02*
X113175086Y-100528455D01*
X113175086Y-100528455D02*
X113155733Y-100489750D01*
X113155733Y-100489750D02*
X113136381Y-100470398D01*
X113136381Y-100470398D02*
X113097676Y-100451045D01*
X114026760Y-102487197D02*
X114046113Y-102506549D01*
X114046113Y-102506549D02*
X114065465Y-102564607D01*
X114065465Y-102564607D02*
X114065465Y-102603311D01*
X114065465Y-102603311D02*
X114046113Y-102661368D01*
X114046113Y-102661368D02*
X114007408Y-102700073D01*
X114007408Y-102700073D02*
X113968703Y-102719426D01*
X113968703Y-102719426D02*
X113891293Y-102738778D01*
X113891293Y-102738778D02*
X113833236Y-102738778D01*
X113833236Y-102738778D02*
X113755827Y-102719426D01*
X113755827Y-102719426D02*
X113717122Y-102700073D01*
X113717122Y-102700073D02*
X113678417Y-102661368D01*
X113678417Y-102661368D02*
X113659065Y-102603311D01*
X113659065Y-102603311D02*
X113659065Y-102564607D01*
X113659065Y-102564607D02*
X113678417Y-102506549D01*
X113678417Y-102506549D02*
X113697770Y-102487197D01*
X113794532Y-102138854D02*
X114065465Y-102138854D01*
X113639713Y-102235616D02*
X113929998Y-102332378D01*
X113929998Y-102332378D02*
X113929998Y-102080797D01*
X113697770Y-101945330D02*
X113678417Y-101925978D01*
X113678417Y-101925978D02*
X113659065Y-101887273D01*
X113659065Y-101887273D02*
X113659065Y-101790511D01*
X113659065Y-101790511D02*
X113678417Y-101751806D01*
X113678417Y-101751806D02*
X113697770Y-101732454D01*
X113697770Y-101732454D02*
X113736474Y-101713101D01*
X113736474Y-101713101D02*
X113775179Y-101713101D01*
X113775179Y-101713101D02*
X113833236Y-101732454D01*
X113833236Y-101732454D02*
X114065465Y-101964682D01*
X114065465Y-101964682D02*
X114065465Y-101713101D01*
X124357902Y-87858605D02*
X124222435Y-87665081D01*
X124125673Y-87858605D02*
X124125673Y-87452205D01*
X124125673Y-87452205D02*
X124280492Y-87452205D01*
X124280492Y-87452205D02*
X124319197Y-87471557D01*
X124319197Y-87471557D02*
X124338550Y-87490910D01*
X124338550Y-87490910D02*
X124357902Y-87529614D01*
X124357902Y-87529614D02*
X124357902Y-87587672D01*
X124357902Y-87587672D02*
X124338550Y-87626376D01*
X124338550Y-87626376D02*
X124319197Y-87645729D01*
X124319197Y-87645729D02*
X124280492Y-87665081D01*
X124280492Y-87665081D02*
X124125673Y-87665081D01*
X124512721Y-87490910D02*
X124532073Y-87471557D01*
X124532073Y-87471557D02*
X124570778Y-87452205D01*
X124570778Y-87452205D02*
X124667540Y-87452205D01*
X124667540Y-87452205D02*
X124706245Y-87471557D01*
X124706245Y-87471557D02*
X124725597Y-87490910D01*
X124725597Y-87490910D02*
X124744950Y-87529614D01*
X124744950Y-87529614D02*
X124744950Y-87568319D01*
X124744950Y-87568319D02*
X124725597Y-87626376D01*
X124725597Y-87626376D02*
X124493369Y-87858605D01*
X124493369Y-87858605D02*
X124744950Y-87858605D01*
X124996531Y-87452205D02*
X125035236Y-87452205D01*
X125035236Y-87452205D02*
X125073940Y-87471557D01*
X125073940Y-87471557D02*
X125093293Y-87490910D01*
X125093293Y-87490910D02*
X125112645Y-87529614D01*
X125112645Y-87529614D02*
X125131998Y-87607024D01*
X125131998Y-87607024D02*
X125131998Y-87703786D01*
X125131998Y-87703786D02*
X125112645Y-87781195D01*
X125112645Y-87781195D02*
X125093293Y-87819900D01*
X125093293Y-87819900D02*
X125073940Y-87839253D01*
X125073940Y-87839253D02*
X125035236Y-87858605D01*
X125035236Y-87858605D02*
X124996531Y-87858605D01*
X124996531Y-87858605D02*
X124957826Y-87839253D01*
X124957826Y-87839253D02*
X124938474Y-87819900D01*
X124938474Y-87819900D02*
X124919121Y-87781195D01*
X124919121Y-87781195D02*
X124899769Y-87703786D01*
X124899769Y-87703786D02*
X124899769Y-87607024D01*
X124899769Y-87607024D02*
X124919121Y-87529614D01*
X124919121Y-87529614D02*
X124938474Y-87490910D01*
X124938474Y-87490910D02*
X124957826Y-87471557D01*
X124957826Y-87471557D02*
X124996531Y-87452205D01*
X114665502Y-102189640D02*
X114646150Y-102208993D01*
X114646150Y-102208993D02*
X114588092Y-102228345D01*
X114588092Y-102228345D02*
X114549388Y-102228345D01*
X114549388Y-102228345D02*
X114491331Y-102208993D01*
X114491331Y-102208993D02*
X114452626Y-102170288D01*
X114452626Y-102170288D02*
X114433273Y-102131583D01*
X114433273Y-102131583D02*
X114413921Y-102054173D01*
X114413921Y-102054173D02*
X114413921Y-101996116D01*
X114413921Y-101996116D02*
X114433273Y-101918707D01*
X114433273Y-101918707D02*
X114452626Y-101880002D01*
X114452626Y-101880002D02*
X114491331Y-101841297D01*
X114491331Y-101841297D02*
X114549388Y-101821945D01*
X114549388Y-101821945D02*
X114588092Y-101821945D01*
X114588092Y-101821945D02*
X114646150Y-101841297D01*
X114646150Y-101841297D02*
X114665502Y-101860650D01*
X115052550Y-102228345D02*
X114820321Y-102228345D01*
X114936435Y-102228345D02*
X114936435Y-101821945D01*
X114936435Y-101821945D02*
X114897731Y-101880002D01*
X114897731Y-101880002D02*
X114859026Y-101918707D01*
X114859026Y-101918707D02*
X114820321Y-101938059D01*
X115207369Y-101860650D02*
X115226721Y-101841297D01*
X115226721Y-101841297D02*
X115265426Y-101821945D01*
X115265426Y-101821945D02*
X115362188Y-101821945D01*
X115362188Y-101821945D02*
X115400893Y-101841297D01*
X115400893Y-101841297D02*
X115420245Y-101860650D01*
X115420245Y-101860650D02*
X115439598Y-101899354D01*
X115439598Y-101899354D02*
X115439598Y-101938059D01*
X115439598Y-101938059D02*
X115420245Y-101996116D01*
X115420245Y-101996116D02*
X115188017Y-102228345D01*
X115188017Y-102228345D02*
X115439598Y-102228345D01*
X114584400Y-90781197D02*
X114603753Y-90800549D01*
X114603753Y-90800549D02*
X114623105Y-90858607D01*
X114623105Y-90858607D02*
X114623105Y-90897311D01*
X114623105Y-90897311D02*
X114603753Y-90955368D01*
X114603753Y-90955368D02*
X114565048Y-90994073D01*
X114565048Y-90994073D02*
X114526343Y-91013426D01*
X114526343Y-91013426D02*
X114448933Y-91032778D01*
X114448933Y-91032778D02*
X114390876Y-91032778D01*
X114390876Y-91032778D02*
X114313467Y-91013426D01*
X114313467Y-91013426D02*
X114274762Y-90994073D01*
X114274762Y-90994073D02*
X114236057Y-90955368D01*
X114236057Y-90955368D02*
X114216705Y-90897311D01*
X114216705Y-90897311D02*
X114216705Y-90858607D01*
X114216705Y-90858607D02*
X114236057Y-90800549D01*
X114236057Y-90800549D02*
X114255410Y-90781197D01*
X114352172Y-90432854D02*
X114623105Y-90432854D01*
X114197353Y-90529616D02*
X114487638Y-90626378D01*
X114487638Y-90626378D02*
X114487638Y-90374797D01*
X114216705Y-90142568D02*
X114216705Y-90103863D01*
X114216705Y-90103863D02*
X114236057Y-90065159D01*
X114236057Y-90065159D02*
X114255410Y-90045806D01*
X114255410Y-90045806D02*
X114294114Y-90026454D01*
X114294114Y-90026454D02*
X114371524Y-90007101D01*
X114371524Y-90007101D02*
X114468286Y-90007101D01*
X114468286Y-90007101D02*
X114545695Y-90026454D01*
X114545695Y-90026454D02*
X114584400Y-90045806D01*
X114584400Y-90045806D02*
X114603753Y-90065159D01*
X114603753Y-90065159D02*
X114623105Y-90103863D01*
X114623105Y-90103863D02*
X114623105Y-90142568D01*
X114623105Y-90142568D02*
X114603753Y-90181273D01*
X114603753Y-90181273D02*
X114584400Y-90200625D01*
X114584400Y-90200625D02*
X114545695Y-90219978D01*
X114545695Y-90219978D02*
X114468286Y-90239330D01*
X114468286Y-90239330D02*
X114371524Y-90239330D01*
X114371524Y-90239330D02*
X114294114Y-90219978D01*
X114294114Y-90219978D02*
X114255410Y-90200625D01*
X114255410Y-90200625D02*
X114236057Y-90181273D01*
X114236057Y-90181273D02*
X114216705Y-90142568D01*
X113672805Y-95599853D02*
X113479281Y-95735320D01*
X113672805Y-95832082D02*
X113266405Y-95832082D01*
X113266405Y-95832082D02*
X113266405Y-95677263D01*
X113266405Y-95677263D02*
X113285757Y-95638558D01*
X113285757Y-95638558D02*
X113305110Y-95619205D01*
X113305110Y-95619205D02*
X113343814Y-95599853D01*
X113343814Y-95599853D02*
X113401872Y-95599853D01*
X113401872Y-95599853D02*
X113440576Y-95619205D01*
X113440576Y-95619205D02*
X113459929Y-95638558D01*
X113459929Y-95638558D02*
X113479281Y-95677263D01*
X113479281Y-95677263D02*
X113479281Y-95832082D01*
X113440576Y-95367624D02*
X113421224Y-95406329D01*
X113421224Y-95406329D02*
X113401872Y-95425682D01*
X113401872Y-95425682D02*
X113363167Y-95445034D01*
X113363167Y-95445034D02*
X113343814Y-95445034D01*
X113343814Y-95445034D02*
X113305110Y-95425682D01*
X113305110Y-95425682D02*
X113285757Y-95406329D01*
X113285757Y-95406329D02*
X113266405Y-95367624D01*
X113266405Y-95367624D02*
X113266405Y-95290215D01*
X113266405Y-95290215D02*
X113285757Y-95251510D01*
X113285757Y-95251510D02*
X113305110Y-95232158D01*
X113305110Y-95232158D02*
X113343814Y-95212805D01*
X113343814Y-95212805D02*
X113363167Y-95212805D01*
X113363167Y-95212805D02*
X113401872Y-95232158D01*
X113401872Y-95232158D02*
X113421224Y-95251510D01*
X113421224Y-95251510D02*
X113440576Y-95290215D01*
X113440576Y-95290215D02*
X113440576Y-95367624D01*
X113440576Y-95367624D02*
X113459929Y-95406329D01*
X113459929Y-95406329D02*
X113479281Y-95425682D01*
X113479281Y-95425682D02*
X113517986Y-95445034D01*
X113517986Y-95445034D02*
X113595395Y-95445034D01*
X113595395Y-95445034D02*
X113634100Y-95425682D01*
X113634100Y-95425682D02*
X113653453Y-95406329D01*
X113653453Y-95406329D02*
X113672805Y-95367624D01*
X113672805Y-95367624D02*
X113672805Y-95290215D01*
X113672805Y-95290215D02*
X113653453Y-95251510D01*
X113653453Y-95251510D02*
X113634100Y-95232158D01*
X113634100Y-95232158D02*
X113595395Y-95212805D01*
X113595395Y-95212805D02*
X113517986Y-95212805D01*
X113517986Y-95212805D02*
X113479281Y-95232158D01*
X113479281Y-95232158D02*
X113459929Y-95251510D01*
X113459929Y-95251510D02*
X113440576Y-95290215D01*
X114487802Y-98253480D02*
X114468450Y-98272833D01*
X114468450Y-98272833D02*
X114410392Y-98292185D01*
X114410392Y-98292185D02*
X114371688Y-98292185D01*
X114371688Y-98292185D02*
X114313631Y-98272833D01*
X114313631Y-98272833D02*
X114274926Y-98234128D01*
X114274926Y-98234128D02*
X114255573Y-98195423D01*
X114255573Y-98195423D02*
X114236221Y-98118013D01*
X114236221Y-98118013D02*
X114236221Y-98059956D01*
X114236221Y-98059956D02*
X114255573Y-97982547D01*
X114255573Y-97982547D02*
X114274926Y-97943842D01*
X114274926Y-97943842D02*
X114313631Y-97905137D01*
X114313631Y-97905137D02*
X114371688Y-97885785D01*
X114371688Y-97885785D02*
X114410392Y-97885785D01*
X114410392Y-97885785D02*
X114468450Y-97905137D01*
X114468450Y-97905137D02*
X114487802Y-97924490D01*
X114623269Y-97885785D02*
X114874850Y-97885785D01*
X114874850Y-97885785D02*
X114739383Y-98040604D01*
X114739383Y-98040604D02*
X114797440Y-98040604D01*
X114797440Y-98040604D02*
X114836145Y-98059956D01*
X114836145Y-98059956D02*
X114855497Y-98079309D01*
X114855497Y-98079309D02*
X114874850Y-98118013D01*
X114874850Y-98118013D02*
X114874850Y-98214775D01*
X114874850Y-98214775D02*
X114855497Y-98253480D01*
X114855497Y-98253480D02*
X114836145Y-98272833D01*
X114836145Y-98272833D02*
X114797440Y-98292185D01*
X114797440Y-98292185D02*
X114681326Y-98292185D01*
X114681326Y-98292185D02*
X114642621Y-98272833D01*
X114642621Y-98272833D02*
X114623269Y-98253480D01*
X115223193Y-97885785D02*
X115145783Y-97885785D01*
X115145783Y-97885785D02*
X115107079Y-97905137D01*
X115107079Y-97905137D02*
X115087726Y-97924490D01*
X115087726Y-97924490D02*
X115049021Y-97982547D01*
X115049021Y-97982547D02*
X115029669Y-98059956D01*
X115029669Y-98059956D02*
X115029669Y-98214775D01*
X115029669Y-98214775D02*
X115049021Y-98253480D01*
X115049021Y-98253480D02*
X115068374Y-98272833D01*
X115068374Y-98272833D02*
X115107079Y-98292185D01*
X115107079Y-98292185D02*
X115184488Y-98292185D01*
X115184488Y-98292185D02*
X115223193Y-98272833D01*
X115223193Y-98272833D02*
X115242545Y-98253480D01*
X115242545Y-98253480D02*
X115261898Y-98214775D01*
X115261898Y-98214775D02*
X115261898Y-98118013D01*
X115261898Y-98118013D02*
X115242545Y-98079309D01*
X115242545Y-98079309D02*
X115223193Y-98059956D01*
X115223193Y-98059956D02*
X115184488Y-98040604D01*
X115184488Y-98040604D02*
X115107079Y-98040604D01*
X115107079Y-98040604D02*
X115068374Y-98059956D01*
X115068374Y-98059956D02*
X115049021Y-98079309D01*
X115049021Y-98079309D02*
X115029669Y-98118013D01*
X114487802Y-97562540D02*
X114468450Y-97581893D01*
X114468450Y-97581893D02*
X114410392Y-97601245D01*
X114410392Y-97601245D02*
X114371688Y-97601245D01*
X114371688Y-97601245D02*
X114313631Y-97581893D01*
X114313631Y-97581893D02*
X114274926Y-97543188D01*
X114274926Y-97543188D02*
X114255573Y-97504483D01*
X114255573Y-97504483D02*
X114236221Y-97427073D01*
X114236221Y-97427073D02*
X114236221Y-97369016D01*
X114236221Y-97369016D02*
X114255573Y-97291607D01*
X114255573Y-97291607D02*
X114274926Y-97252902D01*
X114274926Y-97252902D02*
X114313631Y-97214197D01*
X114313631Y-97214197D02*
X114371688Y-97194845D01*
X114371688Y-97194845D02*
X114410392Y-97194845D01*
X114410392Y-97194845D02*
X114468450Y-97214197D01*
X114468450Y-97214197D02*
X114487802Y-97233550D01*
X114623269Y-97194845D02*
X114874850Y-97194845D01*
X114874850Y-97194845D02*
X114739383Y-97349664D01*
X114739383Y-97349664D02*
X114797440Y-97349664D01*
X114797440Y-97349664D02*
X114836145Y-97369016D01*
X114836145Y-97369016D02*
X114855497Y-97388369D01*
X114855497Y-97388369D02*
X114874850Y-97427073D01*
X114874850Y-97427073D02*
X114874850Y-97523835D01*
X114874850Y-97523835D02*
X114855497Y-97562540D01*
X114855497Y-97562540D02*
X114836145Y-97581893D01*
X114836145Y-97581893D02*
X114797440Y-97601245D01*
X114797440Y-97601245D02*
X114681326Y-97601245D01*
X114681326Y-97601245D02*
X114642621Y-97581893D01*
X114642621Y-97581893D02*
X114623269Y-97562540D01*
X115010317Y-97194845D02*
X115261898Y-97194845D01*
X115261898Y-97194845D02*
X115126431Y-97349664D01*
X115126431Y-97349664D02*
X115184488Y-97349664D01*
X115184488Y-97349664D02*
X115223193Y-97369016D01*
X115223193Y-97369016D02*
X115242545Y-97388369D01*
X115242545Y-97388369D02*
X115261898Y-97427073D01*
X115261898Y-97427073D02*
X115261898Y-97523835D01*
X115261898Y-97523835D02*
X115242545Y-97562540D01*
X115242545Y-97562540D02*
X115223193Y-97581893D01*
X115223193Y-97581893D02*
X115184488Y-97601245D01*
X115184488Y-97601245D02*
X115068374Y-97601245D01*
X115068374Y-97601245D02*
X115029669Y-97581893D01*
X115029669Y-97581893D02*
X115010317Y-97562540D01*
X122924442Y-81992525D02*
X122788975Y-81799001D01*
X122692213Y-81992525D02*
X122692213Y-81586125D01*
X122692213Y-81586125D02*
X122847032Y-81586125D01*
X122847032Y-81586125D02*
X122885737Y-81605477D01*
X122885737Y-81605477D02*
X122905090Y-81624830D01*
X122905090Y-81624830D02*
X122924442Y-81663534D01*
X122924442Y-81663534D02*
X122924442Y-81721592D01*
X122924442Y-81721592D02*
X122905090Y-81760296D01*
X122905090Y-81760296D02*
X122885737Y-81779649D01*
X122885737Y-81779649D02*
X122847032Y-81799001D01*
X122847032Y-81799001D02*
X122692213Y-81799001D01*
X123311490Y-81992525D02*
X123079261Y-81992525D01*
X123195375Y-81992525D02*
X123195375Y-81586125D01*
X123195375Y-81586125D02*
X123156671Y-81644182D01*
X123156671Y-81644182D02*
X123117966Y-81682887D01*
X123117966Y-81682887D02*
X123079261Y-81702239D01*
X123505014Y-81992525D02*
X123582423Y-81992525D01*
X123582423Y-81992525D02*
X123621128Y-81973173D01*
X123621128Y-81973173D02*
X123640480Y-81953820D01*
X123640480Y-81953820D02*
X123679185Y-81895763D01*
X123679185Y-81895763D02*
X123698538Y-81818353D01*
X123698538Y-81818353D02*
X123698538Y-81663534D01*
X123698538Y-81663534D02*
X123679185Y-81624830D01*
X123679185Y-81624830D02*
X123659833Y-81605477D01*
X123659833Y-81605477D02*
X123621128Y-81586125D01*
X123621128Y-81586125D02*
X123543719Y-81586125D01*
X123543719Y-81586125D02*
X123505014Y-81605477D01*
X123505014Y-81605477D02*
X123485661Y-81624830D01*
X123485661Y-81624830D02*
X123466309Y-81663534D01*
X123466309Y-81663534D02*
X123466309Y-81760296D01*
X123466309Y-81760296D02*
X123485661Y-81799001D01*
X123485661Y-81799001D02*
X123505014Y-81818353D01*
X123505014Y-81818353D02*
X123543719Y-81837706D01*
X123543719Y-81837706D02*
X123621128Y-81837706D01*
X123621128Y-81837706D02*
X123659833Y-81818353D01*
X123659833Y-81818353D02*
X123679185Y-81799001D01*
X123679185Y-81799001D02*
X123698538Y-81760296D01*
X119533985Y-102539277D02*
X119340461Y-102674744D01*
X119533985Y-102771506D02*
X119127585Y-102771506D01*
X119127585Y-102771506D02*
X119127585Y-102616687D01*
X119127585Y-102616687D02*
X119146937Y-102577982D01*
X119146937Y-102577982D02*
X119166290Y-102558629D01*
X119166290Y-102558629D02*
X119204994Y-102539277D01*
X119204994Y-102539277D02*
X119263052Y-102539277D01*
X119263052Y-102539277D02*
X119301756Y-102558629D01*
X119301756Y-102558629D02*
X119321109Y-102577982D01*
X119321109Y-102577982D02*
X119340461Y-102616687D01*
X119340461Y-102616687D02*
X119340461Y-102771506D01*
X119533985Y-102152229D02*
X119533985Y-102384458D01*
X119533985Y-102268344D02*
X119127585Y-102268344D01*
X119127585Y-102268344D02*
X119185642Y-102307048D01*
X119185642Y-102307048D02*
X119224347Y-102345753D01*
X119224347Y-102345753D02*
X119243699Y-102384458D01*
X119127585Y-101803886D02*
X119127585Y-101881296D01*
X119127585Y-101881296D02*
X119146937Y-101920000D01*
X119146937Y-101920000D02*
X119166290Y-101939353D01*
X119166290Y-101939353D02*
X119224347Y-101978058D01*
X119224347Y-101978058D02*
X119301756Y-101997410D01*
X119301756Y-101997410D02*
X119456575Y-101997410D01*
X119456575Y-101997410D02*
X119495280Y-101978058D01*
X119495280Y-101978058D02*
X119514633Y-101958705D01*
X119514633Y-101958705D02*
X119533985Y-101920000D01*
X119533985Y-101920000D02*
X119533985Y-101842591D01*
X119533985Y-101842591D02*
X119514633Y-101803886D01*
X119514633Y-101803886D02*
X119495280Y-101784534D01*
X119495280Y-101784534D02*
X119456575Y-101765181D01*
X119456575Y-101765181D02*
X119359813Y-101765181D01*
X119359813Y-101765181D02*
X119321109Y-101784534D01*
X119321109Y-101784534D02*
X119301756Y-101803886D01*
X119301756Y-101803886D02*
X119282404Y-101842591D01*
X119282404Y-101842591D02*
X119282404Y-101920000D01*
X119282404Y-101920000D02*
X119301756Y-101958705D01*
X119301756Y-101958705D02*
X119321109Y-101978058D01*
X119321109Y-101978058D02*
X119359813Y-101997410D01*
X122997742Y-80716205D02*
X122862275Y-80522681D01*
X122765513Y-80716205D02*
X122765513Y-80309805D01*
X122765513Y-80309805D02*
X122920332Y-80309805D01*
X122920332Y-80309805D02*
X122959037Y-80329157D01*
X122959037Y-80329157D02*
X122978390Y-80348510D01*
X122978390Y-80348510D02*
X122997742Y-80387214D01*
X122997742Y-80387214D02*
X122997742Y-80445272D01*
X122997742Y-80445272D02*
X122978390Y-80483976D01*
X122978390Y-80483976D02*
X122959037Y-80503329D01*
X122959037Y-80503329D02*
X122920332Y-80522681D01*
X122920332Y-80522681D02*
X122765513Y-80522681D01*
X123384790Y-80716205D02*
X123152561Y-80716205D01*
X123268675Y-80716205D02*
X123268675Y-80309805D01*
X123268675Y-80309805D02*
X123229971Y-80367862D01*
X123229971Y-80367862D02*
X123191266Y-80406567D01*
X123191266Y-80406567D02*
X123152561Y-80425919D01*
X123733133Y-80445272D02*
X123733133Y-80716205D01*
X123636371Y-80290453D02*
X123539609Y-80580738D01*
X123539609Y-80580738D02*
X123791190Y-80580738D01*
X115978047Y-81963047D02*
X115978047Y-82374285D01*
X115978047Y-82374285D02*
X116002237Y-82422666D01*
X116002237Y-82422666D02*
X116026428Y-82446857D01*
X116026428Y-82446857D02*
X116074809Y-82471047D01*
X116074809Y-82471047D02*
X116171571Y-82471047D01*
X116171571Y-82471047D02*
X116219952Y-82446857D01*
X116219952Y-82446857D02*
X116244142Y-82422666D01*
X116244142Y-82422666D02*
X116268333Y-82374285D01*
X116268333Y-82374285D02*
X116268333Y-81963047D01*
X116776332Y-82471047D02*
X116486046Y-82471047D01*
X116631189Y-82471047D02*
X116631189Y-81963047D01*
X116631189Y-81963047D02*
X116582808Y-82035618D01*
X116582808Y-82035618D02*
X116534427Y-82083999D01*
X116534427Y-82083999D02*
X116486046Y-82108190D01*
X117090809Y-81963047D02*
X117139190Y-81963047D01*
X117139190Y-81963047D02*
X117187571Y-81987237D01*
X117187571Y-81987237D02*
X117211761Y-82011428D01*
X117211761Y-82011428D02*
X117235952Y-82059809D01*
X117235952Y-82059809D02*
X117260142Y-82156571D01*
X117260142Y-82156571D02*
X117260142Y-82277523D01*
X117260142Y-82277523D02*
X117235952Y-82374285D01*
X117235952Y-82374285D02*
X117211761Y-82422666D01*
X117211761Y-82422666D02*
X117187571Y-82446857D01*
X117187571Y-82446857D02*
X117139190Y-82471047D01*
X117139190Y-82471047D02*
X117090809Y-82471047D01*
X117090809Y-82471047D02*
X117042428Y-82446857D01*
X117042428Y-82446857D02*
X117018237Y-82422666D01*
X117018237Y-82422666D02*
X116994047Y-82374285D01*
X116994047Y-82374285D02*
X116969856Y-82277523D01*
X116969856Y-82277523D02*
X116969856Y-82156571D01*
X116969856Y-82156571D02*
X116994047Y-82059809D01*
X116994047Y-82059809D02*
X117018237Y-82011428D01*
X117018237Y-82011428D02*
X117042428Y-81987237D01*
X117042428Y-81987237D02*
X117090809Y-81963047D01*
X106352952Y-92543047D02*
X106352952Y-92954285D01*
X106352952Y-92954285D02*
X106377142Y-93002666D01*
X106377142Y-93002666D02*
X106401333Y-93026857D01*
X106401333Y-93026857D02*
X106449714Y-93051047D01*
X106449714Y-93051047D02*
X106546476Y-93051047D01*
X106546476Y-93051047D02*
X106594857Y-93026857D01*
X106594857Y-93026857D02*
X106619047Y-93002666D01*
X106619047Y-93002666D02*
X106643238Y-92954285D01*
X106643238Y-92954285D02*
X106643238Y-92543047D01*
X106860951Y-92591428D02*
X106885142Y-92567237D01*
X106885142Y-92567237D02*
X106933523Y-92543047D01*
X106933523Y-92543047D02*
X107054475Y-92543047D01*
X107054475Y-92543047D02*
X107102856Y-92567237D01*
X107102856Y-92567237D02*
X107127047Y-92591428D01*
X107127047Y-92591428D02*
X107151237Y-92639809D01*
X107151237Y-92639809D02*
X107151237Y-92688190D01*
X107151237Y-92688190D02*
X107127047Y-92760761D01*
X107127047Y-92760761D02*
X106836761Y-93051047D01*
X106836761Y-93051047D02*
X107151237Y-93051047D01*
X114462402Y-86838540D02*
X114443050Y-86857893D01*
X114443050Y-86857893D02*
X114384992Y-86877245D01*
X114384992Y-86877245D02*
X114346288Y-86877245D01*
X114346288Y-86877245D02*
X114288231Y-86857893D01*
X114288231Y-86857893D02*
X114249526Y-86819188D01*
X114249526Y-86819188D02*
X114230173Y-86780483D01*
X114230173Y-86780483D02*
X114210821Y-86703073D01*
X114210821Y-86703073D02*
X114210821Y-86645016D01*
X114210821Y-86645016D02*
X114230173Y-86567607D01*
X114230173Y-86567607D02*
X114249526Y-86528902D01*
X114249526Y-86528902D02*
X114288231Y-86490197D01*
X114288231Y-86490197D02*
X114346288Y-86470845D01*
X114346288Y-86470845D02*
X114384992Y-86470845D01*
X114384992Y-86470845D02*
X114443050Y-86490197D01*
X114443050Y-86490197D02*
X114462402Y-86509550D01*
X114597869Y-86470845D02*
X114849450Y-86470845D01*
X114849450Y-86470845D02*
X114713983Y-86625664D01*
X114713983Y-86625664D02*
X114772040Y-86625664D01*
X114772040Y-86625664D02*
X114810745Y-86645016D01*
X114810745Y-86645016D02*
X114830097Y-86664369D01*
X114830097Y-86664369D02*
X114849450Y-86703073D01*
X114849450Y-86703073D02*
X114849450Y-86799835D01*
X114849450Y-86799835D02*
X114830097Y-86838540D01*
X114830097Y-86838540D02*
X114810745Y-86857893D01*
X114810745Y-86857893D02*
X114772040Y-86877245D01*
X114772040Y-86877245D02*
X114655926Y-86877245D01*
X114655926Y-86877245D02*
X114617221Y-86857893D01*
X114617221Y-86857893D02*
X114597869Y-86838540D01*
X115217145Y-86470845D02*
X115023621Y-86470845D01*
X115023621Y-86470845D02*
X115004269Y-86664369D01*
X115004269Y-86664369D02*
X115023621Y-86645016D01*
X115023621Y-86645016D02*
X115062326Y-86625664D01*
X115062326Y-86625664D02*
X115159088Y-86625664D01*
X115159088Y-86625664D02*
X115197793Y-86645016D01*
X115197793Y-86645016D02*
X115217145Y-86664369D01*
X115217145Y-86664369D02*
X115236498Y-86703073D01*
X115236498Y-86703073D02*
X115236498Y-86799835D01*
X115236498Y-86799835D02*
X115217145Y-86838540D01*
X115217145Y-86838540D02*
X115197793Y-86857893D01*
X115197793Y-86857893D02*
X115159088Y-86877245D01*
X115159088Y-86877245D02*
X115062326Y-86877245D01*
X115062326Y-86877245D02*
X115023621Y-86857893D01*
X115023621Y-86857893D02*
X115004269Y-86838540D01*
X113616565Y-84858993D02*
X113423041Y-84994460D01*
X113616565Y-85091222D02*
X113210165Y-85091222D01*
X113210165Y-85091222D02*
X113210165Y-84936403D01*
X113210165Y-84936403D02*
X113229517Y-84897698D01*
X113229517Y-84897698D02*
X113248870Y-84878345D01*
X113248870Y-84878345D02*
X113287574Y-84858993D01*
X113287574Y-84858993D02*
X113345632Y-84858993D01*
X113345632Y-84858993D02*
X113384336Y-84878345D01*
X113384336Y-84878345D02*
X113403689Y-84897698D01*
X113403689Y-84897698D02*
X113423041Y-84936403D01*
X113423041Y-84936403D02*
X113423041Y-85091222D01*
X113210165Y-84510650D02*
X113210165Y-84588060D01*
X113210165Y-84588060D02*
X113229517Y-84626764D01*
X113229517Y-84626764D02*
X113248870Y-84646117D01*
X113248870Y-84646117D02*
X113306927Y-84684822D01*
X113306927Y-84684822D02*
X113384336Y-84704174D01*
X113384336Y-84704174D02*
X113539155Y-84704174D01*
X113539155Y-84704174D02*
X113577860Y-84684822D01*
X113577860Y-84684822D02*
X113597213Y-84665469D01*
X113597213Y-84665469D02*
X113616565Y-84626764D01*
X113616565Y-84626764D02*
X113616565Y-84549355D01*
X113616565Y-84549355D02*
X113597213Y-84510650D01*
X113597213Y-84510650D02*
X113577860Y-84491298D01*
X113577860Y-84491298D02*
X113539155Y-84471945D01*
X113539155Y-84471945D02*
X113442393Y-84471945D01*
X113442393Y-84471945D02*
X113403689Y-84491298D01*
X113403689Y-84491298D02*
X113384336Y-84510650D01*
X113384336Y-84510650D02*
X113364984Y-84549355D01*
X113364984Y-84549355D02*
X113364984Y-84626764D01*
X113364984Y-84626764D02*
X113384336Y-84665469D01*
X113384336Y-84665469D02*
X113403689Y-84684822D01*
X113403689Y-84684822D02*
X113442393Y-84704174D01*
X114490342Y-82149100D02*
X114470990Y-82168453D01*
X114470990Y-82168453D02*
X114412932Y-82187805D01*
X114412932Y-82187805D02*
X114374228Y-82187805D01*
X114374228Y-82187805D02*
X114316171Y-82168453D01*
X114316171Y-82168453D02*
X114277466Y-82129748D01*
X114277466Y-82129748D02*
X114258113Y-82091043D01*
X114258113Y-82091043D02*
X114238761Y-82013633D01*
X114238761Y-82013633D02*
X114238761Y-81955576D01*
X114238761Y-81955576D02*
X114258113Y-81878167D01*
X114258113Y-81878167D02*
X114277466Y-81839462D01*
X114277466Y-81839462D02*
X114316171Y-81800757D01*
X114316171Y-81800757D02*
X114374228Y-81781405D01*
X114374228Y-81781405D02*
X114412932Y-81781405D01*
X114412932Y-81781405D02*
X114470990Y-81800757D01*
X114470990Y-81800757D02*
X114490342Y-81820110D01*
X114625809Y-81781405D02*
X114877390Y-81781405D01*
X114877390Y-81781405D02*
X114741923Y-81936224D01*
X114741923Y-81936224D02*
X114799980Y-81936224D01*
X114799980Y-81936224D02*
X114838685Y-81955576D01*
X114838685Y-81955576D02*
X114858037Y-81974929D01*
X114858037Y-81974929D02*
X114877390Y-82013633D01*
X114877390Y-82013633D02*
X114877390Y-82110395D01*
X114877390Y-82110395D02*
X114858037Y-82149100D01*
X114858037Y-82149100D02*
X114838685Y-82168453D01*
X114838685Y-82168453D02*
X114799980Y-82187805D01*
X114799980Y-82187805D02*
X114683866Y-82187805D01*
X114683866Y-82187805D02*
X114645161Y-82168453D01*
X114645161Y-82168453D02*
X114625809Y-82149100D01*
X115225733Y-81916872D02*
X115225733Y-82187805D01*
X115128971Y-81762053D02*
X115032209Y-82052338D01*
X115032209Y-82052338D02*
X115283790Y-82052338D01*
X124352962Y-86644265D02*
X124217495Y-86450741D01*
X124120733Y-86644265D02*
X124120733Y-86237865D01*
X124120733Y-86237865D02*
X124275552Y-86237865D01*
X124275552Y-86237865D02*
X124314257Y-86257217D01*
X124314257Y-86257217D02*
X124333610Y-86276570D01*
X124333610Y-86276570D02*
X124352962Y-86315274D01*
X124352962Y-86315274D02*
X124352962Y-86373332D01*
X124352962Y-86373332D02*
X124333610Y-86412036D01*
X124333610Y-86412036D02*
X124314257Y-86431389D01*
X124314257Y-86431389D02*
X124275552Y-86450741D01*
X124275552Y-86450741D02*
X124120733Y-86450741D01*
X124507781Y-86276570D02*
X124527133Y-86257217D01*
X124527133Y-86257217D02*
X124565838Y-86237865D01*
X124565838Y-86237865D02*
X124662600Y-86237865D01*
X124662600Y-86237865D02*
X124701305Y-86257217D01*
X124701305Y-86257217D02*
X124720657Y-86276570D01*
X124720657Y-86276570D02*
X124740010Y-86315274D01*
X124740010Y-86315274D02*
X124740010Y-86353979D01*
X124740010Y-86353979D02*
X124720657Y-86412036D01*
X124720657Y-86412036D02*
X124488429Y-86644265D01*
X124488429Y-86644265D02*
X124740010Y-86644265D01*
X125127058Y-86644265D02*
X124894829Y-86644265D01*
X125010943Y-86644265D02*
X125010943Y-86237865D01*
X125010943Y-86237865D02*
X124972239Y-86295922D01*
X124972239Y-86295922D02*
X124933534Y-86334627D01*
X124933534Y-86334627D02*
X124894829Y-86353979D01*
X114467482Y-92098880D02*
X114448130Y-92118233D01*
X114448130Y-92118233D02*
X114390072Y-92137585D01*
X114390072Y-92137585D02*
X114351368Y-92137585D01*
X114351368Y-92137585D02*
X114293311Y-92118233D01*
X114293311Y-92118233D02*
X114254606Y-92079528D01*
X114254606Y-92079528D02*
X114235253Y-92040823D01*
X114235253Y-92040823D02*
X114215901Y-91963413D01*
X114215901Y-91963413D02*
X114215901Y-91905356D01*
X114215901Y-91905356D02*
X114235253Y-91827947D01*
X114235253Y-91827947D02*
X114254606Y-91789242D01*
X114254606Y-91789242D02*
X114293311Y-91750537D01*
X114293311Y-91750537D02*
X114351368Y-91731185D01*
X114351368Y-91731185D02*
X114390072Y-91731185D01*
X114390072Y-91731185D02*
X114448130Y-91750537D01*
X114448130Y-91750537D02*
X114467482Y-91769890D01*
X114602949Y-91731185D02*
X114854530Y-91731185D01*
X114854530Y-91731185D02*
X114719063Y-91886004D01*
X114719063Y-91886004D02*
X114777120Y-91886004D01*
X114777120Y-91886004D02*
X114815825Y-91905356D01*
X114815825Y-91905356D02*
X114835177Y-91924709D01*
X114835177Y-91924709D02*
X114854530Y-91963413D01*
X114854530Y-91963413D02*
X114854530Y-92060175D01*
X114854530Y-92060175D02*
X114835177Y-92098880D01*
X114835177Y-92098880D02*
X114815825Y-92118233D01*
X114815825Y-92118233D02*
X114777120Y-92137585D01*
X114777120Y-92137585D02*
X114661006Y-92137585D01*
X114661006Y-92137585D02*
X114622301Y-92118233D01*
X114622301Y-92118233D02*
X114602949Y-92098880D01*
X115048054Y-92137585D02*
X115125463Y-92137585D01*
X115125463Y-92137585D02*
X115164168Y-92118233D01*
X115164168Y-92118233D02*
X115183520Y-92098880D01*
X115183520Y-92098880D02*
X115222225Y-92040823D01*
X115222225Y-92040823D02*
X115241578Y-91963413D01*
X115241578Y-91963413D02*
X115241578Y-91808594D01*
X115241578Y-91808594D02*
X115222225Y-91769890D01*
X115222225Y-91769890D02*
X115202873Y-91750537D01*
X115202873Y-91750537D02*
X115164168Y-91731185D01*
X115164168Y-91731185D02*
X115086759Y-91731185D01*
X115086759Y-91731185D02*
X115048054Y-91750537D01*
X115048054Y-91750537D02*
X115028701Y-91769890D01*
X115028701Y-91769890D02*
X115009349Y-91808594D01*
X115009349Y-91808594D02*
X115009349Y-91905356D01*
X115009349Y-91905356D02*
X115028701Y-91944061D01*
X115028701Y-91944061D02*
X115048054Y-91963413D01*
X115048054Y-91963413D02*
X115086759Y-91982766D01*
X115086759Y-91982766D02*
X115164168Y-91982766D01*
X115164168Y-91982766D02*
X115202873Y-91963413D01*
X115202873Y-91963413D02*
X115222225Y-91944061D01*
X115222225Y-91944061D02*
X115241578Y-91905356D01*
X114528580Y-96176917D02*
X114547933Y-96196269D01*
X114547933Y-96196269D02*
X114567285Y-96254327D01*
X114567285Y-96254327D02*
X114567285Y-96293031D01*
X114567285Y-96293031D02*
X114547933Y-96351088D01*
X114547933Y-96351088D02*
X114509228Y-96389793D01*
X114509228Y-96389793D02*
X114470523Y-96409146D01*
X114470523Y-96409146D02*
X114393113Y-96428498D01*
X114393113Y-96428498D02*
X114335056Y-96428498D01*
X114335056Y-96428498D02*
X114257647Y-96409146D01*
X114257647Y-96409146D02*
X114218942Y-96389793D01*
X114218942Y-96389793D02*
X114180237Y-96351088D01*
X114180237Y-96351088D02*
X114160885Y-96293031D01*
X114160885Y-96293031D02*
X114160885Y-96254327D01*
X114160885Y-96254327D02*
X114180237Y-96196269D01*
X114180237Y-96196269D02*
X114199590Y-96176917D01*
X114296352Y-95828574D02*
X114567285Y-95828574D01*
X114141533Y-95925336D02*
X114431818Y-96022098D01*
X114431818Y-96022098D02*
X114431818Y-95770517D01*
X114567285Y-95402821D02*
X114567285Y-95635050D01*
X114567285Y-95518936D02*
X114160885Y-95518936D01*
X114160885Y-95518936D02*
X114218942Y-95557640D01*
X114218942Y-95557640D02*
X114257647Y-95596345D01*
X114257647Y-95596345D02*
X114276999Y-95635050D01*
X124362982Y-89468965D02*
X124227515Y-89275441D01*
X124130753Y-89468965D02*
X124130753Y-89062565D01*
X124130753Y-89062565D02*
X124285572Y-89062565D01*
X124285572Y-89062565D02*
X124324277Y-89081917D01*
X124324277Y-89081917D02*
X124343630Y-89101270D01*
X124343630Y-89101270D02*
X124362982Y-89139974D01*
X124362982Y-89139974D02*
X124362982Y-89198032D01*
X124362982Y-89198032D02*
X124343630Y-89236736D01*
X124343630Y-89236736D02*
X124324277Y-89256089D01*
X124324277Y-89256089D02*
X124285572Y-89275441D01*
X124285572Y-89275441D02*
X124130753Y-89275441D01*
X124750030Y-89468965D02*
X124517801Y-89468965D01*
X124633915Y-89468965D02*
X124633915Y-89062565D01*
X124633915Y-89062565D02*
X124595211Y-89120622D01*
X124595211Y-89120622D02*
X124556506Y-89159327D01*
X124556506Y-89159327D02*
X124517801Y-89178679D01*
X124982259Y-89236736D02*
X124943554Y-89217384D01*
X124943554Y-89217384D02*
X124924201Y-89198032D01*
X124924201Y-89198032D02*
X124904849Y-89159327D01*
X124904849Y-89159327D02*
X124904849Y-89139974D01*
X124904849Y-89139974D02*
X124924201Y-89101270D01*
X124924201Y-89101270D02*
X124943554Y-89081917D01*
X124943554Y-89081917D02*
X124982259Y-89062565D01*
X124982259Y-89062565D02*
X125059668Y-89062565D01*
X125059668Y-89062565D02*
X125098373Y-89081917D01*
X125098373Y-89081917D02*
X125117725Y-89101270D01*
X125117725Y-89101270D02*
X125137078Y-89139974D01*
X125137078Y-89139974D02*
X125137078Y-89159327D01*
X125137078Y-89159327D02*
X125117725Y-89198032D01*
X125117725Y-89198032D02*
X125098373Y-89217384D01*
X125098373Y-89217384D02*
X125059668Y-89236736D01*
X125059668Y-89236736D02*
X124982259Y-89236736D01*
X124982259Y-89236736D02*
X124943554Y-89256089D01*
X124943554Y-89256089D02*
X124924201Y-89275441D01*
X124924201Y-89275441D02*
X124904849Y-89314146D01*
X124904849Y-89314146D02*
X124904849Y-89391555D01*
X124904849Y-89391555D02*
X124924201Y-89430260D01*
X124924201Y-89430260D02*
X124943554Y-89449613D01*
X124943554Y-89449613D02*
X124982259Y-89468965D01*
X124982259Y-89468965D02*
X125059668Y-89468965D01*
X125059668Y-89468965D02*
X125098373Y-89449613D01*
X125098373Y-89449613D02*
X125117725Y-89430260D01*
X125117725Y-89430260D02*
X125137078Y-89391555D01*
X125137078Y-89391555D02*
X125137078Y-89314146D01*
X125137078Y-89314146D02*
X125117725Y-89275441D01*
X125117725Y-89275441D02*
X125098373Y-89256089D01*
X125098373Y-89256089D02*
X125059668Y-89236736D01*
X121457297Y-93292848D02*
X121481487Y-93220276D01*
X121481487Y-93220276D02*
X121481487Y-93099324D01*
X121481487Y-93099324D02*
X121457297Y-93050943D01*
X121457297Y-93050943D02*
X121433106Y-93026752D01*
X121433106Y-93026752D02*
X121384725Y-93002562D01*
X121384725Y-93002562D02*
X121336344Y-93002562D01*
X121336344Y-93002562D02*
X121287963Y-93026752D01*
X121287963Y-93026752D02*
X121263773Y-93050943D01*
X121263773Y-93050943D02*
X121239582Y-93099324D01*
X121239582Y-93099324D02*
X121215392Y-93196086D01*
X121215392Y-93196086D02*
X121191201Y-93244467D01*
X121191201Y-93244467D02*
X121167011Y-93268657D01*
X121167011Y-93268657D02*
X121118630Y-93292848D01*
X121118630Y-93292848D02*
X121070249Y-93292848D01*
X121070249Y-93292848D02*
X121021868Y-93268657D01*
X121021868Y-93268657D02*
X120997677Y-93244467D01*
X120997677Y-93244467D02*
X120973487Y-93196086D01*
X120973487Y-93196086D02*
X120973487Y-93075133D01*
X120973487Y-93075133D02*
X120997677Y-93002562D01*
X120973487Y-92833228D02*
X120973487Y-92518752D01*
X120973487Y-92518752D02*
X121167011Y-92688085D01*
X121167011Y-92688085D02*
X121167011Y-92615514D01*
X121167011Y-92615514D02*
X121191201Y-92567133D01*
X121191201Y-92567133D02*
X121215392Y-92542942D01*
X121215392Y-92542942D02*
X121263773Y-92518752D01*
X121263773Y-92518752D02*
X121384725Y-92518752D01*
X121384725Y-92518752D02*
X121433106Y-92542942D01*
X121433106Y-92542942D02*
X121457297Y-92567133D01*
X121457297Y-92567133D02*
X121481487Y-92615514D01*
X121481487Y-92615514D02*
X121481487Y-92760657D01*
X121481487Y-92760657D02*
X121457297Y-92809038D01*
X121457297Y-92809038D02*
X121433106Y-92833228D01*
X124364286Y-83649800D02*
X124344934Y-83669153D01*
X124344934Y-83669153D02*
X124286876Y-83688505D01*
X124286876Y-83688505D02*
X124248172Y-83688505D01*
X124248172Y-83688505D02*
X124190115Y-83669153D01*
X124190115Y-83669153D02*
X124151410Y-83630448D01*
X124151410Y-83630448D02*
X124132057Y-83591743D01*
X124132057Y-83591743D02*
X124112705Y-83514333D01*
X124112705Y-83514333D02*
X124112705Y-83456276D01*
X124112705Y-83456276D02*
X124132057Y-83378867D01*
X124132057Y-83378867D02*
X124151410Y-83340162D01*
X124151410Y-83340162D02*
X124190115Y-83301457D01*
X124190115Y-83301457D02*
X124248172Y-83282105D01*
X124248172Y-83282105D02*
X124286876Y-83282105D01*
X124286876Y-83282105D02*
X124344934Y-83301457D01*
X124344934Y-83301457D02*
X124364286Y-83320810D01*
X124712629Y-83417572D02*
X124712629Y-83688505D01*
X124615867Y-83262753D02*
X124519105Y-83553038D01*
X124519105Y-83553038D02*
X124770686Y-83553038D01*
X106352952Y-87193047D02*
X106352952Y-87604285D01*
X106352952Y-87604285D02*
X106377142Y-87652666D01*
X106377142Y-87652666D02*
X106401333Y-87676857D01*
X106401333Y-87676857D02*
X106449714Y-87701047D01*
X106449714Y-87701047D02*
X106546476Y-87701047D01*
X106546476Y-87701047D02*
X106594857Y-87676857D01*
X106594857Y-87676857D02*
X106619047Y-87652666D01*
X106619047Y-87652666D02*
X106643238Y-87604285D01*
X106643238Y-87604285D02*
X106643238Y-87193047D01*
X106836761Y-87193047D02*
X107151237Y-87193047D01*
X107151237Y-87193047D02*
X106981904Y-87386571D01*
X106981904Y-87386571D02*
X107054475Y-87386571D01*
X107054475Y-87386571D02*
X107102856Y-87410761D01*
X107102856Y-87410761D02*
X107127047Y-87434952D01*
X107127047Y-87434952D02*
X107151237Y-87483333D01*
X107151237Y-87483333D02*
X107151237Y-87604285D01*
X107151237Y-87604285D02*
X107127047Y-87652666D01*
X107127047Y-87652666D02*
X107102856Y-87676857D01*
X107102856Y-87676857D02*
X107054475Y-87701047D01*
X107054475Y-87701047D02*
X106909332Y-87701047D01*
X106909332Y-87701047D02*
X106860951Y-87676857D01*
X106860951Y-87676857D02*
X106836761Y-87652666D01*
X121495846Y-81938000D02*
X121476494Y-81957353D01*
X121476494Y-81957353D02*
X121418436Y-81976705D01*
X121418436Y-81976705D02*
X121379732Y-81976705D01*
X121379732Y-81976705D02*
X121321675Y-81957353D01*
X121321675Y-81957353D02*
X121282970Y-81918648D01*
X121282970Y-81918648D02*
X121263617Y-81879943D01*
X121263617Y-81879943D02*
X121244265Y-81802533D01*
X121244265Y-81802533D02*
X121244265Y-81744476D01*
X121244265Y-81744476D02*
X121263617Y-81667067D01*
X121263617Y-81667067D02*
X121282970Y-81628362D01*
X121282970Y-81628362D02*
X121321675Y-81589657D01*
X121321675Y-81589657D02*
X121379732Y-81570305D01*
X121379732Y-81570305D02*
X121418436Y-81570305D01*
X121418436Y-81570305D02*
X121476494Y-81589657D01*
X121476494Y-81589657D02*
X121495846Y-81609010D01*
X121844189Y-81570305D02*
X121766779Y-81570305D01*
X121766779Y-81570305D02*
X121728075Y-81589657D01*
X121728075Y-81589657D02*
X121708722Y-81609010D01*
X121708722Y-81609010D02*
X121670017Y-81667067D01*
X121670017Y-81667067D02*
X121650665Y-81744476D01*
X121650665Y-81744476D02*
X121650665Y-81899295D01*
X121650665Y-81899295D02*
X121670017Y-81938000D01*
X121670017Y-81938000D02*
X121689370Y-81957353D01*
X121689370Y-81957353D02*
X121728075Y-81976705D01*
X121728075Y-81976705D02*
X121805484Y-81976705D01*
X121805484Y-81976705D02*
X121844189Y-81957353D01*
X121844189Y-81957353D02*
X121863541Y-81938000D01*
X121863541Y-81938000D02*
X121882894Y-81899295D01*
X121882894Y-81899295D02*
X121882894Y-81802533D01*
X121882894Y-81802533D02*
X121863541Y-81763829D01*
X121863541Y-81763829D02*
X121844189Y-81744476D01*
X121844189Y-81744476D02*
X121805484Y-81725124D01*
X121805484Y-81725124D02*
X121728075Y-81725124D01*
X121728075Y-81725124D02*
X121689370Y-81744476D01*
X121689370Y-81744476D02*
X121670017Y-81763829D01*
X121670017Y-81763829D02*
X121650665Y-81802533D01*
X106352952Y-81843047D02*
X106352952Y-82254285D01*
X106352952Y-82254285D02*
X106377142Y-82302666D01*
X106377142Y-82302666D02*
X106401333Y-82326857D01*
X106401333Y-82326857D02*
X106449714Y-82351047D01*
X106449714Y-82351047D02*
X106546476Y-82351047D01*
X106546476Y-82351047D02*
X106594857Y-82326857D01*
X106594857Y-82326857D02*
X106619047Y-82302666D01*
X106619047Y-82302666D02*
X106643238Y-82254285D01*
X106643238Y-82254285D02*
X106643238Y-81843047D01*
X107102856Y-82012380D02*
X107102856Y-82351047D01*
X106981904Y-81818857D02*
X106860951Y-82181714D01*
X106860951Y-82181714D02*
X107175428Y-82181714D01*
X106352952Y-97893047D02*
X106352952Y-98304285D01*
X106352952Y-98304285D02*
X106377142Y-98352666D01*
X106377142Y-98352666D02*
X106401333Y-98376857D01*
X106401333Y-98376857D02*
X106449714Y-98401047D01*
X106449714Y-98401047D02*
X106546476Y-98401047D01*
X106546476Y-98401047D02*
X106594857Y-98376857D01*
X106594857Y-98376857D02*
X106619047Y-98352666D01*
X106619047Y-98352666D02*
X106643238Y-98304285D01*
X106643238Y-98304285D02*
X106643238Y-97893047D01*
X107151237Y-98401047D02*
X106860951Y-98401047D01*
X107006094Y-98401047D02*
X107006094Y-97893047D01*
X107006094Y-97893047D02*
X106957713Y-97965618D01*
X106957713Y-97965618D02*
X106909332Y-98013999D01*
X106909332Y-98013999D02*
X106860951Y-98038190D01*
X114472562Y-81440500D02*
X114453210Y-81459853D01*
X114453210Y-81459853D02*
X114395152Y-81479205D01*
X114395152Y-81479205D02*
X114356448Y-81479205D01*
X114356448Y-81479205D02*
X114298391Y-81459853D01*
X114298391Y-81459853D02*
X114259686Y-81421148D01*
X114259686Y-81421148D02*
X114240333Y-81382443D01*
X114240333Y-81382443D02*
X114220981Y-81305033D01*
X114220981Y-81305033D02*
X114220981Y-81246976D01*
X114220981Y-81246976D02*
X114240333Y-81169567D01*
X114240333Y-81169567D02*
X114259686Y-81130862D01*
X114259686Y-81130862D02*
X114298391Y-81092157D01*
X114298391Y-81092157D02*
X114356448Y-81072805D01*
X114356448Y-81072805D02*
X114395152Y-81072805D01*
X114395152Y-81072805D02*
X114453210Y-81092157D01*
X114453210Y-81092157D02*
X114472562Y-81111510D01*
X114608029Y-81072805D02*
X114859610Y-81072805D01*
X114859610Y-81072805D02*
X114724143Y-81227624D01*
X114724143Y-81227624D02*
X114782200Y-81227624D01*
X114782200Y-81227624D02*
X114820905Y-81246976D01*
X114820905Y-81246976D02*
X114840257Y-81266329D01*
X114840257Y-81266329D02*
X114859610Y-81305033D01*
X114859610Y-81305033D02*
X114859610Y-81401795D01*
X114859610Y-81401795D02*
X114840257Y-81440500D01*
X114840257Y-81440500D02*
X114820905Y-81459853D01*
X114820905Y-81459853D02*
X114782200Y-81479205D01*
X114782200Y-81479205D02*
X114666086Y-81479205D01*
X114666086Y-81479205D02*
X114627381Y-81459853D01*
X114627381Y-81459853D02*
X114608029Y-81440500D01*
X114995077Y-81072805D02*
X115266010Y-81072805D01*
X115266010Y-81072805D02*
X115091839Y-81479205D01*
X114475102Y-92939800D02*
X114455750Y-92959153D01*
X114455750Y-92959153D02*
X114397692Y-92978505D01*
X114397692Y-92978505D02*
X114358988Y-92978505D01*
X114358988Y-92978505D02*
X114300931Y-92959153D01*
X114300931Y-92959153D02*
X114262226Y-92920448D01*
X114262226Y-92920448D02*
X114242873Y-92881743D01*
X114242873Y-92881743D02*
X114223521Y-92804333D01*
X114223521Y-92804333D02*
X114223521Y-92746276D01*
X114223521Y-92746276D02*
X114242873Y-92668867D01*
X114242873Y-92668867D02*
X114262226Y-92630162D01*
X114262226Y-92630162D02*
X114300931Y-92591457D01*
X114300931Y-92591457D02*
X114358988Y-92572105D01*
X114358988Y-92572105D02*
X114397692Y-92572105D01*
X114397692Y-92572105D02*
X114455750Y-92591457D01*
X114455750Y-92591457D02*
X114475102Y-92610810D01*
X114610569Y-92572105D02*
X114862150Y-92572105D01*
X114862150Y-92572105D02*
X114726683Y-92726924D01*
X114726683Y-92726924D02*
X114784740Y-92726924D01*
X114784740Y-92726924D02*
X114823445Y-92746276D01*
X114823445Y-92746276D02*
X114842797Y-92765629D01*
X114842797Y-92765629D02*
X114862150Y-92804333D01*
X114862150Y-92804333D02*
X114862150Y-92901095D01*
X114862150Y-92901095D02*
X114842797Y-92939800D01*
X114842797Y-92939800D02*
X114823445Y-92959153D01*
X114823445Y-92959153D02*
X114784740Y-92978505D01*
X114784740Y-92978505D02*
X114668626Y-92978505D01*
X114668626Y-92978505D02*
X114629921Y-92959153D01*
X114629921Y-92959153D02*
X114610569Y-92939800D01*
X115016969Y-92610810D02*
X115036321Y-92591457D01*
X115036321Y-92591457D02*
X115075026Y-92572105D01*
X115075026Y-92572105D02*
X115171788Y-92572105D01*
X115171788Y-92572105D02*
X115210493Y-92591457D01*
X115210493Y-92591457D02*
X115229845Y-92610810D01*
X115229845Y-92610810D02*
X115249198Y-92649514D01*
X115249198Y-92649514D02*
X115249198Y-92688219D01*
X115249198Y-92688219D02*
X115229845Y-92746276D01*
X115229845Y-92746276D02*
X114997617Y-92978505D01*
X114997617Y-92978505D02*
X115249198Y-92978505D01*
X117347742Y-102160660D02*
X117328390Y-102180013D01*
X117328390Y-102180013D02*
X117270332Y-102199365D01*
X117270332Y-102199365D02*
X117231628Y-102199365D01*
X117231628Y-102199365D02*
X117173571Y-102180013D01*
X117173571Y-102180013D02*
X117134866Y-102141308D01*
X117134866Y-102141308D02*
X117115513Y-102102603D01*
X117115513Y-102102603D02*
X117096161Y-102025193D01*
X117096161Y-102025193D02*
X117096161Y-101967136D01*
X117096161Y-101967136D02*
X117115513Y-101889727D01*
X117115513Y-101889727D02*
X117134866Y-101851022D01*
X117134866Y-101851022D02*
X117173571Y-101812317D01*
X117173571Y-101812317D02*
X117231628Y-101792965D01*
X117231628Y-101792965D02*
X117270332Y-101792965D01*
X117270332Y-101792965D02*
X117328390Y-101812317D01*
X117328390Y-101812317D02*
X117347742Y-101831670D01*
X117734790Y-102199365D02*
X117502561Y-102199365D01*
X117618675Y-102199365D02*
X117618675Y-101792965D01*
X117618675Y-101792965D02*
X117579971Y-101851022D01*
X117579971Y-101851022D02*
X117541266Y-101889727D01*
X117541266Y-101889727D02*
X117502561Y-101909079D01*
X117870257Y-101792965D02*
X118121838Y-101792965D01*
X118121838Y-101792965D02*
X117986371Y-101947784D01*
X117986371Y-101947784D02*
X118044428Y-101947784D01*
X118044428Y-101947784D02*
X118083133Y-101967136D01*
X118083133Y-101967136D02*
X118102485Y-101986489D01*
X118102485Y-101986489D02*
X118121838Y-102025193D01*
X118121838Y-102025193D02*
X118121838Y-102121955D01*
X118121838Y-102121955D02*
X118102485Y-102160660D01*
X118102485Y-102160660D02*
X118083133Y-102180013D01*
X118083133Y-102180013D02*
X118044428Y-102199365D01*
X118044428Y-102199365D02*
X117928314Y-102199365D01*
X117928314Y-102199365D02*
X117889609Y-102180013D01*
X117889609Y-102180013D02*
X117870257Y-102160660D01*
X114477642Y-87552340D02*
X114458290Y-87571693D01*
X114458290Y-87571693D02*
X114400232Y-87591045D01*
X114400232Y-87591045D02*
X114361528Y-87591045D01*
X114361528Y-87591045D02*
X114303471Y-87571693D01*
X114303471Y-87571693D02*
X114264766Y-87532988D01*
X114264766Y-87532988D02*
X114245413Y-87494283D01*
X114245413Y-87494283D02*
X114226061Y-87416873D01*
X114226061Y-87416873D02*
X114226061Y-87358816D01*
X114226061Y-87358816D02*
X114245413Y-87281407D01*
X114245413Y-87281407D02*
X114264766Y-87242702D01*
X114264766Y-87242702D02*
X114303471Y-87203997D01*
X114303471Y-87203997D02*
X114361528Y-87184645D01*
X114361528Y-87184645D02*
X114400232Y-87184645D01*
X114400232Y-87184645D02*
X114458290Y-87203997D01*
X114458290Y-87203997D02*
X114477642Y-87223350D01*
X114613109Y-87184645D02*
X114864690Y-87184645D01*
X114864690Y-87184645D02*
X114729223Y-87339464D01*
X114729223Y-87339464D02*
X114787280Y-87339464D01*
X114787280Y-87339464D02*
X114825985Y-87358816D01*
X114825985Y-87358816D02*
X114845337Y-87378169D01*
X114845337Y-87378169D02*
X114864690Y-87416873D01*
X114864690Y-87416873D02*
X114864690Y-87513635D01*
X114864690Y-87513635D02*
X114845337Y-87552340D01*
X114845337Y-87552340D02*
X114825985Y-87571693D01*
X114825985Y-87571693D02*
X114787280Y-87591045D01*
X114787280Y-87591045D02*
X114671166Y-87591045D01*
X114671166Y-87591045D02*
X114632461Y-87571693D01*
X114632461Y-87571693D02*
X114613109Y-87552340D01*
X115096919Y-87358816D02*
X115058214Y-87339464D01*
X115058214Y-87339464D02*
X115038861Y-87320112D01*
X115038861Y-87320112D02*
X115019509Y-87281407D01*
X115019509Y-87281407D02*
X115019509Y-87262054D01*
X115019509Y-87262054D02*
X115038861Y-87223350D01*
X115038861Y-87223350D02*
X115058214Y-87203997D01*
X115058214Y-87203997D02*
X115096919Y-87184645D01*
X115096919Y-87184645D02*
X115174328Y-87184645D01*
X115174328Y-87184645D02*
X115213033Y-87203997D01*
X115213033Y-87203997D02*
X115232385Y-87223350D01*
X115232385Y-87223350D02*
X115251738Y-87262054D01*
X115251738Y-87262054D02*
X115251738Y-87281407D01*
X115251738Y-87281407D02*
X115232385Y-87320112D01*
X115232385Y-87320112D02*
X115213033Y-87339464D01*
X115213033Y-87339464D02*
X115174328Y-87358816D01*
X115174328Y-87358816D02*
X115096919Y-87358816D01*
X115096919Y-87358816D02*
X115058214Y-87378169D01*
X115058214Y-87378169D02*
X115038861Y-87397521D01*
X115038861Y-87397521D02*
X115019509Y-87436226D01*
X115019509Y-87436226D02*
X115019509Y-87513635D01*
X115019509Y-87513635D02*
X115038861Y-87552340D01*
X115038861Y-87552340D02*
X115058214Y-87571693D01*
X115058214Y-87571693D02*
X115096919Y-87591045D01*
X115096919Y-87591045D02*
X115174328Y-87591045D01*
X115174328Y-87591045D02*
X115213033Y-87571693D01*
X115213033Y-87571693D02*
X115232385Y-87552340D01*
X115232385Y-87552340D02*
X115251738Y-87513635D01*
X115251738Y-87513635D02*
X115251738Y-87436226D01*
X115251738Y-87436226D02*
X115232385Y-87397521D01*
X115232385Y-87397521D02*
X115213033Y-87378169D01*
X115213033Y-87378169D02*
X115174328Y-87358816D01*
X124181546Y-91618777D02*
X124162194Y-91638130D01*
X124162194Y-91638130D02*
X124104136Y-91657482D01*
X124104136Y-91657482D02*
X124065432Y-91657482D01*
X124065432Y-91657482D02*
X124007375Y-91638130D01*
X124007375Y-91638130D02*
X123968670Y-91599425D01*
X123968670Y-91599425D02*
X123949317Y-91560720D01*
X123949317Y-91560720D02*
X123929965Y-91483310D01*
X123929965Y-91483310D02*
X123929965Y-91425253D01*
X123929965Y-91425253D02*
X123949317Y-91347844D01*
X123949317Y-91347844D02*
X123968670Y-91309139D01*
X123968670Y-91309139D02*
X124007375Y-91270434D01*
X124007375Y-91270434D02*
X124065432Y-91251082D01*
X124065432Y-91251082D02*
X124104136Y-91251082D01*
X124104136Y-91251082D02*
X124162194Y-91270434D01*
X124162194Y-91270434D02*
X124181546Y-91289787D01*
X124549241Y-91251082D02*
X124355717Y-91251082D01*
X124355717Y-91251082D02*
X124336365Y-91444606D01*
X124336365Y-91444606D02*
X124355717Y-91425253D01*
X124355717Y-91425253D02*
X124394422Y-91405901D01*
X124394422Y-91405901D02*
X124491184Y-91405901D01*
X124491184Y-91405901D02*
X124529889Y-91425253D01*
X124529889Y-91425253D02*
X124549241Y-91444606D01*
X124549241Y-91444606D02*
X124568594Y-91483310D01*
X124568594Y-91483310D02*
X124568594Y-91580072D01*
X124568594Y-91580072D02*
X124549241Y-91618777D01*
X124549241Y-91618777D02*
X124529889Y-91638130D01*
X124529889Y-91638130D02*
X124491184Y-91657482D01*
X124491184Y-91657482D02*
X124394422Y-91657482D01*
X124394422Y-91657482D02*
X124355717Y-91638130D01*
X124355717Y-91638130D02*
X124336365Y-91618777D01*
X114532900Y-85397437D02*
X114552253Y-85416789D01*
X114552253Y-85416789D02*
X114571605Y-85474847D01*
X114571605Y-85474847D02*
X114571605Y-85513551D01*
X114571605Y-85513551D02*
X114552253Y-85571608D01*
X114552253Y-85571608D02*
X114513548Y-85610313D01*
X114513548Y-85610313D02*
X114474843Y-85629666D01*
X114474843Y-85629666D02*
X114397433Y-85649018D01*
X114397433Y-85649018D02*
X114339376Y-85649018D01*
X114339376Y-85649018D02*
X114261967Y-85629666D01*
X114261967Y-85629666D02*
X114223262Y-85610313D01*
X114223262Y-85610313D02*
X114184557Y-85571608D01*
X114184557Y-85571608D02*
X114165205Y-85513551D01*
X114165205Y-85513551D02*
X114165205Y-85474847D01*
X114165205Y-85474847D02*
X114184557Y-85416789D01*
X114184557Y-85416789D02*
X114203910Y-85397437D01*
X114300672Y-85049094D02*
X114571605Y-85049094D01*
X114145853Y-85145856D02*
X114436138Y-85242618D01*
X114436138Y-85242618D02*
X114436138Y-84991037D01*
X114165205Y-84874922D02*
X114165205Y-84623341D01*
X114165205Y-84623341D02*
X114320024Y-84758808D01*
X114320024Y-84758808D02*
X114320024Y-84700751D01*
X114320024Y-84700751D02*
X114339376Y-84662046D01*
X114339376Y-84662046D02*
X114358729Y-84642694D01*
X114358729Y-84642694D02*
X114397433Y-84623341D01*
X114397433Y-84623341D02*
X114494195Y-84623341D01*
X114494195Y-84623341D02*
X114532900Y-84642694D01*
X114532900Y-84642694D02*
X114552253Y-84662046D01*
X114552253Y-84662046D02*
X114571605Y-84700751D01*
X114571605Y-84700751D02*
X114571605Y-84816865D01*
X114571605Y-84816865D02*
X114552253Y-84855570D01*
X114552253Y-84855570D02*
X114532900Y-84874922D01*
X113629625Y-90219373D02*
X113436101Y-90354840D01*
X113629625Y-90451602D02*
X113223225Y-90451602D01*
X113223225Y-90451602D02*
X113223225Y-90296783D01*
X113223225Y-90296783D02*
X113242577Y-90258078D01*
X113242577Y-90258078D02*
X113261930Y-90238725D01*
X113261930Y-90238725D02*
X113300634Y-90219373D01*
X113300634Y-90219373D02*
X113358692Y-90219373D01*
X113358692Y-90219373D02*
X113397396Y-90238725D01*
X113397396Y-90238725D02*
X113416749Y-90258078D01*
X113416749Y-90258078D02*
X113436101Y-90296783D01*
X113436101Y-90296783D02*
X113436101Y-90451602D01*
X113223225Y-90083906D02*
X113223225Y-89812973D01*
X113223225Y-89812973D02*
X113629625Y-89987144D01*
D11*
%TO.C,C11*%
X115932860Y-103013004D02*
X115932860Y-103228676D01*
X116652860Y-103013004D02*
X116652860Y-103228676D01*
%TO.C,C12*%
X115012860Y-103013004D02*
X115012860Y-103228676D01*
X115732860Y-103013004D02*
X115732860Y-103228676D01*
D12*
%TO.C,S5*%
X96096980Y-82033400D02*
X96096980Y-83983400D01*
X96096980Y-83983400D02*
X96766980Y-83983400D01*
X96096980Y-100023400D02*
X96096980Y-101973400D01*
X96096980Y-101973400D02*
X96846980Y-101973400D01*
X96766980Y-100023400D02*
X96096980Y-100023400D01*
X96766980Y-100023400D02*
X96766980Y-83983400D01*
X96846980Y-81083400D02*
X96846980Y-82033400D01*
X96846980Y-81083400D02*
X105146980Y-81083400D01*
X96846980Y-82033400D02*
X96096980Y-82033400D01*
X96846980Y-101973400D02*
X96846980Y-102923400D01*
X96846980Y-102923400D02*
X105146980Y-102923400D01*
X105146980Y-82033400D02*
X105146980Y-81083400D01*
X105146980Y-101973400D02*
X105896980Y-101973400D01*
X105146980Y-102923400D02*
X105146980Y-101973400D01*
X105226980Y-83983400D02*
X105896980Y-83983400D01*
X105226980Y-100023400D02*
X105226980Y-83983400D01*
X105896980Y-82033400D02*
X105146980Y-82033400D01*
X105896980Y-83983400D02*
X105896980Y-82033400D01*
X105896980Y-100023400D02*
X105226980Y-100023400D01*
X105896980Y-101973400D02*
X105896980Y-100023400D01*
X95746980Y-84403400D02*
G75*
G02*
X95546980Y-84403400I-100000J0D01*
G01*
X95546980Y-84403400D02*
G75*
G02*
X95746980Y-84403400I100000J0D01*
G01*
D11*
%TO.C,R14*%
X122643021Y-80648400D02*
X122335739Y-80648400D01*
X122643021Y-81408400D02*
X122335739Y-81408400D01*
%TO.C,U10*%
D13*
X115900000Y-92000000D02*
X123100000Y-92000000D01*
X123100000Y-82800000D01*
X115900000Y-82800000D01*
X115900000Y-92000000D01*
D12*
X115750000Y-92250000D02*
G75*
G02*
X115550000Y-92250000I-100000J0D01*
G01*
X115550000Y-92250000D02*
G75*
G02*
X115750000Y-92250000I100000J0D01*
G01*
D13*
%TO.C,U2*%
X107900000Y-92550000D02*
X108350000Y-92550000D01*
X107900000Y-93000000D02*
X107900000Y-92550000D01*
X107900000Y-96300000D02*
X107900000Y-96750000D01*
X107900000Y-96750000D02*
X108350000Y-96750000D01*
X111650000Y-92550000D02*
X111850000Y-92550000D01*
X112100000Y-93000000D02*
X112100000Y-92850000D01*
X112100000Y-96300000D02*
X112100000Y-96750000D01*
X112100000Y-96750000D02*
X111650000Y-96750000D01*
X112400000Y-92750000D02*
X112100000Y-92550000D01*
X112400000Y-92350000D01*
X112400000Y-92750000D01*
G36*
X112400000Y-92750000D02*
G01*
X112100000Y-92550000D01*
X112400000Y-92350000D01*
X112400000Y-92750000D01*
G37*
%TO.C,S3*%
X121889120Y-105708060D02*
X126308720Y-105708060D01*
X126308720Y-92500060D01*
X121889120Y-92500060D01*
X121889120Y-105708060D01*
%TO.C,U3*%
X107900000Y-87200000D02*
X108350000Y-87200000D01*
X107900000Y-87650000D02*
X107900000Y-87200000D01*
X107900000Y-90950000D02*
X107900000Y-91400000D01*
X107900000Y-91400000D02*
X108350000Y-91400000D01*
X111650000Y-87200000D02*
X111850000Y-87200000D01*
X112100000Y-87650000D02*
X112100000Y-87500000D01*
X112100000Y-90950000D02*
X112100000Y-91400000D01*
X112100000Y-91400000D02*
X111650000Y-91400000D01*
X112400000Y-87400000D02*
X112100000Y-87200000D01*
X112400000Y-87000000D01*
X112400000Y-87400000D01*
G36*
X112400000Y-87400000D02*
G01*
X112100000Y-87200000D01*
X112400000Y-87000000D01*
X112400000Y-87400000D01*
G37*
%TO.C,U4*%
X107900000Y-81850000D02*
X108350000Y-81850000D01*
X107900000Y-82300000D02*
X107900000Y-81850000D01*
X107900000Y-85600000D02*
X107900000Y-86050000D01*
X107900000Y-86050000D02*
X108350000Y-86050000D01*
X111650000Y-81850000D02*
X111850000Y-81850000D01*
X112100000Y-82300000D02*
X112100000Y-82150000D01*
X112100000Y-85600000D02*
X112100000Y-86050000D01*
X112100000Y-86050000D02*
X111650000Y-86050000D01*
X112400000Y-82050000D02*
X112100000Y-81850000D01*
X112400000Y-81650000D01*
X112400000Y-82050000D01*
G36*
X112400000Y-82050000D02*
G01*
X112100000Y-81850000D01*
X112400000Y-81650000D01*
X112400000Y-82050000D01*
G37*
%TO.C,U1*%
X107900000Y-97900000D02*
X108350000Y-97900000D01*
X107900000Y-98350000D02*
X107900000Y-97900000D01*
X107900000Y-101650000D02*
X107900000Y-102100000D01*
X107900000Y-102100000D02*
X108350000Y-102100000D01*
X111650000Y-97900000D02*
X111850000Y-97900000D01*
X112100000Y-98350000D02*
X112100000Y-98200000D01*
X112100000Y-101650000D02*
X112100000Y-102100000D01*
X112100000Y-102100000D02*
X111650000Y-102100000D01*
X112400000Y-98100000D02*
X112100000Y-97900000D01*
X112400000Y-97700000D01*
X112400000Y-98100000D01*
G36*
X112400000Y-98100000D02*
G01*
X112100000Y-97900000D01*
X112400000Y-97700000D01*
X112400000Y-98100000D01*
G37*
D11*
%TO.C,C13*%
X116852860Y-103013004D02*
X116852860Y-103228676D01*
X117572860Y-103013004D02*
X117572860Y-103228676D01*
%TD*%
%LPC*%
D14*
%TO.C,C11*%
X116292860Y-102640840D03*
X116292860Y-103600840D03*
%TD*%
D15*
%TO.C,R9*%
X113111280Y-102020000D03*
X113111280Y-101380000D03*
%TD*%
%TO.C,C42*%
X113811280Y-101359760D03*
X113811280Y-100719760D03*
%TD*%
D16*
%TO.C,R20*%
X123800000Y-87669000D03*
X123800000Y-88309000D03*
%TD*%
D14*
%TO.C,C12*%
X115372860Y-102640840D03*
X115372860Y-103600840D03*
%TD*%
D16*
%TO.C,C40*%
X113813240Y-90680000D03*
X113813240Y-91320000D03*
%TD*%
D15*
%TO.C,R8*%
X113111280Y-96670000D03*
X113111280Y-96030000D03*
%TD*%
D17*
%TO.C,S5*%
X103246980Y-101283400D03*
X100996980Y-82723400D03*
D18*
X101396980Y-99603400D03*
X102596980Y-99603400D03*
X99396980Y-84403400D03*
X100596980Y-84403400D03*
X97396980Y-98003400D03*
X98596980Y-98003400D03*
X97396980Y-97203400D03*
X98596980Y-97203400D03*
X97396980Y-96403400D03*
X98596980Y-96403400D03*
X97396980Y-95603400D03*
X98596980Y-95603400D03*
X97396980Y-94803400D03*
X98596980Y-94803400D03*
X97396980Y-94003400D03*
X98596980Y-94003400D03*
X97396980Y-93203400D03*
X98596980Y-93203400D03*
X97396980Y-92403400D03*
X98596980Y-92403400D03*
X97396980Y-91603400D03*
X98596980Y-91603400D03*
X97396980Y-90803400D03*
X98596980Y-90803400D03*
X97396980Y-90003400D03*
X98596980Y-90003400D03*
X97396980Y-89203400D03*
X98596980Y-89203400D03*
X97396980Y-88403400D03*
X98596980Y-88403400D03*
X97396980Y-87603400D03*
X98596980Y-87603400D03*
X97396980Y-86803400D03*
X98596980Y-86803400D03*
X97396980Y-86003400D03*
X98596980Y-86003400D03*
X99396980Y-98003400D03*
X100596980Y-98003400D03*
X99396980Y-97203400D03*
X100596980Y-97203400D03*
X99396980Y-96403400D03*
X100596980Y-96403400D03*
X99396980Y-95603400D03*
X100596980Y-95603400D03*
X99396980Y-94803400D03*
X100596980Y-94803400D03*
X99396980Y-94003400D03*
X100596980Y-94003400D03*
X99396980Y-93203400D03*
X100596980Y-93203400D03*
X99396980Y-92403400D03*
X100596980Y-92403400D03*
X99396980Y-91603400D03*
X100596980Y-91603400D03*
X99396980Y-90803400D03*
X100596980Y-90803400D03*
X99396980Y-90003400D03*
X100596980Y-90003400D03*
X99396980Y-89203400D03*
X100596980Y-89203400D03*
X99396980Y-88403400D03*
X100596980Y-88403400D03*
X99396980Y-87603400D03*
X100596980Y-87603400D03*
X99396980Y-86803400D03*
X100596980Y-86803400D03*
X99396980Y-86003400D03*
X100596980Y-86003400D03*
X101396980Y-98003400D03*
X102596980Y-98003400D03*
X101396980Y-97203400D03*
X102596980Y-97203400D03*
X101396980Y-96403400D03*
X102596980Y-96403400D03*
X101396980Y-95603400D03*
X102596980Y-95603400D03*
X101396980Y-94803400D03*
X102596980Y-94803400D03*
X101396980Y-94003400D03*
X102596980Y-94003400D03*
X101396980Y-93203400D03*
X102596980Y-93203400D03*
X101396980Y-92403400D03*
X102596980Y-92403400D03*
X101396980Y-91603400D03*
X102596980Y-91603400D03*
X101396980Y-90803400D03*
X102596980Y-90803400D03*
X101396980Y-90003400D03*
X102596980Y-90003400D03*
X101396980Y-89203400D03*
X102596980Y-89203400D03*
X101396980Y-88403400D03*
X102596980Y-88403400D03*
X101396980Y-87603400D03*
X102596980Y-87603400D03*
X101396980Y-86803400D03*
X102596980Y-86803400D03*
X101396980Y-86003400D03*
X102596980Y-86003400D03*
X103396980Y-98003400D03*
X104596980Y-98003400D03*
X103396980Y-97203400D03*
X104596980Y-97203400D03*
X103396980Y-96403400D03*
X104596980Y-96403400D03*
X103396980Y-95603400D03*
X104596980Y-95603400D03*
X103396980Y-94803400D03*
X104596980Y-94803400D03*
X103396980Y-94003400D03*
X104596980Y-94003400D03*
X103396980Y-93203400D03*
X104596980Y-93203400D03*
X103396980Y-92403400D03*
X104596980Y-92403400D03*
X103396980Y-91603400D03*
X104596980Y-91603400D03*
X103396980Y-90803400D03*
X104596980Y-90803400D03*
X103396980Y-90003400D03*
X104596980Y-90003400D03*
X103396980Y-89203400D03*
X104596980Y-89203400D03*
X103396980Y-88403400D03*
X104596980Y-88403400D03*
X103396980Y-87603400D03*
X104596980Y-87603400D03*
X103396980Y-86803400D03*
X104596980Y-86803400D03*
X103396980Y-86003400D03*
X104596980Y-86003400D03*
X97396980Y-99603400D03*
X98596980Y-99603400D03*
X99396980Y-99603400D03*
X103396980Y-99603400D03*
X104596980Y-99603400D03*
X97396980Y-98803400D03*
X99396980Y-98803400D03*
X101396980Y-98803400D03*
X103396980Y-98803400D03*
X98596980Y-85203400D03*
X100596980Y-85203400D03*
X102596980Y-85203400D03*
X104596980Y-85203400D03*
X97396980Y-84403400D03*
X98596980Y-84403400D03*
X102596980Y-84403400D03*
X103396980Y-84403400D03*
X104596980Y-84403400D03*
X100596980Y-99603400D03*
X101396980Y-84403400D03*
X98596980Y-98803400D03*
X100596980Y-98803400D03*
X97396980Y-85203400D03*
X99396980Y-85203400D03*
X102596980Y-98803400D03*
X104596980Y-98803400D03*
X101396980Y-85203400D03*
X103396980Y-85203400D03*
%TD*%
D19*
%TO.C,C36*%
X113141280Y-98114200D03*
X113781280Y-98114200D03*
%TD*%
%TO.C,C33*%
X113141280Y-97400400D03*
X113781280Y-97400400D03*
%TD*%
%TO.C,R19*%
X122802200Y-82299680D03*
X123442200Y-82299680D03*
%TD*%
D15*
%TO.C,R16*%
X119353460Y-101325480D03*
X119353460Y-100685480D03*
%TD*%
D20*
%TO.C,REF0*%
X120622500Y-81188000D03*
%TD*%
D21*
%TO.C,R14*%
X122999380Y-81028400D03*
X121979380Y-81028400D03*
%TD*%
D22*
%TO.C,U10*%
X116500000Y-91400000D03*
X116500000Y-90900000D03*
X116500000Y-90400000D03*
X116500000Y-89900000D03*
X116500000Y-89400000D03*
X116500000Y-88900000D03*
X116500000Y-88400000D03*
X116500000Y-87900000D03*
X116500000Y-87400000D03*
X116500000Y-86900000D03*
X116500000Y-86400000D03*
X116500000Y-85900000D03*
X116500000Y-85400000D03*
X116500000Y-84900000D03*
X116500000Y-84400000D03*
X116500000Y-83900000D03*
X116500000Y-83400000D03*
X117000000Y-91400000D03*
X117000000Y-90900000D03*
X117000000Y-90400000D03*
X117000000Y-89900000D03*
X117000000Y-89400000D03*
X117000000Y-88900000D03*
X117000000Y-88400000D03*
X117000000Y-87900000D03*
X117000000Y-87400000D03*
X117000000Y-86900000D03*
X117000000Y-86400000D03*
X117000000Y-85900000D03*
X117000000Y-85400000D03*
X117000000Y-84900000D03*
X117000000Y-84400000D03*
X117000000Y-83900000D03*
X117000000Y-83400000D03*
X117500000Y-91400000D03*
X117500000Y-90900000D03*
X117500000Y-83900000D03*
X117500000Y-83400000D03*
X118000000Y-91400000D03*
X118000000Y-90900000D03*
X118000000Y-83900000D03*
X118000000Y-83400000D03*
X118500000Y-91400000D03*
X118500000Y-90900000D03*
X118500000Y-83900000D03*
X118500000Y-83400000D03*
X119000000Y-91400000D03*
X119000000Y-90900000D03*
X119000000Y-83900000D03*
X119000000Y-83400000D03*
X119500000Y-91400000D03*
X119500000Y-90900000D03*
X119500000Y-83900000D03*
X119500000Y-83400000D03*
X120000000Y-91400000D03*
X120000000Y-90900000D03*
X120000000Y-83900000D03*
X120000000Y-83400000D03*
X120500000Y-91400000D03*
X120500000Y-90900000D03*
X120500000Y-83900000D03*
X120500000Y-83400000D03*
X121000000Y-91400000D03*
X121000000Y-90900000D03*
X121000000Y-83900000D03*
X121000000Y-83400000D03*
X121500000Y-91400000D03*
X121500000Y-90900000D03*
X121500000Y-83900000D03*
X121500000Y-83400000D03*
X122000000Y-91400000D03*
X122000000Y-90900000D03*
X122000000Y-90400000D03*
X122000000Y-89900000D03*
X122000000Y-89400000D03*
X122000000Y-88900000D03*
X122000000Y-88400000D03*
X122000000Y-87900000D03*
X122000000Y-87400000D03*
X122000000Y-86900000D03*
X122000000Y-86400000D03*
X122000000Y-85900000D03*
X122000000Y-85400000D03*
X122000000Y-84900000D03*
X122000000Y-84400000D03*
X122000000Y-83900000D03*
X122000000Y-83400000D03*
X122500000Y-91400000D03*
X122500000Y-90900000D03*
X122500000Y-90400000D03*
X122500000Y-89900000D03*
X122500000Y-89400000D03*
X122500000Y-88900000D03*
X122500000Y-88400000D03*
X122500000Y-87900000D03*
X122500000Y-87400000D03*
X122500000Y-86900000D03*
X122500000Y-86400000D03*
X122500000Y-85900000D03*
X122500000Y-85400000D03*
X122500000Y-84900000D03*
X122500000Y-84400000D03*
X122500000Y-83900000D03*
X122500000Y-83400000D03*
%TD*%
D23*
%TO.C,TP1*%
X115619340Y-99054000D03*
%TD*%
D24*
%TO.C,U2*%
X111250000Y-92712500D03*
X110750000Y-92712500D03*
X110250000Y-92712500D03*
X109750000Y-92712500D03*
X109250000Y-92712500D03*
X108750000Y-92712500D03*
D25*
X108062500Y-93400000D03*
X108062500Y-93900000D03*
X108062500Y-94400000D03*
X108062500Y-94900000D03*
X108062500Y-95400000D03*
X108062500Y-95900000D03*
D24*
X108750000Y-96587500D03*
X109250000Y-96587500D03*
X109750000Y-96587500D03*
X110250000Y-96587500D03*
X110750000Y-96587500D03*
X111250000Y-96587500D03*
D25*
X111937500Y-95900000D03*
X111937500Y-95400000D03*
X111937500Y-94900000D03*
X111937500Y-94400000D03*
X111937500Y-93900000D03*
X111937500Y-93400000D03*
D26*
X110000000Y-94650000D03*
%TD*%
D19*
%TO.C,C35*%
X113141280Y-86701800D03*
X113781280Y-86701800D03*
%TD*%
D23*
%TO.C,TP4*%
X112998060Y-103300000D03*
%TD*%
D15*
%TO.C,R6*%
X113111280Y-85970000D03*
X113111280Y-85330000D03*
%TD*%
D23*
%TO.C,TP2*%
X115619340Y-100054000D03*
%TD*%
D19*
%TO.C,C34*%
X113141280Y-82002200D03*
X113781280Y-82002200D03*
%TD*%
D23*
%TO.C,TP8*%
X116619340Y-98054000D03*
%TD*%
D16*
%TO.C,R21*%
X123800000Y-86092620D03*
X123800000Y-86732620D03*
%TD*%
D19*
%TO.C,C39*%
X113141280Y-92061200D03*
X113781280Y-92061200D03*
%TD*%
D16*
%TO.C,C41*%
X113813300Y-96030000D03*
X113813300Y-96670000D03*
%TD*%
D20*
%TO.C,GND1*%
X124315000Y-81188000D03*
%TD*%
D16*
%TO.C,R18*%
X123800000Y-89259040D03*
X123800000Y-89899040D03*
%TD*%
D27*
%TO.C,S3*%
X121190620Y-104501560D03*
X121190620Y-103866560D03*
X121190620Y-103231560D03*
X121190620Y-102596560D03*
X121190620Y-101961560D03*
X121190620Y-101326560D03*
X121190620Y-100691560D03*
X121190620Y-100056560D03*
X121190620Y-99421560D03*
X121190620Y-98786560D03*
X121190620Y-98151560D03*
X121190620Y-97516560D03*
X121190620Y-96881560D03*
X121190620Y-96246560D03*
X121190620Y-95611560D03*
X121190620Y-94976560D03*
X121190620Y-94341560D03*
X121190620Y-93706560D03*
X120250820Y-104501560D03*
X120250820Y-103866560D03*
X120250820Y-103231560D03*
X120250820Y-102596560D03*
X120250820Y-101961560D03*
X120250820Y-101326560D03*
X120250820Y-100691560D03*
X120250820Y-100056560D03*
X120250820Y-99421560D03*
X120250820Y-98786560D03*
X120250820Y-98151560D03*
X120250820Y-97516560D03*
X120250820Y-96881560D03*
X120250820Y-96246560D03*
X120250820Y-95611560D03*
X120250820Y-94976560D03*
X120250820Y-94341560D03*
X120250820Y-93706560D03*
%TD*%
D15*
%TO.C,C4*%
X123800000Y-83820000D03*
X123800000Y-83180000D03*
%TD*%
D24*
%TO.C,U3*%
X111250000Y-87362500D03*
X110750000Y-87362500D03*
X110250000Y-87362500D03*
X109750000Y-87362500D03*
X109250000Y-87362500D03*
X108750000Y-87362500D03*
D25*
X108062500Y-88050000D03*
X108062500Y-88550000D03*
X108062500Y-89050000D03*
X108062500Y-89550000D03*
X108062500Y-90050000D03*
X108062500Y-90550000D03*
D24*
X108750000Y-91237500D03*
X109250000Y-91237500D03*
X109750000Y-91237500D03*
X110250000Y-91237500D03*
X110750000Y-91237500D03*
X111250000Y-91237500D03*
D25*
X111937500Y-90550000D03*
X111937500Y-90050000D03*
X111937500Y-89550000D03*
X111937500Y-89050000D03*
X111937500Y-88550000D03*
X111937500Y-88050000D03*
D26*
X110000000Y-89300000D03*
%TD*%
D28*
%TO.C,C6*%
X121875960Y-82299680D03*
X121235960Y-82299680D03*
%TD*%
D23*
%TO.C,TP5*%
X112998060Y-104300000D03*
%TD*%
%TO.C,TP7*%
X115619340Y-94012440D03*
%TD*%
%TO.C,TP3*%
X115619340Y-101054000D03*
%TD*%
D24*
%TO.C,U4*%
X111250000Y-82012500D03*
X110750000Y-82012500D03*
X110250000Y-82012500D03*
X109750000Y-82012500D03*
X109250000Y-82012500D03*
X108750000Y-82012500D03*
D25*
X108062500Y-82700000D03*
X108062500Y-83200000D03*
X108062500Y-83700000D03*
X108062500Y-84200000D03*
X108062500Y-84700000D03*
X108062500Y-85200000D03*
D24*
X108750000Y-85887500D03*
X109250000Y-85887500D03*
X109750000Y-85887500D03*
X110250000Y-85887500D03*
X110750000Y-85887500D03*
X111250000Y-85887500D03*
D25*
X111937500Y-85200000D03*
X111937500Y-84700000D03*
X111937500Y-84200000D03*
X111937500Y-83700000D03*
X111937500Y-83200000D03*
X111937500Y-82700000D03*
D26*
X110000000Y-83950000D03*
%TD*%
D24*
%TO.C,U1*%
X111250000Y-98062500D03*
X110750000Y-98062500D03*
X110250000Y-98062500D03*
X109750000Y-98062500D03*
X109250000Y-98062500D03*
X108750000Y-98062500D03*
D25*
X108062500Y-98750000D03*
X108062500Y-99250000D03*
X108062500Y-99750000D03*
X108062500Y-100250000D03*
X108062500Y-100750000D03*
X108062500Y-101250000D03*
D24*
X108750000Y-101937500D03*
X109250000Y-101937500D03*
X109750000Y-101937500D03*
X110250000Y-101937500D03*
X110750000Y-101937500D03*
X111250000Y-101937500D03*
D25*
X111937500Y-101250000D03*
X111937500Y-100750000D03*
X111937500Y-100250000D03*
X111937500Y-99750000D03*
X111937500Y-99250000D03*
X111937500Y-98750000D03*
D26*
X110000000Y-100000000D03*
%TD*%
D19*
%TO.C,C37*%
X113141280Y-81298680D03*
X113781280Y-81298680D03*
%TD*%
%TO.C,C32*%
X113141280Y-92780200D03*
X113781280Y-92780200D03*
%TD*%
D14*
%TO.C,C13*%
X117212860Y-102640840D03*
X117212860Y-103600840D03*
%TD*%
D19*
%TO.C,C38*%
X113141280Y-87415600D03*
X113781280Y-87415600D03*
%TD*%
D16*
%TO.C,C5*%
X123600083Y-90820380D03*
X123600083Y-91460380D03*
%TD*%
%TO.C,C43*%
X113815960Y-85330000D03*
X113815960Y-85970000D03*
%TD*%
D15*
%TO.C,R7*%
X113111280Y-91320000D03*
X113111280Y-90680000D03*
%TD*%
D23*
%TO.C,TP6*%
X115619340Y-95000000D03*
%TD*%
%LPD*%
M02*
