%TF.GenerationSoftware,KiCad,Pcbnew,8.0.5*%
%TF.CreationDate,2025-10-23T09:57:48-05:00*%
%TF.ProjectId,iris-128s,69726973-2d31-4323-9873-2e6b69636164,1*%
%TF.SameCoordinates,Original*%
%TF.FileFunction,Drillmap*%
%TF.FilePolarity,Positive*%
%FSLAX45Y45*%
G04 Gerber Fmt 4.5, Leading zero omitted, Abs format (unit mm)*
G04 Created by KiCad (PCBNEW 8.0.5) date 2025-10-23 09:57:48*
%MOMM*%
%LPD*%
G01*
G04 APERTURE LIST*
%ADD10C,0.050000*%
%ADD11C,0.200000*%
%ADD12C,0.145000*%
G04 APERTURE END LIST*
D10*
X9550000Y-10400000D02*
X9550000Y-8000000D01*
X10990000Y-10360000D02*
X11030000Y-10400000D01*
X11000000Y-8035000D02*
X11030000Y-8000000D01*
X12570000Y-8000000D02*
X12570000Y-9230000D01*
X10790000Y-10400000D02*
X10830000Y-10360000D01*
X10895000Y-8070000D02*
X10930000Y-8070000D01*
X9550000Y-8000000D02*
X10790000Y-8000000D01*
X10830000Y-10360000D02*
X10870000Y-10340000D01*
X10790000Y-10400000D02*
X9550000Y-10400000D01*
X11030000Y-10400000D02*
X11050000Y-10450000D01*
X12100000Y-10550000D02*
X11120000Y-10550000D01*
X10790000Y-8000000D02*
X10825000Y-8040000D01*
X11050000Y-10450000D02*
X11050000Y-10480000D01*
X10950000Y-10340250D02*
X10990000Y-10360000D01*
X10970000Y-8055000D02*
X11000000Y-8035000D01*
X12500000Y-9300000D02*
X12500000Y-10550000D01*
X10910000Y-10330000D02*
X10950000Y-10340250D01*
X10930000Y-8070000D02*
X10970000Y-8055000D01*
X10825000Y-8040000D02*
X10860000Y-8060000D01*
X12570000Y-9230000D02*
X12500000Y-9300000D01*
X11120000Y-10550000D02*
X11050000Y-10480000D01*
X10870000Y-10340000D02*
X10910000Y-10330000D01*
X12500000Y-10550000D02*
X12100000Y-10550000D01*
X10860000Y-8060000D02*
X10895000Y-8070000D01*
X11030000Y-8000000D02*
X12570000Y-8000000D01*
D11*
D12*
X10027198Y-8199840D02*
X10172198Y-8344840D01*
X10172198Y-8199840D02*
X10027198Y-8344840D01*
X10252198Y-10055840D02*
X10397198Y-10200840D01*
X10397198Y-10055840D02*
X10252198Y-10200840D01*
D11*
X9808277Y-10863984D02*
X9808277Y-10663984D01*
X9808277Y-10663984D02*
X9855896Y-10663984D01*
X9855896Y-10663984D02*
X9884467Y-10673508D01*
X9884467Y-10673508D02*
X9903515Y-10692555D01*
X9903515Y-10692555D02*
X9913039Y-10711603D01*
X9913039Y-10711603D02*
X9922563Y-10749698D01*
X9922563Y-10749698D02*
X9922563Y-10778270D01*
X9922563Y-10778270D02*
X9913039Y-10816365D01*
X9913039Y-10816365D02*
X9903515Y-10835412D01*
X9903515Y-10835412D02*
X9884467Y-10854460D01*
X9884467Y-10854460D02*
X9855896Y-10863984D01*
X9855896Y-10863984D02*
X9808277Y-10863984D01*
X10008277Y-10863984D02*
X10008277Y-10730650D01*
X10008277Y-10768746D02*
X10017801Y-10749698D01*
X10017801Y-10749698D02*
X10027324Y-10740174D01*
X10027324Y-10740174D02*
X10046372Y-10730650D01*
X10046372Y-10730650D02*
X10065420Y-10730650D01*
X10132086Y-10863984D02*
X10132086Y-10730650D01*
X10132086Y-10663984D02*
X10122563Y-10673508D01*
X10122563Y-10673508D02*
X10132086Y-10683031D01*
X10132086Y-10683031D02*
X10141610Y-10673508D01*
X10141610Y-10673508D02*
X10132086Y-10663984D01*
X10132086Y-10663984D02*
X10132086Y-10683031D01*
X10255896Y-10863984D02*
X10236848Y-10854460D01*
X10236848Y-10854460D02*
X10227324Y-10835412D01*
X10227324Y-10835412D02*
X10227324Y-10663984D01*
X10360658Y-10863984D02*
X10341610Y-10854460D01*
X10341610Y-10854460D02*
X10332086Y-10835412D01*
X10332086Y-10835412D02*
X10332086Y-10663984D01*
X10589229Y-10863984D02*
X10589229Y-10663984D01*
X10589229Y-10663984D02*
X10655896Y-10806841D01*
X10655896Y-10806841D02*
X10722563Y-10663984D01*
X10722563Y-10663984D02*
X10722563Y-10863984D01*
X10903515Y-10863984D02*
X10903515Y-10759222D01*
X10903515Y-10759222D02*
X10893991Y-10740174D01*
X10893991Y-10740174D02*
X10874944Y-10730650D01*
X10874944Y-10730650D02*
X10836848Y-10730650D01*
X10836848Y-10730650D02*
X10817801Y-10740174D01*
X10903515Y-10854460D02*
X10884467Y-10863984D01*
X10884467Y-10863984D02*
X10836848Y-10863984D01*
X10836848Y-10863984D02*
X10817801Y-10854460D01*
X10817801Y-10854460D02*
X10808277Y-10835412D01*
X10808277Y-10835412D02*
X10808277Y-10816365D01*
X10808277Y-10816365D02*
X10817801Y-10797317D01*
X10817801Y-10797317D02*
X10836848Y-10787793D01*
X10836848Y-10787793D02*
X10884467Y-10787793D01*
X10884467Y-10787793D02*
X10903515Y-10778270D01*
X10998753Y-10730650D02*
X10998753Y-10930650D01*
X10998753Y-10740174D02*
X11017801Y-10730650D01*
X11017801Y-10730650D02*
X11055896Y-10730650D01*
X11055896Y-10730650D02*
X11074944Y-10740174D01*
X11074944Y-10740174D02*
X11084467Y-10749698D01*
X11084467Y-10749698D02*
X11093991Y-10768746D01*
X11093991Y-10768746D02*
X11093991Y-10825889D01*
X11093991Y-10825889D02*
X11084467Y-10844936D01*
X11084467Y-10844936D02*
X11074944Y-10854460D01*
X11074944Y-10854460D02*
X11055896Y-10863984D01*
X11055896Y-10863984D02*
X11017801Y-10863984D01*
X11017801Y-10863984D02*
X10998753Y-10854460D01*
X11179705Y-10844936D02*
X11189229Y-10854460D01*
X11189229Y-10854460D02*
X11179705Y-10863984D01*
X11179705Y-10863984D02*
X11170182Y-10854460D01*
X11170182Y-10854460D02*
X11179705Y-10844936D01*
X11179705Y-10844936D02*
X11179705Y-10863984D01*
X11179705Y-10740174D02*
X11189229Y-10749698D01*
X11189229Y-10749698D02*
X11179705Y-10759222D01*
X11179705Y-10759222D02*
X11170182Y-10749698D01*
X11170182Y-10749698D02*
X11179705Y-10740174D01*
X11179705Y-10740174D02*
X11179705Y-10759222D01*
D12*
X9402500Y-11120000D02*
X9547500Y-11265000D01*
X9547500Y-11120000D02*
X9402500Y-11265000D01*
D11*
X9913039Y-11283984D02*
X9798753Y-11283984D01*
X9855896Y-11283984D02*
X9855896Y-11083984D01*
X9855896Y-11083984D02*
X9836848Y-11112555D01*
X9836848Y-11112555D02*
X9817801Y-11131603D01*
X9817801Y-11131603D02*
X9798753Y-11141127D01*
X9998753Y-11264936D02*
X10008277Y-11274460D01*
X10008277Y-11274460D02*
X9998753Y-11283984D01*
X9998753Y-11283984D02*
X9989229Y-11274460D01*
X9989229Y-11274460D02*
X9998753Y-11264936D01*
X9998753Y-11264936D02*
X9998753Y-11283984D01*
X10179705Y-11150650D02*
X10179705Y-11283984D01*
X10132086Y-11074460D02*
X10084467Y-11217317D01*
X10084467Y-11217317D02*
X10208277Y-11217317D01*
X10379705Y-11083984D02*
X10284467Y-11083984D01*
X10284467Y-11083984D02*
X10274944Y-11179222D01*
X10274944Y-11179222D02*
X10284467Y-11169698D01*
X10284467Y-11169698D02*
X10303515Y-11160174D01*
X10303515Y-11160174D02*
X10351134Y-11160174D01*
X10351134Y-11160174D02*
X10370182Y-11169698D01*
X10370182Y-11169698D02*
X10379705Y-11179222D01*
X10379705Y-11179222D02*
X10389229Y-11198269D01*
X10389229Y-11198269D02*
X10389229Y-11245888D01*
X10389229Y-11245888D02*
X10379705Y-11264936D01*
X10379705Y-11264936D02*
X10370182Y-11274460D01*
X10370182Y-11274460D02*
X10351134Y-11283984D01*
X10351134Y-11283984D02*
X10303515Y-11283984D01*
X10303515Y-11283984D02*
X10284467Y-11274460D01*
X10284467Y-11274460D02*
X10274944Y-11264936D01*
X10513039Y-11083984D02*
X10532086Y-11083984D01*
X10532086Y-11083984D02*
X10551134Y-11093508D01*
X10551134Y-11093508D02*
X10560658Y-11103031D01*
X10560658Y-11103031D02*
X10570182Y-11122079D01*
X10570182Y-11122079D02*
X10579705Y-11160174D01*
X10579705Y-11160174D02*
X10579705Y-11207793D01*
X10579705Y-11207793D02*
X10570182Y-11245888D01*
X10570182Y-11245888D02*
X10560658Y-11264936D01*
X10560658Y-11264936D02*
X10551134Y-11274460D01*
X10551134Y-11274460D02*
X10532086Y-11283984D01*
X10532086Y-11283984D02*
X10513039Y-11283984D01*
X10513039Y-11283984D02*
X10493991Y-11274460D01*
X10493991Y-11274460D02*
X10484467Y-11264936D01*
X10484467Y-11264936D02*
X10474944Y-11245888D01*
X10474944Y-11245888D02*
X10465420Y-11207793D01*
X10465420Y-11207793D02*
X10465420Y-11160174D01*
X10465420Y-11160174D02*
X10474944Y-11122079D01*
X10474944Y-11122079D02*
X10484467Y-11103031D01*
X10484467Y-11103031D02*
X10493991Y-11093508D01*
X10493991Y-11093508D02*
X10513039Y-11083984D01*
X10665420Y-11283984D02*
X10665420Y-11150650D01*
X10665420Y-11169698D02*
X10674944Y-11160174D01*
X10674944Y-11160174D02*
X10693991Y-11150650D01*
X10693991Y-11150650D02*
X10722563Y-11150650D01*
X10722563Y-11150650D02*
X10741610Y-11160174D01*
X10741610Y-11160174D02*
X10751134Y-11179222D01*
X10751134Y-11179222D02*
X10751134Y-11283984D01*
X10751134Y-11179222D02*
X10760658Y-11160174D01*
X10760658Y-11160174D02*
X10779705Y-11150650D01*
X10779705Y-11150650D02*
X10808277Y-11150650D01*
X10808277Y-11150650D02*
X10827325Y-11160174D01*
X10827325Y-11160174D02*
X10836848Y-11179222D01*
X10836848Y-11179222D02*
X10836848Y-11283984D01*
X10932086Y-11283984D02*
X10932086Y-11150650D01*
X10932086Y-11169698D02*
X10941610Y-11160174D01*
X10941610Y-11160174D02*
X10960658Y-11150650D01*
X10960658Y-11150650D02*
X10989229Y-11150650D01*
X10989229Y-11150650D02*
X11008277Y-11160174D01*
X11008277Y-11160174D02*
X11017801Y-11179222D01*
X11017801Y-11179222D02*
X11017801Y-11283984D01*
X11017801Y-11179222D02*
X11027325Y-11160174D01*
X11027325Y-11160174D02*
X11046372Y-11150650D01*
X11046372Y-11150650D02*
X11074944Y-11150650D01*
X11074944Y-11150650D02*
X11093991Y-11160174D01*
X11093991Y-11160174D02*
X11103515Y-11179222D01*
X11103515Y-11179222D02*
X11103515Y-11283984D01*
X11493991Y-11074460D02*
X11322563Y-11331603D01*
X11751134Y-11083984D02*
X11770182Y-11083984D01*
X11770182Y-11083984D02*
X11789229Y-11093508D01*
X11789229Y-11093508D02*
X11798753Y-11103031D01*
X11798753Y-11103031D02*
X11808277Y-11122079D01*
X11808277Y-11122079D02*
X11817801Y-11160174D01*
X11817801Y-11160174D02*
X11817801Y-11207793D01*
X11817801Y-11207793D02*
X11808277Y-11245888D01*
X11808277Y-11245888D02*
X11798753Y-11264936D01*
X11798753Y-11264936D02*
X11789229Y-11274460D01*
X11789229Y-11274460D02*
X11770182Y-11283984D01*
X11770182Y-11283984D02*
X11751134Y-11283984D01*
X11751134Y-11283984D02*
X11732086Y-11274460D01*
X11732086Y-11274460D02*
X11722563Y-11264936D01*
X11722563Y-11264936D02*
X11713039Y-11245888D01*
X11713039Y-11245888D02*
X11703515Y-11207793D01*
X11703515Y-11207793D02*
X11703515Y-11160174D01*
X11703515Y-11160174D02*
X11713039Y-11122079D01*
X11713039Y-11122079D02*
X11722563Y-11103031D01*
X11722563Y-11103031D02*
X11732086Y-11093508D01*
X11732086Y-11093508D02*
X11751134Y-11083984D01*
X11903515Y-11264936D02*
X11913039Y-11274460D01*
X11913039Y-11274460D02*
X11903515Y-11283984D01*
X11903515Y-11283984D02*
X11893991Y-11274460D01*
X11893991Y-11274460D02*
X11903515Y-11264936D01*
X11903515Y-11264936D02*
X11903515Y-11283984D01*
X12036848Y-11083984D02*
X12055896Y-11083984D01*
X12055896Y-11083984D02*
X12074944Y-11093508D01*
X12074944Y-11093508D02*
X12084467Y-11103031D01*
X12084467Y-11103031D02*
X12093991Y-11122079D01*
X12093991Y-11122079D02*
X12103515Y-11160174D01*
X12103515Y-11160174D02*
X12103515Y-11207793D01*
X12103515Y-11207793D02*
X12093991Y-11245888D01*
X12093991Y-11245888D02*
X12084467Y-11264936D01*
X12084467Y-11264936D02*
X12074944Y-11274460D01*
X12074944Y-11274460D02*
X12055896Y-11283984D01*
X12055896Y-11283984D02*
X12036848Y-11283984D01*
X12036848Y-11283984D02*
X12017801Y-11274460D01*
X12017801Y-11274460D02*
X12008277Y-11264936D01*
X12008277Y-11264936D02*
X11998753Y-11245888D01*
X11998753Y-11245888D02*
X11989229Y-11207793D01*
X11989229Y-11207793D02*
X11989229Y-11160174D01*
X11989229Y-11160174D02*
X11998753Y-11122079D01*
X11998753Y-11122079D02*
X12008277Y-11103031D01*
X12008277Y-11103031D02*
X12017801Y-11093508D01*
X12017801Y-11093508D02*
X12036848Y-11083984D01*
X12284467Y-11083984D02*
X12189229Y-11083984D01*
X12189229Y-11083984D02*
X12179706Y-11179222D01*
X12179706Y-11179222D02*
X12189229Y-11169698D01*
X12189229Y-11169698D02*
X12208277Y-11160174D01*
X12208277Y-11160174D02*
X12255896Y-11160174D01*
X12255896Y-11160174D02*
X12274944Y-11169698D01*
X12274944Y-11169698D02*
X12284467Y-11179222D01*
X12284467Y-11179222D02*
X12293991Y-11198269D01*
X12293991Y-11198269D02*
X12293991Y-11245888D01*
X12293991Y-11245888D02*
X12284467Y-11264936D01*
X12284467Y-11264936D02*
X12274944Y-11274460D01*
X12274944Y-11274460D02*
X12255896Y-11283984D01*
X12255896Y-11283984D02*
X12208277Y-11283984D01*
X12208277Y-11283984D02*
X12189229Y-11274460D01*
X12189229Y-11274460D02*
X12179706Y-11264936D01*
X12360658Y-11083984D02*
X12493991Y-11083984D01*
X12493991Y-11083984D02*
X12408277Y-11283984D01*
X12674944Y-11283984D02*
X12560658Y-11283984D01*
X12617801Y-11283984D02*
X12617801Y-11083984D01*
X12617801Y-11083984D02*
X12598753Y-11112555D01*
X12598753Y-11112555D02*
X12579706Y-11131603D01*
X12579706Y-11131603D02*
X12560658Y-11141127D01*
X12751134Y-11083984D02*
X12751134Y-11122079D01*
X12827325Y-11083984D02*
X12827325Y-11122079D01*
X13122563Y-11360174D02*
X13113039Y-11350650D01*
X13113039Y-11350650D02*
X13093991Y-11322079D01*
X13093991Y-11322079D02*
X13084468Y-11303031D01*
X13084468Y-11303031D02*
X13074944Y-11274460D01*
X13074944Y-11274460D02*
X13065420Y-11226841D01*
X13065420Y-11226841D02*
X13065420Y-11188746D01*
X13065420Y-11188746D02*
X13074944Y-11141127D01*
X13074944Y-11141127D02*
X13084468Y-11112555D01*
X13084468Y-11112555D02*
X13093991Y-11093508D01*
X13093991Y-11093508D02*
X13113039Y-11064936D01*
X13113039Y-11064936D02*
X13122563Y-11055412D01*
X13189229Y-11103031D02*
X13198753Y-11093508D01*
X13198753Y-11093508D02*
X13217801Y-11083984D01*
X13217801Y-11083984D02*
X13265420Y-11083984D01*
X13265420Y-11083984D02*
X13284468Y-11093508D01*
X13284468Y-11093508D02*
X13293991Y-11103031D01*
X13293991Y-11103031D02*
X13303515Y-11122079D01*
X13303515Y-11122079D02*
X13303515Y-11141127D01*
X13303515Y-11141127D02*
X13293991Y-11169698D01*
X13293991Y-11169698D02*
X13179706Y-11283984D01*
X13179706Y-11283984D02*
X13303515Y-11283984D01*
X13541610Y-11283984D02*
X13541610Y-11083984D01*
X13627325Y-11283984D02*
X13627325Y-11179222D01*
X13627325Y-11179222D02*
X13617801Y-11160174D01*
X13617801Y-11160174D02*
X13598753Y-11150650D01*
X13598753Y-11150650D02*
X13570182Y-11150650D01*
X13570182Y-11150650D02*
X13551134Y-11160174D01*
X13551134Y-11160174D02*
X13541610Y-11169698D01*
X13751134Y-11283984D02*
X13732087Y-11274460D01*
X13732087Y-11274460D02*
X13722563Y-11264936D01*
X13722563Y-11264936D02*
X13713039Y-11245888D01*
X13713039Y-11245888D02*
X13713039Y-11188746D01*
X13713039Y-11188746D02*
X13722563Y-11169698D01*
X13722563Y-11169698D02*
X13732087Y-11160174D01*
X13732087Y-11160174D02*
X13751134Y-11150650D01*
X13751134Y-11150650D02*
X13779706Y-11150650D01*
X13779706Y-11150650D02*
X13798753Y-11160174D01*
X13798753Y-11160174D02*
X13808277Y-11169698D01*
X13808277Y-11169698D02*
X13817801Y-11188746D01*
X13817801Y-11188746D02*
X13817801Y-11245888D01*
X13817801Y-11245888D02*
X13808277Y-11264936D01*
X13808277Y-11264936D02*
X13798753Y-11274460D01*
X13798753Y-11274460D02*
X13779706Y-11283984D01*
X13779706Y-11283984D02*
X13751134Y-11283984D01*
X13932087Y-11283984D02*
X13913039Y-11274460D01*
X13913039Y-11274460D02*
X13903515Y-11255412D01*
X13903515Y-11255412D02*
X13903515Y-11083984D01*
X14084468Y-11274460D02*
X14065420Y-11283984D01*
X14065420Y-11283984D02*
X14027325Y-11283984D01*
X14027325Y-11283984D02*
X14008277Y-11274460D01*
X14008277Y-11274460D02*
X13998753Y-11255412D01*
X13998753Y-11255412D02*
X13998753Y-11179222D01*
X13998753Y-11179222D02*
X14008277Y-11160174D01*
X14008277Y-11160174D02*
X14027325Y-11150650D01*
X14027325Y-11150650D02*
X14065420Y-11150650D01*
X14065420Y-11150650D02*
X14084468Y-11160174D01*
X14084468Y-11160174D02*
X14093991Y-11179222D01*
X14093991Y-11179222D02*
X14093991Y-11198269D01*
X14093991Y-11198269D02*
X13998753Y-11217317D01*
X14170182Y-11274460D02*
X14189230Y-11283984D01*
X14189230Y-11283984D02*
X14227325Y-11283984D01*
X14227325Y-11283984D02*
X14246372Y-11274460D01*
X14246372Y-11274460D02*
X14255896Y-11255412D01*
X14255896Y-11255412D02*
X14255896Y-11245888D01*
X14255896Y-11245888D02*
X14246372Y-11226841D01*
X14246372Y-11226841D02*
X14227325Y-11217317D01*
X14227325Y-11217317D02*
X14198753Y-11217317D01*
X14198753Y-11217317D02*
X14179706Y-11207793D01*
X14179706Y-11207793D02*
X14170182Y-11188746D01*
X14170182Y-11188746D02*
X14170182Y-11179222D01*
X14170182Y-11179222D02*
X14179706Y-11160174D01*
X14179706Y-11160174D02*
X14198753Y-11150650D01*
X14198753Y-11150650D02*
X14227325Y-11150650D01*
X14227325Y-11150650D02*
X14246372Y-11160174D01*
X14322563Y-11360174D02*
X14332087Y-11350650D01*
X14332087Y-11350650D02*
X14351134Y-11322079D01*
X14351134Y-11322079D02*
X14360658Y-11303031D01*
X14360658Y-11303031D02*
X14370182Y-11274460D01*
X14370182Y-11274460D02*
X14379706Y-11226841D01*
X14379706Y-11226841D02*
X14379706Y-11188746D01*
X14379706Y-11188746D02*
X14370182Y-11141127D01*
X14370182Y-11141127D02*
X14360658Y-11112555D01*
X14360658Y-11112555D02*
X14351134Y-11093508D01*
X14351134Y-11093508D02*
X14332087Y-11064936D01*
X14332087Y-11064936D02*
X14322563Y-11055412D01*
X14684468Y-11360174D02*
X14674944Y-11350650D01*
X14674944Y-11350650D02*
X14655896Y-11322079D01*
X14655896Y-11322079D02*
X14646372Y-11303031D01*
X14646372Y-11303031D02*
X14636849Y-11274460D01*
X14636849Y-11274460D02*
X14627325Y-11226841D01*
X14627325Y-11226841D02*
X14627325Y-11188746D01*
X14627325Y-11188746D02*
X14636849Y-11141127D01*
X14636849Y-11141127D02*
X14646372Y-11112555D01*
X14646372Y-11112555D02*
X14655896Y-11093508D01*
X14655896Y-11093508D02*
X14674944Y-11064936D01*
X14674944Y-11064936D02*
X14684468Y-11055412D01*
X14760658Y-11150650D02*
X14760658Y-11283984D01*
X14760658Y-11169698D02*
X14770182Y-11160174D01*
X14770182Y-11160174D02*
X14789230Y-11150650D01*
X14789230Y-11150650D02*
X14817801Y-11150650D01*
X14817801Y-11150650D02*
X14836849Y-11160174D01*
X14836849Y-11160174D02*
X14846372Y-11179222D01*
X14846372Y-11179222D02*
X14846372Y-11283984D01*
X14970182Y-11283984D02*
X14951134Y-11274460D01*
X14951134Y-11274460D02*
X14941611Y-11264936D01*
X14941611Y-11264936D02*
X14932087Y-11245888D01*
X14932087Y-11245888D02*
X14932087Y-11188746D01*
X14932087Y-11188746D02*
X14941611Y-11169698D01*
X14941611Y-11169698D02*
X14951134Y-11160174D01*
X14951134Y-11160174D02*
X14970182Y-11150650D01*
X14970182Y-11150650D02*
X14998753Y-11150650D01*
X14998753Y-11150650D02*
X15017801Y-11160174D01*
X15017801Y-11160174D02*
X15027325Y-11169698D01*
X15027325Y-11169698D02*
X15036849Y-11188746D01*
X15036849Y-11188746D02*
X15036849Y-11245888D01*
X15036849Y-11245888D02*
X15027325Y-11264936D01*
X15027325Y-11264936D02*
X15017801Y-11274460D01*
X15017801Y-11274460D02*
X14998753Y-11283984D01*
X14998753Y-11283984D02*
X14970182Y-11283984D01*
X15093992Y-11150650D02*
X15170182Y-11150650D01*
X15122563Y-11083984D02*
X15122563Y-11255412D01*
X15122563Y-11255412D02*
X15132087Y-11274460D01*
X15132087Y-11274460D02*
X15151134Y-11283984D01*
X15151134Y-11283984D02*
X15170182Y-11283984D01*
X15389230Y-11150650D02*
X15389230Y-11350650D01*
X15389230Y-11160174D02*
X15408277Y-11150650D01*
X15408277Y-11150650D02*
X15446373Y-11150650D01*
X15446373Y-11150650D02*
X15465420Y-11160174D01*
X15465420Y-11160174D02*
X15474944Y-11169698D01*
X15474944Y-11169698D02*
X15484468Y-11188746D01*
X15484468Y-11188746D02*
X15484468Y-11245888D01*
X15484468Y-11245888D02*
X15474944Y-11264936D01*
X15474944Y-11264936D02*
X15465420Y-11274460D01*
X15465420Y-11274460D02*
X15446373Y-11283984D01*
X15446373Y-11283984D02*
X15408277Y-11283984D01*
X15408277Y-11283984D02*
X15389230Y-11274460D01*
X15598753Y-11283984D02*
X15579706Y-11274460D01*
X15579706Y-11274460D02*
X15570182Y-11255412D01*
X15570182Y-11255412D02*
X15570182Y-11083984D01*
X15760658Y-11283984D02*
X15760658Y-11179222D01*
X15760658Y-11179222D02*
X15751134Y-11160174D01*
X15751134Y-11160174D02*
X15732087Y-11150650D01*
X15732087Y-11150650D02*
X15693992Y-11150650D01*
X15693992Y-11150650D02*
X15674944Y-11160174D01*
X15760658Y-11274460D02*
X15741611Y-11283984D01*
X15741611Y-11283984D02*
X15693992Y-11283984D01*
X15693992Y-11283984D02*
X15674944Y-11274460D01*
X15674944Y-11274460D02*
X15665420Y-11255412D01*
X15665420Y-11255412D02*
X15665420Y-11236365D01*
X15665420Y-11236365D02*
X15674944Y-11217317D01*
X15674944Y-11217317D02*
X15693992Y-11207793D01*
X15693992Y-11207793D02*
X15741611Y-11207793D01*
X15741611Y-11207793D02*
X15760658Y-11198269D01*
X15827325Y-11150650D02*
X15903515Y-11150650D01*
X15855896Y-11083984D02*
X15855896Y-11255412D01*
X15855896Y-11255412D02*
X15865420Y-11274460D01*
X15865420Y-11274460D02*
X15884468Y-11283984D01*
X15884468Y-11283984D02*
X15903515Y-11283984D01*
X16046373Y-11274460D02*
X16027325Y-11283984D01*
X16027325Y-11283984D02*
X15989230Y-11283984D01*
X15989230Y-11283984D02*
X15970182Y-11274460D01*
X15970182Y-11274460D02*
X15960658Y-11255412D01*
X15960658Y-11255412D02*
X15960658Y-11179222D01*
X15960658Y-11179222D02*
X15970182Y-11160174D01*
X15970182Y-11160174D02*
X15989230Y-11150650D01*
X15989230Y-11150650D02*
X16027325Y-11150650D01*
X16027325Y-11150650D02*
X16046373Y-11160174D01*
X16046373Y-11160174D02*
X16055896Y-11179222D01*
X16055896Y-11179222D02*
X16055896Y-11198269D01*
X16055896Y-11198269D02*
X15960658Y-11217317D01*
X16227325Y-11283984D02*
X16227325Y-11083984D01*
X16227325Y-11274460D02*
X16208277Y-11283984D01*
X16208277Y-11283984D02*
X16170182Y-11283984D01*
X16170182Y-11283984D02*
X16151134Y-11274460D01*
X16151134Y-11274460D02*
X16141611Y-11264936D01*
X16141611Y-11264936D02*
X16132087Y-11245888D01*
X16132087Y-11245888D02*
X16132087Y-11188746D01*
X16132087Y-11188746D02*
X16141611Y-11169698D01*
X16141611Y-11169698D02*
X16151134Y-11160174D01*
X16151134Y-11160174D02*
X16170182Y-11150650D01*
X16170182Y-11150650D02*
X16208277Y-11150650D01*
X16208277Y-11150650D02*
X16227325Y-11160174D01*
X16303515Y-11360174D02*
X16313039Y-11350650D01*
X16313039Y-11350650D02*
X16332087Y-11322079D01*
X16332087Y-11322079D02*
X16341611Y-11303031D01*
X16341611Y-11303031D02*
X16351134Y-11274460D01*
X16351134Y-11274460D02*
X16360658Y-11226841D01*
X16360658Y-11226841D02*
X16360658Y-11188746D01*
X16360658Y-11188746D02*
X16351134Y-11141127D01*
X16351134Y-11141127D02*
X16341611Y-11112555D01*
X16341611Y-11112555D02*
X16332087Y-11093508D01*
X16332087Y-11093508D02*
X16313039Y-11064936D01*
X16313039Y-11064936D02*
X16303515Y-11055412D01*
M02*
