M48
; DRILL file {KiCad 8.0.5} date 2025-10-23T09:57:43-0500
; FORMAT={-:-/ absolute / metric / decimal}
; #@! TF.CreationDate,2025-10-23T09:57:43-05:00
; #@! TF.GenerationSoftware,Kicad,Pcbnew,8.0.5
; #@! TF.FileFunction,Plated,4,5,Buried
FMAT,2
METRIC
; #@! TA.AperFunction,Plated,Buried,ViaDrill
T1C0.152
%
G90
G05
T1
X97.488Y-90.925
X97.488Y-91.725
X97.488Y-92.525
X97.488Y-93.325
X97.488Y-94.125
X97.488Y-94.925
X97.488Y-95.725
X97.488Y-96.525
X97.488Y-97.325
X97.488Y-98.125
X98.044Y-83.085
X98.47Y-90.087
X98.47Y-90.887
X98.47Y-91.687
X98.47Y-92.487
X98.47Y-93.287
X98.47Y-94.087
X98.47Y-94.887
X98.47Y-95.687
X98.47Y-96.487
X98.47Y-97.287
X98.47Y-98.087
X99.412Y-88.627
X99.488Y-89.325
X99.488Y-90.125
X99.488Y-90.925
X99.488Y-91.725
X99.488Y-92.525
X99.488Y-93.325
X99.488Y-94.125
X99.488Y-94.925
X99.488Y-95.725
X99.488Y-96.525
X99.488Y-97.325
X99.488Y-98.125
X100.47Y-90.887
X100.47Y-91.687
X100.47Y-92.487
X100.47Y-93.287
X100.47Y-94.087
X100.47Y-94.887
X100.47Y-95.687
X100.47Y-96.487
X100.47Y-97.287
X100.47Y-98.087
X101.318Y-100.951
X101.488Y-90.925
X101.488Y-91.725
X101.488Y-92.525
X101.488Y-93.325
X101.488Y-94.125
X101.488Y-94.925
X101.488Y-95.725
X101.488Y-96.525
X101.488Y-97.325
X101.488Y-98.125
X102.47Y-90.887
X102.47Y-91.687
X102.47Y-92.487
X102.47Y-93.287
X102.47Y-94.087
X102.47Y-94.887
X102.47Y-95.687
X102.47Y-96.487
X102.47Y-97.287
X102.47Y-98.087
X103.488Y-92.525
X103.488Y-93.325
X103.488Y-94.125
X103.488Y-94.925
X103.488Y-95.725
X103.488Y-96.525
X103.488Y-97.325
X103.488Y-98.125
X104.688Y-92.525
X104.688Y-93.325
X104.688Y-94.125
X104.688Y-94.925
X104.688Y-95.725
X104.688Y-96.525
X104.688Y-97.325
X104.688Y-98.125
X107.701Y-96.9
X107.701Y-97.757
X107.701Y-92.408
X108.529Y-102.583
X109.519Y-97.234
X109.519Y-102.583
X109.951Y-97.478
X109.961Y-92.127
X115.468Y-96.716
X115.468Y-97.216
X115.468Y-97.716
X115.468Y-98.216
X115.468Y-98.716
X115.468Y-99.216
X115.468Y-99.716
X115.468Y-100.216
X115.468Y-100.716
X115.468Y-101.216
X115.468Y-101.716
X116.45Y-102.784
X116.95Y-102.784
X117.45Y-102.784
X117.95Y-102.784
X118.45Y-102.784
X118.699Y-88.821
X118.899Y-86.301
X118.899Y-88.471
X118.999Y-92.301
X119.001Y-82.499
X119.199Y-88.101
X119.225Y-86.701
X119.449Y-87.751
X119.475Y-87.051
X119.499Y-92.301
X119.501Y-82.499
X119.699Y-87.401
X119.999Y-92.301
X120.001Y-82.499
X120.251Y-101.962
X120.251Y-102.597
X120.499Y-92.301
X120.501Y-82.499
X121.953Y-101.962
X121.953Y-102.597
X122.0Y-92.3
X122.475Y-100.717
X122.475Y-101.217
X122.477Y-98.716
X122.477Y-99.216
X122.477Y-99.716
X122.477Y-100.216
X123.264Y-89.891
X123.266Y-86.401
X123.266Y-86.901
X123.266Y-87.399
X123.266Y-87.901
X123.266Y-89.401
X123.493Y-98.216
X123.495Y-97.717
M30
