M48
; DRILL file {KiCad 8.0.5} date 2025-10-23T09:57:43-0500
; FORMAT={-:-/ absolute / metric / decimal}
; #@! TF.CreationDate,2025-10-23T09:57:43-05:00
; #@! TF.GenerationSoftware,Kicad,Pcbnew,8.0.5
; #@! TF.FileFunction,Plated,1,8,PTH
FMAT,2
METRIC
; #@! TA.AperFunction,Plated,PTH,ViaDrill
T1C0.203
; #@! TA.AperFunction,Plated,PTH,ComponentDrill
T2C0.813
%
G90
G05
T1
X96.2Y-85.0
X96.2Y-86.7
X96.2Y-88.3
X96.2Y-97.8
X96.2Y-99.1
X96.2Y-103.1
X96.3Y-80.9
X97.819Y-99.203
X97.997Y-84.803
X98.0Y-82.0
X98.0Y-102.0
X99.819Y-99.203
X100.0Y-81.9
X100.146Y-84.821
X101.0Y-101.9
X101.845Y-99.203
X102.0Y-81.9
X102.175Y-84.803
X103.997Y-99.203
X104.175Y-84.803
X105.0Y-101.0
X105.7Y-80.9
X105.7Y-103.1
X106.2Y-91.6
X106.2Y-99.1
X106.4Y-101.4
X106.6Y-97.0
X106.615Y-95.341
X106.7Y-81.6
X107.009Y-87.589
X107.8Y-80.8
X110.6Y-80.8
X111.0Y-103.2
X111.328Y-81.128
X111.633Y-86.462
X111.633Y-91.808
X111.633Y-97.155
X111.633Y-102.514
X111.653Y-81.65
X112.039Y-81.2
X112.039Y-86.792
X112.039Y-92.138
X112.039Y-97.485
X112.039Y-101.854
X112.5Y-104.8
X112.634Y-102.362
X112.7Y-84.201
X112.7Y-89.56
X112.7Y-94.894
X112.7Y-100.254
X113.005Y-83.82
X113.005Y-89.179
X113.005Y-94.513
X113.005Y-99.873
X113.386Y-84.201
X113.386Y-89.56
X113.386Y-94.894
X113.386Y-100.254
X113.5Y-80.8
X113.6Y-103.1
X113.67Y-102.276
X113.767Y-98.956
X113.792Y-83.82
X113.792Y-89.281
X113.792Y-94.513
X113.792Y-99.873
X114.193Y-103.601
X114.193Y-104.43
X114.31Y-103.015
X114.4Y-95.3
X114.496Y-94.513
X114.531Y-104.018
X115.004Y-92.121
X116.0Y-80.7
X117.4Y-93.4
X117.749Y-93.904
X117.749Y-94.526
X118.0Y-80.7
X118.146Y-104.287
X118.227Y-93.904
X118.227Y-94.526
X119.1Y-93.4
X119.243Y-104.287
X119.87Y-94.977
X120.612Y-82.067
X120.907Y-92.103
X120.957Y-93.195
X121.435Y-93.195
X121.572Y-104.502
X121.933Y-94.684
X121.966Y-93.622
X121.966Y-94.099
X122.0Y-93.0
X122.08Y-104.502
X122.326Y-81.852
X122.342Y-103.231
X122.375Y-104.069
X122.842Y-96.042
X123.19Y-101.716
X123.446Y-82.802
X123.587Y-91.986
X123.6Y-84.6
X123.904Y-96.723
X123.904Y-97.185
X124.0Y-85.4
X124.0Y-94.0
X124.0Y-96.0
X124.0Y-99.0
X124.0Y-101.0
X124.0Y-103.0
X124.0Y-104.8
X124.041Y-88.783
X124.338Y-86.093
X124.338Y-86.733
X124.4Y-84.5
X124.417Y-82.763
T2
X120.622Y-81.188
X124.315Y-81.188
M30
