%TF.GenerationSoftware,KiCad,Pcbnew,8.0.5*%
%TF.CreationDate,2025-10-24T05:54:48-05:00*%
%TF.ProjectId,iris-128s,69726973-2d31-4323-9873-2e6b69636164,1*%
%TF.SameCoordinates,Original*%
%TF.FileFunction,Legend,Bot*%
%TF.FilePolarity,Positive*%
%FSLAX46Y46*%
G04 Gerber Fmt 4.6, Leading zero omitted, Abs format (unit mm)*
G04 Created by KiCad (PCBNEW 8.0.5) date 2025-10-24 05:54:48*
%MOMM*%
%LPD*%
G01*
G04 APERTURE LIST*
G04 Aperture macros list*
%AMRoundRect*
0 Rectangle with rounded corners*
0 $1 Rounding radius*
0 $2 $3 $4 $5 $6 $7 $8 $9 X,Y pos of 4 corners*
0 Add a 4 corners polygon primitive as box body*
4,1,4,$2,$3,$4,$5,$6,$7,$8,$9,$2,$3,0*
0 Add four circle primitives for the rounded corners*
1,1,$1+$1,$2,$3*
1,1,$1+$1,$4,$5*
1,1,$1+$1,$6,$7*
1,1,$1+$1,$8,$9*
0 Add four rect primitives between the rounded corners*
20,1,$1+$1,$2,$3,$4,$5,0*
20,1,$1+$1,$4,$5,$6,$7,0*
20,1,$1+$1,$6,$7,$8,$9,0*
20,1,$1+$1,$8,$9,$2,$3,0*%
%AMFreePoly0*
4,1,17,0.288426,0.645521,0.645521,0.288426,0.660400,0.252505,0.660400,-0.252505,0.645521,-0.288426,0.288426,-0.645521,0.252505,-0.660400,-0.252505,-0.660400,-0.288426,-0.645521,-0.645521,-0.288426,-0.660400,-0.252505,-0.660400,0.252505,-0.645521,0.288426,-0.288426,0.645521,-0.252505,0.660400,0.252505,0.660400,0.288426,0.645521,0.288426,0.645521,$1*%
G04 Aperture macros list end*
%ADD10C,0.076200*%
%ADD11C,0.127000*%
%ADD12C,0.100000*%
%ADD13C,0.200000*%
%ADD14C,0.000000*%
%ADD15C,1.450000*%
%ADD16FreePoly0,90.000000*%
%ADD17RoundRect,0.100000X0.130000X0.100000X-0.130000X0.100000X-0.130000X-0.100000X0.130000X-0.100000X0*%
%ADD18RoundRect,0.100000X-0.100000X0.130000X-0.100000X-0.130000X0.100000X-0.130000X0.100000X0.130000X0*%
%ADD19RoundRect,0.100000X0.100000X-0.130000X0.100000X0.130000X-0.100000X0.130000X-0.100000X-0.130000X0*%
%ADD20R,0.250000X0.900000*%
%ADD21R,0.900000X0.250000*%
%ADD22R,5.400000X5.400000*%
%ADD23RoundRect,0.062500X0.062500X-0.375000X0.062500X0.375000X-0.062500X0.375000X-0.062500X-0.375000X0*%
%ADD24RoundRect,0.062500X0.375000X-0.062500X0.375000X0.062500X-0.375000X0.062500X-0.375000X-0.062500X0*%
%ADD25R,2.600000X2.600000*%
%ADD26RoundRect,0.100000X-0.130000X-0.100000X0.130000X-0.100000X0.130000X0.100000X-0.130000X0.100000X0*%
%ADD27C,0.351600*%
G04 APERTURE END LIST*
D10*
X101933903Y-103405340D02*
X101953255Y-103424693D01*
X101953255Y-103424693D02*
X102011313Y-103444045D01*
X102011313Y-103444045D02*
X102050017Y-103444045D01*
X102050017Y-103444045D02*
X102108074Y-103424693D01*
X102108074Y-103424693D02*
X102146779Y-103385988D01*
X102146779Y-103385988D02*
X102166132Y-103347283D01*
X102166132Y-103347283D02*
X102185484Y-103269873D01*
X102185484Y-103269873D02*
X102185484Y-103211816D01*
X102185484Y-103211816D02*
X102166132Y-103134407D01*
X102166132Y-103134407D02*
X102146779Y-103095702D01*
X102146779Y-103095702D02*
X102108074Y-103056997D01*
X102108074Y-103056997D02*
X102050017Y-103037645D01*
X102050017Y-103037645D02*
X102011313Y-103037645D01*
X102011313Y-103037645D02*
X101953255Y-103056997D01*
X101953255Y-103056997D02*
X101933903Y-103076350D01*
X101759732Y-103231169D02*
X101624265Y-103231169D01*
X101566208Y-103444045D02*
X101759732Y-103444045D01*
X101759732Y-103444045D02*
X101759732Y-103037645D01*
X101759732Y-103037645D02*
X101566208Y-103037645D01*
X101159808Y-103444045D02*
X101295275Y-103250521D01*
X101392037Y-103444045D02*
X101392037Y-103037645D01*
X101392037Y-103037645D02*
X101237218Y-103037645D01*
X101237218Y-103037645D02*
X101198513Y-103056997D01*
X101198513Y-103056997D02*
X101179160Y-103076350D01*
X101179160Y-103076350D02*
X101159808Y-103115054D01*
X101159808Y-103115054D02*
X101159808Y-103173112D01*
X101159808Y-103173112D02*
X101179160Y-103211816D01*
X101179160Y-103211816D02*
X101198513Y-103231169D01*
X101198513Y-103231169D02*
X101237218Y-103250521D01*
X101237218Y-103250521D02*
X101392037Y-103250521D01*
X100985637Y-103444045D02*
X100985637Y-103037645D01*
X100985637Y-103037645D02*
X100753408Y-103444045D01*
X100753408Y-103444045D02*
X100753408Y-103037645D01*
X100559885Y-103289226D02*
X100250247Y-103289226D01*
X99979313Y-103037645D02*
X99901904Y-103037645D01*
X99901904Y-103037645D02*
X99863199Y-103056997D01*
X99863199Y-103056997D02*
X99824494Y-103095702D01*
X99824494Y-103095702D02*
X99805142Y-103173112D01*
X99805142Y-103173112D02*
X99805142Y-103308578D01*
X99805142Y-103308578D02*
X99824494Y-103385988D01*
X99824494Y-103385988D02*
X99863199Y-103424693D01*
X99863199Y-103424693D02*
X99901904Y-103444045D01*
X99901904Y-103444045D02*
X99979313Y-103444045D01*
X99979313Y-103444045D02*
X100018018Y-103424693D01*
X100018018Y-103424693D02*
X100056723Y-103385988D01*
X100056723Y-103385988D02*
X100076075Y-103308578D01*
X100076075Y-103308578D02*
X100076075Y-103173112D01*
X100076075Y-103173112D02*
X100056723Y-103095702D01*
X100056723Y-103095702D02*
X100018018Y-103056997D01*
X100018018Y-103056997D02*
X99979313Y-103037645D01*
X99630971Y-103444045D02*
X99630971Y-103037645D01*
X99630971Y-103231169D02*
X99398742Y-103231169D01*
X99398742Y-103444045D02*
X99398742Y-103037645D01*
X99011695Y-103444045D02*
X99205219Y-103444045D01*
X99205219Y-103444045D02*
X99205219Y-103037645D01*
X98876229Y-103289226D02*
X98566591Y-103289226D01*
X98373067Y-103444045D02*
X98373067Y-103037645D01*
X98373067Y-103037645D02*
X98218248Y-103037645D01*
X98218248Y-103037645D02*
X98179543Y-103056997D01*
X98179543Y-103056997D02*
X98160190Y-103076350D01*
X98160190Y-103076350D02*
X98140838Y-103115054D01*
X98140838Y-103115054D02*
X98140838Y-103173112D01*
X98140838Y-103173112D02*
X98160190Y-103211816D01*
X98160190Y-103211816D02*
X98179543Y-103231169D01*
X98179543Y-103231169D02*
X98218248Y-103250521D01*
X98218248Y-103250521D02*
X98373067Y-103250521D01*
X97695733Y-103173112D02*
X97598971Y-103444045D01*
X97598971Y-103444045D02*
X97502210Y-103173112D01*
X97366743Y-103076350D02*
X97347391Y-103056997D01*
X97347391Y-103056997D02*
X97308686Y-103037645D01*
X97308686Y-103037645D02*
X97211924Y-103037645D01*
X97211924Y-103037645D02*
X97173219Y-103056997D01*
X97173219Y-103056997D02*
X97153867Y-103076350D01*
X97153867Y-103076350D02*
X97134514Y-103115054D01*
X97134514Y-103115054D02*
X97134514Y-103153759D01*
X97134514Y-103153759D02*
X97153867Y-103211816D01*
X97153867Y-103211816D02*
X97386095Y-103444045D01*
X97386095Y-103444045D02*
X97134514Y-103444045D01*
D11*
X103201333Y-98761416D02*
X103007809Y-98761416D01*
X103007809Y-98761416D02*
X102911047Y-98809797D01*
X102911047Y-98809797D02*
X102814285Y-98906559D01*
X102814285Y-98906559D02*
X102765904Y-99100083D01*
X102765904Y-99100083D02*
X102765904Y-99438750D01*
X102765904Y-99438750D02*
X102814285Y-99632274D01*
X102814285Y-99632274D02*
X102911047Y-99729036D01*
X102911047Y-99729036D02*
X103007809Y-99777416D01*
X103007809Y-99777416D02*
X103201333Y-99777416D01*
X103201333Y-99777416D02*
X103298095Y-99729036D01*
X103298095Y-99729036D02*
X103394857Y-99632274D01*
X103394857Y-99632274D02*
X103443238Y-99438750D01*
X103443238Y-99438750D02*
X103443238Y-99100083D01*
X103443238Y-99100083D02*
X103394857Y-98906559D01*
X103394857Y-98906559D02*
X103298095Y-98809797D01*
X103298095Y-98809797D02*
X103201333Y-98761416D01*
X102330476Y-99100083D02*
X102330476Y-100116083D01*
X102330476Y-99148464D02*
X102233714Y-99100083D01*
X102233714Y-99100083D02*
X102040190Y-99100083D01*
X102040190Y-99100083D02*
X101943428Y-99148464D01*
X101943428Y-99148464D02*
X101895047Y-99196845D01*
X101895047Y-99196845D02*
X101846666Y-99293607D01*
X101846666Y-99293607D02*
X101846666Y-99583893D01*
X101846666Y-99583893D02*
X101895047Y-99680655D01*
X101895047Y-99680655D02*
X101943428Y-99729036D01*
X101943428Y-99729036D02*
X102040190Y-99777416D01*
X102040190Y-99777416D02*
X102233714Y-99777416D01*
X102233714Y-99777416D02*
X102330476Y-99729036D01*
X101024190Y-99729036D02*
X101120952Y-99777416D01*
X101120952Y-99777416D02*
X101314476Y-99777416D01*
X101314476Y-99777416D02*
X101411238Y-99729036D01*
X101411238Y-99729036D02*
X101459619Y-99632274D01*
X101459619Y-99632274D02*
X101459619Y-99245226D01*
X101459619Y-99245226D02*
X101411238Y-99148464D01*
X101411238Y-99148464D02*
X101314476Y-99100083D01*
X101314476Y-99100083D02*
X101120952Y-99100083D01*
X101120952Y-99100083D02*
X101024190Y-99148464D01*
X101024190Y-99148464D02*
X100975809Y-99245226D01*
X100975809Y-99245226D02*
X100975809Y-99341988D01*
X100975809Y-99341988D02*
X101459619Y-99438750D01*
X100540381Y-99100083D02*
X100540381Y-99777416D01*
X100540381Y-99196845D02*
X100492000Y-99148464D01*
X100492000Y-99148464D02*
X100395238Y-99100083D01*
X100395238Y-99100083D02*
X100250095Y-99100083D01*
X100250095Y-99100083D02*
X100153333Y-99148464D01*
X100153333Y-99148464D02*
X100104952Y-99245226D01*
X100104952Y-99245226D02*
X100104952Y-99777416D01*
X99621143Y-99777416D02*
X99621143Y-98761416D01*
X98556761Y-99680655D02*
X98605142Y-99729036D01*
X98605142Y-99729036D02*
X98750285Y-99777416D01*
X98750285Y-99777416D02*
X98847047Y-99777416D01*
X98847047Y-99777416D02*
X98992190Y-99729036D01*
X98992190Y-99729036D02*
X99088952Y-99632274D01*
X99088952Y-99632274D02*
X99137333Y-99535512D01*
X99137333Y-99535512D02*
X99185714Y-99341988D01*
X99185714Y-99341988D02*
X99185714Y-99196845D01*
X99185714Y-99196845D02*
X99137333Y-99003321D01*
X99137333Y-99003321D02*
X99088952Y-98906559D01*
X99088952Y-98906559D02*
X98992190Y-98809797D01*
X98992190Y-98809797D02*
X98847047Y-98761416D01*
X98847047Y-98761416D02*
X98750285Y-98761416D01*
X98750285Y-98761416D02*
X98605142Y-98809797D01*
X98605142Y-98809797D02*
X98556761Y-98858178D01*
D10*
X101993997Y-100938745D02*
X101993997Y-100532345D01*
X101993997Y-100532345D02*
X101897235Y-100532345D01*
X101897235Y-100532345D02*
X101839178Y-100551697D01*
X101839178Y-100551697D02*
X101800473Y-100590402D01*
X101800473Y-100590402D02*
X101781120Y-100629107D01*
X101781120Y-100629107D02*
X101761768Y-100706516D01*
X101761768Y-100706516D02*
X101761768Y-100764573D01*
X101761768Y-100764573D02*
X101781120Y-100841983D01*
X101781120Y-100841983D02*
X101800473Y-100880688D01*
X101800473Y-100880688D02*
X101839178Y-100919393D01*
X101839178Y-100919393D02*
X101897235Y-100938745D01*
X101897235Y-100938745D02*
X101993997Y-100938745D01*
X101432778Y-100919393D02*
X101471482Y-100938745D01*
X101471482Y-100938745D02*
X101548892Y-100938745D01*
X101548892Y-100938745D02*
X101587597Y-100919393D01*
X101587597Y-100919393D02*
X101606949Y-100880688D01*
X101606949Y-100880688D02*
X101606949Y-100725869D01*
X101606949Y-100725869D02*
X101587597Y-100687164D01*
X101587597Y-100687164D02*
X101548892Y-100667812D01*
X101548892Y-100667812D02*
X101471482Y-100667812D01*
X101471482Y-100667812D02*
X101432778Y-100687164D01*
X101432778Y-100687164D02*
X101413425Y-100725869D01*
X101413425Y-100725869D02*
X101413425Y-100764573D01*
X101413425Y-100764573D02*
X101606949Y-100803278D01*
X101258606Y-100919393D02*
X101219901Y-100938745D01*
X101219901Y-100938745D02*
X101142492Y-100938745D01*
X101142492Y-100938745D02*
X101103787Y-100919393D01*
X101103787Y-100919393D02*
X101084435Y-100880688D01*
X101084435Y-100880688D02*
X101084435Y-100861335D01*
X101084435Y-100861335D02*
X101103787Y-100822631D01*
X101103787Y-100822631D02*
X101142492Y-100803278D01*
X101142492Y-100803278D02*
X101200549Y-100803278D01*
X101200549Y-100803278D02*
X101239254Y-100783926D01*
X101239254Y-100783926D02*
X101258606Y-100745221D01*
X101258606Y-100745221D02*
X101258606Y-100725869D01*
X101258606Y-100725869D02*
X101239254Y-100687164D01*
X101239254Y-100687164D02*
X101200549Y-100667812D01*
X101200549Y-100667812D02*
X101142492Y-100667812D01*
X101142492Y-100667812D02*
X101103787Y-100687164D01*
X100910264Y-100938745D02*
X100910264Y-100667812D01*
X100910264Y-100532345D02*
X100929616Y-100551697D01*
X100929616Y-100551697D02*
X100910264Y-100571050D01*
X100910264Y-100571050D02*
X100890911Y-100551697D01*
X100890911Y-100551697D02*
X100910264Y-100532345D01*
X100910264Y-100532345D02*
X100910264Y-100571050D01*
X100542568Y-100667812D02*
X100542568Y-100996802D01*
X100542568Y-100996802D02*
X100561921Y-101035507D01*
X100561921Y-101035507D02*
X100581273Y-101054859D01*
X100581273Y-101054859D02*
X100619978Y-101074212D01*
X100619978Y-101074212D02*
X100678035Y-101074212D01*
X100678035Y-101074212D02*
X100716740Y-101054859D01*
X100542568Y-100919393D02*
X100581273Y-100938745D01*
X100581273Y-100938745D02*
X100658682Y-100938745D01*
X100658682Y-100938745D02*
X100697387Y-100919393D01*
X100697387Y-100919393D02*
X100716740Y-100900040D01*
X100716740Y-100900040D02*
X100736092Y-100861335D01*
X100736092Y-100861335D02*
X100736092Y-100745221D01*
X100736092Y-100745221D02*
X100716740Y-100706516D01*
X100716740Y-100706516D02*
X100697387Y-100687164D01*
X100697387Y-100687164D02*
X100658682Y-100667812D01*
X100658682Y-100667812D02*
X100581273Y-100667812D01*
X100581273Y-100667812D02*
X100542568Y-100687164D01*
X100349045Y-100667812D02*
X100349045Y-100938745D01*
X100349045Y-100706516D02*
X100329692Y-100687164D01*
X100329692Y-100687164D02*
X100290987Y-100667812D01*
X100290987Y-100667812D02*
X100232930Y-100667812D01*
X100232930Y-100667812D02*
X100194226Y-100687164D01*
X100194226Y-100687164D02*
X100174873Y-100725869D01*
X100174873Y-100725869D02*
X100174873Y-100938745D01*
X99826531Y-100919393D02*
X99865235Y-100938745D01*
X99865235Y-100938745D02*
X99942645Y-100938745D01*
X99942645Y-100938745D02*
X99981350Y-100919393D01*
X99981350Y-100919393D02*
X100000702Y-100880688D01*
X100000702Y-100880688D02*
X100000702Y-100725869D01*
X100000702Y-100725869D02*
X99981350Y-100687164D01*
X99981350Y-100687164D02*
X99942645Y-100667812D01*
X99942645Y-100667812D02*
X99865235Y-100667812D01*
X99865235Y-100667812D02*
X99826531Y-100687164D01*
X99826531Y-100687164D02*
X99807178Y-100725869D01*
X99807178Y-100725869D02*
X99807178Y-100764573D01*
X99807178Y-100764573D02*
X100000702Y-100803278D01*
X99458835Y-100938745D02*
X99458835Y-100532345D01*
X99458835Y-100919393D02*
X99497540Y-100938745D01*
X99497540Y-100938745D02*
X99574949Y-100938745D01*
X99574949Y-100938745D02*
X99613654Y-100919393D01*
X99613654Y-100919393D02*
X99633007Y-100900040D01*
X99633007Y-100900040D02*
X99652359Y-100861335D01*
X99652359Y-100861335D02*
X99652359Y-100745221D01*
X99652359Y-100745221D02*
X99633007Y-100706516D01*
X99633007Y-100706516D02*
X99613654Y-100687164D01*
X99613654Y-100687164D02*
X99574949Y-100667812D01*
X99574949Y-100667812D02*
X99497540Y-100667812D01*
X99497540Y-100667812D02*
X99458835Y-100687164D01*
X98955674Y-100938745D02*
X98955674Y-100532345D01*
X98955674Y-100687164D02*
X98916969Y-100667812D01*
X98916969Y-100667812D02*
X98839559Y-100667812D01*
X98839559Y-100667812D02*
X98800855Y-100687164D01*
X98800855Y-100687164D02*
X98781502Y-100706516D01*
X98781502Y-100706516D02*
X98762150Y-100745221D01*
X98762150Y-100745221D02*
X98762150Y-100861335D01*
X98762150Y-100861335D02*
X98781502Y-100900040D01*
X98781502Y-100900040D02*
X98800855Y-100919393D01*
X98800855Y-100919393D02*
X98839559Y-100938745D01*
X98839559Y-100938745D02*
X98916969Y-100938745D01*
X98916969Y-100938745D02*
X98955674Y-100919393D01*
X98626683Y-100667812D02*
X98529921Y-100938745D01*
X98433160Y-100667812D02*
X98529921Y-100938745D01*
X98529921Y-100938745D02*
X98568626Y-101035507D01*
X98568626Y-101035507D02*
X98587979Y-101054859D01*
X98587979Y-101054859D02*
X98626683Y-101074212D01*
X97968703Y-100938745D02*
X97968703Y-100532345D01*
X97968703Y-100532345D02*
X97833236Y-100822631D01*
X97833236Y-100822631D02*
X97697769Y-100532345D01*
X97697769Y-100532345D02*
X97697769Y-100938745D01*
X97504246Y-100938745D02*
X97504246Y-100532345D01*
X97504246Y-100532345D02*
X97368779Y-100822631D01*
X97368779Y-100822631D02*
X97233312Y-100532345D01*
X97233312Y-100532345D02*
X97233312Y-100938745D01*
X99981351Y-101186626D02*
X99981351Y-101476912D01*
X99981351Y-101476912D02*
X100000704Y-101534969D01*
X100000704Y-101534969D02*
X100039408Y-101573674D01*
X100039408Y-101573674D02*
X100097466Y-101593026D01*
X100097466Y-101593026D02*
X100136170Y-101593026D01*
X99613656Y-101322093D02*
X99613656Y-101593026D01*
X99787828Y-101322093D02*
X99787828Y-101534969D01*
X99787828Y-101534969D02*
X99768475Y-101573674D01*
X99768475Y-101573674D02*
X99729770Y-101593026D01*
X99729770Y-101593026D02*
X99671713Y-101593026D01*
X99671713Y-101593026D02*
X99633009Y-101573674D01*
X99633009Y-101573674D02*
X99613656Y-101554321D01*
X99362075Y-101593026D02*
X99400780Y-101573674D01*
X99400780Y-101573674D02*
X99420133Y-101534969D01*
X99420133Y-101534969D02*
X99420133Y-101186626D01*
X99245961Y-101322093D02*
X99149199Y-101593026D01*
X99052438Y-101322093D02*
X99149199Y-101593026D01*
X99149199Y-101593026D02*
X99187904Y-101689788D01*
X99187904Y-101689788D02*
X99207257Y-101709140D01*
X99207257Y-101709140D02*
X99245961Y-101728493D01*
X98607333Y-101225331D02*
X98587981Y-101205978D01*
X98587981Y-101205978D02*
X98549276Y-101186626D01*
X98549276Y-101186626D02*
X98452514Y-101186626D01*
X98452514Y-101186626D02*
X98413809Y-101205978D01*
X98413809Y-101205978D02*
X98394457Y-101225331D01*
X98394457Y-101225331D02*
X98375104Y-101264035D01*
X98375104Y-101264035D02*
X98375104Y-101302740D01*
X98375104Y-101302740D02*
X98394457Y-101360797D01*
X98394457Y-101360797D02*
X98626685Y-101593026D01*
X98626685Y-101593026D02*
X98375104Y-101593026D01*
X98123523Y-101186626D02*
X98084818Y-101186626D01*
X98084818Y-101186626D02*
X98046114Y-101205978D01*
X98046114Y-101205978D02*
X98026761Y-101225331D01*
X98026761Y-101225331D02*
X98007409Y-101264035D01*
X98007409Y-101264035D02*
X97988056Y-101341445D01*
X97988056Y-101341445D02*
X97988056Y-101438207D01*
X97988056Y-101438207D02*
X98007409Y-101515616D01*
X98007409Y-101515616D02*
X98026761Y-101554321D01*
X98026761Y-101554321D02*
X98046114Y-101573674D01*
X98046114Y-101573674D02*
X98084818Y-101593026D01*
X98084818Y-101593026D02*
X98123523Y-101593026D01*
X98123523Y-101593026D02*
X98162228Y-101573674D01*
X98162228Y-101573674D02*
X98181580Y-101554321D01*
X98181580Y-101554321D02*
X98200933Y-101515616D01*
X98200933Y-101515616D02*
X98220285Y-101438207D01*
X98220285Y-101438207D02*
X98220285Y-101341445D01*
X98220285Y-101341445D02*
X98200933Y-101264035D01*
X98200933Y-101264035D02*
X98181580Y-101225331D01*
X98181580Y-101225331D02*
X98162228Y-101205978D01*
X98162228Y-101205978D02*
X98123523Y-101186626D01*
X97833237Y-101225331D02*
X97813885Y-101205978D01*
X97813885Y-101205978D02*
X97775180Y-101186626D01*
X97775180Y-101186626D02*
X97678418Y-101186626D01*
X97678418Y-101186626D02*
X97639713Y-101205978D01*
X97639713Y-101205978D02*
X97620361Y-101225331D01*
X97620361Y-101225331D02*
X97601008Y-101264035D01*
X97601008Y-101264035D02*
X97601008Y-101302740D01*
X97601008Y-101302740D02*
X97620361Y-101360797D01*
X97620361Y-101360797D02*
X97852589Y-101593026D01*
X97852589Y-101593026D02*
X97601008Y-101593026D01*
X97252665Y-101322093D02*
X97252665Y-101593026D01*
X97349427Y-101167274D02*
X97446189Y-101457559D01*
X97446189Y-101457559D02*
X97194608Y-101457559D01*
X100996803Y-102682905D02*
X100996803Y-102276505D01*
X100996803Y-102276505D02*
X100841984Y-102276505D01*
X100841984Y-102276505D02*
X100803279Y-102295857D01*
X100803279Y-102295857D02*
X100783926Y-102315210D01*
X100783926Y-102315210D02*
X100764574Y-102353914D01*
X100764574Y-102353914D02*
X100764574Y-102411972D01*
X100764574Y-102411972D02*
X100783926Y-102450676D01*
X100783926Y-102450676D02*
X100803279Y-102470029D01*
X100803279Y-102470029D02*
X100841984Y-102489381D01*
X100841984Y-102489381D02*
X100996803Y-102489381D01*
X100358174Y-102644200D02*
X100377526Y-102663553D01*
X100377526Y-102663553D02*
X100435584Y-102682905D01*
X100435584Y-102682905D02*
X100474288Y-102682905D01*
X100474288Y-102682905D02*
X100532345Y-102663553D01*
X100532345Y-102663553D02*
X100571050Y-102624848D01*
X100571050Y-102624848D02*
X100590403Y-102586143D01*
X100590403Y-102586143D02*
X100609755Y-102508733D01*
X100609755Y-102508733D02*
X100609755Y-102450676D01*
X100609755Y-102450676D02*
X100590403Y-102373267D01*
X100590403Y-102373267D02*
X100571050Y-102334562D01*
X100571050Y-102334562D02*
X100532345Y-102295857D01*
X100532345Y-102295857D02*
X100474288Y-102276505D01*
X100474288Y-102276505D02*
X100435584Y-102276505D01*
X100435584Y-102276505D02*
X100377526Y-102295857D01*
X100377526Y-102295857D02*
X100358174Y-102315210D01*
X100048536Y-102470029D02*
X99990479Y-102489381D01*
X99990479Y-102489381D02*
X99971126Y-102508733D01*
X99971126Y-102508733D02*
X99951774Y-102547438D01*
X99951774Y-102547438D02*
X99951774Y-102605495D01*
X99951774Y-102605495D02*
X99971126Y-102644200D01*
X99971126Y-102644200D02*
X99990479Y-102663553D01*
X99990479Y-102663553D02*
X100029184Y-102682905D01*
X100029184Y-102682905D02*
X100184003Y-102682905D01*
X100184003Y-102682905D02*
X100184003Y-102276505D01*
X100184003Y-102276505D02*
X100048536Y-102276505D01*
X100048536Y-102276505D02*
X100009831Y-102295857D01*
X100009831Y-102295857D02*
X99990479Y-102315210D01*
X99990479Y-102315210D02*
X99971126Y-102353914D01*
X99971126Y-102353914D02*
X99971126Y-102392619D01*
X99971126Y-102392619D02*
X99990479Y-102431324D01*
X99990479Y-102431324D02*
X100009831Y-102450676D01*
X100009831Y-102450676D02*
X100048536Y-102470029D01*
X100048536Y-102470029D02*
X100184003Y-102470029D01*
X99777603Y-102528086D02*
X99467965Y-102528086D01*
X99197031Y-102276505D02*
X99158326Y-102276505D01*
X99158326Y-102276505D02*
X99119622Y-102295857D01*
X99119622Y-102295857D02*
X99100269Y-102315210D01*
X99100269Y-102315210D02*
X99080917Y-102353914D01*
X99080917Y-102353914D02*
X99061564Y-102431324D01*
X99061564Y-102431324D02*
X99061564Y-102528086D01*
X99061564Y-102528086D02*
X99080917Y-102605495D01*
X99080917Y-102605495D02*
X99100269Y-102644200D01*
X99100269Y-102644200D02*
X99119622Y-102663553D01*
X99119622Y-102663553D02*
X99158326Y-102682905D01*
X99158326Y-102682905D02*
X99197031Y-102682905D01*
X99197031Y-102682905D02*
X99235736Y-102663553D01*
X99235736Y-102663553D02*
X99255088Y-102644200D01*
X99255088Y-102644200D02*
X99274441Y-102605495D01*
X99274441Y-102605495D02*
X99293793Y-102528086D01*
X99293793Y-102528086D02*
X99293793Y-102431324D01*
X99293793Y-102431324D02*
X99274441Y-102353914D01*
X99274441Y-102353914D02*
X99255088Y-102315210D01*
X99255088Y-102315210D02*
X99235736Y-102295857D01*
X99235736Y-102295857D02*
X99197031Y-102276505D01*
X98809983Y-102276505D02*
X98771278Y-102276505D01*
X98771278Y-102276505D02*
X98732574Y-102295857D01*
X98732574Y-102295857D02*
X98713221Y-102315210D01*
X98713221Y-102315210D02*
X98693869Y-102353914D01*
X98693869Y-102353914D02*
X98674516Y-102431324D01*
X98674516Y-102431324D02*
X98674516Y-102528086D01*
X98674516Y-102528086D02*
X98693869Y-102605495D01*
X98693869Y-102605495D02*
X98713221Y-102644200D01*
X98713221Y-102644200D02*
X98732574Y-102663553D01*
X98732574Y-102663553D02*
X98771278Y-102682905D01*
X98771278Y-102682905D02*
X98809983Y-102682905D01*
X98809983Y-102682905D02*
X98848688Y-102663553D01*
X98848688Y-102663553D02*
X98868040Y-102644200D01*
X98868040Y-102644200D02*
X98887393Y-102605495D01*
X98887393Y-102605495D02*
X98906745Y-102528086D01*
X98906745Y-102528086D02*
X98906745Y-102431324D01*
X98906745Y-102431324D02*
X98887393Y-102353914D01*
X98887393Y-102353914D02*
X98868040Y-102315210D01*
X98868040Y-102315210D02*
X98848688Y-102295857D01*
X98848688Y-102295857D02*
X98809983Y-102276505D01*
X98422935Y-102276505D02*
X98384230Y-102276505D01*
X98384230Y-102276505D02*
X98345526Y-102295857D01*
X98345526Y-102295857D02*
X98326173Y-102315210D01*
X98326173Y-102315210D02*
X98306821Y-102353914D01*
X98306821Y-102353914D02*
X98287468Y-102431324D01*
X98287468Y-102431324D02*
X98287468Y-102528086D01*
X98287468Y-102528086D02*
X98306821Y-102605495D01*
X98306821Y-102605495D02*
X98326173Y-102644200D01*
X98326173Y-102644200D02*
X98345526Y-102663553D01*
X98345526Y-102663553D02*
X98384230Y-102682905D01*
X98384230Y-102682905D02*
X98422935Y-102682905D01*
X98422935Y-102682905D02*
X98461640Y-102663553D01*
X98461640Y-102663553D02*
X98480992Y-102644200D01*
X98480992Y-102644200D02*
X98500345Y-102605495D01*
X98500345Y-102605495D02*
X98519697Y-102528086D01*
X98519697Y-102528086D02*
X98519697Y-102431324D01*
X98519697Y-102431324D02*
X98500345Y-102353914D01*
X98500345Y-102353914D02*
X98480992Y-102315210D01*
X98480992Y-102315210D02*
X98461640Y-102295857D01*
X98461640Y-102295857D02*
X98422935Y-102276505D01*
X98035887Y-102276505D02*
X97997182Y-102276505D01*
X97997182Y-102276505D02*
X97958478Y-102295857D01*
X97958478Y-102295857D02*
X97939125Y-102315210D01*
X97939125Y-102315210D02*
X97919773Y-102353914D01*
X97919773Y-102353914D02*
X97900420Y-102431324D01*
X97900420Y-102431324D02*
X97900420Y-102528086D01*
X97900420Y-102528086D02*
X97919773Y-102605495D01*
X97919773Y-102605495D02*
X97939125Y-102644200D01*
X97939125Y-102644200D02*
X97958478Y-102663553D01*
X97958478Y-102663553D02*
X97997182Y-102682905D01*
X97997182Y-102682905D02*
X98035887Y-102682905D01*
X98035887Y-102682905D02*
X98074592Y-102663553D01*
X98074592Y-102663553D02*
X98093944Y-102644200D01*
X98093944Y-102644200D02*
X98113297Y-102605495D01*
X98113297Y-102605495D02*
X98132649Y-102528086D01*
X98132649Y-102528086D02*
X98132649Y-102431324D01*
X98132649Y-102431324D02*
X98113297Y-102353914D01*
X98113297Y-102353914D02*
X98093944Y-102315210D01*
X98093944Y-102315210D02*
X98074592Y-102295857D01*
X98074592Y-102295857D02*
X98035887Y-102276505D01*
X97648839Y-102276505D02*
X97610134Y-102276505D01*
X97610134Y-102276505D02*
X97571430Y-102295857D01*
X97571430Y-102295857D02*
X97552077Y-102315210D01*
X97552077Y-102315210D02*
X97532725Y-102353914D01*
X97532725Y-102353914D02*
X97513372Y-102431324D01*
X97513372Y-102431324D02*
X97513372Y-102528086D01*
X97513372Y-102528086D02*
X97532725Y-102605495D01*
X97532725Y-102605495D02*
X97552077Y-102644200D01*
X97552077Y-102644200D02*
X97571430Y-102663553D01*
X97571430Y-102663553D02*
X97610134Y-102682905D01*
X97610134Y-102682905D02*
X97648839Y-102682905D01*
X97648839Y-102682905D02*
X97687544Y-102663553D01*
X97687544Y-102663553D02*
X97706896Y-102644200D01*
X97706896Y-102644200D02*
X97726249Y-102605495D01*
X97726249Y-102605495D02*
X97745601Y-102528086D01*
X97745601Y-102528086D02*
X97745601Y-102431324D01*
X97745601Y-102431324D02*
X97726249Y-102353914D01*
X97726249Y-102353914D02*
X97706896Y-102315210D01*
X97706896Y-102315210D02*
X97687544Y-102295857D01*
X97687544Y-102295857D02*
X97648839Y-102276505D01*
X97126324Y-102682905D02*
X97358553Y-102682905D01*
X97242439Y-102682905D02*
X97242439Y-102276505D01*
X97242439Y-102276505D02*
X97281143Y-102334562D01*
X97281143Y-102334562D02*
X97319848Y-102373267D01*
X97319848Y-102373267D02*
X97358553Y-102392619D01*
D11*
X104289904Y-90427376D02*
X104289904Y-89411376D01*
X104289904Y-89411376D02*
X104047999Y-89411376D01*
X104047999Y-89411376D02*
X103902856Y-89459757D01*
X103902856Y-89459757D02*
X103806094Y-89556519D01*
X103806094Y-89556519D02*
X103757713Y-89653281D01*
X103757713Y-89653281D02*
X103709332Y-89846805D01*
X103709332Y-89846805D02*
X103709332Y-89991948D01*
X103709332Y-89991948D02*
X103757713Y-90185472D01*
X103757713Y-90185472D02*
X103806094Y-90282234D01*
X103806094Y-90282234D02*
X103902856Y-90378996D01*
X103902856Y-90378996D02*
X104047999Y-90427376D01*
X104047999Y-90427376D02*
X104289904Y-90427376D01*
X102886856Y-90378996D02*
X102983618Y-90427376D01*
X102983618Y-90427376D02*
X103177142Y-90427376D01*
X103177142Y-90427376D02*
X103273904Y-90378996D01*
X103273904Y-90378996D02*
X103322285Y-90282234D01*
X103322285Y-90282234D02*
X103322285Y-89895186D01*
X103322285Y-89895186D02*
X103273904Y-89798424D01*
X103273904Y-89798424D02*
X103177142Y-89750043D01*
X103177142Y-89750043D02*
X102983618Y-89750043D01*
X102983618Y-89750043D02*
X102886856Y-89798424D01*
X102886856Y-89798424D02*
X102838475Y-89895186D01*
X102838475Y-89895186D02*
X102838475Y-89991948D01*
X102838475Y-89991948D02*
X103322285Y-90088710D01*
X102403047Y-90427376D02*
X102403047Y-89411376D01*
X102306285Y-90040329D02*
X102015999Y-90427376D01*
X102015999Y-89750043D02*
X102403047Y-90137091D01*
X101145142Y-89750043D02*
X101145142Y-90427376D01*
X101580571Y-89750043D02*
X101580571Y-90282234D01*
X101580571Y-90282234D02*
X101532190Y-90378996D01*
X101532190Y-90378996D02*
X101435428Y-90427376D01*
X101435428Y-90427376D02*
X101290285Y-90427376D01*
X101290285Y-90427376D02*
X101193523Y-90378996D01*
X101193523Y-90378996D02*
X101145142Y-90330615D01*
X99403428Y-90427376D02*
X99887238Y-90427376D01*
X99887238Y-90427376D02*
X99887238Y-89411376D01*
X98629333Y-90427376D02*
X98629333Y-89895186D01*
X98629333Y-89895186D02*
X98677714Y-89798424D01*
X98677714Y-89798424D02*
X98774476Y-89750043D01*
X98774476Y-89750043D02*
X98968000Y-89750043D01*
X98968000Y-89750043D02*
X99064762Y-89798424D01*
X98629333Y-90378996D02*
X98726095Y-90427376D01*
X98726095Y-90427376D02*
X98968000Y-90427376D01*
X98968000Y-90427376D02*
X99064762Y-90378996D01*
X99064762Y-90378996D02*
X99113143Y-90282234D01*
X99113143Y-90282234D02*
X99113143Y-90185472D01*
X99113143Y-90185472D02*
X99064762Y-90088710D01*
X99064762Y-90088710D02*
X98968000Y-90040329D01*
X98968000Y-90040329D02*
X98726095Y-90040329D01*
X98726095Y-90040329D02*
X98629333Y-89991948D01*
X98145524Y-90427376D02*
X98145524Y-89411376D01*
X98145524Y-89798424D02*
X98048762Y-89750043D01*
X98048762Y-89750043D02*
X97855238Y-89750043D01*
X97855238Y-89750043D02*
X97758476Y-89798424D01*
X97758476Y-89798424D02*
X97710095Y-89846805D01*
X97710095Y-89846805D02*
X97661714Y-89943567D01*
X97661714Y-89943567D02*
X97661714Y-90233853D01*
X97661714Y-90233853D02*
X97710095Y-90330615D01*
X97710095Y-90330615D02*
X97758476Y-90378996D01*
X97758476Y-90378996D02*
X97855238Y-90427376D01*
X97855238Y-90427376D02*
X98048762Y-90427376D01*
X98048762Y-90427376D02*
X98145524Y-90378996D01*
D10*
X125024333Y-90656900D02*
X125043685Y-90676253D01*
X125043685Y-90676253D02*
X125101743Y-90695605D01*
X125101743Y-90695605D02*
X125140447Y-90695605D01*
X125140447Y-90695605D02*
X125198504Y-90676253D01*
X125198504Y-90676253D02*
X125237209Y-90637548D01*
X125237209Y-90637548D02*
X125256562Y-90598843D01*
X125256562Y-90598843D02*
X125275914Y-90521433D01*
X125275914Y-90521433D02*
X125275914Y-90463376D01*
X125275914Y-90463376D02*
X125256562Y-90385967D01*
X125256562Y-90385967D02*
X125237209Y-90347262D01*
X125237209Y-90347262D02*
X125198504Y-90308557D01*
X125198504Y-90308557D02*
X125140447Y-90289205D01*
X125140447Y-90289205D02*
X125101743Y-90289205D01*
X125101743Y-90289205D02*
X125043685Y-90308557D01*
X125043685Y-90308557D02*
X125024333Y-90327910D01*
X124888866Y-90289205D02*
X124637285Y-90289205D01*
X124637285Y-90289205D02*
X124772752Y-90444024D01*
X124772752Y-90444024D02*
X124714695Y-90444024D01*
X124714695Y-90444024D02*
X124675990Y-90463376D01*
X124675990Y-90463376D02*
X124656638Y-90482729D01*
X124656638Y-90482729D02*
X124637285Y-90521433D01*
X124637285Y-90521433D02*
X124637285Y-90618195D01*
X124637285Y-90618195D02*
X124656638Y-90656900D01*
X124656638Y-90656900D02*
X124675990Y-90676253D01*
X124675990Y-90676253D02*
X124714695Y-90695605D01*
X124714695Y-90695605D02*
X124830809Y-90695605D01*
X124830809Y-90695605D02*
X124869514Y-90676253D01*
X124869514Y-90676253D02*
X124888866Y-90656900D01*
X114021520Y-80789862D02*
X114040873Y-80770510D01*
X114040873Y-80770510D02*
X114060225Y-80712452D01*
X114060225Y-80712452D02*
X114060225Y-80673748D01*
X114060225Y-80673748D02*
X114040873Y-80615691D01*
X114040873Y-80615691D02*
X114002168Y-80576986D01*
X114002168Y-80576986D02*
X113963463Y-80557633D01*
X113963463Y-80557633D02*
X113886053Y-80538281D01*
X113886053Y-80538281D02*
X113827996Y-80538281D01*
X113827996Y-80538281D02*
X113750587Y-80557633D01*
X113750587Y-80557633D02*
X113711882Y-80576986D01*
X113711882Y-80576986D02*
X113673177Y-80615691D01*
X113673177Y-80615691D02*
X113653825Y-80673748D01*
X113653825Y-80673748D02*
X113653825Y-80712452D01*
X113653825Y-80712452D02*
X113673177Y-80770510D01*
X113673177Y-80770510D02*
X113692530Y-80789862D01*
X113789292Y-81138205D02*
X114060225Y-81138205D01*
X113634473Y-81041443D02*
X113924758Y-80944681D01*
X113924758Y-80944681D02*
X113924758Y-81196262D01*
X113789292Y-81525253D02*
X114060225Y-81525253D01*
X113634473Y-81428491D02*
X113924758Y-81331729D01*
X113924758Y-81331729D02*
X113924758Y-81583310D01*
X120290057Y-104465305D02*
X120425524Y-104271781D01*
X120522286Y-104465305D02*
X120522286Y-104058905D01*
X120522286Y-104058905D02*
X120367467Y-104058905D01*
X120367467Y-104058905D02*
X120328762Y-104078257D01*
X120328762Y-104078257D02*
X120309409Y-104097610D01*
X120309409Y-104097610D02*
X120290057Y-104136314D01*
X120290057Y-104136314D02*
X120290057Y-104194372D01*
X120290057Y-104194372D02*
X120309409Y-104233076D01*
X120309409Y-104233076D02*
X120328762Y-104252429D01*
X120328762Y-104252429D02*
X120367467Y-104271781D01*
X120367467Y-104271781D02*
X120522286Y-104271781D01*
X119903009Y-104465305D02*
X120135238Y-104465305D01*
X120019124Y-104465305D02*
X120019124Y-104058905D01*
X120019124Y-104058905D02*
X120057828Y-104116962D01*
X120057828Y-104116962D02*
X120096533Y-104155667D01*
X120096533Y-104155667D02*
X120135238Y-104175019D01*
X119515961Y-104465305D02*
X119748190Y-104465305D01*
X119632076Y-104465305D02*
X119632076Y-104058905D01*
X119632076Y-104058905D02*
X119670780Y-104116962D01*
X119670780Y-104116962D02*
X119709485Y-104155667D01*
X119709485Y-104155667D02*
X119748190Y-104175019D01*
X124204525Y-97701882D02*
X124011001Y-97566415D01*
X124204525Y-97469653D02*
X123798125Y-97469653D01*
X123798125Y-97469653D02*
X123798125Y-97624472D01*
X123798125Y-97624472D02*
X123817477Y-97663177D01*
X123817477Y-97663177D02*
X123836830Y-97682530D01*
X123836830Y-97682530D02*
X123875534Y-97701882D01*
X123875534Y-97701882D02*
X123933592Y-97701882D01*
X123933592Y-97701882D02*
X123972296Y-97682530D01*
X123972296Y-97682530D02*
X123991649Y-97663177D01*
X123991649Y-97663177D02*
X124011001Y-97624472D01*
X124011001Y-97624472D02*
X124011001Y-97469653D01*
X124204525Y-98088930D02*
X124204525Y-97856701D01*
X124204525Y-97972815D02*
X123798125Y-97972815D01*
X123798125Y-97972815D02*
X123856182Y-97934111D01*
X123856182Y-97934111D02*
X123894887Y-97895406D01*
X123894887Y-97895406D02*
X123914239Y-97856701D01*
X123836830Y-98243749D02*
X123817477Y-98263101D01*
X123817477Y-98263101D02*
X123798125Y-98301806D01*
X123798125Y-98301806D02*
X123798125Y-98398568D01*
X123798125Y-98398568D02*
X123817477Y-98437273D01*
X123817477Y-98437273D02*
X123836830Y-98456625D01*
X123836830Y-98456625D02*
X123875534Y-98475978D01*
X123875534Y-98475978D02*
X123914239Y-98475978D01*
X123914239Y-98475978D02*
X123972296Y-98456625D01*
X123972296Y-98456625D02*
X124204525Y-98224397D01*
X124204525Y-98224397D02*
X124204525Y-98475978D01*
X124118165Y-94993822D02*
X123924641Y-94858355D01*
X124118165Y-94761593D02*
X123711765Y-94761593D01*
X123711765Y-94761593D02*
X123711765Y-94916412D01*
X123711765Y-94916412D02*
X123731117Y-94955117D01*
X123731117Y-94955117D02*
X123750470Y-94974470D01*
X123750470Y-94974470D02*
X123789174Y-94993822D01*
X123789174Y-94993822D02*
X123847232Y-94993822D01*
X123847232Y-94993822D02*
X123885936Y-94974470D01*
X123885936Y-94974470D02*
X123905289Y-94955117D01*
X123905289Y-94955117D02*
X123924641Y-94916412D01*
X123924641Y-94916412D02*
X123924641Y-94761593D01*
X123711765Y-95129289D02*
X123711765Y-95380870D01*
X123711765Y-95380870D02*
X123866584Y-95245403D01*
X123866584Y-95245403D02*
X123866584Y-95303460D01*
X123866584Y-95303460D02*
X123885936Y-95342165D01*
X123885936Y-95342165D02*
X123905289Y-95361517D01*
X123905289Y-95361517D02*
X123943993Y-95380870D01*
X123943993Y-95380870D02*
X124040755Y-95380870D01*
X124040755Y-95380870D02*
X124079460Y-95361517D01*
X124079460Y-95361517D02*
X124098813Y-95342165D01*
X124098813Y-95342165D02*
X124118165Y-95303460D01*
X124118165Y-95303460D02*
X124118165Y-95187346D01*
X124118165Y-95187346D02*
X124098813Y-95148641D01*
X124098813Y-95148641D02*
X124079460Y-95129289D01*
X124118165Y-95574394D02*
X124118165Y-95651803D01*
X124118165Y-95651803D02*
X124098813Y-95690508D01*
X124098813Y-95690508D02*
X124079460Y-95709860D01*
X124079460Y-95709860D02*
X124021403Y-95748565D01*
X124021403Y-95748565D02*
X123943993Y-95767918D01*
X123943993Y-95767918D02*
X123789174Y-95767918D01*
X123789174Y-95767918D02*
X123750470Y-95748565D01*
X123750470Y-95748565D02*
X123731117Y-95729213D01*
X123731117Y-95729213D02*
X123711765Y-95690508D01*
X123711765Y-95690508D02*
X123711765Y-95613099D01*
X123711765Y-95613099D02*
X123731117Y-95574394D01*
X123731117Y-95574394D02*
X123750470Y-95555041D01*
X123750470Y-95555041D02*
X123789174Y-95535689D01*
X123789174Y-95535689D02*
X123885936Y-95535689D01*
X123885936Y-95535689D02*
X123924641Y-95555041D01*
X123924641Y-95555041D02*
X123943993Y-95574394D01*
X123943993Y-95574394D02*
X123963346Y-95613099D01*
X123963346Y-95613099D02*
X123963346Y-95690508D01*
X123963346Y-95690508D02*
X123943993Y-95729213D01*
X123943993Y-95729213D02*
X123924641Y-95748565D01*
X123924641Y-95748565D02*
X123885936Y-95767918D01*
X113294345Y-91856106D02*
X113100821Y-91720639D01*
X113294345Y-91623877D02*
X112887945Y-91623877D01*
X112887945Y-91623877D02*
X112887945Y-91778696D01*
X112887945Y-91778696D02*
X112907297Y-91817401D01*
X112907297Y-91817401D02*
X112926650Y-91836754D01*
X112926650Y-91836754D02*
X112965354Y-91856106D01*
X112965354Y-91856106D02*
X113023412Y-91856106D01*
X113023412Y-91856106D02*
X113062116Y-91836754D01*
X113062116Y-91836754D02*
X113081469Y-91817401D01*
X113081469Y-91817401D02*
X113100821Y-91778696D01*
X113100821Y-91778696D02*
X113100821Y-91623877D01*
X112887945Y-91991573D02*
X112887945Y-92243154D01*
X112887945Y-92243154D02*
X113042764Y-92107687D01*
X113042764Y-92107687D02*
X113042764Y-92165744D01*
X113042764Y-92165744D02*
X113062116Y-92204449D01*
X113062116Y-92204449D02*
X113081469Y-92223801D01*
X113081469Y-92223801D02*
X113120173Y-92243154D01*
X113120173Y-92243154D02*
X113216935Y-92243154D01*
X113216935Y-92243154D02*
X113255640Y-92223801D01*
X113255640Y-92223801D02*
X113274993Y-92204449D01*
X113274993Y-92204449D02*
X113294345Y-92165744D01*
X113294345Y-92165744D02*
X113294345Y-92049630D01*
X113294345Y-92049630D02*
X113274993Y-92010925D01*
X113274993Y-92010925D02*
X113255640Y-91991573D01*
X116499593Y-93809080D02*
X116518945Y-93828433D01*
X116518945Y-93828433D02*
X116577003Y-93847785D01*
X116577003Y-93847785D02*
X116615707Y-93847785D01*
X116615707Y-93847785D02*
X116673764Y-93828433D01*
X116673764Y-93828433D02*
X116712469Y-93789728D01*
X116712469Y-93789728D02*
X116731822Y-93751023D01*
X116731822Y-93751023D02*
X116751174Y-93673613D01*
X116751174Y-93673613D02*
X116751174Y-93615556D01*
X116751174Y-93615556D02*
X116731822Y-93538147D01*
X116731822Y-93538147D02*
X116712469Y-93499442D01*
X116712469Y-93499442D02*
X116673764Y-93460737D01*
X116673764Y-93460737D02*
X116615707Y-93441385D01*
X116615707Y-93441385D02*
X116577003Y-93441385D01*
X116577003Y-93441385D02*
X116518945Y-93460737D01*
X116518945Y-93460737D02*
X116499593Y-93480090D01*
X116306069Y-93847785D02*
X116228660Y-93847785D01*
X116228660Y-93847785D02*
X116189955Y-93828433D01*
X116189955Y-93828433D02*
X116170603Y-93809080D01*
X116170603Y-93809080D02*
X116131898Y-93751023D01*
X116131898Y-93751023D02*
X116112545Y-93673613D01*
X116112545Y-93673613D02*
X116112545Y-93518794D01*
X116112545Y-93518794D02*
X116131898Y-93480090D01*
X116131898Y-93480090D02*
X116151250Y-93460737D01*
X116151250Y-93460737D02*
X116189955Y-93441385D01*
X116189955Y-93441385D02*
X116267364Y-93441385D01*
X116267364Y-93441385D02*
X116306069Y-93460737D01*
X116306069Y-93460737D02*
X116325422Y-93480090D01*
X116325422Y-93480090D02*
X116344774Y-93518794D01*
X116344774Y-93518794D02*
X116344774Y-93615556D01*
X116344774Y-93615556D02*
X116325422Y-93654261D01*
X116325422Y-93654261D02*
X116306069Y-93673613D01*
X116306069Y-93673613D02*
X116267364Y-93692966D01*
X116267364Y-93692966D02*
X116189955Y-93692966D01*
X116189955Y-93692966D02*
X116151250Y-93673613D01*
X116151250Y-93673613D02*
X116131898Y-93654261D01*
X116131898Y-93654261D02*
X116112545Y-93615556D01*
X124978613Y-91359120D02*
X124997965Y-91378473D01*
X124997965Y-91378473D02*
X125056023Y-91397825D01*
X125056023Y-91397825D02*
X125094727Y-91397825D01*
X125094727Y-91397825D02*
X125152784Y-91378473D01*
X125152784Y-91378473D02*
X125191489Y-91339768D01*
X125191489Y-91339768D02*
X125210842Y-91301063D01*
X125210842Y-91301063D02*
X125230194Y-91223653D01*
X125230194Y-91223653D02*
X125230194Y-91165596D01*
X125230194Y-91165596D02*
X125210842Y-91088187D01*
X125210842Y-91088187D02*
X125191489Y-91049482D01*
X125191489Y-91049482D02*
X125152784Y-91010777D01*
X125152784Y-91010777D02*
X125094727Y-90991425D01*
X125094727Y-90991425D02*
X125056023Y-90991425D01*
X125056023Y-90991425D02*
X124997965Y-91010777D01*
X124997965Y-91010777D02*
X124978613Y-91030130D01*
X124591565Y-91397825D02*
X124823794Y-91397825D01*
X124707680Y-91397825D02*
X124707680Y-90991425D01*
X124707680Y-90991425D02*
X124746384Y-91049482D01*
X124746384Y-91049482D02*
X124785089Y-91088187D01*
X124785089Y-91088187D02*
X124823794Y-91107539D01*
X116919177Y-94570460D02*
X116938529Y-94589813D01*
X116938529Y-94589813D02*
X116996587Y-94609165D01*
X116996587Y-94609165D02*
X117035291Y-94609165D01*
X117035291Y-94609165D02*
X117093348Y-94589813D01*
X117093348Y-94589813D02*
X117132053Y-94551108D01*
X117132053Y-94551108D02*
X117151406Y-94512403D01*
X117151406Y-94512403D02*
X117170758Y-94434993D01*
X117170758Y-94434993D02*
X117170758Y-94376936D01*
X117170758Y-94376936D02*
X117151406Y-94299527D01*
X117151406Y-94299527D02*
X117132053Y-94260822D01*
X117132053Y-94260822D02*
X117093348Y-94222117D01*
X117093348Y-94222117D02*
X117035291Y-94202765D01*
X117035291Y-94202765D02*
X116996587Y-94202765D01*
X116996587Y-94202765D02*
X116938529Y-94222117D01*
X116938529Y-94222117D02*
X116919177Y-94241470D01*
X116532129Y-94609165D02*
X116764358Y-94609165D01*
X116648244Y-94609165D02*
X116648244Y-94202765D01*
X116648244Y-94202765D02*
X116686948Y-94260822D01*
X116686948Y-94260822D02*
X116725653Y-94299527D01*
X116725653Y-94299527D02*
X116764358Y-94318879D01*
X116280548Y-94202765D02*
X116241843Y-94202765D01*
X116241843Y-94202765D02*
X116203139Y-94222117D01*
X116203139Y-94222117D02*
X116183786Y-94241470D01*
X116183786Y-94241470D02*
X116164434Y-94280174D01*
X116164434Y-94280174D02*
X116145081Y-94357584D01*
X116145081Y-94357584D02*
X116145081Y-94454346D01*
X116145081Y-94454346D02*
X116164434Y-94531755D01*
X116164434Y-94531755D02*
X116183786Y-94570460D01*
X116183786Y-94570460D02*
X116203139Y-94589813D01*
X116203139Y-94589813D02*
X116241843Y-94609165D01*
X116241843Y-94609165D02*
X116280548Y-94609165D01*
X116280548Y-94609165D02*
X116319253Y-94589813D01*
X116319253Y-94589813D02*
X116338605Y-94570460D01*
X116338605Y-94570460D02*
X116357958Y-94531755D01*
X116357958Y-94531755D02*
X116377310Y-94454346D01*
X116377310Y-94454346D02*
X116377310Y-94357584D01*
X116377310Y-94357584D02*
X116357958Y-94280174D01*
X116357958Y-94280174D02*
X116338605Y-94241470D01*
X116338605Y-94241470D02*
X116319253Y-94222117D01*
X116319253Y-94222117D02*
X116280548Y-94202765D01*
X114901047Y-104002952D02*
X114901047Y-103591714D01*
X114901047Y-103591714D02*
X114925237Y-103543333D01*
X114925237Y-103543333D02*
X114949428Y-103519143D01*
X114949428Y-103519143D02*
X114997809Y-103494952D01*
X114997809Y-103494952D02*
X115094571Y-103494952D01*
X115094571Y-103494952D02*
X115142952Y-103519143D01*
X115142952Y-103519143D02*
X115167142Y-103543333D01*
X115167142Y-103543333D02*
X115191333Y-103591714D01*
X115191333Y-103591714D02*
X115191333Y-104002952D01*
X115699332Y-103494952D02*
X115409046Y-103494952D01*
X115554189Y-103494952D02*
X115554189Y-104002952D01*
X115554189Y-104002952D02*
X115505808Y-103930381D01*
X115505808Y-103930381D02*
X115457427Y-103882000D01*
X115457427Y-103882000D02*
X115409046Y-103857809D01*
X115892856Y-103954571D02*
X115917047Y-103978762D01*
X115917047Y-103978762D02*
X115965428Y-104002952D01*
X115965428Y-104002952D02*
X116086380Y-104002952D01*
X116086380Y-104002952D02*
X116134761Y-103978762D01*
X116134761Y-103978762D02*
X116158952Y-103954571D01*
X116158952Y-103954571D02*
X116183142Y-103906190D01*
X116183142Y-103906190D02*
X116183142Y-103857809D01*
X116183142Y-103857809D02*
X116158952Y-103785238D01*
X116158952Y-103785238D02*
X115868666Y-103494952D01*
X115868666Y-103494952D02*
X116183142Y-103494952D01*
X113296885Y-86506106D02*
X113103361Y-86370639D01*
X113296885Y-86273877D02*
X112890485Y-86273877D01*
X112890485Y-86273877D02*
X112890485Y-86428696D01*
X112890485Y-86428696D02*
X112909837Y-86467401D01*
X112909837Y-86467401D02*
X112929190Y-86486754D01*
X112929190Y-86486754D02*
X112967894Y-86506106D01*
X112967894Y-86506106D02*
X113025952Y-86506106D01*
X113025952Y-86506106D02*
X113064656Y-86486754D01*
X113064656Y-86486754D02*
X113084009Y-86467401D01*
X113084009Y-86467401D02*
X113103361Y-86428696D01*
X113103361Y-86428696D02*
X113103361Y-86273877D01*
X113025952Y-86854449D02*
X113296885Y-86854449D01*
X112871133Y-86757687D02*
X113161418Y-86660925D01*
X113161418Y-86660925D02*
X113161418Y-86912506D01*
X107187047Y-97893047D02*
X107187047Y-98304285D01*
X107187047Y-98304285D02*
X107162857Y-98352666D01*
X107162857Y-98352666D02*
X107138666Y-98376857D01*
X107138666Y-98376857D02*
X107090285Y-98401047D01*
X107090285Y-98401047D02*
X106993523Y-98401047D01*
X106993523Y-98401047D02*
X106945142Y-98376857D01*
X106945142Y-98376857D02*
X106920952Y-98352666D01*
X106920952Y-98352666D02*
X106896761Y-98304285D01*
X106896761Y-98304285D02*
X106896761Y-97893047D01*
X106582286Y-98110761D02*
X106630667Y-98086571D01*
X106630667Y-98086571D02*
X106654857Y-98062380D01*
X106654857Y-98062380D02*
X106679048Y-98013999D01*
X106679048Y-98013999D02*
X106679048Y-97989809D01*
X106679048Y-97989809D02*
X106654857Y-97941428D01*
X106654857Y-97941428D02*
X106630667Y-97917237D01*
X106630667Y-97917237D02*
X106582286Y-97893047D01*
X106582286Y-97893047D02*
X106485524Y-97893047D01*
X106485524Y-97893047D02*
X106437143Y-97917237D01*
X106437143Y-97917237D02*
X106412952Y-97941428D01*
X106412952Y-97941428D02*
X106388762Y-97989809D01*
X106388762Y-97989809D02*
X106388762Y-98013999D01*
X106388762Y-98013999D02*
X106412952Y-98062380D01*
X106412952Y-98062380D02*
X106437143Y-98086571D01*
X106437143Y-98086571D02*
X106485524Y-98110761D01*
X106485524Y-98110761D02*
X106582286Y-98110761D01*
X106582286Y-98110761D02*
X106630667Y-98134952D01*
X106630667Y-98134952D02*
X106654857Y-98159142D01*
X106654857Y-98159142D02*
X106679048Y-98207523D01*
X106679048Y-98207523D02*
X106679048Y-98304285D01*
X106679048Y-98304285D02*
X106654857Y-98352666D01*
X106654857Y-98352666D02*
X106630667Y-98376857D01*
X106630667Y-98376857D02*
X106582286Y-98401047D01*
X106582286Y-98401047D02*
X106485524Y-98401047D01*
X106485524Y-98401047D02*
X106437143Y-98376857D01*
X106437143Y-98376857D02*
X106412952Y-98352666D01*
X106412952Y-98352666D02*
X106388762Y-98304285D01*
X106388762Y-98304285D02*
X106388762Y-98207523D01*
X106388762Y-98207523D02*
X106412952Y-98159142D01*
X106412952Y-98159142D02*
X106437143Y-98134952D01*
X106437143Y-98134952D02*
X106485524Y-98110761D01*
X124207265Y-99522222D02*
X124013741Y-99386755D01*
X124207265Y-99289993D02*
X123800865Y-99289993D01*
X123800865Y-99289993D02*
X123800865Y-99444812D01*
X123800865Y-99444812D02*
X123820217Y-99483517D01*
X123820217Y-99483517D02*
X123839570Y-99502870D01*
X123839570Y-99502870D02*
X123878274Y-99522222D01*
X123878274Y-99522222D02*
X123936332Y-99522222D01*
X123936332Y-99522222D02*
X123975036Y-99502870D01*
X123975036Y-99502870D02*
X123994389Y-99483517D01*
X123994389Y-99483517D02*
X124013741Y-99444812D01*
X124013741Y-99444812D02*
X124013741Y-99289993D01*
X124207265Y-99909270D02*
X124207265Y-99677041D01*
X124207265Y-99793155D02*
X123800865Y-99793155D01*
X123800865Y-99793155D02*
X123858922Y-99754451D01*
X123858922Y-99754451D02*
X123897627Y-99715746D01*
X123897627Y-99715746D02*
X123916979Y-99677041D01*
X123800865Y-100044737D02*
X123800865Y-100296318D01*
X123800865Y-100296318D02*
X123955684Y-100160851D01*
X123955684Y-100160851D02*
X123955684Y-100218908D01*
X123955684Y-100218908D02*
X123975036Y-100257613D01*
X123975036Y-100257613D02*
X123994389Y-100276965D01*
X123994389Y-100276965D02*
X124033093Y-100296318D01*
X124033093Y-100296318D02*
X124129855Y-100296318D01*
X124129855Y-100296318D02*
X124168560Y-100276965D01*
X124168560Y-100276965D02*
X124187913Y-100257613D01*
X124187913Y-100257613D02*
X124207265Y-100218908D01*
X124207265Y-100218908D02*
X124207265Y-100102794D01*
X124207265Y-100102794D02*
X124187913Y-100064089D01*
X124187913Y-100064089D02*
X124168560Y-100044737D01*
X118688273Y-104469780D02*
X118707625Y-104489133D01*
X118707625Y-104489133D02*
X118765683Y-104508485D01*
X118765683Y-104508485D02*
X118804387Y-104508485D01*
X118804387Y-104508485D02*
X118862444Y-104489133D01*
X118862444Y-104489133D02*
X118901149Y-104450428D01*
X118901149Y-104450428D02*
X118920502Y-104411723D01*
X118920502Y-104411723D02*
X118939854Y-104334313D01*
X118939854Y-104334313D02*
X118939854Y-104276256D01*
X118939854Y-104276256D02*
X118920502Y-104198847D01*
X118920502Y-104198847D02*
X118901149Y-104160142D01*
X118901149Y-104160142D02*
X118862444Y-104121437D01*
X118862444Y-104121437D02*
X118804387Y-104102085D01*
X118804387Y-104102085D02*
X118765683Y-104102085D01*
X118765683Y-104102085D02*
X118707625Y-104121437D01*
X118707625Y-104121437D02*
X118688273Y-104140790D01*
X118552806Y-104102085D02*
X118281873Y-104102085D01*
X118281873Y-104102085D02*
X118456044Y-104508485D01*
X122663373Y-103817000D02*
X122682725Y-103836353D01*
X122682725Y-103836353D02*
X122740783Y-103855705D01*
X122740783Y-103855705D02*
X122779487Y-103855705D01*
X122779487Y-103855705D02*
X122837544Y-103836353D01*
X122837544Y-103836353D02*
X122876249Y-103797648D01*
X122876249Y-103797648D02*
X122895602Y-103758943D01*
X122895602Y-103758943D02*
X122914954Y-103681533D01*
X122914954Y-103681533D02*
X122914954Y-103623476D01*
X122914954Y-103623476D02*
X122895602Y-103546067D01*
X122895602Y-103546067D02*
X122876249Y-103507362D01*
X122876249Y-103507362D02*
X122837544Y-103468657D01*
X122837544Y-103468657D02*
X122779487Y-103449305D01*
X122779487Y-103449305D02*
X122740783Y-103449305D01*
X122740783Y-103449305D02*
X122682725Y-103468657D01*
X122682725Y-103468657D02*
X122663373Y-103488010D01*
X122431144Y-103623476D02*
X122469849Y-103604124D01*
X122469849Y-103604124D02*
X122489202Y-103584772D01*
X122489202Y-103584772D02*
X122508554Y-103546067D01*
X122508554Y-103546067D02*
X122508554Y-103526714D01*
X122508554Y-103526714D02*
X122489202Y-103488010D01*
X122489202Y-103488010D02*
X122469849Y-103468657D01*
X122469849Y-103468657D02*
X122431144Y-103449305D01*
X122431144Y-103449305D02*
X122353735Y-103449305D01*
X122353735Y-103449305D02*
X122315030Y-103468657D01*
X122315030Y-103468657D02*
X122295678Y-103488010D01*
X122295678Y-103488010D02*
X122276325Y-103526714D01*
X122276325Y-103526714D02*
X122276325Y-103546067D01*
X122276325Y-103546067D02*
X122295678Y-103584772D01*
X122295678Y-103584772D02*
X122315030Y-103604124D01*
X122315030Y-103604124D02*
X122353735Y-103623476D01*
X122353735Y-103623476D02*
X122431144Y-103623476D01*
X122431144Y-103623476D02*
X122469849Y-103642829D01*
X122469849Y-103642829D02*
X122489202Y-103662181D01*
X122489202Y-103662181D02*
X122508554Y-103700886D01*
X122508554Y-103700886D02*
X122508554Y-103778295D01*
X122508554Y-103778295D02*
X122489202Y-103817000D01*
X122489202Y-103817000D02*
X122469849Y-103836353D01*
X122469849Y-103836353D02*
X122431144Y-103855705D01*
X122431144Y-103855705D02*
X122353735Y-103855705D01*
X122353735Y-103855705D02*
X122315030Y-103836353D01*
X122315030Y-103836353D02*
X122295678Y-103817000D01*
X122295678Y-103817000D02*
X122276325Y-103778295D01*
X122276325Y-103778295D02*
X122276325Y-103700886D01*
X122276325Y-103700886D02*
X122295678Y-103662181D01*
X122295678Y-103662181D02*
X122315030Y-103642829D01*
X122315030Y-103642829D02*
X122353735Y-103623476D01*
X124151385Y-101501722D02*
X123957861Y-101366255D01*
X124151385Y-101269493D02*
X123744985Y-101269493D01*
X123744985Y-101269493D02*
X123744985Y-101424312D01*
X123744985Y-101424312D02*
X123764337Y-101463017D01*
X123764337Y-101463017D02*
X123783690Y-101482370D01*
X123783690Y-101482370D02*
X123822394Y-101501722D01*
X123822394Y-101501722D02*
X123880452Y-101501722D01*
X123880452Y-101501722D02*
X123919156Y-101482370D01*
X123919156Y-101482370D02*
X123938509Y-101463017D01*
X123938509Y-101463017D02*
X123957861Y-101424312D01*
X123957861Y-101424312D02*
X123957861Y-101269493D01*
X124151385Y-101888770D02*
X124151385Y-101656541D01*
X124151385Y-101772655D02*
X123744985Y-101772655D01*
X123744985Y-101772655D02*
X123803042Y-101733951D01*
X123803042Y-101733951D02*
X123841747Y-101695246D01*
X123841747Y-101695246D02*
X123861099Y-101656541D01*
X123744985Y-102256465D02*
X123744985Y-102062941D01*
X123744985Y-102062941D02*
X123938509Y-102043589D01*
X123938509Y-102043589D02*
X123919156Y-102062941D01*
X123919156Y-102062941D02*
X123899804Y-102101646D01*
X123899804Y-102101646D02*
X123899804Y-102198408D01*
X123899804Y-102198408D02*
X123919156Y-102237113D01*
X123919156Y-102237113D02*
X123938509Y-102256465D01*
X123938509Y-102256465D02*
X123977213Y-102275818D01*
X123977213Y-102275818D02*
X124073975Y-102275818D01*
X124073975Y-102275818D02*
X124112680Y-102256465D01*
X124112680Y-102256465D02*
X124132033Y-102237113D01*
X124132033Y-102237113D02*
X124151385Y-102198408D01*
X124151385Y-102198408D02*
X124151385Y-102101646D01*
X124151385Y-102101646D02*
X124132033Y-102062941D01*
X124132033Y-102062941D02*
X124112680Y-102043589D01*
X113304505Y-81232306D02*
X113110981Y-81096839D01*
X113304505Y-81000077D02*
X112898105Y-81000077D01*
X112898105Y-81000077D02*
X112898105Y-81154896D01*
X112898105Y-81154896D02*
X112917457Y-81193601D01*
X112917457Y-81193601D02*
X112936810Y-81212954D01*
X112936810Y-81212954D02*
X112975514Y-81232306D01*
X112975514Y-81232306D02*
X113033572Y-81232306D01*
X113033572Y-81232306D02*
X113072276Y-81212954D01*
X113072276Y-81212954D02*
X113091629Y-81193601D01*
X113091629Y-81193601D02*
X113110981Y-81154896D01*
X113110981Y-81154896D02*
X113110981Y-81000077D01*
X112898105Y-81600001D02*
X112898105Y-81406477D01*
X112898105Y-81406477D02*
X113091629Y-81387125D01*
X113091629Y-81387125D02*
X113072276Y-81406477D01*
X113072276Y-81406477D02*
X113052924Y-81445182D01*
X113052924Y-81445182D02*
X113052924Y-81541944D01*
X113052924Y-81541944D02*
X113072276Y-81580649D01*
X113072276Y-81580649D02*
X113091629Y-81600001D01*
X113091629Y-81600001D02*
X113130333Y-81619354D01*
X113130333Y-81619354D02*
X113227095Y-81619354D01*
X113227095Y-81619354D02*
X113265800Y-81600001D01*
X113265800Y-81600001D02*
X113285153Y-81580649D01*
X113285153Y-81580649D02*
X113304505Y-81541944D01*
X113304505Y-81541944D02*
X113304505Y-81445182D01*
X113304505Y-81445182D02*
X113285153Y-81406477D01*
X113285153Y-81406477D02*
X113265800Y-81387125D01*
X124186617Y-89438445D02*
X124322084Y-89244921D01*
X124418846Y-89438445D02*
X124418846Y-89032045D01*
X124418846Y-89032045D02*
X124264027Y-89032045D01*
X124264027Y-89032045D02*
X124225322Y-89051397D01*
X124225322Y-89051397D02*
X124205969Y-89070750D01*
X124205969Y-89070750D02*
X124186617Y-89109454D01*
X124186617Y-89109454D02*
X124186617Y-89167512D01*
X124186617Y-89167512D02*
X124205969Y-89206216D01*
X124205969Y-89206216D02*
X124225322Y-89225569D01*
X124225322Y-89225569D02*
X124264027Y-89244921D01*
X124264027Y-89244921D02*
X124418846Y-89244921D01*
X123799569Y-89438445D02*
X124031798Y-89438445D01*
X123915684Y-89438445D02*
X123915684Y-89032045D01*
X123915684Y-89032045D02*
X123954388Y-89090102D01*
X123954388Y-89090102D02*
X123993093Y-89128807D01*
X123993093Y-89128807D02*
X124031798Y-89148159D01*
X123547988Y-89032045D02*
X123509283Y-89032045D01*
X123509283Y-89032045D02*
X123470579Y-89051397D01*
X123470579Y-89051397D02*
X123451226Y-89070750D01*
X123451226Y-89070750D02*
X123431874Y-89109454D01*
X123431874Y-89109454D02*
X123412521Y-89186864D01*
X123412521Y-89186864D02*
X123412521Y-89283626D01*
X123412521Y-89283626D02*
X123431874Y-89361035D01*
X123431874Y-89361035D02*
X123451226Y-89399740D01*
X123451226Y-89399740D02*
X123470579Y-89419093D01*
X123470579Y-89419093D02*
X123509283Y-89438445D01*
X123509283Y-89438445D02*
X123547988Y-89438445D01*
X123547988Y-89438445D02*
X123586693Y-89419093D01*
X123586693Y-89419093D02*
X123606045Y-89399740D01*
X123606045Y-89399740D02*
X123625398Y-89361035D01*
X123625398Y-89361035D02*
X123644750Y-89283626D01*
X123644750Y-89283626D02*
X123644750Y-89186864D01*
X123644750Y-89186864D02*
X123625398Y-89109454D01*
X123625398Y-89109454D02*
X123606045Y-89070750D01*
X123606045Y-89070750D02*
X123586693Y-89051397D01*
X123586693Y-89051397D02*
X123547988Y-89032045D01*
X107187047Y-92543047D02*
X107187047Y-92954285D01*
X107187047Y-92954285D02*
X107162857Y-93002666D01*
X107162857Y-93002666D02*
X107138666Y-93026857D01*
X107138666Y-93026857D02*
X107090285Y-93051047D01*
X107090285Y-93051047D02*
X106993523Y-93051047D01*
X106993523Y-93051047D02*
X106945142Y-93026857D01*
X106945142Y-93026857D02*
X106920952Y-93002666D01*
X106920952Y-93002666D02*
X106896761Y-92954285D01*
X106896761Y-92954285D02*
X106896761Y-92543047D01*
X106703238Y-92543047D02*
X106364571Y-92543047D01*
X106364571Y-92543047D02*
X106582286Y-93051047D01*
X116720447Y-81952247D02*
X116720447Y-82363485D01*
X116720447Y-82363485D02*
X116696257Y-82411866D01*
X116696257Y-82411866D02*
X116672066Y-82436057D01*
X116672066Y-82436057D02*
X116623685Y-82460247D01*
X116623685Y-82460247D02*
X116526923Y-82460247D01*
X116526923Y-82460247D02*
X116478542Y-82436057D01*
X116478542Y-82436057D02*
X116454352Y-82411866D01*
X116454352Y-82411866D02*
X116430161Y-82363485D01*
X116430161Y-82363485D02*
X116430161Y-81952247D01*
X116164067Y-82460247D02*
X116067305Y-82460247D01*
X116067305Y-82460247D02*
X116018924Y-82436057D01*
X116018924Y-82436057D02*
X115994733Y-82411866D01*
X115994733Y-82411866D02*
X115946352Y-82339295D01*
X115946352Y-82339295D02*
X115922162Y-82242533D01*
X115922162Y-82242533D02*
X115922162Y-82049009D01*
X115922162Y-82049009D02*
X115946352Y-82000628D01*
X115946352Y-82000628D02*
X115970543Y-81976437D01*
X115970543Y-81976437D02*
X116018924Y-81952247D01*
X116018924Y-81952247D02*
X116115686Y-81952247D01*
X116115686Y-81952247D02*
X116164067Y-81976437D01*
X116164067Y-81976437D02*
X116188257Y-82000628D01*
X116188257Y-82000628D02*
X116212448Y-82049009D01*
X116212448Y-82049009D02*
X116212448Y-82169961D01*
X116212448Y-82169961D02*
X116188257Y-82218342D01*
X116188257Y-82218342D02*
X116164067Y-82242533D01*
X116164067Y-82242533D02*
X116115686Y-82266723D01*
X116115686Y-82266723D02*
X116018924Y-82266723D01*
X116018924Y-82266723D02*
X115970543Y-82242533D01*
X115970543Y-82242533D02*
X115946352Y-82218342D01*
X115946352Y-82218342D02*
X115922162Y-82169961D01*
X113836720Y-101187282D02*
X113856073Y-101167930D01*
X113856073Y-101167930D02*
X113875425Y-101109872D01*
X113875425Y-101109872D02*
X113875425Y-101071168D01*
X113875425Y-101071168D02*
X113856073Y-101013111D01*
X113856073Y-101013111D02*
X113817368Y-100974406D01*
X113817368Y-100974406D02*
X113778663Y-100955053D01*
X113778663Y-100955053D02*
X113701253Y-100935701D01*
X113701253Y-100935701D02*
X113643196Y-100935701D01*
X113643196Y-100935701D02*
X113565787Y-100955053D01*
X113565787Y-100955053D02*
X113527082Y-100974406D01*
X113527082Y-100974406D02*
X113488377Y-101013111D01*
X113488377Y-101013111D02*
X113469025Y-101071168D01*
X113469025Y-101071168D02*
X113469025Y-101109872D01*
X113469025Y-101109872D02*
X113488377Y-101167930D01*
X113488377Y-101167930D02*
X113507730Y-101187282D01*
X113604492Y-101535625D02*
X113875425Y-101535625D01*
X113449673Y-101438863D02*
X113739958Y-101342101D01*
X113739958Y-101342101D02*
X113739958Y-101593682D01*
X113469025Y-101942025D02*
X113469025Y-101748501D01*
X113469025Y-101748501D02*
X113662549Y-101729149D01*
X113662549Y-101729149D02*
X113643196Y-101748501D01*
X113643196Y-101748501D02*
X113623844Y-101787206D01*
X113623844Y-101787206D02*
X113623844Y-101883968D01*
X113623844Y-101883968D02*
X113643196Y-101922673D01*
X113643196Y-101922673D02*
X113662549Y-101942025D01*
X113662549Y-101942025D02*
X113701253Y-101961378D01*
X113701253Y-101961378D02*
X113798015Y-101961378D01*
X113798015Y-101961378D02*
X113836720Y-101942025D01*
X113836720Y-101942025D02*
X113856073Y-101922673D01*
X113856073Y-101922673D02*
X113875425Y-101883968D01*
X113875425Y-101883968D02*
X113875425Y-101787206D01*
X113875425Y-101787206D02*
X113856073Y-101748501D01*
X113856073Y-101748501D02*
X113836720Y-101729149D01*
X123189933Y-81905560D02*
X123209285Y-81924913D01*
X123209285Y-81924913D02*
X123267343Y-81944265D01*
X123267343Y-81944265D02*
X123306047Y-81944265D01*
X123306047Y-81944265D02*
X123364104Y-81924913D01*
X123364104Y-81924913D02*
X123402809Y-81886208D01*
X123402809Y-81886208D02*
X123422162Y-81847503D01*
X123422162Y-81847503D02*
X123441514Y-81770093D01*
X123441514Y-81770093D02*
X123441514Y-81712036D01*
X123441514Y-81712036D02*
X123422162Y-81634627D01*
X123422162Y-81634627D02*
X123402809Y-81595922D01*
X123402809Y-81595922D02*
X123364104Y-81557217D01*
X123364104Y-81557217D02*
X123306047Y-81537865D01*
X123306047Y-81537865D02*
X123267343Y-81537865D01*
X123267343Y-81537865D02*
X123209285Y-81557217D01*
X123209285Y-81557217D02*
X123189933Y-81576570D01*
X123035114Y-81576570D02*
X123015762Y-81557217D01*
X123015762Y-81557217D02*
X122977057Y-81537865D01*
X122977057Y-81537865D02*
X122880295Y-81537865D01*
X122880295Y-81537865D02*
X122841590Y-81557217D01*
X122841590Y-81557217D02*
X122822238Y-81576570D01*
X122822238Y-81576570D02*
X122802885Y-81615274D01*
X122802885Y-81615274D02*
X122802885Y-81653979D01*
X122802885Y-81653979D02*
X122822238Y-81712036D01*
X122822238Y-81712036D02*
X123054466Y-81944265D01*
X123054466Y-81944265D02*
X122802885Y-81944265D01*
X113962160Y-91469542D02*
X113981513Y-91450190D01*
X113981513Y-91450190D02*
X114000865Y-91392132D01*
X114000865Y-91392132D02*
X114000865Y-91353428D01*
X114000865Y-91353428D02*
X113981513Y-91295371D01*
X113981513Y-91295371D02*
X113942808Y-91256666D01*
X113942808Y-91256666D02*
X113904103Y-91237313D01*
X113904103Y-91237313D02*
X113826693Y-91217961D01*
X113826693Y-91217961D02*
X113768636Y-91217961D01*
X113768636Y-91217961D02*
X113691227Y-91237313D01*
X113691227Y-91237313D02*
X113652522Y-91256666D01*
X113652522Y-91256666D02*
X113613817Y-91295371D01*
X113613817Y-91295371D02*
X113594465Y-91353428D01*
X113594465Y-91353428D02*
X113594465Y-91392132D01*
X113594465Y-91392132D02*
X113613817Y-91450190D01*
X113613817Y-91450190D02*
X113633170Y-91469542D01*
X113729932Y-91817885D02*
X114000865Y-91817885D01*
X113575113Y-91721123D02*
X113865398Y-91624361D01*
X113865398Y-91624361D02*
X113865398Y-91875942D01*
X113594465Y-91992057D02*
X113594465Y-92262990D01*
X113594465Y-92262990D02*
X114000865Y-92088819D01*
X107187047Y-87193047D02*
X107187047Y-87604285D01*
X107187047Y-87604285D02*
X107162857Y-87652666D01*
X107162857Y-87652666D02*
X107138666Y-87676857D01*
X107138666Y-87676857D02*
X107090285Y-87701047D01*
X107090285Y-87701047D02*
X106993523Y-87701047D01*
X106993523Y-87701047D02*
X106945142Y-87676857D01*
X106945142Y-87676857D02*
X106920952Y-87652666D01*
X106920952Y-87652666D02*
X106896761Y-87604285D01*
X106896761Y-87604285D02*
X106896761Y-87193047D01*
X106437143Y-87193047D02*
X106533905Y-87193047D01*
X106533905Y-87193047D02*
X106582286Y-87217237D01*
X106582286Y-87217237D02*
X106606476Y-87241428D01*
X106606476Y-87241428D02*
X106654857Y-87313999D01*
X106654857Y-87313999D02*
X106679048Y-87410761D01*
X106679048Y-87410761D02*
X106679048Y-87604285D01*
X106679048Y-87604285D02*
X106654857Y-87652666D01*
X106654857Y-87652666D02*
X106630667Y-87676857D01*
X106630667Y-87676857D02*
X106582286Y-87701047D01*
X106582286Y-87701047D02*
X106485524Y-87701047D01*
X106485524Y-87701047D02*
X106437143Y-87676857D01*
X106437143Y-87676857D02*
X106412952Y-87652666D01*
X106412952Y-87652666D02*
X106388762Y-87604285D01*
X106388762Y-87604285D02*
X106388762Y-87483333D01*
X106388762Y-87483333D02*
X106412952Y-87434952D01*
X106412952Y-87434952D02*
X106437143Y-87410761D01*
X106437143Y-87410761D02*
X106485524Y-87386571D01*
X106485524Y-87386571D02*
X106582286Y-87386571D01*
X106582286Y-87386571D02*
X106630667Y-87410761D01*
X106630667Y-87410761D02*
X106654857Y-87434952D01*
X106654857Y-87434952D02*
X106679048Y-87483333D01*
X107187047Y-81843047D02*
X107187047Y-82254285D01*
X107187047Y-82254285D02*
X107162857Y-82302666D01*
X107162857Y-82302666D02*
X107138666Y-82326857D01*
X107138666Y-82326857D02*
X107090285Y-82351047D01*
X107090285Y-82351047D02*
X106993523Y-82351047D01*
X106993523Y-82351047D02*
X106945142Y-82326857D01*
X106945142Y-82326857D02*
X106920952Y-82302666D01*
X106920952Y-82302666D02*
X106896761Y-82254285D01*
X106896761Y-82254285D02*
X106896761Y-81843047D01*
X106412952Y-81843047D02*
X106654857Y-81843047D01*
X106654857Y-81843047D02*
X106679048Y-82084952D01*
X106679048Y-82084952D02*
X106654857Y-82060761D01*
X106654857Y-82060761D02*
X106606476Y-82036571D01*
X106606476Y-82036571D02*
X106485524Y-82036571D01*
X106485524Y-82036571D02*
X106437143Y-82060761D01*
X106437143Y-82060761D02*
X106412952Y-82084952D01*
X106412952Y-82084952D02*
X106388762Y-82133333D01*
X106388762Y-82133333D02*
X106388762Y-82254285D01*
X106388762Y-82254285D02*
X106412952Y-82302666D01*
X106412952Y-82302666D02*
X106437143Y-82326857D01*
X106437143Y-82326857D02*
X106485524Y-82351047D01*
X106485524Y-82351047D02*
X106606476Y-82351047D01*
X106606476Y-82351047D02*
X106654857Y-82326857D01*
X106654857Y-82326857D02*
X106679048Y-82302666D01*
X113951940Y-86142402D02*
X113971293Y-86123050D01*
X113971293Y-86123050D02*
X113990645Y-86064992D01*
X113990645Y-86064992D02*
X113990645Y-86026288D01*
X113990645Y-86026288D02*
X113971293Y-85968231D01*
X113971293Y-85968231D02*
X113932588Y-85929526D01*
X113932588Y-85929526D02*
X113893883Y-85910173D01*
X113893883Y-85910173D02*
X113816473Y-85890821D01*
X113816473Y-85890821D02*
X113758416Y-85890821D01*
X113758416Y-85890821D02*
X113681007Y-85910173D01*
X113681007Y-85910173D02*
X113642302Y-85929526D01*
X113642302Y-85929526D02*
X113603597Y-85968231D01*
X113603597Y-85968231D02*
X113584245Y-86026288D01*
X113584245Y-86026288D02*
X113584245Y-86064992D01*
X113584245Y-86064992D02*
X113603597Y-86123050D01*
X113603597Y-86123050D02*
X113622950Y-86142402D01*
X113719712Y-86490745D02*
X113990645Y-86490745D01*
X113564893Y-86393983D02*
X113855178Y-86297221D01*
X113855178Y-86297221D02*
X113855178Y-86548802D01*
X113584245Y-86877793D02*
X113584245Y-86800383D01*
X113584245Y-86800383D02*
X113603597Y-86761679D01*
X113603597Y-86761679D02*
X113622950Y-86742326D01*
X113622950Y-86742326D02*
X113681007Y-86703621D01*
X113681007Y-86703621D02*
X113758416Y-86684269D01*
X113758416Y-86684269D02*
X113913235Y-86684269D01*
X113913235Y-86684269D02*
X113951940Y-86703621D01*
X113951940Y-86703621D02*
X113971293Y-86722974D01*
X113971293Y-86722974D02*
X113990645Y-86761679D01*
X113990645Y-86761679D02*
X113990645Y-86839088D01*
X113990645Y-86839088D02*
X113971293Y-86877793D01*
X113971293Y-86877793D02*
X113951940Y-86897145D01*
X113951940Y-86897145D02*
X113913235Y-86916498D01*
X113913235Y-86916498D02*
X113816473Y-86916498D01*
X113816473Y-86916498D02*
X113777769Y-86897145D01*
X113777769Y-86897145D02*
X113758416Y-86877793D01*
X113758416Y-86877793D02*
X113739064Y-86839088D01*
X113739064Y-86839088D02*
X113739064Y-86761679D01*
X113739064Y-86761679D02*
X113758416Y-86722974D01*
X113758416Y-86722974D02*
X113777769Y-86703621D01*
X113777769Y-86703621D02*
X113816473Y-86684269D01*
X113291805Y-97218806D02*
X113098281Y-97083339D01*
X113291805Y-96986577D02*
X112885405Y-96986577D01*
X112885405Y-96986577D02*
X112885405Y-97141396D01*
X112885405Y-97141396D02*
X112904757Y-97180101D01*
X112904757Y-97180101D02*
X112924110Y-97199454D01*
X112924110Y-97199454D02*
X112962814Y-97218806D01*
X112962814Y-97218806D02*
X113020872Y-97218806D01*
X113020872Y-97218806D02*
X113059576Y-97199454D01*
X113059576Y-97199454D02*
X113078929Y-97180101D01*
X113078929Y-97180101D02*
X113098281Y-97141396D01*
X113098281Y-97141396D02*
X113098281Y-96986577D01*
X112924110Y-97373625D02*
X112904757Y-97392977D01*
X112904757Y-97392977D02*
X112885405Y-97431682D01*
X112885405Y-97431682D02*
X112885405Y-97528444D01*
X112885405Y-97528444D02*
X112904757Y-97567149D01*
X112904757Y-97567149D02*
X112924110Y-97586501D01*
X112924110Y-97586501D02*
X112962814Y-97605854D01*
X112962814Y-97605854D02*
X113001519Y-97605854D01*
X113001519Y-97605854D02*
X113059576Y-97586501D01*
X113059576Y-97586501D02*
X113291805Y-97354273D01*
X113291805Y-97354273D02*
X113291805Y-97605854D01*
D12*
%TO.C,U12*%
X115350000Y-95916000D02*
X115350000Y-96316000D01*
X115350000Y-102816000D02*
X115350000Y-102116000D01*
X115600000Y-95616000D02*
X116050000Y-95616000D01*
X116050000Y-102816000D02*
X115350000Y-102816000D01*
X121850000Y-95616000D02*
X122550000Y-95616000D01*
X121850000Y-102816000D02*
X122550000Y-102816000D01*
X122550000Y-95616000D02*
X122550000Y-96316000D01*
X122550000Y-102816000D02*
X122550000Y-102116000D01*
X115350000Y-95616000D02*
X115000000Y-95866000D01*
X115000000Y-95366000D01*
X115350000Y-95616000D01*
G36*
X115350000Y-95616000D02*
G01*
X115000000Y-95866000D01*
X115000000Y-95366000D01*
X115350000Y-95616000D01*
G37*
%TO.C,U8*%
X107900000Y-97900000D02*
X107900000Y-98350000D01*
X107900000Y-102100000D02*
X107900000Y-101650000D01*
X108350000Y-97900000D02*
X107900000Y-97900000D01*
X108350000Y-102100000D02*
X107900000Y-102100000D01*
X111650000Y-97900000D02*
X112100000Y-97900000D01*
X111850000Y-102100000D02*
X111650000Y-102100000D01*
X112100000Y-97900000D02*
X112100000Y-98350000D01*
X112100000Y-101800000D02*
X112100000Y-101650000D01*
X112400000Y-102300000D02*
X112100000Y-102100000D01*
X112400000Y-101900000D01*
X112400000Y-102300000D01*
G36*
X112400000Y-102300000D02*
G01*
X112100000Y-102100000D01*
X112400000Y-101900000D01*
X112400000Y-102300000D01*
G37*
%TO.C,U7*%
X107900000Y-92550000D02*
X107900000Y-93000000D01*
X107900000Y-96750000D02*
X107900000Y-96300000D01*
X108350000Y-92550000D02*
X107900000Y-92550000D01*
X108350000Y-96750000D02*
X107900000Y-96750000D01*
X111650000Y-92550000D02*
X112100000Y-92550000D01*
X111850000Y-96750000D02*
X111650000Y-96750000D01*
X112100000Y-92550000D02*
X112100000Y-93000000D01*
X112100000Y-96450000D02*
X112100000Y-96300000D01*
X112400000Y-96950000D02*
X112100000Y-96750000D01*
X112400000Y-96550000D01*
X112400000Y-96950000D01*
G36*
X112400000Y-96950000D02*
G01*
X112100000Y-96750000D01*
X112400000Y-96550000D01*
X112400000Y-96950000D01*
G37*
%TO.C,U9*%
X115900000Y-82800000D02*
X123100000Y-82800000D01*
X123100000Y-92000000D01*
X115900000Y-92000000D01*
X115900000Y-82800000D01*
D13*
X115750000Y-82550000D02*
G75*
G02*
X115550000Y-82550000I-100000J0D01*
G01*
X115550000Y-82550000D02*
G75*
G02*
X115750000Y-82550000I100000J0D01*
G01*
D12*
%TO.C,U6*%
X107900000Y-87200000D02*
X107900000Y-87650000D01*
X107900000Y-91400000D02*
X107900000Y-90950000D01*
X108350000Y-87200000D02*
X107900000Y-87200000D01*
X108350000Y-91400000D02*
X107900000Y-91400000D01*
X111650000Y-87200000D02*
X112100000Y-87200000D01*
X111850000Y-91400000D02*
X111650000Y-91400000D01*
X112100000Y-87200000D02*
X112100000Y-87650000D01*
X112100000Y-91100000D02*
X112100000Y-90950000D01*
X112400000Y-91600000D02*
X112100000Y-91400000D01*
X112400000Y-91200000D01*
X112400000Y-91600000D01*
G36*
X112400000Y-91600000D02*
G01*
X112100000Y-91400000D01*
X112400000Y-91200000D01*
X112400000Y-91600000D01*
G37*
%TO.C,U5*%
X107900000Y-81850000D02*
X107900000Y-82300000D01*
X107900000Y-86050000D02*
X107900000Y-85600000D01*
X108350000Y-81850000D02*
X107900000Y-81850000D01*
X108350000Y-86050000D02*
X107900000Y-86050000D01*
X111650000Y-81850000D02*
X112100000Y-81850000D01*
X111850000Y-86050000D02*
X111650000Y-86050000D01*
X112100000Y-81850000D02*
X112100000Y-82300000D01*
X112100000Y-85750000D02*
X112100000Y-85600000D01*
X112400000Y-86250000D02*
X112100000Y-86050000D01*
X112400000Y-85850000D01*
X112400000Y-86250000D01*
G36*
X112400000Y-86250000D02*
G01*
X112100000Y-86050000D01*
X112400000Y-85850000D01*
X112400000Y-86250000D01*
G37*
D14*
%TO.C,G\u002A\u002A\u002A*%
G36*
X98966698Y-88575170D02*
G01*
X98966687Y-88579392D01*
X98964959Y-88623789D01*
X98960743Y-88654028D01*
X98954695Y-88665199D01*
X98946890Y-88658115D01*
X98942691Y-88635898D01*
X98942118Y-88623811D01*
X98934809Y-88602930D01*
X98921816Y-88604563D01*
X98906616Y-88629340D01*
X98891489Y-88653780D01*
X98867831Y-88665199D01*
X98853050Y-88664029D01*
X98851117Y-88656083D01*
X98863758Y-88634891D01*
X98873856Y-88617920D01*
X98876793Y-88599438D01*
X98865138Y-88578203D01*
X98853083Y-88557464D01*
X98849156Y-88545161D01*
X98888674Y-88545161D01*
X98894566Y-88557191D01*
X98915682Y-88567002D01*
X98916813Y-88567157D01*
X98937208Y-88564411D01*
X98942691Y-88545161D01*
X98942684Y-88544086D01*
X98936750Y-88525540D01*
X98915682Y-88523319D01*
X98898892Y-88529632D01*
X98888674Y-88545161D01*
X98849156Y-88545161D01*
X98846661Y-88537345D01*
X98846724Y-88535413D01*
X98858992Y-88510610D01*
X98887626Y-88492290D01*
X98925543Y-88485142D01*
X98966698Y-88485142D01*
X98966698Y-88545161D01*
X98966698Y-88575170D01*
G37*
G36*
X99055473Y-88589869D02*
G01*
X99044800Y-88636910D01*
X99017452Y-88678137D01*
X98972705Y-88708581D01*
X98936912Y-88721115D01*
X98898713Y-88722604D01*
X98854731Y-88708850D01*
X98812990Y-88681571D01*
X98784382Y-88636897D01*
X98775898Y-88585848D01*
X98791611Y-88585848D01*
X98804102Y-88630715D01*
X98836460Y-88670876D01*
X98846251Y-88678462D01*
X98893683Y-88699190D01*
X98942483Y-88696525D01*
X98989377Y-88670477D01*
X98994905Y-88665593D01*
X99025302Y-88624037D01*
X99035572Y-88578907D01*
X99027542Y-88535142D01*
X99003042Y-88497677D01*
X98963900Y-88471451D01*
X98911944Y-88461401D01*
X98903475Y-88461608D01*
X98854920Y-88474156D01*
X98818863Y-88502454D01*
X98797146Y-88541390D01*
X98791611Y-88585848D01*
X98775898Y-88585848D01*
X98774638Y-88578264D01*
X98775890Y-88557658D01*
X98792976Y-88504814D01*
X98827330Y-88465709D01*
X98875446Y-88443371D01*
X98933821Y-88440826D01*
X98945828Y-88442915D01*
X98994646Y-88463537D01*
X99029674Y-88498215D01*
X99050190Y-88541982D01*
X99054264Y-88578907D01*
X99055473Y-88589869D01*
G37*
G36*
X103661439Y-87043136D02*
G01*
X103631043Y-87296768D01*
X103612437Y-87406378D01*
X103579723Y-87545065D01*
X103537380Y-87668589D01*
X103482989Y-87781761D01*
X103414129Y-87889394D01*
X103328381Y-87996297D01*
X103223324Y-88107282D01*
X103195062Y-88134865D01*
X103095499Y-88224383D01*
X102992318Y-88304485D01*
X102882135Y-88377096D01*
X102761569Y-88444144D01*
X102627237Y-88507555D01*
X102475758Y-88569256D01*
X102303749Y-88631175D01*
X102264306Y-88644258D01*
X102086685Y-88694982D01*
X101893547Y-88738345D01*
X101691130Y-88773233D01*
X101485677Y-88798533D01*
X101283428Y-88813133D01*
X101177473Y-88816925D01*
X100914010Y-88818067D01*
X100657957Y-88807402D01*
X100412169Y-88785231D01*
X100179502Y-88751857D01*
X99962810Y-88707581D01*
X99764950Y-88652703D01*
X99717005Y-88636913D01*
X99617272Y-88601788D01*
X99514672Y-88563035D01*
X99414378Y-88522763D01*
X99321560Y-88483079D01*
X99241391Y-88446092D01*
X99179042Y-88413908D01*
X99089696Y-88360677D01*
X98932689Y-88250791D01*
X98791943Y-88129903D01*
X98668979Y-87999709D01*
X98565322Y-87861906D01*
X98482495Y-87718193D01*
X98422019Y-87570265D01*
X98398622Y-87484943D01*
X98376296Y-87372656D01*
X98357433Y-87243884D01*
X98342210Y-87102443D01*
X98330805Y-86952148D01*
X98324930Y-86828994D01*
X99643753Y-86828994D01*
X99644116Y-86955201D01*
X99646033Y-87069910D01*
X99649613Y-87169860D01*
X99656935Y-87299917D01*
X99667826Y-87436234D01*
X99681866Y-87553710D01*
X99699954Y-87655137D01*
X99722990Y-87743306D01*
X99751874Y-87821011D01*
X99787506Y-87891042D01*
X99830785Y-87956191D01*
X99882611Y-88019252D01*
X99943884Y-88083015D01*
X99964738Y-88103070D01*
X100100064Y-88215283D01*
X100247403Y-88307810D01*
X100407802Y-88381143D01*
X100582309Y-88435775D01*
X100771968Y-88472198D01*
X100780709Y-88473377D01*
X100914042Y-88483819D01*
X101059195Y-88482985D01*
X101207760Y-88471503D01*
X101351328Y-88450003D01*
X101481490Y-88419114D01*
X101504162Y-88412231D01*
X101636443Y-88362808D01*
X101764146Y-88299966D01*
X101884037Y-88226112D01*
X101992881Y-88143655D01*
X102087442Y-88055003D01*
X102164488Y-87962563D01*
X102220783Y-87868744D01*
X102254249Y-87789838D01*
X102297953Y-87645769D01*
X102328214Y-87482826D01*
X102332181Y-87448441D01*
X102338181Y-87370323D01*
X102342861Y-87272984D01*
X102346248Y-87159461D01*
X102348365Y-87032791D01*
X102349239Y-86896010D01*
X102348893Y-86752158D01*
X102347353Y-86604270D01*
X102344643Y-86455385D01*
X102340790Y-86308539D01*
X102335816Y-86166770D01*
X102329748Y-86033115D01*
X102322611Y-85910612D01*
X102314428Y-85802297D01*
X102300477Y-85695117D01*
X102264905Y-85553793D01*
X102210040Y-85424960D01*
X102134822Y-85306291D01*
X102038191Y-85195459D01*
X101956366Y-85121629D01*
X101823241Y-85027511D01*
X101673827Y-84948508D01*
X101510185Y-84885510D01*
X101334375Y-84839407D01*
X101148457Y-84811088D01*
X101126221Y-84809029D01*
X100950285Y-84804471D01*
X100772367Y-84819536D01*
X100596675Y-84853216D01*
X100427421Y-84904505D01*
X100268813Y-84972396D01*
X100125063Y-85055881D01*
X100036953Y-85122563D01*
X99938362Y-85216820D01*
X99852775Y-85321250D01*
X99782825Y-85432120D01*
X99731143Y-85545698D01*
X99700361Y-85658252D01*
X99692304Y-85713998D01*
X99683617Y-85796886D01*
X99675497Y-85897636D01*
X99668055Y-86012986D01*
X99661399Y-86139673D01*
X99655639Y-86274435D01*
X99650886Y-86414010D01*
X99647247Y-86555137D01*
X99644833Y-86694552D01*
X99643753Y-86828994D01*
X98324930Y-86828994D01*
X98323395Y-86796815D01*
X98320158Y-86640259D01*
X98321273Y-86486296D01*
X98326916Y-86338741D01*
X98337265Y-86201409D01*
X98352499Y-86078116D01*
X98354856Y-86063043D01*
X98382989Y-85908052D01*
X98415927Y-85766426D01*
X98452901Y-85640809D01*
X98493140Y-85533847D01*
X98535873Y-85448185D01*
X98569213Y-85394448D01*
X98669880Y-85258699D01*
X98788109Y-85133737D01*
X98924539Y-85019202D01*
X99079807Y-84914733D01*
X99254553Y-84819969D01*
X99449414Y-84734550D01*
X99665029Y-84658116D01*
X99902036Y-84590307D01*
X100161075Y-84530762D01*
X100185921Y-84525766D01*
X100418907Y-84488472D01*
X100665668Y-84464801D01*
X100920850Y-84454698D01*
X101179100Y-84458108D01*
X101435063Y-84474976D01*
X101683385Y-84505246D01*
X101918712Y-84548863D01*
X102084514Y-84588091D01*
X102308414Y-84650586D01*
X102511362Y-84719745D01*
X102694793Y-84796252D01*
X102860142Y-84880792D01*
X103008842Y-84974048D01*
X103142328Y-85076704D01*
X103262035Y-85189444D01*
X103273948Y-85201956D01*
X103363410Y-85304674D01*
X103435691Y-85406817D01*
X103494144Y-85514456D01*
X103542122Y-85633661D01*
X103582979Y-85770506D01*
X103603159Y-85854169D01*
X103642475Y-86069528D01*
X103668074Y-86299666D01*
X103679842Y-86541022D01*
X103677667Y-86790033D01*
X103670872Y-86896010D01*
X103661439Y-87043136D01*
G37*
G36*
X100811040Y-92097952D02*
G01*
X101000001Y-92097954D01*
X101151662Y-92097956D01*
X101330727Y-92097967D01*
X101498684Y-92097988D01*
X101655898Y-92098020D01*
X101802734Y-92098066D01*
X101939557Y-92098126D01*
X102066731Y-92098203D01*
X102184621Y-92098298D01*
X102293592Y-92098411D01*
X102394009Y-92098546D01*
X102486236Y-92098704D01*
X102570638Y-92098885D01*
X102647581Y-92099092D01*
X102717428Y-92099326D01*
X102780545Y-92099589D01*
X102837297Y-92099882D01*
X102888047Y-92100206D01*
X102933162Y-92100564D01*
X102973005Y-92100957D01*
X103007942Y-92101387D01*
X103038337Y-92101854D01*
X103064555Y-92102361D01*
X103086961Y-92102909D01*
X103105920Y-92103500D01*
X103121796Y-92104135D01*
X103134955Y-92104816D01*
X103145760Y-92105543D01*
X103154577Y-92106320D01*
X103161771Y-92107147D01*
X103163317Y-92107351D01*
X103251087Y-92121762D01*
X103331247Y-92141146D01*
X103407201Y-92166475D01*
X103482353Y-92198720D01*
X103505459Y-92210111D01*
X103592005Y-92260854D01*
X103671742Y-92320798D01*
X103744044Y-92389219D01*
X103808283Y-92465397D01*
X103863833Y-92548609D01*
X103910067Y-92638133D01*
X103946358Y-92733248D01*
X103950462Y-92746244D01*
X103960737Y-92780273D01*
X103969505Y-92812395D01*
X103976881Y-92843853D01*
X103982983Y-92875889D01*
X103987929Y-92909746D01*
X103991834Y-92946667D01*
X103994818Y-92987894D01*
X103996996Y-93034670D01*
X103998486Y-93088239D01*
X103999406Y-93149841D01*
X103999871Y-93220721D01*
X104000000Y-93302121D01*
X104000000Y-93597954D01*
X103823530Y-93597954D01*
X103647059Y-93597954D01*
X103647059Y-93331328D01*
X103647034Y-93306418D01*
X103646768Y-93246775D01*
X103646236Y-93189961D01*
X103645467Y-93137465D01*
X103644490Y-93090776D01*
X103643334Y-93051384D01*
X103642028Y-93020777D01*
X103640602Y-93000446D01*
X103638600Y-92982407D01*
X103622788Y-92893962D01*
X103597900Y-92812939D01*
X103564148Y-92739549D01*
X103521745Y-92674004D01*
X103470902Y-92616516D01*
X103411831Y-92567297D01*
X103344745Y-92526560D01*
X103269854Y-92494515D01*
X103187371Y-92471375D01*
X103097508Y-92457352D01*
X103089979Y-92456913D01*
X103069855Y-92456336D01*
X103038876Y-92455785D01*
X102997567Y-92455262D01*
X102946456Y-92454767D01*
X102886067Y-92454298D01*
X102816928Y-92453857D01*
X102739564Y-92453444D01*
X102654501Y-92453057D01*
X102562265Y-92452698D01*
X102463383Y-92452366D01*
X102358380Y-92452062D01*
X102247782Y-92451785D01*
X102132115Y-92451535D01*
X102011906Y-92451313D01*
X101887680Y-92451118D01*
X101759964Y-92450950D01*
X101629284Y-92450810D01*
X101496165Y-92450697D01*
X101361133Y-92450611D01*
X101224715Y-92450553D01*
X101087437Y-92450522D01*
X100949825Y-92450518D01*
X100812405Y-92450542D01*
X100675702Y-92450593D01*
X100540243Y-92450671D01*
X100406554Y-92450777D01*
X100275161Y-92450910D01*
X100146590Y-92451070D01*
X100021367Y-92451257D01*
X99900018Y-92451472D01*
X99783069Y-92451715D01*
X99671047Y-92451984D01*
X99564476Y-92452281D01*
X99463884Y-92452606D01*
X99369796Y-92452957D01*
X99282738Y-92453336D01*
X99203237Y-92453742D01*
X99131818Y-92454176D01*
X99069007Y-92454637D01*
X99015331Y-92455125D01*
X98971316Y-92455641D01*
X98937487Y-92456184D01*
X98914370Y-92456754D01*
X98902493Y-92457352D01*
X98884454Y-92459354D01*
X98796009Y-92475166D01*
X98714986Y-92500054D01*
X98641596Y-92533806D01*
X98576051Y-92576209D01*
X98518563Y-92627052D01*
X98469344Y-92686123D01*
X98428607Y-92753209D01*
X98396562Y-92828100D01*
X98373422Y-92910583D01*
X98359399Y-93000446D01*
X98358802Y-93007438D01*
X98357421Y-93032160D01*
X98356174Y-93066547D01*
X98355088Y-93109109D01*
X98354192Y-93158357D01*
X98353517Y-93212803D01*
X98353090Y-93270956D01*
X98352942Y-93331328D01*
X98352942Y-93597954D01*
X98176471Y-93597954D01*
X98000000Y-93597954D01*
X98000000Y-93302121D01*
X98000106Y-93225543D01*
X98000472Y-93158540D01*
X98001170Y-93100859D01*
X98002270Y-93051271D01*
X98003842Y-93008548D01*
X98005956Y-92971462D01*
X98008683Y-92938785D01*
X98012092Y-92909288D01*
X98016253Y-92881745D01*
X98021238Y-92854926D01*
X98027115Y-92827604D01*
X98050518Y-92743426D01*
X98083926Y-92654836D01*
X98124801Y-92569726D01*
X98171530Y-92491843D01*
X98186587Y-92470768D01*
X98220196Y-92429342D01*
X98259430Y-92386360D01*
X98301423Y-92344741D01*
X98343307Y-92307405D01*
X98382216Y-92277272D01*
X98407167Y-92260516D01*
X98481356Y-92217605D01*
X98562161Y-92179713D01*
X98646090Y-92148368D01*
X98729651Y-92125101D01*
X98734543Y-92123978D01*
X98744480Y-92121660D01*
X98753876Y-92119484D01*
X98763102Y-92117445D01*
X98772533Y-92115539D01*
X98782540Y-92113761D01*
X98793497Y-92112107D01*
X98805777Y-92110572D01*
X98819752Y-92109153D01*
X98835796Y-92107843D01*
X98854282Y-92106640D01*
X98875582Y-92105538D01*
X98900069Y-92104533D01*
X98928117Y-92103621D01*
X98960097Y-92102796D01*
X98996384Y-92102056D01*
X99037351Y-92101395D01*
X99083369Y-92100808D01*
X99134812Y-92100292D01*
X99192053Y-92099842D01*
X99255464Y-92099453D01*
X99325420Y-92099120D01*
X99402292Y-92098841D01*
X99486453Y-92098609D01*
X99578278Y-92098421D01*
X99678137Y-92098272D01*
X99786405Y-92098158D01*
X99903454Y-92098073D01*
X100029658Y-92098015D01*
X100165388Y-92097977D01*
X100311019Y-92097957D01*
X100466922Y-92097950D01*
X100633472Y-92097949D01*
X100811040Y-92097952D01*
G37*
G36*
X102976471Y-95100561D02*
G01*
X102976471Y-96085522D01*
X102963398Y-96094679D01*
X102961960Y-96095610D01*
X102953719Y-96098989D01*
X102940965Y-96101344D01*
X102921887Y-96102833D01*
X102894674Y-96103611D01*
X102857515Y-96103836D01*
X102764706Y-96103836D01*
X102764706Y-96262659D01*
X102764706Y-96421483D01*
X102588236Y-96421483D01*
X102411765Y-96421483D01*
X102411765Y-96262659D01*
X102411765Y-96103836D01*
X102323530Y-96103836D01*
X102235295Y-96103836D01*
X102235295Y-96262659D01*
X102235295Y-96421483D01*
X101794118Y-96421483D01*
X101352942Y-96421483D01*
X101352942Y-96262659D01*
X101352942Y-96103836D01*
X101000000Y-96103836D01*
X100647059Y-96103836D01*
X100647059Y-96262659D01*
X100647059Y-96421483D01*
X100205883Y-96421483D01*
X99764706Y-96421483D01*
X99764706Y-96262659D01*
X99764706Y-96103836D01*
X99676471Y-96103836D01*
X99588236Y-96103836D01*
X99588236Y-96262659D01*
X99588236Y-96421483D01*
X99411765Y-96421483D01*
X99235295Y-96421483D01*
X99235295Y-96262659D01*
X99235295Y-96103836D01*
X99142486Y-96103836D01*
X99133034Y-96103825D01*
X99098304Y-96103488D01*
X99073108Y-96102561D01*
X99055634Y-96100889D01*
X99044069Y-96098313D01*
X99036603Y-96094679D01*
X99023530Y-96085522D01*
X99023530Y-95100561D01*
X99023530Y-95070228D01*
X99023533Y-94946831D01*
X99023544Y-94834543D01*
X99023571Y-94732834D01*
X99023619Y-94641173D01*
X99023695Y-94559028D01*
X99023805Y-94485869D01*
X99023955Y-94421163D01*
X99024151Y-94364380D01*
X99024401Y-94314989D01*
X99024709Y-94272458D01*
X99025083Y-94236256D01*
X99025528Y-94205853D01*
X99026051Y-94180715D01*
X99026588Y-94162659D01*
X99094118Y-94162659D01*
X99094118Y-95097954D01*
X99094118Y-96033248D01*
X99164706Y-96033248D01*
X99235295Y-96033248D01*
X99235295Y-95212659D01*
X99235295Y-94392071D01*
X99411765Y-94392071D01*
X99588236Y-94392071D01*
X99588236Y-95212659D01*
X99588236Y-96033248D01*
X99676471Y-96033248D01*
X99764706Y-96033248D01*
X100647059Y-96033248D01*
X101000000Y-96033248D01*
X101352942Y-96033248D01*
X102235295Y-96033248D01*
X102323530Y-96033248D01*
X102411765Y-96033248D01*
X102411765Y-95212659D01*
X102411765Y-94392071D01*
X102588236Y-94392071D01*
X102764706Y-94392071D01*
X102764706Y-95212659D01*
X102764706Y-96033248D01*
X102835295Y-96033248D01*
X102905883Y-96033248D01*
X102905883Y-95097954D01*
X102905883Y-94162659D01*
X102570589Y-94162659D01*
X102235295Y-94162659D01*
X102235295Y-95097954D01*
X102235295Y-96033248D01*
X101352942Y-96033248D01*
X101352942Y-95097954D01*
X101352942Y-94162659D01*
X101264706Y-94162659D01*
X101176471Y-94162659D01*
X101176471Y-94983248D01*
X101176471Y-95803836D01*
X101000000Y-95803836D01*
X100823530Y-95803836D01*
X100823530Y-94983248D01*
X100823530Y-94162659D01*
X100735295Y-94162659D01*
X100647059Y-94162659D01*
X100647059Y-95097954D01*
X100647059Y-96033248D01*
X99764706Y-96033248D01*
X99764706Y-95097954D01*
X99764706Y-94162659D01*
X99429412Y-94162659D01*
X99094118Y-94162659D01*
X99026588Y-94162659D01*
X99026658Y-94160314D01*
X99027355Y-94144117D01*
X99028149Y-94131593D01*
X99029046Y-94122210D01*
X99030053Y-94115439D01*
X99031174Y-94110747D01*
X99032418Y-94107603D01*
X99033789Y-94105477D01*
X99035295Y-94103836D01*
X99035878Y-94103261D01*
X99038676Y-94100921D01*
X99042458Y-94098932D01*
X99048121Y-94097266D01*
X99056563Y-94095894D01*
X99068684Y-94094788D01*
X99085381Y-94093918D01*
X99107553Y-94093257D01*
X99136099Y-94092776D01*
X99171918Y-94092446D01*
X99215907Y-94092239D01*
X99268965Y-94092127D01*
X99331991Y-94092080D01*
X99405883Y-94092071D01*
X99764706Y-94092071D01*
X99764706Y-94021483D01*
X99764706Y-93950895D01*
X99500000Y-93950895D01*
X99235295Y-93950895D01*
X99235295Y-93862659D01*
X99235295Y-93774424D01*
X99941177Y-93774424D01*
X100647059Y-93774424D01*
X100647059Y-93933248D01*
X100647059Y-94092071D01*
X100735295Y-94092071D01*
X100823530Y-94092071D01*
X100823530Y-93933248D01*
X100823530Y-93774424D01*
X101000000Y-93774424D01*
X101176471Y-93774424D01*
X101176471Y-93933248D01*
X101176471Y-94092071D01*
X101264706Y-94092071D01*
X101352942Y-94092071D01*
X101352942Y-93933248D01*
X101352942Y-93774424D01*
X102058824Y-93774424D01*
X102764706Y-93774424D01*
X102764706Y-93862659D01*
X102764706Y-93950895D01*
X102500000Y-93950895D01*
X102235295Y-93950895D01*
X102235295Y-94021483D01*
X102235295Y-94092071D01*
X102594118Y-94092071D01*
X102611645Y-94092071D01*
X102683027Y-94092086D01*
X102743745Y-94092145D01*
X102794695Y-94092276D01*
X102836777Y-94092508D01*
X102870890Y-94092869D01*
X102897932Y-94093388D01*
X102918801Y-94094093D01*
X102934396Y-94095014D01*
X102945615Y-94096177D01*
X102953357Y-94097613D01*
X102958521Y-94099349D01*
X102962004Y-94101413D01*
X102964706Y-94103836D01*
X102965069Y-94104202D01*
X102966543Y-94105908D01*
X102967884Y-94108224D01*
X102969098Y-94111680D01*
X102970192Y-94116808D01*
X102971173Y-94124139D01*
X102972045Y-94134204D01*
X102972816Y-94147535D01*
X102973492Y-94164662D01*
X102974079Y-94186117D01*
X102974583Y-94212431D01*
X102975011Y-94244135D01*
X102975369Y-94281761D01*
X102975663Y-94325839D01*
X102975900Y-94376901D01*
X102976085Y-94435478D01*
X102976225Y-94502102D01*
X102976326Y-94577302D01*
X102976395Y-94661612D01*
X102976438Y-94755561D01*
X102976460Y-94859682D01*
X102976469Y-94974505D01*
X102976471Y-95097954D01*
X102976471Y-95100561D01*
G37*
G36*
X98354600Y-95670012D02*
G01*
X98354702Y-95751665D01*
X98354900Y-95906104D01*
X98355097Y-96049421D01*
X98355295Y-96182043D01*
X98355497Y-96304397D01*
X98355706Y-96416913D01*
X98355926Y-96520017D01*
X98356159Y-96614138D01*
X98356410Y-96699704D01*
X98356680Y-96777142D01*
X98356973Y-96846880D01*
X98357292Y-96909345D01*
X98357641Y-96964967D01*
X98358022Y-97014172D01*
X98358439Y-97057389D01*
X98358895Y-97095046D01*
X98359393Y-97127569D01*
X98359935Y-97155387D01*
X98360526Y-97178929D01*
X98361168Y-97198621D01*
X98361865Y-97214891D01*
X98362619Y-97228168D01*
X98363434Y-97238880D01*
X98364313Y-97247453D01*
X98365259Y-97254316D01*
X98366275Y-97259897D01*
X98373819Y-97293071D01*
X98399818Y-97377120D01*
X98433909Y-97452632D01*
X98476048Y-97519566D01*
X98526188Y-97577882D01*
X98584286Y-97627540D01*
X98650297Y-97668498D01*
X98724175Y-97700717D01*
X98805877Y-97724156D01*
X98895357Y-97738775D01*
X98904710Y-97739290D01*
X98925920Y-97739849D01*
X98957909Y-97740380D01*
X99000152Y-97740884D01*
X99052126Y-97741361D01*
X99113306Y-97741811D01*
X99183170Y-97742234D01*
X99261193Y-97742630D01*
X99346852Y-97742999D01*
X99439623Y-97743341D01*
X99538982Y-97743657D01*
X99644405Y-97743945D01*
X99755369Y-97744206D01*
X99871350Y-97744441D01*
X99991824Y-97744649D01*
X100116267Y-97744830D01*
X100244156Y-97744984D01*
X100374967Y-97745112D01*
X100508176Y-97745212D01*
X100643259Y-97745287D01*
X100779692Y-97745334D01*
X100916953Y-97745355D01*
X101054517Y-97745349D01*
X101191860Y-97745317D01*
X101328458Y-97745259D01*
X101463788Y-97745173D01*
X101597327Y-97745062D01*
X101728549Y-97744923D01*
X101856932Y-97744759D01*
X101981952Y-97744568D01*
X102103085Y-97744351D01*
X102219807Y-97744107D01*
X102331595Y-97743837D01*
X102437924Y-97743541D01*
X102538271Y-97743218D01*
X102632113Y-97742870D01*
X102718925Y-97742495D01*
X102798184Y-97742093D01*
X102869366Y-97741666D01*
X102931947Y-97741213D01*
X102985403Y-97740733D01*
X103029211Y-97740228D01*
X103062847Y-97739696D01*
X103085788Y-97739139D01*
X103097508Y-97738555D01*
X103115547Y-97736553D01*
X103203992Y-97720741D01*
X103285015Y-97695853D01*
X103358405Y-97662101D01*
X103423950Y-97619698D01*
X103481438Y-97568855D01*
X103530657Y-97509784D01*
X103571394Y-97442698D01*
X103603439Y-97367807D01*
X103626579Y-97285324D01*
X103640602Y-97195461D01*
X103640683Y-97194602D01*
X103641442Y-97181393D01*
X103642149Y-97159192D01*
X103642805Y-97127825D01*
X103643411Y-97087120D01*
X103643968Y-97036903D01*
X103644476Y-96977000D01*
X103644936Y-96907239D01*
X103645349Y-96827446D01*
X103645716Y-96737448D01*
X103646037Y-96637071D01*
X103646312Y-96526143D01*
X103646544Y-96404490D01*
X103646731Y-96271938D01*
X103646876Y-96128315D01*
X103646978Y-95973448D01*
X103647039Y-95807162D01*
X103647059Y-95629285D01*
X103647059Y-94127365D01*
X103823530Y-94127365D01*
X104000000Y-94127365D01*
X104000000Y-95658492D01*
X104000000Y-95700024D01*
X104000001Y-95858760D01*
X104000000Y-96006284D01*
X103999987Y-96143040D01*
X103999956Y-96269469D01*
X103999901Y-96386013D01*
X103999813Y-96493117D01*
X103999687Y-96591221D01*
X103999515Y-96680768D01*
X103999290Y-96762202D01*
X103999005Y-96835963D01*
X103998654Y-96902496D01*
X103998228Y-96962241D01*
X103997722Y-97015643D01*
X103997127Y-97063142D01*
X103996438Y-97105182D01*
X103995646Y-97142206D01*
X103994746Y-97174655D01*
X103993730Y-97202972D01*
X103992590Y-97227600D01*
X103991321Y-97248981D01*
X103989914Y-97267557D01*
X103988364Y-97283771D01*
X103986662Y-97298066D01*
X103984802Y-97310884D01*
X103982777Y-97322667D01*
X103980580Y-97333858D01*
X103978204Y-97344900D01*
X103975641Y-97356234D01*
X103972886Y-97368303D01*
X103955686Y-97433268D01*
X103922223Y-97527299D01*
X103880055Y-97617570D01*
X103830543Y-97700895D01*
X103820770Y-97714969D01*
X103784830Y-97760760D01*
X103742491Y-97807728D01*
X103696665Y-97852946D01*
X103650263Y-97893487D01*
X103606196Y-97926424D01*
X103575221Y-97946387D01*
X103482203Y-97997034D01*
X103383386Y-98037567D01*
X103278594Y-98068053D01*
X103167648Y-98088556D01*
X103165340Y-98088840D01*
X103157191Y-98089554D01*
X103145766Y-98090227D01*
X103130723Y-98090859D01*
X103111724Y-98091451D01*
X103088428Y-98092006D01*
X103060498Y-98092523D01*
X103027592Y-98093005D01*
X102989373Y-98093453D01*
X102945499Y-98093869D01*
X102895632Y-98094253D01*
X102839432Y-98094607D01*
X102776560Y-98094933D01*
X102706676Y-98095232D01*
X102629441Y-98095504D01*
X102544514Y-98095752D01*
X102451558Y-98095978D01*
X102350232Y-98096181D01*
X102240196Y-98096364D01*
X102121112Y-98096528D01*
X101992639Y-98096675D01*
X101854439Y-98096805D01*
X101706171Y-98096920D01*
X101547497Y-98097022D01*
X101378076Y-98097112D01*
X101197570Y-98097191D01*
X101005639Y-98097260D01*
X100913955Y-98097291D01*
X100729460Y-98097360D01*
X100556180Y-98097428D01*
X100393745Y-98097490D01*
X100241781Y-98097539D01*
X100099918Y-98097570D01*
X99967783Y-98097578D01*
X99845005Y-98097557D01*
X99731210Y-98097501D01*
X99626028Y-98097404D01*
X99529086Y-98097262D01*
X99440012Y-98097068D01*
X99358435Y-98096817D01*
X99283982Y-98096503D01*
X99216281Y-98096120D01*
X99154961Y-98095664D01*
X99099649Y-98095127D01*
X99049974Y-98094505D01*
X99005564Y-98093793D01*
X98966046Y-98092983D01*
X98931049Y-98092071D01*
X98900200Y-98091052D01*
X98873128Y-98089918D01*
X98849461Y-98088666D01*
X98828826Y-98087288D01*
X98810853Y-98085781D01*
X98795168Y-98084137D01*
X98781400Y-98082351D01*
X98769177Y-98080418D01*
X98758126Y-98078333D01*
X98747877Y-98076088D01*
X98738057Y-98073680D01*
X98728294Y-98071101D01*
X98718215Y-98068347D01*
X98707450Y-98065412D01*
X98695626Y-98062290D01*
X98606077Y-98035013D01*
X98513601Y-97996477D01*
X98427945Y-97948869D01*
X98348219Y-97891686D01*
X98273530Y-97824424D01*
X98267383Y-97818219D01*
X98200358Y-97741773D01*
X98142937Y-97658759D01*
X98095011Y-97568977D01*
X98056470Y-97472225D01*
X98027208Y-97368303D01*
X98026489Y-97365176D01*
X98023775Y-97353421D01*
X98021252Y-97342282D01*
X98018914Y-97331315D01*
X98016754Y-97320079D01*
X98014765Y-97308133D01*
X98012940Y-97295033D01*
X98011272Y-97280337D01*
X98009754Y-97263604D01*
X98008378Y-97244391D01*
X98007138Y-97222256D01*
X98006026Y-97196758D01*
X98005036Y-97167453D01*
X98004161Y-97133900D01*
X98003394Y-97095656D01*
X98002726Y-97052280D01*
X98002153Y-97003329D01*
X98001665Y-96948361D01*
X98001258Y-96886934D01*
X98000922Y-96818606D01*
X98000652Y-96742935D01*
X98000440Y-96659478D01*
X98000280Y-96567794D01*
X98000163Y-96467440D01*
X98000084Y-96357974D01*
X98000035Y-96238954D01*
X98000010Y-96109938D01*
X98000000Y-95970484D01*
X97999999Y-95820149D01*
X98000000Y-95658492D01*
X98000000Y-94127365D01*
X98176353Y-94127365D01*
X98352706Y-94127365D01*
X98354600Y-95670012D01*
G37*
%TD*%
%LPC*%
D15*
%TO.C,S5*%
X103246980Y-101283400D03*
X100996980Y-82723400D03*
%TD*%
D16*
%TO.C,REF0*%
X120622500Y-81188000D03*
%TD*%
%TO.C,GND1*%
X124315000Y-81188000D03*
%TD*%
D17*
%TO.C,C3*%
X124270760Y-90507460D03*
X123630760Y-90507460D03*
%TD*%
D18*
%TO.C,C44*%
X113813660Y-81930000D03*
X113813660Y-82570000D03*
%TD*%
D17*
%TO.C,R11*%
X120338640Y-103733600D03*
X119698640Y-103733600D03*
%TD*%
D19*
%TO.C,R12*%
X123435300Y-98191700D03*
X123435300Y-97551700D03*
%TD*%
%TO.C,R39*%
X123435300Y-96723160D03*
X123435300Y-96083160D03*
%TD*%
D18*
%TO.C,R3*%
X113111280Y-92630000D03*
X113111280Y-93270000D03*
%TD*%
D17*
%TO.C,C9*%
X115840000Y-94033020D03*
X115200000Y-94033020D03*
%TD*%
%TO.C,C1*%
X124270760Y-91209680D03*
X123630760Y-91209680D03*
%TD*%
%TO.C,C10*%
X115840000Y-94733440D03*
X115200000Y-94733440D03*
%TD*%
D20*
%TO.C,U12*%
X116450000Y-95666000D03*
X116950000Y-95666000D03*
X117450000Y-95666000D03*
X117950000Y-95666000D03*
X118450000Y-95666000D03*
X118950000Y-95666000D03*
X119450000Y-95666000D03*
X119950000Y-95666000D03*
X120450000Y-95666000D03*
X120950000Y-95666000D03*
X121450000Y-95666000D03*
D21*
X122500000Y-96716000D03*
X122500000Y-97216000D03*
X122500000Y-97716000D03*
X122500000Y-98216000D03*
X122500000Y-98716000D03*
X122500000Y-99216000D03*
X122500000Y-99716000D03*
X122500000Y-100216000D03*
X122500000Y-100716000D03*
X122500000Y-101216000D03*
X122500000Y-101716000D03*
D20*
X121450000Y-102766000D03*
X120950000Y-102766000D03*
X120450000Y-102766000D03*
X119950000Y-102766000D03*
X119450000Y-102766000D03*
X118950000Y-102766000D03*
X118450000Y-102766000D03*
X117950000Y-102766000D03*
X117450000Y-102766000D03*
X116950000Y-102766000D03*
X116450000Y-102766000D03*
D21*
X115400000Y-101716000D03*
X115400000Y-101216000D03*
X115400000Y-100716000D03*
X115400000Y-100216000D03*
X115400000Y-99716000D03*
X115400000Y-99216000D03*
X115400000Y-98716000D03*
X115400000Y-98216000D03*
X115400000Y-97716000D03*
X115400000Y-97216000D03*
X115400000Y-96716000D03*
D22*
X118950000Y-99216000D03*
%TD*%
D18*
%TO.C,R4*%
X113111280Y-87280000D03*
X113111280Y-87920000D03*
%TD*%
D23*
%TO.C,U8*%
X111250000Y-101937500D03*
X110750000Y-101937500D03*
X110250000Y-101937500D03*
X109750000Y-101937500D03*
X109250000Y-101937500D03*
X108750000Y-101937500D03*
D24*
X108062500Y-101250000D03*
X108062500Y-100750000D03*
X108062500Y-100250000D03*
X108062500Y-99750000D03*
X108062500Y-99250000D03*
X108062500Y-98750000D03*
D23*
X108750000Y-98062500D03*
X109250000Y-98062500D03*
X109750000Y-98062500D03*
X110250000Y-98062500D03*
X110750000Y-98062500D03*
X111250000Y-98062500D03*
D24*
X111937500Y-98750000D03*
X111937500Y-99250000D03*
X111937500Y-99750000D03*
X111937500Y-100250000D03*
X111937500Y-100750000D03*
X111937500Y-101250000D03*
D25*
X110000000Y-100000000D03*
%TD*%
D19*
%TO.C,R13*%
X123435300Y-99593780D03*
X123435300Y-98953780D03*
%TD*%
D17*
%TO.C,C7*%
X118785600Y-103733600D03*
X118145600Y-103733600D03*
%TD*%
%TO.C,C8*%
X121884400Y-103733600D03*
X121244400Y-103733600D03*
%TD*%
D19*
%TO.C,R15*%
X123435300Y-100995020D03*
X123435300Y-100355020D03*
%TD*%
D18*
%TO.C,R5*%
X113111280Y-81930000D03*
X113111280Y-82570000D03*
%TD*%
D26*
%TO.C,R10*%
X123630760Y-89807140D03*
X124270760Y-89807140D03*
%TD*%
D23*
%TO.C,U7*%
X111250000Y-96587500D03*
X110750000Y-96587500D03*
X110250000Y-96587500D03*
X109750000Y-96587500D03*
X109250000Y-96587500D03*
X108750000Y-96587500D03*
D24*
X108062500Y-95900000D03*
X108062500Y-95400000D03*
X108062500Y-94900000D03*
X108062500Y-94400000D03*
X108062500Y-93900000D03*
X108062500Y-93400000D03*
D23*
X108750000Y-92712500D03*
X109250000Y-92712500D03*
X109750000Y-92712500D03*
X110250000Y-92712500D03*
X110750000Y-92712500D03*
X111250000Y-92712500D03*
D24*
X111937500Y-93400000D03*
X111937500Y-93900000D03*
X111937500Y-94400000D03*
X111937500Y-94900000D03*
X111937500Y-95400000D03*
X111937500Y-95900000D03*
D25*
X110000000Y-94650000D03*
%TD*%
D27*
%TO.C,U9*%
X116500000Y-83400000D03*
X116500000Y-83900000D03*
X116500000Y-84400000D03*
X116500000Y-84900000D03*
X116500000Y-85400000D03*
X116500000Y-85900000D03*
X116500000Y-86400000D03*
X116500000Y-86900000D03*
X116500000Y-87400000D03*
X116500000Y-87900000D03*
X116500000Y-88400000D03*
X116500000Y-88900000D03*
X116500000Y-89400000D03*
X116500000Y-89900000D03*
X116500000Y-90400000D03*
X116500000Y-90900000D03*
X116500000Y-91400000D03*
X117000000Y-83400000D03*
X117000000Y-83900000D03*
X117000000Y-84400000D03*
X117000000Y-84900000D03*
X117000000Y-85400000D03*
X117000000Y-85900000D03*
X117000000Y-86400000D03*
X117000000Y-86900000D03*
X117000000Y-87400000D03*
X117000000Y-87900000D03*
X117000000Y-88400000D03*
X117000000Y-88900000D03*
X117000000Y-89400000D03*
X117000000Y-89900000D03*
X117000000Y-90400000D03*
X117000000Y-90900000D03*
X117000000Y-91400000D03*
X117500000Y-83400000D03*
X117500000Y-83900000D03*
X117500000Y-90900000D03*
X117500000Y-91400000D03*
X118000000Y-83400000D03*
X118000000Y-83900000D03*
X118000000Y-90900000D03*
X118000000Y-91400000D03*
X118500000Y-83400000D03*
X118500000Y-83900000D03*
X118500000Y-90900000D03*
X118500000Y-91400000D03*
X119000000Y-83400000D03*
X119000000Y-83900000D03*
X119000000Y-90900000D03*
X119000000Y-91400000D03*
X119500000Y-83400000D03*
X119500000Y-83900000D03*
X119500000Y-90900000D03*
X119500000Y-91400000D03*
X120000000Y-83400000D03*
X120000000Y-83900000D03*
X120000000Y-90900000D03*
X120000000Y-91400000D03*
X120500000Y-83400000D03*
X120500000Y-83900000D03*
X120500000Y-90900000D03*
X120500000Y-91400000D03*
X121000000Y-83400000D03*
X121000000Y-83900000D03*
X121000000Y-90900000D03*
X121000000Y-91400000D03*
X121500000Y-83400000D03*
X121500000Y-83900000D03*
X121500000Y-90900000D03*
X121500000Y-91400000D03*
X122000000Y-83400000D03*
X122000000Y-83900000D03*
X122000000Y-84400000D03*
X122000000Y-84900000D03*
X122000000Y-85400000D03*
X122000000Y-85900000D03*
X122000000Y-86400000D03*
X122000000Y-86900000D03*
X122000000Y-87400000D03*
X122000000Y-87900000D03*
X122000000Y-88400000D03*
X122000000Y-88900000D03*
X122000000Y-89400000D03*
X122000000Y-89900000D03*
X122000000Y-90400000D03*
X122000000Y-90900000D03*
X122000000Y-91400000D03*
X122500000Y-83400000D03*
X122500000Y-83900000D03*
X122500000Y-84400000D03*
X122500000Y-84900000D03*
X122500000Y-85400000D03*
X122500000Y-85900000D03*
X122500000Y-86400000D03*
X122500000Y-86900000D03*
X122500000Y-87400000D03*
X122500000Y-87900000D03*
X122500000Y-88400000D03*
X122500000Y-88900000D03*
X122500000Y-89400000D03*
X122500000Y-89900000D03*
X122500000Y-90400000D03*
X122500000Y-90900000D03*
X122500000Y-91400000D03*
%TD*%
D19*
%TO.C,C45*%
X113111280Y-102020000D03*
X113111280Y-101380000D03*
%TD*%
D17*
%TO.C,C2*%
X123442200Y-82299680D03*
X122802200Y-82299680D03*
%TD*%
D19*
%TO.C,C47*%
X113815840Y-93270000D03*
X113815840Y-92630000D03*
%TD*%
D23*
%TO.C,U6*%
X111250000Y-91237500D03*
X110750000Y-91237500D03*
X110250000Y-91237500D03*
X109750000Y-91237500D03*
X109250000Y-91237500D03*
X108750000Y-91237500D03*
D24*
X108062500Y-90550000D03*
X108062500Y-90050000D03*
X108062500Y-89550000D03*
X108062500Y-89050000D03*
X108062500Y-88550000D03*
X108062500Y-88050000D03*
D23*
X108750000Y-87362500D03*
X109250000Y-87362500D03*
X109750000Y-87362500D03*
X110250000Y-87362500D03*
X110750000Y-87362500D03*
X111250000Y-87362500D03*
D24*
X111937500Y-88050000D03*
X111937500Y-88550000D03*
X111937500Y-89050000D03*
X111937500Y-89550000D03*
X111937500Y-90050000D03*
X111937500Y-90550000D03*
D25*
X110000000Y-89300000D03*
%TD*%
D23*
%TO.C,U5*%
X111250000Y-85887500D03*
X110750000Y-85887500D03*
X110250000Y-85887500D03*
X109750000Y-85887500D03*
X109250000Y-85887500D03*
X108750000Y-85887500D03*
D24*
X108062500Y-85200000D03*
X108062500Y-84700000D03*
X108062500Y-84200000D03*
X108062500Y-83700000D03*
X108062500Y-83200000D03*
X108062500Y-82700000D03*
D23*
X108750000Y-82012500D03*
X109250000Y-82012500D03*
X109750000Y-82012500D03*
X110250000Y-82012500D03*
X110750000Y-82012500D03*
X111250000Y-82012500D03*
D24*
X111937500Y-82700000D03*
X111937500Y-83200000D03*
X111937500Y-83700000D03*
X111937500Y-84200000D03*
X111937500Y-84700000D03*
X111937500Y-85200000D03*
D25*
X110000000Y-83950000D03*
%TD*%
D19*
%TO.C,C46*%
X113813240Y-87920000D03*
X113813240Y-87280000D03*
%TD*%
D18*
%TO.C,R2*%
X113111280Y-97980000D03*
X113111280Y-98620000D03*
%TD*%
%LPD*%
M02*
