%TF.GenerationSoftware,KiCad,Pcbnew,8.0.5*%
%TF.CreationDate,2025-10-24T05:54:48-05:00*%
%TF.ProjectId,iris-128s,69726973-2d31-4323-9873-2e6b69636164,1*%
%TF.SameCoordinates,Original*%
%TF.FileFunction,Soldermask,Bot*%
%TF.FilePolarity,Negative*%
%FSLAX46Y46*%
G04 Gerber Fmt 4.6, Leading zero omitted, Abs format (unit mm)*
G04 Created by KiCad (PCBNEW 8.0.5) date 2025-10-24 05:54:48*
%MOMM*%
%LPD*%
G01*
G04 APERTURE LIST*
G04 Aperture macros list*
%AMRoundRect*
0 Rectangle with rounded corners*
0 $1 Rounding radius*
0 $2 $3 $4 $5 $6 $7 $8 $9 X,Y pos of 4 corners*
0 Add a 4 corners polygon primitive as box body*
4,1,4,$2,$3,$4,$5,$6,$7,$8,$9,$2,$3,0*
0 Add four circle primitives for the rounded corners*
1,1,$1+$1,$2,$3*
1,1,$1+$1,$4,$5*
1,1,$1+$1,$6,$7*
1,1,$1+$1,$8,$9*
0 Add four rect primitives between the rounded corners*
20,1,$1+$1,$2,$3,$4,$5,0*
20,1,$1+$1,$4,$5,$6,$7,0*
20,1,$1+$1,$6,$7,$8,$9,0*
20,1,$1+$1,$8,$9,$2,$3,0*%
%AMFreePoly0*
4,1,17,0.288426,0.645521,0.645521,0.288426,0.660400,0.252505,0.660400,-0.252505,0.645521,-0.288426,0.288426,-0.645521,0.252505,-0.660400,-0.252505,-0.660400,-0.288426,-0.645521,-0.645521,-0.288426,-0.660400,-0.252505,-0.660400,0.252505,-0.645521,0.288426,-0.288426,0.645521,-0.252505,0.660400,0.252505,0.660400,0.288426,0.645521,0.288426,0.645521,$1*%
G04 Aperture macros list end*
%ADD10C,1.450000*%
%ADD11FreePoly0,90.000000*%
%ADD12RoundRect,0.100000X0.130000X0.100000X-0.130000X0.100000X-0.130000X-0.100000X0.130000X-0.100000X0*%
%ADD13RoundRect,0.100000X-0.100000X0.130000X-0.100000X-0.130000X0.100000X-0.130000X0.100000X0.130000X0*%
%ADD14RoundRect,0.100000X0.100000X-0.130000X0.100000X0.130000X-0.100000X0.130000X-0.100000X-0.130000X0*%
%ADD15R,0.250000X0.900000*%
%ADD16R,0.900000X0.250000*%
%ADD17R,5.400000X5.400000*%
%ADD18RoundRect,0.062500X0.062500X-0.375000X0.062500X0.375000X-0.062500X0.375000X-0.062500X-0.375000X0*%
%ADD19RoundRect,0.062500X0.375000X-0.062500X0.375000X0.062500X-0.375000X0.062500X-0.375000X-0.062500X0*%
%ADD20R,2.600000X2.600000*%
%ADD21RoundRect,0.100000X-0.130000X-0.100000X0.130000X-0.100000X0.130000X0.100000X-0.130000X0.100000X0*%
%ADD22C,0.351600*%
G04 APERTURE END LIST*
D10*
%TO.C,S5*%
X103246980Y-101283400D03*
X100996980Y-82723400D03*
%TD*%
D11*
%TO.C,REF0*%
X120622500Y-81188000D03*
%TD*%
%TO.C,GND1*%
X124315000Y-81188000D03*
%TD*%
D12*
%TO.C,C3*%
X124270760Y-90507460D03*
X123630760Y-90507460D03*
%TD*%
D13*
%TO.C,C44*%
X113813660Y-81930000D03*
X113813660Y-82570000D03*
%TD*%
D12*
%TO.C,R11*%
X120338640Y-103733600D03*
X119698640Y-103733600D03*
%TD*%
D14*
%TO.C,R12*%
X123435300Y-98191700D03*
X123435300Y-97551700D03*
%TD*%
%TO.C,R39*%
X123435300Y-96723160D03*
X123435300Y-96083160D03*
%TD*%
D13*
%TO.C,R3*%
X113111280Y-92630000D03*
X113111280Y-93270000D03*
%TD*%
D12*
%TO.C,C9*%
X115840000Y-94033020D03*
X115200000Y-94033020D03*
%TD*%
%TO.C,C1*%
X124270760Y-91209680D03*
X123630760Y-91209680D03*
%TD*%
%TO.C,C10*%
X115840000Y-94733440D03*
X115200000Y-94733440D03*
%TD*%
D15*
%TO.C,U12*%
X116450000Y-95666000D03*
X116950000Y-95666000D03*
X117450000Y-95666000D03*
X117950000Y-95666000D03*
X118450000Y-95666000D03*
X118950000Y-95666000D03*
X119450000Y-95666000D03*
X119950000Y-95666000D03*
X120450000Y-95666000D03*
X120950000Y-95666000D03*
X121450000Y-95666000D03*
D16*
X122500000Y-96716000D03*
X122500000Y-97216000D03*
X122500000Y-97716000D03*
X122500000Y-98216000D03*
X122500000Y-98716000D03*
X122500000Y-99216000D03*
X122500000Y-99716000D03*
X122500000Y-100216000D03*
X122500000Y-100716000D03*
X122500000Y-101216000D03*
X122500000Y-101716000D03*
D15*
X121450000Y-102766000D03*
X120950000Y-102766000D03*
X120450000Y-102766000D03*
X119950000Y-102766000D03*
X119450000Y-102766000D03*
X118950000Y-102766000D03*
X118450000Y-102766000D03*
X117950000Y-102766000D03*
X117450000Y-102766000D03*
X116950000Y-102766000D03*
X116450000Y-102766000D03*
D16*
X115400000Y-101716000D03*
X115400000Y-101216000D03*
X115400000Y-100716000D03*
X115400000Y-100216000D03*
X115400000Y-99716000D03*
X115400000Y-99216000D03*
X115400000Y-98716000D03*
X115400000Y-98216000D03*
X115400000Y-97716000D03*
X115400000Y-97216000D03*
X115400000Y-96716000D03*
D17*
X118950000Y-99216000D03*
%TD*%
D13*
%TO.C,R4*%
X113111280Y-87280000D03*
X113111280Y-87920000D03*
%TD*%
D18*
%TO.C,U8*%
X111250000Y-101937500D03*
X110750000Y-101937500D03*
X110250000Y-101937500D03*
X109750000Y-101937500D03*
X109250000Y-101937500D03*
X108750000Y-101937500D03*
D19*
X108062500Y-101250000D03*
X108062500Y-100750000D03*
X108062500Y-100250000D03*
X108062500Y-99750000D03*
X108062500Y-99250000D03*
X108062500Y-98750000D03*
D18*
X108750000Y-98062500D03*
X109250000Y-98062500D03*
X109750000Y-98062500D03*
X110250000Y-98062500D03*
X110750000Y-98062500D03*
X111250000Y-98062500D03*
D19*
X111937500Y-98750000D03*
X111937500Y-99250000D03*
X111937500Y-99750000D03*
X111937500Y-100250000D03*
X111937500Y-100750000D03*
X111937500Y-101250000D03*
D20*
X110000000Y-100000000D03*
%TD*%
D14*
%TO.C,R13*%
X123435300Y-99593780D03*
X123435300Y-98953780D03*
%TD*%
D12*
%TO.C,C7*%
X118785600Y-103733600D03*
X118145600Y-103733600D03*
%TD*%
%TO.C,C8*%
X121884400Y-103733600D03*
X121244400Y-103733600D03*
%TD*%
D14*
%TO.C,R15*%
X123435300Y-100995020D03*
X123435300Y-100355020D03*
%TD*%
D13*
%TO.C,R5*%
X113111280Y-81930000D03*
X113111280Y-82570000D03*
%TD*%
D21*
%TO.C,R10*%
X123630760Y-89807140D03*
X124270760Y-89807140D03*
%TD*%
D18*
%TO.C,U7*%
X111250000Y-96587500D03*
X110750000Y-96587500D03*
X110250000Y-96587500D03*
X109750000Y-96587500D03*
X109250000Y-96587500D03*
X108750000Y-96587500D03*
D19*
X108062500Y-95900000D03*
X108062500Y-95400000D03*
X108062500Y-94900000D03*
X108062500Y-94400000D03*
X108062500Y-93900000D03*
X108062500Y-93400000D03*
D18*
X108750000Y-92712500D03*
X109250000Y-92712500D03*
X109750000Y-92712500D03*
X110250000Y-92712500D03*
X110750000Y-92712500D03*
X111250000Y-92712500D03*
D19*
X111937500Y-93400000D03*
X111937500Y-93900000D03*
X111937500Y-94400000D03*
X111937500Y-94900000D03*
X111937500Y-95400000D03*
X111937500Y-95900000D03*
D20*
X110000000Y-94650000D03*
%TD*%
D22*
%TO.C,U9*%
X116500000Y-83400000D03*
X116500000Y-83900000D03*
X116500000Y-84400000D03*
X116500000Y-84900000D03*
X116500000Y-85400000D03*
X116500000Y-85900000D03*
X116500000Y-86400000D03*
X116500000Y-86900000D03*
X116500000Y-87400000D03*
X116500000Y-87900000D03*
X116500000Y-88400000D03*
X116500000Y-88900000D03*
X116500000Y-89400000D03*
X116500000Y-89900000D03*
X116500000Y-90400000D03*
X116500000Y-90900000D03*
X116500000Y-91400000D03*
X117000000Y-83400000D03*
X117000000Y-83900000D03*
X117000000Y-84400000D03*
X117000000Y-84900000D03*
X117000000Y-85400000D03*
X117000000Y-85900000D03*
X117000000Y-86400000D03*
X117000000Y-86900000D03*
X117000000Y-87400000D03*
X117000000Y-87900000D03*
X117000000Y-88400000D03*
X117000000Y-88900000D03*
X117000000Y-89400000D03*
X117000000Y-89900000D03*
X117000000Y-90400000D03*
X117000000Y-90900000D03*
X117000000Y-91400000D03*
X117500000Y-83400000D03*
X117500000Y-83900000D03*
X117500000Y-90900000D03*
X117500000Y-91400000D03*
X118000000Y-83400000D03*
X118000000Y-83900000D03*
X118000000Y-90900000D03*
X118000000Y-91400000D03*
X118500000Y-83400000D03*
X118500000Y-83900000D03*
X118500000Y-90900000D03*
X118500000Y-91400000D03*
X119000000Y-83400000D03*
X119000000Y-83900000D03*
X119000000Y-90900000D03*
X119000000Y-91400000D03*
X119500000Y-83400000D03*
X119500000Y-83900000D03*
X119500000Y-90900000D03*
X119500000Y-91400000D03*
X120000000Y-83400000D03*
X120000000Y-83900000D03*
X120000000Y-90900000D03*
X120000000Y-91400000D03*
X120500000Y-83400000D03*
X120500000Y-83900000D03*
X120500000Y-90900000D03*
X120500000Y-91400000D03*
X121000000Y-83400000D03*
X121000000Y-83900000D03*
X121000000Y-90900000D03*
X121000000Y-91400000D03*
X121500000Y-83400000D03*
X121500000Y-83900000D03*
X121500000Y-90900000D03*
X121500000Y-91400000D03*
X122000000Y-83400000D03*
X122000000Y-83900000D03*
X122000000Y-84400000D03*
X122000000Y-84900000D03*
X122000000Y-85400000D03*
X122000000Y-85900000D03*
X122000000Y-86400000D03*
X122000000Y-86900000D03*
X122000000Y-87400000D03*
X122000000Y-87900000D03*
X122000000Y-88400000D03*
X122000000Y-88900000D03*
X122000000Y-89400000D03*
X122000000Y-89900000D03*
X122000000Y-90400000D03*
X122000000Y-90900000D03*
X122000000Y-91400000D03*
X122500000Y-83400000D03*
X122500000Y-83900000D03*
X122500000Y-84400000D03*
X122500000Y-84900000D03*
X122500000Y-85400000D03*
X122500000Y-85900000D03*
X122500000Y-86400000D03*
X122500000Y-86900000D03*
X122500000Y-87400000D03*
X122500000Y-87900000D03*
X122500000Y-88400000D03*
X122500000Y-88900000D03*
X122500000Y-89400000D03*
X122500000Y-89900000D03*
X122500000Y-90400000D03*
X122500000Y-90900000D03*
X122500000Y-91400000D03*
%TD*%
D14*
%TO.C,C45*%
X113111280Y-102020000D03*
X113111280Y-101380000D03*
%TD*%
D12*
%TO.C,C2*%
X123442200Y-82299680D03*
X122802200Y-82299680D03*
%TD*%
D14*
%TO.C,C47*%
X113815840Y-93270000D03*
X113815840Y-92630000D03*
%TD*%
D18*
%TO.C,U6*%
X111250000Y-91237500D03*
X110750000Y-91237500D03*
X110250000Y-91237500D03*
X109750000Y-91237500D03*
X109250000Y-91237500D03*
X108750000Y-91237500D03*
D19*
X108062500Y-90550000D03*
X108062500Y-90050000D03*
X108062500Y-89550000D03*
X108062500Y-89050000D03*
X108062500Y-88550000D03*
X108062500Y-88050000D03*
D18*
X108750000Y-87362500D03*
X109250000Y-87362500D03*
X109750000Y-87362500D03*
X110250000Y-87362500D03*
X110750000Y-87362500D03*
X111250000Y-87362500D03*
D19*
X111937500Y-88050000D03*
X111937500Y-88550000D03*
X111937500Y-89050000D03*
X111937500Y-89550000D03*
X111937500Y-90050000D03*
X111937500Y-90550000D03*
D20*
X110000000Y-89300000D03*
%TD*%
D18*
%TO.C,U5*%
X111250000Y-85887500D03*
X110750000Y-85887500D03*
X110250000Y-85887500D03*
X109750000Y-85887500D03*
X109250000Y-85887500D03*
X108750000Y-85887500D03*
D19*
X108062500Y-85200000D03*
X108062500Y-84700000D03*
X108062500Y-84200000D03*
X108062500Y-83700000D03*
X108062500Y-83200000D03*
X108062500Y-82700000D03*
D18*
X108750000Y-82012500D03*
X109250000Y-82012500D03*
X109750000Y-82012500D03*
X110250000Y-82012500D03*
X110750000Y-82012500D03*
X111250000Y-82012500D03*
D19*
X111937500Y-82700000D03*
X111937500Y-83200000D03*
X111937500Y-83700000D03*
X111937500Y-84200000D03*
X111937500Y-84700000D03*
X111937500Y-85200000D03*
D20*
X110000000Y-83950000D03*
%TD*%
D14*
%TO.C,C46*%
X113813240Y-87920000D03*
X113813240Y-87280000D03*
%TD*%
D13*
%TO.C,R2*%
X113111280Y-97980000D03*
X113111280Y-98620000D03*
%TD*%
M02*
