%TF.GenerationSoftware,KiCad,Pcbnew,8.0.5*%
%TF.CreationDate,2025-10-23T09:57:47-05:00*%
%TF.ProjectId,iris-128s,69726973-2d31-4323-9873-2e6b69636164,1*%
%TF.SameCoordinates,Original*%
%TF.FileFunction,Drillmap*%
%TF.FilePolarity,Positive*%
%FSLAX45Y45*%
G04 Gerber Fmt 4.5, Leading zero omitted, Abs format (unit mm)*
G04 Created by KiCad (PCBNEW 8.0.5) date 2025-10-23 09:57:47*
%MOMM*%
%LPD*%
G01*
G04 APERTURE LIST*
%ADD10C,0.050000*%
%ADD11C,0.200000*%
%ADD12C,0.100000*%
G04 APERTURE END LIST*
D10*
X9550000Y-10400000D02*
X9550000Y-8000000D01*
X10990000Y-10360000D02*
X11030000Y-10400000D01*
X11000000Y-8035000D02*
X11030000Y-8000000D01*
X12570000Y-8000000D02*
X12570000Y-9230000D01*
X10790000Y-10400000D02*
X10830000Y-10360000D01*
X10895000Y-8070000D02*
X10930000Y-8070000D01*
X9550000Y-8000000D02*
X10790000Y-8000000D01*
X10830000Y-10360000D02*
X10870000Y-10340000D01*
X10790000Y-10400000D02*
X9550000Y-10400000D01*
X11030000Y-10400000D02*
X11050000Y-10450000D01*
X12100000Y-10550000D02*
X11120000Y-10550000D01*
X10790000Y-8000000D02*
X10825000Y-8040000D01*
X11050000Y-10450000D02*
X11050000Y-10480000D01*
X10950000Y-10340250D02*
X10990000Y-10360000D01*
X10970000Y-8055000D02*
X11000000Y-8035000D01*
X12500000Y-9300000D02*
X12500000Y-10550000D01*
X10910000Y-10330000D02*
X10950000Y-10340250D01*
X10930000Y-8070000D02*
X10970000Y-8055000D01*
X10825000Y-8040000D02*
X10860000Y-8060000D01*
X12570000Y-9230000D02*
X12500000Y-9300000D01*
X11120000Y-10550000D02*
X11050000Y-10480000D01*
X10870000Y-10340000D02*
X10910000Y-10330000D01*
X12500000Y-10550000D02*
X12100000Y-10550000D01*
X10860000Y-8060000D02*
X10895000Y-8070000D01*
X11030000Y-8000000D02*
X12570000Y-8000000D01*
D11*
D12*
X9609840Y-8489840D02*
X9630160Y-8510160D01*
X9630160Y-8489840D02*
X9609840Y-8510160D01*
X9609840Y-8659840D02*
X9630160Y-8680160D01*
X9630160Y-8659840D02*
X9609840Y-8680160D01*
X9609840Y-8819840D02*
X9630160Y-8840160D01*
X9630160Y-8819840D02*
X9609840Y-8840160D01*
X9609840Y-9769840D02*
X9630160Y-9790160D01*
X9630160Y-9769840D02*
X9609840Y-9790160D01*
X9609840Y-9899840D02*
X9630160Y-9920160D01*
X9630160Y-9899840D02*
X9609840Y-9920160D01*
X9609840Y-10299840D02*
X9630160Y-10320160D01*
X9630160Y-10299840D02*
X9609840Y-10320160D01*
X9619840Y-8079840D02*
X9640160Y-8100160D01*
X9640160Y-8079840D02*
X9619840Y-8100160D01*
X9771758Y-9910180D02*
X9792078Y-9930500D01*
X9792078Y-9910180D02*
X9771758Y-9930500D01*
X9789538Y-8470180D02*
X9809858Y-8490500D01*
X9809858Y-8470180D02*
X9789538Y-8490500D01*
X9789840Y-8189840D02*
X9810160Y-8210160D01*
X9810160Y-8189840D02*
X9789840Y-8210160D01*
X9789840Y-10189840D02*
X9810160Y-10210160D01*
X9810160Y-10189840D02*
X9789840Y-10210160D01*
X9971758Y-9910180D02*
X9992078Y-9930500D01*
X9992078Y-9910180D02*
X9971758Y-9930500D01*
X9989840Y-8179840D02*
X10010160Y-8200160D01*
X10010160Y-8179840D02*
X9989840Y-8200160D01*
X10004458Y-8471958D02*
X10024778Y-8492278D01*
X10024778Y-8471958D02*
X10004458Y-8492278D01*
X10089840Y-10179840D02*
X10110160Y-10200160D01*
X10110160Y-10179840D02*
X10089840Y-10200160D01*
X10174298Y-9910180D02*
X10194618Y-9930500D01*
X10194618Y-9910180D02*
X10174298Y-9930500D01*
X10189840Y-8179840D02*
X10210160Y-8200160D01*
X10210160Y-8179840D02*
X10189840Y-8200160D01*
X10207318Y-8470180D02*
X10227638Y-8490500D01*
X10227638Y-8470180D02*
X10207318Y-8490500D01*
X10389538Y-9910180D02*
X10409858Y-9930500D01*
X10409858Y-9910180D02*
X10389538Y-9930500D01*
X10407318Y-8470180D02*
X10427638Y-8490500D01*
X10427638Y-8470180D02*
X10407318Y-8490500D01*
X10489840Y-10089840D02*
X10510160Y-10110160D01*
X10510160Y-10089840D02*
X10489840Y-10110160D01*
X10559840Y-8079840D02*
X10580160Y-8100160D01*
X10580160Y-8079840D02*
X10559840Y-8100160D01*
X10559840Y-10299840D02*
X10580160Y-10320160D01*
X10580160Y-10299840D02*
X10559840Y-10320160D01*
X10609840Y-9149840D02*
X10630160Y-9170160D01*
X10630160Y-9149840D02*
X10609840Y-9170160D01*
X10609840Y-9899840D02*
X10630160Y-9920160D01*
X10630160Y-9899840D02*
X10609840Y-9920160D01*
X10629840Y-10129840D02*
X10650160Y-10150160D01*
X10650160Y-10129840D02*
X10629840Y-10150160D01*
X10649840Y-9689840D02*
X10670160Y-9710160D01*
X10670160Y-9689840D02*
X10649840Y-9710160D01*
X10651344Y-9523954D02*
X10671664Y-9544274D01*
X10671664Y-9523954D02*
X10651344Y-9544274D01*
X10659840Y-8149840D02*
X10680160Y-8170160D01*
X10680160Y-8149840D02*
X10659840Y-8170160D01*
X10690714Y-8748746D02*
X10711034Y-8769066D01*
X10711034Y-8748746D02*
X10690714Y-8769066D01*
X10769840Y-8069840D02*
X10790160Y-8090160D01*
X10790160Y-8069840D02*
X10769840Y-8090160D01*
X11049840Y-8069840D02*
X11070160Y-8090160D01*
X11070160Y-8069840D02*
X11049840Y-8090160D01*
X11089840Y-10309840D02*
X11110160Y-10330160D01*
X11110160Y-10309840D02*
X11089840Y-10330160D01*
X11122660Y-8102600D02*
X11142980Y-8122920D01*
X11142980Y-8102600D02*
X11122660Y-8122920D01*
X11153140Y-8636000D02*
X11173460Y-8656320D01*
X11173460Y-8636000D02*
X11153140Y-8656320D01*
X11153140Y-9170670D02*
X11173460Y-9190990D01*
X11173460Y-9170670D02*
X11153140Y-9190990D01*
X11153140Y-9705340D02*
X11173460Y-9725660D01*
X11173460Y-9705340D02*
X11153140Y-9725660D01*
X11153140Y-10241280D02*
X11173460Y-10261600D01*
X11173460Y-10241280D02*
X11153140Y-10261600D01*
X11155140Y-8154840D02*
X11175460Y-8175160D01*
X11175460Y-8154840D02*
X11155140Y-8175160D01*
X11193780Y-8109840D02*
X11214100Y-8130160D01*
X11214100Y-8109840D02*
X11193780Y-8130160D01*
X11193780Y-8669020D02*
X11214100Y-8689340D01*
X11214100Y-8669020D02*
X11193780Y-8689340D01*
X11193780Y-9203690D02*
X11214100Y-9224010D01*
X11214100Y-9203690D02*
X11193780Y-9224010D01*
X11193780Y-9738360D02*
X11214100Y-9758680D01*
X11214100Y-9738360D02*
X11193780Y-9758680D01*
X11193780Y-10175240D02*
X11214100Y-10195560D01*
X11214100Y-10175240D02*
X11193780Y-10195560D01*
X11239840Y-10469840D02*
X11260160Y-10490160D01*
X11260160Y-10469840D02*
X11239840Y-10490160D01*
X11253216Y-10226040D02*
X11273536Y-10246360D01*
X11273536Y-10226040D02*
X11253216Y-10246360D01*
X11259820Y-8409940D02*
X11280140Y-8430260D01*
X11280140Y-8409940D02*
X11259820Y-8430260D01*
X11259820Y-8945880D02*
X11280140Y-8966200D01*
X11280140Y-8945880D02*
X11259820Y-8966200D01*
X11259820Y-9479280D02*
X11280140Y-9499600D01*
X11280140Y-9479280D02*
X11259820Y-9499600D01*
X11259820Y-10015220D02*
X11280140Y-10035540D01*
X11280140Y-10015220D02*
X11259820Y-10035540D01*
X11290300Y-8371840D02*
X11310620Y-8392160D01*
X11310620Y-8371840D02*
X11290300Y-8392160D01*
X11290300Y-8907780D02*
X11310620Y-8928100D01*
X11310620Y-8907780D02*
X11290300Y-8928100D01*
X11290300Y-9441180D02*
X11310620Y-9461500D01*
X11310620Y-9441180D02*
X11290300Y-9461500D01*
X11290300Y-9977120D02*
X11310620Y-9997440D01*
X11310620Y-9977120D02*
X11290300Y-9997440D01*
X11328400Y-8409940D02*
X11348720Y-8430260D01*
X11348720Y-8409940D02*
X11328400Y-8430260D01*
X11328400Y-8945880D02*
X11348720Y-8966200D01*
X11348720Y-8945880D02*
X11328400Y-8966200D01*
X11328400Y-9479280D02*
X11348720Y-9499600D01*
X11348720Y-9479280D02*
X11328400Y-9499600D01*
X11328400Y-10015220D02*
X11348720Y-10035540D01*
X11348720Y-10015220D02*
X11328400Y-10035540D01*
X11339840Y-8069840D02*
X11360160Y-8090160D01*
X11360160Y-8069840D02*
X11339840Y-8090160D01*
X11349840Y-10299840D02*
X11370160Y-10320160D01*
X11370160Y-10299840D02*
X11349840Y-10320160D01*
X11356822Y-10217400D02*
X11377142Y-10237720D01*
X11377142Y-10217400D02*
X11356822Y-10237720D01*
X11366500Y-9885426D02*
X11386820Y-9905746D01*
X11386820Y-9885426D02*
X11366500Y-9905746D01*
X11369040Y-8371840D02*
X11389360Y-8392160D01*
X11389360Y-8371840D02*
X11369040Y-8392160D01*
X11369040Y-8917940D02*
X11389360Y-8938260D01*
X11389360Y-8917940D02*
X11369040Y-8938260D01*
X11369040Y-9441180D02*
X11389360Y-9461500D01*
X11389360Y-9441180D02*
X11369040Y-9461500D01*
X11369040Y-9977120D02*
X11389360Y-9997440D01*
X11389360Y-9977120D02*
X11369040Y-9997440D01*
X11409172Y-10349924D02*
X11429492Y-10370244D01*
X11429492Y-10349924D02*
X11409172Y-10370244D01*
X11409172Y-10432796D02*
X11429492Y-10453116D01*
X11429492Y-10432796D02*
X11409172Y-10453116D01*
X11420856Y-10291318D02*
X11441176Y-10311638D01*
X11441176Y-10291318D02*
X11420856Y-10311638D01*
X11429840Y-9519840D02*
X11450160Y-9540160D01*
X11450160Y-9519840D02*
X11429840Y-9540160D01*
X11439398Y-9441180D02*
X11459718Y-9461500D01*
X11459718Y-9441180D02*
X11439398Y-9461500D01*
X11442954Y-10391648D02*
X11463274Y-10411968D01*
X11463274Y-10391648D02*
X11442954Y-10411968D01*
X11490198Y-9201912D02*
X11510518Y-9222232D01*
X11510518Y-9201912D02*
X11490198Y-9222232D01*
X11589840Y-8059840D02*
X11610160Y-8080160D01*
X11610160Y-8059840D02*
X11589840Y-8080160D01*
X11729840Y-9329840D02*
X11750160Y-9350160D01*
X11750160Y-9329840D02*
X11729840Y-9350160D01*
X11764772Y-9380220D02*
X11785092Y-9400540D01*
X11785092Y-9380220D02*
X11764772Y-9400540D01*
X11764772Y-9442450D02*
X11785092Y-9462770D01*
X11785092Y-9442450D02*
X11764772Y-9462770D01*
X11789840Y-8059840D02*
X11810160Y-8080160D01*
X11810160Y-8059840D02*
X11789840Y-8080160D01*
X11804400Y-10418576D02*
X11824720Y-10438896D01*
X11824720Y-10418576D02*
X11804400Y-10438896D01*
X11812524Y-9380220D02*
X11832844Y-9400540D01*
X11832844Y-9380220D02*
X11812524Y-9400540D01*
X11812524Y-9442450D02*
X11832844Y-9462770D01*
X11832844Y-9442450D02*
X11812524Y-9462770D01*
X11899840Y-9329840D02*
X11920160Y-9350160D01*
X11920160Y-9329840D02*
X11899840Y-9350160D01*
X11914124Y-10418576D02*
X11934444Y-10438896D01*
X11934444Y-10418576D02*
X11914124Y-10438896D01*
X11976822Y-9487496D02*
X11997142Y-9507816D01*
X11997142Y-9487496D02*
X11976822Y-9507816D01*
X12051030Y-8196580D02*
X12071350Y-8216900D01*
X12071350Y-8196580D02*
X12051030Y-8216900D01*
X12080494Y-9200134D02*
X12100814Y-9220454D01*
X12100814Y-9200134D02*
X12080494Y-9220454D01*
X12085574Y-9309326D02*
X12105894Y-9329646D01*
X12105894Y-9309326D02*
X12085574Y-9329646D01*
X12133326Y-9309326D02*
X12153646Y-9329646D01*
X12153646Y-9309326D02*
X12133326Y-9329646D01*
X12147002Y-10439996D02*
X12167322Y-10460316D01*
X12167322Y-10439996D02*
X12147002Y-10460316D01*
X12183110Y-9458198D02*
X12203430Y-9478518D01*
X12203430Y-9458198D02*
X12183110Y-9478518D01*
X12186412Y-9351998D02*
X12206732Y-9372318D01*
X12206732Y-9351998D02*
X12186412Y-9372318D01*
X12186412Y-9399750D02*
X12206732Y-9420070D01*
X12206732Y-9399750D02*
X12186412Y-9420070D01*
X12189840Y-9289840D02*
X12210160Y-9310160D01*
X12210160Y-9289840D02*
X12189840Y-9310160D01*
X12197802Y-10439996D02*
X12218122Y-10460316D01*
X12218122Y-10439996D02*
X12197802Y-10460316D01*
X12222480Y-8174990D02*
X12242800Y-8195310D01*
X12242800Y-8174990D02*
X12222480Y-8195310D01*
X12224004Y-10312908D02*
X12244324Y-10333228D01*
X12244324Y-10312908D02*
X12224004Y-10333228D01*
X12227306Y-10396728D02*
X12247626Y-10417048D01*
X12247626Y-10396728D02*
X12227306Y-10417048D01*
X12274042Y-9594056D02*
X12294362Y-9614376D01*
X12294362Y-9594056D02*
X12274042Y-9614376D01*
X12308840Y-10161440D02*
X12329160Y-10181760D01*
X12329160Y-10161440D02*
X12308840Y-10181760D01*
X12334406Y-8270022D02*
X12354726Y-8290342D01*
X12354726Y-8270022D02*
X12334406Y-8290342D01*
X12348550Y-9188450D02*
X12368870Y-9208770D01*
X12368870Y-9188450D02*
X12348550Y-9208770D01*
X12349840Y-8449840D02*
X12370160Y-8470160D01*
X12370160Y-8449840D02*
X12349840Y-8470160D01*
X12380214Y-9662156D02*
X12400534Y-9682476D01*
X12400534Y-9662156D02*
X12380214Y-9682476D01*
X12380214Y-9708388D02*
X12400534Y-9728708D01*
X12400534Y-9708388D02*
X12380214Y-9728708D01*
X12389840Y-8529840D02*
X12410160Y-8550160D01*
X12410160Y-8529840D02*
X12389840Y-8550160D01*
X12389840Y-9389840D02*
X12410160Y-9410160D01*
X12410160Y-9389840D02*
X12389840Y-9410160D01*
X12389840Y-9589840D02*
X12410160Y-9610160D01*
X12410160Y-9589840D02*
X12389840Y-9610160D01*
X12389840Y-9889840D02*
X12410160Y-9910160D01*
X12410160Y-9889840D02*
X12389840Y-9910160D01*
X12389840Y-10089840D02*
X12410160Y-10110160D01*
X12410160Y-10089840D02*
X12389840Y-10110160D01*
X12389840Y-10289840D02*
X12410160Y-10310160D01*
X12410160Y-10289840D02*
X12389840Y-10310160D01*
X12389840Y-10469840D02*
X12410160Y-10490160D01*
X12410160Y-10469840D02*
X12389840Y-10490160D01*
X12393930Y-8868156D02*
X12414250Y-8888476D01*
X12414250Y-8868156D02*
X12393930Y-8888476D01*
X12423622Y-8599102D02*
X12443942Y-8619422D01*
X12443942Y-8599102D02*
X12423622Y-8619422D01*
X12423622Y-8663102D02*
X12443942Y-8683422D01*
X12443942Y-8663102D02*
X12423622Y-8683422D01*
X12429840Y-8439840D02*
X12450160Y-8460160D01*
X12450160Y-8439840D02*
X12429840Y-8460160D01*
X12431522Y-8266176D02*
X12451842Y-8286496D01*
X12451842Y-8266176D02*
X12431522Y-8286496D01*
X12102890Y-8118800D02*
G75*
G02*
X12021610Y-8118800I-40640J0D01*
G01*
X12021610Y-8118800D02*
G75*
G02*
X12102890Y-8118800I40640J0D01*
G01*
X12472140Y-8118800D02*
G75*
G02*
X12390860Y-8118800I-40640J0D01*
G01*
X12390860Y-8118800D02*
G75*
G02*
X12472140Y-8118800I40640J0D01*
G01*
D11*
X9808277Y-10863984D02*
X9808277Y-10663984D01*
X9808277Y-10663984D02*
X9855896Y-10663984D01*
X9855896Y-10663984D02*
X9884467Y-10673508D01*
X9884467Y-10673508D02*
X9903515Y-10692555D01*
X9903515Y-10692555D02*
X9913039Y-10711603D01*
X9913039Y-10711603D02*
X9922563Y-10749698D01*
X9922563Y-10749698D02*
X9922563Y-10778270D01*
X9922563Y-10778270D02*
X9913039Y-10816365D01*
X9913039Y-10816365D02*
X9903515Y-10835412D01*
X9903515Y-10835412D02*
X9884467Y-10854460D01*
X9884467Y-10854460D02*
X9855896Y-10863984D01*
X9855896Y-10863984D02*
X9808277Y-10863984D01*
X10008277Y-10863984D02*
X10008277Y-10730650D01*
X10008277Y-10768746D02*
X10017801Y-10749698D01*
X10017801Y-10749698D02*
X10027324Y-10740174D01*
X10027324Y-10740174D02*
X10046372Y-10730650D01*
X10046372Y-10730650D02*
X10065420Y-10730650D01*
X10132086Y-10863984D02*
X10132086Y-10730650D01*
X10132086Y-10663984D02*
X10122563Y-10673508D01*
X10122563Y-10673508D02*
X10132086Y-10683031D01*
X10132086Y-10683031D02*
X10141610Y-10673508D01*
X10141610Y-10673508D02*
X10132086Y-10663984D01*
X10132086Y-10663984D02*
X10132086Y-10683031D01*
X10255896Y-10863984D02*
X10236848Y-10854460D01*
X10236848Y-10854460D02*
X10227324Y-10835412D01*
X10227324Y-10835412D02*
X10227324Y-10663984D01*
X10360658Y-10863984D02*
X10341610Y-10854460D01*
X10341610Y-10854460D02*
X10332086Y-10835412D01*
X10332086Y-10835412D02*
X10332086Y-10663984D01*
X10589229Y-10863984D02*
X10589229Y-10663984D01*
X10589229Y-10663984D02*
X10655896Y-10806841D01*
X10655896Y-10806841D02*
X10722563Y-10663984D01*
X10722563Y-10663984D02*
X10722563Y-10863984D01*
X10903515Y-10863984D02*
X10903515Y-10759222D01*
X10903515Y-10759222D02*
X10893991Y-10740174D01*
X10893991Y-10740174D02*
X10874944Y-10730650D01*
X10874944Y-10730650D02*
X10836848Y-10730650D01*
X10836848Y-10730650D02*
X10817801Y-10740174D01*
X10903515Y-10854460D02*
X10884467Y-10863984D01*
X10884467Y-10863984D02*
X10836848Y-10863984D01*
X10836848Y-10863984D02*
X10817801Y-10854460D01*
X10817801Y-10854460D02*
X10808277Y-10835412D01*
X10808277Y-10835412D02*
X10808277Y-10816365D01*
X10808277Y-10816365D02*
X10817801Y-10797317D01*
X10817801Y-10797317D02*
X10836848Y-10787793D01*
X10836848Y-10787793D02*
X10884467Y-10787793D01*
X10884467Y-10787793D02*
X10903515Y-10778270D01*
X10998753Y-10730650D02*
X10998753Y-10930650D01*
X10998753Y-10740174D02*
X11017801Y-10730650D01*
X11017801Y-10730650D02*
X11055896Y-10730650D01*
X11055896Y-10730650D02*
X11074944Y-10740174D01*
X11074944Y-10740174D02*
X11084467Y-10749698D01*
X11084467Y-10749698D02*
X11093991Y-10768746D01*
X11093991Y-10768746D02*
X11093991Y-10825889D01*
X11093991Y-10825889D02*
X11084467Y-10844936D01*
X11084467Y-10844936D02*
X11074944Y-10854460D01*
X11074944Y-10854460D02*
X11055896Y-10863984D01*
X11055896Y-10863984D02*
X11017801Y-10863984D01*
X11017801Y-10863984D02*
X10998753Y-10854460D01*
X11179705Y-10844936D02*
X11189229Y-10854460D01*
X11189229Y-10854460D02*
X11179705Y-10863984D01*
X11179705Y-10863984D02*
X11170182Y-10854460D01*
X11170182Y-10854460D02*
X11179705Y-10844936D01*
X11179705Y-10844936D02*
X11179705Y-10863984D01*
X11179705Y-10740174D02*
X11189229Y-10749698D01*
X11189229Y-10749698D02*
X11179705Y-10759222D01*
X11179705Y-10759222D02*
X11170182Y-10749698D01*
X11170182Y-10749698D02*
X11179705Y-10740174D01*
X11179705Y-10740174D02*
X11179705Y-10759222D01*
D12*
X9527180Y-11182340D02*
X9547500Y-11202660D01*
X9547500Y-11182340D02*
X9527180Y-11202660D01*
D11*
X9846372Y-11083984D02*
X9865420Y-11083984D01*
X9865420Y-11083984D02*
X9884467Y-11093508D01*
X9884467Y-11093508D02*
X9893991Y-11103031D01*
X9893991Y-11103031D02*
X9903515Y-11122079D01*
X9903515Y-11122079D02*
X9913039Y-11160174D01*
X9913039Y-11160174D02*
X9913039Y-11207793D01*
X9913039Y-11207793D02*
X9903515Y-11245888D01*
X9903515Y-11245888D02*
X9893991Y-11264936D01*
X9893991Y-11264936D02*
X9884467Y-11274460D01*
X9884467Y-11274460D02*
X9865420Y-11283984D01*
X9865420Y-11283984D02*
X9846372Y-11283984D01*
X9846372Y-11283984D02*
X9827324Y-11274460D01*
X9827324Y-11274460D02*
X9817801Y-11264936D01*
X9817801Y-11264936D02*
X9808277Y-11245888D01*
X9808277Y-11245888D02*
X9798753Y-11207793D01*
X9798753Y-11207793D02*
X9798753Y-11160174D01*
X9798753Y-11160174D02*
X9808277Y-11122079D01*
X9808277Y-11122079D02*
X9817801Y-11103031D01*
X9817801Y-11103031D02*
X9827324Y-11093508D01*
X9827324Y-11093508D02*
X9846372Y-11083984D01*
X9998753Y-11264936D02*
X10008277Y-11274460D01*
X10008277Y-11274460D02*
X9998753Y-11283984D01*
X9998753Y-11283984D02*
X9989229Y-11274460D01*
X9989229Y-11274460D02*
X9998753Y-11264936D01*
X9998753Y-11264936D02*
X9998753Y-11283984D01*
X10084467Y-11103031D02*
X10093991Y-11093508D01*
X10093991Y-11093508D02*
X10113039Y-11083984D01*
X10113039Y-11083984D02*
X10160658Y-11083984D01*
X10160658Y-11083984D02*
X10179705Y-11093508D01*
X10179705Y-11093508D02*
X10189229Y-11103031D01*
X10189229Y-11103031D02*
X10198753Y-11122079D01*
X10198753Y-11122079D02*
X10198753Y-11141127D01*
X10198753Y-11141127D02*
X10189229Y-11169698D01*
X10189229Y-11169698D02*
X10074944Y-11283984D01*
X10074944Y-11283984D02*
X10198753Y-11283984D01*
X10322563Y-11083984D02*
X10341610Y-11083984D01*
X10341610Y-11083984D02*
X10360658Y-11093508D01*
X10360658Y-11093508D02*
X10370182Y-11103031D01*
X10370182Y-11103031D02*
X10379705Y-11122079D01*
X10379705Y-11122079D02*
X10389229Y-11160174D01*
X10389229Y-11160174D02*
X10389229Y-11207793D01*
X10389229Y-11207793D02*
X10379705Y-11245888D01*
X10379705Y-11245888D02*
X10370182Y-11264936D01*
X10370182Y-11264936D02*
X10360658Y-11274460D01*
X10360658Y-11274460D02*
X10341610Y-11283984D01*
X10341610Y-11283984D02*
X10322563Y-11283984D01*
X10322563Y-11283984D02*
X10303515Y-11274460D01*
X10303515Y-11274460D02*
X10293991Y-11264936D01*
X10293991Y-11264936D02*
X10284467Y-11245888D01*
X10284467Y-11245888D02*
X10274944Y-11207793D01*
X10274944Y-11207793D02*
X10274944Y-11160174D01*
X10274944Y-11160174D02*
X10284467Y-11122079D01*
X10284467Y-11122079D02*
X10293991Y-11103031D01*
X10293991Y-11103031D02*
X10303515Y-11093508D01*
X10303515Y-11093508D02*
X10322563Y-11083984D01*
X10455896Y-11083984D02*
X10579705Y-11083984D01*
X10579705Y-11083984D02*
X10513039Y-11160174D01*
X10513039Y-11160174D02*
X10541610Y-11160174D01*
X10541610Y-11160174D02*
X10560658Y-11169698D01*
X10560658Y-11169698D02*
X10570182Y-11179222D01*
X10570182Y-11179222D02*
X10579705Y-11198269D01*
X10579705Y-11198269D02*
X10579705Y-11245888D01*
X10579705Y-11245888D02*
X10570182Y-11264936D01*
X10570182Y-11264936D02*
X10560658Y-11274460D01*
X10560658Y-11274460D02*
X10541610Y-11283984D01*
X10541610Y-11283984D02*
X10484467Y-11283984D01*
X10484467Y-11283984D02*
X10465420Y-11274460D01*
X10465420Y-11274460D02*
X10455896Y-11264936D01*
X10665420Y-11283984D02*
X10665420Y-11150650D01*
X10665420Y-11169698D02*
X10674944Y-11160174D01*
X10674944Y-11160174D02*
X10693991Y-11150650D01*
X10693991Y-11150650D02*
X10722563Y-11150650D01*
X10722563Y-11150650D02*
X10741610Y-11160174D01*
X10741610Y-11160174D02*
X10751134Y-11179222D01*
X10751134Y-11179222D02*
X10751134Y-11283984D01*
X10751134Y-11179222D02*
X10760658Y-11160174D01*
X10760658Y-11160174D02*
X10779705Y-11150650D01*
X10779705Y-11150650D02*
X10808277Y-11150650D01*
X10808277Y-11150650D02*
X10827325Y-11160174D01*
X10827325Y-11160174D02*
X10836848Y-11179222D01*
X10836848Y-11179222D02*
X10836848Y-11283984D01*
X10932086Y-11283984D02*
X10932086Y-11150650D01*
X10932086Y-11169698D02*
X10941610Y-11160174D01*
X10941610Y-11160174D02*
X10960658Y-11150650D01*
X10960658Y-11150650D02*
X10989229Y-11150650D01*
X10989229Y-11150650D02*
X11008277Y-11160174D01*
X11008277Y-11160174D02*
X11017801Y-11179222D01*
X11017801Y-11179222D02*
X11017801Y-11283984D01*
X11017801Y-11179222D02*
X11027325Y-11160174D01*
X11027325Y-11160174D02*
X11046372Y-11150650D01*
X11046372Y-11150650D02*
X11074944Y-11150650D01*
X11074944Y-11150650D02*
X11093991Y-11160174D01*
X11093991Y-11160174D02*
X11103515Y-11179222D01*
X11103515Y-11179222D02*
X11103515Y-11283984D01*
X11493991Y-11074460D02*
X11322563Y-11331603D01*
X11751134Y-11083984D02*
X11770182Y-11083984D01*
X11770182Y-11083984D02*
X11789229Y-11093508D01*
X11789229Y-11093508D02*
X11798753Y-11103031D01*
X11798753Y-11103031D02*
X11808277Y-11122079D01*
X11808277Y-11122079D02*
X11817801Y-11160174D01*
X11817801Y-11160174D02*
X11817801Y-11207793D01*
X11817801Y-11207793D02*
X11808277Y-11245888D01*
X11808277Y-11245888D02*
X11798753Y-11264936D01*
X11798753Y-11264936D02*
X11789229Y-11274460D01*
X11789229Y-11274460D02*
X11770182Y-11283984D01*
X11770182Y-11283984D02*
X11751134Y-11283984D01*
X11751134Y-11283984D02*
X11732086Y-11274460D01*
X11732086Y-11274460D02*
X11722563Y-11264936D01*
X11722563Y-11264936D02*
X11713039Y-11245888D01*
X11713039Y-11245888D02*
X11703515Y-11207793D01*
X11703515Y-11207793D02*
X11703515Y-11160174D01*
X11703515Y-11160174D02*
X11713039Y-11122079D01*
X11713039Y-11122079D02*
X11722563Y-11103031D01*
X11722563Y-11103031D02*
X11732086Y-11093508D01*
X11732086Y-11093508D02*
X11751134Y-11083984D01*
X11903515Y-11264936D02*
X11913039Y-11274460D01*
X11913039Y-11274460D02*
X11903515Y-11283984D01*
X11903515Y-11283984D02*
X11893991Y-11274460D01*
X11893991Y-11274460D02*
X11903515Y-11264936D01*
X11903515Y-11264936D02*
X11903515Y-11283984D01*
X12036848Y-11083984D02*
X12055896Y-11083984D01*
X12055896Y-11083984D02*
X12074944Y-11093508D01*
X12074944Y-11093508D02*
X12084467Y-11103031D01*
X12084467Y-11103031D02*
X12093991Y-11122079D01*
X12093991Y-11122079D02*
X12103515Y-11160174D01*
X12103515Y-11160174D02*
X12103515Y-11207793D01*
X12103515Y-11207793D02*
X12093991Y-11245888D01*
X12093991Y-11245888D02*
X12084467Y-11264936D01*
X12084467Y-11264936D02*
X12074944Y-11274460D01*
X12074944Y-11274460D02*
X12055896Y-11283984D01*
X12055896Y-11283984D02*
X12036848Y-11283984D01*
X12036848Y-11283984D02*
X12017801Y-11274460D01*
X12017801Y-11274460D02*
X12008277Y-11264936D01*
X12008277Y-11264936D02*
X11998753Y-11245888D01*
X11998753Y-11245888D02*
X11989229Y-11207793D01*
X11989229Y-11207793D02*
X11989229Y-11160174D01*
X11989229Y-11160174D02*
X11998753Y-11122079D01*
X11998753Y-11122079D02*
X12008277Y-11103031D01*
X12008277Y-11103031D02*
X12017801Y-11093508D01*
X12017801Y-11093508D02*
X12036848Y-11083984D01*
X12227325Y-11083984D02*
X12246372Y-11083984D01*
X12246372Y-11083984D02*
X12265420Y-11093508D01*
X12265420Y-11093508D02*
X12274944Y-11103031D01*
X12274944Y-11103031D02*
X12284467Y-11122079D01*
X12284467Y-11122079D02*
X12293991Y-11160174D01*
X12293991Y-11160174D02*
X12293991Y-11207793D01*
X12293991Y-11207793D02*
X12284467Y-11245888D01*
X12284467Y-11245888D02*
X12274944Y-11264936D01*
X12274944Y-11264936D02*
X12265420Y-11274460D01*
X12265420Y-11274460D02*
X12246372Y-11283984D01*
X12246372Y-11283984D02*
X12227325Y-11283984D01*
X12227325Y-11283984D02*
X12208277Y-11274460D01*
X12208277Y-11274460D02*
X12198753Y-11264936D01*
X12198753Y-11264936D02*
X12189229Y-11245888D01*
X12189229Y-11245888D02*
X12179706Y-11207793D01*
X12179706Y-11207793D02*
X12179706Y-11160174D01*
X12179706Y-11160174D02*
X12189229Y-11122079D01*
X12189229Y-11122079D02*
X12198753Y-11103031D01*
X12198753Y-11103031D02*
X12208277Y-11093508D01*
X12208277Y-11093508D02*
X12227325Y-11083984D01*
X12408277Y-11169698D02*
X12389229Y-11160174D01*
X12389229Y-11160174D02*
X12379706Y-11150650D01*
X12379706Y-11150650D02*
X12370182Y-11131603D01*
X12370182Y-11131603D02*
X12370182Y-11122079D01*
X12370182Y-11122079D02*
X12379706Y-11103031D01*
X12379706Y-11103031D02*
X12389229Y-11093508D01*
X12389229Y-11093508D02*
X12408277Y-11083984D01*
X12408277Y-11083984D02*
X12446372Y-11083984D01*
X12446372Y-11083984D02*
X12465420Y-11093508D01*
X12465420Y-11093508D02*
X12474944Y-11103031D01*
X12474944Y-11103031D02*
X12484467Y-11122079D01*
X12484467Y-11122079D02*
X12484467Y-11131603D01*
X12484467Y-11131603D02*
X12474944Y-11150650D01*
X12474944Y-11150650D02*
X12465420Y-11160174D01*
X12465420Y-11160174D02*
X12446372Y-11169698D01*
X12446372Y-11169698D02*
X12408277Y-11169698D01*
X12408277Y-11169698D02*
X12389229Y-11179222D01*
X12389229Y-11179222D02*
X12379706Y-11188746D01*
X12379706Y-11188746D02*
X12370182Y-11207793D01*
X12370182Y-11207793D02*
X12370182Y-11245888D01*
X12370182Y-11245888D02*
X12379706Y-11264936D01*
X12379706Y-11264936D02*
X12389229Y-11274460D01*
X12389229Y-11274460D02*
X12408277Y-11283984D01*
X12408277Y-11283984D02*
X12446372Y-11283984D01*
X12446372Y-11283984D02*
X12465420Y-11274460D01*
X12465420Y-11274460D02*
X12474944Y-11264936D01*
X12474944Y-11264936D02*
X12484467Y-11245888D01*
X12484467Y-11245888D02*
X12484467Y-11207793D01*
X12484467Y-11207793D02*
X12474944Y-11188746D01*
X12474944Y-11188746D02*
X12465420Y-11179222D01*
X12465420Y-11179222D02*
X12446372Y-11169698D01*
X12608277Y-11083984D02*
X12627325Y-11083984D01*
X12627325Y-11083984D02*
X12646372Y-11093508D01*
X12646372Y-11093508D02*
X12655896Y-11103031D01*
X12655896Y-11103031D02*
X12665420Y-11122079D01*
X12665420Y-11122079D02*
X12674944Y-11160174D01*
X12674944Y-11160174D02*
X12674944Y-11207793D01*
X12674944Y-11207793D02*
X12665420Y-11245888D01*
X12665420Y-11245888D02*
X12655896Y-11264936D01*
X12655896Y-11264936D02*
X12646372Y-11274460D01*
X12646372Y-11274460D02*
X12627325Y-11283984D01*
X12627325Y-11283984D02*
X12608277Y-11283984D01*
X12608277Y-11283984D02*
X12589229Y-11274460D01*
X12589229Y-11274460D02*
X12579706Y-11264936D01*
X12579706Y-11264936D02*
X12570182Y-11245888D01*
X12570182Y-11245888D02*
X12560658Y-11207793D01*
X12560658Y-11207793D02*
X12560658Y-11160174D01*
X12560658Y-11160174D02*
X12570182Y-11122079D01*
X12570182Y-11122079D02*
X12579706Y-11103031D01*
X12579706Y-11103031D02*
X12589229Y-11093508D01*
X12589229Y-11093508D02*
X12608277Y-11083984D01*
X12751134Y-11083984D02*
X12751134Y-11122079D01*
X12827325Y-11083984D02*
X12827325Y-11122079D01*
X13122563Y-11360174D02*
X13113039Y-11350650D01*
X13113039Y-11350650D02*
X13093991Y-11322079D01*
X13093991Y-11322079D02*
X13084468Y-11303031D01*
X13084468Y-11303031D02*
X13074944Y-11274460D01*
X13074944Y-11274460D02*
X13065420Y-11226841D01*
X13065420Y-11226841D02*
X13065420Y-11188746D01*
X13065420Y-11188746D02*
X13074944Y-11141127D01*
X13074944Y-11141127D02*
X13084468Y-11112555D01*
X13084468Y-11112555D02*
X13093991Y-11093508D01*
X13093991Y-11093508D02*
X13113039Y-11064936D01*
X13113039Y-11064936D02*
X13122563Y-11055412D01*
X13303515Y-11283984D02*
X13189229Y-11283984D01*
X13246372Y-11283984D02*
X13246372Y-11083984D01*
X13246372Y-11083984D02*
X13227325Y-11112555D01*
X13227325Y-11112555D02*
X13208277Y-11131603D01*
X13208277Y-11131603D02*
X13189229Y-11141127D01*
X13493991Y-11283984D02*
X13379706Y-11283984D01*
X13436848Y-11283984D02*
X13436848Y-11083984D01*
X13436848Y-11083984D02*
X13417801Y-11112555D01*
X13417801Y-11112555D02*
X13398753Y-11131603D01*
X13398753Y-11131603D02*
X13379706Y-11141127D01*
X13665420Y-11083984D02*
X13627325Y-11083984D01*
X13627325Y-11083984D02*
X13608277Y-11093508D01*
X13608277Y-11093508D02*
X13598753Y-11103031D01*
X13598753Y-11103031D02*
X13579706Y-11131603D01*
X13579706Y-11131603D02*
X13570182Y-11169698D01*
X13570182Y-11169698D02*
X13570182Y-11245888D01*
X13570182Y-11245888D02*
X13579706Y-11264936D01*
X13579706Y-11264936D02*
X13589229Y-11274460D01*
X13589229Y-11274460D02*
X13608277Y-11283984D01*
X13608277Y-11283984D02*
X13646372Y-11283984D01*
X13646372Y-11283984D02*
X13665420Y-11274460D01*
X13665420Y-11274460D02*
X13674944Y-11264936D01*
X13674944Y-11264936D02*
X13684468Y-11245888D01*
X13684468Y-11245888D02*
X13684468Y-11198269D01*
X13684468Y-11198269D02*
X13674944Y-11179222D01*
X13674944Y-11179222D02*
X13665420Y-11169698D01*
X13665420Y-11169698D02*
X13646372Y-11160174D01*
X13646372Y-11160174D02*
X13608277Y-11160174D01*
X13608277Y-11160174D02*
X13589229Y-11169698D01*
X13589229Y-11169698D02*
X13579706Y-11179222D01*
X13579706Y-11179222D02*
X13570182Y-11198269D01*
X13922563Y-11283984D02*
X13922563Y-11083984D01*
X14008277Y-11283984D02*
X14008277Y-11179222D01*
X14008277Y-11179222D02*
X13998753Y-11160174D01*
X13998753Y-11160174D02*
X13979706Y-11150650D01*
X13979706Y-11150650D02*
X13951134Y-11150650D01*
X13951134Y-11150650D02*
X13932087Y-11160174D01*
X13932087Y-11160174D02*
X13922563Y-11169698D01*
X14132087Y-11283984D02*
X14113039Y-11274460D01*
X14113039Y-11274460D02*
X14103515Y-11264936D01*
X14103515Y-11264936D02*
X14093991Y-11245888D01*
X14093991Y-11245888D02*
X14093991Y-11188746D01*
X14093991Y-11188746D02*
X14103515Y-11169698D01*
X14103515Y-11169698D02*
X14113039Y-11160174D01*
X14113039Y-11160174D02*
X14132087Y-11150650D01*
X14132087Y-11150650D02*
X14160658Y-11150650D01*
X14160658Y-11150650D02*
X14179706Y-11160174D01*
X14179706Y-11160174D02*
X14189230Y-11169698D01*
X14189230Y-11169698D02*
X14198753Y-11188746D01*
X14198753Y-11188746D02*
X14198753Y-11245888D01*
X14198753Y-11245888D02*
X14189230Y-11264936D01*
X14189230Y-11264936D02*
X14179706Y-11274460D01*
X14179706Y-11274460D02*
X14160658Y-11283984D01*
X14160658Y-11283984D02*
X14132087Y-11283984D01*
X14313039Y-11283984D02*
X14293991Y-11274460D01*
X14293991Y-11274460D02*
X14284468Y-11255412D01*
X14284468Y-11255412D02*
X14284468Y-11083984D01*
X14465420Y-11274460D02*
X14446372Y-11283984D01*
X14446372Y-11283984D02*
X14408277Y-11283984D01*
X14408277Y-11283984D02*
X14389230Y-11274460D01*
X14389230Y-11274460D02*
X14379706Y-11255412D01*
X14379706Y-11255412D02*
X14379706Y-11179222D01*
X14379706Y-11179222D02*
X14389230Y-11160174D01*
X14389230Y-11160174D02*
X14408277Y-11150650D01*
X14408277Y-11150650D02*
X14446372Y-11150650D01*
X14446372Y-11150650D02*
X14465420Y-11160174D01*
X14465420Y-11160174D02*
X14474944Y-11179222D01*
X14474944Y-11179222D02*
X14474944Y-11198269D01*
X14474944Y-11198269D02*
X14379706Y-11217317D01*
X14551134Y-11274460D02*
X14570182Y-11283984D01*
X14570182Y-11283984D02*
X14608277Y-11283984D01*
X14608277Y-11283984D02*
X14627325Y-11274460D01*
X14627325Y-11274460D02*
X14636849Y-11255412D01*
X14636849Y-11255412D02*
X14636849Y-11245888D01*
X14636849Y-11245888D02*
X14627325Y-11226841D01*
X14627325Y-11226841D02*
X14608277Y-11217317D01*
X14608277Y-11217317D02*
X14579706Y-11217317D01*
X14579706Y-11217317D02*
X14560658Y-11207793D01*
X14560658Y-11207793D02*
X14551134Y-11188746D01*
X14551134Y-11188746D02*
X14551134Y-11179222D01*
X14551134Y-11179222D02*
X14560658Y-11160174D01*
X14560658Y-11160174D02*
X14579706Y-11150650D01*
X14579706Y-11150650D02*
X14608277Y-11150650D01*
X14608277Y-11150650D02*
X14627325Y-11160174D01*
X14703515Y-11360174D02*
X14713039Y-11350650D01*
X14713039Y-11350650D02*
X14732087Y-11322079D01*
X14732087Y-11322079D02*
X14741611Y-11303031D01*
X14741611Y-11303031D02*
X14751134Y-11274460D01*
X14751134Y-11274460D02*
X14760658Y-11226841D01*
X14760658Y-11226841D02*
X14760658Y-11188746D01*
X14760658Y-11188746D02*
X14751134Y-11141127D01*
X14751134Y-11141127D02*
X14741611Y-11112555D01*
X14741611Y-11112555D02*
X14732087Y-11093508D01*
X14732087Y-11093508D02*
X14713039Y-11064936D01*
X14713039Y-11064936D02*
X14703515Y-11055412D01*
D12*
X9547500Y-11456500D02*
G75*
G02*
X9466220Y-11456500I-40640J0D01*
G01*
X9466220Y-11456500D02*
G75*
G02*
X9547500Y-11456500I40640J0D01*
G01*
D11*
X9846372Y-11347984D02*
X9865420Y-11347984D01*
X9865420Y-11347984D02*
X9884467Y-11357508D01*
X9884467Y-11357508D02*
X9893991Y-11367031D01*
X9893991Y-11367031D02*
X9903515Y-11386079D01*
X9903515Y-11386079D02*
X9913039Y-11424174D01*
X9913039Y-11424174D02*
X9913039Y-11471793D01*
X9913039Y-11471793D02*
X9903515Y-11509888D01*
X9903515Y-11509888D02*
X9893991Y-11528936D01*
X9893991Y-11528936D02*
X9884467Y-11538460D01*
X9884467Y-11538460D02*
X9865420Y-11547984D01*
X9865420Y-11547984D02*
X9846372Y-11547984D01*
X9846372Y-11547984D02*
X9827324Y-11538460D01*
X9827324Y-11538460D02*
X9817801Y-11528936D01*
X9817801Y-11528936D02*
X9808277Y-11509888D01*
X9808277Y-11509888D02*
X9798753Y-11471793D01*
X9798753Y-11471793D02*
X9798753Y-11424174D01*
X9798753Y-11424174D02*
X9808277Y-11386079D01*
X9808277Y-11386079D02*
X9817801Y-11367031D01*
X9817801Y-11367031D02*
X9827324Y-11357508D01*
X9827324Y-11357508D02*
X9846372Y-11347984D01*
X9998753Y-11528936D02*
X10008277Y-11538460D01*
X10008277Y-11538460D02*
X9998753Y-11547984D01*
X9998753Y-11547984D02*
X9989229Y-11538460D01*
X9989229Y-11538460D02*
X9998753Y-11528936D01*
X9998753Y-11528936D02*
X9998753Y-11547984D01*
X10122563Y-11433698D02*
X10103515Y-11424174D01*
X10103515Y-11424174D02*
X10093991Y-11414650D01*
X10093991Y-11414650D02*
X10084467Y-11395603D01*
X10084467Y-11395603D02*
X10084467Y-11386079D01*
X10084467Y-11386079D02*
X10093991Y-11367031D01*
X10093991Y-11367031D02*
X10103515Y-11357508D01*
X10103515Y-11357508D02*
X10122563Y-11347984D01*
X10122563Y-11347984D02*
X10160658Y-11347984D01*
X10160658Y-11347984D02*
X10179705Y-11357508D01*
X10179705Y-11357508D02*
X10189229Y-11367031D01*
X10189229Y-11367031D02*
X10198753Y-11386079D01*
X10198753Y-11386079D02*
X10198753Y-11395603D01*
X10198753Y-11395603D02*
X10189229Y-11414650D01*
X10189229Y-11414650D02*
X10179705Y-11424174D01*
X10179705Y-11424174D02*
X10160658Y-11433698D01*
X10160658Y-11433698D02*
X10122563Y-11433698D01*
X10122563Y-11433698D02*
X10103515Y-11443222D01*
X10103515Y-11443222D02*
X10093991Y-11452746D01*
X10093991Y-11452746D02*
X10084467Y-11471793D01*
X10084467Y-11471793D02*
X10084467Y-11509888D01*
X10084467Y-11509888D02*
X10093991Y-11528936D01*
X10093991Y-11528936D02*
X10103515Y-11538460D01*
X10103515Y-11538460D02*
X10122563Y-11547984D01*
X10122563Y-11547984D02*
X10160658Y-11547984D01*
X10160658Y-11547984D02*
X10179705Y-11538460D01*
X10179705Y-11538460D02*
X10189229Y-11528936D01*
X10189229Y-11528936D02*
X10198753Y-11509888D01*
X10198753Y-11509888D02*
X10198753Y-11471793D01*
X10198753Y-11471793D02*
X10189229Y-11452746D01*
X10189229Y-11452746D02*
X10179705Y-11443222D01*
X10179705Y-11443222D02*
X10160658Y-11433698D01*
X10389229Y-11547984D02*
X10274944Y-11547984D01*
X10332086Y-11547984D02*
X10332086Y-11347984D01*
X10332086Y-11347984D02*
X10313039Y-11376555D01*
X10313039Y-11376555D02*
X10293991Y-11395603D01*
X10293991Y-11395603D02*
X10274944Y-11405127D01*
X10455896Y-11347984D02*
X10579705Y-11347984D01*
X10579705Y-11347984D02*
X10513039Y-11424174D01*
X10513039Y-11424174D02*
X10541610Y-11424174D01*
X10541610Y-11424174D02*
X10560658Y-11433698D01*
X10560658Y-11433698D02*
X10570182Y-11443222D01*
X10570182Y-11443222D02*
X10579705Y-11462269D01*
X10579705Y-11462269D02*
X10579705Y-11509888D01*
X10579705Y-11509888D02*
X10570182Y-11528936D01*
X10570182Y-11528936D02*
X10560658Y-11538460D01*
X10560658Y-11538460D02*
X10541610Y-11547984D01*
X10541610Y-11547984D02*
X10484467Y-11547984D01*
X10484467Y-11547984D02*
X10465420Y-11538460D01*
X10465420Y-11538460D02*
X10455896Y-11528936D01*
X10665420Y-11547984D02*
X10665420Y-11414650D01*
X10665420Y-11433698D02*
X10674944Y-11424174D01*
X10674944Y-11424174D02*
X10693991Y-11414650D01*
X10693991Y-11414650D02*
X10722563Y-11414650D01*
X10722563Y-11414650D02*
X10741610Y-11424174D01*
X10741610Y-11424174D02*
X10751134Y-11443222D01*
X10751134Y-11443222D02*
X10751134Y-11547984D01*
X10751134Y-11443222D02*
X10760658Y-11424174D01*
X10760658Y-11424174D02*
X10779705Y-11414650D01*
X10779705Y-11414650D02*
X10808277Y-11414650D01*
X10808277Y-11414650D02*
X10827325Y-11424174D01*
X10827325Y-11424174D02*
X10836848Y-11443222D01*
X10836848Y-11443222D02*
X10836848Y-11547984D01*
X10932086Y-11547984D02*
X10932086Y-11414650D01*
X10932086Y-11433698D02*
X10941610Y-11424174D01*
X10941610Y-11424174D02*
X10960658Y-11414650D01*
X10960658Y-11414650D02*
X10989229Y-11414650D01*
X10989229Y-11414650D02*
X11008277Y-11424174D01*
X11008277Y-11424174D02*
X11017801Y-11443222D01*
X11017801Y-11443222D02*
X11017801Y-11547984D01*
X11017801Y-11443222D02*
X11027325Y-11424174D01*
X11027325Y-11424174D02*
X11046372Y-11414650D01*
X11046372Y-11414650D02*
X11074944Y-11414650D01*
X11074944Y-11414650D02*
X11093991Y-11424174D01*
X11093991Y-11424174D02*
X11103515Y-11443222D01*
X11103515Y-11443222D02*
X11103515Y-11547984D01*
X11493991Y-11338460D02*
X11322563Y-11595603D01*
X11751134Y-11347984D02*
X11770182Y-11347984D01*
X11770182Y-11347984D02*
X11789229Y-11357508D01*
X11789229Y-11357508D02*
X11798753Y-11367031D01*
X11798753Y-11367031D02*
X11808277Y-11386079D01*
X11808277Y-11386079D02*
X11817801Y-11424174D01*
X11817801Y-11424174D02*
X11817801Y-11471793D01*
X11817801Y-11471793D02*
X11808277Y-11509888D01*
X11808277Y-11509888D02*
X11798753Y-11528936D01*
X11798753Y-11528936D02*
X11789229Y-11538460D01*
X11789229Y-11538460D02*
X11770182Y-11547984D01*
X11770182Y-11547984D02*
X11751134Y-11547984D01*
X11751134Y-11547984D02*
X11732086Y-11538460D01*
X11732086Y-11538460D02*
X11722563Y-11528936D01*
X11722563Y-11528936D02*
X11713039Y-11509888D01*
X11713039Y-11509888D02*
X11703515Y-11471793D01*
X11703515Y-11471793D02*
X11703515Y-11424174D01*
X11703515Y-11424174D02*
X11713039Y-11386079D01*
X11713039Y-11386079D02*
X11722563Y-11367031D01*
X11722563Y-11367031D02*
X11732086Y-11357508D01*
X11732086Y-11357508D02*
X11751134Y-11347984D01*
X11903515Y-11528936D02*
X11913039Y-11538460D01*
X11913039Y-11538460D02*
X11903515Y-11547984D01*
X11903515Y-11547984D02*
X11893991Y-11538460D01*
X11893991Y-11538460D02*
X11903515Y-11528936D01*
X11903515Y-11528936D02*
X11903515Y-11547984D01*
X12036848Y-11347984D02*
X12055896Y-11347984D01*
X12055896Y-11347984D02*
X12074944Y-11357508D01*
X12074944Y-11357508D02*
X12084467Y-11367031D01*
X12084467Y-11367031D02*
X12093991Y-11386079D01*
X12093991Y-11386079D02*
X12103515Y-11424174D01*
X12103515Y-11424174D02*
X12103515Y-11471793D01*
X12103515Y-11471793D02*
X12093991Y-11509888D01*
X12093991Y-11509888D02*
X12084467Y-11528936D01*
X12084467Y-11528936D02*
X12074944Y-11538460D01*
X12074944Y-11538460D02*
X12055896Y-11547984D01*
X12055896Y-11547984D02*
X12036848Y-11547984D01*
X12036848Y-11547984D02*
X12017801Y-11538460D01*
X12017801Y-11538460D02*
X12008277Y-11528936D01*
X12008277Y-11528936D02*
X11998753Y-11509888D01*
X11998753Y-11509888D02*
X11989229Y-11471793D01*
X11989229Y-11471793D02*
X11989229Y-11424174D01*
X11989229Y-11424174D02*
X11998753Y-11386079D01*
X11998753Y-11386079D02*
X12008277Y-11367031D01*
X12008277Y-11367031D02*
X12017801Y-11357508D01*
X12017801Y-11357508D02*
X12036848Y-11347984D01*
X12170182Y-11347984D02*
X12293991Y-11347984D01*
X12293991Y-11347984D02*
X12227325Y-11424174D01*
X12227325Y-11424174D02*
X12255896Y-11424174D01*
X12255896Y-11424174D02*
X12274944Y-11433698D01*
X12274944Y-11433698D02*
X12284467Y-11443222D01*
X12284467Y-11443222D02*
X12293991Y-11462269D01*
X12293991Y-11462269D02*
X12293991Y-11509888D01*
X12293991Y-11509888D02*
X12284467Y-11528936D01*
X12284467Y-11528936D02*
X12274944Y-11538460D01*
X12274944Y-11538460D02*
X12255896Y-11547984D01*
X12255896Y-11547984D02*
X12198753Y-11547984D01*
X12198753Y-11547984D02*
X12179706Y-11538460D01*
X12179706Y-11538460D02*
X12170182Y-11528936D01*
X12370182Y-11367031D02*
X12379706Y-11357508D01*
X12379706Y-11357508D02*
X12398753Y-11347984D01*
X12398753Y-11347984D02*
X12446372Y-11347984D01*
X12446372Y-11347984D02*
X12465420Y-11357508D01*
X12465420Y-11357508D02*
X12474944Y-11367031D01*
X12474944Y-11367031D02*
X12484467Y-11386079D01*
X12484467Y-11386079D02*
X12484467Y-11405127D01*
X12484467Y-11405127D02*
X12474944Y-11433698D01*
X12474944Y-11433698D02*
X12360658Y-11547984D01*
X12360658Y-11547984D02*
X12484467Y-11547984D01*
X12608277Y-11347984D02*
X12627325Y-11347984D01*
X12627325Y-11347984D02*
X12646372Y-11357508D01*
X12646372Y-11357508D02*
X12655896Y-11367031D01*
X12655896Y-11367031D02*
X12665420Y-11386079D01*
X12665420Y-11386079D02*
X12674944Y-11424174D01*
X12674944Y-11424174D02*
X12674944Y-11471793D01*
X12674944Y-11471793D02*
X12665420Y-11509888D01*
X12665420Y-11509888D02*
X12655896Y-11528936D01*
X12655896Y-11528936D02*
X12646372Y-11538460D01*
X12646372Y-11538460D02*
X12627325Y-11547984D01*
X12627325Y-11547984D02*
X12608277Y-11547984D01*
X12608277Y-11547984D02*
X12589229Y-11538460D01*
X12589229Y-11538460D02*
X12579706Y-11528936D01*
X12579706Y-11528936D02*
X12570182Y-11509888D01*
X12570182Y-11509888D02*
X12560658Y-11471793D01*
X12560658Y-11471793D02*
X12560658Y-11424174D01*
X12560658Y-11424174D02*
X12570182Y-11386079D01*
X12570182Y-11386079D02*
X12579706Y-11367031D01*
X12579706Y-11367031D02*
X12589229Y-11357508D01*
X12589229Y-11357508D02*
X12608277Y-11347984D01*
X12751134Y-11347984D02*
X12751134Y-11386079D01*
X12827325Y-11347984D02*
X12827325Y-11386079D01*
X13122563Y-11624174D02*
X13113039Y-11614650D01*
X13113039Y-11614650D02*
X13093991Y-11586079D01*
X13093991Y-11586079D02*
X13084468Y-11567031D01*
X13084468Y-11567031D02*
X13074944Y-11538460D01*
X13074944Y-11538460D02*
X13065420Y-11490841D01*
X13065420Y-11490841D02*
X13065420Y-11452746D01*
X13065420Y-11452746D02*
X13074944Y-11405127D01*
X13074944Y-11405127D02*
X13084468Y-11376555D01*
X13084468Y-11376555D02*
X13093991Y-11357508D01*
X13093991Y-11357508D02*
X13113039Y-11328936D01*
X13113039Y-11328936D02*
X13122563Y-11319412D01*
X13189229Y-11367031D02*
X13198753Y-11357508D01*
X13198753Y-11357508D02*
X13217801Y-11347984D01*
X13217801Y-11347984D02*
X13265420Y-11347984D01*
X13265420Y-11347984D02*
X13284468Y-11357508D01*
X13284468Y-11357508D02*
X13293991Y-11367031D01*
X13293991Y-11367031D02*
X13303515Y-11386079D01*
X13303515Y-11386079D02*
X13303515Y-11405127D01*
X13303515Y-11405127D02*
X13293991Y-11433698D01*
X13293991Y-11433698D02*
X13179706Y-11547984D01*
X13179706Y-11547984D02*
X13303515Y-11547984D01*
X13541610Y-11547984D02*
X13541610Y-11347984D01*
X13627325Y-11547984D02*
X13627325Y-11443222D01*
X13627325Y-11443222D02*
X13617801Y-11424174D01*
X13617801Y-11424174D02*
X13598753Y-11414650D01*
X13598753Y-11414650D02*
X13570182Y-11414650D01*
X13570182Y-11414650D02*
X13551134Y-11424174D01*
X13551134Y-11424174D02*
X13541610Y-11433698D01*
X13751134Y-11547984D02*
X13732087Y-11538460D01*
X13732087Y-11538460D02*
X13722563Y-11528936D01*
X13722563Y-11528936D02*
X13713039Y-11509888D01*
X13713039Y-11509888D02*
X13713039Y-11452746D01*
X13713039Y-11452746D02*
X13722563Y-11433698D01*
X13722563Y-11433698D02*
X13732087Y-11424174D01*
X13732087Y-11424174D02*
X13751134Y-11414650D01*
X13751134Y-11414650D02*
X13779706Y-11414650D01*
X13779706Y-11414650D02*
X13798753Y-11424174D01*
X13798753Y-11424174D02*
X13808277Y-11433698D01*
X13808277Y-11433698D02*
X13817801Y-11452746D01*
X13817801Y-11452746D02*
X13817801Y-11509888D01*
X13817801Y-11509888D02*
X13808277Y-11528936D01*
X13808277Y-11528936D02*
X13798753Y-11538460D01*
X13798753Y-11538460D02*
X13779706Y-11547984D01*
X13779706Y-11547984D02*
X13751134Y-11547984D01*
X13932087Y-11547984D02*
X13913039Y-11538460D01*
X13913039Y-11538460D02*
X13903515Y-11519412D01*
X13903515Y-11519412D02*
X13903515Y-11347984D01*
X14084468Y-11538460D02*
X14065420Y-11547984D01*
X14065420Y-11547984D02*
X14027325Y-11547984D01*
X14027325Y-11547984D02*
X14008277Y-11538460D01*
X14008277Y-11538460D02*
X13998753Y-11519412D01*
X13998753Y-11519412D02*
X13998753Y-11443222D01*
X13998753Y-11443222D02*
X14008277Y-11424174D01*
X14008277Y-11424174D02*
X14027325Y-11414650D01*
X14027325Y-11414650D02*
X14065420Y-11414650D01*
X14065420Y-11414650D02*
X14084468Y-11424174D01*
X14084468Y-11424174D02*
X14093991Y-11443222D01*
X14093991Y-11443222D02*
X14093991Y-11462269D01*
X14093991Y-11462269D02*
X13998753Y-11481317D01*
X14170182Y-11538460D02*
X14189230Y-11547984D01*
X14189230Y-11547984D02*
X14227325Y-11547984D01*
X14227325Y-11547984D02*
X14246372Y-11538460D01*
X14246372Y-11538460D02*
X14255896Y-11519412D01*
X14255896Y-11519412D02*
X14255896Y-11509888D01*
X14255896Y-11509888D02*
X14246372Y-11490841D01*
X14246372Y-11490841D02*
X14227325Y-11481317D01*
X14227325Y-11481317D02*
X14198753Y-11481317D01*
X14198753Y-11481317D02*
X14179706Y-11471793D01*
X14179706Y-11471793D02*
X14170182Y-11452746D01*
X14170182Y-11452746D02*
X14170182Y-11443222D01*
X14170182Y-11443222D02*
X14179706Y-11424174D01*
X14179706Y-11424174D02*
X14198753Y-11414650D01*
X14198753Y-11414650D02*
X14227325Y-11414650D01*
X14227325Y-11414650D02*
X14246372Y-11424174D01*
X14322563Y-11624174D02*
X14332087Y-11614650D01*
X14332087Y-11614650D02*
X14351134Y-11586079D01*
X14351134Y-11586079D02*
X14360658Y-11567031D01*
X14360658Y-11567031D02*
X14370182Y-11538460D01*
X14370182Y-11538460D02*
X14379706Y-11490841D01*
X14379706Y-11490841D02*
X14379706Y-11452746D01*
X14379706Y-11452746D02*
X14370182Y-11405127D01*
X14370182Y-11405127D02*
X14360658Y-11376555D01*
X14360658Y-11376555D02*
X14351134Y-11357508D01*
X14351134Y-11357508D02*
X14332087Y-11328936D01*
X14332087Y-11328936D02*
X14322563Y-11319412D01*
M02*
