M48
; DRILL file {KiCad 8.0.5} date 2025-10-23T09:57:43-0500
; FORMAT={-:-/ absolute / metric / decimal}
; #@! TF.CreationDate,2025-10-23T09:57:43-05:00
; #@! TF.GenerationSoftware,Kicad,Pcbnew,8.0.5
; #@! TF.FileFunction,Plated,2,3,Buried
FMAT,2
METRIC
; #@! TA.AperFunction,Plated,Buried,ViaDrill
T1C0.152
%
G90
G05
T1
X97.488Y-86.125
X97.488Y-86.925
X97.488Y-87.725
X97.488Y-88.525
X97.488Y-89.325
X97.488Y-90.125
X97.488Y-90.925
X97.488Y-91.725
X97.488Y-92.525
X97.488Y-93.325
X97.488Y-94.125
X97.488Y-94.925
X97.488Y-95.725
X97.488Y-96.525
X97.488Y-97.325
X97.488Y-98.125
X98.044Y-83.085
X98.47Y-86.087
X98.47Y-86.887
X98.47Y-87.687
X98.47Y-88.487
X98.47Y-89.287
X98.47Y-90.087
X98.47Y-90.887
X98.47Y-91.687
X98.47Y-92.487
X98.47Y-93.287
X98.47Y-94.087
X98.47Y-94.887
X98.47Y-95.687
X98.47Y-96.487
X98.47Y-97.287
X98.47Y-98.087
X99.488Y-86.125
X99.488Y-86.925
X99.488Y-87.725
X99.488Y-88.525
X99.488Y-89.325
X99.488Y-90.125
X99.488Y-90.925
X99.488Y-91.725
X99.488Y-92.525
X99.488Y-93.325
X99.488Y-94.125
X99.488Y-94.925
X99.488Y-95.725
X99.488Y-96.525
X99.488Y-97.325
X99.488Y-98.125
X100.47Y-86.087
X100.47Y-86.887
X100.47Y-87.687
X100.47Y-88.487
X100.47Y-89.287
X100.47Y-90.087
X100.47Y-90.887
X100.47Y-91.687
X100.47Y-92.487
X100.47Y-93.287
X100.47Y-94.087
X100.47Y-94.887
X100.47Y-95.687
X100.47Y-96.487
X100.47Y-97.287
X100.47Y-98.087
X101.318Y-100.951
X101.488Y-86.125
X101.488Y-86.925
X101.488Y-87.725
X101.488Y-88.525
X101.488Y-89.325
X101.488Y-90.125
X101.488Y-90.925
X101.488Y-91.725
X101.488Y-92.525
X101.488Y-93.325
X101.488Y-94.125
X101.488Y-94.925
X101.488Y-95.725
X101.488Y-96.525
X101.488Y-97.325
X101.488Y-98.125
X102.47Y-86.087
X102.47Y-86.887
X102.47Y-87.687
X102.47Y-88.487
X102.47Y-89.287
X102.47Y-90.087
X102.47Y-90.887
X102.47Y-91.687
X102.47Y-92.487
X102.47Y-93.287
X102.47Y-94.087
X102.47Y-94.887
X102.47Y-95.687
X102.47Y-96.487
X102.47Y-97.287
X102.47Y-98.087
X103.488Y-92.525
X103.488Y-93.325
X103.488Y-94.125
X103.488Y-94.925
X103.488Y-95.725
X103.488Y-96.525
X103.488Y-97.325
X103.488Y-98.125
X104.688Y-92.525
X104.688Y-93.325
X104.688Y-94.125
X104.688Y-94.925
X104.688Y-95.725
X104.688Y-96.525
X104.688Y-97.325
X104.688Y-98.125
X107.645Y-86.192
X107.696Y-81.699
X107.699Y-87.046
X107.699Y-91.539
X107.701Y-102.25
X108.534Y-86.523
X108.537Y-91.869
X108.539Y-97.23
X108.966Y-81.42
X108.969Y-86.766
X108.971Y-92.127
X108.971Y-97.477
X109.525Y-86.523
X109.527Y-91.869
X109.957Y-81.42
X109.959Y-86.766
X110.515Y-86.523
X110.518Y-91.869
X110.52Y-97.23
X110.52Y-102.58
X110.962Y-86.766
X110.964Y-92.127
X110.964Y-97.477
X110.973Y-81.42
X115.6Y-82.9
X115.6Y-83.4
X115.6Y-83.9
X115.6Y-84.399
X115.6Y-84.9
X115.6Y-85.4
X115.6Y-85.9
X115.6Y-86.401
X115.6Y-86.9
X115.6Y-87.399
X115.6Y-87.9
X115.6Y-88.4
X115.6Y-88.9
X115.6Y-89.4
X115.6Y-89.9
X115.6Y-90.4
X115.6Y-90.9
X115.6Y-91.399
X115.6Y-91.9
X117.0Y-82.5
X117.0Y-92.3
X117.5Y-82.5
X117.5Y-92.3
X118.0Y-82.5
X118.0Y-85.1
X118.0Y-92.3
X118.1Y-89.52
X118.3Y-85.5
X118.4Y-89.17
X118.5Y-82.5
X118.5Y-92.3
X118.6Y-85.1
X118.6Y-85.9
X118.6Y-89.8
X118.7Y-88.82
X118.9Y-86.3
X118.9Y-88.47
X119.0Y-82.5
X119.0Y-85.5
X119.0Y-89.6
X119.0Y-92.3
X119.2Y-88.1
X119.225Y-86.7
X119.4Y-85.8
X119.4Y-89.4
X119.45Y-87.75
X119.475Y-87.05
X119.5Y-82.5
X119.5Y-92.3
X119.7Y-87.4
X119.8Y-86.1
X119.8Y-89.2
X120.0Y-82.5
X120.0Y-92.3
X120.2Y-86.4
X120.2Y-89.0
X120.251Y-101.962
X120.251Y-102.597
X120.5Y-82.5
X120.5Y-92.3
X120.6Y-86.7
X120.6Y-88.8
X121.0Y-87.0
X121.0Y-88.6
X121.4Y-87.3
X121.4Y-88.4
X121.953Y-101.962
X121.953Y-102.597
X122.0Y-92.3
X122.475Y-100.717
X122.475Y-101.217
X122.477Y-98.716
X122.477Y-99.216
X122.477Y-99.716
X122.477Y-100.216
X123.264Y-89.891
X123.266Y-86.401
X123.266Y-86.901
X123.266Y-87.399
X123.266Y-87.901
X123.266Y-89.401
X123.493Y-98.216
X123.495Y-97.717
X123.622Y-90.947
M30
