%TF.GenerationSoftware,KiCad,Pcbnew,8.0.5*%
%TF.CreationDate,2025-10-23T09:57:47-05:00*%
%TF.ProjectId,iris-128s,69726973-2d31-4323-9873-2e6b69636164,1*%
%TF.SameCoordinates,Original*%
%TF.FileFunction,Drillmap*%
%TF.FilePolarity,Positive*%
%FSLAX45Y45*%
G04 Gerber Fmt 4.5, Leading zero omitted, Abs format (unit mm)*
G04 Created by KiCad (PCBNEW 8.0.5) date 2025-10-23 09:57:47*
%MOMM*%
%LPD*%
G01*
G04 APERTURE LIST*
%ADD10C,0.050000*%
%ADD11C,0.200000*%
%ADD12C,0.100000*%
G04 APERTURE END LIST*
D10*
X9550000Y-10400000D02*
X9550000Y-8000000D01*
X10990000Y-10360000D02*
X11030000Y-10400000D01*
X11000000Y-8035000D02*
X11030000Y-8000000D01*
X12570000Y-8000000D02*
X12570000Y-9230000D01*
X10790000Y-10400000D02*
X10830000Y-10360000D01*
X10895000Y-8070000D02*
X10930000Y-8070000D01*
X9550000Y-8000000D02*
X10790000Y-8000000D01*
X10830000Y-10360000D02*
X10870000Y-10340000D01*
X10790000Y-10400000D02*
X9550000Y-10400000D01*
X11030000Y-10400000D02*
X11050000Y-10450000D01*
X12100000Y-10550000D02*
X11120000Y-10550000D01*
X10790000Y-8000000D02*
X10825000Y-8040000D01*
X11050000Y-10450000D02*
X11050000Y-10480000D01*
X10950000Y-10340250D02*
X10990000Y-10360000D01*
X10970000Y-8055000D02*
X11000000Y-8035000D01*
X12500000Y-9300000D02*
X12500000Y-10550000D01*
X10910000Y-10330000D02*
X10950000Y-10340250D01*
X10930000Y-8070000D02*
X10970000Y-8055000D01*
X10825000Y-8040000D02*
X10860000Y-8060000D01*
X12570000Y-9230000D02*
X12500000Y-9300000D01*
X11120000Y-10550000D02*
X11050000Y-10480000D01*
X10870000Y-10340000D02*
X10910000Y-10330000D01*
X12500000Y-10550000D02*
X12100000Y-10550000D01*
X10860000Y-8060000D02*
X10895000Y-8070000D01*
X11030000Y-8000000D02*
X12570000Y-8000000D01*
D11*
D12*
X9772852Y-9192720D02*
X9788092Y-9207960D01*
X9788092Y-9192720D02*
X9772852Y-9207960D01*
X9772852Y-9272720D02*
X9788092Y-9287960D01*
X9788092Y-9272720D02*
X9772852Y-9287960D01*
X9772852Y-9352720D02*
X9788092Y-9367960D01*
X9788092Y-9352720D02*
X9772852Y-9367960D01*
X9772852Y-9432720D02*
X9788092Y-9447960D01*
X9788092Y-9432720D02*
X9772852Y-9447960D01*
X9772852Y-9512720D02*
X9788092Y-9527960D01*
X9788092Y-9512720D02*
X9772852Y-9527960D01*
X9772852Y-9592720D02*
X9788092Y-9607960D01*
X9788092Y-9592720D02*
X9772852Y-9607960D01*
X9772852Y-9672720D02*
X9788092Y-9687960D01*
X9788092Y-9672720D02*
X9772852Y-9687960D01*
X9772852Y-9752720D02*
X9788092Y-9767960D01*
X9788092Y-9752720D02*
X9772852Y-9767960D01*
X9772852Y-9832720D02*
X9788092Y-9847960D01*
X9788092Y-9832720D02*
X9772852Y-9847960D01*
X9796652Y-8340916D02*
X9811892Y-8356156D01*
X9811892Y-8340916D02*
X9796652Y-8356156D01*
X9811570Y-9192732D02*
X9826810Y-9207972D01*
X9826810Y-9192732D02*
X9811570Y-9207972D01*
X9811570Y-9272732D02*
X9826810Y-9287972D01*
X9826810Y-9272732D02*
X9811570Y-9287972D01*
X9811570Y-9352732D02*
X9826810Y-9367972D01*
X9826810Y-9352732D02*
X9811570Y-9367972D01*
X9811570Y-9432732D02*
X9826810Y-9447972D01*
X9826810Y-9432732D02*
X9811570Y-9447972D01*
X9811570Y-9512732D02*
X9826810Y-9527972D01*
X9826810Y-9512732D02*
X9811570Y-9527972D01*
X9811570Y-9592732D02*
X9826810Y-9607972D01*
X9826810Y-9592732D02*
X9811570Y-9607972D01*
X9811570Y-9672732D02*
X9826810Y-9687972D01*
X9826810Y-9672732D02*
X9811570Y-9687972D01*
X9811570Y-9752732D02*
X9826810Y-9767972D01*
X9826810Y-9752732D02*
X9811570Y-9767972D01*
X9811570Y-9832732D02*
X9826810Y-9847972D01*
X9826810Y-9832732D02*
X9811570Y-9847972D01*
X9972852Y-9192720D02*
X9988092Y-9207960D01*
X9988092Y-9192720D02*
X9972852Y-9207960D01*
X9972852Y-9272720D02*
X9988092Y-9287960D01*
X9988092Y-9272720D02*
X9972852Y-9287960D01*
X9972852Y-9352720D02*
X9988092Y-9367960D01*
X9988092Y-9352720D02*
X9972852Y-9367960D01*
X9972852Y-9432720D02*
X9988092Y-9447960D01*
X9988092Y-9432720D02*
X9972852Y-9447960D01*
X9972852Y-9512720D02*
X9988092Y-9527960D01*
X9988092Y-9512720D02*
X9972852Y-9527960D01*
X9972852Y-9592720D02*
X9988092Y-9607960D01*
X9988092Y-9592720D02*
X9972852Y-9607960D01*
X9972852Y-9672720D02*
X9988092Y-9687960D01*
X9988092Y-9672720D02*
X9972852Y-9687960D01*
X9972852Y-9752720D02*
X9988092Y-9767960D01*
X9988092Y-9752720D02*
X9972852Y-9767960D01*
X9972852Y-9832720D02*
X9988092Y-9847960D01*
X9988092Y-9832720D02*
X9972852Y-9847960D01*
X10011570Y-9192732D02*
X10026810Y-9207972D01*
X10026810Y-9192732D02*
X10011570Y-9207972D01*
X10011570Y-9272732D02*
X10026810Y-9287972D01*
X10026810Y-9272732D02*
X10011570Y-9287972D01*
X10011570Y-9352732D02*
X10026810Y-9367972D01*
X10026810Y-9352732D02*
X10011570Y-9367972D01*
X10011570Y-9432732D02*
X10026810Y-9447972D01*
X10026810Y-9432732D02*
X10011570Y-9447972D01*
X10011570Y-9512732D02*
X10026810Y-9527972D01*
X10026810Y-9512732D02*
X10011570Y-9527972D01*
X10011570Y-9592732D02*
X10026810Y-9607972D01*
X10026810Y-9592732D02*
X10011570Y-9607972D01*
X10011570Y-9672732D02*
X10026810Y-9687972D01*
X10026810Y-9672732D02*
X10011570Y-9687972D01*
X10011570Y-9752732D02*
X10026810Y-9767972D01*
X10026810Y-9752732D02*
X10011570Y-9767972D01*
X10011570Y-9832732D02*
X10026810Y-9847972D01*
X10026810Y-9832732D02*
X10011570Y-9847972D01*
X10124314Y-10047414D02*
X10139554Y-10062654D01*
X10139554Y-10047414D02*
X10124314Y-10062654D01*
X10172852Y-9192720D02*
X10188092Y-9207960D01*
X10188092Y-9192720D02*
X10172852Y-9207960D01*
X10172852Y-9272720D02*
X10188092Y-9287960D01*
X10188092Y-9272720D02*
X10172852Y-9287960D01*
X10172852Y-9352720D02*
X10188092Y-9367960D01*
X10188092Y-9352720D02*
X10172852Y-9367960D01*
X10172852Y-9432720D02*
X10188092Y-9447960D01*
X10188092Y-9432720D02*
X10172852Y-9447960D01*
X10172852Y-9512720D02*
X10188092Y-9527960D01*
X10188092Y-9512720D02*
X10172852Y-9527960D01*
X10172852Y-9592720D02*
X10188092Y-9607960D01*
X10188092Y-9592720D02*
X10172852Y-9607960D01*
X10172852Y-9672720D02*
X10188092Y-9687960D01*
X10188092Y-9672720D02*
X10172852Y-9687960D01*
X10172852Y-9752720D02*
X10188092Y-9767960D01*
X10188092Y-9752720D02*
X10172852Y-9767960D01*
X10172852Y-9832720D02*
X10188092Y-9847960D01*
X10188092Y-9832720D02*
X10172852Y-9847960D01*
X10211570Y-9272732D02*
X10226810Y-9287972D01*
X10226810Y-9272732D02*
X10211570Y-9287972D01*
X10211570Y-9352732D02*
X10226810Y-9367972D01*
X10226810Y-9352732D02*
X10211570Y-9367972D01*
X10211570Y-9432732D02*
X10226810Y-9447972D01*
X10226810Y-9432732D02*
X10211570Y-9447972D01*
X10211570Y-9512732D02*
X10226810Y-9527972D01*
X10226810Y-9512732D02*
X10211570Y-9527972D01*
X10211570Y-9592732D02*
X10226810Y-9607972D01*
X10226810Y-9592732D02*
X10211570Y-9607972D01*
X10211570Y-9672732D02*
X10226810Y-9687972D01*
X10226810Y-9672732D02*
X10211570Y-9687972D01*
X10211570Y-9752732D02*
X10226810Y-9767972D01*
X10226810Y-9752732D02*
X10211570Y-9767972D01*
X10211570Y-9832732D02*
X10226810Y-9847972D01*
X10226810Y-9832732D02*
X10211570Y-9847972D01*
X10571480Y-9209532D02*
X10586720Y-9224772D01*
X10586720Y-9209532D02*
X10571480Y-9224772D01*
X10612120Y-9209532D02*
X10627360Y-9224772D01*
X10627360Y-9209532D02*
X10612120Y-9224772D01*
X10652760Y-9209532D02*
X10668000Y-9224772D01*
X10668000Y-9209532D02*
X10652760Y-9224772D01*
X10691114Y-8644636D02*
X10706354Y-8659876D01*
X10706354Y-8644636D02*
X10691114Y-8659876D01*
X10691368Y-9179306D02*
X10706608Y-9194546D01*
X10706608Y-9179306D02*
X10691368Y-9194546D01*
X10691571Y-9715386D02*
X10706811Y-9730626D01*
X10706811Y-9715386D02*
X10691571Y-9730626D01*
X10734040Y-8134350D02*
X10749280Y-8149590D01*
X10749280Y-8134350D02*
X10734040Y-8149590D01*
X10734294Y-8669020D02*
X10749534Y-8684260D01*
X10749534Y-8669020D02*
X10734294Y-8684260D01*
X10734497Y-9205100D02*
X10749737Y-9220340D01*
X10749737Y-9205100D02*
X10734497Y-9220340D01*
X10734497Y-9740100D02*
X10749737Y-9755340D01*
X10749737Y-9740100D02*
X10734497Y-9755340D01*
X10767568Y-9432290D02*
X10782808Y-9447530D01*
X10782808Y-9432290D02*
X10767568Y-9447530D01*
X10767568Y-9482380D02*
X10782808Y-9497620D01*
X10782808Y-9482380D02*
X10767568Y-9497620D01*
X10767568Y-9582380D02*
X10782808Y-9597620D01*
X10782808Y-9582380D02*
X10767568Y-9597620D01*
X10767568Y-9867380D02*
X10782808Y-9882620D01*
X10782808Y-9867380D02*
X10767568Y-9882620D01*
X10767568Y-9967380D02*
X10782808Y-9982620D01*
X10782808Y-9967380D02*
X10767568Y-9982620D01*
X10767568Y-10017380D02*
X10782808Y-10032620D01*
X10782808Y-10017380D02*
X10767568Y-10032620D01*
X10767568Y-10117380D02*
X10782808Y-10132620D01*
X10782808Y-10117380D02*
X10767568Y-10132620D01*
X10867644Y-8162544D02*
X10882884Y-8177784D01*
X10882884Y-8162544D02*
X10867644Y-8177784D01*
X10867644Y-8611870D02*
X10882884Y-8627110D01*
X10882884Y-8611870D02*
X10867644Y-8627110D01*
X10867898Y-8697214D02*
X10883138Y-8712454D01*
X10883138Y-8697214D02*
X10867898Y-8712454D01*
X10867898Y-9146540D02*
X10883138Y-9161780D01*
X10883138Y-9146540D02*
X10867898Y-9161780D01*
X10868101Y-10217620D02*
X10883341Y-10232860D01*
X10883341Y-10217620D02*
X10868101Y-10232860D01*
X10918952Y-9682480D02*
X10934192Y-9697720D01*
X10934192Y-9682480D02*
X10918952Y-9697720D01*
X10918952Y-9768332D02*
X10934192Y-9783572D01*
X10934192Y-9768332D02*
X10918952Y-9783572D01*
X10918952Y-10217658D02*
X10934192Y-10232898D01*
X10934192Y-10217658D02*
X10918952Y-10232898D01*
X10966704Y-8162544D02*
X10981944Y-8177784D01*
X10981944Y-8162544D02*
X10966704Y-8177784D01*
X10966704Y-8611870D02*
X10981944Y-8627110D01*
X10981944Y-8611870D02*
X10966704Y-8627110D01*
X10966958Y-8697214D02*
X10982198Y-8712454D01*
X10982198Y-8697214D02*
X10966958Y-8712454D01*
X10966958Y-9146540D02*
X10982198Y-9161780D01*
X10982198Y-9146540D02*
X10966958Y-9161780D01*
X10967161Y-9233294D02*
X10982401Y-9248534D01*
X10982401Y-9233294D02*
X10967161Y-9248534D01*
X10967161Y-9682620D02*
X10982401Y-9697860D01*
X10982401Y-9682620D02*
X10967161Y-9697860D01*
X10967161Y-9768294D02*
X10982401Y-9783534D01*
X10982401Y-9768294D02*
X10967161Y-9783534D01*
X10967161Y-10217620D02*
X10982401Y-10232860D01*
X10982401Y-10217620D02*
X10967161Y-10232860D01*
X11018012Y-9682480D02*
X11033252Y-9697720D01*
X11033252Y-9682480D02*
X11018012Y-9697720D01*
X11018012Y-9768332D02*
X11033252Y-9783572D01*
X11033252Y-9768332D02*
X11018012Y-9783572D01*
X11018012Y-10217658D02*
X11033252Y-10232898D01*
X11033252Y-10217658D02*
X11018012Y-10232898D01*
X11068304Y-8162544D02*
X11083544Y-8177784D01*
X11083544Y-8162544D02*
X11068304Y-8177784D01*
X11068304Y-8611870D02*
X11083544Y-8627110D01*
X11083544Y-8611870D02*
X11068304Y-8627110D01*
X11068558Y-8697214D02*
X11083798Y-8712454D01*
X11083798Y-8697214D02*
X11068558Y-8712454D01*
X11068558Y-9146540D02*
X11083798Y-9161780D01*
X11083798Y-9146540D02*
X11068558Y-9161780D01*
X11482518Y-8432062D02*
X11497758Y-8447302D01*
X11497758Y-8432062D02*
X11482518Y-8447302D01*
X11482518Y-8532062D02*
X11497758Y-8547302D01*
X11497758Y-8532062D02*
X11482518Y-8547302D01*
X11496040Y-9664026D02*
X11511280Y-9679266D01*
X11511280Y-9664026D02*
X11496040Y-9679266D01*
X11496040Y-9714026D02*
X11511280Y-9729266D01*
X11511280Y-9714026D02*
X11496040Y-9729266D01*
X11496040Y-9764026D02*
X11511280Y-9779266D01*
X11511280Y-9764026D02*
X11496040Y-9779266D01*
X11496040Y-9814026D02*
X11511280Y-9829266D01*
X11511280Y-9814026D02*
X11496040Y-9829266D01*
X11496040Y-9864026D02*
X11511280Y-9879266D01*
X11511280Y-9864026D02*
X11496040Y-9879266D01*
X11496040Y-9914026D02*
X11511280Y-9929266D01*
X11511280Y-9914026D02*
X11496040Y-9929266D01*
X11496040Y-9964026D02*
X11511280Y-9979266D01*
X11511280Y-9964026D02*
X11496040Y-9979266D01*
X11496040Y-10014026D02*
X11511280Y-10029266D01*
X11511280Y-10014026D02*
X11496040Y-10029266D01*
X11496040Y-10064026D02*
X11511280Y-10079266D01*
X11511280Y-10064026D02*
X11496040Y-10079266D01*
X11496040Y-10114026D02*
X11511280Y-10129266D01*
X11511280Y-10114026D02*
X11496040Y-10129266D01*
X11496040Y-10163980D02*
X11511280Y-10179220D01*
X11511280Y-10163980D02*
X11496040Y-10179220D01*
X11592560Y-8282178D02*
X11607800Y-8297418D01*
X11607800Y-8282178D02*
X11592560Y-8297418D01*
X11592560Y-8382000D02*
X11607800Y-8397240D01*
X11607800Y-8382000D02*
X11592560Y-8397240D01*
X11592560Y-8482000D02*
X11607800Y-8497240D01*
X11607800Y-8482000D02*
X11592560Y-8497240D01*
X11637380Y-10313980D02*
X11652620Y-10329220D01*
X11652620Y-10313980D02*
X11637380Y-10329220D01*
X11687380Y-10313980D02*
X11702620Y-10329220D01*
X11702620Y-10313980D02*
X11687380Y-10329220D01*
X11692420Y-8282178D02*
X11707660Y-8297418D01*
X11707660Y-8282178D02*
X11692420Y-8297418D01*
X11737380Y-10313980D02*
X11752620Y-10329220D01*
X11752620Y-10313980D02*
X11737380Y-10329220D01*
X11742420Y-8282178D02*
X11757660Y-8297418D01*
X11757660Y-8282178D02*
X11742420Y-8297418D01*
X11752552Y-8502020D02*
X11767792Y-8517260D01*
X11767792Y-8502020D02*
X11752552Y-8517260D01*
X11782552Y-8542020D02*
X11797792Y-8557260D01*
X11797792Y-8542020D02*
X11782552Y-8557260D01*
X11787380Y-10313980D02*
X11802620Y-10329220D01*
X11802620Y-10313980D02*
X11787380Y-10329220D01*
X11837380Y-10313980D02*
X11852620Y-10329220D01*
X11852620Y-10313980D02*
X11837380Y-10329220D01*
X11852534Y-8462142D02*
X11867774Y-8477382D01*
X11867774Y-8462142D02*
X11852534Y-8477382D01*
X11892534Y-8502142D02*
X11907774Y-8517382D01*
X11907774Y-8502142D02*
X11892534Y-8517382D01*
X11979362Y-10188536D02*
X11994602Y-10203776D01*
X11994602Y-10188536D02*
X11979362Y-10203776D01*
X11979362Y-10252036D02*
X11994602Y-10267276D01*
X11994602Y-10252036D02*
X11979362Y-10267276D01*
X12149542Y-10188536D02*
X12164782Y-10203776D01*
X12164782Y-10188536D02*
X12149542Y-10203776D01*
X12149542Y-10252036D02*
X12164782Y-10267276D01*
X12164782Y-10252036D02*
X12149542Y-10267276D01*
X12192508Y-9182354D02*
X12207748Y-9197594D01*
X12207748Y-9182354D02*
X12192508Y-9197594D01*
X12279252Y-10063980D02*
X12294492Y-10079220D01*
X12294492Y-10063980D02*
X12279252Y-10079220D01*
X12279252Y-10113980D02*
X12294492Y-10129220D01*
X12294492Y-10113980D02*
X12279252Y-10129220D01*
X12279442Y-9813916D02*
X12294682Y-9829156D01*
X12294682Y-9813916D02*
X12279442Y-9829156D01*
X12279442Y-9863916D02*
X12294682Y-9879156D01*
X12294682Y-9863916D02*
X12279442Y-9879156D01*
X12279442Y-9913916D02*
X12294682Y-9929156D01*
X12294682Y-9913916D02*
X12279442Y-9929156D01*
X12279442Y-9963916D02*
X12294682Y-9979156D01*
X12294682Y-9963916D02*
X12279442Y-9979156D01*
X12279442Y-10013916D02*
X12294682Y-10029156D01*
X12294682Y-10013916D02*
X12279442Y-10029156D01*
X12279459Y-8981504D02*
X12294699Y-8996744D01*
X12294699Y-8981504D02*
X12279459Y-8996744D01*
X12279630Y-8632444D02*
X12294870Y-8647684D01*
X12294870Y-8632444D02*
X12279630Y-8647684D01*
X12279630Y-8682444D02*
X12294870Y-8697684D01*
X12294870Y-8682444D02*
X12279630Y-8697684D01*
X12279630Y-8732330D02*
X12294870Y-8747570D01*
X12294870Y-8732330D02*
X12279630Y-8747570D01*
X12279630Y-8782444D02*
X12294870Y-8797684D01*
X12294870Y-8782444D02*
X12279630Y-8797684D01*
X12279630Y-8932444D02*
X12294870Y-8947684D01*
X12294870Y-8932444D02*
X12279630Y-8947684D01*
X12279630Y-9763980D02*
X12294870Y-9779220D01*
X12294870Y-9763980D02*
X12279630Y-9779220D01*
D11*
X9808277Y-10863984D02*
X9808277Y-10663984D01*
X9808277Y-10663984D02*
X9855896Y-10663984D01*
X9855896Y-10663984D02*
X9884467Y-10673508D01*
X9884467Y-10673508D02*
X9903515Y-10692555D01*
X9903515Y-10692555D02*
X9913039Y-10711603D01*
X9913039Y-10711603D02*
X9922563Y-10749698D01*
X9922563Y-10749698D02*
X9922563Y-10778270D01*
X9922563Y-10778270D02*
X9913039Y-10816365D01*
X9913039Y-10816365D02*
X9903515Y-10835412D01*
X9903515Y-10835412D02*
X9884467Y-10854460D01*
X9884467Y-10854460D02*
X9855896Y-10863984D01*
X9855896Y-10863984D02*
X9808277Y-10863984D01*
X10008277Y-10863984D02*
X10008277Y-10730650D01*
X10008277Y-10768746D02*
X10017801Y-10749698D01*
X10017801Y-10749698D02*
X10027324Y-10740174D01*
X10027324Y-10740174D02*
X10046372Y-10730650D01*
X10046372Y-10730650D02*
X10065420Y-10730650D01*
X10132086Y-10863984D02*
X10132086Y-10730650D01*
X10132086Y-10663984D02*
X10122563Y-10673508D01*
X10122563Y-10673508D02*
X10132086Y-10683031D01*
X10132086Y-10683031D02*
X10141610Y-10673508D01*
X10141610Y-10673508D02*
X10132086Y-10663984D01*
X10132086Y-10663984D02*
X10132086Y-10683031D01*
X10255896Y-10863984D02*
X10236848Y-10854460D01*
X10236848Y-10854460D02*
X10227324Y-10835412D01*
X10227324Y-10835412D02*
X10227324Y-10663984D01*
X10360658Y-10863984D02*
X10341610Y-10854460D01*
X10341610Y-10854460D02*
X10332086Y-10835412D01*
X10332086Y-10835412D02*
X10332086Y-10663984D01*
X10589229Y-10863984D02*
X10589229Y-10663984D01*
X10589229Y-10663984D02*
X10655896Y-10806841D01*
X10655896Y-10806841D02*
X10722563Y-10663984D01*
X10722563Y-10663984D02*
X10722563Y-10863984D01*
X10903515Y-10863984D02*
X10903515Y-10759222D01*
X10903515Y-10759222D02*
X10893991Y-10740174D01*
X10893991Y-10740174D02*
X10874944Y-10730650D01*
X10874944Y-10730650D02*
X10836848Y-10730650D01*
X10836848Y-10730650D02*
X10817801Y-10740174D01*
X10903515Y-10854460D02*
X10884467Y-10863984D01*
X10884467Y-10863984D02*
X10836848Y-10863984D01*
X10836848Y-10863984D02*
X10817801Y-10854460D01*
X10817801Y-10854460D02*
X10808277Y-10835412D01*
X10808277Y-10835412D02*
X10808277Y-10816365D01*
X10808277Y-10816365D02*
X10817801Y-10797317D01*
X10817801Y-10797317D02*
X10836848Y-10787793D01*
X10836848Y-10787793D02*
X10884467Y-10787793D01*
X10884467Y-10787793D02*
X10903515Y-10778270D01*
X10998753Y-10730650D02*
X10998753Y-10930650D01*
X10998753Y-10740174D02*
X11017801Y-10730650D01*
X11017801Y-10730650D02*
X11055896Y-10730650D01*
X11055896Y-10730650D02*
X11074944Y-10740174D01*
X11074944Y-10740174D02*
X11084467Y-10749698D01*
X11084467Y-10749698D02*
X11093991Y-10768746D01*
X11093991Y-10768746D02*
X11093991Y-10825889D01*
X11093991Y-10825889D02*
X11084467Y-10844936D01*
X11084467Y-10844936D02*
X11074944Y-10854460D01*
X11074944Y-10854460D02*
X11055896Y-10863984D01*
X11055896Y-10863984D02*
X11017801Y-10863984D01*
X11017801Y-10863984D02*
X10998753Y-10854460D01*
X11179705Y-10844936D02*
X11189229Y-10854460D01*
X11189229Y-10854460D02*
X11179705Y-10863984D01*
X11179705Y-10863984D02*
X11170182Y-10854460D01*
X11170182Y-10854460D02*
X11179705Y-10844936D01*
X11179705Y-10844936D02*
X11179705Y-10863984D01*
X11179705Y-10740174D02*
X11189229Y-10749698D01*
X11189229Y-10749698D02*
X11179705Y-10759222D01*
X11179705Y-10759222D02*
X11170182Y-10749698D01*
X11170182Y-10749698D02*
X11179705Y-10740174D01*
X11179705Y-10740174D02*
X11179705Y-10759222D01*
D12*
X9532260Y-11184880D02*
X9547500Y-11200120D01*
X9547500Y-11184880D02*
X9532260Y-11200120D01*
D11*
X9846372Y-11083984D02*
X9865420Y-11083984D01*
X9865420Y-11083984D02*
X9884467Y-11093508D01*
X9884467Y-11093508D02*
X9893991Y-11103031D01*
X9893991Y-11103031D02*
X9903515Y-11122079D01*
X9903515Y-11122079D02*
X9913039Y-11160174D01*
X9913039Y-11160174D02*
X9913039Y-11207793D01*
X9913039Y-11207793D02*
X9903515Y-11245888D01*
X9903515Y-11245888D02*
X9893991Y-11264936D01*
X9893991Y-11264936D02*
X9884467Y-11274460D01*
X9884467Y-11274460D02*
X9865420Y-11283984D01*
X9865420Y-11283984D02*
X9846372Y-11283984D01*
X9846372Y-11283984D02*
X9827324Y-11274460D01*
X9827324Y-11274460D02*
X9817801Y-11264936D01*
X9817801Y-11264936D02*
X9808277Y-11245888D01*
X9808277Y-11245888D02*
X9798753Y-11207793D01*
X9798753Y-11207793D02*
X9798753Y-11160174D01*
X9798753Y-11160174D02*
X9808277Y-11122079D01*
X9808277Y-11122079D02*
X9817801Y-11103031D01*
X9817801Y-11103031D02*
X9827324Y-11093508D01*
X9827324Y-11093508D02*
X9846372Y-11083984D01*
X9998753Y-11264936D02*
X10008277Y-11274460D01*
X10008277Y-11274460D02*
X9998753Y-11283984D01*
X9998753Y-11283984D02*
X9989229Y-11274460D01*
X9989229Y-11274460D02*
X9998753Y-11264936D01*
X9998753Y-11264936D02*
X9998753Y-11283984D01*
X10198753Y-11283984D02*
X10084467Y-11283984D01*
X10141610Y-11283984D02*
X10141610Y-11083984D01*
X10141610Y-11083984D02*
X10122563Y-11112555D01*
X10122563Y-11112555D02*
X10103515Y-11131603D01*
X10103515Y-11131603D02*
X10084467Y-11141127D01*
X10379705Y-11083984D02*
X10284467Y-11083984D01*
X10284467Y-11083984D02*
X10274944Y-11179222D01*
X10274944Y-11179222D02*
X10284467Y-11169698D01*
X10284467Y-11169698D02*
X10303515Y-11160174D01*
X10303515Y-11160174D02*
X10351134Y-11160174D01*
X10351134Y-11160174D02*
X10370182Y-11169698D01*
X10370182Y-11169698D02*
X10379705Y-11179222D01*
X10379705Y-11179222D02*
X10389229Y-11198269D01*
X10389229Y-11198269D02*
X10389229Y-11245888D01*
X10389229Y-11245888D02*
X10379705Y-11264936D01*
X10379705Y-11264936D02*
X10370182Y-11274460D01*
X10370182Y-11274460D02*
X10351134Y-11283984D01*
X10351134Y-11283984D02*
X10303515Y-11283984D01*
X10303515Y-11283984D02*
X10284467Y-11274460D01*
X10284467Y-11274460D02*
X10274944Y-11264936D01*
X10465420Y-11103031D02*
X10474944Y-11093508D01*
X10474944Y-11093508D02*
X10493991Y-11083984D01*
X10493991Y-11083984D02*
X10541610Y-11083984D01*
X10541610Y-11083984D02*
X10560658Y-11093508D01*
X10560658Y-11093508D02*
X10570182Y-11103031D01*
X10570182Y-11103031D02*
X10579705Y-11122079D01*
X10579705Y-11122079D02*
X10579705Y-11141127D01*
X10579705Y-11141127D02*
X10570182Y-11169698D01*
X10570182Y-11169698D02*
X10455896Y-11283984D01*
X10455896Y-11283984D02*
X10579705Y-11283984D01*
X10665420Y-11283984D02*
X10665420Y-11150650D01*
X10665420Y-11169698D02*
X10674944Y-11160174D01*
X10674944Y-11160174D02*
X10693991Y-11150650D01*
X10693991Y-11150650D02*
X10722563Y-11150650D01*
X10722563Y-11150650D02*
X10741610Y-11160174D01*
X10741610Y-11160174D02*
X10751134Y-11179222D01*
X10751134Y-11179222D02*
X10751134Y-11283984D01*
X10751134Y-11179222D02*
X10760658Y-11160174D01*
X10760658Y-11160174D02*
X10779705Y-11150650D01*
X10779705Y-11150650D02*
X10808277Y-11150650D01*
X10808277Y-11150650D02*
X10827325Y-11160174D01*
X10827325Y-11160174D02*
X10836848Y-11179222D01*
X10836848Y-11179222D02*
X10836848Y-11283984D01*
X10932086Y-11283984D02*
X10932086Y-11150650D01*
X10932086Y-11169698D02*
X10941610Y-11160174D01*
X10941610Y-11160174D02*
X10960658Y-11150650D01*
X10960658Y-11150650D02*
X10989229Y-11150650D01*
X10989229Y-11150650D02*
X11008277Y-11160174D01*
X11008277Y-11160174D02*
X11017801Y-11179222D01*
X11017801Y-11179222D02*
X11017801Y-11283984D01*
X11017801Y-11179222D02*
X11027325Y-11160174D01*
X11027325Y-11160174D02*
X11046372Y-11150650D01*
X11046372Y-11150650D02*
X11074944Y-11150650D01*
X11074944Y-11150650D02*
X11093991Y-11160174D01*
X11093991Y-11160174D02*
X11103515Y-11179222D01*
X11103515Y-11179222D02*
X11103515Y-11283984D01*
X11493991Y-11074460D02*
X11322563Y-11331603D01*
X11751134Y-11083984D02*
X11770182Y-11083984D01*
X11770182Y-11083984D02*
X11789229Y-11093508D01*
X11789229Y-11093508D02*
X11798753Y-11103031D01*
X11798753Y-11103031D02*
X11808277Y-11122079D01*
X11808277Y-11122079D02*
X11817801Y-11160174D01*
X11817801Y-11160174D02*
X11817801Y-11207793D01*
X11817801Y-11207793D02*
X11808277Y-11245888D01*
X11808277Y-11245888D02*
X11798753Y-11264936D01*
X11798753Y-11264936D02*
X11789229Y-11274460D01*
X11789229Y-11274460D02*
X11770182Y-11283984D01*
X11770182Y-11283984D02*
X11751134Y-11283984D01*
X11751134Y-11283984D02*
X11732086Y-11274460D01*
X11732086Y-11274460D02*
X11722563Y-11264936D01*
X11722563Y-11264936D02*
X11713039Y-11245888D01*
X11713039Y-11245888D02*
X11703515Y-11207793D01*
X11703515Y-11207793D02*
X11703515Y-11160174D01*
X11703515Y-11160174D02*
X11713039Y-11122079D01*
X11713039Y-11122079D02*
X11722563Y-11103031D01*
X11722563Y-11103031D02*
X11732086Y-11093508D01*
X11732086Y-11093508D02*
X11751134Y-11083984D01*
X11903515Y-11264936D02*
X11913039Y-11274460D01*
X11913039Y-11274460D02*
X11903515Y-11283984D01*
X11903515Y-11283984D02*
X11893991Y-11274460D01*
X11893991Y-11274460D02*
X11903515Y-11264936D01*
X11903515Y-11264936D02*
X11903515Y-11283984D01*
X12036848Y-11083984D02*
X12055896Y-11083984D01*
X12055896Y-11083984D02*
X12074944Y-11093508D01*
X12074944Y-11093508D02*
X12084467Y-11103031D01*
X12084467Y-11103031D02*
X12093991Y-11122079D01*
X12093991Y-11122079D02*
X12103515Y-11160174D01*
X12103515Y-11160174D02*
X12103515Y-11207793D01*
X12103515Y-11207793D02*
X12093991Y-11245888D01*
X12093991Y-11245888D02*
X12084467Y-11264936D01*
X12084467Y-11264936D02*
X12074944Y-11274460D01*
X12074944Y-11274460D02*
X12055896Y-11283984D01*
X12055896Y-11283984D02*
X12036848Y-11283984D01*
X12036848Y-11283984D02*
X12017801Y-11274460D01*
X12017801Y-11274460D02*
X12008277Y-11264936D01*
X12008277Y-11264936D02*
X11998753Y-11245888D01*
X11998753Y-11245888D02*
X11989229Y-11207793D01*
X11989229Y-11207793D02*
X11989229Y-11160174D01*
X11989229Y-11160174D02*
X11998753Y-11122079D01*
X11998753Y-11122079D02*
X12008277Y-11103031D01*
X12008277Y-11103031D02*
X12017801Y-11093508D01*
X12017801Y-11093508D02*
X12036848Y-11083984D01*
X12227325Y-11083984D02*
X12246372Y-11083984D01*
X12246372Y-11083984D02*
X12265420Y-11093508D01*
X12265420Y-11093508D02*
X12274944Y-11103031D01*
X12274944Y-11103031D02*
X12284467Y-11122079D01*
X12284467Y-11122079D02*
X12293991Y-11160174D01*
X12293991Y-11160174D02*
X12293991Y-11207793D01*
X12293991Y-11207793D02*
X12284467Y-11245888D01*
X12284467Y-11245888D02*
X12274944Y-11264936D01*
X12274944Y-11264936D02*
X12265420Y-11274460D01*
X12265420Y-11274460D02*
X12246372Y-11283984D01*
X12246372Y-11283984D02*
X12227325Y-11283984D01*
X12227325Y-11283984D02*
X12208277Y-11274460D01*
X12208277Y-11274460D02*
X12198753Y-11264936D01*
X12198753Y-11264936D02*
X12189229Y-11245888D01*
X12189229Y-11245888D02*
X12179706Y-11207793D01*
X12179706Y-11207793D02*
X12179706Y-11160174D01*
X12179706Y-11160174D02*
X12189229Y-11122079D01*
X12189229Y-11122079D02*
X12198753Y-11103031D01*
X12198753Y-11103031D02*
X12208277Y-11093508D01*
X12208277Y-11093508D02*
X12227325Y-11083984D01*
X12465420Y-11083984D02*
X12427325Y-11083984D01*
X12427325Y-11083984D02*
X12408277Y-11093508D01*
X12408277Y-11093508D02*
X12398753Y-11103031D01*
X12398753Y-11103031D02*
X12379706Y-11131603D01*
X12379706Y-11131603D02*
X12370182Y-11169698D01*
X12370182Y-11169698D02*
X12370182Y-11245888D01*
X12370182Y-11245888D02*
X12379706Y-11264936D01*
X12379706Y-11264936D02*
X12389229Y-11274460D01*
X12389229Y-11274460D02*
X12408277Y-11283984D01*
X12408277Y-11283984D02*
X12446372Y-11283984D01*
X12446372Y-11283984D02*
X12465420Y-11274460D01*
X12465420Y-11274460D02*
X12474944Y-11264936D01*
X12474944Y-11264936D02*
X12484467Y-11245888D01*
X12484467Y-11245888D02*
X12484467Y-11198269D01*
X12484467Y-11198269D02*
X12474944Y-11179222D01*
X12474944Y-11179222D02*
X12465420Y-11169698D01*
X12465420Y-11169698D02*
X12446372Y-11160174D01*
X12446372Y-11160174D02*
X12408277Y-11160174D01*
X12408277Y-11160174D02*
X12389229Y-11169698D01*
X12389229Y-11169698D02*
X12379706Y-11179222D01*
X12379706Y-11179222D02*
X12370182Y-11198269D01*
X12608277Y-11083984D02*
X12627325Y-11083984D01*
X12627325Y-11083984D02*
X12646372Y-11093508D01*
X12646372Y-11093508D02*
X12655896Y-11103031D01*
X12655896Y-11103031D02*
X12665420Y-11122079D01*
X12665420Y-11122079D02*
X12674944Y-11160174D01*
X12674944Y-11160174D02*
X12674944Y-11207793D01*
X12674944Y-11207793D02*
X12665420Y-11245888D01*
X12665420Y-11245888D02*
X12655896Y-11264936D01*
X12655896Y-11264936D02*
X12646372Y-11274460D01*
X12646372Y-11274460D02*
X12627325Y-11283984D01*
X12627325Y-11283984D02*
X12608277Y-11283984D01*
X12608277Y-11283984D02*
X12589229Y-11274460D01*
X12589229Y-11274460D02*
X12579706Y-11264936D01*
X12579706Y-11264936D02*
X12570182Y-11245888D01*
X12570182Y-11245888D02*
X12560658Y-11207793D01*
X12560658Y-11207793D02*
X12560658Y-11160174D01*
X12560658Y-11160174D02*
X12570182Y-11122079D01*
X12570182Y-11122079D02*
X12579706Y-11103031D01*
X12579706Y-11103031D02*
X12589229Y-11093508D01*
X12589229Y-11093508D02*
X12608277Y-11083984D01*
X12751134Y-11083984D02*
X12751134Y-11122079D01*
X12827325Y-11083984D02*
X12827325Y-11122079D01*
X13122563Y-11360174D02*
X13113039Y-11350650D01*
X13113039Y-11350650D02*
X13093991Y-11322079D01*
X13093991Y-11322079D02*
X13084468Y-11303031D01*
X13084468Y-11303031D02*
X13074944Y-11274460D01*
X13074944Y-11274460D02*
X13065420Y-11226841D01*
X13065420Y-11226841D02*
X13065420Y-11188746D01*
X13065420Y-11188746D02*
X13074944Y-11141127D01*
X13074944Y-11141127D02*
X13084468Y-11112555D01*
X13084468Y-11112555D02*
X13093991Y-11093508D01*
X13093991Y-11093508D02*
X13113039Y-11064936D01*
X13113039Y-11064936D02*
X13122563Y-11055412D01*
X13303515Y-11283984D02*
X13189229Y-11283984D01*
X13246372Y-11283984D02*
X13246372Y-11083984D01*
X13246372Y-11083984D02*
X13227325Y-11112555D01*
X13227325Y-11112555D02*
X13208277Y-11131603D01*
X13208277Y-11131603D02*
X13189229Y-11141127D01*
X13474944Y-11150650D02*
X13474944Y-11283984D01*
X13427325Y-11074460D02*
X13379706Y-11217317D01*
X13379706Y-11217317D02*
X13503515Y-11217317D01*
X13684468Y-11283984D02*
X13570182Y-11283984D01*
X13627325Y-11283984D02*
X13627325Y-11083984D01*
X13627325Y-11083984D02*
X13608277Y-11112555D01*
X13608277Y-11112555D02*
X13589229Y-11131603D01*
X13589229Y-11131603D02*
X13570182Y-11141127D01*
X13922563Y-11283984D02*
X13922563Y-11083984D01*
X14008277Y-11283984D02*
X14008277Y-11179222D01*
X14008277Y-11179222D02*
X13998753Y-11160174D01*
X13998753Y-11160174D02*
X13979706Y-11150650D01*
X13979706Y-11150650D02*
X13951134Y-11150650D01*
X13951134Y-11150650D02*
X13932087Y-11160174D01*
X13932087Y-11160174D02*
X13922563Y-11169698D01*
X14132087Y-11283984D02*
X14113039Y-11274460D01*
X14113039Y-11274460D02*
X14103515Y-11264936D01*
X14103515Y-11264936D02*
X14093991Y-11245888D01*
X14093991Y-11245888D02*
X14093991Y-11188746D01*
X14093991Y-11188746D02*
X14103515Y-11169698D01*
X14103515Y-11169698D02*
X14113039Y-11160174D01*
X14113039Y-11160174D02*
X14132087Y-11150650D01*
X14132087Y-11150650D02*
X14160658Y-11150650D01*
X14160658Y-11150650D02*
X14179706Y-11160174D01*
X14179706Y-11160174D02*
X14189230Y-11169698D01*
X14189230Y-11169698D02*
X14198753Y-11188746D01*
X14198753Y-11188746D02*
X14198753Y-11245888D01*
X14198753Y-11245888D02*
X14189230Y-11264936D01*
X14189230Y-11264936D02*
X14179706Y-11274460D01*
X14179706Y-11274460D02*
X14160658Y-11283984D01*
X14160658Y-11283984D02*
X14132087Y-11283984D01*
X14313039Y-11283984D02*
X14293991Y-11274460D01*
X14293991Y-11274460D02*
X14284468Y-11255412D01*
X14284468Y-11255412D02*
X14284468Y-11083984D01*
X14465420Y-11274460D02*
X14446372Y-11283984D01*
X14446372Y-11283984D02*
X14408277Y-11283984D01*
X14408277Y-11283984D02*
X14389230Y-11274460D01*
X14389230Y-11274460D02*
X14379706Y-11255412D01*
X14379706Y-11255412D02*
X14379706Y-11179222D01*
X14379706Y-11179222D02*
X14389230Y-11160174D01*
X14389230Y-11160174D02*
X14408277Y-11150650D01*
X14408277Y-11150650D02*
X14446372Y-11150650D01*
X14446372Y-11150650D02*
X14465420Y-11160174D01*
X14465420Y-11160174D02*
X14474944Y-11179222D01*
X14474944Y-11179222D02*
X14474944Y-11198269D01*
X14474944Y-11198269D02*
X14379706Y-11217317D01*
X14551134Y-11274460D02*
X14570182Y-11283984D01*
X14570182Y-11283984D02*
X14608277Y-11283984D01*
X14608277Y-11283984D02*
X14627325Y-11274460D01*
X14627325Y-11274460D02*
X14636849Y-11255412D01*
X14636849Y-11255412D02*
X14636849Y-11245888D01*
X14636849Y-11245888D02*
X14627325Y-11226841D01*
X14627325Y-11226841D02*
X14608277Y-11217317D01*
X14608277Y-11217317D02*
X14579706Y-11217317D01*
X14579706Y-11217317D02*
X14560658Y-11207793D01*
X14560658Y-11207793D02*
X14551134Y-11188746D01*
X14551134Y-11188746D02*
X14551134Y-11179222D01*
X14551134Y-11179222D02*
X14560658Y-11160174D01*
X14560658Y-11160174D02*
X14579706Y-11150650D01*
X14579706Y-11150650D02*
X14608277Y-11150650D01*
X14608277Y-11150650D02*
X14627325Y-11160174D01*
X14703515Y-11360174D02*
X14713039Y-11350650D01*
X14713039Y-11350650D02*
X14732087Y-11322079D01*
X14732087Y-11322079D02*
X14741611Y-11303031D01*
X14741611Y-11303031D02*
X14751134Y-11274460D01*
X14751134Y-11274460D02*
X14760658Y-11226841D01*
X14760658Y-11226841D02*
X14760658Y-11188746D01*
X14760658Y-11188746D02*
X14751134Y-11141127D01*
X14751134Y-11141127D02*
X14741611Y-11112555D01*
X14741611Y-11112555D02*
X14732087Y-11093508D01*
X14732087Y-11093508D02*
X14713039Y-11064936D01*
X14713039Y-11064936D02*
X14703515Y-11055412D01*
M02*
