M48
; DRILL file {KiCad 8.0.5} date 2025-10-23T09:57:43-0500
; FORMAT={-:-/ absolute / metric / decimal}
; #@! TF.CreationDate,2025-10-23T09:57:43-05:00
; #@! TF.GenerationSoftware,Kicad,Pcbnew,8.0.5
; #@! TF.FileFunction,Plated,1,2,Blind
FMAT,2
METRIC
; #@! TA.AperFunction,Plated,Buried,ViaDrill
T1C0.152
%
G90
G05
T1
X97.805Y-86.403
X97.805Y-87.203
X97.805Y-88.003
X97.805Y-88.803
X97.805Y-89.603
X97.805Y-90.403
X97.805Y-91.203
X97.805Y-92.003
X97.805Y-92.803
X97.805Y-93.603
X97.805Y-94.403
X97.805Y-95.203
X97.805Y-96.003
X97.805Y-96.803
X97.805Y-97.603
X97.805Y-98.403
X98.044Y-83.485
X98.192Y-86.404
X98.192Y-87.204
X98.192Y-88.004
X98.192Y-88.804
X98.192Y-89.604
X98.192Y-90.404
X98.192Y-91.204
X98.192Y-92.004
X98.192Y-92.804
X98.192Y-93.604
X98.192Y-94.404
X98.192Y-95.204
X98.192Y-96.004
X98.192Y-96.804
X98.192Y-97.604
X98.192Y-98.404
X99.805Y-86.403
X99.805Y-87.203
X99.805Y-88.003
X99.805Y-88.803
X99.805Y-89.603
X99.805Y-90.403
X99.805Y-91.203
X99.805Y-92.003
X99.805Y-92.803
X99.805Y-93.603
X99.805Y-94.403
X99.805Y-95.203
X99.805Y-96.003
X99.805Y-96.803
X99.805Y-97.603
X99.805Y-98.403
X100.192Y-86.404
X100.192Y-87.204
X100.192Y-88.004
X100.192Y-88.804
X100.192Y-89.604
X100.192Y-90.404
X100.192Y-91.204
X100.192Y-92.004
X100.192Y-92.804
X100.192Y-93.604
X100.192Y-94.404
X100.192Y-95.204
X100.192Y-96.004
X100.192Y-96.804
X100.192Y-97.604
X100.192Y-98.404
X101.318Y-100.551
X101.805Y-86.403
X101.805Y-87.203
X101.805Y-88.003
X101.805Y-88.803
X101.805Y-89.603
X101.805Y-90.403
X101.805Y-91.203
X101.805Y-92.003
X101.805Y-92.803
X101.805Y-93.603
X101.805Y-94.403
X101.805Y-95.203
X101.805Y-96.003
X101.805Y-96.803
X101.805Y-97.603
X101.805Y-98.403
X102.192Y-86.404
X102.192Y-87.204
X102.192Y-88.004
X102.192Y-88.804
X102.192Y-89.604
X102.192Y-90.404
X102.192Y-91.204
X102.192Y-92.004
X102.192Y-92.804
X102.192Y-93.604
X102.192Y-94.404
X102.192Y-95.204
X102.192Y-96.004
X102.192Y-96.804
X102.192Y-97.604
X102.192Y-98.404
X103.805Y-92.803
X103.805Y-93.603
X103.805Y-94.403
X103.805Y-95.203
X103.805Y-96.003
X103.805Y-96.803
X103.805Y-97.603
X103.805Y-98.403
X103.835Y-87.203
X103.835Y-88.003
X103.835Y-88.803
X103.835Y-89.603
X103.835Y-90.403
X104.155Y-86.403
X104.155Y-91.203
X104.155Y-92.003
X105.005Y-92.803
X105.005Y-93.603
X105.005Y-94.403
X105.005Y-95.203
X105.005Y-96.003
X105.005Y-96.803
X105.005Y-97.603
X105.005Y-98.403
X105.035Y-86.403
X105.035Y-87.203
X105.035Y-88.003
X105.035Y-88.803
X105.035Y-89.603
X105.035Y-90.403
X105.416Y-90.803
X105.442Y-91.756
X105.844Y-92.324
X106.985Y-86.523
X106.987Y-91.869
X106.989Y-97.23
X106.989Y-102.58
X107.417Y-81.42
X107.419Y-86.766
X107.421Y-92.127
X107.421Y-97.477
X107.747Y-82.702
X107.747Y-83.7
X107.747Y-84.2
X107.747Y-85.192
X107.749Y-88.049
X107.749Y-89.05
X107.749Y-89.55
X107.749Y-90.538
X107.751Y-93.41
X107.751Y-94.4
X107.751Y-94.9
X107.751Y-95.899
X107.751Y-98.76
X107.751Y-99.75
X107.751Y-100.25
X107.751Y-101.249
X108.763Y-81.699
X108.763Y-86.192
X108.765Y-87.046
X108.765Y-91.539
X108.767Y-92.407
X108.767Y-96.9
X108.767Y-97.757
X108.767Y-102.25
X109.271Y-81.699
X109.271Y-86.192
X109.273Y-87.046
X109.273Y-91.539
X109.275Y-92.407
X109.275Y-96.9
X109.275Y-97.757
X109.275Y-102.25
X109.753Y-81.699
X109.753Y-86.192
X109.756Y-87.046
X109.756Y-91.539
X109.758Y-92.407
X109.758Y-96.9
X109.758Y-97.757
X109.758Y-102.25
X110.261Y-81.699
X110.261Y-86.192
X110.264Y-87.046
X110.264Y-91.539
X110.266Y-92.407
X110.266Y-96.9
X110.266Y-97.757
X110.266Y-102.25
X110.769Y-81.699
X110.769Y-86.192
X110.772Y-87.046
X110.772Y-91.539
X110.774Y-92.407
X110.774Y-96.9
X110.774Y-97.757
X110.774Y-102.25
X112.395Y-86.258
X112.41Y-91.57
X112.415Y-96.901
X112.725Y-81.299
X112.725Y-82.002
X112.725Y-86.702
X112.725Y-87.416
X112.725Y-92.061
X112.725Y-92.78
X112.725Y-97.4
X112.725Y-98.114
X114.226Y-81.299
X114.226Y-82.002
X114.226Y-85.97
X114.226Y-86.702
X114.226Y-87.416
X114.226Y-91.32
X114.226Y-92.061
X114.226Y-92.78
X114.226Y-96.67
X114.226Y-97.4
X114.226Y-98.114
X115.069Y-99.054
X115.069Y-100.054
X115.069Y-101.054
X115.373Y-102.234
X116.0Y-82.9
X116.0Y-83.4
X116.0Y-83.9
X116.0Y-84.4
X116.0Y-84.9
X116.0Y-85.4
X116.0Y-85.9
X116.0Y-86.4
X116.0Y-86.9
X116.0Y-87.4
X116.0Y-87.9
X116.0Y-88.4
X116.0Y-88.9
X116.0Y-89.4
X116.0Y-89.9
X116.0Y-90.4
X116.0Y-90.9
X116.0Y-91.4
X116.0Y-91.9
X116.293Y-102.234
X117.0Y-82.9
X117.0Y-91.9
X117.213Y-102.234
X117.5Y-82.9
X117.5Y-91.9
X117.6Y-85.1
X117.6Y-89.52
X117.9Y-85.5
X117.9Y-89.17
X118.0Y-82.9
X118.0Y-91.9
X118.2Y-85.9
X118.2Y-88.82
X118.5Y-82.9
X118.5Y-86.3
X118.5Y-88.47
X118.5Y-91.9
X118.6Y-84.7
X118.6Y-90.2
X118.8Y-86.7
X118.8Y-88.1
X119.0Y-82.9
X119.0Y-85.1
X119.0Y-90.0
X119.0Y-91.9
X119.05Y-87.05
X119.05Y-87.75
X119.3Y-87.4
X119.4Y-85.4
X119.4Y-89.8
X119.5Y-82.9
X119.5Y-91.9
X119.8Y-85.7
X119.8Y-89.6
X119.87Y-95.612
X119.87Y-96.247
X119.87Y-96.882
X119.87Y-97.517
X119.87Y-98.152
X119.87Y-98.787
X119.87Y-99.422
X119.87Y-100.057
X119.87Y-101.962
X119.87Y-102.597
X119.87Y-103.232
X120.0Y-82.9
X120.0Y-91.9
X120.2Y-86.0
X120.2Y-89.4
X120.5Y-82.9
X120.5Y-91.9
X120.6Y-86.3
X120.6Y-89.2
X121.0Y-86.6
X121.0Y-89.0
X121.4Y-86.9
X121.4Y-88.8
X121.572Y-101.962
X121.572Y-102.597
X122.0Y-91.9
X122.868Y-100.717
X122.868Y-101.217
X122.87Y-98.716
X122.87Y-99.216
X122.872Y-84.9
X122.872Y-85.4
X122.872Y-86.901
X122.872Y-87.399
X122.872Y-88.227
X122.872Y-88.654
X123.886Y-98.216
X123.888Y-97.717
X124.003Y-90.947
M30
