%TF.GenerationSoftware,KiCad,Pcbnew,8.0.5*%
%TF.CreationDate,2025-10-24T05:54:48-05:00*%
%TF.ProjectId,iris-128s,69726973-2d31-4323-9873-2e6b69636164,1*%
%TF.SameCoordinates,Original*%
%TF.FileFunction,Soldermask,Top*%
%TF.FilePolarity,Negative*%
%FSLAX46Y46*%
G04 Gerber Fmt 4.6, Leading zero omitted, Abs format (unit mm)*
G04 Created by KiCad (PCBNEW 8.0.5) date 2025-10-24 05:54:48*
%MOMM*%
%LPD*%
G01*
G04 APERTURE LIST*
G04 Aperture macros list*
%AMRoundRect*
0 Rectangle with rounded corners*
0 $1 Rounding radius*
0 $2 $3 $4 $5 $6 $7 $8 $9 X,Y pos of 4 corners*
0 Add a 4 corners polygon primitive as box body*
4,1,4,$2,$3,$4,$5,$6,$7,$8,$9,$2,$3,0*
0 Add four circle primitives for the rounded corners*
1,1,$1+$1,$2,$3*
1,1,$1+$1,$4,$5*
1,1,$1+$1,$6,$7*
1,1,$1+$1,$8,$9*
0 Add four rect primitives between the rounded corners*
20,1,$1+$1,$2,$3,$4,$5,0*
20,1,$1+$1,$4,$5,$6,$7,0*
20,1,$1+$1,$6,$7,$8,$9,0*
20,1,$1+$1,$8,$9,$2,$3,0*%
%AMFreePoly0*
4,1,17,0.288426,0.645521,0.645521,0.288426,0.660400,0.252505,0.660400,-0.252505,0.645521,-0.288426,0.288426,-0.645521,0.252505,-0.660400,-0.252505,-0.660400,-0.288426,-0.645521,-0.645521,-0.288426,-0.660400,-0.252505,-0.660400,0.252505,-0.645521,0.288426,-0.288426,0.645521,-0.252505,0.660400,0.252505,0.660400,0.288426,0.645521,0.288426,0.645521,$1*%
G04 Aperture macros list end*
%ADD10RoundRect,0.140000X-0.170000X0.140000X-0.170000X-0.140000X0.170000X-0.140000X0.170000X0.140000X0*%
%ADD11RoundRect,0.100000X0.100000X-0.130000X0.100000X0.130000X-0.100000X0.130000X-0.100000X-0.130000X0*%
%ADD12RoundRect,0.100000X-0.100000X0.130000X-0.100000X-0.130000X0.100000X-0.130000X0.100000X0.130000X0*%
%ADD13C,1.450000*%
%ADD14C,0.764000*%
%ADD15RoundRect,0.100000X-0.130000X-0.100000X0.130000X-0.100000X0.130000X0.100000X-0.130000X0.100000X0*%
%ADD16FreePoly0,90.000000*%
%ADD17RoundRect,0.135000X0.135000X0.185000X-0.135000X0.185000X-0.135000X-0.185000X0.135000X-0.185000X0*%
%ADD18C,0.351600*%
%ADD19R,0.500000X0.500000*%
%ADD20RoundRect,0.062500X-0.062500X0.375000X-0.062500X-0.375000X0.062500X-0.375000X0.062500X0.375000X0*%
%ADD21RoundRect,0.062500X-0.375000X0.062500X-0.375000X-0.062500X0.375000X-0.062500X0.375000X0.062500X0*%
%ADD22R,2.600000X2.600000*%
%ADD23R,0.762000X0.381000*%
%ADD24RoundRect,0.100000X0.130000X0.100000X-0.130000X0.100000X-0.130000X-0.100000X0.130000X-0.100000X0*%
G04 APERTURE END LIST*
D10*
%TO.C,C11*%
X116292860Y-102640840D03*
X116292860Y-103600840D03*
%TD*%
D11*
%TO.C,R9*%
X113111280Y-102020000D03*
X113111280Y-101380000D03*
%TD*%
%TO.C,C42*%
X113811280Y-101359760D03*
X113811280Y-100719760D03*
%TD*%
D12*
%TO.C,R20*%
X123800000Y-87669000D03*
X123800000Y-88309000D03*
%TD*%
D10*
%TO.C,C12*%
X115372860Y-102640840D03*
X115372860Y-103600840D03*
%TD*%
D12*
%TO.C,C40*%
X113813240Y-90680000D03*
X113813240Y-91320000D03*
%TD*%
D11*
%TO.C,R8*%
X113111280Y-96670000D03*
X113111280Y-96030000D03*
%TD*%
D13*
%TO.C,S5*%
X103246980Y-101283400D03*
X100996980Y-82723400D03*
D14*
X101396980Y-99603400D03*
X102596980Y-99603400D03*
X99396980Y-84403400D03*
X100596980Y-84403400D03*
X97396980Y-98003400D03*
X98596980Y-98003400D03*
X97396980Y-97203400D03*
X98596980Y-97203400D03*
X97396980Y-96403400D03*
X98596980Y-96403400D03*
X97396980Y-95603400D03*
X98596980Y-95603400D03*
X97396980Y-94803400D03*
X98596980Y-94803400D03*
X97396980Y-94003400D03*
X98596980Y-94003400D03*
X97396980Y-93203400D03*
X98596980Y-93203400D03*
X97396980Y-92403400D03*
X98596980Y-92403400D03*
X97396980Y-91603400D03*
X98596980Y-91603400D03*
X97396980Y-90803400D03*
X98596980Y-90803400D03*
X97396980Y-90003400D03*
X98596980Y-90003400D03*
X97396980Y-89203400D03*
X98596980Y-89203400D03*
X97396980Y-88403400D03*
X98596980Y-88403400D03*
X97396980Y-87603400D03*
X98596980Y-87603400D03*
X97396980Y-86803400D03*
X98596980Y-86803400D03*
X97396980Y-86003400D03*
X98596980Y-86003400D03*
X99396980Y-98003400D03*
X100596980Y-98003400D03*
X99396980Y-97203400D03*
X100596980Y-97203400D03*
X99396980Y-96403400D03*
X100596980Y-96403400D03*
X99396980Y-95603400D03*
X100596980Y-95603400D03*
X99396980Y-94803400D03*
X100596980Y-94803400D03*
X99396980Y-94003400D03*
X100596980Y-94003400D03*
X99396980Y-93203400D03*
X100596980Y-93203400D03*
X99396980Y-92403400D03*
X100596980Y-92403400D03*
X99396980Y-91603400D03*
X100596980Y-91603400D03*
X99396980Y-90803400D03*
X100596980Y-90803400D03*
X99396980Y-90003400D03*
X100596980Y-90003400D03*
X99396980Y-89203400D03*
X100596980Y-89203400D03*
X99396980Y-88403400D03*
X100596980Y-88403400D03*
X99396980Y-87603400D03*
X100596980Y-87603400D03*
X99396980Y-86803400D03*
X100596980Y-86803400D03*
X99396980Y-86003400D03*
X100596980Y-86003400D03*
X101396980Y-98003400D03*
X102596980Y-98003400D03*
X101396980Y-97203400D03*
X102596980Y-97203400D03*
X101396980Y-96403400D03*
X102596980Y-96403400D03*
X101396980Y-95603400D03*
X102596980Y-95603400D03*
X101396980Y-94803400D03*
X102596980Y-94803400D03*
X101396980Y-94003400D03*
X102596980Y-94003400D03*
X101396980Y-93203400D03*
X102596980Y-93203400D03*
X101396980Y-92403400D03*
X102596980Y-92403400D03*
X101396980Y-91603400D03*
X102596980Y-91603400D03*
X101396980Y-90803400D03*
X102596980Y-90803400D03*
X101396980Y-90003400D03*
X102596980Y-90003400D03*
X101396980Y-89203400D03*
X102596980Y-89203400D03*
X101396980Y-88403400D03*
X102596980Y-88403400D03*
X101396980Y-87603400D03*
X102596980Y-87603400D03*
X101396980Y-86803400D03*
X102596980Y-86803400D03*
X101396980Y-86003400D03*
X102596980Y-86003400D03*
X103396980Y-98003400D03*
X104596980Y-98003400D03*
X103396980Y-97203400D03*
X104596980Y-97203400D03*
X103396980Y-96403400D03*
X104596980Y-96403400D03*
X103396980Y-95603400D03*
X104596980Y-95603400D03*
X103396980Y-94803400D03*
X104596980Y-94803400D03*
X103396980Y-94003400D03*
X104596980Y-94003400D03*
X103396980Y-93203400D03*
X104596980Y-93203400D03*
X103396980Y-92403400D03*
X104596980Y-92403400D03*
X103396980Y-91603400D03*
X104596980Y-91603400D03*
X103396980Y-90803400D03*
X104596980Y-90803400D03*
X103396980Y-90003400D03*
X104596980Y-90003400D03*
X103396980Y-89203400D03*
X104596980Y-89203400D03*
X103396980Y-88403400D03*
X104596980Y-88403400D03*
X103396980Y-87603400D03*
X104596980Y-87603400D03*
X103396980Y-86803400D03*
X104596980Y-86803400D03*
X103396980Y-86003400D03*
X104596980Y-86003400D03*
X97396980Y-99603400D03*
X98596980Y-99603400D03*
X99396980Y-99603400D03*
X103396980Y-99603400D03*
X104596980Y-99603400D03*
X97396980Y-98803400D03*
X99396980Y-98803400D03*
X101396980Y-98803400D03*
X103396980Y-98803400D03*
X98596980Y-85203400D03*
X100596980Y-85203400D03*
X102596980Y-85203400D03*
X104596980Y-85203400D03*
X97396980Y-84403400D03*
X98596980Y-84403400D03*
X102596980Y-84403400D03*
X103396980Y-84403400D03*
X104596980Y-84403400D03*
X100596980Y-99603400D03*
X101396980Y-84403400D03*
X98596980Y-98803400D03*
X100596980Y-98803400D03*
X97396980Y-85203400D03*
X99396980Y-85203400D03*
X102596980Y-98803400D03*
X104596980Y-98803400D03*
X101396980Y-85203400D03*
X103396980Y-85203400D03*
%TD*%
D15*
%TO.C,C36*%
X113141280Y-98114200D03*
X113781280Y-98114200D03*
%TD*%
%TO.C,C33*%
X113141280Y-97400400D03*
X113781280Y-97400400D03*
%TD*%
%TO.C,R19*%
X122802200Y-82299680D03*
X123442200Y-82299680D03*
%TD*%
D11*
%TO.C,R16*%
X119353460Y-101325480D03*
X119353460Y-100685480D03*
%TD*%
D16*
%TO.C,REF0*%
X120622500Y-81188000D03*
%TD*%
D17*
%TO.C,R14*%
X122999380Y-81028400D03*
X121979380Y-81028400D03*
%TD*%
D18*
%TO.C,U10*%
X116500000Y-91400000D03*
X116500000Y-90900000D03*
X116500000Y-90400000D03*
X116500000Y-89900000D03*
X116500000Y-89400000D03*
X116500000Y-88900000D03*
X116500000Y-88400000D03*
X116500000Y-87900000D03*
X116500000Y-87400000D03*
X116500000Y-86900000D03*
X116500000Y-86400000D03*
X116500000Y-85900000D03*
X116500000Y-85400000D03*
X116500000Y-84900000D03*
X116500000Y-84400000D03*
X116500000Y-83900000D03*
X116500000Y-83400000D03*
X117000000Y-91400000D03*
X117000000Y-90900000D03*
X117000000Y-90400000D03*
X117000000Y-89900000D03*
X117000000Y-89400000D03*
X117000000Y-88900000D03*
X117000000Y-88400000D03*
X117000000Y-87900000D03*
X117000000Y-87400000D03*
X117000000Y-86900000D03*
X117000000Y-86400000D03*
X117000000Y-85900000D03*
X117000000Y-85400000D03*
X117000000Y-84900000D03*
X117000000Y-84400000D03*
X117000000Y-83900000D03*
X117000000Y-83400000D03*
X117500000Y-91400000D03*
X117500000Y-90900000D03*
X117500000Y-83900000D03*
X117500000Y-83400000D03*
X118000000Y-91400000D03*
X118000000Y-90900000D03*
X118000000Y-83900000D03*
X118000000Y-83400000D03*
X118500000Y-91400000D03*
X118500000Y-90900000D03*
X118500000Y-83900000D03*
X118500000Y-83400000D03*
X119000000Y-91400000D03*
X119000000Y-90900000D03*
X119000000Y-83900000D03*
X119000000Y-83400000D03*
X119500000Y-91400000D03*
X119500000Y-90900000D03*
X119500000Y-83900000D03*
X119500000Y-83400000D03*
X120000000Y-91400000D03*
X120000000Y-90900000D03*
X120000000Y-83900000D03*
X120000000Y-83400000D03*
X120500000Y-91400000D03*
X120500000Y-90900000D03*
X120500000Y-83900000D03*
X120500000Y-83400000D03*
X121000000Y-91400000D03*
X121000000Y-90900000D03*
X121000000Y-83900000D03*
X121000000Y-83400000D03*
X121500000Y-91400000D03*
X121500000Y-90900000D03*
X121500000Y-83900000D03*
X121500000Y-83400000D03*
X122000000Y-91400000D03*
X122000000Y-90900000D03*
X122000000Y-90400000D03*
X122000000Y-89900000D03*
X122000000Y-89400000D03*
X122000000Y-88900000D03*
X122000000Y-88400000D03*
X122000000Y-87900000D03*
X122000000Y-87400000D03*
X122000000Y-86900000D03*
X122000000Y-86400000D03*
X122000000Y-85900000D03*
X122000000Y-85400000D03*
X122000000Y-84900000D03*
X122000000Y-84400000D03*
X122000000Y-83900000D03*
X122000000Y-83400000D03*
X122500000Y-91400000D03*
X122500000Y-90900000D03*
X122500000Y-90400000D03*
X122500000Y-89900000D03*
X122500000Y-89400000D03*
X122500000Y-88900000D03*
X122500000Y-88400000D03*
X122500000Y-87900000D03*
X122500000Y-87400000D03*
X122500000Y-86900000D03*
X122500000Y-86400000D03*
X122500000Y-85900000D03*
X122500000Y-85400000D03*
X122500000Y-84900000D03*
X122500000Y-84400000D03*
X122500000Y-83900000D03*
X122500000Y-83400000D03*
%TD*%
D19*
%TO.C,TP1*%
X115619340Y-99054000D03*
%TD*%
D20*
%TO.C,U2*%
X111250000Y-92712500D03*
X110750000Y-92712500D03*
X110250000Y-92712500D03*
X109750000Y-92712500D03*
X109250000Y-92712500D03*
X108750000Y-92712500D03*
D21*
X108062500Y-93400000D03*
X108062500Y-93900000D03*
X108062500Y-94400000D03*
X108062500Y-94900000D03*
X108062500Y-95400000D03*
X108062500Y-95900000D03*
D20*
X108750000Y-96587500D03*
X109250000Y-96587500D03*
X109750000Y-96587500D03*
X110250000Y-96587500D03*
X110750000Y-96587500D03*
X111250000Y-96587500D03*
D21*
X111937500Y-95900000D03*
X111937500Y-95400000D03*
X111937500Y-94900000D03*
X111937500Y-94400000D03*
X111937500Y-93900000D03*
X111937500Y-93400000D03*
D22*
X110000000Y-94650000D03*
%TD*%
D15*
%TO.C,C35*%
X113141280Y-86701800D03*
X113781280Y-86701800D03*
%TD*%
D19*
%TO.C,TP4*%
X112998060Y-103300000D03*
%TD*%
D11*
%TO.C,R6*%
X113111280Y-85970000D03*
X113111280Y-85330000D03*
%TD*%
D19*
%TO.C,TP2*%
X115619340Y-100054000D03*
%TD*%
D15*
%TO.C,C34*%
X113141280Y-82002200D03*
X113781280Y-82002200D03*
%TD*%
D19*
%TO.C,TP8*%
X116619340Y-98054000D03*
%TD*%
D12*
%TO.C,R21*%
X123800000Y-86092620D03*
X123800000Y-86732620D03*
%TD*%
D15*
%TO.C,C39*%
X113141280Y-92061200D03*
X113781280Y-92061200D03*
%TD*%
D12*
%TO.C,C41*%
X113813300Y-96030000D03*
X113813300Y-96670000D03*
%TD*%
D16*
%TO.C,GND1*%
X124315000Y-81188000D03*
%TD*%
D12*
%TO.C,R18*%
X123800000Y-89259040D03*
X123800000Y-89899040D03*
%TD*%
D23*
%TO.C,S3*%
X121190620Y-104501560D03*
X121190620Y-103866560D03*
X121190620Y-103231560D03*
X121190620Y-102596560D03*
X121190620Y-101961560D03*
X121190620Y-101326560D03*
X121190620Y-100691560D03*
X121190620Y-100056560D03*
X121190620Y-99421560D03*
X121190620Y-98786560D03*
X121190620Y-98151560D03*
X121190620Y-97516560D03*
X121190620Y-96881560D03*
X121190620Y-96246560D03*
X121190620Y-95611560D03*
X121190620Y-94976560D03*
X121190620Y-94341560D03*
X121190620Y-93706560D03*
X120250820Y-104501560D03*
X120250820Y-103866560D03*
X120250820Y-103231560D03*
X120250820Y-102596560D03*
X120250820Y-101961560D03*
X120250820Y-101326560D03*
X120250820Y-100691560D03*
X120250820Y-100056560D03*
X120250820Y-99421560D03*
X120250820Y-98786560D03*
X120250820Y-98151560D03*
X120250820Y-97516560D03*
X120250820Y-96881560D03*
X120250820Y-96246560D03*
X120250820Y-95611560D03*
X120250820Y-94976560D03*
X120250820Y-94341560D03*
X120250820Y-93706560D03*
%TD*%
D11*
%TO.C,C4*%
X123800000Y-83820000D03*
X123800000Y-83180000D03*
%TD*%
D20*
%TO.C,U3*%
X111250000Y-87362500D03*
X110750000Y-87362500D03*
X110250000Y-87362500D03*
X109750000Y-87362500D03*
X109250000Y-87362500D03*
X108750000Y-87362500D03*
D21*
X108062500Y-88050000D03*
X108062500Y-88550000D03*
X108062500Y-89050000D03*
X108062500Y-89550000D03*
X108062500Y-90050000D03*
X108062500Y-90550000D03*
D20*
X108750000Y-91237500D03*
X109250000Y-91237500D03*
X109750000Y-91237500D03*
X110250000Y-91237500D03*
X110750000Y-91237500D03*
X111250000Y-91237500D03*
D21*
X111937500Y-90550000D03*
X111937500Y-90050000D03*
X111937500Y-89550000D03*
X111937500Y-89050000D03*
X111937500Y-88550000D03*
X111937500Y-88050000D03*
D22*
X110000000Y-89300000D03*
%TD*%
D24*
%TO.C,C6*%
X121875960Y-82299680D03*
X121235960Y-82299680D03*
%TD*%
D19*
%TO.C,TP5*%
X112998060Y-104300000D03*
%TD*%
%TO.C,TP7*%
X115619340Y-94012440D03*
%TD*%
%TO.C,TP3*%
X115619340Y-101054000D03*
%TD*%
D20*
%TO.C,U4*%
X111250000Y-82012500D03*
X110750000Y-82012500D03*
X110250000Y-82012500D03*
X109750000Y-82012500D03*
X109250000Y-82012500D03*
X108750000Y-82012500D03*
D21*
X108062500Y-82700000D03*
X108062500Y-83200000D03*
X108062500Y-83700000D03*
X108062500Y-84200000D03*
X108062500Y-84700000D03*
X108062500Y-85200000D03*
D20*
X108750000Y-85887500D03*
X109250000Y-85887500D03*
X109750000Y-85887500D03*
X110250000Y-85887500D03*
X110750000Y-85887500D03*
X111250000Y-85887500D03*
D21*
X111937500Y-85200000D03*
X111937500Y-84700000D03*
X111937500Y-84200000D03*
X111937500Y-83700000D03*
X111937500Y-83200000D03*
X111937500Y-82700000D03*
D22*
X110000000Y-83950000D03*
%TD*%
D20*
%TO.C,U1*%
X111250000Y-98062500D03*
X110750000Y-98062500D03*
X110250000Y-98062500D03*
X109750000Y-98062500D03*
X109250000Y-98062500D03*
X108750000Y-98062500D03*
D21*
X108062500Y-98750000D03*
X108062500Y-99250000D03*
X108062500Y-99750000D03*
X108062500Y-100250000D03*
X108062500Y-100750000D03*
X108062500Y-101250000D03*
D20*
X108750000Y-101937500D03*
X109250000Y-101937500D03*
X109750000Y-101937500D03*
X110250000Y-101937500D03*
X110750000Y-101937500D03*
X111250000Y-101937500D03*
D21*
X111937500Y-101250000D03*
X111937500Y-100750000D03*
X111937500Y-100250000D03*
X111937500Y-99750000D03*
X111937500Y-99250000D03*
X111937500Y-98750000D03*
D22*
X110000000Y-100000000D03*
%TD*%
D15*
%TO.C,C37*%
X113141280Y-81298680D03*
X113781280Y-81298680D03*
%TD*%
%TO.C,C32*%
X113141280Y-92780200D03*
X113781280Y-92780200D03*
%TD*%
D10*
%TO.C,C13*%
X117212860Y-102640840D03*
X117212860Y-103600840D03*
%TD*%
D15*
%TO.C,C38*%
X113141280Y-87415600D03*
X113781280Y-87415600D03*
%TD*%
D12*
%TO.C,C5*%
X123600083Y-90820380D03*
X123600083Y-91460380D03*
%TD*%
%TO.C,C43*%
X113815960Y-85330000D03*
X113815960Y-85970000D03*
%TD*%
D11*
%TO.C,R7*%
X113111280Y-91320000D03*
X113111280Y-90680000D03*
%TD*%
D19*
%TO.C,TP6*%
X115619340Y-95000000D03*
%TD*%
M02*
