%TF.GenerationSoftware,KiCad,Pcbnew,8.0.5*%
%TF.CreationDate,2025-10-23T09:57:47-05:00*%
%TF.ProjectId,iris-128s,69726973-2d31-4323-9873-2e6b69636164,1*%
%TF.SameCoordinates,Original*%
%TF.FileFunction,Drillmap*%
%TF.FilePolarity,Positive*%
%FSLAX45Y45*%
G04 Gerber Fmt 4.5, Leading zero omitted, Abs format (unit mm)*
G04 Created by KiCad (PCBNEW 8.0.5) date 2025-10-23 09:57:47*
%MOMM*%
%LPD*%
G01*
G04 APERTURE LIST*
%ADD10C,0.050000*%
%ADD11C,0.200000*%
%ADD12C,0.100000*%
G04 APERTURE END LIST*
D10*
X9550000Y-10400000D02*
X9550000Y-8000000D01*
X10990000Y-10360000D02*
X11030000Y-10400000D01*
X11000000Y-8035000D02*
X11030000Y-8000000D01*
X12570000Y-8000000D02*
X12570000Y-9230000D01*
X10790000Y-10400000D02*
X10830000Y-10360000D01*
X10895000Y-8070000D02*
X10930000Y-8070000D01*
X9550000Y-8000000D02*
X10790000Y-8000000D01*
X10830000Y-10360000D02*
X10870000Y-10340000D01*
X10790000Y-10400000D02*
X9550000Y-10400000D01*
X11030000Y-10400000D02*
X11050000Y-10450000D01*
X12100000Y-10550000D02*
X11120000Y-10550000D01*
X10790000Y-8000000D02*
X10825000Y-8040000D01*
X11050000Y-10450000D02*
X11050000Y-10480000D01*
X10950000Y-10340250D02*
X10990000Y-10360000D01*
X10970000Y-8055000D02*
X11000000Y-8035000D01*
X12500000Y-9300000D02*
X12500000Y-10550000D01*
X10910000Y-10330000D02*
X10950000Y-10340250D01*
X10930000Y-8070000D02*
X10970000Y-8055000D01*
X10825000Y-8040000D02*
X10860000Y-8060000D01*
X12570000Y-9230000D02*
X12500000Y-9300000D01*
X11120000Y-10550000D02*
X11050000Y-10480000D01*
X10870000Y-10340000D02*
X10910000Y-10330000D01*
X12500000Y-10550000D02*
X12100000Y-10550000D01*
X10860000Y-8060000D02*
X10895000Y-8070000D01*
X11030000Y-8000000D02*
X12570000Y-8000000D01*
D11*
D12*
X10609580Y-9248140D02*
X10624820Y-9263380D01*
X10624820Y-9248140D02*
X10609580Y-9263380D01*
X10650220Y-9248140D02*
X10665460Y-9263380D01*
X10665460Y-9248140D02*
X10650220Y-9263380D01*
X10690860Y-9248140D02*
X10706100Y-9263380D01*
X10706100Y-9248140D02*
X10690860Y-9263380D01*
X10761980Y-8162290D02*
X10777220Y-8177530D01*
X10777220Y-8162290D02*
X10761980Y-8177530D01*
X10761980Y-8611616D02*
X10777220Y-8626856D01*
X10777220Y-8611616D02*
X10761980Y-8626856D01*
X10762234Y-8696960D02*
X10777474Y-8712200D01*
X10777474Y-8696960D02*
X10762234Y-8712200D01*
X10762234Y-9146286D02*
X10777474Y-9161526D01*
X10777474Y-9146286D02*
X10762234Y-9161526D01*
X10762437Y-9233040D02*
X10777677Y-9248280D01*
X10777677Y-9233040D02*
X10762437Y-9248280D01*
X10762437Y-9682366D02*
X10777677Y-9697606D01*
X10777677Y-9682366D02*
X10762437Y-9697606D01*
X10762437Y-9768040D02*
X10777677Y-9783280D01*
X10777677Y-9768040D02*
X10762437Y-9783280D01*
X10808208Y-9432290D02*
X10823448Y-9447530D01*
X10823448Y-9432290D02*
X10808208Y-9447530D01*
X10808208Y-9482380D02*
X10823448Y-9497620D01*
X10823448Y-9482380D02*
X10808208Y-9497620D01*
X10808208Y-9582380D02*
X10823448Y-9597620D01*
X10823448Y-9582380D02*
X10808208Y-9597620D01*
X10808208Y-9867380D02*
X10823448Y-9882620D01*
X10823448Y-9867380D02*
X10808208Y-9882620D01*
X10808208Y-9967380D02*
X10823448Y-9982620D01*
X10823448Y-9967380D02*
X10808208Y-9982620D01*
X10808208Y-10017380D02*
X10823448Y-10032620D01*
X10823448Y-10017380D02*
X10808208Y-10032620D01*
X10808208Y-10117380D02*
X10823448Y-10132620D01*
X10823448Y-10117380D02*
X10808208Y-10132620D01*
X10844784Y-8644890D02*
X10860024Y-8660130D01*
X10860024Y-8644890D02*
X10844784Y-8660130D01*
X10845038Y-9179560D02*
X10860278Y-9194800D01*
X10860278Y-9179560D02*
X10845038Y-9194800D01*
X10845241Y-10250640D02*
X10860481Y-10265880D01*
X10860481Y-10250640D02*
X10845241Y-10265880D01*
X10887964Y-8134350D02*
X10903204Y-8149590D01*
X10903204Y-8134350D02*
X10887964Y-8149590D01*
X10888218Y-8669020D02*
X10903458Y-8684260D01*
X10903458Y-8669020D02*
X10888218Y-8684260D01*
X10918952Y-9641840D02*
X10934192Y-9657080D01*
X10934192Y-9641840D02*
X10918952Y-9657080D01*
X10918952Y-9808972D02*
X10934192Y-9824212D01*
X10934192Y-9808972D02*
X10918952Y-9824212D01*
X10918952Y-10177018D02*
X10934192Y-10192258D01*
X10934192Y-10177018D02*
X10918952Y-10192258D01*
X10943844Y-8644890D02*
X10959084Y-8660130D01*
X10959084Y-8644890D02*
X10943844Y-8660130D01*
X10944098Y-9179560D02*
X10959338Y-9194800D01*
X10959338Y-9179560D02*
X10944098Y-9194800D01*
X10944301Y-9715640D02*
X10959541Y-9730880D01*
X10959541Y-9715640D02*
X10944301Y-9730880D01*
X10944301Y-10250640D02*
X10959541Y-10265880D01*
X10959541Y-10250640D02*
X10944301Y-10265880D01*
X10987024Y-8134350D02*
X11002264Y-8149590D01*
X11002264Y-8134350D02*
X10987024Y-8149590D01*
X10987278Y-8669020D02*
X11002518Y-8684260D01*
X11002518Y-8669020D02*
X10987278Y-8684260D01*
X10987481Y-9205100D02*
X11002721Y-9220340D01*
X11002721Y-9205100D02*
X10987481Y-9220340D01*
X10987481Y-9740100D02*
X11002721Y-9755340D01*
X11002721Y-9740100D02*
X10987481Y-9755340D01*
X11018012Y-9641840D02*
X11033252Y-9657080D01*
X11033252Y-9641840D02*
X11018012Y-9657080D01*
X11018012Y-9808972D02*
X11033252Y-9824212D01*
X11033252Y-9808972D02*
X11018012Y-9824212D01*
X11018012Y-10177018D02*
X11033252Y-10192258D01*
X11033252Y-10177018D02*
X11018012Y-10192258D01*
X11042904Y-8644890D02*
X11058144Y-8660130D01*
X11058144Y-8644890D02*
X11042904Y-8660130D01*
X11043158Y-9179560D02*
X11058398Y-9194800D01*
X11058398Y-9179560D02*
X11043158Y-9194800D01*
X11088624Y-8134350D02*
X11103864Y-8149590D01*
X11103864Y-8134350D02*
X11088624Y-8149590D01*
X11088624Y-8669020D02*
X11103864Y-8684260D01*
X11103864Y-8669020D02*
X11088624Y-8684260D01*
X11482518Y-8332062D02*
X11497758Y-8347302D01*
X11497758Y-8332062D02*
X11482518Y-8347302D01*
X11482518Y-8632062D02*
X11497758Y-8647302D01*
X11497758Y-8632062D02*
X11482518Y-8647302D01*
X11482518Y-8732062D02*
X11497758Y-8747302D01*
X11497758Y-8732062D02*
X11482518Y-8747302D01*
X11482518Y-8832062D02*
X11497758Y-8847302D01*
X11497758Y-8832062D02*
X11482518Y-8847302D01*
X11482518Y-8932062D02*
X11497758Y-8947302D01*
X11497758Y-8932062D02*
X11482518Y-8947302D01*
X11482518Y-9032062D02*
X11497758Y-9047302D01*
X11497758Y-9032062D02*
X11482518Y-9047302D01*
X11482518Y-9132062D02*
X11497758Y-9147302D01*
X11497758Y-9132062D02*
X11482518Y-9147302D01*
X11527118Y-8432038D02*
X11542358Y-8447278D01*
X11542358Y-8432038D02*
X11527118Y-8447278D01*
X11527118Y-8532038D02*
X11542358Y-8547278D01*
X11542358Y-8532038D02*
X11527118Y-8547278D01*
X11539220Y-9664026D02*
X11554460Y-9679266D01*
X11554460Y-9664026D02*
X11539220Y-9679266D01*
X11539220Y-9714026D02*
X11554460Y-9729266D01*
X11554460Y-9714026D02*
X11539220Y-9729266D01*
X11539220Y-9764026D02*
X11554460Y-9779266D01*
X11554460Y-9764026D02*
X11539220Y-9779266D01*
X11539220Y-9814026D02*
X11554460Y-9829266D01*
X11554460Y-9814026D02*
X11539220Y-9829266D01*
X11539220Y-9864026D02*
X11554460Y-9879266D01*
X11554460Y-9864026D02*
X11539220Y-9879266D01*
X11539220Y-9914026D02*
X11554460Y-9929266D01*
X11554460Y-9914026D02*
X11539220Y-9929266D01*
X11539220Y-9964026D02*
X11554460Y-9979266D01*
X11554460Y-9964026D02*
X11539220Y-9979266D01*
X11539220Y-10014026D02*
X11554460Y-10029266D01*
X11554460Y-10014026D02*
X11539220Y-10029266D01*
X11539220Y-10064026D02*
X11554460Y-10079266D01*
X11554460Y-10064026D02*
X11539220Y-10079266D01*
X11539220Y-10114026D02*
X11554460Y-10129266D01*
X11554460Y-10114026D02*
X11539220Y-10129266D01*
X11539220Y-10163980D02*
X11554460Y-10179220D01*
X11554460Y-10163980D02*
X11539220Y-10179220D01*
X11552518Y-8282062D02*
X11567758Y-8297302D01*
X11567758Y-8282062D02*
X11552518Y-8297302D01*
X11552518Y-8382062D02*
X11567758Y-8397302D01*
X11567758Y-8382062D02*
X11552518Y-8397302D01*
X11552518Y-8482062D02*
X11567758Y-8497302D01*
X11567758Y-8482062D02*
X11552518Y-8497302D01*
X11552518Y-8582062D02*
X11567758Y-8597302D01*
X11567758Y-8582062D02*
X11552518Y-8597302D01*
X11552518Y-8682062D02*
X11567758Y-8697302D01*
X11567758Y-8682062D02*
X11552518Y-8697302D01*
X11552518Y-8782062D02*
X11567758Y-8797302D01*
X11567758Y-8782062D02*
X11552518Y-8797302D01*
X11552518Y-8882062D02*
X11567758Y-8897302D01*
X11567758Y-8882062D02*
X11552518Y-8897302D01*
X11552518Y-8982062D02*
X11567758Y-8997302D01*
X11567758Y-8982062D02*
X11552518Y-8997302D01*
X11552518Y-9082062D02*
X11567758Y-9097302D01*
X11567758Y-9082062D02*
X11552518Y-9097302D01*
X11552518Y-9182062D02*
X11567758Y-9197302D01*
X11567758Y-9182062D02*
X11552518Y-9197302D01*
X11637380Y-10270800D02*
X11652620Y-10286040D01*
X11652620Y-10270800D02*
X11637380Y-10286040D01*
X11687380Y-10270800D02*
X11702620Y-10286040D01*
X11702620Y-10270800D02*
X11687380Y-10286040D01*
X11692518Y-8242062D02*
X11707758Y-8257302D01*
X11707758Y-8242062D02*
X11692518Y-8257302D01*
X11692518Y-9132380D02*
X11707758Y-9147620D01*
X11707758Y-9132380D02*
X11692518Y-9147620D01*
X11737380Y-9557800D02*
X11752620Y-9573040D01*
X11752620Y-9557800D02*
X11737380Y-9573040D01*
X11737380Y-10270800D02*
X11752620Y-10286040D01*
X11752620Y-10270800D02*
X11737380Y-10286040D01*
X11742518Y-8242062D02*
X11757758Y-8257302D01*
X11757758Y-8242062D02*
X11742518Y-8257302D01*
X11742518Y-9132380D02*
X11757758Y-9147620D01*
X11757758Y-9132380D02*
X11742518Y-9147620D01*
X11787380Y-10270800D02*
X11802620Y-10286040D01*
X11802620Y-10270800D02*
X11787380Y-10286040D01*
X11792518Y-8242062D02*
X11807758Y-8257302D01*
X11807758Y-8242062D02*
X11792518Y-8257302D01*
X11792518Y-8502062D02*
X11807758Y-8517302D01*
X11807758Y-8502062D02*
X11792518Y-8517302D01*
X11792518Y-9132380D02*
X11807758Y-9147620D01*
X11807758Y-9132380D02*
X11792518Y-9147620D01*
X11802518Y-8944062D02*
X11817758Y-8959302D01*
X11817758Y-8944062D02*
X11802518Y-8959302D01*
X11822518Y-8542062D02*
X11837758Y-8557302D01*
X11837758Y-8542062D02*
X11822518Y-8557302D01*
X11832518Y-8909062D02*
X11847758Y-8924302D01*
X11847758Y-8909062D02*
X11832518Y-8924302D01*
X11837380Y-10270800D02*
X11852620Y-10286040D01*
X11852620Y-10270800D02*
X11837380Y-10286040D01*
X11842518Y-8242062D02*
X11857758Y-8257302D01*
X11857758Y-8242062D02*
X11842518Y-8257302D01*
X11842518Y-9132380D02*
X11857758Y-9147620D01*
X11857758Y-9132380D02*
X11842518Y-9147620D01*
X11852518Y-8502062D02*
X11867758Y-8517302D01*
X11867758Y-8502062D02*
X11852518Y-8517302D01*
X11852518Y-8582062D02*
X11867758Y-8597302D01*
X11867758Y-8582062D02*
X11852518Y-8597302D01*
X11852518Y-8972062D02*
X11867758Y-8987302D01*
X11867758Y-8972062D02*
X11852518Y-8987302D01*
X11862518Y-8874062D02*
X11877758Y-8889302D01*
X11877758Y-8874062D02*
X11862518Y-8889302D01*
X11882518Y-8622062D02*
X11897758Y-8637302D01*
X11897758Y-8622062D02*
X11882518Y-8637302D01*
X11882518Y-8839062D02*
X11897758Y-8854302D01*
X11897758Y-8839062D02*
X11882518Y-8854302D01*
X11892518Y-8242062D02*
X11907758Y-8257302D01*
X11907758Y-8242062D02*
X11892518Y-8257302D01*
X11892518Y-8542062D02*
X11907758Y-8557302D01*
X11907758Y-8542062D02*
X11892518Y-8557302D01*
X11892518Y-8952062D02*
X11907758Y-8967302D01*
X11907758Y-8952062D02*
X11892518Y-8967302D01*
X11892518Y-9132380D02*
X11907758Y-9147620D01*
X11907758Y-9132380D02*
X11892518Y-9147620D01*
X11912518Y-8662062D02*
X11927758Y-8677302D01*
X11927758Y-8662062D02*
X11912518Y-8677302D01*
X11912518Y-8802062D02*
X11927758Y-8817302D01*
X11927758Y-8802062D02*
X11912518Y-8817302D01*
X11932518Y-8572062D02*
X11947758Y-8587302D01*
X11947758Y-8572062D02*
X11932518Y-8587302D01*
X11932518Y-8932062D02*
X11947758Y-8947302D01*
X11947758Y-8932062D02*
X11932518Y-8947302D01*
X11937518Y-8697062D02*
X11952758Y-8712302D01*
X11952758Y-8697062D02*
X11937518Y-8712302D01*
X11937518Y-8767062D02*
X11952758Y-8782302D01*
X11952758Y-8767062D02*
X11937518Y-8782302D01*
X11942518Y-8242062D02*
X11957758Y-8257302D01*
X11957758Y-8242062D02*
X11942518Y-8257302D01*
X11942518Y-9132380D02*
X11957758Y-9147620D01*
X11957758Y-9132380D02*
X11942518Y-9147620D01*
X11962518Y-8732062D02*
X11977758Y-8747302D01*
X11977758Y-8732062D02*
X11962518Y-8747302D01*
X11972518Y-8602062D02*
X11987758Y-8617302D01*
X11987758Y-8602062D02*
X11972518Y-8617302D01*
X11972518Y-8912062D02*
X11987758Y-8927302D01*
X11987758Y-8912062D02*
X11972518Y-8927302D01*
X11992518Y-8242062D02*
X12007758Y-8257302D01*
X12007758Y-8242062D02*
X11992518Y-8257302D01*
X11992518Y-9132380D02*
X12007758Y-9147620D01*
X12007758Y-9132380D02*
X11992518Y-9147620D01*
X12012518Y-8632062D02*
X12027758Y-8647302D01*
X12027758Y-8632062D02*
X12012518Y-8647302D01*
X12012518Y-8892062D02*
X12027758Y-8907302D01*
X12027758Y-8892062D02*
X12012518Y-8907302D01*
X12017462Y-10188536D02*
X12032702Y-10203776D01*
X12032702Y-10188536D02*
X12017462Y-10203776D01*
X12017462Y-10252036D02*
X12032702Y-10267276D01*
X12032702Y-10252036D02*
X12017462Y-10267276D01*
X12042518Y-8242062D02*
X12057758Y-8257302D01*
X12057758Y-8242062D02*
X12042518Y-8257302D01*
X12042518Y-9132380D02*
X12057758Y-9147620D01*
X12057758Y-9132380D02*
X12042518Y-9147620D01*
X12052518Y-8662062D02*
X12067758Y-8677302D01*
X12067758Y-8662062D02*
X12052518Y-8677302D01*
X12052518Y-8872062D02*
X12067758Y-8887302D01*
X12067758Y-8872062D02*
X12052518Y-8887302D01*
X12092518Y-8692062D02*
X12107758Y-8707302D01*
X12107758Y-8692062D02*
X12092518Y-8707302D01*
X12092518Y-8852062D02*
X12107758Y-8867302D01*
X12107758Y-8852062D02*
X12092518Y-8867302D01*
X12132518Y-8722062D02*
X12147758Y-8737302D01*
X12147758Y-8722062D02*
X12132518Y-8737302D01*
X12132518Y-8832062D02*
X12147758Y-8847302D01*
X12147758Y-8832062D02*
X12132518Y-8847302D01*
X12187642Y-10188536D02*
X12202882Y-10203776D01*
X12202882Y-10188536D02*
X12187642Y-10203776D01*
X12187642Y-10252036D02*
X12202882Y-10267276D01*
X12202882Y-10252036D02*
X12187642Y-10267276D01*
X12192380Y-8242062D02*
X12207620Y-8257302D01*
X12207620Y-8242062D02*
X12192380Y-8257302D01*
X12239882Y-10064044D02*
X12255122Y-10079284D01*
X12255122Y-10064044D02*
X12239882Y-10079284D01*
X12239882Y-10114044D02*
X12255122Y-10129284D01*
X12255122Y-10114044D02*
X12239882Y-10129284D01*
X12240072Y-9813980D02*
X12255312Y-9829220D01*
X12255312Y-9813980D02*
X12240072Y-9829220D01*
X12240072Y-9863980D02*
X12255312Y-9879220D01*
X12255312Y-9863980D02*
X12240072Y-9879220D01*
X12240072Y-9913980D02*
X12255312Y-9929220D01*
X12255312Y-9913980D02*
X12240072Y-9929220D01*
X12240072Y-9963980D02*
X12255312Y-9979220D01*
X12255312Y-9963980D02*
X12240072Y-9979220D01*
X12240072Y-10013980D02*
X12255312Y-10029220D01*
X12255312Y-10013980D02*
X12240072Y-10029220D01*
X12240260Y-9764044D02*
X12255500Y-9779284D01*
X12255500Y-9764044D02*
X12240260Y-9779284D01*
X12318829Y-8981504D02*
X12334069Y-8996744D01*
X12334069Y-8981504D02*
X12318829Y-8996744D01*
X12319000Y-8632444D02*
X12334240Y-8647684D01*
X12334240Y-8632444D02*
X12319000Y-8647684D01*
X12319000Y-8682444D02*
X12334240Y-8697684D01*
X12334240Y-8682444D02*
X12319000Y-8697684D01*
X12319000Y-8732330D02*
X12334240Y-8747570D01*
X12334240Y-8732330D02*
X12319000Y-8747570D01*
X12319000Y-8782444D02*
X12334240Y-8797684D01*
X12334240Y-8782444D02*
X12319000Y-8797684D01*
X12319000Y-8932444D02*
X12334240Y-8947684D01*
X12334240Y-8932444D02*
X12319000Y-8947684D01*
D11*
X9808277Y-10863984D02*
X9808277Y-10663984D01*
X9808277Y-10663984D02*
X9855896Y-10663984D01*
X9855896Y-10663984D02*
X9884467Y-10673508D01*
X9884467Y-10673508D02*
X9903515Y-10692555D01*
X9903515Y-10692555D02*
X9913039Y-10711603D01*
X9913039Y-10711603D02*
X9922563Y-10749698D01*
X9922563Y-10749698D02*
X9922563Y-10778270D01*
X9922563Y-10778270D02*
X9913039Y-10816365D01*
X9913039Y-10816365D02*
X9903515Y-10835412D01*
X9903515Y-10835412D02*
X9884467Y-10854460D01*
X9884467Y-10854460D02*
X9855896Y-10863984D01*
X9855896Y-10863984D02*
X9808277Y-10863984D01*
X10008277Y-10863984D02*
X10008277Y-10730650D01*
X10008277Y-10768746D02*
X10017801Y-10749698D01*
X10017801Y-10749698D02*
X10027324Y-10740174D01*
X10027324Y-10740174D02*
X10046372Y-10730650D01*
X10046372Y-10730650D02*
X10065420Y-10730650D01*
X10132086Y-10863984D02*
X10132086Y-10730650D01*
X10132086Y-10663984D02*
X10122563Y-10673508D01*
X10122563Y-10673508D02*
X10132086Y-10683031D01*
X10132086Y-10683031D02*
X10141610Y-10673508D01*
X10141610Y-10673508D02*
X10132086Y-10663984D01*
X10132086Y-10663984D02*
X10132086Y-10683031D01*
X10255896Y-10863984D02*
X10236848Y-10854460D01*
X10236848Y-10854460D02*
X10227324Y-10835412D01*
X10227324Y-10835412D02*
X10227324Y-10663984D01*
X10360658Y-10863984D02*
X10341610Y-10854460D01*
X10341610Y-10854460D02*
X10332086Y-10835412D01*
X10332086Y-10835412D02*
X10332086Y-10663984D01*
X10589229Y-10863984D02*
X10589229Y-10663984D01*
X10589229Y-10663984D02*
X10655896Y-10806841D01*
X10655896Y-10806841D02*
X10722563Y-10663984D01*
X10722563Y-10663984D02*
X10722563Y-10863984D01*
X10903515Y-10863984D02*
X10903515Y-10759222D01*
X10903515Y-10759222D02*
X10893991Y-10740174D01*
X10893991Y-10740174D02*
X10874944Y-10730650D01*
X10874944Y-10730650D02*
X10836848Y-10730650D01*
X10836848Y-10730650D02*
X10817801Y-10740174D01*
X10903515Y-10854460D02*
X10884467Y-10863984D01*
X10884467Y-10863984D02*
X10836848Y-10863984D01*
X10836848Y-10863984D02*
X10817801Y-10854460D01*
X10817801Y-10854460D02*
X10808277Y-10835412D01*
X10808277Y-10835412D02*
X10808277Y-10816365D01*
X10808277Y-10816365D02*
X10817801Y-10797317D01*
X10817801Y-10797317D02*
X10836848Y-10787793D01*
X10836848Y-10787793D02*
X10884467Y-10787793D01*
X10884467Y-10787793D02*
X10903515Y-10778270D01*
X10998753Y-10730650D02*
X10998753Y-10930650D01*
X10998753Y-10740174D02*
X11017801Y-10730650D01*
X11017801Y-10730650D02*
X11055896Y-10730650D01*
X11055896Y-10730650D02*
X11074944Y-10740174D01*
X11074944Y-10740174D02*
X11084467Y-10749698D01*
X11084467Y-10749698D02*
X11093991Y-10768746D01*
X11093991Y-10768746D02*
X11093991Y-10825889D01*
X11093991Y-10825889D02*
X11084467Y-10844936D01*
X11084467Y-10844936D02*
X11074944Y-10854460D01*
X11074944Y-10854460D02*
X11055896Y-10863984D01*
X11055896Y-10863984D02*
X11017801Y-10863984D01*
X11017801Y-10863984D02*
X10998753Y-10854460D01*
X11179705Y-10844936D02*
X11189229Y-10854460D01*
X11189229Y-10854460D02*
X11179705Y-10863984D01*
X11179705Y-10863984D02*
X11170182Y-10854460D01*
X11170182Y-10854460D02*
X11179705Y-10844936D01*
X11179705Y-10844936D02*
X11179705Y-10863984D01*
X11179705Y-10740174D02*
X11189229Y-10749698D01*
X11189229Y-10749698D02*
X11179705Y-10759222D01*
X11179705Y-10759222D02*
X11170182Y-10749698D01*
X11170182Y-10749698D02*
X11179705Y-10740174D01*
X11179705Y-10740174D02*
X11179705Y-10759222D01*
D12*
X9532260Y-11184880D02*
X9547500Y-11200120D01*
X9547500Y-11184880D02*
X9532260Y-11200120D01*
D11*
X9846372Y-11083984D02*
X9865420Y-11083984D01*
X9865420Y-11083984D02*
X9884467Y-11093508D01*
X9884467Y-11093508D02*
X9893991Y-11103031D01*
X9893991Y-11103031D02*
X9903515Y-11122079D01*
X9903515Y-11122079D02*
X9913039Y-11160174D01*
X9913039Y-11160174D02*
X9913039Y-11207793D01*
X9913039Y-11207793D02*
X9903515Y-11245888D01*
X9903515Y-11245888D02*
X9893991Y-11264936D01*
X9893991Y-11264936D02*
X9884467Y-11274460D01*
X9884467Y-11274460D02*
X9865420Y-11283984D01*
X9865420Y-11283984D02*
X9846372Y-11283984D01*
X9846372Y-11283984D02*
X9827324Y-11274460D01*
X9827324Y-11274460D02*
X9817801Y-11264936D01*
X9817801Y-11264936D02*
X9808277Y-11245888D01*
X9808277Y-11245888D02*
X9798753Y-11207793D01*
X9798753Y-11207793D02*
X9798753Y-11160174D01*
X9798753Y-11160174D02*
X9808277Y-11122079D01*
X9808277Y-11122079D02*
X9817801Y-11103031D01*
X9817801Y-11103031D02*
X9827324Y-11093508D01*
X9827324Y-11093508D02*
X9846372Y-11083984D01*
X9998753Y-11264936D02*
X10008277Y-11274460D01*
X10008277Y-11274460D02*
X9998753Y-11283984D01*
X9998753Y-11283984D02*
X9989229Y-11274460D01*
X9989229Y-11274460D02*
X9998753Y-11264936D01*
X9998753Y-11264936D02*
X9998753Y-11283984D01*
X10198753Y-11283984D02*
X10084467Y-11283984D01*
X10141610Y-11283984D02*
X10141610Y-11083984D01*
X10141610Y-11083984D02*
X10122563Y-11112555D01*
X10122563Y-11112555D02*
X10103515Y-11131603D01*
X10103515Y-11131603D02*
X10084467Y-11141127D01*
X10379705Y-11083984D02*
X10284467Y-11083984D01*
X10284467Y-11083984D02*
X10274944Y-11179222D01*
X10274944Y-11179222D02*
X10284467Y-11169698D01*
X10284467Y-11169698D02*
X10303515Y-11160174D01*
X10303515Y-11160174D02*
X10351134Y-11160174D01*
X10351134Y-11160174D02*
X10370182Y-11169698D01*
X10370182Y-11169698D02*
X10379705Y-11179222D01*
X10379705Y-11179222D02*
X10389229Y-11198269D01*
X10389229Y-11198269D02*
X10389229Y-11245888D01*
X10389229Y-11245888D02*
X10379705Y-11264936D01*
X10379705Y-11264936D02*
X10370182Y-11274460D01*
X10370182Y-11274460D02*
X10351134Y-11283984D01*
X10351134Y-11283984D02*
X10303515Y-11283984D01*
X10303515Y-11283984D02*
X10284467Y-11274460D01*
X10284467Y-11274460D02*
X10274944Y-11264936D01*
X10465420Y-11103031D02*
X10474944Y-11093508D01*
X10474944Y-11093508D02*
X10493991Y-11083984D01*
X10493991Y-11083984D02*
X10541610Y-11083984D01*
X10541610Y-11083984D02*
X10560658Y-11093508D01*
X10560658Y-11093508D02*
X10570182Y-11103031D01*
X10570182Y-11103031D02*
X10579705Y-11122079D01*
X10579705Y-11122079D02*
X10579705Y-11141127D01*
X10579705Y-11141127D02*
X10570182Y-11169698D01*
X10570182Y-11169698D02*
X10455896Y-11283984D01*
X10455896Y-11283984D02*
X10579705Y-11283984D01*
X10665420Y-11283984D02*
X10665420Y-11150650D01*
X10665420Y-11169698D02*
X10674944Y-11160174D01*
X10674944Y-11160174D02*
X10693991Y-11150650D01*
X10693991Y-11150650D02*
X10722563Y-11150650D01*
X10722563Y-11150650D02*
X10741610Y-11160174D01*
X10741610Y-11160174D02*
X10751134Y-11179222D01*
X10751134Y-11179222D02*
X10751134Y-11283984D01*
X10751134Y-11179222D02*
X10760658Y-11160174D01*
X10760658Y-11160174D02*
X10779705Y-11150650D01*
X10779705Y-11150650D02*
X10808277Y-11150650D01*
X10808277Y-11150650D02*
X10827325Y-11160174D01*
X10827325Y-11160174D02*
X10836848Y-11179222D01*
X10836848Y-11179222D02*
X10836848Y-11283984D01*
X10932086Y-11283984D02*
X10932086Y-11150650D01*
X10932086Y-11169698D02*
X10941610Y-11160174D01*
X10941610Y-11160174D02*
X10960658Y-11150650D01*
X10960658Y-11150650D02*
X10989229Y-11150650D01*
X10989229Y-11150650D02*
X11008277Y-11160174D01*
X11008277Y-11160174D02*
X11017801Y-11179222D01*
X11017801Y-11179222D02*
X11017801Y-11283984D01*
X11017801Y-11179222D02*
X11027325Y-11160174D01*
X11027325Y-11160174D02*
X11046372Y-11150650D01*
X11046372Y-11150650D02*
X11074944Y-11150650D01*
X11074944Y-11150650D02*
X11093991Y-11160174D01*
X11093991Y-11160174D02*
X11103515Y-11179222D01*
X11103515Y-11179222D02*
X11103515Y-11283984D01*
X11493991Y-11074460D02*
X11322563Y-11331603D01*
X11751134Y-11083984D02*
X11770182Y-11083984D01*
X11770182Y-11083984D02*
X11789229Y-11093508D01*
X11789229Y-11093508D02*
X11798753Y-11103031D01*
X11798753Y-11103031D02*
X11808277Y-11122079D01*
X11808277Y-11122079D02*
X11817801Y-11160174D01*
X11817801Y-11160174D02*
X11817801Y-11207793D01*
X11817801Y-11207793D02*
X11808277Y-11245888D01*
X11808277Y-11245888D02*
X11798753Y-11264936D01*
X11798753Y-11264936D02*
X11789229Y-11274460D01*
X11789229Y-11274460D02*
X11770182Y-11283984D01*
X11770182Y-11283984D02*
X11751134Y-11283984D01*
X11751134Y-11283984D02*
X11732086Y-11274460D01*
X11732086Y-11274460D02*
X11722563Y-11264936D01*
X11722563Y-11264936D02*
X11713039Y-11245888D01*
X11713039Y-11245888D02*
X11703515Y-11207793D01*
X11703515Y-11207793D02*
X11703515Y-11160174D01*
X11703515Y-11160174D02*
X11713039Y-11122079D01*
X11713039Y-11122079D02*
X11722563Y-11103031D01*
X11722563Y-11103031D02*
X11732086Y-11093508D01*
X11732086Y-11093508D02*
X11751134Y-11083984D01*
X11903515Y-11264936D02*
X11913039Y-11274460D01*
X11913039Y-11274460D02*
X11903515Y-11283984D01*
X11903515Y-11283984D02*
X11893991Y-11274460D01*
X11893991Y-11274460D02*
X11903515Y-11264936D01*
X11903515Y-11264936D02*
X11903515Y-11283984D01*
X12036848Y-11083984D02*
X12055896Y-11083984D01*
X12055896Y-11083984D02*
X12074944Y-11093508D01*
X12074944Y-11093508D02*
X12084467Y-11103031D01*
X12084467Y-11103031D02*
X12093991Y-11122079D01*
X12093991Y-11122079D02*
X12103515Y-11160174D01*
X12103515Y-11160174D02*
X12103515Y-11207793D01*
X12103515Y-11207793D02*
X12093991Y-11245888D01*
X12093991Y-11245888D02*
X12084467Y-11264936D01*
X12084467Y-11264936D02*
X12074944Y-11274460D01*
X12074944Y-11274460D02*
X12055896Y-11283984D01*
X12055896Y-11283984D02*
X12036848Y-11283984D01*
X12036848Y-11283984D02*
X12017801Y-11274460D01*
X12017801Y-11274460D02*
X12008277Y-11264936D01*
X12008277Y-11264936D02*
X11998753Y-11245888D01*
X11998753Y-11245888D02*
X11989229Y-11207793D01*
X11989229Y-11207793D02*
X11989229Y-11160174D01*
X11989229Y-11160174D02*
X11998753Y-11122079D01*
X11998753Y-11122079D02*
X12008277Y-11103031D01*
X12008277Y-11103031D02*
X12017801Y-11093508D01*
X12017801Y-11093508D02*
X12036848Y-11083984D01*
X12227325Y-11083984D02*
X12246372Y-11083984D01*
X12246372Y-11083984D02*
X12265420Y-11093508D01*
X12265420Y-11093508D02*
X12274944Y-11103031D01*
X12274944Y-11103031D02*
X12284467Y-11122079D01*
X12284467Y-11122079D02*
X12293991Y-11160174D01*
X12293991Y-11160174D02*
X12293991Y-11207793D01*
X12293991Y-11207793D02*
X12284467Y-11245888D01*
X12284467Y-11245888D02*
X12274944Y-11264936D01*
X12274944Y-11264936D02*
X12265420Y-11274460D01*
X12265420Y-11274460D02*
X12246372Y-11283984D01*
X12246372Y-11283984D02*
X12227325Y-11283984D01*
X12227325Y-11283984D02*
X12208277Y-11274460D01*
X12208277Y-11274460D02*
X12198753Y-11264936D01*
X12198753Y-11264936D02*
X12189229Y-11245888D01*
X12189229Y-11245888D02*
X12179706Y-11207793D01*
X12179706Y-11207793D02*
X12179706Y-11160174D01*
X12179706Y-11160174D02*
X12189229Y-11122079D01*
X12189229Y-11122079D02*
X12198753Y-11103031D01*
X12198753Y-11103031D02*
X12208277Y-11093508D01*
X12208277Y-11093508D02*
X12227325Y-11083984D01*
X12465420Y-11083984D02*
X12427325Y-11083984D01*
X12427325Y-11083984D02*
X12408277Y-11093508D01*
X12408277Y-11093508D02*
X12398753Y-11103031D01*
X12398753Y-11103031D02*
X12379706Y-11131603D01*
X12379706Y-11131603D02*
X12370182Y-11169698D01*
X12370182Y-11169698D02*
X12370182Y-11245888D01*
X12370182Y-11245888D02*
X12379706Y-11264936D01*
X12379706Y-11264936D02*
X12389229Y-11274460D01*
X12389229Y-11274460D02*
X12408277Y-11283984D01*
X12408277Y-11283984D02*
X12446372Y-11283984D01*
X12446372Y-11283984D02*
X12465420Y-11274460D01*
X12465420Y-11274460D02*
X12474944Y-11264936D01*
X12474944Y-11264936D02*
X12484467Y-11245888D01*
X12484467Y-11245888D02*
X12484467Y-11198269D01*
X12484467Y-11198269D02*
X12474944Y-11179222D01*
X12474944Y-11179222D02*
X12465420Y-11169698D01*
X12465420Y-11169698D02*
X12446372Y-11160174D01*
X12446372Y-11160174D02*
X12408277Y-11160174D01*
X12408277Y-11160174D02*
X12389229Y-11169698D01*
X12389229Y-11169698D02*
X12379706Y-11179222D01*
X12379706Y-11179222D02*
X12370182Y-11198269D01*
X12608277Y-11083984D02*
X12627325Y-11083984D01*
X12627325Y-11083984D02*
X12646372Y-11093508D01*
X12646372Y-11093508D02*
X12655896Y-11103031D01*
X12655896Y-11103031D02*
X12665420Y-11122079D01*
X12665420Y-11122079D02*
X12674944Y-11160174D01*
X12674944Y-11160174D02*
X12674944Y-11207793D01*
X12674944Y-11207793D02*
X12665420Y-11245888D01*
X12665420Y-11245888D02*
X12655896Y-11264936D01*
X12655896Y-11264936D02*
X12646372Y-11274460D01*
X12646372Y-11274460D02*
X12627325Y-11283984D01*
X12627325Y-11283984D02*
X12608277Y-11283984D01*
X12608277Y-11283984D02*
X12589229Y-11274460D01*
X12589229Y-11274460D02*
X12579706Y-11264936D01*
X12579706Y-11264936D02*
X12570182Y-11245888D01*
X12570182Y-11245888D02*
X12560658Y-11207793D01*
X12560658Y-11207793D02*
X12560658Y-11160174D01*
X12560658Y-11160174D02*
X12570182Y-11122079D01*
X12570182Y-11122079D02*
X12579706Y-11103031D01*
X12579706Y-11103031D02*
X12589229Y-11093508D01*
X12589229Y-11093508D02*
X12608277Y-11083984D01*
X12751134Y-11083984D02*
X12751134Y-11122079D01*
X12827325Y-11083984D02*
X12827325Y-11122079D01*
X13122563Y-11360174D02*
X13113039Y-11350650D01*
X13113039Y-11350650D02*
X13093991Y-11322079D01*
X13093991Y-11322079D02*
X13084468Y-11303031D01*
X13084468Y-11303031D02*
X13074944Y-11274460D01*
X13074944Y-11274460D02*
X13065420Y-11226841D01*
X13065420Y-11226841D02*
X13065420Y-11188746D01*
X13065420Y-11188746D02*
X13074944Y-11141127D01*
X13074944Y-11141127D02*
X13084468Y-11112555D01*
X13084468Y-11112555D02*
X13093991Y-11093508D01*
X13093991Y-11093508D02*
X13113039Y-11064936D01*
X13113039Y-11064936D02*
X13122563Y-11055412D01*
X13303515Y-11283984D02*
X13189229Y-11283984D01*
X13246372Y-11283984D02*
X13246372Y-11083984D01*
X13246372Y-11083984D02*
X13227325Y-11112555D01*
X13227325Y-11112555D02*
X13208277Y-11131603D01*
X13208277Y-11131603D02*
X13189229Y-11141127D01*
X13474944Y-11150650D02*
X13474944Y-11283984D01*
X13427325Y-11074460D02*
X13379706Y-11217317D01*
X13379706Y-11217317D02*
X13503515Y-11217317D01*
X13617801Y-11083984D02*
X13636849Y-11083984D01*
X13636849Y-11083984D02*
X13655896Y-11093508D01*
X13655896Y-11093508D02*
X13665420Y-11103031D01*
X13665420Y-11103031D02*
X13674944Y-11122079D01*
X13674944Y-11122079D02*
X13684468Y-11160174D01*
X13684468Y-11160174D02*
X13684468Y-11207793D01*
X13684468Y-11207793D02*
X13674944Y-11245888D01*
X13674944Y-11245888D02*
X13665420Y-11264936D01*
X13665420Y-11264936D02*
X13655896Y-11274460D01*
X13655896Y-11274460D02*
X13636849Y-11283984D01*
X13636849Y-11283984D02*
X13617801Y-11283984D01*
X13617801Y-11283984D02*
X13598753Y-11274460D01*
X13598753Y-11274460D02*
X13589229Y-11264936D01*
X13589229Y-11264936D02*
X13579706Y-11245888D01*
X13579706Y-11245888D02*
X13570182Y-11207793D01*
X13570182Y-11207793D02*
X13570182Y-11160174D01*
X13570182Y-11160174D02*
X13579706Y-11122079D01*
X13579706Y-11122079D02*
X13589229Y-11103031D01*
X13589229Y-11103031D02*
X13598753Y-11093508D01*
X13598753Y-11093508D02*
X13617801Y-11083984D01*
X13922563Y-11283984D02*
X13922563Y-11083984D01*
X14008277Y-11283984D02*
X14008277Y-11179222D01*
X14008277Y-11179222D02*
X13998753Y-11160174D01*
X13998753Y-11160174D02*
X13979706Y-11150650D01*
X13979706Y-11150650D02*
X13951134Y-11150650D01*
X13951134Y-11150650D02*
X13932087Y-11160174D01*
X13932087Y-11160174D02*
X13922563Y-11169698D01*
X14132087Y-11283984D02*
X14113039Y-11274460D01*
X14113039Y-11274460D02*
X14103515Y-11264936D01*
X14103515Y-11264936D02*
X14093991Y-11245888D01*
X14093991Y-11245888D02*
X14093991Y-11188746D01*
X14093991Y-11188746D02*
X14103515Y-11169698D01*
X14103515Y-11169698D02*
X14113039Y-11160174D01*
X14113039Y-11160174D02*
X14132087Y-11150650D01*
X14132087Y-11150650D02*
X14160658Y-11150650D01*
X14160658Y-11150650D02*
X14179706Y-11160174D01*
X14179706Y-11160174D02*
X14189230Y-11169698D01*
X14189230Y-11169698D02*
X14198753Y-11188746D01*
X14198753Y-11188746D02*
X14198753Y-11245888D01*
X14198753Y-11245888D02*
X14189230Y-11264936D01*
X14189230Y-11264936D02*
X14179706Y-11274460D01*
X14179706Y-11274460D02*
X14160658Y-11283984D01*
X14160658Y-11283984D02*
X14132087Y-11283984D01*
X14313039Y-11283984D02*
X14293991Y-11274460D01*
X14293991Y-11274460D02*
X14284468Y-11255412D01*
X14284468Y-11255412D02*
X14284468Y-11083984D01*
X14465420Y-11274460D02*
X14446372Y-11283984D01*
X14446372Y-11283984D02*
X14408277Y-11283984D01*
X14408277Y-11283984D02*
X14389230Y-11274460D01*
X14389230Y-11274460D02*
X14379706Y-11255412D01*
X14379706Y-11255412D02*
X14379706Y-11179222D01*
X14379706Y-11179222D02*
X14389230Y-11160174D01*
X14389230Y-11160174D02*
X14408277Y-11150650D01*
X14408277Y-11150650D02*
X14446372Y-11150650D01*
X14446372Y-11150650D02*
X14465420Y-11160174D01*
X14465420Y-11160174D02*
X14474944Y-11179222D01*
X14474944Y-11179222D02*
X14474944Y-11198269D01*
X14474944Y-11198269D02*
X14379706Y-11217317D01*
X14551134Y-11274460D02*
X14570182Y-11283984D01*
X14570182Y-11283984D02*
X14608277Y-11283984D01*
X14608277Y-11283984D02*
X14627325Y-11274460D01*
X14627325Y-11274460D02*
X14636849Y-11255412D01*
X14636849Y-11255412D02*
X14636849Y-11245888D01*
X14636849Y-11245888D02*
X14627325Y-11226841D01*
X14627325Y-11226841D02*
X14608277Y-11217317D01*
X14608277Y-11217317D02*
X14579706Y-11217317D01*
X14579706Y-11217317D02*
X14560658Y-11207793D01*
X14560658Y-11207793D02*
X14551134Y-11188746D01*
X14551134Y-11188746D02*
X14551134Y-11179222D01*
X14551134Y-11179222D02*
X14560658Y-11160174D01*
X14560658Y-11160174D02*
X14579706Y-11150650D01*
X14579706Y-11150650D02*
X14608277Y-11150650D01*
X14608277Y-11150650D02*
X14627325Y-11160174D01*
X14703515Y-11360174D02*
X14713039Y-11350650D01*
X14713039Y-11350650D02*
X14732087Y-11322079D01*
X14732087Y-11322079D02*
X14741611Y-11303031D01*
X14741611Y-11303031D02*
X14751134Y-11274460D01*
X14751134Y-11274460D02*
X14760658Y-11226841D01*
X14760658Y-11226841D02*
X14760658Y-11188746D01*
X14760658Y-11188746D02*
X14751134Y-11141127D01*
X14751134Y-11141127D02*
X14741611Y-11112555D01*
X14741611Y-11112555D02*
X14732087Y-11093508D01*
X14732087Y-11093508D02*
X14713039Y-11064936D01*
X14713039Y-11064936D02*
X14703515Y-11055412D01*
M02*
