M48
; DRILL file {KiCad 8.0.5} date 2025-10-23T09:57:43-0500
; FORMAT={-:-/ absolute / metric / decimal}
; #@! TF.CreationDate,2025-10-23T09:57:43-05:00
; #@! TF.GenerationSoftware,Kicad,Pcbnew,8.0.5
; #@! TF.FileFunction,Plated,5,6,Buried
FMAT,2
METRIC
; #@! TA.AperFunction,Plated,Buried,ViaDrill
T1C0.152
%
G90
G05
T1
X97.805Y-92.003
X97.805Y-92.803
X97.805Y-93.603
X97.805Y-94.403
X97.805Y-95.203
X97.805Y-96.003
X97.805Y-96.803
X97.805Y-97.603
X97.805Y-98.403
X98.043Y-83.485
X98.192Y-92.004
X98.192Y-92.804
X98.192Y-93.604
X98.192Y-94.404
X98.192Y-95.204
X98.192Y-96.004
X98.192Y-96.804
X98.192Y-97.604
X98.192Y-98.404
X99.805Y-92.003
X99.805Y-92.803
X99.805Y-93.603
X99.805Y-94.403
X99.805Y-95.203
X99.805Y-96.003
X99.805Y-96.803
X99.805Y-97.603
X99.805Y-98.403
X100.192Y-92.004
X100.192Y-92.804
X100.192Y-93.604
X100.192Y-94.404
X100.192Y-95.204
X100.192Y-96.004
X100.192Y-96.804
X100.192Y-97.604
X100.192Y-98.404
X101.319Y-100.55
X101.805Y-92.003
X101.805Y-92.803
X101.805Y-93.603
X101.805Y-94.403
X101.805Y-95.203
X101.805Y-96.003
X101.805Y-96.803
X101.805Y-97.603
X101.805Y-98.403
X102.192Y-92.804
X102.192Y-93.604
X102.192Y-94.404
X102.192Y-95.204
X102.192Y-96.004
X102.192Y-96.804
X102.192Y-97.604
X102.192Y-98.404
X105.791Y-92.172
X106.197Y-92.172
X106.604Y-92.172
X106.987Y-86.523
X106.99Y-91.869
X106.992Y-97.23
X107.417Y-81.42
X107.419Y-86.766
X107.421Y-92.127
X107.421Y-97.477
X107.752Y-94.399
X107.752Y-94.9
X107.752Y-95.9
X107.752Y-98.75
X107.752Y-99.75
X107.752Y-100.25
X107.752Y-101.25
X108.753Y-81.702
X108.753Y-86.195
X108.755Y-87.048
X108.755Y-91.542
X108.757Y-102.252
X109.266Y-96.901
X109.266Y-97.76
X109.266Y-102.253
X109.743Y-81.702
X109.743Y-86.195
X109.746Y-87.048
X109.746Y-91.542
X109.748Y-92.409
X109.748Y-96.902
X109.748Y-97.759
X109.748Y-102.252
X110.256Y-96.901
X110.256Y-97.76
X110.256Y-102.253
X110.759Y-81.702
X110.759Y-86.195
X110.762Y-87.048
X110.762Y-91.542
X114.901Y-84.397
X114.901Y-85.397
X115.037Y-96.716
X115.037Y-97.216
X115.037Y-97.716
X115.037Y-98.216
X115.037Y-98.716
X115.037Y-99.216
X115.037Y-99.716
X115.037Y-100.216
X115.037Y-100.716
X115.037Y-101.216
X115.037Y-101.716
X116.002Y-82.898
X116.002Y-83.896
X116.002Y-84.896
X116.45Y-103.216
X116.95Y-103.216
X117.0Y-82.898
X117.45Y-103.216
X117.5Y-82.898
X117.602Y-85.096
X117.902Y-85.496
X117.95Y-103.216
X118.45Y-103.216
X118.602Y-84.698
X119.002Y-85.098
X119.87Y-101.962
X119.87Y-102.597
X121.572Y-101.962
X121.572Y-102.597
X122.001Y-91.9
X122.869Y-100.716
X122.869Y-101.216
X122.871Y-98.215
X122.871Y-98.715
X122.871Y-99.215
X122.871Y-99.715
X122.871Y-100.215
X122.871Y-89.891
X122.872Y-86.401
X122.872Y-86.901
X122.872Y-87.399
X122.872Y-87.901
X122.872Y-89.401
X122.872Y-97.716
M30
