M48
; DRILL file {KiCad 9.0.5} date 2025-10-24T14:38:57-0700
; FORMAT={-:-/ absolute / metric / decimal}
; #@! TF.CreationDate,2025-10-24T14:38:57-07:00
; #@! TF.GenerationSoftware,Kicad,Pcbnew,9.0.5
; #@! TF.FileFunction,Plated,6,8,Blind
FMAT,2
METRIC
; #@! TA.AperFunction,Plated,Buried,ViaDrill
T1C0.152
%
G90
G05
T1
X104.361Y-104.814
X104.78Y-103.92
X104.78Y-104.325
X104.82Y-105.43
X104.84Y-105.92
X104.999Y-92.044
X104.999Y-92.544
X104.999Y-93.044
X104.999Y-93.496
X105.0Y-94.0
X106.949Y-89.444
X107.449Y-89.444
X107.949Y-89.444
X108.449Y-89.444
X108.949Y-89.444
X109.449Y-89.444
X109.949Y-89.444
X110.399Y-89.444
X110.65Y-102.14
X110.949Y-89.444
X111.16Y-102.14
X111.449Y-89.444
X111.66Y-102.16
X111.899Y-89.444
X116.17Y-101.77
X117.203Y-101.697
X117.725Y-101.7
X118.277Y-101.697
X118.85Y-101.68
X119.45Y-101.7
X120.078Y-101.703
X120.65Y-101.7
X121.297Y-101.697
X122.062Y-101.688
X123.07Y-101.7
M30
