M48
; DRILL file {KiCad 9.0.5} date 2025-10-24T14:38:56-0700
; FORMAT={-:-/ absolute / metric / decimal}
; #@! TF.CreationDate,2025-10-24T14:38:56-07:00
; #@! TF.GenerationSoftware,Kicad,Pcbnew,9.0.5
; #@! TF.FileFunction,Plated,1,8,PTH
FMAT,2
METRIC
; #@! TA.AperFunction,Plated,PTH,ViaDrill
T1C0.152
; #@! TA.AperFunction,Plated,PTH,ViaDrill
T2C0.350
; #@! TA.AperFunction,Plated,PTH,ComponentDrill
T3C0.500
; #@! TA.AperFunction,Plated,PTH,ComponentDrill
T4C2.200
%
G90
G05
T1
X109.05Y-110.95
X109.3Y-99.227
X109.5Y-110.95
X109.55Y-98.9
X110.65Y-111.45
X112.26Y-103.175
X113.525Y-106.69
X114.042Y-96.5
X114.287Y-105.193
X114.472Y-94.729
X114.751Y-92.983
X114.975Y-95.75
X116.13Y-103.32
X116.616Y-100.766
X117.267Y-113.858
X117.677Y-113.927
X117.797Y-87.301
X117.805Y-86.21
X117.853Y-85.342
X118.562Y-81.315
X118.6Y-82.2
X118.6Y-86.2
X118.604Y-85.346
X118.609Y-84.215
X118.622Y-83.366
X118.625Y-80.1
X118.645Y-87.294
X118.879Y-112.09
X119.2Y-111.1
X119.407Y-110.754
X119.586Y-99.114
X119.987Y-99.137
X121.0Y-84.2
X121.011Y-82.21
X121.1Y-80.1
X121.6Y-87.15
X121.625Y-85.05
X123.677Y-117.975
X124.4Y-94.45
T2
X103.4Y-93.15
X103.71Y-96.79
X104.48Y-116.644
X104.56Y-108.53
X104.575Y-80.425
X104.68Y-115.66
X105.675Y-103.3
X105.9Y-84.975
X105.92Y-91.17
X107.24Y-111.11
X107.363Y-99.08
X108.575Y-117.975
X112.66Y-110.57
X112.796Y-98.06
X113.02Y-103.42
X113.628Y-108.979
X113.786Y-107.993
X113.875Y-95.0
X114.575Y-102.05
X114.575Y-121.225
X114.871Y-96.389
X114.925Y-79.2
X114.925Y-91.325
X114.95Y-108.51
X115.41Y-110.29
X115.74Y-99.09
X116.794Y-110.913
X123.899Y-95.044
X124.0Y-96.5
X124.375Y-100.5
X124.45Y-85.3
X124.96Y-108.53
X125.071Y-106.225
X126.325Y-116.65
X127.025Y-94.025
T3
X102.334Y-86.647
X102.38Y-90.03
T4
X96.65Y-82.485
X132.65Y-82.485
M30
