G04 #@! TF.GenerationSoftware,KiCad,Pcbnew,9.0.5*
G04 #@! TF.CreationDate,2025-10-24T14:39:18-07:00*
G04 #@! TF.ProjectId,iris-128b,69726973-2d31-4323-9862-2e6b69636164,rev?*
G04 #@! TF.SameCoordinates,Original*
G04 #@! TF.FileFunction,Legend,Bot*
G04 #@! TF.FilePolarity,Positive*
%FSLAX46Y46*%
G04 Gerber Fmt 4.6, Leading zero omitted, Abs format (unit mm)*
G04 Created by KiCad (PCBNEW 9.0.5) date 2025-10-24 14:39:18*
%MOMM*%
%LPD*%
G01*
G04 APERTURE LIST*
G04 Aperture macros list*
%AMRoundRect*
0 Rectangle with rounded corners*
0 $1 Rounding radius*
0 $2 $3 $4 $5 $6 $7 $8 $9 X,Y pos of 4 corners*
0 Add a 4 corners polygon primitive as box body*
4,1,4,$2,$3,$4,$5,$6,$7,$8,$9,$2,$3,0*
0 Add four circle primitives for the rounded corners*
1,1,$1+$1,$2,$3*
1,1,$1+$1,$4,$5*
1,1,$1+$1,$6,$7*
1,1,$1+$1,$8,$9*
0 Add four rect primitives between the rounded corners*
20,1,$1+$1,$2,$3,$4,$5,0*
20,1,$1+$1,$4,$5,$6,$7,0*
20,1,$1+$1,$6,$7,$8,$9,0*
20,1,$1+$1,$8,$9,$2,$3,0*%
G04 Aperture macros list end*
%ADD10C,0.200000*%
%ADD11C,0.150000*%
%ADD12C,0.127000*%
%ADD13C,3.800000*%
%ADD14C,1.000000*%
%ADD15C,1.450000*%
%ADD16RoundRect,0.100000X0.130000X0.100000X-0.130000X0.100000X-0.130000X-0.100000X0.130000X-0.100000X0*%
%ADD17RoundRect,0.100000X0.100000X-0.130000X0.100000X0.130000X-0.100000X0.130000X-0.100000X-0.130000X0*%
%ADD18RoundRect,0.100000X-0.100000X0.130000X-0.100000X-0.130000X0.100000X-0.130000X0.100000X0.130000X0*%
%ADD19RoundRect,0.101600X0.450000X0.125000X-0.450000X0.125000X-0.450000X-0.125000X0.450000X-0.125000X0*%
%ADD20RoundRect,0.101600X0.125000X-0.450000X0.125000X0.450000X-0.125000X0.450000X-0.125000X-0.450000X0*%
%ADD21RoundRect,0.101600X-0.125000X0.450000X-0.125000X-0.450000X0.125000X-0.450000X0.125000X0.450000X0*%
%ADD22RoundRect,0.101600X-0.450000X-0.125000X0.450000X-0.125000X0.450000X0.125000X-0.450000X0.125000X0*%
%ADD23RoundRect,0.101600X2.050000X2.050000X-2.050000X2.050000X-2.050000X-2.050000X2.050000X-2.050000X0*%
%ADD24RoundRect,0.100000X-0.130000X-0.100000X0.130000X-0.100000X0.130000X0.100000X-0.130000X0.100000X0*%
G04 APERTURE END LIST*
D10*
X122880326Y-115272331D02*
X122880326Y-114272331D01*
X122880326Y-114272331D02*
X122642231Y-114272331D01*
X122642231Y-114272331D02*
X122499374Y-114319950D01*
X122499374Y-114319950D02*
X122404136Y-114415188D01*
X122404136Y-114415188D02*
X122356517Y-114510426D01*
X122356517Y-114510426D02*
X122308898Y-114700902D01*
X122308898Y-114700902D02*
X122308898Y-114843759D01*
X122308898Y-114843759D02*
X122356517Y-115034235D01*
X122356517Y-115034235D02*
X122404136Y-115129473D01*
X122404136Y-115129473D02*
X122499374Y-115224712D01*
X122499374Y-115224712D02*
X122642231Y-115272331D01*
X122642231Y-115272331D02*
X122880326Y-115272331D01*
X121499374Y-115224712D02*
X121594612Y-115272331D01*
X121594612Y-115272331D02*
X121785088Y-115272331D01*
X121785088Y-115272331D02*
X121880326Y-115224712D01*
X121880326Y-115224712D02*
X121927945Y-115129473D01*
X121927945Y-115129473D02*
X121927945Y-114748521D01*
X121927945Y-114748521D02*
X121880326Y-114653283D01*
X121880326Y-114653283D02*
X121785088Y-114605664D01*
X121785088Y-114605664D02*
X121594612Y-114605664D01*
X121594612Y-114605664D02*
X121499374Y-114653283D01*
X121499374Y-114653283D02*
X121451755Y-114748521D01*
X121451755Y-114748521D02*
X121451755Y-114843759D01*
X121451755Y-114843759D02*
X121927945Y-114938997D01*
X121070802Y-115224712D02*
X120975564Y-115272331D01*
X120975564Y-115272331D02*
X120785088Y-115272331D01*
X120785088Y-115272331D02*
X120689850Y-115224712D01*
X120689850Y-115224712D02*
X120642231Y-115129473D01*
X120642231Y-115129473D02*
X120642231Y-115081854D01*
X120642231Y-115081854D02*
X120689850Y-114986616D01*
X120689850Y-114986616D02*
X120785088Y-114938997D01*
X120785088Y-114938997D02*
X120927945Y-114938997D01*
X120927945Y-114938997D02*
X121023183Y-114891378D01*
X121023183Y-114891378D02*
X121070802Y-114796140D01*
X121070802Y-114796140D02*
X121070802Y-114748521D01*
X121070802Y-114748521D02*
X121023183Y-114653283D01*
X121023183Y-114653283D02*
X120927945Y-114605664D01*
X120927945Y-114605664D02*
X120785088Y-114605664D01*
X120785088Y-114605664D02*
X120689850Y-114653283D01*
X120213659Y-115272331D02*
X120213659Y-114605664D01*
X120213659Y-114272331D02*
X120261278Y-114319950D01*
X120261278Y-114319950D02*
X120213659Y-114367569D01*
X120213659Y-114367569D02*
X120166040Y-114319950D01*
X120166040Y-114319950D02*
X120213659Y-114272331D01*
X120213659Y-114272331D02*
X120213659Y-114367569D01*
X119308898Y-114605664D02*
X119308898Y-115415188D01*
X119308898Y-115415188D02*
X119356517Y-115510426D01*
X119356517Y-115510426D02*
X119404136Y-115558045D01*
X119404136Y-115558045D02*
X119499374Y-115605664D01*
X119499374Y-115605664D02*
X119642231Y-115605664D01*
X119642231Y-115605664D02*
X119737469Y-115558045D01*
X119308898Y-115224712D02*
X119404136Y-115272331D01*
X119404136Y-115272331D02*
X119594612Y-115272331D01*
X119594612Y-115272331D02*
X119689850Y-115224712D01*
X119689850Y-115224712D02*
X119737469Y-115177092D01*
X119737469Y-115177092D02*
X119785088Y-115081854D01*
X119785088Y-115081854D02*
X119785088Y-114796140D01*
X119785088Y-114796140D02*
X119737469Y-114700902D01*
X119737469Y-114700902D02*
X119689850Y-114653283D01*
X119689850Y-114653283D02*
X119594612Y-114605664D01*
X119594612Y-114605664D02*
X119404136Y-114605664D01*
X119404136Y-114605664D02*
X119308898Y-114653283D01*
X118832707Y-114605664D02*
X118832707Y-115272331D01*
X118832707Y-114700902D02*
X118785088Y-114653283D01*
X118785088Y-114653283D02*
X118689850Y-114605664D01*
X118689850Y-114605664D02*
X118546993Y-114605664D01*
X118546993Y-114605664D02*
X118451755Y-114653283D01*
X118451755Y-114653283D02*
X118404136Y-114748521D01*
X118404136Y-114748521D02*
X118404136Y-115272331D01*
X117546993Y-115224712D02*
X117642231Y-115272331D01*
X117642231Y-115272331D02*
X117832707Y-115272331D01*
X117832707Y-115272331D02*
X117927945Y-115224712D01*
X117927945Y-115224712D02*
X117975564Y-115129473D01*
X117975564Y-115129473D02*
X117975564Y-114748521D01*
X117975564Y-114748521D02*
X117927945Y-114653283D01*
X117927945Y-114653283D02*
X117832707Y-114605664D01*
X117832707Y-114605664D02*
X117642231Y-114605664D01*
X117642231Y-114605664D02*
X117546993Y-114653283D01*
X117546993Y-114653283D02*
X117499374Y-114748521D01*
X117499374Y-114748521D02*
X117499374Y-114843759D01*
X117499374Y-114843759D02*
X117975564Y-114938997D01*
X116642231Y-115272331D02*
X116642231Y-114272331D01*
X116642231Y-115224712D02*
X116737469Y-115272331D01*
X116737469Y-115272331D02*
X116927945Y-115272331D01*
X116927945Y-115272331D02*
X117023183Y-115224712D01*
X117023183Y-115224712D02*
X117070802Y-115177092D01*
X117070802Y-115177092D02*
X117118421Y-115081854D01*
X117118421Y-115081854D02*
X117118421Y-114796140D01*
X117118421Y-114796140D02*
X117070802Y-114700902D01*
X117070802Y-114700902D02*
X117023183Y-114653283D01*
X117023183Y-114653283D02*
X116927945Y-114605664D01*
X116927945Y-114605664D02*
X116737469Y-114605664D01*
X116737469Y-114605664D02*
X116642231Y-114653283D01*
X115404135Y-115272331D02*
X115404135Y-114272331D01*
X115404135Y-114653283D02*
X115308897Y-114605664D01*
X115308897Y-114605664D02*
X115118421Y-114605664D01*
X115118421Y-114605664D02*
X115023183Y-114653283D01*
X115023183Y-114653283D02*
X114975564Y-114700902D01*
X114975564Y-114700902D02*
X114927945Y-114796140D01*
X114927945Y-114796140D02*
X114927945Y-115081854D01*
X114927945Y-115081854D02*
X114975564Y-115177092D01*
X114975564Y-115177092D02*
X115023183Y-115224712D01*
X115023183Y-115224712D02*
X115118421Y-115272331D01*
X115118421Y-115272331D02*
X115308897Y-115272331D01*
X115308897Y-115272331D02*
X115404135Y-115224712D01*
X114594611Y-114605664D02*
X114356516Y-115272331D01*
X114118421Y-114605664D02*
X114356516Y-115272331D01*
X114356516Y-115272331D02*
X114451754Y-115510426D01*
X114451754Y-115510426D02*
X114499373Y-115558045D01*
X114499373Y-115558045D02*
X114594611Y-115605664D01*
X122880326Y-116358465D02*
X122546993Y-116358465D01*
X122404136Y-116882275D02*
X122880326Y-116882275D01*
X122880326Y-116882275D02*
X122880326Y-115882275D01*
X122880326Y-115882275D02*
X122404136Y-115882275D01*
X121975564Y-116882275D02*
X121975564Y-116215608D01*
X121975564Y-116310846D02*
X121927945Y-116263227D01*
X121927945Y-116263227D02*
X121832707Y-116215608D01*
X121832707Y-116215608D02*
X121689850Y-116215608D01*
X121689850Y-116215608D02*
X121594612Y-116263227D01*
X121594612Y-116263227D02*
X121546993Y-116358465D01*
X121546993Y-116358465D02*
X121546993Y-116882275D01*
X121546993Y-116358465D02*
X121499374Y-116263227D01*
X121499374Y-116263227D02*
X121404136Y-116215608D01*
X121404136Y-116215608D02*
X121261279Y-116215608D01*
X121261279Y-116215608D02*
X121166040Y-116263227D01*
X121166040Y-116263227D02*
X121118421Y-116358465D01*
X121118421Y-116358465D02*
X121118421Y-116882275D01*
X120642231Y-116882275D02*
X120642231Y-116215608D01*
X120642231Y-116310846D02*
X120594612Y-116263227D01*
X120594612Y-116263227D02*
X120499374Y-116215608D01*
X120499374Y-116215608D02*
X120356517Y-116215608D01*
X120356517Y-116215608D02*
X120261279Y-116263227D01*
X120261279Y-116263227D02*
X120213660Y-116358465D01*
X120213660Y-116358465D02*
X120213660Y-116882275D01*
X120213660Y-116358465D02*
X120166041Y-116263227D01*
X120166041Y-116263227D02*
X120070803Y-116215608D01*
X120070803Y-116215608D02*
X119927946Y-116215608D01*
X119927946Y-116215608D02*
X119832707Y-116263227D01*
X119832707Y-116263227D02*
X119785088Y-116358465D01*
X119785088Y-116358465D02*
X119785088Y-116882275D01*
X118880327Y-116882275D02*
X118880327Y-116358465D01*
X118880327Y-116358465D02*
X118927946Y-116263227D01*
X118927946Y-116263227D02*
X119023184Y-116215608D01*
X119023184Y-116215608D02*
X119213660Y-116215608D01*
X119213660Y-116215608D02*
X119308898Y-116263227D01*
X118880327Y-116834656D02*
X118975565Y-116882275D01*
X118975565Y-116882275D02*
X119213660Y-116882275D01*
X119213660Y-116882275D02*
X119308898Y-116834656D01*
X119308898Y-116834656D02*
X119356517Y-116739417D01*
X119356517Y-116739417D02*
X119356517Y-116644179D01*
X119356517Y-116644179D02*
X119308898Y-116548941D01*
X119308898Y-116548941D02*
X119213660Y-116501322D01*
X119213660Y-116501322D02*
X118975565Y-116501322D01*
X118975565Y-116501322D02*
X118880327Y-116453703D01*
X117356517Y-115882275D02*
X117356517Y-116596560D01*
X117356517Y-116596560D02*
X117404136Y-116739417D01*
X117404136Y-116739417D02*
X117499374Y-116834656D01*
X117499374Y-116834656D02*
X117642231Y-116882275D01*
X117642231Y-116882275D02*
X117737469Y-116882275D01*
X116451755Y-116882275D02*
X116451755Y-116358465D01*
X116451755Y-116358465D02*
X116499374Y-116263227D01*
X116499374Y-116263227D02*
X116594612Y-116215608D01*
X116594612Y-116215608D02*
X116785088Y-116215608D01*
X116785088Y-116215608D02*
X116880326Y-116263227D01*
X116451755Y-116834656D02*
X116546993Y-116882275D01*
X116546993Y-116882275D02*
X116785088Y-116882275D01*
X116785088Y-116882275D02*
X116880326Y-116834656D01*
X116880326Y-116834656D02*
X116927945Y-116739417D01*
X116927945Y-116739417D02*
X116927945Y-116644179D01*
X116927945Y-116644179D02*
X116880326Y-116548941D01*
X116880326Y-116548941D02*
X116785088Y-116501322D01*
X116785088Y-116501322D02*
X116546993Y-116501322D01*
X116546993Y-116501322D02*
X116451755Y-116453703D01*
X115546993Y-116834656D02*
X115642231Y-116882275D01*
X115642231Y-116882275D02*
X115832707Y-116882275D01*
X115832707Y-116882275D02*
X115927945Y-116834656D01*
X115927945Y-116834656D02*
X115975564Y-116787036D01*
X115975564Y-116787036D02*
X116023183Y-116691798D01*
X116023183Y-116691798D02*
X116023183Y-116406084D01*
X116023183Y-116406084D02*
X115975564Y-116310846D01*
X115975564Y-116310846D02*
X115927945Y-116263227D01*
X115927945Y-116263227D02*
X115832707Y-116215608D01*
X115832707Y-116215608D02*
X115642231Y-116215608D01*
X115642231Y-116215608D02*
X115546993Y-116263227D01*
X114975564Y-116882275D02*
X115070802Y-116834656D01*
X115070802Y-116834656D02*
X115118421Y-116787036D01*
X115118421Y-116787036D02*
X115166040Y-116691798D01*
X115166040Y-116691798D02*
X115166040Y-116406084D01*
X115166040Y-116406084D02*
X115118421Y-116310846D01*
X115118421Y-116310846D02*
X115070802Y-116263227D01*
X115070802Y-116263227D02*
X114975564Y-116215608D01*
X114975564Y-116215608D02*
X114832707Y-116215608D01*
X114832707Y-116215608D02*
X114737469Y-116263227D01*
X114737469Y-116263227D02*
X114689850Y-116310846D01*
X114689850Y-116310846D02*
X114642231Y-116406084D01*
X114642231Y-116406084D02*
X114642231Y-116691798D01*
X114642231Y-116691798D02*
X114689850Y-116787036D01*
X114689850Y-116787036D02*
X114737469Y-116834656D01*
X114737469Y-116834656D02*
X114832707Y-116882275D01*
X114832707Y-116882275D02*
X114975564Y-116882275D01*
X114213659Y-116882275D02*
X114213659Y-115882275D01*
X114213659Y-116263227D02*
X114118421Y-116215608D01*
X114118421Y-116215608D02*
X113927945Y-116215608D01*
X113927945Y-116215608D02*
X113832707Y-116263227D01*
X113832707Y-116263227D02*
X113785088Y-116310846D01*
X113785088Y-116310846D02*
X113737469Y-116406084D01*
X113737469Y-116406084D02*
X113737469Y-116691798D01*
X113737469Y-116691798D02*
X113785088Y-116787036D01*
X113785088Y-116787036D02*
X113832707Y-116834656D01*
X113832707Y-116834656D02*
X113927945Y-116882275D01*
X113927945Y-116882275D02*
X114118421Y-116882275D01*
X114118421Y-116882275D02*
X114213659Y-116834656D01*
X113356516Y-116834656D02*
X113261278Y-116882275D01*
X113261278Y-116882275D02*
X113070802Y-116882275D01*
X113070802Y-116882275D02*
X112975564Y-116834656D01*
X112975564Y-116834656D02*
X112927945Y-116739417D01*
X112927945Y-116739417D02*
X112927945Y-116691798D01*
X112927945Y-116691798D02*
X112975564Y-116596560D01*
X112975564Y-116596560D02*
X113070802Y-116548941D01*
X113070802Y-116548941D02*
X113213659Y-116548941D01*
X113213659Y-116548941D02*
X113308897Y-116501322D01*
X113308897Y-116501322D02*
X113356516Y-116406084D01*
X113356516Y-116406084D02*
X113356516Y-116358465D01*
X113356516Y-116358465D02*
X113308897Y-116263227D01*
X113308897Y-116263227D02*
X113213659Y-116215608D01*
X113213659Y-116215608D02*
X113070802Y-116215608D01*
X113070802Y-116215608D02*
X112975564Y-116263227D01*
X122594612Y-117492219D02*
X122594612Y-118206504D01*
X122594612Y-118206504D02*
X122642231Y-118349361D01*
X122642231Y-118349361D02*
X122737469Y-118444600D01*
X122737469Y-118444600D02*
X122880326Y-118492219D01*
X122880326Y-118492219D02*
X122975564Y-118492219D01*
X121689850Y-117825552D02*
X121689850Y-118492219D01*
X122118421Y-117825552D02*
X122118421Y-118349361D01*
X122118421Y-118349361D02*
X122070802Y-118444600D01*
X122070802Y-118444600D02*
X121975564Y-118492219D01*
X121975564Y-118492219D02*
X121832707Y-118492219D01*
X121832707Y-118492219D02*
X121737469Y-118444600D01*
X121737469Y-118444600D02*
X121689850Y-118396980D01*
X121213659Y-117825552D02*
X121213659Y-118492219D01*
X121213659Y-117920790D02*
X121166040Y-117873171D01*
X121166040Y-117873171D02*
X121070802Y-117825552D01*
X121070802Y-117825552D02*
X120927945Y-117825552D01*
X120927945Y-117825552D02*
X120832707Y-117873171D01*
X120832707Y-117873171D02*
X120785088Y-117968409D01*
X120785088Y-117968409D02*
X120785088Y-118492219D01*
X119927945Y-118444600D02*
X120023183Y-118492219D01*
X120023183Y-118492219D02*
X120213659Y-118492219D01*
X120213659Y-118492219D02*
X120308897Y-118444600D01*
X120308897Y-118444600D02*
X120356516Y-118349361D01*
X120356516Y-118349361D02*
X120356516Y-117968409D01*
X120356516Y-117968409D02*
X120308897Y-117873171D01*
X120308897Y-117873171D02*
X120213659Y-117825552D01*
X120213659Y-117825552D02*
X120023183Y-117825552D01*
X120023183Y-117825552D02*
X119927945Y-117873171D01*
X119927945Y-117873171D02*
X119880326Y-117968409D01*
X119880326Y-117968409D02*
X119880326Y-118063647D01*
X119880326Y-118063647D02*
X120356516Y-118158885D01*
X118737468Y-117587457D02*
X118689849Y-117539838D01*
X118689849Y-117539838D02*
X118594611Y-117492219D01*
X118594611Y-117492219D02*
X118356516Y-117492219D01*
X118356516Y-117492219D02*
X118261278Y-117539838D01*
X118261278Y-117539838D02*
X118213659Y-117587457D01*
X118213659Y-117587457D02*
X118166040Y-117682695D01*
X118166040Y-117682695D02*
X118166040Y-117777933D01*
X118166040Y-117777933D02*
X118213659Y-117920790D01*
X118213659Y-117920790D02*
X118785087Y-118492219D01*
X118785087Y-118492219D02*
X118166040Y-118492219D01*
X117546992Y-117492219D02*
X117451754Y-117492219D01*
X117451754Y-117492219D02*
X117356516Y-117539838D01*
X117356516Y-117539838D02*
X117308897Y-117587457D01*
X117308897Y-117587457D02*
X117261278Y-117682695D01*
X117261278Y-117682695D02*
X117213659Y-117873171D01*
X117213659Y-117873171D02*
X117213659Y-118111266D01*
X117213659Y-118111266D02*
X117261278Y-118301742D01*
X117261278Y-118301742D02*
X117308897Y-118396980D01*
X117308897Y-118396980D02*
X117356516Y-118444600D01*
X117356516Y-118444600D02*
X117451754Y-118492219D01*
X117451754Y-118492219D02*
X117546992Y-118492219D01*
X117546992Y-118492219D02*
X117642230Y-118444600D01*
X117642230Y-118444600D02*
X117689849Y-118396980D01*
X117689849Y-118396980D02*
X117737468Y-118301742D01*
X117737468Y-118301742D02*
X117785087Y-118111266D01*
X117785087Y-118111266D02*
X117785087Y-117873171D01*
X117785087Y-117873171D02*
X117737468Y-117682695D01*
X117737468Y-117682695D02*
X117689849Y-117587457D01*
X117689849Y-117587457D02*
X117642230Y-117539838D01*
X117642230Y-117539838D02*
X117546992Y-117492219D01*
X116832706Y-117587457D02*
X116785087Y-117539838D01*
X116785087Y-117539838D02*
X116689849Y-117492219D01*
X116689849Y-117492219D02*
X116451754Y-117492219D01*
X116451754Y-117492219D02*
X116356516Y-117539838D01*
X116356516Y-117539838D02*
X116308897Y-117587457D01*
X116308897Y-117587457D02*
X116261278Y-117682695D01*
X116261278Y-117682695D02*
X116261278Y-117777933D01*
X116261278Y-117777933D02*
X116308897Y-117920790D01*
X116308897Y-117920790D02*
X116880325Y-118492219D01*
X116880325Y-118492219D02*
X116261278Y-118492219D01*
X115404135Y-117825552D02*
X115404135Y-118492219D01*
X115642230Y-117444600D02*
X115880325Y-118158885D01*
X115880325Y-118158885D02*
X115261278Y-118158885D01*
X122051646Y-81972683D02*
X122051646Y-80972683D01*
X122051646Y-80972683D02*
X121813551Y-80972683D01*
X121813551Y-80972683D02*
X121670694Y-81020302D01*
X121670694Y-81020302D02*
X121575456Y-81115540D01*
X121575456Y-81115540D02*
X121527837Y-81210778D01*
X121527837Y-81210778D02*
X121480218Y-81401254D01*
X121480218Y-81401254D02*
X121480218Y-81544111D01*
X121480218Y-81544111D02*
X121527837Y-81734587D01*
X121527837Y-81734587D02*
X121575456Y-81829825D01*
X121575456Y-81829825D02*
X121670694Y-81925064D01*
X121670694Y-81925064D02*
X121813551Y-81972683D01*
X121813551Y-81972683D02*
X122051646Y-81972683D01*
X120670694Y-81925064D02*
X120765932Y-81972683D01*
X120765932Y-81972683D02*
X120956408Y-81972683D01*
X120956408Y-81972683D02*
X121051646Y-81925064D01*
X121051646Y-81925064D02*
X121099265Y-81829825D01*
X121099265Y-81829825D02*
X121099265Y-81448873D01*
X121099265Y-81448873D02*
X121051646Y-81353635D01*
X121051646Y-81353635D02*
X120956408Y-81306016D01*
X120956408Y-81306016D02*
X120765932Y-81306016D01*
X120765932Y-81306016D02*
X120670694Y-81353635D01*
X120670694Y-81353635D02*
X120623075Y-81448873D01*
X120623075Y-81448873D02*
X120623075Y-81544111D01*
X120623075Y-81544111D02*
X121099265Y-81639349D01*
X120194503Y-81972683D02*
X120194503Y-80972683D01*
X120099265Y-81591730D02*
X119813551Y-81972683D01*
X119813551Y-81306016D02*
X120194503Y-81686968D01*
X118956408Y-81306016D02*
X118956408Y-81972683D01*
X119384979Y-81306016D02*
X119384979Y-81829825D01*
X119384979Y-81829825D02*
X119337360Y-81925064D01*
X119337360Y-81925064D02*
X119242122Y-81972683D01*
X119242122Y-81972683D02*
X119099265Y-81972683D01*
X119099265Y-81972683D02*
X119004027Y-81925064D01*
X119004027Y-81925064D02*
X118956408Y-81877444D01*
X117575455Y-81972683D02*
X117670693Y-81925064D01*
X117670693Y-81925064D02*
X117718312Y-81829825D01*
X117718312Y-81829825D02*
X117718312Y-80972683D01*
X116765931Y-81972683D02*
X116765931Y-81448873D01*
X116765931Y-81448873D02*
X116813550Y-81353635D01*
X116813550Y-81353635D02*
X116908788Y-81306016D01*
X116908788Y-81306016D02*
X117099264Y-81306016D01*
X117099264Y-81306016D02*
X117194502Y-81353635D01*
X116765931Y-81925064D02*
X116861169Y-81972683D01*
X116861169Y-81972683D02*
X117099264Y-81972683D01*
X117099264Y-81972683D02*
X117194502Y-81925064D01*
X117194502Y-81925064D02*
X117242121Y-81829825D01*
X117242121Y-81829825D02*
X117242121Y-81734587D01*
X117242121Y-81734587D02*
X117194502Y-81639349D01*
X117194502Y-81639349D02*
X117099264Y-81591730D01*
X117099264Y-81591730D02*
X116861169Y-81591730D01*
X116861169Y-81591730D02*
X116765931Y-81544111D01*
X116289740Y-81972683D02*
X116289740Y-80972683D01*
X116289740Y-81353635D02*
X116194502Y-81306016D01*
X116194502Y-81306016D02*
X116004026Y-81306016D01*
X116004026Y-81306016D02*
X115908788Y-81353635D01*
X115908788Y-81353635D02*
X115861169Y-81401254D01*
X115861169Y-81401254D02*
X115813550Y-81496492D01*
X115813550Y-81496492D02*
X115813550Y-81782206D01*
X115813550Y-81782206D02*
X115861169Y-81877444D01*
X115861169Y-81877444D02*
X115908788Y-81925064D01*
X115908788Y-81925064D02*
X116004026Y-81972683D01*
X116004026Y-81972683D02*
X116194502Y-81972683D01*
X116194502Y-81972683D02*
X116289740Y-81925064D01*
X121527837Y-83582627D02*
X122099265Y-83582627D01*
X121813551Y-83582627D02*
X121813551Y-82582627D01*
X121813551Y-82582627D02*
X121908789Y-82725484D01*
X121908789Y-82725484D02*
X122004027Y-82820722D01*
X122004027Y-82820722D02*
X122099265Y-82868341D01*
X121146884Y-82677865D02*
X121099265Y-82630246D01*
X121099265Y-82630246D02*
X121004027Y-82582627D01*
X121004027Y-82582627D02*
X120765932Y-82582627D01*
X120765932Y-82582627D02*
X120670694Y-82630246D01*
X120670694Y-82630246D02*
X120623075Y-82677865D01*
X120623075Y-82677865D02*
X120575456Y-82773103D01*
X120575456Y-82773103D02*
X120575456Y-82868341D01*
X120575456Y-82868341D02*
X120623075Y-83011198D01*
X120623075Y-83011198D02*
X121194503Y-83582627D01*
X121194503Y-83582627D02*
X120575456Y-83582627D01*
X120004027Y-83011198D02*
X120099265Y-82963579D01*
X120099265Y-82963579D02*
X120146884Y-82915960D01*
X120146884Y-82915960D02*
X120194503Y-82820722D01*
X120194503Y-82820722D02*
X120194503Y-82773103D01*
X120194503Y-82773103D02*
X120146884Y-82677865D01*
X120146884Y-82677865D02*
X120099265Y-82630246D01*
X120099265Y-82630246D02*
X120004027Y-82582627D01*
X120004027Y-82582627D02*
X119813551Y-82582627D01*
X119813551Y-82582627D02*
X119718313Y-82630246D01*
X119718313Y-82630246D02*
X119670694Y-82677865D01*
X119670694Y-82677865D02*
X119623075Y-82773103D01*
X119623075Y-82773103D02*
X119623075Y-82820722D01*
X119623075Y-82820722D02*
X119670694Y-82915960D01*
X119670694Y-82915960D02*
X119718313Y-82963579D01*
X119718313Y-82963579D02*
X119813551Y-83011198D01*
X119813551Y-83011198D02*
X120004027Y-83011198D01*
X120004027Y-83011198D02*
X120099265Y-83058817D01*
X120099265Y-83058817D02*
X120146884Y-83106436D01*
X120146884Y-83106436D02*
X120194503Y-83201674D01*
X120194503Y-83201674D02*
X120194503Y-83392150D01*
X120194503Y-83392150D02*
X120146884Y-83487388D01*
X120146884Y-83487388D02*
X120099265Y-83535008D01*
X120099265Y-83535008D02*
X120004027Y-83582627D01*
X120004027Y-83582627D02*
X119813551Y-83582627D01*
X119813551Y-83582627D02*
X119718313Y-83535008D01*
X119718313Y-83535008D02*
X119670694Y-83487388D01*
X119670694Y-83487388D02*
X119623075Y-83392150D01*
X119623075Y-83392150D02*
X119623075Y-83201674D01*
X119623075Y-83201674D02*
X119670694Y-83106436D01*
X119670694Y-83106436D02*
X119718313Y-83058817D01*
X119718313Y-83058817D02*
X119813551Y-83011198D01*
X117861170Y-83487388D02*
X117908789Y-83535008D01*
X117908789Y-83535008D02*
X118051646Y-83582627D01*
X118051646Y-83582627D02*
X118146884Y-83582627D01*
X118146884Y-83582627D02*
X118289741Y-83535008D01*
X118289741Y-83535008D02*
X118384979Y-83439769D01*
X118384979Y-83439769D02*
X118432598Y-83344531D01*
X118432598Y-83344531D02*
X118480217Y-83154055D01*
X118480217Y-83154055D02*
X118480217Y-83011198D01*
X118480217Y-83011198D02*
X118432598Y-82820722D01*
X118432598Y-82820722D02*
X118384979Y-82725484D01*
X118384979Y-82725484D02*
X118289741Y-82630246D01*
X118289741Y-82630246D02*
X118146884Y-82582627D01*
X118146884Y-82582627D02*
X118051646Y-82582627D01*
X118051646Y-82582627D02*
X117908789Y-82630246D01*
X117908789Y-82630246D02*
X117861170Y-82677865D01*
X117432598Y-83582627D02*
X117432598Y-82582627D01*
X117004027Y-83582627D02*
X117004027Y-83058817D01*
X117004027Y-83058817D02*
X117051646Y-82963579D01*
X117051646Y-82963579D02*
X117146884Y-82915960D01*
X117146884Y-82915960D02*
X117289741Y-82915960D01*
X117289741Y-82915960D02*
X117384979Y-82963579D01*
X117384979Y-82963579D02*
X117432598Y-83011198D01*
X115813550Y-83535008D02*
X115670693Y-83582627D01*
X115670693Y-83582627D02*
X115432598Y-83582627D01*
X115432598Y-83582627D02*
X115337360Y-83535008D01*
X115337360Y-83535008D02*
X115289741Y-83487388D01*
X115289741Y-83487388D02*
X115242122Y-83392150D01*
X115242122Y-83392150D02*
X115242122Y-83296912D01*
X115242122Y-83296912D02*
X115289741Y-83201674D01*
X115289741Y-83201674D02*
X115337360Y-83154055D01*
X115337360Y-83154055D02*
X115432598Y-83106436D01*
X115432598Y-83106436D02*
X115623074Y-83058817D01*
X115623074Y-83058817D02*
X115718312Y-83011198D01*
X115718312Y-83011198D02*
X115765931Y-82963579D01*
X115765931Y-82963579D02*
X115813550Y-82868341D01*
X115813550Y-82868341D02*
X115813550Y-82773103D01*
X115813550Y-82773103D02*
X115765931Y-82677865D01*
X115765931Y-82677865D02*
X115718312Y-82630246D01*
X115718312Y-82630246D02*
X115623074Y-82582627D01*
X115623074Y-82582627D02*
X115384979Y-82582627D01*
X115384979Y-82582627D02*
X115242122Y-82630246D01*
X114956407Y-82915960D02*
X114575455Y-82915960D01*
X114813550Y-82582627D02*
X114813550Y-83439769D01*
X114813550Y-83439769D02*
X114765931Y-83535008D01*
X114765931Y-83535008D02*
X114670693Y-83582627D01*
X114670693Y-83582627D02*
X114575455Y-83582627D01*
X114242121Y-83582627D02*
X114242121Y-82915960D01*
X114242121Y-82582627D02*
X114289740Y-82630246D01*
X114289740Y-82630246D02*
X114242121Y-82677865D01*
X114242121Y-82677865D02*
X114194502Y-82630246D01*
X114194502Y-82630246D02*
X114242121Y-82582627D01*
X114242121Y-82582627D02*
X114242121Y-82677865D01*
X113765931Y-83582627D02*
X113765931Y-82915960D01*
X113765931Y-83011198D02*
X113718312Y-82963579D01*
X113718312Y-82963579D02*
X113623074Y-82915960D01*
X113623074Y-82915960D02*
X113480217Y-82915960D01*
X113480217Y-82915960D02*
X113384979Y-82963579D01*
X113384979Y-82963579D02*
X113337360Y-83058817D01*
X113337360Y-83058817D02*
X113337360Y-83582627D01*
X113337360Y-83058817D02*
X113289741Y-82963579D01*
X113289741Y-82963579D02*
X113194503Y-82915960D01*
X113194503Y-82915960D02*
X113051646Y-82915960D01*
X113051646Y-82915960D02*
X112956407Y-82963579D01*
X112956407Y-82963579D02*
X112908788Y-83058817D01*
X112908788Y-83058817D02*
X112908788Y-83582627D01*
X111718313Y-82535008D02*
X112575455Y-83820722D01*
X110813551Y-83582627D02*
X111146884Y-83106436D01*
X111384979Y-83582627D02*
X111384979Y-82582627D01*
X111384979Y-82582627D02*
X111004027Y-82582627D01*
X111004027Y-82582627D02*
X110908789Y-82630246D01*
X110908789Y-82630246D02*
X110861170Y-82677865D01*
X110861170Y-82677865D02*
X110813551Y-82773103D01*
X110813551Y-82773103D02*
X110813551Y-82915960D01*
X110813551Y-82915960D02*
X110861170Y-83011198D01*
X110861170Y-83011198D02*
X110908789Y-83058817D01*
X110908789Y-83058817D02*
X111004027Y-83106436D01*
X111004027Y-83106436D02*
X111384979Y-83106436D01*
X110004027Y-83535008D02*
X110099265Y-83582627D01*
X110099265Y-83582627D02*
X110289741Y-83582627D01*
X110289741Y-83582627D02*
X110384979Y-83535008D01*
X110384979Y-83535008D02*
X110432598Y-83439769D01*
X110432598Y-83439769D02*
X110432598Y-83058817D01*
X110432598Y-83058817D02*
X110384979Y-82963579D01*
X110384979Y-82963579D02*
X110289741Y-82915960D01*
X110289741Y-82915960D02*
X110099265Y-82915960D01*
X110099265Y-82915960D02*
X110004027Y-82963579D01*
X110004027Y-82963579D02*
X109956408Y-83058817D01*
X109956408Y-83058817D02*
X109956408Y-83154055D01*
X109956408Y-83154055D02*
X110432598Y-83249293D01*
X109099265Y-83535008D02*
X109194503Y-83582627D01*
X109194503Y-83582627D02*
X109384979Y-83582627D01*
X109384979Y-83582627D02*
X109480217Y-83535008D01*
X109480217Y-83535008D02*
X109527836Y-83487388D01*
X109527836Y-83487388D02*
X109575455Y-83392150D01*
X109575455Y-83392150D02*
X109575455Y-83106436D01*
X109575455Y-83106436D02*
X109527836Y-83011198D01*
X109527836Y-83011198D02*
X109480217Y-82963579D01*
X109480217Y-82963579D02*
X109384979Y-82915960D01*
X109384979Y-82915960D02*
X109194503Y-82915960D01*
X109194503Y-82915960D02*
X109099265Y-82963579D01*
X108527836Y-83582627D02*
X108623074Y-83535008D01*
X108623074Y-83535008D02*
X108670693Y-83487388D01*
X108670693Y-83487388D02*
X108718312Y-83392150D01*
X108718312Y-83392150D02*
X108718312Y-83106436D01*
X108718312Y-83106436D02*
X108670693Y-83011198D01*
X108670693Y-83011198D02*
X108623074Y-82963579D01*
X108623074Y-82963579D02*
X108527836Y-82915960D01*
X108527836Y-82915960D02*
X108384979Y-82915960D01*
X108384979Y-82915960D02*
X108289741Y-82963579D01*
X108289741Y-82963579D02*
X108242122Y-83011198D01*
X108242122Y-83011198D02*
X108194503Y-83106436D01*
X108194503Y-83106436D02*
X108194503Y-83392150D01*
X108194503Y-83392150D02*
X108242122Y-83487388D01*
X108242122Y-83487388D02*
X108289741Y-83535008D01*
X108289741Y-83535008D02*
X108384979Y-83582627D01*
X108384979Y-83582627D02*
X108527836Y-83582627D01*
X107765931Y-83582627D02*
X107765931Y-82915960D01*
X107765931Y-83106436D02*
X107718312Y-83011198D01*
X107718312Y-83011198D02*
X107670693Y-82963579D01*
X107670693Y-82963579D02*
X107575455Y-82915960D01*
X107575455Y-82915960D02*
X107480217Y-82915960D01*
X106718312Y-83582627D02*
X106718312Y-82582627D01*
X106718312Y-83535008D02*
X106813550Y-83582627D01*
X106813550Y-83582627D02*
X107004026Y-83582627D01*
X107004026Y-83582627D02*
X107099264Y-83535008D01*
X107099264Y-83535008D02*
X107146883Y-83487388D01*
X107146883Y-83487388D02*
X107194502Y-83392150D01*
X107194502Y-83392150D02*
X107194502Y-83106436D01*
X107194502Y-83106436D02*
X107146883Y-83011198D01*
X107146883Y-83011198D02*
X107099264Y-82963579D01*
X107099264Y-82963579D02*
X107004026Y-82915960D01*
X107004026Y-82915960D02*
X106813550Y-82915960D01*
X106813550Y-82915960D02*
X106718312Y-82963579D01*
X122051646Y-85192571D02*
X122051646Y-84192571D01*
X122051646Y-84668761D02*
X121480218Y-84668761D01*
X121480218Y-85192571D02*
X121480218Y-84192571D01*
X120623075Y-85144952D02*
X120718313Y-85192571D01*
X120718313Y-85192571D02*
X120908789Y-85192571D01*
X120908789Y-85192571D02*
X121004027Y-85144952D01*
X121004027Y-85144952D02*
X121051646Y-85049713D01*
X121051646Y-85049713D02*
X121051646Y-84668761D01*
X121051646Y-84668761D02*
X121004027Y-84573523D01*
X121004027Y-84573523D02*
X120908789Y-84525904D01*
X120908789Y-84525904D02*
X120718313Y-84525904D01*
X120718313Y-84525904D02*
X120623075Y-84573523D01*
X120623075Y-84573523D02*
X120575456Y-84668761D01*
X120575456Y-84668761D02*
X120575456Y-84763999D01*
X120575456Y-84763999D02*
X121051646Y-84859237D01*
X119718313Y-85192571D02*
X119718313Y-84668761D01*
X119718313Y-84668761D02*
X119765932Y-84573523D01*
X119765932Y-84573523D02*
X119861170Y-84525904D01*
X119861170Y-84525904D02*
X120051646Y-84525904D01*
X120051646Y-84525904D02*
X120146884Y-84573523D01*
X119718313Y-85144952D02*
X119813551Y-85192571D01*
X119813551Y-85192571D02*
X120051646Y-85192571D01*
X120051646Y-85192571D02*
X120146884Y-85144952D01*
X120146884Y-85144952D02*
X120194503Y-85049713D01*
X120194503Y-85049713D02*
X120194503Y-84954475D01*
X120194503Y-84954475D02*
X120146884Y-84859237D01*
X120146884Y-84859237D02*
X120051646Y-84811618D01*
X120051646Y-84811618D02*
X119813551Y-84811618D01*
X119813551Y-84811618D02*
X119718313Y-84763999D01*
X118813551Y-85192571D02*
X118813551Y-84192571D01*
X118813551Y-85144952D02*
X118908789Y-85192571D01*
X118908789Y-85192571D02*
X119099265Y-85192571D01*
X119099265Y-85192571D02*
X119194503Y-85144952D01*
X119194503Y-85144952D02*
X119242122Y-85097332D01*
X119242122Y-85097332D02*
X119289741Y-85002094D01*
X119289741Y-85002094D02*
X119289741Y-84716380D01*
X119289741Y-84716380D02*
X119242122Y-84621142D01*
X119242122Y-84621142D02*
X119194503Y-84573523D01*
X119194503Y-84573523D02*
X119099265Y-84525904D01*
X119099265Y-84525904D02*
X118908789Y-84525904D01*
X118908789Y-84525904D02*
X118813551Y-84573523D01*
X118384979Y-85144952D02*
X118289741Y-85192571D01*
X118289741Y-85192571D02*
X118099265Y-85192571D01*
X118099265Y-85192571D02*
X118004027Y-85144952D01*
X118004027Y-85144952D02*
X117956408Y-85049713D01*
X117956408Y-85049713D02*
X117956408Y-85002094D01*
X117956408Y-85002094D02*
X118004027Y-84906856D01*
X118004027Y-84906856D02*
X118099265Y-84859237D01*
X118099265Y-84859237D02*
X118242122Y-84859237D01*
X118242122Y-84859237D02*
X118337360Y-84811618D01*
X118337360Y-84811618D02*
X118384979Y-84716380D01*
X118384979Y-84716380D02*
X118384979Y-84668761D01*
X118384979Y-84668761D02*
X118337360Y-84573523D01*
X118337360Y-84573523D02*
X118242122Y-84525904D01*
X118242122Y-84525904D02*
X118099265Y-84525904D01*
X118099265Y-84525904D02*
X118004027Y-84573523D01*
X117670693Y-84525904D02*
X117289741Y-84525904D01*
X117527836Y-84192571D02*
X117527836Y-85049713D01*
X117527836Y-85049713D02*
X117480217Y-85144952D01*
X117480217Y-85144952D02*
X117384979Y-85192571D01*
X117384979Y-85192571D02*
X117289741Y-85192571D01*
X116527836Y-85192571D02*
X116527836Y-84668761D01*
X116527836Y-84668761D02*
X116575455Y-84573523D01*
X116575455Y-84573523D02*
X116670693Y-84525904D01*
X116670693Y-84525904D02*
X116861169Y-84525904D01*
X116861169Y-84525904D02*
X116956407Y-84573523D01*
X116527836Y-85144952D02*
X116623074Y-85192571D01*
X116623074Y-85192571D02*
X116861169Y-85192571D01*
X116861169Y-85192571D02*
X116956407Y-85144952D01*
X116956407Y-85144952D02*
X117004026Y-85049713D01*
X117004026Y-85049713D02*
X117004026Y-84954475D01*
X117004026Y-84954475D02*
X116956407Y-84859237D01*
X116956407Y-84859237D02*
X116861169Y-84811618D01*
X116861169Y-84811618D02*
X116623074Y-84811618D01*
X116623074Y-84811618D02*
X116527836Y-84763999D01*
X115623074Y-84525904D02*
X115623074Y-85335428D01*
X115623074Y-85335428D02*
X115670693Y-85430666D01*
X115670693Y-85430666D02*
X115718312Y-85478285D01*
X115718312Y-85478285D02*
X115813550Y-85525904D01*
X115813550Y-85525904D02*
X115956407Y-85525904D01*
X115956407Y-85525904D02*
X116051645Y-85478285D01*
X115623074Y-85144952D02*
X115718312Y-85192571D01*
X115718312Y-85192571D02*
X115908788Y-85192571D01*
X115908788Y-85192571D02*
X116004026Y-85144952D01*
X116004026Y-85144952D02*
X116051645Y-85097332D01*
X116051645Y-85097332D02*
X116099264Y-85002094D01*
X116099264Y-85002094D02*
X116099264Y-84716380D01*
X116099264Y-84716380D02*
X116051645Y-84621142D01*
X116051645Y-84621142D02*
X116004026Y-84573523D01*
X116004026Y-84573523D02*
X115908788Y-84525904D01*
X115908788Y-84525904D02*
X115718312Y-84525904D01*
X115718312Y-84525904D02*
X115623074Y-84573523D01*
X114765931Y-85144952D02*
X114861169Y-85192571D01*
X114861169Y-85192571D02*
X115051645Y-85192571D01*
X115051645Y-85192571D02*
X115146883Y-85144952D01*
X115146883Y-85144952D02*
X115194502Y-85049713D01*
X115194502Y-85049713D02*
X115194502Y-84668761D01*
X115194502Y-84668761D02*
X115146883Y-84573523D01*
X115146883Y-84573523D02*
X115051645Y-84525904D01*
X115051645Y-84525904D02*
X114861169Y-84525904D01*
X114861169Y-84525904D02*
X114765931Y-84573523D01*
X114765931Y-84573523D02*
X114718312Y-84668761D01*
X114718312Y-84668761D02*
X114718312Y-84763999D01*
X114718312Y-84763999D02*
X115194502Y-84859237D01*
D11*
X113617647Y-89034679D02*
X113617647Y-89682298D01*
X113617647Y-89682298D02*
X113579552Y-89758488D01*
X113579552Y-89758488D02*
X113541457Y-89796584D01*
X113541457Y-89796584D02*
X113465266Y-89834679D01*
X113465266Y-89834679D02*
X113312885Y-89834679D01*
X113312885Y-89834679D02*
X113236695Y-89796584D01*
X113236695Y-89796584D02*
X113198600Y-89758488D01*
X113198600Y-89758488D02*
X113160504Y-89682298D01*
X113160504Y-89682298D02*
X113160504Y-89034679D01*
X112398600Y-89034679D02*
X112779552Y-89034679D01*
X112779552Y-89034679D02*
X112817648Y-89415631D01*
X112817648Y-89415631D02*
X112779552Y-89377536D01*
X112779552Y-89377536D02*
X112703362Y-89339441D01*
X112703362Y-89339441D02*
X112512886Y-89339441D01*
X112512886Y-89339441D02*
X112436695Y-89377536D01*
X112436695Y-89377536D02*
X112398600Y-89415631D01*
X112398600Y-89415631D02*
X112360505Y-89491822D01*
X112360505Y-89491822D02*
X112360505Y-89682298D01*
X112360505Y-89682298D02*
X112398600Y-89758488D01*
X112398600Y-89758488D02*
X112436695Y-89796584D01*
X112436695Y-89796584D02*
X112512886Y-89834679D01*
X112512886Y-89834679D02*
X112703362Y-89834679D01*
X112703362Y-89834679D02*
X112779552Y-89796584D01*
X112779552Y-89796584D02*
X112817648Y-89758488D01*
X113991535Y-100862951D02*
X113991535Y-101510570D01*
X113991535Y-101510570D02*
X113953440Y-101586760D01*
X113953440Y-101586760D02*
X113915345Y-101624856D01*
X113915345Y-101624856D02*
X113839154Y-101662951D01*
X113839154Y-101662951D02*
X113686773Y-101662951D01*
X113686773Y-101662951D02*
X113610583Y-101624856D01*
X113610583Y-101624856D02*
X113572488Y-101586760D01*
X113572488Y-101586760D02*
X113534392Y-101510570D01*
X113534392Y-101510570D02*
X113534392Y-100862951D01*
X113229631Y-100862951D02*
X112696297Y-100862951D01*
X112696297Y-100862951D02*
X113039155Y-101662951D01*
X116255183Y-89024519D02*
X116255183Y-89672138D01*
X116255183Y-89672138D02*
X116217088Y-89748328D01*
X116217088Y-89748328D02*
X116178993Y-89786424D01*
X116178993Y-89786424D02*
X116102802Y-89824519D01*
X116102802Y-89824519D02*
X115950421Y-89824519D01*
X115950421Y-89824519D02*
X115874231Y-89786424D01*
X115874231Y-89786424D02*
X115836136Y-89748328D01*
X115836136Y-89748328D02*
X115798040Y-89672138D01*
X115798040Y-89672138D02*
X115798040Y-89024519D01*
X115074231Y-89024519D02*
X115226612Y-89024519D01*
X115226612Y-89024519D02*
X115302803Y-89062614D01*
X115302803Y-89062614D02*
X115340898Y-89100709D01*
X115340898Y-89100709D02*
X115417088Y-89214995D01*
X115417088Y-89214995D02*
X115455184Y-89367376D01*
X115455184Y-89367376D02*
X115455184Y-89672138D01*
X115455184Y-89672138D02*
X115417088Y-89748328D01*
X115417088Y-89748328D02*
X115378993Y-89786424D01*
X115378993Y-89786424D02*
X115302803Y-89824519D01*
X115302803Y-89824519D02*
X115150422Y-89824519D01*
X115150422Y-89824519D02*
X115074231Y-89786424D01*
X115074231Y-89786424D02*
X115036136Y-89748328D01*
X115036136Y-89748328D02*
X114998041Y-89672138D01*
X114998041Y-89672138D02*
X114998041Y-89481662D01*
X114998041Y-89481662D02*
X115036136Y-89405471D01*
X115036136Y-89405471D02*
X115074231Y-89367376D01*
X115074231Y-89367376D02*
X115150422Y-89329281D01*
X115150422Y-89329281D02*
X115302803Y-89329281D01*
X115302803Y-89329281D02*
X115378993Y-89367376D01*
X115378993Y-89367376D02*
X115417088Y-89405471D01*
X115417088Y-89405471D02*
X115455184Y-89481662D01*
X116074335Y-100862951D02*
X116074335Y-101510570D01*
X116074335Y-101510570D02*
X116036240Y-101586760D01*
X116036240Y-101586760D02*
X115998145Y-101624856D01*
X115998145Y-101624856D02*
X115921954Y-101662951D01*
X115921954Y-101662951D02*
X115769573Y-101662951D01*
X115769573Y-101662951D02*
X115693383Y-101624856D01*
X115693383Y-101624856D02*
X115655288Y-101586760D01*
X115655288Y-101586760D02*
X115617192Y-101510570D01*
X115617192Y-101510570D02*
X115617192Y-100862951D01*
X115121955Y-101205808D02*
X115198145Y-101167713D01*
X115198145Y-101167713D02*
X115236240Y-101129617D01*
X115236240Y-101129617D02*
X115274336Y-101053427D01*
X115274336Y-101053427D02*
X115274336Y-101015332D01*
X115274336Y-101015332D02*
X115236240Y-100939141D01*
X115236240Y-100939141D02*
X115198145Y-100901046D01*
X115198145Y-100901046D02*
X115121955Y-100862951D01*
X115121955Y-100862951D02*
X114969574Y-100862951D01*
X114969574Y-100862951D02*
X114893383Y-100901046D01*
X114893383Y-100901046D02*
X114855288Y-100939141D01*
X114855288Y-100939141D02*
X114817193Y-101015332D01*
X114817193Y-101015332D02*
X114817193Y-101053427D01*
X114817193Y-101053427D02*
X114855288Y-101129617D01*
X114855288Y-101129617D02*
X114893383Y-101167713D01*
X114893383Y-101167713D02*
X114969574Y-101205808D01*
X114969574Y-101205808D02*
X115121955Y-101205808D01*
X115121955Y-101205808D02*
X115198145Y-101243903D01*
X115198145Y-101243903D02*
X115236240Y-101281998D01*
X115236240Y-101281998D02*
X115274336Y-101358189D01*
X115274336Y-101358189D02*
X115274336Y-101510570D01*
X115274336Y-101510570D02*
X115236240Y-101586760D01*
X115236240Y-101586760D02*
X115198145Y-101624856D01*
X115198145Y-101624856D02*
X115121955Y-101662951D01*
X115121955Y-101662951D02*
X114969574Y-101662951D01*
X114969574Y-101662951D02*
X114893383Y-101624856D01*
X114893383Y-101624856D02*
X114855288Y-101586760D01*
X114855288Y-101586760D02*
X114817193Y-101510570D01*
X114817193Y-101510570D02*
X114817193Y-101358189D01*
X114817193Y-101358189D02*
X114855288Y-101281998D01*
X114855288Y-101281998D02*
X114893383Y-101243903D01*
X114893383Y-101243903D02*
X114969574Y-101205808D01*
D12*
X105948570Y-91393550D02*
X105948570Y-91043550D01*
X105948570Y-97693550D02*
X105948570Y-98043550D01*
X106298570Y-91043550D02*
X105948570Y-91043550D01*
X106298570Y-98043550D02*
X105948570Y-98043550D01*
X112598570Y-91043550D02*
X112948570Y-91043550D01*
X112598570Y-98043550D02*
X112948570Y-98043550D01*
X112948570Y-91393550D02*
X112948570Y-91043550D01*
X112948570Y-97693550D02*
X112948570Y-98043550D01*
X112748570Y-91343550D02*
G75*
G02*
X112548570Y-91343550I-100000J0D01*
G01*
X112548570Y-91343550D02*
G75*
G02*
X112748570Y-91343550I100000J0D01*
G01*
X113472170Y-90743550D02*
G75*
G02*
X113024970Y-90743550I-223600J0D01*
G01*
X113024970Y-90743550D02*
G75*
G02*
X113472170Y-90743550I223600J0D01*
G01*
X105658670Y-103296690D02*
X105658670Y-102946690D01*
X105658670Y-109596690D02*
X105658670Y-109946690D01*
X106008670Y-102946690D02*
X105658670Y-102946690D01*
X106008670Y-109946690D02*
X105658670Y-109946690D01*
X112308670Y-102946690D02*
X112658670Y-102946690D01*
X112308670Y-109946690D02*
X112658670Y-109946690D01*
X112658670Y-103296690D02*
X112658670Y-102946690D01*
X112658670Y-109596690D02*
X112658670Y-109946690D01*
X112458670Y-103246690D02*
G75*
G02*
X112258670Y-103246690I-100000J0D01*
G01*
X112258670Y-103246690D02*
G75*
G02*
X112458670Y-103246690I100000J0D01*
G01*
X113182270Y-102646690D02*
G75*
G02*
X112735070Y-102646690I-223600J0D01*
G01*
X112735070Y-102646690D02*
G75*
G02*
X113182270Y-102646690I223600J0D01*
G01*
X115870850Y-91438830D02*
X115870850Y-91088830D01*
X115870850Y-97738830D02*
X115870850Y-98088830D01*
X116220850Y-91088830D02*
X115870850Y-91088830D01*
X116220850Y-98088830D02*
X115870850Y-98088830D01*
X122520850Y-91088830D02*
X122870850Y-91088830D01*
X122520850Y-98088830D02*
X122870850Y-98088830D01*
X122870850Y-91438830D02*
X122870850Y-91088830D01*
X122870850Y-97738830D02*
X122870850Y-98088830D01*
X122670850Y-91388830D02*
G75*
G02*
X122470850Y-91388830I-100000J0D01*
G01*
X122470850Y-91388830D02*
G75*
G02*
X122670850Y-91388830I100000J0D01*
G01*
X123394450Y-90788830D02*
G75*
G02*
X122947250Y-90788830I-223600J0D01*
G01*
X122947250Y-90788830D02*
G75*
G02*
X123394450Y-90788830I223600J0D01*
G01*
X115931580Y-103275260D02*
X115931580Y-102925260D01*
X115931580Y-109575260D02*
X115931580Y-109925260D01*
X116281580Y-102925260D02*
X115931580Y-102925260D01*
X116281580Y-109925260D02*
X115931580Y-109925260D01*
X122581580Y-102925260D02*
X122931580Y-102925260D01*
X122581580Y-109925260D02*
X122931580Y-109925260D01*
X122931580Y-103275260D02*
X122931580Y-102925260D01*
X122931580Y-109575260D02*
X122931580Y-109925260D01*
X122731580Y-103225260D02*
G75*
G02*
X122531580Y-103225260I-100000J0D01*
G01*
X122531580Y-103225260D02*
G75*
G02*
X122731580Y-103225260I100000J0D01*
G01*
X123455180Y-102625260D02*
G75*
G02*
X123007980Y-102625260I-223600J0D01*
G01*
X123007980Y-102625260D02*
G75*
G02*
X123455180Y-102625260I223600J0D01*
G01*
%LPC*%
D13*
X96650000Y-82485000D03*
D14*
X102380000Y-90030000D03*
X102334060Y-86647020D03*
D13*
X132650000Y-82485000D03*
D15*
X105320000Y-86450000D03*
X123880000Y-84200000D03*
D14*
X104520000Y-117605000D03*
X125370000Y-117605000D03*
D16*
X104300000Y-97808740D03*
X103660000Y-97808740D03*
X105770000Y-110570000D03*
X105130000Y-110570000D03*
X114670000Y-109470000D03*
X114030000Y-109470000D03*
D17*
X113950000Y-98195000D03*
X113950000Y-97555000D03*
D16*
X104995000Y-94575000D03*
X104355000Y-94575000D03*
D18*
X125375000Y-94480000D03*
X125375000Y-95120000D03*
D16*
X114595000Y-111750000D03*
X113955000Y-111750000D03*
D19*
X112998570Y-92043550D03*
X112998570Y-92543550D03*
X112998570Y-93043550D03*
X112998570Y-93543550D03*
X112998570Y-94043550D03*
X112998570Y-94543550D03*
X112998570Y-95043550D03*
X112998570Y-95543550D03*
X112998570Y-96043550D03*
X112998570Y-96543550D03*
X112998570Y-97043550D03*
D20*
X111948570Y-98093550D03*
X111448570Y-98093550D03*
X110948570Y-98093550D03*
D21*
X110448570Y-98093550D03*
D20*
X109948570Y-98093550D03*
X109448570Y-98093550D03*
X108948570Y-98093550D03*
X108448570Y-98093550D03*
X107948570Y-98093550D03*
X107448570Y-98093550D03*
X106948570Y-98093550D03*
D22*
X105898570Y-97043550D03*
X105898570Y-96543550D03*
X105898570Y-96043550D03*
X105898570Y-95543550D03*
X105898570Y-95043550D03*
X105898570Y-94543550D03*
X105898570Y-94043550D03*
X105898570Y-93543550D03*
X105898570Y-93043550D03*
X105898570Y-92543550D03*
X105898570Y-92043550D03*
D21*
X106948570Y-90993550D03*
X107448570Y-90993550D03*
X107948570Y-90993550D03*
X108448570Y-90993550D03*
X108948570Y-90993550D03*
X109448570Y-90993550D03*
X109948570Y-90993550D03*
X110448570Y-90993550D03*
X110948570Y-90993550D03*
X111448570Y-90993550D03*
X111948570Y-90993550D03*
D23*
X109448570Y-94543550D03*
D19*
X112708670Y-103946690D03*
X112708670Y-104446690D03*
X112708670Y-104946690D03*
X112708670Y-105446690D03*
X112708670Y-105946690D03*
X112708670Y-106446690D03*
X112708670Y-106946690D03*
X112708670Y-107446690D03*
X112708670Y-107946690D03*
X112708670Y-108446690D03*
X112708670Y-108946690D03*
D20*
X111658670Y-109996690D03*
X111158670Y-109996690D03*
X110658670Y-109996690D03*
D21*
X110158670Y-109996690D03*
D20*
X109658670Y-109996690D03*
X109158670Y-109996690D03*
X108658670Y-109996690D03*
X108158670Y-109996690D03*
X107658670Y-109996690D03*
X107158670Y-109996690D03*
X106658670Y-109996690D03*
D22*
X105608670Y-108946690D03*
X105608670Y-108446690D03*
X105608670Y-107946690D03*
X105608670Y-107446690D03*
X105608670Y-106946690D03*
X105608670Y-106446690D03*
X105608670Y-105946690D03*
X105608670Y-105446690D03*
X105608670Y-104946690D03*
X105608670Y-104446690D03*
X105608670Y-103946690D03*
D21*
X106658670Y-102896690D03*
X107158670Y-102896690D03*
X107658670Y-102896690D03*
X108158670Y-102896690D03*
X108658670Y-102896690D03*
X109158670Y-102896690D03*
X109658670Y-102896690D03*
X110158670Y-102896690D03*
X110658670Y-102896690D03*
X111158670Y-102896690D03*
X111658670Y-102896690D03*
D23*
X109158670Y-106446690D03*
D24*
X114005000Y-93700000D03*
X114645000Y-93700000D03*
D19*
X122920850Y-92088830D03*
X122920850Y-92588830D03*
X122920850Y-93088830D03*
X122920850Y-93588830D03*
X122920850Y-94088830D03*
X122920850Y-94588830D03*
X122920850Y-95088830D03*
X122920850Y-95588830D03*
X122920850Y-96088830D03*
X122920850Y-96588830D03*
X122920850Y-97088830D03*
D20*
X121870850Y-98138830D03*
X121370850Y-98138830D03*
X120870850Y-98138830D03*
D21*
X120370850Y-98138830D03*
D20*
X119870850Y-98138830D03*
X119370850Y-98138830D03*
X118870850Y-98138830D03*
X118370850Y-98138830D03*
X117870850Y-98138830D03*
X117370850Y-98138830D03*
X116870850Y-98138830D03*
D22*
X115820850Y-97088830D03*
X115820850Y-96588830D03*
X115820850Y-96088830D03*
X115820850Y-95588830D03*
X115820850Y-95088830D03*
X115820850Y-94588830D03*
X115820850Y-94088830D03*
X115820850Y-93588830D03*
X115820850Y-93088830D03*
X115820850Y-92588830D03*
X115820850Y-92088830D03*
D21*
X116870850Y-91038830D03*
X117370850Y-91038830D03*
X117870850Y-91038830D03*
X118370850Y-91038830D03*
X118870850Y-91038830D03*
X119370850Y-91038830D03*
X119870850Y-91038830D03*
X120370850Y-91038830D03*
X120870850Y-91038830D03*
X121370850Y-91038830D03*
X121870850Y-91038830D03*
D23*
X119370850Y-94588830D03*
D16*
X104270000Y-106550000D03*
X103630000Y-106550000D03*
D17*
X114450000Y-107170000D03*
X114450000Y-106530000D03*
D24*
X105120000Y-111380000D03*
X105760000Y-111380000D03*
D16*
X108770000Y-112050000D03*
X108130000Y-112050000D03*
X114673570Y-99443550D03*
X114033570Y-99443550D03*
D24*
X123830000Y-105675000D03*
X124470000Y-105675000D03*
D16*
X118845000Y-99650000D03*
X118205000Y-99650000D03*
X114470000Y-104425000D03*
X113830000Y-104425000D03*
D17*
X114850000Y-98220000D03*
X114850000Y-97580000D03*
D24*
X113830000Y-105650000D03*
X114470000Y-105650000D03*
D18*
X125375000Y-96130000D03*
X125375000Y-96770000D03*
D19*
X122981580Y-103925260D03*
X122981580Y-104425260D03*
X122981580Y-104925260D03*
X122981580Y-105425260D03*
X122981580Y-105925260D03*
X122981580Y-106425260D03*
X122981580Y-106925260D03*
X122981580Y-107425260D03*
X122981580Y-107925260D03*
X122981580Y-108425260D03*
X122981580Y-108925260D03*
D20*
X121931580Y-109975260D03*
X121431580Y-109975260D03*
X120931580Y-109975260D03*
X120431580Y-109975260D03*
X119931580Y-109975260D03*
X119431580Y-109975260D03*
X118931580Y-109975260D03*
X118431580Y-109975260D03*
X117931580Y-109975260D03*
X117431580Y-109975260D03*
X116931580Y-109975260D03*
D22*
X115881580Y-108925260D03*
X115881580Y-108425260D03*
X115881580Y-107925260D03*
X115881580Y-107425260D03*
X115881580Y-106925260D03*
X115881580Y-106425260D03*
X115881580Y-105925260D03*
X115881580Y-105425260D03*
X115881580Y-104925260D03*
X115881580Y-104425260D03*
X115881580Y-103925260D03*
D21*
X116931580Y-102875260D03*
X117431580Y-102875260D03*
X117931580Y-102875260D03*
X118431580Y-102875260D03*
X118931580Y-102875260D03*
X119431580Y-102875260D03*
X119931580Y-102875260D03*
X120431580Y-102875260D03*
X120931580Y-102875260D03*
X121431580Y-102875260D03*
X121931580Y-102875260D03*
D23*
X119431580Y-106425260D03*
D24*
X123830000Y-106800000D03*
X124470000Y-106800000D03*
D18*
X125425000Y-92305000D03*
X125425000Y-92945000D03*
D16*
X117979970Y-111856150D03*
X117339970Y-111856150D03*
X104295000Y-98558740D03*
X103655000Y-98558740D03*
X108108030Y-99832870D03*
X107468030Y-99832870D03*
%LPD*%
M02*
