M48
; DRILL file {KiCad 9.0.5} date 2025-10-24T14:38:56-0700
; FORMAT={-:-/ absolute / metric / decimal}
; #@! TF.CreationDate,2025-10-24T14:38:56-07:00
; #@! TF.GenerationSoftware,Kicad,Pcbnew,9.0.5
; #@! TF.FileFunction,Plated,1,5,Blind
FMAT,2
METRIC
; #@! TA.AperFunction,Plated,Buried,ViaDrill
T1C0.152
%
G90
G05
T1
X104.64Y-91.28
X105.94Y-101.95
X106.71Y-101.69
X107.34Y-101.68
X107.341Y-87.293
X107.4Y-83.35
X107.4Y-85.375
X107.425Y-81.35
X107.99Y-101.65
X108.7Y-101.7
X109.235Y-101.685
X109.85Y-101.675
X110.49Y-101.675
X111.125Y-101.7
X111.375Y-85.35
X111.377Y-84.2
X111.378Y-83.298
X111.4Y-80.133
X111.4Y-82.2
X111.4Y-86.2
X111.4Y-87.261
X111.401Y-81.315
X111.775Y-101.7
X112.105Y-87.245
X112.146Y-83.304
X112.167Y-85.342
X112.2Y-80.133
X112.2Y-82.2
X112.2Y-84.2
X112.2Y-86.2
X112.232Y-81.295
X112.4Y-101.75
X113.0Y-80.1
X113.0Y-82.2
X113.0Y-84.2
X113.005Y-83.329
X113.03Y-81.285
X113.053Y-85.342
X113.509Y-103.974
X113.799Y-87.269
X113.8Y-86.2
X114.625Y-84.225
X114.635Y-85.365
X114.673Y-83.375
X115.0Y-88.325
X115.298Y-87.277
X116.949Y-89.844
X117.399Y-89.844
X117.914Y-89.825
X118.399Y-89.844
X118.9Y-89.8
X119.383Y-83.299
X119.4Y-80.1
X119.4Y-82.2
X119.4Y-84.2
X119.4Y-86.2
X119.4Y-87.288
X119.405Y-85.342
X119.41Y-81.316
X119.45Y-89.8
X119.899Y-89.844
X120.159Y-83.293
X120.175Y-85.342
X120.2Y-80.1
X120.2Y-81.331
X120.2Y-82.2
X120.2Y-84.2
X120.2Y-86.203
X120.204Y-87.278
X120.399Y-89.844
X120.899Y-89.844
X121.399Y-89.844
X121.914Y-89.844
X123.823Y-92.545
X123.836Y-92.045
X123.84Y-93.045
X123.85Y-94.045
X123.86Y-93.545
M30
