G04 #@! TF.GenerationSoftware,KiCad,Pcbnew,9.0.5*
G04 #@! TF.CreationDate,2025-10-24T14:39:15-07:00*
G04 #@! TF.ProjectId,iris-128b,69726973-2d31-4323-9862-2e6b69636164,rev?*
G04 #@! TF.SameCoordinates,Original*
G04 #@! TF.FileFunction,Copper,L6,Inr*
G04 #@! TF.FilePolarity,Positive*
%FSLAX46Y46*%
G04 Gerber Fmt 4.6, Leading zero omitted, Abs format (unit mm)*
G04 Created by KiCad (PCBNEW 9.0.5) date 2025-10-24 14:39:15*
%MOMM*%
%LPD*%
G01*
G04 APERTURE LIST*
G04 #@! TA.AperFunction,ComponentPad*
%ADD10C,3.800000*%
G04 #@! TD*
G04 #@! TA.AperFunction,ComponentPad*
%ADD11C,1.000000*%
G04 #@! TD*
G04 #@! TA.AperFunction,ViaPad*
%ADD12C,0.304800*%
G04 #@! TD*
G04 #@! TA.AperFunction,ViaPad*
%ADD13C,0.600000*%
G04 #@! TD*
G04 #@! TA.AperFunction,Conductor*
%ADD14C,0.076200*%
G04 #@! TD*
G04 APERTURE END LIST*
D10*
X96650000Y-82485000D03*
D11*
X102380000Y-90030000D03*
X102334060Y-86647020D03*
D10*
X132650000Y-82485000D03*
D12*
X114287500Y-105193306D03*
D13*
X114575000Y-121225000D03*
X105920000Y-91170000D03*
D12*
X114975000Y-95750000D03*
D13*
X126325000Y-116650000D03*
X113627646Y-108979260D03*
X104479560Y-116644300D03*
X114925000Y-91325000D03*
X114950000Y-108510000D03*
X124960000Y-108530000D03*
D12*
X114042120Y-96500000D03*
D13*
X104575000Y-80425000D03*
X112660000Y-110570000D03*
X103400000Y-93150000D03*
X124000000Y-96500000D03*
X104560000Y-108530000D03*
X104680000Y-115660000D03*
X115740000Y-99090000D03*
X105900000Y-84975000D03*
X105675000Y-103300000D03*
X114575000Y-102050000D03*
X116794300Y-110913030D03*
X127025000Y-94025000D03*
X113020000Y-103420000D03*
X107240000Y-111110000D03*
X124450000Y-85300000D03*
X107362751Y-99079640D03*
X114925000Y-79200000D03*
X115410000Y-110290000D03*
X124375000Y-100500000D03*
D12*
X123800000Y-95600000D03*
X105000000Y-96600000D03*
X114025000Y-98700000D03*
X114488596Y-94226850D03*
X119986629Y-99136631D03*
X119407432Y-110754160D03*
X109550000Y-98900000D03*
X109050000Y-110950000D03*
X109300000Y-99227240D03*
X109500000Y-110950000D03*
X119586414Y-99113586D03*
X119200000Y-111100000D03*
X118878861Y-112090164D03*
X112300000Y-100600000D03*
X120350000Y-100300000D03*
X110150000Y-111000000D03*
X121100000Y-80100000D03*
X121600000Y-87150000D03*
X121625000Y-85050000D03*
X121010680Y-82209640D03*
X121000000Y-84200000D03*
X115409980Y-82204560D03*
X118950000Y-102120000D03*
X119460000Y-102120000D03*
X117000000Y-82200001D03*
X117033040Y-81285080D03*
X118000000Y-102130000D03*
X115370864Y-83323176D03*
X120410000Y-102140000D03*
X114644100Y-82245360D03*
X118470000Y-102130000D03*
X123780000Y-103970000D03*
X114701320Y-81295240D03*
X121760000Y-102110000D03*
X117006624Y-83341464D03*
X116207540Y-82209640D03*
X119930000Y-102140000D03*
X117000000Y-84200000D03*
X122420000Y-102110000D03*
X121230000Y-102120000D03*
X116205000Y-83324192D03*
X117000000Y-80100000D03*
X123770000Y-104450000D03*
X116270514Y-81295212D03*
X117490000Y-102110000D03*
X115453160Y-81305400D03*
X117087499Y-102087498D03*
X116175000Y-80100000D03*
X123780000Y-104950000D03*
X123770000Y-105520000D03*
X115450000Y-80100000D03*
X123790000Y-105940000D03*
X114644100Y-80064114D03*
X109702783Y-87300616D03*
X107948570Y-89443550D03*
X110600000Y-81315560D03*
X111898570Y-89443550D03*
X110600000Y-87302848D03*
X108948570Y-89443550D03*
X109787802Y-83364974D03*
X104998570Y-92543550D03*
X109800000Y-82200000D03*
X104998570Y-93043550D03*
X109800000Y-86200000D03*
X107448570Y-89443550D03*
X110600000Y-85364320D03*
X109948570Y-89443550D03*
X110686537Y-83313464D03*
X110948570Y-89443550D03*
X109855000Y-81325720D03*
X104999185Y-93495760D03*
X109793134Y-85370306D03*
X106948570Y-89443550D03*
X110600000Y-82200000D03*
X111448570Y-89443550D03*
X109800000Y-80133500D03*
X105000000Y-94000000D03*
X110600000Y-86200000D03*
X109448570Y-89443550D03*
X110600000Y-80133500D03*
X108448570Y-89443550D03*
X110600000Y-84200000D03*
X110398570Y-89443550D03*
X109800000Y-84200000D03*
X104998570Y-92043550D03*
X110012171Y-113812171D03*
X117796604Y-87301297D03*
X118608856Y-84215224D03*
X118625000Y-80100000D03*
X118604151Y-85345851D03*
X117852629Y-85341700D03*
X118600000Y-86200000D03*
X118562500Y-81314672D03*
X118600000Y-82200000D03*
X118645432Y-87293704D03*
X118622064Y-83366356D03*
X117805200Y-86210140D03*
X113800000Y-82200000D03*
X104361414Y-104813586D03*
X113786920Y-81285080D03*
X104780000Y-104325000D03*
X114575000Y-86225000D03*
X111160000Y-102140000D03*
X113800000Y-85341700D03*
X111660000Y-102160000D03*
X113833300Y-83297776D03*
X104820000Y-105430000D03*
X117267200Y-113858300D03*
X113786800Y-84188260D03*
X104840000Y-105920000D03*
X113776940Y-80123060D03*
X104780000Y-103920000D03*
X114570256Y-87259160D03*
X110650000Y-102140000D03*
X115912500Y-88487500D03*
X116170000Y-101770000D03*
X116997790Y-86197790D03*
X119450000Y-101700000D03*
X116200000Y-84200000D03*
X123070000Y-101700000D03*
X116949084Y-87276255D03*
X117725000Y-101700000D03*
X117028402Y-85348137D03*
X121297171Y-101697171D03*
X115412520Y-86212680D03*
X118277500Y-101697500D03*
X116199920Y-86205060D03*
X118850000Y-101680000D03*
X116238020Y-85346540D03*
X120650000Y-101700000D03*
X115403376Y-84194904D03*
X122062500Y-101687500D03*
X115388220Y-85363219D03*
X120077500Y-101702500D03*
X116200936Y-87247984D03*
X117203328Y-101696672D03*
X116615784Y-100765784D03*
D14*
X114160700Y-105066506D02*
X114287500Y-105193306D01*
X115925000Y-97847722D02*
X114160700Y-99612022D01*
X114751104Y-93320512D02*
X115925000Y-94494408D01*
X114751104Y-92983304D02*
X114751104Y-93320512D01*
X114160700Y-99612022D02*
X114160700Y-105066506D01*
X115925000Y-94494408D02*
X115925000Y-97847722D01*
X124945783Y-92014077D02*
X125135600Y-92203894D01*
X123299770Y-81852400D02*
X124945783Y-83498413D01*
X124945783Y-83498413D02*
X124945783Y-92014077D01*
X119989600Y-103159600D02*
X118950000Y-102120000D01*
X123280727Y-103159600D02*
X119989600Y-103159600D01*
X115409980Y-82204560D02*
X115762140Y-81852400D01*
X125135600Y-92203894D02*
X125135600Y-101304727D01*
X115762140Y-81852400D02*
X123299770Y-81852400D01*
X125135600Y-101304727D02*
X123280727Y-103159600D01*
X123217601Y-103007200D02*
X120347200Y-103007200D01*
X117000000Y-82200001D02*
X117290055Y-82490056D01*
X120347200Y-103007200D02*
X119460000Y-102120000D01*
X121971108Y-82490056D02*
X123040700Y-83559648D01*
X117290055Y-82490056D02*
X121971108Y-82490056D01*
X124983200Y-92267020D02*
X124983200Y-96533761D01*
X123040700Y-83559648D02*
X123040700Y-84784648D01*
X123040700Y-84784648D02*
X124793383Y-86537331D01*
X124098700Y-101273899D02*
X124098700Y-102126101D01*
X123952400Y-101127599D02*
X124098700Y-101273899D01*
X123952400Y-97564561D02*
X123952400Y-101127599D01*
X124983200Y-96533761D02*
X123952400Y-97564561D01*
X124793383Y-86537331D02*
X124793383Y-92077203D01*
X124793383Y-92077203D02*
X124983200Y-92267020D01*
X124098700Y-102126101D02*
X123217601Y-103007200D01*
X119372400Y-103502400D02*
X123368979Y-103502400D01*
X122885622Y-81007200D02*
X117310920Y-81007200D01*
X125440400Y-101430979D02*
X125440400Y-92077642D01*
X123368979Y-103502400D02*
X125440400Y-101430979D01*
X125250583Y-91887825D02*
X125250583Y-83372161D01*
X117310920Y-81007200D02*
X117025000Y-81293120D01*
X125250583Y-83372161D02*
X122885622Y-81007200D01*
X118000000Y-102130000D02*
X119372400Y-103502400D01*
X117025000Y-81293120D02*
X117025000Y-81350000D01*
X125440400Y-92077642D02*
X125250583Y-91887825D01*
X123091349Y-102702400D02*
X121435229Y-102702400D01*
X122700000Y-84875000D02*
X124488583Y-86663583D01*
X115819040Y-82875000D02*
X116684474Y-82875000D01*
X124488583Y-86663583D02*
X124488583Y-92203455D01*
X121057829Y-102325000D02*
X120963300Y-102325000D01*
X120963300Y-102325000D02*
X120778300Y-102140000D01*
X116684474Y-82875000D02*
X116764618Y-82794856D01*
X122700000Y-83650000D02*
X122700000Y-84875000D01*
X123632200Y-101238451D02*
X123793900Y-101400151D01*
X116764618Y-82794856D02*
X121844856Y-82794856D01*
X123793900Y-101400151D02*
X123793900Y-101999849D01*
X123632200Y-97453709D02*
X123632200Y-101238451D01*
X124678400Y-92393272D02*
X124678400Y-96407509D01*
X124488583Y-92203455D02*
X124678400Y-92393272D01*
X115370864Y-83323176D02*
X115819040Y-82875000D01*
X123793900Y-101999849D02*
X123091349Y-102702400D01*
X121844856Y-82794856D02*
X122700000Y-83650000D01*
X120778300Y-102140000D02*
X120410000Y-102140000D01*
X124678400Y-96407509D02*
X123632200Y-97453709D01*
X121435229Y-102702400D02*
X121057829Y-102325000D01*
X119690000Y-103350000D02*
X118470000Y-102130000D01*
X123305853Y-103350000D02*
X119690000Y-103350000D01*
X125098183Y-83435287D02*
X125098183Y-91950951D01*
X123362896Y-81700000D02*
X125098183Y-83435287D01*
X125098183Y-91950951D02*
X125288000Y-92140768D01*
X115189460Y-81700000D02*
X123362896Y-81700000D01*
X125288000Y-101367853D02*
X123305853Y-103350000D01*
X114644100Y-82245360D02*
X115189460Y-81700000D01*
X125288000Y-92140768D02*
X125288000Y-101367853D01*
X123780000Y-103970000D02*
X124089474Y-103970000D01*
X125897600Y-92681640D02*
X126160500Y-92418740D01*
X126160500Y-92418740D02*
X126160500Y-83635500D01*
X125897600Y-101642926D02*
X125897600Y-92681640D01*
X125625000Y-101915526D02*
X125897600Y-101642926D01*
X126160500Y-83635500D02*
X123075000Y-80550000D01*
X114650000Y-81261874D02*
X114650000Y-81350000D01*
X124089474Y-103970000D02*
X125625000Y-102434474D01*
X125625000Y-102434474D02*
X125625000Y-101915526D01*
X115361874Y-80550000D02*
X114650000Y-81261874D01*
X123075000Y-80550000D02*
X115361874Y-80550000D01*
X123327400Y-90649826D02*
X123327400Y-101364703D01*
X123489100Y-90488126D02*
X123327400Y-90649826D01*
X121718604Y-83099656D02*
X122350000Y-83731052D01*
X122985997Y-102376700D02*
X122026700Y-102376700D01*
X122350000Y-84956052D02*
X123489100Y-86095152D01*
X117248432Y-83099656D02*
X121718604Y-83099656D01*
X123489100Y-86095152D02*
X123489100Y-90488126D01*
X122026700Y-102376700D02*
X121760000Y-102110000D01*
X117006624Y-83341464D02*
X117248432Y-83099656D01*
X122350000Y-83731052D02*
X122350000Y-84956052D01*
X123489100Y-101873597D02*
X122985997Y-102376700D01*
X123327400Y-101364703D02*
X123489100Y-101526403D01*
X123489100Y-101526403D02*
X123489100Y-101873597D01*
X123154475Y-102854800D02*
X120644800Y-102854800D01*
X124830800Y-92330146D02*
X124830800Y-96470635D01*
X124640983Y-92140329D02*
X124830800Y-92330146D01*
X122888300Y-83622774D02*
X122888300Y-84847774D01*
X123946300Y-101337025D02*
X123946300Y-102062975D01*
X120644800Y-102854800D02*
X119930000Y-102140000D01*
X124830800Y-96470635D02*
X123800000Y-97501435D01*
X123800000Y-101190725D02*
X123946300Y-101337025D01*
X123946300Y-102062975D02*
X123154475Y-102854800D01*
X123800000Y-97501435D02*
X123800000Y-101190725D01*
X121907982Y-82642456D02*
X122888300Y-83622774D01*
X116640356Y-82642456D02*
X121907982Y-82642456D01*
X124640983Y-86600457D02*
X124640983Y-92140329D01*
X116207540Y-82209640D02*
X116640356Y-82642456D01*
X122888300Y-84847774D02*
X124640983Y-86600457D01*
X123336700Y-101589529D02*
X123175000Y-101427829D01*
X121086722Y-83908300D02*
X117291700Y-83908300D01*
X123336700Y-90425000D02*
X123336700Y-86158278D01*
X123175000Y-90586700D02*
X123336700Y-90425000D01*
X122420000Y-102110000D02*
X123037171Y-102110000D01*
X117266700Y-83933300D02*
X117000000Y-84200000D01*
X123336700Y-86158278D02*
X121086722Y-83908300D01*
X123336700Y-101810471D02*
X123336700Y-101589529D01*
X123175000Y-101427829D02*
X123175000Y-90586700D01*
X123037171Y-102110000D02*
X123336700Y-101810471D01*
X116501792Y-83027400D02*
X116747600Y-83027400D01*
X122525000Y-83690526D02*
X122525000Y-84915526D01*
X123049123Y-102529100D02*
X121639100Y-102529100D01*
X123479800Y-90712952D02*
X123479800Y-101301577D01*
X123650000Y-86040526D02*
X123650000Y-90542752D01*
X116747600Y-83027400D02*
X116827744Y-82947256D01*
X121781730Y-82947256D02*
X122525000Y-83690526D01*
X123641500Y-101463277D02*
X123641500Y-101936723D01*
X122525000Y-84915526D02*
X123650000Y-86040526D01*
X116827744Y-82947256D02*
X121781730Y-82947256D01*
X123479800Y-101301577D02*
X123641500Y-101463277D01*
X121639100Y-102529100D02*
X121230000Y-102120000D01*
X123650000Y-90542752D02*
X123479800Y-90712952D01*
X123641500Y-101936723D02*
X123049123Y-102529100D01*
X116205000Y-83324192D02*
X116501792Y-83027400D01*
X117000000Y-80100000D02*
X117375000Y-79725000D01*
X126312900Y-92481866D02*
X126050000Y-92744766D01*
X122465526Y-79725000D02*
X126312900Y-83572374D01*
X126312900Y-83572374D02*
X126312900Y-92481866D01*
X123825000Y-104450000D02*
X123770000Y-104450000D01*
X125785900Y-102489100D02*
X123825000Y-104450000D01*
X126050000Y-102225000D02*
X125737500Y-102537500D01*
X126050000Y-92744766D02*
X126050000Y-102225000D01*
X117375000Y-79725000D02*
X122465526Y-79725000D01*
X119034800Y-103654800D02*
X123432105Y-103654800D01*
X122948748Y-80854800D02*
X125855700Y-83761752D01*
X117490000Y-102110000D02*
X119034800Y-103654800D01*
X125592800Y-101494104D02*
X125293452Y-101793452D01*
X123432105Y-103654800D02*
X125328700Y-101758205D01*
X125855700Y-92292488D02*
X125592800Y-92555388D01*
X116270514Y-81295212D02*
X116710926Y-80854800D01*
X125855700Y-83761752D02*
X125855700Y-92292488D01*
X116710926Y-80854800D02*
X122948748Y-80854800D01*
X125592800Y-92555388D02*
X125592800Y-101494104D01*
X123517800Y-103807200D02*
X118807201Y-103807200D01*
X118807201Y-103807200D02*
X117087499Y-102087498D01*
X115453160Y-81305400D02*
X116056160Y-80702400D01*
X126008100Y-83698626D02*
X126008100Y-92355614D01*
X126008100Y-92355614D02*
X125745200Y-92618514D01*
X123011874Y-80702400D02*
X126008100Y-83698626D01*
X125745200Y-92618514D02*
X125745200Y-101579800D01*
X116056160Y-80702400D02*
X123011874Y-80702400D01*
X125745200Y-101579800D02*
X123517800Y-103807200D01*
X126202400Y-92807892D02*
X126202400Y-102527600D01*
X122528652Y-79572600D02*
X126465300Y-83509248D01*
X126465300Y-83509248D02*
X126465300Y-92544992D01*
X116175000Y-80100000D02*
X116702400Y-79572600D01*
X126465300Y-92544992D02*
X126202400Y-92807892D01*
X116702400Y-79572600D02*
X122528652Y-79572600D01*
X126202400Y-102527600D02*
X123780000Y-104950000D01*
X126354800Y-102954608D02*
X123789408Y-105520000D01*
X126354800Y-92871018D02*
X126354800Y-102954608D01*
X115450000Y-80100000D02*
X116129800Y-79420200D01*
X123789408Y-105520000D02*
X123770000Y-105520000D01*
X126617700Y-83446122D02*
X126617700Y-92608118D01*
X122591778Y-79420200D02*
X126617700Y-83446122D01*
X126617700Y-92608118D02*
X126354800Y-92871018D01*
X116129800Y-79420200D02*
X122591778Y-79420200D01*
X126507200Y-92934144D02*
X126770100Y-92671244D01*
X115440414Y-79267800D02*
X115339300Y-79368914D01*
X126770100Y-83382996D02*
X122654904Y-79267800D01*
X126770100Y-92671244D02*
X126770100Y-85075000D01*
X124029408Y-105940000D02*
X126507200Y-103462208D01*
X126770100Y-85145100D02*
X126770100Y-83382996D01*
X115339300Y-79368914D02*
X115339300Y-79371609D01*
X126507200Y-103462208D02*
X126507200Y-92934144D01*
X123790000Y-105940000D02*
X124029408Y-105940000D01*
X115339300Y-79371609D02*
X114646795Y-80064114D01*
X114646795Y-80064114D02*
X114644100Y-80064114D01*
X122654904Y-79267800D02*
X115440414Y-79267800D01*
X107948570Y-89054829D02*
X107948570Y-89443550D01*
X109702783Y-87300616D02*
X107948570Y-89054829D01*
X111628700Y-89173680D02*
X111898570Y-89443550D01*
X111628700Y-82344260D02*
X111628700Y-89173680D01*
X110600000Y-81315560D02*
X111628700Y-82344260D01*
X110600000Y-87792120D02*
X108948570Y-89443550D01*
X110600000Y-87302848D02*
X110600000Y-87792120D01*
X103925000Y-86075000D02*
X103925000Y-92152168D01*
X104316382Y-92543550D02*
X104998570Y-92543550D01*
X106950000Y-83050000D02*
X103925000Y-86075000D01*
X103925000Y-92152168D02*
X104316382Y-92543550D01*
X109472828Y-83050000D02*
X106950000Y-83050000D01*
X109787802Y-83364974D02*
X109472828Y-83050000D01*
X103772600Y-86011874D02*
X107584474Y-82200000D01*
X104600856Y-93043550D02*
X103772600Y-92215294D01*
X107584474Y-82200000D02*
X109800000Y-82200000D01*
X104998570Y-93043550D02*
X104600856Y-93043550D01*
X103772600Y-92215294D02*
X103772600Y-86011874D01*
X107448570Y-89443550D02*
X107448570Y-88551430D01*
X107448570Y-88551430D02*
X109800000Y-86200000D01*
X111019100Y-88373020D02*
X109948570Y-89443550D01*
X110600000Y-85364320D02*
X111019100Y-85783420D01*
X111019100Y-85783420D02*
X111019100Y-88373020D01*
X110686537Y-83313464D02*
X111323900Y-83950827D01*
X111323900Y-83950827D02*
X111323900Y-89068220D01*
X111323900Y-89068220D02*
X110948570Y-89443550D01*
X104837540Y-93495760D02*
X104999185Y-93495760D01*
X108243228Y-81325720D02*
X103620200Y-85948748D01*
X103620200Y-92278420D02*
X104837540Y-93495760D01*
X103620200Y-85948748D02*
X103620200Y-92278420D01*
X109855000Y-81325720D02*
X108243228Y-81325720D01*
X108875000Y-86288440D02*
X108875000Y-86909474D01*
X107296170Y-89095950D02*
X106948570Y-89443550D01*
X107296170Y-88488304D02*
X107296170Y-89095950D01*
X109793134Y-85370306D02*
X108875000Y-86288440D01*
X108875000Y-86909474D02*
X107296170Y-88488304D01*
X111476300Y-83063860D02*
X110612440Y-82200000D01*
X111476300Y-89415820D02*
X111476300Y-83063860D01*
X111448570Y-89443550D02*
X111476300Y-89415820D01*
X110612440Y-82200000D02*
X110600000Y-82200000D01*
X109800000Y-80133500D02*
X109219922Y-80133500D01*
X109219922Y-80133500D02*
X103467800Y-85885622D01*
X105000000Y-93873746D02*
X105000000Y-94000000D01*
X103467800Y-85885622D02*
X103467800Y-92341546D01*
X103467800Y-92341546D02*
X105000000Y-93873746D01*
X110866700Y-88025420D02*
X110866700Y-86466700D01*
X109448570Y-89443550D02*
X110866700Y-88025420D01*
X110866700Y-86466700D02*
X110600000Y-86200000D01*
X110600000Y-80133500D02*
X110333300Y-80400200D01*
X110333300Y-80400200D02*
X110333300Y-87558820D01*
X110333300Y-87558820D02*
X108448570Y-89443550D01*
X110398570Y-89443550D02*
X111171500Y-88670620D01*
X111171500Y-88670620D02*
X111171500Y-84771500D01*
X111171500Y-84771500D02*
X110600000Y-84200000D01*
X106681870Y-89593130D02*
X106681870Y-89318130D01*
X104998570Y-91276430D02*
X106681870Y-89593130D01*
X108575000Y-86993948D02*
X108575000Y-85425000D01*
X107143770Y-88425178D02*
X108575000Y-86993948D01*
X106681870Y-89318130D02*
X107143770Y-88856230D01*
X104998570Y-92043550D02*
X104998570Y-91276430D01*
X108575000Y-85425000D02*
X109800000Y-84200000D01*
X107143770Y-88856230D02*
X107143770Y-88425178D01*
X113800000Y-82200000D02*
X112600000Y-83400000D01*
X104583300Y-104591700D02*
X104361414Y-104813586D01*
X106317670Y-96192330D02*
X106317670Y-103284501D01*
X105010471Y-104591700D02*
X104583300Y-104591700D01*
X112600000Y-89910000D02*
X106317670Y-96192330D01*
X106317670Y-103284501D02*
X105010471Y-104591700D01*
X112600000Y-83400000D02*
X112600000Y-89910000D01*
X112447600Y-89846874D02*
X107873574Y-94420900D01*
X104812400Y-101793126D02*
X104812400Y-103575229D01*
X105046700Y-104058300D02*
X104780000Y-104325000D01*
X112447600Y-82624400D02*
X112447600Y-89846874D01*
X113786920Y-81285080D02*
X112447600Y-82624400D01*
X106654370Y-94420900D02*
X106165270Y-94910000D01*
X107873574Y-94420900D02*
X106654370Y-94420900D01*
X105046700Y-103809529D02*
X105046700Y-104058300D01*
X104812400Y-103575229D02*
X105046700Y-103809529D01*
X106165270Y-100440256D02*
X104812400Y-101793126D01*
X106165270Y-94910000D02*
X106165270Y-100440256D01*
X111502400Y-91513126D02*
X112904800Y-90110726D01*
X113342800Y-86943446D02*
X113342800Y-83118206D01*
X111502400Y-101797600D02*
X111502400Y-91513126D01*
X111160000Y-102140000D02*
X111502400Y-101797600D01*
X114379800Y-83114566D02*
X114379800Y-86079800D01*
X114110890Y-82845656D02*
X114379800Y-83114566D01*
X113615350Y-82845656D02*
X114110890Y-82845656D01*
X112904800Y-87381446D02*
X113342800Y-86943446D01*
X113342800Y-83118206D02*
X113615350Y-82845656D01*
X112904800Y-90110726D02*
X112904800Y-87381446D01*
X114379800Y-86079800D02*
X114575000Y-86275000D01*
X113295200Y-87206572D02*
X113295200Y-92073748D01*
X111654800Y-102154800D02*
X111660000Y-102160000D01*
X111654800Y-93714148D02*
X111654800Y-102154800D01*
X113295200Y-92073748D02*
X111654800Y-93714148D01*
X113800000Y-85341700D02*
X113495200Y-85646500D01*
X113495200Y-87006572D02*
X113295200Y-87206572D01*
X113495200Y-85646500D02*
X113495200Y-87006572D01*
X111807200Y-101930029D02*
X111926700Y-102049529D01*
X108767171Y-105430000D02*
X104922829Y-105430000D01*
X113647600Y-87069698D02*
X113447600Y-87269698D01*
X113447600Y-92136874D02*
X111807200Y-93777274D01*
X111926700Y-102049529D02*
X111926700Y-102270471D01*
X114075000Y-85502171D02*
X113647600Y-85929571D01*
X114075000Y-83539476D02*
X114075000Y-85502171D01*
X113647600Y-85929571D02*
X113647600Y-87069698D01*
X111926700Y-102270471D02*
X108767171Y-105430000D01*
X113833300Y-83297776D02*
X114075000Y-83539476D01*
X111807200Y-93777274D02*
X111807200Y-101930029D01*
X113447600Y-87269698D02*
X113447600Y-92136874D01*
X113678476Y-82998056D02*
X114047764Y-82998056D01*
X113600000Y-92200000D02*
X111959600Y-93840400D01*
X112079100Y-102333597D02*
X108492697Y-105920000D01*
X114047764Y-82998056D02*
X114227400Y-83177692D01*
X114227400Y-83177692D02*
X114227400Y-85565297D01*
X108492697Y-105920000D02*
X104840000Y-105920000D01*
X112079100Y-101986403D02*
X112079100Y-102333597D01*
X114047600Y-87577400D02*
X113600000Y-88025000D01*
X111959600Y-101866903D02*
X112079100Y-101986403D01*
X113495200Y-83896660D02*
X113495200Y-83181332D01*
X114047600Y-85745097D02*
X114047600Y-87577400D01*
X111959600Y-93840400D02*
X111959600Y-101866903D01*
X113786800Y-84188260D02*
X113495200Y-83896660D01*
X113495200Y-83181332D02*
X113678476Y-82998056D01*
X114227400Y-85565297D02*
X114047600Y-85745097D01*
X113600000Y-88025000D02*
X113600000Y-92200000D01*
X107810448Y-94268500D02*
X106591244Y-94268500D01*
X106012870Y-100377130D02*
X104660000Y-101730000D01*
X113776940Y-80123060D02*
X112295200Y-81604800D01*
X106012870Y-94846874D02*
X106012870Y-100377130D01*
X112295200Y-81604800D02*
X112295200Y-89783748D01*
X104660000Y-101730000D02*
X104660000Y-103800000D01*
X112295200Y-89783748D02*
X107810448Y-94268500D01*
X106591244Y-94268500D02*
X106012870Y-94846874D01*
X104660000Y-103800000D02*
X104780000Y-103920000D01*
X114841700Y-86335471D02*
X114841700Y-86114529D01*
X111350000Y-91450000D02*
X111350000Y-101440000D01*
X114841700Y-86114529D02*
X114532200Y-85805029D01*
X112752400Y-90047600D02*
X111350000Y-91450000D01*
X112752400Y-87318320D02*
X112752400Y-90047600D01*
X114650000Y-87179416D02*
X114650000Y-86527171D01*
X114570256Y-87259160D02*
X114650000Y-87179416D01*
X111350000Y-101440000D02*
X110650000Y-102140000D01*
X114532200Y-85805029D02*
X114532200Y-83051440D01*
X114532200Y-83051440D02*
X114174016Y-82693256D01*
X113190400Y-86880320D02*
X112752400Y-87318320D01*
X113552224Y-82693256D02*
X113190400Y-83055080D01*
X114174016Y-82693256D02*
X113552224Y-82693256D01*
X114650000Y-86527171D02*
X114841700Y-86335471D01*
X113190400Y-83055080D02*
X113190400Y-86880320D01*
X116170000Y-90850000D02*
X116170000Y-101770000D01*
X115912500Y-90592500D02*
X116170000Y-90850000D01*
X115912500Y-88487500D02*
X115912500Y-90592500D01*
X117529800Y-88670174D02*
X117764400Y-88904774D01*
X117764400Y-88904774D02*
X117764400Y-98933348D01*
X116997790Y-86197790D02*
X117250000Y-86450000D01*
X117250000Y-86750000D02*
X117529800Y-87029800D01*
X117764400Y-98933348D02*
X118795300Y-99964248D01*
X118795300Y-101045300D02*
X119450000Y-101700000D01*
X117529800Y-87029800D02*
X117529800Y-88670174D01*
X117250000Y-86450000D02*
X117250000Y-86750000D01*
X118795300Y-99964248D02*
X118795300Y-101045300D01*
X119911952Y-99880900D02*
X118526400Y-98495348D01*
X122400000Y-101647829D02*
X120633071Y-99880900D01*
X118526400Y-88191297D02*
X119069100Y-87648597D01*
X118283300Y-85121060D02*
X118037240Y-84875000D01*
X122450000Y-101700000D02*
X122400000Y-101650000D01*
X118773597Y-85780900D02*
X118553729Y-85780900D01*
X118553729Y-85780900D02*
X118283300Y-85510471D01*
X119069100Y-87648597D02*
X119069100Y-86076403D01*
X120633071Y-99880900D02*
X119911952Y-99880900D01*
X122400000Y-101650000D02*
X122400000Y-101647829D01*
X118037240Y-84875000D02*
X116875000Y-84875000D01*
X116875000Y-84875000D02*
X116200000Y-84200000D01*
X118283300Y-85510471D02*
X118283300Y-85121060D01*
X119069100Y-86076403D02*
X118773597Y-85780900D01*
X123070000Y-101700000D02*
X122450000Y-101700000D01*
X118526400Y-98495348D02*
X118526400Y-88191297D01*
X118038630Y-101386370D02*
X117725000Y-101700000D01*
X116949084Y-88866884D02*
X117307200Y-89225000D01*
X117307200Y-99575000D02*
X118038630Y-100306430D01*
X118038630Y-100306430D02*
X118038630Y-101386370D01*
X116949084Y-87276255D02*
X116949084Y-88866884D01*
X117307200Y-89225000D02*
X117307200Y-99575000D01*
X118375000Y-86372829D02*
X118375000Y-87875000D01*
X118375000Y-87875000D02*
X118221600Y-88028400D01*
X117357226Y-85741700D02*
X117743871Y-85741700D01*
X121172171Y-101697171D02*
X121297171Y-101697171D01*
X117743871Y-85741700D02*
X118375000Y-86372829D01*
X118221600Y-98743970D02*
X120950000Y-101472370D01*
X120950000Y-101472370D02*
X120950000Y-101475000D01*
X117028402Y-85412876D02*
X117357226Y-85741700D01*
X118221600Y-88028400D02*
X118221600Y-98743970D01*
X120950000Y-101475000D02*
X121172171Y-101697171D01*
X117028402Y-85348137D02*
X117028402Y-85412876D01*
X117459600Y-89111874D02*
X117459600Y-99059600D01*
X118490500Y-100090500D02*
X118490500Y-101159500D01*
X117225000Y-87175000D02*
X117225000Y-88877274D01*
X115412520Y-86212680D02*
X115763040Y-86563200D01*
X116613200Y-86563200D02*
X117225000Y-87175000D01*
X117459600Y-99059600D02*
X118490500Y-100090500D01*
X115763040Y-86563200D02*
X116613200Y-86563200D01*
X117225000Y-88877274D02*
X117459600Y-89111874D01*
X118277500Y-101372500D02*
X118277500Y-101697500D01*
X118490500Y-101159500D02*
X118277500Y-101372500D01*
X118850000Y-101315526D02*
X118850000Y-101680000D01*
X117377400Y-88733300D02*
X117612000Y-88967900D01*
X116489534Y-86205060D02*
X117377400Y-87092926D01*
X118642900Y-100027374D02*
X118642900Y-101108426D01*
X116199920Y-86205060D02*
X116489534Y-86205060D01*
X117377400Y-87092926D02*
X117377400Y-88733300D01*
X117612000Y-88967900D02*
X117612000Y-98996474D01*
X117612000Y-98996474D02*
X118642900Y-100027374D01*
X118642900Y-101108426D02*
X118850000Y-101315526D01*
X117091700Y-85691700D02*
X117427400Y-86027400D01*
X118069200Y-98807096D02*
X120650000Y-101387896D01*
X117554800Y-86352424D02*
X118219100Y-87016724D01*
X116583180Y-85691700D02*
X117091700Y-85691700D01*
X116238020Y-85346540D02*
X116583180Y-85691700D01*
X118219100Y-87016724D02*
X118219100Y-87815374D01*
X117554800Y-86323748D02*
X117554800Y-86352424D01*
X118069200Y-87965274D02*
X118069200Y-98807096D01*
X120650000Y-101387896D02*
X120650000Y-101700000D01*
X117427400Y-86027400D02*
X117427400Y-86196348D01*
X118219100Y-87815374D02*
X118069200Y-87965274D01*
X117427400Y-86196348D02*
X117554800Y-86323748D01*
X118916700Y-87585471D02*
X118374000Y-88128171D01*
X118374000Y-88128171D02*
X118374000Y-98558474D01*
X118490603Y-85933300D02*
X118710471Y-85933300D01*
X118125000Y-85567697D02*
X118490603Y-85933300D01*
X119848826Y-100033300D02*
X120460471Y-100033300D01*
X116235872Y-85027400D02*
X117974114Y-85027400D01*
X122062500Y-101635329D02*
X122062500Y-101687500D01*
X118710471Y-85933300D02*
X118916700Y-86139529D01*
X115403376Y-84194904D02*
X116235872Y-85027400D01*
X117974114Y-85027400D02*
X118125000Y-85178286D01*
X118125000Y-85178286D02*
X118125000Y-85567697D01*
X118916700Y-86139529D02*
X118916700Y-87585471D01*
X118374000Y-98558474D02*
X119848826Y-100033300D01*
X120460471Y-100033300D02*
X122062500Y-101635329D01*
X117916800Y-87703578D02*
X117916800Y-98870222D01*
X117275000Y-86097829D02*
X117275000Y-86259474D01*
X117402400Y-86415550D02*
X118063304Y-87076454D01*
X118947700Y-99901122D02*
X118947700Y-100373752D01*
X117079571Y-85902400D02*
X117275000Y-86097829D01*
X118063304Y-87557074D02*
X117916800Y-87703578D01*
X117275000Y-86259474D02*
X117402400Y-86386874D01*
X117402400Y-86386874D02*
X117402400Y-86415550D01*
X115388220Y-85363219D02*
X115927401Y-85902400D01*
X115927401Y-85902400D02*
X117079571Y-85902400D01*
X117916800Y-98870222D02*
X118947700Y-99901122D01*
X118063304Y-87076454D02*
X118063304Y-87557074D01*
X120077500Y-101503552D02*
X120077500Y-101702500D01*
X118947700Y-100373752D02*
X120077500Y-101503552D01*
X117203328Y-101373843D02*
X117203328Y-101696672D01*
X116200000Y-90625000D02*
X117154800Y-91579800D01*
X117154800Y-100360392D02*
X117520956Y-100726548D01*
X117154800Y-91579800D02*
X117154800Y-100360392D01*
X116200936Y-87247984D02*
X116200000Y-87248920D01*
X117520956Y-100726548D02*
X117520956Y-101056215D01*
X117520956Y-101056215D02*
X117203328Y-101373843D01*
X116200000Y-87248920D02*
X116200000Y-90625000D01*
G04 #@! TA.AperFunction,Conductor*
G36*
X125391698Y-78305784D02*
G01*
X125447114Y-78361200D01*
X125453936Y-78374490D01*
X126077844Y-79753655D01*
X127736436Y-83420018D01*
X127749893Y-83482909D01*
X127625521Y-121998589D01*
X127604993Y-122074223D01*
X127549398Y-122129460D01*
X127474122Y-122149500D01*
X101726641Y-122149500D01*
X101650941Y-122129216D01*
X101595525Y-122073800D01*
X101575241Y-121998100D01*
X101575241Y-121997905D01*
X101580799Y-117680926D01*
X103943300Y-117680926D01*
X103982600Y-117827597D01*
X104058522Y-117959098D01*
X104058524Y-117959101D01*
X104165898Y-118066475D01*
X104165901Y-118066477D01*
X104297402Y-118142399D01*
X104444074Y-118181700D01*
X104444076Y-118181700D01*
X104595925Y-118181700D01*
X104669261Y-118162049D01*
X104742598Y-118142399D01*
X104874102Y-118066475D01*
X104965577Y-117975000D01*
X108242042Y-117975000D01*
X108258171Y-118066475D01*
X108262122Y-118088878D01*
X108288952Y-118135351D01*
X108319937Y-118189019D01*
X108319938Y-118189020D01*
X108319939Y-118189021D01*
X108408521Y-118263350D01*
X108408522Y-118263350D01*
X108408523Y-118263351D01*
X108517182Y-118302900D01*
X108632817Y-118302900D01*
X108632818Y-118302900D01*
X108741479Y-118263350D01*
X108830061Y-118189021D01*
X108887878Y-118088878D01*
X108907958Y-117975000D01*
X123443712Y-117975000D01*
X123461493Y-118064390D01*
X123512128Y-118140172D01*
X123587910Y-118190807D01*
X123677300Y-118208588D01*
X123766690Y-118190807D01*
X123842472Y-118140172D01*
X123893107Y-118064390D01*
X123910888Y-117975000D01*
X123893107Y-117885610D01*
X123842472Y-117809828D01*
X123766690Y-117759193D01*
X123766687Y-117759192D01*
X123677300Y-117741412D01*
X123587912Y-117759192D01*
X123587910Y-117759192D01*
X123587910Y-117759193D01*
X123585237Y-117760979D01*
X123512128Y-117809828D01*
X123461492Y-117885612D01*
X123446874Y-117959102D01*
X123443712Y-117975000D01*
X108907958Y-117975000D01*
X108887878Y-117861122D01*
X108830061Y-117760979D01*
X108741479Y-117686650D01*
X108741477Y-117686649D01*
X108741476Y-117686648D01*
X108725755Y-117680926D01*
X124793300Y-117680926D01*
X124832600Y-117827597D01*
X124908522Y-117959098D01*
X124908524Y-117959101D01*
X125015898Y-118066475D01*
X125015901Y-118066477D01*
X125147402Y-118142399D01*
X125294074Y-118181700D01*
X125294076Y-118181700D01*
X125445925Y-118181700D01*
X125519261Y-118162049D01*
X125592598Y-118142399D01*
X125724102Y-118066475D01*
X125831475Y-117959102D01*
X125907399Y-117827598D01*
X125925249Y-117760980D01*
X125946700Y-117680926D01*
X125946700Y-117529073D01*
X125907399Y-117382402D01*
X125831477Y-117250901D01*
X125831475Y-117250898D01*
X125724101Y-117143524D01*
X125724098Y-117143522D01*
X125592597Y-117067600D01*
X125445927Y-117028300D01*
X125445924Y-117028300D01*
X125294076Y-117028300D01*
X125294073Y-117028300D01*
X125147402Y-117067600D01*
X125015901Y-117143522D01*
X125015898Y-117143524D01*
X124908524Y-117250898D01*
X124908522Y-117250901D01*
X124832600Y-117382402D01*
X124793300Y-117529073D01*
X124793300Y-117680926D01*
X108725755Y-117680926D01*
X108632819Y-117647100D01*
X108632818Y-117647100D01*
X108517182Y-117647100D01*
X108517181Y-117647100D01*
X108408523Y-117686648D01*
X108319937Y-117760980D01*
X108262121Y-117861124D01*
X108242042Y-117975000D01*
X104965577Y-117975000D01*
X104981475Y-117959102D01*
X105057399Y-117827598D01*
X105075249Y-117760980D01*
X105096700Y-117680926D01*
X105096700Y-117529073D01*
X105057399Y-117382402D01*
X104981477Y-117250901D01*
X104981475Y-117250898D01*
X104874101Y-117143524D01*
X104874098Y-117143522D01*
X104742597Y-117067600D01*
X104595927Y-117028300D01*
X104595924Y-117028300D01*
X104444076Y-117028300D01*
X104444073Y-117028300D01*
X104297402Y-117067600D01*
X104165901Y-117143522D01*
X104165898Y-117143524D01*
X104058524Y-117250898D01*
X104058522Y-117250901D01*
X103982600Y-117382402D01*
X103943300Y-117529073D01*
X103943300Y-117680926D01*
X101580799Y-117680926D01*
X101581639Y-117028300D01*
X101585780Y-113812171D01*
X109702161Y-113812171D01*
X109720856Y-113918199D01*
X109720856Y-113918200D01*
X109720857Y-113918201D01*
X109774690Y-114011442D01*
X109857166Y-114080648D01*
X109958338Y-114117471D01*
X109958340Y-114117471D01*
X110066002Y-114117471D01*
X110066004Y-114117471D01*
X110167176Y-114080648D01*
X110249652Y-114011442D01*
X110303485Y-113918201D01*
X110314047Y-113858300D01*
X116957190Y-113858300D01*
X116975885Y-113964328D01*
X116975885Y-113964329D01*
X116975886Y-113964330D01*
X117029719Y-114057571D01*
X117112195Y-114126777D01*
X117213367Y-114163600D01*
X117213369Y-114163600D01*
X117321032Y-114163600D01*
X117321033Y-114163600D01*
X117422205Y-114126777D01*
X117422205Y-114126776D01*
X117434653Y-114122246D01*
X117435598Y-114124843D01*
X117492547Y-114109581D01*
X117568249Y-114129860D01*
X117576667Y-114135095D01*
X117587910Y-114142607D01*
X117677300Y-114160388D01*
X117766690Y-114142607D01*
X117842472Y-114091972D01*
X117893107Y-114016190D01*
X117910888Y-113926800D01*
X117893107Y-113837410D01*
X117842472Y-113761628D01*
X117766690Y-113710993D01*
X117766687Y-113710992D01*
X117677300Y-113693212D01*
X117677299Y-113693212D01*
X117641855Y-113700262D01*
X117563652Y-113695136D01*
X117517532Y-113664319D01*
X117514828Y-113667543D01*
X117422206Y-113589824D01*
X117422205Y-113589823D01*
X117321033Y-113553000D01*
X117213367Y-113553000D01*
X117112195Y-113589823D01*
X117112194Y-113589823D01*
X117112193Y-113589824D01*
X117029720Y-113659027D01*
X116975885Y-113752271D01*
X116957190Y-113858299D01*
X116957190Y-113858300D01*
X110314047Y-113858300D01*
X110322181Y-113812171D01*
X110303485Y-113706141D01*
X110249652Y-113612900D01*
X110167176Y-113543694D01*
X110066004Y-113506871D01*
X109958338Y-113506871D01*
X109857166Y-113543694D01*
X109857165Y-113543694D01*
X109857164Y-113543695D01*
X109774691Y-113612898D01*
X109720856Y-113706142D01*
X109702161Y-113812170D01*
X109702161Y-113812171D01*
X101585780Y-113812171D01*
X101586439Y-113300000D01*
X108916412Y-113300000D01*
X108934193Y-113389390D01*
X108984828Y-113465172D01*
X109060610Y-113515807D01*
X109150000Y-113533588D01*
X109239390Y-113515807D01*
X109315172Y-113465172D01*
X109365807Y-113389390D01*
X109383588Y-113300000D01*
X109365807Y-113210610D01*
X109315172Y-113134828D01*
X109239390Y-113084193D01*
X109239387Y-113084192D01*
X109150000Y-113066412D01*
X109060612Y-113084192D01*
X109060610Y-113084192D01*
X109060610Y-113084193D01*
X108984828Y-113134828D01*
X108934192Y-113210612D01*
X108916412Y-113300000D01*
X101586439Y-113300000D01*
X101587495Y-112480000D01*
X117096412Y-112480000D01*
X117114193Y-112569390D01*
X117164828Y-112645172D01*
X117240610Y-112695807D01*
X117330000Y-112713588D01*
X117419390Y-112695807D01*
X117495172Y-112645172D01*
X117534115Y-112586887D01*
X117593035Y-112535215D01*
X117669899Y-112519924D01*
X117744111Y-112545114D01*
X117785883Y-112586886D01*
X117824828Y-112645172D01*
X117900610Y-112695807D01*
X117990000Y-112713588D01*
X118079390Y-112695807D01*
X118155172Y-112645172D01*
X118205807Y-112569390D01*
X118223588Y-112480000D01*
X118205807Y-112390610D01*
X118155172Y-112314828D01*
X118079390Y-112264193D01*
X118079387Y-112264192D01*
X117990000Y-112246412D01*
X117900612Y-112264192D01*
X117900610Y-112264192D01*
X117900610Y-112264193D01*
X117862719Y-112289510D01*
X117824826Y-112314829D01*
X117785885Y-112373111D01*
X117726964Y-112424785D01*
X117650100Y-112440075D01*
X117575888Y-112414884D01*
X117534115Y-112373111D01*
X117495173Y-112314829D01*
X117495172Y-112314828D01*
X117419390Y-112264193D01*
X117419387Y-112264192D01*
X117330000Y-112246412D01*
X117240612Y-112264192D01*
X117240610Y-112264192D01*
X117240610Y-112264193D01*
X117164828Y-112314828D01*
X117125886Y-112373111D01*
X117114192Y-112390612D01*
X117096412Y-112480000D01*
X101587495Y-112480000D01*
X101587997Y-112090164D01*
X118568851Y-112090164D01*
X118587546Y-112196192D01*
X118587546Y-112196193D01*
X118587547Y-112196194D01*
X118641380Y-112289435D01*
X118723856Y-112358641D01*
X118825028Y-112395464D01*
X118825030Y-112395464D01*
X118932692Y-112395464D01*
X118932694Y-112395464D01*
X119033866Y-112358641D01*
X119116342Y-112289435D01*
X119170175Y-112196194D01*
X119188871Y-112090164D01*
X119170175Y-111984134D01*
X119116342Y-111890893D01*
X119033866Y-111821687D01*
X118932694Y-111784864D01*
X118825028Y-111784864D01*
X118723856Y-111821687D01*
X118723855Y-111821687D01*
X118723854Y-111821688D01*
X118641381Y-111890891D01*
X118587546Y-111984135D01*
X118568851Y-112090163D01*
X118568851Y-112090164D01*
X101587997Y-112090164D01*
X101589078Y-111250000D01*
X108416412Y-111250000D01*
X108432125Y-111328997D01*
X108434193Y-111339390D01*
X108484828Y-111415172D01*
X108560610Y-111465807D01*
X108650000Y-111483588D01*
X108739390Y-111465807D01*
X108815172Y-111415172D01*
X108865807Y-111339390D01*
X108865807Y-111339387D01*
X108874090Y-111326992D01*
X108877090Y-111328997D01*
X108909629Y-111286590D01*
X108982033Y-111256596D01*
X109001800Y-111255300D01*
X109103832Y-111255300D01*
X109103833Y-111255300D01*
X109205005Y-111218477D01*
X109205005Y-111218476D01*
X109217453Y-111213946D01*
X109218434Y-111216643D01*
X109275000Y-111201487D01*
X109331565Y-111216643D01*
X109332547Y-111213946D01*
X109344994Y-111218476D01*
X109344995Y-111218477D01*
X109446167Y-111255300D01*
X109446168Y-111255300D01*
X109553831Y-111255300D01*
X109553833Y-111255300D01*
X109655005Y-111218477D01*
X109699598Y-111181058D01*
X109770625Y-111147937D01*
X109848697Y-111154767D01*
X109901529Y-111191760D01*
X109902372Y-111190757D01*
X109920574Y-111206030D01*
X109994995Y-111268477D01*
X110096167Y-111305300D01*
X110096169Y-111305300D01*
X110188590Y-111305300D01*
X110264290Y-111325584D01*
X110319706Y-111381000D01*
X110334834Y-111437459D01*
X110337690Y-111436956D01*
X110358685Y-111556028D01*
X110358685Y-111556029D01*
X110358686Y-111556030D01*
X110412519Y-111649271D01*
X110494995Y-111718477D01*
X110596167Y-111755300D01*
X110596169Y-111755300D01*
X110703831Y-111755300D01*
X110703833Y-111755300D01*
X110805005Y-111718477D01*
X110887481Y-111649271D01*
X110941314Y-111556030D01*
X110960010Y-111450000D01*
X110941314Y-111343970D01*
X110887481Y-111250729D01*
X110886612Y-111250000D01*
X110817205Y-111191760D01*
X110805005Y-111181523D01*
X110703833Y-111144700D01*
X110611410Y-111144700D01*
X110535710Y-111124416D01*
X110480294Y-111069000D01*
X110465165Y-111012540D01*
X110462310Y-111013044D01*
X110460010Y-111000000D01*
X117166412Y-111000000D01*
X117183285Y-111084828D01*
X117184193Y-111089390D01*
X117234828Y-111165172D01*
X117310610Y-111215807D01*
X117400000Y-111233588D01*
X117489390Y-111215807D01*
X117565172Y-111165172D01*
X117608718Y-111100000D01*
X118889990Y-111100000D01*
X118908685Y-111206028D01*
X118908685Y-111206029D01*
X118908686Y-111206030D01*
X118962519Y-111299271D01*
X119044995Y-111368477D01*
X119146167Y-111405300D01*
X119146169Y-111405300D01*
X119253831Y-111405300D01*
X119253833Y-111405300D01*
X119355005Y-111368477D01*
X119437481Y-111299271D01*
X119451494Y-111275000D01*
X120614990Y-111275000D01*
X120633685Y-111381028D01*
X120633685Y-111381029D01*
X120633686Y-111381030D01*
X120682632Y-111465807D01*
X120687520Y-111474272D01*
X120715011Y-111497339D01*
X120769995Y-111543477D01*
X120871167Y-111580300D01*
X120871169Y-111580300D01*
X120978831Y-111580300D01*
X120978833Y-111580300D01*
X121080005Y-111543477D01*
X121162481Y-111474271D01*
X121216314Y-111381030D01*
X121235010Y-111275000D01*
X121233859Y-111268475D01*
X121224573Y-111215807D01*
X121216314Y-111168970D01*
X121162481Y-111075729D01*
X121080005Y-111006523D01*
X120978833Y-110969700D01*
X120871167Y-110969700D01*
X120769995Y-111006523D01*
X120769994Y-111006523D01*
X120769993Y-111006524D01*
X120687520Y-111075727D01*
X120633685Y-111168971D01*
X120614990Y-111274999D01*
X120614990Y-111275000D01*
X119451494Y-111275000D01*
X119491314Y-111206030D01*
X119507347Y-111115100D01*
X119540467Y-111044073D01*
X119559129Y-111025411D01*
X119562433Y-111022638D01*
X119562437Y-111022637D01*
X119644913Y-110953431D01*
X119698746Y-110860190D01*
X119717442Y-110754160D01*
X119717187Y-110752716D01*
X119698746Y-110648131D01*
X119698746Y-110648130D01*
X119644913Y-110554889D01*
X119644840Y-110554828D01*
X119562438Y-110485684D01*
X119562437Y-110485683D01*
X119461265Y-110448860D01*
X119353599Y-110448860D01*
X119252427Y-110485683D01*
X119252426Y-110485683D01*
X119252425Y-110485684D01*
X119169952Y-110554887D01*
X119116117Y-110648130D01*
X119100084Y-110739059D01*
X119066962Y-110810086D01*
X119048304Y-110828745D01*
X118965436Y-110898281D01*
X118962519Y-110900729D01*
X118944547Y-110931858D01*
X118908685Y-110993971D01*
X118889990Y-111099999D01*
X118889990Y-111100000D01*
X117608718Y-111100000D01*
X117615807Y-111089390D01*
X117626114Y-111037572D01*
X117660776Y-110967285D01*
X117725938Y-110923744D01*
X117804141Y-110918618D01*
X117836109Y-110931858D01*
X117836837Y-110930102D01*
X117850607Y-110935805D01*
X117850610Y-110935807D01*
X117940000Y-110953588D01*
X118029390Y-110935807D01*
X118105172Y-110885172D01*
X118155807Y-110809390D01*
X118173588Y-110720000D01*
X118155807Y-110630610D01*
X118105172Y-110554828D01*
X118029390Y-110504193D01*
X118029387Y-110504192D01*
X117940000Y-110486412D01*
X117850612Y-110504192D01*
X117850610Y-110504192D01*
X117850610Y-110504193D01*
X117774828Y-110554828D01*
X117724192Y-110630611D01*
X117713885Y-110682429D01*
X117679221Y-110752716D01*
X117614058Y-110796256D01*
X117535855Y-110801381D01*
X117503890Y-110788141D01*
X117503163Y-110789898D01*
X117489390Y-110784193D01*
X117400000Y-110766412D01*
X117310612Y-110784192D01*
X117310610Y-110784192D01*
X117310610Y-110784193D01*
X117234828Y-110834828D01*
X117195312Y-110893970D01*
X117184192Y-110910612D01*
X117166412Y-111000000D01*
X110460010Y-111000000D01*
X110442506Y-110900729D01*
X110441314Y-110893970D01*
X110387481Y-110800729D01*
X110382150Y-110796256D01*
X110327891Y-110750727D01*
X110305005Y-110731523D01*
X110203833Y-110694700D01*
X110096167Y-110694700D01*
X109994995Y-110731523D01*
X109994994Y-110731523D01*
X109994993Y-110731524D01*
X109950400Y-110768942D01*
X109879371Y-110802062D01*
X109801299Y-110795231D01*
X109748470Y-110758238D01*
X109747628Y-110759243D01*
X109657192Y-110683358D01*
X109655005Y-110681523D01*
X109553833Y-110644700D01*
X109446167Y-110644700D01*
X109344995Y-110681523D01*
X109344992Y-110681524D01*
X109332549Y-110686054D01*
X109331567Y-110683357D01*
X109274989Y-110698513D01*
X109218432Y-110683358D01*
X109217451Y-110686054D01*
X109205007Y-110681524D01*
X109205005Y-110681523D01*
X109103833Y-110644700D01*
X108996167Y-110644700D01*
X108894995Y-110681523D01*
X108894994Y-110681523D01*
X108894993Y-110681524D01*
X108812520Y-110750727D01*
X108758685Y-110843970D01*
X108749109Y-110898281D01*
X108715987Y-110969308D01*
X108651789Y-111014259D01*
X108629547Y-111020480D01*
X108560611Y-111034192D01*
X108560610Y-111034193D01*
X108484828Y-111084828D01*
X108434773Y-111159743D01*
X108434192Y-111160612D01*
X108416412Y-111250000D01*
X101589078Y-111250000D01*
X101590707Y-109985000D01*
X116126412Y-109985000D01*
X116144193Y-110074390D01*
X116194828Y-110150172D01*
X116270610Y-110200807D01*
X116360000Y-110218588D01*
X116449390Y-110200807D01*
X116525172Y-110150172D01*
X116575807Y-110074390D01*
X116586626Y-110020000D01*
X124746412Y-110020000D01*
X124764193Y-110109390D01*
X124814828Y-110185172D01*
X124890610Y-110235807D01*
X124980000Y-110253588D01*
X125069390Y-110235807D01*
X125145172Y-110185172D01*
X125195807Y-110109390D01*
X125213588Y-110020000D01*
X125195807Y-109930610D01*
X125145172Y-109854828D01*
X125069390Y-109804193D01*
X125069387Y-109804192D01*
X124980000Y-109786412D01*
X124890612Y-109804192D01*
X124890610Y-109804192D01*
X124890610Y-109804193D01*
X124814828Y-109854828D01*
X124787578Y-109895612D01*
X124764192Y-109930612D01*
X124761170Y-109945807D01*
X124746412Y-110020000D01*
X116586626Y-110020000D01*
X116593588Y-109985000D01*
X116575807Y-109895610D01*
X116525172Y-109819828D01*
X116449390Y-109769193D01*
X116449387Y-109769192D01*
X116360000Y-109751412D01*
X116270612Y-109769192D01*
X116270610Y-109769192D01*
X116270610Y-109769193D01*
X116194828Y-109819828D01*
X116144487Y-109895171D01*
X116144192Y-109895612D01*
X116134208Y-109945807D01*
X116126412Y-109985000D01*
X101590707Y-109985000D01*
X101591035Y-109730000D01*
X105966412Y-109730000D01*
X105984193Y-109819390D01*
X106034828Y-109895172D01*
X106110610Y-109945807D01*
X106200000Y-109963588D01*
X106289390Y-109945807D01*
X106365172Y-109895172D01*
X106415807Y-109819390D01*
X106433588Y-109730000D01*
X106415807Y-109640610D01*
X106365172Y-109564828D01*
X106289390Y-109514193D01*
X106289387Y-109514192D01*
X106200000Y-109496412D01*
X106110612Y-109514192D01*
X106110610Y-109514192D01*
X106110610Y-109514193D01*
X106034828Y-109564828D01*
X105984192Y-109640612D01*
X105966412Y-109730000D01*
X101591035Y-109730000D01*
X101593271Y-107992955D01*
X113452742Y-107992955D01*
X113462692Y-108049387D01*
X113472822Y-108106833D01*
X113483410Y-108125172D01*
X113530637Y-108206974D01*
X113530638Y-108206975D01*
X113530639Y-108206976D01*
X113619221Y-108281305D01*
X113619222Y-108281305D01*
X113619223Y-108281306D01*
X113727882Y-108320855D01*
X113843517Y-108320855D01*
X113843518Y-108320855D01*
X113952179Y-108281305D01*
X114040761Y-108206976D01*
X114098578Y-108106833D01*
X114118658Y-107992955D01*
X114112847Y-107960000D01*
X123616412Y-107960000D01*
X123634193Y-108049390D01*
X123684828Y-108125172D01*
X123760610Y-108175807D01*
X123850000Y-108193588D01*
X123939390Y-108175807D01*
X124015172Y-108125172D01*
X124065807Y-108049390D01*
X124083588Y-107960000D01*
X124065807Y-107870610D01*
X124015172Y-107794828D01*
X123939390Y-107744193D01*
X123939387Y-107744192D01*
X123850000Y-107726412D01*
X123760612Y-107744192D01*
X123760610Y-107744192D01*
X123760610Y-107744193D01*
X123708614Y-107778935D01*
X123684828Y-107794828D01*
X123634192Y-107870612D01*
X123632508Y-107879079D01*
X123616412Y-107960000D01*
X114112847Y-107960000D01*
X114098578Y-107879077D01*
X114040761Y-107778934D01*
X113952179Y-107704605D01*
X113952177Y-107704604D01*
X113952176Y-107704603D01*
X113843519Y-107665055D01*
X113843518Y-107665055D01*
X113727882Y-107665055D01*
X113727881Y-107665055D01*
X113619223Y-107704603D01*
X113530637Y-107778935D01*
X113472821Y-107879079D01*
X113452742Y-107992955D01*
X101593271Y-107992955D01*
X101594614Y-106950000D01*
X104641412Y-106950000D01*
X104652428Y-107005383D01*
X104659193Y-107039390D01*
X104709828Y-107115172D01*
X104785610Y-107165807D01*
X104875000Y-107183588D01*
X104964390Y-107165807D01*
X105040172Y-107115172D01*
X105090807Y-107039390D01*
X105108588Y-106950000D01*
X105090807Y-106860610D01*
X105040172Y-106784828D01*
X104964390Y-106734193D01*
X104964387Y-106734192D01*
X104875000Y-106716412D01*
X104785612Y-106734192D01*
X104785610Y-106734192D01*
X104785610Y-106734193D01*
X104709828Y-106784828D01*
X104662827Y-106855172D01*
X104659192Y-106860612D01*
X104641412Y-106950000D01*
X101594614Y-106950000D01*
X101594949Y-106690000D01*
X113291412Y-106690000D01*
X113309192Y-106779389D01*
X113347793Y-106837161D01*
X113372983Y-106911373D01*
X113357692Y-106988237D01*
X113347793Y-107005383D01*
X113310892Y-107060610D01*
X113293112Y-107150000D01*
X113310893Y-107239390D01*
X113361528Y-107315172D01*
X113437310Y-107365807D01*
X113526700Y-107383588D01*
X113616090Y-107365807D01*
X113691872Y-107315172D01*
X113742507Y-107239390D01*
X113760288Y-107150000D01*
X113742507Y-107060610D01*
X113703905Y-107002837D01*
X113678716Y-106928627D01*
X113694006Y-106851763D01*
X113703899Y-106834626D01*
X113740807Y-106779390D01*
X113758588Y-106690000D01*
X113740807Y-106600610D01*
X113690172Y-106524828D01*
X113614390Y-106474193D01*
X113614389Y-106474192D01*
X113614388Y-106474192D01*
X113569237Y-106465211D01*
X113518326Y-106440103D01*
X113483559Y-106463334D01*
X113464431Y-106468460D01*
X113435611Y-106474192D01*
X113359828Y-106524828D01*
X113309192Y-106600612D01*
X113291412Y-106690000D01*
X101594949Y-106690000D01*
X101607695Y-96790000D01*
X103377042Y-96790000D01*
X103397122Y-96903878D01*
X103433775Y-96967363D01*
X103454938Y-97004020D01*
X103470493Y-97017072D01*
X103515445Y-97081268D01*
X103522276Y-97159341D01*
X103499062Y-97217163D01*
X103464192Y-97269350D01*
X103446412Y-97358740D01*
X103464193Y-97448130D01*
X103514828Y-97523912D01*
X103590610Y-97574547D01*
X103680000Y-97592328D01*
X103769390Y-97574547D01*
X103845172Y-97523912D01*
X103895807Y-97448130D01*
X103913588Y-97358740D01*
X103895807Y-97269350D01*
X103882492Y-97249422D01*
X103857302Y-97175210D01*
X103872593Y-97098346D01*
X103911058Y-97049334D01*
X103965061Y-97004021D01*
X104022878Y-96903878D01*
X104042958Y-96790000D01*
X104022878Y-96676122D01*
X103965061Y-96575979D01*
X103876479Y-96501650D01*
X103876477Y-96501649D01*
X103876476Y-96501648D01*
X103767819Y-96462100D01*
X103767818Y-96462100D01*
X103652182Y-96462100D01*
X103652181Y-96462100D01*
X103543523Y-96501648D01*
X103454937Y-96575980D01*
X103397121Y-96676124D01*
X103378897Y-96779482D01*
X103377042Y-96790000D01*
X101607695Y-96790000D01*
X101615614Y-90639586D01*
X101635995Y-90563915D01*
X101664318Y-90535664D01*
X101661563Y-90532909D01*
X102130000Y-90064472D01*
X102130000Y-90079728D01*
X102168060Y-90171614D01*
X102238386Y-90241940D01*
X102330272Y-90280000D01*
X102345526Y-90280000D01*
X101928645Y-90696879D01*
X102028603Y-90759687D01*
X102028605Y-90759688D01*
X102199780Y-90819585D01*
X102199783Y-90819586D01*
X102380000Y-90839892D01*
X102560216Y-90819586D01*
X102560219Y-90819585D01*
X102731394Y-90759688D01*
X102731399Y-90759686D01*
X102831353Y-90696879D01*
X102414474Y-90280000D01*
X102429728Y-90280000D01*
X102521614Y-90241940D01*
X102591940Y-90171614D01*
X102630000Y-90079728D01*
X102630000Y-90064474D01*
X103046879Y-90481353D01*
X103108449Y-90474417D01*
X103185944Y-90486098D01*
X103247216Y-90534961D01*
X103275848Y-90607914D01*
X103276800Y-90624865D01*
X103276800Y-92303554D01*
X103276800Y-92379538D01*
X103300817Y-92437520D01*
X103305878Y-92449739D01*
X104659165Y-93803026D01*
X104698350Y-93870897D01*
X104701209Y-93936372D01*
X104689990Y-93999999D01*
X104689990Y-94000000D01*
X104708685Y-94106028D01*
X104708685Y-94106029D01*
X104708686Y-94106030D01*
X104752008Y-94181066D01*
X104762520Y-94199272D01*
X104770904Y-94206307D01*
X104844995Y-94268477D01*
X104946167Y-94305300D01*
X104946169Y-94305300D01*
X105053831Y-94305300D01*
X105053833Y-94305300D01*
X105155005Y-94268477D01*
X105237481Y-94199271D01*
X105291314Y-94106030D01*
X105310010Y-94000000D01*
X105291314Y-93893970D01*
X105250265Y-93822871D01*
X105229982Y-93747175D01*
X105250264Y-93671478D01*
X105290499Y-93601790D01*
X105309195Y-93495760D01*
X105305534Y-93475000D01*
X105290499Y-93389731D01*
X105290499Y-93389730D01*
X105264570Y-93344820D01*
X105244287Y-93269123D01*
X105264569Y-93193426D01*
X105289884Y-93149580D01*
X105308580Y-93043550D01*
X105289884Y-92937520D01*
X105250467Y-92869248D01*
X105230184Y-92793551D01*
X105250466Y-92717852D01*
X105289884Y-92649580D01*
X105308580Y-92543550D01*
X105289884Y-92437520D01*
X105250467Y-92369248D01*
X105230184Y-92293551D01*
X105250466Y-92217852D01*
X105289884Y-92149580D01*
X105308580Y-92043550D01*
X105289884Y-91937520D01*
X105236051Y-91844279D01*
X105236049Y-91844277D01*
X105227535Y-91834130D01*
X105230395Y-91831729D01*
X105198691Y-91786432D01*
X105189570Y-91734677D01*
X105189570Y-91418256D01*
X105209854Y-91342556D01*
X105233910Y-91311204D01*
X106755296Y-89789817D01*
X106823165Y-89750634D01*
X106888640Y-89747775D01*
X106894737Y-89748850D01*
X107002401Y-89748850D01*
X107002403Y-89748850D01*
X107103575Y-89712027D01*
X107103580Y-89712022D01*
X107115047Y-89705403D01*
X107116020Y-89707089D01*
X107172270Y-89680856D01*
X107250342Y-89687681D01*
X107281829Y-89705859D01*
X107282093Y-89705403D01*
X107293561Y-89712024D01*
X107293565Y-89712027D01*
X107394737Y-89748850D01*
X107394739Y-89748850D01*
X107502401Y-89748850D01*
X107502403Y-89748850D01*
X107603575Y-89712027D01*
X107603580Y-89712022D01*
X107615047Y-89705403D01*
X107616020Y-89707089D01*
X107672270Y-89680856D01*
X107750342Y-89687681D01*
X107781829Y-89705859D01*
X107782093Y-89705403D01*
X107793561Y-89712024D01*
X107793565Y-89712027D01*
X107894737Y-89748850D01*
X107894739Y-89748850D01*
X108002401Y-89748850D01*
X108002403Y-89748850D01*
X108103575Y-89712027D01*
X108103580Y-89712022D01*
X108115047Y-89705403D01*
X108116020Y-89707089D01*
X108172270Y-89680856D01*
X108250342Y-89687681D01*
X108281829Y-89705859D01*
X108282093Y-89705403D01*
X108293561Y-89712024D01*
X108293565Y-89712027D01*
X108394737Y-89748850D01*
X108394739Y-89748850D01*
X108502401Y-89748850D01*
X108502403Y-89748850D01*
X108603575Y-89712027D01*
X108603580Y-89712022D01*
X108615047Y-89705403D01*
X108616020Y-89707089D01*
X108672270Y-89680856D01*
X108750342Y-89687681D01*
X108781829Y-89705859D01*
X108782093Y-89705403D01*
X108793561Y-89712024D01*
X108793565Y-89712027D01*
X108894737Y-89748850D01*
X108894739Y-89748850D01*
X109002401Y-89748850D01*
X109002403Y-89748850D01*
X109103575Y-89712027D01*
X109103580Y-89712022D01*
X109115047Y-89705403D01*
X109116020Y-89707089D01*
X109172270Y-89680856D01*
X109250342Y-89687681D01*
X109281829Y-89705859D01*
X109282093Y-89705403D01*
X109293561Y-89712024D01*
X109293565Y-89712027D01*
X109394737Y-89748850D01*
X109394739Y-89748850D01*
X109502401Y-89748850D01*
X109502403Y-89748850D01*
X109603575Y-89712027D01*
X109603580Y-89712022D01*
X109615047Y-89705403D01*
X109616020Y-89707089D01*
X109672270Y-89680856D01*
X109750342Y-89687681D01*
X109781829Y-89705859D01*
X109782093Y-89705403D01*
X109793561Y-89712024D01*
X109793565Y-89712027D01*
X109894737Y-89748850D01*
X109894739Y-89748850D01*
X110002402Y-89748850D01*
X110002403Y-89748850D01*
X110103575Y-89712027D01*
X110103575Y-89712026D01*
X110116023Y-89707496D01*
X110117004Y-89710193D01*
X110173570Y-89695037D01*
X110230135Y-89710193D01*
X110231117Y-89707496D01*
X110243564Y-89712026D01*
X110243565Y-89712027D01*
X110344737Y-89748850D01*
X110344738Y-89748850D01*
X110452401Y-89748850D01*
X110452403Y-89748850D01*
X110553575Y-89712027D01*
X110576252Y-89692998D01*
X110647279Y-89659877D01*
X110725351Y-89666707D01*
X110770887Y-89692997D01*
X110793565Y-89712027D01*
X110894737Y-89748850D01*
X110894739Y-89748850D01*
X111002401Y-89748850D01*
X111002403Y-89748850D01*
X111103575Y-89712027D01*
X111103580Y-89712022D01*
X111115047Y-89705403D01*
X111116020Y-89707089D01*
X111172270Y-89680856D01*
X111250342Y-89687681D01*
X111281829Y-89705859D01*
X111282093Y-89705403D01*
X111293561Y-89712024D01*
X111293565Y-89712027D01*
X111394737Y-89748850D01*
X111394739Y-89748850D01*
X111502402Y-89748850D01*
X111502403Y-89748850D01*
X111603575Y-89712027D01*
X111603575Y-89712026D01*
X111616023Y-89707496D01*
X111617004Y-89710193D01*
X111673570Y-89695037D01*
X111730136Y-89710194D01*
X111731118Y-89707497D01*
X111779226Y-89725007D01*
X111843423Y-89769958D01*
X111876544Y-89840986D01*
X111869713Y-89919058D01*
X111834500Y-89974332D01*
X107775677Y-94033156D01*
X107707806Y-94072341D01*
X107668621Y-94077500D01*
X106629236Y-94077500D01*
X106553252Y-94077500D01*
X106518151Y-94092039D01*
X106483050Y-94106578D01*
X105850948Y-94738680D01*
X105838892Y-94767788D01*
X105822804Y-94806629D01*
X105821870Y-94808883D01*
X105821870Y-98604748D01*
X105801586Y-98680448D01*
X105746170Y-98735864D01*
X105670470Y-98756148D01*
X105640934Y-98753239D01*
X105613781Y-98747838D01*
X105543492Y-98713176D01*
X105499952Y-98648013D01*
X105494826Y-98628883D01*
X105485145Y-98580216D01*
X105485145Y-98580214D01*
X105434510Y-98504432D01*
X105358728Y-98453797D01*
X105358725Y-98453796D01*
X105269338Y-98436016D01*
X105179950Y-98453796D01*
X105179948Y-98453796D01*
X105179948Y-98453797D01*
X105109711Y-98500727D01*
X105104166Y-98504432D01*
X105053530Y-98580216D01*
X105035750Y-98669604D01*
X105052964Y-98756148D01*
X105053531Y-98758994D01*
X105104166Y-98834776D01*
X105179948Y-98885411D01*
X105205557Y-98890505D01*
X105275845Y-98925167D01*
X105319385Y-98990330D01*
X105324511Y-99009458D01*
X105334192Y-99058128D01*
X105334192Y-99058129D01*
X105334193Y-99058130D01*
X105384828Y-99133912D01*
X105460610Y-99184547D01*
X105550000Y-99202328D01*
X105639390Y-99184547D01*
X105639390Y-99184546D01*
X105640933Y-99184240D01*
X105719136Y-99189366D01*
X105784298Y-99232906D01*
X105818961Y-99303194D01*
X105821870Y-99332731D01*
X105821870Y-100235303D01*
X105801586Y-100311003D01*
X105777526Y-100342359D01*
X104498078Y-101621806D01*
X104483539Y-101656907D01*
X104469450Y-101690923D01*
X104469000Y-101692009D01*
X104469000Y-103837993D01*
X104471649Y-103851311D01*
X104472258Y-103907137D01*
X104469990Y-103919999D01*
X104469990Y-103920000D01*
X104488685Y-104026029D01*
X104500678Y-104046801D01*
X104520961Y-104122501D01*
X104500678Y-104198199D01*
X104488685Y-104218970D01*
X104469990Y-104324998D01*
X104469990Y-104325000D01*
X104470976Y-104330596D01*
X104464147Y-104408666D01*
X104419197Y-104472864D01*
X104348169Y-104505986D01*
X104321877Y-104508286D01*
X104307581Y-104508286D01*
X104206409Y-104545109D01*
X104206408Y-104545109D01*
X104206407Y-104545110D01*
X104123934Y-104614313D01*
X104070099Y-104707557D01*
X104051404Y-104813585D01*
X104051404Y-104813586D01*
X104070099Y-104919614D01*
X104070099Y-104919615D01*
X104070100Y-104919616D01*
X104087642Y-104950000D01*
X104123934Y-105012858D01*
X104126070Y-105014650D01*
X104206409Y-105082063D01*
X104307581Y-105118886D01*
X104307583Y-105118886D01*
X104387109Y-105118886D01*
X104462809Y-105139170D01*
X104518225Y-105194586D01*
X104538509Y-105270286D01*
X104529377Y-105322071D01*
X104528685Y-105323969D01*
X104509990Y-105429999D01*
X104509990Y-105430000D01*
X104528685Y-105536028D01*
X104528685Y-105536029D01*
X104528686Y-105536030D01*
X104575215Y-105616621D01*
X104595499Y-105692319D01*
X104575216Y-105768019D01*
X104575215Y-105768020D01*
X104548686Y-105813969D01*
X104548685Y-105813970D01*
X104529990Y-105919999D01*
X104529990Y-105920000D01*
X104548685Y-106026028D01*
X104548685Y-106026029D01*
X104548686Y-106026030D01*
X104602519Y-106119271D01*
X104684995Y-106188477D01*
X104786167Y-106225300D01*
X104786169Y-106225300D01*
X104893831Y-106225300D01*
X104893833Y-106225300D01*
X104995005Y-106188477D01*
X105045125Y-106146420D01*
X105116153Y-106113300D01*
X105142443Y-106111000D01*
X108530688Y-106111000D01*
X108530689Y-106111000D01*
X108600890Y-106081922D01*
X111507811Y-103175000D01*
X112026386Y-103175000D01*
X112043954Y-103263323D01*
X112044167Y-103264390D01*
X112094802Y-103340172D01*
X112170584Y-103390807D01*
X112259974Y-103408588D01*
X112349364Y-103390807D01*
X112425146Y-103340172D01*
X112475781Y-103264390D01*
X112493562Y-103175000D01*
X112475781Y-103085610D01*
X112425146Y-103009828D01*
X112349364Y-102959193D01*
X112349361Y-102959192D01*
X112259974Y-102941412D01*
X112170584Y-102959192D01*
X112101706Y-103005214D01*
X112094261Y-103007740D01*
X112090188Y-103016732D01*
X112044166Y-103085610D01*
X112026386Y-103175000D01*
X111507811Y-103175000D01*
X111857248Y-102825563D01*
X111883007Y-102810691D01*
X111910536Y-102772275D01*
X112241022Y-102441790D01*
X112270100Y-102371589D01*
X112270100Y-102295605D01*
X112270100Y-101948411D01*
X112241022Y-101878210D01*
X112194944Y-101832132D01*
X112155759Y-101764261D01*
X112150600Y-101725076D01*
X112150600Y-101658515D01*
X112557897Y-101658515D01*
X112575102Y-101745012D01*
X112575678Y-101747905D01*
X112626313Y-101823687D01*
X112702095Y-101874322D01*
X112791485Y-101892103D01*
X112791485Y-101892102D01*
X112794815Y-101892765D01*
X112865104Y-101927427D01*
X112908644Y-101992589D01*
X112913770Y-102011719D01*
X112933319Y-102110000D01*
X112934193Y-102114390D01*
X112984828Y-102190172D01*
X113060610Y-102240807D01*
X113150000Y-102258588D01*
X113239390Y-102240807D01*
X113315172Y-102190172D01*
X113365807Y-102114390D01*
X113383588Y-102025000D01*
X113365807Y-101935610D01*
X113315172Y-101859828D01*
X113239390Y-101809193D01*
X113239387Y-101809192D01*
X113146668Y-101790749D01*
X113076380Y-101756086D01*
X113032840Y-101690923D01*
X113027714Y-101671794D01*
X113025073Y-101658515D01*
X113007292Y-101569125D01*
X112956657Y-101493343D01*
X112880875Y-101442708D01*
X112880872Y-101442707D01*
X112791485Y-101424927D01*
X112702097Y-101442707D01*
X112702095Y-101442707D01*
X112702095Y-101442708D01*
X112626313Y-101493343D01*
X112581388Y-101560580D01*
X112575677Y-101569127D01*
X112557897Y-101658515D01*
X112150600Y-101658515D01*
X112150600Y-101056700D01*
X112170884Y-100981000D01*
X112226300Y-100925584D01*
X112302000Y-100905300D01*
X112353831Y-100905300D01*
X112353833Y-100905300D01*
X112455005Y-100868477D01*
X112537481Y-100799271D01*
X112591314Y-100706030D01*
X112610010Y-100600000D01*
X112607130Y-100583669D01*
X112600644Y-100546885D01*
X112591314Y-100493970D01*
X112537481Y-100400729D01*
X112534698Y-100398394D01*
X112455006Y-100331524D01*
X112455005Y-100331523D01*
X112353833Y-100294700D01*
X112302000Y-100294700D01*
X112226300Y-100274416D01*
X112170884Y-100219000D01*
X112150600Y-100143300D01*
X112150600Y-98060000D01*
X112462742Y-98060000D01*
X112482822Y-98173878D01*
X112506027Y-98214070D01*
X112540637Y-98274019D01*
X112540638Y-98274020D01*
X112540639Y-98274021D01*
X112629221Y-98348350D01*
X112629222Y-98348350D01*
X112629223Y-98348351D01*
X112737882Y-98387900D01*
X112853517Y-98387900D01*
X112853518Y-98387900D01*
X112962179Y-98348350D01*
X113050761Y-98274021D01*
X113108578Y-98173878D01*
X113128658Y-98060000D01*
X113108578Y-97946122D01*
X113050761Y-97845979D01*
X112962179Y-97771650D01*
X112962177Y-97771649D01*
X112962176Y-97771648D01*
X112853519Y-97732100D01*
X112853518Y-97732100D01*
X112737882Y-97732100D01*
X112737881Y-97732100D01*
X112629223Y-97771648D01*
X112540637Y-97845980D01*
X112482821Y-97946124D01*
X112470646Y-98015172D01*
X112462742Y-98060000D01*
X112150600Y-98060000D01*
X112150600Y-96389475D01*
X114537762Y-96389475D01*
X114557541Y-96501650D01*
X114557842Y-96503353D01*
X114584672Y-96549826D01*
X114615657Y-96603494D01*
X114615658Y-96603495D01*
X114615659Y-96603496D01*
X114704241Y-96677825D01*
X114704242Y-96677825D01*
X114704243Y-96677826D01*
X114812902Y-96717375D01*
X114928537Y-96717375D01*
X114928538Y-96717375D01*
X115037199Y-96677825D01*
X115125781Y-96603496D01*
X115183598Y-96503353D01*
X115203678Y-96389475D01*
X115183598Y-96275597D01*
X115125781Y-96175454D01*
X115037199Y-96101125D01*
X115037197Y-96101124D01*
X115037196Y-96101123D01*
X114928539Y-96061575D01*
X114928538Y-96061575D01*
X114812902Y-96061575D01*
X114812901Y-96061575D01*
X114704243Y-96101123D01*
X114615657Y-96175455D01*
X114557841Y-96275599D01*
X114537762Y-96389475D01*
X112150600Y-96389475D01*
X112150600Y-95878740D01*
X113646412Y-95878740D01*
X113664193Y-95968130D01*
X113714828Y-96043912D01*
X113790610Y-96094547D01*
X113880000Y-96112328D01*
X113969390Y-96094547D01*
X114045172Y-96043912D01*
X114095807Y-95968130D01*
X114113588Y-95878740D01*
X114095807Y-95789350D01*
X114045172Y-95713568D01*
X113969390Y-95662933D01*
X113969387Y-95662932D01*
X113880000Y-95645152D01*
X113790612Y-95662932D01*
X113790610Y-95662932D01*
X113790610Y-95662933D01*
X113714828Y-95713568D01*
X113664192Y-95789352D01*
X113646412Y-95878740D01*
X112150600Y-95878740D01*
X112150600Y-93982227D01*
X112170884Y-93906527D01*
X112194944Y-93875171D01*
X112940727Y-93129388D01*
X113761922Y-92308193D01*
X113791000Y-92237992D01*
X113791000Y-92162008D01*
X113791000Y-88166827D01*
X113811284Y-88091127D01*
X113835344Y-88059771D01*
X113864315Y-88030800D01*
X114209522Y-87685593D01*
X114237867Y-87617161D01*
X114285572Y-87554988D01*
X114357977Y-87524996D01*
X114429521Y-87532830D01*
X114516423Y-87564460D01*
X114624087Y-87564460D01*
X114624089Y-87564460D01*
X114725261Y-87527637D01*
X114807737Y-87458431D01*
X114861570Y-87365190D01*
X114880266Y-87259160D01*
X114861570Y-87153130D01*
X114861569Y-87153128D01*
X114861282Y-87152630D01*
X114860984Y-87151520D01*
X114857040Y-87140682D01*
X114857988Y-87140336D01*
X114841000Y-87076933D01*
X114841000Y-86668998D01*
X114861284Y-86593298D01*
X114885344Y-86561942D01*
X114941987Y-86505299D01*
X115000978Y-86446307D01*
X115068846Y-86407124D01*
X115147217Y-86407124D01*
X115205349Y-86437385D01*
X115241154Y-86467428D01*
X115257515Y-86481157D01*
X115358687Y-86517980D01*
X115384993Y-86517980D01*
X115460693Y-86538264D01*
X115492049Y-86562324D01*
X115601118Y-86671393D01*
X115654847Y-86725122D01*
X115725048Y-86754200D01*
X115898474Y-86754200D01*
X115974174Y-86774484D01*
X116029590Y-86829900D01*
X116049874Y-86905600D01*
X116029590Y-86981300D01*
X115995795Y-87021576D01*
X115969106Y-87043971D01*
X115963455Y-87048713D01*
X115909621Y-87141955D01*
X115890926Y-87247983D01*
X115890926Y-87247984D01*
X115909621Y-87354012D01*
X115909621Y-87354013D01*
X115909622Y-87354014D01*
X115940009Y-87406646D01*
X115963456Y-87447256D01*
X115971971Y-87457404D01*
X115968861Y-87460012D01*
X115999852Y-87504239D01*
X116009000Y-87556070D01*
X116009000Y-88030800D01*
X115988716Y-88106500D01*
X115933300Y-88161916D01*
X115871461Y-88178485D01*
X115871711Y-88179900D01*
X115858670Y-88182199D01*
X115858667Y-88182200D01*
X115757495Y-88219023D01*
X115757494Y-88219023D01*
X115757493Y-88219024D01*
X115675020Y-88288227D01*
X115621185Y-88381471D01*
X115602490Y-88487499D01*
X115602490Y-88487500D01*
X115621185Y-88593528D01*
X115675020Y-88686772D01*
X115683535Y-88696920D01*
X115680671Y-88699322D01*
X115712365Y-88744579D01*
X115721500Y-88796372D01*
X115721500Y-90554508D01*
X115721500Y-90630492D01*
X115729972Y-90650945D01*
X115750578Y-90700693D01*
X115934656Y-90884771D01*
X115973841Y-90952642D01*
X115979000Y-90991827D01*
X115979000Y-93912781D01*
X115958716Y-93988481D01*
X115903300Y-94043897D01*
X115827600Y-94064181D01*
X115751900Y-94043897D01*
X115720544Y-94019837D01*
X115425519Y-93724812D01*
X115386334Y-93656941D01*
X115386334Y-93578571D01*
X115390323Y-93566819D01*
X115390805Y-93564391D01*
X115390807Y-93564390D01*
X115408588Y-93475000D01*
X115390807Y-93385610D01*
X115348907Y-93322902D01*
X115323718Y-93248691D01*
X115339008Y-93171827D01*
X115348903Y-93154688D01*
X115365807Y-93129390D01*
X115383588Y-93040000D01*
X115365807Y-92950610D01*
X115337694Y-92908535D01*
X115312504Y-92834326D01*
X115327794Y-92757462D01*
X115356527Y-92717366D01*
X115365165Y-92708726D01*
X115365172Y-92708722D01*
X115415807Y-92632940D01*
X115433588Y-92543550D01*
X115415807Y-92454160D01*
X115365172Y-92378378D01*
X115365171Y-92378377D01*
X115356887Y-92365979D01*
X115359987Y-92363907D01*
X115333487Y-92318007D01*
X115333487Y-92239637D01*
X115353841Y-92194714D01*
X115390807Y-92139390D01*
X115408588Y-92050000D01*
X115390807Y-91960610D01*
X115340172Y-91884828D01*
X115264390Y-91834193D01*
X115264387Y-91834192D01*
X115175000Y-91816412D01*
X115085612Y-91834192D01*
X115085610Y-91834192D01*
X115085610Y-91834193D01*
X115009828Y-91884828D01*
X114967992Y-91947442D01*
X114959192Y-91960612D01*
X114941412Y-92050000D01*
X114945997Y-92073053D01*
X114959193Y-92139390D01*
X114996155Y-92194708D01*
X115018113Y-92227571D01*
X115015012Y-92229642D01*
X115041512Y-92275542D01*
X115041512Y-92353912D01*
X115021157Y-92398837D01*
X114995311Y-92437521D01*
X114984192Y-92454162D01*
X114963908Y-92556140D01*
X114929246Y-92626429D01*
X114864083Y-92669969D01*
X114815417Y-92678004D01*
X114804937Y-92678004D01*
X114697271Y-92678004D01*
X114596099Y-92714827D01*
X114596098Y-92714827D01*
X114596097Y-92714828D01*
X114513624Y-92784031D01*
X114459789Y-92877275D01*
X114441094Y-92983303D01*
X114441094Y-92983304D01*
X114459789Y-93089332D01*
X114459789Y-93089333D01*
X114459790Y-93089334D01*
X114494573Y-93149580D01*
X114513624Y-93182576D01*
X114522139Y-93192724D01*
X114519275Y-93195126D01*
X114550969Y-93240383D01*
X114560104Y-93292176D01*
X114560104Y-93358504D01*
X114589182Y-93428705D01*
X114950866Y-93790389D01*
X114990051Y-93858260D01*
X114990051Y-93936630D01*
X114983688Y-93955377D01*
X114978489Y-93967930D01*
X114977203Y-93967397D01*
X114949840Y-94022885D01*
X114884677Y-94066424D01*
X114806474Y-94071548D01*
X114736186Y-94036885D01*
X114731679Y-94032280D01*
X114726074Y-94027577D01*
X114643601Y-93958373D01*
X114542429Y-93921550D01*
X114434763Y-93921550D01*
X114333591Y-93958373D01*
X114333590Y-93958373D01*
X114333589Y-93958374D01*
X114251116Y-94027577D01*
X114197281Y-94120821D01*
X114178586Y-94226849D01*
X114178586Y-94226850D01*
X114197281Y-94332878D01*
X114251116Y-94426122D01*
X114259631Y-94436270D01*
X114256223Y-94439129D01*
X114286375Y-94482234D01*
X114293168Y-94560309D01*
X114269968Y-94618058D01*
X114247554Y-94651605D01*
X114246469Y-94650880D01*
X114208604Y-94700225D01*
X114136198Y-94730213D01*
X114058499Y-94719981D01*
X114041958Y-94711824D01*
X113932819Y-94672100D01*
X113932818Y-94672100D01*
X113817182Y-94672100D01*
X113817181Y-94672100D01*
X113708523Y-94711648D01*
X113619937Y-94785980D01*
X113578241Y-94858203D01*
X113564216Y-94882496D01*
X113562121Y-94886124D01*
X113542042Y-95000000D01*
X113562034Y-95113382D01*
X113562122Y-95113878D01*
X113572005Y-95130996D01*
X113619937Y-95214019D01*
X113619938Y-95214020D01*
X113619939Y-95214021D01*
X113708521Y-95288350D01*
X113708522Y-95288350D01*
X113708523Y-95288351D01*
X113817182Y-95327900D01*
X113932817Y-95327900D01*
X113932818Y-95327900D01*
X114041479Y-95288350D01*
X114130061Y-95214021D01*
X114187878Y-95113878D01*
X114196464Y-95065183D01*
X114229584Y-94994156D01*
X114293782Y-94949205D01*
X114371854Y-94942374D01*
X114375101Y-94942983D01*
X114382252Y-94944405D01*
X114382253Y-94944406D01*
X114471643Y-94962187D01*
X114561033Y-94944406D01*
X114636815Y-94893771D01*
X114672487Y-94840383D01*
X114969204Y-94840383D01*
X114976586Y-94858203D01*
X114975792Y-94882496D01*
X114976980Y-94882496D01*
X114976980Y-94897407D01*
X114989865Y-94962187D01*
X114994761Y-94986798D01*
X115045396Y-95062580D01*
X115121178Y-95113215D01*
X115210568Y-95130996D01*
X115299958Y-95113215D01*
X115375740Y-95062580D01*
X115426375Y-94986798D01*
X115434109Y-94947916D01*
X115457964Y-94899541D01*
X115451484Y-94893061D01*
X115434109Y-94846898D01*
X115426547Y-94808883D01*
X115426375Y-94808018D01*
X115375740Y-94732236D01*
X115299958Y-94681601D01*
X115299955Y-94681600D01*
X115210568Y-94663820D01*
X115121180Y-94681600D01*
X115121178Y-94681600D01*
X115121178Y-94681601D01*
X115045396Y-94732236D01*
X114994761Y-94808018D01*
X114994760Y-94808019D01*
X114986478Y-94820416D01*
X114985189Y-94819555D01*
X114969204Y-94840383D01*
X114672487Y-94840383D01*
X114687450Y-94817989D01*
X114687450Y-94817986D01*
X114695733Y-94805591D01*
X114697021Y-94806451D01*
X114713006Y-94785620D01*
X114705622Y-94767788D01*
X114706421Y-94743511D01*
X114705231Y-94743511D01*
X114705231Y-94728599D01*
X114696549Y-94684952D01*
X114687450Y-94639209D01*
X114685499Y-94636290D01*
X114682132Y-94626371D01*
X114681745Y-94625436D01*
X114681806Y-94625410D01*
X114660308Y-94562083D01*
X114675596Y-94485219D01*
X114714066Y-94436199D01*
X114726077Y-94426121D01*
X114779910Y-94332880D01*
X114786228Y-94297045D01*
X114819347Y-94226018D01*
X114883543Y-94181066D01*
X114961615Y-94174234D01*
X115021332Y-94202078D01*
X115022429Y-94200437D01*
X115034827Y-94208721D01*
X115034828Y-94208722D01*
X115110610Y-94259357D01*
X115200000Y-94277138D01*
X115289390Y-94259357D01*
X115289390Y-94259356D01*
X115304015Y-94256448D01*
X115304272Y-94257744D01*
X115365858Y-94249633D01*
X115438264Y-94279620D01*
X115453160Y-94292683D01*
X115689656Y-94529179D01*
X115728841Y-94597050D01*
X115734000Y-94636235D01*
X115734000Y-94817361D01*
X115713716Y-94893061D01*
X115706748Y-94900028D01*
X115725965Y-94928788D01*
X115734000Y-94977454D01*
X115734000Y-97705895D01*
X115713716Y-97781595D01*
X115689656Y-97812951D01*
X114574448Y-98928158D01*
X114506577Y-98967343D01*
X114428207Y-98967343D01*
X114360336Y-98928158D01*
X114321151Y-98860287D01*
X114318292Y-98794812D01*
X114318440Y-98793971D01*
X114335010Y-98700000D01*
X114331562Y-98680448D01*
X114316314Y-98593971D01*
X114316314Y-98593970D01*
X114262481Y-98500729D01*
X114180005Y-98431523D01*
X114078833Y-98394700D01*
X113971167Y-98394700D01*
X113869995Y-98431523D01*
X113869994Y-98431523D01*
X113869993Y-98431524D01*
X113787520Y-98500727D01*
X113733685Y-98593971D01*
X113714990Y-98699999D01*
X113714990Y-98700000D01*
X113733685Y-98806028D01*
X113733685Y-98806029D01*
X113733686Y-98806030D01*
X113777272Y-98881523D01*
X113787520Y-98899272D01*
X113805448Y-98914315D01*
X113869995Y-98968477D01*
X113971167Y-99005300D01*
X113971169Y-99005300D01*
X114078832Y-99005300D01*
X114078833Y-99005300D01*
X114095043Y-98999399D01*
X114173114Y-98992569D01*
X114244142Y-99025689D01*
X114289094Y-99089886D01*
X114295925Y-99167958D01*
X114262805Y-99238986D01*
X114253881Y-99248725D01*
X114052507Y-99450100D01*
X113998778Y-99503828D01*
X113969700Y-99574031D01*
X113969700Y-104225202D01*
X113949416Y-104300902D01*
X113894000Y-104356318D01*
X113818300Y-104376602D01*
X113742600Y-104356318D01*
X113692415Y-104309314D01*
X113673843Y-104281519D01*
X113673842Y-104281518D01*
X113598060Y-104230883D01*
X113598057Y-104230882D01*
X113508670Y-104213102D01*
X113419282Y-104230882D01*
X113419280Y-104230882D01*
X113419280Y-104230883D01*
X113343498Y-104281518D01*
X113307181Y-104335872D01*
X113292862Y-104357302D01*
X113275082Y-104446690D01*
X113292862Y-104536079D01*
X113343976Y-104612579D01*
X113369166Y-104686791D01*
X113353875Y-104763655D01*
X113343976Y-104780801D01*
X113292862Y-104857300D01*
X113275082Y-104946690D01*
X113292862Y-105036079D01*
X113343976Y-105112579D01*
X113369166Y-105186791D01*
X113353875Y-105263655D01*
X113343976Y-105280801D01*
X113292862Y-105357300D01*
X113275082Y-105446690D01*
X113292862Y-105536079D01*
X113343976Y-105612579D01*
X113369166Y-105686791D01*
X113353875Y-105763655D01*
X113343976Y-105780801D01*
X113292862Y-105857300D01*
X113275082Y-105946690D01*
X113290863Y-106026028D01*
X113292863Y-106036080D01*
X113343498Y-106111862D01*
X113419280Y-106162497D01*
X113464430Y-106171478D01*
X113515343Y-106196585D01*
X113550112Y-106173354D01*
X113569222Y-106168233D01*
X113598060Y-106162497D01*
X113673842Y-106111862D01*
X113724477Y-106036080D01*
X113742258Y-105946690D01*
X113724477Y-105857300D01*
X113724477Y-105857299D01*
X113673364Y-105780802D01*
X113648173Y-105706590D01*
X113663463Y-105629726D01*
X113673364Y-105612578D01*
X113724477Y-105536080D01*
X113742258Y-105446689D01*
X113742258Y-105431778D01*
X113744187Y-105431778D01*
X113748100Y-105372087D01*
X113791640Y-105306924D01*
X113861928Y-105272262D01*
X113940131Y-105277388D01*
X114005294Y-105320928D01*
X114022580Y-105345052D01*
X114050019Y-105392577D01*
X114132495Y-105461783D01*
X114233667Y-105498606D01*
X114233669Y-105498606D01*
X114341331Y-105498606D01*
X114341333Y-105498606D01*
X114442505Y-105461783D01*
X114524981Y-105392577D01*
X114578814Y-105299336D01*
X114597510Y-105193306D01*
X114578814Y-105087276D01*
X114524981Y-104994035D01*
X114472502Y-104950000D01*
X114442504Y-104924828D01*
X114431032Y-104918205D01*
X114432829Y-104915091D01*
X114387113Y-104883076D01*
X114353998Y-104812045D01*
X114351700Y-104785767D01*
X114351700Y-103925260D01*
X114966412Y-103925260D01*
X114975136Y-103969121D01*
X114984193Y-104014650D01*
X115034828Y-104090432D01*
X115043113Y-104102831D01*
X115040800Y-104104376D01*
X115069095Y-104153385D01*
X115069095Y-104231755D01*
X115048740Y-104276681D01*
X115009192Y-104335870D01*
X114991412Y-104425260D01*
X115007469Y-104505986D01*
X115009193Y-104514650D01*
X115059828Y-104590432D01*
X115068113Y-104602831D01*
X115065800Y-104604376D01*
X115094095Y-104653385D01*
X115094095Y-104731755D01*
X115073740Y-104776681D01*
X115034192Y-104835870D01*
X115016412Y-104925260D01*
X115034192Y-105014649D01*
X115073740Y-105073838D01*
X115098930Y-105148049D01*
X115083640Y-105224914D01*
X115067576Y-105247330D01*
X115068113Y-105247689D01*
X115059828Y-105260087D01*
X115059828Y-105260088D01*
X115009193Y-105335870D01*
X115009192Y-105335872D01*
X114991412Y-105425260D01*
X115009192Y-105514649D01*
X115060306Y-105591149D01*
X115085496Y-105665361D01*
X115070205Y-105742225D01*
X115060306Y-105759371D01*
X115009192Y-105835870D01*
X114991412Y-105925260D01*
X115008462Y-106010979D01*
X115009193Y-106014650D01*
X115059828Y-106090432D01*
X115135610Y-106141067D01*
X115225000Y-106158848D01*
X115314390Y-106141067D01*
X115390172Y-106090432D01*
X115440807Y-106014650D01*
X115458588Y-105925260D01*
X115440807Y-105835870D01*
X115440807Y-105835869D01*
X115389694Y-105759372D01*
X115364503Y-105685160D01*
X115379793Y-105608296D01*
X115389694Y-105591148D01*
X115440807Y-105514650D01*
X115443998Y-105498606D01*
X115458588Y-105425260D01*
X115440807Y-105335870D01*
X115401258Y-105276680D01*
X115376069Y-105202470D01*
X115391359Y-105125606D01*
X115407424Y-105103190D01*
X115406887Y-105102831D01*
X115415170Y-105090432D01*
X115415172Y-105090432D01*
X115465807Y-105014650D01*
X115483588Y-104925260D01*
X115465807Y-104835870D01*
X115415172Y-104760088D01*
X115415171Y-104760087D01*
X115406887Y-104747689D01*
X115409199Y-104746143D01*
X115380904Y-104697134D01*
X115380904Y-104618764D01*
X115401258Y-104573840D01*
X115440807Y-104514650D01*
X115458588Y-104425260D01*
X115440807Y-104335870D01*
X115390172Y-104260088D01*
X115390171Y-104260087D01*
X115381887Y-104247689D01*
X115384199Y-104246143D01*
X115355904Y-104197134D01*
X115355904Y-104118764D01*
X115376258Y-104073840D01*
X115415807Y-104014650D01*
X115433588Y-103925260D01*
X115415807Y-103835870D01*
X115365172Y-103760088D01*
X115289390Y-103709453D01*
X115289387Y-103709452D01*
X115200000Y-103691672D01*
X115110612Y-103709452D01*
X115110610Y-103709452D01*
X115110610Y-103709453D01*
X115034828Y-103760088D01*
X114984192Y-103835872D01*
X114966412Y-103925260D01*
X114351700Y-103925260D01*
X114351700Y-103320000D01*
X115896412Y-103320000D01*
X115910496Y-103390807D01*
X115914193Y-103409390D01*
X115964828Y-103485172D01*
X116040610Y-103535807D01*
X116130000Y-103553588D01*
X116219390Y-103535807D01*
X116295172Y-103485172D01*
X116345807Y-103409390D01*
X116363588Y-103320000D01*
X116345807Y-103230610D01*
X116295172Y-103154828D01*
X116219390Y-103104193D01*
X116219387Y-103104192D01*
X116130000Y-103086412D01*
X116040612Y-103104192D01*
X116040610Y-103104192D01*
X116040610Y-103104193D01*
X115964828Y-103154828D01*
X115940693Y-103190950D01*
X115914192Y-103230612D01*
X115896412Y-103320000D01*
X114351700Y-103320000D01*
X114351700Y-99753848D01*
X114371984Y-99678148D01*
X114396040Y-99646796D01*
X115653488Y-98389347D01*
X115721357Y-98350164D01*
X115799727Y-98350164D01*
X115811479Y-98354153D01*
X115813909Y-98354636D01*
X115813910Y-98354637D01*
X115857135Y-98363235D01*
X115927424Y-98397897D01*
X115970965Y-98463059D01*
X115979000Y-98511726D01*
X115979000Y-101461127D01*
X115958716Y-101536827D01*
X115939716Y-101559473D01*
X115941035Y-101560580D01*
X115932520Y-101570727D01*
X115878685Y-101663971D01*
X115859990Y-101769999D01*
X115859990Y-101770000D01*
X115878685Y-101876028D01*
X115878685Y-101876029D01*
X115878686Y-101876030D01*
X115931188Y-101966966D01*
X115932520Y-101969272D01*
X115943015Y-101978078D01*
X116014995Y-102038477D01*
X116116167Y-102075300D01*
X116116169Y-102075300D01*
X116223831Y-102075300D01*
X116223833Y-102075300D01*
X116325005Y-102038477D01*
X116390693Y-101983357D01*
X116461718Y-101950238D01*
X116539790Y-101957068D01*
X116572116Y-101973450D01*
X116590610Y-101985807D01*
X116652461Y-101998110D01*
X116664119Y-102000429D01*
X116734408Y-102035091D01*
X116777948Y-102100254D01*
X116783683Y-102122629D01*
X116796184Y-102193526D01*
X116796184Y-102193527D01*
X116796185Y-102193528D01*
X116847862Y-102283035D01*
X116850019Y-102286770D01*
X116856539Y-102292241D01*
X116932494Y-102355975D01*
X117033666Y-102392798D01*
X117059972Y-102392798D01*
X117135672Y-102413082D01*
X117167028Y-102437142D01*
X118699008Y-103969122D01*
X118769209Y-103998200D01*
X118845193Y-103998200D01*
X123356340Y-103998200D01*
X123432040Y-104018484D01*
X123487456Y-104073899D01*
X123488685Y-104076029D01*
X123488686Y-104076030D01*
X123517328Y-104125640D01*
X123537612Y-104201338D01*
X123517329Y-104277038D01*
X123478685Y-104343970D01*
X123459990Y-104449999D01*
X123459990Y-104450000D01*
X123478685Y-104556029D01*
X123478686Y-104556030D01*
X123523101Y-104632960D01*
X123543385Y-104708660D01*
X123523102Y-104784359D01*
X123488685Y-104843970D01*
X123469990Y-104949999D01*
X123469990Y-104950000D01*
X123488685Y-105056029D01*
X123488685Y-105056030D01*
X123544079Y-105151973D01*
X123564363Y-105227672D01*
X123544080Y-105303373D01*
X123535301Y-105315910D01*
X123478685Y-105413971D01*
X123459990Y-105519999D01*
X123459990Y-105520000D01*
X123478685Y-105626029D01*
X123478686Y-105626030D01*
X123505007Y-105671620D01*
X123525291Y-105747320D01*
X123505009Y-105823017D01*
X123498686Y-105833969D01*
X123498685Y-105833970D01*
X123479990Y-105939999D01*
X123479990Y-105940000D01*
X123498685Y-106046028D01*
X123498685Y-106046029D01*
X123498686Y-106046030D01*
X123552519Y-106139271D01*
X123634995Y-106208477D01*
X123736167Y-106245300D01*
X123736169Y-106245300D01*
X123806281Y-106245300D01*
X123881981Y-106265584D01*
X123937397Y-106321000D01*
X123954772Y-106367165D01*
X123959193Y-106389390D01*
X124009828Y-106465172D01*
X124085610Y-106515807D01*
X124175000Y-106533588D01*
X124264390Y-106515807D01*
X124340172Y-106465172D01*
X124390807Y-106389390D01*
X124408588Y-106300000D01*
X124393669Y-106225000D01*
X124738042Y-106225000D01*
X124754969Y-106321000D01*
X124758122Y-106338878D01*
X124784952Y-106385351D01*
X124815937Y-106439019D01*
X124815938Y-106439020D01*
X124815939Y-106439021D01*
X124904521Y-106513350D01*
X124904522Y-106513350D01*
X124904523Y-106513351D01*
X125013182Y-106552900D01*
X125128817Y-106552900D01*
X125128818Y-106552900D01*
X125237479Y-106513350D01*
X125326061Y-106439021D01*
X125383878Y-106338878D01*
X125403958Y-106225000D01*
X125383878Y-106111122D01*
X125334751Y-106026030D01*
X125326062Y-106010980D01*
X125241470Y-105939999D01*
X125237479Y-105936650D01*
X125237477Y-105936649D01*
X125237476Y-105936648D01*
X125128819Y-105897100D01*
X125128818Y-105897100D01*
X125013182Y-105897100D01*
X125013181Y-105897100D01*
X124904523Y-105936648D01*
X124815937Y-106010980D01*
X124783935Y-106066412D01*
X124758193Y-106111000D01*
X124758121Y-106111124D01*
X124738042Y-106225000D01*
X124393669Y-106225000D01*
X124390807Y-106210610D01*
X124340172Y-106134828D01*
X124340170Y-106134827D01*
X124340170Y-106134826D01*
X124329627Y-106124283D01*
X124333014Y-106120895D01*
X124300708Y-106084032D01*
X124285445Y-106007162D01*
X124310661Y-105932960D01*
X124329456Y-105910065D01*
X126669122Y-103570401D01*
X126698200Y-103500200D01*
X126698200Y-103424216D01*
X126698200Y-93075971D01*
X126718484Y-93000271D01*
X126742544Y-92968915D01*
X126836631Y-92874828D01*
X126932022Y-92779437D01*
X126961100Y-92709236D01*
X126961100Y-92633252D01*
X126961100Y-85037008D01*
X126961100Y-83345004D01*
X126932022Y-83274803D01*
X126878293Y-83221074D01*
X122763097Y-79105878D01*
X122692896Y-79076800D01*
X115478406Y-79076800D01*
X115402422Y-79076800D01*
X115367321Y-79091339D01*
X115332220Y-79105878D01*
X115173743Y-79264355D01*
X115161410Y-79279382D01*
X114726324Y-79714470D01*
X114658454Y-79753655D01*
X114619268Y-79758814D01*
X114590267Y-79758814D01*
X114489095Y-79795637D01*
X114489094Y-79795637D01*
X114489093Y-79795638D01*
X114406620Y-79864841D01*
X114352785Y-79958085D01*
X114350488Y-79971116D01*
X114317367Y-80042143D01*
X114253169Y-80087095D01*
X114175097Y-80093925D01*
X114104070Y-80060804D01*
X114070272Y-80020526D01*
X114068254Y-80017030D01*
X114014421Y-79923789D01*
X114005138Y-79916000D01*
X113931946Y-79854584D01*
X113931945Y-79854583D01*
X113830773Y-79817760D01*
X113723107Y-79817760D01*
X113621935Y-79854583D01*
X113621934Y-79854583D01*
X113621933Y-79854584D01*
X113539460Y-79923787D01*
X113485625Y-80017031D01*
X113466679Y-80124482D01*
X113433558Y-80195510D01*
X113424635Y-80205248D01*
X112187007Y-81442878D01*
X112133278Y-81496606D01*
X112124947Y-81516720D01*
X112105481Y-81563717D01*
X112104200Y-81566809D01*
X112104200Y-82231972D01*
X112083916Y-82307672D01*
X112028500Y-82363088D01*
X111952800Y-82383372D01*
X111877100Y-82363088D01*
X111821684Y-82307672D01*
X111812925Y-82289910D01*
X111790623Y-82236068D01*
X111728266Y-82173711D01*
X111728259Y-82173705D01*
X110952305Y-81397751D01*
X110913120Y-81329880D01*
X110910261Y-81316985D01*
X110908218Y-81305400D01*
X110891314Y-81209530D01*
X110837481Y-81116289D01*
X110813262Y-81095967D01*
X110755006Y-81047084D01*
X110755005Y-81047083D01*
X110653833Y-81010260D01*
X110653832Y-81010260D01*
X110653829Y-81010259D01*
X110649409Y-81009480D01*
X110578381Y-80976359D01*
X110533430Y-80912161D01*
X110524300Y-80860380D01*
X110524300Y-80588679D01*
X110544584Y-80512979D01*
X110600000Y-80457563D01*
X110649417Y-80439578D01*
X110653825Y-80438800D01*
X110653833Y-80438800D01*
X110755005Y-80401977D01*
X110837481Y-80332771D01*
X110891314Y-80239530D01*
X110910010Y-80133500D01*
X110891314Y-80027470D01*
X110837481Y-79934229D01*
X110797557Y-79900729D01*
X110755006Y-79865024D01*
X110755005Y-79865023D01*
X110653833Y-79828200D01*
X110546167Y-79828200D01*
X110444995Y-79865023D01*
X110444994Y-79865023D01*
X110444993Y-79865024D01*
X110362520Y-79934227D01*
X110359072Y-79940200D01*
X110340956Y-79971578D01*
X110331116Y-79988621D01*
X110275699Y-80044037D01*
X110199999Y-80064320D01*
X110124299Y-80044036D01*
X110068884Y-79988621D01*
X110037481Y-79934229D01*
X109997557Y-79900729D01*
X109955006Y-79865024D01*
X109955005Y-79865023D01*
X109853833Y-79828200D01*
X109746167Y-79828200D01*
X109644995Y-79865023D01*
X109644994Y-79865023D01*
X109644993Y-79865024D01*
X109594875Y-79907079D01*
X109523847Y-79940200D01*
X109497557Y-79942500D01*
X109257914Y-79942500D01*
X109181930Y-79942500D01*
X109160388Y-79951423D01*
X109111728Y-79971578D01*
X103305878Y-85777428D01*
X103276800Y-85847631D01*
X103276800Y-89435133D01*
X103256516Y-89510833D01*
X103201100Y-89566249D01*
X103125400Y-89586533D01*
X103108450Y-89585581D01*
X103046880Y-89578644D01*
X102630000Y-89995524D01*
X102630000Y-89980272D01*
X102591940Y-89888386D01*
X102521614Y-89818060D01*
X102429728Y-89780000D01*
X102414472Y-89780000D01*
X102831353Y-89363118D01*
X102831354Y-89363118D01*
X102731399Y-89300312D01*
X102560219Y-89240414D01*
X102560216Y-89240413D01*
X102380000Y-89220108D01*
X102199783Y-89240413D01*
X102199780Y-89240414D01*
X102028603Y-89300311D01*
X102028597Y-89300314D01*
X101928645Y-89363118D01*
X101928645Y-89363119D01*
X102345526Y-89780000D01*
X102330272Y-89780000D01*
X102238386Y-89818060D01*
X102168060Y-89888386D01*
X102130000Y-89980272D01*
X102130000Y-89995526D01*
X101661563Y-89527089D01*
X101664814Y-89523837D01*
X101644412Y-89506657D01*
X101617737Y-89432966D01*
X101617185Y-89419866D01*
X101619971Y-87256008D01*
X101640351Y-87180338D01*
X101695839Y-87124993D01*
X101771565Y-87104807D01*
X101847239Y-87125188D01*
X101871760Y-87142877D01*
X101926387Y-87191272D01*
X102066778Y-87264956D01*
X102220724Y-87302900D01*
X102220727Y-87302900D01*
X102379273Y-87302900D01*
X102379276Y-87302900D01*
X102533222Y-87264956D01*
X102673613Y-87191272D01*
X102792292Y-87086132D01*
X102882360Y-86955646D01*
X102896025Y-86919616D01*
X102938582Y-86807403D01*
X102938584Y-86807395D01*
X102947149Y-86736860D01*
X102953585Y-86683847D01*
X102957695Y-86650001D01*
X102957695Y-86649998D01*
X102940126Y-86505300D01*
X102938584Y-86492603D01*
X102938583Y-86492601D01*
X102938582Y-86492596D01*
X102882362Y-86344358D01*
X102882359Y-86344353D01*
X102864659Y-86318710D01*
X102792292Y-86213868D01*
X102673613Y-86108728D01*
X102673611Y-86108727D01*
X102673610Y-86108726D01*
X102533223Y-86035044D01*
X102494525Y-86025506D01*
X102379276Y-85997100D01*
X102220724Y-85997100D01*
X102150113Y-86014504D01*
X102066776Y-86035044D01*
X101926387Y-86108727D01*
X101873328Y-86155733D01*
X101803215Y-86190748D01*
X101724988Y-86186015D01*
X101659607Y-86142802D01*
X101624592Y-86072689D01*
X101621533Y-86042219D01*
X101624957Y-83383272D01*
X101638990Y-83319810D01*
X101640432Y-83316700D01*
X103931303Y-78373240D01*
X103981535Y-78313087D01*
X104055115Y-78286108D01*
X104068669Y-78285500D01*
X125315998Y-78285500D01*
X125391698Y-78305784D01*
G37*
G04 #@! TD.AperFunction*
G04 #@! TA.AperFunction,Conductor*
G36*
X106082326Y-101007427D02*
G01*
X106121511Y-101075298D01*
X106126670Y-101114483D01*
X106126670Y-103142674D01*
X106106386Y-103218374D01*
X106082326Y-103249730D01*
X105491546Y-103840509D01*
X105423675Y-103879694D01*
X105345305Y-103879694D01*
X105277434Y-103840509D01*
X105245150Y-103784591D01*
X105243406Y-103785314D01*
X105237700Y-103771538D01*
X105237700Y-103771537D01*
X105208622Y-103701336D01*
X105154893Y-103647607D01*
X105047744Y-103540458D01*
X105008559Y-103472587D01*
X105003400Y-103433402D01*
X105003400Y-101934953D01*
X105023684Y-101859253D01*
X105047744Y-101827897D01*
X105868214Y-101007427D01*
X105936085Y-100968242D01*
X106014455Y-100968242D01*
X106082326Y-101007427D01*
G37*
G04 #@! TD.AperFunction*
G04 #@! TA.AperFunction,Conductor*
G36*
X111114656Y-91879571D02*
G01*
X111153841Y-91947442D01*
X111159000Y-91986627D01*
X111159000Y-101298173D01*
X111138716Y-101373873D01*
X111114656Y-101405229D01*
X110729529Y-101790356D01*
X110661658Y-101829541D01*
X110622473Y-101834700D01*
X110596167Y-101834700D01*
X110494995Y-101871523D01*
X110444807Y-101913635D01*
X110373781Y-101946755D01*
X110295709Y-101939924D01*
X110263382Y-101923542D01*
X110249390Y-101914193D01*
X110249389Y-101914192D01*
X110249388Y-101914192D01*
X110160000Y-101896412D01*
X110070612Y-101914192D01*
X110070610Y-101914192D01*
X110070610Y-101914193D01*
X109994828Y-101964828D01*
X109994827Y-101964828D01*
X109982429Y-101973113D01*
X109980684Y-101970501D01*
X109932839Y-101998118D01*
X109854469Y-101998110D01*
X109809558Y-101977759D01*
X109805172Y-101974828D01*
X109729390Y-101924193D01*
X109729387Y-101924192D01*
X109640000Y-101906412D01*
X109550611Y-101924192D01*
X109539828Y-101931397D01*
X109489795Y-101964828D01*
X109486595Y-101966966D01*
X109412383Y-101992156D01*
X109335519Y-101976866D01*
X109318371Y-101966965D01*
X109239390Y-101914192D01*
X109150000Y-101896412D01*
X109060612Y-101914192D01*
X109060610Y-101914192D01*
X109060610Y-101914193D01*
X108986434Y-101963754D01*
X108912224Y-101988944D01*
X108835360Y-101973654D01*
X108818568Y-101961620D01*
X108817571Y-101963113D01*
X108805172Y-101954828D01*
X108729390Y-101904193D01*
X108729387Y-101904192D01*
X108640000Y-101886412D01*
X108550611Y-101904192D01*
X108528449Y-101919000D01*
X108486911Y-101946755D01*
X108486595Y-101946966D01*
X108412383Y-101972156D01*
X108335519Y-101956866D01*
X108318371Y-101946965D01*
X108239390Y-101894192D01*
X108150000Y-101876412D01*
X108060610Y-101894192D01*
X107979111Y-101948647D01*
X107904899Y-101973837D01*
X107828035Y-101958546D01*
X107810889Y-101948647D01*
X107729389Y-101894192D01*
X107640000Y-101876412D01*
X107550612Y-101894192D01*
X107550610Y-101894192D01*
X107550610Y-101894193D01*
X107474828Y-101944828D01*
X107474827Y-101944828D01*
X107462429Y-101953113D01*
X107460274Y-101949887D01*
X107414843Y-101976106D01*
X107336473Y-101976091D01*
X107291574Y-101955742D01*
X107229390Y-101914192D01*
X107140000Y-101896412D01*
X107050610Y-101914192D01*
X106989111Y-101955284D01*
X106914900Y-101980474D01*
X106838035Y-101965183D01*
X106820889Y-101955284D01*
X106759389Y-101914192D01*
X106670000Y-101896412D01*
X106660070Y-101896412D01*
X106584370Y-101876128D01*
X106528954Y-101820712D01*
X106508670Y-101745012D01*
X106508670Y-99227240D01*
X108989990Y-99227240D01*
X109008685Y-99333268D01*
X109008685Y-99333269D01*
X109008686Y-99333270D01*
X109062519Y-99426511D01*
X109144995Y-99495717D01*
X109246167Y-99532540D01*
X109246169Y-99532540D01*
X109353831Y-99532540D01*
X109353833Y-99532540D01*
X109455005Y-99495717D01*
X109537481Y-99426511D01*
X109591314Y-99333270D01*
X109599388Y-99287476D01*
X109632507Y-99216450D01*
X109696700Y-99171499D01*
X109705005Y-99168477D01*
X109787481Y-99099271D01*
X109841314Y-99006030D01*
X109860010Y-98900000D01*
X109859881Y-98899271D01*
X109843838Y-98808286D01*
X109841314Y-98793970D01*
X109787481Y-98700729D01*
X109786612Y-98700000D01*
X109705006Y-98631524D01*
X109705005Y-98631523D01*
X109603833Y-98594700D01*
X109496167Y-98594700D01*
X109394995Y-98631523D01*
X109394994Y-98631523D01*
X109394993Y-98631524D01*
X109312520Y-98700727D01*
X109258685Y-98793971D01*
X109250611Y-98839764D01*
X109217490Y-98910792D01*
X109153295Y-98955741D01*
X109144999Y-98958760D01*
X109144992Y-98958764D01*
X109062521Y-99027966D01*
X109062520Y-99027967D01*
X109008685Y-99121211D01*
X108989990Y-99227239D01*
X108989990Y-99227240D01*
X106508670Y-99227240D01*
X106508670Y-98214070D01*
X106528954Y-98138370D01*
X106584370Y-98082954D01*
X106624009Y-98068036D01*
X106629385Y-98065809D01*
X106629387Y-98065807D01*
X106629390Y-98065807D01*
X106705172Y-98015172D01*
X106755807Y-97939390D01*
X106773588Y-97850000D01*
X106755807Y-97760610D01*
X106705172Y-97684828D01*
X106629390Y-97634193D01*
X106629389Y-97634192D01*
X106629385Y-97634190D01*
X106615611Y-97628485D01*
X106616100Y-97627302D01*
X106560243Y-97599756D01*
X106516704Y-97534592D01*
X106508670Y-97485929D01*
X106508670Y-96334157D01*
X106528954Y-96258457D01*
X106553014Y-96227101D01*
X110900544Y-91879571D01*
X110968415Y-91840386D01*
X111046785Y-91840386D01*
X111114656Y-91879571D01*
G37*
G04 #@! TD.AperFunction*
G04 #@! TA.AperFunction,Conductor*
G36*
X124900256Y-97100932D02*
G01*
X124939441Y-97168803D01*
X124944600Y-97207988D01*
X124944600Y-101162900D01*
X124924316Y-101238600D01*
X124900256Y-101269956D01*
X124548156Y-101622056D01*
X124480285Y-101661241D01*
X124401915Y-101661241D01*
X124334044Y-101622056D01*
X124294859Y-101554185D01*
X124289700Y-101515000D01*
X124289700Y-101235908D01*
X124289700Y-101235907D01*
X124260622Y-101165706D01*
X124206893Y-101111977D01*
X124198263Y-101103347D01*
X124198263Y-101103346D01*
X124198254Y-101103339D01*
X124187739Y-101092823D01*
X124148557Y-101024950D01*
X124143400Y-100985772D01*
X124143400Y-97706388D01*
X124163684Y-97630688D01*
X124187744Y-97599332D01*
X124686144Y-97100932D01*
X124754015Y-97061747D01*
X124832385Y-97061747D01*
X124900256Y-97100932D01*
G37*
G04 #@! TD.AperFunction*
G04 #@! TA.AperFunction,Conductor*
G36*
X124411699Y-95113380D02*
G01*
X124467115Y-95168796D01*
X124487400Y-95244495D01*
X124487400Y-96265682D01*
X124467116Y-96341382D01*
X124443056Y-96372738D01*
X123929256Y-96886538D01*
X123861385Y-96925723D01*
X123783015Y-96925723D01*
X123715144Y-96886538D01*
X123675959Y-96818667D01*
X123670800Y-96779482D01*
X123670800Y-95521914D01*
X123691084Y-95446214D01*
X123746500Y-95390798D01*
X123822200Y-95370514D01*
X123832894Y-95371450D01*
X123840752Y-95371450D01*
X123956387Y-95371450D01*
X123956388Y-95371450D01*
X124065049Y-95331900D01*
X124153631Y-95257571D01*
X124204884Y-95168796D01*
X124260299Y-95113382D01*
X124335998Y-95093097D01*
X124411699Y-95113380D01*
G37*
G04 #@! TD.AperFunction*
G04 #@! TA.AperFunction,Conductor*
G36*
X109404592Y-83261284D02*
G01*
X109460008Y-83316700D01*
X109477992Y-83366109D01*
X109496487Y-83471002D01*
X109496487Y-83471003D01*
X109496488Y-83471004D01*
X109550321Y-83564245D01*
X109632797Y-83633451D01*
X109657486Y-83642437D01*
X109721683Y-83687386D01*
X109754805Y-83758413D01*
X109747976Y-83836485D01*
X109703026Y-83900683D01*
X109657493Y-83926974D01*
X109644996Y-83931522D01*
X109644993Y-83931524D01*
X109562520Y-84000727D01*
X109508685Y-84093971D01*
X109489739Y-84201422D01*
X109456618Y-84272450D01*
X109447695Y-84282188D01*
X108466807Y-85263078D01*
X108413078Y-85316806D01*
X108384000Y-85387009D01*
X108384000Y-86852121D01*
X108363716Y-86927821D01*
X108339656Y-86959177D01*
X106981848Y-88316984D01*
X106981848Y-88316985D01*
X106955138Y-88381471D01*
X106952770Y-88387187D01*
X106952770Y-88714403D01*
X106932486Y-88790103D01*
X106908426Y-88821459D01*
X106519948Y-89209936D01*
X106490870Y-89280139D01*
X106490870Y-89451303D01*
X106470586Y-89527003D01*
X106446526Y-89558359D01*
X104943914Y-91060970D01*
X104876043Y-91100155D01*
X104797673Y-91100155D01*
X104752749Y-91079801D01*
X104729390Y-91064193D01*
X104729389Y-91064192D01*
X104729388Y-91064192D01*
X104640000Y-91046412D01*
X104550612Y-91064192D01*
X104550610Y-91064192D01*
X104550610Y-91064193D01*
X104474828Y-91114828D01*
X104440829Y-91165713D01*
X104424192Y-91190612D01*
X104415891Y-91232346D01*
X104393921Y-91276895D01*
X104398516Y-91281490D01*
X104415891Y-91327654D01*
X104424193Y-91369390D01*
X104474828Y-91445172D01*
X104550610Y-91495807D01*
X104640000Y-91513588D01*
X104654912Y-91513588D01*
X104654912Y-91518105D01*
X104704752Y-91521343D01*
X104769940Y-91564845D01*
X104804644Y-91635113D01*
X104807570Y-91664737D01*
X104807570Y-91734677D01*
X104787286Y-91810377D01*
X104768286Y-91833023D01*
X104769605Y-91834130D01*
X104761090Y-91844277D01*
X104707255Y-91937521D01*
X104688560Y-92043549D01*
X104688560Y-92043550D01*
X104709556Y-92162625D01*
X104708357Y-92162836D01*
X104714009Y-92227442D01*
X104680887Y-92298470D01*
X104616689Y-92343420D01*
X104564909Y-92352550D01*
X104458209Y-92352550D01*
X104382509Y-92332266D01*
X104351153Y-92308206D01*
X104160344Y-92117397D01*
X104121159Y-92049526D01*
X104116000Y-92010341D01*
X104116000Y-91357190D01*
X104136284Y-91281490D01*
X104140963Y-91276810D01*
X104124035Y-91251475D01*
X104116000Y-91202809D01*
X104116000Y-86216827D01*
X104136284Y-86141127D01*
X104160344Y-86109771D01*
X104256706Y-86013409D01*
X104361026Y-85909088D01*
X104428894Y-85869905D01*
X104507265Y-85869905D01*
X104575136Y-85909090D01*
X104614321Y-85976960D01*
X104614321Y-86055331D01*
X104607955Y-86074084D01*
X104549109Y-86216148D01*
X104549109Y-86216149D01*
X104528709Y-86318710D01*
X104518300Y-86371039D01*
X104518300Y-86528961D01*
X104522414Y-86549644D01*
X104549109Y-86683848D01*
X104571068Y-86736860D01*
X104609543Y-86829747D01*
X104697279Y-86961054D01*
X104808946Y-87072721D01*
X104940253Y-87160457D01*
X105086153Y-87220891D01*
X105241039Y-87251700D01*
X105398961Y-87251700D01*
X105553847Y-87220891D01*
X105699747Y-87160457D01*
X105831054Y-87072721D01*
X105942721Y-86961054D01*
X106030457Y-86829747D01*
X106090891Y-86683847D01*
X106121700Y-86528961D01*
X106121700Y-86371039D01*
X106090891Y-86216153D01*
X106030457Y-86070253D01*
X105942721Y-85938946D01*
X105831054Y-85827279D01*
X105699747Y-85739543D01*
X105661499Y-85723700D01*
X105553848Y-85679109D01*
X105398961Y-85648300D01*
X105241039Y-85648300D01*
X105086149Y-85679109D01*
X105086148Y-85679109D01*
X104944084Y-85737955D01*
X104866384Y-85748185D01*
X104793980Y-85718194D01*
X104746271Y-85656018D01*
X104736041Y-85578318D01*
X104766032Y-85505914D01*
X104779082Y-85491032D01*
X106984771Y-83285344D01*
X107052642Y-83246159D01*
X107091827Y-83241000D01*
X109328892Y-83241000D01*
X109404592Y-83261284D01*
G37*
G04 #@! TD.AperFunction*
G04 #@! TA.AperFunction,Conductor*
G36*
X124710439Y-84717448D02*
G01*
X124749624Y-84785319D01*
X124754783Y-84824504D01*
X124754783Y-85863104D01*
X124734499Y-85938804D01*
X124679083Y-85994220D01*
X124603383Y-86014504D01*
X124527683Y-85994220D01*
X124496327Y-85970160D01*
X123786323Y-85260156D01*
X123747138Y-85192285D01*
X123747138Y-85113915D01*
X123786323Y-85046044D01*
X123854194Y-85006859D01*
X123893379Y-85001700D01*
X123958961Y-85001700D01*
X124113847Y-84970891D01*
X124259747Y-84910457D01*
X124391054Y-84822721D01*
X124496327Y-84717448D01*
X124564198Y-84678263D01*
X124642568Y-84678263D01*
X124710439Y-84717448D01*
G37*
G04 #@! TD.AperFunction*
M02*
