G04 #@! TF.GenerationSoftware,KiCad,Pcbnew,9.0.5*
G04 #@! TF.CreationDate,2025-10-24T14:39:18-07:00*
G04 #@! TF.ProjectId,iris-128b,69726973-2d31-4323-9862-2e6b69636164,rev?*
G04 #@! TF.SameCoordinates,Original*
G04 #@! TF.FileFunction,Soldermask,Top*
G04 #@! TF.FilePolarity,Negative*
%FSLAX46Y46*%
G04 Gerber Fmt 4.6, Leading zero omitted, Abs format (unit mm)*
G04 Created by KiCad (PCBNEW 9.0.5) date 2025-10-24 14:39:18*
%MOMM*%
%LPD*%
G01*
G04 APERTURE LIST*
G04 Aperture macros list*
%AMRoundRect*
0 Rectangle with rounded corners*
0 $1 Rounding radius*
0 $2 $3 $4 $5 $6 $7 $8 $9 X,Y pos of 4 corners*
0 Add a 4 corners polygon primitive as box body*
4,1,4,$2,$3,$4,$5,$6,$7,$8,$9,$2,$3,0*
0 Add four circle primitives for the rounded corners*
1,1,$1+$1,$2,$3*
1,1,$1+$1,$4,$5*
1,1,$1+$1,$6,$7*
1,1,$1+$1,$8,$9*
0 Add four rect primitives between the rounded corners*
20,1,$1+$1,$2,$3,$4,$5,0*
20,1,$1+$1,$4,$5,$6,$7,0*
20,1,$1+$1,$6,$7,$8,$9,0*
20,1,$1+$1,$8,$9,$2,$3,0*%
G04 Aperture macros list end*
%ADD10C,0.100000*%
%ADD11R,1.000000X1.000000*%
%ADD12RoundRect,0.100000X-0.100000X0.130000X-0.100000X-0.130000X0.100000X-0.130000X0.100000X0.130000X0*%
%ADD13RoundRect,0.101600X-0.450000X-0.125000X0.450000X-0.125000X0.450000X0.125000X-0.450000X0.125000X0*%
%ADD14RoundRect,0.101600X0.125000X-0.450000X0.125000X0.450000X-0.125000X0.450000X-0.125000X-0.450000X0*%
%ADD15RoundRect,0.101600X0.450000X0.125000X-0.450000X0.125000X-0.450000X-0.125000X0.450000X-0.125000X0*%
%ADD16RoundRect,0.101600X-0.125000X0.450000X-0.125000X-0.450000X0.125000X-0.450000X0.125000X0.450000X0*%
%ADD17RoundRect,0.101600X-2.050000X-2.050000X2.050000X-2.050000X2.050000X2.050000X-2.050000X2.050000X0*%
%ADD18RoundRect,0.100000X0.130000X0.100000X-0.130000X0.100000X-0.130000X-0.100000X0.130000X-0.100000X0*%
%ADD19RoundRect,0.100000X-0.130000X-0.100000X0.130000X-0.100000X0.130000X0.100000X-0.130000X0.100000X0*%
%ADD20C,3.800000*%
%ADD21RoundRect,0.100000X0.100000X-0.130000X0.100000X0.130000X-0.100000X0.130000X-0.100000X-0.130000X0*%
%ADD22C,1.000000*%
%ADD23C,1.450000*%
%ADD24C,0.764000*%
%ADD25RoundRect,0.180400X-0.000010X-0.300000X0.000010X-0.300000X0.000010X0.300000X-0.000010X0.300000X0*%
%ADD26R,1.810000X1.380000*%
%ADD27R,1.950000X1.800000*%
G04 APERTURE END LIST*
D10*
X102055000Y-118950000D02*
X104005000Y-118950000D01*
X104005000Y-120750000D01*
X102055000Y-120750000D01*
X102055000Y-118950000D01*
X102105000Y-114510000D02*
X103915000Y-114510000D01*
X103915000Y-115890000D01*
X102105000Y-115890000D01*
X102105000Y-114510000D01*
X125325000Y-118950000D02*
X127275000Y-118950000D01*
X127275000Y-120750000D01*
X125325000Y-120750000D01*
X125325000Y-118950000D01*
X125445000Y-114490000D02*
X127255000Y-114490000D01*
X127255000Y-115870000D01*
X125445000Y-115870000D01*
X125445000Y-114490000D01*
D11*
X102260000Y-92280000D03*
D12*
X114500000Y-95155000D03*
X114500000Y-95795000D03*
D11*
X104325000Y-101075000D03*
X113650000Y-112250000D03*
D13*
X105652220Y-103990240D03*
X105652220Y-104490240D03*
X105652220Y-104990240D03*
X105652220Y-105490240D03*
X105652220Y-105990240D03*
X105652220Y-106490240D03*
X105652220Y-106990240D03*
X105652220Y-107490240D03*
X105652220Y-107990240D03*
X105652220Y-108490240D03*
X105652220Y-108990240D03*
D14*
X106702220Y-110040240D03*
X107202220Y-110040240D03*
X107702220Y-110040240D03*
X108202220Y-110040240D03*
X108702220Y-110040240D03*
X109202220Y-110040240D03*
X109702220Y-110040240D03*
X110202220Y-110040240D03*
X110702220Y-110040240D03*
X111202220Y-110040240D03*
X111702220Y-110040240D03*
D15*
X112752220Y-108990240D03*
X112752220Y-108490240D03*
X112752220Y-107990240D03*
X112752220Y-107490240D03*
X112752220Y-106990240D03*
X112752220Y-106490240D03*
X112752220Y-105990240D03*
X112752220Y-105490240D03*
X112752220Y-104990240D03*
X112752220Y-104490240D03*
X112752220Y-103990240D03*
D16*
X111702220Y-102940240D03*
X111202220Y-102940240D03*
X110702220Y-102940240D03*
X110202220Y-102940240D03*
X109702220Y-102940240D03*
X109202220Y-102940240D03*
X108702220Y-102940240D03*
X108202220Y-102940240D03*
X107702220Y-102940240D03*
X107202220Y-102940240D03*
X106702220Y-102940240D03*
D17*
X109202220Y-106490240D03*
D11*
X104300000Y-99000000D03*
X102300000Y-99000000D03*
D12*
X104275000Y-106330000D03*
X104275000Y-106970000D03*
X104200000Y-95105000D03*
X104200000Y-95745000D03*
D11*
X126775000Y-105125000D03*
D18*
X108108030Y-99832870D03*
X107468030Y-99832870D03*
D19*
X110878380Y-112102900D03*
X111518380Y-112102900D03*
D11*
X102290880Y-101071680D03*
D19*
X109248570Y-99843550D03*
X109888570Y-99843550D03*
X111048570Y-99843550D03*
X111688570Y-99843550D03*
D20*
X96650000Y-82485000D03*
D19*
X114079020Y-97886520D03*
X114719020Y-97886520D03*
D21*
X104300000Y-105445000D03*
X104300000Y-104805000D03*
D11*
X127022860Y-92100400D03*
D13*
X115925130Y-103968810D03*
X115925130Y-104468810D03*
X115925130Y-104968810D03*
X115925130Y-105468810D03*
X115925130Y-105968810D03*
X115925130Y-106468810D03*
X115925130Y-106968810D03*
X115925130Y-107468810D03*
X115925130Y-107968810D03*
X115925130Y-108468810D03*
X115925130Y-108968810D03*
D14*
X116975130Y-110018810D03*
X117475130Y-110018810D03*
X117975130Y-110018810D03*
X118475130Y-110018810D03*
X118975130Y-110018810D03*
X119475130Y-110018810D03*
X119975130Y-110018810D03*
X120475130Y-110018810D03*
X120975130Y-110018810D03*
X121475130Y-110018810D03*
X121975130Y-110018810D03*
D15*
X123025130Y-108968810D03*
X123025130Y-108468810D03*
X123025130Y-107968810D03*
X123025130Y-107468810D03*
X123025130Y-106968810D03*
X123025130Y-106468810D03*
X123025130Y-105968810D03*
X123025130Y-105468810D03*
X123025130Y-104968810D03*
X123025130Y-104468810D03*
X123025130Y-103968810D03*
D16*
X121975130Y-102918810D03*
X121475130Y-102918810D03*
X120975130Y-102918810D03*
X120475130Y-102918810D03*
X119975130Y-102918810D03*
X119475130Y-102918810D03*
X118975130Y-102918810D03*
X118475130Y-102918810D03*
X117975130Y-102918810D03*
X117475130Y-102918810D03*
X116975130Y-102918810D03*
D17*
X119475130Y-106468810D03*
D22*
X102380000Y-90030000D03*
D19*
X122955000Y-111850000D03*
X123595000Y-111850000D03*
X120844970Y-111856150D03*
X121484970Y-111856150D03*
D21*
X114325000Y-104045000D03*
X114325000Y-103405000D03*
D22*
X102334060Y-86647020D03*
D18*
X114645000Y-99800000D03*
X114005000Y-99800000D03*
D11*
X103800000Y-112700000D03*
D13*
X115864400Y-92045280D03*
X115864400Y-92545280D03*
X115864400Y-93045280D03*
X115864400Y-93545280D03*
X115864400Y-94045280D03*
X115864400Y-94545280D03*
X115864400Y-95045280D03*
X115864400Y-95545280D03*
X115864400Y-96045280D03*
X115864400Y-96545280D03*
X115864400Y-97045280D03*
D14*
X116914400Y-98095280D03*
X117414400Y-98095280D03*
X117914400Y-98095280D03*
X118414400Y-98095280D03*
X118914400Y-98095280D03*
X119414400Y-98095280D03*
X119914400Y-98095280D03*
X120414400Y-98095280D03*
X120914400Y-98095280D03*
X121414400Y-98095280D03*
X121914400Y-98095280D03*
D15*
X122964400Y-97045280D03*
X122964400Y-96545280D03*
X122964400Y-96045280D03*
X122964400Y-95545280D03*
X122964400Y-95045280D03*
X122964400Y-94545280D03*
X122964400Y-94045280D03*
X122964400Y-93545280D03*
X122964400Y-93045280D03*
X122964400Y-92545280D03*
X122964400Y-92045280D03*
D16*
X121914400Y-90995280D03*
X121414400Y-90995280D03*
X120914400Y-90995280D03*
X120414400Y-90995280D03*
X119914400Y-90995280D03*
X119414400Y-90995280D03*
X118914400Y-90995280D03*
X118414400Y-90995280D03*
X117914400Y-90995280D03*
X117414400Y-90995280D03*
X116914400Y-90995280D03*
D17*
X119414400Y-94545280D03*
D11*
X126775000Y-107175000D03*
D21*
X104350000Y-109895000D03*
X104350000Y-109255000D03*
D12*
X104225000Y-91780000D03*
X104225000Y-92420000D03*
D21*
X104225000Y-93845000D03*
X104225000Y-93205000D03*
D19*
X114030000Y-109470000D03*
X114670000Y-109470000D03*
X125655000Y-97475000D03*
X126295000Y-97475000D03*
X120723570Y-99743550D03*
X121363570Y-99743550D03*
D21*
X114497104Y-94150648D03*
X114497104Y-93510648D03*
D20*
X132650000Y-82485000D03*
D11*
X126775000Y-105125000D03*
D21*
X114300000Y-106395000D03*
X114300000Y-105755000D03*
D13*
X105942120Y-92000000D03*
X105942120Y-92500000D03*
X105942120Y-93000000D03*
X105942120Y-93500000D03*
X105942120Y-94000000D03*
X105942120Y-94500000D03*
X105942120Y-95000000D03*
X105942120Y-95500000D03*
X105942120Y-96000000D03*
X105942120Y-96500000D03*
X105942120Y-97000000D03*
D14*
X106992120Y-98050000D03*
X107492120Y-98050000D03*
X107992120Y-98050000D03*
X108492120Y-98050000D03*
X108992120Y-98050000D03*
X109492120Y-98050000D03*
X109992120Y-98050000D03*
X110492120Y-98050000D03*
X110992120Y-98050000D03*
X111492120Y-98050000D03*
X111992120Y-98050000D03*
D15*
X113042120Y-97000000D03*
X113042120Y-96500000D03*
X113042120Y-96000000D03*
X113042120Y-95500000D03*
X113042120Y-95000000D03*
X113042120Y-94500000D03*
X113042120Y-94000000D03*
X113042120Y-93500000D03*
X113042120Y-93000000D03*
X113042120Y-92500000D03*
X113042120Y-92000000D03*
D16*
X111992120Y-90950000D03*
X111492120Y-90950000D03*
X110992120Y-90950000D03*
X110492120Y-90950000D03*
X109992120Y-90950000D03*
X109492120Y-90950000D03*
X108992120Y-90950000D03*
X108492120Y-90950000D03*
X107992120Y-90950000D03*
X107492120Y-90950000D03*
X106992120Y-90950000D03*
D17*
X109492120Y-94500000D03*
D19*
X124130000Y-97500000D03*
X124770000Y-97500000D03*
X124339270Y-109240000D03*
X124979270Y-109240000D03*
D23*
X105320000Y-86450000D03*
X123880000Y-84200000D03*
D24*
X107000000Y-84600000D03*
X107000000Y-85800000D03*
X122200000Y-82600000D03*
X122200000Y-83800000D03*
X108600000Y-80600000D03*
X108600000Y-81800000D03*
X108600000Y-82600000D03*
X108600000Y-83800000D03*
X108600000Y-84600000D03*
X108600000Y-85800000D03*
X108600000Y-86600000D03*
X108600000Y-87800000D03*
X109400000Y-80600000D03*
X109400000Y-81800000D03*
X109400000Y-87800000D03*
X109400000Y-86600000D03*
X109400000Y-85800000D03*
X109400000Y-84600000D03*
X109400000Y-83800000D03*
X109400000Y-82600000D03*
X119800000Y-80600000D03*
X119800000Y-81800000D03*
X119800000Y-82600000D03*
X119800000Y-83800000D03*
X119800000Y-84600000D03*
X119800000Y-85800000D03*
X119800000Y-86600000D03*
X119800000Y-87800000D03*
X120600000Y-87800000D03*
X120600000Y-86600000D03*
X120600000Y-85800000D03*
X120600000Y-84600000D03*
X120600000Y-83800000D03*
X120600000Y-82600000D03*
X120600000Y-81800000D03*
X120600000Y-80600000D03*
X111800000Y-80600000D03*
X111800000Y-81800000D03*
X111800000Y-82600000D03*
X111800000Y-83800000D03*
X111800000Y-84600000D03*
X111800000Y-85800000D03*
X111800000Y-86600000D03*
X111800000Y-87800000D03*
X112600000Y-80600000D03*
X112600000Y-81800000D03*
X112600000Y-87800000D03*
X112600000Y-86600000D03*
X112600000Y-85800000D03*
X112600000Y-84600000D03*
X112600000Y-83800000D03*
X112600000Y-82600000D03*
X115800000Y-81800000D03*
X116600000Y-81800000D03*
X117400000Y-81800000D03*
X115000000Y-82600000D03*
X115800000Y-82600000D03*
X117400000Y-82600000D03*
X116600000Y-82600000D03*
X115800000Y-83800000D03*
X116600000Y-83800000D03*
X117400000Y-83800000D03*
X117400000Y-84600000D03*
X115000000Y-81800000D03*
X117400000Y-80600000D03*
X116600000Y-80600000D03*
X115800000Y-80600000D03*
X115000000Y-80600000D03*
X111000000Y-81800000D03*
X111000000Y-82600000D03*
X111000000Y-83800000D03*
X111000000Y-84600000D03*
X111000000Y-85800000D03*
X111000000Y-86600000D03*
X111000000Y-87800000D03*
X111000000Y-80600000D03*
X110200000Y-87800000D03*
X110200000Y-86600000D03*
X110200000Y-85800000D03*
X110200000Y-84600000D03*
X110200000Y-83800000D03*
X110200000Y-82600000D03*
X110200000Y-81800000D03*
X110200000Y-80600000D03*
X119000000Y-80600000D03*
X119000000Y-81800000D03*
X119000000Y-82600000D03*
X119000000Y-83800000D03*
X119000000Y-84600000D03*
X119000000Y-85800000D03*
X119000000Y-86600000D03*
X119000000Y-87800000D03*
X118200000Y-87800000D03*
X118200000Y-86600000D03*
X118200000Y-85800000D03*
X118200000Y-81800000D03*
X118200000Y-82600000D03*
X118200000Y-83800000D03*
X118200000Y-84600000D03*
X118200000Y-80600000D03*
X114200000Y-85800000D03*
X114200000Y-86600000D03*
X114200000Y-87800000D03*
X113400000Y-87800000D03*
X113400000Y-86600000D03*
X113400000Y-85800000D03*
X113400000Y-84600000D03*
X113400000Y-83800000D03*
X113400000Y-82600000D03*
X113400000Y-81800000D03*
X113400000Y-80600000D03*
X114200000Y-80600000D03*
X114200000Y-81800000D03*
X114200000Y-82600000D03*
X114200000Y-83800000D03*
X114200000Y-84600000D03*
X116600000Y-84600000D03*
X115800000Y-84600000D03*
X117400000Y-85800000D03*
X116600000Y-85800000D03*
X115800000Y-85800000D03*
X117400000Y-86600000D03*
X116600000Y-86600000D03*
X115800000Y-86600000D03*
X117400000Y-87800000D03*
X116600000Y-87800000D03*
X115800000Y-87800000D03*
X115000000Y-83800000D03*
X115000000Y-84600000D03*
X115000000Y-85800000D03*
X115000000Y-86600000D03*
X115000000Y-87800000D03*
X107000000Y-80600000D03*
X107000000Y-81800000D03*
X107000000Y-82600000D03*
X107000000Y-86600000D03*
X107000000Y-87800000D03*
X107800000Y-80600000D03*
X107800000Y-82600000D03*
X107800000Y-84600000D03*
X107800000Y-86600000D03*
X121400000Y-81800000D03*
X121400000Y-83800000D03*
X121400000Y-85800000D03*
X121400000Y-87800000D03*
X122200000Y-80600000D03*
X122200000Y-81800000D03*
X122200000Y-85800000D03*
X122200000Y-86600000D03*
X122200000Y-87800000D03*
X107000000Y-83800000D03*
X122200000Y-84600000D03*
X107800000Y-81800000D03*
X107800000Y-83800000D03*
X121400000Y-80600000D03*
X121400000Y-82600000D03*
X107800000Y-85800000D03*
X107800000Y-87800000D03*
X121400000Y-84600000D03*
X121400000Y-86600000D03*
D11*
X115875000Y-112250000D03*
D21*
X125025000Y-107545000D03*
X125025000Y-106905000D03*
D19*
X124055000Y-99650000D03*
X124695000Y-99650000D03*
X114030000Y-110310000D03*
X114670000Y-110310000D03*
D22*
X104520000Y-117605000D03*
X125370000Y-117605000D03*
D25*
X104680000Y-114700000D03*
X105180000Y-114700000D03*
X105680000Y-114700000D03*
X106180000Y-114700000D03*
X106680000Y-114700000D03*
X107180000Y-114700000D03*
X107680000Y-114700000D03*
X108180000Y-114700000D03*
X108680000Y-114700000D03*
X109180000Y-114700000D03*
X109680000Y-114700000D03*
X110180000Y-114700000D03*
X110680000Y-114700000D03*
X111180000Y-114700000D03*
X111680000Y-114700000D03*
X112180000Y-114700000D03*
X112680000Y-114700000D03*
X113180000Y-114700000D03*
X113680000Y-114700000D03*
X114180000Y-114700000D03*
X114680000Y-114700000D03*
X115180000Y-114700000D03*
X115680000Y-114700000D03*
X116180000Y-114700000D03*
X116680000Y-114700000D03*
X117180000Y-114700000D03*
X117680000Y-114700000D03*
X118180000Y-114700000D03*
X118680000Y-114700000D03*
X119180000Y-114700000D03*
X119680000Y-114700000D03*
X120180000Y-114700000D03*
X120680000Y-114700000D03*
X121180000Y-114700000D03*
X121680000Y-114700000D03*
X122180000Y-114700000D03*
X122680000Y-114700000D03*
X123180000Y-114700000D03*
X123680000Y-114700000D03*
X124180000Y-114700000D03*
X105180000Y-116890000D03*
X105680000Y-116890000D03*
X106180000Y-116890000D03*
X106680000Y-116890000D03*
X107180000Y-116890000D03*
X107680000Y-116890000D03*
X108180000Y-116890000D03*
X108680000Y-116890000D03*
X109180000Y-116890000D03*
X109680000Y-116890000D03*
X110180000Y-116890000D03*
X110680000Y-116890000D03*
X111180000Y-116890000D03*
X111680000Y-116890000D03*
X112180000Y-116890000D03*
X112680000Y-116890000D03*
X113180000Y-116890000D03*
X113680000Y-116890000D03*
X114180000Y-116890000D03*
X114680000Y-116890000D03*
X115180000Y-116890000D03*
X115680000Y-116890000D03*
X116180000Y-116890000D03*
X116680000Y-116890000D03*
X117180000Y-116890000D03*
X117680000Y-116890000D03*
X118180000Y-116890000D03*
X118680000Y-116890000D03*
X119180000Y-116890000D03*
X119680000Y-116890000D03*
X120180000Y-116890000D03*
X120680000Y-116890000D03*
X121180000Y-116890000D03*
X121680000Y-116890000D03*
X122180000Y-116890000D03*
X122680000Y-116890000D03*
X123180000Y-116890000D03*
X123680000Y-116890000D03*
X124180000Y-116890000D03*
X124680000Y-116890000D03*
D26*
X103010000Y-115200000D03*
D27*
X103030000Y-119850000D03*
X126300000Y-119850000D03*
D26*
X126350000Y-115180000D03*
D19*
X114055000Y-98925000D03*
X114695000Y-98925000D03*
M02*
