G04 #@! TF.GenerationSoftware,KiCad,Pcbnew,9.0.5*
G04 #@! TF.CreationDate,2025-10-24T14:39:17-07:00*
G04 #@! TF.ProjectId,iris-128b,69726973-2d31-4323-9862-2e6b69636164,rev?*
G04 #@! TF.SameCoordinates,Original*
G04 #@! TF.FileFunction,Legend,Top*
G04 #@! TF.FilePolarity,Positive*
%FSLAX46Y46*%
G04 Gerber Fmt 4.6, Leading zero omitted, Abs format (unit mm)*
G04 Created by KiCad (PCBNEW 9.0.5) date 2025-10-24 14:39:17*
%MOMM*%
%LPD*%
G01*
G04 APERTURE LIST*
G04 Aperture macros list*
%AMRoundRect*
0 Rectangle with rounded corners*
0 $1 Rounding radius*
0 $2 $3 $4 $5 $6 $7 $8 $9 X,Y pos of 4 corners*
0 Add a 4 corners polygon primitive as box body*
4,1,4,$2,$3,$4,$5,$6,$7,$8,$9,$2,$3,0*
0 Add four circle primitives for the rounded corners*
1,1,$1+$1,$2,$3*
1,1,$1+$1,$4,$5*
1,1,$1+$1,$6,$7*
1,1,$1+$1,$8,$9*
0 Add four rect primitives between the rounded corners*
20,1,$1+$1,$2,$3,$4,$5,0*
20,1,$1+$1,$4,$5,$6,$7,0*
20,1,$1+$1,$6,$7,$8,$9,0*
20,1,$1+$1,$8,$9,$2,$3,0*%
G04 Aperture macros list end*
%ADD10C,0.125000*%
%ADD11C,0.150000*%
%ADD12C,0.120000*%
%ADD13C,0.127000*%
%ADD14C,0.200000*%
%ADD15C,0.100000*%
%ADD16R,1.000000X1.000000*%
%ADD17RoundRect,0.100000X-0.100000X0.130000X-0.100000X-0.130000X0.100000X-0.130000X0.100000X0.130000X0*%
%ADD18RoundRect,0.101600X-0.450000X-0.125000X0.450000X-0.125000X0.450000X0.125000X-0.450000X0.125000X0*%
%ADD19RoundRect,0.101600X0.125000X-0.450000X0.125000X0.450000X-0.125000X0.450000X-0.125000X-0.450000X0*%
%ADD20RoundRect,0.101600X0.450000X0.125000X-0.450000X0.125000X-0.450000X-0.125000X0.450000X-0.125000X0*%
%ADD21RoundRect,0.101600X-0.125000X0.450000X-0.125000X-0.450000X0.125000X-0.450000X0.125000X0.450000X0*%
%ADD22RoundRect,0.101600X-2.050000X-2.050000X2.050000X-2.050000X2.050000X2.050000X-2.050000X2.050000X0*%
%ADD23RoundRect,0.100000X0.130000X0.100000X-0.130000X0.100000X-0.130000X-0.100000X0.130000X-0.100000X0*%
%ADD24RoundRect,0.100000X-0.130000X-0.100000X0.130000X-0.100000X0.130000X0.100000X-0.130000X0.100000X0*%
%ADD25C,3.800000*%
%ADD26RoundRect,0.100000X0.100000X-0.130000X0.100000X0.130000X-0.100000X0.130000X-0.100000X-0.130000X0*%
%ADD27C,1.000000*%
%ADD28C,1.450000*%
%ADD29C,0.764000*%
%ADD30RoundRect,0.180400X-0.000010X-0.300000X0.000010X-0.300000X0.000010X0.300000X-0.000010X0.300000X0*%
%ADD31R,1.810000X1.380000*%
%ADD32R,1.950000X1.800000*%
G04 APERTURE END LIST*
D10*
X101879602Y-93506024D02*
X102046269Y-93506024D01*
X102117697Y-93767929D02*
X101879602Y-93767929D01*
X101879602Y-93767929D02*
X101879602Y-93267929D01*
X101879602Y-93267929D02*
X102117697Y-93267929D01*
X102593888Y-93767929D02*
X102308174Y-93767929D01*
X102451031Y-93767929D02*
X102451031Y-93267929D01*
X102451031Y-93267929D02*
X102403412Y-93339358D01*
X102403412Y-93339358D02*
X102355793Y-93386977D01*
X102355793Y-93386977D02*
X102308174Y-93410786D01*
X105340921Y-101509849D02*
X105340921Y-101009849D01*
X105340921Y-101009849D02*
X105507588Y-101366992D01*
X105507588Y-101366992D02*
X105674254Y-101009849D01*
X105674254Y-101009849D02*
X105674254Y-101509849D01*
X105912350Y-101509849D02*
X105912350Y-101009849D01*
X106126636Y-101486040D02*
X106198064Y-101509849D01*
X106198064Y-101509849D02*
X106317112Y-101509849D01*
X106317112Y-101509849D02*
X106364731Y-101486040D01*
X106364731Y-101486040D02*
X106388540Y-101462230D01*
X106388540Y-101462230D02*
X106412350Y-101414611D01*
X106412350Y-101414611D02*
X106412350Y-101366992D01*
X106412350Y-101366992D02*
X106388540Y-101319373D01*
X106388540Y-101319373D02*
X106364731Y-101295563D01*
X106364731Y-101295563D02*
X106317112Y-101271754D01*
X106317112Y-101271754D02*
X106221874Y-101247944D01*
X106221874Y-101247944D02*
X106174255Y-101224135D01*
X106174255Y-101224135D02*
X106150445Y-101200325D01*
X106150445Y-101200325D02*
X106126636Y-101152706D01*
X106126636Y-101152706D02*
X106126636Y-101105087D01*
X106126636Y-101105087D02*
X106150445Y-101057468D01*
X106150445Y-101057468D02*
X106174255Y-101033659D01*
X106174255Y-101033659D02*
X106221874Y-101009849D01*
X106221874Y-101009849D02*
X106340921Y-101009849D01*
X106340921Y-101009849D02*
X106412350Y-101033659D01*
X106721873Y-101009849D02*
X106817111Y-101009849D01*
X106817111Y-101009849D02*
X106864730Y-101033659D01*
X106864730Y-101033659D02*
X106912349Y-101081278D01*
X106912349Y-101081278D02*
X106936159Y-101176516D01*
X106936159Y-101176516D02*
X106936159Y-101343182D01*
X106936159Y-101343182D02*
X106912349Y-101438420D01*
X106912349Y-101438420D02*
X106864730Y-101486040D01*
X106864730Y-101486040D02*
X106817111Y-101509849D01*
X106817111Y-101509849D02*
X106721873Y-101509849D01*
X106721873Y-101509849D02*
X106674254Y-101486040D01*
X106674254Y-101486040D02*
X106626635Y-101438420D01*
X106626635Y-101438420D02*
X106602826Y-101343182D01*
X106602826Y-101343182D02*
X106602826Y-101176516D01*
X106602826Y-101176516D02*
X106626635Y-101081278D01*
X106626635Y-101081278D02*
X106674254Y-101033659D01*
X106674254Y-101033659D02*
X106721873Y-101009849D01*
X107150445Y-101319373D02*
X107531398Y-101319373D01*
X113297542Y-111119310D02*
X113273733Y-111143120D01*
X113273733Y-111143120D02*
X113202304Y-111166929D01*
X113202304Y-111166929D02*
X113154685Y-111166929D01*
X113154685Y-111166929D02*
X113083257Y-111143120D01*
X113083257Y-111143120D02*
X113035638Y-111095500D01*
X113035638Y-111095500D02*
X113011828Y-111047881D01*
X113011828Y-111047881D02*
X112988019Y-110952643D01*
X112988019Y-110952643D02*
X112988019Y-110881215D01*
X112988019Y-110881215D02*
X113011828Y-110785977D01*
X113011828Y-110785977D02*
X113035638Y-110738358D01*
X113035638Y-110738358D02*
X113083257Y-110690739D01*
X113083257Y-110690739D02*
X113154685Y-110666929D01*
X113154685Y-110666929D02*
X113202304Y-110666929D01*
X113202304Y-110666929D02*
X113273733Y-110690739D01*
X113273733Y-110690739D02*
X113297542Y-110714548D01*
X113488019Y-111143120D02*
X113559447Y-111166929D01*
X113559447Y-111166929D02*
X113678495Y-111166929D01*
X113678495Y-111166929D02*
X113726114Y-111143120D01*
X113726114Y-111143120D02*
X113749923Y-111119310D01*
X113749923Y-111119310D02*
X113773733Y-111071691D01*
X113773733Y-111071691D02*
X113773733Y-111024072D01*
X113773733Y-111024072D02*
X113749923Y-110976453D01*
X113749923Y-110976453D02*
X113726114Y-110952643D01*
X113726114Y-110952643D02*
X113678495Y-110928834D01*
X113678495Y-110928834D02*
X113583257Y-110905024D01*
X113583257Y-110905024D02*
X113535638Y-110881215D01*
X113535638Y-110881215D02*
X113511828Y-110857405D01*
X113511828Y-110857405D02*
X113488019Y-110809786D01*
X113488019Y-110809786D02*
X113488019Y-110762167D01*
X113488019Y-110762167D02*
X113511828Y-110714548D01*
X113511828Y-110714548D02*
X113535638Y-110690739D01*
X113535638Y-110690739D02*
X113583257Y-110666929D01*
X113583257Y-110666929D02*
X113702304Y-110666929D01*
X113702304Y-110666929D02*
X113773733Y-110690739D01*
X113988018Y-110976453D02*
X114368971Y-110976453D01*
X114178494Y-111166929D02*
X114178494Y-110785977D01*
D11*
X112832496Y-100838567D02*
X112832496Y-101486186D01*
X112832496Y-101486186D02*
X112870591Y-101562376D01*
X112870591Y-101562376D02*
X112908686Y-101600472D01*
X112908686Y-101600472D02*
X112984877Y-101638567D01*
X112984877Y-101638567D02*
X113137258Y-101638567D01*
X113137258Y-101638567D02*
X113213448Y-101600472D01*
X113213448Y-101600472D02*
X113251543Y-101562376D01*
X113251543Y-101562376D02*
X113289639Y-101486186D01*
X113289639Y-101486186D02*
X113289639Y-100838567D01*
X113594400Y-100838567D02*
X114089638Y-100838567D01*
X114089638Y-100838567D02*
X113822972Y-101143329D01*
X113822972Y-101143329D02*
X113937257Y-101143329D01*
X113937257Y-101143329D02*
X114013448Y-101181424D01*
X114013448Y-101181424D02*
X114051543Y-101219519D01*
X114051543Y-101219519D02*
X114089638Y-101295710D01*
X114089638Y-101295710D02*
X114089638Y-101486186D01*
X114089638Y-101486186D02*
X114051543Y-101562376D01*
X114051543Y-101562376D02*
X114013448Y-101600472D01*
X114013448Y-101600472D02*
X113937257Y-101638567D01*
X113937257Y-101638567D02*
X113708686Y-101638567D01*
X113708686Y-101638567D02*
X113632495Y-101600472D01*
X113632495Y-101600472D02*
X113594400Y-101562376D01*
D10*
X105442521Y-99122249D02*
X105442521Y-98622249D01*
X105442521Y-98622249D02*
X105609188Y-98979392D01*
X105609188Y-98979392D02*
X105775854Y-98622249D01*
X105775854Y-98622249D02*
X105775854Y-99122249D01*
X106013950Y-99122249D02*
X106013950Y-98622249D01*
X106228236Y-99098440D02*
X106299664Y-99122249D01*
X106299664Y-99122249D02*
X106418712Y-99122249D01*
X106418712Y-99122249D02*
X106466331Y-99098440D01*
X106466331Y-99098440D02*
X106490140Y-99074630D01*
X106490140Y-99074630D02*
X106513950Y-99027011D01*
X106513950Y-99027011D02*
X106513950Y-98979392D01*
X106513950Y-98979392D02*
X106490140Y-98931773D01*
X106490140Y-98931773D02*
X106466331Y-98907963D01*
X106466331Y-98907963D02*
X106418712Y-98884154D01*
X106418712Y-98884154D02*
X106323474Y-98860344D01*
X106323474Y-98860344D02*
X106275855Y-98836535D01*
X106275855Y-98836535D02*
X106252045Y-98812725D01*
X106252045Y-98812725D02*
X106228236Y-98765106D01*
X106228236Y-98765106D02*
X106228236Y-98717487D01*
X106228236Y-98717487D02*
X106252045Y-98669868D01*
X106252045Y-98669868D02*
X106275855Y-98646059D01*
X106275855Y-98646059D02*
X106323474Y-98622249D01*
X106323474Y-98622249D02*
X106442521Y-98622249D01*
X106442521Y-98622249D02*
X106513950Y-98646059D01*
X106823473Y-98622249D02*
X106918711Y-98622249D01*
X106918711Y-98622249D02*
X106966330Y-98646059D01*
X106966330Y-98646059D02*
X107013949Y-98693678D01*
X107013949Y-98693678D02*
X107037759Y-98788916D01*
X107037759Y-98788916D02*
X107037759Y-98955582D01*
X107037759Y-98955582D02*
X107013949Y-99050820D01*
X107013949Y-99050820D02*
X106966330Y-99098440D01*
X106966330Y-99098440D02*
X106918711Y-99122249D01*
X106918711Y-99122249D02*
X106823473Y-99122249D01*
X106823473Y-99122249D02*
X106775854Y-99098440D01*
X106775854Y-99098440D02*
X106728235Y-99050820D01*
X106728235Y-99050820D02*
X106704426Y-98955582D01*
X106704426Y-98955582D02*
X106704426Y-98788916D01*
X106704426Y-98788916D02*
X106728235Y-98693678D01*
X106728235Y-98693678D02*
X106775854Y-98646059D01*
X106775854Y-98646059D02*
X106823473Y-98622249D01*
X107252045Y-98931773D02*
X107632998Y-98931773D01*
X107442521Y-99122249D02*
X107442521Y-98741297D01*
X101565818Y-97592552D02*
X101803913Y-97592552D01*
X101518199Y-97735409D02*
X101684865Y-97235409D01*
X101684865Y-97235409D02*
X101851532Y-97735409D01*
X102018198Y-97235409D02*
X102018198Y-97640171D01*
X102018198Y-97640171D02*
X102042008Y-97687790D01*
X102042008Y-97687790D02*
X102065817Y-97711600D01*
X102065817Y-97711600D02*
X102113436Y-97735409D01*
X102113436Y-97735409D02*
X102208674Y-97735409D01*
X102208674Y-97735409D02*
X102256293Y-97711600D01*
X102256293Y-97711600D02*
X102280103Y-97687790D01*
X102280103Y-97687790D02*
X102303912Y-97640171D01*
X102303912Y-97640171D02*
X102303912Y-97235409D01*
X102494389Y-97235409D02*
X102827722Y-97735409D01*
X102827722Y-97235409D02*
X102494389Y-97735409D01*
X103280103Y-97735409D02*
X102994389Y-97735409D01*
X103137246Y-97735409D02*
X103137246Y-97235409D01*
X103137246Y-97235409D02*
X103089627Y-97306838D01*
X103089627Y-97306838D02*
X103042008Y-97354457D01*
X103042008Y-97354457D02*
X102994389Y-97378266D01*
X126189656Y-103956510D02*
X126165847Y-103980320D01*
X126165847Y-103980320D02*
X126094418Y-104004129D01*
X126094418Y-104004129D02*
X126046799Y-104004129D01*
X126046799Y-104004129D02*
X125975371Y-103980320D01*
X125975371Y-103980320D02*
X125927752Y-103932700D01*
X125927752Y-103932700D02*
X125903942Y-103885081D01*
X125903942Y-103885081D02*
X125880133Y-103789843D01*
X125880133Y-103789843D02*
X125880133Y-103718415D01*
X125880133Y-103718415D02*
X125903942Y-103623177D01*
X125903942Y-103623177D02*
X125927752Y-103575558D01*
X125927752Y-103575558D02*
X125975371Y-103527939D01*
X125975371Y-103527939D02*
X126046799Y-103504129D01*
X126046799Y-103504129D02*
X126094418Y-103504129D01*
X126094418Y-103504129D02*
X126165847Y-103527939D01*
X126165847Y-103527939D02*
X126189656Y-103551748D01*
X126642037Y-104004129D02*
X126403942Y-104004129D01*
X126403942Y-104004129D02*
X126403942Y-103504129D01*
X126808704Y-104004129D02*
X126808704Y-103504129D01*
X127094418Y-104004129D02*
X126880133Y-103718415D01*
X127094418Y-103504129D02*
X126808704Y-103789843D01*
X127308704Y-103813653D02*
X127689657Y-103813653D01*
X127499180Y-104004129D02*
X127499180Y-103623177D01*
X101901050Y-102650689D02*
X102067716Y-103150689D01*
X102067716Y-103150689D02*
X102234383Y-102650689D01*
X102401049Y-102960213D02*
X102782002Y-102960213D01*
X126475241Y-90377209D02*
X126641907Y-90877209D01*
X126641907Y-90877209D02*
X126808574Y-90377209D01*
X126975240Y-90877209D02*
X126975240Y-90377209D01*
X127213335Y-90877209D02*
X127213335Y-90377209D01*
X127213335Y-90377209D02*
X127499049Y-90877209D01*
X127499049Y-90877209D02*
X127499049Y-90377209D01*
D11*
X114893960Y-100859903D02*
X114893960Y-101507522D01*
X114893960Y-101507522D02*
X114932055Y-101583712D01*
X114932055Y-101583712D02*
X114970150Y-101621808D01*
X114970150Y-101621808D02*
X115046341Y-101659903D01*
X115046341Y-101659903D02*
X115198722Y-101659903D01*
X115198722Y-101659903D02*
X115274912Y-101621808D01*
X115274912Y-101621808D02*
X115313007Y-101583712D01*
X115313007Y-101583712D02*
X115351103Y-101507522D01*
X115351103Y-101507522D02*
X115351103Y-100859903D01*
X116074912Y-101126569D02*
X116074912Y-101659903D01*
X115884436Y-100821808D02*
X115693959Y-101393236D01*
X115693959Y-101393236D02*
X116189198Y-101393236D01*
D10*
X101996287Y-88323499D02*
X101948668Y-88299689D01*
X101948668Y-88299689D02*
X101877239Y-88299689D01*
X101877239Y-88299689D02*
X101805811Y-88323499D01*
X101805811Y-88323499D02*
X101758192Y-88371118D01*
X101758192Y-88371118D02*
X101734382Y-88418737D01*
X101734382Y-88418737D02*
X101710573Y-88513975D01*
X101710573Y-88513975D02*
X101710573Y-88585403D01*
X101710573Y-88585403D02*
X101734382Y-88680641D01*
X101734382Y-88680641D02*
X101758192Y-88728260D01*
X101758192Y-88728260D02*
X101805811Y-88775880D01*
X101805811Y-88775880D02*
X101877239Y-88799689D01*
X101877239Y-88799689D02*
X101924858Y-88799689D01*
X101924858Y-88799689D02*
X101996287Y-88775880D01*
X101996287Y-88775880D02*
X102020096Y-88752070D01*
X102020096Y-88752070D02*
X102020096Y-88585403D01*
X102020096Y-88585403D02*
X101924858Y-88585403D01*
X102234382Y-88799689D02*
X102234382Y-88299689D01*
X102234382Y-88299689D02*
X102520096Y-88799689D01*
X102520096Y-88799689D02*
X102520096Y-88299689D01*
X102758192Y-88799689D02*
X102758192Y-88299689D01*
X102758192Y-88299689D02*
X102877240Y-88299689D01*
X102877240Y-88299689D02*
X102948668Y-88323499D01*
X102948668Y-88323499D02*
X102996287Y-88371118D01*
X102996287Y-88371118D02*
X103020097Y-88418737D01*
X103020097Y-88418737D02*
X103043906Y-88513975D01*
X103043906Y-88513975D02*
X103043906Y-88585403D01*
X103043906Y-88585403D02*
X103020097Y-88680641D01*
X103020097Y-88680641D02*
X102996287Y-88728260D01*
X102996287Y-88728260D02*
X102948668Y-88775880D01*
X102948668Y-88775880D02*
X102877240Y-88799689D01*
X102877240Y-88799689D02*
X102758192Y-88799689D01*
X102066125Y-85492609D02*
X101899459Y-85254514D01*
X101780411Y-85492609D02*
X101780411Y-84992609D01*
X101780411Y-84992609D02*
X101970887Y-84992609D01*
X101970887Y-84992609D02*
X102018506Y-85016419D01*
X102018506Y-85016419D02*
X102042316Y-85040228D01*
X102042316Y-85040228D02*
X102066125Y-85087847D01*
X102066125Y-85087847D02*
X102066125Y-85159276D01*
X102066125Y-85159276D02*
X102042316Y-85206895D01*
X102042316Y-85206895D02*
X102018506Y-85230704D01*
X102018506Y-85230704D02*
X101970887Y-85254514D01*
X101970887Y-85254514D02*
X101780411Y-85254514D01*
X102280411Y-85230704D02*
X102447078Y-85230704D01*
X102518506Y-85492609D02*
X102280411Y-85492609D01*
X102280411Y-85492609D02*
X102280411Y-84992609D01*
X102280411Y-84992609D02*
X102518506Y-84992609D01*
X102899459Y-85230704D02*
X102732792Y-85230704D01*
X102732792Y-85492609D02*
X102732792Y-84992609D01*
X102732792Y-84992609D02*
X102970887Y-84992609D01*
X103323810Y-110976809D02*
X103490476Y-111476809D01*
X103490476Y-111476809D02*
X103657143Y-110976809D01*
X103823809Y-111286333D02*
X104204762Y-111286333D01*
X104014285Y-111476809D02*
X104014285Y-111095857D01*
D11*
X115124592Y-89034679D02*
X115124592Y-89682298D01*
X115124592Y-89682298D02*
X115162687Y-89758488D01*
X115162687Y-89758488D02*
X115200782Y-89796584D01*
X115200782Y-89796584D02*
X115276973Y-89834679D01*
X115276973Y-89834679D02*
X115429354Y-89834679D01*
X115429354Y-89834679D02*
X115505544Y-89796584D01*
X115505544Y-89796584D02*
X115543639Y-89758488D01*
X115543639Y-89758488D02*
X115581735Y-89682298D01*
X115581735Y-89682298D02*
X115581735Y-89034679D01*
X115924591Y-89110869D02*
X115962687Y-89072774D01*
X115962687Y-89072774D02*
X116038877Y-89034679D01*
X116038877Y-89034679D02*
X116229353Y-89034679D01*
X116229353Y-89034679D02*
X116305544Y-89072774D01*
X116305544Y-89072774D02*
X116343639Y-89110869D01*
X116343639Y-89110869D02*
X116381734Y-89187060D01*
X116381734Y-89187060D02*
X116381734Y-89263250D01*
X116381734Y-89263250D02*
X116343639Y-89377536D01*
X116343639Y-89377536D02*
X115886496Y-89834679D01*
X115886496Y-89834679D02*
X116381734Y-89834679D01*
D10*
X126154096Y-108899350D02*
X126130287Y-108923160D01*
X126130287Y-108923160D02*
X126058858Y-108946969D01*
X126058858Y-108946969D02*
X126011239Y-108946969D01*
X126011239Y-108946969D02*
X125939811Y-108923160D01*
X125939811Y-108923160D02*
X125892192Y-108875540D01*
X125892192Y-108875540D02*
X125868382Y-108827921D01*
X125868382Y-108827921D02*
X125844573Y-108732683D01*
X125844573Y-108732683D02*
X125844573Y-108661255D01*
X125844573Y-108661255D02*
X125868382Y-108566017D01*
X125868382Y-108566017D02*
X125892192Y-108518398D01*
X125892192Y-108518398D02*
X125939811Y-108470779D01*
X125939811Y-108470779D02*
X126011239Y-108446969D01*
X126011239Y-108446969D02*
X126058858Y-108446969D01*
X126058858Y-108446969D02*
X126130287Y-108470779D01*
X126130287Y-108470779D02*
X126154096Y-108494588D01*
X126606477Y-108946969D02*
X126368382Y-108946969D01*
X126368382Y-108946969D02*
X126368382Y-108446969D01*
X126773144Y-108946969D02*
X126773144Y-108446969D01*
X127058858Y-108946969D02*
X126844573Y-108661255D01*
X127058858Y-108446969D02*
X126773144Y-108732683D01*
X127273144Y-108756493D02*
X127654097Y-108756493D01*
D11*
X112549032Y-89020455D02*
X112549032Y-89668074D01*
X112549032Y-89668074D02*
X112587127Y-89744264D01*
X112587127Y-89744264D02*
X112625222Y-89782360D01*
X112625222Y-89782360D02*
X112701413Y-89820455D01*
X112701413Y-89820455D02*
X112853794Y-89820455D01*
X112853794Y-89820455D02*
X112929984Y-89782360D01*
X112929984Y-89782360D02*
X112968079Y-89744264D01*
X112968079Y-89744264D02*
X113006175Y-89668074D01*
X113006175Y-89668074D02*
X113006175Y-89020455D01*
X113806174Y-89820455D02*
X113349031Y-89820455D01*
X113577603Y-89820455D02*
X113577603Y-89020455D01*
X113577603Y-89020455D02*
X113501412Y-89134740D01*
X113501412Y-89134740D02*
X113425222Y-89210931D01*
X113425222Y-89210931D02*
X113349031Y-89249026D01*
X107524999Y-78562295D02*
X107524999Y-79133723D01*
X107524999Y-79133723D02*
X107496428Y-79248009D01*
X107496428Y-79248009D02*
X107439285Y-79324200D01*
X107439285Y-79324200D02*
X107353571Y-79362295D01*
X107353571Y-79362295D02*
X107296428Y-79362295D01*
X108124999Y-79362295D02*
X107782142Y-79362295D01*
X107953571Y-79362295D02*
X107953571Y-78562295D01*
X107953571Y-78562295D02*
X107896428Y-78676580D01*
X107896428Y-78676580D02*
X107839285Y-78752771D01*
X107839285Y-78752771D02*
X107782142Y-78790866D01*
D10*
X115466702Y-111149790D02*
X115442893Y-111173600D01*
X115442893Y-111173600D02*
X115371464Y-111197409D01*
X115371464Y-111197409D02*
X115323845Y-111197409D01*
X115323845Y-111197409D02*
X115252417Y-111173600D01*
X115252417Y-111173600D02*
X115204798Y-111125980D01*
X115204798Y-111125980D02*
X115180988Y-111078361D01*
X115180988Y-111078361D02*
X115157179Y-110983123D01*
X115157179Y-110983123D02*
X115157179Y-110911695D01*
X115157179Y-110911695D02*
X115180988Y-110816457D01*
X115180988Y-110816457D02*
X115204798Y-110768838D01*
X115204798Y-110768838D02*
X115252417Y-110721219D01*
X115252417Y-110721219D02*
X115323845Y-110697409D01*
X115323845Y-110697409D02*
X115371464Y-110697409D01*
X115371464Y-110697409D02*
X115442893Y-110721219D01*
X115442893Y-110721219D02*
X115466702Y-110745028D01*
X115657179Y-111173600D02*
X115728607Y-111197409D01*
X115728607Y-111197409D02*
X115847655Y-111197409D01*
X115847655Y-111197409D02*
X115895274Y-111173600D01*
X115895274Y-111173600D02*
X115919083Y-111149790D01*
X115919083Y-111149790D02*
X115942893Y-111102171D01*
X115942893Y-111102171D02*
X115942893Y-111054552D01*
X115942893Y-111054552D02*
X115919083Y-111006933D01*
X115919083Y-111006933D02*
X115895274Y-110983123D01*
X115895274Y-110983123D02*
X115847655Y-110959314D01*
X115847655Y-110959314D02*
X115752417Y-110935504D01*
X115752417Y-110935504D02*
X115704798Y-110911695D01*
X115704798Y-110911695D02*
X115680988Y-110887885D01*
X115680988Y-110887885D02*
X115657179Y-110840266D01*
X115657179Y-110840266D02*
X115657179Y-110792647D01*
X115657179Y-110792647D02*
X115680988Y-110745028D01*
X115680988Y-110745028D02*
X115704798Y-110721219D01*
X115704798Y-110721219D02*
X115752417Y-110697409D01*
X115752417Y-110697409D02*
X115871464Y-110697409D01*
X115871464Y-110697409D02*
X115942893Y-110721219D01*
X116157178Y-111006933D02*
X116538131Y-111006933D01*
D12*
X101560000Y-91580000D02*
X102960000Y-91580000D01*
X101560000Y-92980000D02*
X101560000Y-91580000D01*
X102960000Y-91580000D02*
X102960000Y-92980000D01*
X102960000Y-92980000D02*
X101560000Y-92980000D01*
X103625000Y-100375000D02*
X105025000Y-100375000D01*
X103625000Y-101775000D02*
X103625000Y-100375000D01*
X105025000Y-100375000D02*
X105025000Y-101775000D01*
X105025000Y-101775000D02*
X103625000Y-101775000D01*
X112950000Y-111550000D02*
X114350000Y-111550000D01*
X112950000Y-112950000D02*
X112950000Y-111550000D01*
X114350000Y-111550000D02*
X114350000Y-112950000D01*
X114350000Y-112950000D02*
X112950000Y-112950000D01*
D13*
X105702220Y-102990240D02*
X105702220Y-103340240D01*
X105702220Y-102990240D02*
X106052220Y-102990240D01*
X105702220Y-109990240D02*
X105702220Y-109640240D01*
X105702220Y-109990240D02*
X106052220Y-109990240D01*
X112702220Y-102990240D02*
X112352220Y-102990240D01*
X112702220Y-102990240D02*
X112702220Y-103340240D01*
X112702220Y-109990240D02*
X112352220Y-109990240D01*
X112702220Y-109990240D02*
X112702220Y-109640240D01*
X105625820Y-102690240D02*
G75*
G02*
X105178620Y-102690240I-223600J0D01*
G01*
X105178620Y-102690240D02*
G75*
G02*
X105625820Y-102690240I223600J0D01*
G01*
X106102220Y-103290240D02*
G75*
G02*
X105902220Y-103290240I-100000J0D01*
G01*
X105902220Y-103290240D02*
G75*
G02*
X106102220Y-103290240I100000J0D01*
G01*
D12*
X103600000Y-98300000D02*
X105000000Y-98300000D01*
X103600000Y-99700000D02*
X103600000Y-98300000D01*
X105000000Y-98300000D02*
X105000000Y-99700000D01*
X105000000Y-99700000D02*
X103600000Y-99700000D01*
X101600000Y-98300000D02*
X103000000Y-98300000D01*
X101600000Y-99700000D02*
X101600000Y-98300000D01*
X103000000Y-98300000D02*
X103000000Y-99700000D01*
X103000000Y-99700000D02*
X101600000Y-99700000D01*
X126075000Y-104425000D02*
X127475000Y-104425000D01*
X126075000Y-105825000D02*
X126075000Y-104425000D01*
X127475000Y-104425000D02*
X127475000Y-105825000D01*
X127475000Y-105825000D02*
X126075000Y-105825000D01*
X101590880Y-100371680D02*
X102990880Y-100371680D01*
X101590880Y-101771680D02*
X101590880Y-100371680D01*
X102990880Y-100371680D02*
X102990880Y-101771680D01*
X102990880Y-101771680D02*
X101590880Y-101771680D01*
X126322860Y-91400400D02*
X127722860Y-91400400D01*
X126322860Y-92800400D02*
X126322860Y-91400400D01*
X127722860Y-91400400D02*
X127722860Y-92800400D01*
X127722860Y-92800400D02*
X126322860Y-92800400D01*
D13*
X115975130Y-102968810D02*
X115975130Y-103318810D01*
X115975130Y-102968810D02*
X116325130Y-102968810D01*
X115975130Y-109968810D02*
X115975130Y-109618810D01*
X115975130Y-109968810D02*
X116325130Y-109968810D01*
X122975130Y-102968810D02*
X122625130Y-102968810D01*
X122975130Y-102968810D02*
X122975130Y-103318810D01*
X122975130Y-109968810D02*
X122625130Y-109968810D01*
X122975130Y-109968810D02*
X122975130Y-109618810D01*
X115898730Y-102668810D02*
G75*
G02*
X115451530Y-102668810I-223600J0D01*
G01*
X115451530Y-102668810D02*
G75*
G02*
X115898730Y-102668810I223600J0D01*
G01*
X116375130Y-103268810D02*
G75*
G02*
X116175130Y-103268810I-100000J0D01*
G01*
X116175130Y-103268810D02*
G75*
G02*
X116375130Y-103268810I100000J0D01*
G01*
D12*
X103080000Y-90030000D02*
G75*
G02*
X101680000Y-90030000I-700000J0D01*
G01*
X101680000Y-90030000D02*
G75*
G02*
X103080000Y-90030000I700000J0D01*
G01*
X103034060Y-86647020D02*
G75*
G02*
X101634060Y-86647020I-700000J0D01*
G01*
X101634060Y-86647020D02*
G75*
G02*
X103034060Y-86647020I700000J0D01*
G01*
X103100000Y-112000000D02*
X104500000Y-112000000D01*
X103100000Y-113400000D02*
X103100000Y-112000000D01*
X104500000Y-112000000D02*
X104500000Y-113400000D01*
X104500000Y-113400000D02*
X103100000Y-113400000D01*
D13*
X115914400Y-91045280D02*
X115914400Y-91395280D01*
X115914400Y-91045280D02*
X116264400Y-91045280D01*
X115914400Y-98045280D02*
X115914400Y-97695280D01*
X115914400Y-98045280D02*
X116264400Y-98045280D01*
X122914400Y-91045280D02*
X122564400Y-91045280D01*
X122914400Y-91045280D02*
X122914400Y-91395280D01*
X122914400Y-98045280D02*
X122564400Y-98045280D01*
X122914400Y-98045280D02*
X122914400Y-97695280D01*
X115838000Y-90745280D02*
G75*
G02*
X115390800Y-90745280I-223600J0D01*
G01*
X115390800Y-90745280D02*
G75*
G02*
X115838000Y-90745280I223600J0D01*
G01*
X116314400Y-91345280D02*
G75*
G02*
X116114400Y-91345280I-100000J0D01*
G01*
X116114400Y-91345280D02*
G75*
G02*
X116314400Y-91345280I100000J0D01*
G01*
D12*
X126075000Y-106475000D02*
X127475000Y-106475000D01*
X126075000Y-107875000D02*
X126075000Y-106475000D01*
X127475000Y-106475000D02*
X127475000Y-107875000D01*
X127475000Y-107875000D02*
X126075000Y-107875000D01*
X126075000Y-104425000D02*
X127475000Y-104425000D01*
X126075000Y-105825000D02*
X126075000Y-104425000D01*
X127475000Y-104425000D02*
X127475000Y-105825000D01*
X127475000Y-105825000D02*
X126075000Y-105825000D01*
D13*
X105992120Y-91000000D02*
X105992120Y-91350000D01*
X105992120Y-91000000D02*
X106342120Y-91000000D01*
X105992120Y-98000000D02*
X105992120Y-97650000D01*
X105992120Y-98000000D02*
X106342120Y-98000000D01*
X112992120Y-91000000D02*
X112642120Y-91000000D01*
X112992120Y-91000000D02*
X112992120Y-91350000D01*
X112992120Y-98000000D02*
X112642120Y-98000000D01*
X112992120Y-98000000D02*
X112992120Y-97650000D01*
X105915720Y-90700000D02*
G75*
G02*
X105468520Y-90700000I-223600J0D01*
G01*
X105468520Y-90700000D02*
G75*
G02*
X105915720Y-90700000I223600J0D01*
G01*
X106392120Y-91300000D02*
G75*
G02*
X106192120Y-91300000I-100000J0D01*
G01*
X106192120Y-91300000D02*
G75*
G02*
X106392120Y-91300000I100000J0D01*
G01*
D14*
X103680000Y-80050000D02*
X103680000Y-88350000D01*
X103680000Y-88350000D02*
X104630000Y-88350000D01*
X104630000Y-79300000D02*
X104630000Y-80050000D01*
X104630000Y-80050000D02*
X103680000Y-80050000D01*
X104630000Y-88350000D02*
X104630000Y-89100000D01*
X104630000Y-89100000D02*
X106580000Y-89100000D01*
X106580000Y-79300000D02*
X104630000Y-79300000D01*
X106580000Y-79970000D02*
X106580000Y-79300000D01*
X106580000Y-79970000D02*
X122620000Y-79970000D01*
X106580000Y-88430000D02*
X122620000Y-88430000D01*
X106580000Y-89100000D02*
X106580000Y-88430000D01*
X122620000Y-79300000D02*
X122620000Y-79970000D01*
X122620000Y-88430000D02*
X122620000Y-89100000D01*
X122620000Y-89100000D02*
X124570000Y-89100000D01*
X124570000Y-79300000D02*
X122620000Y-79300000D01*
X124570000Y-80050000D02*
X124570000Y-79300000D01*
X124570000Y-88350000D02*
X125520000Y-88350000D01*
X124570000Y-89100000D02*
X124570000Y-88350000D01*
X125520000Y-80050000D02*
X124570000Y-80050000D01*
X125520000Y-80050000D02*
X125520000Y-88350000D01*
X122300000Y-78850000D02*
G75*
G02*
X122100000Y-78850000I-100000J0D01*
G01*
X122100000Y-78850000D02*
G75*
G02*
X122300000Y-78850000I100000J0D01*
G01*
D12*
X115175000Y-111550000D02*
X116575000Y-111550000D01*
X115175000Y-112950000D02*
X115175000Y-111550000D01*
X116575000Y-111550000D02*
X116575000Y-112950000D01*
X116575000Y-112950000D02*
X115175000Y-112950000D01*
%LPC*%
D15*
X102055000Y-118950000D02*
X104005000Y-118950000D01*
X104005000Y-120750000D01*
X102055000Y-120750000D01*
X102055000Y-118950000D01*
X102105000Y-114510000D02*
X103915000Y-114510000D01*
X103915000Y-115890000D01*
X102105000Y-115890000D01*
X102105000Y-114510000D01*
X125325000Y-118950000D02*
X127275000Y-118950000D01*
X127275000Y-120750000D01*
X125325000Y-120750000D01*
X125325000Y-118950000D01*
X125445000Y-114490000D02*
X127255000Y-114490000D01*
X127255000Y-115870000D01*
X125445000Y-115870000D01*
X125445000Y-114490000D01*
D16*
X102260000Y-92280000D03*
D17*
X114500000Y-95155000D03*
X114500000Y-95795000D03*
D16*
X104325000Y-101075000D03*
X113650000Y-112250000D03*
D18*
X105652220Y-103990240D03*
X105652220Y-104490240D03*
X105652220Y-104990240D03*
X105652220Y-105490240D03*
X105652220Y-105990240D03*
X105652220Y-106490240D03*
X105652220Y-106990240D03*
X105652220Y-107490240D03*
X105652220Y-107990240D03*
X105652220Y-108490240D03*
X105652220Y-108990240D03*
D19*
X106702220Y-110040240D03*
X107202220Y-110040240D03*
X107702220Y-110040240D03*
X108202220Y-110040240D03*
X108702220Y-110040240D03*
X109202220Y-110040240D03*
X109702220Y-110040240D03*
X110202220Y-110040240D03*
X110702220Y-110040240D03*
X111202220Y-110040240D03*
X111702220Y-110040240D03*
D20*
X112752220Y-108990240D03*
X112752220Y-108490240D03*
X112752220Y-107990240D03*
X112752220Y-107490240D03*
X112752220Y-106990240D03*
X112752220Y-106490240D03*
X112752220Y-105990240D03*
X112752220Y-105490240D03*
X112752220Y-104990240D03*
X112752220Y-104490240D03*
X112752220Y-103990240D03*
D21*
X111702220Y-102940240D03*
X111202220Y-102940240D03*
X110702220Y-102940240D03*
X110202220Y-102940240D03*
X109702220Y-102940240D03*
X109202220Y-102940240D03*
X108702220Y-102940240D03*
X108202220Y-102940240D03*
X107702220Y-102940240D03*
X107202220Y-102940240D03*
X106702220Y-102940240D03*
D22*
X109202220Y-106490240D03*
D16*
X104300000Y-99000000D03*
X102300000Y-99000000D03*
D17*
X104275000Y-106330000D03*
X104275000Y-106970000D03*
X104200000Y-95105000D03*
X104200000Y-95745000D03*
D16*
X126775000Y-105125000D03*
D23*
X108108030Y-99832870D03*
X107468030Y-99832870D03*
D24*
X110878380Y-112102900D03*
X111518380Y-112102900D03*
D16*
X102290880Y-101071680D03*
D24*
X109248570Y-99843550D03*
X109888570Y-99843550D03*
X111048570Y-99843550D03*
X111688570Y-99843550D03*
D25*
X96650000Y-82485000D03*
D24*
X114079020Y-97886520D03*
X114719020Y-97886520D03*
D26*
X104300000Y-105445000D03*
X104300000Y-104805000D03*
D16*
X127022860Y-92100400D03*
D18*
X115925130Y-103968810D03*
X115925130Y-104468810D03*
X115925130Y-104968810D03*
X115925130Y-105468810D03*
X115925130Y-105968810D03*
X115925130Y-106468810D03*
X115925130Y-106968810D03*
X115925130Y-107468810D03*
X115925130Y-107968810D03*
X115925130Y-108468810D03*
X115925130Y-108968810D03*
D19*
X116975130Y-110018810D03*
X117475130Y-110018810D03*
X117975130Y-110018810D03*
X118475130Y-110018810D03*
X118975130Y-110018810D03*
X119475130Y-110018810D03*
X119975130Y-110018810D03*
X120475130Y-110018810D03*
X120975130Y-110018810D03*
X121475130Y-110018810D03*
X121975130Y-110018810D03*
D20*
X123025130Y-108968810D03*
X123025130Y-108468810D03*
X123025130Y-107968810D03*
X123025130Y-107468810D03*
X123025130Y-106968810D03*
X123025130Y-106468810D03*
X123025130Y-105968810D03*
X123025130Y-105468810D03*
X123025130Y-104968810D03*
X123025130Y-104468810D03*
X123025130Y-103968810D03*
D21*
X121975130Y-102918810D03*
X121475130Y-102918810D03*
X120975130Y-102918810D03*
X120475130Y-102918810D03*
X119975130Y-102918810D03*
X119475130Y-102918810D03*
X118975130Y-102918810D03*
X118475130Y-102918810D03*
X117975130Y-102918810D03*
X117475130Y-102918810D03*
X116975130Y-102918810D03*
D22*
X119475130Y-106468810D03*
D27*
X102380000Y-90030000D03*
D24*
X122955000Y-111850000D03*
X123595000Y-111850000D03*
X120844970Y-111856150D03*
X121484970Y-111856150D03*
D26*
X114325000Y-104045000D03*
X114325000Y-103405000D03*
D27*
X102334060Y-86647020D03*
D23*
X114645000Y-99800000D03*
X114005000Y-99800000D03*
D16*
X103800000Y-112700000D03*
D18*
X115864400Y-92045280D03*
X115864400Y-92545280D03*
X115864400Y-93045280D03*
X115864400Y-93545280D03*
X115864400Y-94045280D03*
X115864400Y-94545280D03*
X115864400Y-95045280D03*
X115864400Y-95545280D03*
X115864400Y-96045280D03*
X115864400Y-96545280D03*
X115864400Y-97045280D03*
D19*
X116914400Y-98095280D03*
X117414400Y-98095280D03*
X117914400Y-98095280D03*
X118414400Y-98095280D03*
X118914400Y-98095280D03*
X119414400Y-98095280D03*
X119914400Y-98095280D03*
X120414400Y-98095280D03*
X120914400Y-98095280D03*
X121414400Y-98095280D03*
X121914400Y-98095280D03*
D20*
X122964400Y-97045280D03*
X122964400Y-96545280D03*
X122964400Y-96045280D03*
X122964400Y-95545280D03*
X122964400Y-95045280D03*
X122964400Y-94545280D03*
X122964400Y-94045280D03*
X122964400Y-93545280D03*
X122964400Y-93045280D03*
X122964400Y-92545280D03*
X122964400Y-92045280D03*
D21*
X121914400Y-90995280D03*
X121414400Y-90995280D03*
X120914400Y-90995280D03*
X120414400Y-90995280D03*
X119914400Y-90995280D03*
X119414400Y-90995280D03*
X118914400Y-90995280D03*
X118414400Y-90995280D03*
X117914400Y-90995280D03*
X117414400Y-90995280D03*
X116914400Y-90995280D03*
D22*
X119414400Y-94545280D03*
D16*
X126775000Y-107175000D03*
D26*
X104350000Y-109895000D03*
X104350000Y-109255000D03*
D17*
X104225000Y-91780000D03*
X104225000Y-92420000D03*
D26*
X104225000Y-93845000D03*
X104225000Y-93205000D03*
D24*
X114030000Y-109470000D03*
X114670000Y-109470000D03*
X125655000Y-97475000D03*
X126295000Y-97475000D03*
X120723570Y-99743550D03*
X121363570Y-99743550D03*
D26*
X114497104Y-94150648D03*
X114497104Y-93510648D03*
D25*
X132650000Y-82485000D03*
D16*
X126775000Y-105125000D03*
D26*
X114300000Y-106395000D03*
X114300000Y-105755000D03*
D18*
X105942120Y-92000000D03*
X105942120Y-92500000D03*
X105942120Y-93000000D03*
X105942120Y-93500000D03*
X105942120Y-94000000D03*
X105942120Y-94500000D03*
X105942120Y-95000000D03*
X105942120Y-95500000D03*
X105942120Y-96000000D03*
X105942120Y-96500000D03*
X105942120Y-97000000D03*
D19*
X106992120Y-98050000D03*
X107492120Y-98050000D03*
X107992120Y-98050000D03*
X108492120Y-98050000D03*
X108992120Y-98050000D03*
X109492120Y-98050000D03*
X109992120Y-98050000D03*
X110492120Y-98050000D03*
X110992120Y-98050000D03*
X111492120Y-98050000D03*
X111992120Y-98050000D03*
D20*
X113042120Y-97000000D03*
X113042120Y-96500000D03*
X113042120Y-96000000D03*
X113042120Y-95500000D03*
X113042120Y-95000000D03*
X113042120Y-94500000D03*
X113042120Y-94000000D03*
X113042120Y-93500000D03*
X113042120Y-93000000D03*
X113042120Y-92500000D03*
X113042120Y-92000000D03*
D21*
X111992120Y-90950000D03*
X111492120Y-90950000D03*
X110992120Y-90950000D03*
X110492120Y-90950000D03*
X109992120Y-90950000D03*
X109492120Y-90950000D03*
X108992120Y-90950000D03*
X108492120Y-90950000D03*
X107992120Y-90950000D03*
X107492120Y-90950000D03*
X106992120Y-90950000D03*
D22*
X109492120Y-94500000D03*
D24*
X124130000Y-97500000D03*
X124770000Y-97500000D03*
X124339270Y-109240000D03*
X124979270Y-109240000D03*
D28*
X105320000Y-86450000D03*
X123880000Y-84200000D03*
D29*
X107000000Y-84600000D03*
X107000000Y-85800000D03*
X122200000Y-82600000D03*
X122200000Y-83800000D03*
X108600000Y-80600000D03*
X108600000Y-81800000D03*
X108600000Y-82600000D03*
X108600000Y-83800000D03*
X108600000Y-84600000D03*
X108600000Y-85800000D03*
X108600000Y-86600000D03*
X108600000Y-87800000D03*
X109400000Y-80600000D03*
X109400000Y-81800000D03*
X109400000Y-87800000D03*
X109400000Y-86600000D03*
X109400000Y-85800000D03*
X109400000Y-84600000D03*
X109400000Y-83800000D03*
X109400000Y-82600000D03*
X119800000Y-80600000D03*
X119800000Y-81800000D03*
X119800000Y-82600000D03*
X119800000Y-83800000D03*
X119800000Y-84600000D03*
X119800000Y-85800000D03*
X119800000Y-86600000D03*
X119800000Y-87800000D03*
X120600000Y-87800000D03*
X120600000Y-86600000D03*
X120600000Y-85800000D03*
X120600000Y-84600000D03*
X120600000Y-83800000D03*
X120600000Y-82600000D03*
X120600000Y-81800000D03*
X120600000Y-80600000D03*
X111800000Y-80600000D03*
X111800000Y-81800000D03*
X111800000Y-82600000D03*
X111800000Y-83800000D03*
X111800000Y-84600000D03*
X111800000Y-85800000D03*
X111800000Y-86600000D03*
X111800000Y-87800000D03*
X112600000Y-80600000D03*
X112600000Y-81800000D03*
X112600000Y-87800000D03*
X112600000Y-86600000D03*
X112600000Y-85800000D03*
X112600000Y-84600000D03*
X112600000Y-83800000D03*
X112600000Y-82600000D03*
X115800000Y-81800000D03*
X116600000Y-81800000D03*
X117400000Y-81800000D03*
X115000000Y-82600000D03*
X115800000Y-82600000D03*
X117400000Y-82600000D03*
X116600000Y-82600000D03*
X115800000Y-83800000D03*
X116600000Y-83800000D03*
X117400000Y-83800000D03*
X117400000Y-84600000D03*
X115000000Y-81800000D03*
X117400000Y-80600000D03*
X116600000Y-80600000D03*
X115800000Y-80600000D03*
X115000000Y-80600000D03*
X111000000Y-81800000D03*
X111000000Y-82600000D03*
X111000000Y-83800000D03*
X111000000Y-84600000D03*
X111000000Y-85800000D03*
X111000000Y-86600000D03*
X111000000Y-87800000D03*
X111000000Y-80600000D03*
X110200000Y-87800000D03*
X110200000Y-86600000D03*
X110200000Y-85800000D03*
X110200000Y-84600000D03*
X110200000Y-83800000D03*
X110200000Y-82600000D03*
X110200000Y-81800000D03*
X110200000Y-80600000D03*
X119000000Y-80600000D03*
X119000000Y-81800000D03*
X119000000Y-82600000D03*
X119000000Y-83800000D03*
X119000000Y-84600000D03*
X119000000Y-85800000D03*
X119000000Y-86600000D03*
X119000000Y-87800000D03*
X118200000Y-87800000D03*
X118200000Y-86600000D03*
X118200000Y-85800000D03*
X118200000Y-81800000D03*
X118200000Y-82600000D03*
X118200000Y-83800000D03*
X118200000Y-84600000D03*
X118200000Y-80600000D03*
X114200000Y-85800000D03*
X114200000Y-86600000D03*
X114200000Y-87800000D03*
X113400000Y-87800000D03*
X113400000Y-86600000D03*
X113400000Y-85800000D03*
X113400000Y-84600000D03*
X113400000Y-83800000D03*
X113400000Y-82600000D03*
X113400000Y-81800000D03*
X113400000Y-80600000D03*
X114200000Y-80600000D03*
X114200000Y-81800000D03*
X114200000Y-82600000D03*
X114200000Y-83800000D03*
X114200000Y-84600000D03*
X116600000Y-84600000D03*
X115800000Y-84600000D03*
X117400000Y-85800000D03*
X116600000Y-85800000D03*
X115800000Y-85800000D03*
X117400000Y-86600000D03*
X116600000Y-86600000D03*
X115800000Y-86600000D03*
X117400000Y-87800000D03*
X116600000Y-87800000D03*
X115800000Y-87800000D03*
X115000000Y-83800000D03*
X115000000Y-84600000D03*
X115000000Y-85800000D03*
X115000000Y-86600000D03*
X115000000Y-87800000D03*
X107000000Y-80600000D03*
X107000000Y-81800000D03*
X107000000Y-82600000D03*
X107000000Y-86600000D03*
X107000000Y-87800000D03*
X107800000Y-80600000D03*
X107800000Y-82600000D03*
X107800000Y-84600000D03*
X107800000Y-86600000D03*
X121400000Y-81800000D03*
X121400000Y-83800000D03*
X121400000Y-85800000D03*
X121400000Y-87800000D03*
X122200000Y-80600000D03*
X122200000Y-81800000D03*
X122200000Y-85800000D03*
X122200000Y-86600000D03*
X122200000Y-87800000D03*
X107000000Y-83800000D03*
X122200000Y-84600000D03*
X107800000Y-81800000D03*
X107800000Y-83800000D03*
X121400000Y-80600000D03*
X121400000Y-82600000D03*
X107800000Y-85800000D03*
X107800000Y-87800000D03*
X121400000Y-84600000D03*
X121400000Y-86600000D03*
D16*
X115875000Y-112250000D03*
D26*
X125025000Y-107545000D03*
X125025000Y-106905000D03*
D24*
X124055000Y-99650000D03*
X124695000Y-99650000D03*
X114030000Y-110310000D03*
X114670000Y-110310000D03*
D27*
X104520000Y-117605000D03*
X125370000Y-117605000D03*
D30*
X104680000Y-114700000D03*
X105180000Y-114700000D03*
X105680000Y-114700000D03*
X106180000Y-114700000D03*
X106680000Y-114700000D03*
X107180000Y-114700000D03*
X107680000Y-114700000D03*
X108180000Y-114700000D03*
X108680000Y-114700000D03*
X109180000Y-114700000D03*
X109680000Y-114700000D03*
X110180000Y-114700000D03*
X110680000Y-114700000D03*
X111180000Y-114700000D03*
X111680000Y-114700000D03*
X112180000Y-114700000D03*
X112680000Y-114700000D03*
X113180000Y-114700000D03*
X113680000Y-114700000D03*
X114180000Y-114700000D03*
X114680000Y-114700000D03*
X115180000Y-114700000D03*
X115680000Y-114700000D03*
X116180000Y-114700000D03*
X116680000Y-114700000D03*
X117180000Y-114700000D03*
X117680000Y-114700000D03*
X118180000Y-114700000D03*
X118680000Y-114700000D03*
X119180000Y-114700000D03*
X119680000Y-114700000D03*
X120180000Y-114700000D03*
X120680000Y-114700000D03*
X121180000Y-114700000D03*
X121680000Y-114700000D03*
X122180000Y-114700000D03*
X122680000Y-114700000D03*
X123180000Y-114700000D03*
X123680000Y-114700000D03*
X124180000Y-114700000D03*
X105180000Y-116890000D03*
X105680000Y-116890000D03*
X106180000Y-116890000D03*
X106680000Y-116890000D03*
X107180000Y-116890000D03*
X107680000Y-116890000D03*
X108180000Y-116890000D03*
X108680000Y-116890000D03*
X109180000Y-116890000D03*
X109680000Y-116890000D03*
X110180000Y-116890000D03*
X110680000Y-116890000D03*
X111180000Y-116890000D03*
X111680000Y-116890000D03*
X112180000Y-116890000D03*
X112680000Y-116890000D03*
X113180000Y-116890000D03*
X113680000Y-116890000D03*
X114180000Y-116890000D03*
X114680000Y-116890000D03*
X115180000Y-116890000D03*
X115680000Y-116890000D03*
X116180000Y-116890000D03*
X116680000Y-116890000D03*
X117180000Y-116890000D03*
X117680000Y-116890000D03*
X118180000Y-116890000D03*
X118680000Y-116890000D03*
X119180000Y-116890000D03*
X119680000Y-116890000D03*
X120180000Y-116890000D03*
X120680000Y-116890000D03*
X121180000Y-116890000D03*
X121680000Y-116890000D03*
X122180000Y-116890000D03*
X122680000Y-116890000D03*
X123180000Y-116890000D03*
X123680000Y-116890000D03*
X124180000Y-116890000D03*
X124680000Y-116890000D03*
D31*
X103010000Y-115200000D03*
D32*
X103030000Y-119850000D03*
X126300000Y-119850000D03*
D31*
X126350000Y-115180000D03*
D24*
X114055000Y-98925000D03*
X114695000Y-98925000D03*
%LPD*%
M02*
