M48
; DRILL file {KiCad 9.0.5} date 2025-10-24T14:38:56-0700
; FORMAT={-:-/ absolute / metric / decimal}
; #@! TF.CreationDate,2025-10-24T14:38:56-07:00
; #@! TF.GenerationSoftware,Kicad,Pcbnew,9.0.5
; #@! TF.FileFunction,Plated,1,2,Blind
FMAT,2
METRIC
; #@! TA.AperFunction,Plated,Buried,ViaDrill
T1C0.152
%
G90
G05
T1
X102.101Y-102.275
X102.482Y-105.275
X103.575Y-93.8
X103.6Y-113.875
X103.7Y-101.93
X104.171Y-113.854
X104.85Y-106.425
X104.89Y-107.99
X104.95Y-95.05
X105.177Y-113.827
X105.677Y-113.827
X105.677Y-117.927
X105.855Y-100.655
X106.169Y-112.881
X106.177Y-117.927
X106.365Y-113.862
X107.177Y-117.927
X107.338Y-113.871
X107.449Y-100.444
X107.677Y-117.927
X108.099Y-100.444
X108.202Y-110.8
X109.202Y-112.45
X109.249Y-100.851
X109.72Y-100.851
X110.775Y-112.575
X110.786Y-110.852
X111.008Y-98.986
X111.049Y-100.394
X111.177Y-113.927
X111.3Y-110.875
X111.499Y-98.994
X111.677Y-113.927
X111.677Y-117.977
X111.699Y-100.394
X111.74Y-110.86
X111.944Y-112.525
X112.177Y-117.977
X112.677Y-113.927
X113.177Y-113.927
X113.177Y-117.977
X113.727Y-117.977
X114.677Y-117.977
X114.775Y-106.0
X115.123Y-107.984
X115.125Y-106.95
X115.177Y-117.977
X115.24Y-109.47
X115.677Y-113.927
X116.177Y-117.977
X116.227Y-113.927
X116.677Y-117.977
X117.677Y-117.977
X118.177Y-117.977
X120.962Y-110.92
X121.349Y-99.044
X121.571Y-111.064
X121.58Y-118.0
X121.749Y-98.994
X122.077Y-117.99
X122.207Y-111.889
X122.21Y-112.35
X122.349Y-98.894
X122.38Y-110.01
X123.177Y-113.977
X123.3Y-90.675
X123.376Y-100.842
X123.643Y-101.149
X123.677Y-113.977
X124.575Y-113.525
X124.6Y-92.25
X124.649Y-98.094
X126.0Y-109.938
X126.05Y-93.075
M30
