G04 #@! TF.GenerationSoftware,KiCad,Pcbnew,9.0.5*
G04 #@! TF.CreationDate,2025-10-24T14:39:18-07:00*
G04 #@! TF.ProjectId,iris-128b,69726973-2d31-4323-9862-2e6b69636164,rev?*
G04 #@! TF.SameCoordinates,Original*
G04 #@! TF.FileFunction,Soldermask,Bot*
G04 #@! TF.FilePolarity,Negative*
%FSLAX46Y46*%
G04 Gerber Fmt 4.6, Leading zero omitted, Abs format (unit mm)*
G04 Created by KiCad (PCBNEW 9.0.5) date 2025-10-24 14:39:18*
%MOMM*%
%LPD*%
G01*
G04 APERTURE LIST*
G04 Aperture macros list*
%AMRoundRect*
0 Rectangle with rounded corners*
0 $1 Rounding radius*
0 $2 $3 $4 $5 $6 $7 $8 $9 X,Y pos of 4 corners*
0 Add a 4 corners polygon primitive as box body*
4,1,4,$2,$3,$4,$5,$6,$7,$8,$9,$2,$3,0*
0 Add four circle primitives for the rounded corners*
1,1,$1+$1,$2,$3*
1,1,$1+$1,$4,$5*
1,1,$1+$1,$6,$7*
1,1,$1+$1,$8,$9*
0 Add four rect primitives between the rounded corners*
20,1,$1+$1,$2,$3,$4,$5,0*
20,1,$1+$1,$4,$5,$6,$7,0*
20,1,$1+$1,$6,$7,$8,$9,0*
20,1,$1+$1,$8,$9,$2,$3,0*%
G04 Aperture macros list end*
%ADD10C,3.800000*%
%ADD11C,1.000000*%
%ADD12C,1.450000*%
%ADD13RoundRect,0.100000X0.130000X0.100000X-0.130000X0.100000X-0.130000X-0.100000X0.130000X-0.100000X0*%
%ADD14RoundRect,0.100000X0.100000X-0.130000X0.100000X0.130000X-0.100000X0.130000X-0.100000X-0.130000X0*%
%ADD15RoundRect,0.100000X-0.100000X0.130000X-0.100000X-0.130000X0.100000X-0.130000X0.100000X0.130000X0*%
%ADD16RoundRect,0.101600X0.450000X0.125000X-0.450000X0.125000X-0.450000X-0.125000X0.450000X-0.125000X0*%
%ADD17RoundRect,0.101600X0.125000X-0.450000X0.125000X0.450000X-0.125000X0.450000X-0.125000X-0.450000X0*%
%ADD18RoundRect,0.101600X-0.125000X0.450000X-0.125000X-0.450000X0.125000X-0.450000X0.125000X0.450000X0*%
%ADD19RoundRect,0.101600X-0.450000X-0.125000X0.450000X-0.125000X0.450000X0.125000X-0.450000X0.125000X0*%
%ADD20RoundRect,0.101600X2.050000X2.050000X-2.050000X2.050000X-2.050000X-2.050000X2.050000X-2.050000X0*%
%ADD21RoundRect,0.100000X-0.130000X-0.100000X0.130000X-0.100000X0.130000X0.100000X-0.130000X0.100000X0*%
G04 APERTURE END LIST*
D10*
X96650000Y-82485000D03*
D11*
X102380000Y-90030000D03*
X102334060Y-86647020D03*
D10*
X132650000Y-82485000D03*
D12*
X105320000Y-86450000D03*
X123880000Y-84200000D03*
D11*
X104520000Y-117605000D03*
X125370000Y-117605000D03*
D13*
X104300000Y-97808740D03*
X103660000Y-97808740D03*
X105770000Y-110570000D03*
X105130000Y-110570000D03*
X114670000Y-109470000D03*
X114030000Y-109470000D03*
D14*
X113950000Y-98195000D03*
X113950000Y-97555000D03*
D13*
X104995000Y-94575000D03*
X104355000Y-94575000D03*
D15*
X125375000Y-94480000D03*
X125375000Y-95120000D03*
D13*
X114595000Y-111750000D03*
X113955000Y-111750000D03*
D16*
X112998570Y-92043550D03*
X112998570Y-92543550D03*
X112998570Y-93043550D03*
X112998570Y-93543550D03*
X112998570Y-94043550D03*
X112998570Y-94543550D03*
X112998570Y-95043550D03*
X112998570Y-95543550D03*
X112998570Y-96043550D03*
X112998570Y-96543550D03*
X112998570Y-97043550D03*
D17*
X111948570Y-98093550D03*
X111448570Y-98093550D03*
X110948570Y-98093550D03*
D18*
X110448570Y-98093550D03*
D17*
X109948570Y-98093550D03*
X109448570Y-98093550D03*
X108948570Y-98093550D03*
X108448570Y-98093550D03*
X107948570Y-98093550D03*
X107448570Y-98093550D03*
X106948570Y-98093550D03*
D19*
X105898570Y-97043550D03*
X105898570Y-96543550D03*
X105898570Y-96043550D03*
X105898570Y-95543550D03*
X105898570Y-95043550D03*
X105898570Y-94543550D03*
X105898570Y-94043550D03*
X105898570Y-93543550D03*
X105898570Y-93043550D03*
X105898570Y-92543550D03*
X105898570Y-92043550D03*
D18*
X106948570Y-90993550D03*
X107448570Y-90993550D03*
X107948570Y-90993550D03*
X108448570Y-90993550D03*
X108948570Y-90993550D03*
X109448570Y-90993550D03*
X109948570Y-90993550D03*
X110448570Y-90993550D03*
X110948570Y-90993550D03*
X111448570Y-90993550D03*
X111948570Y-90993550D03*
D20*
X109448570Y-94543550D03*
D16*
X112708670Y-103946690D03*
X112708670Y-104446690D03*
X112708670Y-104946690D03*
X112708670Y-105446690D03*
X112708670Y-105946690D03*
X112708670Y-106446690D03*
X112708670Y-106946690D03*
X112708670Y-107446690D03*
X112708670Y-107946690D03*
X112708670Y-108446690D03*
X112708670Y-108946690D03*
D17*
X111658670Y-109996690D03*
X111158670Y-109996690D03*
X110658670Y-109996690D03*
D18*
X110158670Y-109996690D03*
D17*
X109658670Y-109996690D03*
X109158670Y-109996690D03*
X108658670Y-109996690D03*
X108158670Y-109996690D03*
X107658670Y-109996690D03*
X107158670Y-109996690D03*
X106658670Y-109996690D03*
D19*
X105608670Y-108946690D03*
X105608670Y-108446690D03*
X105608670Y-107946690D03*
X105608670Y-107446690D03*
X105608670Y-106946690D03*
X105608670Y-106446690D03*
X105608670Y-105946690D03*
X105608670Y-105446690D03*
X105608670Y-104946690D03*
X105608670Y-104446690D03*
X105608670Y-103946690D03*
D18*
X106658670Y-102896690D03*
X107158670Y-102896690D03*
X107658670Y-102896690D03*
X108158670Y-102896690D03*
X108658670Y-102896690D03*
X109158670Y-102896690D03*
X109658670Y-102896690D03*
X110158670Y-102896690D03*
X110658670Y-102896690D03*
X111158670Y-102896690D03*
X111658670Y-102896690D03*
D20*
X109158670Y-106446690D03*
D21*
X114005000Y-93700000D03*
X114645000Y-93700000D03*
D16*
X122920850Y-92088830D03*
X122920850Y-92588830D03*
X122920850Y-93088830D03*
X122920850Y-93588830D03*
X122920850Y-94088830D03*
X122920850Y-94588830D03*
X122920850Y-95088830D03*
X122920850Y-95588830D03*
X122920850Y-96088830D03*
X122920850Y-96588830D03*
X122920850Y-97088830D03*
D17*
X121870850Y-98138830D03*
X121370850Y-98138830D03*
X120870850Y-98138830D03*
D18*
X120370850Y-98138830D03*
D17*
X119870850Y-98138830D03*
X119370850Y-98138830D03*
X118870850Y-98138830D03*
X118370850Y-98138830D03*
X117870850Y-98138830D03*
X117370850Y-98138830D03*
X116870850Y-98138830D03*
D19*
X115820850Y-97088830D03*
X115820850Y-96588830D03*
X115820850Y-96088830D03*
X115820850Y-95588830D03*
X115820850Y-95088830D03*
X115820850Y-94588830D03*
X115820850Y-94088830D03*
X115820850Y-93588830D03*
X115820850Y-93088830D03*
X115820850Y-92588830D03*
X115820850Y-92088830D03*
D18*
X116870850Y-91038830D03*
X117370850Y-91038830D03*
X117870850Y-91038830D03*
X118370850Y-91038830D03*
X118870850Y-91038830D03*
X119370850Y-91038830D03*
X119870850Y-91038830D03*
X120370850Y-91038830D03*
X120870850Y-91038830D03*
X121370850Y-91038830D03*
X121870850Y-91038830D03*
D20*
X119370850Y-94588830D03*
D13*
X104270000Y-106550000D03*
X103630000Y-106550000D03*
D14*
X114450000Y-107170000D03*
X114450000Y-106530000D03*
D21*
X105120000Y-111380000D03*
X105760000Y-111380000D03*
D13*
X108770000Y-112050000D03*
X108130000Y-112050000D03*
X114673570Y-99443550D03*
X114033570Y-99443550D03*
D21*
X123830000Y-105675000D03*
X124470000Y-105675000D03*
D13*
X118845000Y-99650000D03*
X118205000Y-99650000D03*
X114470000Y-104425000D03*
X113830000Y-104425000D03*
D14*
X114850000Y-98220000D03*
X114850000Y-97580000D03*
D21*
X113830000Y-105650000D03*
X114470000Y-105650000D03*
D15*
X125375000Y-96130000D03*
X125375000Y-96770000D03*
D16*
X122981580Y-103925260D03*
X122981580Y-104425260D03*
X122981580Y-104925260D03*
X122981580Y-105425260D03*
X122981580Y-105925260D03*
X122981580Y-106425260D03*
X122981580Y-106925260D03*
X122981580Y-107425260D03*
X122981580Y-107925260D03*
X122981580Y-108425260D03*
X122981580Y-108925260D03*
D17*
X121931580Y-109975260D03*
X121431580Y-109975260D03*
X120931580Y-109975260D03*
X120431580Y-109975260D03*
X119931580Y-109975260D03*
X119431580Y-109975260D03*
X118931580Y-109975260D03*
X118431580Y-109975260D03*
X117931580Y-109975260D03*
X117431580Y-109975260D03*
X116931580Y-109975260D03*
D19*
X115881580Y-108925260D03*
X115881580Y-108425260D03*
X115881580Y-107925260D03*
X115881580Y-107425260D03*
X115881580Y-106925260D03*
X115881580Y-106425260D03*
X115881580Y-105925260D03*
X115881580Y-105425260D03*
X115881580Y-104925260D03*
X115881580Y-104425260D03*
X115881580Y-103925260D03*
D18*
X116931580Y-102875260D03*
X117431580Y-102875260D03*
X117931580Y-102875260D03*
X118431580Y-102875260D03*
X118931580Y-102875260D03*
X119431580Y-102875260D03*
X119931580Y-102875260D03*
X120431580Y-102875260D03*
X120931580Y-102875260D03*
X121431580Y-102875260D03*
X121931580Y-102875260D03*
D20*
X119431580Y-106425260D03*
D21*
X123830000Y-106800000D03*
X124470000Y-106800000D03*
D15*
X125425000Y-92305000D03*
X125425000Y-92945000D03*
D13*
X117979970Y-111856150D03*
X117339970Y-111856150D03*
X104295000Y-98558740D03*
X103655000Y-98558740D03*
X108108030Y-99832870D03*
X107468030Y-99832870D03*
M02*
