G04 #@! TF.GenerationSoftware,KiCad,Pcbnew,9.0.5*
G04 #@! TF.CreationDate,2025-10-24T14:39:15-07:00*
G04 #@! TF.ProjectId,iris-128b,69726973-2d31-4323-9862-2e6b69636164,rev?*
G04 #@! TF.SameCoordinates,Original*
G04 #@! TF.FileFunction,Copper,L5,Inr*
G04 #@! TF.FilePolarity,Positive*
%FSLAX46Y46*%
G04 Gerber Fmt 4.6, Leading zero omitted, Abs format (unit mm)*
G04 Created by KiCad (PCBNEW 9.0.5) date 2025-10-24 14:39:15*
%MOMM*%
%LPD*%
G01*
G04 APERTURE LIST*
G04 #@! TA.AperFunction,ComponentPad*
%ADD10C,3.800000*%
G04 #@! TD*
G04 #@! TA.AperFunction,ComponentPad*
%ADD11C,1.000000*%
G04 #@! TD*
G04 #@! TA.AperFunction,ViaPad*
%ADD12C,0.600000*%
G04 #@! TD*
G04 #@! TA.AperFunction,ViaPad*
%ADD13C,0.304800*%
G04 #@! TD*
G04 #@! TA.AperFunction,Conductor*
%ADD14C,0.076200*%
G04 #@! TD*
G04 APERTURE END LIST*
D10*
X96650000Y-82485000D03*
D11*
X102380000Y-90030000D03*
X102334060Y-86647020D03*
D10*
X132650000Y-82485000D03*
D12*
X114575000Y-121225000D03*
X105920000Y-91170000D03*
D13*
X114975000Y-95750000D03*
D12*
X126325000Y-116650000D03*
X113627646Y-108979260D03*
X104479560Y-116644300D03*
X114925000Y-91325000D03*
X114950000Y-108510000D03*
X124960000Y-108530000D03*
D13*
X114042120Y-96500000D03*
D12*
X104575000Y-80425000D03*
X112660000Y-110570000D03*
X103400000Y-93150000D03*
X124000000Y-96500000D03*
X104560000Y-108530000D03*
X104680000Y-115660000D03*
X115740000Y-99090000D03*
X105900000Y-84975000D03*
X105675000Y-103300000D03*
X114575000Y-102050000D03*
X116794300Y-110913030D03*
X127025000Y-94025000D03*
X113020000Y-103420000D03*
X107240000Y-111110000D03*
X124450000Y-85300000D03*
X107362751Y-99079640D03*
X114925000Y-79200000D03*
X115410000Y-110290000D03*
X124375000Y-100500000D03*
D13*
X123800000Y-95600000D03*
X105000000Y-96600000D03*
X114025000Y-98700000D03*
X114488596Y-94226850D03*
X119986629Y-99136631D03*
X119407432Y-110754160D03*
X109550000Y-98900000D03*
X109050000Y-110950000D03*
X109300000Y-99227240D03*
X109500000Y-110950000D03*
X119586414Y-99113586D03*
X119200000Y-111100000D03*
X118878861Y-112090164D03*
X112300000Y-100600000D03*
X120350000Y-100300000D03*
X110150000Y-111000000D03*
X121100000Y-80100000D03*
X107400000Y-85375000D03*
X121600000Y-87150000D03*
X104640000Y-91280000D03*
X121625000Y-85050000D03*
X121010680Y-82209640D03*
X107425000Y-81350000D03*
X121000000Y-84200000D03*
X107341470Y-87292688D03*
X107400000Y-83350000D03*
X123850000Y-94045280D03*
X120200000Y-80100000D03*
X123822820Y-92545280D03*
X120159272Y-83292696D03*
X123839740Y-93045280D03*
X120200000Y-82200000D03*
X117398570Y-89843550D03*
X119410480Y-81315560D03*
X123860160Y-93545280D03*
X120200000Y-81330800D03*
X120200420Y-86202520D03*
X121398570Y-89843550D03*
X120898570Y-89843550D03*
X120203976Y-87278464D03*
X119450000Y-89800000D03*
X119405400Y-85341700D03*
X117914400Y-89825000D03*
X119400000Y-82200000D03*
X119400000Y-87287608D03*
X120398570Y-89843550D03*
X116948570Y-89843550D03*
X119400000Y-80100000D03*
X118900000Y-89800000D03*
X119400000Y-84200000D03*
X119400000Y-86200000D03*
X119898570Y-89843550D03*
X118398570Y-89843550D03*
X119383048Y-83298792D03*
X120200000Y-84200000D03*
X123836440Y-92045280D03*
X121914400Y-89843550D03*
X120175020Y-85341700D03*
X106710000Y-101690000D03*
X111400657Y-81314582D03*
X111400000Y-80133500D03*
X105940000Y-101950000D03*
X112232440Y-81295240D03*
X111775000Y-101700000D03*
X113508670Y-104946690D03*
X112200000Y-84200000D03*
X112200000Y-86200000D03*
X113508670Y-103974090D03*
X107990000Y-101650000D03*
X111377984Y-83297776D03*
X111400000Y-87261192D03*
X110490000Y-101675000D03*
X108700000Y-101700000D03*
X111377171Y-84199999D03*
X111400000Y-86200000D03*
X109850000Y-101675000D03*
X112200000Y-82200000D03*
X113508670Y-105946690D03*
X112200000Y-80133500D03*
X111125000Y-101700000D03*
X112105440Y-87244936D03*
X112400000Y-101750000D03*
X112167473Y-85341700D03*
X113508670Y-104446690D03*
X111375000Y-85350000D03*
X109235000Y-101685000D03*
X112146073Y-83304378D03*
X113508670Y-105446690D03*
X111400000Y-82200000D03*
X107340000Y-101680000D03*
X115409980Y-82204560D03*
X117000000Y-82200001D03*
X117033040Y-81285080D03*
X115370864Y-83323176D03*
X114644100Y-82245360D03*
X114701320Y-81295240D03*
X117006624Y-83341464D03*
X116207540Y-82209640D03*
X117000000Y-84200000D03*
X116205000Y-83324192D03*
X117000000Y-80100000D03*
X116270514Y-81295212D03*
X115453160Y-81305400D03*
X116175000Y-80100000D03*
X115450000Y-80100000D03*
X114644100Y-80064114D03*
X109702783Y-87300616D03*
X110600000Y-81315560D03*
X110600000Y-87302848D03*
X109787802Y-83364974D03*
X109800000Y-82200000D03*
X109800000Y-86200000D03*
X110600000Y-85364320D03*
X110686537Y-83313464D03*
X109855000Y-81325720D03*
X109793134Y-85370306D03*
X110600000Y-82200000D03*
X109800000Y-80133500D03*
X110600000Y-86200000D03*
X110600000Y-80133500D03*
X110600000Y-84200000D03*
X109800000Y-84200000D03*
X110012171Y-113812171D03*
X117796604Y-87301297D03*
X118608856Y-84215224D03*
X118625000Y-80100000D03*
X118604151Y-85345851D03*
X117852629Y-85341700D03*
X118600000Y-86200000D03*
X118562500Y-81314672D03*
X118600000Y-82200000D03*
X118645432Y-87293704D03*
X118622064Y-83366356D03*
X117805200Y-86210140D03*
X113000000Y-80100000D03*
X106670000Y-102130000D03*
X113000000Y-82200000D03*
X107640000Y-102110000D03*
X113030000Y-81285080D03*
X107140000Y-102130000D03*
X113800000Y-82200000D03*
X113786920Y-81285080D03*
X114575000Y-86225000D03*
X113800000Y-85341700D03*
X113799112Y-87269320D03*
X110160000Y-102130000D03*
X113833300Y-83297776D03*
X113004600Y-83329272D03*
X108150000Y-102110000D03*
X117267200Y-113858300D03*
X113800000Y-86200000D03*
X109640000Y-102140000D03*
X113000000Y-84200000D03*
X108640000Y-102120000D03*
X113786800Y-84188260D03*
X113776940Y-80123060D03*
X113052860Y-85341700D03*
X109150000Y-102130000D03*
X114570256Y-87259160D03*
X115912500Y-88487500D03*
X116997790Y-86197790D03*
X116200000Y-84200000D03*
X116949084Y-87276255D03*
X117028402Y-85348137D03*
X115297600Y-87277448D03*
X115225000Y-105425260D03*
X115412520Y-86212680D03*
X114635249Y-85364591D03*
X115250000Y-104925260D03*
X116199920Y-86205060D03*
X115000000Y-88325000D03*
X115225000Y-105925260D03*
X116238020Y-85346540D03*
X114625000Y-84225384D03*
X115225000Y-104425260D03*
X115403376Y-84194904D03*
X115388220Y-85363219D03*
X114672501Y-83375085D03*
X115200000Y-103925260D03*
X116200936Y-87247984D03*
X116615784Y-100765784D03*
D14*
X107341470Y-87292688D02*
X107400000Y-87234158D01*
X107425000Y-83325000D02*
X107400000Y-83350000D01*
X107341470Y-87292688D02*
X105475000Y-89159158D01*
X105475000Y-89159158D02*
X105475000Y-90445000D01*
X107425000Y-81350000D02*
X107425000Y-83325000D01*
X107400000Y-87234158D02*
X107400000Y-85375000D01*
X105475000Y-90445000D02*
X104640000Y-91280000D01*
X107400000Y-83350000D02*
X107400000Y-85375000D01*
X120200000Y-80100000D02*
X120750000Y-80650000D01*
X120750000Y-82518948D02*
X124800000Y-86568948D01*
X124800000Y-86568948D02*
X124800000Y-93095280D01*
X124800000Y-93095280D02*
X123850000Y-94045280D01*
X120750000Y-80650000D02*
X120750000Y-82518948D01*
X120877170Y-83292696D02*
X124286700Y-86702226D01*
X124103140Y-91848580D02*
X124103140Y-92264960D01*
X120159272Y-83292696D02*
X120877170Y-83292696D01*
X124286700Y-91665020D02*
X124103140Y-91848580D01*
X124286700Y-86702226D02*
X124286700Y-91665020D01*
X124103140Y-92264960D02*
X123822820Y-92545280D01*
X120200000Y-82400000D02*
X120200000Y-82200000D01*
X124439100Y-86639100D02*
X120200000Y-82400000D01*
X124439100Y-92445920D02*
X124439100Y-86639100D01*
X123839740Y-93045280D02*
X124439100Y-92445920D01*
X117375000Y-88781052D02*
X117375000Y-89632646D01*
X117295102Y-85295298D02*
X117295102Y-85458608D01*
X117747600Y-82675229D02*
X117747600Y-84842800D01*
X117291700Y-88697752D02*
X117375000Y-88781052D01*
X117747600Y-84842800D02*
X117295102Y-85295298D01*
X117295102Y-85458608D02*
X117291700Y-85462010D01*
X117281333Y-89726313D02*
X117398570Y-89843550D01*
X117291700Y-85462010D02*
X117291700Y-88697752D01*
X118772829Y-81650000D02*
X117747600Y-82675229D01*
X119410480Y-81315560D02*
X119076040Y-81650000D01*
X119076040Y-81650000D02*
X118772829Y-81650000D01*
X117375000Y-89632646D02*
X117281333Y-89726313D01*
X120575000Y-81705800D02*
X120575000Y-82559474D01*
X124600000Y-92805440D02*
X123860160Y-93545280D01*
X120200000Y-81330800D02*
X120575000Y-81705800D01*
X124600000Y-86584474D02*
X124600000Y-92805440D01*
X120575000Y-82559474D02*
X124600000Y-86584474D01*
X120200420Y-86202520D02*
X123140416Y-86202520D01*
X121965574Y-89576850D02*
X121665270Y-89576850D01*
X121665270Y-89576850D02*
X121398570Y-89843550D01*
X123140416Y-86202520D02*
X123800000Y-86862104D01*
X123800000Y-86862104D02*
X123800000Y-87742424D01*
X123800000Y-87742424D02*
X121965574Y-89576850D01*
X120898570Y-87973058D02*
X120898570Y-89843550D01*
X120203976Y-87278464D02*
X120898570Y-87973058D01*
X118980900Y-85766200D02*
X118980900Y-89330900D01*
X119405400Y-85341700D02*
X118980900Y-85766200D01*
X118980900Y-89330900D02*
X119450000Y-89800000D01*
X119186440Y-82200000D02*
X119400000Y-82200000D01*
X117900000Y-84905926D02*
X117900000Y-83486440D01*
X117529904Y-88740504D02*
X117529904Y-85276022D01*
X117900000Y-83486440D02*
X119186440Y-82200000D01*
X117914400Y-89825000D02*
X117914400Y-89125000D01*
X117529904Y-85276022D02*
X117900000Y-84905926D01*
X117914400Y-89125000D02*
X117529904Y-88740504D01*
X120400000Y-88287608D02*
X120400000Y-89718152D01*
X120274602Y-89843550D02*
X120398570Y-89843550D01*
X119400000Y-87287608D02*
X120400000Y-88287608D01*
X120400000Y-89718152D02*
X120274602Y-89843550D01*
X116628672Y-85321328D02*
X116628672Y-88250250D01*
X117222600Y-89569520D02*
X116948570Y-89843550D01*
X117222600Y-88844178D02*
X117222600Y-89569520D01*
X117575000Y-81925000D02*
X117575000Y-84375000D01*
X117575000Y-84375000D02*
X116628672Y-85321328D01*
X116628672Y-88250250D02*
X117222600Y-88844178D01*
X119400000Y-80100000D02*
X117575000Y-81925000D01*
X118333300Y-85493871D02*
X118333300Y-85239530D01*
X118300000Y-88900000D02*
X118300000Y-85527171D01*
X118300000Y-85527171D02*
X118333300Y-85493871D01*
X118900000Y-89500000D02*
X118300000Y-88900000D01*
X118900000Y-89800000D02*
X118900000Y-89500000D01*
X119372829Y-84200000D02*
X119400000Y-84200000D01*
X118333300Y-85239530D02*
X119372829Y-84200000D01*
X119898570Y-89843550D02*
X119133300Y-89078280D01*
X119133300Y-86466700D02*
X119400000Y-86200000D01*
X119133300Y-89078280D02*
X119133300Y-86466700D01*
X118398570Y-89373570D02*
X118398570Y-89843550D01*
X118180900Y-85430745D02*
X118147600Y-85464045D01*
X118147600Y-85464045D02*
X118147600Y-89122600D01*
X118225000Y-85132303D02*
X118180900Y-85176404D01*
X118180900Y-85176404D02*
X118180900Y-85430745D01*
X118147600Y-89122600D02*
X118398570Y-89373570D01*
X118225000Y-84172829D02*
X118225000Y-85132303D01*
X119383048Y-83298792D02*
X118773540Y-83908300D01*
X118773540Y-83908300D02*
X118489529Y-83908300D01*
X118489529Y-83908300D02*
X118225000Y-84172829D01*
X123829500Y-92038340D02*
X123836440Y-92045280D01*
X124134300Y-91145032D02*
X123829500Y-91449832D01*
X124134300Y-86765352D02*
X124134300Y-91145032D01*
X123829500Y-91449832D02*
X123829500Y-92038340D01*
X120200000Y-84200000D02*
X121568948Y-84200000D01*
X121568948Y-84200000D02*
X124134300Y-86765352D01*
X120175020Y-85341700D02*
X122495122Y-85341700D01*
X123981900Y-87776050D02*
X121914400Y-89843550D01*
X123981900Y-86828478D02*
X123981900Y-87776050D01*
X122495122Y-85341700D02*
X123981900Y-86828478D01*
X106710000Y-100751052D02*
X106710000Y-101690000D01*
X111133300Y-82489529D02*
X108052400Y-85570429D01*
X108058820Y-98193294D02*
X108058820Y-99402232D01*
X108058820Y-99402232D02*
X106710000Y-100751052D01*
X108052400Y-98186874D02*
X108058820Y-98193294D01*
X108052400Y-85570429D02*
X108052400Y-98186874D01*
X111133300Y-81581939D02*
X111133300Y-82489529D01*
X111400657Y-81314582D02*
X111133300Y-81581939D01*
X107900000Y-84477171D02*
X107900000Y-99130000D01*
X107900000Y-99130000D02*
X105940000Y-101090000D01*
X111400000Y-80133500D02*
X111400000Y-80811960D01*
X105940000Y-101090000D02*
X105940000Y-101950000D01*
X111400000Y-80811960D02*
X110866700Y-81345260D01*
X110866700Y-81510471D02*
X107900000Y-84477171D01*
X110866700Y-81345260D02*
X110866700Y-81510471D01*
X109271600Y-97681866D02*
X109623628Y-98033894D01*
X111342800Y-99842800D02*
X111342800Y-101267800D01*
X111819100Y-87573597D02*
X111533233Y-87859464D01*
X111342800Y-101267800D02*
X111775000Y-101700000D01*
X111819100Y-81708580D02*
X111819100Y-87573597D01*
X109623628Y-98033894D02*
X109623628Y-98123628D01*
X111371588Y-87859464D02*
X109271600Y-89959452D01*
X111533233Y-87859464D02*
X111371588Y-87859464D01*
X109623628Y-98123628D02*
X111342800Y-99842800D01*
X112232440Y-81295240D02*
X111819100Y-81708580D01*
X109271600Y-89959452D02*
X109271600Y-97681866D01*
X112434173Y-85257002D02*
X112428500Y-85251329D01*
X112779500Y-100395026D02*
X112000000Y-99615526D01*
X112779500Y-100838908D02*
X112779500Y-100395026D01*
X112200000Y-84787946D02*
X112200000Y-84200000D01*
X113927770Y-104527590D02*
X113927770Y-103800493D01*
X112619100Y-86026403D02*
X112434173Y-85841476D01*
X112428500Y-85016446D02*
X112200000Y-84787946D01*
X112000000Y-88904800D02*
X112771500Y-88133300D01*
X113508670Y-104946690D02*
X113927770Y-104527590D01*
X112434173Y-85841476D02*
X112434173Y-85257002D01*
X112619100Y-86626101D02*
X112619100Y-86026403D01*
X113927770Y-103800493D02*
X113754800Y-103627523D01*
X113754800Y-103627523D02*
X113754800Y-101814208D01*
X112000000Y-99615526D02*
X112000000Y-88904800D01*
X112771500Y-86778501D02*
X112619100Y-86626101D01*
X112428500Y-85251329D02*
X112428500Y-85016446D01*
X113754800Y-101814208D02*
X112779500Y-100838908D01*
X112771500Y-88133300D02*
X112771500Y-86778501D01*
X111647600Y-88826148D02*
X112466700Y-88007048D01*
X113508670Y-103974090D02*
X113450000Y-103915420D01*
X113450000Y-103915420D02*
X113450000Y-101939858D01*
X112314300Y-86314300D02*
X112200000Y-86200000D01*
X112466700Y-88007048D02*
X112466700Y-86904753D01*
X112466700Y-86904753D02*
X112314300Y-86752353D01*
X112314300Y-86752353D02*
X112314300Y-86314300D01*
X111647600Y-100324771D02*
X111647600Y-88826148D01*
X112245583Y-100922754D02*
X111647600Y-100324771D01*
X113450000Y-101939858D02*
X112432896Y-100922754D01*
X112432896Y-100922754D02*
X112245583Y-100922754D01*
X110177171Y-85000000D02*
X109053881Y-85000000D01*
X110866700Y-84310471D02*
X110177171Y-85000000D01*
X108357200Y-85696681D02*
X108357200Y-98060622D01*
X108363620Y-98067042D02*
X108363620Y-101276380D01*
X111377984Y-83297776D02*
X111377984Y-83622016D01*
X110866700Y-84133300D02*
X110866700Y-84310471D01*
X108357200Y-98060622D02*
X108363620Y-98067042D01*
X109053881Y-85000000D02*
X108357200Y-85696681D01*
X111377984Y-83622016D02*
X110866700Y-84133300D01*
X108363620Y-101276380D02*
X107990000Y-101650000D01*
X111400000Y-87261192D02*
X111400000Y-87400000D01*
X110072400Y-100692400D02*
X110490000Y-101110000D01*
X111400000Y-87400000D02*
X108966800Y-89833200D01*
X108966800Y-89833200D02*
X108966800Y-97808118D01*
X110490000Y-101110000D02*
X110490000Y-101675000D01*
X110072400Y-100441348D02*
X110072400Y-100692400D01*
X108973220Y-99342168D02*
X110072400Y-100441348D01*
X108973220Y-97814538D02*
X108973220Y-99342168D01*
X108966800Y-97808118D02*
X108973220Y-97814538D01*
X108634704Y-85634703D02*
X108666701Y-85666700D01*
X108660000Y-100309734D02*
X108516020Y-100165754D01*
X108660000Y-101660000D02*
X108660000Y-100309734D01*
X108509600Y-85759807D02*
X108634704Y-85634703D01*
X108516020Y-98003916D02*
X108509600Y-97997496D01*
X109910471Y-85666700D02*
X111377171Y-84199999D01*
X108666701Y-85666700D02*
X109910471Y-85666700D01*
X108516020Y-100165754D02*
X108516020Y-98003916D01*
X108700000Y-101700000D02*
X108660000Y-101660000D01*
X108509600Y-97997496D02*
X108509600Y-85759807D01*
X108820820Y-99405294D02*
X108820820Y-97877664D01*
X109933300Y-86466700D02*
X111133300Y-86466700D01*
X108814400Y-97871244D02*
X108814400Y-87585600D01*
X109850000Y-100434474D02*
X108820820Y-99405294D01*
X108820820Y-97877664D02*
X108814400Y-97871244D01*
X109850000Y-101675000D02*
X109850000Y-100434474D01*
X108814400Y-87585600D02*
X109933300Y-86466700D01*
X111133300Y-86466700D02*
X111400000Y-86200000D01*
X113076300Y-86652249D02*
X112923900Y-86499849D01*
X114232570Y-103674241D02*
X114059600Y-103501271D01*
X114152400Y-104734012D02*
X114232570Y-104653842D01*
X113084300Y-100268774D02*
X112304800Y-99489274D01*
X114152400Y-105047600D02*
X114152400Y-104734012D01*
X113775370Y-105679990D02*
X113775370Y-105424630D01*
X113084300Y-100712656D02*
X113084300Y-100268774D01*
X112923900Y-85723900D02*
X112738973Y-85538973D01*
X112400000Y-82400000D02*
X112200000Y-82200000D01*
X113508670Y-105946690D02*
X113775370Y-105679990D01*
X113076300Y-88259552D02*
X113076300Y-86652249D01*
X112738973Y-85130750D02*
X112733300Y-85125077D01*
X114059600Y-103501271D02*
X114059600Y-101687956D01*
X112733300Y-83556129D02*
X112400000Y-83222829D01*
X114232570Y-104653842D02*
X114232570Y-103674241D01*
X112304800Y-99489274D02*
X112304800Y-89031052D01*
X112304800Y-89031052D02*
X113076300Y-88259552D01*
X114059600Y-101687956D02*
X113084300Y-100712656D01*
X113775370Y-105424630D02*
X114152400Y-105047600D01*
X112738973Y-85538973D02*
X112738973Y-85130750D01*
X112400000Y-83222829D02*
X112400000Y-82400000D01*
X112923900Y-86499849D02*
X112923900Y-85723900D01*
X112733300Y-85125077D02*
X112733300Y-83556129D01*
X109119200Y-97744992D02*
X109450000Y-98075792D01*
X112200000Y-80133500D02*
X111800000Y-80533500D01*
X109119200Y-89896326D02*
X109119200Y-97744992D01*
X111125000Y-99925000D02*
X111125000Y-101700000D01*
X109450000Y-98250000D02*
X111125000Y-99925000D01*
X111308462Y-87707064D02*
X109119200Y-89896326D01*
X111470107Y-87707064D02*
X111308462Y-87707064D01*
X111800000Y-80533500D02*
X111800000Y-81200000D01*
X109450000Y-98075792D02*
X109450000Y-98250000D01*
X111666700Y-87510471D02*
X111470107Y-87707064D01*
X111666700Y-81333300D02*
X111666700Y-87510471D01*
X111800000Y-81200000D02*
X111666700Y-81333300D01*
X111495200Y-100845200D02*
X112400000Y-101750000D01*
X112105440Y-88094560D02*
X111495200Y-88704800D01*
X112105440Y-87244936D02*
X112105440Y-88094560D01*
X111495200Y-88704800D02*
X111495200Y-100845200D01*
X111847600Y-88841674D02*
X111847600Y-99952400D01*
X112619100Y-86841627D02*
X112619100Y-88070174D01*
X112466700Y-86689227D02*
X112619100Y-86841627D01*
X113775370Y-104179990D02*
X113508670Y-104446690D01*
X112167473Y-85790302D02*
X112466700Y-86089529D01*
X113775370Y-103863619D02*
X113775370Y-104179990D01*
X112585296Y-100508125D02*
X112585296Y-100859628D01*
X112228500Y-100333300D02*
X112410471Y-100333300D01*
X113602400Y-101876732D02*
X113602400Y-103690649D01*
X112410471Y-100333300D02*
X112585296Y-100508125D01*
X112466700Y-86089529D02*
X112466700Y-86689227D01*
X112619100Y-88070174D02*
X111847600Y-88841674D01*
X112585296Y-100859628D02*
X113602400Y-101876732D01*
X111847600Y-99952400D02*
X112228500Y-100333300D01*
X113602400Y-103690649D02*
X113775370Y-103863619D01*
X112167473Y-85341700D02*
X112167473Y-85790302D01*
X108662000Y-97934370D02*
X108662000Y-86960829D01*
X110905900Y-85819100D02*
X111375000Y-85350000D01*
X108662000Y-86960829D02*
X108800000Y-86822829D01*
X108800000Y-86822829D02*
X108800000Y-86400000D01*
X108668420Y-99468420D02*
X108668420Y-97940790D01*
X109235000Y-100035000D02*
X108668420Y-99468420D01*
X109380900Y-85819100D02*
X110905900Y-85819100D01*
X109235000Y-101685000D02*
X109235000Y-100035000D01*
X108668420Y-97940790D02*
X108662000Y-97934370D01*
X108800000Y-86400000D02*
X109380900Y-85819100D01*
X112586573Y-85686573D02*
X112771500Y-85871500D01*
X112152400Y-88967926D02*
X112152400Y-99552400D01*
X114080170Y-104590716D02*
X114000000Y-104670886D01*
X112771500Y-85871500D02*
X112771500Y-86562975D01*
X112580900Y-85188203D02*
X112586573Y-85193876D01*
X114000000Y-104955360D02*
X113508670Y-105446690D01*
X112923900Y-88196426D02*
X112152400Y-88967926D01*
X112580900Y-84953320D02*
X112580900Y-85188203D01*
X112466700Y-83625005D02*
X112466700Y-84839120D01*
X112931900Y-100331900D02*
X112931900Y-100775782D01*
X113907200Y-101751082D02*
X113907200Y-103564397D01*
X112931900Y-100775782D02*
X113907200Y-101751082D01*
X112466700Y-84839120D02*
X112580900Y-84953320D01*
X114000000Y-104670886D02*
X114000000Y-104955360D01*
X112771500Y-86562975D02*
X112923900Y-86715375D01*
X112152400Y-99552400D02*
X112931900Y-100331900D01*
X114080170Y-103737367D02*
X114080170Y-104590716D01*
X112586573Y-85193876D02*
X112586573Y-85686573D01*
X112923900Y-86715375D02*
X112923900Y-88196426D01*
X112146073Y-83304378D02*
X112466700Y-83625005D01*
X113907200Y-103564397D02*
X114080170Y-103737367D01*
X107340000Y-100552104D02*
X108211220Y-99680884D01*
X108204800Y-85633555D02*
X109019178Y-84819177D01*
X111400000Y-82803320D02*
X111400000Y-82200000D01*
X110996886Y-83380285D02*
X110996886Y-83203115D01*
X108204800Y-98123748D02*
X108204800Y-85633555D01*
X111153115Y-83046886D02*
X111156434Y-83046886D01*
X111156434Y-83046886D02*
X111400000Y-82803320D01*
X109557994Y-84819177D02*
X110996886Y-83380285D01*
X108211220Y-98130168D02*
X108204800Y-98123748D01*
X110996886Y-83203115D02*
X111153115Y-83046886D01*
X108211220Y-99680884D02*
X108211220Y-98130168D01*
X109019178Y-84819177D02*
X109557994Y-84819177D01*
X107340000Y-101680000D02*
X107340000Y-100552104D01*
X104373300Y-91169529D02*
X104373300Y-91998300D01*
X104575000Y-90967829D02*
X104373300Y-91169529D01*
X106314300Y-84803391D02*
X106314300Y-86642649D01*
X104373300Y-91998300D02*
X105748391Y-93373391D01*
X105673300Y-99326700D02*
X105673300Y-102073300D01*
X112766800Y-79866800D02*
X108445304Y-79866800D01*
X104575000Y-87289300D02*
X104575000Y-90967829D01*
X108445304Y-79866800D02*
X105843564Y-82468540D01*
X105748391Y-99251609D02*
X105673300Y-99326700D01*
X106583300Y-102216700D02*
X106670000Y-102130000D01*
X113000000Y-80100000D02*
X112766800Y-79866800D01*
X105843564Y-84332655D02*
X106314300Y-84803391D01*
X105748391Y-93373391D02*
X105748391Y-99251609D01*
X105816700Y-102216700D02*
X106583300Y-102216700D01*
X105843564Y-82468540D02*
X105843564Y-84332655D01*
X105673300Y-102073300D02*
X105816700Y-102216700D01*
X106314300Y-86642649D02*
X105667649Y-87289300D01*
X105667649Y-87289300D02*
X104575000Y-87289300D01*
X104068500Y-92202800D02*
X104068500Y-91043277D01*
X113419100Y-81780900D02*
X113000000Y-82200000D01*
X104068500Y-91043277D02*
X104270200Y-90841577D01*
X113419100Y-79819100D02*
X113419100Y-81780900D01*
X104733300Y-101748826D02*
X104733300Y-92867600D01*
X104270200Y-83610852D02*
X108319052Y-79562000D01*
X113162000Y-79562000D02*
X113419100Y-79819100D01*
X104733300Y-92867600D02*
X104068500Y-92202800D01*
X104270200Y-90841577D02*
X104270200Y-83610852D01*
X108319052Y-79562000D02*
X113162000Y-79562000D01*
X107200900Y-102549100D02*
X105533574Y-102549100D01*
X107640000Y-102110000D02*
X107200900Y-102549100D01*
X105533574Y-102549100D02*
X104733300Y-101748826D01*
X105596700Y-102396700D02*
X106873300Y-102396700D01*
X104422600Y-90904703D02*
X104220900Y-91106403D01*
X104422600Y-83673978D02*
X104422600Y-90904703D01*
X113266700Y-81048380D02*
X113266700Y-79882226D01*
X113030000Y-81285080D02*
X113266700Y-81048380D01*
X104220900Y-92139674D02*
X105266700Y-93185474D01*
X104900000Y-98760700D02*
X104900000Y-101700000D01*
X105266700Y-98394000D02*
X104900000Y-98760700D01*
X113266700Y-79882226D02*
X113098874Y-79714400D01*
X105266700Y-93185474D02*
X105266700Y-98394000D01*
X104220900Y-91106403D02*
X104220900Y-92139674D01*
X113098874Y-79714400D02*
X108382178Y-79714400D01*
X106873300Y-102396700D02*
X107140000Y-102130000D01*
X108382178Y-79714400D02*
X104422600Y-83673978D01*
X104900000Y-101700000D02*
X105596700Y-102396700D01*
X114404800Y-83870200D02*
X114404800Y-83265615D01*
X113799112Y-87269320D02*
X114375000Y-86693432D01*
X114881692Y-79614300D02*
X114753391Y-79614300D01*
X102545200Y-101187161D02*
X105377139Y-104019100D01*
X113939091Y-78800000D02*
X107984474Y-78800000D01*
X103508200Y-90525947D02*
X103306500Y-90727647D01*
X103306500Y-90727647D02*
X103306500Y-91837448D01*
X114308300Y-85314529D02*
X114358300Y-85264529D01*
X102545200Y-92598748D02*
X102545200Y-101187161D01*
X115137184Y-79869792D02*
X114881692Y-79614300D01*
X115137184Y-82543396D02*
X115137184Y-79869792D01*
X103306500Y-91837448D02*
X102545200Y-92598748D01*
X105377139Y-104019100D02*
X108270900Y-104019100D01*
X114308300Y-86335471D02*
X114308300Y-85314529D01*
X114375000Y-86693432D02*
X114375000Y-86402171D01*
X114358300Y-85264529D02*
X114358300Y-83916700D01*
X114571194Y-83109386D02*
X115137184Y-82543396D01*
X114375000Y-86402171D02*
X114308300Y-86335471D01*
X108270900Y-104019100D02*
X110160000Y-102130000D01*
X114404800Y-83265615D02*
X114561029Y-83109386D01*
X103508200Y-83276274D02*
X103508200Y-90525947D01*
X114561029Y-83109386D02*
X114571194Y-83109386D01*
X107984474Y-78800000D02*
X103508200Y-83276274D01*
X114358300Y-83916700D02*
X114404800Y-83870200D01*
X114753391Y-79614300D02*
X113939091Y-78800000D01*
X114066700Y-80035649D02*
X113440652Y-79409600D01*
X104580900Y-92930726D02*
X104580900Y-101811952D01*
X113440652Y-79409600D02*
X108255926Y-79409600D01*
X107558500Y-102701500D02*
X108150000Y-102110000D01*
X103916100Y-92265926D02*
X104580900Y-92930726D01*
X105470448Y-102701500D02*
X107558500Y-102701500D01*
X104117800Y-83547726D02*
X104117800Y-90778451D01*
X113004600Y-83329272D02*
X113047899Y-83329272D01*
X113047899Y-83329272D02*
X114066700Y-82310471D01*
X103916100Y-90980151D02*
X103916100Y-92265926D01*
X114066700Y-82310471D02*
X114066700Y-80035649D01*
X104580900Y-101811952D02*
X105470448Y-102701500D01*
X104117800Y-90778451D02*
X103916100Y-90980151D01*
X108255926Y-79409600D02*
X104117800Y-83547726D01*
X107913300Y-103866700D02*
X109640000Y-102140000D01*
X103660600Y-90589073D02*
X103458900Y-90790773D01*
X114252400Y-83179260D02*
X114976656Y-82455004D01*
X113875965Y-78952400D02*
X108047600Y-78952400D01*
X114818566Y-79766700D02*
X114690265Y-79766700D01*
X114976656Y-82455004D02*
X114976656Y-79924790D01*
X108047600Y-78952400D02*
X103660600Y-83339400D01*
X103458900Y-90790773D02*
X103458900Y-91900574D01*
X114252400Y-83807074D02*
X114252400Y-83179260D01*
X103458900Y-91900574D02*
X102697600Y-92661874D01*
X114976656Y-79924790D02*
X114818566Y-79766700D01*
X114205900Y-83853574D02*
X114252400Y-83807074D01*
X114066700Y-85933300D02*
X114066700Y-85008301D01*
X114690265Y-79766700D02*
X113875965Y-78952400D01*
X102697600Y-92661874D02*
X102697600Y-101124035D01*
X114066700Y-85008301D02*
X114205900Y-84869101D01*
X113800000Y-86200000D02*
X114066700Y-85933300D01*
X102697600Y-101124035D02*
X105440265Y-103866700D01*
X105440265Y-103866700D02*
X107913300Y-103866700D01*
X103660600Y-83339400D02*
X103660600Y-90589073D01*
X114205900Y-84869101D02*
X114205900Y-83853574D01*
X114225000Y-79978422D02*
X114225000Y-82634474D01*
X104428500Y-101875078D02*
X104428500Y-92993852D01*
X103763700Y-92329052D02*
X103763700Y-90917025D01*
X113503778Y-79257200D02*
X114225000Y-79978422D01*
X104428500Y-92993852D02*
X103763700Y-92329052D01*
X113000000Y-83688456D02*
X113000000Y-84200000D01*
X103965400Y-90715325D02*
X103965400Y-83484600D01*
X113271300Y-83439743D02*
X113115071Y-83595972D01*
X103763700Y-90917025D02*
X103965400Y-90715325D01*
X103965400Y-83484600D02*
X108192800Y-79257200D01*
X113271300Y-83417156D02*
X113271300Y-83439743D01*
X114051582Y-82636874D02*
X113271300Y-83417156D01*
X114225000Y-82634474D02*
X114222600Y-82636874D01*
X113092484Y-83595972D02*
X113000000Y-83688456D01*
X108640000Y-102120000D02*
X107906100Y-102853900D01*
X105407322Y-102853900D02*
X104428500Y-101875078D01*
X114222600Y-82636874D02*
X114051582Y-82636874D01*
X108192800Y-79257200D02*
X113503778Y-79257200D01*
X113115071Y-83595972D02*
X113092484Y-83595972D01*
X107906100Y-102853900D02*
X105407322Y-102853900D01*
X114377400Y-79915296D02*
X113566904Y-79104800D01*
X103611300Y-90853899D02*
X103611300Y-91963700D01*
X108110726Y-79104800D02*
X103813000Y-83402526D01*
X103611300Y-91963700D02*
X102850000Y-92725000D01*
X114053500Y-84496500D02*
X114053500Y-83790448D01*
X102850000Y-101060909D02*
X105503391Y-103714300D01*
X102850000Y-92725000D02*
X102850000Y-101060909D01*
X113208300Y-85341700D02*
X114053500Y-84496500D01*
X107565700Y-103714300D02*
X109150000Y-102130000D01*
X113052860Y-85341700D02*
X113208300Y-85341700D01*
X114375000Y-82700000D02*
X114377400Y-82697600D01*
X114377400Y-82697600D02*
X114377400Y-79915296D01*
X113566904Y-79104800D02*
X108110726Y-79104800D01*
X103813000Y-83402526D02*
X103813000Y-90652199D01*
X114375000Y-82838220D02*
X114375000Y-82700000D01*
X114100000Y-83113220D02*
X114375000Y-82838220D01*
X105503391Y-103714300D02*
X107565700Y-103714300D01*
X114053500Y-83790448D02*
X114100000Y-83743948D01*
X114100000Y-83743948D02*
X114100000Y-83113220D01*
X103813000Y-90652199D02*
X103611300Y-90853899D01*
X114628500Y-103688537D02*
X114628500Y-104828760D01*
X115849500Y-96510889D02*
X115072600Y-97287789D01*
X115849500Y-91517717D02*
X115849500Y-96510889D01*
X115297600Y-90965817D02*
X115849500Y-91517717D01*
X115147600Y-99694015D02*
X115147600Y-103169437D01*
X114628500Y-104828760D02*
X115225000Y-105425260D01*
X115297600Y-87277448D02*
X115297600Y-90965817D01*
X115147600Y-103169437D02*
X114628500Y-103688537D01*
X115072600Y-99619015D02*
X115147600Y-99694015D01*
X115072600Y-97287789D02*
X115072600Y-99619015D01*
X115225000Y-97725000D02*
X115225000Y-99555889D01*
X116001900Y-96948100D02*
X115225000Y-97725000D01*
X114635249Y-85364591D02*
X114635249Y-85837420D01*
X115564300Y-87910700D02*
X115450000Y-88025000D01*
X114635249Y-85837420D02*
X115564300Y-86766471D01*
X115564300Y-86766471D02*
X115564300Y-87910700D01*
X115450000Y-88025000D02*
X115450000Y-90902691D01*
X116001900Y-91454591D02*
X116001900Y-96948100D01*
X115225000Y-99555889D02*
X115300000Y-99630889D01*
X115300000Y-103232563D02*
X114780900Y-103751663D01*
X115300000Y-99630889D02*
X115300000Y-103232563D01*
X114780900Y-104456160D02*
X115250000Y-104925260D01*
X114780900Y-103751663D02*
X114780900Y-104456160D01*
X115450000Y-90902691D02*
X116001900Y-91454591D01*
X115114529Y-105735471D02*
X115114529Y-105691960D01*
X114920200Y-99682141D02*
X114920200Y-97224663D01*
X114450000Y-105027431D02*
X114450000Y-103651511D01*
X115100000Y-105750000D02*
X115114529Y-105735471D01*
X115225000Y-105925260D02*
X115100000Y-105800260D01*
X114920200Y-97224663D02*
X115425000Y-96719863D01*
X115425000Y-96719863D02*
X115425000Y-93037958D01*
X115425000Y-93037958D02*
X114375000Y-91987958D01*
X114375000Y-88950000D02*
X115000000Y-88325000D01*
X115100000Y-105800260D02*
X115100000Y-105750000D01*
X114450000Y-103651511D02*
X114995200Y-103106311D01*
X115114529Y-105691960D02*
X114450000Y-105027431D01*
X114995200Y-103106311D02*
X114995200Y-99757141D01*
X114995200Y-99757141D02*
X114920200Y-99682141D01*
X114375000Y-91987958D02*
X114375000Y-88950000D01*
X115625000Y-90862165D02*
X116154300Y-91391465D01*
X116154300Y-102593789D02*
X114933300Y-103814789D01*
X115625000Y-88172829D02*
X115625000Y-90862165D01*
X115758071Y-86110242D02*
X115758071Y-88039758D01*
X114933300Y-104133560D02*
X115225000Y-104425260D01*
X115758071Y-88039758D02*
X115625000Y-88172829D01*
X114625000Y-84977171D02*
X115758071Y-86110242D01*
X114933300Y-103814789D02*
X114933300Y-104133560D01*
X114625000Y-84225384D02*
X114625000Y-84977171D01*
X116154300Y-91391465D02*
X116154300Y-102593789D01*
X114672501Y-83375085D02*
X114672501Y-83872501D01*
X115910471Y-85110471D02*
X115910471Y-88108300D01*
X114672501Y-83872501D02*
X115910471Y-85110471D01*
X116306700Y-102818560D02*
X115200000Y-103925260D01*
X116306700Y-88504529D02*
X116306700Y-102818560D01*
X115910471Y-88108300D02*
X116306700Y-88504529D01*
G04 #@! TA.AperFunction,Conductor*
G36*
X101575114Y-122095840D02*
G01*
X101555267Y-122061452D01*
X101550113Y-122022091D01*
X101550130Y-122009233D01*
X101590521Y-90636759D01*
X101610902Y-90561088D01*
X101615721Y-90556280D01*
X101575114Y-122095840D01*
G37*
G04 #@! TD.AperFunction*
G04 #@! TA.AperFunction,Conductor*
G36*
X101617080Y-89501080D02*
G01*
X101593036Y-89439816D01*
X101592084Y-89422685D01*
X101594903Y-87233800D01*
X101615283Y-87158130D01*
X101620103Y-87153322D01*
X101617080Y-89501080D01*
G37*
G04 #@! TD.AperFunction*
G04 #@! TA.AperFunction,Conductor*
G36*
X101625000Y-83350000D02*
G01*
X101621409Y-86138884D01*
X101599467Y-86094949D01*
X101596408Y-86064476D01*
X101599956Y-83309042D01*
X101614613Y-83244251D01*
X101617450Y-83238283D01*
X103930180Y-78371913D01*
X103933993Y-78367435D01*
X101625000Y-83350000D01*
G37*
G04 #@! TD.AperFunction*
G04 #@! TA.AperFunction,Conductor*
G36*
X125454148Y-78374295D02*
G01*
X127332723Y-82511155D01*
X127711345Y-83344930D01*
X127718724Y-83379293D01*
X127721534Y-83378693D01*
X127724936Y-83394595D01*
X125451649Y-78369435D01*
X125454148Y-78374295D01*
G37*
G04 #@! TD.AperFunction*
G04 #@! TA.AperFunction,Conductor*
G36*
X125391999Y-78305784D02*
G01*
X125447415Y-78361200D01*
X125451647Y-78369430D01*
X127724935Y-83394594D01*
X127724937Y-83394600D01*
X127736435Y-83420016D01*
X127749893Y-83482908D01*
X127625521Y-121998589D01*
X127604993Y-122074223D01*
X127549398Y-122129460D01*
X127474122Y-122149500D01*
X101701544Y-122149500D01*
X101625844Y-122129216D01*
X101575137Y-122078509D01*
X101580799Y-117680926D01*
X103943300Y-117680926D01*
X103982600Y-117827597D01*
X104058522Y-117959098D01*
X104058524Y-117959101D01*
X104165898Y-118066475D01*
X104165901Y-118066477D01*
X104297402Y-118142399D01*
X104444074Y-118181700D01*
X104444076Y-118181700D01*
X104595925Y-118181700D01*
X104669261Y-118162049D01*
X104742598Y-118142399D01*
X104874102Y-118066475D01*
X104965577Y-117975000D01*
X108242042Y-117975000D01*
X108258171Y-118066475D01*
X108262122Y-118088878D01*
X108288952Y-118135351D01*
X108319937Y-118189019D01*
X108319938Y-118189020D01*
X108319939Y-118189021D01*
X108408521Y-118263350D01*
X108408522Y-118263350D01*
X108408523Y-118263351D01*
X108517182Y-118302900D01*
X108632817Y-118302900D01*
X108632818Y-118302900D01*
X108741479Y-118263350D01*
X108830061Y-118189021D01*
X108887878Y-118088878D01*
X108907958Y-117975000D01*
X123443712Y-117975000D01*
X123461493Y-118064390D01*
X123512128Y-118140172D01*
X123587910Y-118190807D01*
X123677300Y-118208588D01*
X123766690Y-118190807D01*
X123842472Y-118140172D01*
X123893107Y-118064390D01*
X123910888Y-117975000D01*
X123893107Y-117885610D01*
X123842472Y-117809828D01*
X123766690Y-117759193D01*
X123766687Y-117759192D01*
X123677300Y-117741412D01*
X123587912Y-117759192D01*
X123587910Y-117759192D01*
X123587910Y-117759193D01*
X123585237Y-117760979D01*
X123512128Y-117809828D01*
X123461492Y-117885612D01*
X123446874Y-117959102D01*
X123443712Y-117975000D01*
X108907958Y-117975000D01*
X108887878Y-117861122D01*
X108830061Y-117760979D01*
X108741479Y-117686650D01*
X108741477Y-117686649D01*
X108741476Y-117686648D01*
X108725755Y-117680926D01*
X124793300Y-117680926D01*
X124832600Y-117827597D01*
X124908522Y-117959098D01*
X124908524Y-117959101D01*
X125015898Y-118066475D01*
X125015901Y-118066477D01*
X125147402Y-118142399D01*
X125294074Y-118181700D01*
X125294076Y-118181700D01*
X125445925Y-118181700D01*
X125519261Y-118162049D01*
X125592598Y-118142399D01*
X125724102Y-118066475D01*
X125831475Y-117959102D01*
X125907399Y-117827598D01*
X125925249Y-117760980D01*
X125946700Y-117680926D01*
X125946700Y-117529073D01*
X125907399Y-117382402D01*
X125831477Y-117250901D01*
X125831475Y-117250898D01*
X125724101Y-117143524D01*
X125724098Y-117143522D01*
X125592597Y-117067600D01*
X125445927Y-117028300D01*
X125445924Y-117028300D01*
X125294076Y-117028300D01*
X125294073Y-117028300D01*
X125147402Y-117067600D01*
X125015901Y-117143522D01*
X125015898Y-117143524D01*
X124908524Y-117250898D01*
X124908522Y-117250901D01*
X124832600Y-117382402D01*
X124793300Y-117529073D01*
X124793300Y-117680926D01*
X108725755Y-117680926D01*
X108632819Y-117647100D01*
X108632818Y-117647100D01*
X108517182Y-117647100D01*
X108517181Y-117647100D01*
X108408523Y-117686648D01*
X108319937Y-117760980D01*
X108262121Y-117861124D01*
X108242042Y-117975000D01*
X104965577Y-117975000D01*
X104981475Y-117959102D01*
X105057399Y-117827598D01*
X105075249Y-117760980D01*
X105096700Y-117680926D01*
X105096700Y-117529073D01*
X105057399Y-117382402D01*
X104981477Y-117250901D01*
X104981475Y-117250898D01*
X104874101Y-117143524D01*
X104874098Y-117143522D01*
X104742597Y-117067600D01*
X104595927Y-117028300D01*
X104595924Y-117028300D01*
X104444076Y-117028300D01*
X104444073Y-117028300D01*
X104297402Y-117067600D01*
X104165901Y-117143522D01*
X104165898Y-117143524D01*
X104058524Y-117250898D01*
X104058522Y-117250901D01*
X103982600Y-117382402D01*
X103943300Y-117529073D01*
X103943300Y-117680926D01*
X101580799Y-117680926D01*
X101585781Y-113812171D01*
X109702161Y-113812171D01*
X109720856Y-113918199D01*
X109720856Y-113918200D01*
X109720857Y-113918201D01*
X109774690Y-114011442D01*
X109857166Y-114080648D01*
X109958338Y-114117471D01*
X109958340Y-114117471D01*
X110066002Y-114117471D01*
X110066004Y-114117471D01*
X110167176Y-114080648D01*
X110249652Y-114011442D01*
X110303485Y-113918201D01*
X110314047Y-113858300D01*
X116957190Y-113858300D01*
X116975885Y-113964328D01*
X116975885Y-113964329D01*
X116975886Y-113964330D01*
X117029719Y-114057571D01*
X117112195Y-114126777D01*
X117213367Y-114163600D01*
X117213369Y-114163600D01*
X117321032Y-114163600D01*
X117321033Y-114163600D01*
X117422205Y-114126777D01*
X117422205Y-114126776D01*
X117434653Y-114122246D01*
X117435598Y-114124843D01*
X117492547Y-114109581D01*
X117568249Y-114129860D01*
X117576667Y-114135095D01*
X117587910Y-114142607D01*
X117677300Y-114160388D01*
X117766690Y-114142607D01*
X117842472Y-114091972D01*
X117893107Y-114016190D01*
X117910888Y-113926800D01*
X117893107Y-113837410D01*
X117842472Y-113761628D01*
X117766690Y-113710993D01*
X117766687Y-113710992D01*
X117677300Y-113693212D01*
X117677299Y-113693212D01*
X117641855Y-113700262D01*
X117563652Y-113695136D01*
X117517532Y-113664319D01*
X117514828Y-113667543D01*
X117422206Y-113589824D01*
X117422205Y-113589823D01*
X117321033Y-113553000D01*
X117213367Y-113553000D01*
X117112195Y-113589823D01*
X117112194Y-113589823D01*
X117112193Y-113589824D01*
X117029720Y-113659027D01*
X116975885Y-113752271D01*
X116957190Y-113858299D01*
X116957190Y-113858300D01*
X110314047Y-113858300D01*
X110322181Y-113812171D01*
X110303485Y-113706141D01*
X110249652Y-113612900D01*
X110167176Y-113543694D01*
X110066004Y-113506871D01*
X109958338Y-113506871D01*
X109857166Y-113543694D01*
X109857165Y-113543694D01*
X109857164Y-113543695D01*
X109774691Y-113612898D01*
X109720856Y-113706142D01*
X109702161Y-113812170D01*
X109702161Y-113812171D01*
X101585781Y-113812171D01*
X101586440Y-113300000D01*
X108916412Y-113300000D01*
X108934193Y-113389390D01*
X108984828Y-113465172D01*
X109060610Y-113515807D01*
X109150000Y-113533588D01*
X109239390Y-113515807D01*
X109315172Y-113465172D01*
X109365807Y-113389390D01*
X109383588Y-113300000D01*
X109365807Y-113210610D01*
X109315172Y-113134828D01*
X109239390Y-113084193D01*
X109239387Y-113084192D01*
X109150000Y-113066412D01*
X109060612Y-113084192D01*
X109060610Y-113084192D01*
X109060610Y-113084193D01*
X108984828Y-113134828D01*
X108934192Y-113210612D01*
X108916412Y-113300000D01*
X101586440Y-113300000D01*
X101587496Y-112480000D01*
X117096412Y-112480000D01*
X117114193Y-112569390D01*
X117164828Y-112645172D01*
X117240610Y-112695807D01*
X117330000Y-112713588D01*
X117419390Y-112695807D01*
X117495172Y-112645172D01*
X117534115Y-112586887D01*
X117593035Y-112535215D01*
X117669899Y-112519924D01*
X117744111Y-112545114D01*
X117785883Y-112586886D01*
X117824828Y-112645172D01*
X117900610Y-112695807D01*
X117990000Y-112713588D01*
X118079390Y-112695807D01*
X118155172Y-112645172D01*
X118205807Y-112569390D01*
X118223588Y-112480000D01*
X118205807Y-112390610D01*
X118155172Y-112314828D01*
X118079390Y-112264193D01*
X118079387Y-112264192D01*
X117990000Y-112246412D01*
X117900612Y-112264192D01*
X117900610Y-112264192D01*
X117900610Y-112264193D01*
X117862719Y-112289510D01*
X117824826Y-112314829D01*
X117785885Y-112373111D01*
X117726964Y-112424785D01*
X117650100Y-112440075D01*
X117575888Y-112414884D01*
X117534115Y-112373111D01*
X117495173Y-112314829D01*
X117495172Y-112314828D01*
X117419390Y-112264193D01*
X117419387Y-112264192D01*
X117330000Y-112246412D01*
X117240612Y-112264192D01*
X117240610Y-112264192D01*
X117240610Y-112264193D01*
X117164828Y-112314828D01*
X117125886Y-112373111D01*
X117114192Y-112390612D01*
X117096412Y-112480000D01*
X101587496Y-112480000D01*
X101587998Y-112090164D01*
X118568851Y-112090164D01*
X118587546Y-112196192D01*
X118587546Y-112196193D01*
X118587547Y-112196194D01*
X118641380Y-112289435D01*
X118723856Y-112358641D01*
X118825028Y-112395464D01*
X118825030Y-112395464D01*
X118932692Y-112395464D01*
X118932694Y-112395464D01*
X119033866Y-112358641D01*
X119116342Y-112289435D01*
X119170175Y-112196194D01*
X119188871Y-112090164D01*
X119170175Y-111984134D01*
X119116342Y-111890893D01*
X119033866Y-111821687D01*
X118932694Y-111784864D01*
X118825028Y-111784864D01*
X118723856Y-111821687D01*
X118723855Y-111821687D01*
X118723854Y-111821688D01*
X118641381Y-111890891D01*
X118587546Y-111984135D01*
X118568851Y-112090163D01*
X118568851Y-112090164D01*
X101587998Y-112090164D01*
X101589079Y-111250000D01*
X108416412Y-111250000D01*
X108432125Y-111328997D01*
X108434193Y-111339390D01*
X108484828Y-111415172D01*
X108560610Y-111465807D01*
X108650000Y-111483588D01*
X108739390Y-111465807D01*
X108815172Y-111415172D01*
X108865807Y-111339390D01*
X108865807Y-111339387D01*
X108874090Y-111326992D01*
X108877090Y-111328997D01*
X108909629Y-111286590D01*
X108982033Y-111256596D01*
X109001800Y-111255300D01*
X109103832Y-111255300D01*
X109103833Y-111255300D01*
X109205005Y-111218477D01*
X109205005Y-111218476D01*
X109217453Y-111213946D01*
X109218434Y-111216643D01*
X109275000Y-111201487D01*
X109331565Y-111216643D01*
X109332547Y-111213946D01*
X109344994Y-111218476D01*
X109344995Y-111218477D01*
X109446167Y-111255300D01*
X109446168Y-111255300D01*
X109553831Y-111255300D01*
X109553833Y-111255300D01*
X109655005Y-111218477D01*
X109699598Y-111181058D01*
X109770625Y-111147937D01*
X109848697Y-111154767D01*
X109901529Y-111191760D01*
X109902372Y-111190757D01*
X109920574Y-111206030D01*
X109994995Y-111268477D01*
X110096167Y-111305300D01*
X110096169Y-111305300D01*
X110188590Y-111305300D01*
X110264290Y-111325584D01*
X110319706Y-111381000D01*
X110334834Y-111437459D01*
X110337690Y-111436956D01*
X110358685Y-111556028D01*
X110358685Y-111556029D01*
X110358686Y-111556030D01*
X110412519Y-111649271D01*
X110494995Y-111718477D01*
X110596167Y-111755300D01*
X110596169Y-111755300D01*
X110703831Y-111755300D01*
X110703833Y-111755300D01*
X110805005Y-111718477D01*
X110887481Y-111649271D01*
X110941314Y-111556030D01*
X110960010Y-111450000D01*
X110941314Y-111343970D01*
X110887481Y-111250729D01*
X110886612Y-111250000D01*
X110817205Y-111191760D01*
X110805005Y-111181523D01*
X110703833Y-111144700D01*
X110611410Y-111144700D01*
X110535710Y-111124416D01*
X110480294Y-111069000D01*
X110465165Y-111012540D01*
X110462310Y-111013044D01*
X110460010Y-111000000D01*
X117166412Y-111000000D01*
X117183285Y-111084828D01*
X117184193Y-111089390D01*
X117234828Y-111165172D01*
X117310610Y-111215807D01*
X117400000Y-111233588D01*
X117489390Y-111215807D01*
X117565172Y-111165172D01*
X117608718Y-111100000D01*
X118889990Y-111100000D01*
X118908685Y-111206028D01*
X118908685Y-111206029D01*
X118908686Y-111206030D01*
X118962519Y-111299271D01*
X119044995Y-111368477D01*
X119146167Y-111405300D01*
X119146169Y-111405300D01*
X119253831Y-111405300D01*
X119253833Y-111405300D01*
X119355005Y-111368477D01*
X119437481Y-111299271D01*
X119451494Y-111275000D01*
X120614990Y-111275000D01*
X120633685Y-111381028D01*
X120633685Y-111381029D01*
X120633686Y-111381030D01*
X120682632Y-111465807D01*
X120687520Y-111474272D01*
X120715011Y-111497339D01*
X120769995Y-111543477D01*
X120871167Y-111580300D01*
X120871169Y-111580300D01*
X120978831Y-111580300D01*
X120978833Y-111580300D01*
X121080005Y-111543477D01*
X121162481Y-111474271D01*
X121216314Y-111381030D01*
X121235010Y-111275000D01*
X121233859Y-111268475D01*
X121224573Y-111215807D01*
X121216314Y-111168970D01*
X121162481Y-111075729D01*
X121080005Y-111006523D01*
X120978833Y-110969700D01*
X120871167Y-110969700D01*
X120769995Y-111006523D01*
X120769994Y-111006523D01*
X120769993Y-111006524D01*
X120687520Y-111075727D01*
X120633685Y-111168971D01*
X120614990Y-111274999D01*
X120614990Y-111275000D01*
X119451494Y-111275000D01*
X119491314Y-111206030D01*
X119507347Y-111115100D01*
X119540467Y-111044073D01*
X119559129Y-111025411D01*
X119562433Y-111022638D01*
X119562437Y-111022637D01*
X119644913Y-110953431D01*
X119698746Y-110860190D01*
X119717442Y-110754160D01*
X119717187Y-110752716D01*
X119698746Y-110648131D01*
X119698746Y-110648130D01*
X119644913Y-110554889D01*
X119644840Y-110554828D01*
X119562438Y-110485684D01*
X119562437Y-110485683D01*
X119461265Y-110448860D01*
X119353599Y-110448860D01*
X119252427Y-110485683D01*
X119252426Y-110485683D01*
X119252425Y-110485684D01*
X119169952Y-110554887D01*
X119116117Y-110648130D01*
X119100084Y-110739059D01*
X119066962Y-110810086D01*
X119048304Y-110828745D01*
X118965436Y-110898281D01*
X118962519Y-110900729D01*
X118944547Y-110931858D01*
X118908685Y-110993971D01*
X118889990Y-111099999D01*
X118889990Y-111100000D01*
X117608718Y-111100000D01*
X117615807Y-111089390D01*
X117626114Y-111037572D01*
X117660776Y-110967285D01*
X117725938Y-110923744D01*
X117804141Y-110918618D01*
X117836109Y-110931858D01*
X117836837Y-110930102D01*
X117850607Y-110935805D01*
X117850610Y-110935807D01*
X117940000Y-110953588D01*
X118029390Y-110935807D01*
X118105172Y-110885172D01*
X118155807Y-110809390D01*
X118173588Y-110720000D01*
X118155807Y-110630610D01*
X118105172Y-110554828D01*
X118029390Y-110504193D01*
X118029387Y-110504192D01*
X117940000Y-110486412D01*
X117850612Y-110504192D01*
X117850610Y-110504192D01*
X117850610Y-110504193D01*
X117774828Y-110554828D01*
X117724192Y-110630611D01*
X117713885Y-110682429D01*
X117679221Y-110752716D01*
X117614058Y-110796256D01*
X117535855Y-110801381D01*
X117503890Y-110788141D01*
X117503163Y-110789898D01*
X117489390Y-110784193D01*
X117400000Y-110766412D01*
X117310612Y-110784192D01*
X117310610Y-110784192D01*
X117310610Y-110784193D01*
X117234828Y-110834828D01*
X117195312Y-110893970D01*
X117184192Y-110910612D01*
X117166412Y-111000000D01*
X110460010Y-111000000D01*
X110442506Y-110900729D01*
X110441314Y-110893970D01*
X110387481Y-110800729D01*
X110382150Y-110796256D01*
X110327891Y-110750727D01*
X110305005Y-110731523D01*
X110203833Y-110694700D01*
X110096167Y-110694700D01*
X109994995Y-110731523D01*
X109994994Y-110731523D01*
X109994993Y-110731524D01*
X109950400Y-110768942D01*
X109879371Y-110802062D01*
X109801299Y-110795231D01*
X109748470Y-110758238D01*
X109747628Y-110759243D01*
X109657192Y-110683358D01*
X109655005Y-110681523D01*
X109553833Y-110644700D01*
X109446167Y-110644700D01*
X109344995Y-110681523D01*
X109344992Y-110681524D01*
X109332549Y-110686054D01*
X109331567Y-110683357D01*
X109274989Y-110698513D01*
X109218432Y-110683358D01*
X109217451Y-110686054D01*
X109205007Y-110681524D01*
X109205005Y-110681523D01*
X109103833Y-110644700D01*
X108996167Y-110644700D01*
X108894995Y-110681523D01*
X108894994Y-110681523D01*
X108894993Y-110681524D01*
X108812520Y-110750727D01*
X108758685Y-110843970D01*
X108749109Y-110898281D01*
X108715987Y-110969308D01*
X108651789Y-111014259D01*
X108629547Y-111020480D01*
X108560611Y-111034192D01*
X108560610Y-111034193D01*
X108484828Y-111084828D01*
X108434773Y-111159743D01*
X108434192Y-111160612D01*
X108416412Y-111250000D01*
X101589079Y-111250000D01*
X101590708Y-109985000D01*
X116126412Y-109985000D01*
X116144193Y-110074390D01*
X116194828Y-110150172D01*
X116270610Y-110200807D01*
X116360000Y-110218588D01*
X116449390Y-110200807D01*
X116525172Y-110150172D01*
X116575807Y-110074390D01*
X116586626Y-110020000D01*
X124746412Y-110020000D01*
X124764193Y-110109390D01*
X124814828Y-110185172D01*
X124890610Y-110235807D01*
X124980000Y-110253588D01*
X125069390Y-110235807D01*
X125145172Y-110185172D01*
X125195807Y-110109390D01*
X125213588Y-110020000D01*
X125195807Y-109930610D01*
X125145172Y-109854828D01*
X125069390Y-109804193D01*
X125069387Y-109804192D01*
X124980000Y-109786412D01*
X124890612Y-109804192D01*
X124890610Y-109804192D01*
X124890610Y-109804193D01*
X124814828Y-109854828D01*
X124787578Y-109895612D01*
X124764192Y-109930612D01*
X124761170Y-109945807D01*
X124746412Y-110020000D01*
X116586626Y-110020000D01*
X116593588Y-109985000D01*
X116575807Y-109895610D01*
X116525172Y-109819828D01*
X116449390Y-109769193D01*
X116449387Y-109769192D01*
X116360000Y-109751412D01*
X116270612Y-109769192D01*
X116270610Y-109769192D01*
X116270610Y-109769193D01*
X116194828Y-109819828D01*
X116144487Y-109895171D01*
X116144192Y-109895612D01*
X116134208Y-109945807D01*
X116126412Y-109985000D01*
X101590708Y-109985000D01*
X101591036Y-109730000D01*
X105966412Y-109730000D01*
X105984193Y-109819390D01*
X106034828Y-109895172D01*
X106110610Y-109945807D01*
X106200000Y-109963588D01*
X106289390Y-109945807D01*
X106365172Y-109895172D01*
X106415807Y-109819390D01*
X106433588Y-109730000D01*
X106415807Y-109640610D01*
X106365172Y-109564828D01*
X106289390Y-109514193D01*
X106289387Y-109514192D01*
X106200000Y-109496412D01*
X106110612Y-109514192D01*
X106110610Y-109514192D01*
X106110610Y-109514193D01*
X106034828Y-109564828D01*
X105984192Y-109640612D01*
X105966412Y-109730000D01*
X101591036Y-109730000D01*
X101593272Y-107992955D01*
X113452742Y-107992955D01*
X113462692Y-108049387D01*
X113472822Y-108106833D01*
X113483410Y-108125172D01*
X113530637Y-108206974D01*
X113530638Y-108206975D01*
X113530639Y-108206976D01*
X113619221Y-108281305D01*
X113619222Y-108281305D01*
X113619223Y-108281306D01*
X113727882Y-108320855D01*
X113843517Y-108320855D01*
X113843518Y-108320855D01*
X113952179Y-108281305D01*
X114040761Y-108206976D01*
X114098578Y-108106833D01*
X114118658Y-107992955D01*
X114112847Y-107960000D01*
X123616412Y-107960000D01*
X123634193Y-108049390D01*
X123684828Y-108125172D01*
X123760610Y-108175807D01*
X123850000Y-108193588D01*
X123939390Y-108175807D01*
X124015172Y-108125172D01*
X124065807Y-108049390D01*
X124083588Y-107960000D01*
X124065807Y-107870610D01*
X124015172Y-107794828D01*
X123939390Y-107744193D01*
X123939387Y-107744192D01*
X123850000Y-107726412D01*
X123760612Y-107744192D01*
X123760610Y-107744192D01*
X123760610Y-107744193D01*
X123708614Y-107778935D01*
X123684828Y-107794828D01*
X123634192Y-107870612D01*
X123632508Y-107879079D01*
X123616412Y-107960000D01*
X114112847Y-107960000D01*
X114098578Y-107879077D01*
X114040761Y-107778934D01*
X113952179Y-107704605D01*
X113952177Y-107704604D01*
X113952176Y-107704603D01*
X113843519Y-107665055D01*
X113843518Y-107665055D01*
X113727882Y-107665055D01*
X113727881Y-107665055D01*
X113619223Y-107704603D01*
X113530637Y-107778935D01*
X113472821Y-107879079D01*
X113452742Y-107992955D01*
X101593272Y-107992955D01*
X101594615Y-106950000D01*
X104641412Y-106950000D01*
X104652428Y-107005383D01*
X104659193Y-107039390D01*
X104709828Y-107115172D01*
X104785610Y-107165807D01*
X104875000Y-107183588D01*
X104964390Y-107165807D01*
X105040172Y-107115172D01*
X105090807Y-107039390D01*
X105108588Y-106950000D01*
X105090807Y-106860610D01*
X105040172Y-106784828D01*
X104964390Y-106734193D01*
X104964387Y-106734192D01*
X104875000Y-106716412D01*
X104785612Y-106734192D01*
X104785610Y-106734192D01*
X104785610Y-106734193D01*
X104709828Y-106784828D01*
X104662827Y-106855172D01*
X104659192Y-106860612D01*
X104641412Y-106950000D01*
X101594615Y-106950000D01*
X101615721Y-90556280D01*
X101666390Y-90505743D01*
X101696848Y-90497623D01*
X102130000Y-90064471D01*
X102130000Y-90079728D01*
X102168060Y-90171614D01*
X102238386Y-90241940D01*
X102330272Y-90280000D01*
X102345526Y-90280000D01*
X101928645Y-90696879D01*
X102028603Y-90759687D01*
X102028605Y-90759688D01*
X102199780Y-90819585D01*
X102199783Y-90819586D01*
X102380000Y-90839892D01*
X102560216Y-90819586D01*
X102560219Y-90819585D01*
X102731394Y-90759688D01*
X102731398Y-90759686D01*
X102831353Y-90696879D01*
X102414474Y-90280000D01*
X102429728Y-90280000D01*
X102521614Y-90241940D01*
X102591940Y-90171614D01*
X102630000Y-90079728D01*
X102630000Y-90064474D01*
X103084879Y-90519353D01*
X103124064Y-90587224D01*
X103124064Y-90665594D01*
X103117674Y-90684406D01*
X103116845Y-90686405D01*
X103093756Y-90716468D01*
X103115394Y-90786612D01*
X103115500Y-90792275D01*
X103115500Y-91695621D01*
X103095216Y-91771321D01*
X103071156Y-91802677D01*
X102383278Y-92490554D01*
X102383278Y-92490555D01*
X102354200Y-92560756D01*
X102354200Y-101149169D01*
X102354200Y-101225153D01*
X102383278Y-101295354D01*
X105215217Y-104127293D01*
X105268946Y-104181022D01*
X105339147Y-104210100D01*
X105339148Y-104210100D01*
X108308891Y-104210100D01*
X108308892Y-104210100D01*
X108379093Y-104181022D01*
X109385115Y-103175000D01*
X112026386Y-103175000D01*
X112042193Y-103254469D01*
X112044167Y-103264390D01*
X112094802Y-103340172D01*
X112170584Y-103390807D01*
X112259974Y-103408588D01*
X112349364Y-103390807D01*
X112425146Y-103340172D01*
X112475781Y-103264390D01*
X112493562Y-103175000D01*
X112475781Y-103085610D01*
X112425146Y-103009828D01*
X112349364Y-102959193D01*
X112349361Y-102959192D01*
X112259974Y-102941412D01*
X112170586Y-102959192D01*
X112170584Y-102959192D01*
X112170584Y-102959193D01*
X112094802Y-103009828D01*
X112051712Y-103074319D01*
X112044166Y-103085612D01*
X112026386Y-103175000D01*
X109385115Y-103175000D01*
X110080471Y-102479644D01*
X110148342Y-102440459D01*
X110187527Y-102435300D01*
X110213831Y-102435300D01*
X110213833Y-102435300D01*
X110315005Y-102398477D01*
X110397481Y-102329271D01*
X110451314Y-102236030D01*
X110470010Y-102130000D01*
X110470010Y-102116754D01*
X110473728Y-102116754D01*
X110478534Y-102061651D01*
X110523469Y-101997442D01*
X110569031Y-101971128D01*
X110645005Y-101943477D01*
X110695285Y-101901286D01*
X110766312Y-101868165D01*
X110844384Y-101874995D01*
X110889918Y-101901284D01*
X110969995Y-101968477D01*
X111071167Y-102005300D01*
X111071169Y-102005300D01*
X111178831Y-102005300D01*
X111178833Y-102005300D01*
X111280005Y-101968477D01*
X111352683Y-101907492D01*
X111423709Y-101874372D01*
X111501781Y-101881202D01*
X111547316Y-101907492D01*
X111619995Y-101968477D01*
X111721167Y-102005300D01*
X111721169Y-102005300D01*
X111828831Y-102005300D01*
X111828833Y-102005300D01*
X111930005Y-101968477D01*
X111960390Y-101942980D01*
X112031415Y-101909861D01*
X112109487Y-101916691D01*
X112155024Y-101942982D01*
X112162519Y-101949271D01*
X112244995Y-102018477D01*
X112346167Y-102055300D01*
X112346169Y-102055300D01*
X112453831Y-102055300D01*
X112453833Y-102055300D01*
X112555005Y-102018477D01*
X112637481Y-101949271D01*
X112637486Y-101949262D01*
X112643003Y-101942689D01*
X112707199Y-101897736D01*
X112785271Y-101890903D01*
X112788451Y-101891499D01*
X112791485Y-101892103D01*
X112791487Y-101892102D01*
X112794817Y-101892765D01*
X112865105Y-101927428D01*
X112908645Y-101992591D01*
X112913770Y-102011719D01*
X112933319Y-102110000D01*
X112934193Y-102114390D01*
X112984828Y-102190172D01*
X113060610Y-102240807D01*
X113137136Y-102256029D01*
X113207425Y-102290691D01*
X113250965Y-102355854D01*
X113259000Y-102404520D01*
X113259000Y-103755362D01*
X113238717Y-103831061D01*
X113217355Y-103868060D01*
X113198660Y-103974089D01*
X113198660Y-103974090D01*
X113217355Y-104080119D01*
X113217355Y-104080120D01*
X113248862Y-104134690D01*
X113269146Y-104210390D01*
X113248862Y-104286090D01*
X113217355Y-104340659D01*
X113217355Y-104340660D01*
X113198660Y-104446689D01*
X113198660Y-104446690D01*
X113217355Y-104552719D01*
X113256772Y-104620991D01*
X113277055Y-104696691D01*
X113256772Y-104772389D01*
X113217355Y-104840660D01*
X113198660Y-104946689D01*
X113198660Y-104946690D01*
X113217355Y-105052719D01*
X113256772Y-105120991D01*
X113277055Y-105196691D01*
X113256772Y-105272389D01*
X113217355Y-105340660D01*
X113198660Y-105446689D01*
X113198660Y-105446690D01*
X113217355Y-105552719D01*
X113256772Y-105620991D01*
X113277055Y-105696691D01*
X113256772Y-105772389D01*
X113217355Y-105840660D01*
X113198660Y-105946689D01*
X113198660Y-105946690D01*
X113217355Y-106052718D01*
X113217355Y-106052719D01*
X113217356Y-106052720D01*
X113271189Y-106145961D01*
X113353665Y-106215167D01*
X113353668Y-106215168D01*
X113376939Y-106223638D01*
X113441136Y-106268589D01*
X113474257Y-106339617D01*
X113467426Y-106417689D01*
X113422475Y-106481886D01*
X113409270Y-106491792D01*
X113359828Y-106524827D01*
X113309192Y-106600612D01*
X113291412Y-106690000D01*
X113309192Y-106779389D01*
X113347793Y-106837161D01*
X113372983Y-106911373D01*
X113357692Y-106988237D01*
X113347793Y-107005383D01*
X113310892Y-107060610D01*
X113293112Y-107150000D01*
X113310893Y-107239390D01*
X113361528Y-107315172D01*
X113437310Y-107365807D01*
X113526700Y-107383588D01*
X113616090Y-107365807D01*
X113691872Y-107315172D01*
X113742507Y-107239390D01*
X113760288Y-107150000D01*
X113742507Y-107060610D01*
X113703905Y-107002837D01*
X113678716Y-106928627D01*
X113694006Y-106851763D01*
X113703899Y-106834626D01*
X113740807Y-106779390D01*
X113758588Y-106690000D01*
X113740807Y-106600610D01*
X113690172Y-106524828D01*
X113690170Y-106524827D01*
X113690170Y-106524826D01*
X113629212Y-106484096D01*
X113577538Y-106425175D01*
X113562248Y-106348310D01*
X113587439Y-106274099D01*
X113646360Y-106222425D01*
X113661522Y-106215950D01*
X113663675Y-106215167D01*
X113746151Y-106145961D01*
X113799984Y-106052720D01*
X113818680Y-105946690D01*
X113818679Y-105946689D01*
X113818931Y-105945265D01*
X113852052Y-105874237D01*
X113860976Y-105864498D01*
X113874864Y-105850610D01*
X113937292Y-105788183D01*
X113966370Y-105717982D01*
X113966370Y-105641998D01*
X113966370Y-105566456D01*
X113986654Y-105490756D01*
X114010711Y-105459403D01*
X114029628Y-105440486D01*
X114097498Y-105401302D01*
X114175868Y-105401302D01*
X114194625Y-105407669D01*
X114198106Y-105409110D01*
X114198110Y-105409113D01*
X114287500Y-105426894D01*
X114376890Y-105409113D01*
X114384285Y-105404171D01*
X114458496Y-105378980D01*
X114535360Y-105394269D01*
X114575454Y-105423000D01*
X114864656Y-105712202D01*
X114903841Y-105780073D01*
X114909000Y-105819258D01*
X114909000Y-105838252D01*
X114911909Y-105852877D01*
X114909670Y-105853322D01*
X114917303Y-105911309D01*
X114916300Y-105917826D01*
X114914990Y-105925257D01*
X114914990Y-105925260D01*
X114933685Y-106031288D01*
X114933685Y-106031289D01*
X114933686Y-106031290D01*
X114987519Y-106124531D01*
X115069995Y-106193737D01*
X115171167Y-106230560D01*
X115171169Y-106230560D01*
X115278831Y-106230560D01*
X115278833Y-106230560D01*
X115380005Y-106193737D01*
X115462481Y-106124531D01*
X115516314Y-106031290D01*
X115535010Y-105925260D01*
X115535009Y-105925257D01*
X115516314Y-105819231D01*
X115516314Y-105819230D01*
X115476897Y-105750958D01*
X115456614Y-105675261D01*
X115476896Y-105599562D01*
X115516314Y-105531290D01*
X115518305Y-105520000D01*
X123536412Y-105520000D01*
X123554193Y-105609390D01*
X123588580Y-105660854D01*
X123613770Y-105735066D01*
X123598480Y-105811930D01*
X123588581Y-105829076D01*
X123574192Y-105850610D01*
X123556412Y-105940000D01*
X123570530Y-106010979D01*
X123574193Y-106029390D01*
X123624828Y-106105172D01*
X123700610Y-106155807D01*
X123790000Y-106173588D01*
X123792016Y-106173588D01*
X123797822Y-106175143D01*
X123804625Y-106176497D01*
X123804536Y-106176942D01*
X123867716Y-106193872D01*
X123923132Y-106249288D01*
X123940507Y-106295451D01*
X123951021Y-106348310D01*
X123959193Y-106389390D01*
X124009828Y-106465172D01*
X124085610Y-106515807D01*
X124175000Y-106533588D01*
X124264390Y-106515807D01*
X124340172Y-106465172D01*
X124390807Y-106389390D01*
X124408588Y-106300000D01*
X124393669Y-106225000D01*
X124738042Y-106225000D01*
X124751266Y-106300000D01*
X124758122Y-106338878D01*
X124758549Y-106339617D01*
X124815937Y-106439019D01*
X124815938Y-106439020D01*
X124815939Y-106439021D01*
X124904521Y-106513350D01*
X124904522Y-106513350D01*
X124904523Y-106513351D01*
X125013182Y-106552900D01*
X125128817Y-106552900D01*
X125128818Y-106552900D01*
X125237479Y-106513350D01*
X125326061Y-106439021D01*
X125383878Y-106338878D01*
X125403958Y-106225000D01*
X125383878Y-106111122D01*
X125341554Y-106037813D01*
X125326062Y-106010980D01*
X125326061Y-106010979D01*
X125237479Y-105936650D01*
X125237477Y-105936649D01*
X125237476Y-105936648D01*
X125128819Y-105897100D01*
X125128818Y-105897100D01*
X125013182Y-105897100D01*
X125013181Y-105897100D01*
X124904523Y-105936648D01*
X124815937Y-106010980D01*
X124758121Y-106111124D01*
X124738042Y-106225000D01*
X124393669Y-106225000D01*
X124390807Y-106210610D01*
X124340172Y-106134828D01*
X124264390Y-106084193D01*
X124264387Y-106084192D01*
X124175000Y-106066412D01*
X124172984Y-106066412D01*
X124167177Y-106064856D01*
X124160375Y-106063503D01*
X124160463Y-106063057D01*
X124097284Y-106046128D01*
X124041868Y-105990712D01*
X124024493Y-105944549D01*
X124005807Y-105850610D01*
X123971420Y-105799145D01*
X123946229Y-105724934D01*
X123961519Y-105648069D01*
X123971414Y-105630930D01*
X123985807Y-105609390D01*
X124003588Y-105520000D01*
X123985807Y-105430610D01*
X123935172Y-105354828D01*
X123935170Y-105354827D01*
X123935170Y-105354826D01*
X123925962Y-105345618D01*
X123886777Y-105277747D01*
X123886777Y-105199377D01*
X123925962Y-105131506D01*
X123941998Y-105118345D01*
X123945168Y-105115174D01*
X123945172Y-105115172D01*
X123995807Y-105039390D01*
X124013588Y-104950000D01*
X123995807Y-104860610D01*
X123982477Y-104840660D01*
X123939693Y-104776627D01*
X123914503Y-104702416D01*
X123929793Y-104625551D01*
X123939688Y-104608412D01*
X123985807Y-104539390D01*
X124003588Y-104450000D01*
X123985807Y-104360610D01*
X123946374Y-104301593D01*
X123921184Y-104227384D01*
X123936474Y-104150520D01*
X123946368Y-104133381D01*
X123995807Y-104059390D01*
X124013588Y-103970000D01*
X123995807Y-103880610D01*
X123945172Y-103804828D01*
X123869390Y-103754193D01*
X123869387Y-103754192D01*
X123780000Y-103736412D01*
X123690612Y-103754192D01*
X123690610Y-103754192D01*
X123690610Y-103754193D01*
X123614828Y-103804828D01*
X123572579Y-103868060D01*
X123564192Y-103880612D01*
X123546412Y-103970000D01*
X123564192Y-104059389D01*
X123603624Y-104118404D01*
X123628815Y-104192615D01*
X123613525Y-104269480D01*
X123603625Y-104286627D01*
X123554192Y-104360610D01*
X123536412Y-104450000D01*
X123554192Y-104539389D01*
X123610306Y-104623372D01*
X123635496Y-104697584D01*
X123620205Y-104774448D01*
X123610306Y-104791594D01*
X123564192Y-104860610D01*
X123546412Y-104950000D01*
X123562581Y-105031290D01*
X123564193Y-105039390D01*
X123614828Y-105115172D01*
X123614829Y-105115173D01*
X123624037Y-105124381D01*
X123663222Y-105192252D01*
X123663222Y-105270622D01*
X123624037Y-105338493D01*
X123608007Y-105351648D01*
X123604829Y-105354826D01*
X123604828Y-105354828D01*
X123557769Y-105425259D01*
X123554192Y-105430612D01*
X123550994Y-105446690D01*
X123536412Y-105520000D01*
X115518305Y-105520000D01*
X115535010Y-105425260D01*
X115534611Y-105423000D01*
X115516314Y-105319230D01*
X115516314Y-105319229D01*
X115489398Y-105272610D01*
X115469114Y-105196910D01*
X115489398Y-105121210D01*
X115541314Y-105031290D01*
X115560010Y-104925260D01*
X115541314Y-104819230D01*
X115541314Y-104819229D01*
X115489398Y-104729309D01*
X115469114Y-104653609D01*
X115489398Y-104577909D01*
X115516314Y-104531290D01*
X115535010Y-104425260D01*
X115516314Y-104319230D01*
X115516314Y-104319229D01*
X115464398Y-104229309D01*
X115444114Y-104153609D01*
X115464398Y-104077909D01*
X115491314Y-104031290D01*
X115510010Y-103925260D01*
X115510009Y-103925258D01*
X115510261Y-103923834D01*
X115543381Y-103852806D01*
X115552294Y-103843079D01*
X115844226Y-103551147D01*
X115912095Y-103511964D01*
X115990465Y-103511964D01*
X116035392Y-103532320D01*
X116040610Y-103535807D01*
X116130000Y-103553588D01*
X116219390Y-103535807D01*
X116295172Y-103485172D01*
X116345807Y-103409390D01*
X116363588Y-103320000D01*
X116345807Y-103230610D01*
X116342321Y-103225393D01*
X116317129Y-103151184D01*
X116332418Y-103074319D01*
X116361146Y-103034228D01*
X116395374Y-103000000D01*
X124491412Y-103000000D01*
X124497404Y-103030126D01*
X124509193Y-103089390D01*
X124559828Y-103165172D01*
X124635610Y-103215807D01*
X124725000Y-103233588D01*
X124814390Y-103215807D01*
X124890172Y-103165172D01*
X124940807Y-103089390D01*
X124958588Y-103000000D01*
X124940807Y-102910610D01*
X124890172Y-102834828D01*
X124814390Y-102784193D01*
X124814387Y-102784192D01*
X124725000Y-102766412D01*
X124635612Y-102784192D01*
X124635610Y-102784192D01*
X124635610Y-102784193D01*
X124559828Y-102834828D01*
X124509192Y-102910612D01*
X124491412Y-103000000D01*
X116395374Y-103000000D01*
X116468622Y-102926753D01*
X116497700Y-102856552D01*
X116497700Y-102780568D01*
X116497700Y-102151807D01*
X116517984Y-102076107D01*
X116573400Y-102020691D01*
X116649100Y-102000407D01*
X116678641Y-102003317D01*
X116680000Y-102003588D01*
X116682739Y-102003043D01*
X116691061Y-102003588D01*
X116694912Y-102003588D01*
X116694912Y-102003840D01*
X116760941Y-102008164D01*
X116826106Y-102051701D01*
X116860771Y-102121988D01*
X116860772Y-102121994D01*
X116871692Y-102176888D01*
X116922327Y-102252670D01*
X116998109Y-102303305D01*
X117087499Y-102321086D01*
X117176889Y-102303305D01*
X117187798Y-102296015D01*
X117262005Y-102270824D01*
X117338869Y-102286112D01*
X117356022Y-102296015D01*
X117400609Y-102325807D01*
X117415440Y-102328756D01*
X117490000Y-102343588D01*
X117579390Y-102325807D01*
X117647569Y-102280251D01*
X117721780Y-102255061D01*
X117798644Y-102270351D01*
X117822199Y-102287230D01*
X117822429Y-102286887D01*
X117834827Y-102295171D01*
X117834828Y-102295172D01*
X117910610Y-102345807D01*
X118000000Y-102363588D01*
X118089390Y-102345807D01*
X118150888Y-102304715D01*
X118225099Y-102279525D01*
X118301963Y-102294815D01*
X118319110Y-102304715D01*
X118380610Y-102345807D01*
X118470000Y-102363588D01*
X118559390Y-102345807D01*
X118633373Y-102296373D01*
X118707582Y-102271184D01*
X118784446Y-102286474D01*
X118801587Y-102296369D01*
X118860610Y-102335807D01*
X118950000Y-102353588D01*
X119039390Y-102335807D01*
X119112605Y-102286887D01*
X119120888Y-102281353D01*
X119195099Y-102256162D01*
X119271964Y-102271452D01*
X119289112Y-102281353D01*
X119370610Y-102335807D01*
X119460000Y-102353588D01*
X119549390Y-102335807D01*
X119595923Y-102304714D01*
X119670131Y-102279525D01*
X119746996Y-102294815D01*
X119764145Y-102304716D01*
X119840609Y-102355807D01*
X119855440Y-102358756D01*
X119930000Y-102373588D01*
X120019390Y-102355807D01*
X120085889Y-102311374D01*
X120160099Y-102286184D01*
X120236963Y-102301474D01*
X120254102Y-102311369D01*
X120320610Y-102355807D01*
X120410000Y-102373588D01*
X120499390Y-102355807D01*
X120575172Y-102305172D01*
X120625807Y-102229390D01*
X120643588Y-102140000D01*
X120639610Y-102120000D01*
X120996412Y-102120000D01*
X121012203Y-102199390D01*
X121014193Y-102209390D01*
X121064828Y-102285172D01*
X121140610Y-102335807D01*
X121230000Y-102353588D01*
X121319390Y-102335807D01*
X121395172Y-102285172D01*
X121395172Y-102285170D01*
X121407571Y-102276887D01*
X121408500Y-102278277D01*
X121461140Y-102247882D01*
X121539511Y-102247878D01*
X121584446Y-102268235D01*
X121594827Y-102275171D01*
X121594828Y-102275172D01*
X121670610Y-102325807D01*
X121760000Y-102343588D01*
X121849390Y-102325807D01*
X121925172Y-102275172D01*
X121964115Y-102216887D01*
X122023035Y-102165215D01*
X122099899Y-102149924D01*
X122174111Y-102175114D01*
X122215883Y-102216886D01*
X122254828Y-102275172D01*
X122330610Y-102325807D01*
X122420000Y-102343588D01*
X122509390Y-102325807D01*
X122585172Y-102275172D01*
X122635807Y-102199390D01*
X122653588Y-102110000D01*
X122635807Y-102020610D01*
X122585172Y-101944828D01*
X122509390Y-101894193D01*
X122509387Y-101894192D01*
X122420000Y-101876412D01*
X122330612Y-101894192D01*
X122330610Y-101894192D01*
X122330610Y-101894193D01*
X122302358Y-101913070D01*
X122254826Y-101944829D01*
X122215885Y-102003111D01*
X122156964Y-102054785D01*
X122080100Y-102070075D01*
X122005888Y-102044884D01*
X121964115Y-102003111D01*
X121925173Y-101944829D01*
X121923150Y-101943477D01*
X121849390Y-101894193D01*
X121849387Y-101894192D01*
X121760000Y-101876412D01*
X121670612Y-101894192D01*
X121670610Y-101894192D01*
X121670610Y-101894193D01*
X121594828Y-101944828D01*
X121594827Y-101944828D01*
X121582429Y-101953113D01*
X121581500Y-101951723D01*
X121528842Y-101982121D01*
X121450471Y-101982117D01*
X121405554Y-101961764D01*
X121319389Y-101904192D01*
X121230000Y-101886412D01*
X121140612Y-101904192D01*
X121140610Y-101904192D01*
X121140610Y-101904193D01*
X121064828Y-101954828D01*
X121017942Y-102025000D01*
X121014192Y-102030612D01*
X120996412Y-102120000D01*
X120639610Y-102120000D01*
X120625807Y-102050610D01*
X120575172Y-101974828D01*
X120499390Y-101924193D01*
X120499387Y-101924192D01*
X120410000Y-101906412D01*
X120320611Y-101924192D01*
X120296670Y-101940189D01*
X120259795Y-101964828D01*
X120254112Y-101968625D01*
X120179900Y-101993815D01*
X120103036Y-101978525D01*
X120085888Y-101968625D01*
X120085770Y-101968546D01*
X120019390Y-101924193D01*
X120019389Y-101924192D01*
X120019388Y-101924192D01*
X119930000Y-101906412D01*
X119840610Y-101924192D01*
X119794077Y-101955284D01*
X119719865Y-101980474D01*
X119643001Y-101965183D01*
X119625854Y-101955284D01*
X119625172Y-101954828D01*
X119549390Y-101904193D01*
X119549387Y-101904192D01*
X119460000Y-101886412D01*
X119370610Y-101904192D01*
X119289111Y-101958647D01*
X119214899Y-101983837D01*
X119138035Y-101968546D01*
X119120889Y-101958647D01*
X119039389Y-101904192D01*
X118950000Y-101886412D01*
X118860610Y-101904192D01*
X118786627Y-101953625D01*
X118712415Y-101978815D01*
X118635551Y-101963524D01*
X118618404Y-101953624D01*
X118559389Y-101914192D01*
X118470000Y-101896412D01*
X118380610Y-101914192D01*
X118319111Y-101955284D01*
X118244900Y-101980474D01*
X118168035Y-101965183D01*
X118150889Y-101955284D01*
X118089389Y-101914192D01*
X118000000Y-101896412D01*
X117910610Y-101914192D01*
X117842429Y-101959748D01*
X117768217Y-101984938D01*
X117691353Y-101969647D01*
X117667800Y-101952769D01*
X117667571Y-101953113D01*
X117655172Y-101944828D01*
X117579390Y-101894193D01*
X117579387Y-101894192D01*
X117490000Y-101876412D01*
X117400610Y-101894192D01*
X117389698Y-101901484D01*
X117315486Y-101926673D01*
X117238622Y-101911382D01*
X117221478Y-101901484D01*
X117176889Y-101871691D01*
X117176888Y-101871690D01*
X117176887Y-101871690D01*
X117087499Y-101853910D01*
X117087495Y-101853910D01*
X117084750Y-101854456D01*
X117076422Y-101853910D01*
X117072587Y-101853910D01*
X117072587Y-101853658D01*
X117006548Y-101849329D01*
X116941386Y-101805788D01*
X116906725Y-101735500D01*
X116897674Y-101690000D01*
X116895807Y-101680610D01*
X116845172Y-101604828D01*
X116769390Y-101554193D01*
X116769387Y-101554192D01*
X116680000Y-101536412D01*
X116679997Y-101536412D01*
X116678635Y-101536683D01*
X116674501Y-101536412D01*
X116665088Y-101536412D01*
X116665088Y-101535795D01*
X116600432Y-101531557D01*
X116535270Y-101488016D01*
X116500609Y-101417727D01*
X116497700Y-101388192D01*
X116497700Y-101147111D01*
X116517984Y-101071411D01*
X116573400Y-101015995D01*
X116619563Y-100998620D01*
X116705174Y-100981591D01*
X116780956Y-100930956D01*
X116831591Y-100855174D01*
X116831591Y-100855171D01*
X116839874Y-100842776D01*
X116843564Y-100845241D01*
X116874158Y-100805344D01*
X116921657Y-100785649D01*
X117024410Y-100785649D01*
X117086447Y-100833219D01*
X117108264Y-100881347D01*
X117108941Y-100881067D01*
X117114646Y-100894841D01*
X117114648Y-100894845D01*
X117114649Y-100894846D01*
X117165284Y-100970628D01*
X117241066Y-101021263D01*
X117330456Y-101039044D01*
X117419846Y-101021263D01*
X117495628Y-100970628D01*
X117495628Y-100970626D01*
X117508027Y-100962343D01*
X117510519Y-100966074D01*
X117553870Y-100941017D01*
X117632240Y-100940977D01*
X117677241Y-100961352D01*
X117682957Y-100965171D01*
X117682958Y-100965172D01*
X117758740Y-101015807D01*
X117848130Y-101033588D01*
X117937520Y-101015807D01*
X117971245Y-100993272D01*
X118045453Y-100968082D01*
X118122318Y-100983371D01*
X118139464Y-100993270D01*
X118210610Y-101040807D01*
X118300000Y-101058588D01*
X118389390Y-101040807D01*
X118465172Y-100990172D01*
X118515807Y-100914390D01*
X118533588Y-100825000D01*
X118515807Y-100735610D01*
X118465172Y-100659828D01*
X118389390Y-100609193D01*
X118389387Y-100609192D01*
X118300000Y-100591412D01*
X118210610Y-100609192D01*
X118176884Y-100631727D01*
X118102672Y-100656917D01*
X118025808Y-100641626D01*
X118008662Y-100631727D01*
X117937519Y-100584192D01*
X117848130Y-100566412D01*
X117758742Y-100584192D01*
X117758740Y-100584192D01*
X117758740Y-100584193D01*
X117682958Y-100634828D01*
X117682957Y-100634828D01*
X117670559Y-100643113D01*
X117668071Y-100639390D01*
X117624567Y-100664478D01*
X117546197Y-100664438D01*
X117501345Y-100644103D01*
X117419845Y-100589648D01*
X117330456Y-100571868D01*
X117241068Y-100589648D01*
X117241066Y-100589648D01*
X117241066Y-100589649D01*
X117165284Y-100640284D01*
X117114649Y-100716066D01*
X117114648Y-100716067D01*
X117106366Y-100728464D01*
X117102682Y-100726002D01*
X117071982Y-100765972D01*
X117024410Y-100785649D01*
X116921657Y-100785649D01*
X116921785Y-100785596D01*
X116859715Y-100737921D01*
X116837969Y-100689895D01*
X116837299Y-100690173D01*
X116831593Y-100676398D01*
X116831591Y-100676395D01*
X116831591Y-100676394D01*
X116780956Y-100600612D01*
X116705174Y-100549977D01*
X116705173Y-100549976D01*
X116705172Y-100549976D01*
X116619562Y-100532947D01*
X116549274Y-100498284D01*
X116505734Y-100433121D01*
X116497700Y-100384456D01*
X116497700Y-100300000D01*
X120039990Y-100300000D01*
X120058685Y-100406028D01*
X120058685Y-100406029D01*
X120058686Y-100406030D01*
X120112519Y-100499271D01*
X120194995Y-100568477D01*
X120296167Y-100605300D01*
X120296169Y-100605300D01*
X120403831Y-100605300D01*
X120403833Y-100605300D01*
X120505005Y-100568477D01*
X120587481Y-100499271D01*
X120641314Y-100406030D01*
X120660010Y-100300000D01*
X120641314Y-100193970D01*
X120587481Y-100100729D01*
X120570689Y-100086639D01*
X120505006Y-100031524D01*
X120505005Y-100031523D01*
X120403833Y-99994700D01*
X120296167Y-99994700D01*
X120194995Y-100031523D01*
X120194994Y-100031523D01*
X120194993Y-100031524D01*
X120112520Y-100100727D01*
X120058685Y-100193971D01*
X120039990Y-100299999D01*
X120039990Y-100300000D01*
X116497700Y-100300000D01*
X116497700Y-99113586D01*
X119276404Y-99113586D01*
X119295099Y-99219614D01*
X119295099Y-99219615D01*
X119295100Y-99219616D01*
X119348933Y-99312857D01*
X119431409Y-99382063D01*
X119532581Y-99418886D01*
X119532583Y-99418886D01*
X119640247Y-99418886D01*
X119701253Y-99396681D01*
X119779324Y-99389851D01*
X119832035Y-99414429D01*
X119833523Y-99411853D01*
X119844991Y-99418474D01*
X119844995Y-99418477D01*
X119946167Y-99455300D01*
X119946169Y-99455300D01*
X120053831Y-99455300D01*
X120053833Y-99455300D01*
X120155005Y-99418477D01*
X120237481Y-99349271D01*
X120291314Y-99256030D01*
X120310010Y-99150000D01*
X120291314Y-99043970D01*
X120237481Y-98950729D01*
X120207544Y-98925609D01*
X120165992Y-98890742D01*
X120155005Y-98881523D01*
X120053833Y-98844700D01*
X119946167Y-98844700D01*
X119946165Y-98844700D01*
X119885159Y-98866904D01*
X119807087Y-98873734D01*
X119754382Y-98849156D01*
X119752895Y-98851734D01*
X119741424Y-98845112D01*
X119741421Y-98845111D01*
X119741419Y-98845109D01*
X119640247Y-98808286D01*
X119532581Y-98808286D01*
X119431409Y-98845109D01*
X119431408Y-98845109D01*
X119431407Y-98845110D01*
X119348934Y-98914313D01*
X119295099Y-99007557D01*
X119276404Y-99113585D01*
X119276404Y-99113586D01*
X116497700Y-99113586D01*
X116497700Y-90188444D01*
X116517984Y-90112744D01*
X116573400Y-90057328D01*
X116649100Y-90037044D01*
X116724800Y-90057328D01*
X116746407Y-90072457D01*
X116793565Y-90112027D01*
X116894737Y-90148850D01*
X116894739Y-90148850D01*
X117002402Y-90148850D01*
X117002403Y-90148850D01*
X117103575Y-90112027D01*
X117103575Y-90112026D01*
X117116023Y-90107496D01*
X117117004Y-90110193D01*
X117173570Y-90095037D01*
X117230135Y-90110193D01*
X117231117Y-90107496D01*
X117243564Y-90112026D01*
X117243565Y-90112027D01*
X117344737Y-90148850D01*
X117344738Y-90148850D01*
X117452401Y-90148850D01*
X117452403Y-90148850D01*
X117553575Y-90112027D01*
X117570220Y-90098060D01*
X117641245Y-90064939D01*
X117719317Y-90071768D01*
X117747303Y-90087925D01*
X117747923Y-90086853D01*
X117759391Y-90093474D01*
X117759395Y-90093477D01*
X117860567Y-90130300D01*
X117860569Y-90130300D01*
X117968232Y-90130300D01*
X117968233Y-90130300D01*
X118069405Y-90093477D01*
X118069405Y-90093476D01*
X118081853Y-90088946D01*
X118082427Y-90090524D01*
X118143363Y-90074193D01*
X118219064Y-90094472D01*
X118240688Y-90109612D01*
X118243565Y-90112027D01*
X118344737Y-90148850D01*
X118344739Y-90148850D01*
X118452401Y-90148850D01*
X118452403Y-90148850D01*
X118553575Y-90112027D01*
X118581135Y-90088900D01*
X118652163Y-90055780D01*
X118730235Y-90062610D01*
X118735058Y-90064859D01*
X118744992Y-90068474D01*
X118744995Y-90068477D01*
X118846167Y-90105300D01*
X118846169Y-90105300D01*
X118953831Y-90105300D01*
X118953833Y-90105300D01*
X119055005Y-90068477D01*
X119077682Y-90049448D01*
X119148709Y-90016327D01*
X119226781Y-90023157D01*
X119272317Y-90049447D01*
X119294995Y-90068477D01*
X119396167Y-90105300D01*
X119396169Y-90105300D01*
X119503833Y-90105300D01*
X119583308Y-90076373D01*
X119661379Y-90069543D01*
X119732406Y-90102663D01*
X119743565Y-90112027D01*
X119844737Y-90148850D01*
X119844739Y-90148850D01*
X119952401Y-90148850D01*
X119952403Y-90148850D01*
X120053575Y-90112027D01*
X120053580Y-90112022D01*
X120065047Y-90105403D01*
X120066020Y-90107089D01*
X120122270Y-90080856D01*
X120200342Y-90087681D01*
X120231829Y-90105859D01*
X120232093Y-90105403D01*
X120243561Y-90112024D01*
X120243565Y-90112027D01*
X120344737Y-90148850D01*
X120344739Y-90148850D01*
X120452401Y-90148850D01*
X120452403Y-90148850D01*
X120553575Y-90112027D01*
X120553580Y-90112022D01*
X120565047Y-90105403D01*
X120566020Y-90107089D01*
X120622270Y-90080856D01*
X120700342Y-90087681D01*
X120731829Y-90105859D01*
X120732093Y-90105403D01*
X120743561Y-90112024D01*
X120743565Y-90112027D01*
X120844737Y-90148850D01*
X120844739Y-90148850D01*
X120952401Y-90148850D01*
X120952403Y-90148850D01*
X121053575Y-90112027D01*
X121053580Y-90112022D01*
X121065047Y-90105403D01*
X121066020Y-90107089D01*
X121122270Y-90080856D01*
X121200342Y-90087681D01*
X121231829Y-90105859D01*
X121232093Y-90105403D01*
X121243561Y-90112024D01*
X121243565Y-90112027D01*
X121344737Y-90148850D01*
X121344739Y-90148850D01*
X121452401Y-90148850D01*
X121452403Y-90148850D01*
X121553575Y-90112027D01*
X121559168Y-90107333D01*
X121630192Y-90074214D01*
X121708265Y-90081043D01*
X121753799Y-90107331D01*
X121759395Y-90112027D01*
X121860567Y-90148850D01*
X121860569Y-90148850D01*
X121968231Y-90148850D01*
X121968233Y-90148850D01*
X122069405Y-90112027D01*
X122151881Y-90042821D01*
X122205714Y-89949580D01*
X122224410Y-89843550D01*
X122224409Y-89843548D01*
X122224661Y-89842124D01*
X122257781Y-89771096D01*
X122266693Y-89761370D01*
X123684846Y-88343218D01*
X123752715Y-88304035D01*
X123831085Y-88304035D01*
X123898956Y-88343220D01*
X123938141Y-88411091D01*
X123943300Y-88450276D01*
X123943300Y-91003205D01*
X123923016Y-91078905D01*
X123898956Y-91110261D01*
X123667578Y-91341638D01*
X123638500Y-91411841D01*
X123638500Y-91743780D01*
X123618216Y-91819480D01*
X123603080Y-91841097D01*
X123598957Y-91846009D01*
X123545126Y-91939249D01*
X123545125Y-91939250D01*
X123526430Y-92045279D01*
X123526430Y-92045280D01*
X123545125Y-92151309D01*
X123577732Y-92207786D01*
X123598015Y-92283486D01*
X123577731Y-92359185D01*
X123531506Y-92439249D01*
X123531505Y-92439250D01*
X123512810Y-92545279D01*
X123512810Y-92545280D01*
X123531505Y-92651309D01*
X123531506Y-92651310D01*
X123579381Y-92734233D01*
X123599665Y-92809933D01*
X123579382Y-92885632D01*
X123548425Y-92939250D01*
X123529730Y-93045279D01*
X123529730Y-93045280D01*
X123548425Y-93151309D01*
X123548426Y-93151310D01*
X123598051Y-93237264D01*
X123618335Y-93312964D01*
X123598052Y-93388663D01*
X123568845Y-93439250D01*
X123550150Y-93545279D01*
X123550150Y-93545280D01*
X123568845Y-93651309D01*
X123603182Y-93710782D01*
X123623465Y-93786482D01*
X123603182Y-93862180D01*
X123558685Y-93939250D01*
X123539990Y-94045279D01*
X123539990Y-94045280D01*
X123558685Y-94151308D01*
X123558685Y-94151309D01*
X123558686Y-94151310D01*
X123612519Y-94244551D01*
X123694995Y-94313757D01*
X123796167Y-94350580D01*
X123796169Y-94350580D01*
X123903833Y-94350580D01*
X123964402Y-94328534D01*
X124042474Y-94321704D01*
X124113502Y-94354825D01*
X124158453Y-94419022D01*
X124164675Y-94441267D01*
X124187102Y-94554015D01*
X124182642Y-94554901D01*
X124189162Y-94604358D01*
X124159183Y-94676768D01*
X124097015Y-94724487D01*
X124019317Y-94734729D01*
X123987273Y-94726891D01*
X123956388Y-94715650D01*
X123840752Y-94715650D01*
X123840751Y-94715650D01*
X123732093Y-94755198D01*
X123643507Y-94829530D01*
X123585691Y-94929674D01*
X123565612Y-95043550D01*
X123583688Y-95146066D01*
X123585692Y-95157428D01*
X123612522Y-95203901D01*
X123643507Y-95257569D01*
X123643508Y-95257570D01*
X123643509Y-95257571D01*
X123732091Y-95331900D01*
X123732092Y-95331900D01*
X123732093Y-95331901D01*
X123840752Y-95371450D01*
X123956387Y-95371450D01*
X123956388Y-95371450D01*
X124065049Y-95331900D01*
X124153631Y-95257571D01*
X124211448Y-95157428D01*
X124231528Y-95043550D01*
X124211448Y-94929672D01*
X124193547Y-94898667D01*
X124173264Y-94822969D01*
X124193548Y-94747269D01*
X124248964Y-94691853D01*
X124324664Y-94671569D01*
X124354200Y-94674478D01*
X124399999Y-94683588D01*
X124400000Y-94683588D01*
X124489390Y-94665807D01*
X124565172Y-94615172D01*
X124615807Y-94539390D01*
X124633588Y-94450000D01*
X124615807Y-94360610D01*
X124565172Y-94284828D01*
X124489390Y-94234193D01*
X124489387Y-94234192D01*
X124400000Y-94216412D01*
X124399997Y-94216412D01*
X124337081Y-94228926D01*
X124258878Y-94223800D01*
X124193716Y-94180258D01*
X124159055Y-94109970D01*
X124158447Y-94054143D01*
X124160010Y-94045280D01*
X124160009Y-94045278D01*
X124160262Y-94043848D01*
X124193386Y-93972821D01*
X124202293Y-93963100D01*
X124961922Y-93203473D01*
X124991000Y-93133272D01*
X124991000Y-93057288D01*
X124991000Y-92046788D01*
X125011284Y-91971088D01*
X125066700Y-91915672D01*
X125142400Y-91895388D01*
X125218100Y-91915672D01*
X125268285Y-91962676D01*
X125275911Y-91974089D01*
X125351693Y-92024724D01*
X125441083Y-92042505D01*
X125530473Y-92024724D01*
X125606255Y-91974089D01*
X125656890Y-91898307D01*
X125674671Y-91808917D01*
X125656890Y-91719527D01*
X125606255Y-91643745D01*
X125530473Y-91593110D01*
X125530470Y-91593109D01*
X125441083Y-91575329D01*
X125351695Y-91593109D01*
X125351693Y-91593109D01*
X125351693Y-91593110D01*
X125326320Y-91610063D01*
X125275910Y-91643745D01*
X125268285Y-91655158D01*
X125209363Y-91706832D01*
X125132498Y-91722121D01*
X125058287Y-91696930D01*
X125006613Y-91638008D01*
X124991000Y-91571045D01*
X124991000Y-86530957D01*
X124990728Y-86530300D01*
X124961922Y-86460755D01*
X124908193Y-86407026D01*
X123761323Y-85260156D01*
X123722138Y-85192285D01*
X123722138Y-85113915D01*
X123761323Y-85046044D01*
X123829194Y-85006859D01*
X123868379Y-85001700D01*
X123958961Y-85001700D01*
X124113847Y-84970891D01*
X124259747Y-84910457D01*
X124391054Y-84822721D01*
X124502721Y-84711054D01*
X124590457Y-84579747D01*
X124650891Y-84433847D01*
X124681700Y-84278961D01*
X124681700Y-84121039D01*
X124650891Y-83966153D01*
X124590457Y-83820253D01*
X124502721Y-83688946D01*
X124391054Y-83577279D01*
X124259747Y-83489543D01*
X124227781Y-83476302D01*
X124113848Y-83429109D01*
X123958961Y-83398300D01*
X123801039Y-83398300D01*
X123646151Y-83429109D01*
X123500252Y-83489543D01*
X123368944Y-83577280D01*
X123257280Y-83688944D01*
X123169543Y-83820252D01*
X123109109Y-83966151D01*
X123078300Y-84121039D01*
X123078300Y-84211621D01*
X123058016Y-84287321D01*
X123002600Y-84342737D01*
X122926900Y-84363021D01*
X122851200Y-84342737D01*
X122819844Y-84318677D01*
X120985344Y-82484177D01*
X120946159Y-82416306D01*
X120941000Y-82377121D01*
X120941000Y-80612009D01*
X120935871Y-80599626D01*
X120911922Y-80541807D01*
X120858193Y-80488078D01*
X120849566Y-80479451D01*
X120849559Y-80479445D01*
X120552305Y-80182191D01*
X120513120Y-80114320D01*
X120510261Y-80101425D01*
X120506145Y-80078084D01*
X120491314Y-79993970D01*
X120437481Y-79900729D01*
X120355005Y-79831523D01*
X120253833Y-79794700D01*
X120146167Y-79794700D01*
X120044995Y-79831523D01*
X120044994Y-79831523D01*
X120044993Y-79831524D01*
X119962520Y-79900727D01*
X119962519Y-79900729D01*
X119936623Y-79945583D01*
X119931116Y-79955121D01*
X119875699Y-80010537D01*
X119799999Y-80030820D01*
X119724299Y-80010536D01*
X119668884Y-79955121D01*
X119637481Y-79900729D01*
X119555005Y-79831523D01*
X119453833Y-79794700D01*
X119346167Y-79794700D01*
X119244995Y-79831523D01*
X119244994Y-79831523D01*
X119244993Y-79831524D01*
X119162520Y-79900727D01*
X119162518Y-79900729D01*
X119143615Y-79933471D01*
X119088198Y-79988886D01*
X119012498Y-80009169D01*
X118936798Y-79988884D01*
X118881385Y-79933471D01*
X118862481Y-79900729D01*
X118862479Y-79900727D01*
X118780006Y-79831524D01*
X118780005Y-79831523D01*
X118678833Y-79794700D01*
X118571167Y-79794700D01*
X118469995Y-79831523D01*
X118469994Y-79831523D01*
X118469993Y-79831524D01*
X118387520Y-79900727D01*
X118333685Y-79993971D01*
X118314990Y-80099999D01*
X118314990Y-80100000D01*
X118333685Y-80206028D01*
X118333685Y-80206029D01*
X118333686Y-80206030D01*
X118387519Y-80299271D01*
X118469995Y-80368477D01*
X118533643Y-80391642D01*
X118597838Y-80436592D01*
X118630960Y-80507620D01*
X118624130Y-80585692D01*
X118588916Y-80640967D01*
X117466807Y-81763078D01*
X117413077Y-81816807D01*
X117390271Y-81871867D01*
X117342562Y-81934042D01*
X117270157Y-81964033D01*
X117192457Y-81953803D01*
X117166523Y-81938066D01*
X117166477Y-81938148D01*
X117155006Y-81931525D01*
X117155005Y-81931524D01*
X117053833Y-81894701D01*
X116946167Y-81894701D01*
X116844995Y-81931524D01*
X116844994Y-81931524D01*
X116844993Y-81931525D01*
X116762520Y-82000728D01*
X116762519Y-82000730D01*
X116732104Y-82053411D01*
X116732103Y-82053412D01*
X116676686Y-82108828D01*
X116600986Y-82129111D01*
X116525286Y-82108827D01*
X116469871Y-82053411D01*
X116464654Y-82044375D01*
X116445021Y-82010369D01*
X116443389Y-82009000D01*
X116385951Y-81960803D01*
X116362545Y-81941163D01*
X116261373Y-81904340D01*
X116153707Y-81904340D01*
X116052535Y-81941163D01*
X116052534Y-81941163D01*
X116052533Y-81941164D01*
X115970060Y-82010367D01*
X115970058Y-82010369D01*
X115941341Y-82060109D01*
X115885924Y-82115524D01*
X115810224Y-82135807D01*
X115734524Y-82115522D01*
X115679110Y-82060107D01*
X115676231Y-82055121D01*
X115647461Y-82005289D01*
X115642025Y-82000728D01*
X115571039Y-81941163D01*
X115564985Y-81936083D01*
X115474783Y-81903252D01*
X115410588Y-81858302D01*
X115377467Y-81787274D01*
X115384297Y-81709202D01*
X115429249Y-81645005D01*
X115500277Y-81611884D01*
X115500278Y-81611884D01*
X115506989Y-81610700D01*
X115506993Y-81610700D01*
X115608165Y-81573877D01*
X115690641Y-81504671D01*
X115733663Y-81430154D01*
X115789078Y-81374740D01*
X115864778Y-81354456D01*
X115940478Y-81374740D01*
X115995893Y-81430155D01*
X116007152Y-81449656D01*
X116033032Y-81494482D01*
X116033034Y-81494484D01*
X116045176Y-81504672D01*
X116115509Y-81563689D01*
X116216681Y-81600512D01*
X116216683Y-81600512D01*
X116324345Y-81600512D01*
X116324347Y-81600512D01*
X116425519Y-81563689D01*
X116507995Y-81494483D01*
X116523587Y-81467476D01*
X116578998Y-81412063D01*
X116654698Y-81391778D01*
X116730398Y-81412060D01*
X116785816Y-81467475D01*
X116785816Y-81467476D01*
X116795558Y-81484350D01*
X116795560Y-81484352D01*
X116807634Y-81494483D01*
X116878035Y-81553557D01*
X116979207Y-81590380D01*
X116979209Y-81590380D01*
X117086871Y-81590380D01*
X117086873Y-81590380D01*
X117188045Y-81553557D01*
X117270521Y-81484351D01*
X117324354Y-81391110D01*
X117343050Y-81285080D01*
X117336186Y-81246155D01*
X117326145Y-81189210D01*
X117324354Y-81179050D01*
X117270521Y-81085809D01*
X117265413Y-81081523D01*
X117188046Y-81016604D01*
X117188045Y-81016603D01*
X117086873Y-80979780D01*
X116979207Y-80979780D01*
X116878035Y-81016603D01*
X116878034Y-81016603D01*
X116878033Y-81016604D01*
X116795560Y-81085807D01*
X116795559Y-81085809D01*
X116783829Y-81106127D01*
X116779968Y-81112814D01*
X116724551Y-81168230D01*
X116648851Y-81188513D01*
X116573151Y-81168229D01*
X116517737Y-81112815D01*
X116507995Y-81095941D01*
X116495920Y-81085809D01*
X116437662Y-81036924D01*
X116425519Y-81026735D01*
X116324347Y-80989912D01*
X116216681Y-80989912D01*
X116115509Y-81026735D01*
X116115508Y-81026735D01*
X116115507Y-81026736D01*
X116033034Y-81095939D01*
X116033032Y-81095941D01*
X115990010Y-81170457D01*
X115934593Y-81225872D01*
X115858893Y-81246155D01*
X115783193Y-81225870D01*
X115727780Y-81170456D01*
X115690641Y-81106129D01*
X115678530Y-81095967D01*
X115620273Y-81047083D01*
X115608165Y-81036923D01*
X115506993Y-81000100D01*
X115479584Y-81000100D01*
X115403884Y-80979816D01*
X115348468Y-80924400D01*
X115328184Y-80848700D01*
X115328184Y-80556700D01*
X115348468Y-80481000D01*
X115403884Y-80425584D01*
X115479584Y-80405300D01*
X115503831Y-80405300D01*
X115503833Y-80405300D01*
X115605005Y-80368477D01*
X115687481Y-80299271D01*
X115687483Y-80299266D01*
X115695993Y-80289126D01*
X115699311Y-80291910D01*
X115736741Y-80254448D01*
X115812432Y-80234130D01*
X115888141Y-80254380D01*
X115925697Y-80291902D01*
X115929007Y-80289126D01*
X115937518Y-80299270D01*
X115937519Y-80299271D01*
X116019995Y-80368477D01*
X116121167Y-80405300D01*
X116121169Y-80405300D01*
X116228831Y-80405300D01*
X116228833Y-80405300D01*
X116330005Y-80368477D01*
X116412481Y-80299271D01*
X116456384Y-80223228D01*
X116511800Y-80167813D01*
X116587500Y-80147529D01*
X116663200Y-80167813D01*
X116718616Y-80223229D01*
X116756661Y-80289126D01*
X116762519Y-80299271D01*
X116844995Y-80368477D01*
X116946167Y-80405300D01*
X116946169Y-80405300D01*
X117053831Y-80405300D01*
X117053833Y-80405300D01*
X117155005Y-80368477D01*
X117237481Y-80299271D01*
X117291314Y-80206030D01*
X117310010Y-80100000D01*
X117291314Y-79993970D01*
X117237481Y-79900729D01*
X117155005Y-79831523D01*
X117053833Y-79794700D01*
X116946167Y-79794700D01*
X116844995Y-79831523D01*
X116844994Y-79831523D01*
X116844993Y-79831524D01*
X116762520Y-79900727D01*
X116718616Y-79976771D01*
X116663199Y-80032187D01*
X116587499Y-80052470D01*
X116511799Y-80032186D01*
X116456384Y-79976771D01*
X116438380Y-79945587D01*
X116412481Y-79900729D01*
X116330005Y-79831523D01*
X116228833Y-79794700D01*
X116121167Y-79794700D01*
X116019995Y-79831523D01*
X116019994Y-79831523D01*
X116019993Y-79831524D01*
X115937520Y-79900727D01*
X115929007Y-79910874D01*
X115925692Y-79908093D01*
X115888196Y-79945587D01*
X115812496Y-79965869D01*
X115736796Y-79945583D01*
X115699306Y-79908093D01*
X115695993Y-79910874D01*
X115687479Y-79900727D01*
X115605006Y-79831524D01*
X115605005Y-79831523D01*
X115503833Y-79794700D01*
X115396167Y-79794700D01*
X115394919Y-79794700D01*
X115319219Y-79774416D01*
X115287863Y-79750356D01*
X114989885Y-79452378D01*
X114919684Y-79423300D01*
X114919683Y-79423300D01*
X114895218Y-79423300D01*
X114819518Y-79403016D01*
X114788162Y-79378956D01*
X114047284Y-78638078D01*
X113977083Y-78609000D01*
X108022466Y-78609000D01*
X107946482Y-78609000D01*
X107911381Y-78623539D01*
X107876280Y-78638078D01*
X103346278Y-83168080D01*
X103338985Y-83185688D01*
X103320664Y-83229921D01*
X103317200Y-83238283D01*
X103317200Y-89483335D01*
X103296916Y-89559035D01*
X103241500Y-89614451D01*
X103165800Y-89634735D01*
X103090100Y-89614451D01*
X103053729Y-89579416D01*
X103046880Y-89578645D01*
X102630000Y-89995525D01*
X102630000Y-89980272D01*
X102591940Y-89888386D01*
X102521614Y-89818060D01*
X102429728Y-89780000D01*
X102414472Y-89780000D01*
X102831353Y-89363118D01*
X102831354Y-89363118D01*
X102731399Y-89300312D01*
X102560219Y-89240414D01*
X102560216Y-89240413D01*
X102380000Y-89220108D01*
X102199783Y-89240413D01*
X102199780Y-89240414D01*
X102028603Y-89300311D01*
X102028597Y-89300314D01*
X101928645Y-89363118D01*
X101928645Y-89363119D01*
X102345526Y-89780000D01*
X102330272Y-89780000D01*
X102238386Y-89818060D01*
X102168060Y-89888386D01*
X102130000Y-89980272D01*
X102130000Y-89995526D01*
X101698442Y-89563968D01*
X101682940Y-89561632D01*
X101621668Y-89512769D01*
X101617080Y-89501080D01*
X101620103Y-87153322D01*
X101670771Y-87102785D01*
X101746497Y-87082599D01*
X101822171Y-87102980D01*
X101846698Y-87120674D01*
X101926387Y-87191272D01*
X102066778Y-87264956D01*
X102220724Y-87302900D01*
X102220727Y-87302900D01*
X102379273Y-87302900D01*
X102379276Y-87302900D01*
X102533222Y-87264956D01*
X102673613Y-87191272D01*
X102792292Y-87086132D01*
X102882360Y-86955646D01*
X102882563Y-86955112D01*
X102938582Y-86807403D01*
X102938584Y-86807395D01*
X102939041Y-86803636D01*
X102956954Y-86656106D01*
X102957695Y-86650001D01*
X102957695Y-86649998D01*
X102940126Y-86505300D01*
X102938584Y-86492603D01*
X102938583Y-86492601D01*
X102938582Y-86492596D01*
X102882362Y-86344358D01*
X102882359Y-86344353D01*
X102792292Y-86213868D01*
X102673613Y-86108728D01*
X102673611Y-86108727D01*
X102673610Y-86108726D01*
X102533223Y-86035044D01*
X102494735Y-86025558D01*
X102379276Y-85997100D01*
X102220724Y-85997100D01*
X102128356Y-86019866D01*
X102066776Y-86035044D01*
X101926387Y-86108727D01*
X101848204Y-86177991D01*
X101778091Y-86213007D01*
X101699863Y-86208274D01*
X101634483Y-86165062D01*
X101621409Y-86138884D01*
X101625000Y-83350000D01*
X103933993Y-78367435D01*
X103980993Y-78312248D01*
X104054832Y-78285984D01*
X104066923Y-78285500D01*
X125316299Y-78285500D01*
X125391999Y-78305784D01*
G37*
G04 #@! TD.AperFunction*
G04 #@! TA.AperFunction,Conductor*
G36*
X107675173Y-103065184D02*
G01*
X107730589Y-103120600D01*
X107750873Y-103196300D01*
X107730589Y-103272000D01*
X107706529Y-103303356D01*
X107530929Y-103478956D01*
X107463058Y-103518141D01*
X107423873Y-103523300D01*
X105645218Y-103523300D01*
X105569518Y-103503016D01*
X105538162Y-103478956D01*
X105362562Y-103303356D01*
X105323377Y-103235485D01*
X105323377Y-103157115D01*
X105362562Y-103089244D01*
X105430433Y-103050059D01*
X105469618Y-103044900D01*
X107599473Y-103044900D01*
X107675173Y-103065184D01*
G37*
G04 #@! TD.AperFunction*
G04 #@! TA.AperFunction,Conductor*
G36*
X114263314Y-87378692D02*
G01*
X114318731Y-87434107D01*
X114332774Y-87458430D01*
X114332776Y-87458432D01*
X114344882Y-87468590D01*
X114415251Y-87527637D01*
X114516423Y-87564460D01*
X114516425Y-87564460D01*
X114624087Y-87564460D01*
X114624089Y-87564460D01*
X114725261Y-87527637D01*
X114807737Y-87458431D01*
X114807740Y-87458425D01*
X114811999Y-87453350D01*
X114876192Y-87408393D01*
X114954264Y-87401556D01*
X115025294Y-87434671D01*
X115059100Y-87474954D01*
X115060118Y-87476718D01*
X115068635Y-87486868D01*
X115065771Y-87489270D01*
X115097465Y-87534527D01*
X115106600Y-87586320D01*
X115106600Y-87868300D01*
X115086316Y-87944000D01*
X115030900Y-87999416D01*
X114955200Y-88019700D01*
X114946167Y-88019700D01*
X114844995Y-88056523D01*
X114844994Y-88056523D01*
X114844993Y-88056524D01*
X114762520Y-88125727D01*
X114708685Y-88218971D01*
X114689738Y-88326424D01*
X114656616Y-88397452D01*
X114647694Y-88407189D01*
X114245512Y-88809372D01*
X114213078Y-88841805D01*
X114197693Y-88878949D01*
X114184000Y-88912008D01*
X114184000Y-91949966D01*
X114184000Y-92025950D01*
X114209095Y-92086534D01*
X114213078Y-92096151D01*
X114664770Y-92547843D01*
X114703955Y-92615714D01*
X114703955Y-92694084D01*
X114664770Y-92761955D01*
X114641827Y-92780783D01*
X114585935Y-92818128D01*
X114585933Y-92818130D01*
X114560614Y-92856023D01*
X114547243Y-92876036D01*
X114535296Y-92893916D01*
X114517516Y-92983304D01*
X114532232Y-93057288D01*
X114535297Y-93072694D01*
X114585932Y-93148476D01*
X114661714Y-93199111D01*
X114751104Y-93216892D01*
X114751105Y-93216892D01*
X114780473Y-93211050D01*
X114858676Y-93216174D01*
X114923839Y-93259713D01*
X114958502Y-93330001D01*
X114958503Y-93389076D01*
X114941412Y-93474999D01*
X114955391Y-93545280D01*
X114959193Y-93564390D01*
X115009828Y-93640172D01*
X115014215Y-93643103D01*
X115065889Y-93702022D01*
X115081180Y-93778887D01*
X115055991Y-93853099D01*
X115037164Y-93876041D01*
X115034831Y-93878374D01*
X114984190Y-93954164D01*
X114978485Y-93967939D01*
X114977199Y-93967406D01*
X114949840Y-94022885D01*
X114884677Y-94066424D01*
X114806474Y-94071548D01*
X114736186Y-94036885D01*
X114731679Y-94032280D01*
X114726074Y-94027577D01*
X114643601Y-93958373D01*
X114542429Y-93921550D01*
X114434763Y-93921550D01*
X114333591Y-93958373D01*
X114333590Y-93958373D01*
X114333589Y-93958374D01*
X114251116Y-94027577D01*
X114197281Y-94120821D01*
X114178586Y-94226849D01*
X114178586Y-94226850D01*
X114197281Y-94332878D01*
X114197281Y-94332879D01*
X114197282Y-94332880D01*
X114247016Y-94419022D01*
X114251116Y-94426122D01*
X114259631Y-94436270D01*
X114256223Y-94439129D01*
X114286375Y-94482234D01*
X114293168Y-94560309D01*
X114269968Y-94618058D01*
X114247554Y-94651605D01*
X114246469Y-94650880D01*
X114208604Y-94700225D01*
X114136198Y-94730213D01*
X114058499Y-94719981D01*
X114041958Y-94711824D01*
X113932819Y-94672100D01*
X113932818Y-94672100D01*
X113817182Y-94672100D01*
X113817181Y-94672100D01*
X113708523Y-94711648D01*
X113619937Y-94785980D01*
X113588529Y-94840383D01*
X113564216Y-94882496D01*
X113562121Y-94886124D01*
X113542042Y-95000000D01*
X113553076Y-95062580D01*
X113562122Y-95113878D01*
X113572005Y-95130996D01*
X113619937Y-95214019D01*
X113619938Y-95214020D01*
X113619939Y-95214021D01*
X113708521Y-95288350D01*
X113708522Y-95288350D01*
X113708523Y-95288351D01*
X113817182Y-95327900D01*
X113932817Y-95327900D01*
X113932818Y-95327900D01*
X114041479Y-95288350D01*
X114130061Y-95214021D01*
X114187878Y-95113878D01*
X114196464Y-95065183D01*
X114229584Y-94994156D01*
X114293782Y-94949205D01*
X114371854Y-94942374D01*
X114375101Y-94942983D01*
X114382252Y-94944405D01*
X114382253Y-94944406D01*
X114471643Y-94962187D01*
X114561033Y-94944406D01*
X114636815Y-94893771D01*
X114687450Y-94817989D01*
X114687450Y-94817986D01*
X114695733Y-94805591D01*
X114697021Y-94806451D01*
X114713006Y-94785620D01*
X114705622Y-94767788D01*
X114706421Y-94743511D01*
X114705231Y-94743511D01*
X114705231Y-94728599D01*
X114697922Y-94691853D01*
X114687450Y-94639209D01*
X114685499Y-94636290D01*
X114682132Y-94626371D01*
X114681745Y-94625436D01*
X114681806Y-94625410D01*
X114660308Y-94562083D01*
X114675596Y-94485219D01*
X114714066Y-94436199D01*
X114726077Y-94426121D01*
X114779910Y-94332880D01*
X114786228Y-94297045D01*
X114819347Y-94226018D01*
X114883543Y-94181066D01*
X114961615Y-94174234D01*
X115021332Y-94202078D01*
X115022429Y-94200437D01*
X115034827Y-94208721D01*
X115034828Y-94208722D01*
X115110610Y-94259357D01*
X115112129Y-94259659D01*
X115116282Y-94261706D01*
X115124389Y-94265065D01*
X115124169Y-94265595D01*
X115182419Y-94294318D01*
X115225963Y-94359478D01*
X115234000Y-94408151D01*
X115234000Y-94534908D01*
X115213716Y-94610608D01*
X115158300Y-94666024D01*
X115134569Y-94674956D01*
X115134957Y-94675893D01*
X115121182Y-94681598D01*
X115050839Y-94728599D01*
X115045396Y-94732236D01*
X114994761Y-94808018D01*
X114994760Y-94808019D01*
X114986478Y-94820416D01*
X114985189Y-94819555D01*
X114969204Y-94840383D01*
X114976586Y-94858203D01*
X114975792Y-94882496D01*
X114976980Y-94882496D01*
X114976980Y-94897407D01*
X114989865Y-94962187D01*
X114994761Y-94986798D01*
X115045396Y-95062580D01*
X115121178Y-95113215D01*
X115121179Y-95113215D01*
X115121182Y-95113217D01*
X115134957Y-95118923D01*
X115133667Y-95122035D01*
X115182411Y-95146066D01*
X115225959Y-95211223D01*
X115234000Y-95259907D01*
X115234000Y-95956533D01*
X115213716Y-96032233D01*
X115158300Y-96087649D01*
X115082600Y-96107933D01*
X115030817Y-96098802D01*
X114928539Y-96061575D01*
X114928538Y-96061575D01*
X114812902Y-96061575D01*
X114812901Y-96061575D01*
X114704243Y-96101123D01*
X114615657Y-96175455D01*
X114557841Y-96275599D01*
X114537762Y-96389475D01*
X114557541Y-96501650D01*
X114557842Y-96503353D01*
X114584672Y-96549826D01*
X114615657Y-96603494D01*
X114615658Y-96603495D01*
X114615659Y-96603496D01*
X114704241Y-96677825D01*
X114704242Y-96677825D01*
X114704243Y-96677826D01*
X114812898Y-96717374D01*
X114812900Y-96717374D01*
X114812902Y-96717375D01*
X114812904Y-96717375D01*
X114819314Y-96718505D01*
X114890343Y-96751624D01*
X114935297Y-96815819D01*
X114942130Y-96893891D01*
X114909011Y-96964920D01*
X114900086Y-96974661D01*
X114812008Y-97062740D01*
X114812007Y-97062741D01*
X114758278Y-97116469D01*
X114754682Y-97125152D01*
X114729200Y-97186671D01*
X114729200Y-99644149D01*
X114729200Y-99720133D01*
X114752811Y-99777135D01*
X114758278Y-99790334D01*
X114759856Y-99791912D01*
X114763184Y-99797677D01*
X114766562Y-99802732D01*
X114766230Y-99802953D01*
X114799041Y-99859783D01*
X114804200Y-99898968D01*
X114804200Y-102964484D01*
X114783916Y-103040184D01*
X114759856Y-103071540D01*
X114509056Y-103322340D01*
X114441185Y-103361525D01*
X114362815Y-103361525D01*
X114294944Y-103322340D01*
X114255759Y-103254469D01*
X114250600Y-103215284D01*
X114250600Y-101649965D01*
X114250600Y-101649964D01*
X114221522Y-101579763D01*
X114167793Y-101526034D01*
X114159166Y-101517407D01*
X114159159Y-101517401D01*
X113319644Y-100677885D01*
X113280459Y-100610014D01*
X113275300Y-100570829D01*
X113275300Y-100230783D01*
X113275300Y-100230782D01*
X113246222Y-100160581D01*
X113192493Y-100106852D01*
X113183866Y-100098225D01*
X113183859Y-100098219D01*
X112540144Y-99454503D01*
X112500959Y-99386632D01*
X112495800Y-99347447D01*
X112495800Y-98700000D01*
X113714990Y-98700000D01*
X113733685Y-98806028D01*
X113733685Y-98806029D01*
X113733686Y-98806030D01*
X113787519Y-98899271D01*
X113869995Y-98968477D01*
X113971167Y-99005300D01*
X113971169Y-99005300D01*
X114078831Y-99005300D01*
X114078833Y-99005300D01*
X114180005Y-98968477D01*
X114262481Y-98899271D01*
X114316314Y-98806030D01*
X114335010Y-98700000D01*
X114316314Y-98593970D01*
X114262481Y-98500729D01*
X114221432Y-98466285D01*
X114180006Y-98431524D01*
X114180005Y-98431523D01*
X114078833Y-98394700D01*
X113971167Y-98394700D01*
X113869995Y-98431523D01*
X113869994Y-98431523D01*
X113869993Y-98431524D01*
X113787520Y-98500727D01*
X113733685Y-98593971D01*
X113714990Y-98699999D01*
X113714990Y-98700000D01*
X112495800Y-98700000D01*
X112495800Y-98516010D01*
X112516084Y-98440310D01*
X112571500Y-98384894D01*
X112647200Y-98364610D01*
X112698982Y-98373741D01*
X112719917Y-98381361D01*
X112737881Y-98387900D01*
X112737882Y-98387900D01*
X112853517Y-98387900D01*
X112853518Y-98387900D01*
X112962179Y-98348350D01*
X113050761Y-98274021D01*
X113108578Y-98173878D01*
X113128658Y-98060000D01*
X113108578Y-97946122D01*
X113065768Y-97871972D01*
X113050762Y-97845980D01*
X113000869Y-97804115D01*
X112962179Y-97771650D01*
X112962177Y-97771649D01*
X112962176Y-97771648D01*
X112853519Y-97732100D01*
X112853518Y-97732100D01*
X112737882Y-97732100D01*
X112737880Y-97732100D01*
X112698982Y-97746258D01*
X112620910Y-97753089D01*
X112549882Y-97719968D01*
X112504931Y-97655771D01*
X112495800Y-97603989D01*
X112495800Y-95878740D01*
X113646412Y-95878740D01*
X113664193Y-95968130D01*
X113714828Y-96043912D01*
X113790610Y-96094547D01*
X113880000Y-96112328D01*
X113969390Y-96094547D01*
X114045172Y-96043912D01*
X114095807Y-95968130D01*
X114113588Y-95878740D01*
X114095807Y-95789350D01*
X114045172Y-95713568D01*
X113969390Y-95662933D01*
X113969387Y-95662932D01*
X113880000Y-95645152D01*
X113790612Y-95662932D01*
X113790610Y-95662932D01*
X113790610Y-95662933D01*
X113714828Y-95713568D01*
X113664192Y-95789352D01*
X113646412Y-95878740D01*
X112495800Y-95878740D01*
X112495800Y-89172879D01*
X112516084Y-89097179D01*
X112540144Y-89065823D01*
X112858997Y-88746970D01*
X113238222Y-88367745D01*
X113267300Y-88297544D01*
X113267300Y-88221560D01*
X113267300Y-87523826D01*
X113287584Y-87448126D01*
X113343000Y-87392710D01*
X113418700Y-87372426D01*
X113494400Y-87392710D01*
X113549814Y-87448124D01*
X113561631Y-87468591D01*
X113561632Y-87468592D01*
X113572528Y-87477735D01*
X113644107Y-87537797D01*
X113745279Y-87574620D01*
X113745281Y-87574620D01*
X113852943Y-87574620D01*
X113852945Y-87574620D01*
X113954117Y-87537797D01*
X114036593Y-87468591D01*
X114056501Y-87434108D01*
X114111914Y-87378694D01*
X114187614Y-87358409D01*
X114263314Y-87378692D01*
G37*
G04 #@! TD.AperFunction*
G04 #@! TA.AperFunction,Conductor*
G36*
X115643100Y-98189884D02*
G01*
X115693284Y-98236887D01*
X115738128Y-98304002D01*
X115813910Y-98354637D01*
X115841435Y-98360112D01*
X115911724Y-98394773D01*
X115955265Y-98459935D01*
X115963300Y-98508603D01*
X115963300Y-102451962D01*
X115943016Y-102527662D01*
X115918956Y-102559018D01*
X115749456Y-102728518D01*
X115681585Y-102767703D01*
X115603215Y-102767703D01*
X115535344Y-102728518D01*
X115496159Y-102660647D01*
X115491000Y-102621462D01*
X115491000Y-99592898D01*
X115466639Y-99534085D01*
X115461922Y-99522696D01*
X115460344Y-99521118D01*
X115457015Y-99515352D01*
X115453638Y-99510298D01*
X115453969Y-99510076D01*
X115421159Y-99453247D01*
X115416000Y-99414062D01*
X115416000Y-98321000D01*
X115436284Y-98245300D01*
X115491700Y-98189884D01*
X115567400Y-98169600D01*
X115643100Y-98189884D01*
G37*
G04 #@! TD.AperFunction*
G04 #@! TA.AperFunction,Conductor*
G36*
X103611880Y-92447347D02*
G01*
X104193156Y-93028623D01*
X104232341Y-93096494D01*
X104237500Y-93135679D01*
X104237500Y-96484690D01*
X104217216Y-96560390D01*
X104161800Y-96615806D01*
X104086100Y-96636090D01*
X104010400Y-96615806D01*
X103970123Y-96582011D01*
X103965064Y-96575982D01*
X103965061Y-96575979D01*
X103876479Y-96501650D01*
X103876477Y-96501649D01*
X103876476Y-96501648D01*
X103767819Y-96462100D01*
X103767818Y-96462100D01*
X103652182Y-96462100D01*
X103652181Y-96462100D01*
X103543523Y-96501648D01*
X103454937Y-96575980D01*
X103397121Y-96676124D01*
X103383809Y-96751624D01*
X103377042Y-96790000D01*
X103397122Y-96903878D01*
X103432364Y-96964920D01*
X103454938Y-97004020D01*
X103470493Y-97017072D01*
X103515445Y-97081268D01*
X103522276Y-97159341D01*
X103499062Y-97217163D01*
X103464192Y-97269350D01*
X103446412Y-97358740D01*
X103457858Y-97416285D01*
X103464193Y-97448130D01*
X103514828Y-97523912D01*
X103590610Y-97574547D01*
X103680000Y-97592328D01*
X103769390Y-97574547D01*
X103845172Y-97523912D01*
X103895807Y-97448130D01*
X103913588Y-97358740D01*
X103895807Y-97269350D01*
X103882492Y-97249422D01*
X103857302Y-97175210D01*
X103872593Y-97098346D01*
X103911058Y-97049334D01*
X103965061Y-97004021D01*
X103965063Y-97004016D01*
X103970120Y-96997991D01*
X104034318Y-96953040D01*
X104112390Y-96946209D01*
X104183418Y-96979329D01*
X104228369Y-97043527D01*
X104237500Y-97095309D01*
X104237500Y-101812782D01*
X104217216Y-101888482D01*
X104161800Y-101943898D01*
X104086100Y-101964182D01*
X104010400Y-101943898D01*
X103979044Y-101919838D01*
X103085344Y-101026138D01*
X103046159Y-100958267D01*
X103041000Y-100919082D01*
X103041000Y-92866827D01*
X103061284Y-92791127D01*
X103085344Y-92759771D01*
X103397768Y-92447347D01*
X103465639Y-92408162D01*
X103544009Y-92408162D01*
X103611880Y-92447347D01*
G37*
G04 #@! TD.AperFunction*
G04 #@! TA.AperFunction,Conductor*
G36*
X107654918Y-87584054D02*
G01*
X107699869Y-87648251D01*
X107709000Y-87700033D01*
X107709000Y-98988173D01*
X107688716Y-99063873D01*
X107664656Y-99095229D01*
X106122756Y-100637129D01*
X106054885Y-100676314D01*
X105976515Y-100676314D01*
X105908644Y-100637129D01*
X105869459Y-100569258D01*
X105864300Y-100530073D01*
X105864300Y-99468527D01*
X105884584Y-99392827D01*
X105908644Y-99361471D01*
X105910313Y-99359802D01*
X105939391Y-99289601D01*
X105939391Y-99213617D01*
X105939391Y-97850000D01*
X106306412Y-97850000D01*
X106321060Y-97923643D01*
X106324193Y-97939390D01*
X106374828Y-98015172D01*
X106450610Y-98065807D01*
X106540000Y-98083588D01*
X106629390Y-98065807D01*
X106705172Y-98015172D01*
X106755807Y-97939390D01*
X106773588Y-97850000D01*
X106755807Y-97760610D01*
X106705172Y-97684828D01*
X106629390Y-97634193D01*
X106629387Y-97634192D01*
X106540000Y-97616412D01*
X106450612Y-97634192D01*
X106450610Y-97634192D01*
X106450610Y-97634193D01*
X106374828Y-97684828D01*
X106329219Y-97753089D01*
X106324192Y-97760612D01*
X106306412Y-97850000D01*
X105939391Y-97850000D01*
X105939391Y-93335399D01*
X105910313Y-93265198D01*
X105856584Y-93211469D01*
X104608644Y-91963529D01*
X104569459Y-91895658D01*
X104564300Y-91856473D01*
X104564300Y-91735179D01*
X104584584Y-91659479D01*
X104640000Y-91604063D01*
X104689417Y-91586078D01*
X104693825Y-91585300D01*
X104693833Y-91585300D01*
X104795005Y-91548477D01*
X104877481Y-91479271D01*
X104931314Y-91386030D01*
X104950010Y-91280000D01*
X104950009Y-91279998D01*
X104950261Y-91278574D01*
X104983381Y-91207546D01*
X104992293Y-91197820D01*
X105636922Y-90553193D01*
X105666000Y-90482992D01*
X105666000Y-90407008D01*
X105666000Y-89300985D01*
X105686284Y-89225285D01*
X105710344Y-89193929D01*
X107261941Y-87642332D01*
X107329812Y-87603147D01*
X107368997Y-87597988D01*
X107395303Y-87597988D01*
X107496475Y-87561165D01*
X107496476Y-87561164D01*
X107505818Y-87557764D01*
X107583890Y-87550933D01*
X107654918Y-87584054D01*
G37*
G04 #@! TD.AperFunction*
G04 #@! TA.AperFunction,Conductor*
G36*
X115062256Y-88746970D02*
G01*
X115101441Y-88814841D01*
X115106600Y-88854026D01*
X115106600Y-90927825D01*
X115106600Y-91003809D01*
X115132326Y-91065917D01*
X115135678Y-91074010D01*
X115614156Y-91552487D01*
X115653341Y-91620358D01*
X115658500Y-91659543D01*
X115658500Y-91862141D01*
X115638216Y-91937841D01*
X115582800Y-91993257D01*
X115507100Y-92013541D01*
X115431400Y-91993257D01*
X115381215Y-91946254D01*
X115340172Y-91884828D01*
X115264390Y-91834193D01*
X115264387Y-91834192D01*
X115175000Y-91816412D01*
X115085612Y-91834192D01*
X115085610Y-91834192D01*
X115085610Y-91834193D01*
X115052265Y-91856473D01*
X115009828Y-91884828D01*
X114959190Y-91960614D01*
X114959190Y-91960615D01*
X114957803Y-91967589D01*
X114923138Y-92037875D01*
X114857973Y-92081413D01*
X114779770Y-92086534D01*
X114709484Y-92051869D01*
X114702258Y-92045101D01*
X114610344Y-91953187D01*
X114571159Y-91885316D01*
X114566000Y-91846131D01*
X114566000Y-89091826D01*
X114586284Y-89016126D01*
X114610344Y-88984770D01*
X114848144Y-88746970D01*
X114916015Y-88707785D01*
X114994385Y-88707785D01*
X115062256Y-88746970D01*
G37*
G04 #@! TD.AperFunction*
G04 #@! TA.AperFunction,Conductor*
G36*
X105608220Y-82972585D02*
G01*
X105647405Y-83040456D01*
X105652564Y-83079641D01*
X105652564Y-84294663D01*
X105652564Y-84370647D01*
X105674935Y-84424655D01*
X105681642Y-84440848D01*
X106078956Y-84838162D01*
X106118141Y-84906033D01*
X106123300Y-84945218D01*
X106123300Y-85754013D01*
X106103016Y-85829713D01*
X106047600Y-85885129D01*
X105971900Y-85905413D01*
X105896200Y-85885129D01*
X105864844Y-85861069D01*
X105831055Y-85827280D01*
X105699747Y-85739543D01*
X105553848Y-85679109D01*
X105398961Y-85648300D01*
X105241039Y-85648300D01*
X105086151Y-85679109D01*
X104940250Y-85739543D01*
X104940248Y-85739545D01*
X104849113Y-85800440D01*
X104774902Y-85825632D01*
X104698038Y-85810343D01*
X104639116Y-85758669D01*
X104613924Y-85684458D01*
X104613600Y-85674556D01*
X104613600Y-83815805D01*
X104633884Y-83740105D01*
X104657944Y-83708749D01*
X105394108Y-82972585D01*
X105461979Y-82933400D01*
X105540349Y-82933400D01*
X105608220Y-82972585D01*
G37*
G04 #@! TD.AperFunction*
M02*
