G04 #@! TF.GenerationSoftware,KiCad,Pcbnew,9.0.5*
G04 #@! TF.CreationDate,2025-10-24T14:39:15-07:00*
G04 #@! TF.ProjectId,iris-128b,69726973-2d31-4323-9862-2e6b69636164,rev?*
G04 #@! TF.SameCoordinates,Original*
G04 #@! TF.FileFunction,Copper,L4,Inr*
G04 #@! TF.FilePolarity,Positive*
%FSLAX46Y46*%
G04 Gerber Fmt 4.6, Leading zero omitted, Abs format (unit mm)*
G04 Created by KiCad (PCBNEW 9.0.5) date 2025-10-24 14:39:15*
%MOMM*%
%LPD*%
G01*
G04 APERTURE LIST*
G04 #@! TA.AperFunction,ComponentPad*
%ADD10C,3.800000*%
G04 #@! TD*
G04 #@! TA.AperFunction,ComponentPad*
%ADD11C,1.000000*%
G04 #@! TD*
G04 #@! TA.AperFunction,ViaPad*
%ADD12C,0.600000*%
G04 #@! TD*
G04 #@! TA.AperFunction,ViaPad*
%ADD13C,0.304800*%
G04 #@! TD*
G04 APERTURE END LIST*
D10*
X96650000Y-82485000D03*
D11*
X102380000Y-90030000D03*
X102334060Y-86647020D03*
D10*
X132650000Y-82485000D03*
D12*
X114575000Y-121225000D03*
X105920000Y-91170000D03*
D13*
X114975000Y-95750000D03*
D12*
X126325000Y-116650000D03*
X113627646Y-108979260D03*
X104479560Y-116644300D03*
X114925000Y-91325000D03*
X114950000Y-108510000D03*
X124960000Y-108530000D03*
D13*
X114042120Y-96500000D03*
D12*
X104575000Y-80425000D03*
X112660000Y-110570000D03*
X103400000Y-93150000D03*
X124000000Y-96500000D03*
X104560000Y-108530000D03*
X104680000Y-115660000D03*
X115740000Y-99090000D03*
X105900000Y-84975000D03*
X105675000Y-103300000D03*
X114575000Y-102050000D03*
X116794300Y-110913030D03*
X127025000Y-94025000D03*
X113020000Y-103420000D03*
X107240000Y-111110000D03*
X124450000Y-85300000D03*
X107362751Y-99079640D03*
X114925000Y-79200000D03*
X115410000Y-110290000D03*
X124375000Y-100500000D03*
D13*
X123800000Y-95600000D03*
X105000000Y-96600000D03*
X114025000Y-98700000D03*
X114488596Y-94226850D03*
X119986629Y-99136631D03*
X119407432Y-110754160D03*
X109550000Y-98900000D03*
X109050000Y-110950000D03*
X109300000Y-99227240D03*
X109500000Y-110950000D03*
X119586414Y-99113586D03*
X119200000Y-111100000D03*
X118878861Y-112090164D03*
X112300000Y-100600000D03*
X120350000Y-100300000D03*
X110150000Y-111000000D03*
X121100000Y-80100000D03*
X107400000Y-85375000D03*
X121600000Y-87150000D03*
X104640000Y-91280000D03*
X121625000Y-85050000D03*
X121010680Y-82209640D03*
X107425000Y-81350000D03*
X121000000Y-84200000D03*
X107341470Y-87292688D03*
X107400000Y-83350000D03*
X120200000Y-80100000D03*
X120159272Y-83292696D03*
X120200000Y-82200000D03*
X119410480Y-81315560D03*
X120200000Y-81330800D03*
X120200420Y-86202520D03*
X120203976Y-87278464D03*
X119405400Y-85341700D03*
X119400000Y-82200000D03*
X119400000Y-87287608D03*
X119400000Y-80100000D03*
X119400000Y-84200000D03*
X119400000Y-86200000D03*
X119383048Y-83298792D03*
X120200000Y-84200000D03*
X120175020Y-85341700D03*
X111400657Y-81314582D03*
X111400000Y-80133500D03*
X112232440Y-81295240D03*
X112200000Y-84200000D03*
X112200000Y-86200000D03*
X111377984Y-83297776D03*
X111400000Y-87261192D03*
X111377171Y-84199999D03*
X111400000Y-86200000D03*
X112200000Y-82200000D03*
X112200000Y-80133500D03*
X112105440Y-87244936D03*
X112167473Y-85341700D03*
X111375000Y-85350000D03*
X112146073Y-83304378D03*
X111400000Y-82200000D03*
X115409980Y-82204560D03*
X117000000Y-82200001D03*
X117033040Y-81285080D03*
X115370864Y-83323176D03*
X114644100Y-82245360D03*
X114701320Y-81295240D03*
X117006624Y-83341464D03*
X116207540Y-82209640D03*
X117000000Y-84200000D03*
X116205000Y-83324192D03*
X117000000Y-80100000D03*
X116270514Y-81295212D03*
X115453160Y-81305400D03*
X116175000Y-80100000D03*
X115450000Y-80100000D03*
X114644100Y-80064114D03*
X109702783Y-87300616D03*
X110600000Y-81315560D03*
X110600000Y-87302848D03*
X109787802Y-83364974D03*
X109800000Y-82200000D03*
X109800000Y-86200000D03*
X110600000Y-85364320D03*
X110686537Y-83313464D03*
X109855000Y-81325720D03*
X109793134Y-85370306D03*
X110600000Y-82200000D03*
X109800000Y-80133500D03*
X110600000Y-86200000D03*
X110600000Y-80133500D03*
X110600000Y-84200000D03*
X109800000Y-84200000D03*
X110012171Y-113812171D03*
X117796604Y-87301297D03*
X118608856Y-84215224D03*
X118625000Y-80100000D03*
X118604151Y-85345851D03*
X117852629Y-85341700D03*
X118600000Y-86200000D03*
X118562500Y-81314672D03*
X118600000Y-82200000D03*
X118645432Y-87293704D03*
X118622064Y-83366356D03*
X117805200Y-86210140D03*
X113000000Y-80100000D03*
X113000000Y-82200000D03*
X113030000Y-81285080D03*
X113800000Y-82200000D03*
X113786920Y-81285080D03*
X114575000Y-86225000D03*
X113800000Y-85341700D03*
X113799112Y-87269320D03*
X113833300Y-83297776D03*
X113004600Y-83329272D03*
X117267200Y-113858300D03*
X113800000Y-86200000D03*
X113000000Y-84200000D03*
X113786800Y-84188260D03*
X113776940Y-80123060D03*
X113052860Y-85341700D03*
X114570256Y-87259160D03*
X115912500Y-88487500D03*
X116997790Y-86197790D03*
X116200000Y-84200000D03*
X116949084Y-87276255D03*
X117028402Y-85348137D03*
X115297600Y-87277448D03*
X115412520Y-86212680D03*
X114635249Y-85364591D03*
X116199920Y-86205060D03*
X115000000Y-88325000D03*
X116238020Y-85346540D03*
X114625000Y-84225384D03*
X115403376Y-84194904D03*
X115388220Y-85363219D03*
X114672501Y-83375085D03*
X116200936Y-87247984D03*
X116615784Y-100765784D03*
G04 #@! TA.AperFunction,Conductor*
G36*
X125391698Y-78305784D02*
G01*
X125447114Y-78361200D01*
X125453936Y-78374490D01*
X126213022Y-80052470D01*
X127736436Y-83420018D01*
X127749893Y-83482909D01*
X127625521Y-121998589D01*
X127604993Y-122074223D01*
X127549398Y-122129460D01*
X127474122Y-122149500D01*
X101726641Y-122149500D01*
X101650941Y-122129216D01*
X101595525Y-122073800D01*
X101575241Y-121998100D01*
X101575241Y-121997905D01*
X101580799Y-117680926D01*
X103943300Y-117680926D01*
X103982600Y-117827597D01*
X104058522Y-117959098D01*
X104058524Y-117959101D01*
X104165898Y-118066475D01*
X104165901Y-118066477D01*
X104297402Y-118142399D01*
X104444074Y-118181700D01*
X104444076Y-118181700D01*
X104595925Y-118181700D01*
X104669261Y-118162049D01*
X104742598Y-118142399D01*
X104874102Y-118066475D01*
X104965577Y-117975000D01*
X108242042Y-117975000D01*
X108258171Y-118066475D01*
X108262122Y-118088878D01*
X108288952Y-118135351D01*
X108319937Y-118189019D01*
X108319938Y-118189020D01*
X108319939Y-118189021D01*
X108408521Y-118263350D01*
X108408522Y-118263350D01*
X108408523Y-118263351D01*
X108517182Y-118302900D01*
X108632817Y-118302900D01*
X108632818Y-118302900D01*
X108741479Y-118263350D01*
X108830061Y-118189021D01*
X108887878Y-118088878D01*
X108907958Y-117975000D01*
X123443712Y-117975000D01*
X123461493Y-118064390D01*
X123512128Y-118140172D01*
X123587910Y-118190807D01*
X123677300Y-118208588D01*
X123766690Y-118190807D01*
X123842472Y-118140172D01*
X123893107Y-118064390D01*
X123910888Y-117975000D01*
X123893107Y-117885610D01*
X123842472Y-117809828D01*
X123766690Y-117759193D01*
X123766687Y-117759192D01*
X123677300Y-117741412D01*
X123587912Y-117759192D01*
X123587910Y-117759192D01*
X123587910Y-117759193D01*
X123585237Y-117760979D01*
X123512128Y-117809828D01*
X123461492Y-117885612D01*
X123446874Y-117959102D01*
X123443712Y-117975000D01*
X108907958Y-117975000D01*
X108887878Y-117861122D01*
X108830061Y-117760979D01*
X108741479Y-117686650D01*
X108741477Y-117686649D01*
X108741476Y-117686648D01*
X108725755Y-117680926D01*
X124793300Y-117680926D01*
X124832600Y-117827597D01*
X124908522Y-117959098D01*
X124908524Y-117959101D01*
X125015898Y-118066475D01*
X125015901Y-118066477D01*
X125147402Y-118142399D01*
X125294074Y-118181700D01*
X125294076Y-118181700D01*
X125445925Y-118181700D01*
X125519261Y-118162049D01*
X125592598Y-118142399D01*
X125724102Y-118066475D01*
X125831475Y-117959102D01*
X125907399Y-117827598D01*
X125925249Y-117760980D01*
X125946700Y-117680926D01*
X125946700Y-117529073D01*
X125907399Y-117382402D01*
X125831477Y-117250901D01*
X125831475Y-117250898D01*
X125724101Y-117143524D01*
X125724098Y-117143522D01*
X125592597Y-117067600D01*
X125445927Y-117028300D01*
X125445924Y-117028300D01*
X125294076Y-117028300D01*
X125294073Y-117028300D01*
X125147402Y-117067600D01*
X125015901Y-117143522D01*
X125015898Y-117143524D01*
X124908524Y-117250898D01*
X124908522Y-117250901D01*
X124832600Y-117382402D01*
X124793300Y-117529073D01*
X124793300Y-117680926D01*
X108725755Y-117680926D01*
X108632819Y-117647100D01*
X108632818Y-117647100D01*
X108517182Y-117647100D01*
X108517181Y-117647100D01*
X108408523Y-117686648D01*
X108319937Y-117760980D01*
X108262121Y-117861124D01*
X108242042Y-117975000D01*
X104965577Y-117975000D01*
X104981475Y-117959102D01*
X105057399Y-117827598D01*
X105075249Y-117760980D01*
X105096700Y-117680926D01*
X105096700Y-117529073D01*
X105057399Y-117382402D01*
X104981477Y-117250901D01*
X104981475Y-117250898D01*
X104874101Y-117143524D01*
X104874098Y-117143522D01*
X104742597Y-117067600D01*
X104595927Y-117028300D01*
X104595924Y-117028300D01*
X104444076Y-117028300D01*
X104444073Y-117028300D01*
X104297402Y-117067600D01*
X104165901Y-117143522D01*
X104165898Y-117143524D01*
X104058524Y-117250898D01*
X104058522Y-117250901D01*
X103982600Y-117382402D01*
X103943300Y-117529073D01*
X103943300Y-117680926D01*
X101580799Y-117680926D01*
X101581639Y-117028300D01*
X101585780Y-113812171D01*
X109702161Y-113812171D01*
X109720856Y-113918199D01*
X109720856Y-113918200D01*
X109720857Y-113918201D01*
X109774690Y-114011442D01*
X109857166Y-114080648D01*
X109958338Y-114117471D01*
X109958340Y-114117471D01*
X110066002Y-114117471D01*
X110066004Y-114117471D01*
X110167176Y-114080648D01*
X110249652Y-114011442D01*
X110303485Y-113918201D01*
X110314047Y-113858300D01*
X116957190Y-113858300D01*
X116975885Y-113964328D01*
X116975885Y-113964329D01*
X116975886Y-113964330D01*
X117029719Y-114057571D01*
X117112195Y-114126777D01*
X117213367Y-114163600D01*
X117213369Y-114163600D01*
X117321032Y-114163600D01*
X117321033Y-114163600D01*
X117422205Y-114126777D01*
X117422205Y-114126776D01*
X117434653Y-114122246D01*
X117435598Y-114124843D01*
X117492547Y-114109581D01*
X117568249Y-114129860D01*
X117576667Y-114135095D01*
X117587910Y-114142607D01*
X117677300Y-114160388D01*
X117766690Y-114142607D01*
X117842472Y-114091972D01*
X117893107Y-114016190D01*
X117910888Y-113926800D01*
X117893107Y-113837410D01*
X117842472Y-113761628D01*
X117766690Y-113710993D01*
X117766687Y-113710992D01*
X117677300Y-113693212D01*
X117677299Y-113693212D01*
X117641855Y-113700262D01*
X117563652Y-113695136D01*
X117517532Y-113664319D01*
X117514828Y-113667543D01*
X117422206Y-113589824D01*
X117422205Y-113589823D01*
X117321033Y-113553000D01*
X117213367Y-113553000D01*
X117112195Y-113589823D01*
X117112194Y-113589823D01*
X117112193Y-113589824D01*
X117029720Y-113659027D01*
X116975885Y-113752271D01*
X116957190Y-113858299D01*
X116957190Y-113858300D01*
X110314047Y-113858300D01*
X110322181Y-113812171D01*
X110303485Y-113706141D01*
X110249652Y-113612900D01*
X110167176Y-113543694D01*
X110066004Y-113506871D01*
X109958338Y-113506871D01*
X109857166Y-113543694D01*
X109857165Y-113543694D01*
X109857164Y-113543695D01*
X109774691Y-113612898D01*
X109720856Y-113706142D01*
X109702161Y-113812170D01*
X109702161Y-113812171D01*
X101585780Y-113812171D01*
X101586439Y-113300000D01*
X108916412Y-113300000D01*
X108934193Y-113389390D01*
X108984828Y-113465172D01*
X109060610Y-113515807D01*
X109150000Y-113533588D01*
X109239390Y-113515807D01*
X109315172Y-113465172D01*
X109365807Y-113389390D01*
X109383588Y-113300000D01*
X109365807Y-113210610D01*
X109315172Y-113134828D01*
X109239390Y-113084193D01*
X109239387Y-113084192D01*
X109150000Y-113066412D01*
X109060612Y-113084192D01*
X109060610Y-113084192D01*
X109060610Y-113084193D01*
X108984828Y-113134828D01*
X108934192Y-113210612D01*
X108916412Y-113300000D01*
X101586439Y-113300000D01*
X101587495Y-112480000D01*
X117096412Y-112480000D01*
X117114193Y-112569390D01*
X117164828Y-112645172D01*
X117240610Y-112695807D01*
X117330000Y-112713588D01*
X117419390Y-112695807D01*
X117495172Y-112645172D01*
X117534115Y-112586887D01*
X117593035Y-112535215D01*
X117669899Y-112519924D01*
X117744111Y-112545114D01*
X117785883Y-112586886D01*
X117824828Y-112645172D01*
X117900610Y-112695807D01*
X117990000Y-112713588D01*
X118079390Y-112695807D01*
X118155172Y-112645172D01*
X118205807Y-112569390D01*
X118223588Y-112480000D01*
X118205807Y-112390610D01*
X118155172Y-112314828D01*
X118079390Y-112264193D01*
X118079387Y-112264192D01*
X117990000Y-112246412D01*
X117900612Y-112264192D01*
X117900610Y-112264192D01*
X117900610Y-112264193D01*
X117862719Y-112289510D01*
X117824826Y-112314829D01*
X117785885Y-112373111D01*
X117726964Y-112424785D01*
X117650100Y-112440075D01*
X117575888Y-112414884D01*
X117534115Y-112373111D01*
X117495173Y-112314829D01*
X117495172Y-112314828D01*
X117419390Y-112264193D01*
X117419387Y-112264192D01*
X117330000Y-112246412D01*
X117240612Y-112264192D01*
X117240610Y-112264192D01*
X117240610Y-112264193D01*
X117164828Y-112314828D01*
X117125886Y-112373111D01*
X117114192Y-112390612D01*
X117096412Y-112480000D01*
X101587495Y-112480000D01*
X101587997Y-112090164D01*
X118568851Y-112090164D01*
X118587546Y-112196192D01*
X118587546Y-112196193D01*
X118587547Y-112196194D01*
X118641380Y-112289435D01*
X118723856Y-112358641D01*
X118825028Y-112395464D01*
X118825030Y-112395464D01*
X118932692Y-112395464D01*
X118932694Y-112395464D01*
X119033866Y-112358641D01*
X119116342Y-112289435D01*
X119170175Y-112196194D01*
X119188871Y-112090164D01*
X119170175Y-111984134D01*
X119116342Y-111890893D01*
X119033866Y-111821687D01*
X118932694Y-111784864D01*
X118825028Y-111784864D01*
X118723856Y-111821687D01*
X118723855Y-111821687D01*
X118723854Y-111821688D01*
X118641381Y-111890891D01*
X118587546Y-111984135D01*
X118568851Y-112090163D01*
X118568851Y-112090164D01*
X101587997Y-112090164D01*
X101589078Y-111250000D01*
X108416412Y-111250000D01*
X108432125Y-111328997D01*
X108434193Y-111339390D01*
X108484828Y-111415172D01*
X108560610Y-111465807D01*
X108650000Y-111483588D01*
X108739390Y-111465807D01*
X108815172Y-111415172D01*
X108865807Y-111339390D01*
X108865807Y-111339387D01*
X108874090Y-111326992D01*
X108877090Y-111328997D01*
X108909629Y-111286590D01*
X108982033Y-111256596D01*
X109001800Y-111255300D01*
X109103832Y-111255300D01*
X109103833Y-111255300D01*
X109205005Y-111218477D01*
X109205005Y-111218476D01*
X109217453Y-111213946D01*
X109218434Y-111216643D01*
X109275000Y-111201487D01*
X109331565Y-111216643D01*
X109332547Y-111213946D01*
X109344994Y-111218476D01*
X109344995Y-111218477D01*
X109446167Y-111255300D01*
X109446168Y-111255300D01*
X109553831Y-111255300D01*
X109553833Y-111255300D01*
X109655005Y-111218477D01*
X109699598Y-111181058D01*
X109770625Y-111147937D01*
X109848697Y-111154767D01*
X109901529Y-111191760D01*
X109902372Y-111190757D01*
X109920574Y-111206030D01*
X109994995Y-111268477D01*
X110096167Y-111305300D01*
X110096169Y-111305300D01*
X110188590Y-111305300D01*
X110264290Y-111325584D01*
X110319706Y-111381000D01*
X110334834Y-111437459D01*
X110337690Y-111436956D01*
X110358685Y-111556028D01*
X110358685Y-111556029D01*
X110358686Y-111556030D01*
X110412519Y-111649271D01*
X110494995Y-111718477D01*
X110596167Y-111755300D01*
X110596169Y-111755300D01*
X110703831Y-111755300D01*
X110703833Y-111755300D01*
X110805005Y-111718477D01*
X110887481Y-111649271D01*
X110941314Y-111556030D01*
X110960010Y-111450000D01*
X110941314Y-111343970D01*
X110887481Y-111250729D01*
X110886612Y-111250000D01*
X110817205Y-111191760D01*
X110805005Y-111181523D01*
X110703833Y-111144700D01*
X110611410Y-111144700D01*
X110535710Y-111124416D01*
X110480294Y-111069000D01*
X110465165Y-111012540D01*
X110462310Y-111013044D01*
X110460010Y-111000000D01*
X117166412Y-111000000D01*
X117183285Y-111084828D01*
X117184193Y-111089390D01*
X117234828Y-111165172D01*
X117310610Y-111215807D01*
X117400000Y-111233588D01*
X117489390Y-111215807D01*
X117565172Y-111165172D01*
X117608718Y-111100000D01*
X118889990Y-111100000D01*
X118908685Y-111206028D01*
X118908685Y-111206029D01*
X118908686Y-111206030D01*
X118962519Y-111299271D01*
X119044995Y-111368477D01*
X119146167Y-111405300D01*
X119146169Y-111405300D01*
X119253831Y-111405300D01*
X119253833Y-111405300D01*
X119355005Y-111368477D01*
X119437481Y-111299271D01*
X119451494Y-111275000D01*
X120614990Y-111275000D01*
X120633685Y-111381028D01*
X120633685Y-111381029D01*
X120633686Y-111381030D01*
X120682632Y-111465807D01*
X120687520Y-111474272D01*
X120715011Y-111497339D01*
X120769995Y-111543477D01*
X120871167Y-111580300D01*
X120871169Y-111580300D01*
X120978831Y-111580300D01*
X120978833Y-111580300D01*
X121080005Y-111543477D01*
X121162481Y-111474271D01*
X121216314Y-111381030D01*
X121235010Y-111275000D01*
X121233859Y-111268475D01*
X121224573Y-111215807D01*
X121216314Y-111168970D01*
X121162481Y-111075729D01*
X121080005Y-111006523D01*
X120978833Y-110969700D01*
X120871167Y-110969700D01*
X120769995Y-111006523D01*
X120769994Y-111006523D01*
X120769993Y-111006524D01*
X120687520Y-111075727D01*
X120633685Y-111168971D01*
X120614990Y-111274999D01*
X120614990Y-111275000D01*
X119451494Y-111275000D01*
X119491314Y-111206030D01*
X119507347Y-111115100D01*
X119540467Y-111044073D01*
X119559129Y-111025411D01*
X119562433Y-111022638D01*
X119562437Y-111022637D01*
X119644913Y-110953431D01*
X119698746Y-110860190D01*
X119717442Y-110754160D01*
X119717187Y-110752716D01*
X119698746Y-110648131D01*
X119698746Y-110648130D01*
X119644913Y-110554889D01*
X119644840Y-110554828D01*
X119562438Y-110485684D01*
X119562437Y-110485683D01*
X119461265Y-110448860D01*
X119353599Y-110448860D01*
X119252427Y-110485683D01*
X119252426Y-110485683D01*
X119252425Y-110485684D01*
X119169952Y-110554887D01*
X119116117Y-110648130D01*
X119100084Y-110739059D01*
X119066962Y-110810086D01*
X119048304Y-110828745D01*
X118965436Y-110898281D01*
X118962519Y-110900729D01*
X118944547Y-110931858D01*
X118908685Y-110993971D01*
X118889990Y-111099999D01*
X118889990Y-111100000D01*
X117608718Y-111100000D01*
X117615807Y-111089390D01*
X117626114Y-111037572D01*
X117660776Y-110967285D01*
X117725938Y-110923744D01*
X117804141Y-110918618D01*
X117836109Y-110931858D01*
X117836837Y-110930102D01*
X117850607Y-110935805D01*
X117850610Y-110935807D01*
X117940000Y-110953588D01*
X118029390Y-110935807D01*
X118105172Y-110885172D01*
X118155807Y-110809390D01*
X118173588Y-110720000D01*
X118155807Y-110630610D01*
X118105172Y-110554828D01*
X118029390Y-110504193D01*
X118029387Y-110504192D01*
X117940000Y-110486412D01*
X117850612Y-110504192D01*
X117850610Y-110504192D01*
X117850610Y-110504193D01*
X117774828Y-110554828D01*
X117724192Y-110630611D01*
X117713885Y-110682429D01*
X117679221Y-110752716D01*
X117614058Y-110796256D01*
X117535855Y-110801381D01*
X117503890Y-110788141D01*
X117503163Y-110789898D01*
X117489390Y-110784193D01*
X117400000Y-110766412D01*
X117310612Y-110784192D01*
X117310610Y-110784192D01*
X117310610Y-110784193D01*
X117234828Y-110834828D01*
X117195312Y-110893970D01*
X117184192Y-110910612D01*
X117166412Y-111000000D01*
X110460010Y-111000000D01*
X110442506Y-110900729D01*
X110441314Y-110893970D01*
X110387481Y-110800729D01*
X110382150Y-110796256D01*
X110327891Y-110750727D01*
X110305005Y-110731523D01*
X110203833Y-110694700D01*
X110096167Y-110694700D01*
X109994995Y-110731523D01*
X109994994Y-110731523D01*
X109994993Y-110731524D01*
X109950400Y-110768942D01*
X109879371Y-110802062D01*
X109801299Y-110795231D01*
X109748470Y-110758238D01*
X109747628Y-110759243D01*
X109657192Y-110683358D01*
X109655005Y-110681523D01*
X109553833Y-110644700D01*
X109446167Y-110644700D01*
X109344995Y-110681523D01*
X109344992Y-110681524D01*
X109332549Y-110686054D01*
X109331567Y-110683357D01*
X109274989Y-110698513D01*
X109218432Y-110683358D01*
X109217451Y-110686054D01*
X109205007Y-110681524D01*
X109205005Y-110681523D01*
X109103833Y-110644700D01*
X108996167Y-110644700D01*
X108894995Y-110681523D01*
X108894994Y-110681523D01*
X108894993Y-110681524D01*
X108812520Y-110750727D01*
X108758685Y-110843970D01*
X108749109Y-110898281D01*
X108715987Y-110969308D01*
X108651789Y-111014259D01*
X108629547Y-111020480D01*
X108560611Y-111034192D01*
X108560610Y-111034193D01*
X108484828Y-111084828D01*
X108434773Y-111159743D01*
X108434192Y-111160612D01*
X108416412Y-111250000D01*
X101589078Y-111250000D01*
X101590707Y-109985000D01*
X116126412Y-109985000D01*
X116144193Y-110074390D01*
X116194828Y-110150172D01*
X116270610Y-110200807D01*
X116360000Y-110218588D01*
X116449390Y-110200807D01*
X116525172Y-110150172D01*
X116575807Y-110074390D01*
X116586626Y-110020000D01*
X124746412Y-110020000D01*
X124764193Y-110109390D01*
X124814828Y-110185172D01*
X124890610Y-110235807D01*
X124980000Y-110253588D01*
X125069390Y-110235807D01*
X125145172Y-110185172D01*
X125195807Y-110109390D01*
X125213588Y-110020000D01*
X125195807Y-109930610D01*
X125145172Y-109854828D01*
X125069390Y-109804193D01*
X125069387Y-109804192D01*
X124980000Y-109786412D01*
X124890612Y-109804192D01*
X124890610Y-109804192D01*
X124890610Y-109804193D01*
X124814828Y-109854828D01*
X124787578Y-109895612D01*
X124764192Y-109930612D01*
X124761170Y-109945807D01*
X124746412Y-110020000D01*
X116586626Y-110020000D01*
X116593588Y-109985000D01*
X116575807Y-109895610D01*
X116525172Y-109819828D01*
X116449390Y-109769193D01*
X116449387Y-109769192D01*
X116360000Y-109751412D01*
X116270612Y-109769192D01*
X116270610Y-109769192D01*
X116270610Y-109769193D01*
X116194828Y-109819828D01*
X116144487Y-109895171D01*
X116144192Y-109895612D01*
X116134208Y-109945807D01*
X116126412Y-109985000D01*
X101590707Y-109985000D01*
X101591035Y-109730000D01*
X105966412Y-109730000D01*
X105984193Y-109819390D01*
X106034828Y-109895172D01*
X106110610Y-109945807D01*
X106200000Y-109963588D01*
X106289390Y-109945807D01*
X106365172Y-109895172D01*
X106415807Y-109819390D01*
X106433588Y-109730000D01*
X106415807Y-109640610D01*
X106365172Y-109564828D01*
X106289390Y-109514193D01*
X106289387Y-109514192D01*
X106200000Y-109496412D01*
X106110612Y-109514192D01*
X106110610Y-109514192D01*
X106110610Y-109514193D01*
X106034828Y-109564828D01*
X105984192Y-109640612D01*
X105966412Y-109730000D01*
X101591035Y-109730000D01*
X101593271Y-107992955D01*
X113452742Y-107992955D01*
X113462692Y-108049387D01*
X113472822Y-108106833D01*
X113483410Y-108125172D01*
X113530637Y-108206974D01*
X113530638Y-108206975D01*
X113530639Y-108206976D01*
X113619221Y-108281305D01*
X113619222Y-108281305D01*
X113619223Y-108281306D01*
X113727882Y-108320855D01*
X113843517Y-108320855D01*
X113843518Y-108320855D01*
X113952179Y-108281305D01*
X114040761Y-108206976D01*
X114098578Y-108106833D01*
X114118658Y-107992955D01*
X114112847Y-107960000D01*
X123616412Y-107960000D01*
X123634193Y-108049390D01*
X123684828Y-108125172D01*
X123760610Y-108175807D01*
X123850000Y-108193588D01*
X123939390Y-108175807D01*
X124015172Y-108125172D01*
X124065807Y-108049390D01*
X124083588Y-107960000D01*
X124065807Y-107870610D01*
X124015172Y-107794828D01*
X123939390Y-107744193D01*
X123939387Y-107744192D01*
X123850000Y-107726412D01*
X123760612Y-107744192D01*
X123760610Y-107744192D01*
X123760610Y-107744193D01*
X123708614Y-107778935D01*
X123684828Y-107794828D01*
X123634192Y-107870612D01*
X123632508Y-107879079D01*
X123616412Y-107960000D01*
X114112847Y-107960000D01*
X114098578Y-107879077D01*
X114040761Y-107778934D01*
X113952179Y-107704605D01*
X113952177Y-107704604D01*
X113952176Y-107704603D01*
X113843519Y-107665055D01*
X113843518Y-107665055D01*
X113727882Y-107665055D01*
X113727881Y-107665055D01*
X113619223Y-107704603D01*
X113530637Y-107778935D01*
X113472821Y-107879079D01*
X113452742Y-107992955D01*
X101593271Y-107992955D01*
X101594614Y-106950000D01*
X104641412Y-106950000D01*
X104652428Y-107005383D01*
X104659193Y-107039390D01*
X104709828Y-107115172D01*
X104785610Y-107165807D01*
X104875000Y-107183588D01*
X104964390Y-107165807D01*
X105040172Y-107115172D01*
X105090807Y-107039390D01*
X105108588Y-106950000D01*
X105090807Y-106860610D01*
X105040172Y-106784828D01*
X104964390Y-106734193D01*
X104964387Y-106734192D01*
X104875000Y-106716412D01*
X104785612Y-106734192D01*
X104785610Y-106734192D01*
X104785610Y-106734193D01*
X104709828Y-106784828D01*
X104662827Y-106855172D01*
X104659192Y-106860612D01*
X104641412Y-106950000D01*
X101594614Y-106950000D01*
X101594949Y-106690000D01*
X113291412Y-106690000D01*
X113309192Y-106779389D01*
X113347793Y-106837161D01*
X113372983Y-106911373D01*
X113357692Y-106988237D01*
X113347793Y-107005383D01*
X113310892Y-107060610D01*
X113293112Y-107150000D01*
X113310893Y-107239390D01*
X113361528Y-107315172D01*
X113437310Y-107365807D01*
X113526700Y-107383588D01*
X113616090Y-107365807D01*
X113691872Y-107315172D01*
X113742507Y-107239390D01*
X113760288Y-107150000D01*
X113742507Y-107060610D01*
X113703905Y-107002837D01*
X113678716Y-106928627D01*
X113694006Y-106851763D01*
X113703899Y-106834626D01*
X113740807Y-106779390D01*
X113758588Y-106690000D01*
X113740807Y-106600610D01*
X113690172Y-106524828D01*
X113614390Y-106474193D01*
X113614389Y-106474192D01*
X113614388Y-106474192D01*
X113569237Y-106465211D01*
X113518326Y-106440103D01*
X113483559Y-106463334D01*
X113464431Y-106468460D01*
X113435611Y-106474192D01*
X113359828Y-106524828D01*
X113309192Y-106600612D01*
X113291412Y-106690000D01*
X101594949Y-106690000D01*
X101595906Y-105946690D01*
X113275082Y-105946690D01*
X113291531Y-106029387D01*
X113292863Y-106036080D01*
X113343498Y-106111862D01*
X113419280Y-106162497D01*
X113464430Y-106171478D01*
X113515343Y-106196585D01*
X113550112Y-106173354D01*
X113569222Y-106168233D01*
X113598060Y-106162497D01*
X113673842Y-106111862D01*
X113724477Y-106036080D01*
X113742258Y-105946690D01*
X113724477Y-105857300D01*
X113724477Y-105857299D01*
X113673364Y-105780802D01*
X113648173Y-105706590D01*
X113663463Y-105629726D01*
X113673364Y-105612578D01*
X113724477Y-105536080D01*
X113724477Y-105536079D01*
X113727675Y-105520000D01*
X123536412Y-105520000D01*
X123539610Y-105536080D01*
X123554193Y-105609390D01*
X123588580Y-105660854D01*
X123613770Y-105735066D01*
X123598480Y-105811930D01*
X123588581Y-105829076D01*
X123574192Y-105850610D01*
X123556412Y-105940000D01*
X123570530Y-106010979D01*
X123574193Y-106029390D01*
X123624828Y-106105172D01*
X123700610Y-106155807D01*
X123790000Y-106173588D01*
X123792016Y-106173588D01*
X123797822Y-106175143D01*
X123804625Y-106176497D01*
X123804536Y-106176942D01*
X123867716Y-106193872D01*
X123923132Y-106249288D01*
X123940507Y-106295451D01*
X123941412Y-106300000D01*
X123959193Y-106389390D01*
X124009828Y-106465172D01*
X124085610Y-106515807D01*
X124175000Y-106533588D01*
X124264390Y-106515807D01*
X124340172Y-106465172D01*
X124390807Y-106389390D01*
X124408588Y-106300000D01*
X124393669Y-106225000D01*
X124738042Y-106225000D01*
X124751266Y-106300000D01*
X124758122Y-106338878D01*
X124784952Y-106385351D01*
X124815937Y-106439019D01*
X124815938Y-106439020D01*
X124815939Y-106439021D01*
X124904521Y-106513350D01*
X124904522Y-106513350D01*
X124904523Y-106513351D01*
X125013182Y-106552900D01*
X125128817Y-106552900D01*
X125128818Y-106552900D01*
X125237479Y-106513350D01*
X125326061Y-106439021D01*
X125383878Y-106338878D01*
X125403958Y-106225000D01*
X125383878Y-106111122D01*
X125340551Y-106036077D01*
X125326062Y-106010980D01*
X125326061Y-106010979D01*
X125237479Y-105936650D01*
X125237477Y-105936649D01*
X125237476Y-105936648D01*
X125128819Y-105897100D01*
X125128818Y-105897100D01*
X125013182Y-105897100D01*
X125013181Y-105897100D01*
X124904523Y-105936648D01*
X124815937Y-106010980D01*
X124758121Y-106111124D01*
X124738042Y-106225000D01*
X124393669Y-106225000D01*
X124390807Y-106210610D01*
X124340172Y-106134828D01*
X124264390Y-106084193D01*
X124264387Y-106084192D01*
X124175000Y-106066412D01*
X124172984Y-106066412D01*
X124167177Y-106064856D01*
X124160375Y-106063503D01*
X124160463Y-106063057D01*
X124097284Y-106046128D01*
X124041868Y-105990712D01*
X124024493Y-105944549D01*
X124005807Y-105850610D01*
X123971420Y-105799145D01*
X123946229Y-105724934D01*
X123961519Y-105648069D01*
X123971414Y-105630930D01*
X123985807Y-105609390D01*
X124003588Y-105520000D01*
X123985807Y-105430610D01*
X123935172Y-105354828D01*
X123935170Y-105354827D01*
X123935170Y-105354826D01*
X123925962Y-105345618D01*
X123886777Y-105277747D01*
X123886777Y-105199377D01*
X123925962Y-105131506D01*
X123941998Y-105118345D01*
X123945168Y-105115174D01*
X123945172Y-105115172D01*
X123995807Y-105039390D01*
X124013588Y-104950000D01*
X123995807Y-104860610D01*
X123949693Y-104791594D01*
X123939693Y-104776627D01*
X123914503Y-104702416D01*
X123929793Y-104625551D01*
X123939688Y-104608412D01*
X123985807Y-104539390D01*
X124003588Y-104450000D01*
X123985807Y-104360610D01*
X123946374Y-104301593D01*
X123921184Y-104227384D01*
X123936474Y-104150520D01*
X123946368Y-104133381D01*
X123995807Y-104059390D01*
X124013588Y-103970000D01*
X123995807Y-103880610D01*
X123945172Y-103804828D01*
X123869390Y-103754193D01*
X123869387Y-103754192D01*
X123780000Y-103736412D01*
X123690612Y-103754192D01*
X123690610Y-103754192D01*
X123690610Y-103754193D01*
X123684489Y-103758283D01*
X123614828Y-103804828D01*
X123564192Y-103880612D01*
X123546412Y-103970000D01*
X123564192Y-104059389D01*
X123603624Y-104118404D01*
X123628815Y-104192615D01*
X123613525Y-104269480D01*
X123603625Y-104286627D01*
X123554192Y-104360610D01*
X123536412Y-104450000D01*
X123554192Y-104539389D01*
X123610306Y-104623372D01*
X123635496Y-104697584D01*
X123620205Y-104774448D01*
X123610306Y-104791594D01*
X123564192Y-104860610D01*
X123546412Y-104950000D01*
X123563534Y-105036080D01*
X123564193Y-105039390D01*
X123614828Y-105115172D01*
X123614829Y-105115173D01*
X123624037Y-105124381D01*
X123663222Y-105192252D01*
X123663222Y-105270622D01*
X123624037Y-105338493D01*
X123608007Y-105351648D01*
X123604829Y-105354826D01*
X123554192Y-105430612D01*
X123536412Y-105520000D01*
X113727675Y-105520000D01*
X113742258Y-105446690D01*
X113727426Y-105372130D01*
X113724477Y-105357299D01*
X113673364Y-105280802D01*
X113648173Y-105206590D01*
X113650815Y-105193306D01*
X114053912Y-105193306D01*
X114071458Y-105281518D01*
X114071693Y-105282696D01*
X114122328Y-105358478D01*
X114198110Y-105409113D01*
X114287500Y-105426894D01*
X114376890Y-105409113D01*
X114452672Y-105358478D01*
X114503307Y-105282696D01*
X114521088Y-105193306D01*
X114503307Y-105103916D01*
X114452672Y-105028134D01*
X114376890Y-104977499D01*
X114376887Y-104977498D01*
X114287500Y-104959718D01*
X114198112Y-104977498D01*
X114198110Y-104977498D01*
X114198110Y-104977499D01*
X114122328Y-105028134D01*
X114071692Y-105103918D01*
X114053912Y-105193306D01*
X113650815Y-105193306D01*
X113663463Y-105129726D01*
X113673364Y-105112578D01*
X113724477Y-105036080D01*
X113724477Y-105036079D01*
X113742258Y-104946690D01*
X113727426Y-104872130D01*
X113724477Y-104857299D01*
X113673364Y-104780802D01*
X113648173Y-104706590D01*
X113663463Y-104629726D01*
X113673364Y-104612578D01*
X113724477Y-104536080D01*
X113724477Y-104536079D01*
X113742258Y-104446690D01*
X113724477Y-104357300D01*
X113682515Y-104294499D01*
X113657326Y-104220292D01*
X113672616Y-104143427D01*
X113682509Y-104126289D01*
X113724477Y-104063480D01*
X113742258Y-103974090D01*
X113724477Y-103884700D01*
X113673842Y-103808918D01*
X113598060Y-103758283D01*
X113598057Y-103758282D01*
X113508670Y-103740502D01*
X113419282Y-103758282D01*
X113419280Y-103758282D01*
X113419280Y-103758283D01*
X113343498Y-103808918D01*
X113295595Y-103880612D01*
X113292862Y-103884702D01*
X113275896Y-103970000D01*
X113275082Y-103974090D01*
X113292863Y-104063480D01*
X113334822Y-104126277D01*
X113334823Y-104126278D01*
X113360013Y-104200490D01*
X113344723Y-104277354D01*
X113334823Y-104294502D01*
X113292862Y-104357302D01*
X113275082Y-104446690D01*
X113292862Y-104536079D01*
X113343976Y-104612579D01*
X113369166Y-104686791D01*
X113353875Y-104763655D01*
X113343976Y-104780801D01*
X113292862Y-104857300D01*
X113275082Y-104946690D01*
X113292862Y-105036079D01*
X113343976Y-105112579D01*
X113369166Y-105186791D01*
X113353875Y-105263655D01*
X113343976Y-105280801D01*
X113292862Y-105357300D01*
X113275082Y-105446690D01*
X113292862Y-105536079D01*
X113343976Y-105612579D01*
X113369166Y-105686791D01*
X113353875Y-105763655D01*
X113343976Y-105780801D01*
X113292862Y-105857300D01*
X113275082Y-105946690D01*
X101595906Y-105946690D01*
X101599474Y-103175000D01*
X112026386Y-103175000D01*
X112037447Y-103230610D01*
X112044167Y-103264390D01*
X112094802Y-103340172D01*
X112170584Y-103390807D01*
X112259974Y-103408588D01*
X112349364Y-103390807D01*
X112425146Y-103340172D01*
X112438624Y-103320000D01*
X115896412Y-103320000D01*
X115910496Y-103390807D01*
X115914193Y-103409390D01*
X115964828Y-103485172D01*
X116040610Y-103535807D01*
X116130000Y-103553588D01*
X116219390Y-103535807D01*
X116295172Y-103485172D01*
X116345807Y-103409390D01*
X116363588Y-103320000D01*
X116345807Y-103230610D01*
X116295172Y-103154828D01*
X116219390Y-103104193D01*
X116219387Y-103104192D01*
X116130000Y-103086412D01*
X116040612Y-103104192D01*
X116040610Y-103104192D01*
X116040610Y-103104193D01*
X115964828Y-103154828D01*
X115957917Y-103165172D01*
X115914192Y-103230612D01*
X115896412Y-103320000D01*
X112438624Y-103320000D01*
X112475781Y-103264390D01*
X112493562Y-103175000D01*
X112475781Y-103085610D01*
X112425146Y-103009828D01*
X112410437Y-103000000D01*
X124491412Y-103000000D01*
X124508600Y-103086412D01*
X124509193Y-103089390D01*
X124559828Y-103165172D01*
X124635610Y-103215807D01*
X124725000Y-103233588D01*
X124814390Y-103215807D01*
X124890172Y-103165172D01*
X124940807Y-103089390D01*
X124958588Y-103000000D01*
X124940807Y-102910610D01*
X124890172Y-102834828D01*
X124814390Y-102784193D01*
X124814387Y-102784192D01*
X124725000Y-102766412D01*
X124635612Y-102784192D01*
X124635610Y-102784192D01*
X124635610Y-102784193D01*
X124559828Y-102834828D01*
X124509192Y-102910612D01*
X124491412Y-103000000D01*
X112410437Y-103000000D01*
X112349364Y-102959193D01*
X112349361Y-102959192D01*
X112259974Y-102941412D01*
X112170586Y-102959192D01*
X112170584Y-102959192D01*
X112170584Y-102959193D01*
X112109511Y-103000000D01*
X112094802Y-103009828D01*
X112044166Y-103085612D01*
X112026386Y-103175000D01*
X101599474Y-103175000D01*
X101601051Y-101950000D01*
X105706412Y-101950000D01*
X105722446Y-102030610D01*
X105724193Y-102039390D01*
X105774828Y-102115172D01*
X105850610Y-102165807D01*
X105940000Y-102183588D01*
X106029390Y-102165807D01*
X106105172Y-102115172D01*
X106155807Y-102039390D01*
X106173588Y-101950000D01*
X106155807Y-101860610D01*
X106105172Y-101784828D01*
X106029390Y-101734193D01*
X106029387Y-101734192D01*
X105940000Y-101716412D01*
X105850612Y-101734192D01*
X105850610Y-101734192D01*
X105850610Y-101734193D01*
X105774828Y-101784828D01*
X105727827Y-101855172D01*
X105724192Y-101860612D01*
X105706412Y-101950000D01*
X101601051Y-101950000D01*
X101601386Y-101690000D01*
X106476412Y-101690000D01*
X106494189Y-101779373D01*
X106494193Y-101779390D01*
X106544828Y-101855172D01*
X106620610Y-101905807D01*
X106710000Y-101923588D01*
X106799390Y-101905807D01*
X106875172Y-101855172D01*
X106902456Y-101814336D01*
X106961374Y-101762665D01*
X107038238Y-101747374D01*
X107112450Y-101772563D01*
X107154225Y-101814337D01*
X107173533Y-101843235D01*
X107174828Y-101845172D01*
X107250610Y-101895807D01*
X107340000Y-101913588D01*
X107429390Y-101895807D01*
X107505172Y-101845172D01*
X107549137Y-101779371D01*
X107608057Y-101727699D01*
X107684921Y-101712408D01*
X107759133Y-101737598D01*
X107800907Y-101779372D01*
X107824826Y-101815170D01*
X107824827Y-101815170D01*
X107824828Y-101815172D01*
X107900610Y-101865807D01*
X107990000Y-101883588D01*
X108079390Y-101865807D01*
X108155172Y-101815172D01*
X108205807Y-101739390D01*
X108205807Y-101739387D01*
X108209597Y-101733716D01*
X108268518Y-101682042D01*
X108293578Y-101677056D01*
X108375741Y-101677056D01*
X108419594Y-101691941D01*
X108471268Y-101750862D01*
X108483974Y-101788289D01*
X108484192Y-101789388D01*
X108484192Y-101789389D01*
X108484193Y-101789390D01*
X108534828Y-101865172D01*
X108610610Y-101915807D01*
X108700000Y-101933588D01*
X108789390Y-101915807D01*
X108865172Y-101865172D01*
X108865174Y-101865168D01*
X108868274Y-101862069D01*
X108936143Y-101822881D01*
X109014514Y-101822878D01*
X109059446Y-101843235D01*
X109069827Y-101850171D01*
X109069828Y-101850172D01*
X109145610Y-101900807D01*
X109235000Y-101918588D01*
X109324390Y-101900807D01*
X109400172Y-101850172D01*
X109419956Y-101820562D01*
X109478873Y-101768891D01*
X109555737Y-101753599D01*
X109629950Y-101778788D01*
X109671725Y-101820562D01*
X109684826Y-101840170D01*
X109684828Y-101840172D01*
X109760610Y-101890807D01*
X109850000Y-101908588D01*
X109939390Y-101890807D01*
X110015172Y-101840172D01*
X110044114Y-101796855D01*
X110103035Y-101745181D01*
X110179900Y-101729891D01*
X110254111Y-101755081D01*
X110295885Y-101796855D01*
X110324828Y-101840172D01*
X110400610Y-101890807D01*
X110490000Y-101908588D01*
X110579390Y-101890807D01*
X110655172Y-101840172D01*
X110673263Y-101813096D01*
X110732180Y-101761424D01*
X110809045Y-101746133D01*
X110883257Y-101771322D01*
X110925032Y-101813096D01*
X110959827Y-101865171D01*
X110959828Y-101865172D01*
X111035610Y-101915807D01*
X111125000Y-101933588D01*
X111214390Y-101915807D01*
X111290172Y-101865172D01*
X111324116Y-101814370D01*
X111383036Y-101762698D01*
X111459900Y-101747408D01*
X111534112Y-101772598D01*
X111575883Y-101814369D01*
X111609828Y-101865172D01*
X111685610Y-101915807D01*
X111775000Y-101933588D01*
X111864390Y-101915807D01*
X111940172Y-101865172D01*
X111944909Y-101858082D01*
X112003825Y-101806409D01*
X112080689Y-101791116D01*
X112154902Y-101816303D01*
X112196680Y-101858079D01*
X112234173Y-101914192D01*
X112234828Y-101915172D01*
X112310610Y-101965807D01*
X112400000Y-101983588D01*
X112489390Y-101965807D01*
X112565172Y-101915172D01*
X112565172Y-101915170D01*
X112577571Y-101906887D01*
X112578202Y-101907832D01*
X112632602Y-101876422D01*
X112701330Y-101874170D01*
X112712652Y-101876422D01*
X112791485Y-101892103D01*
X112791485Y-101892102D01*
X112794815Y-101892765D01*
X112865104Y-101927427D01*
X112908644Y-101992590D01*
X112913770Y-102011719D01*
X112933319Y-102110000D01*
X112934193Y-102114390D01*
X112984828Y-102190172D01*
X113060610Y-102240807D01*
X113150000Y-102258588D01*
X113239390Y-102240807D01*
X113315172Y-102190172D01*
X113365807Y-102114390D01*
X113383588Y-102025000D01*
X113365807Y-101935610D01*
X113315172Y-101859828D01*
X113239390Y-101809193D01*
X113239387Y-101809192D01*
X113146668Y-101790749D01*
X113104594Y-101770000D01*
X116446412Y-101770000D01*
X116463353Y-101855171D01*
X116464193Y-101859390D01*
X116514828Y-101935172D01*
X116590610Y-101985807D01*
X116680000Y-102003588D01*
X116682739Y-102003043D01*
X116691061Y-102003588D01*
X116694912Y-102003588D01*
X116694912Y-102003840D01*
X116760941Y-102008164D01*
X116826106Y-102051701D01*
X116860771Y-102121988D01*
X116860772Y-102121994D01*
X116871692Y-102176888D01*
X116922327Y-102252670D01*
X116998109Y-102303305D01*
X117087499Y-102321086D01*
X117176889Y-102303305D01*
X117187798Y-102296015D01*
X117262005Y-102270824D01*
X117338869Y-102286112D01*
X117356022Y-102296015D01*
X117400609Y-102325807D01*
X117415440Y-102328756D01*
X117490000Y-102343588D01*
X117579390Y-102325807D01*
X117647569Y-102280251D01*
X117721780Y-102255061D01*
X117798644Y-102270351D01*
X117822199Y-102287230D01*
X117822429Y-102286887D01*
X117834827Y-102295171D01*
X117834828Y-102295172D01*
X117910610Y-102345807D01*
X118000000Y-102363588D01*
X118089390Y-102345807D01*
X118150888Y-102304715D01*
X118225099Y-102279525D01*
X118301963Y-102294815D01*
X118319110Y-102304715D01*
X118380610Y-102345807D01*
X118470000Y-102363588D01*
X118559390Y-102345807D01*
X118633373Y-102296373D01*
X118707582Y-102271184D01*
X118784446Y-102286474D01*
X118801587Y-102296369D01*
X118860610Y-102335807D01*
X118950000Y-102353588D01*
X119039390Y-102335807D01*
X119112605Y-102286887D01*
X119120888Y-102281353D01*
X119195099Y-102256162D01*
X119271964Y-102271452D01*
X119289112Y-102281353D01*
X119348578Y-102321086D01*
X119370610Y-102335807D01*
X119460000Y-102353588D01*
X119549390Y-102335807D01*
X119595923Y-102304714D01*
X119670131Y-102279525D01*
X119746996Y-102294815D01*
X119764145Y-102304716D01*
X119840609Y-102355807D01*
X119855440Y-102358756D01*
X119930000Y-102373588D01*
X120019390Y-102355807D01*
X120085889Y-102311374D01*
X120160099Y-102286184D01*
X120236963Y-102301474D01*
X120254102Y-102311369D01*
X120320610Y-102355807D01*
X120410000Y-102373588D01*
X120499390Y-102355807D01*
X120575172Y-102305172D01*
X120625807Y-102229390D01*
X120643588Y-102140000D01*
X120639610Y-102120000D01*
X120996412Y-102120000D01*
X121012203Y-102199390D01*
X121014193Y-102209390D01*
X121064828Y-102285172D01*
X121140610Y-102335807D01*
X121230000Y-102353588D01*
X121319390Y-102335807D01*
X121395172Y-102285172D01*
X121395172Y-102285170D01*
X121407571Y-102276887D01*
X121408500Y-102278277D01*
X121461140Y-102247882D01*
X121539511Y-102247878D01*
X121584446Y-102268235D01*
X121594827Y-102275171D01*
X121594828Y-102275172D01*
X121670610Y-102325807D01*
X121760000Y-102343588D01*
X121849390Y-102325807D01*
X121925172Y-102275172D01*
X121964115Y-102216887D01*
X122023035Y-102165215D01*
X122099899Y-102149924D01*
X122174111Y-102175114D01*
X122215883Y-102216886D01*
X122254828Y-102275172D01*
X122330610Y-102325807D01*
X122420000Y-102343588D01*
X122509390Y-102325807D01*
X122585172Y-102275172D01*
X122635807Y-102199390D01*
X122653588Y-102110000D01*
X122635807Y-102020610D01*
X122585172Y-101944828D01*
X122509390Y-101894193D01*
X122509387Y-101894192D01*
X122420000Y-101876412D01*
X122330612Y-101894192D01*
X122330610Y-101894192D01*
X122330610Y-101894193D01*
X122301584Y-101913587D01*
X122254826Y-101944829D01*
X122215885Y-102003111D01*
X122156964Y-102054785D01*
X122080100Y-102070075D01*
X122005888Y-102044884D01*
X121964115Y-102003111D01*
X121925173Y-101944829D01*
X121925172Y-101944828D01*
X121849390Y-101894193D01*
X121849387Y-101894192D01*
X121760000Y-101876412D01*
X121670612Y-101894192D01*
X121670610Y-101894192D01*
X121670610Y-101894193D01*
X121594828Y-101944828D01*
X121594827Y-101944828D01*
X121582429Y-101953113D01*
X121581500Y-101951723D01*
X121528842Y-101982121D01*
X121450471Y-101982117D01*
X121405554Y-101961764D01*
X121319389Y-101904192D01*
X121230000Y-101886412D01*
X121140612Y-101904192D01*
X121140610Y-101904192D01*
X121140610Y-101904193D01*
X121064828Y-101954828D01*
X121017942Y-102025000D01*
X121014192Y-102030612D01*
X120996412Y-102120000D01*
X120639610Y-102120000D01*
X120625807Y-102050610D01*
X120575172Y-101974828D01*
X120499390Y-101924193D01*
X120499387Y-101924192D01*
X120410000Y-101906412D01*
X120320611Y-101924192D01*
X120306549Y-101933588D01*
X120259795Y-101964828D01*
X120254112Y-101968625D01*
X120179900Y-101993815D01*
X120103036Y-101978525D01*
X120085888Y-101968625D01*
X120085770Y-101968546D01*
X120019390Y-101924193D01*
X120019389Y-101924192D01*
X120019388Y-101924192D01*
X119930000Y-101906412D01*
X119840610Y-101924192D01*
X119794077Y-101955284D01*
X119719865Y-101980474D01*
X119643001Y-101965183D01*
X119625854Y-101955284D01*
X119625172Y-101954828D01*
X119549390Y-101904193D01*
X119549387Y-101904192D01*
X119460000Y-101886412D01*
X119370610Y-101904192D01*
X119289111Y-101958647D01*
X119214899Y-101983837D01*
X119138035Y-101968546D01*
X119120889Y-101958647D01*
X119039389Y-101904192D01*
X118950000Y-101886412D01*
X118860610Y-101904192D01*
X118786627Y-101953625D01*
X118712415Y-101978815D01*
X118635551Y-101963524D01*
X118618404Y-101953624D01*
X118559389Y-101914192D01*
X118470000Y-101896412D01*
X118380610Y-101914192D01*
X118319111Y-101955284D01*
X118244900Y-101980474D01*
X118168035Y-101965183D01*
X118150889Y-101955284D01*
X118089389Y-101914192D01*
X118000000Y-101896412D01*
X117910610Y-101914192D01*
X117842429Y-101959748D01*
X117768217Y-101984938D01*
X117691353Y-101969647D01*
X117667800Y-101952769D01*
X117667571Y-101953113D01*
X117655172Y-101944828D01*
X117579390Y-101894193D01*
X117579387Y-101894192D01*
X117490000Y-101876412D01*
X117400610Y-101894192D01*
X117389698Y-101901484D01*
X117315486Y-101926673D01*
X117238622Y-101911382D01*
X117221478Y-101901484D01*
X117176889Y-101871691D01*
X117176888Y-101871690D01*
X117176887Y-101871690D01*
X117087499Y-101853910D01*
X117087495Y-101853910D01*
X117084750Y-101854456D01*
X117076422Y-101853910D01*
X117072587Y-101853910D01*
X117072587Y-101853658D01*
X117006548Y-101849329D01*
X116941386Y-101805788D01*
X116906725Y-101735500D01*
X116906370Y-101733716D01*
X116895807Y-101680610D01*
X116845172Y-101604828D01*
X116769390Y-101554193D01*
X116769387Y-101554192D01*
X116680000Y-101536412D01*
X116590612Y-101554192D01*
X116590610Y-101554192D01*
X116590610Y-101554193D01*
X116514828Y-101604828D01*
X116467942Y-101675000D01*
X116464192Y-101680612D01*
X116446412Y-101770000D01*
X113104594Y-101770000D01*
X113076380Y-101756086D01*
X113032840Y-101690923D01*
X113027714Y-101671794D01*
X113024982Y-101658057D01*
X113007292Y-101569125D01*
X112956657Y-101493343D01*
X112880875Y-101442708D01*
X112880872Y-101442707D01*
X112791485Y-101424927D01*
X112702097Y-101442707D01*
X112702095Y-101442707D01*
X112702095Y-101442708D01*
X112626313Y-101493343D01*
X112626312Y-101493343D01*
X112613914Y-101501628D01*
X112613282Y-101500683D01*
X112558868Y-101532096D01*
X112490154Y-101534344D01*
X112400001Y-101516412D01*
X112400000Y-101516412D01*
X112310612Y-101534192D01*
X112310610Y-101534192D01*
X112310610Y-101534193D01*
X112286013Y-101550628D01*
X112234826Y-101584829D01*
X112230088Y-101591921D01*
X112171166Y-101643594D01*
X112094301Y-101658883D01*
X112020090Y-101633691D01*
X111978319Y-101591919D01*
X111940173Y-101534829D01*
X111940172Y-101534828D01*
X111864390Y-101484193D01*
X111864387Y-101484192D01*
X111775000Y-101466412D01*
X111685612Y-101484192D01*
X111685610Y-101484192D01*
X111685610Y-101484193D01*
X111684660Y-101484828D01*
X111609827Y-101534828D01*
X111575885Y-101585628D01*
X111516963Y-101637301D01*
X111440099Y-101652591D01*
X111365887Y-101627400D01*
X111324115Y-101585628D01*
X111290172Y-101534828D01*
X111275207Y-101524829D01*
X111214390Y-101484193D01*
X111214387Y-101484192D01*
X111125000Y-101466412D01*
X111035612Y-101484192D01*
X111035610Y-101484192D01*
X111035610Y-101484193D01*
X111034660Y-101484828D01*
X110959827Y-101534828D01*
X110941737Y-101561903D01*
X110882815Y-101613577D01*
X110805950Y-101628866D01*
X110731739Y-101603675D01*
X110689967Y-101561903D01*
X110655172Y-101509828D01*
X110579390Y-101459193D01*
X110579387Y-101459192D01*
X110490000Y-101441412D01*
X110400612Y-101459192D01*
X110400610Y-101459192D01*
X110400610Y-101459193D01*
X110393127Y-101464193D01*
X110324826Y-101509829D01*
X110295885Y-101553144D01*
X110236963Y-101604818D01*
X110160099Y-101620108D01*
X110085888Y-101594917D01*
X110044115Y-101553144D01*
X110015173Y-101509829D01*
X110015172Y-101509828D01*
X109939390Y-101459193D01*
X109939387Y-101459192D01*
X109850000Y-101441412D01*
X109760612Y-101459192D01*
X109760610Y-101459192D01*
X109760610Y-101459193D01*
X109753127Y-101464193D01*
X109684827Y-101509828D01*
X109665044Y-101539437D01*
X109606122Y-101591110D01*
X109529257Y-101606400D01*
X109455046Y-101581209D01*
X109413274Y-101539436D01*
X109400173Y-101519829D01*
X109400172Y-101519828D01*
X109324390Y-101469193D01*
X109324387Y-101469192D01*
X109235000Y-101451412D01*
X109145612Y-101469192D01*
X109145610Y-101469192D01*
X109145610Y-101469193D01*
X109138127Y-101474193D01*
X109069824Y-101519830D01*
X109066717Y-101522938D01*
X108998845Y-101562121D01*
X108920474Y-101562118D01*
X108875554Y-101541764D01*
X108789389Y-101484192D01*
X108700000Y-101466412D01*
X108610612Y-101484192D01*
X108610610Y-101484192D01*
X108610610Y-101484193D01*
X108609660Y-101484828D01*
X108534826Y-101534829D01*
X108480401Y-101616284D01*
X108421479Y-101667958D01*
X108375741Y-101677056D01*
X108293578Y-101677056D01*
X108314256Y-101672942D01*
X108270404Y-101658057D01*
X108218730Y-101599135D01*
X108206024Y-101561702D01*
X108205807Y-101560611D01*
X108205807Y-101560610D01*
X108155172Y-101484828D01*
X108079390Y-101434193D01*
X108079387Y-101434192D01*
X107990000Y-101416412D01*
X107900612Y-101434192D01*
X107900610Y-101434192D01*
X107900610Y-101434193D01*
X107889806Y-101441412D01*
X107824827Y-101484828D01*
X107780862Y-101550628D01*
X107721940Y-101602301D01*
X107645075Y-101617591D01*
X107570864Y-101592400D01*
X107529092Y-101550628D01*
X107505172Y-101514828D01*
X107429390Y-101464193D01*
X107429387Y-101464192D01*
X107340000Y-101446412D01*
X107250612Y-101464192D01*
X107250610Y-101464192D01*
X107250610Y-101464193D01*
X107243127Y-101469193D01*
X107174827Y-101514828D01*
X107147544Y-101555662D01*
X107088622Y-101607335D01*
X107011758Y-101622625D01*
X106937546Y-101597434D01*
X106895774Y-101555661D01*
X106875173Y-101524829D01*
X106872343Y-101522938D01*
X106799390Y-101474193D01*
X106799387Y-101474192D01*
X106710000Y-101456412D01*
X106620612Y-101474192D01*
X106620610Y-101474192D01*
X106620610Y-101474193D01*
X106544828Y-101524828D01*
X106499050Y-101593342D01*
X106494192Y-101600612D01*
X106476412Y-101690000D01*
X101601386Y-101690000D01*
X101602789Y-100600000D01*
X111989990Y-100600000D01*
X112008685Y-100706028D01*
X112008685Y-100706029D01*
X112008686Y-100706030D01*
X112062519Y-100799271D01*
X112144995Y-100868477D01*
X112246167Y-100905300D01*
X112246169Y-100905300D01*
X112353831Y-100905300D01*
X112353833Y-100905300D01*
X112455005Y-100868477D01*
X112537481Y-100799271D01*
X112556815Y-100765784D01*
X116382196Y-100765784D01*
X116399977Y-100855174D01*
X116450612Y-100930956D01*
X116526394Y-100981591D01*
X116615784Y-100999372D01*
X116705174Y-100981591D01*
X116780956Y-100930956D01*
X116831591Y-100855174D01*
X116831591Y-100855171D01*
X116839874Y-100842776D01*
X116843564Y-100845241D01*
X116874158Y-100805344D01*
X116921657Y-100785649D01*
X117024410Y-100785649D01*
X117086447Y-100833219D01*
X117108264Y-100881347D01*
X117108941Y-100881067D01*
X117114646Y-100894841D01*
X117114648Y-100894845D01*
X117114649Y-100894846D01*
X117165284Y-100970628D01*
X117241066Y-101021263D01*
X117330456Y-101039044D01*
X117419846Y-101021263D01*
X117495628Y-100970628D01*
X117495628Y-100970626D01*
X117508027Y-100962343D01*
X117510519Y-100966074D01*
X117553870Y-100941017D01*
X117632240Y-100940977D01*
X117677241Y-100961352D01*
X117682957Y-100965171D01*
X117682958Y-100965172D01*
X117758740Y-101015807D01*
X117848130Y-101033588D01*
X117937520Y-101015807D01*
X117971245Y-100993272D01*
X118045453Y-100968082D01*
X118122318Y-100983371D01*
X118139464Y-100993270D01*
X118210610Y-101040807D01*
X118300000Y-101058588D01*
X118389390Y-101040807D01*
X118465172Y-100990172D01*
X118515807Y-100914390D01*
X118533588Y-100825000D01*
X118515807Y-100735610D01*
X118465172Y-100659828D01*
X118389390Y-100609193D01*
X118389387Y-100609192D01*
X118300000Y-100591412D01*
X118210610Y-100609192D01*
X118176884Y-100631727D01*
X118102672Y-100656917D01*
X118025808Y-100641626D01*
X118008662Y-100631727D01*
X117937519Y-100584192D01*
X117848130Y-100566412D01*
X117758742Y-100584192D01*
X117758740Y-100584192D01*
X117758740Y-100584193D01*
X117682958Y-100634828D01*
X117682957Y-100634828D01*
X117670559Y-100643113D01*
X117668071Y-100639390D01*
X117624567Y-100664478D01*
X117546197Y-100664438D01*
X117501345Y-100644103D01*
X117419845Y-100589648D01*
X117330456Y-100571868D01*
X117241068Y-100589648D01*
X117241066Y-100589648D01*
X117241066Y-100589649D01*
X117165284Y-100640284D01*
X117114649Y-100716066D01*
X117114648Y-100716067D01*
X117106366Y-100728464D01*
X117102682Y-100726002D01*
X117071982Y-100765972D01*
X117024410Y-100785649D01*
X116921657Y-100785649D01*
X116921785Y-100785596D01*
X116859715Y-100737921D01*
X116837969Y-100689895D01*
X116837299Y-100690173D01*
X116831593Y-100676398D01*
X116831591Y-100676395D01*
X116831591Y-100676394D01*
X116780956Y-100600612D01*
X116705174Y-100549977D01*
X116705171Y-100549976D01*
X116615784Y-100532196D01*
X116526396Y-100549976D01*
X116526394Y-100549976D01*
X116526394Y-100549977D01*
X116450612Y-100600612D01*
X116424105Y-100640284D01*
X116399976Y-100676396D01*
X116387738Y-100737921D01*
X116382196Y-100765784D01*
X112556815Y-100765784D01*
X112591314Y-100706030D01*
X112610010Y-100600000D01*
X112591314Y-100493970D01*
X112537481Y-100400729D01*
X112455005Y-100331523D01*
X112368395Y-100300000D01*
X120039990Y-100300000D01*
X120058685Y-100406028D01*
X120058685Y-100406029D01*
X120058686Y-100406030D01*
X120112519Y-100499271D01*
X120194995Y-100568477D01*
X120296167Y-100605300D01*
X120296169Y-100605300D01*
X120403831Y-100605300D01*
X120403833Y-100605300D01*
X120505005Y-100568477D01*
X120587481Y-100499271D01*
X120641314Y-100406030D01*
X120660010Y-100300000D01*
X120659075Y-100294700D01*
X120641314Y-100193971D01*
X120641314Y-100193970D01*
X120587481Y-100100729D01*
X120505005Y-100031523D01*
X120403833Y-99994700D01*
X120296167Y-99994700D01*
X120194995Y-100031523D01*
X120194994Y-100031523D01*
X120194993Y-100031524D01*
X120112520Y-100100727D01*
X120058685Y-100193971D01*
X120039990Y-100299999D01*
X120039990Y-100300000D01*
X112368395Y-100300000D01*
X112353833Y-100294700D01*
X112246167Y-100294700D01*
X112144995Y-100331523D01*
X112144994Y-100331523D01*
X112144993Y-100331524D01*
X112062520Y-100400727D01*
X112008685Y-100493971D01*
X111989990Y-100599999D01*
X111989990Y-100600000D01*
X101602789Y-100600000D01*
X101604557Y-99227240D01*
X108989990Y-99227240D01*
X109008685Y-99333268D01*
X109008685Y-99333269D01*
X109008686Y-99333270D01*
X109062519Y-99426511D01*
X109144995Y-99495717D01*
X109246167Y-99532540D01*
X109246169Y-99532540D01*
X109353831Y-99532540D01*
X109353833Y-99532540D01*
X109455005Y-99495717D01*
X109537481Y-99426511D01*
X109591314Y-99333270D01*
X109599388Y-99287476D01*
X109632507Y-99216450D01*
X109696700Y-99171499D01*
X109705005Y-99168477D01*
X109770421Y-99113586D01*
X119276404Y-99113586D01*
X119295099Y-99219614D01*
X119295099Y-99219615D01*
X119295100Y-99219616D01*
X119348933Y-99312857D01*
X119431409Y-99382063D01*
X119532581Y-99418886D01*
X119532583Y-99418886D01*
X119640247Y-99418886D01*
X119701253Y-99396681D01*
X119779324Y-99389851D01*
X119832035Y-99414429D01*
X119833523Y-99411853D01*
X119844991Y-99418474D01*
X119844995Y-99418477D01*
X119946167Y-99455300D01*
X119946169Y-99455300D01*
X120053831Y-99455300D01*
X120053833Y-99455300D01*
X120155005Y-99418477D01*
X120237481Y-99349271D01*
X120291314Y-99256030D01*
X120310010Y-99150000D01*
X120291314Y-99043970D01*
X120237481Y-98950729D01*
X120155005Y-98881523D01*
X120053833Y-98844700D01*
X119946167Y-98844700D01*
X119946165Y-98844700D01*
X119885159Y-98866904D01*
X119807087Y-98873734D01*
X119754382Y-98849156D01*
X119752895Y-98851734D01*
X119741424Y-98845112D01*
X119741421Y-98845111D01*
X119741419Y-98845109D01*
X119640247Y-98808286D01*
X119532581Y-98808286D01*
X119431409Y-98845109D01*
X119431408Y-98845109D01*
X119431407Y-98845110D01*
X119348934Y-98914313D01*
X119295099Y-99007557D01*
X119276404Y-99113585D01*
X119276404Y-99113586D01*
X109770421Y-99113586D01*
X109787481Y-99099271D01*
X109841314Y-99006030D01*
X109860010Y-98900000D01*
X109859881Y-98899271D01*
X109843838Y-98808286D01*
X109841314Y-98793970D01*
X109787481Y-98700729D01*
X109786612Y-98700000D01*
X113714990Y-98700000D01*
X113733685Y-98806028D01*
X113733685Y-98806029D01*
X113733686Y-98806030D01*
X113777272Y-98881523D01*
X113787520Y-98899272D01*
X113788388Y-98900000D01*
X113869995Y-98968477D01*
X113971167Y-99005300D01*
X113971169Y-99005300D01*
X114078831Y-99005300D01*
X114078833Y-99005300D01*
X114180005Y-98968477D01*
X114262481Y-98899271D01*
X114316314Y-98806030D01*
X114335010Y-98700000D01*
X114316314Y-98593970D01*
X114262481Y-98500729D01*
X114180005Y-98431523D01*
X114078833Y-98394700D01*
X113971167Y-98394700D01*
X113869995Y-98431523D01*
X113869994Y-98431523D01*
X113869993Y-98431524D01*
X113787520Y-98500727D01*
X113733685Y-98593971D01*
X113714990Y-98699999D01*
X113714990Y-98700000D01*
X109786612Y-98700000D01*
X109705006Y-98631524D01*
X109705005Y-98631523D01*
X109603833Y-98594700D01*
X109496167Y-98594700D01*
X109394995Y-98631523D01*
X109394994Y-98631523D01*
X109394993Y-98631524D01*
X109312520Y-98700727D01*
X109258685Y-98793971D01*
X109250611Y-98839764D01*
X109217490Y-98910792D01*
X109153295Y-98955741D01*
X109144999Y-98958760D01*
X109144992Y-98958764D01*
X109062521Y-99027966D01*
X109062520Y-99027967D01*
X109008685Y-99121211D01*
X108989990Y-99227239D01*
X108989990Y-99227240D01*
X101604557Y-99227240D01*
X101605275Y-98669604D01*
X105035750Y-98669604D01*
X105051311Y-98747837D01*
X105053531Y-98758994D01*
X105104166Y-98834776D01*
X105179948Y-98885411D01*
X105205557Y-98890505D01*
X105275845Y-98925167D01*
X105319385Y-98990330D01*
X105324511Y-99009458D01*
X105334192Y-99058128D01*
X105334192Y-99058129D01*
X105334193Y-99058130D01*
X105384828Y-99133912D01*
X105460610Y-99184547D01*
X105550000Y-99202328D01*
X105639390Y-99184547D01*
X105715172Y-99133912D01*
X105765807Y-99058130D01*
X105783588Y-98968740D01*
X105765807Y-98879350D01*
X105715172Y-98803568D01*
X105639390Y-98752933D01*
X105639388Y-98752932D01*
X105639386Y-98752931D01*
X105613778Y-98747837D01*
X105543490Y-98713174D01*
X105499951Y-98648010D01*
X105494826Y-98628883D01*
X105485145Y-98580216D01*
X105485145Y-98580214D01*
X105434510Y-98504432D01*
X105358728Y-98453797D01*
X105358725Y-98453796D01*
X105269338Y-98436016D01*
X105179950Y-98453796D01*
X105179948Y-98453796D01*
X105179948Y-98453797D01*
X105109711Y-98500727D01*
X105104166Y-98504432D01*
X105053530Y-98580216D01*
X105035750Y-98669604D01*
X101605275Y-98669604D01*
X101606330Y-97850000D01*
X106306412Y-97850000D01*
X106324193Y-97939390D01*
X106374828Y-98015172D01*
X106450610Y-98065807D01*
X106540000Y-98083588D01*
X106629390Y-98065807D01*
X106638081Y-98060000D01*
X112462742Y-98060000D01*
X112482822Y-98173878D01*
X112509652Y-98220351D01*
X112540637Y-98274019D01*
X112540638Y-98274020D01*
X112540639Y-98274021D01*
X112629221Y-98348350D01*
X112629222Y-98348350D01*
X112629223Y-98348351D01*
X112737882Y-98387900D01*
X112853517Y-98387900D01*
X112853518Y-98387900D01*
X112962179Y-98348350D01*
X113050761Y-98274021D01*
X113108578Y-98173878D01*
X113114758Y-98138830D01*
X115669712Y-98138830D01*
X115676683Y-98173878D01*
X115687493Y-98228220D01*
X115738128Y-98304002D01*
X115813910Y-98354637D01*
X115903300Y-98372418D01*
X115992690Y-98354637D01*
X116068472Y-98304002D01*
X116119107Y-98228220D01*
X116136888Y-98138830D01*
X116119107Y-98049440D01*
X116068472Y-97973658D01*
X115992690Y-97923023D01*
X115992687Y-97923022D01*
X115903300Y-97905242D01*
X115813912Y-97923022D01*
X115813910Y-97923022D01*
X115813910Y-97923023D01*
X115738128Y-97973658D01*
X115710391Y-98015171D01*
X115687492Y-98049442D01*
X115669712Y-98138830D01*
X113114758Y-98138830D01*
X113128658Y-98060000D01*
X113108578Y-97946122D01*
X113050761Y-97845979D01*
X112962179Y-97771650D01*
X112962177Y-97771649D01*
X112962176Y-97771648D01*
X112853519Y-97732100D01*
X112853518Y-97732100D01*
X112737882Y-97732100D01*
X112737881Y-97732100D01*
X112629223Y-97771648D01*
X112540637Y-97845980D01*
X112482821Y-97946124D01*
X112470646Y-98015172D01*
X112462742Y-98060000D01*
X106638081Y-98060000D01*
X106705172Y-98015172D01*
X106755807Y-97939390D01*
X106773588Y-97850000D01*
X106755807Y-97760610D01*
X106705172Y-97684828D01*
X106629390Y-97634193D01*
X106629387Y-97634192D01*
X106540000Y-97616412D01*
X106450612Y-97634192D01*
X106450610Y-97634192D01*
X106450610Y-97634193D01*
X106374828Y-97684828D01*
X106343243Y-97732100D01*
X106324192Y-97760612D01*
X106307212Y-97845979D01*
X106306412Y-97850000D01*
X101606330Y-97850000D01*
X101607695Y-96790000D01*
X103377042Y-96790000D01*
X103397122Y-96903878D01*
X103433775Y-96967363D01*
X103454938Y-97004020D01*
X103470493Y-97017072D01*
X103515445Y-97081268D01*
X103522276Y-97159341D01*
X103499062Y-97217163D01*
X103464192Y-97269350D01*
X103446412Y-97358740D01*
X103464193Y-97448130D01*
X103514828Y-97523912D01*
X103590610Y-97574547D01*
X103680000Y-97592328D01*
X103769390Y-97574547D01*
X103845172Y-97523912D01*
X103895807Y-97448130D01*
X103913588Y-97358740D01*
X103895807Y-97269350D01*
X103882492Y-97249422D01*
X103857302Y-97175210D01*
X103872593Y-97098346D01*
X103911058Y-97049334D01*
X103965061Y-97004021D01*
X104022878Y-96903878D01*
X104042958Y-96790000D01*
X104022878Y-96676122D01*
X103965061Y-96575979D01*
X103876479Y-96501650D01*
X103876477Y-96501649D01*
X103876476Y-96501648D01*
X103767819Y-96462100D01*
X103767818Y-96462100D01*
X103652182Y-96462100D01*
X103652181Y-96462100D01*
X103543523Y-96501648D01*
X103454937Y-96575980D01*
X103397121Y-96676124D01*
X103377042Y-96790000D01*
X101607695Y-96790000D01*
X101608211Y-96389475D01*
X114537762Y-96389475D01*
X114557541Y-96501650D01*
X114557842Y-96503353D01*
X114584672Y-96549826D01*
X114615657Y-96603494D01*
X114615658Y-96603495D01*
X114615659Y-96603496D01*
X114704241Y-96677825D01*
X114704242Y-96677825D01*
X114704243Y-96677826D01*
X114812902Y-96717375D01*
X114928537Y-96717375D01*
X114928538Y-96717375D01*
X115037199Y-96677825D01*
X115125781Y-96603496D01*
X115183598Y-96503353D01*
X115203678Y-96389475D01*
X115183598Y-96275597D01*
X115125781Y-96175454D01*
X115037199Y-96101125D01*
X115037197Y-96101124D01*
X115037196Y-96101123D01*
X114928539Y-96061575D01*
X114928538Y-96061575D01*
X114812902Y-96061575D01*
X114812901Y-96061575D01*
X114704243Y-96101123D01*
X114615657Y-96175455D01*
X114557841Y-96275599D01*
X114537762Y-96389475D01*
X101608211Y-96389475D01*
X101608868Y-95878740D01*
X113646412Y-95878740D01*
X113664193Y-95968130D01*
X113714828Y-96043912D01*
X113790610Y-96094547D01*
X113880000Y-96112328D01*
X113969390Y-96094547D01*
X114045172Y-96043912D01*
X114095807Y-95968130D01*
X114113588Y-95878740D01*
X114095807Y-95789350D01*
X114045172Y-95713568D01*
X113969390Y-95662933D01*
X113969387Y-95662932D01*
X113880000Y-95645152D01*
X113790612Y-95662932D01*
X113790610Y-95662932D01*
X113790610Y-95662933D01*
X113714828Y-95713568D01*
X113664192Y-95789352D01*
X113646412Y-95878740D01*
X101608868Y-95878740D01*
X101610000Y-95000000D01*
X113542042Y-95000000D01*
X113553076Y-95062580D01*
X113562122Y-95113878D01*
X113572005Y-95130996D01*
X113619937Y-95214019D01*
X113619938Y-95214020D01*
X113619939Y-95214021D01*
X113708521Y-95288350D01*
X113708522Y-95288350D01*
X113708523Y-95288351D01*
X113817182Y-95327900D01*
X113932817Y-95327900D01*
X113932818Y-95327900D01*
X114041479Y-95288350D01*
X114130061Y-95214021D01*
X114187878Y-95113878D01*
X114196464Y-95065183D01*
X114229584Y-94994156D01*
X114293782Y-94949205D01*
X114371854Y-94942374D01*
X114375101Y-94942983D01*
X114382252Y-94944405D01*
X114382253Y-94944406D01*
X114471643Y-94962187D01*
X114561033Y-94944406D01*
X114636815Y-94893771D01*
X114672487Y-94840383D01*
X114969204Y-94840383D01*
X114976586Y-94858203D01*
X114975792Y-94882496D01*
X114976980Y-94882496D01*
X114976980Y-94897407D01*
X114989865Y-94962187D01*
X114994761Y-94986798D01*
X115045396Y-95062580D01*
X115121178Y-95113215D01*
X115210568Y-95130996D01*
X115299958Y-95113215D01*
X115375740Y-95062580D01*
X115388455Y-95043550D01*
X123565612Y-95043550D01*
X123578012Y-95113876D01*
X123585692Y-95157428D01*
X123612522Y-95203901D01*
X123643507Y-95257569D01*
X123643508Y-95257570D01*
X123643509Y-95257571D01*
X123732091Y-95331900D01*
X123732092Y-95331900D01*
X123732093Y-95331901D01*
X123840752Y-95371450D01*
X123956387Y-95371450D01*
X123956388Y-95371450D01*
X124065049Y-95331900D01*
X124153631Y-95257571D01*
X124211448Y-95157428D01*
X124231528Y-95043550D01*
X124211448Y-94929672D01*
X124193547Y-94898667D01*
X124173264Y-94822969D01*
X124193548Y-94747269D01*
X124248964Y-94691853D01*
X124324664Y-94671569D01*
X124354200Y-94674478D01*
X124399999Y-94683588D01*
X124400000Y-94683588D01*
X124489390Y-94665807D01*
X124565172Y-94615172D01*
X124615807Y-94539390D01*
X124633588Y-94450000D01*
X124615807Y-94360610D01*
X124565172Y-94284828D01*
X124489390Y-94234193D01*
X124489387Y-94234192D01*
X124400000Y-94216412D01*
X124310609Y-94234193D01*
X124310607Y-94234193D01*
X124309356Y-94235030D01*
X124305110Y-94236470D01*
X124296837Y-94239898D01*
X124296612Y-94239354D01*
X124235143Y-94260216D01*
X124158280Y-94244922D01*
X124099361Y-94193245D01*
X124074175Y-94119032D01*
X124076759Y-94079608D01*
X124083588Y-94045280D01*
X124065807Y-93955890D01*
X124042862Y-93921550D01*
X124019773Y-93886993D01*
X123994583Y-93812782D01*
X124009874Y-93735917D01*
X124019774Y-93718769D01*
X124025330Y-93710453D01*
X124025332Y-93710452D01*
X124075967Y-93634670D01*
X124093748Y-93545280D01*
X124075967Y-93455890D01*
X124025332Y-93380108D01*
X124025331Y-93380107D01*
X124017047Y-93367709D01*
X124020196Y-93365604D01*
X123993809Y-93319899D01*
X123993809Y-93241529D01*
X124014162Y-93196606D01*
X124055547Y-93134670D01*
X124073328Y-93045280D01*
X124055547Y-92955890D01*
X124004912Y-92880108D01*
X124004911Y-92880107D01*
X123996627Y-92867709D01*
X124000417Y-92865176D01*
X123975488Y-92821998D01*
X123975488Y-92743628D01*
X123995844Y-92698701D01*
X124038627Y-92634670D01*
X124049388Y-92580570D01*
X124056408Y-92545280D01*
X124038627Y-92455890D01*
X124038627Y-92455889D01*
X123994324Y-92389584D01*
X123969133Y-92315372D01*
X123984423Y-92238508D01*
X123994324Y-92221360D01*
X124052247Y-92134670D01*
X124052247Y-92134669D01*
X124070028Y-92045280D01*
X124052247Y-91955890D01*
X124052245Y-91955888D01*
X124050765Y-91952313D01*
X124040534Y-91874613D01*
X124067744Y-91808917D01*
X125207495Y-91808917D01*
X125222594Y-91884828D01*
X125225276Y-91898307D01*
X125275911Y-91974089D01*
X125351693Y-92024724D01*
X125441083Y-92042505D01*
X125530473Y-92024724D01*
X125606255Y-91974089D01*
X125656890Y-91898307D01*
X125674671Y-91808917D01*
X125656890Y-91719527D01*
X125606255Y-91643745D01*
X125530473Y-91593110D01*
X125530470Y-91593109D01*
X125441083Y-91575329D01*
X125351695Y-91593109D01*
X125351693Y-91593109D01*
X125351693Y-91593110D01*
X125275911Y-91643745D01*
X125232223Y-91709131D01*
X125225275Y-91719529D01*
X125207495Y-91808917D01*
X124067744Y-91808917D01*
X124070523Y-91802207D01*
X124110106Y-91771831D01*
X124107580Y-91768050D01*
X124119975Y-91759767D01*
X124119978Y-91759767D01*
X124195760Y-91709132D01*
X124246395Y-91633350D01*
X124264176Y-91543960D01*
X124246395Y-91454570D01*
X124195760Y-91378788D01*
X124119978Y-91328153D01*
X124119975Y-91328152D01*
X124030588Y-91310372D01*
X123941200Y-91328152D01*
X123941198Y-91328152D01*
X123941198Y-91328153D01*
X123865416Y-91378788D01*
X123821061Y-91445172D01*
X123814780Y-91454572D01*
X123797000Y-91543960D01*
X123814780Y-91633348D01*
X123816264Y-91636930D01*
X123826493Y-91714630D01*
X123796501Y-91787035D01*
X123756922Y-91817410D01*
X123759448Y-91821190D01*
X123747051Y-91829472D01*
X123747050Y-91829473D01*
X123679492Y-91874613D01*
X123671268Y-91880108D01*
X123620632Y-91955892D01*
X123602852Y-92045280D01*
X123620632Y-92134669D01*
X123664936Y-92200976D01*
X123690126Y-92275187D01*
X123674836Y-92352051D01*
X123664936Y-92369198D01*
X123607012Y-92455890D01*
X123589232Y-92545280D01*
X123606668Y-92632940D01*
X123607013Y-92634670D01*
X123657648Y-92710452D01*
X123665933Y-92722851D01*
X123662142Y-92725383D01*
X123687071Y-92768561D01*
X123687071Y-92846931D01*
X123666717Y-92891856D01*
X123623932Y-92955890D01*
X123606152Y-93045280D01*
X123622882Y-93129390D01*
X123623933Y-93134670D01*
X123674568Y-93210452D01*
X123682853Y-93222851D01*
X123679702Y-93224955D01*
X123706090Y-93270660D01*
X123706090Y-93349030D01*
X123685735Y-93393957D01*
X123644352Y-93455892D01*
X123626572Y-93545280D01*
X123644352Y-93634669D01*
X123690386Y-93703566D01*
X123715576Y-93777778D01*
X123700285Y-93854642D01*
X123690386Y-93871788D01*
X123634192Y-93955890D01*
X123616412Y-94045280D01*
X123633848Y-94132940D01*
X123634193Y-94134670D01*
X123684828Y-94210452D01*
X123760610Y-94261087D01*
X123850000Y-94278868D01*
X123939390Y-94261087D01*
X123940635Y-94260254D01*
X123944869Y-94258817D01*
X123953163Y-94255382D01*
X123953388Y-94255925D01*
X124014843Y-94235063D01*
X124091708Y-94250351D01*
X124150631Y-94302023D01*
X124175824Y-94376234D01*
X124173239Y-94415674D01*
X124166412Y-94449997D01*
X124166412Y-94449999D01*
X124187102Y-94554015D01*
X124182642Y-94554901D01*
X124189162Y-94604358D01*
X124159183Y-94676768D01*
X124097015Y-94724487D01*
X124019317Y-94734729D01*
X123987273Y-94726891D01*
X123956388Y-94715650D01*
X123840752Y-94715650D01*
X123840751Y-94715650D01*
X123732093Y-94755198D01*
X123643507Y-94829530D01*
X123585691Y-94929674D01*
X123565612Y-95043550D01*
X115388455Y-95043550D01*
X115426375Y-94986798D01*
X115444156Y-94897408D01*
X115426375Y-94808018D01*
X115375740Y-94732236D01*
X115299958Y-94681601D01*
X115299955Y-94681600D01*
X115210568Y-94663820D01*
X115121180Y-94681600D01*
X115121178Y-94681600D01*
X115121178Y-94681601D01*
X115045396Y-94732236D01*
X114994761Y-94808018D01*
X114994760Y-94808019D01*
X114986478Y-94820416D01*
X114985189Y-94819555D01*
X114969204Y-94840383D01*
X114672487Y-94840383D01*
X114687450Y-94817989D01*
X114687450Y-94817986D01*
X114695733Y-94805591D01*
X114697021Y-94806451D01*
X114713006Y-94785620D01*
X114705622Y-94767788D01*
X114706421Y-94743511D01*
X114705231Y-94743511D01*
X114705231Y-94728599D01*
X114697922Y-94691853D01*
X114687450Y-94639209D01*
X114685499Y-94636290D01*
X114682132Y-94626371D01*
X114681745Y-94625436D01*
X114681806Y-94625410D01*
X114660308Y-94562083D01*
X114675596Y-94485219D01*
X114714066Y-94436199D01*
X114726077Y-94426121D01*
X114779910Y-94332880D01*
X114786228Y-94297045D01*
X114819347Y-94226018D01*
X114883543Y-94181066D01*
X114961615Y-94174234D01*
X115021332Y-94202078D01*
X115022429Y-94200437D01*
X115034827Y-94208721D01*
X115034828Y-94208722D01*
X115110610Y-94259357D01*
X115200000Y-94277138D01*
X115289390Y-94259357D01*
X115365172Y-94208722D01*
X115415807Y-94132940D01*
X115433588Y-94043550D01*
X115415807Y-93954160D01*
X115365172Y-93878378D01*
X115360784Y-93875446D01*
X115309110Y-93816525D01*
X115293819Y-93739660D01*
X115319009Y-93665449D01*
X115337843Y-93642500D01*
X115340165Y-93640176D01*
X115340172Y-93640172D01*
X115390807Y-93564390D01*
X115408588Y-93475000D01*
X115390807Y-93385610D01*
X115348907Y-93322902D01*
X115323718Y-93248691D01*
X115339008Y-93171827D01*
X115348903Y-93154688D01*
X115365807Y-93129390D01*
X115383588Y-93040000D01*
X115365807Y-92950610D01*
X115337694Y-92908535D01*
X115312504Y-92834326D01*
X115327794Y-92757462D01*
X115356527Y-92717366D01*
X115365165Y-92708726D01*
X115365172Y-92708722D01*
X115415807Y-92632940D01*
X115433588Y-92543550D01*
X115415807Y-92454160D01*
X115365172Y-92378378D01*
X115365171Y-92378377D01*
X115356887Y-92365979D01*
X115359987Y-92363907D01*
X115333487Y-92318007D01*
X115333487Y-92239637D01*
X115353841Y-92194714D01*
X115390807Y-92139390D01*
X115408588Y-92050000D01*
X115390807Y-91960610D01*
X115340172Y-91884828D01*
X115264390Y-91834193D01*
X115264387Y-91834192D01*
X115175000Y-91816412D01*
X115085612Y-91834192D01*
X115085610Y-91834192D01*
X115085610Y-91834193D01*
X115009828Y-91884828D01*
X114962346Y-91955892D01*
X114959192Y-91960612D01*
X114946440Y-92024724D01*
X114941412Y-92050000D01*
X114959193Y-92139390D01*
X115009828Y-92215172D01*
X115018113Y-92227571D01*
X115015012Y-92229642D01*
X115041512Y-92275542D01*
X115041512Y-92353912D01*
X115021157Y-92398839D01*
X114984192Y-92454161D01*
X114966412Y-92543550D01*
X114966412Y-92543552D01*
X114973775Y-92580570D01*
X114968649Y-92658772D01*
X114925108Y-92723934D01*
X114854819Y-92758596D01*
X114795748Y-92758596D01*
X114751105Y-92749716D01*
X114751104Y-92749716D01*
X114661716Y-92767496D01*
X114661714Y-92767496D01*
X114661714Y-92767497D01*
X114585932Y-92818132D01*
X114552807Y-92867709D01*
X114535296Y-92893916D01*
X114517516Y-92983304D01*
X114528793Y-93040000D01*
X114535297Y-93072694D01*
X114585932Y-93148476D01*
X114661714Y-93199111D01*
X114751104Y-93216892D01*
X114751105Y-93216892D01*
X114780473Y-93211050D01*
X114858676Y-93216174D01*
X114923839Y-93259713D01*
X114958502Y-93330001D01*
X114958503Y-93389076D01*
X114941412Y-93474999D01*
X114955391Y-93545280D01*
X114959193Y-93564390D01*
X115009828Y-93640172D01*
X115014215Y-93643103D01*
X115065889Y-93702022D01*
X115081180Y-93778887D01*
X115055991Y-93853099D01*
X115037164Y-93876041D01*
X115034831Y-93878374D01*
X114984190Y-93954164D01*
X114978485Y-93967939D01*
X114977199Y-93967406D01*
X114949840Y-94022885D01*
X114884677Y-94066424D01*
X114806474Y-94071548D01*
X114736186Y-94036885D01*
X114731679Y-94032280D01*
X114726074Y-94027577D01*
X114643601Y-93958373D01*
X114542429Y-93921550D01*
X114434763Y-93921550D01*
X114333591Y-93958373D01*
X114333590Y-93958373D01*
X114333589Y-93958374D01*
X114251116Y-94027577D01*
X114197281Y-94120821D01*
X114178586Y-94226849D01*
X114178586Y-94226850D01*
X114197281Y-94332878D01*
X114197281Y-94332879D01*
X114197282Y-94332880D01*
X114245083Y-94415674D01*
X114251116Y-94426122D01*
X114259631Y-94436270D01*
X114256223Y-94439129D01*
X114286375Y-94482234D01*
X114293168Y-94560309D01*
X114269968Y-94618058D01*
X114247554Y-94651605D01*
X114246469Y-94650880D01*
X114208604Y-94700225D01*
X114136198Y-94730213D01*
X114058499Y-94719981D01*
X114041958Y-94711824D01*
X113932819Y-94672100D01*
X113932818Y-94672100D01*
X113817182Y-94672100D01*
X113817181Y-94672100D01*
X113708523Y-94711648D01*
X113619937Y-94785980D01*
X113588529Y-94840383D01*
X113564216Y-94882496D01*
X113562121Y-94886124D01*
X113542042Y-95000000D01*
X101610000Y-95000000D01*
X101614789Y-91280000D01*
X104406412Y-91280000D01*
X104424193Y-91369390D01*
X104474828Y-91445172D01*
X104550610Y-91495807D01*
X104640000Y-91513588D01*
X104729390Y-91495807D01*
X104805172Y-91445172D01*
X104855807Y-91369390D01*
X104873588Y-91280000D01*
X104855807Y-91190610D01*
X104805172Y-91114828D01*
X104729390Y-91064193D01*
X104729387Y-91064192D01*
X104640000Y-91046412D01*
X104550612Y-91064192D01*
X104550610Y-91064192D01*
X104550610Y-91064193D01*
X104474828Y-91114828D01*
X104424192Y-91190612D01*
X104406412Y-91280000D01*
X101614789Y-91280000D01*
X101615614Y-90639586D01*
X101635995Y-90563915D01*
X101664318Y-90535664D01*
X101661563Y-90532909D01*
X102130000Y-90064472D01*
X102130000Y-90079728D01*
X102168060Y-90171614D01*
X102238386Y-90241940D01*
X102330272Y-90280000D01*
X102345526Y-90280000D01*
X101928645Y-90696879D01*
X102028603Y-90759687D01*
X102028605Y-90759688D01*
X102199780Y-90819585D01*
X102199783Y-90819586D01*
X102380000Y-90839892D01*
X102560216Y-90819586D01*
X102560219Y-90819585D01*
X102731394Y-90759688D01*
X102731399Y-90759686D01*
X102831353Y-90696879D01*
X102414474Y-90280000D01*
X102429728Y-90280000D01*
X102521614Y-90241940D01*
X102591940Y-90171614D01*
X102630000Y-90079728D01*
X102630000Y-90064474D01*
X103046879Y-90481353D01*
X103109686Y-90381399D01*
X103109688Y-90381394D01*
X103169585Y-90210219D01*
X103169586Y-90210216D01*
X103189892Y-90030000D01*
X103189892Y-90029999D01*
X103169586Y-89849783D01*
X103169585Y-89849780D01*
X103167405Y-89843550D01*
X116714982Y-89843550D01*
X116730828Y-89923215D01*
X116732763Y-89932940D01*
X116783398Y-90008722D01*
X116859180Y-90059357D01*
X116948570Y-90077138D01*
X117037960Y-90059357D01*
X117089458Y-90024948D01*
X117163670Y-89999757D01*
X117240534Y-90015047D01*
X117257682Y-90024948D01*
X117309179Y-90059357D01*
X117324010Y-90062306D01*
X117398570Y-90077138D01*
X117487960Y-90059357D01*
X117563742Y-90008722D01*
X117563742Y-90008720D01*
X117576141Y-90000437D01*
X117577182Y-90001995D01*
X117629160Y-89971982D01*
X117707530Y-89971977D01*
X117752466Y-89992336D01*
X117825009Y-90040807D01*
X117839840Y-90043756D01*
X117914400Y-90058588D01*
X118003790Y-90040807D01*
X118058493Y-90004255D01*
X118132701Y-89979066D01*
X118209566Y-89994356D01*
X118226715Y-90004257D01*
X118309179Y-90059357D01*
X118324010Y-90062306D01*
X118398570Y-90077138D01*
X118487960Y-90059357D01*
X118563742Y-90008722D01*
X118563746Y-90008715D01*
X118570514Y-90001949D01*
X118638384Y-89962762D01*
X118716754Y-89962760D01*
X118761685Y-89983117D01*
X118791375Y-90002955D01*
X118810610Y-90015807D01*
X118900000Y-90033588D01*
X118989390Y-90015807D01*
X119065172Y-89965172D01*
X119065174Y-89965168D01*
X119067944Y-89962400D01*
X119135815Y-89923215D01*
X119214185Y-89923215D01*
X119282056Y-89962400D01*
X119284826Y-89965170D01*
X119284827Y-89965170D01*
X119284828Y-89965172D01*
X119360610Y-90015807D01*
X119450000Y-90033588D01*
X119539390Y-90015807D01*
X119557583Y-90003650D01*
X119631790Y-89978459D01*
X119708655Y-89993747D01*
X119725807Y-90003650D01*
X119733398Y-90008722D01*
X119809180Y-90059357D01*
X119898570Y-90077138D01*
X119987960Y-90059357D01*
X120026527Y-90033588D01*
X120064458Y-90008244D01*
X120138670Y-89983053D01*
X120215534Y-89998343D01*
X120232682Y-90008244D01*
X120309179Y-90059357D01*
X120324010Y-90062306D01*
X120398570Y-90077138D01*
X120487960Y-90059357D01*
X120526527Y-90033588D01*
X120564458Y-90008244D01*
X120638670Y-89983053D01*
X120715534Y-89998343D01*
X120732682Y-90008244D01*
X120809179Y-90059357D01*
X120824010Y-90062306D01*
X120898570Y-90077138D01*
X120987960Y-90059357D01*
X121026527Y-90033588D01*
X121064458Y-90008244D01*
X121138670Y-89983053D01*
X121215534Y-89998343D01*
X121232682Y-90008244D01*
X121309179Y-90059357D01*
X121324010Y-90062306D01*
X121398570Y-90077138D01*
X121487960Y-90059357D01*
X121563742Y-90008722D01*
X121563742Y-90008721D01*
X121572373Y-90002955D01*
X121646584Y-89977764D01*
X121723449Y-89993054D01*
X121740597Y-90002955D01*
X121749227Y-90008721D01*
X121749228Y-90008722D01*
X121825010Y-90059357D01*
X121914400Y-90077138D01*
X122003790Y-90059357D01*
X122079572Y-90008722D01*
X122130207Y-89932940D01*
X122147988Y-89843550D01*
X122130207Y-89754160D01*
X122079572Y-89678378D01*
X122003790Y-89627743D01*
X122003787Y-89627742D01*
X121914400Y-89609962D01*
X121825010Y-89627742D01*
X121740596Y-89684145D01*
X121666385Y-89709335D01*
X121589521Y-89694045D01*
X121572374Y-89684145D01*
X121487959Y-89627742D01*
X121398570Y-89609962D01*
X121309180Y-89627742D01*
X121232681Y-89678856D01*
X121158469Y-89704046D01*
X121081605Y-89688755D01*
X121064459Y-89678856D01*
X120987959Y-89627742D01*
X120898570Y-89609962D01*
X120809180Y-89627742D01*
X120732681Y-89678856D01*
X120658469Y-89704046D01*
X120581605Y-89688755D01*
X120564459Y-89678856D01*
X120487959Y-89627742D01*
X120398570Y-89609962D01*
X120309180Y-89627742D01*
X120232681Y-89678856D01*
X120158469Y-89704046D01*
X120081605Y-89688755D01*
X120064459Y-89678856D01*
X119987959Y-89627742D01*
X119898570Y-89609962D01*
X119809180Y-89627742D01*
X119790985Y-89639900D01*
X119716773Y-89665090D01*
X119639909Y-89649799D01*
X119622762Y-89639899D01*
X119539390Y-89584192D01*
X119450000Y-89566412D01*
X119360612Y-89584192D01*
X119360610Y-89584192D01*
X119360610Y-89584193D01*
X119349806Y-89591412D01*
X119284826Y-89634829D01*
X119282056Y-89637600D01*
X119214185Y-89676785D01*
X119135815Y-89676785D01*
X119067944Y-89637600D01*
X119065173Y-89634829D01*
X119054568Y-89627743D01*
X118989390Y-89584193D01*
X118989387Y-89584192D01*
X118900000Y-89566412D01*
X118810612Y-89584192D01*
X118810610Y-89584192D01*
X118810610Y-89584193D01*
X118799806Y-89591412D01*
X118734824Y-89634830D01*
X118728049Y-89641606D01*
X118660177Y-89680789D01*
X118581807Y-89680787D01*
X118536884Y-89660432D01*
X118487960Y-89627742D01*
X118398570Y-89609962D01*
X118309180Y-89627742D01*
X118254477Y-89664293D01*
X118180265Y-89689483D01*
X118103401Y-89674192D01*
X118086254Y-89664293D01*
X118079572Y-89659828D01*
X118003790Y-89609193D01*
X118003787Y-89609192D01*
X117914400Y-89591412D01*
X117825012Y-89609192D01*
X117825010Y-89609192D01*
X117825010Y-89609193D01*
X117749228Y-89659828D01*
X117749227Y-89659828D01*
X117736829Y-89668113D01*
X117735788Y-89666555D01*
X117683791Y-89696572D01*
X117605421Y-89696567D01*
X117560503Y-89676214D01*
X117557477Y-89674192D01*
X117487960Y-89627743D01*
X117487959Y-89627742D01*
X117487958Y-89627742D01*
X117398570Y-89609962D01*
X117309180Y-89627742D01*
X117257681Y-89662152D01*
X117183469Y-89687342D01*
X117106605Y-89672051D01*
X117089459Y-89662152D01*
X117037959Y-89627742D01*
X116948570Y-89609962D01*
X116859182Y-89627742D01*
X116859180Y-89627742D01*
X116859180Y-89627743D01*
X116783398Y-89678378D01*
X116745158Y-89735610D01*
X116732762Y-89754162D01*
X116714982Y-89843550D01*
X103167405Y-89843550D01*
X103109688Y-89678605D01*
X103109687Y-89678603D01*
X103046879Y-89578645D01*
X102630000Y-89995524D01*
X102630000Y-89980272D01*
X102591940Y-89888386D01*
X102521614Y-89818060D01*
X102429728Y-89780000D01*
X102414472Y-89780000D01*
X102831353Y-89363118D01*
X102831354Y-89363118D01*
X102731399Y-89300312D01*
X102560219Y-89240414D01*
X102560216Y-89240413D01*
X102380000Y-89220108D01*
X102199783Y-89240413D01*
X102199780Y-89240414D01*
X102028603Y-89300311D01*
X102028597Y-89300314D01*
X101928645Y-89363118D01*
X101928645Y-89363119D01*
X102345526Y-89780000D01*
X102330272Y-89780000D01*
X102238386Y-89818060D01*
X102168060Y-89888386D01*
X102130000Y-89980272D01*
X102130000Y-89995526D01*
X101661563Y-89527089D01*
X101664814Y-89523837D01*
X101644412Y-89506657D01*
X101617737Y-89432966D01*
X101617185Y-89419866D01*
X101618595Y-88325000D01*
X114689990Y-88325000D01*
X114708685Y-88431028D01*
X114708685Y-88431029D01*
X114708686Y-88431030D01*
X114762519Y-88524271D01*
X114844995Y-88593477D01*
X114946167Y-88630300D01*
X114946169Y-88630300D01*
X115053831Y-88630300D01*
X115053833Y-88630300D01*
X115155005Y-88593477D01*
X115237481Y-88524271D01*
X115258711Y-88487500D01*
X115602490Y-88487500D01*
X115621185Y-88593528D01*
X115621185Y-88593529D01*
X115621186Y-88593530D01*
X115675019Y-88686771D01*
X115757495Y-88755977D01*
X115858667Y-88792800D01*
X115858669Y-88792800D01*
X115966331Y-88792800D01*
X115966333Y-88792800D01*
X116067505Y-88755977D01*
X116149981Y-88686771D01*
X116203814Y-88593530D01*
X116222510Y-88487500D01*
X116203814Y-88381470D01*
X116149981Y-88288229D01*
X116067505Y-88219023D01*
X115966333Y-88182200D01*
X115858667Y-88182200D01*
X115757495Y-88219023D01*
X115757494Y-88219023D01*
X115757493Y-88219024D01*
X115675020Y-88288227D01*
X115621185Y-88381471D01*
X115602490Y-88487499D01*
X115602490Y-88487500D01*
X115258711Y-88487500D01*
X115291314Y-88431030D01*
X115310010Y-88325000D01*
X115291314Y-88218970D01*
X115237481Y-88125729D01*
X115155005Y-88056523D01*
X115053833Y-88019700D01*
X114946167Y-88019700D01*
X114844995Y-88056523D01*
X114844994Y-88056523D01*
X114844993Y-88056524D01*
X114762520Y-88125727D01*
X114708685Y-88218971D01*
X114689990Y-88324999D01*
X114689990Y-88325000D01*
X101618595Y-88325000D01*
X101619971Y-87256008D01*
X101640351Y-87180338D01*
X101695839Y-87124993D01*
X101771565Y-87104807D01*
X101847239Y-87125188D01*
X101871760Y-87142877D01*
X101926387Y-87191272D01*
X102066778Y-87264956D01*
X102220724Y-87302900D01*
X102220727Y-87302900D01*
X102379273Y-87302900D01*
X102379276Y-87302900D01*
X102420708Y-87292688D01*
X107031460Y-87292688D01*
X107050155Y-87398716D01*
X107050155Y-87398717D01*
X107050156Y-87398718D01*
X107101055Y-87486878D01*
X107103990Y-87491960D01*
X107114249Y-87500568D01*
X107186465Y-87561165D01*
X107287637Y-87597988D01*
X107287639Y-87597988D01*
X107395301Y-87597988D01*
X107395303Y-87597988D01*
X107496475Y-87561165D01*
X107578951Y-87491959D01*
X107632784Y-87398718D01*
X107650082Y-87300616D01*
X109392773Y-87300616D01*
X109411468Y-87406644D01*
X109411468Y-87406645D01*
X109411469Y-87406646D01*
X109461311Y-87492975D01*
X109465303Y-87499888D01*
X109485052Y-87516459D01*
X109547778Y-87569093D01*
X109648950Y-87605916D01*
X109648952Y-87605916D01*
X109756614Y-87605916D01*
X109756616Y-87605916D01*
X109857788Y-87569093D01*
X109940264Y-87499887D01*
X109994097Y-87406646D01*
X110002094Y-87361289D01*
X110028544Y-87304565D01*
X110271594Y-87304565D01*
X110293463Y-87335795D01*
X110300294Y-87361287D01*
X110308685Y-87408877D01*
X110324716Y-87436643D01*
X110362518Y-87502118D01*
X110362520Y-87502120D01*
X110379609Y-87516459D01*
X110444995Y-87571325D01*
X110546167Y-87608148D01*
X110546169Y-87608148D01*
X110653831Y-87608148D01*
X110653833Y-87608148D01*
X110755005Y-87571325D01*
X110837481Y-87502119D01*
X110880910Y-87426897D01*
X110936325Y-87371483D01*
X111012025Y-87351199D01*
X111087725Y-87371483D01*
X111143140Y-87426898D01*
X111149036Y-87437110D01*
X111162518Y-87460462D01*
X111162520Y-87460464D01*
X111172207Y-87468592D01*
X111244995Y-87529669D01*
X111346167Y-87566492D01*
X111346169Y-87566492D01*
X111453831Y-87566492D01*
X111453833Y-87566492D01*
X111555005Y-87529669D01*
X111637481Y-87460463D01*
X111637484Y-87460456D01*
X111643552Y-87453225D01*
X111707746Y-87408269D01*
X111785818Y-87401432D01*
X111856848Y-87434547D01*
X111858944Y-87436643D01*
X111897020Y-87468592D01*
X111950435Y-87513413D01*
X112051607Y-87550236D01*
X112051609Y-87550236D01*
X112159271Y-87550236D01*
X112159273Y-87550236D01*
X112260445Y-87513413D01*
X112342921Y-87444207D01*
X112396754Y-87350966D01*
X112411150Y-87269320D01*
X113489102Y-87269320D01*
X113507797Y-87375348D01*
X113507797Y-87375349D01*
X113507798Y-87375350D01*
X113561630Y-87468590D01*
X113561632Y-87468592D01*
X113583424Y-87486878D01*
X113644107Y-87537797D01*
X113745279Y-87574620D01*
X113745281Y-87574620D01*
X113852943Y-87574620D01*
X113852945Y-87574620D01*
X113954117Y-87537797D01*
X114036593Y-87468591D01*
X114056501Y-87434108D01*
X114111914Y-87378694D01*
X114187614Y-87358409D01*
X114263314Y-87378692D01*
X114318731Y-87434107D01*
X114332774Y-87458430D01*
X114332776Y-87458432D01*
X114344882Y-87468590D01*
X114415251Y-87527637D01*
X114516423Y-87564460D01*
X114516425Y-87564460D01*
X114624087Y-87564460D01*
X114624089Y-87564460D01*
X114725261Y-87527637D01*
X114807737Y-87458431D01*
X114807740Y-87458425D01*
X114811999Y-87453350D01*
X114876192Y-87408393D01*
X114954264Y-87401556D01*
X115025294Y-87434671D01*
X115059099Y-87474953D01*
X115060119Y-87476719D01*
X115142595Y-87545925D01*
X115243767Y-87582748D01*
X115243769Y-87582748D01*
X115351431Y-87582748D01*
X115351433Y-87582748D01*
X115452605Y-87545925D01*
X115535081Y-87476719D01*
X115588914Y-87383478D01*
X115602765Y-87304920D01*
X115619910Y-87268152D01*
X115612296Y-87257278D01*
X115878624Y-87257278D01*
X115894134Y-87279428D01*
X115900965Y-87304920D01*
X115909621Y-87354012D01*
X115909621Y-87354013D01*
X115909622Y-87354014D01*
X115961695Y-87444207D01*
X115963456Y-87447256D01*
X115988881Y-87468590D01*
X116045931Y-87516461D01*
X116147103Y-87553284D01*
X116147105Y-87553284D01*
X116254767Y-87553284D01*
X116254769Y-87553284D01*
X116355941Y-87516461D01*
X116438417Y-87447255D01*
X116438419Y-87447250D01*
X116446929Y-87437110D01*
X116448886Y-87438752D01*
X116491130Y-87396497D01*
X116566827Y-87376203D01*
X116642530Y-87396476D01*
X116697954Y-87451885D01*
X116697963Y-87451902D01*
X116711601Y-87475523D01*
X116711604Y-87475527D01*
X116714237Y-87477736D01*
X116794079Y-87544732D01*
X116895251Y-87581555D01*
X116895253Y-87581555D01*
X117002915Y-87581555D01*
X117002917Y-87581555D01*
X117104089Y-87544732D01*
X117186565Y-87475526D01*
X117234939Y-87391739D01*
X117290352Y-87336326D01*
X117366052Y-87316042D01*
X117441752Y-87336325D01*
X117497169Y-87391741D01*
X117500854Y-87399644D01*
X117505290Y-87407327D01*
X117559122Y-87500567D01*
X117559124Y-87500569D01*
X117574429Y-87513411D01*
X117641599Y-87569774D01*
X117742771Y-87606597D01*
X117742773Y-87606597D01*
X117850435Y-87606597D01*
X117850437Y-87606597D01*
X117951609Y-87569774D01*
X118034085Y-87500568D01*
X118087918Y-87407327D01*
X118087918Y-87407324D01*
X118092093Y-87400094D01*
X118147509Y-87344678D01*
X118223209Y-87324394D01*
X118298909Y-87344678D01*
X118354325Y-87400093D01*
X118358502Y-87407327D01*
X118407364Y-87491959D01*
X118407952Y-87492976D01*
X118432306Y-87513411D01*
X118490427Y-87562181D01*
X118591599Y-87599004D01*
X118591601Y-87599004D01*
X118699263Y-87599004D01*
X118699265Y-87599004D01*
X118800437Y-87562181D01*
X118882913Y-87492975D01*
X118893360Y-87474879D01*
X118948772Y-87419466D01*
X119024471Y-87399180D01*
X119100172Y-87419462D01*
X119155589Y-87474877D01*
X119155590Y-87474878D01*
X119157239Y-87477735D01*
X119162519Y-87486879D01*
X119244995Y-87556085D01*
X119346167Y-87592908D01*
X119346169Y-87592908D01*
X119453831Y-87592908D01*
X119453833Y-87592908D01*
X119555005Y-87556085D01*
X119637481Y-87486879D01*
X119673513Y-87424469D01*
X119728926Y-87369056D01*
X119804626Y-87348772D01*
X119880326Y-87369055D01*
X119935742Y-87424470D01*
X119965908Y-87476719D01*
X119966496Y-87477736D01*
X119983446Y-87491959D01*
X120048971Y-87546941D01*
X120150143Y-87583764D01*
X120150145Y-87583764D01*
X120257807Y-87583764D01*
X120257809Y-87583764D01*
X120358981Y-87546941D01*
X120441457Y-87477735D01*
X120495290Y-87384494D01*
X120513986Y-87278464D01*
X120513596Y-87276255D01*
X120499590Y-87196819D01*
X120495290Y-87172434D01*
X120482338Y-87150000D01*
X121289990Y-87150000D01*
X121308685Y-87256028D01*
X121308685Y-87256029D01*
X121308686Y-87256030D01*
X121359867Y-87344678D01*
X121362520Y-87349272D01*
X121386098Y-87369056D01*
X121444995Y-87418477D01*
X121546167Y-87455300D01*
X121546169Y-87455300D01*
X121653831Y-87455300D01*
X121653833Y-87455300D01*
X121755005Y-87418477D01*
X121837481Y-87349271D01*
X121891314Y-87256030D01*
X121910010Y-87150000D01*
X121909972Y-87149787D01*
X121900033Y-87093417D01*
X121891314Y-87043970D01*
X121837481Y-86950729D01*
X121827893Y-86942684D01*
X121755006Y-86881524D01*
X121755005Y-86881523D01*
X121653833Y-86844700D01*
X121546167Y-86844700D01*
X121444995Y-86881523D01*
X121444994Y-86881523D01*
X121444993Y-86881524D01*
X121362520Y-86950727D01*
X121308685Y-87043971D01*
X121289990Y-87149999D01*
X121289990Y-87150000D01*
X120482338Y-87150000D01*
X120441457Y-87079193D01*
X120440247Y-87078178D01*
X120375932Y-87024211D01*
X120358981Y-87009987D01*
X120257809Y-86973164D01*
X120150143Y-86973164D01*
X120048971Y-87009987D01*
X120048970Y-87009987D01*
X120048969Y-87009988D01*
X119966496Y-87079191D01*
X119966493Y-87079195D01*
X119930463Y-87141600D01*
X119875047Y-87197016D01*
X119799346Y-87217299D01*
X119723647Y-87197014D01*
X119668233Y-87141601D01*
X119637481Y-87088337D01*
X119636041Y-87087129D01*
X119555006Y-87019132D01*
X119555005Y-87019131D01*
X119453833Y-86982308D01*
X119346167Y-86982308D01*
X119244995Y-87019131D01*
X119244994Y-87019131D01*
X119244993Y-87019132D01*
X119162520Y-87088335D01*
X119162518Y-87088337D01*
X119152071Y-87106433D01*
X119096654Y-87161848D01*
X119020954Y-87182131D01*
X118945254Y-87161846D01*
X118889841Y-87106433D01*
X118882913Y-87094433D01*
X118881702Y-87093417D01*
X118822774Y-87043970D01*
X118800437Y-87025227D01*
X118699265Y-86988404D01*
X118591599Y-86988404D01*
X118490427Y-87025227D01*
X118490426Y-87025227D01*
X118490425Y-87025228D01*
X118407952Y-87094431D01*
X118349942Y-87194907D01*
X118294525Y-87250323D01*
X118218825Y-87270606D01*
X118143125Y-87250322D01*
X118087710Y-87194907D01*
X118082948Y-87186659D01*
X118034085Y-87102026D01*
X118033969Y-87101929D01*
X117964897Y-87043970D01*
X117951609Y-87032820D01*
X117850437Y-86995997D01*
X117742771Y-86995997D01*
X117641599Y-87032820D01*
X117641598Y-87032820D01*
X117641597Y-87032821D01*
X117559124Y-87102024D01*
X117510750Y-87185810D01*
X117455333Y-87241226D01*
X117379633Y-87261509D01*
X117303933Y-87241225D01*
X117248517Y-87185808D01*
X117244831Y-87177905D01*
X117240398Y-87170227D01*
X117240398Y-87170225D01*
X117186565Y-87076984D01*
X117181482Y-87072719D01*
X117106723Y-87009988D01*
X117104089Y-87007778D01*
X117002917Y-86970955D01*
X116895251Y-86970955D01*
X116794079Y-87007778D01*
X116794078Y-87007778D01*
X116794077Y-87007779D01*
X116711604Y-87076982D01*
X116703091Y-87087129D01*
X116701135Y-87085488D01*
X116658866Y-87127754D01*
X116583166Y-87148035D01*
X116507466Y-87127749D01*
X116452055Y-87072335D01*
X116450736Y-87070051D01*
X116438417Y-87048713D01*
X116434782Y-87045663D01*
X116355942Y-86979508D01*
X116355941Y-86979507D01*
X116254769Y-86942684D01*
X116147103Y-86942684D01*
X116045931Y-86979507D01*
X116045930Y-86979507D01*
X116045929Y-86979508D01*
X115963456Y-87048711D01*
X115909621Y-87141955D01*
X115895770Y-87220511D01*
X115878624Y-87257278D01*
X115612296Y-87257278D01*
X115604400Y-87246001D01*
X115597570Y-87220509D01*
X115596218Y-87212840D01*
X115588914Y-87171418D01*
X115535081Y-87078177D01*
X115533659Y-87076984D01*
X115452606Y-87008972D01*
X115452605Y-87008971D01*
X115351433Y-86972148D01*
X115243767Y-86972148D01*
X115142595Y-87008971D01*
X115142594Y-87008971D01*
X115142593Y-87008972D01*
X115060117Y-87078178D01*
X115055849Y-87083265D01*
X114991653Y-87128218D01*
X114913581Y-87135049D01*
X114842553Y-87101929D01*
X114808755Y-87061652D01*
X114807737Y-87059889D01*
X114725261Y-86990683D01*
X114624089Y-86953860D01*
X114516423Y-86953860D01*
X114415251Y-86990683D01*
X114415250Y-86990683D01*
X114415249Y-86990684D01*
X114332776Y-87059887D01*
X114332775Y-87059889D01*
X114313418Y-87093417D01*
X114312867Y-87094371D01*
X114257450Y-87149787D01*
X114181750Y-87170070D01*
X114106050Y-87149786D01*
X114050636Y-87094371D01*
X114038136Y-87072721D01*
X114036593Y-87070049D01*
X114026906Y-87061921D01*
X113975912Y-87019131D01*
X113954117Y-87000843D01*
X113852945Y-86964020D01*
X113745279Y-86964020D01*
X113644107Y-87000843D01*
X113644106Y-87000843D01*
X113644105Y-87000844D01*
X113561632Y-87070047D01*
X113507797Y-87163291D01*
X113489102Y-87269319D01*
X113489102Y-87269320D01*
X112411150Y-87269320D01*
X112415450Y-87244936D01*
X112396754Y-87138906D01*
X112342921Y-87045665D01*
X112340902Y-87043971D01*
X112274680Y-86988404D01*
X112260445Y-86976459D01*
X112159273Y-86939636D01*
X112051607Y-86939636D01*
X111950435Y-86976459D01*
X111950434Y-86976459D01*
X111950433Y-86976460D01*
X111867960Y-87045663D01*
X111861881Y-87052909D01*
X111797684Y-87097862D01*
X111719612Y-87104693D01*
X111648584Y-87071574D01*
X111646490Y-87069480D01*
X111564693Y-87000844D01*
X111555005Y-86992715D01*
X111453833Y-86955892D01*
X111346167Y-86955892D01*
X111244995Y-86992715D01*
X111244994Y-86992715D01*
X111244993Y-86992716D01*
X111162520Y-87061919D01*
X111162518Y-87061921D01*
X111119089Y-87137142D01*
X111063672Y-87192557D01*
X110987972Y-87212840D01*
X110912272Y-87192555D01*
X110856859Y-87137141D01*
X110837481Y-87103577D01*
X110835630Y-87102024D01*
X110772095Y-87048711D01*
X110755005Y-87034371D01*
X110653833Y-86997548D01*
X110546167Y-86997548D01*
X110444995Y-87034371D01*
X110444994Y-87034371D01*
X110444993Y-87034372D01*
X110362520Y-87103575D01*
X110308685Y-87196819D01*
X110300688Y-87242175D01*
X110271594Y-87304565D01*
X110028544Y-87304565D01*
X110031187Y-87298898D01*
X110009318Y-87267665D01*
X110002488Y-87242174D01*
X109994491Y-87196819D01*
X109994097Y-87194586D01*
X109940264Y-87101345D01*
X109936113Y-87097862D01*
X109877538Y-87048711D01*
X109857788Y-87032139D01*
X109756616Y-86995316D01*
X109648950Y-86995316D01*
X109547778Y-87032139D01*
X109547777Y-87032139D01*
X109547776Y-87032140D01*
X109465303Y-87101343D01*
X109411468Y-87194587D01*
X109392773Y-87300615D01*
X109392773Y-87300616D01*
X107650082Y-87300616D01*
X107651480Y-87292688D01*
X107648582Y-87276255D01*
X107634302Y-87195267D01*
X107632784Y-87186658D01*
X107578951Y-87093417D01*
X107571457Y-87087129D01*
X107496476Y-87024212D01*
X107496475Y-87024211D01*
X107395303Y-86987388D01*
X107287637Y-86987388D01*
X107186465Y-87024211D01*
X107186464Y-87024211D01*
X107186463Y-87024212D01*
X107103990Y-87093415D01*
X107050155Y-87186659D01*
X107031460Y-87292687D01*
X107031460Y-87292688D01*
X102420708Y-87292688D01*
X102533222Y-87264956D01*
X102673613Y-87191272D01*
X102792292Y-87086132D01*
X102882360Y-86955646D01*
X102910471Y-86881524D01*
X102938582Y-86807403D01*
X102938584Y-86807395D01*
X102957695Y-86650001D01*
X102957695Y-86649998D01*
X102942999Y-86528961D01*
X104518300Y-86528961D01*
X104533704Y-86606404D01*
X104542376Y-86650001D01*
X104549109Y-86683847D01*
X104609543Y-86829747D01*
X104697279Y-86961054D01*
X104808946Y-87072721D01*
X104940253Y-87160457D01*
X105086153Y-87220891D01*
X105241039Y-87251700D01*
X105398961Y-87251700D01*
X105553847Y-87220891D01*
X105699747Y-87160457D01*
X105831054Y-87072721D01*
X105942721Y-86961054D01*
X106030457Y-86829747D01*
X106090891Y-86683847D01*
X106121700Y-86528961D01*
X106121700Y-86371039D01*
X106090891Y-86216153D01*
X106030457Y-86070253D01*
X105942721Y-85938946D01*
X105831054Y-85827279D01*
X105699747Y-85739543D01*
X105650319Y-85719069D01*
X105553848Y-85679109D01*
X105398961Y-85648300D01*
X105241039Y-85648300D01*
X105086151Y-85679109D01*
X104940252Y-85739543D01*
X104808944Y-85827280D01*
X104697280Y-85938944D01*
X104609543Y-86070252D01*
X104549109Y-86216151D01*
X104523991Y-86342428D01*
X104518300Y-86371039D01*
X104518300Y-86528961D01*
X102942999Y-86528961D01*
X102938584Y-86492604D01*
X102938582Y-86492596D01*
X102882362Y-86344358D01*
X102882359Y-86344353D01*
X102792292Y-86213868D01*
X102673613Y-86108728D01*
X102673611Y-86108727D01*
X102673610Y-86108726D01*
X102533223Y-86035044D01*
X102494735Y-86025558D01*
X102379276Y-85997100D01*
X102220724Y-85997100D01*
X102128356Y-86019866D01*
X102066776Y-86035044D01*
X101926387Y-86108727D01*
X101873328Y-86155733D01*
X101803215Y-86190748D01*
X101724988Y-86186015D01*
X101659607Y-86142802D01*
X101624592Y-86072689D01*
X101621533Y-86042219D01*
X101622392Y-85375000D01*
X107089990Y-85375000D01*
X107108685Y-85481028D01*
X107108685Y-85481029D01*
X107108686Y-85481030D01*
X107162519Y-85574271D01*
X107244995Y-85643477D01*
X107346167Y-85680300D01*
X107346169Y-85680300D01*
X107453831Y-85680300D01*
X107453833Y-85680300D01*
X107555005Y-85643477D01*
X107637481Y-85574271D01*
X107691314Y-85481030D01*
X107710010Y-85375000D01*
X107709182Y-85370306D01*
X109483124Y-85370306D01*
X109501819Y-85476334D01*
X109501819Y-85476335D01*
X109501820Y-85476336D01*
X109555653Y-85569577D01*
X109638129Y-85638783D01*
X109652828Y-85644133D01*
X109717025Y-85689083D01*
X109750147Y-85760110D01*
X109743317Y-85838182D01*
X109698366Y-85902380D01*
X109652833Y-85928670D01*
X109644998Y-85931521D01*
X109644993Y-85931524D01*
X109562520Y-86000727D01*
X109508685Y-86093971D01*
X109489990Y-86199999D01*
X109489990Y-86200000D01*
X109508685Y-86306028D01*
X109508685Y-86306029D01*
X109508686Y-86306030D01*
X109562518Y-86399270D01*
X109562520Y-86399272D01*
X109590011Y-86422339D01*
X109644995Y-86468477D01*
X109746167Y-86505300D01*
X109746169Y-86505300D01*
X109853831Y-86505300D01*
X109853833Y-86505300D01*
X109955005Y-86468477D01*
X110037481Y-86399271D01*
X110068884Y-86344878D01*
X110124300Y-86289463D01*
X110200000Y-86269179D01*
X110275700Y-86289463D01*
X110331115Y-86344878D01*
X110333003Y-86348148D01*
X110362518Y-86399270D01*
X110362520Y-86399272D01*
X110390011Y-86422339D01*
X110444995Y-86468477D01*
X110546167Y-86505300D01*
X110546169Y-86505300D01*
X110653831Y-86505300D01*
X110653833Y-86505300D01*
X110755005Y-86468477D01*
X110837481Y-86399271D01*
X110868884Y-86344878D01*
X110924300Y-86289463D01*
X111000000Y-86269179D01*
X111075700Y-86289463D01*
X111131115Y-86344878D01*
X111133003Y-86348148D01*
X111162518Y-86399270D01*
X111162520Y-86399272D01*
X111190011Y-86422339D01*
X111244995Y-86468477D01*
X111346167Y-86505300D01*
X111346169Y-86505300D01*
X111453831Y-86505300D01*
X111453833Y-86505300D01*
X111555005Y-86468477D01*
X111637481Y-86399271D01*
X111668884Y-86344878D01*
X111724300Y-86289463D01*
X111800000Y-86269179D01*
X111875700Y-86289463D01*
X111931115Y-86344878D01*
X111933003Y-86348148D01*
X111962518Y-86399270D01*
X111962520Y-86399272D01*
X111990011Y-86422339D01*
X112044995Y-86468477D01*
X112146167Y-86505300D01*
X112146169Y-86505300D01*
X112253831Y-86505300D01*
X112253833Y-86505300D01*
X112355005Y-86468477D01*
X112437481Y-86399271D01*
X112491314Y-86306030D01*
X112510010Y-86200000D01*
X112503286Y-86161869D01*
X112495722Y-86118970D01*
X112491314Y-86093970D01*
X112437481Y-86000729D01*
X112434847Y-85998519D01*
X112374675Y-85948028D01*
X112355005Y-85931523D01*
X112355003Y-85931522D01*
X112355001Y-85931521D01*
X112288176Y-85907199D01*
X112223979Y-85862248D01*
X112190858Y-85791220D01*
X112197689Y-85713148D01*
X112242640Y-85648951D01*
X112288176Y-85622661D01*
X112322478Y-85610177D01*
X112404954Y-85540971D01*
X112458787Y-85447730D01*
X112461066Y-85434806D01*
X112494185Y-85363777D01*
X112523498Y-85343250D01*
X112516843Y-85340147D01*
X112696835Y-85340147D01*
X112707482Y-85345112D01*
X112752434Y-85409308D01*
X112759265Y-85434800D01*
X112761544Y-85447726D01*
X112761544Y-85447727D01*
X112777416Y-85475218D01*
X112815378Y-85540970D01*
X112815380Y-85540972D01*
X112825561Y-85549515D01*
X112897855Y-85610177D01*
X112999027Y-85647000D01*
X112999029Y-85647000D01*
X113106691Y-85647000D01*
X113106693Y-85647000D01*
X113207865Y-85610177D01*
X113290341Y-85540971D01*
X113295314Y-85532356D01*
X113350730Y-85476941D01*
X113426430Y-85456657D01*
X113502130Y-85476941D01*
X113557545Y-85532356D01*
X113562519Y-85540971D01*
X113562520Y-85540972D01*
X113572701Y-85549515D01*
X113644995Y-85610177D01*
X113695562Y-85628581D01*
X113759757Y-85673532D01*
X113792878Y-85744559D01*
X113786048Y-85822632D01*
X113741096Y-85886829D01*
X113695564Y-85913117D01*
X113644995Y-85931523D01*
X113644994Y-85931523D01*
X113644993Y-85931524D01*
X113562520Y-86000727D01*
X113508685Y-86093971D01*
X113489990Y-86199999D01*
X113489990Y-86200000D01*
X113508685Y-86306028D01*
X113508685Y-86306029D01*
X113508686Y-86306030D01*
X113562518Y-86399270D01*
X113562520Y-86399272D01*
X113590011Y-86422339D01*
X113644995Y-86468477D01*
X113746167Y-86505300D01*
X113746169Y-86505300D01*
X113853831Y-86505300D01*
X113853833Y-86505300D01*
X113955005Y-86468477D01*
X114037481Y-86399271D01*
X114049167Y-86379029D01*
X114104583Y-86323614D01*
X114180283Y-86303330D01*
X114255983Y-86323614D01*
X114311397Y-86379027D01*
X114337519Y-86424271D01*
X114419995Y-86493477D01*
X114521167Y-86530300D01*
X114521169Y-86530300D01*
X114628831Y-86530300D01*
X114628833Y-86530300D01*
X114730005Y-86493477D01*
X114812481Y-86424271D01*
X114866201Y-86331224D01*
X114921616Y-86275810D01*
X114997316Y-86255526D01*
X115073016Y-86275810D01*
X115128430Y-86331223D01*
X115175039Y-86411951D01*
X115175040Y-86411952D01*
X115202531Y-86435019D01*
X115257515Y-86481157D01*
X115358687Y-86517980D01*
X115358689Y-86517980D01*
X115466351Y-86517980D01*
X115466353Y-86517980D01*
X115567525Y-86481157D01*
X115650001Y-86411951D01*
X115677305Y-86364658D01*
X115732718Y-86309245D01*
X115808418Y-86288961D01*
X115884118Y-86309244D01*
X115939534Y-86364660D01*
X115960973Y-86401792D01*
X115962439Y-86404331D01*
X116044915Y-86473537D01*
X116146087Y-86510360D01*
X116146089Y-86510360D01*
X116253751Y-86510360D01*
X116253753Y-86510360D01*
X116354925Y-86473537D01*
X116437401Y-86404331D01*
X116469839Y-86348146D01*
X116525252Y-86292733D01*
X116600952Y-86272449D01*
X116676652Y-86292732D01*
X116732068Y-86348148D01*
X116760307Y-86397058D01*
X116760310Y-86397062D01*
X116762943Y-86399271D01*
X116842785Y-86466267D01*
X116943957Y-86503090D01*
X116943959Y-86503090D01*
X117051621Y-86503090D01*
X117051623Y-86503090D01*
X117152795Y-86466267D01*
X117235271Y-86397061D01*
X117266815Y-86342424D01*
X117322228Y-86287011D01*
X117397928Y-86266727D01*
X117473628Y-86287010D01*
X117529044Y-86342425D01*
X117567718Y-86409410D01*
X117567720Y-86409412D01*
X117595211Y-86432479D01*
X117650195Y-86478617D01*
X117751367Y-86515440D01*
X117751369Y-86515440D01*
X117859031Y-86515440D01*
X117859033Y-86515440D01*
X117960205Y-86478617D01*
X118042681Y-86409411D01*
X118074411Y-86354452D01*
X118129827Y-86299037D01*
X118205527Y-86278753D01*
X118281227Y-86299037D01*
X118336642Y-86354451D01*
X118362518Y-86399270D01*
X118362520Y-86399272D01*
X118390011Y-86422339D01*
X118444995Y-86468477D01*
X118546167Y-86505300D01*
X118546169Y-86505300D01*
X118653831Y-86505300D01*
X118653833Y-86505300D01*
X118755005Y-86468477D01*
X118837481Y-86399271D01*
X118868884Y-86344878D01*
X118924300Y-86289463D01*
X119000000Y-86269179D01*
X119075700Y-86289463D01*
X119131115Y-86344878D01*
X119133003Y-86348148D01*
X119162518Y-86399270D01*
X119162520Y-86399272D01*
X119190011Y-86422339D01*
X119244995Y-86468477D01*
X119346167Y-86505300D01*
X119346169Y-86505300D01*
X119453831Y-86505300D01*
X119453833Y-86505300D01*
X119555005Y-86468477D01*
X119637481Y-86399271D01*
X119668367Y-86345774D01*
X119723782Y-86290360D01*
X119799482Y-86270076D01*
X119875182Y-86290360D01*
X119930597Y-86345775D01*
X119962937Y-86401788D01*
X119962939Y-86401791D01*
X120045415Y-86470997D01*
X120146587Y-86507820D01*
X120146589Y-86507820D01*
X120254251Y-86507820D01*
X120254253Y-86507820D01*
X120355425Y-86470997D01*
X120437901Y-86401791D01*
X120491734Y-86308550D01*
X120510430Y-86202520D01*
X120509985Y-86199999D01*
X120499618Y-86141202D01*
X120491734Y-86096490D01*
X120437901Y-86003249D01*
X120434895Y-86000727D01*
X120382213Y-85956521D01*
X120355425Y-85934043D01*
X120355423Y-85934042D01*
X120355421Y-85934041D01*
X120288698Y-85909756D01*
X120224500Y-85864805D01*
X120191380Y-85793777D01*
X120198211Y-85715705D01*
X120243162Y-85651507D01*
X120288696Y-85625219D01*
X120330025Y-85610177D01*
X120412501Y-85540971D01*
X120466334Y-85447730D01*
X120485030Y-85341700D01*
X120484427Y-85338283D01*
X120470370Y-85258561D01*
X120466334Y-85235670D01*
X120412501Y-85142429D01*
X120412497Y-85142426D01*
X120330026Y-85073224D01*
X120330025Y-85073223D01*
X120266219Y-85050000D01*
X121314990Y-85050000D01*
X121333685Y-85156028D01*
X121333685Y-85156029D01*
X121333686Y-85156030D01*
X121387128Y-85248594D01*
X121387520Y-85249272D01*
X121387847Y-85249546D01*
X121469995Y-85318477D01*
X121571167Y-85355300D01*
X121571169Y-85355300D01*
X121678831Y-85355300D01*
X121678833Y-85355300D01*
X121780005Y-85318477D01*
X121862481Y-85249271D01*
X121916314Y-85156030D01*
X121935010Y-85050000D01*
X121934075Y-85044700D01*
X121916314Y-84943971D01*
X121916314Y-84943970D01*
X121862481Y-84850729D01*
X121780005Y-84781523D01*
X121678833Y-84744700D01*
X121571167Y-84744700D01*
X121469995Y-84781523D01*
X121469994Y-84781523D01*
X121469993Y-84781524D01*
X121387520Y-84850727D01*
X121333685Y-84943971D01*
X121314990Y-85049999D01*
X121314990Y-85050000D01*
X120266219Y-85050000D01*
X120228853Y-85036400D01*
X120121187Y-85036400D01*
X120020015Y-85073223D01*
X120020014Y-85073223D01*
X120020013Y-85073224D01*
X119937540Y-85142427D01*
X119937538Y-85142429D01*
X119921325Y-85170512D01*
X119865908Y-85225927D01*
X119790208Y-85246210D01*
X119714508Y-85225925D01*
X119659095Y-85170512D01*
X119642881Y-85142429D01*
X119642879Y-85142427D01*
X119560406Y-85073224D01*
X119560405Y-85073223D01*
X119459233Y-85036400D01*
X119351567Y-85036400D01*
X119250395Y-85073223D01*
X119250394Y-85073223D01*
X119250393Y-85073224D01*
X119167920Y-85142427D01*
X119134693Y-85199978D01*
X119079276Y-85255394D01*
X119003576Y-85275677D01*
X118927876Y-85255393D01*
X118872462Y-85199979D01*
X118841632Y-85146580D01*
X118836687Y-85142431D01*
X118786648Y-85100442D01*
X118759156Y-85077374D01*
X118657984Y-85040551D01*
X118550318Y-85040551D01*
X118449146Y-85077374D01*
X118449145Y-85077374D01*
X118449144Y-85077375D01*
X118366671Y-85146578D01*
X118366669Y-85146580D01*
X118360703Y-85156915D01*
X118305286Y-85212330D01*
X118229586Y-85232613D01*
X118153886Y-85212328D01*
X118098474Y-85156916D01*
X118090110Y-85142429D01*
X118090107Y-85142426D01*
X118007635Y-85073224D01*
X118007634Y-85073223D01*
X117906462Y-85036400D01*
X117798796Y-85036400D01*
X117697624Y-85073223D01*
X117697623Y-85073223D01*
X117697622Y-85073224D01*
X117615149Y-85142427D01*
X117615146Y-85142431D01*
X117569772Y-85221020D01*
X117514356Y-85276436D01*
X117438655Y-85296719D01*
X117362956Y-85276434D01*
X117307541Y-85221020D01*
X117299133Y-85206457D01*
X117265883Y-85148866D01*
X117263977Y-85147267D01*
X117183408Y-85079661D01*
X117183407Y-85079660D01*
X117082235Y-85042837D01*
X116974569Y-85042837D01*
X116873397Y-85079660D01*
X116873396Y-85079660D01*
X116873395Y-85079661D01*
X116790922Y-85148864D01*
X116764788Y-85194130D01*
X116709371Y-85249546D01*
X116633671Y-85269829D01*
X116557971Y-85249545D01*
X116502556Y-85194130D01*
X116500536Y-85190631D01*
X116475501Y-85147269D01*
X116469735Y-85142431D01*
X116412902Y-85094742D01*
X116393025Y-85078063D01*
X116291853Y-85041240D01*
X116184187Y-85041240D01*
X116083015Y-85078063D01*
X116083014Y-85078063D01*
X116083013Y-85078064D01*
X116000540Y-85147267D01*
X115998541Y-85150729D01*
X115947698Y-85238793D01*
X115940083Y-85251982D01*
X115936437Y-85249877D01*
X115905754Y-85293682D01*
X115834721Y-85326791D01*
X115756650Y-85319948D01*
X115692460Y-85274986D01*
X115677339Y-85253388D01*
X115625701Y-85163948D01*
X115617319Y-85156915D01*
X115543226Y-85094743D01*
X115543225Y-85094742D01*
X115442053Y-85057919D01*
X115334387Y-85057919D01*
X115233215Y-85094742D01*
X115233214Y-85094742D01*
X115233213Y-85094743D01*
X115150740Y-85163946D01*
X115150736Y-85163950D01*
X115142452Y-85178300D01*
X115087035Y-85233715D01*
X115011334Y-85253997D01*
X114935635Y-85233711D01*
X114880222Y-85178297D01*
X114872730Y-85165320D01*
X114871097Y-85163950D01*
X114790255Y-85096115D01*
X114790254Y-85096114D01*
X114689082Y-85059291D01*
X114581416Y-85059291D01*
X114480244Y-85096114D01*
X114480243Y-85096114D01*
X114480242Y-85096115D01*
X114397769Y-85165318D01*
X114397767Y-85165320D01*
X114355347Y-85238793D01*
X114299930Y-85294208D01*
X114224230Y-85314491D01*
X114148530Y-85294206D01*
X114093116Y-85238792D01*
X114091314Y-85235671D01*
X114091314Y-85235670D01*
X114037481Y-85142429D01*
X114037477Y-85142426D01*
X113955006Y-85073224D01*
X113955005Y-85073223D01*
X113853833Y-85036400D01*
X113746167Y-85036400D01*
X113644995Y-85073223D01*
X113644994Y-85073223D01*
X113644993Y-85073224D01*
X113562520Y-85142427D01*
X113562518Y-85142429D01*
X113557545Y-85151044D01*
X113502128Y-85206460D01*
X113426427Y-85226742D01*
X113350728Y-85206457D01*
X113295315Y-85151044D01*
X113290341Y-85142429D01*
X113290339Y-85142427D01*
X113207866Y-85073224D01*
X113207865Y-85073223D01*
X113106693Y-85036400D01*
X112999027Y-85036400D01*
X112897855Y-85073223D01*
X112897854Y-85073223D01*
X112897853Y-85073224D01*
X112815380Y-85142427D01*
X112761544Y-85235672D01*
X112761544Y-85235673D01*
X112759265Y-85248600D01*
X112726143Y-85319627D01*
X112696835Y-85340147D01*
X112516843Y-85340147D01*
X112512845Y-85338283D01*
X112467895Y-85274085D01*
X112461066Y-85248594D01*
X112459337Y-85238792D01*
X112458787Y-85235670D01*
X112404954Y-85142429D01*
X112404950Y-85142426D01*
X112322479Y-85073224D01*
X112322478Y-85073223D01*
X112221306Y-85036400D01*
X112113640Y-85036400D01*
X112012468Y-85073223D01*
X112012467Y-85073223D01*
X112012466Y-85073224D01*
X111929993Y-85142427D01*
X111929991Y-85142429D01*
X111899955Y-85194453D01*
X111844538Y-85249868D01*
X111768838Y-85270151D01*
X111693138Y-85249866D01*
X111637725Y-85194453D01*
X111612481Y-85150729D01*
X111610258Y-85148864D01*
X111530006Y-85081524D01*
X111530005Y-85081523D01*
X111428833Y-85044700D01*
X111321167Y-85044700D01*
X111219995Y-85081523D01*
X111219994Y-85081523D01*
X111219993Y-85081524D01*
X111137520Y-85150727D01*
X111137518Y-85150729D01*
X111114481Y-85190631D01*
X111059064Y-85246046D01*
X110983364Y-85266329D01*
X110907664Y-85246044D01*
X110852251Y-85190631D01*
X110837481Y-85165049D01*
X110837479Y-85165047D01*
X110755006Y-85095844D01*
X110755005Y-85095843D01*
X110653833Y-85059020D01*
X110546167Y-85059020D01*
X110444995Y-85095843D01*
X110444994Y-85095843D01*
X110444993Y-85095844D01*
X110362520Y-85165047D01*
X110362518Y-85165049D01*
X110325953Y-85228381D01*
X110270536Y-85283796D01*
X110194836Y-85304079D01*
X110119136Y-85283794D01*
X110063723Y-85228380D01*
X110030615Y-85171035D01*
X110023804Y-85165320D01*
X109948140Y-85101830D01*
X109948139Y-85101829D01*
X109846967Y-85065006D01*
X109739301Y-85065006D01*
X109638129Y-85101829D01*
X109638128Y-85101829D01*
X109638127Y-85101830D01*
X109555654Y-85171033D01*
X109501819Y-85264277D01*
X109483124Y-85370305D01*
X109483124Y-85370306D01*
X107709182Y-85370306D01*
X107703864Y-85340147D01*
X107692630Y-85276434D01*
X107691314Y-85268970D01*
X107637481Y-85175729D01*
X107623443Y-85163950D01*
X107555006Y-85106524D01*
X107555005Y-85106523D01*
X107453833Y-85069700D01*
X107346167Y-85069700D01*
X107244995Y-85106523D01*
X107244994Y-85106523D01*
X107244993Y-85106524D01*
X107162520Y-85175727D01*
X107108685Y-85268971D01*
X107089990Y-85374999D01*
X107089990Y-85375000D01*
X101622392Y-85375000D01*
X101624956Y-83383588D01*
X101632454Y-83350000D01*
X107089990Y-83350000D01*
X107108685Y-83456028D01*
X107108685Y-83456029D01*
X107108686Y-83456030D01*
X107162519Y-83549271D01*
X107244995Y-83618477D01*
X107346167Y-83655300D01*
X107346169Y-83655300D01*
X107453831Y-83655300D01*
X107453833Y-83655300D01*
X107555005Y-83618477D01*
X107637481Y-83549271D01*
X107691314Y-83456030D01*
X107707370Y-83364974D01*
X109477792Y-83364974D01*
X109496487Y-83471002D01*
X109496487Y-83471003D01*
X109496488Y-83471004D01*
X109548547Y-83561173D01*
X109550322Y-83564246D01*
X109560581Y-83572854D01*
X109632797Y-83633451D01*
X109657486Y-83642437D01*
X109721683Y-83687386D01*
X109754805Y-83758413D01*
X109747976Y-83836485D01*
X109703026Y-83900683D01*
X109657493Y-83926974D01*
X109644996Y-83931522D01*
X109644993Y-83931524D01*
X109562520Y-84000727D01*
X109508685Y-84093971D01*
X109489990Y-84199999D01*
X109489990Y-84200000D01*
X109508685Y-84306028D01*
X109508685Y-84306029D01*
X109508686Y-84306030D01*
X109562519Y-84399271D01*
X109644995Y-84468477D01*
X109746167Y-84505300D01*
X109746169Y-84505300D01*
X109853831Y-84505300D01*
X109853833Y-84505300D01*
X109955005Y-84468477D01*
X110037481Y-84399271D01*
X110068884Y-84344878D01*
X110124300Y-84289463D01*
X110200000Y-84269179D01*
X110275700Y-84289463D01*
X110331115Y-84344878D01*
X110334327Y-84350441D01*
X110362517Y-84399269D01*
X110362519Y-84399271D01*
X110444995Y-84468477D01*
X110546167Y-84505300D01*
X110546169Y-84505300D01*
X110653831Y-84505300D01*
X110653833Y-84505300D01*
X110755005Y-84468477D01*
X110837481Y-84399271D01*
X110857470Y-84364648D01*
X110912883Y-84309234D01*
X110988583Y-84288949D01*
X111064283Y-84309232D01*
X111119700Y-84364647D01*
X111139689Y-84399269D01*
X111139691Y-84399271D01*
X111167182Y-84422338D01*
X111222166Y-84468476D01*
X111323338Y-84505299D01*
X111323340Y-84505299D01*
X111431002Y-84505299D01*
X111431004Y-84505299D01*
X111532176Y-84468476D01*
X111614652Y-84399270D01*
X111657470Y-84325106D01*
X111712885Y-84269692D01*
X111788585Y-84249408D01*
X111864285Y-84269692D01*
X111919701Y-84325108D01*
X111962517Y-84399269D01*
X111962519Y-84399271D01*
X112044995Y-84468477D01*
X112146167Y-84505300D01*
X112146169Y-84505300D01*
X112253831Y-84505300D01*
X112253833Y-84505300D01*
X112355005Y-84468477D01*
X112437481Y-84399271D01*
X112468884Y-84344878D01*
X112524300Y-84289463D01*
X112600000Y-84269179D01*
X112675700Y-84289463D01*
X112731115Y-84344878D01*
X112734327Y-84350441D01*
X112762517Y-84399269D01*
X112762519Y-84399271D01*
X112844995Y-84468477D01*
X112946167Y-84505300D01*
X112946169Y-84505300D01*
X113053831Y-84505300D01*
X113053833Y-84505300D01*
X113155005Y-84468477D01*
X113237481Y-84399271D01*
X113265673Y-84350440D01*
X113321089Y-84295025D01*
X113396789Y-84274741D01*
X113472489Y-84295025D01*
X113527903Y-84350438D01*
X113549319Y-84387531D01*
X113631795Y-84456737D01*
X113732967Y-84493560D01*
X113732969Y-84493560D01*
X113840631Y-84493560D01*
X113840633Y-84493560D01*
X113941805Y-84456737D01*
X114024281Y-84387531D01*
X114064240Y-84318319D01*
X114119656Y-84262904D01*
X114195356Y-84242620D01*
X114271056Y-84262904D01*
X114326472Y-84318320D01*
X114327924Y-84321434D01*
X114333685Y-84331413D01*
X114333686Y-84331414D01*
X114372863Y-84399271D01*
X114387520Y-84424656D01*
X114398475Y-84433848D01*
X114469995Y-84493861D01*
X114571167Y-84530684D01*
X114571169Y-84530684D01*
X114678831Y-84530684D01*
X114678833Y-84530684D01*
X114780005Y-84493861D01*
X114862481Y-84424655D01*
X114891872Y-84373747D01*
X114947285Y-84318334D01*
X115022985Y-84298050D01*
X115098685Y-84318333D01*
X115154100Y-84373746D01*
X115165895Y-84394175D01*
X115248371Y-84463381D01*
X115349543Y-84500204D01*
X115349545Y-84500204D01*
X115457207Y-84500204D01*
X115457209Y-84500204D01*
X115558381Y-84463381D01*
X115640857Y-84394175D01*
X115669102Y-84345252D01*
X115724515Y-84289839D01*
X115800215Y-84269555D01*
X115875915Y-84289838D01*
X115931331Y-84345253D01*
X115962518Y-84399270D01*
X115962519Y-84399271D01*
X116044995Y-84468477D01*
X116146167Y-84505300D01*
X116146169Y-84505300D01*
X116253831Y-84505300D01*
X116253833Y-84505300D01*
X116355005Y-84468477D01*
X116437481Y-84399271D01*
X116468884Y-84344878D01*
X116524300Y-84289463D01*
X116600000Y-84269179D01*
X116675700Y-84289463D01*
X116731115Y-84344878D01*
X116734327Y-84350441D01*
X116762517Y-84399269D01*
X116762519Y-84399271D01*
X116844995Y-84468477D01*
X116946167Y-84505300D01*
X116946169Y-84505300D01*
X117053831Y-84505300D01*
X117053833Y-84505300D01*
X117155005Y-84468477D01*
X117237481Y-84399271D01*
X117291314Y-84306030D01*
X117307326Y-84215224D01*
X118298846Y-84215224D01*
X118317541Y-84321252D01*
X118317541Y-84321253D01*
X118317542Y-84321254D01*
X118371375Y-84414495D01*
X118453851Y-84483701D01*
X118555023Y-84520524D01*
X118555025Y-84520524D01*
X118662687Y-84520524D01*
X118662689Y-84520524D01*
X118763861Y-84483701D01*
X118846337Y-84414495D01*
X118877708Y-84360158D01*
X118933121Y-84304745D01*
X119008821Y-84284461D01*
X119084521Y-84304744D01*
X119139937Y-84360159D01*
X119162518Y-84399270D01*
X119162519Y-84399271D01*
X119244995Y-84468477D01*
X119346167Y-84505300D01*
X119346169Y-84505300D01*
X119453831Y-84505300D01*
X119453833Y-84505300D01*
X119555005Y-84468477D01*
X119637481Y-84399271D01*
X119668884Y-84344878D01*
X119724300Y-84289463D01*
X119800000Y-84269179D01*
X119875700Y-84289463D01*
X119931115Y-84344878D01*
X119934327Y-84350441D01*
X119962517Y-84399269D01*
X119962519Y-84399271D01*
X120044995Y-84468477D01*
X120146167Y-84505300D01*
X120146169Y-84505300D01*
X120253831Y-84505300D01*
X120253833Y-84505300D01*
X120355005Y-84468477D01*
X120437481Y-84399271D01*
X120491314Y-84306030D01*
X120496087Y-84278961D01*
X123078300Y-84278961D01*
X123087479Y-84325108D01*
X123109109Y-84433848D01*
X123138706Y-84505300D01*
X123169543Y-84579747D01*
X123257279Y-84711054D01*
X123368946Y-84822721D01*
X123500253Y-84910457D01*
X123646153Y-84970891D01*
X123801039Y-85001700D01*
X123958961Y-85001700D01*
X124113847Y-84970891D01*
X124259747Y-84910457D01*
X124391054Y-84822721D01*
X124502721Y-84711054D01*
X124590457Y-84579747D01*
X124650891Y-84433847D01*
X124681700Y-84278961D01*
X124681700Y-84121039D01*
X124650891Y-83966153D01*
X124590457Y-83820253D01*
X124502721Y-83688946D01*
X124391054Y-83577279D01*
X124259747Y-83489543D01*
X124227781Y-83476302D01*
X124113848Y-83429109D01*
X123958961Y-83398300D01*
X123801039Y-83398300D01*
X123646151Y-83429109D01*
X123500252Y-83489543D01*
X123368944Y-83577280D01*
X123257280Y-83688944D01*
X123169543Y-83820252D01*
X123109109Y-83966151D01*
X123091423Y-84055064D01*
X123078300Y-84121039D01*
X123078300Y-84278961D01*
X120496087Y-84278961D01*
X120510010Y-84200000D01*
X120509111Y-84194904D01*
X120494225Y-84110477D01*
X120491314Y-84093970D01*
X120437481Y-84000729D01*
X120437477Y-84000726D01*
X120355006Y-83931524D01*
X120355005Y-83931523D01*
X120253833Y-83894700D01*
X120253832Y-83894700D01*
X120253829Y-83894699D01*
X120240789Y-83892400D01*
X120241112Y-83890563D01*
X120183743Y-83875191D01*
X120178423Y-83880512D01*
X120154504Y-83891666D01*
X120146168Y-83894700D01*
X120146167Y-83894700D01*
X120047380Y-83930655D01*
X120044995Y-83931523D01*
X120044993Y-83931524D01*
X119962520Y-84000727D01*
X119962519Y-84000729D01*
X119942531Y-84035350D01*
X119931116Y-84055121D01*
X119875699Y-84110537D01*
X119799999Y-84130820D01*
X119724299Y-84110536D01*
X119668884Y-84055121D01*
X119657470Y-84035351D01*
X119637481Y-84000729D01*
X119637477Y-84000726D01*
X119555006Y-83931524D01*
X119555005Y-83931523D01*
X119453833Y-83894700D01*
X119453831Y-83894700D01*
X119441385Y-83890170D01*
X119442427Y-83887306D01*
X119391387Y-83863498D01*
X119347544Y-83894198D01*
X119244998Y-83931521D01*
X119244993Y-83931524D01*
X119162520Y-84000727D01*
X119162518Y-84000729D01*
X119131148Y-84055064D01*
X119075731Y-84110479D01*
X119000031Y-84130762D01*
X118924331Y-84110477D01*
X118868917Y-84055063D01*
X118863995Y-84046538D01*
X118846337Y-84015953D01*
X118828191Y-84000727D01*
X118763862Y-83946748D01*
X118763861Y-83946747D01*
X118756313Y-83943999D01*
X118732856Y-83935462D01*
X118668659Y-83890510D01*
X118635539Y-83819482D01*
X118642370Y-83741410D01*
X118687322Y-83677213D01*
X118732854Y-83650925D01*
X118777069Y-83634833D01*
X118859545Y-83565627D01*
X118891127Y-83510924D01*
X118946541Y-83455510D01*
X119022241Y-83435226D01*
X119097941Y-83455509D01*
X119138223Y-83489310D01*
X119145569Y-83498065D01*
X119181890Y-83528542D01*
X119228043Y-83567269D01*
X119329215Y-83604092D01*
X119329217Y-83604092D01*
X119341663Y-83608622D01*
X119340620Y-83611487D01*
X119391659Y-83635287D01*
X119435504Y-83604592D01*
X119436878Y-83604092D01*
X119436881Y-83604092D01*
X119538053Y-83567269D01*
X119620529Y-83498063D01*
X119641805Y-83461211D01*
X119697218Y-83405798D01*
X119772918Y-83385514D01*
X119848618Y-83405797D01*
X119904034Y-83461212D01*
X119921790Y-83491966D01*
X119921792Y-83491968D01*
X119946541Y-83512735D01*
X120004267Y-83561173D01*
X120105439Y-83597996D01*
X120105442Y-83597996D01*
X120118483Y-83600296D01*
X120118159Y-83602132D01*
X120175528Y-83617504D01*
X120180849Y-83612184D01*
X120204768Y-83601030D01*
X120213104Y-83597996D01*
X120213105Y-83597996D01*
X120314277Y-83561173D01*
X120396753Y-83491967D01*
X120450586Y-83398726D01*
X120469282Y-83292696D01*
X120467742Y-83283965D01*
X120455960Y-83217146D01*
X120450586Y-83186666D01*
X120396753Y-83093425D01*
X120351813Y-83055716D01*
X120314278Y-83024220D01*
X120314277Y-83024219D01*
X120213105Y-82987396D01*
X120105439Y-82987396D01*
X120004267Y-83024219D01*
X120004266Y-83024219D01*
X120004265Y-83024220D01*
X119921792Y-83093423D01*
X119921790Y-83093425D01*
X119900515Y-83130275D01*
X119845098Y-83185690D01*
X119769398Y-83205973D01*
X119693698Y-83185688D01*
X119638284Y-83130274D01*
X119620529Y-83099521D01*
X119619318Y-83098505D01*
X119555196Y-83044700D01*
X119538053Y-83030315D01*
X119436881Y-82993492D01*
X119329215Y-82993492D01*
X119228043Y-83030315D01*
X119228042Y-83030315D01*
X119228041Y-83030316D01*
X119145568Y-83099519D01*
X119145566Y-83099521D01*
X119113984Y-83154223D01*
X119058567Y-83209638D01*
X118982867Y-83229921D01*
X118907167Y-83209636D01*
X118866887Y-83175836D01*
X118859542Y-83167082D01*
X118796509Y-83114191D01*
X118777069Y-83097879D01*
X118675897Y-83061056D01*
X118568231Y-83061056D01*
X118467059Y-83097879D01*
X118467058Y-83097879D01*
X118467057Y-83097880D01*
X118384584Y-83167083D01*
X118330749Y-83260327D01*
X118312054Y-83366355D01*
X118312054Y-83366356D01*
X118330749Y-83472384D01*
X118330749Y-83472385D01*
X118330750Y-83472386D01*
X118383785Y-83564245D01*
X118384584Y-83565628D01*
X118393196Y-83572854D01*
X118467059Y-83634833D01*
X118498062Y-83646117D01*
X118562259Y-83691068D01*
X118595380Y-83762095D01*
X118588550Y-83840167D01*
X118543598Y-83904365D01*
X118498063Y-83930655D01*
X118453853Y-83946746D01*
X118453849Y-83946748D01*
X118371376Y-84015951D01*
X118317541Y-84109195D01*
X118298846Y-84215223D01*
X118298846Y-84215224D01*
X117307326Y-84215224D01*
X117310010Y-84200000D01*
X117309111Y-84194904D01*
X117294225Y-84110477D01*
X117291314Y-84093970D01*
X117237481Y-84000729D01*
X117237477Y-84000726D01*
X117155006Y-83931524D01*
X117155005Y-83931523D01*
X117155003Y-83931522D01*
X117155001Y-83931521D01*
X117107427Y-83914206D01*
X117043230Y-83869255D01*
X117010109Y-83798227D01*
X117016940Y-83720155D01*
X117061891Y-83655958D01*
X117107424Y-83629669D01*
X117161629Y-83609941D01*
X117244105Y-83540735D01*
X117297938Y-83447494D01*
X117316634Y-83341464D01*
X117315038Y-83332415D01*
X117305964Y-83280950D01*
X117297938Y-83235434D01*
X117244105Y-83142193D01*
X117229575Y-83130001D01*
X117161630Y-83072988D01*
X117161629Y-83072987D01*
X117060457Y-83036164D01*
X116952791Y-83036164D01*
X116851619Y-83072987D01*
X116851618Y-83072987D01*
X116851617Y-83072988D01*
X116769144Y-83142191D01*
X116769141Y-83142195D01*
X116741913Y-83189355D01*
X116686497Y-83244771D01*
X116610796Y-83265054D01*
X116535097Y-83244769D01*
X116479682Y-83189355D01*
X116478130Y-83186667D01*
X116442481Y-83124921D01*
X116441270Y-83123905D01*
X116360006Y-83055716D01*
X116360005Y-83055715D01*
X116258833Y-83018892D01*
X116151167Y-83018892D01*
X116049995Y-83055715D01*
X116049994Y-83055715D01*
X116049993Y-83055716D01*
X115967520Y-83124919D01*
X115919341Y-83208367D01*
X115863924Y-83263783D01*
X115788224Y-83284066D01*
X115712524Y-83263782D01*
X115657109Y-83208367D01*
X115656571Y-83207435D01*
X115608345Y-83123905D01*
X115596768Y-83114191D01*
X115525870Y-83054700D01*
X115525869Y-83054699D01*
X115424697Y-83017876D01*
X115317031Y-83017876D01*
X115215859Y-83054699D01*
X115215858Y-83054699D01*
X115215857Y-83054700D01*
X115133384Y-83123903D01*
X115133380Y-83123908D01*
X115130499Y-83128899D01*
X115075081Y-83184313D01*
X114999380Y-83204594D01*
X114923681Y-83184307D01*
X114902068Y-83169173D01*
X114827507Y-83106609D01*
X114827506Y-83106608D01*
X114726334Y-83069785D01*
X114618668Y-83069785D01*
X114517496Y-83106608D01*
X114517495Y-83106608D01*
X114517494Y-83106609D01*
X114435021Y-83175812D01*
X114435018Y-83175816D01*
X114403066Y-83231158D01*
X114347650Y-83286574D01*
X114271949Y-83306857D01*
X114196250Y-83286572D01*
X114140834Y-83231156D01*
X114130801Y-83203591D01*
X114129145Y-83204194D01*
X114124615Y-83191748D01*
X114124614Y-83191746D01*
X114070781Y-83098505D01*
X114070036Y-83097880D01*
X113988306Y-83029300D01*
X113988305Y-83029299D01*
X113887133Y-82992476D01*
X113779467Y-82992476D01*
X113678295Y-83029299D01*
X113678294Y-83029299D01*
X113678293Y-83029300D01*
X113595820Y-83098503D01*
X113595818Y-83098505D01*
X113540972Y-83193500D01*
X113485555Y-83248915D01*
X113409855Y-83269198D01*
X113334155Y-83248913D01*
X113278741Y-83193498D01*
X113277729Y-83191746D01*
X113242081Y-83130001D01*
X113240368Y-83128564D01*
X113184309Y-83081524D01*
X113159605Y-83060795D01*
X113058433Y-83023972D01*
X112950767Y-83023972D01*
X112849595Y-83060795D01*
X112849594Y-83060795D01*
X112849593Y-83060796D01*
X112767120Y-83129999D01*
X112711962Y-83225535D01*
X112656545Y-83280951D01*
X112580845Y-83301234D01*
X112505145Y-83280950D01*
X112449729Y-83225533D01*
X112438577Y-83201618D01*
X112437387Y-83198348D01*
X112429089Y-83183976D01*
X112383554Y-83105107D01*
X112374941Y-83097880D01*
X112301079Y-83035902D01*
X112301078Y-83035901D01*
X112199906Y-82999078D01*
X112092240Y-82999078D01*
X111991068Y-83035901D01*
X111991067Y-83035901D01*
X111991066Y-83035902D01*
X111908593Y-83105105D01*
X111895049Y-83128564D01*
X111839631Y-83183979D01*
X111763931Y-83204261D01*
X111688231Y-83183976D01*
X111632819Y-83128563D01*
X111615465Y-83098505D01*
X111614720Y-83097880D01*
X111532990Y-83029300D01*
X111532989Y-83029299D01*
X111431817Y-82992476D01*
X111324151Y-82992476D01*
X111222979Y-83029299D01*
X111222978Y-83029299D01*
X111222977Y-83029300D01*
X111130356Y-83107019D01*
X111129573Y-83106086D01*
X111076441Y-83143285D01*
X110998368Y-83150109D01*
X110927352Y-83116990D01*
X110841543Y-83044988D01*
X110841542Y-83044987D01*
X110740370Y-83008164D01*
X110632704Y-83008164D01*
X110531532Y-83044987D01*
X110531531Y-83044987D01*
X110531530Y-83044988D01*
X110449057Y-83114191D01*
X110395222Y-83207435D01*
X110381728Y-83283967D01*
X110358832Y-83333065D01*
X110383979Y-83368978D01*
X110390810Y-83394468D01*
X110395223Y-83419494D01*
X110449056Y-83512735D01*
X110531532Y-83581941D01*
X110584217Y-83601116D01*
X110648413Y-83646066D01*
X110654007Y-83658062D01*
X110656783Y-83654099D01*
X110727810Y-83620978D01*
X110727813Y-83620978D01*
X110740365Y-83618764D01*
X110740370Y-83618764D01*
X110841542Y-83581941D01*
X110924018Y-83512735D01*
X110924017Y-83512735D01*
X110934165Y-83504221D01*
X110934948Y-83505154D01*
X110988064Y-83467960D01*
X111066136Y-83461127D01*
X111137165Y-83494246D01*
X111137168Y-83494249D01*
X111185459Y-83534770D01*
X111222979Y-83566253D01*
X111324151Y-83603076D01*
X111324153Y-83603076D01*
X111333475Y-83606469D01*
X111374597Y-83635262D01*
X111376142Y-83633056D01*
X111421679Y-83606765D01*
X111431815Y-83603076D01*
X111431817Y-83603076D01*
X111532989Y-83566253D01*
X111615465Y-83497047D01*
X111629006Y-83473592D01*
X111684420Y-83418177D01*
X111760120Y-83397892D01*
X111835820Y-83418175D01*
X111891237Y-83473590D01*
X111908591Y-83503648D01*
X111908593Y-83503650D01*
X111930993Y-83522446D01*
X111991068Y-83572855D01*
X112092240Y-83609678D01*
X112092243Y-83609678D01*
X112099647Y-83610984D01*
X112164767Y-83641350D01*
X112220931Y-83602025D01*
X112301078Y-83572855D01*
X112383554Y-83503649D01*
X112437387Y-83410408D01*
X112437387Y-83410405D01*
X112438710Y-83408115D01*
X112494126Y-83352699D01*
X112569826Y-83332415D01*
X112645526Y-83352699D01*
X112700942Y-83408115D01*
X112712093Y-83432026D01*
X112713284Y-83435297D01*
X112713285Y-83435299D01*
X112713286Y-83435302D01*
X112767119Y-83528543D01*
X112767120Y-83528544D01*
X112791823Y-83549272D01*
X112849595Y-83597749D01*
X112914933Y-83621530D01*
X112979128Y-83666479D01*
X113000359Y-83712007D01*
X113044131Y-83649494D01*
X113089665Y-83623204D01*
X113159605Y-83597749D01*
X113242081Y-83528543D01*
X113295914Y-83435302D01*
X113295914Y-83435301D01*
X113296926Y-83433549D01*
X113352342Y-83378133D01*
X113428042Y-83357849D01*
X113503742Y-83378133D01*
X113559157Y-83433547D01*
X113595818Y-83497046D01*
X113595820Y-83497048D01*
X113615965Y-83513952D01*
X113678295Y-83566253D01*
X113751355Y-83592844D01*
X113815549Y-83637793D01*
X113817814Y-83642650D01*
X113823210Y-83634944D01*
X113875722Y-83610456D01*
X113874685Y-83607606D01*
X113887131Y-83603076D01*
X113887133Y-83603076D01*
X113988305Y-83566253D01*
X114070781Y-83497047D01*
X114102735Y-83441700D01*
X114158148Y-83386287D01*
X114233848Y-83366003D01*
X114309548Y-83386286D01*
X114364965Y-83441702D01*
X114375002Y-83469268D01*
X114376656Y-83468667D01*
X114381185Y-83481112D01*
X114394197Y-83503649D01*
X114434153Y-83572855D01*
X114435021Y-83574357D01*
X114444057Y-83581939D01*
X114517496Y-83643562D01*
X114533321Y-83649322D01*
X114597516Y-83694272D01*
X114630637Y-83765299D01*
X114623807Y-83843372D01*
X114578855Y-83907569D01*
X114533319Y-83933859D01*
X114469998Y-83956905D01*
X114469993Y-83956908D01*
X114387520Y-84026111D01*
X114387518Y-84026113D01*
X114347558Y-84095325D01*
X114292141Y-84150741D01*
X114216440Y-84171023D01*
X114140741Y-84150738D01*
X114085325Y-84095321D01*
X114083871Y-84092202D01*
X114073876Y-84074890D01*
X114024281Y-83988989D01*
X113986047Y-83956907D01*
X113955794Y-83931521D01*
X113941805Y-83919783D01*
X113868745Y-83893191D01*
X113804549Y-83848241D01*
X113802284Y-83843385D01*
X113796890Y-83851090D01*
X113744378Y-83875582D01*
X113745415Y-83878430D01*
X113732969Y-83882960D01*
X113732967Y-83882960D01*
X113631795Y-83919783D01*
X113631794Y-83919783D01*
X113631793Y-83919784D01*
X113549320Y-83988987D01*
X113521125Y-84037821D01*
X113465707Y-84093236D01*
X113390007Y-84113518D01*
X113314307Y-84093233D01*
X113258894Y-84037818D01*
X113257470Y-84035351D01*
X113237481Y-84000729D01*
X113237477Y-84000726D01*
X113155006Y-83931524D01*
X113155005Y-83931523D01*
X113155003Y-83931522D01*
X113155001Y-83931521D01*
X113089667Y-83907742D01*
X113025470Y-83862791D01*
X113004240Y-83817263D01*
X112960469Y-83879776D01*
X112914933Y-83906067D01*
X112844997Y-83931522D01*
X112844993Y-83931524D01*
X112762520Y-84000727D01*
X112762519Y-84000729D01*
X112742531Y-84035350D01*
X112731116Y-84055121D01*
X112675699Y-84110537D01*
X112599999Y-84130820D01*
X112524299Y-84110536D01*
X112468884Y-84055121D01*
X112457470Y-84035351D01*
X112437481Y-84000729D01*
X112437477Y-84000726D01*
X112355006Y-83931524D01*
X112355005Y-83931523D01*
X112253833Y-83894700D01*
X112253832Y-83894700D01*
X112253827Y-83894698D01*
X112246419Y-83893392D01*
X112181304Y-83863025D01*
X112125139Y-83902353D01*
X112044998Y-83931521D01*
X112044993Y-83931524D01*
X111962520Y-84000727D01*
X111962518Y-84000729D01*
X111919700Y-84074892D01*
X111864283Y-84130307D01*
X111788583Y-84150590D01*
X111712883Y-84130305D01*
X111657470Y-84074891D01*
X111614652Y-84000728D01*
X111562428Y-83956907D01*
X111555564Y-83951147D01*
X111532176Y-83931522D01*
X111532174Y-83931521D01*
X111532172Y-83931520D01*
X111421678Y-83891304D01*
X111380557Y-83862511D01*
X111379013Y-83864718D01*
X111333476Y-83891008D01*
X111222169Y-83931520D01*
X111222164Y-83931523D01*
X111139691Y-84000726D01*
X111139689Y-84000728D01*
X111119700Y-84035351D01*
X111064283Y-84090766D01*
X110988583Y-84111049D01*
X110912883Y-84090764D01*
X110857470Y-84035351D01*
X110837481Y-84000729D01*
X110837477Y-84000726D01*
X110755006Y-83931524D01*
X110755005Y-83931523D01*
X110702316Y-83912346D01*
X110638122Y-83867396D01*
X110632528Y-83855400D01*
X110629754Y-83859363D01*
X110558729Y-83892484D01*
X110546174Y-83894698D01*
X110546169Y-83894700D01*
X110546167Y-83894700D01*
X110444995Y-83931523D01*
X110444994Y-83931523D01*
X110444993Y-83931524D01*
X110362520Y-84000727D01*
X110362519Y-84000729D01*
X110342531Y-84035350D01*
X110331116Y-84055121D01*
X110275699Y-84110537D01*
X110199999Y-84130820D01*
X110124299Y-84110536D01*
X110068884Y-84055121D01*
X110057470Y-84035351D01*
X110037481Y-84000729D01*
X110037477Y-84000726D01*
X109955006Y-83931524D01*
X109955005Y-83931523D01*
X109930312Y-83922535D01*
X109866116Y-83877585D01*
X109832995Y-83806558D01*
X109839825Y-83728486D01*
X109884777Y-83664288D01*
X109930311Y-83637998D01*
X109942807Y-83633451D01*
X110025283Y-83564245D01*
X110079116Y-83471004D01*
X110092611Y-83394469D01*
X110115505Y-83345371D01*
X110090358Y-83309458D01*
X110083528Y-83283965D01*
X110079116Y-83258945D01*
X110079116Y-83258944D01*
X110025283Y-83165703D01*
X110007435Y-83150727D01*
X109963894Y-83114191D01*
X109942807Y-83096497D01*
X109841635Y-83059674D01*
X109733969Y-83059674D01*
X109632797Y-83096497D01*
X109632796Y-83096497D01*
X109632795Y-83096498D01*
X109550322Y-83165701D01*
X109496487Y-83258945D01*
X109477792Y-83364973D01*
X109477792Y-83364974D01*
X107707370Y-83364974D01*
X107710010Y-83350000D01*
X107704646Y-83319582D01*
X107695032Y-83265054D01*
X107691314Y-83243970D01*
X107637481Y-83150729D01*
X107627308Y-83142193D01*
X107555006Y-83081524D01*
X107555005Y-83081523D01*
X107453833Y-83044700D01*
X107346167Y-83044700D01*
X107244995Y-83081523D01*
X107244994Y-83081523D01*
X107244993Y-83081524D01*
X107162520Y-83150727D01*
X107108685Y-83243971D01*
X107089990Y-83349999D01*
X107089990Y-83350000D01*
X101632454Y-83350000D01*
X101639244Y-83319582D01*
X102163536Y-82200000D01*
X109489990Y-82200000D01*
X109508685Y-82306028D01*
X109508685Y-82306029D01*
X109508686Y-82306030D01*
X109562518Y-82399270D01*
X109562520Y-82399272D01*
X109574007Y-82408911D01*
X109644995Y-82468477D01*
X109746167Y-82505300D01*
X109746169Y-82505300D01*
X109853831Y-82505300D01*
X109853833Y-82505300D01*
X109955005Y-82468477D01*
X110037481Y-82399271D01*
X110068884Y-82344878D01*
X110124300Y-82289463D01*
X110200000Y-82269179D01*
X110275700Y-82289463D01*
X110331115Y-82344878D01*
X110337668Y-82356228D01*
X110362518Y-82399270D01*
X110362520Y-82399272D01*
X110374007Y-82408911D01*
X110444995Y-82468477D01*
X110546167Y-82505300D01*
X110546169Y-82505300D01*
X110653831Y-82505300D01*
X110653833Y-82505300D01*
X110755005Y-82468477D01*
X110837481Y-82399271D01*
X110868884Y-82344878D01*
X110924300Y-82289463D01*
X111000000Y-82269179D01*
X111075700Y-82289463D01*
X111131115Y-82344878D01*
X111137668Y-82356228D01*
X111162518Y-82399270D01*
X111162520Y-82399272D01*
X111174007Y-82408911D01*
X111244995Y-82468477D01*
X111346167Y-82505300D01*
X111346169Y-82505300D01*
X111453831Y-82505300D01*
X111453833Y-82505300D01*
X111555005Y-82468477D01*
X111637481Y-82399271D01*
X111668884Y-82344878D01*
X111724300Y-82289463D01*
X111800000Y-82269179D01*
X111875700Y-82289463D01*
X111931115Y-82344878D01*
X111937668Y-82356228D01*
X111962518Y-82399270D01*
X111962520Y-82399272D01*
X111974007Y-82408911D01*
X112044995Y-82468477D01*
X112146167Y-82505300D01*
X112146169Y-82505300D01*
X112253831Y-82505300D01*
X112253833Y-82505300D01*
X112355005Y-82468477D01*
X112437481Y-82399271D01*
X112468884Y-82344878D01*
X112524300Y-82289463D01*
X112600000Y-82269179D01*
X112675700Y-82289463D01*
X112731115Y-82344878D01*
X112737668Y-82356228D01*
X112762518Y-82399270D01*
X112762520Y-82399272D01*
X112774007Y-82408911D01*
X112844995Y-82468477D01*
X112946167Y-82505300D01*
X112946169Y-82505300D01*
X113053831Y-82505300D01*
X113053833Y-82505300D01*
X113155005Y-82468477D01*
X113237481Y-82399271D01*
X113268884Y-82344878D01*
X113324300Y-82289463D01*
X113400000Y-82269179D01*
X113475700Y-82289463D01*
X113531115Y-82344878D01*
X113537668Y-82356228D01*
X113562518Y-82399270D01*
X113562520Y-82399272D01*
X113574007Y-82408911D01*
X113644995Y-82468477D01*
X113746167Y-82505300D01*
X113746169Y-82505300D01*
X113853831Y-82505300D01*
X113853833Y-82505300D01*
X113955005Y-82468477D01*
X114037481Y-82399271D01*
X114079221Y-82326974D01*
X114134636Y-82271560D01*
X114210336Y-82251276D01*
X114286036Y-82271560D01*
X114341452Y-82326976D01*
X114352605Y-82350893D01*
X114352784Y-82351387D01*
X114355579Y-82356228D01*
X114406619Y-82444631D01*
X114489095Y-82513837D01*
X114590267Y-82550660D01*
X114590269Y-82550660D01*
X114697931Y-82550660D01*
X114697933Y-82550660D01*
X114799105Y-82513837D01*
X114881581Y-82444631D01*
X114907702Y-82399387D01*
X114963118Y-82343972D01*
X115038818Y-82323688D01*
X115114518Y-82343972D01*
X115169933Y-82399387D01*
X115172499Y-82403831D01*
X115254975Y-82473037D01*
X115356147Y-82509860D01*
X115356149Y-82509860D01*
X115463811Y-82509860D01*
X115463813Y-82509860D01*
X115564985Y-82473037D01*
X115647461Y-82403831D01*
X115676179Y-82354089D01*
X115731592Y-82298676D01*
X115807292Y-82278392D01*
X115882992Y-82298675D01*
X115938407Y-82354089D01*
X115970059Y-82408911D01*
X116052535Y-82478117D01*
X116153707Y-82514940D01*
X116153709Y-82514940D01*
X116261371Y-82514940D01*
X116261373Y-82514940D01*
X116362545Y-82478117D01*
X116445021Y-82408911D01*
X116475438Y-82356226D01*
X116530851Y-82300813D01*
X116606551Y-82280529D01*
X116682251Y-82300812D01*
X116737666Y-82356226D01*
X116762519Y-82399272D01*
X116844995Y-82468478D01*
X116946167Y-82505301D01*
X116946169Y-82505301D01*
X117053831Y-82505301D01*
X117053833Y-82505301D01*
X117155005Y-82468478D01*
X117237481Y-82399272D01*
X117291314Y-82306031D01*
X117310010Y-82200001D01*
X117310010Y-82200000D01*
X118289990Y-82200000D01*
X118308685Y-82306028D01*
X118308685Y-82306029D01*
X118308686Y-82306030D01*
X118362518Y-82399270D01*
X118362520Y-82399272D01*
X118374007Y-82408911D01*
X118444995Y-82468477D01*
X118546167Y-82505300D01*
X118546169Y-82505300D01*
X118653831Y-82505300D01*
X118653833Y-82505300D01*
X118755005Y-82468477D01*
X118837481Y-82399271D01*
X118868884Y-82344878D01*
X118924300Y-82289463D01*
X119000000Y-82269179D01*
X119075700Y-82289463D01*
X119131115Y-82344878D01*
X119137668Y-82356228D01*
X119162518Y-82399270D01*
X119162520Y-82399272D01*
X119174007Y-82408911D01*
X119244995Y-82468477D01*
X119346167Y-82505300D01*
X119346169Y-82505300D01*
X119453831Y-82505300D01*
X119453833Y-82505300D01*
X119555005Y-82468477D01*
X119637481Y-82399271D01*
X119668884Y-82344878D01*
X119724300Y-82289463D01*
X119800000Y-82269179D01*
X119875700Y-82289463D01*
X119931115Y-82344878D01*
X119937668Y-82356228D01*
X119962518Y-82399270D01*
X119962520Y-82399272D01*
X119974007Y-82408911D01*
X120044995Y-82468477D01*
X120146167Y-82505300D01*
X120146169Y-82505300D01*
X120253831Y-82505300D01*
X120253833Y-82505300D01*
X120355005Y-82468477D01*
X120437481Y-82399271D01*
X120491314Y-82306030D01*
X120510010Y-82200000D01*
X120491314Y-82093970D01*
X120437481Y-82000729D01*
X120355005Y-81931523D01*
X120289465Y-81907668D01*
X120225269Y-81862718D01*
X120201496Y-81811738D01*
X120201020Y-81817182D01*
X120156069Y-81881379D01*
X120110533Y-81907669D01*
X120044998Y-81931521D01*
X120044993Y-81931524D01*
X119962520Y-82000727D01*
X119962519Y-82000729D01*
X119932103Y-82053412D01*
X119931116Y-82055121D01*
X119875699Y-82110537D01*
X119799999Y-82130820D01*
X119724299Y-82110536D01*
X119668884Y-82055121D01*
X119637481Y-82000729D01*
X119555005Y-81931523D01*
X119473768Y-81901955D01*
X119409573Y-81857005D01*
X119402804Y-81842489D01*
X119382246Y-81871850D01*
X119336710Y-81898141D01*
X119244996Y-81931522D01*
X119244993Y-81931524D01*
X119162520Y-82000727D01*
X119162519Y-82000729D01*
X119132103Y-82053412D01*
X119131116Y-82055121D01*
X119075699Y-82110537D01*
X118999999Y-82130820D01*
X118924299Y-82110536D01*
X118868884Y-82055121D01*
X118837481Y-82000729D01*
X118755005Y-81931523D01*
X118755003Y-81931522D01*
X118755001Y-81931521D01*
X118648560Y-81892780D01*
X118584363Y-81847829D01*
X118583457Y-81845887D01*
X118559475Y-81880139D01*
X118513940Y-81906429D01*
X118444996Y-81931522D01*
X118444993Y-81931524D01*
X118362520Y-82000727D01*
X118308685Y-82093971D01*
X118289990Y-82199999D01*
X118289990Y-82200000D01*
X117310010Y-82200000D01*
X117308966Y-82194083D01*
X117293934Y-82108828D01*
X117291314Y-82093971D01*
X117237481Y-82000730D01*
X117237477Y-82000727D01*
X117155006Y-81931525D01*
X117155005Y-81931524D01*
X117053833Y-81894701D01*
X116946167Y-81894701D01*
X116844995Y-81931524D01*
X116844994Y-81931524D01*
X116844993Y-81931525D01*
X116762520Y-82000728D01*
X116762519Y-82000730D01*
X116732104Y-82053411D01*
X116732103Y-82053412D01*
X116676686Y-82108828D01*
X116600986Y-82129111D01*
X116525286Y-82108827D01*
X116469871Y-82053411D01*
X116468210Y-82050534D01*
X116445021Y-82010369D01*
X116433531Y-82000728D01*
X116362546Y-81941164D01*
X116362545Y-81941163D01*
X116261373Y-81904340D01*
X116153707Y-81904340D01*
X116052535Y-81941163D01*
X116052534Y-81941163D01*
X116052533Y-81941164D01*
X115970060Y-82010367D01*
X115970058Y-82010369D01*
X115941341Y-82060109D01*
X115885924Y-82115524D01*
X115810224Y-82135807D01*
X115734524Y-82115522D01*
X115679110Y-82060107D01*
X115676231Y-82055121D01*
X115647461Y-82005289D01*
X115642025Y-82000728D01*
X115571039Y-81941163D01*
X115564985Y-81936083D01*
X115474783Y-81903252D01*
X115425605Y-81868817D01*
X115362869Y-81898074D01*
X115356152Y-81899258D01*
X115336450Y-81906429D01*
X115254975Y-81936083D01*
X115254974Y-81936083D01*
X115254973Y-81936084D01*
X115172500Y-82005287D01*
X115146376Y-82050534D01*
X115090958Y-82105949D01*
X115015258Y-82126231D01*
X114939558Y-82105946D01*
X114884146Y-82050532D01*
X114881581Y-82046089D01*
X114881578Y-82046086D01*
X114799106Y-81976884D01*
X114799105Y-81976883D01*
X114697933Y-81940060D01*
X114590267Y-81940060D01*
X114489095Y-81976883D01*
X114489094Y-81976883D01*
X114489093Y-81976884D01*
X114406620Y-82046087D01*
X114406617Y-82046091D01*
X114364878Y-82118384D01*
X114309462Y-82173800D01*
X114233761Y-82194083D01*
X114158062Y-82173798D01*
X114102646Y-82118382D01*
X114091492Y-82094460D01*
X114091314Y-82093972D01*
X114091314Y-82093970D01*
X114037481Y-82000729D01*
X113955005Y-81931523D01*
X113853833Y-81894700D01*
X113746167Y-81894700D01*
X113644995Y-81931523D01*
X113644994Y-81931523D01*
X113644993Y-81931524D01*
X113562520Y-82000727D01*
X113562519Y-82000729D01*
X113532103Y-82053412D01*
X113531116Y-82055121D01*
X113475699Y-82110537D01*
X113399999Y-82130820D01*
X113324299Y-82110536D01*
X113268884Y-82055121D01*
X113237481Y-82000729D01*
X113155005Y-81931523D01*
X113053833Y-81894700D01*
X112946167Y-81894700D01*
X112844995Y-81931523D01*
X112844994Y-81931523D01*
X112844993Y-81931524D01*
X112762520Y-82000727D01*
X112762519Y-82000729D01*
X112732103Y-82053412D01*
X112731116Y-82055121D01*
X112675699Y-82110537D01*
X112599999Y-82130820D01*
X112524299Y-82110536D01*
X112468884Y-82055121D01*
X112437481Y-82000729D01*
X112355005Y-81931523D01*
X112253833Y-81894700D01*
X112253832Y-81894700D01*
X112250936Y-81893646D01*
X112212405Y-81866666D01*
X112156019Y-81892962D01*
X112146172Y-81894698D01*
X112119681Y-81904340D01*
X112044995Y-81931523D01*
X112044994Y-81931523D01*
X112044993Y-81931524D01*
X111962520Y-82000727D01*
X111962519Y-82000729D01*
X111932103Y-82053412D01*
X111931116Y-82055121D01*
X111875699Y-82110537D01*
X111799999Y-82130820D01*
X111724299Y-82110536D01*
X111668884Y-82055121D01*
X111637481Y-82000729D01*
X111555005Y-81931523D01*
X111555003Y-81931522D01*
X111555001Y-81931521D01*
X111467515Y-81899679D01*
X111403318Y-81854728D01*
X111398624Y-81844662D01*
X111378677Y-81873150D01*
X111333141Y-81899440D01*
X111244998Y-81931521D01*
X111244993Y-81931524D01*
X111162520Y-82000727D01*
X111162519Y-82000729D01*
X111132103Y-82053412D01*
X111131116Y-82055121D01*
X111075699Y-82110537D01*
X110999999Y-82130820D01*
X110924299Y-82110536D01*
X110868884Y-82055121D01*
X110837481Y-82000729D01*
X110755005Y-81931523D01*
X110668529Y-81900049D01*
X110604333Y-81855098D01*
X110598631Y-81842872D01*
X110577005Y-81873759D01*
X110531469Y-81900049D01*
X110444998Y-81931521D01*
X110444993Y-81931524D01*
X110362520Y-82000727D01*
X110362519Y-82000729D01*
X110332103Y-82053412D01*
X110331116Y-82055121D01*
X110275699Y-82110537D01*
X110199999Y-82130820D01*
X110124299Y-82110536D01*
X110068884Y-82055121D01*
X110037481Y-82000729D01*
X109955005Y-81931523D01*
X109909986Y-81915137D01*
X109845790Y-81870187D01*
X109823326Y-81822015D01*
X109790550Y-81868828D01*
X109745013Y-81895119D01*
X109644996Y-81931522D01*
X109644993Y-81931524D01*
X109562520Y-82000727D01*
X109508685Y-82093971D01*
X109489990Y-82199999D01*
X109489990Y-82200000D01*
X102163536Y-82200000D01*
X102561585Y-81350000D01*
X107114990Y-81350000D01*
X107133685Y-81456028D01*
X107133685Y-81456029D01*
X107133686Y-81456030D01*
X107187519Y-81549271D01*
X107269995Y-81618477D01*
X107371167Y-81655300D01*
X107371169Y-81655300D01*
X107478831Y-81655300D01*
X107478833Y-81655300D01*
X107580005Y-81618477D01*
X107662481Y-81549271D01*
X107716314Y-81456030D01*
X107735010Y-81350000D01*
X107734404Y-81346566D01*
X107730728Y-81325720D01*
X109544990Y-81325720D01*
X109563685Y-81431748D01*
X109563685Y-81431749D01*
X109563686Y-81431750D01*
X109617519Y-81524991D01*
X109699995Y-81594197D01*
X109745012Y-81610581D01*
X109809208Y-81655530D01*
X109831672Y-81703702D01*
X109864451Y-81656890D01*
X109909985Y-81630600D01*
X110010005Y-81594197D01*
X110092481Y-81524991D01*
X110099316Y-81513151D01*
X110154727Y-81457737D01*
X110230426Y-81437450D01*
X110306127Y-81457731D01*
X110353505Y-81505106D01*
X110354007Y-81504686D01*
X110358809Y-81510410D01*
X110361545Y-81513145D01*
X110362516Y-81514827D01*
X110362520Y-81514832D01*
X110380681Y-81530071D01*
X110444995Y-81584037D01*
X110444998Y-81584038D01*
X110531469Y-81615511D01*
X110595666Y-81660462D01*
X110601366Y-81672687D01*
X110622994Y-81641801D01*
X110668528Y-81615511D01*
X110755005Y-81584037D01*
X110837481Y-81514831D01*
X110869496Y-81459378D01*
X110924909Y-81403965D01*
X111000609Y-81383681D01*
X111076309Y-81403964D01*
X111131725Y-81459379D01*
X111163175Y-81513852D01*
X111163177Y-81513854D01*
X111164343Y-81514832D01*
X111245652Y-81583059D01*
X111333141Y-81614902D01*
X111397338Y-81659853D01*
X111402031Y-81669918D01*
X111421979Y-81641431D01*
X111467511Y-81615142D01*
X111555662Y-81583059D01*
X111638138Y-81513853D01*
X111691016Y-81422265D01*
X111746432Y-81366850D01*
X111822132Y-81346566D01*
X111897832Y-81366850D01*
X111953246Y-81422263D01*
X111994959Y-81494511D01*
X111994960Y-81494512D01*
X112019175Y-81514831D01*
X112077435Y-81563717D01*
X112178607Y-81600540D01*
X112178610Y-81600540D01*
X112181503Y-81601593D01*
X112220033Y-81628572D01*
X112276426Y-81602276D01*
X112276427Y-81602276D01*
X112286269Y-81600540D01*
X112286273Y-81600540D01*
X112387445Y-81563717D01*
X112469921Y-81494511D01*
X112503039Y-81437148D01*
X112558451Y-81381737D01*
X112634150Y-81361452D01*
X112709851Y-81381735D01*
X112765267Y-81437151D01*
X112792517Y-81484348D01*
X112792520Y-81484352D01*
X112804594Y-81494483D01*
X112874995Y-81553557D01*
X112976167Y-81590380D01*
X112976169Y-81590380D01*
X113083831Y-81590380D01*
X113083833Y-81590380D01*
X113185005Y-81553557D01*
X113267481Y-81484351D01*
X113277345Y-81467265D01*
X113332759Y-81411851D01*
X113408459Y-81391567D01*
X113484159Y-81411850D01*
X113539573Y-81467263D01*
X113549439Y-81484351D01*
X113549440Y-81484352D01*
X113561514Y-81494483D01*
X113631915Y-81553557D01*
X113733087Y-81590380D01*
X113733089Y-81590380D01*
X113840751Y-81590380D01*
X113840753Y-81590380D01*
X113941925Y-81553557D01*
X114024401Y-81484351D01*
X114078234Y-81391110D01*
X114094124Y-81300991D01*
X114098948Y-81290646D01*
X114098687Y-81289672D01*
X114389290Y-81289672D01*
X114392324Y-81300992D01*
X114410005Y-81401268D01*
X114410005Y-81401269D01*
X114410006Y-81401270D01*
X114463838Y-81494510D01*
X114463840Y-81494512D01*
X114488055Y-81514831D01*
X114546315Y-81563717D01*
X114647487Y-81600540D01*
X114647489Y-81600540D01*
X114755151Y-81600540D01*
X114755153Y-81600540D01*
X114856325Y-81563717D01*
X114938801Y-81494511D01*
X114943191Y-81486906D01*
X114998607Y-81431491D01*
X115074307Y-81411207D01*
X115150007Y-81431491D01*
X115205421Y-81486904D01*
X115215679Y-81504671D01*
X115215680Y-81504672D01*
X115226623Y-81513854D01*
X115298155Y-81573877D01*
X115388355Y-81606706D01*
X115437534Y-81641141D01*
X115500277Y-81611884D01*
X115500278Y-81611884D01*
X115506989Y-81610700D01*
X115506993Y-81610700D01*
X115608165Y-81573877D01*
X115690641Y-81504671D01*
X115733663Y-81430154D01*
X115789078Y-81374740D01*
X115864778Y-81354456D01*
X115940478Y-81374740D01*
X115995893Y-81430155D01*
X116000105Y-81437450D01*
X116033032Y-81494482D01*
X116033034Y-81494484D01*
X116045176Y-81504672D01*
X116115509Y-81563689D01*
X116216681Y-81600512D01*
X116216683Y-81600512D01*
X116324345Y-81600512D01*
X116324347Y-81600512D01*
X116425519Y-81563689D01*
X116507995Y-81494483D01*
X116523587Y-81467476D01*
X116578998Y-81412063D01*
X116654698Y-81391778D01*
X116730398Y-81412060D01*
X116785816Y-81467475D01*
X116785816Y-81467476D01*
X116795558Y-81484350D01*
X116795560Y-81484352D01*
X116807634Y-81494483D01*
X116878035Y-81553557D01*
X116979207Y-81590380D01*
X116979209Y-81590380D01*
X117086871Y-81590380D01*
X117086873Y-81590380D01*
X117188045Y-81553557D01*
X117270521Y-81484351D01*
X117324354Y-81391110D01*
X117337832Y-81314672D01*
X118252490Y-81314672D01*
X118271185Y-81420700D01*
X118271185Y-81420701D01*
X118271186Y-81420702D01*
X118325018Y-81513942D01*
X118325020Y-81513944D01*
X118326077Y-81514831D01*
X118407495Y-81583149D01*
X118508667Y-81619972D01*
X118508668Y-81619972D01*
X118513938Y-81621890D01*
X118578136Y-81666842D01*
X118579041Y-81668783D01*
X118603024Y-81634532D01*
X118648558Y-81608243D01*
X118717505Y-81583149D01*
X118799981Y-81513943D01*
X118853814Y-81420702D01*
X118853814Y-81420700D01*
X118855117Y-81418444D01*
X118910533Y-81363028D01*
X118986233Y-81342744D01*
X119061933Y-81363028D01*
X119117349Y-81418443D01*
X119119166Y-81421590D01*
X119172486Y-81513943D01*
X119173000Y-81514832D01*
X119191161Y-81530071D01*
X119255475Y-81584037D01*
X119336710Y-81613603D01*
X119400905Y-81658553D01*
X119407674Y-81673069D01*
X119428234Y-81643708D01*
X119473768Y-81617418D01*
X119565485Y-81584037D01*
X119647961Y-81514831D01*
X119669726Y-81477132D01*
X119725139Y-81421719D01*
X119800839Y-81401435D01*
X119876539Y-81421718D01*
X119931955Y-81477133D01*
X119959587Y-81524993D01*
X119962520Y-81530072D01*
X119985402Y-81549272D01*
X120044995Y-81599277D01*
X120044998Y-81599278D01*
X120110533Y-81623131D01*
X120174730Y-81668082D01*
X120198501Y-81719060D01*
X120198978Y-81713619D01*
X120243930Y-81649421D01*
X120289464Y-81623131D01*
X120355005Y-81599277D01*
X120437481Y-81530071D01*
X120491314Y-81436830D01*
X120510010Y-81330800D01*
X120491314Y-81224770D01*
X120437481Y-81131529D01*
X120436688Y-81130864D01*
X120377888Y-81081524D01*
X120355005Y-81062323D01*
X120253833Y-81025500D01*
X120146167Y-81025500D01*
X120044995Y-81062323D01*
X120044994Y-81062323D01*
X120044993Y-81062324D01*
X119962520Y-81131527D01*
X119962518Y-81131529D01*
X119940754Y-81169226D01*
X119885337Y-81224641D01*
X119809637Y-81244924D01*
X119733937Y-81224639D01*
X119678523Y-81169224D01*
X119647961Y-81116289D01*
X119647959Y-81116287D01*
X119565486Y-81047084D01*
X119565485Y-81047083D01*
X119464313Y-81010260D01*
X119356647Y-81010260D01*
X119255475Y-81047083D01*
X119255474Y-81047083D01*
X119255473Y-81047084D01*
X119173000Y-81116287D01*
X119172997Y-81116291D01*
X119117861Y-81211788D01*
X119062445Y-81267204D01*
X118986744Y-81287487D01*
X118911045Y-81267202D01*
X118855630Y-81211788D01*
X118851035Y-81203829D01*
X118799981Y-81115401D01*
X118799871Y-81115309D01*
X118717506Y-81046196D01*
X118717505Y-81046195D01*
X118616333Y-81009372D01*
X118508667Y-81009372D01*
X118407495Y-81046195D01*
X118407494Y-81046195D01*
X118407493Y-81046196D01*
X118325020Y-81115399D01*
X118271185Y-81208643D01*
X118252490Y-81314671D01*
X118252490Y-81314672D01*
X117337832Y-81314672D01*
X117343050Y-81285080D01*
X117342035Y-81279326D01*
X117327798Y-81198583D01*
X117324354Y-81179050D01*
X117270521Y-81085809D01*
X117265414Y-81081524D01*
X117188046Y-81016604D01*
X117188045Y-81016603D01*
X117086873Y-80979780D01*
X116979207Y-80979780D01*
X116878035Y-81016603D01*
X116878034Y-81016603D01*
X116878033Y-81016604D01*
X116795560Y-81085807D01*
X116795559Y-81085809D01*
X116783825Y-81106134D01*
X116779968Y-81112814D01*
X116724551Y-81168230D01*
X116648851Y-81188513D01*
X116573151Y-81168229D01*
X116517737Y-81112815D01*
X116507995Y-81095941D01*
X116495920Y-81085809D01*
X116437662Y-81036924D01*
X116425519Y-81026735D01*
X116324347Y-80989912D01*
X116216681Y-80989912D01*
X116115509Y-81026735D01*
X116115508Y-81026735D01*
X116115507Y-81026736D01*
X116033034Y-81095939D01*
X116033032Y-81095941D01*
X115990010Y-81170457D01*
X115934593Y-81225872D01*
X115858893Y-81246155D01*
X115783193Y-81225870D01*
X115727780Y-81170456D01*
X115690641Y-81106129D01*
X115678530Y-81095967D01*
X115619109Y-81046106D01*
X115608165Y-81036923D01*
X115506993Y-81000100D01*
X115399327Y-81000100D01*
X115298155Y-81036923D01*
X115298154Y-81036923D01*
X115298153Y-81036924D01*
X115215680Y-81106127D01*
X115215674Y-81106134D01*
X115211283Y-81113740D01*
X115155864Y-81169153D01*
X115080162Y-81189432D01*
X115004464Y-81169143D01*
X114949057Y-81113733D01*
X114938801Y-81095969D01*
X114938765Y-81095939D01*
X114856326Y-81026764D01*
X114856325Y-81026763D01*
X114755153Y-80989940D01*
X114647487Y-80989940D01*
X114546315Y-81026763D01*
X114546314Y-81026763D01*
X114546313Y-81026764D01*
X114463840Y-81095967D01*
X114410005Y-81189211D01*
X114394115Y-81279328D01*
X114389290Y-81289672D01*
X114098687Y-81289672D01*
X114095915Y-81279326D01*
X114093777Y-81267202D01*
X114078234Y-81179050D01*
X114024401Y-81085809D01*
X114019294Y-81081524D01*
X113941926Y-81016604D01*
X113941925Y-81016603D01*
X113840753Y-80979780D01*
X113733087Y-80979780D01*
X113631915Y-81016603D01*
X113631914Y-81016603D01*
X113631913Y-81016604D01*
X113549440Y-81085807D01*
X113549439Y-81085809D01*
X113539574Y-81102894D01*
X113484159Y-81158309D01*
X113408459Y-81178592D01*
X113332759Y-81158308D01*
X113277345Y-81102894D01*
X113267481Y-81085809D01*
X113262374Y-81081524D01*
X113185006Y-81016604D01*
X113185005Y-81016603D01*
X113083833Y-80979780D01*
X112976167Y-80979780D01*
X112874995Y-81016603D01*
X112874994Y-81016603D01*
X112874993Y-81016604D01*
X112792520Y-81085807D01*
X112792519Y-81085809D01*
X112763442Y-81136173D01*
X112759403Y-81143168D01*
X112703986Y-81198584D01*
X112628286Y-81218867D01*
X112552586Y-81198583D01*
X112497171Y-81143168D01*
X112469921Y-81095969D01*
X112469885Y-81095939D01*
X112387446Y-81026764D01*
X112387445Y-81026763D01*
X112286273Y-80989940D01*
X112178607Y-80989940D01*
X112077435Y-81026763D01*
X112077434Y-81026763D01*
X112077433Y-81026764D01*
X111994960Y-81095967D01*
X111994958Y-81095969D01*
X111942079Y-81187557D01*
X111886662Y-81242972D01*
X111810962Y-81263255D01*
X111735262Y-81242970D01*
X111679848Y-81187555D01*
X111677533Y-81183546D01*
X111638138Y-81115311D01*
X111635162Y-81112814D01*
X111556829Y-81047084D01*
X111555662Y-81046105D01*
X111454490Y-81009282D01*
X111346824Y-81009282D01*
X111245652Y-81046105D01*
X111245651Y-81046105D01*
X111245650Y-81046106D01*
X111163177Y-81115309D01*
X111162611Y-81116289D01*
X111131338Y-81170457D01*
X111131162Y-81170761D01*
X111075745Y-81226177D01*
X111000045Y-81246460D01*
X110924345Y-81226176D01*
X110868931Y-81170762D01*
X110837481Y-81116289D01*
X110836420Y-81115399D01*
X110755006Y-81047084D01*
X110755005Y-81047083D01*
X110653833Y-81010260D01*
X110546167Y-81010260D01*
X110444995Y-81047083D01*
X110444994Y-81047083D01*
X110444993Y-81047084D01*
X110362520Y-81116287D01*
X110362518Y-81116289D01*
X110355682Y-81128131D01*
X110300265Y-81183546D01*
X110224565Y-81203829D01*
X110148865Y-81183544D01*
X110101494Y-81136173D01*
X110100993Y-81136594D01*
X110096185Y-81130864D01*
X110093452Y-81128131D01*
X110092481Y-81126449D01*
X110092479Y-81126447D01*
X110010006Y-81057244D01*
X110010005Y-81057243D01*
X109908833Y-81020420D01*
X109801167Y-81020420D01*
X109699995Y-81057243D01*
X109699994Y-81057243D01*
X109699993Y-81057244D01*
X109617520Y-81126447D01*
X109563685Y-81219691D01*
X109544990Y-81325719D01*
X109544990Y-81325720D01*
X107730728Y-81325720D01*
X107724544Y-81290646D01*
X107716314Y-81243970D01*
X107662481Y-81150729D01*
X107653470Y-81143168D01*
X107580006Y-81081524D01*
X107580005Y-81081523D01*
X107478833Y-81044700D01*
X107371167Y-81044700D01*
X107269995Y-81081523D01*
X107269994Y-81081523D01*
X107269993Y-81081524D01*
X107187520Y-81150727D01*
X107133685Y-81243971D01*
X107114990Y-81349999D01*
X107114990Y-81350000D01*
X102561585Y-81350000D01*
X103131263Y-80133500D01*
X109489990Y-80133500D01*
X109508685Y-80239528D01*
X109508685Y-80239529D01*
X109508686Y-80239530D01*
X109562519Y-80332771D01*
X109644995Y-80401977D01*
X109746167Y-80438800D01*
X109746169Y-80438800D01*
X109853831Y-80438800D01*
X109853833Y-80438800D01*
X109955005Y-80401977D01*
X110037481Y-80332771D01*
X110068884Y-80278378D01*
X110124300Y-80222963D01*
X110200000Y-80202679D01*
X110275700Y-80222963D01*
X110331115Y-80278378D01*
X110362519Y-80332771D01*
X110444995Y-80401977D01*
X110546167Y-80438800D01*
X110546169Y-80438800D01*
X110653831Y-80438800D01*
X110653833Y-80438800D01*
X110755005Y-80401977D01*
X110837481Y-80332771D01*
X110868884Y-80278378D01*
X110924300Y-80222963D01*
X111000000Y-80202679D01*
X111075700Y-80222963D01*
X111131115Y-80278378D01*
X111162519Y-80332771D01*
X111244995Y-80401977D01*
X111346167Y-80438800D01*
X111346169Y-80438800D01*
X111453831Y-80438800D01*
X111453833Y-80438800D01*
X111555005Y-80401977D01*
X111637481Y-80332771D01*
X111668884Y-80278378D01*
X111724300Y-80222963D01*
X111800000Y-80202679D01*
X111875700Y-80222963D01*
X111931115Y-80278378D01*
X111962519Y-80332771D01*
X112044995Y-80401977D01*
X112146167Y-80438800D01*
X112146169Y-80438800D01*
X112253831Y-80438800D01*
X112253833Y-80438800D01*
X112355005Y-80401977D01*
X112437481Y-80332771D01*
X112478556Y-80261626D01*
X112533969Y-80206213D01*
X112609669Y-80185929D01*
X112685369Y-80206212D01*
X112740785Y-80261627D01*
X112762519Y-80299271D01*
X112844995Y-80368477D01*
X112946167Y-80405300D01*
X112946169Y-80405300D01*
X113053831Y-80405300D01*
X113053833Y-80405300D01*
X113155005Y-80368477D01*
X113237481Y-80299271D01*
X113250697Y-80276379D01*
X113306113Y-80220964D01*
X113381813Y-80200680D01*
X113457513Y-80220964D01*
X113512927Y-80276377D01*
X113539459Y-80322331D01*
X113621935Y-80391537D01*
X113723107Y-80428360D01*
X113723109Y-80428360D01*
X113830771Y-80428360D01*
X113830773Y-80428360D01*
X113931945Y-80391537D01*
X114014421Y-80322331D01*
X114068254Y-80229090D01*
X114070551Y-80216061D01*
X114103668Y-80145035D01*
X114167863Y-80100081D01*
X114245935Y-80093247D01*
X114316964Y-80126365D01*
X114350767Y-80166647D01*
X114352785Y-80170143D01*
X114352786Y-80170144D01*
X114401459Y-80254448D01*
X114406620Y-80263386D01*
X114422106Y-80276380D01*
X114489095Y-80332591D01*
X114590267Y-80369414D01*
X114590269Y-80369414D01*
X114697931Y-80369414D01*
X114697933Y-80369414D01*
X114799105Y-80332591D01*
X114881581Y-80263385D01*
X114905575Y-80221825D01*
X114960989Y-80166411D01*
X115036689Y-80146127D01*
X115112389Y-80166410D01*
X115167805Y-80221825D01*
X115212519Y-80299271D01*
X115294995Y-80368477D01*
X115396167Y-80405300D01*
X115396169Y-80405300D01*
X115503831Y-80405300D01*
X115503833Y-80405300D01*
X115605005Y-80368477D01*
X115687481Y-80299271D01*
X115687483Y-80299266D01*
X115695993Y-80289126D01*
X115699311Y-80291910D01*
X115736741Y-80254448D01*
X115812432Y-80234130D01*
X115888141Y-80254380D01*
X115925697Y-80291902D01*
X115929007Y-80289126D01*
X115937518Y-80299270D01*
X115937519Y-80299271D01*
X116019995Y-80368477D01*
X116121167Y-80405300D01*
X116121169Y-80405300D01*
X116228831Y-80405300D01*
X116228833Y-80405300D01*
X116330005Y-80368477D01*
X116412481Y-80299271D01*
X116456384Y-80223228D01*
X116511800Y-80167813D01*
X116587500Y-80147529D01*
X116663200Y-80167813D01*
X116718616Y-80223229D01*
X116756661Y-80289126D01*
X116762519Y-80299271D01*
X116844995Y-80368477D01*
X116946167Y-80405300D01*
X116946169Y-80405300D01*
X117053831Y-80405300D01*
X117053833Y-80405300D01*
X117155005Y-80368477D01*
X117237481Y-80299271D01*
X117291314Y-80206030D01*
X117310010Y-80100000D01*
X118314990Y-80100000D01*
X118333685Y-80206028D01*
X118333685Y-80206029D01*
X118333686Y-80206030D01*
X118387519Y-80299271D01*
X118469995Y-80368477D01*
X118571167Y-80405300D01*
X118571169Y-80405300D01*
X118678831Y-80405300D01*
X118678833Y-80405300D01*
X118780005Y-80368477D01*
X118862481Y-80299271D01*
X118881384Y-80266529D01*
X118936800Y-80211114D01*
X119012500Y-80190830D01*
X119088200Y-80211114D01*
X119143616Y-80266530D01*
X119156661Y-80289126D01*
X119162519Y-80299271D01*
X119244995Y-80368477D01*
X119346167Y-80405300D01*
X119346169Y-80405300D01*
X119453831Y-80405300D01*
X119453833Y-80405300D01*
X119555005Y-80368477D01*
X119637481Y-80299271D01*
X119668884Y-80244878D01*
X119724300Y-80189463D01*
X119800000Y-80169179D01*
X119875700Y-80189463D01*
X119931115Y-80244878D01*
X119940786Y-80261628D01*
X119956661Y-80289126D01*
X119962519Y-80299271D01*
X120044995Y-80368477D01*
X120146167Y-80405300D01*
X120146169Y-80405300D01*
X120253831Y-80405300D01*
X120253833Y-80405300D01*
X120355005Y-80368477D01*
X120437481Y-80299271D01*
X120491314Y-80206030D01*
X120510010Y-80100000D01*
X120507734Y-80087095D01*
X120498053Y-80032187D01*
X120491314Y-79993970D01*
X120437481Y-79900729D01*
X120355005Y-79831523D01*
X120253833Y-79794700D01*
X120146167Y-79794700D01*
X120044995Y-79831523D01*
X120044994Y-79831523D01*
X120044993Y-79831524D01*
X119962520Y-79900727D01*
X119962519Y-79900729D01*
X119936623Y-79945583D01*
X119931116Y-79955121D01*
X119875699Y-80010537D01*
X119799999Y-80030820D01*
X119724299Y-80010536D01*
X119668884Y-79955121D01*
X119664010Y-79946679D01*
X119637481Y-79900729D01*
X119555005Y-79831523D01*
X119453833Y-79794700D01*
X119346167Y-79794700D01*
X119244995Y-79831523D01*
X119244994Y-79831523D01*
X119244993Y-79831524D01*
X119162520Y-79900727D01*
X119162518Y-79900729D01*
X119143615Y-79933471D01*
X119088198Y-79988886D01*
X119012498Y-80009169D01*
X118936798Y-79988884D01*
X118881385Y-79933471D01*
X118862481Y-79900729D01*
X118862479Y-79900727D01*
X118780006Y-79831524D01*
X118780005Y-79831523D01*
X118678833Y-79794700D01*
X118571167Y-79794700D01*
X118469995Y-79831523D01*
X118469994Y-79831523D01*
X118469993Y-79831524D01*
X118387520Y-79900727D01*
X118333685Y-79993971D01*
X118314990Y-80099999D01*
X118314990Y-80100000D01*
X117310010Y-80100000D01*
X117307734Y-80087095D01*
X117298053Y-80032187D01*
X117291314Y-79993970D01*
X117237481Y-79900729D01*
X117155005Y-79831523D01*
X117053833Y-79794700D01*
X116946167Y-79794700D01*
X116844995Y-79831523D01*
X116844994Y-79831523D01*
X116844993Y-79831524D01*
X116762520Y-79900727D01*
X116718616Y-79976771D01*
X116663199Y-80032187D01*
X116587499Y-80052470D01*
X116511799Y-80032186D01*
X116456384Y-79976771D01*
X116450090Y-79965869D01*
X116412481Y-79900729D01*
X116330005Y-79831523D01*
X116228833Y-79794700D01*
X116121167Y-79794700D01*
X116019995Y-79831523D01*
X116019994Y-79831523D01*
X116019993Y-79831524D01*
X115937520Y-79900727D01*
X115929007Y-79910874D01*
X115925692Y-79908093D01*
X115888196Y-79945587D01*
X115812496Y-79965869D01*
X115736796Y-79945583D01*
X115699306Y-79908093D01*
X115695993Y-79910874D01*
X115687479Y-79900727D01*
X115605006Y-79831524D01*
X115605005Y-79831523D01*
X115503833Y-79794700D01*
X115396167Y-79794700D01*
X115294995Y-79831523D01*
X115294994Y-79831523D01*
X115294993Y-79831524D01*
X115212520Y-79900727D01*
X115212518Y-79900729D01*
X115188524Y-79942288D01*
X115133107Y-79997704D01*
X115057406Y-80017986D01*
X114981707Y-79997701D01*
X114926294Y-79942288D01*
X114881581Y-79864843D01*
X114799105Y-79795637D01*
X114697933Y-79758814D01*
X114590267Y-79758814D01*
X114489095Y-79795637D01*
X114489094Y-79795637D01*
X114489093Y-79795638D01*
X114406620Y-79864841D01*
X114352785Y-79958085D01*
X114350488Y-79971116D01*
X114317367Y-80042143D01*
X114253169Y-80087095D01*
X114175097Y-80093925D01*
X114104070Y-80060804D01*
X114070272Y-80020526D01*
X114064505Y-80010537D01*
X114014421Y-79923789D01*
X113995715Y-79908093D01*
X113931946Y-79854584D01*
X113931945Y-79854583D01*
X113830773Y-79817760D01*
X113723107Y-79817760D01*
X113621935Y-79854583D01*
X113621934Y-79854583D01*
X113621933Y-79854584D01*
X113539460Y-79923787D01*
X113539456Y-79923791D01*
X113526239Y-79946684D01*
X113470821Y-80002098D01*
X113395120Y-80022379D01*
X113319421Y-80002092D01*
X113264010Y-79946679D01*
X113263377Y-79945583D01*
X113237481Y-79900729D01*
X113155005Y-79831523D01*
X113053833Y-79794700D01*
X112946167Y-79794700D01*
X112844995Y-79831523D01*
X112844994Y-79831523D01*
X112844993Y-79831524D01*
X112762520Y-79900727D01*
X112721445Y-79971871D01*
X112666028Y-80027287D01*
X112590328Y-80047570D01*
X112514628Y-80027286D01*
X112459213Y-79971870D01*
X112437481Y-79934229D01*
X112437479Y-79934227D01*
X112355006Y-79865024D01*
X112355005Y-79865023D01*
X112253833Y-79828200D01*
X112146167Y-79828200D01*
X112044995Y-79865023D01*
X112044994Y-79865023D01*
X112044993Y-79865024D01*
X111962520Y-79934227D01*
X111962519Y-79934229D01*
X111937958Y-79976771D01*
X111931116Y-79988621D01*
X111875699Y-80044037D01*
X111799999Y-80064320D01*
X111724299Y-80044036D01*
X111668884Y-79988621D01*
X111637481Y-79934229D01*
X111597557Y-79900729D01*
X111555006Y-79865024D01*
X111555005Y-79865023D01*
X111453833Y-79828200D01*
X111346167Y-79828200D01*
X111244995Y-79865023D01*
X111244994Y-79865023D01*
X111244993Y-79865024D01*
X111162520Y-79934227D01*
X111162519Y-79934229D01*
X111137958Y-79976771D01*
X111131116Y-79988621D01*
X111075699Y-80044037D01*
X110999999Y-80064320D01*
X110924299Y-80044036D01*
X110868884Y-79988621D01*
X110837481Y-79934229D01*
X110797557Y-79900729D01*
X110755006Y-79865024D01*
X110755005Y-79865023D01*
X110653833Y-79828200D01*
X110546167Y-79828200D01*
X110444995Y-79865023D01*
X110444994Y-79865023D01*
X110444993Y-79865024D01*
X110362520Y-79934227D01*
X110362519Y-79934229D01*
X110337958Y-79976771D01*
X110331116Y-79988621D01*
X110275699Y-80044037D01*
X110199999Y-80064320D01*
X110124299Y-80044036D01*
X110068884Y-79988621D01*
X110037481Y-79934229D01*
X109997557Y-79900729D01*
X109955006Y-79865024D01*
X109955005Y-79865023D01*
X109853833Y-79828200D01*
X109746167Y-79828200D01*
X109644995Y-79865023D01*
X109644994Y-79865023D01*
X109644993Y-79865024D01*
X109562520Y-79934227D01*
X109508685Y-80027471D01*
X109489990Y-80133499D01*
X109489990Y-80133500D01*
X103131263Y-80133500D01*
X103955837Y-78372692D01*
X104006311Y-78312739D01*
X104079998Y-78286055D01*
X104092948Y-78285500D01*
X125315998Y-78285500D01*
X125391698Y-78305784D01*
G37*
G04 #@! TD.AperFunction*
M02*
