G04 #@! TF.GenerationSoftware,KiCad,Pcbnew,9.0.5*
G04 #@! TF.CreationDate,2025-10-24T14:39:16-07:00*
G04 #@! TF.ProjectId,iris-128b,69726973-2d31-4323-9862-2e6b69636164,rev?*
G04 #@! TF.SameCoordinates,Original*
G04 #@! TF.FileFunction,Copper,L8,Bot*
G04 #@! TF.FilePolarity,Positive*
%FSLAX46Y46*%
G04 Gerber Fmt 4.6, Leading zero omitted, Abs format (unit mm)*
G04 Created by KiCad (PCBNEW 9.0.5) date 2025-10-24 14:39:16*
%MOMM*%
%LPD*%
G01*
G04 APERTURE LIST*
G04 Aperture macros list*
%AMRoundRect*
0 Rectangle with rounded corners*
0 $1 Rounding radius*
0 $2 $3 $4 $5 $6 $7 $8 $9 X,Y pos of 4 corners*
0 Add a 4 corners polygon primitive as box body*
4,1,4,$2,$3,$4,$5,$6,$7,$8,$9,$2,$3,0*
0 Add four circle primitives for the rounded corners*
1,1,$1+$1,$2,$3*
1,1,$1+$1,$4,$5*
1,1,$1+$1,$6,$7*
1,1,$1+$1,$8,$9*
0 Add four rect primitives between the rounded corners*
20,1,$1+$1,$2,$3,$4,$5,0*
20,1,$1+$1,$4,$5,$6,$7,0*
20,1,$1+$1,$6,$7,$8,$9,0*
20,1,$1+$1,$8,$9,$2,$3,0*%
G04 Aperture macros list end*
G04 #@! TA.AperFunction,ComponentPad*
%ADD10C,3.800000*%
G04 #@! TD*
G04 #@! TA.AperFunction,ComponentPad*
%ADD11C,1.000000*%
G04 #@! TD*
G04 #@! TA.AperFunction,SMDPad,CuDef*
%ADD12RoundRect,0.100000X0.130000X0.100000X-0.130000X0.100000X-0.130000X-0.100000X0.130000X-0.100000X0*%
G04 #@! TD*
G04 #@! TA.AperFunction,SMDPad,CuDef*
%ADD13RoundRect,0.100000X0.100000X-0.130000X0.100000X0.130000X-0.100000X0.130000X-0.100000X-0.130000X0*%
G04 #@! TD*
G04 #@! TA.AperFunction,SMDPad,CuDef*
%ADD14RoundRect,0.100000X-0.100000X0.130000X-0.100000X-0.130000X0.100000X-0.130000X0.100000X0.130000X0*%
G04 #@! TD*
G04 #@! TA.AperFunction,SMDPad,CuDef*
%ADD15R,0.900000X0.250000*%
G04 #@! TD*
G04 #@! TA.AperFunction,SMDPad,CuDef*
%ADD16R,0.250000X0.900000*%
G04 #@! TD*
G04 #@! TA.AperFunction,SMDPad,CuDef*
%ADD17R,4.100000X4.100000*%
G04 #@! TD*
G04 #@! TA.AperFunction,SMDPad,CuDef*
%ADD18RoundRect,0.100000X-0.130000X-0.100000X0.130000X-0.100000X0.130000X0.100000X-0.130000X0.100000X0*%
G04 #@! TD*
G04 #@! TA.AperFunction,ViaPad*
%ADD19C,0.304800*%
G04 #@! TD*
G04 #@! TA.AperFunction,ViaPad*
%ADD20C,0.600000*%
G04 #@! TD*
G04 #@! TA.AperFunction,Conductor*
%ADD21C,0.076200*%
G04 #@! TD*
G04 #@! TA.AperFunction,Conductor*
%ADD22C,0.200000*%
G04 #@! TD*
G04 APERTURE END LIST*
D10*
X96650000Y-82485000D03*
D11*
X102380000Y-90030000D03*
X102334060Y-86647020D03*
D10*
X132650000Y-82485000D03*
D12*
X104300000Y-97808740D03*
X103660000Y-97808740D03*
X105770000Y-110570000D03*
X105130000Y-110570000D03*
X114670000Y-109470000D03*
X114030000Y-109470000D03*
D13*
X113950000Y-98195000D03*
X113950000Y-97555000D03*
D12*
X104995000Y-94575000D03*
X104355000Y-94575000D03*
D14*
X125375000Y-94480000D03*
X125375000Y-95120000D03*
D12*
X114595000Y-111750000D03*
X113955000Y-111750000D03*
D15*
X112998570Y-92043550D03*
X112998570Y-92543550D03*
X112998570Y-93043550D03*
X112998570Y-93543550D03*
X112998570Y-94043550D03*
X112998570Y-94543550D03*
X112998570Y-95043550D03*
X112998570Y-95543550D03*
X112998570Y-96043550D03*
X112998570Y-96543550D03*
X112998570Y-97043550D03*
D16*
X111948570Y-98093550D03*
X111448570Y-98093550D03*
X110948570Y-98093550D03*
X110448570Y-98093550D03*
X109948570Y-98093550D03*
X109448570Y-98093550D03*
X108948570Y-98093550D03*
X108448570Y-98093550D03*
X107948570Y-98093550D03*
X107448570Y-98093550D03*
X106948570Y-98093550D03*
D15*
X105898570Y-97043550D03*
X105898570Y-96543550D03*
X105898570Y-96043550D03*
X105898570Y-95543550D03*
X105898570Y-95043550D03*
X105898570Y-94543550D03*
X105898570Y-94043550D03*
X105898570Y-93543550D03*
X105898570Y-93043550D03*
X105898570Y-92543550D03*
X105898570Y-92043550D03*
D16*
X106948570Y-90993550D03*
X107448570Y-90993550D03*
X107948570Y-90993550D03*
X108448570Y-90993550D03*
X108948570Y-90993550D03*
X109448570Y-90993550D03*
X109948570Y-90993550D03*
X110448570Y-90993550D03*
X110948570Y-90993550D03*
X111448570Y-90993550D03*
X111948570Y-90993550D03*
D17*
X109448570Y-94543550D03*
D15*
X112708670Y-103946690D03*
X112708670Y-104446690D03*
X112708670Y-104946690D03*
X112708670Y-105446690D03*
X112708670Y-105946690D03*
X112708670Y-106446690D03*
X112708670Y-106946690D03*
X112708670Y-107446690D03*
X112708670Y-107946690D03*
X112708670Y-108446690D03*
X112708670Y-108946690D03*
D16*
X111658670Y-109996690D03*
X111158670Y-109996690D03*
X110658670Y-109996690D03*
X110158670Y-109996690D03*
X109658670Y-109996690D03*
X109158670Y-109996690D03*
X108658670Y-109996690D03*
X108158670Y-109996690D03*
X107658670Y-109996690D03*
X107158670Y-109996690D03*
X106658670Y-109996690D03*
D15*
X105608670Y-108946690D03*
X105608670Y-108446690D03*
X105608670Y-107946690D03*
X105608670Y-107446690D03*
X105608670Y-106946690D03*
X105608670Y-106446690D03*
X105608670Y-105946690D03*
X105608670Y-105446690D03*
X105608670Y-104946690D03*
X105608670Y-104446690D03*
X105608670Y-103946690D03*
D16*
X106658670Y-102896690D03*
X107158670Y-102896690D03*
X107658670Y-102896690D03*
X108158670Y-102896690D03*
X108658670Y-102896690D03*
X109158670Y-102896690D03*
X109658670Y-102896690D03*
X110158670Y-102896690D03*
X110658670Y-102896690D03*
X111158670Y-102896690D03*
X111658670Y-102896690D03*
D17*
X109158670Y-106446690D03*
D18*
X114005000Y-93700000D03*
X114645000Y-93700000D03*
D15*
X122920850Y-92088830D03*
X122920850Y-92588830D03*
X122920850Y-93088830D03*
X122920850Y-93588830D03*
X122920850Y-94088830D03*
X122920850Y-94588830D03*
X122920850Y-95088830D03*
X122920850Y-95588830D03*
X122920850Y-96088830D03*
X122920850Y-96588830D03*
X122920850Y-97088830D03*
D16*
X121870850Y-98138830D03*
X121370850Y-98138830D03*
X120870850Y-98138830D03*
X120370850Y-98138830D03*
X119870850Y-98138830D03*
X119370850Y-98138830D03*
X118870850Y-98138830D03*
X118370850Y-98138830D03*
X117870850Y-98138830D03*
X117370850Y-98138830D03*
X116870850Y-98138830D03*
D15*
X115820850Y-97088830D03*
X115820850Y-96588830D03*
X115820850Y-96088830D03*
X115820850Y-95588830D03*
X115820850Y-95088830D03*
X115820850Y-94588830D03*
X115820850Y-94088830D03*
X115820850Y-93588830D03*
X115820850Y-93088830D03*
X115820850Y-92588830D03*
X115820850Y-92088830D03*
D16*
X116870850Y-91038830D03*
X117370850Y-91038830D03*
X117870850Y-91038830D03*
X118370850Y-91038830D03*
X118870850Y-91038830D03*
X119370850Y-91038830D03*
X119870850Y-91038830D03*
X120370850Y-91038830D03*
X120870850Y-91038830D03*
X121370850Y-91038830D03*
X121870850Y-91038830D03*
D17*
X119370850Y-94588830D03*
D12*
X104270000Y-106550000D03*
X103630000Y-106550000D03*
D13*
X114450000Y-107170000D03*
X114450000Y-106530000D03*
D18*
X105120000Y-111380000D03*
X105760000Y-111380000D03*
D12*
X108770000Y-112050000D03*
X108130000Y-112050000D03*
X114673570Y-99443550D03*
X114033570Y-99443550D03*
D18*
X123830000Y-105675000D03*
X124470000Y-105675000D03*
D12*
X118845000Y-99650000D03*
X118205000Y-99650000D03*
X114470000Y-104425000D03*
X113830000Y-104425000D03*
D13*
X114850000Y-98220000D03*
X114850000Y-97580000D03*
D18*
X113830000Y-105650000D03*
X114470000Y-105650000D03*
D14*
X125375000Y-96130000D03*
X125375000Y-96770000D03*
D15*
X122981580Y-103925260D03*
X122981580Y-104425260D03*
X122981580Y-104925260D03*
X122981580Y-105425260D03*
X122981580Y-105925260D03*
X122981580Y-106425260D03*
X122981580Y-106925260D03*
X122981580Y-107425260D03*
X122981580Y-107925260D03*
X122981580Y-108425260D03*
X122981580Y-108925260D03*
D16*
X121931580Y-109975260D03*
X121431580Y-109975260D03*
X120931580Y-109975260D03*
X120431580Y-109975260D03*
X119931580Y-109975260D03*
X119431580Y-109975260D03*
X118931580Y-109975260D03*
X118431580Y-109975260D03*
X117931580Y-109975260D03*
X117431580Y-109975260D03*
X116931580Y-109975260D03*
D15*
X115881580Y-108925260D03*
X115881580Y-108425260D03*
X115881580Y-107925260D03*
X115881580Y-107425260D03*
X115881580Y-106925260D03*
X115881580Y-106425260D03*
X115881580Y-105925260D03*
X115881580Y-105425260D03*
X115881580Y-104925260D03*
X115881580Y-104425260D03*
X115881580Y-103925260D03*
D16*
X116931580Y-102875260D03*
X117431580Y-102875260D03*
X117931580Y-102875260D03*
X118431580Y-102875260D03*
X118931580Y-102875260D03*
X119431580Y-102875260D03*
X119931580Y-102875260D03*
X120431580Y-102875260D03*
X120931580Y-102875260D03*
X121431580Y-102875260D03*
X121931580Y-102875260D03*
D17*
X119431580Y-106425260D03*
D18*
X123830000Y-106800000D03*
X124470000Y-106800000D03*
D14*
X125425000Y-92305000D03*
X125425000Y-92945000D03*
D12*
X117979970Y-111856150D03*
X117339970Y-111856150D03*
X104295000Y-98558740D03*
X103655000Y-98558740D03*
X108108030Y-99832870D03*
X107468030Y-99832870D03*
D19*
X114287500Y-105193306D03*
D20*
X114575000Y-121225000D03*
X105920000Y-91170000D03*
D19*
X114975000Y-95750000D03*
D20*
X126325000Y-116650000D03*
X113627646Y-108979260D03*
X104479560Y-116644300D03*
X114925000Y-91325000D03*
X114950000Y-108510000D03*
X124960000Y-108530000D03*
D19*
X114042120Y-96500000D03*
D20*
X104575000Y-80425000D03*
X112660000Y-110570000D03*
X103400000Y-93150000D03*
X124000000Y-96500000D03*
X104560000Y-108530000D03*
X104680000Y-115660000D03*
X115740000Y-99090000D03*
X105900000Y-84975000D03*
X105675000Y-103300000D03*
X114575000Y-102050000D03*
X116794300Y-110913030D03*
X127025000Y-94025000D03*
X113020000Y-103420000D03*
X107240000Y-111110000D03*
X124450000Y-85300000D03*
X107362751Y-99079640D03*
X114925000Y-79200000D03*
X115410000Y-110290000D03*
X124375000Y-100500000D03*
D19*
X123800000Y-95600000D03*
X105000000Y-96600000D03*
X123800000Y-107400000D03*
X124400000Y-103300000D03*
D20*
X125071000Y-106225000D03*
X113785700Y-107992955D03*
D19*
X113525000Y-106690000D03*
D20*
X103710000Y-96790000D03*
X123898570Y-95043550D03*
X112795700Y-98060000D03*
D19*
X104875000Y-106950000D03*
X115903300Y-98138830D03*
X106540000Y-97850000D03*
X115210568Y-94897408D03*
X124980000Y-110020000D03*
X113880000Y-95878740D03*
X123850000Y-107960000D03*
X116360000Y-109985000D03*
X106200000Y-109730000D03*
X103680000Y-97358740D03*
X114471643Y-94728599D03*
X124400000Y-94450000D03*
X113526700Y-107150000D03*
X124175000Y-106300000D03*
X114025000Y-98700000D03*
X112259974Y-103175000D03*
X116130000Y-103320000D03*
X114488596Y-94226850D03*
X125441083Y-91808917D03*
X119986629Y-99136631D03*
X119407432Y-110754160D03*
X109550000Y-98900000D03*
X109050000Y-110950000D03*
X109300000Y-99227240D03*
X109500000Y-110950000D03*
X119586414Y-99113586D03*
X119200000Y-111100000D03*
X118878861Y-112090164D03*
X112300000Y-100600000D03*
X120350000Y-100300000D03*
X110150000Y-111000000D03*
X121100000Y-80100000D03*
X121600000Y-87150000D03*
X121625000Y-85050000D03*
X121010680Y-82209640D03*
X121000000Y-84200000D03*
X114751104Y-92983304D03*
X124030588Y-91543960D03*
X124725000Y-103000000D03*
X112791485Y-101658515D03*
X113150000Y-102025000D03*
X105269338Y-98669604D03*
X107948570Y-89443550D03*
X111898570Y-89443550D03*
X108948570Y-89443550D03*
X118300000Y-100825000D03*
X104998570Y-92543550D03*
X104998570Y-93043550D03*
X107448570Y-89443550D03*
X109948570Y-89443550D03*
X110948570Y-89443550D03*
X104999185Y-93495760D03*
X117848130Y-100800000D03*
X109150000Y-113300000D03*
X106948570Y-89443550D03*
X111448570Y-89443550D03*
X105000000Y-94000000D03*
X109448570Y-89443550D03*
X108650000Y-111250000D03*
X108448570Y-89443550D03*
X110398570Y-89443550D03*
X104998570Y-92043550D03*
X105550000Y-98968740D03*
X117796604Y-87301297D03*
X115175000Y-92050000D03*
X115175000Y-93475000D03*
X118608856Y-84215224D03*
X118625000Y-80100000D03*
X115200000Y-92543550D03*
X115150000Y-93040000D03*
X118604151Y-85345851D03*
X117852629Y-85341700D03*
X116680000Y-101770000D03*
X118600000Y-86200000D03*
X118562500Y-81314672D03*
X115200000Y-94043550D03*
X118600000Y-82200000D03*
X118645432Y-87293704D03*
X118622064Y-83366356D03*
X117990000Y-112480000D03*
X117330456Y-100805456D03*
X117805200Y-86210140D03*
X117330000Y-112480000D03*
X106670000Y-102130000D03*
X107640000Y-102110000D03*
X107140000Y-102130000D03*
X104361414Y-104813586D03*
X117677300Y-113926800D03*
X104780000Y-104325000D03*
X111160000Y-102140000D03*
X111660000Y-102160000D03*
X110160000Y-102130000D03*
X104820000Y-105430000D03*
X108150000Y-102110000D03*
X117267200Y-113858300D03*
X109640000Y-102140000D03*
X108640000Y-102120000D03*
X104840000Y-105920000D03*
X104780000Y-103920000D03*
X109150000Y-102130000D03*
X110650000Y-102140000D03*
X116170000Y-101770000D03*
X119450000Y-101700000D03*
X123070000Y-101700000D03*
X117400000Y-111000000D03*
X117725000Y-101700000D03*
X121297171Y-101697171D03*
X115225000Y-105425260D03*
X118277500Y-101697500D03*
X115250000Y-104925260D03*
X118850000Y-101680000D03*
X115225000Y-105925260D03*
X120650000Y-101700000D03*
X115225000Y-104425260D03*
X122062500Y-101687500D03*
X120077500Y-101702500D03*
X117940000Y-110720000D03*
X115200000Y-103925260D03*
X117203328Y-101696672D03*
X110650000Y-111450000D03*
X116615784Y-100765784D03*
X123677300Y-117975000D03*
X120925000Y-111275000D03*
D21*
X114751104Y-92983304D02*
X114690858Y-93043550D01*
X114287500Y-105193306D02*
X114094994Y-105193306D01*
X114094994Y-105193306D02*
X113848378Y-104946690D01*
X113848378Y-104946690D02*
X112708670Y-104946690D01*
X122920850Y-93088830D02*
X123336170Y-93088830D01*
X121625000Y-87125000D02*
X121600000Y-87150000D01*
X113020000Y-103420000D02*
X112708670Y-103791330D01*
X122898980Y-91603130D02*
X122920850Y-91625000D01*
X114575000Y-105495000D02*
X114470000Y-105600000D01*
X105898570Y-96043550D02*
X105898570Y-96543550D01*
X115820850Y-96088830D02*
X115820850Y-96588830D01*
X123174740Y-107425260D02*
X123200000Y-107400000D01*
X114755296Y-94116379D02*
X114755296Y-94850784D01*
X125220018Y-111075340D02*
X125350000Y-110945358D01*
X114975000Y-95750000D02*
X114975000Y-95825000D01*
X114146700Y-95459380D02*
X114146700Y-96395420D01*
X123700000Y-104400000D02*
X123700000Y-103925260D01*
X115044740Y-108425260D02*
X115020000Y-108450000D01*
X114200000Y-107800000D02*
X114200000Y-108406906D01*
X114975000Y-95825000D02*
X115238830Y-96088830D01*
X121370850Y-98770850D02*
X121400000Y-98800000D01*
X113550000Y-91325000D02*
X112998570Y-91876430D01*
X114128150Y-95543550D02*
X114146700Y-95525000D01*
X104480000Y-108450000D02*
X104560000Y-108530000D01*
X104480000Y-108446690D02*
X105608670Y-108446690D01*
X112998570Y-92043550D02*
X112998570Y-92543550D01*
X124470000Y-107080000D02*
X124470000Y-106800000D01*
X114205000Y-104800000D02*
X114271365Y-104800000D01*
X114645000Y-94006083D02*
X114755296Y-94116379D01*
X124150000Y-107400000D02*
X124470000Y-107080000D01*
X122920850Y-92088830D02*
X122920850Y-91625000D01*
X104703310Y-107946690D02*
X104560000Y-108090000D01*
X105898570Y-96543550D02*
X105056450Y-96543550D01*
X115881580Y-108425260D02*
X115044740Y-108425260D01*
X104480000Y-108610000D02*
X104480000Y-109920000D01*
X104560000Y-108530000D02*
X104480000Y-108610000D01*
X121370850Y-98138830D02*
X121370850Y-98770850D01*
X104480000Y-108446690D02*
X104480000Y-108450000D01*
X124400000Y-103300000D02*
X123774740Y-103925260D01*
X114755296Y-94850784D02*
X114146700Y-95459380D01*
X121431580Y-110706580D02*
X121800340Y-111075340D01*
X114850000Y-96950000D02*
X115211170Y-96588830D01*
X123700000Y-103925260D02*
X122981580Y-103925260D01*
X114645000Y-93700000D02*
X114645000Y-94006083D01*
X114950000Y-108550000D02*
X114950000Y-108510000D01*
X114030000Y-109470000D02*
X114950000Y-108550000D01*
X111448570Y-98848570D02*
X112357850Y-99757850D01*
X114200000Y-108406906D02*
X113627646Y-108979260D01*
X115881580Y-107925260D02*
X115881580Y-108425260D01*
X115238830Y-96088830D02*
X115820850Y-96088830D01*
X113830000Y-104425000D02*
X114205000Y-104800000D01*
X114575000Y-105103635D02*
X114575000Y-105495000D01*
X122920850Y-92088830D02*
X122920850Y-92588830D01*
X115072150Y-99757850D02*
X115740000Y-99090000D01*
X112998570Y-95543550D02*
X114128150Y-95543550D01*
X125350000Y-108920000D02*
X124960000Y-108530000D01*
X121431580Y-109975260D02*
X121431580Y-110706580D01*
X125350000Y-110945358D02*
X125350000Y-108920000D01*
X105608670Y-107946690D02*
X104703310Y-107946690D01*
X111230000Y-110660000D02*
X112570000Y-110660000D01*
X121400000Y-98800000D02*
X122140000Y-98800000D01*
X124150000Y-107400000D02*
X123800000Y-107400000D01*
X112998570Y-91876430D02*
X112998570Y-92043550D01*
X124400000Y-102947829D02*
X124614529Y-102733300D01*
X124991700Y-105153300D02*
X124470000Y-105675000D01*
X112708670Y-103946690D02*
X112708670Y-104446690D01*
X123674740Y-104425260D02*
X123700000Y-104400000D01*
X104560000Y-108090000D02*
X104560000Y-108530000D01*
X124470000Y-105675000D02*
X124470000Y-106800000D01*
X124883300Y-102733300D02*
X124991700Y-102841700D01*
X124000000Y-96940000D02*
X124000000Y-96500000D01*
X121800340Y-111075340D02*
X125220018Y-111075340D01*
X115211170Y-96588830D02*
X115820850Y-96588830D01*
X112357850Y-99757850D02*
X115072150Y-99757850D01*
X114850000Y-97580000D02*
X114850000Y-96950000D01*
X123200000Y-107400000D02*
X123800000Y-107400000D01*
X123788830Y-95588830D02*
X123800000Y-95600000D01*
X114990000Y-108510000D02*
X115020000Y-108480000D01*
X111448570Y-98093550D02*
X111448570Y-98848570D01*
X122920850Y-95588830D02*
X123788830Y-95588830D01*
X122981580Y-104425260D02*
X123674740Y-104425260D01*
X124991700Y-102841700D02*
X124991700Y-105153300D01*
X112730360Y-104425000D02*
X112708670Y-104446690D01*
X124400000Y-103300000D02*
X124400000Y-102947829D01*
X111158670Y-110588670D02*
X111230000Y-110660000D01*
X114271365Y-104800000D02*
X114575000Y-105103635D01*
X104480000Y-109920000D02*
X105130000Y-110570000D01*
X113846690Y-107446690D02*
X114200000Y-107800000D01*
X123774740Y-103925260D02*
X123700000Y-103925260D01*
X105056450Y-96543550D02*
X105000000Y-96600000D01*
X111158670Y-109996690D02*
X111158670Y-110588670D01*
X112570000Y-110660000D02*
X112660000Y-110570000D01*
X122981580Y-107425260D02*
X123174740Y-107425260D01*
X122140000Y-98800000D02*
X124000000Y-96940000D01*
X113830000Y-104425000D02*
X112730360Y-104425000D01*
X114146700Y-96395420D02*
X114042120Y-96500000D01*
X112708670Y-107446690D02*
X113846690Y-107446690D01*
X115020000Y-108480000D02*
X115020000Y-108450000D01*
X114925000Y-91325000D02*
X113550000Y-91325000D01*
X112708670Y-103791330D02*
X112708670Y-103946690D01*
X124614529Y-102733300D02*
X124883300Y-102733300D01*
X114950000Y-108510000D02*
X114990000Y-108510000D01*
X113794740Y-106425260D02*
X114450000Y-106425260D01*
X105026450Y-94543550D02*
X104995000Y-94575000D01*
X105898570Y-95043550D02*
X105898570Y-94543550D01*
X105898570Y-94543550D02*
X105026450Y-94543550D01*
X124200000Y-96088830D02*
X124200000Y-95344980D01*
X105608670Y-106946690D02*
X104878310Y-106946690D01*
X113540000Y-106680000D02*
X113794740Y-106425260D01*
X105760000Y-111120000D02*
X105760000Y-111380000D01*
X106658670Y-109996690D02*
X106466690Y-109996690D01*
X115881580Y-106925260D02*
X115000260Y-106925260D01*
X124814300Y-106481700D02*
X124814300Y-107785700D01*
X123714300Y-96085700D02*
X123711170Y-96088830D01*
X124674740Y-107925260D02*
X122981580Y-107925260D01*
X103710000Y-96790000D02*
X103710000Y-96640000D01*
X125330700Y-96085700D02*
X123714300Y-96085700D01*
X112795700Y-98595700D02*
X113643550Y-99443550D01*
X104875000Y-106950000D02*
X104875000Y-106525000D01*
X106658670Y-109996690D02*
X106658670Y-110221330D01*
X103660000Y-97808740D02*
X103660000Y-97378740D01*
X106658670Y-110221330D02*
X105760000Y-111120000D01*
X104878310Y-106946690D02*
X104875000Y-106950000D01*
X113739435Y-107946690D02*
X112708670Y-107946690D01*
X122920850Y-96088830D02*
X123711170Y-96088830D01*
X124200000Y-95344980D02*
X123898570Y-95043550D01*
X122981580Y-107925260D02*
X123815260Y-107925260D01*
X114975000Y-106900000D02*
X114975000Y-106425000D01*
X114450260Y-106425000D02*
X115881320Y-106425000D01*
X115820850Y-95088830D02*
X115401990Y-95088830D01*
X116369740Y-109975260D02*
X116931580Y-109975260D01*
X105306450Y-95043550D02*
X105898570Y-95043550D01*
X113643550Y-99443550D02*
X114033570Y-99443550D01*
X103710000Y-96640000D02*
X105306450Y-95043550D01*
X115401990Y-95088830D02*
X115210568Y-94897408D01*
X104850000Y-106550000D02*
X104875000Y-106525000D01*
X115820850Y-94588830D02*
X115820850Y-95088830D01*
X125071000Y-106225000D02*
X124814300Y-106481700D01*
X124814300Y-107785700D02*
X124674740Y-107925260D01*
X115000260Y-106925260D02*
X114975000Y-106900000D01*
X125375000Y-96130000D02*
X125330700Y-96085700D01*
X124174739Y-96088830D02*
X124200000Y-96088830D01*
X113715190Y-96043550D02*
X113880000Y-95878740D01*
X106540000Y-97940000D02*
X106693550Y-98093550D01*
X112795700Y-98060000D02*
X112795700Y-98595700D01*
X114450000Y-106425260D02*
X114450260Y-106425000D01*
X124171609Y-96085700D02*
X124174739Y-96088830D01*
X116360000Y-109985000D02*
X114595000Y-111750000D01*
X112998570Y-96043550D02*
X113715190Y-96043550D01*
X123711170Y-96088830D02*
X123825261Y-96088830D01*
X106466690Y-109996690D02*
X106200000Y-109730000D01*
X106693550Y-98093550D02*
X106948570Y-98093550D01*
X115903300Y-98138830D02*
X116870850Y-98138830D01*
X103660000Y-97378740D02*
X103680000Y-97358740D01*
X123815260Y-107925260D02*
X123850000Y-107960000D01*
X116360000Y-109985000D02*
X116369740Y-109975260D01*
X104270000Y-106550000D02*
X104850000Y-106550000D01*
X104875000Y-106525000D02*
X104953310Y-106446690D01*
X106540000Y-97850000D02*
X106540000Y-97940000D01*
X115881320Y-106425000D02*
X115881580Y-106425260D01*
X114450000Y-106680000D02*
X114450000Y-106425260D01*
X123825261Y-96088830D02*
X123828391Y-96085700D01*
X124998480Y-110038480D02*
X124980000Y-110020000D01*
X104953310Y-106446690D02*
X105608670Y-106446690D01*
X123828391Y-96085700D02*
X124171609Y-96085700D01*
X113785700Y-107992955D02*
X113739435Y-107946690D01*
X114675000Y-106050000D02*
X114875000Y-105850000D01*
X112998570Y-95043550D02*
X112998570Y-94543550D01*
X123624740Y-106925260D02*
X122981580Y-106925260D01*
X114875000Y-104830000D02*
X114470000Y-104425000D01*
X113950000Y-98195000D02*
X113950000Y-98625000D01*
X124430000Y-94480000D02*
X125375000Y-94480000D01*
X123750000Y-106425260D02*
X123750000Y-106800000D01*
X122920850Y-94588830D02*
X122920850Y-95088830D01*
X114875000Y-105850000D02*
X114875000Y-104830000D01*
X124261170Y-94588830D02*
X122920850Y-94588830D01*
X124049740Y-106425260D02*
X123750000Y-106425260D01*
X113975000Y-98650000D02*
X114025000Y-98700000D01*
X122981580Y-106425260D02*
X123750000Y-106425260D01*
X113033670Y-106446690D02*
X113430360Y-106050000D01*
X124400000Y-94450000D02*
X124430000Y-94480000D01*
X124400000Y-94450000D02*
X124261170Y-94588830D01*
X123750000Y-106800000D02*
X123624740Y-106925260D01*
X112708670Y-106446690D02*
X113033670Y-106446690D01*
X113526700Y-107150000D02*
X113323390Y-106946690D01*
X114236594Y-94493550D02*
X113048570Y-94493550D01*
X113430360Y-106050000D02*
X114675000Y-106050000D01*
X114471643Y-94728599D02*
X114236594Y-94493550D01*
X124175000Y-106300000D02*
X124049740Y-106425260D01*
X113950000Y-98625000D02*
X114025000Y-98700000D01*
X113323390Y-106946690D02*
X112708670Y-106946690D01*
X112708670Y-106946690D02*
X112708670Y-106446690D01*
X113048570Y-94493550D02*
X112998570Y-94543550D01*
X122981580Y-106481580D02*
X122981580Y-106425260D01*
X112998570Y-93543550D02*
X110448570Y-93543550D01*
X122920850Y-93588830D02*
X120370850Y-93588830D01*
X123774740Y-105925260D02*
X122981580Y-105925260D01*
X123775000Y-105425000D02*
X123775000Y-105925000D01*
D22*
X109158670Y-106446690D02*
X109243310Y-106446690D01*
D21*
X125441083Y-92308917D02*
X124161170Y-93588830D01*
D22*
X109658670Y-105946690D02*
X109158670Y-106446690D01*
D21*
X112708670Y-105446690D02*
X112708670Y-105946690D01*
X113626690Y-105446690D02*
X113830000Y-105650000D01*
X122981580Y-105425260D02*
X123774740Y-105425260D01*
D22*
X120431580Y-105425260D02*
X119431580Y-106425260D01*
D21*
X112708670Y-105446690D02*
X113626690Y-105446690D01*
X114005000Y-93700000D02*
X113855000Y-93550000D01*
X120370850Y-93588830D02*
X119370850Y-94588830D01*
D22*
X119431580Y-106425260D02*
X119255260Y-106425260D01*
D21*
X112708670Y-105946690D02*
X109658670Y-105946690D01*
X125441083Y-91808917D02*
X125441083Y-92308917D01*
X113005020Y-93550000D02*
X112998570Y-93543550D01*
X112259974Y-103175000D02*
X112259974Y-103430026D01*
X113855000Y-93550000D02*
X113005020Y-93550000D01*
X124161170Y-93588830D02*
X122920850Y-93588830D01*
X114305296Y-94043550D02*
X112998570Y-94043550D01*
X123774740Y-105425260D02*
X123775000Y-105425000D01*
X112998570Y-94043550D02*
X112998570Y-93543550D01*
X113830000Y-105650000D02*
X113905000Y-105650000D01*
X119255260Y-106425260D02*
X116220000Y-103390000D01*
X122920850Y-93588830D02*
X122920850Y-94088830D01*
X122981580Y-105425260D02*
X120431580Y-105425260D01*
X112259974Y-103430026D02*
X109243310Y-106446690D01*
X114488596Y-94226850D02*
X114305296Y-94043550D01*
X123775000Y-105925000D02*
X123774740Y-105925260D01*
X105898570Y-97501430D02*
X105898570Y-97043550D01*
X104295000Y-98558740D02*
X104841260Y-98558740D01*
X104841260Y-98558740D02*
X105898570Y-97501430D01*
X115150000Y-98200000D02*
X114931260Y-98200000D01*
X115820850Y-97088830D02*
X115820850Y-97529150D01*
X114931260Y-98200000D02*
X114820000Y-98088740D01*
X115820850Y-97529150D02*
X115150000Y-98200000D01*
X105608670Y-109778670D02*
X105608670Y-108946690D01*
X105770000Y-109940000D02*
X105608670Y-109778670D01*
X105770000Y-110570000D02*
X105770000Y-109940000D01*
X115214740Y-108925260D02*
X114670000Y-109470000D01*
X115881580Y-108925260D02*
X115214740Y-108925260D01*
X109158670Y-109996690D02*
X109158670Y-110841330D01*
X109448570Y-98798570D02*
X109448570Y-98093550D01*
X119319714Y-98189966D02*
X119370850Y-98138830D01*
X119431580Y-110730012D02*
X119431580Y-109975260D01*
X109550000Y-98900000D02*
X109448570Y-98798570D01*
X119319714Y-99224057D02*
X119319714Y-98189966D01*
X119769714Y-99380286D02*
X119475943Y-99380286D01*
X119986629Y-99163371D02*
X119769714Y-99380286D01*
X119475943Y-99380286D02*
X119319714Y-99224057D01*
X119407432Y-110754160D02*
X119431580Y-110730012D01*
X109500000Y-110950000D02*
X109658670Y-110791330D01*
X119586414Y-99113586D02*
X119870850Y-98829150D01*
X109658670Y-110791330D02*
X109658670Y-109996690D01*
X119931580Y-110718420D02*
X119931580Y-109975260D01*
X109672760Y-99227240D02*
X109948570Y-98951430D01*
X109300000Y-99227240D02*
X109672760Y-99227240D01*
X119870850Y-98829150D02*
X119870850Y-98138830D01*
X109948570Y-98951430D02*
X109948570Y-98093550D01*
X119200000Y-111100000D02*
X119550000Y-111100000D01*
X119550000Y-111100000D02*
X119931580Y-110718420D01*
X120370850Y-100279150D02*
X120350000Y-100300000D01*
X111569529Y-112746700D02*
X118222325Y-112746700D01*
X110158670Y-109996690D02*
X110158670Y-110991330D01*
X110158670Y-110991330D02*
X110150000Y-111000000D01*
X110150000Y-111327171D02*
X111569529Y-112746700D01*
X110448570Y-98748570D02*
X110448570Y-98093550D01*
X112300000Y-100600000D02*
X110448570Y-98748570D01*
X110150000Y-111000000D02*
X110150000Y-111327171D01*
X120370850Y-98138830D02*
X120370850Y-100279150D01*
X118222325Y-112746700D02*
X120431580Y-110537445D01*
X120431580Y-110537445D02*
X120431580Y-109975260D01*
X123336170Y-93088830D02*
X124010000Y-92415000D01*
X124725000Y-103000000D02*
X124725000Y-103725000D01*
X124010000Y-92415000D02*
X124010000Y-91538740D01*
X121625000Y-85050000D02*
X121625000Y-87125000D01*
X123524740Y-104925260D02*
X122981580Y-104925260D01*
X114690858Y-93043550D02*
X112998570Y-93043550D01*
X124725000Y-103725000D02*
X123524740Y-104925260D01*
X112791485Y-101658515D02*
X112032970Y-100900000D01*
X108948570Y-98992330D02*
X108948570Y-98093550D01*
X112032970Y-100900000D02*
X109175160Y-100900000D01*
X109175160Y-100900000D02*
X108108030Y-99832870D01*
X108108030Y-99832870D02*
X108948570Y-98992330D01*
X112780799Y-102025000D02*
X111808199Y-101052400D01*
X108687560Y-101052400D02*
X107468030Y-99832870D01*
X108448570Y-98852330D02*
X108448570Y-98093550D01*
X107468030Y-99832870D02*
X108448570Y-98852330D01*
X111808199Y-101052400D02*
X108687560Y-101052400D01*
X113150000Y-102025000D02*
X112780799Y-102025000D01*
X107081482Y-98775000D02*
X105733431Y-98775000D01*
X107448570Y-98093550D02*
X107448570Y-98621430D01*
X107191142Y-98665340D02*
X107081482Y-98775000D01*
X105301774Y-98702040D02*
X105269338Y-98669604D01*
X105733431Y-98775000D02*
X105660471Y-98702040D01*
X107448570Y-98621430D02*
X107404660Y-98665340D01*
X105660471Y-98702040D02*
X105301774Y-98702040D01*
X107404660Y-98665340D02*
X107191142Y-98665340D01*
X107948570Y-90993550D02*
X107948570Y-89443550D01*
X111948570Y-89493550D02*
X111898570Y-89443550D01*
X111948570Y-90993550D02*
X111948570Y-89493550D01*
X108948570Y-90993550D02*
X108948570Y-89443550D01*
X118845000Y-100280000D02*
X118300000Y-100825000D01*
X118870850Y-98138830D02*
X118845000Y-98164680D01*
X118845000Y-98164680D02*
X118845000Y-100280000D01*
X105848570Y-92543550D02*
X104998570Y-92543550D01*
X105898570Y-92543550D02*
X105848570Y-92543550D01*
X105898570Y-93043550D02*
X104998570Y-93043550D01*
X107448570Y-90993550D02*
X107448570Y-89443550D01*
X109948570Y-90993550D02*
X109948570Y-89443550D01*
X110948570Y-90993550D02*
X110948570Y-89443550D01*
X105046975Y-93543550D02*
X104999185Y-93495760D01*
X105898570Y-93543550D02*
X105046975Y-93543550D01*
X118205000Y-100443130D02*
X117848130Y-100800000D01*
X118370850Y-98138830D02*
X118370850Y-99654150D01*
X118205000Y-99650000D02*
X118205000Y-100443130D01*
X108158670Y-112021330D02*
X108130000Y-112050000D01*
X108130000Y-112280000D02*
X108130000Y-112050000D01*
X109150000Y-113300000D02*
X108130000Y-112280000D01*
X108158670Y-109996690D02*
X108158670Y-112021330D01*
X106948570Y-90993550D02*
X106948570Y-89443550D01*
X111448570Y-90993550D02*
X111448570Y-89443550D01*
X105043550Y-94043550D02*
X105898570Y-94043550D01*
X105000000Y-94000000D02*
X105043550Y-94043550D01*
X109448570Y-90993550D02*
X109448570Y-89443550D01*
X108770000Y-111370000D02*
X108770000Y-112050000D01*
X108650000Y-111250000D02*
X108770000Y-111370000D01*
X108650000Y-111250000D02*
X108658670Y-111241330D01*
X108658670Y-111241330D02*
X108658670Y-109996690D01*
X108448570Y-90993550D02*
X108448570Y-89443550D01*
X110398570Y-90943550D02*
X110398570Y-89443550D01*
X110448570Y-90993550D02*
X110398570Y-90943550D01*
X105898570Y-92043550D02*
X104998570Y-92043550D01*
X106099830Y-99518570D02*
X105550000Y-98968740D01*
X107948570Y-98093550D02*
X107948570Y-99136804D01*
X107566804Y-99518570D02*
X106099830Y-99518570D01*
X107948570Y-99136804D02*
X107566804Y-99518570D01*
X117870850Y-91021270D02*
X117848570Y-91043550D01*
X117870850Y-87375543D02*
X117870850Y-91021270D01*
X117796604Y-87301297D02*
X117870850Y-87375543D01*
X115648570Y-92043550D02*
X115181450Y-92043550D01*
X115181450Y-92043550D02*
X115175000Y-92050000D01*
X115175000Y-93475000D02*
X115243550Y-93543550D01*
X115243550Y-93543550D02*
X115648570Y-93543550D01*
X118608856Y-84215224D02*
X119848570Y-85454938D01*
X119848570Y-85454938D02*
X119848570Y-91043550D01*
X121975000Y-90917120D02*
X121848570Y-91043550D01*
X118625000Y-80100000D02*
X118625000Y-81000000D01*
X121975000Y-84350000D02*
X121975000Y-90917120D01*
X118625000Y-81000000D02*
X121975000Y-84350000D01*
X115200000Y-92543550D02*
X115648570Y-92543550D01*
X115150000Y-93040000D02*
X115153550Y-93043550D01*
X115153550Y-93043550D02*
X115648570Y-93043550D01*
X118604151Y-85345851D02*
X119400000Y-86141700D01*
X119400000Y-86141700D02*
X119400000Y-90992120D01*
X119400000Y-90992120D02*
X119348570Y-91043550D01*
X117347600Y-85846729D02*
X117347600Y-89952400D01*
X116848570Y-90451430D02*
X116848570Y-91043550D01*
X117347600Y-89952400D02*
X116848570Y-90451430D01*
X117852629Y-85341700D02*
X117347600Y-85846729D01*
X116630000Y-101800000D02*
X117050000Y-101380000D01*
X117370850Y-98929150D02*
X117370850Y-98138830D01*
X117050000Y-99250000D02*
X117370850Y-98929150D01*
X117050000Y-101380000D02*
X117050000Y-99250000D01*
X118600000Y-86200000D02*
X118916700Y-86516700D01*
X118916700Y-86516700D02*
X118916700Y-90975420D01*
X118916700Y-90975420D02*
X118848570Y-91043550D01*
X121333300Y-87260471D02*
X121370850Y-87298021D01*
X121370850Y-84170850D02*
X121333300Y-84208400D01*
X121370850Y-91021270D02*
X121348570Y-91043550D01*
X118562500Y-81314672D02*
X118562500Y-81362500D01*
X118562500Y-81362500D02*
X121370850Y-84170850D01*
X121370850Y-87298021D02*
X121370850Y-91021270D01*
X121333300Y-84208400D02*
X121333300Y-87260471D01*
X115200000Y-94043550D02*
X115648570Y-94043550D01*
X118600000Y-82200000D02*
X120848570Y-84448570D01*
X120848570Y-84448570D02*
X120848570Y-91043550D01*
X118645432Y-87293704D02*
X118348570Y-87590566D01*
X118348570Y-87590566D02*
X118348570Y-91043550D01*
X118622064Y-83366356D02*
X120348570Y-85092862D01*
X120348570Y-85092862D02*
X120348570Y-91043550D01*
X118931580Y-111318420D02*
X118393850Y-111856150D01*
X118393850Y-111856150D02*
X117979970Y-111856150D01*
X117979970Y-112469970D02*
X117979970Y-111856150D01*
X117990000Y-112480000D02*
X117979970Y-112469970D01*
X118931580Y-109975260D02*
X118931580Y-111318420D01*
X117350000Y-100785912D02*
X117350000Y-99425000D01*
X117330456Y-100805456D02*
X117350000Y-100785912D01*
X117870850Y-98904150D02*
X117870850Y-98138830D01*
X117350000Y-99425000D02*
X117870850Y-98904150D01*
X117805200Y-86210140D02*
X117500000Y-86515340D01*
X117350000Y-90165526D02*
X117350000Y-91042120D01*
X117350000Y-91042120D02*
X117348570Y-91043550D01*
X117500000Y-86515340D02*
X117500000Y-90015526D01*
X117500000Y-90015526D02*
X117350000Y-90165526D01*
X117339970Y-112029970D02*
X117339970Y-111856150D01*
X117330000Y-112480000D02*
X117330000Y-112039940D01*
X118431580Y-109975260D02*
X118431580Y-110764540D01*
X117330000Y-112039940D02*
X117339970Y-112029970D01*
X118431580Y-110764540D02*
X117339970Y-111856150D01*
X106658670Y-102896690D02*
X106658670Y-102141330D01*
X106658670Y-102141330D02*
X106670000Y-102130000D01*
X107658670Y-102128670D02*
X107640000Y-102110000D01*
X107658670Y-102896690D02*
X107658670Y-102128670D01*
X107158670Y-102148670D02*
X107140000Y-102130000D01*
X107158670Y-102896690D02*
X107158670Y-102148670D01*
X105608670Y-104946690D02*
X104494518Y-104946690D01*
X104494518Y-104946690D02*
X104361414Y-104813586D01*
X107158670Y-109996690D02*
X107158670Y-110481330D01*
X117535000Y-114125000D02*
X117650000Y-114010000D01*
X107158670Y-110481330D02*
X106584080Y-111055920D01*
X108414642Y-114125000D02*
X117535000Y-114125000D01*
X106584080Y-111055920D02*
X106584080Y-112294438D01*
X106584080Y-112294438D02*
X108414642Y-114125000D01*
X104780000Y-104325000D02*
X104901690Y-104446690D01*
X104901690Y-104446690D02*
X105608670Y-104446690D01*
X111158670Y-102896690D02*
X111158670Y-102141330D01*
X111158670Y-102141330D02*
X111160000Y-102140000D01*
X111658670Y-102896690D02*
X111658670Y-102161330D01*
X111658670Y-102161330D02*
X111660000Y-102160000D01*
X110158670Y-102131330D02*
X110160000Y-102130000D01*
X110158670Y-102896690D02*
X110158670Y-102131330D01*
X104836690Y-105446690D02*
X104820000Y-105430000D01*
X105608670Y-105446690D02*
X104836690Y-105446690D01*
X108158670Y-102896690D02*
X108158670Y-102118670D01*
X108158670Y-102118670D02*
X108150000Y-102110000D01*
X117158900Y-113750000D02*
X109222829Y-113750000D01*
X117267200Y-113858300D02*
X117158900Y-113750000D01*
X109222829Y-113750000D02*
X107658670Y-112185841D01*
X107658670Y-112185841D02*
X107658670Y-109996690D01*
X109658670Y-102896690D02*
X109658670Y-102158670D01*
X109658670Y-102158670D02*
X109640000Y-102140000D01*
X108658670Y-102138670D02*
X108640000Y-102120000D01*
X108658670Y-102896690D02*
X108658670Y-102138670D01*
X104866690Y-105946690D02*
X104840000Y-105920000D01*
X105608670Y-105946690D02*
X104866690Y-105946690D01*
X104806690Y-103946690D02*
X105608670Y-103946690D01*
X104780000Y-103920000D02*
X104806690Y-103946690D01*
X109158670Y-102896690D02*
X109158670Y-102138670D01*
X109158670Y-102138670D02*
X109150000Y-102130000D01*
X110650000Y-102140000D02*
X110658670Y-102148670D01*
X110658670Y-102148670D02*
X110658670Y-102896690D01*
X116931580Y-102875260D02*
X116675260Y-102875260D01*
X116400000Y-102000000D02*
X116170000Y-101770000D01*
X116675260Y-102875260D02*
X116400000Y-102600000D01*
X116400000Y-102600000D02*
X116400000Y-102000000D01*
X119431580Y-101718420D02*
X119431580Y-102875260D01*
X119450000Y-101700000D02*
X119431580Y-101718420D01*
X122124740Y-102875260D02*
X121931580Y-102875260D01*
X123070000Y-101700000D02*
X123070000Y-101930000D01*
X123070000Y-101930000D02*
X122124740Y-102875260D01*
X117400000Y-111000000D02*
X117431580Y-110968420D01*
X117431580Y-110968420D02*
X117431580Y-109975260D01*
X117931580Y-101981580D02*
X117725000Y-101775000D01*
X117725000Y-101775000D02*
X117725000Y-101700000D01*
X117931580Y-102875260D02*
X117931580Y-101981580D01*
X121297171Y-101697171D02*
X120931580Y-102062762D01*
X120931580Y-102062762D02*
X120931580Y-102875260D01*
X115225000Y-105425260D02*
X115881580Y-105425260D01*
X118431580Y-101851580D02*
X118431580Y-102875260D01*
X118277500Y-101697500D02*
X118431580Y-101851580D01*
X115250000Y-104925260D02*
X115881580Y-104925260D01*
X118931580Y-101761580D02*
X118931580Y-102875260D01*
X118850000Y-101680000D02*
X118931580Y-101761580D01*
X115225000Y-105925260D02*
X115881580Y-105925260D01*
X120650000Y-101700000D02*
X120431580Y-101918420D01*
X120431580Y-101918420D02*
X120431580Y-102875260D01*
X105356211Y-95543550D02*
X104300000Y-96599761D01*
X104300000Y-96599761D02*
X104300000Y-97808740D01*
X105898570Y-95543550D02*
X105356211Y-95543550D01*
X114425000Y-99194980D02*
X114673570Y-99443550D01*
X115183300Y-95483300D02*
X114741700Y-95483300D01*
X115820850Y-95588830D02*
X115288830Y-95588830D01*
X114741700Y-95483300D02*
X114425000Y-95800000D01*
X114425000Y-95800000D02*
X114425000Y-99194980D01*
X115288830Y-95588830D02*
X115183300Y-95483300D01*
X104070000Y-107970000D02*
X104593310Y-107446690D01*
X104584162Y-111380000D02*
X104070000Y-110865838D01*
X105120000Y-111380000D02*
X104584162Y-111380000D01*
X104593310Y-107446690D02*
X105608670Y-107446690D01*
X104070000Y-110865838D02*
X104070000Y-107970000D01*
X114450000Y-107320000D02*
X115270000Y-107320000D01*
X115270000Y-107320000D02*
X115375260Y-107425260D01*
X115375260Y-107425260D02*
X115881580Y-107425260D01*
X115225000Y-104425260D02*
X115881580Y-104425260D01*
X122062500Y-101687500D02*
X121431580Y-102318420D01*
X121431580Y-102318420D02*
X121431580Y-102875260D01*
X119931580Y-101848420D02*
X119931580Y-102875260D01*
X120077500Y-101702500D02*
X119931580Y-101848420D01*
X117931580Y-109975260D02*
X117931580Y-110711580D01*
X117931580Y-110711580D02*
X117940000Y-110720000D01*
X115200000Y-103925260D02*
X115881580Y-103925260D01*
X117203328Y-101696672D02*
X117431580Y-101924924D01*
X117431580Y-101924924D02*
X117431580Y-102875260D01*
X116600000Y-100750000D02*
X116615784Y-100765784D01*
X123434474Y-101050000D02*
X120870850Y-98486376D01*
X124900000Y-101050000D02*
X123434474Y-101050000D01*
X120925000Y-115175000D02*
X123700000Y-117950000D01*
X110658670Y-109996690D02*
X110658670Y-111441330D01*
X120972260Y-111227740D02*
X125322260Y-111227740D01*
X110948570Y-98619750D02*
X113078820Y-100750000D01*
X120925000Y-111275000D02*
X120925000Y-115175000D01*
X125514300Y-111035700D02*
X125514300Y-101664300D01*
X125322260Y-111227740D02*
X125514300Y-111035700D01*
X125514300Y-101664300D02*
X124900000Y-101050000D01*
X120931580Y-111268420D02*
X120931580Y-109975260D01*
X110948570Y-98093550D02*
X110948570Y-98619750D01*
X113078820Y-100750000D02*
X116600000Y-100750000D01*
G04 #@! TA.AperFunction,Conductor*
G36*
X107375726Y-110815816D02*
G01*
X107414911Y-110883687D01*
X107420070Y-110922872D01*
X107420070Y-112233301D01*
X107456394Y-112320996D01*
X108763342Y-113627944D01*
X108802527Y-113695815D01*
X108802527Y-113774185D01*
X108763342Y-113842056D01*
X108695471Y-113881241D01*
X108656286Y-113886400D01*
X108576185Y-113886400D01*
X108500485Y-113866116D01*
X108469129Y-113842056D01*
X106867024Y-112239951D01*
X106827839Y-112172080D01*
X106822680Y-112132895D01*
X106822680Y-111217462D01*
X106842964Y-111141762D01*
X106867020Y-111110409D01*
X107161614Y-110815815D01*
X107229485Y-110776631D01*
X107307855Y-110776631D01*
X107375726Y-110815816D01*
G37*
G04 #@! TD.AperFunction*
G04 #@! TA.AperFunction,Conductor*
G36*
X125231356Y-103206832D02*
G01*
X125270541Y-103274703D01*
X125275700Y-103313888D01*
X125275700Y-105573100D01*
X125255416Y-105648800D01*
X125200000Y-105704216D01*
X125124300Y-105724500D01*
X124999035Y-105724500D01*
X124860950Y-105765044D01*
X124860949Y-105765045D01*
X124739872Y-105842856D01*
X124645624Y-105951625D01*
X124645621Y-105951629D01*
X124635906Y-105972901D01*
X124586006Y-106033332D01*
X124512576Y-106060717D01*
X124435291Y-106047718D01*
X124391134Y-106017058D01*
X124385014Y-106010938D01*
X124385015Y-106010938D01*
X124340306Y-105988158D01*
X124282066Y-105935717D01*
X124257848Y-105861183D01*
X124258650Y-105835813D01*
X124259007Y-105832731D01*
X124260500Y-105819865D01*
X124260499Y-105530136D01*
X124257585Y-105505009D01*
X124212206Y-105402235D01*
X124132765Y-105322794D01*
X124085540Y-105301942D01*
X124029992Y-105277415D01*
X124029986Y-105277414D01*
X124008644Y-105274938D01*
X123935785Y-105246066D01*
X123919035Y-105231603D01*
X123910157Y-105222725D01*
X123875222Y-105208254D01*
X123813047Y-105160544D01*
X123783057Y-105088139D01*
X123793287Y-105010439D01*
X123826101Y-104961329D01*
X124927275Y-103860156D01*
X124963600Y-103772460D01*
X124963600Y-103677540D01*
X124963600Y-103323188D01*
X124983884Y-103247488D01*
X125007944Y-103216132D01*
X125017244Y-103206832D01*
X125085115Y-103167647D01*
X125163485Y-103167647D01*
X125231356Y-103206832D01*
G37*
G04 #@! TD.AperFunction*
G04 #@! TA.AperFunction,Conductor*
G36*
X124814157Y-101308884D02*
G01*
X124845513Y-101332944D01*
X125231356Y-101718787D01*
X125270541Y-101786658D01*
X125275700Y-101825843D01*
X125275700Y-102686112D01*
X125255416Y-102761812D01*
X125200000Y-102817228D01*
X125124300Y-102837512D01*
X125048600Y-102817228D01*
X125017244Y-102793168D01*
X124935014Y-102710938D01*
X124835413Y-102660189D01*
X124835409Y-102660187D01*
X124725000Y-102642701D01*
X124614590Y-102660187D01*
X124614586Y-102660189D01*
X124514985Y-102710938D01*
X124435938Y-102789985D01*
X124385189Y-102889586D01*
X124385187Y-102889590D01*
X124367701Y-102999999D01*
X124367701Y-103000000D01*
X124385187Y-103110409D01*
X124385189Y-103110413D01*
X124435938Y-103210014D01*
X124442056Y-103216132D01*
X124481241Y-103284003D01*
X124486400Y-103323188D01*
X124486400Y-103563456D01*
X124466116Y-103639156D01*
X124442056Y-103670512D01*
X123557152Y-104555416D01*
X123489281Y-104594601D01*
X123450096Y-104599760D01*
X122511831Y-104599760D01*
X122453348Y-104611392D01*
X122453346Y-104611393D01*
X122387029Y-104655706D01*
X122387026Y-104655709D01*
X122342713Y-104722026D01*
X122342712Y-104722028D01*
X122331080Y-104780511D01*
X122331080Y-105035260D01*
X122310796Y-105110960D01*
X122255380Y-105166376D01*
X122179680Y-105186660D01*
X121833480Y-105186660D01*
X121757780Y-105166376D01*
X121702364Y-105110960D01*
X121682080Y-105035260D01*
X121682080Y-104355511D01*
X121670447Y-104297028D01*
X121670446Y-104297026D01*
X121626133Y-104230709D01*
X121626130Y-104230706D01*
X121559813Y-104186393D01*
X121559811Y-104186392D01*
X121501329Y-104174760D01*
X121501328Y-104174760D01*
X117404903Y-104174760D01*
X117329203Y-104154476D01*
X117297847Y-104130416D01*
X116951647Y-103784216D01*
X116912462Y-103716345D01*
X116912462Y-103637975D01*
X116951647Y-103570104D01*
X117019518Y-103530919D01*
X117058703Y-103525760D01*
X117076328Y-103525760D01*
X117149437Y-103511218D01*
X117150239Y-103515252D01*
X117201335Y-103508523D01*
X117213605Y-103511810D01*
X117213723Y-103511218D01*
X117286831Y-103525760D01*
X117286832Y-103525760D01*
X117576328Y-103525760D01*
X117649437Y-103511218D01*
X117650239Y-103515252D01*
X117701335Y-103508523D01*
X117713605Y-103511810D01*
X117713723Y-103511218D01*
X117786831Y-103525760D01*
X117786832Y-103525760D01*
X118076328Y-103525760D01*
X118149437Y-103511218D01*
X118150239Y-103515252D01*
X118201335Y-103508523D01*
X118213605Y-103511810D01*
X118213723Y-103511218D01*
X118286831Y-103525760D01*
X118286832Y-103525760D01*
X118576328Y-103525760D01*
X118649437Y-103511218D01*
X118650239Y-103515252D01*
X118701335Y-103508523D01*
X118713605Y-103511810D01*
X118713723Y-103511218D01*
X118786831Y-103525760D01*
X118786832Y-103525760D01*
X119076328Y-103525760D01*
X119149437Y-103511218D01*
X119150239Y-103515252D01*
X119201335Y-103508523D01*
X119213605Y-103511810D01*
X119213723Y-103511218D01*
X119286831Y-103525760D01*
X119286832Y-103525760D01*
X119576328Y-103525760D01*
X119649437Y-103511218D01*
X119650239Y-103515252D01*
X119701335Y-103508523D01*
X119713605Y-103511810D01*
X119713723Y-103511218D01*
X119786831Y-103525760D01*
X119786832Y-103525760D01*
X120076328Y-103525760D01*
X120149437Y-103511218D01*
X120150239Y-103515252D01*
X120201335Y-103508523D01*
X120213605Y-103511810D01*
X120213723Y-103511218D01*
X120286831Y-103525760D01*
X120286832Y-103525760D01*
X120576328Y-103525760D01*
X120649437Y-103511218D01*
X120650239Y-103515252D01*
X120701335Y-103508523D01*
X120713605Y-103511810D01*
X120713723Y-103511218D01*
X120786831Y-103525760D01*
X120786832Y-103525760D01*
X121076328Y-103525760D01*
X121149437Y-103511218D01*
X121150239Y-103515252D01*
X121201335Y-103508523D01*
X121213605Y-103511810D01*
X121213723Y-103511218D01*
X121286831Y-103525760D01*
X121286832Y-103525760D01*
X121576328Y-103525760D01*
X121649437Y-103511218D01*
X121650239Y-103515252D01*
X121701335Y-103508523D01*
X121713605Y-103511810D01*
X121713723Y-103511218D01*
X121786831Y-103525760D01*
X121786832Y-103525760D01*
X122076328Y-103525760D01*
X122134811Y-103514127D01*
X122134813Y-103514126D01*
X122169060Y-103491242D01*
X122201132Y-103469812D01*
X122231128Y-103424921D01*
X122245446Y-103403493D01*
X122245447Y-103403491D01*
X122257080Y-103345008D01*
X122257080Y-103143063D01*
X122277364Y-103067363D01*
X122301424Y-103036007D01*
X122784891Y-102552540D01*
X123272275Y-102065156D01*
X123308600Y-101977460D01*
X123308600Y-101977457D01*
X123309084Y-101976289D01*
X123341903Y-101927172D01*
X123359061Y-101910015D01*
X123409812Y-101810411D01*
X123427299Y-101700000D01*
X123427055Y-101698462D01*
X123409812Y-101589590D01*
X123409809Y-101589583D01*
X123368615Y-101508734D01*
X123352320Y-101432077D01*
X123376538Y-101357542D01*
X123434779Y-101305102D01*
X123503513Y-101288600D01*
X124738457Y-101288600D01*
X124814157Y-101308884D01*
G37*
G04 #@! TD.AperFunction*
G04 #@! TA.AperFunction,Conductor*
G36*
X115587955Y-98313584D02*
G01*
X115606799Y-98339519D01*
X115607234Y-98339204D01*
X115614238Y-98348844D01*
X115614239Y-98348845D01*
X115693285Y-98427891D01*
X115792889Y-98478642D01*
X115903300Y-98496129D01*
X116013711Y-98478642D01*
X116113315Y-98427891D01*
X116119432Y-98421774D01*
X116187303Y-98382589D01*
X116226488Y-98377430D01*
X116393950Y-98377430D01*
X116469650Y-98397714D01*
X116525066Y-98453130D01*
X116545350Y-98528830D01*
X116545350Y-98608578D01*
X116556982Y-98667061D01*
X116556983Y-98667063D01*
X116601296Y-98733380D01*
X116601299Y-98733383D01*
X116667616Y-98777696D01*
X116667618Y-98777697D01*
X116726101Y-98789330D01*
X116807727Y-98789330D01*
X116883427Y-98809614D01*
X116938843Y-98865030D01*
X116959127Y-98940730D01*
X116938843Y-99016430D01*
X116914783Y-99047786D01*
X116847724Y-99114844D01*
X116811400Y-99202539D01*
X116811400Y-100262200D01*
X116791116Y-100337900D01*
X116735700Y-100393316D01*
X116660000Y-100413600D01*
X116636320Y-100411737D01*
X116615784Y-100408485D01*
X116505374Y-100425971D01*
X116505370Y-100425973D01*
X116405765Y-100476724D01*
X116397837Y-100482485D01*
X116324672Y-100510571D01*
X116308847Y-100511400D01*
X113240364Y-100511400D01*
X113164664Y-100491116D01*
X113133308Y-100467056D01*
X112406053Y-99739801D01*
X111665504Y-98999253D01*
X111626320Y-98931383D01*
X111626320Y-98853013D01*
X111665505Y-98785142D01*
X111733376Y-98745957D01*
X111796362Y-98743894D01*
X111796419Y-98743321D01*
X111800777Y-98743750D01*
X111802098Y-98743707D01*
X111803822Y-98744050D01*
X112093318Y-98744050D01*
X112151801Y-98732417D01*
X112151803Y-98732416D01*
X112194922Y-98703604D01*
X112218122Y-98688102D01*
X112262437Y-98621781D01*
X112262437Y-98621778D01*
X112267634Y-98609235D01*
X112315341Y-98547059D01*
X112387745Y-98517067D01*
X112465446Y-98527295D01*
X112527622Y-98575002D01*
X112556001Y-98637636D01*
X112557099Y-98643160D01*
X112593424Y-98730855D01*
X113508395Y-99645826D01*
X113604302Y-99685552D01*
X113653420Y-99718371D01*
X113730805Y-99795756D01*
X113833579Y-99841135D01*
X113833580Y-99841135D01*
X113833583Y-99841136D01*
X113844915Y-99842450D01*
X113858705Y-99844050D01*
X114208434Y-99844049D01*
X114208436Y-99844049D01*
X114218484Y-99842883D01*
X114233561Y-99841135D01*
X114292417Y-99815147D01*
X114369857Y-99803126D01*
X114414723Y-99815147D01*
X114473579Y-99841135D01*
X114473580Y-99841135D01*
X114473583Y-99841136D01*
X114484915Y-99842450D01*
X114498705Y-99844050D01*
X114848434Y-99844049D01*
X114848436Y-99844049D01*
X114858484Y-99842883D01*
X114873561Y-99841135D01*
X114976335Y-99795756D01*
X115055776Y-99716315D01*
X115101155Y-99613541D01*
X115104070Y-99588415D01*
X115104069Y-99298686D01*
X115101155Y-99273559D01*
X115055776Y-99170785D01*
X114976335Y-99091344D01*
X114965561Y-99086587D01*
X114873562Y-99045965D01*
X114873556Y-99045963D01*
X114848438Y-99043050D01*
X114848435Y-99043050D01*
X114815000Y-99043050D01*
X114739300Y-99022766D01*
X114683884Y-98967350D01*
X114663600Y-98891650D01*
X114663600Y-98801899D01*
X114683884Y-98726199D01*
X114739300Y-98670783D01*
X114814997Y-98650499D01*
X114994864Y-98650499D01*
X114994867Y-98650499D01*
X115007427Y-98649042D01*
X115019991Y-98647585D01*
X115122765Y-98602206D01*
X115202206Y-98522765D01*
X115225175Y-98470742D01*
X115274307Y-98409687D01*
X115279561Y-98406013D01*
X115285150Y-98402277D01*
X115285156Y-98402275D01*
X115373846Y-98313583D01*
X115441714Y-98274400D01*
X115520084Y-98274400D01*
X115587955Y-98313584D01*
G37*
G04 #@! TD.AperFunction*
G04 #@! TA.AperFunction,Conductor*
G36*
X114136300Y-96250738D02*
G01*
X114178987Y-96316462D01*
X114186400Y-96363255D01*
X114186400Y-97613100D01*
X114166116Y-97688800D01*
X114110700Y-97744216D01*
X114035001Y-97764500D01*
X113805133Y-97764500D01*
X113780011Y-97767414D01*
X113780010Y-97767414D01*
X113729991Y-97789500D01*
X113677235Y-97812794D01*
X113677234Y-97812795D01*
X113677233Y-97812795D01*
X113597795Y-97892233D01*
X113597793Y-97892236D01*
X113569200Y-97956993D01*
X113520068Y-98018049D01*
X113446989Y-98046359D01*
X113369546Y-98034337D01*
X113308490Y-97985205D01*
X113285013Y-97927615D01*
X113283917Y-97927937D01*
X113280865Y-97917549D01*
X113280865Y-97917543D01*
X113233027Y-97812794D01*
X113221078Y-97786628D01*
X113221075Y-97786625D01*
X113126829Y-97677857D01*
X113080083Y-97647816D01*
X113027366Y-97589826D01*
X113010707Y-97513246D01*
X113034570Y-97438597D01*
X113092560Y-97385880D01*
X113161936Y-97369050D01*
X113468318Y-97369050D01*
X113526801Y-97357417D01*
X113526803Y-97357416D01*
X113590766Y-97314676D01*
X113593122Y-97313102D01*
X113636403Y-97248329D01*
X113637436Y-97246783D01*
X113637437Y-97246781D01*
X113649070Y-97188298D01*
X113649070Y-96898801D01*
X113634528Y-96825693D01*
X113638562Y-96824890D01*
X113631833Y-96773795D01*
X113635120Y-96761524D01*
X113634528Y-96761407D01*
X113649070Y-96688298D01*
X113649070Y-96428993D01*
X113669354Y-96353293D01*
X113724770Y-96297877D01*
X113749212Y-96288678D01*
X113748872Y-96287857D01*
X113762649Y-96282150D01*
X113762650Y-96282150D01*
X113850346Y-96245825D01*
X113850348Y-96245822D01*
X113853681Y-96244442D01*
X113887931Y-96234782D01*
X113990411Y-96218552D01*
X113990410Y-96218552D01*
X114002181Y-96216688D01*
X114002471Y-96218519D01*
X114066470Y-96215162D01*
X114136300Y-96250738D01*
G37*
G04 #@! TD.AperFunction*
G04 #@! TA.AperFunction,Conductor*
G36*
X115000590Y-96753098D02*
G01*
X115056532Y-96750150D01*
X115126372Y-96785708D01*
X115169076Y-96851422D01*
X115173591Y-96927787D01*
X115170350Y-96944081D01*
X115170350Y-97233578D01*
X115181982Y-97292061D01*
X115181983Y-97292063D01*
X115226296Y-97358380D01*
X115226299Y-97358383D01*
X115292616Y-97402696D01*
X115306394Y-97408403D01*
X115304684Y-97412529D01*
X115349698Y-97434719D01*
X115393248Y-97499875D01*
X115398387Y-97578077D01*
X115363736Y-97648371D01*
X115356947Y-97655620D01*
X115232178Y-97780389D01*
X115164307Y-97819574D01*
X115085937Y-97819574D01*
X115063971Y-97811834D01*
X115045372Y-97803621D01*
X115019992Y-97792415D01*
X115019986Y-97792413D01*
X114994868Y-97789500D01*
X114815000Y-97789500D01*
X114739300Y-97769216D01*
X114683884Y-97713800D01*
X114663600Y-97638100D01*
X114663600Y-96914118D01*
X114683884Y-96838418D01*
X114739300Y-96783002D01*
X114815000Y-96762718D01*
X114838682Y-96764581D01*
X114870720Y-96769656D01*
X114988202Y-96751049D01*
X114988202Y-96751048D01*
X114999971Y-96749185D01*
X115000590Y-96753098D01*
G37*
G04 #@! TD.AperFunction*
G04 #@! TA.AperFunction,Conductor*
G36*
X114633385Y-93319392D02*
G01*
X114640693Y-93323116D01*
X114689985Y-93330922D01*
X114761578Y-93362796D01*
X114807644Y-93426199D01*
X114814545Y-93463435D01*
X114815837Y-93463231D01*
X114835187Y-93585409D01*
X114835189Y-93585413D01*
X114885937Y-93685012D01*
X114890578Y-93691399D01*
X114918665Y-93764563D01*
X114906408Y-93841969D01*
X114902993Y-93849127D01*
X114893738Y-93867291D01*
X114841298Y-93925532D01*
X114766764Y-93949750D01*
X114690106Y-93933455D01*
X114690105Y-93933455D01*
X114599009Y-93887039D01*
X114599005Y-93887037D01*
X114563215Y-93881369D01*
X114491620Y-93849493D01*
X114445555Y-93786090D01*
X114435499Y-93731833D01*
X114435499Y-93555133D01*
X114432585Y-93530011D01*
X114432584Y-93530007D01*
X114426155Y-93515447D01*
X114414133Y-93438005D01*
X114442442Y-93364926D01*
X114503499Y-93315793D01*
X114580941Y-93303771D01*
X114633385Y-93319392D01*
G37*
G04 #@! TD.AperFunction*
G04 #@! TA.AperFunction,Conductor*
G36*
X125382941Y-78305784D02*
G01*
X125438357Y-78361200D01*
X125445090Y-78374295D01*
X127580752Y-83077294D01*
X127736346Y-83419932D01*
X127749893Y-83483021D01*
X127625521Y-121998589D01*
X127604993Y-122074223D01*
X127549398Y-122129460D01*
X127474122Y-122149500D01*
X101726641Y-122149500D01*
X101650941Y-122129216D01*
X101595525Y-122073800D01*
X101575241Y-121998100D01*
X101575241Y-121997905D01*
X101580799Y-117680926D01*
X103943300Y-117680926D01*
X103982600Y-117827597D01*
X104058522Y-117959098D01*
X104058524Y-117959101D01*
X104165898Y-118066475D01*
X104165901Y-118066477D01*
X104297402Y-118142399D01*
X104444074Y-118181700D01*
X104444076Y-118181700D01*
X104595925Y-118181700D01*
X104669261Y-118162049D01*
X104742598Y-118142399D01*
X104874102Y-118066475D01*
X104965577Y-117975000D01*
X108194819Y-117975000D01*
X108213425Y-118092480D01*
X108213425Y-118092481D01*
X108213426Y-118092482D01*
X108267427Y-118198465D01*
X108351535Y-118282573D01*
X108457518Y-118336574D01*
X108575000Y-118355181D01*
X108692482Y-118336574D01*
X108798465Y-118282573D01*
X108882573Y-118198465D01*
X108936574Y-118092482D01*
X108955181Y-117975000D01*
X108952662Y-117959098D01*
X108936574Y-117857519D01*
X108936574Y-117857518D01*
X108882573Y-117751535D01*
X108798465Y-117667427D01*
X108692482Y-117613426D01*
X108692481Y-117613425D01*
X108692480Y-117613425D01*
X108575000Y-117594819D01*
X108457519Y-117613425D01*
X108351536Y-117667426D01*
X108267426Y-117751536D01*
X108213425Y-117857519D01*
X108194819Y-117974999D01*
X108194819Y-117975000D01*
X104965577Y-117975000D01*
X104981475Y-117959102D01*
X105057399Y-117827598D01*
X105077780Y-117751535D01*
X105096700Y-117680926D01*
X105096700Y-117529073D01*
X105057399Y-117382402D01*
X104981477Y-117250901D01*
X104981475Y-117250898D01*
X104874101Y-117143524D01*
X104874098Y-117143522D01*
X104742597Y-117067600D01*
X104595927Y-117028300D01*
X104595924Y-117028300D01*
X104444076Y-117028300D01*
X104444073Y-117028300D01*
X104297402Y-117067600D01*
X104165901Y-117143522D01*
X104165898Y-117143524D01*
X104058524Y-117250898D01*
X104058522Y-117250901D01*
X103982600Y-117382402D01*
X103943300Y-117529073D01*
X103943300Y-117680926D01*
X101580799Y-117680926D01*
X101583964Y-115222460D01*
X101607695Y-96790000D01*
X103204353Y-96790000D01*
X103224834Y-96932453D01*
X103224835Y-96932456D01*
X103284621Y-97063371D01*
X103284623Y-97063373D01*
X103312751Y-97095835D01*
X103346994Y-97166328D01*
X103342323Y-97241757D01*
X103340188Y-97248328D01*
X103322701Y-97358740D01*
X103322701Y-97358741D01*
X103328726Y-97396783D01*
X103320534Y-97474724D01*
X103286249Y-97527519D01*
X103277797Y-97535971D01*
X103277794Y-97535975D01*
X103232415Y-97638747D01*
X103232413Y-97638753D01*
X103229500Y-97663872D01*
X103229500Y-97953606D01*
X103232414Y-97978728D01*
X103232414Y-97978729D01*
X103237164Y-97989487D01*
X103277794Y-98081505D01*
X103357235Y-98160946D01*
X103460009Y-98206325D01*
X103460010Y-98206325D01*
X103460013Y-98206326D01*
X103471345Y-98207640D01*
X103485135Y-98209240D01*
X103718260Y-98209239D01*
X103793959Y-98229522D01*
X103849376Y-98284938D01*
X103869660Y-98360638D01*
X103868652Y-98378083D01*
X103864500Y-98413878D01*
X103864500Y-98703606D01*
X103867414Y-98728728D01*
X103867414Y-98728729D01*
X103869468Y-98733380D01*
X103912794Y-98831505D01*
X103992235Y-98910946D01*
X104095009Y-98956325D01*
X104095010Y-98956325D01*
X104095013Y-98956326D01*
X104106345Y-98957640D01*
X104120135Y-98959240D01*
X104469864Y-98959239D01*
X104469866Y-98959239D01*
X104479914Y-98958073D01*
X104494991Y-98956325D01*
X104597765Y-98910946D01*
X104667027Y-98841684D01*
X104734898Y-98802499D01*
X104774083Y-98797340D01*
X104845576Y-98797340D01*
X104921276Y-98817624D01*
X104976692Y-98873040D01*
X104980226Y-98879550D01*
X104980276Y-98879618D01*
X104980277Y-98879619D01*
X105059323Y-98958665D01*
X105137327Y-98998410D01*
X105195567Y-99050849D01*
X105204154Y-99068851D01*
X105204778Y-99068534D01*
X105256877Y-99170784D01*
X105260939Y-99178755D01*
X105339985Y-99257801D01*
X105439589Y-99308552D01*
X105525019Y-99322082D01*
X105596613Y-99353957D01*
X105608391Y-99364562D01*
X105964674Y-99720845D01*
X106052369Y-99757170D01*
X106052370Y-99757170D01*
X106886131Y-99757170D01*
X106961831Y-99777454D01*
X107017247Y-99832870D01*
X107037531Y-99908570D01*
X107037531Y-99977736D01*
X107040444Y-100002858D01*
X107040444Y-100002859D01*
X107040445Y-100002861D01*
X107085824Y-100105635D01*
X107165265Y-100185076D01*
X107268039Y-100230455D01*
X107268040Y-100230455D01*
X107268043Y-100230456D01*
X107279375Y-100231770D01*
X107293165Y-100233370D01*
X107468385Y-100233369D01*
X107544085Y-100253652D01*
X107575442Y-100277713D01*
X108552404Y-101254675D01*
X108640099Y-101291000D01*
X108640100Y-101291000D01*
X111646656Y-101291000D01*
X111722356Y-101311284D01*
X111753712Y-101335344D01*
X112048959Y-101630591D01*
X112088144Y-101698462D01*
X112088144Y-101727355D01*
X112090275Y-101726903D01*
X112164810Y-101751121D01*
X112189408Y-101771040D01*
X112645643Y-102227275D01*
X112733338Y-102263600D01*
X112733339Y-102263600D01*
X112826812Y-102263600D01*
X112902512Y-102283884D01*
X112933868Y-102307944D01*
X112939985Y-102314061D01*
X113039589Y-102364812D01*
X113150000Y-102382299D01*
X113260411Y-102364812D01*
X113360015Y-102314061D01*
X113439061Y-102235015D01*
X113489812Y-102135411D01*
X113507299Y-102025000D01*
X113489812Y-101914589D01*
X113439061Y-101814985D01*
X113360015Y-101735939D01*
X113360014Y-101735938D01*
X113260413Y-101685189D01*
X113260409Y-101685187D01*
X113258890Y-101684947D01*
X113256787Y-101684010D01*
X113249081Y-101681507D01*
X113249344Y-101680697D01*
X113187295Y-101653072D01*
X113141229Y-101589669D01*
X113133038Y-101559098D01*
X113131297Y-101548104D01*
X113080546Y-101448500D01*
X113001500Y-101369454D01*
X113001499Y-101369453D01*
X112901898Y-101318704D01*
X112901894Y-101318702D01*
X112816466Y-101305172D01*
X112744871Y-101273296D01*
X112733094Y-101262692D01*
X112652701Y-101182299D01*
X112541793Y-101071392D01*
X112502609Y-101003523D01*
X112502609Y-100925152D01*
X112541792Y-100857283D01*
X112588177Y-100810899D01*
X112656048Y-100771714D01*
X112734419Y-100771715D01*
X112802288Y-100810900D01*
X112943663Y-100952275D01*
X112962690Y-100960156D01*
X113031360Y-100988600D01*
X116276812Y-100988600D01*
X116352512Y-101008884D01*
X116383868Y-101032944D01*
X116405769Y-101054845D01*
X116505373Y-101105596D01*
X116615784Y-101123083D01*
X116618044Y-101123441D01*
X116689639Y-101155317D01*
X116735704Y-101218720D01*
X116743896Y-101296661D01*
X116712020Y-101368256D01*
X116648617Y-101414321D01*
X116618045Y-101422513D01*
X116569589Y-101430187D01*
X116569583Y-101430190D01*
X116493734Y-101468837D01*
X116417076Y-101485131D01*
X116356266Y-101468837D01*
X116280416Y-101430190D01*
X116280409Y-101430187D01*
X116170000Y-101412701D01*
X116059590Y-101430187D01*
X116059586Y-101430189D01*
X115959985Y-101480938D01*
X115880938Y-101559985D01*
X115830189Y-101659586D01*
X115830187Y-101659590D01*
X115812701Y-101769999D01*
X115812701Y-101770000D01*
X115830187Y-101880409D01*
X115830189Y-101880413D01*
X115880938Y-101980014D01*
X115959986Y-102059062D01*
X116070206Y-102115222D01*
X116069288Y-102117023D01*
X116122502Y-102151573D01*
X116158088Y-102221398D01*
X116161400Y-102252890D01*
X116161400Y-102647460D01*
X116203431Y-102748932D01*
X116202359Y-102749375D01*
X116222527Y-102808780D01*
X116207239Y-102885645D01*
X116155568Y-102944568D01*
X116095136Y-102968222D01*
X116019589Y-102980187D01*
X116019586Y-102980189D01*
X115919985Y-103030938D01*
X115840938Y-103109985D01*
X115790189Y-103209586D01*
X115790187Y-103209590D01*
X115778179Y-103285411D01*
X115772701Y-103320000D01*
X115785924Y-103403491D01*
X115789280Y-103424676D01*
X115781088Y-103502617D01*
X115735023Y-103566020D01*
X115663428Y-103597896D01*
X115639744Y-103599760D01*
X115411826Y-103599760D01*
X115410567Y-103600011D01*
X115409797Y-103599960D01*
X115404431Y-103600489D01*
X115404343Y-103599602D01*
X115332364Y-103594877D01*
X115312313Y-103586416D01*
X115310417Y-103585450D01*
X115310409Y-103585447D01*
X115200000Y-103567961D01*
X115089590Y-103585447D01*
X115089586Y-103585449D01*
X114989985Y-103636198D01*
X114910938Y-103715245D01*
X114860189Y-103814846D01*
X114860187Y-103814850D01*
X114846416Y-103901802D01*
X114814540Y-103973397D01*
X114751137Y-104019462D01*
X114679437Y-104028510D01*
X114654658Y-104025636D01*
X114644865Y-104024500D01*
X114644862Y-104024500D01*
X114295133Y-104024500D01*
X114270011Y-104027414D01*
X114270010Y-104027414D01*
X114218622Y-104050104D01*
X114167235Y-104072794D01*
X114167234Y-104072795D01*
X114167233Y-104072795D01*
X114087794Y-104152234D01*
X114042415Y-104255007D01*
X114042413Y-104255013D01*
X114039500Y-104280132D01*
X114039501Y-104556689D01*
X114019218Y-104632390D01*
X113963801Y-104687806D01*
X113888102Y-104708090D01*
X113395472Y-104708090D01*
X113319772Y-104687806D01*
X113311357Y-104682574D01*
X113287891Y-104666894D01*
X113236901Y-104632823D01*
X113236900Y-104632822D01*
X113236901Y-104632822D01*
X113178419Y-104621190D01*
X113178418Y-104621190D01*
X112238922Y-104621190D01*
X112238921Y-104621190D01*
X112180438Y-104632822D01*
X112180436Y-104632823D01*
X112114119Y-104677136D01*
X112114116Y-104677139D01*
X112069803Y-104743456D01*
X112069802Y-104743458D01*
X112058170Y-104801941D01*
X112058170Y-105091438D01*
X112072712Y-105164547D01*
X112068680Y-105165348D01*
X112075399Y-105216494D01*
X112072124Y-105228716D01*
X112072712Y-105228833D01*
X112058170Y-105301941D01*
X112058170Y-105556690D01*
X112037886Y-105632390D01*
X111982470Y-105687806D01*
X111906770Y-105708090D01*
X111560570Y-105708090D01*
X111484870Y-105687806D01*
X111429454Y-105632390D01*
X111409170Y-105556690D01*
X111409170Y-104680973D01*
X111429454Y-104605273D01*
X111453514Y-104573917D01*
X111957423Y-104070008D01*
X112462249Y-103565182D01*
X112492876Y-103491242D01*
X112498573Y-103477489D01*
X112500044Y-103470093D01*
X112534705Y-103399803D01*
X112541468Y-103392581D01*
X112549035Y-103385015D01*
X112599786Y-103285411D01*
X112617273Y-103175000D01*
X112616108Y-103167647D01*
X112599786Y-103064590D01*
X112599784Y-103064586D01*
X112585222Y-103036007D01*
X112549035Y-102964985D01*
X112469989Y-102885939D01*
X112469988Y-102885938D01*
X112370387Y-102835189D01*
X112370383Y-102835187D01*
X112259974Y-102817701D01*
X112159254Y-102833653D01*
X112081312Y-102825461D01*
X112017910Y-102779396D01*
X111986034Y-102707801D01*
X111984170Y-102684117D01*
X111984170Y-102426943D01*
X111979903Y-102405492D01*
X111976410Y-102387930D01*
X111981535Y-102309732D01*
X111989999Y-102289668D01*
X111999812Y-102270411D01*
X112017299Y-102160000D01*
X111999812Y-102049589D01*
X111949061Y-101949985D01*
X111947454Y-101946831D01*
X111934074Y-101883888D01*
X111902718Y-101883888D01*
X111873169Y-101872545D01*
X111770416Y-101820190D01*
X111770409Y-101820187D01*
X111660000Y-101802701D01*
X111549590Y-101820187D01*
X111549582Y-101820190D01*
X111498357Y-101846290D01*
X111421699Y-101862583D01*
X111360891Y-101846289D01*
X111270416Y-101800190D01*
X111270409Y-101800187D01*
X111160000Y-101782701D01*
X111049590Y-101800187D01*
X111049583Y-101800190D01*
X110973734Y-101838837D01*
X110897076Y-101855131D01*
X110836266Y-101838837D01*
X110760416Y-101800190D01*
X110760409Y-101800187D01*
X110650000Y-101782701D01*
X110539590Y-101800187D01*
X110539585Y-101800189D01*
X110483545Y-101828743D01*
X110406888Y-101845036D01*
X110346077Y-101828742D01*
X110340387Y-101825843D01*
X110270411Y-101790188D01*
X110270409Y-101790187D01*
X110160000Y-101772701D01*
X110049590Y-101790187D01*
X110049583Y-101790190D01*
X109958921Y-101836385D01*
X109882264Y-101852680D01*
X109821453Y-101836385D01*
X109750416Y-101800190D01*
X109750409Y-101800187D01*
X109640000Y-101782701D01*
X109529590Y-101800187D01*
X109529585Y-101800189D01*
X109473545Y-101828743D01*
X109396888Y-101845036D01*
X109336077Y-101828742D01*
X109330387Y-101825843D01*
X109260411Y-101790188D01*
X109260409Y-101790187D01*
X109150000Y-101772701D01*
X109039590Y-101790187D01*
X109039585Y-101790189D01*
X108973545Y-101823838D01*
X108896887Y-101840131D01*
X108836077Y-101823837D01*
X108750413Y-101780189D01*
X108750409Y-101780187D01*
X108640000Y-101762701D01*
X108529590Y-101780187D01*
X108529585Y-101780189D01*
X108473545Y-101808743D01*
X108396888Y-101825036D01*
X108336077Y-101808742D01*
X108260413Y-101770189D01*
X108260409Y-101770187D01*
X108150000Y-101752701D01*
X108039590Y-101770187D01*
X108039583Y-101770190D01*
X107963734Y-101808837D01*
X107887076Y-101825131D01*
X107826266Y-101808837D01*
X107750416Y-101770190D01*
X107750409Y-101770187D01*
X107640000Y-101752701D01*
X107529590Y-101770187D01*
X107529588Y-101770188D01*
X107439108Y-101816290D01*
X107362450Y-101832583D01*
X107301641Y-101816290D01*
X107250414Y-101790189D01*
X107250409Y-101790187D01*
X107140000Y-101772701D01*
X107029590Y-101790187D01*
X107029585Y-101790189D01*
X106973733Y-101818647D01*
X106897075Y-101834940D01*
X106836267Y-101818647D01*
X106780414Y-101790189D01*
X106780409Y-101790187D01*
X106670000Y-101772701D01*
X106559590Y-101790187D01*
X106559586Y-101790189D01*
X106459985Y-101840938D01*
X106380938Y-101919985D01*
X106330189Y-102019586D01*
X106330187Y-102019590D01*
X106312701Y-102129999D01*
X106330187Y-102240408D01*
X106330187Y-102240409D01*
X106330188Y-102240411D01*
X106330189Y-102240412D01*
X106335818Y-102251460D01*
X106352113Y-102328118D01*
X106346356Y-102353565D01*
X106347712Y-102353835D01*
X106333170Y-102426942D01*
X106333170Y-103366438D01*
X106344802Y-103424921D01*
X106350510Y-103438700D01*
X106347785Y-103439828D01*
X106365771Y-103492816D01*
X106360983Y-103516881D01*
X106367740Y-103514588D01*
X106444604Y-103529876D01*
X106451917Y-103534098D01*
X106455438Y-103535557D01*
X106513921Y-103547190D01*
X106513922Y-103547190D01*
X106803418Y-103547190D01*
X106876527Y-103532648D01*
X106877329Y-103536682D01*
X106928425Y-103529953D01*
X106940695Y-103533240D01*
X106940813Y-103532648D01*
X107013921Y-103547190D01*
X107013922Y-103547190D01*
X107303418Y-103547190D01*
X107376527Y-103532648D01*
X107377329Y-103536682D01*
X107428425Y-103529953D01*
X107440695Y-103533240D01*
X107440813Y-103532648D01*
X107513921Y-103547190D01*
X107513922Y-103547190D01*
X107803418Y-103547190D01*
X107876527Y-103532648D01*
X107877329Y-103536682D01*
X107928425Y-103529953D01*
X107940695Y-103533240D01*
X107940813Y-103532648D01*
X108013921Y-103547190D01*
X108013922Y-103547190D01*
X108303418Y-103547190D01*
X108376527Y-103532648D01*
X108377329Y-103536682D01*
X108428425Y-103529953D01*
X108440695Y-103533240D01*
X108440813Y-103532648D01*
X108513921Y-103547190D01*
X108513922Y-103547190D01*
X108803418Y-103547190D01*
X108876527Y-103532648D01*
X108877329Y-103536682D01*
X108928425Y-103529953D01*
X108940695Y-103533240D01*
X108940813Y-103532648D01*
X109013921Y-103547190D01*
X109013922Y-103547190D01*
X109303418Y-103547190D01*
X109376527Y-103532648D01*
X109377329Y-103536682D01*
X109428425Y-103529953D01*
X109440695Y-103533240D01*
X109440813Y-103532648D01*
X109513921Y-103547190D01*
X109513922Y-103547190D01*
X109803418Y-103547190D01*
X109876527Y-103532648D01*
X109877329Y-103536682D01*
X109928425Y-103529953D01*
X109940695Y-103533240D01*
X109940813Y-103532648D01*
X110013921Y-103547190D01*
X110013922Y-103547190D01*
X110303418Y-103547190D01*
X110376527Y-103532648D01*
X110377329Y-103536682D01*
X110428425Y-103529953D01*
X110440695Y-103533240D01*
X110440813Y-103532648D01*
X110513921Y-103547190D01*
X110513922Y-103547190D01*
X110803418Y-103547190D01*
X110876527Y-103532648D01*
X110877329Y-103536682D01*
X110928425Y-103529953D01*
X110940695Y-103533240D01*
X110940813Y-103532648D01*
X111013921Y-103547190D01*
X111013922Y-103547190D01*
X111303418Y-103547190D01*
X111376527Y-103532648D01*
X111377329Y-103536682D01*
X111428425Y-103529953D01*
X111440694Y-103533240D01*
X111440812Y-103532648D01*
X111479213Y-103540286D01*
X111549502Y-103574947D01*
X111593043Y-103640110D01*
X111598169Y-103718312D01*
X111563508Y-103788601D01*
X111556734Y-103795833D01*
X111200723Y-104151846D01*
X111132853Y-104191031D01*
X111093667Y-104196190D01*
X107088921Y-104196190D01*
X107030438Y-104207822D01*
X107030436Y-104207823D01*
X106964119Y-104252136D01*
X106964116Y-104252139D01*
X106919803Y-104318456D01*
X106919802Y-104318458D01*
X106908170Y-104376941D01*
X106908170Y-108516438D01*
X106919802Y-108574921D01*
X106919803Y-108574923D01*
X106964116Y-108641240D01*
X106964119Y-108641243D01*
X107030436Y-108685556D01*
X107030438Y-108685557D01*
X107088921Y-108697190D01*
X107088922Y-108697190D01*
X111228418Y-108697190D01*
X111286901Y-108685557D01*
X111286903Y-108685556D01*
X111349217Y-108643918D01*
X111353222Y-108641242D01*
X111397537Y-108574921D01*
X111409170Y-108516438D01*
X111409170Y-106336690D01*
X111429454Y-106260990D01*
X111484870Y-106205574D01*
X111560570Y-106185290D01*
X111906770Y-106185290D01*
X111982470Y-106205574D01*
X112037886Y-106260990D01*
X112058170Y-106336690D01*
X112058170Y-106591438D01*
X112072712Y-106664547D01*
X112068680Y-106665348D01*
X112075399Y-106716494D01*
X112072124Y-106728716D01*
X112072712Y-106728833D01*
X112058170Y-106801941D01*
X112058170Y-107091438D01*
X112069802Y-107149921D01*
X112069803Y-107149923D01*
X112114116Y-107216240D01*
X112114119Y-107216243D01*
X112180436Y-107260556D01*
X112180438Y-107260557D01*
X112238921Y-107272190D01*
X113100112Y-107272190D01*
X113175812Y-107292474D01*
X113231228Y-107347890D01*
X113234998Y-107354832D01*
X113237639Y-107360015D01*
X113237640Y-107360016D01*
X113240358Y-107362734D01*
X113243234Y-107367716D01*
X113244643Y-107369655D01*
X113244439Y-107369803D01*
X113279543Y-107430605D01*
X113279543Y-107508975D01*
X113240358Y-107576846D01*
X113172487Y-107616031D01*
X113133302Y-107621190D01*
X112238921Y-107621190D01*
X112180438Y-107632822D01*
X112180436Y-107632823D01*
X112114119Y-107677136D01*
X112114116Y-107677139D01*
X112069803Y-107743456D01*
X112069802Y-107743458D01*
X112058170Y-107801941D01*
X112058170Y-108091438D01*
X112072712Y-108164547D01*
X112068680Y-108165348D01*
X112075399Y-108216494D01*
X112072124Y-108228716D01*
X112072712Y-108228833D01*
X112058170Y-108301941D01*
X112058170Y-108591438D01*
X112072712Y-108664547D01*
X112068680Y-108665348D01*
X112075399Y-108716494D01*
X112072124Y-108728716D01*
X112072712Y-108728833D01*
X112058170Y-108801941D01*
X112058170Y-109091438D01*
X112069802Y-109149921D01*
X112075510Y-109163700D01*
X112072785Y-109164828D01*
X112090771Y-109217816D01*
X112085983Y-109241881D01*
X112092740Y-109239588D01*
X112169604Y-109254876D01*
X112176917Y-109259098D01*
X112180438Y-109260557D01*
X112238921Y-109272190D01*
X112238922Y-109272190D01*
X113178418Y-109272190D01*
X113236901Y-109260557D01*
X113236903Y-109260556D01*
X113273326Y-109236218D01*
X113303222Y-109216242D01*
X113347537Y-109149921D01*
X113359170Y-109091438D01*
X113359170Y-108801942D01*
X113359170Y-108801941D01*
X113344628Y-108728833D01*
X113348662Y-108728030D01*
X113341933Y-108676935D01*
X113345220Y-108664664D01*
X113344628Y-108664547D01*
X113359170Y-108591438D01*
X113359170Y-108589629D01*
X113359451Y-108588577D01*
X113359899Y-108584037D01*
X113360648Y-108584110D01*
X113379454Y-108513929D01*
X113434870Y-108458513D01*
X113510570Y-108438229D01*
X113565181Y-108450110D01*
X113565256Y-108449858D01*
X113568789Y-108450895D01*
X113573471Y-108451914D01*
X113575653Y-108452911D01*
X113713735Y-108493454D01*
X113713739Y-108493455D01*
X113857661Y-108493455D01*
X113875078Y-108488340D01*
X113995749Y-108452910D01*
X113995750Y-108452909D01*
X113995750Y-108452908D01*
X113995753Y-108452908D01*
X114116828Y-108375098D01*
X114211077Y-108266328D01*
X114270865Y-108135412D01*
X114291347Y-107992955D01*
X114270865Y-107850498D01*
X114254557Y-107814790D01*
X114241563Y-107737507D01*
X114268951Y-107664078D01*
X114329384Y-107614180D01*
X114392273Y-107600499D01*
X114594864Y-107600499D01*
X114594867Y-107600499D01*
X114609940Y-107598750D01*
X114619991Y-107597585D01*
X114679068Y-107571499D01*
X114740221Y-107558600D01*
X115108457Y-107558600D01*
X115184157Y-107578884D01*
X115215513Y-107602944D01*
X115235498Y-107622929D01*
X115254326Y-107645871D01*
X115287027Y-107694811D01*
X115287029Y-107694813D01*
X115353346Y-107739126D01*
X115353348Y-107739127D01*
X115411831Y-107750760D01*
X115411832Y-107750760D01*
X116351328Y-107750760D01*
X116409811Y-107739127D01*
X116409813Y-107739126D01*
X116460026Y-107705574D01*
X116476132Y-107694812D01*
X116517096Y-107633506D01*
X116520446Y-107628493D01*
X116520447Y-107628491D01*
X116532080Y-107570008D01*
X116532080Y-107280511D01*
X116517538Y-107207403D01*
X116521572Y-107206600D01*
X116514843Y-107155505D01*
X116518130Y-107143234D01*
X116517538Y-107143117D01*
X116532080Y-107070008D01*
X116532080Y-106780511D01*
X116517538Y-106707403D01*
X116521572Y-106706600D01*
X116514843Y-106655505D01*
X116518130Y-106643234D01*
X116517538Y-106643117D01*
X116532080Y-106570008D01*
X116532080Y-106280511D01*
X116517538Y-106207403D01*
X116521572Y-106206600D01*
X116514843Y-106155505D01*
X116518130Y-106143234D01*
X116517538Y-106143117D01*
X116532080Y-106070008D01*
X116532080Y-105780511D01*
X116517538Y-105707403D01*
X116521572Y-105706600D01*
X116514843Y-105655505D01*
X116518130Y-105643234D01*
X116517538Y-105643117D01*
X116532080Y-105570008D01*
X116532080Y-105280511D01*
X116517538Y-105207403D01*
X116521572Y-105206600D01*
X116514843Y-105155505D01*
X116518130Y-105143234D01*
X116517538Y-105143117D01*
X116532080Y-105070008D01*
X116532080Y-104780511D01*
X116517538Y-104707403D01*
X116521572Y-104706600D01*
X116514843Y-104655505D01*
X116518130Y-104643234D01*
X116517538Y-104643117D01*
X116532080Y-104570008D01*
X116532080Y-104405023D01*
X116552364Y-104329323D01*
X116607780Y-104273907D01*
X116683480Y-104253623D01*
X116759180Y-104273907D01*
X116790536Y-104297967D01*
X117136736Y-104644167D01*
X117175921Y-104712038D01*
X117181080Y-104751223D01*
X117181080Y-108495008D01*
X117192712Y-108553491D01*
X117192713Y-108553493D01*
X117237026Y-108619810D01*
X117237029Y-108619813D01*
X117303346Y-108664126D01*
X117303348Y-108664127D01*
X117361831Y-108675760D01*
X117361832Y-108675760D01*
X121501328Y-108675760D01*
X121559811Y-108664127D01*
X121559813Y-108664126D01*
X121613143Y-108628491D01*
X121626132Y-108619812D01*
X121649988Y-108584110D01*
X121670446Y-108553493D01*
X121670447Y-108553491D01*
X121682080Y-108495008D01*
X121682080Y-105815260D01*
X121702364Y-105739560D01*
X121757780Y-105684144D01*
X121833480Y-105663860D01*
X122179680Y-105663860D01*
X122255380Y-105684144D01*
X122310796Y-105739560D01*
X122331080Y-105815260D01*
X122331080Y-106070008D01*
X122345622Y-106143117D01*
X122341590Y-106143918D01*
X122348309Y-106195064D01*
X122345034Y-106207286D01*
X122345622Y-106207403D01*
X122331080Y-106280511D01*
X122331080Y-106570008D01*
X122345622Y-106643117D01*
X122341590Y-106643918D01*
X122348309Y-106695064D01*
X122345034Y-106707286D01*
X122345622Y-106707403D01*
X122331080Y-106780511D01*
X122331080Y-107070008D01*
X122342712Y-107128491D01*
X122342713Y-107128493D01*
X122387026Y-107194810D01*
X122387029Y-107194813D01*
X122453346Y-107239126D01*
X122453348Y-107239127D01*
X122511831Y-107250760D01*
X122511832Y-107250760D01*
X123451328Y-107250760D01*
X123509811Y-107239127D01*
X123509813Y-107239126D01*
X123534290Y-107222771D01*
X123608500Y-107197578D01*
X123635853Y-107198263D01*
X123655135Y-107200500D01*
X124004864Y-107200499D01*
X124004866Y-107200499D01*
X124014914Y-107199333D01*
X124029991Y-107197585D01*
X124132765Y-107152206D01*
X124212206Y-107072765D01*
X124257585Y-106969991D01*
X124260500Y-106944865D01*
X124260499Y-106745281D01*
X124280782Y-106669583D01*
X124336198Y-106614166D01*
X124343134Y-106610400D01*
X124355572Y-106604062D01*
X124432230Y-106587772D01*
X124506763Y-106611993D01*
X124559201Y-106670235D01*
X124575700Y-106738964D01*
X124575700Y-107535260D01*
X124555416Y-107610960D01*
X124500000Y-107666376D01*
X124424300Y-107686660D01*
X124127218Y-107686660D01*
X124058484Y-107670158D01*
X123960416Y-107620190D01*
X123960409Y-107620187D01*
X123850000Y-107602701D01*
X123739590Y-107620187D01*
X123739585Y-107620189D01*
X123695754Y-107642522D01*
X123619096Y-107658815D01*
X123544561Y-107634597D01*
X123542906Y-107633506D01*
X123509813Y-107611393D01*
X123509811Y-107611392D01*
X123451329Y-107599760D01*
X123451328Y-107599760D01*
X122511832Y-107599760D01*
X122511831Y-107599760D01*
X122453348Y-107611392D01*
X122453346Y-107611393D01*
X122387029Y-107655706D01*
X122387026Y-107655709D01*
X122342713Y-107722026D01*
X122342712Y-107722028D01*
X122331080Y-107780511D01*
X122331080Y-108070008D01*
X122345622Y-108143117D01*
X122341590Y-108143918D01*
X122348309Y-108195064D01*
X122345034Y-108207286D01*
X122345622Y-108207403D01*
X122331080Y-108280511D01*
X122331080Y-108570008D01*
X122345622Y-108643117D01*
X122341590Y-108643918D01*
X122348309Y-108695064D01*
X122345034Y-108707286D01*
X122345622Y-108707403D01*
X122331080Y-108780511D01*
X122331080Y-109070008D01*
X122342712Y-109128491D01*
X122348420Y-109142270D01*
X122345695Y-109143398D01*
X122363681Y-109196386D01*
X122358893Y-109220451D01*
X122365650Y-109218158D01*
X122442514Y-109233446D01*
X122449827Y-109237668D01*
X122453348Y-109239127D01*
X122511831Y-109250760D01*
X122511832Y-109250760D01*
X123451328Y-109250760D01*
X123509811Y-109239127D01*
X123509813Y-109239126D01*
X123544165Y-109216172D01*
X123576132Y-109194812D01*
X123620447Y-109128491D01*
X123632080Y-109070008D01*
X123632080Y-108780512D01*
X123624710Y-108743459D01*
X123617538Y-108707403D01*
X123621572Y-108706600D01*
X123614843Y-108655505D01*
X123618130Y-108643234D01*
X123617538Y-108643117D01*
X123632080Y-108570008D01*
X123632080Y-108460050D01*
X123652364Y-108384350D01*
X123707780Y-108328934D01*
X123783480Y-108308650D01*
X123807155Y-108310513D01*
X123850000Y-108317299D01*
X123960411Y-108299812D01*
X124060015Y-108249061D01*
X124100872Y-108208204D01*
X124168743Y-108169019D01*
X124207928Y-108163860D01*
X124722200Y-108163860D01*
X124809896Y-108127535D01*
X125016575Y-107920856D01*
X125016575Y-107920855D01*
X125017244Y-107920187D01*
X125085115Y-107881002D01*
X125163485Y-107881002D01*
X125231356Y-107920187D01*
X125270541Y-107988058D01*
X125275700Y-108027243D01*
X125275700Y-109532268D01*
X125255416Y-109607968D01*
X125200000Y-109663384D01*
X125124300Y-109683668D01*
X125100617Y-109681804D01*
X124980001Y-109662701D01*
X124980000Y-109662701D01*
X124869590Y-109680187D01*
X124869586Y-109680189D01*
X124769985Y-109730938D01*
X124690938Y-109809985D01*
X124640189Y-109909586D01*
X124640187Y-109909590D01*
X124622701Y-110019999D01*
X124622701Y-110020000D01*
X124640187Y-110130409D01*
X124640189Y-110130413D01*
X124684299Y-110216985D01*
X124690939Y-110230015D01*
X124769985Y-110309061D01*
X124869589Y-110359812D01*
X124980000Y-110377299D01*
X125090411Y-110359812D01*
X125090413Y-110359810D01*
X125100616Y-110358195D01*
X125178557Y-110366387D01*
X125241960Y-110412452D01*
X125273836Y-110484047D01*
X125275700Y-110507731D01*
X125275700Y-110837740D01*
X125255416Y-110913440D01*
X125200000Y-110968856D01*
X125124300Y-110989140D01*
X121321580Y-110989140D01*
X121245880Y-110968856D01*
X121190464Y-110913440D01*
X121170180Y-110837740D01*
X121170180Y-110662061D01*
X121190464Y-110586361D01*
X121195697Y-110577946D01*
X121245446Y-110503493D01*
X121245447Y-110503491D01*
X121257080Y-110445008D01*
X121606080Y-110445008D01*
X121617712Y-110503491D01*
X121617713Y-110503493D01*
X121662026Y-110569810D01*
X121662029Y-110569813D01*
X121728346Y-110614126D01*
X121728348Y-110614127D01*
X121786831Y-110625760D01*
X121786832Y-110625760D01*
X122076328Y-110625760D01*
X122134811Y-110614127D01*
X122134813Y-110614126D01*
X122176365Y-110586361D01*
X122201132Y-110569812D01*
X122245447Y-110503491D01*
X122257080Y-110445008D01*
X122257080Y-109505512D01*
X122249710Y-109468458D01*
X122245447Y-109447028D01*
X122239740Y-109433250D01*
X122242464Y-109432121D01*
X122224478Y-109379138D01*
X122229265Y-109355065D01*
X122222504Y-109357361D01*
X122145640Y-109342070D01*
X122138333Y-109337851D01*
X122134811Y-109336392D01*
X122076329Y-109324760D01*
X122076328Y-109324760D01*
X121786832Y-109324760D01*
X121786831Y-109324760D01*
X121728348Y-109336392D01*
X121728346Y-109336393D01*
X121662029Y-109380706D01*
X121662026Y-109380709D01*
X121617713Y-109447026D01*
X121617712Y-109447028D01*
X121606080Y-109505511D01*
X121606080Y-110445008D01*
X121257080Y-110445008D01*
X121257080Y-109505511D01*
X121245447Y-109447028D01*
X121245446Y-109447026D01*
X121201133Y-109380709D01*
X121201130Y-109380706D01*
X121134813Y-109336393D01*
X121134811Y-109336392D01*
X121076329Y-109324760D01*
X121076328Y-109324760D01*
X120786832Y-109324760D01*
X120786831Y-109324760D01*
X120713723Y-109339302D01*
X120712921Y-109335270D01*
X120661776Y-109341989D01*
X120649553Y-109338714D01*
X120649437Y-109339302D01*
X120576329Y-109324760D01*
X120576328Y-109324760D01*
X120286832Y-109324760D01*
X120286831Y-109324760D01*
X120213723Y-109339302D01*
X120212921Y-109335270D01*
X120161776Y-109341989D01*
X120149553Y-109338714D01*
X120149437Y-109339302D01*
X120076329Y-109324760D01*
X120076328Y-109324760D01*
X119786832Y-109324760D01*
X119786831Y-109324760D01*
X119713723Y-109339302D01*
X119712921Y-109335270D01*
X119661776Y-109341989D01*
X119649553Y-109338714D01*
X119649437Y-109339302D01*
X119576329Y-109324760D01*
X119576328Y-109324760D01*
X119286832Y-109324760D01*
X119286831Y-109324760D01*
X119213723Y-109339302D01*
X119212921Y-109335270D01*
X119161776Y-109341989D01*
X119149553Y-109338714D01*
X119149437Y-109339302D01*
X119076329Y-109324760D01*
X119076328Y-109324760D01*
X118786832Y-109324760D01*
X118786831Y-109324760D01*
X118713723Y-109339302D01*
X118712921Y-109335270D01*
X118661776Y-109341989D01*
X118649553Y-109338714D01*
X118649437Y-109339302D01*
X118576329Y-109324760D01*
X118576328Y-109324760D01*
X118286832Y-109324760D01*
X118286831Y-109324760D01*
X118213723Y-109339302D01*
X118212921Y-109335270D01*
X118161776Y-109341989D01*
X118149553Y-109338714D01*
X118149437Y-109339302D01*
X118076329Y-109324760D01*
X118076328Y-109324760D01*
X117786832Y-109324760D01*
X117786831Y-109324760D01*
X117713723Y-109339302D01*
X117712921Y-109335270D01*
X117661776Y-109341989D01*
X117649553Y-109338714D01*
X117649437Y-109339302D01*
X117576329Y-109324760D01*
X117576328Y-109324760D01*
X117286832Y-109324760D01*
X117286831Y-109324760D01*
X117213723Y-109339302D01*
X117212921Y-109335270D01*
X117161776Y-109341989D01*
X117149553Y-109338714D01*
X117149437Y-109339302D01*
X117076329Y-109324760D01*
X117076328Y-109324760D01*
X116786832Y-109324760D01*
X116786831Y-109324760D01*
X116728348Y-109336392D01*
X116714570Y-109342100D01*
X116713441Y-109339376D01*
X116660441Y-109357362D01*
X116636390Y-109352575D01*
X116638680Y-109359318D01*
X116623398Y-109436184D01*
X116619172Y-109443503D01*
X116617712Y-109447028D01*
X116604629Y-109512806D01*
X116603133Y-109512508D01*
X116578581Y-109577734D01*
X116517998Y-109627449D01*
X116440674Y-109640212D01*
X116431837Y-109639078D01*
X116360001Y-109627701D01*
X116360000Y-109627701D01*
X116249590Y-109645187D01*
X116249586Y-109645189D01*
X116149985Y-109695938D01*
X116070938Y-109774985D01*
X116020189Y-109874586D01*
X116020187Y-109874589D01*
X116006657Y-109960019D01*
X115974781Y-110031614D01*
X115964177Y-110043390D01*
X114702411Y-111305156D01*
X114634540Y-111344341D01*
X114595356Y-111349500D01*
X114420133Y-111349500D01*
X114395011Y-111352414D01*
X114395010Y-111352414D01*
X114360926Y-111367464D01*
X114292235Y-111397794D01*
X114292234Y-111397795D01*
X114292233Y-111397795D01*
X114212794Y-111477234D01*
X114167415Y-111580007D01*
X114167413Y-111580013D01*
X114164500Y-111605132D01*
X114164500Y-111894866D01*
X114167414Y-111919988D01*
X114167414Y-111919989D01*
X114167415Y-111919991D01*
X114212794Y-112022765D01*
X114292235Y-112102206D01*
X114395009Y-112147585D01*
X114395010Y-112147585D01*
X114395013Y-112147586D01*
X114406345Y-112148900D01*
X114420135Y-112150500D01*
X114769864Y-112150499D01*
X114769866Y-112150499D01*
X114779914Y-112149333D01*
X114794991Y-112147585D01*
X114897765Y-112102206D01*
X114977206Y-112022765D01*
X115022585Y-111919991D01*
X115025500Y-111894865D01*
X115025499Y-111719642D01*
X115045782Y-111643943D01*
X115069839Y-111612590D01*
X116301609Y-110380820D01*
X116369478Y-110341637D01*
X116384968Y-110338344D01*
X116434983Y-110330423D01*
X116512923Y-110338615D01*
X116576326Y-110384681D01*
X116607156Y-110450421D01*
X116617713Y-110503492D01*
X116617713Y-110503493D01*
X116662026Y-110569810D01*
X116662029Y-110569813D01*
X116728346Y-110614126D01*
X116728348Y-110614127D01*
X116786831Y-110625760D01*
X116947553Y-110625760D01*
X117023253Y-110646044D01*
X117078669Y-110701460D01*
X117098953Y-110777160D01*
X117082451Y-110845894D01*
X117060190Y-110889583D01*
X117060187Y-110889590D01*
X117042701Y-110999999D01*
X117042701Y-111000000D01*
X117060187Y-111110406D01*
X117060189Y-111110413D01*
X117110938Y-111210014D01*
X117135970Y-111235046D01*
X117175155Y-111302917D01*
X117175155Y-111381287D01*
X117135970Y-111449158D01*
X117090070Y-111480601D01*
X117037205Y-111503943D01*
X116957764Y-111583384D01*
X116912385Y-111686157D01*
X116912383Y-111686163D01*
X116909470Y-111711282D01*
X116909470Y-112001016D01*
X116912384Y-112026138D01*
X116912384Y-112026139D01*
X116912385Y-112026141D01*
X116957764Y-112128915D01*
X116957765Y-112128916D01*
X116982699Y-112153850D01*
X117021884Y-112221721D01*
X117021884Y-112300091D01*
X117010543Y-112329638D01*
X116990188Y-112369587D01*
X116990188Y-112369589D01*
X116988478Y-112380386D01*
X116956601Y-112451980D01*
X116893198Y-112498045D01*
X116838942Y-112508100D01*
X111731073Y-112508100D01*
X111655373Y-112487816D01*
X111624017Y-112463756D01*
X110976747Y-111816486D01*
X110937562Y-111748615D01*
X110937562Y-111670245D01*
X110948905Y-111640695D01*
X110963227Y-111612586D01*
X110989812Y-111560411D01*
X111007299Y-111450000D01*
X110989812Y-111339589D01*
X110939061Y-111239985D01*
X110939060Y-111239984D01*
X110932058Y-111230346D01*
X110933831Y-111229057D01*
X110902429Y-111174667D01*
X110897270Y-111135482D01*
X110897270Y-110683491D01*
X110917554Y-110607791D01*
X110922787Y-110599376D01*
X110972536Y-110524923D01*
X110972537Y-110524921D01*
X110984170Y-110466438D01*
X111333170Y-110466438D01*
X111344802Y-110524921D01*
X111344803Y-110524923D01*
X111389116Y-110591240D01*
X111389119Y-110591243D01*
X111455436Y-110635556D01*
X111455438Y-110635557D01*
X111513921Y-110647190D01*
X111513922Y-110647190D01*
X111803418Y-110647190D01*
X111861901Y-110635557D01*
X111861903Y-110635556D01*
X111903455Y-110607791D01*
X111928222Y-110591242D01*
X111972537Y-110524921D01*
X111984170Y-110466438D01*
X111984170Y-109614866D01*
X114239500Y-109614866D01*
X114242414Y-109639988D01*
X114242414Y-109639989D01*
X114244709Y-109645187D01*
X114287794Y-109742765D01*
X114367235Y-109822206D01*
X114470009Y-109867585D01*
X114470010Y-109867585D01*
X114470013Y-109867586D01*
X114481345Y-109868900D01*
X114495135Y-109870500D01*
X114844864Y-109870499D01*
X114844866Y-109870499D01*
X114854914Y-109869333D01*
X114869991Y-109867585D01*
X114972765Y-109822206D01*
X115052206Y-109742765D01*
X115097585Y-109639991D01*
X115100500Y-109614865D01*
X115100499Y-109439642D01*
X115120782Y-109363943D01*
X115144839Y-109332590D01*
X115200468Y-109276961D01*
X115268337Y-109237778D01*
X115338413Y-109237778D01*
X115338723Y-109236218D01*
X115346566Y-109237778D01*
X115346707Y-109237778D01*
X115346906Y-109237845D01*
X115353348Y-109239126D01*
X115353349Y-109239127D01*
X115390507Y-109246518D01*
X115411831Y-109250760D01*
X115411832Y-109250760D01*
X116351328Y-109250760D01*
X116409811Y-109239127D01*
X116423590Y-109233420D01*
X116424718Y-109236145D01*
X116477689Y-109218159D01*
X116501776Y-109222947D01*
X116499477Y-109216172D01*
X116514774Y-109139309D01*
X116518991Y-109132005D01*
X116520447Y-109128491D01*
X116532080Y-109070008D01*
X116532080Y-108780511D01*
X116520447Y-108722028D01*
X116520446Y-108722026D01*
X116476133Y-108655709D01*
X116476130Y-108655706D01*
X116409813Y-108611393D01*
X116409811Y-108611392D01*
X116351329Y-108599760D01*
X116351328Y-108599760D01*
X115411832Y-108599760D01*
X115411831Y-108599760D01*
X115353349Y-108611392D01*
X115278893Y-108661144D01*
X115204682Y-108686336D01*
X115194778Y-108686660D01*
X115167279Y-108686660D01*
X115079584Y-108722984D01*
X114777411Y-109025156D01*
X114709540Y-109064341D01*
X114670356Y-109069500D01*
X114495133Y-109069500D01*
X114470011Y-109072414D01*
X114470010Y-109072414D01*
X114426926Y-109091438D01*
X114367235Y-109117794D01*
X114367234Y-109117795D01*
X114367233Y-109117795D01*
X114287794Y-109197234D01*
X114242415Y-109300007D01*
X114242413Y-109300013D01*
X114239500Y-109325132D01*
X114239500Y-109614866D01*
X111984170Y-109614866D01*
X111984170Y-109526942D01*
X111979908Y-109505512D01*
X111972537Y-109468458D01*
X111966830Y-109454680D01*
X111969554Y-109453551D01*
X111951568Y-109400568D01*
X111956355Y-109376495D01*
X111949594Y-109378791D01*
X111872730Y-109363500D01*
X111865423Y-109359281D01*
X111861901Y-109357822D01*
X111803419Y-109346190D01*
X111803418Y-109346190D01*
X111513922Y-109346190D01*
X111513921Y-109346190D01*
X111455438Y-109357822D01*
X111455436Y-109357823D01*
X111389119Y-109402136D01*
X111389116Y-109402139D01*
X111344803Y-109468456D01*
X111344802Y-109468458D01*
X111333170Y-109526941D01*
X111333170Y-110466438D01*
X110984170Y-110466438D01*
X110984170Y-109526941D01*
X110972537Y-109468458D01*
X110972536Y-109468456D01*
X110928223Y-109402139D01*
X110928220Y-109402136D01*
X110861903Y-109357823D01*
X110861901Y-109357822D01*
X110803419Y-109346190D01*
X110803418Y-109346190D01*
X110513922Y-109346190D01*
X110513921Y-109346190D01*
X110440813Y-109360732D01*
X110440011Y-109356700D01*
X110388866Y-109363419D01*
X110376643Y-109360144D01*
X110376527Y-109360732D01*
X110303419Y-109346190D01*
X110303418Y-109346190D01*
X110013922Y-109346190D01*
X110013921Y-109346190D01*
X109940813Y-109360732D01*
X109940011Y-109356700D01*
X109888866Y-109363419D01*
X109876643Y-109360144D01*
X109876527Y-109360732D01*
X109803419Y-109346190D01*
X109803418Y-109346190D01*
X109513922Y-109346190D01*
X109513921Y-109346190D01*
X109440813Y-109360732D01*
X109440011Y-109356700D01*
X109388866Y-109363419D01*
X109376643Y-109360144D01*
X109376527Y-109360732D01*
X109303419Y-109346190D01*
X109303418Y-109346190D01*
X109013922Y-109346190D01*
X109013921Y-109346190D01*
X108940813Y-109360732D01*
X108940011Y-109356700D01*
X108888866Y-109363419D01*
X108876643Y-109360144D01*
X108876527Y-109360732D01*
X108803419Y-109346190D01*
X108803418Y-109346190D01*
X108513922Y-109346190D01*
X108513921Y-109346190D01*
X108440813Y-109360732D01*
X108440011Y-109356700D01*
X108388866Y-109363419D01*
X108376643Y-109360144D01*
X108376527Y-109360732D01*
X108303419Y-109346190D01*
X108303418Y-109346190D01*
X108013922Y-109346190D01*
X108013921Y-109346190D01*
X107940813Y-109360732D01*
X107940011Y-109356700D01*
X107888866Y-109363419D01*
X107876643Y-109360144D01*
X107876527Y-109360732D01*
X107803419Y-109346190D01*
X107803418Y-109346190D01*
X107513922Y-109346190D01*
X107513921Y-109346190D01*
X107440813Y-109360732D01*
X107440011Y-109356700D01*
X107388866Y-109363419D01*
X107376643Y-109360144D01*
X107376527Y-109360732D01*
X107303419Y-109346190D01*
X107303418Y-109346190D01*
X107013922Y-109346190D01*
X107013921Y-109346190D01*
X106940813Y-109360732D01*
X106940011Y-109356700D01*
X106888866Y-109363419D01*
X106876643Y-109360144D01*
X106876527Y-109360732D01*
X106803419Y-109346190D01*
X106803418Y-109346190D01*
X106513922Y-109346190D01*
X106513921Y-109346190D01*
X106455438Y-109357822D01*
X106441660Y-109363530D01*
X106440531Y-109360806D01*
X106387531Y-109378792D01*
X106310668Y-109363495D01*
X106251751Y-109311816D01*
X106226567Y-109237602D01*
X106241864Y-109160739D01*
X106246081Y-109153435D01*
X106247537Y-109149921D01*
X106259170Y-109091438D01*
X106259170Y-108801941D01*
X106247537Y-108743458D01*
X106247536Y-108743456D01*
X106203223Y-108677139D01*
X106203220Y-108677136D01*
X106136903Y-108632823D01*
X106136901Y-108632822D01*
X106078419Y-108621190D01*
X106078418Y-108621190D01*
X105138922Y-108621190D01*
X105138921Y-108621190D01*
X105080438Y-108632822D01*
X105080436Y-108632823D01*
X105014119Y-108677136D01*
X105014116Y-108677139D01*
X104969803Y-108743456D01*
X104969802Y-108743458D01*
X104958170Y-108801941D01*
X104958170Y-109091438D01*
X104969802Y-109149921D01*
X104969803Y-109149923D01*
X105014116Y-109216240D01*
X105014119Y-109216243D01*
X105080436Y-109260556D01*
X105080438Y-109260557D01*
X105138921Y-109272190D01*
X105138922Y-109272190D01*
X105218670Y-109272190D01*
X105294370Y-109292474D01*
X105349786Y-109347890D01*
X105370070Y-109423590D01*
X105370070Y-109826130D01*
X105406394Y-109913825D01*
X105482600Y-109990031D01*
X105521785Y-110057902D01*
X105521785Y-110136272D01*
X105482600Y-110204143D01*
X105472486Y-110212542D01*
X105387794Y-110297234D01*
X105342415Y-110400007D01*
X105342413Y-110400013D01*
X105339500Y-110425132D01*
X105339500Y-110714866D01*
X105342414Y-110739988D01*
X105342415Y-110739993D01*
X105354317Y-110766947D01*
X105366338Y-110844390D01*
X105338027Y-110917468D01*
X105276970Y-110966600D01*
X105215818Y-110979500D01*
X104945133Y-110979500D01*
X104920011Y-110982414D01*
X104920010Y-110982414D01*
X104877931Y-111000994D01*
X104817235Y-111027794D01*
X104817234Y-111027795D01*
X104817233Y-111027795D01*
X104800367Y-111044662D01*
X104732496Y-111083847D01*
X104654126Y-111083847D01*
X104586255Y-111044662D01*
X104352944Y-110811351D01*
X104313759Y-110743480D01*
X104308600Y-110704295D01*
X104308600Y-108131543D01*
X104328884Y-108055843D01*
X104352944Y-108024487D01*
X104647797Y-107729634D01*
X104715668Y-107690449D01*
X104754853Y-107685290D01*
X104921868Y-107685290D01*
X104997568Y-107705574D01*
X105005983Y-107710806D01*
X105014117Y-107716241D01*
X105014118Y-107716242D01*
X105080439Y-107760557D01*
X105080438Y-107760557D01*
X105138921Y-107772190D01*
X105138922Y-107772190D01*
X106078418Y-107772190D01*
X106136901Y-107760557D01*
X106136903Y-107760556D01*
X106194561Y-107722029D01*
X106203222Y-107716242D01*
X106236542Y-107666376D01*
X106247536Y-107649923D01*
X106247537Y-107649921D01*
X106259170Y-107591438D01*
X106259170Y-107301941D01*
X106244628Y-107228833D01*
X106248662Y-107228030D01*
X106241933Y-107176935D01*
X106245220Y-107164664D01*
X106244628Y-107164547D01*
X106259170Y-107091438D01*
X106259170Y-106801941D01*
X106244628Y-106728833D01*
X106248662Y-106728030D01*
X106241933Y-106676935D01*
X106245220Y-106664664D01*
X106244628Y-106664547D01*
X106259170Y-106591438D01*
X106259170Y-106301941D01*
X106244628Y-106228833D01*
X106248662Y-106228030D01*
X106241933Y-106176935D01*
X106245220Y-106164664D01*
X106244628Y-106164547D01*
X106259170Y-106091438D01*
X106259170Y-105801941D01*
X106244628Y-105728833D01*
X106248662Y-105728030D01*
X106241933Y-105676935D01*
X106245220Y-105664664D01*
X106244628Y-105664547D01*
X106259170Y-105591438D01*
X106259170Y-105301941D01*
X106244628Y-105228833D01*
X106248662Y-105228030D01*
X106241933Y-105176935D01*
X106245220Y-105164664D01*
X106244628Y-105164547D01*
X106259170Y-105091438D01*
X106259170Y-104801941D01*
X106244628Y-104728833D01*
X106248662Y-104728030D01*
X106241933Y-104676935D01*
X106245220Y-104664664D01*
X106244628Y-104664547D01*
X106259170Y-104591438D01*
X106259170Y-104301941D01*
X106244628Y-104228833D01*
X106248662Y-104228030D01*
X106241933Y-104176935D01*
X106245220Y-104164664D01*
X106244628Y-104164547D01*
X106259170Y-104091438D01*
X106259170Y-103801941D01*
X106247537Y-103743458D01*
X106241830Y-103729680D01*
X106244554Y-103728551D01*
X106226568Y-103675568D01*
X106231355Y-103651495D01*
X106224594Y-103653791D01*
X106147730Y-103638500D01*
X106140423Y-103634281D01*
X106136901Y-103632822D01*
X106078419Y-103621190D01*
X106078418Y-103621190D01*
X105138922Y-103621190D01*
X105138918Y-103621190D01*
X105069553Y-103634987D01*
X104991350Y-103629861D01*
X104971284Y-103621394D01*
X104890416Y-103580190D01*
X104890409Y-103580187D01*
X104780000Y-103562701D01*
X104669590Y-103580187D01*
X104669586Y-103580189D01*
X104569985Y-103630938D01*
X104490938Y-103709985D01*
X104440189Y-103809586D01*
X104440187Y-103809590D01*
X104432179Y-103860155D01*
X104422701Y-103920000D01*
X104440188Y-104030411D01*
X104440189Y-104030413D01*
X104440190Y-104030416D01*
X104452088Y-104053768D01*
X104468381Y-104130426D01*
X104452088Y-104191232D01*
X104440190Y-104214583D01*
X104440187Y-104214591D01*
X104420837Y-104336769D01*
X104417613Y-104336258D01*
X104402417Y-104392972D01*
X104347001Y-104448388D01*
X104294985Y-104466808D01*
X104251004Y-104473773D01*
X104251000Y-104473775D01*
X104151399Y-104524524D01*
X104072352Y-104603571D01*
X104021603Y-104703172D01*
X104021601Y-104703176D01*
X104004115Y-104813585D01*
X104004115Y-104813586D01*
X104021601Y-104923995D01*
X104021603Y-104923999D01*
X104065646Y-105010439D01*
X104072353Y-105023601D01*
X104151399Y-105102647D01*
X104251003Y-105153398D01*
X104350720Y-105169191D01*
X104422315Y-105201066D01*
X104468381Y-105264469D01*
X104476573Y-105342410D01*
X104462701Y-105429998D01*
X104462701Y-105430000D01*
X104480187Y-105540409D01*
X104480188Y-105540411D01*
X104495268Y-105570008D01*
X104523742Y-105625890D01*
X104540037Y-105702548D01*
X104523743Y-105763358D01*
X104500189Y-105809585D01*
X104500187Y-105809590D01*
X104482701Y-105919999D01*
X104482701Y-105920001D01*
X104491319Y-105974417D01*
X104483127Y-106052358D01*
X104437061Y-106115761D01*
X104365466Y-106147636D01*
X104341784Y-106149500D01*
X104095133Y-106149500D01*
X104070011Y-106152414D01*
X104070010Y-106152414D01*
X104018622Y-106175104D01*
X103967235Y-106197794D01*
X103967234Y-106197795D01*
X103967233Y-106197795D01*
X103887794Y-106277234D01*
X103842415Y-106380007D01*
X103842413Y-106380013D01*
X103839500Y-106405132D01*
X103839500Y-106694866D01*
X103842414Y-106719988D01*
X103842414Y-106719989D01*
X103842415Y-106719991D01*
X103887794Y-106822765D01*
X103967235Y-106902206D01*
X104070009Y-106947585D01*
X104070010Y-106947585D01*
X104070013Y-106947586D01*
X104081345Y-106948900D01*
X104095135Y-106950500D01*
X104389475Y-106950499D01*
X104465176Y-106970783D01*
X104520592Y-107026199D01*
X104533464Y-107055109D01*
X104535494Y-107061356D01*
X104539599Y-107139619D01*
X104504021Y-107209449D01*
X104469181Y-107234077D01*
X104470553Y-107236130D01*
X104458154Y-107244414D01*
X103867724Y-107834844D01*
X103831400Y-107922539D01*
X103831400Y-110913298D01*
X103867724Y-111000993D01*
X104449006Y-111582275D01*
X104536701Y-111618600D01*
X104536702Y-111618600D01*
X104640917Y-111618600D01*
X104716617Y-111638884D01*
X104747973Y-111662944D01*
X104817235Y-111732206D01*
X104920009Y-111777585D01*
X104920010Y-111777585D01*
X104920013Y-111777586D01*
X104931345Y-111778900D01*
X104945135Y-111780500D01*
X105294864Y-111780499D01*
X105294866Y-111780499D01*
X105304914Y-111779333D01*
X105319991Y-111777585D01*
X105378847Y-111751597D01*
X105456287Y-111739576D01*
X105501154Y-111751598D01*
X105559211Y-111777233D01*
X105560009Y-111777585D01*
X105560010Y-111777585D01*
X105560013Y-111777586D01*
X105571345Y-111778900D01*
X105585135Y-111780500D01*
X105934864Y-111780499D01*
X105934866Y-111780499D01*
X105944914Y-111779333D01*
X105959991Y-111777585D01*
X106062765Y-111732206D01*
X106087024Y-111707947D01*
X106154895Y-111668762D01*
X106233265Y-111668762D01*
X106301136Y-111707947D01*
X106340321Y-111775818D01*
X106345480Y-111815003D01*
X106345480Y-112341898D01*
X106381804Y-112429593D01*
X108279486Y-114327275D01*
X108367181Y-114363600D01*
X108367182Y-114363600D01*
X117582460Y-114363600D01*
X117670156Y-114327275D01*
X117685327Y-114312103D01*
X117753192Y-114272918D01*
X117768681Y-114269625D01*
X117787711Y-114266612D01*
X117887313Y-114215862D01*
X117887314Y-114215862D01*
X117887315Y-114215861D01*
X117966361Y-114136815D01*
X118017112Y-114037211D01*
X118034599Y-113926800D01*
X118017112Y-113816389D01*
X117966361Y-113716785D01*
X117887315Y-113637739D01*
X117887314Y-113637738D01*
X117787713Y-113586989D01*
X117787709Y-113586987D01*
X117677300Y-113569501D01*
X117677299Y-113569501D01*
X117573640Y-113585918D01*
X117495699Y-113577726D01*
X117481223Y-113571280D01*
X117377616Y-113518490D01*
X117377609Y-113518487D01*
X117267200Y-113501001D01*
X117213311Y-113509536D01*
X117189627Y-113511400D01*
X109651083Y-113511400D01*
X109575383Y-113491116D01*
X109519967Y-113435700D01*
X109499683Y-113360000D01*
X109501547Y-113336316D01*
X109507299Y-113299999D01*
X109489812Y-113189590D01*
X109489810Y-113189586D01*
X109439061Y-113089985D01*
X109360014Y-113010938D01*
X109260413Y-112960189D01*
X109260409Y-112960187D01*
X109174980Y-112946657D01*
X109103385Y-112914781D01*
X109091608Y-112904177D01*
X108891207Y-112703776D01*
X108852022Y-112635905D01*
X108852022Y-112557535D01*
X108891207Y-112489664D01*
X108959078Y-112450479D01*
X108959987Y-112450306D01*
X108969987Y-112447585D01*
X108969991Y-112447585D01*
X109072765Y-112402206D01*
X109152206Y-112322765D01*
X109197585Y-112219991D01*
X109200500Y-112194865D01*
X109200499Y-111905136D01*
X109197585Y-111880009D01*
X109152206Y-111777235D01*
X109072765Y-111697794D01*
X109062845Y-111687874D01*
X109063982Y-111686736D01*
X109023446Y-111639419D01*
X109008600Y-111574035D01*
X109008600Y-111443164D01*
X109028884Y-111367464D01*
X109084300Y-111312048D01*
X109136317Y-111293628D01*
X109160411Y-111289812D01*
X109206265Y-111266447D01*
X109282922Y-111250153D01*
X109343735Y-111266448D01*
X109389586Y-111289811D01*
X109389588Y-111289811D01*
X109389589Y-111289812D01*
X109500000Y-111307299D01*
X109610411Y-111289812D01*
X109691267Y-111248613D01*
X109767922Y-111232319D01*
X109842457Y-111256536D01*
X109894898Y-111314776D01*
X109905881Y-111360526D01*
X109908491Y-111360007D01*
X109911399Y-111374631D01*
X109947724Y-111462326D01*
X109947725Y-111462327D01*
X111434372Y-112948975D01*
X111522069Y-112985300D01*
X111522070Y-112985300D01*
X118269785Y-112985300D01*
X118357481Y-112948975D01*
X118820470Y-112485984D01*
X118888338Y-112446801D01*
X118903833Y-112443507D01*
X118989272Y-112429976D01*
X119088876Y-112379225D01*
X119167922Y-112300179D01*
X119218673Y-112200575D01*
X119232203Y-112115143D01*
X119264078Y-112043549D01*
X119274673Y-112031781D01*
X120369803Y-110936653D01*
X120437673Y-110897469D01*
X120516043Y-110897469D01*
X120583914Y-110936654D01*
X120623099Y-111004525D01*
X120623099Y-111082895D01*
X120611757Y-111112444D01*
X120585188Y-111164588D01*
X120585187Y-111164590D01*
X120567701Y-111274999D01*
X120567701Y-111275000D01*
X120585187Y-111385409D01*
X120585189Y-111385413D01*
X120635938Y-111485014D01*
X120642056Y-111491132D01*
X120681241Y-111559003D01*
X120686400Y-111598188D01*
X120686400Y-115222460D01*
X120722724Y-115310155D01*
X123275657Y-117863088D01*
X123314842Y-117930959D01*
X123320001Y-117970144D01*
X123320001Y-117975000D01*
X123337487Y-118085409D01*
X123337489Y-118085413D01*
X123386549Y-118181700D01*
X123388239Y-118185015D01*
X123467285Y-118264061D01*
X123566889Y-118314812D01*
X123677300Y-118332299D01*
X123787711Y-118314812D01*
X123887315Y-118264061D01*
X123966361Y-118185015D01*
X124017112Y-118085411D01*
X124034599Y-117975000D01*
X124032080Y-117959098D01*
X124017112Y-117864590D01*
X124017110Y-117864586D01*
X124013509Y-117857519D01*
X123966361Y-117764985D01*
X123887315Y-117685939D01*
X123887314Y-117685938D01*
X123877477Y-117680926D01*
X124793300Y-117680926D01*
X124832600Y-117827597D01*
X124908522Y-117959098D01*
X124908524Y-117959101D01*
X125015898Y-118066475D01*
X125015901Y-118066477D01*
X125147402Y-118142399D01*
X125294074Y-118181700D01*
X125294076Y-118181700D01*
X125445925Y-118181700D01*
X125519261Y-118162049D01*
X125592598Y-118142399D01*
X125724102Y-118066475D01*
X125831475Y-117959102D01*
X125907399Y-117827598D01*
X125927780Y-117751535D01*
X125946700Y-117680926D01*
X125946700Y-117529073D01*
X125907399Y-117382402D01*
X125831477Y-117250901D01*
X125831475Y-117250898D01*
X125724101Y-117143524D01*
X125724098Y-117143522D01*
X125592597Y-117067600D01*
X125445927Y-117028300D01*
X125445924Y-117028300D01*
X125294076Y-117028300D01*
X125294073Y-117028300D01*
X125147402Y-117067600D01*
X125015901Y-117143522D01*
X125015898Y-117143524D01*
X124908524Y-117250898D01*
X124908522Y-117250901D01*
X124832600Y-117382402D01*
X124793300Y-117529073D01*
X124793300Y-117680926D01*
X123877477Y-117680926D01*
X123787713Y-117635189D01*
X123787712Y-117635188D01*
X123787711Y-117635188D01*
X123776636Y-117633433D01*
X123758954Y-117630633D01*
X123687359Y-117598755D01*
X123675584Y-117588153D01*
X121207944Y-115120513D01*
X121168759Y-115052642D01*
X121163600Y-115013457D01*
X121163600Y-111617740D01*
X121183884Y-111542040D01*
X121239300Y-111486624D01*
X121315000Y-111466340D01*
X125369720Y-111466340D01*
X125457416Y-111430015D01*
X125716575Y-111170856D01*
X125752900Y-111083160D01*
X125752900Y-110988239D01*
X125752900Y-101616840D01*
X125741645Y-101589669D01*
X125729068Y-101559305D01*
X125729067Y-101559302D01*
X125716576Y-101529145D01*
X125716574Y-101529142D01*
X125035155Y-100847724D01*
X124947461Y-100811400D01*
X124947460Y-100811400D01*
X123596017Y-100811400D01*
X123520317Y-100791116D01*
X123488961Y-100767056D01*
X121769691Y-99047786D01*
X121730506Y-98979915D01*
X121730506Y-98901545D01*
X121769691Y-98833674D01*
X121837562Y-98794489D01*
X121876747Y-98789330D01*
X122015598Y-98789330D01*
X122074081Y-98777697D01*
X122074083Y-98777696D01*
X122114007Y-98751019D01*
X122140402Y-98733382D01*
X122184717Y-98667061D01*
X122196350Y-98608578D01*
X122196350Y-97669082D01*
X122195315Y-97663876D01*
X122184717Y-97610598D01*
X122179010Y-97596820D01*
X122181734Y-97595691D01*
X122163748Y-97542708D01*
X122168535Y-97518635D01*
X122161774Y-97520931D01*
X122084910Y-97505640D01*
X122077603Y-97501421D01*
X122074081Y-97499962D01*
X122015599Y-97488330D01*
X122015598Y-97488330D01*
X121726102Y-97488330D01*
X121726101Y-97488330D01*
X121667618Y-97499962D01*
X121667616Y-97499963D01*
X121601299Y-97544276D01*
X121601296Y-97544279D01*
X121556983Y-97610596D01*
X121556982Y-97610598D01*
X121545350Y-97669081D01*
X121545350Y-98457933D01*
X121525066Y-98533633D01*
X121469650Y-98589049D01*
X121393950Y-98609333D01*
X121318250Y-98589049D01*
X121286894Y-98564989D01*
X121240694Y-98518789D01*
X121201509Y-98450918D01*
X121196350Y-98411733D01*
X121196350Y-97669081D01*
X121184717Y-97610598D01*
X121184716Y-97610596D01*
X121140403Y-97544279D01*
X121140400Y-97544276D01*
X121074083Y-97499963D01*
X121074081Y-97499962D01*
X121015599Y-97488330D01*
X121015598Y-97488330D01*
X120726102Y-97488330D01*
X120726101Y-97488330D01*
X120652993Y-97502872D01*
X120652191Y-97498840D01*
X120601046Y-97505559D01*
X120588823Y-97502284D01*
X120588707Y-97502872D01*
X120515599Y-97488330D01*
X120515598Y-97488330D01*
X120226102Y-97488330D01*
X120226101Y-97488330D01*
X120152993Y-97502872D01*
X120152191Y-97498840D01*
X120101046Y-97505559D01*
X120088823Y-97502284D01*
X120088707Y-97502872D01*
X120015599Y-97488330D01*
X120015598Y-97488330D01*
X119726102Y-97488330D01*
X119726101Y-97488330D01*
X119652993Y-97502872D01*
X119652191Y-97498840D01*
X119601046Y-97505559D01*
X119588823Y-97502284D01*
X119588707Y-97502872D01*
X119515599Y-97488330D01*
X119515598Y-97488330D01*
X119226102Y-97488330D01*
X119226101Y-97488330D01*
X119152993Y-97502872D01*
X119152191Y-97498840D01*
X119101046Y-97505559D01*
X119088823Y-97502284D01*
X119088707Y-97502872D01*
X119015599Y-97488330D01*
X119015598Y-97488330D01*
X118726102Y-97488330D01*
X118726101Y-97488330D01*
X118652993Y-97502872D01*
X118652191Y-97498840D01*
X118601046Y-97505559D01*
X118588823Y-97502284D01*
X118588707Y-97502872D01*
X118515599Y-97488330D01*
X118515598Y-97488330D01*
X118226102Y-97488330D01*
X118226101Y-97488330D01*
X118152993Y-97502872D01*
X118152191Y-97498840D01*
X118101046Y-97505559D01*
X118088823Y-97502284D01*
X118088707Y-97502872D01*
X118015599Y-97488330D01*
X118015598Y-97488330D01*
X117726102Y-97488330D01*
X117726101Y-97488330D01*
X117652993Y-97502872D01*
X117652191Y-97498840D01*
X117601046Y-97505559D01*
X117588823Y-97502284D01*
X117588707Y-97502872D01*
X117515599Y-97488330D01*
X117515598Y-97488330D01*
X117226102Y-97488330D01*
X117226101Y-97488330D01*
X117152993Y-97502872D01*
X117152191Y-97498840D01*
X117101046Y-97505559D01*
X117088823Y-97502284D01*
X117088707Y-97502872D01*
X117015599Y-97488330D01*
X117015598Y-97488330D01*
X116726102Y-97488330D01*
X116726101Y-97488330D01*
X116667618Y-97499962D01*
X116653840Y-97505670D01*
X116652711Y-97502946D01*
X116599711Y-97520932D01*
X116522848Y-97505635D01*
X116463931Y-97453956D01*
X116438747Y-97379742D01*
X116454044Y-97302879D01*
X116458261Y-97295575D01*
X116459717Y-97292061D01*
X116471350Y-97233578D01*
X116471350Y-96944081D01*
X116459717Y-96885598D01*
X116459716Y-96885596D01*
X116415403Y-96819279D01*
X116415400Y-96819276D01*
X116349083Y-96774963D01*
X116349081Y-96774962D01*
X116290599Y-96763330D01*
X116290598Y-96763330D01*
X115351102Y-96763330D01*
X115348728Y-96763330D01*
X115273028Y-96743046D01*
X115217612Y-96687630D01*
X115209827Y-96658578D01*
X117120350Y-96658578D01*
X117131982Y-96717061D01*
X117131983Y-96717063D01*
X117176296Y-96783380D01*
X117176299Y-96783383D01*
X117242616Y-96827696D01*
X117242618Y-96827697D01*
X117301101Y-96839330D01*
X117301102Y-96839330D01*
X121440598Y-96839330D01*
X121499081Y-96827697D01*
X121499083Y-96827696D01*
X121549436Y-96794050D01*
X121565402Y-96783382D01*
X121609717Y-96717061D01*
X121621350Y-96658578D01*
X121621350Y-93978830D01*
X121641634Y-93903130D01*
X121697050Y-93847714D01*
X121772750Y-93827430D01*
X122118950Y-93827430D01*
X122194650Y-93847714D01*
X122250066Y-93903130D01*
X122270350Y-93978830D01*
X122270350Y-94233578D01*
X122284892Y-94306687D01*
X122280860Y-94307488D01*
X122287579Y-94358634D01*
X122284304Y-94370856D01*
X122284892Y-94370973D01*
X122270350Y-94444081D01*
X122270350Y-94733578D01*
X122284892Y-94806687D01*
X122280860Y-94807488D01*
X122287579Y-94858634D01*
X122284304Y-94870856D01*
X122284892Y-94870973D01*
X122270350Y-94944081D01*
X122270350Y-95233578D01*
X122281982Y-95292061D01*
X122281983Y-95292063D01*
X122326296Y-95358380D01*
X122326299Y-95358383D01*
X122392616Y-95402696D01*
X122392618Y-95402697D01*
X122451101Y-95414330D01*
X122451102Y-95414330D01*
X123390598Y-95414330D01*
X123449081Y-95402697D01*
X123449081Y-95402696D01*
X123452181Y-95402080D01*
X123530383Y-95407206D01*
X123563571Y-95423205D01*
X123567441Y-95425692D01*
X123567442Y-95425693D01*
X123688517Y-95503503D01*
X123688518Y-95503503D01*
X123688521Y-95503505D01*
X123826601Y-95544048D01*
X123826603Y-95544048D01*
X123826609Y-95544050D01*
X123826615Y-95544050D01*
X123831539Y-95544758D01*
X123903583Y-95575605D01*
X123950552Y-95638341D01*
X123961400Y-95694618D01*
X123961400Y-95695700D01*
X123941116Y-95771400D01*
X123885700Y-95826816D01*
X123810000Y-95847100D01*
X123666840Y-95847100D01*
X123665734Y-95847320D01*
X123636194Y-95850230D01*
X123607652Y-95850230D01*
X123531952Y-95829946D01*
X123523537Y-95824714D01*
X123515399Y-95819276D01*
X123449081Y-95774963D01*
X123449080Y-95774962D01*
X123449081Y-95774962D01*
X123390599Y-95763330D01*
X123390598Y-95763330D01*
X122451102Y-95763330D01*
X122451101Y-95763330D01*
X122392618Y-95774962D01*
X122392616Y-95774963D01*
X122326299Y-95819276D01*
X122326296Y-95819279D01*
X122281983Y-95885596D01*
X122281982Y-95885598D01*
X122270350Y-95944081D01*
X122270350Y-96233578D01*
X122284892Y-96306687D01*
X122280860Y-96307488D01*
X122287579Y-96358634D01*
X122284304Y-96370856D01*
X122284892Y-96370973D01*
X122270350Y-96444081D01*
X122270350Y-96733578D01*
X122284892Y-96806687D01*
X122280860Y-96807488D01*
X122287579Y-96858634D01*
X122284304Y-96870856D01*
X122284892Y-96870973D01*
X122270350Y-96944081D01*
X122270350Y-97233578D01*
X122281982Y-97292061D01*
X122287690Y-97305840D01*
X122284965Y-97306968D01*
X122302951Y-97359956D01*
X122298163Y-97384021D01*
X122304920Y-97381728D01*
X122381784Y-97397016D01*
X122389097Y-97401238D01*
X122392618Y-97402697D01*
X122451101Y-97414330D01*
X122451102Y-97414330D01*
X123390598Y-97414330D01*
X123449081Y-97402697D01*
X123449083Y-97402696D01*
X123507488Y-97363670D01*
X123515402Y-97358382D01*
X123559717Y-97292061D01*
X123571350Y-97233578D01*
X123571350Y-96944082D01*
X123569038Y-96932457D01*
X123556808Y-96870973D01*
X123560842Y-96870170D01*
X123554113Y-96819075D01*
X123557400Y-96806804D01*
X123556808Y-96806687D01*
X123571350Y-96733578D01*
X123571350Y-96478830D01*
X123591634Y-96403130D01*
X123647050Y-96347714D01*
X123722750Y-96327430D01*
X123872721Y-96327430D01*
X123873827Y-96327210D01*
X123903367Y-96324300D01*
X124096633Y-96324300D01*
X124126173Y-96327210D01*
X124127279Y-96327430D01*
X124247460Y-96327430D01*
X124248566Y-96327210D01*
X124278106Y-96324300D01*
X124876250Y-96324300D01*
X124951950Y-96344584D01*
X125007366Y-96400000D01*
X125014749Y-96414546D01*
X125022791Y-96432761D01*
X125022793Y-96432764D01*
X125022794Y-96432765D01*
X125102235Y-96512206D01*
X125205009Y-96557585D01*
X125205010Y-96557585D01*
X125205013Y-96557586D01*
X125216345Y-96558900D01*
X125230135Y-96560500D01*
X125519864Y-96560499D01*
X125519866Y-96560499D01*
X125529914Y-96559333D01*
X125544991Y-96557585D01*
X125647765Y-96512206D01*
X125727206Y-96432765D01*
X125772585Y-96329991D01*
X125775500Y-96304865D01*
X125775499Y-95955136D01*
X125774640Y-95947732D01*
X125772585Y-95930011D01*
X125772585Y-95930010D01*
X125772585Y-95930009D01*
X125727206Y-95827235D01*
X125647765Y-95747794D01*
X125615569Y-95733578D01*
X125544992Y-95702415D01*
X125544986Y-95702413D01*
X125519867Y-95699500D01*
X125230133Y-95699500D01*
X125205011Y-95702414D01*
X125205010Y-95702414D01*
X125153682Y-95725078D01*
X125102235Y-95747794D01*
X125102234Y-95747795D01*
X125102233Y-95747795D01*
X125086699Y-95763330D01*
X125047272Y-95802756D01*
X124979404Y-95841941D01*
X124940218Y-95847100D01*
X124590000Y-95847100D01*
X124514300Y-95826816D01*
X124458884Y-95771400D01*
X124438600Y-95695700D01*
X124438600Y-95297519D01*
X124408141Y-95223986D01*
X124408137Y-95223977D01*
X124401861Y-95208823D01*
X124391636Y-95131123D01*
X124391868Y-95129436D01*
X124404217Y-95043550D01*
X124392152Y-94959637D01*
X124401456Y-94881825D01*
X124448421Y-94819086D01*
X124500068Y-94796532D01*
X124499081Y-94793493D01*
X124510402Y-94789813D01*
X124510411Y-94789812D01*
X124610015Y-94739061D01*
X124610015Y-94739060D01*
X124617785Y-94735102D01*
X124686520Y-94718600D01*
X124899036Y-94718600D01*
X124974736Y-94738884D01*
X125012174Y-94773544D01*
X125012874Y-94772845D01*
X125022794Y-94782765D01*
X125102235Y-94862206D01*
X125205009Y-94907585D01*
X125205010Y-94907585D01*
X125205013Y-94907586D01*
X125216345Y-94908900D01*
X125230135Y-94910500D01*
X125519864Y-94910499D01*
X125519866Y-94910499D01*
X125529914Y-94909333D01*
X125544991Y-94907585D01*
X125647765Y-94862206D01*
X125727206Y-94782765D01*
X125772585Y-94679991D01*
X125775500Y-94654865D01*
X125775499Y-94305136D01*
X125775162Y-94302234D01*
X125772585Y-94280011D01*
X125772585Y-94280010D01*
X125772585Y-94280009D01*
X125727206Y-94177235D01*
X125647765Y-94097794D01*
X125544992Y-94052415D01*
X125544986Y-94052413D01*
X125519867Y-94049500D01*
X125230133Y-94049500D01*
X125205011Y-94052414D01*
X125205010Y-94052414D01*
X125153622Y-94075104D01*
X125102235Y-94097794D01*
X125102234Y-94097795D01*
X125102233Y-94097795D01*
X125012874Y-94187155D01*
X125011736Y-94186017D01*
X124964429Y-94226549D01*
X124899036Y-94241400D01*
X124753188Y-94241400D01*
X124677488Y-94221116D01*
X124646132Y-94197056D01*
X124610014Y-94160938D01*
X124510413Y-94110189D01*
X124510409Y-94110187D01*
X124400000Y-94092701D01*
X124399997Y-94092701D01*
X124316668Y-94105898D01*
X124295843Y-94103708D01*
X124289606Y-94109946D01*
X124282640Y-94113728D01*
X124189986Y-94160937D01*
X124189986Y-94160938D01*
X124110938Y-94239985D01*
X124096886Y-94267565D01*
X124044446Y-94325805D01*
X123969911Y-94350023D01*
X123961988Y-94350230D01*
X123722750Y-94350230D01*
X123647050Y-94329946D01*
X123591634Y-94274530D01*
X123571350Y-94198830D01*
X123571350Y-93978830D01*
X123591634Y-93903130D01*
X123647050Y-93847714D01*
X123722750Y-93827430D01*
X124213906Y-93827430D01*
X124215800Y-93827937D01*
X124235044Y-93816488D01*
X124296326Y-93791105D01*
X125307588Y-92779843D01*
X125375459Y-92740658D01*
X125414644Y-92735499D01*
X125569867Y-92735499D01*
X125582427Y-92734042D01*
X125594991Y-92732585D01*
X125697765Y-92687206D01*
X125777206Y-92607765D01*
X125822585Y-92504991D01*
X125822631Y-92504602D01*
X125823615Y-92496106D01*
X125825500Y-92479865D01*
X125825499Y-92130136D01*
X125822585Y-92105009D01*
X125787178Y-92024821D01*
X125775158Y-91947380D01*
X125780125Y-91924187D01*
X125785899Y-91887736D01*
X125798382Y-91808917D01*
X125793903Y-91780640D01*
X125780895Y-91698507D01*
X125780893Y-91698503D01*
X125776219Y-91689330D01*
X125730144Y-91598902D01*
X125651098Y-91519856D01*
X125651097Y-91519855D01*
X125551496Y-91469106D01*
X125551492Y-91469104D01*
X125441083Y-91451618D01*
X125330673Y-91469104D01*
X125330669Y-91469106D01*
X125231068Y-91519855D01*
X125152021Y-91598902D01*
X125101272Y-91698503D01*
X125101270Y-91698507D01*
X125083784Y-91808916D01*
X125083784Y-91808918D01*
X125097160Y-91893376D01*
X125088968Y-91971317D01*
X125073120Y-92001495D01*
X125027415Y-92105007D01*
X125027413Y-92105013D01*
X125024500Y-92130132D01*
X125024500Y-92325355D01*
X125004216Y-92401055D01*
X124980156Y-92432411D01*
X124758609Y-92653959D01*
X124320795Y-93091774D01*
X124106683Y-93305886D01*
X124038812Y-93345071D01*
X123999627Y-93350230D01*
X123777713Y-93350230D01*
X123702013Y-93329946D01*
X123646597Y-93274530D01*
X123626313Y-93198830D01*
X123646597Y-93123130D01*
X123670657Y-93091774D01*
X123937541Y-92824890D01*
X124212275Y-92550156D01*
X124248600Y-92462460D01*
X124248600Y-92367539D01*
X124248600Y-91887736D01*
X124268884Y-91812036D01*
X124292944Y-91780680D01*
X124301196Y-91772428D01*
X124319649Y-91753975D01*
X124370400Y-91654371D01*
X124387887Y-91543960D01*
X124370400Y-91433549D01*
X124319649Y-91333945D01*
X124240603Y-91254899D01*
X124240602Y-91254898D01*
X124141001Y-91204149D01*
X124140997Y-91204147D01*
X124030588Y-91186661D01*
X123920178Y-91204147D01*
X123920174Y-91204149D01*
X123820573Y-91254898D01*
X123741526Y-91333945D01*
X123690777Y-91433546D01*
X123690775Y-91433550D01*
X123673289Y-91543959D01*
X123673289Y-91543960D01*
X123690775Y-91654369D01*
X123690777Y-91654373D01*
X123741525Y-91753973D01*
X123742482Y-91755289D01*
X123743354Y-91757562D01*
X123746936Y-91764591D01*
X123746197Y-91764967D01*
X123770570Y-91828453D01*
X123771400Y-91844284D01*
X123771400Y-92253457D01*
X123751116Y-92329157D01*
X123727056Y-92360513D01*
X123368583Y-92718986D01*
X123300712Y-92758171D01*
X123261527Y-92763330D01*
X122451101Y-92763330D01*
X122392618Y-92774962D01*
X122392616Y-92774963D01*
X122326299Y-92819276D01*
X122326296Y-92819279D01*
X122281983Y-92885596D01*
X122281982Y-92885598D01*
X122270350Y-92944081D01*
X122270350Y-93198830D01*
X122250066Y-93274530D01*
X122194650Y-93329946D01*
X122118950Y-93350230D01*
X121772750Y-93350230D01*
X121697050Y-93329946D01*
X121641634Y-93274530D01*
X121621350Y-93198830D01*
X121621350Y-92519081D01*
X121609717Y-92460598D01*
X121609716Y-92460596D01*
X121565403Y-92394279D01*
X121565400Y-92394276D01*
X121499083Y-92349963D01*
X121499081Y-92349962D01*
X121440599Y-92338330D01*
X121440598Y-92338330D01*
X117301102Y-92338330D01*
X117301101Y-92338330D01*
X117242618Y-92349962D01*
X117242616Y-92349963D01*
X117176299Y-92394276D01*
X117176296Y-92394279D01*
X117131983Y-92460596D01*
X117131982Y-92460598D01*
X117120350Y-92519081D01*
X117120350Y-96658578D01*
X115209827Y-96658578D01*
X115197328Y-96611930D01*
X115213829Y-96543197D01*
X115227368Y-96516625D01*
X115232294Y-96506957D01*
X115250901Y-96389475D01*
X115232294Y-96271993D01*
X115178293Y-96166010D01*
X115174124Y-96161841D01*
X115134941Y-96093973D01*
X115134941Y-96015603D01*
X115174126Y-95947732D01*
X115241997Y-95908547D01*
X115310717Y-95906297D01*
X115351102Y-95914330D01*
X115351103Y-95914330D01*
X116290598Y-95914330D01*
X116349081Y-95902697D01*
X116349083Y-95902696D01*
X116382241Y-95880539D01*
X116415402Y-95858382D01*
X116449767Y-95806952D01*
X116459716Y-95792063D01*
X116459717Y-95792061D01*
X116471350Y-95733578D01*
X116471350Y-95444081D01*
X116456808Y-95370973D01*
X116460842Y-95370170D01*
X116454113Y-95319075D01*
X116457400Y-95306804D01*
X116456808Y-95306687D01*
X116471350Y-95233578D01*
X116471350Y-94944081D01*
X116456808Y-94870973D01*
X116460842Y-94870170D01*
X116454113Y-94819075D01*
X116457400Y-94806804D01*
X116456808Y-94806687D01*
X116471350Y-94733578D01*
X116471350Y-94444081D01*
X116456808Y-94370973D01*
X116460842Y-94370170D01*
X116454113Y-94319075D01*
X116457400Y-94306804D01*
X116456808Y-94306687D01*
X116471350Y-94233578D01*
X116471350Y-93944081D01*
X116456808Y-93870973D01*
X116460842Y-93870170D01*
X116454113Y-93819075D01*
X116457400Y-93806804D01*
X116456808Y-93806687D01*
X116471350Y-93733578D01*
X116471350Y-93444081D01*
X116456808Y-93370973D01*
X116460842Y-93370170D01*
X116454113Y-93319075D01*
X116457400Y-93306804D01*
X116456808Y-93306687D01*
X116471350Y-93233578D01*
X116471350Y-92944081D01*
X116456808Y-92870973D01*
X116460842Y-92870170D01*
X116454113Y-92819075D01*
X116457400Y-92806804D01*
X116456808Y-92806687D01*
X116471350Y-92733578D01*
X116471350Y-92444081D01*
X116456808Y-92370973D01*
X116460842Y-92370170D01*
X116454113Y-92319075D01*
X116457400Y-92306804D01*
X116456808Y-92306687D01*
X116471350Y-92233578D01*
X116471350Y-91944081D01*
X116459717Y-91885598D01*
X116454010Y-91871820D01*
X116456734Y-91870691D01*
X116438748Y-91817708D01*
X116443535Y-91793635D01*
X116436774Y-91795931D01*
X116359910Y-91780640D01*
X116352603Y-91776421D01*
X116349081Y-91774962D01*
X116290599Y-91763330D01*
X116290598Y-91763330D01*
X115426056Y-91763330D01*
X115357321Y-91746828D01*
X115285413Y-91710189D01*
X115285409Y-91710187D01*
X115175000Y-91692701D01*
X115064590Y-91710187D01*
X115064586Y-91710189D01*
X114964985Y-91760938D01*
X114885938Y-91839985D01*
X114835189Y-91939586D01*
X114835187Y-91939590D01*
X114817701Y-92049999D01*
X114817701Y-92050000D01*
X114835187Y-92160409D01*
X114835190Y-92160416D01*
X114882146Y-92252573D01*
X114898441Y-92329231D01*
X114882147Y-92390040D01*
X114860189Y-92433135D01*
X114860187Y-92433139D01*
X114848869Y-92504602D01*
X114816992Y-92576197D01*
X114753589Y-92622261D01*
X114723017Y-92630453D01*
X114640694Y-92643491D01*
X114640690Y-92643493D01*
X114541089Y-92694242D01*
X114474726Y-92760606D01*
X114406855Y-92799791D01*
X114367670Y-92804950D01*
X113685372Y-92804950D01*
X113609672Y-92784666D01*
X113601257Y-92779434D01*
X113592818Y-92773795D01*
X113526801Y-92729683D01*
X113526800Y-92729682D01*
X113526801Y-92729682D01*
X113468319Y-92718050D01*
X113468318Y-92718050D01*
X112528822Y-92718050D01*
X112528821Y-92718050D01*
X112470338Y-92729682D01*
X112470336Y-92729683D01*
X112404019Y-92773996D01*
X112404016Y-92773999D01*
X112359703Y-92840316D01*
X112359702Y-92840318D01*
X112348070Y-92898801D01*
X112348070Y-93153550D01*
X112327786Y-93229250D01*
X112272370Y-93284666D01*
X112196670Y-93304950D01*
X111850470Y-93304950D01*
X111774770Y-93284666D01*
X111719354Y-93229250D01*
X111699070Y-93153550D01*
X111699070Y-92473801D01*
X111687437Y-92415318D01*
X111687436Y-92415316D01*
X111643123Y-92348999D01*
X111643120Y-92348996D01*
X111576803Y-92304683D01*
X111576801Y-92304682D01*
X111518319Y-92293050D01*
X111518318Y-92293050D01*
X107378822Y-92293050D01*
X107378821Y-92293050D01*
X107320338Y-92304682D01*
X107320336Y-92304683D01*
X107254019Y-92348996D01*
X107254016Y-92348999D01*
X107209703Y-92415316D01*
X107209702Y-92415318D01*
X107198070Y-92473801D01*
X107198070Y-96613298D01*
X107209702Y-96671781D01*
X107209703Y-96671783D01*
X107254016Y-96738100D01*
X107254019Y-96738103D01*
X107320336Y-96782416D01*
X107320338Y-96782417D01*
X107378821Y-96794050D01*
X107378822Y-96794050D01*
X111518318Y-96794050D01*
X111576801Y-96782417D01*
X111576803Y-96782416D01*
X111635723Y-96743046D01*
X111643122Y-96738102D01*
X111687437Y-96671781D01*
X111699070Y-96613298D01*
X111699070Y-93933550D01*
X111719354Y-93857850D01*
X111774770Y-93802434D01*
X111850470Y-93782150D01*
X112196670Y-93782150D01*
X112272370Y-93802434D01*
X112327786Y-93857850D01*
X112348070Y-93933550D01*
X112348070Y-94188298D01*
X112362612Y-94261407D01*
X112358580Y-94262208D01*
X112365299Y-94313354D01*
X112362024Y-94325576D01*
X112362612Y-94325693D01*
X112348070Y-94398801D01*
X112348070Y-94688298D01*
X112362612Y-94761407D01*
X112358580Y-94762208D01*
X112365299Y-94813354D01*
X112362024Y-94825576D01*
X112362612Y-94825693D01*
X112348070Y-94898801D01*
X112348070Y-95188298D01*
X112359702Y-95246781D01*
X112359703Y-95246783D01*
X112404016Y-95313100D01*
X112404019Y-95313103D01*
X112470336Y-95357416D01*
X112470338Y-95357417D01*
X112528821Y-95369050D01*
X112528822Y-95369050D01*
X113468316Y-95369050D01*
X113468318Y-95369050D01*
X113505962Y-95361562D01*
X113584163Y-95366687D01*
X113649326Y-95410227D01*
X113683989Y-95480515D01*
X113678864Y-95558718D01*
X113642554Y-95617109D01*
X113585675Y-95673988D01*
X113517804Y-95713173D01*
X113475756Y-95716620D01*
X113475756Y-95718050D01*
X112528821Y-95718050D01*
X112470338Y-95729682D01*
X112470336Y-95729683D01*
X112404019Y-95773996D01*
X112404016Y-95773999D01*
X112359703Y-95840316D01*
X112359702Y-95840318D01*
X112348070Y-95898801D01*
X112348070Y-96188298D01*
X112362612Y-96261407D01*
X112358580Y-96262208D01*
X112365299Y-96313354D01*
X112362024Y-96325576D01*
X112362612Y-96325693D01*
X112348070Y-96398801D01*
X112348070Y-96688298D01*
X112362612Y-96761407D01*
X112358580Y-96762208D01*
X112365299Y-96813354D01*
X112362024Y-96825576D01*
X112362612Y-96825693D01*
X112348070Y-96898801D01*
X112348070Y-97188298D01*
X112359702Y-97246781D01*
X112365410Y-97260560D01*
X112362685Y-97261688D01*
X112380671Y-97314676D01*
X112365380Y-97391540D01*
X112313706Y-97450461D01*
X112239494Y-97475651D01*
X112162630Y-97460360D01*
X112155323Y-97456141D01*
X112151801Y-97454682D01*
X112093319Y-97443050D01*
X112093318Y-97443050D01*
X111803822Y-97443050D01*
X111803821Y-97443050D01*
X111745338Y-97454682D01*
X111745336Y-97454683D01*
X111679019Y-97498996D01*
X111679016Y-97498999D01*
X111634703Y-97565316D01*
X111634702Y-97565318D01*
X111623070Y-97623801D01*
X111623070Y-98563308D01*
X111623414Y-98565034D01*
X111623344Y-98566088D01*
X111623799Y-98570701D01*
X111623037Y-98570776D01*
X111618282Y-98643236D01*
X111574736Y-98708395D01*
X111504445Y-98743051D01*
X111426243Y-98737919D01*
X111367864Y-98701613D01*
X111318413Y-98652161D01*
X111279228Y-98584290D01*
X111274070Y-98545106D01*
X111274070Y-97623801D01*
X111262437Y-97565318D01*
X111262436Y-97565316D01*
X111218123Y-97498999D01*
X111218120Y-97498996D01*
X111151803Y-97454683D01*
X111151801Y-97454682D01*
X111093319Y-97443050D01*
X111093318Y-97443050D01*
X110803822Y-97443050D01*
X110803821Y-97443050D01*
X110730713Y-97457592D01*
X110729911Y-97453560D01*
X110678766Y-97460279D01*
X110666543Y-97457004D01*
X110666427Y-97457592D01*
X110593319Y-97443050D01*
X110593318Y-97443050D01*
X110303822Y-97443050D01*
X110303821Y-97443050D01*
X110230713Y-97457592D01*
X110229911Y-97453560D01*
X110178766Y-97460279D01*
X110166543Y-97457004D01*
X110166427Y-97457592D01*
X110093319Y-97443050D01*
X110093318Y-97443050D01*
X109803822Y-97443050D01*
X109803821Y-97443050D01*
X109730713Y-97457592D01*
X109729911Y-97453560D01*
X109678766Y-97460279D01*
X109666543Y-97457004D01*
X109666427Y-97457592D01*
X109593319Y-97443050D01*
X109593318Y-97443050D01*
X109303822Y-97443050D01*
X109303821Y-97443050D01*
X109230713Y-97457592D01*
X109229911Y-97453560D01*
X109178766Y-97460279D01*
X109166543Y-97457004D01*
X109166427Y-97457592D01*
X109093319Y-97443050D01*
X109093318Y-97443050D01*
X108803822Y-97443050D01*
X108803821Y-97443050D01*
X108730713Y-97457592D01*
X108729911Y-97453560D01*
X108678766Y-97460279D01*
X108666543Y-97457004D01*
X108666427Y-97457592D01*
X108593319Y-97443050D01*
X108593318Y-97443050D01*
X108303822Y-97443050D01*
X108303821Y-97443050D01*
X108230713Y-97457592D01*
X108229911Y-97453560D01*
X108178766Y-97460279D01*
X108166543Y-97457004D01*
X108166427Y-97457592D01*
X108093319Y-97443050D01*
X108093318Y-97443050D01*
X107803822Y-97443050D01*
X107803821Y-97443050D01*
X107730713Y-97457592D01*
X107729911Y-97453560D01*
X107678766Y-97460279D01*
X107666543Y-97457004D01*
X107666427Y-97457592D01*
X107593319Y-97443050D01*
X107593318Y-97443050D01*
X107303822Y-97443050D01*
X107303821Y-97443050D01*
X107230713Y-97457592D01*
X107229911Y-97453560D01*
X107178766Y-97460279D01*
X107166543Y-97457004D01*
X107166427Y-97457592D01*
X107093319Y-97443050D01*
X107093318Y-97443050D01*
X106803822Y-97443050D01*
X106803821Y-97443050D01*
X106745338Y-97454682D01*
X106731560Y-97460390D01*
X106730431Y-97457666D01*
X106677431Y-97475652D01*
X106600568Y-97460355D01*
X106541651Y-97408676D01*
X106516467Y-97334462D01*
X106531764Y-97257599D01*
X106535981Y-97250295D01*
X106537437Y-97246781D01*
X106549070Y-97188298D01*
X106549070Y-96898801D01*
X106537437Y-96840318D01*
X106537436Y-96840316D01*
X106493123Y-96773999D01*
X106493120Y-96773996D01*
X106426803Y-96729683D01*
X106426801Y-96729682D01*
X106368319Y-96718050D01*
X106368318Y-96718050D01*
X105428822Y-96718050D01*
X105428821Y-96718050D01*
X105370338Y-96729682D01*
X105370336Y-96729683D01*
X105304019Y-96773996D01*
X105304016Y-96773999D01*
X105259703Y-96840316D01*
X105259702Y-96840318D01*
X105248070Y-96898801D01*
X105248070Y-97188298D01*
X105259702Y-97246781D01*
X105259703Y-97246783D01*
X105304016Y-97313100D01*
X105304019Y-97313103D01*
X105370336Y-97357416D01*
X105370338Y-97357416D01*
X105370339Y-97357417D01*
X105371788Y-97357705D01*
X105375750Y-97359658D01*
X105384114Y-97363123D01*
X105383887Y-97363670D01*
X105442078Y-97392363D01*
X105485622Y-97457523D01*
X105490751Y-97535726D01*
X105456093Y-97606016D01*
X105449315Y-97613253D01*
X104988404Y-98074164D01*
X104920533Y-98113349D01*
X104842163Y-98113349D01*
X104774292Y-98074164D01*
X104735107Y-98006293D01*
X104731614Y-97958047D01*
X104730248Y-97957968D01*
X104730499Y-97953610D01*
X104730500Y-97953605D01*
X104730499Y-97663876D01*
X104727585Y-97638749D01*
X104682206Y-97535975D01*
X104602765Y-97456534D01*
X104592845Y-97446614D01*
X104593982Y-97445476D01*
X104553446Y-97398159D01*
X104538600Y-97332775D01*
X104538600Y-96761303D01*
X104558884Y-96685603D01*
X104582940Y-96654251D01*
X105323797Y-95913393D01*
X105391668Y-95874209D01*
X105430853Y-95869050D01*
X106368318Y-95869050D01*
X106426801Y-95857417D01*
X106426803Y-95857416D01*
X106459961Y-95835259D01*
X106493122Y-95813102D01*
X106526379Y-95763330D01*
X106537436Y-95746783D01*
X106537437Y-95746781D01*
X106549070Y-95688298D01*
X106549070Y-95398801D01*
X106534528Y-95325693D01*
X106538562Y-95324890D01*
X106531833Y-95273795D01*
X106535120Y-95261524D01*
X106534528Y-95261407D01*
X106549070Y-95188298D01*
X106549070Y-94898801D01*
X106534528Y-94825693D01*
X106538562Y-94824890D01*
X106531833Y-94773795D01*
X106535120Y-94761524D01*
X106534528Y-94761407D01*
X106549070Y-94688298D01*
X106549070Y-94398801D01*
X106534528Y-94325693D01*
X106538562Y-94324890D01*
X106531833Y-94273795D01*
X106535120Y-94261524D01*
X106534528Y-94261407D01*
X106549070Y-94188298D01*
X106549070Y-93898801D01*
X106534528Y-93825693D01*
X106538562Y-93824890D01*
X106531833Y-93773795D01*
X106535120Y-93761524D01*
X106534528Y-93761407D01*
X106549070Y-93688298D01*
X106549070Y-93398801D01*
X106534528Y-93325693D01*
X106538562Y-93324890D01*
X106531833Y-93273795D01*
X106535120Y-93261524D01*
X106534528Y-93261407D01*
X106549070Y-93188298D01*
X106549070Y-92898801D01*
X106534528Y-92825693D01*
X106538562Y-92824890D01*
X106531833Y-92773795D01*
X106535120Y-92761524D01*
X106534528Y-92761407D01*
X106549070Y-92688298D01*
X106549070Y-92398801D01*
X106534528Y-92325693D01*
X106538562Y-92324890D01*
X106531833Y-92273795D01*
X106535120Y-92261524D01*
X106534528Y-92261407D01*
X106549070Y-92188298D01*
X106549070Y-91898801D01*
X106537437Y-91840318D01*
X106531730Y-91826540D01*
X106534454Y-91825411D01*
X106516468Y-91772428D01*
X106521255Y-91748355D01*
X106514494Y-91750651D01*
X106437630Y-91735360D01*
X106430323Y-91731141D01*
X106426801Y-91729682D01*
X106368319Y-91718050D01*
X106368318Y-91718050D01*
X105428822Y-91718050D01*
X105428821Y-91718050D01*
X105370338Y-91729682D01*
X105370335Y-91729684D01*
X105353073Y-91741218D01*
X105278861Y-91766408D01*
X105201997Y-91751117D01*
X105200228Y-91750230D01*
X105108986Y-91703740D01*
X105108979Y-91703737D01*
X104998570Y-91686251D01*
X104888160Y-91703737D01*
X104888156Y-91703739D01*
X104788555Y-91754488D01*
X104709508Y-91833535D01*
X104658759Y-91933136D01*
X104658757Y-91933140D01*
X104641271Y-92043549D01*
X104641271Y-92043550D01*
X104658757Y-92153959D01*
X104658759Y-92153964D01*
X104694860Y-92224817D01*
X104711153Y-92301474D01*
X104694860Y-92362283D01*
X104658759Y-92433135D01*
X104658757Y-92433140D01*
X104641271Y-92543549D01*
X104641271Y-92543550D01*
X104658757Y-92653959D01*
X104658759Y-92653964D01*
X104694860Y-92724817D01*
X104711153Y-92801474D01*
X104694860Y-92862283D01*
X104658759Y-92933135D01*
X104658757Y-92933140D01*
X104641271Y-93043549D01*
X104641271Y-93043550D01*
X104658757Y-93153959D01*
X104658759Y-93153963D01*
X104682992Y-93201523D01*
X104699287Y-93278181D01*
X104682993Y-93338992D01*
X104659373Y-93385348D01*
X104659372Y-93385350D01*
X104641886Y-93495759D01*
X104641886Y-93495760D01*
X104659372Y-93606169D01*
X104659375Y-93606176D01*
X104696962Y-93679945D01*
X104713257Y-93756602D01*
X104696963Y-93817412D01*
X104660189Y-93889585D01*
X104660187Y-93889590D01*
X104642701Y-93999999D01*
X104642701Y-94000000D01*
X104660187Y-94110409D01*
X104663871Y-94121746D01*
X104662032Y-94122343D01*
X104675293Y-94184752D01*
X104651068Y-94259285D01*
X104631159Y-94283869D01*
X104612794Y-94302234D01*
X104567415Y-94405007D01*
X104567413Y-94405013D01*
X104564500Y-94430132D01*
X104564500Y-94719866D01*
X104567414Y-94744988D01*
X104567414Y-94744989D01*
X104567415Y-94744991D01*
X104612794Y-94847765D01*
X104692235Y-94927206D01*
X104762763Y-94958347D01*
X104823818Y-95007478D01*
X104852129Y-95080557D01*
X104840108Y-95158000D01*
X104808664Y-95203902D01*
X103767413Y-96245156D01*
X103699542Y-96284341D01*
X103660357Y-96289500D01*
X103638035Y-96289500D01*
X103499950Y-96330044D01*
X103499949Y-96330045D01*
X103378872Y-96407856D01*
X103284624Y-96516625D01*
X103284621Y-96516628D01*
X103224835Y-96647543D01*
X103224834Y-96647546D01*
X103204353Y-96789999D01*
X103204353Y-96790000D01*
X101607695Y-96790000D01*
X101615614Y-90639586D01*
X101635995Y-90563915D01*
X101664318Y-90535664D01*
X101661563Y-90532909D01*
X102130000Y-90064472D01*
X102130000Y-90079728D01*
X102168060Y-90171614D01*
X102238386Y-90241940D01*
X102330272Y-90280000D01*
X102345526Y-90280000D01*
X101928645Y-90696879D01*
X102028603Y-90759687D01*
X102028605Y-90759688D01*
X102199780Y-90819585D01*
X102199783Y-90819586D01*
X102380000Y-90839892D01*
X102560216Y-90819586D01*
X102560219Y-90819585D01*
X102731394Y-90759688D01*
X102731399Y-90759686D01*
X102831353Y-90696879D01*
X102414474Y-90280000D01*
X102429728Y-90280000D01*
X102521614Y-90241940D01*
X102591940Y-90171614D01*
X102630000Y-90079728D01*
X102630000Y-90064474D01*
X103046879Y-90481353D01*
X103109686Y-90381399D01*
X103109688Y-90381394D01*
X103169585Y-90210219D01*
X103169586Y-90210216D01*
X103189892Y-90030000D01*
X103189892Y-90029999D01*
X103169586Y-89849783D01*
X103169585Y-89849780D01*
X103109688Y-89678605D01*
X103109687Y-89678603D01*
X103046879Y-89578645D01*
X102630000Y-89995524D01*
X102630000Y-89980272D01*
X102591940Y-89888386D01*
X102521614Y-89818060D01*
X102429728Y-89780000D01*
X102414472Y-89780000D01*
X102750921Y-89443550D01*
X106591271Y-89443550D01*
X106608757Y-89553959D01*
X106608759Y-89553963D01*
X106659508Y-89653564D01*
X106665626Y-89659682D01*
X106704811Y-89727553D01*
X106709970Y-89766738D01*
X106709970Y-90306748D01*
X106689686Y-90382448D01*
X106684454Y-90390863D01*
X106634702Y-90465319D01*
X106623070Y-90523801D01*
X106623070Y-91463298D01*
X106634702Y-91521781D01*
X106640410Y-91535560D01*
X106637685Y-91536688D01*
X106655671Y-91589676D01*
X106650883Y-91613741D01*
X106657640Y-91611448D01*
X106734504Y-91626736D01*
X106741817Y-91630958D01*
X106745338Y-91632417D01*
X106803821Y-91644050D01*
X106803822Y-91644050D01*
X107093318Y-91644050D01*
X107166427Y-91629508D01*
X107167229Y-91633542D01*
X107218325Y-91626813D01*
X107230595Y-91630100D01*
X107230713Y-91629508D01*
X107303821Y-91644050D01*
X107303822Y-91644050D01*
X107593318Y-91644050D01*
X107666427Y-91629508D01*
X107667229Y-91633542D01*
X107718325Y-91626813D01*
X107730595Y-91630100D01*
X107730713Y-91629508D01*
X107803821Y-91644050D01*
X107803822Y-91644050D01*
X108093318Y-91644050D01*
X108166427Y-91629508D01*
X108167229Y-91633542D01*
X108218325Y-91626813D01*
X108230595Y-91630100D01*
X108230713Y-91629508D01*
X108303821Y-91644050D01*
X108303822Y-91644050D01*
X108593318Y-91644050D01*
X108666427Y-91629508D01*
X108667229Y-91633542D01*
X108718325Y-91626813D01*
X108730595Y-91630100D01*
X108730713Y-91629508D01*
X108803821Y-91644050D01*
X108803822Y-91644050D01*
X109093318Y-91644050D01*
X109166427Y-91629508D01*
X109167229Y-91633542D01*
X109218325Y-91626813D01*
X109230595Y-91630100D01*
X109230713Y-91629508D01*
X109303821Y-91644050D01*
X109303822Y-91644050D01*
X109593318Y-91644050D01*
X109666427Y-91629508D01*
X109667229Y-91633542D01*
X109718325Y-91626813D01*
X109730595Y-91630100D01*
X109730713Y-91629508D01*
X109803821Y-91644050D01*
X109803822Y-91644050D01*
X110093318Y-91644050D01*
X110166427Y-91629508D01*
X110167229Y-91633542D01*
X110218325Y-91626813D01*
X110230595Y-91630100D01*
X110230713Y-91629508D01*
X110303821Y-91644050D01*
X110303822Y-91644050D01*
X110593318Y-91644050D01*
X110666427Y-91629508D01*
X110667229Y-91633542D01*
X110718325Y-91626813D01*
X110730595Y-91630100D01*
X110730713Y-91629508D01*
X110803821Y-91644050D01*
X110803822Y-91644050D01*
X111093318Y-91644050D01*
X111166427Y-91629508D01*
X111167229Y-91633542D01*
X111218325Y-91626813D01*
X111230595Y-91630100D01*
X111230713Y-91629508D01*
X111303821Y-91644050D01*
X111303822Y-91644050D01*
X111593318Y-91644050D01*
X111666427Y-91629508D01*
X111667229Y-91633542D01*
X111718325Y-91626813D01*
X111730595Y-91630100D01*
X111730713Y-91629508D01*
X111803821Y-91644050D01*
X111803822Y-91644050D01*
X112093318Y-91644050D01*
X112151801Y-91632417D01*
X112151803Y-91632416D01*
X112184961Y-91610259D01*
X112218122Y-91588102D01*
X112262437Y-91521781D01*
X112265063Y-91508578D01*
X116545350Y-91508578D01*
X116556982Y-91567061D01*
X116562690Y-91580840D01*
X116559965Y-91581968D01*
X116577951Y-91634956D01*
X116573163Y-91659021D01*
X116579920Y-91656728D01*
X116656784Y-91672016D01*
X116664097Y-91676238D01*
X116667618Y-91677697D01*
X116726101Y-91689330D01*
X116726102Y-91689330D01*
X117015598Y-91689330D01*
X117088707Y-91674788D01*
X117089509Y-91678822D01*
X117140605Y-91672093D01*
X117152875Y-91675380D01*
X117152993Y-91674788D01*
X117226101Y-91689330D01*
X117226102Y-91689330D01*
X117515598Y-91689330D01*
X117588707Y-91674788D01*
X117589509Y-91678822D01*
X117640605Y-91672093D01*
X117652875Y-91675380D01*
X117652993Y-91674788D01*
X117726101Y-91689330D01*
X117726102Y-91689330D01*
X118015598Y-91689330D01*
X118088707Y-91674788D01*
X118089509Y-91678822D01*
X118140605Y-91672093D01*
X118152875Y-91675380D01*
X118152993Y-91674788D01*
X118226101Y-91689330D01*
X118226102Y-91689330D01*
X118515598Y-91689330D01*
X118588707Y-91674788D01*
X118589509Y-91678822D01*
X118640605Y-91672093D01*
X118652875Y-91675380D01*
X118652993Y-91674788D01*
X118726101Y-91689330D01*
X118726102Y-91689330D01*
X119015598Y-91689330D01*
X119088707Y-91674788D01*
X119089509Y-91678822D01*
X119140605Y-91672093D01*
X119152875Y-91675380D01*
X119152993Y-91674788D01*
X119226101Y-91689330D01*
X119226102Y-91689330D01*
X119515598Y-91689330D01*
X119588707Y-91674788D01*
X119589509Y-91678822D01*
X119640605Y-91672093D01*
X119652875Y-91675380D01*
X119652993Y-91674788D01*
X119726101Y-91689330D01*
X119726102Y-91689330D01*
X120015598Y-91689330D01*
X120088707Y-91674788D01*
X120089509Y-91678822D01*
X120140605Y-91672093D01*
X120152875Y-91675380D01*
X120152993Y-91674788D01*
X120226101Y-91689330D01*
X120226102Y-91689330D01*
X120515598Y-91689330D01*
X120588707Y-91674788D01*
X120589509Y-91678822D01*
X120640605Y-91672093D01*
X120652875Y-91675380D01*
X120652993Y-91674788D01*
X120726101Y-91689330D01*
X120726102Y-91689330D01*
X121015598Y-91689330D01*
X121088707Y-91674788D01*
X121089509Y-91678822D01*
X121140605Y-91672093D01*
X121152875Y-91675380D01*
X121152993Y-91674788D01*
X121226101Y-91689330D01*
X121226102Y-91689330D01*
X121515598Y-91689330D01*
X121588707Y-91674788D01*
X121589509Y-91678822D01*
X121640605Y-91672093D01*
X121652875Y-91675380D01*
X121652993Y-91674788D01*
X121726101Y-91689330D01*
X121726102Y-91689330D01*
X122015598Y-91689330D01*
X122074081Y-91677697D01*
X122074083Y-91677696D01*
X122108993Y-91654369D01*
X122140402Y-91633382D01*
X122184717Y-91567061D01*
X122196350Y-91508578D01*
X122196350Y-91036340D01*
X122207876Y-90978399D01*
X122213600Y-90964580D01*
X122213600Y-84302539D01*
X122203833Y-84278961D01*
X123078300Y-84278961D01*
X123085153Y-84313413D01*
X123109109Y-84433848D01*
X123137777Y-84503057D01*
X123169543Y-84579747D01*
X123257279Y-84711054D01*
X123368946Y-84822721D01*
X123500253Y-84910457D01*
X123646153Y-84970891D01*
X123801039Y-85001700D01*
X123958961Y-85001700D01*
X124113847Y-84970891D01*
X124259747Y-84910457D01*
X124391054Y-84822721D01*
X124502721Y-84711054D01*
X124590457Y-84579747D01*
X124650891Y-84433847D01*
X124681700Y-84278961D01*
X124681700Y-84121039D01*
X124650891Y-83966153D01*
X124590457Y-83820253D01*
X124502721Y-83688946D01*
X124391054Y-83577279D01*
X124259747Y-83489543D01*
X124228903Y-83476767D01*
X124113848Y-83429109D01*
X123958961Y-83398300D01*
X123801039Y-83398300D01*
X123646151Y-83429109D01*
X123500252Y-83489543D01*
X123368944Y-83577280D01*
X123257280Y-83688944D01*
X123169543Y-83820252D01*
X123109109Y-83966151D01*
X123109109Y-83966153D01*
X123078300Y-84121039D01*
X123078300Y-84278961D01*
X122203833Y-84278961D01*
X122192320Y-84251168D01*
X122192316Y-84251159D01*
X122177275Y-84214843D01*
X118907944Y-80945512D01*
X118868759Y-80877641D01*
X118863600Y-80838456D01*
X118863600Y-80423188D01*
X118883884Y-80347488D01*
X118907944Y-80316132D01*
X118914061Y-80310015D01*
X118964812Y-80210411D01*
X118982299Y-80100000D01*
X118964812Y-79989589D01*
X118914061Y-79889985D01*
X118835015Y-79810939D01*
X118835014Y-79810938D01*
X118735413Y-79760189D01*
X118735409Y-79760187D01*
X118625000Y-79742701D01*
X118514590Y-79760187D01*
X118514586Y-79760189D01*
X118414985Y-79810938D01*
X118335938Y-79889985D01*
X118285189Y-79989586D01*
X118285187Y-79989590D01*
X118267701Y-80099999D01*
X118267701Y-80100000D01*
X118285187Y-80210409D01*
X118285189Y-80210413D01*
X118335938Y-80310014D01*
X118342056Y-80316132D01*
X118381241Y-80384003D01*
X118386400Y-80423188D01*
X118386400Y-80928984D01*
X118366116Y-81004684D01*
X118342056Y-81036040D01*
X118273438Y-81104657D01*
X118222689Y-81204258D01*
X118222687Y-81204262D01*
X118205201Y-81314671D01*
X118205201Y-81314672D01*
X118222687Y-81425081D01*
X118222688Y-81425083D01*
X118273439Y-81524687D01*
X118352485Y-81603733D01*
X118407946Y-81631992D01*
X118466184Y-81684430D01*
X118490402Y-81758965D01*
X118474109Y-81835623D01*
X118421669Y-81893863D01*
X118407947Y-81901786D01*
X118389985Y-81910938D01*
X118310938Y-81989985D01*
X118260189Y-82089586D01*
X118260187Y-82089590D01*
X118242701Y-82199999D01*
X118242701Y-82200000D01*
X118260187Y-82310409D01*
X118260188Y-82310411D01*
X118310939Y-82410015D01*
X118389985Y-82489061D01*
X118489589Y-82539812D01*
X118575019Y-82553342D01*
X118646613Y-82585217D01*
X118658391Y-82595822D01*
X118826744Y-82764175D01*
X118865929Y-82832046D01*
X118865929Y-82910416D01*
X118826744Y-82978287D01*
X118758873Y-83017472D01*
X118696005Y-83020767D01*
X118622066Y-83009057D01*
X118622064Y-83009057D01*
X118511654Y-83026543D01*
X118511650Y-83026545D01*
X118412049Y-83077294D01*
X118333002Y-83156341D01*
X118282253Y-83255942D01*
X118282251Y-83255946D01*
X118264765Y-83366355D01*
X118264765Y-83366356D01*
X118282251Y-83476765D01*
X118282253Y-83476769D01*
X118333002Y-83576370D01*
X118412050Y-83655418D01*
X118421690Y-83662422D01*
X118419980Y-83664774D01*
X118464621Y-83704975D01*
X118488834Y-83779511D01*
X118472535Y-83856168D01*
X118420091Y-83914405D01*
X118406379Y-83922322D01*
X118398840Y-83926163D01*
X118319794Y-84005209D01*
X118269045Y-84104810D01*
X118269043Y-84104814D01*
X118251557Y-84215223D01*
X118251557Y-84215224D01*
X118269043Y-84325633D01*
X118269045Y-84325637D01*
X118307500Y-84401110D01*
X118319795Y-84425239D01*
X118398841Y-84504285D01*
X118498445Y-84555036D01*
X118583875Y-84568566D01*
X118655469Y-84600441D01*
X118667247Y-84611046D01*
X118798185Y-84741984D01*
X118837370Y-84809855D01*
X118837370Y-84888225D01*
X118798185Y-84956096D01*
X118730314Y-84995281D01*
X118667446Y-84998576D01*
X118604153Y-84988552D01*
X118604151Y-84988552D01*
X118493741Y-85006038D01*
X118493737Y-85006040D01*
X118394136Y-85056789D01*
X118337520Y-85113405D01*
X118269649Y-85152589D01*
X118191279Y-85152589D01*
X118123409Y-85113404D01*
X118062643Y-85052638D01*
X117963042Y-85001889D01*
X117963038Y-85001887D01*
X117852629Y-84984401D01*
X117742219Y-85001887D01*
X117742215Y-85001889D01*
X117642614Y-85052638D01*
X117563567Y-85131685D01*
X117512818Y-85231286D01*
X117512816Y-85231289D01*
X117499286Y-85316719D01*
X117467410Y-85388314D01*
X117456806Y-85400090D01*
X117212444Y-85644454D01*
X117145324Y-85711573D01*
X117109000Y-85799268D01*
X117109000Y-89790857D01*
X117088716Y-89866557D01*
X117064656Y-89897913D01*
X116646294Y-90316274D01*
X116609968Y-90403971D01*
X116608103Y-90413351D01*
X116585497Y-90467924D01*
X116556983Y-90510597D01*
X116556982Y-90510598D01*
X116545350Y-90569081D01*
X116545350Y-91508578D01*
X112265063Y-91508578D01*
X112274070Y-91463298D01*
X112274070Y-90523802D01*
X112271443Y-90510597D01*
X112262437Y-90465319D01*
X112234558Y-90423596D01*
X112218122Y-90398998D01*
X112218121Y-90398997D01*
X112212686Y-90390863D01*
X112187494Y-90316652D01*
X112187170Y-90306748D01*
X112187170Y-89690818D01*
X112203672Y-89622083D01*
X112205291Y-89618904D01*
X112238382Y-89553961D01*
X112255869Y-89443550D01*
X112238382Y-89333139D01*
X112187631Y-89233535D01*
X112108585Y-89154489D01*
X112108584Y-89154488D01*
X112008983Y-89103739D01*
X112008979Y-89103737D01*
X111898570Y-89086251D01*
X111788160Y-89103737D01*
X111788155Y-89103739D01*
X111742303Y-89127102D01*
X111665645Y-89143395D01*
X111604837Y-89127102D01*
X111558984Y-89103739D01*
X111558979Y-89103737D01*
X111448570Y-89086251D01*
X111338160Y-89103737D01*
X111338155Y-89103739D01*
X111267303Y-89139840D01*
X111190646Y-89156133D01*
X111129837Y-89139840D01*
X111058984Y-89103739D01*
X111058979Y-89103737D01*
X110948570Y-89086251D01*
X110838160Y-89103737D01*
X110838153Y-89103740D01*
X110742304Y-89152578D01*
X110665647Y-89168873D01*
X110604836Y-89152578D01*
X110508986Y-89103740D01*
X110508979Y-89103737D01*
X110398570Y-89086251D01*
X110288160Y-89103737D01*
X110288155Y-89103739D01*
X110242303Y-89127102D01*
X110165645Y-89143395D01*
X110104837Y-89127102D01*
X110058984Y-89103739D01*
X110058979Y-89103737D01*
X109948570Y-89086251D01*
X109838160Y-89103737D01*
X109838155Y-89103739D01*
X109767303Y-89139840D01*
X109690646Y-89156133D01*
X109629837Y-89139840D01*
X109558984Y-89103739D01*
X109558979Y-89103737D01*
X109448570Y-89086251D01*
X109338160Y-89103737D01*
X109338155Y-89103739D01*
X109267303Y-89139840D01*
X109190646Y-89156133D01*
X109129837Y-89139840D01*
X109058984Y-89103739D01*
X109058979Y-89103737D01*
X108948570Y-89086251D01*
X108838160Y-89103737D01*
X108838155Y-89103739D01*
X108767303Y-89139840D01*
X108690646Y-89156133D01*
X108629837Y-89139840D01*
X108558984Y-89103739D01*
X108558979Y-89103737D01*
X108448570Y-89086251D01*
X108338160Y-89103737D01*
X108338155Y-89103739D01*
X108267303Y-89139840D01*
X108190646Y-89156133D01*
X108129837Y-89139840D01*
X108058984Y-89103739D01*
X108058979Y-89103737D01*
X107948570Y-89086251D01*
X107838160Y-89103737D01*
X107838155Y-89103739D01*
X107767303Y-89139840D01*
X107690646Y-89156133D01*
X107629837Y-89139840D01*
X107558984Y-89103739D01*
X107558979Y-89103737D01*
X107448570Y-89086251D01*
X107338160Y-89103737D01*
X107338155Y-89103739D01*
X107267303Y-89139840D01*
X107190646Y-89156133D01*
X107129837Y-89139840D01*
X107058984Y-89103739D01*
X107058979Y-89103737D01*
X106948570Y-89086251D01*
X106838160Y-89103737D01*
X106838156Y-89103739D01*
X106738555Y-89154488D01*
X106659508Y-89233535D01*
X106608759Y-89333136D01*
X106608757Y-89333140D01*
X106591271Y-89443549D01*
X106591271Y-89443550D01*
X102750921Y-89443550D01*
X102831353Y-89363118D01*
X102831354Y-89363118D01*
X102731399Y-89300312D01*
X102560219Y-89240414D01*
X102560216Y-89240413D01*
X102380000Y-89220108D01*
X102199783Y-89240413D01*
X102199780Y-89240414D01*
X102028603Y-89300311D01*
X102028597Y-89300314D01*
X101928645Y-89363118D01*
X101928645Y-89363119D01*
X102345526Y-89780000D01*
X102330272Y-89780000D01*
X102238386Y-89818060D01*
X102168060Y-89888386D01*
X102130000Y-89980272D01*
X102130000Y-89995526D01*
X101661563Y-89527089D01*
X101664814Y-89523837D01*
X101644412Y-89506657D01*
X101617737Y-89432966D01*
X101617185Y-89419866D01*
X101619889Y-87319528D01*
X101640269Y-87243859D01*
X101695757Y-87188514D01*
X101771483Y-87168328D01*
X101847157Y-87188709D01*
X101871678Y-87206398D01*
X101899148Y-87230734D01*
X102049775Y-87309790D01*
X102214944Y-87350500D01*
X102214947Y-87350500D01*
X102385053Y-87350500D01*
X102385056Y-87350500D01*
X102550225Y-87309790D01*
X102700852Y-87230734D01*
X102828183Y-87117929D01*
X102924818Y-86977930D01*
X102985140Y-86818872D01*
X103005645Y-86650000D01*
X102990948Y-86528961D01*
X104518300Y-86528961D01*
X104523937Y-86557299D01*
X104549109Y-86683848D01*
X104598017Y-86801922D01*
X104609543Y-86829747D01*
X104697279Y-86961054D01*
X104808946Y-87072721D01*
X104940253Y-87160457D01*
X105086153Y-87220891D01*
X105241039Y-87251700D01*
X105398961Y-87251700D01*
X105553847Y-87220891D01*
X105699747Y-87160457D01*
X105831054Y-87072721D01*
X105942721Y-86961054D01*
X106030457Y-86829747D01*
X106090891Y-86683847D01*
X106121700Y-86528961D01*
X106121700Y-86371039D01*
X106090891Y-86216153D01*
X106030457Y-86070253D01*
X105942721Y-85938946D01*
X105831054Y-85827279D01*
X105699747Y-85739543D01*
X105553848Y-85679109D01*
X105398961Y-85648300D01*
X105241039Y-85648300D01*
X105086151Y-85679109D01*
X104940252Y-85739543D01*
X104808944Y-85827280D01*
X104697280Y-85938944D01*
X104609543Y-86070252D01*
X104549109Y-86216151D01*
X104518300Y-86371039D01*
X104518300Y-86528961D01*
X102990948Y-86528961D01*
X102985140Y-86481128D01*
X102924818Y-86322070D01*
X102924815Y-86322066D01*
X102924814Y-86322063D01*
X102828188Y-86182078D01*
X102828187Y-86182076D01*
X102828183Y-86182071D01*
X102700852Y-86069266D01*
X102550225Y-85990210D01*
X102385056Y-85949500D01*
X102214944Y-85949500D01*
X102049775Y-85990210D01*
X101899146Y-86069267D01*
X101873410Y-86092067D01*
X101803296Y-86127082D01*
X101725069Y-86122349D01*
X101659689Y-86079136D01*
X101624674Y-86009022D01*
X101621615Y-85978553D01*
X101624956Y-83384042D01*
X101639613Y-83319251D01*
X103983986Y-78386299D01*
X104034798Y-78326636D01*
X104108637Y-78300372D01*
X104120544Y-78299888D01*
X116422500Y-78285500D01*
X125307241Y-78285500D01*
X125382941Y-78305784D01*
G37*
G04 #@! TD.AperFunction*
M02*
