M48
; DRILL file {KiCad 9.0.5} date 2025-10-24T14:38:56-0700
; FORMAT={-:-/ absolute / metric / decimal}
; #@! TF.CreationDate,2025-10-24T14:38:56-07:00
; #@! TF.GenerationSoftware,Kicad,Pcbnew,9.0.5
; #@! TF.FileFunction,Plated,1,6,Blind
FMAT,2
METRIC
; #@! TA.AperFunction,Plated,Buried,ViaDrill
T1C0.152
%
G90
G05
T1
X109.703Y-87.301
X109.788Y-83.365
X109.793Y-85.37
X109.8Y-80.133
X109.8Y-82.2
X109.8Y-84.2
X109.8Y-86.2
X109.855Y-81.326
X110.6Y-80.133
X110.6Y-81.316
X110.6Y-82.2
X110.6Y-84.2
X110.6Y-85.364
X110.6Y-86.2
X110.6Y-87.303
X110.687Y-83.313
X113.509Y-104.447
X113.509Y-104.947
X113.509Y-105.447
X113.509Y-105.947
X113.777Y-80.123
X113.787Y-84.188
X113.787Y-81.285
X113.8Y-82.2
X113.8Y-85.342
X113.833Y-83.298
X114.57Y-87.259
X114.575Y-86.225
X114.644Y-80.064
X114.644Y-82.245
X114.701Y-81.295
X115.371Y-83.323
X115.388Y-85.363
X115.403Y-84.195
X115.41Y-82.205
X115.413Y-86.213
X115.45Y-80.1
X115.453Y-81.305
X115.912Y-88.487
X116.175Y-80.1
X116.2Y-86.205
X116.2Y-84.2
X116.201Y-87.248
X116.205Y-83.324
X116.208Y-82.21
X116.238Y-85.347
X116.271Y-81.295
X116.949Y-87.276
X116.998Y-86.198
X117.0Y-80.1
X117.0Y-82.2
X117.0Y-84.2
X117.007Y-83.341
X117.028Y-85.348
X117.033Y-81.285
X117.087Y-102.087
X117.49Y-102.11
X118.0Y-102.13
X118.47Y-102.13
X118.95Y-102.12
X119.46Y-102.12
X119.93Y-102.14
X120.41Y-102.14
X121.23Y-102.12
X121.76Y-102.11
X122.42Y-102.11
X123.77Y-104.45
X123.77Y-105.52
X123.78Y-103.97
X123.78Y-104.95
X123.79Y-105.94
M30
