M48
; DRILL file {KiCad 9.0.5} date 2025-10-24T14:38:56-0700
; FORMAT={-:-/ absolute / metric / decimal}
; #@! TF.CreationDate,2025-10-24T14:38:56-07:00
; #@! TF.GenerationSoftware,Kicad,Pcbnew,9.0.5
; #@! TF.FileFunction,Plated,2,8,Blind
FMAT,2
METRIC
; #@! TA.AperFunction,Plated,Buried,ViaDrill
T1C0.152
%
G90
G05
T1
X104.875Y-106.95
X105.269Y-98.67
X105.55Y-98.969
X106.2Y-109.73
X106.54Y-97.85
X108.65Y-111.25
X109.15Y-113.3
X110.15Y-111.0
X112.3Y-100.6
X113.527Y-107.15
X113.88Y-95.879
X114.489Y-94.227
X115.211Y-94.897
X115.903Y-98.139
X116.36Y-109.985
X116.68Y-101.77
X117.33Y-112.48
X117.33Y-100.805
X117.848Y-100.8
X117.99Y-112.48
X118.3Y-100.825
X120.35Y-100.3
X123.85Y-107.96
X124.031Y-91.544
X124.175Y-106.3
X124.725Y-103.0
X124.98Y-110.02
X125.441Y-91.809
M30
