G04 #@! TF.GenerationSoftware,KiCad,Pcbnew,9.0.5*
G04 #@! TF.CreationDate,2025-10-24T14:39:16-07:00*
G04 #@! TF.ProjectId,iris-128b,69726973-2d31-4323-9862-2e6b69636164,rev?*
G04 #@! TF.SameCoordinates,Original*
G04 #@! TF.FileFunction,Copper,L7,Inr*
G04 #@! TF.FilePolarity,Positive*
%FSLAX46Y46*%
G04 Gerber Fmt 4.6, Leading zero omitted, Abs format (unit mm)*
G04 Created by KiCad (PCBNEW 9.0.5) date 2025-10-24 14:39:16*
%MOMM*%
%LPD*%
G01*
G04 APERTURE LIST*
G04 #@! TA.AperFunction,ComponentPad*
%ADD10C,3.800000*%
G04 #@! TD*
G04 #@! TA.AperFunction,ComponentPad*
%ADD11C,1.000000*%
G04 #@! TD*
G04 #@! TA.AperFunction,ViaPad*
%ADD12C,0.600000*%
G04 #@! TD*
G04 #@! TA.AperFunction,ViaPad*
%ADD13C,0.304800*%
G04 #@! TD*
G04 APERTURE END LIST*
D10*
X96650000Y-82485000D03*
D11*
X102380000Y-90030000D03*
X102334060Y-86647020D03*
D10*
X132650000Y-82485000D03*
D12*
X114575000Y-121225000D03*
X105920000Y-91170000D03*
D13*
X114975000Y-95750000D03*
D12*
X126325000Y-116650000D03*
X113627646Y-108979260D03*
X104479560Y-116644300D03*
X114925000Y-91325000D03*
X114950000Y-108510000D03*
X124960000Y-108530000D03*
D13*
X114042120Y-96500000D03*
D12*
X104575000Y-80425000D03*
X112660000Y-110570000D03*
X103400000Y-93150000D03*
X124000000Y-96500000D03*
X104560000Y-108530000D03*
X104680000Y-115660000D03*
X115740000Y-99090000D03*
X105900000Y-84975000D03*
X105675000Y-103300000D03*
X114575000Y-102050000D03*
X116794300Y-110913030D03*
X127025000Y-94025000D03*
X113020000Y-103420000D03*
X107240000Y-111110000D03*
X124450000Y-85300000D03*
X107362751Y-99079640D03*
X114925000Y-79200000D03*
X115410000Y-110290000D03*
X124375000Y-100500000D03*
D13*
X123800000Y-95600000D03*
X105000000Y-96600000D03*
X123800000Y-107400000D03*
X124400000Y-103300000D03*
X114025000Y-98700000D03*
X114488596Y-94226850D03*
X119986629Y-99136631D03*
X119407432Y-110754160D03*
X109550000Y-98900000D03*
X109050000Y-110950000D03*
X109300000Y-99227240D03*
X109500000Y-110950000D03*
X119586414Y-99113586D03*
X119200000Y-111100000D03*
X118878861Y-112090164D03*
X112300000Y-100600000D03*
X120350000Y-100300000D03*
X110150000Y-111000000D03*
X121100000Y-80100000D03*
X121600000Y-87150000D03*
X121625000Y-85050000D03*
X121010680Y-82209640D03*
X121000000Y-84200000D03*
X110012171Y-113812171D03*
X117796604Y-87301297D03*
X118608856Y-84215224D03*
X118625000Y-80100000D03*
X118604151Y-85345851D03*
X117852629Y-85341700D03*
X118600000Y-86200000D03*
X118562500Y-81314672D03*
X118600000Y-82200000D03*
X118645432Y-87293704D03*
X118622064Y-83366356D03*
X117805200Y-86210140D03*
X104361414Y-104813586D03*
X117267200Y-113858300D03*
X117725000Y-101700000D03*
X116615784Y-100765784D03*
G04 #@! TA.AperFunction,Conductor*
G36*
X125354091Y-78370308D02*
G01*
X125409572Y-78425659D01*
X125415793Y-78437599D01*
X127735739Y-83419378D01*
X127749890Y-83483781D01*
X127625521Y-121998589D01*
X127604993Y-122074223D01*
X127549398Y-122129460D01*
X127474122Y-122149500D01*
X101726641Y-122149500D01*
X101650941Y-122129216D01*
X101595525Y-122073800D01*
X101575241Y-121998100D01*
X101575241Y-121997905D01*
X101580799Y-117680926D01*
X103943300Y-117680926D01*
X103982600Y-117827597D01*
X104058522Y-117959098D01*
X104058524Y-117959101D01*
X104165898Y-118066475D01*
X104165901Y-118066477D01*
X104297402Y-118142399D01*
X104444074Y-118181700D01*
X104444076Y-118181700D01*
X104595925Y-118181700D01*
X104669261Y-118162049D01*
X104742598Y-118142399D01*
X104874102Y-118066475D01*
X104965577Y-117975000D01*
X108242042Y-117975000D01*
X108258171Y-118066475D01*
X108262122Y-118088878D01*
X108288952Y-118135351D01*
X108319937Y-118189019D01*
X108319938Y-118189020D01*
X108319939Y-118189021D01*
X108408521Y-118263350D01*
X108408522Y-118263350D01*
X108408523Y-118263351D01*
X108517182Y-118302900D01*
X108632817Y-118302900D01*
X108632818Y-118302900D01*
X108741479Y-118263350D01*
X108830061Y-118189021D01*
X108887878Y-118088878D01*
X108907958Y-117975000D01*
X123443712Y-117975000D01*
X123461493Y-118064390D01*
X123512128Y-118140172D01*
X123587910Y-118190807D01*
X123677300Y-118208588D01*
X123766690Y-118190807D01*
X123842472Y-118140172D01*
X123893107Y-118064390D01*
X123910888Y-117975000D01*
X123893107Y-117885610D01*
X123842472Y-117809828D01*
X123766690Y-117759193D01*
X123766687Y-117759192D01*
X123677300Y-117741412D01*
X123587912Y-117759192D01*
X123587910Y-117759192D01*
X123587910Y-117759193D01*
X123585237Y-117760979D01*
X123512128Y-117809828D01*
X123461492Y-117885612D01*
X123446874Y-117959102D01*
X123443712Y-117975000D01*
X108907958Y-117975000D01*
X108887878Y-117861122D01*
X108830061Y-117760979D01*
X108741479Y-117686650D01*
X108741477Y-117686649D01*
X108741476Y-117686648D01*
X108725755Y-117680926D01*
X124793300Y-117680926D01*
X124832600Y-117827597D01*
X124908522Y-117959098D01*
X124908524Y-117959101D01*
X125015898Y-118066475D01*
X125015901Y-118066477D01*
X125147402Y-118142399D01*
X125294074Y-118181700D01*
X125294076Y-118181700D01*
X125445925Y-118181700D01*
X125519261Y-118162049D01*
X125592598Y-118142399D01*
X125724102Y-118066475D01*
X125831475Y-117959102D01*
X125907399Y-117827598D01*
X125925249Y-117760980D01*
X125946700Y-117680926D01*
X125946700Y-117529073D01*
X125907399Y-117382402D01*
X125831477Y-117250901D01*
X125831475Y-117250898D01*
X125724101Y-117143524D01*
X125724098Y-117143522D01*
X125592597Y-117067600D01*
X125445927Y-117028300D01*
X125445924Y-117028300D01*
X125294076Y-117028300D01*
X125294073Y-117028300D01*
X125147402Y-117067600D01*
X125015901Y-117143522D01*
X125015898Y-117143524D01*
X124908524Y-117250898D01*
X124908522Y-117250901D01*
X124832600Y-117382402D01*
X124793300Y-117529073D01*
X124793300Y-117680926D01*
X108725755Y-117680926D01*
X108632819Y-117647100D01*
X108632818Y-117647100D01*
X108517182Y-117647100D01*
X108517181Y-117647100D01*
X108408523Y-117686648D01*
X108319937Y-117760980D01*
X108262121Y-117861124D01*
X108242042Y-117975000D01*
X104965577Y-117975000D01*
X104981475Y-117959102D01*
X105057399Y-117827598D01*
X105075249Y-117760980D01*
X105096700Y-117680926D01*
X105096700Y-117529073D01*
X105057399Y-117382402D01*
X104981477Y-117250901D01*
X104981475Y-117250898D01*
X104874101Y-117143524D01*
X104874098Y-117143522D01*
X104742597Y-117067600D01*
X104595927Y-117028300D01*
X104595924Y-117028300D01*
X104444076Y-117028300D01*
X104444073Y-117028300D01*
X104297402Y-117067600D01*
X104165901Y-117143522D01*
X104165898Y-117143524D01*
X104058524Y-117250898D01*
X104058522Y-117250901D01*
X103982600Y-117382402D01*
X103943300Y-117529073D01*
X103943300Y-117680926D01*
X101580799Y-117680926D01*
X101581639Y-117028300D01*
X101585780Y-113812171D01*
X109702161Y-113812171D01*
X109720856Y-113918199D01*
X109720856Y-113918200D01*
X109720857Y-113918201D01*
X109774690Y-114011442D01*
X109857166Y-114080648D01*
X109958338Y-114117471D01*
X109958340Y-114117471D01*
X110066002Y-114117471D01*
X110066004Y-114117471D01*
X110167176Y-114080648D01*
X110249652Y-114011442D01*
X110303485Y-113918201D01*
X110314047Y-113858300D01*
X116957190Y-113858300D01*
X116975885Y-113964328D01*
X116975885Y-113964329D01*
X116975886Y-113964330D01*
X117029719Y-114057571D01*
X117112195Y-114126777D01*
X117213367Y-114163600D01*
X117213369Y-114163600D01*
X117321032Y-114163600D01*
X117321033Y-114163600D01*
X117422205Y-114126777D01*
X117422205Y-114126776D01*
X117434653Y-114122246D01*
X117435598Y-114124843D01*
X117492547Y-114109581D01*
X117568249Y-114129860D01*
X117576667Y-114135095D01*
X117587910Y-114142607D01*
X117677300Y-114160388D01*
X117766690Y-114142607D01*
X117842472Y-114091972D01*
X117893107Y-114016190D01*
X117910888Y-113926800D01*
X117893107Y-113837410D01*
X117842472Y-113761628D01*
X117766690Y-113710993D01*
X117766687Y-113710992D01*
X117677300Y-113693212D01*
X117677299Y-113693212D01*
X117641855Y-113700262D01*
X117563652Y-113695136D01*
X117517532Y-113664319D01*
X117514828Y-113667543D01*
X117422206Y-113589824D01*
X117422205Y-113589823D01*
X117321033Y-113553000D01*
X117213367Y-113553000D01*
X117112195Y-113589823D01*
X117112194Y-113589823D01*
X117112193Y-113589824D01*
X117029720Y-113659027D01*
X116975885Y-113752271D01*
X116957190Y-113858299D01*
X116957190Y-113858300D01*
X110314047Y-113858300D01*
X110322181Y-113812171D01*
X110303485Y-113706141D01*
X110249652Y-113612900D01*
X110167176Y-113543694D01*
X110066004Y-113506871D01*
X109958338Y-113506871D01*
X109857166Y-113543694D01*
X109857165Y-113543694D01*
X109857164Y-113543695D01*
X109774691Y-113612898D01*
X109720856Y-113706142D01*
X109702161Y-113812170D01*
X109702161Y-113812171D01*
X101585780Y-113812171D01*
X101586439Y-113300000D01*
X108916412Y-113300000D01*
X108934193Y-113389390D01*
X108984828Y-113465172D01*
X109060610Y-113515807D01*
X109150000Y-113533588D01*
X109239390Y-113515807D01*
X109315172Y-113465172D01*
X109365807Y-113389390D01*
X109383588Y-113300000D01*
X109365807Y-113210610D01*
X109315172Y-113134828D01*
X109239390Y-113084193D01*
X109239387Y-113084192D01*
X109150000Y-113066412D01*
X109060612Y-113084192D01*
X109060610Y-113084192D01*
X109060610Y-113084193D01*
X108984828Y-113134828D01*
X108934192Y-113210612D01*
X108916412Y-113300000D01*
X101586439Y-113300000D01*
X101587495Y-112480000D01*
X117096412Y-112480000D01*
X117114193Y-112569390D01*
X117164828Y-112645172D01*
X117240610Y-112695807D01*
X117330000Y-112713588D01*
X117419390Y-112695807D01*
X117495172Y-112645172D01*
X117534115Y-112586887D01*
X117593035Y-112535215D01*
X117669899Y-112519924D01*
X117744111Y-112545114D01*
X117785883Y-112586886D01*
X117824828Y-112645172D01*
X117900610Y-112695807D01*
X117990000Y-112713588D01*
X118079390Y-112695807D01*
X118155172Y-112645172D01*
X118205807Y-112569390D01*
X118223588Y-112480000D01*
X118205807Y-112390610D01*
X118155172Y-112314828D01*
X118079390Y-112264193D01*
X118079387Y-112264192D01*
X117990000Y-112246412D01*
X117900612Y-112264192D01*
X117900610Y-112264192D01*
X117900610Y-112264193D01*
X117862719Y-112289510D01*
X117824826Y-112314829D01*
X117785885Y-112373111D01*
X117726964Y-112424785D01*
X117650100Y-112440075D01*
X117575888Y-112414884D01*
X117534115Y-112373111D01*
X117495173Y-112314829D01*
X117495172Y-112314828D01*
X117419390Y-112264193D01*
X117419387Y-112264192D01*
X117330000Y-112246412D01*
X117240612Y-112264192D01*
X117240610Y-112264192D01*
X117240610Y-112264193D01*
X117164828Y-112314828D01*
X117125886Y-112373111D01*
X117114192Y-112390612D01*
X117096412Y-112480000D01*
X101587495Y-112480000D01*
X101587997Y-112090164D01*
X118568851Y-112090164D01*
X118587546Y-112196192D01*
X118587546Y-112196193D01*
X118587547Y-112196194D01*
X118641380Y-112289435D01*
X118723856Y-112358641D01*
X118825028Y-112395464D01*
X118825030Y-112395464D01*
X118932692Y-112395464D01*
X118932694Y-112395464D01*
X119033866Y-112358641D01*
X119116342Y-112289435D01*
X119170175Y-112196194D01*
X119188871Y-112090164D01*
X119170175Y-111984134D01*
X119116342Y-111890893D01*
X119033866Y-111821687D01*
X118932694Y-111784864D01*
X118825028Y-111784864D01*
X118723856Y-111821687D01*
X118723855Y-111821687D01*
X118723854Y-111821688D01*
X118641381Y-111890891D01*
X118587546Y-111984135D01*
X118568851Y-112090163D01*
X118568851Y-112090164D01*
X101587997Y-112090164D01*
X101589078Y-111250000D01*
X108416412Y-111250000D01*
X108432125Y-111328997D01*
X108434193Y-111339390D01*
X108484828Y-111415172D01*
X108560610Y-111465807D01*
X108650000Y-111483588D01*
X108739390Y-111465807D01*
X108815172Y-111415172D01*
X108865807Y-111339390D01*
X108865807Y-111339387D01*
X108874090Y-111326992D01*
X108877090Y-111328997D01*
X108909629Y-111286590D01*
X108982033Y-111256596D01*
X109001800Y-111255300D01*
X109103832Y-111255300D01*
X109103833Y-111255300D01*
X109205005Y-111218477D01*
X109205005Y-111218476D01*
X109217453Y-111213946D01*
X109218434Y-111216643D01*
X109275000Y-111201487D01*
X109331565Y-111216643D01*
X109332547Y-111213946D01*
X109344994Y-111218476D01*
X109344995Y-111218477D01*
X109446167Y-111255300D01*
X109446168Y-111255300D01*
X109553831Y-111255300D01*
X109553833Y-111255300D01*
X109655005Y-111218477D01*
X109699598Y-111181058D01*
X109770625Y-111147937D01*
X109848697Y-111154767D01*
X109901529Y-111191760D01*
X109902372Y-111190757D01*
X109920574Y-111206030D01*
X109994995Y-111268477D01*
X110096167Y-111305300D01*
X110096169Y-111305300D01*
X110188590Y-111305300D01*
X110264290Y-111325584D01*
X110319706Y-111381000D01*
X110334834Y-111437459D01*
X110337690Y-111436956D01*
X110358685Y-111556028D01*
X110358685Y-111556029D01*
X110358686Y-111556030D01*
X110412519Y-111649271D01*
X110494995Y-111718477D01*
X110596167Y-111755300D01*
X110596169Y-111755300D01*
X110703831Y-111755300D01*
X110703833Y-111755300D01*
X110805005Y-111718477D01*
X110887481Y-111649271D01*
X110941314Y-111556030D01*
X110960010Y-111450000D01*
X110941314Y-111343970D01*
X110887481Y-111250729D01*
X110886612Y-111250000D01*
X110817205Y-111191760D01*
X110805005Y-111181523D01*
X110703833Y-111144700D01*
X110611410Y-111144700D01*
X110535710Y-111124416D01*
X110480294Y-111069000D01*
X110465165Y-111012540D01*
X110462310Y-111013044D01*
X110460010Y-111000000D01*
X117166412Y-111000000D01*
X117183285Y-111084828D01*
X117184193Y-111089390D01*
X117234828Y-111165172D01*
X117310610Y-111215807D01*
X117400000Y-111233588D01*
X117489390Y-111215807D01*
X117565172Y-111165172D01*
X117608718Y-111100000D01*
X118889990Y-111100000D01*
X118908685Y-111206028D01*
X118908685Y-111206029D01*
X118908686Y-111206030D01*
X118962519Y-111299271D01*
X119044995Y-111368477D01*
X119146167Y-111405300D01*
X119146169Y-111405300D01*
X119253831Y-111405300D01*
X119253833Y-111405300D01*
X119355005Y-111368477D01*
X119437481Y-111299271D01*
X119451494Y-111275000D01*
X120614990Y-111275000D01*
X120633685Y-111381028D01*
X120633685Y-111381029D01*
X120633686Y-111381030D01*
X120682632Y-111465807D01*
X120687520Y-111474272D01*
X120715011Y-111497339D01*
X120769995Y-111543477D01*
X120871167Y-111580300D01*
X120871169Y-111580300D01*
X120978831Y-111580300D01*
X120978833Y-111580300D01*
X121080005Y-111543477D01*
X121162481Y-111474271D01*
X121216314Y-111381030D01*
X121235010Y-111275000D01*
X121233859Y-111268475D01*
X121224573Y-111215807D01*
X121216314Y-111168970D01*
X121162481Y-111075729D01*
X121080005Y-111006523D01*
X120978833Y-110969700D01*
X120871167Y-110969700D01*
X120769995Y-111006523D01*
X120769994Y-111006523D01*
X120769993Y-111006524D01*
X120687520Y-111075727D01*
X120633685Y-111168971D01*
X120614990Y-111274999D01*
X120614990Y-111275000D01*
X119451494Y-111275000D01*
X119491314Y-111206030D01*
X119507347Y-111115100D01*
X119540467Y-111044073D01*
X119559129Y-111025411D01*
X119562433Y-111022638D01*
X119562437Y-111022637D01*
X119644913Y-110953431D01*
X119698746Y-110860190D01*
X119717442Y-110754160D01*
X119717187Y-110752716D01*
X119698746Y-110648131D01*
X119698746Y-110648130D01*
X119644913Y-110554889D01*
X119644840Y-110554828D01*
X119562438Y-110485684D01*
X119562437Y-110485683D01*
X119461265Y-110448860D01*
X119353599Y-110448860D01*
X119252427Y-110485683D01*
X119252426Y-110485683D01*
X119252425Y-110485684D01*
X119169952Y-110554887D01*
X119116117Y-110648130D01*
X119100084Y-110739059D01*
X119066962Y-110810086D01*
X119048304Y-110828745D01*
X118965436Y-110898281D01*
X118962519Y-110900729D01*
X118944547Y-110931858D01*
X118908685Y-110993971D01*
X118889990Y-111099999D01*
X118889990Y-111100000D01*
X117608718Y-111100000D01*
X117615807Y-111089390D01*
X117626114Y-111037572D01*
X117660776Y-110967285D01*
X117725938Y-110923744D01*
X117804141Y-110918618D01*
X117836109Y-110931858D01*
X117836837Y-110930102D01*
X117850607Y-110935805D01*
X117850610Y-110935807D01*
X117940000Y-110953588D01*
X118029390Y-110935807D01*
X118105172Y-110885172D01*
X118155807Y-110809390D01*
X118173588Y-110720000D01*
X118155807Y-110630610D01*
X118105172Y-110554828D01*
X118029390Y-110504193D01*
X118029387Y-110504192D01*
X117940000Y-110486412D01*
X117850612Y-110504192D01*
X117850610Y-110504192D01*
X117850610Y-110504193D01*
X117774828Y-110554828D01*
X117724192Y-110630611D01*
X117713885Y-110682429D01*
X117679221Y-110752716D01*
X117614058Y-110796256D01*
X117535855Y-110801381D01*
X117503890Y-110788141D01*
X117503163Y-110789898D01*
X117489390Y-110784193D01*
X117400000Y-110766412D01*
X117310612Y-110784192D01*
X117310610Y-110784192D01*
X117310610Y-110784193D01*
X117234828Y-110834828D01*
X117195312Y-110893970D01*
X117184192Y-110910612D01*
X117166412Y-111000000D01*
X110460010Y-111000000D01*
X110442506Y-110900729D01*
X110441314Y-110893970D01*
X110387481Y-110800729D01*
X110382150Y-110796256D01*
X110327891Y-110750727D01*
X110305005Y-110731523D01*
X110203833Y-110694700D01*
X110096167Y-110694700D01*
X109994995Y-110731523D01*
X109994994Y-110731523D01*
X109994993Y-110731524D01*
X109950400Y-110768942D01*
X109879371Y-110802062D01*
X109801299Y-110795231D01*
X109748470Y-110758238D01*
X109747628Y-110759243D01*
X109657192Y-110683358D01*
X109655005Y-110681523D01*
X109553833Y-110644700D01*
X109446167Y-110644700D01*
X109344995Y-110681523D01*
X109344992Y-110681524D01*
X109332549Y-110686054D01*
X109331567Y-110683357D01*
X109274989Y-110698513D01*
X109218432Y-110683358D01*
X109217451Y-110686054D01*
X109205007Y-110681524D01*
X109205005Y-110681523D01*
X109103833Y-110644700D01*
X108996167Y-110644700D01*
X108894995Y-110681523D01*
X108894994Y-110681523D01*
X108894993Y-110681524D01*
X108812520Y-110750727D01*
X108758685Y-110843970D01*
X108749109Y-110898281D01*
X108715987Y-110969308D01*
X108651789Y-111014259D01*
X108629547Y-111020480D01*
X108560611Y-111034192D01*
X108560610Y-111034193D01*
X108484828Y-111084828D01*
X108434773Y-111159743D01*
X108434192Y-111160612D01*
X108416412Y-111250000D01*
X101589078Y-111250000D01*
X101590707Y-109985000D01*
X116126412Y-109985000D01*
X116144193Y-110074390D01*
X116194828Y-110150172D01*
X116270610Y-110200807D01*
X116360000Y-110218588D01*
X116449390Y-110200807D01*
X116525172Y-110150172D01*
X116575807Y-110074390D01*
X116586626Y-110020000D01*
X124746412Y-110020000D01*
X124764193Y-110109390D01*
X124814828Y-110185172D01*
X124890610Y-110235807D01*
X124980000Y-110253588D01*
X125069390Y-110235807D01*
X125145172Y-110185172D01*
X125195807Y-110109390D01*
X125213588Y-110020000D01*
X125195807Y-109930610D01*
X125145172Y-109854828D01*
X125069390Y-109804193D01*
X125069387Y-109804192D01*
X124980000Y-109786412D01*
X124890612Y-109804192D01*
X124890610Y-109804192D01*
X124890610Y-109804193D01*
X124814828Y-109854828D01*
X124787578Y-109895612D01*
X124764192Y-109930612D01*
X124761170Y-109945807D01*
X124746412Y-110020000D01*
X116586626Y-110020000D01*
X116593588Y-109985000D01*
X116575807Y-109895610D01*
X116525172Y-109819828D01*
X116449390Y-109769193D01*
X116449387Y-109769192D01*
X116360000Y-109751412D01*
X116270612Y-109769192D01*
X116270610Y-109769192D01*
X116270610Y-109769193D01*
X116194828Y-109819828D01*
X116144487Y-109895171D01*
X116144192Y-109895612D01*
X116134208Y-109945807D01*
X116126412Y-109985000D01*
X101590707Y-109985000D01*
X101591035Y-109730000D01*
X105966412Y-109730000D01*
X105984193Y-109819390D01*
X106034828Y-109895172D01*
X106110610Y-109945807D01*
X106200000Y-109963588D01*
X106289390Y-109945807D01*
X106365172Y-109895172D01*
X106415807Y-109819390D01*
X106433588Y-109730000D01*
X106415807Y-109640610D01*
X106365172Y-109564828D01*
X106289390Y-109514193D01*
X106289387Y-109514192D01*
X106200000Y-109496412D01*
X106110612Y-109514192D01*
X106110610Y-109514192D01*
X106110610Y-109514193D01*
X106034828Y-109564828D01*
X105984192Y-109640612D01*
X105966412Y-109730000D01*
X101591035Y-109730000D01*
X101593271Y-107992955D01*
X113452742Y-107992955D01*
X113462692Y-108049387D01*
X113472822Y-108106833D01*
X113483410Y-108125172D01*
X113530637Y-108206974D01*
X113530638Y-108206975D01*
X113530639Y-108206976D01*
X113619221Y-108281305D01*
X113619222Y-108281305D01*
X113619223Y-108281306D01*
X113727882Y-108320855D01*
X113843517Y-108320855D01*
X113843518Y-108320855D01*
X113952179Y-108281305D01*
X114040761Y-108206976D01*
X114098578Y-108106833D01*
X114118658Y-107992955D01*
X114112847Y-107960000D01*
X123616412Y-107960000D01*
X123634193Y-108049390D01*
X123684828Y-108125172D01*
X123760610Y-108175807D01*
X123850000Y-108193588D01*
X123939390Y-108175807D01*
X124015172Y-108125172D01*
X124065807Y-108049390D01*
X124083588Y-107960000D01*
X124065807Y-107870610D01*
X124015172Y-107794828D01*
X123939390Y-107744193D01*
X123939387Y-107744192D01*
X123850000Y-107726412D01*
X123760612Y-107744192D01*
X123760610Y-107744192D01*
X123760610Y-107744193D01*
X123708614Y-107778935D01*
X123684828Y-107794828D01*
X123634192Y-107870612D01*
X123632508Y-107879079D01*
X123616412Y-107960000D01*
X114112847Y-107960000D01*
X114098578Y-107879077D01*
X114040761Y-107778934D01*
X113952179Y-107704605D01*
X113952177Y-107704604D01*
X113952176Y-107704603D01*
X113843519Y-107665055D01*
X113843518Y-107665055D01*
X113727882Y-107665055D01*
X113727881Y-107665055D01*
X113619223Y-107704603D01*
X113530637Y-107778935D01*
X113472821Y-107879079D01*
X113452742Y-107992955D01*
X101593271Y-107992955D01*
X101594614Y-106950000D01*
X104641412Y-106950000D01*
X104652428Y-107005383D01*
X104659193Y-107039390D01*
X104709828Y-107115172D01*
X104785610Y-107165807D01*
X104875000Y-107183588D01*
X104964390Y-107165807D01*
X105040172Y-107115172D01*
X105090807Y-107039390D01*
X105108588Y-106950000D01*
X105090807Y-106860610D01*
X105040172Y-106784828D01*
X104964390Y-106734193D01*
X104964387Y-106734192D01*
X104875000Y-106716412D01*
X104785612Y-106734192D01*
X104785610Y-106734192D01*
X104785610Y-106734193D01*
X104709828Y-106784828D01*
X104662827Y-106855172D01*
X104659192Y-106860612D01*
X104641412Y-106950000D01*
X101594614Y-106950000D01*
X101594949Y-106690000D01*
X113291412Y-106690000D01*
X113309192Y-106779389D01*
X113347793Y-106837161D01*
X113372983Y-106911373D01*
X113357692Y-106988237D01*
X113347793Y-107005383D01*
X113310892Y-107060610D01*
X113293112Y-107150000D01*
X113310893Y-107239390D01*
X113361528Y-107315172D01*
X113437310Y-107365807D01*
X113526700Y-107383588D01*
X113616090Y-107365807D01*
X113691872Y-107315172D01*
X113742507Y-107239390D01*
X113760288Y-107150000D01*
X113742507Y-107060610D01*
X113703905Y-107002837D01*
X113678716Y-106928627D01*
X113694006Y-106851763D01*
X113703899Y-106834626D01*
X113740807Y-106779390D01*
X113758588Y-106690000D01*
X113740807Y-106600610D01*
X113690172Y-106524828D01*
X113614390Y-106474193D01*
X113614387Y-106474192D01*
X113525000Y-106456412D01*
X113435612Y-106474192D01*
X113435610Y-106474192D01*
X113435610Y-106474193D01*
X113377006Y-106513350D01*
X113359828Y-106524828D01*
X113309192Y-106600612D01*
X113291412Y-106690000D01*
X101594949Y-106690000D01*
X101595451Y-106300000D01*
X123941412Y-106300000D01*
X123959193Y-106389390D01*
X124009828Y-106465172D01*
X124085610Y-106515807D01*
X124175000Y-106533588D01*
X124264390Y-106515807D01*
X124340172Y-106465172D01*
X124390807Y-106389390D01*
X124408588Y-106300000D01*
X124393669Y-106225000D01*
X124738042Y-106225000D01*
X124751266Y-106300000D01*
X124758122Y-106338878D01*
X124784952Y-106385351D01*
X124815937Y-106439019D01*
X124815938Y-106439020D01*
X124815939Y-106439021D01*
X124904521Y-106513350D01*
X124904522Y-106513350D01*
X124904523Y-106513351D01*
X125013182Y-106552900D01*
X125128817Y-106552900D01*
X125128818Y-106552900D01*
X125237479Y-106513350D01*
X125326061Y-106439021D01*
X125383878Y-106338878D01*
X125403958Y-106225000D01*
X125383878Y-106111122D01*
X125341554Y-106037813D01*
X125326062Y-106010980D01*
X125324164Y-106009387D01*
X125237479Y-105936650D01*
X125237477Y-105936649D01*
X125237476Y-105936648D01*
X125128819Y-105897100D01*
X125128818Y-105897100D01*
X125013182Y-105897100D01*
X125013181Y-105897100D01*
X124904523Y-105936648D01*
X124815937Y-106010980D01*
X124758121Y-106111124D01*
X124738042Y-106225000D01*
X124393669Y-106225000D01*
X124390807Y-106210610D01*
X124340172Y-106134828D01*
X124264390Y-106084193D01*
X124264387Y-106084192D01*
X124175000Y-106066412D01*
X124085612Y-106084192D01*
X124085610Y-106084192D01*
X124085610Y-106084193D01*
X124084145Y-106085172D01*
X124009828Y-106134828D01*
X123959192Y-106210612D01*
X123941412Y-106300000D01*
X101595451Y-106300000D01*
X101597365Y-104813586D01*
X104051404Y-104813586D01*
X104070099Y-104919614D01*
X104070099Y-104919615D01*
X104070100Y-104919616D01*
X104105269Y-104980531D01*
X104123934Y-105012858D01*
X104126070Y-105014650D01*
X104206409Y-105082063D01*
X104307581Y-105118886D01*
X104307583Y-105118886D01*
X104415246Y-105118886D01*
X104415247Y-105118886D01*
X104426037Y-105114958D01*
X104504106Y-105108126D01*
X104575135Y-105141245D01*
X104620088Y-105205441D01*
X104626921Y-105283513D01*
X104609581Y-105326705D01*
X104609898Y-105326837D01*
X104604193Y-105340609D01*
X104586412Y-105430000D01*
X104604192Y-105519390D01*
X104661965Y-105605854D01*
X104687156Y-105680066D01*
X104671866Y-105756930D01*
X104661966Y-105774077D01*
X104624192Y-105830610D01*
X104606412Y-105920000D01*
X104609723Y-105936648D01*
X104624193Y-106009390D01*
X104674828Y-106085172D01*
X104750610Y-106135807D01*
X104840000Y-106153588D01*
X104929390Y-106135807D01*
X105005172Y-106085172D01*
X105055807Y-106009390D01*
X105073588Y-105920000D01*
X105055807Y-105830610D01*
X105008208Y-105759372D01*
X104998034Y-105744145D01*
X104972843Y-105669934D01*
X104988133Y-105593069D01*
X104998031Y-105575925D01*
X105035807Y-105519390D01*
X105053588Y-105430000D01*
X105035807Y-105340610D01*
X104985172Y-105264828D01*
X104909390Y-105214193D01*
X104909387Y-105214192D01*
X104820000Y-105196412D01*
X104819997Y-105196412D01*
X104778207Y-105204724D01*
X104700004Y-105199598D01*
X104690588Y-105193306D01*
X114053912Y-105193306D01*
X114070496Y-105276682D01*
X114071693Y-105282696D01*
X114122328Y-105358478D01*
X114198110Y-105409113D01*
X114287500Y-105426894D01*
X114376890Y-105409113D01*
X114452672Y-105358478D01*
X114503307Y-105282696D01*
X114521088Y-105193306D01*
X114503307Y-105103916D01*
X114452672Y-105028134D01*
X114376890Y-104977499D01*
X114376887Y-104977498D01*
X114287500Y-104959718D01*
X114198112Y-104977498D01*
X114198110Y-104977498D01*
X114198110Y-104977499D01*
X114122328Y-105028134D01*
X114086295Y-105082063D01*
X114071692Y-105103918D01*
X114053912Y-105193306D01*
X104690588Y-105193306D01*
X104634842Y-105156056D01*
X104600181Y-105085768D01*
X104605307Y-105007565D01*
X104617551Y-104980543D01*
X104652728Y-104919616D01*
X104671424Y-104813586D01*
X104657386Y-104733973D01*
X104664216Y-104655904D01*
X104709167Y-104591706D01*
X104776950Y-104559194D01*
X104779998Y-104558587D01*
X104780000Y-104558588D01*
X104869390Y-104540807D01*
X104945172Y-104490172D01*
X104995807Y-104414390D01*
X105013588Y-104325000D01*
X104995807Y-104235610D01*
X104995807Y-104235609D01*
X104976432Y-104206613D01*
X104951240Y-104132402D01*
X104966529Y-104055538D01*
X104976432Y-104038387D01*
X104995807Y-104009390D01*
X104995807Y-104009389D01*
X105012542Y-103925260D01*
X114966412Y-103925260D01*
X114983146Y-104009390D01*
X114984193Y-104014650D01*
X115034828Y-104090432D01*
X115043113Y-104102831D01*
X115040800Y-104104376D01*
X115069095Y-104153385D01*
X115069095Y-104231755D01*
X115048740Y-104276681D01*
X115009192Y-104335870D01*
X114991412Y-104425260D01*
X115004323Y-104490171D01*
X115009193Y-104514650D01*
X115059828Y-104590432D01*
X115068113Y-104602831D01*
X115065800Y-104604376D01*
X115094095Y-104653385D01*
X115094095Y-104731755D01*
X115073740Y-104776681D01*
X115034192Y-104835870D01*
X115016412Y-104925260D01*
X115034192Y-105014649D01*
X115073740Y-105073838D01*
X115098930Y-105148049D01*
X115083640Y-105224914D01*
X115067576Y-105247330D01*
X115068113Y-105247689D01*
X115059828Y-105260087D01*
X115059828Y-105260088D01*
X115015317Y-105326705D01*
X115009192Y-105335872D01*
X114991412Y-105425260D01*
X115009192Y-105514649D01*
X115060306Y-105591149D01*
X115085496Y-105665361D01*
X115070205Y-105742225D01*
X115060306Y-105759371D01*
X115009192Y-105835870D01*
X114991412Y-105925260D01*
X115008462Y-106010979D01*
X115009193Y-106014650D01*
X115059828Y-106090432D01*
X115135610Y-106141067D01*
X115225000Y-106158848D01*
X115314390Y-106141067D01*
X115390172Y-106090432D01*
X115440807Y-106014650D01*
X115458588Y-105925260D01*
X115440807Y-105835870D01*
X115440807Y-105835869D01*
X115389694Y-105759372D01*
X115364503Y-105685160D01*
X115379793Y-105608296D01*
X115389694Y-105591148D01*
X115440807Y-105514650D01*
X115440807Y-105514649D01*
X115458588Y-105425260D01*
X115440807Y-105335870D01*
X115401258Y-105276680D01*
X115376069Y-105202470D01*
X115391359Y-105125606D01*
X115407424Y-105103190D01*
X115406887Y-105102831D01*
X115415170Y-105090432D01*
X115415172Y-105090432D01*
X115465807Y-105014650D01*
X115483588Y-104925260D01*
X115465807Y-104835870D01*
X115415172Y-104760088D01*
X115415171Y-104760087D01*
X115406887Y-104747689D01*
X115409199Y-104746143D01*
X115380904Y-104697134D01*
X115380904Y-104618764D01*
X115401258Y-104573840D01*
X115440807Y-104514650D01*
X115458588Y-104425260D01*
X115440807Y-104335870D01*
X115390172Y-104260088D01*
X115390171Y-104260087D01*
X115381887Y-104247689D01*
X115384199Y-104246143D01*
X115355904Y-104197134D01*
X115355904Y-104118764D01*
X115376258Y-104073840D01*
X115415807Y-104014650D01*
X115433588Y-103925260D01*
X115415807Y-103835870D01*
X115365172Y-103760088D01*
X115289390Y-103709453D01*
X115289387Y-103709452D01*
X115200000Y-103691672D01*
X115110612Y-103709452D01*
X115110610Y-103709452D01*
X115110610Y-103709453D01*
X115034828Y-103760088D01*
X114987707Y-103830612D01*
X114984192Y-103835872D01*
X114966412Y-103925260D01*
X105012542Y-103925260D01*
X105013588Y-103920000D01*
X104995807Y-103830610D01*
X104945172Y-103754828D01*
X104869390Y-103704193D01*
X104869387Y-103704192D01*
X104780000Y-103686412D01*
X104690612Y-103704192D01*
X104690610Y-103704192D01*
X104690610Y-103704193D01*
X104682738Y-103709453D01*
X104614828Y-103754828D01*
X104564192Y-103830612D01*
X104546412Y-103920000D01*
X104564192Y-104009389D01*
X104583569Y-104038389D01*
X104608759Y-104112600D01*
X104593469Y-104189465D01*
X104583569Y-104206611D01*
X104564192Y-104235610D01*
X104546412Y-104325000D01*
X104546412Y-104325003D01*
X104546879Y-104327352D01*
X104546412Y-104334475D01*
X104546412Y-104339912D01*
X104546056Y-104339912D01*
X104541752Y-104405555D01*
X104498211Y-104470716D01*
X104427922Y-104505377D01*
X104398388Y-104508286D01*
X104307581Y-104508286D01*
X104206409Y-104545109D01*
X104206408Y-104545109D01*
X104206407Y-104545110D01*
X104123934Y-104614313D01*
X104070099Y-104707557D01*
X104051404Y-104813585D01*
X104051404Y-104813586D01*
X101597365Y-104813586D01*
X101599475Y-103175000D01*
X112026386Y-103175000D01*
X112037447Y-103230610D01*
X112044167Y-103264390D01*
X112094802Y-103340172D01*
X112170584Y-103390807D01*
X112259974Y-103408588D01*
X112349364Y-103390807D01*
X112425146Y-103340172D01*
X112438624Y-103320000D01*
X115896412Y-103320000D01*
X115910496Y-103390807D01*
X115914193Y-103409390D01*
X115964828Y-103485172D01*
X116040610Y-103535807D01*
X116130000Y-103553588D01*
X116219390Y-103535807D01*
X116295172Y-103485172D01*
X116345807Y-103409390D01*
X116363588Y-103320000D01*
X116345807Y-103230610D01*
X116295172Y-103154828D01*
X116219390Y-103104193D01*
X116219387Y-103104192D01*
X116130000Y-103086412D01*
X116040612Y-103104192D01*
X116040610Y-103104192D01*
X116040610Y-103104193D01*
X115964828Y-103154828D01*
X115957917Y-103165172D01*
X115914192Y-103230612D01*
X115896412Y-103320000D01*
X112438624Y-103320000D01*
X112475781Y-103264390D01*
X112493562Y-103175000D01*
X112475781Y-103085610D01*
X112425146Y-103009828D01*
X112410437Y-103000000D01*
X124491412Y-103000000D01*
X124508600Y-103086412D01*
X124509193Y-103089390D01*
X124559828Y-103165172D01*
X124635610Y-103215807D01*
X124725000Y-103233588D01*
X124814390Y-103215807D01*
X124890172Y-103165172D01*
X124940807Y-103089390D01*
X124958588Y-103000000D01*
X124940807Y-102910610D01*
X124890172Y-102834828D01*
X124814390Y-102784193D01*
X124814387Y-102784192D01*
X124725000Y-102766412D01*
X124635612Y-102784192D01*
X124635610Y-102784192D01*
X124635610Y-102784193D01*
X124559828Y-102834828D01*
X124509192Y-102910612D01*
X124491412Y-103000000D01*
X112410437Y-103000000D01*
X112349364Y-102959193D01*
X112349361Y-102959192D01*
X112259974Y-102941412D01*
X112170586Y-102959192D01*
X112170584Y-102959192D01*
X112170584Y-102959193D01*
X112109511Y-103000000D01*
X112094802Y-103009828D01*
X112044166Y-103085612D01*
X112026386Y-103175000D01*
X101599475Y-103175000D01*
X101600820Y-102130000D01*
X106436412Y-102130000D01*
X106452203Y-102209390D01*
X106454193Y-102219390D01*
X106504828Y-102295172D01*
X106580610Y-102345807D01*
X106670000Y-102363588D01*
X106759390Y-102345807D01*
X106820888Y-102304715D01*
X106895099Y-102279525D01*
X106971963Y-102294815D01*
X106989110Y-102304715D01*
X107050610Y-102345807D01*
X107140000Y-102363588D01*
X107229390Y-102345807D01*
X107305172Y-102295172D01*
X107305172Y-102295170D01*
X107317571Y-102286887D01*
X107319727Y-102290115D01*
X107365100Y-102263908D01*
X107443470Y-102263893D01*
X107488424Y-102284256D01*
X107550610Y-102325807D01*
X107640000Y-102343588D01*
X107729390Y-102325807D01*
X107793404Y-102283035D01*
X107810888Y-102271353D01*
X107885099Y-102246162D01*
X107961964Y-102261452D01*
X107979112Y-102271353D01*
X108029727Y-102305172D01*
X108060610Y-102325807D01*
X108150000Y-102343588D01*
X108239390Y-102325807D01*
X108303404Y-102283034D01*
X108377614Y-102257843D01*
X108454478Y-102273132D01*
X108471628Y-102283034D01*
X108522294Y-102316887D01*
X108550610Y-102335807D01*
X108640000Y-102353588D01*
X108729390Y-102335807D01*
X108803564Y-102286246D01*
X108877773Y-102261055D01*
X108954637Y-102276344D01*
X108971432Y-102288379D01*
X108972429Y-102286887D01*
X108984827Y-102295171D01*
X108984828Y-102295172D01*
X109060610Y-102345807D01*
X109150000Y-102363588D01*
X109239390Y-102345807D01*
X109303404Y-102303034D01*
X109377614Y-102277843D01*
X109454478Y-102293132D01*
X109471628Y-102303034D01*
X109474828Y-102305172D01*
X109550610Y-102355807D01*
X109640000Y-102373588D01*
X109729390Y-102355807D01*
X109805172Y-102305172D01*
X109805172Y-102305170D01*
X109817571Y-102296887D01*
X109819316Y-102299500D01*
X109867128Y-102271889D01*
X109945498Y-102271881D01*
X109990441Y-102292241D01*
X110006596Y-102303035D01*
X110070610Y-102345807D01*
X110160000Y-102363588D01*
X110249390Y-102345807D01*
X110313404Y-102303034D01*
X110387614Y-102277843D01*
X110464478Y-102293132D01*
X110481628Y-102303034D01*
X110484828Y-102305172D01*
X110560610Y-102355807D01*
X110650000Y-102373588D01*
X110739390Y-102355807D01*
X110815172Y-102305172D01*
X110815171Y-102305172D01*
X110820888Y-102301353D01*
X110895099Y-102276162D01*
X110971964Y-102291452D01*
X110989112Y-102301353D01*
X111025711Y-102325807D01*
X111070610Y-102355807D01*
X111160000Y-102373588D01*
X111249390Y-102355807D01*
X111311577Y-102314255D01*
X111385784Y-102289066D01*
X111462649Y-102304356D01*
X111481686Y-102317998D01*
X111482429Y-102316887D01*
X111494827Y-102325171D01*
X111494828Y-102325172D01*
X111570610Y-102375807D01*
X111660000Y-102393588D01*
X111749390Y-102375807D01*
X111825172Y-102325172D01*
X111875807Y-102249390D01*
X111893588Y-102160000D01*
X111875807Y-102070610D01*
X111825172Y-101994828D01*
X111749390Y-101944193D01*
X111749387Y-101944192D01*
X111660000Y-101926412D01*
X111570610Y-101944192D01*
X111508424Y-101985743D01*
X111434213Y-102010933D01*
X111357348Y-101995642D01*
X111338313Y-101982001D01*
X111337571Y-101983113D01*
X111325172Y-101974828D01*
X111249390Y-101924193D01*
X111249387Y-101924192D01*
X111160000Y-101906412D01*
X111070610Y-101924192D01*
X110989111Y-101978647D01*
X110914899Y-102003837D01*
X110838035Y-101988546D01*
X110820889Y-101978647D01*
X110739389Y-101924192D01*
X110650000Y-101906412D01*
X110560611Y-101924192D01*
X110530679Y-101944192D01*
X110499795Y-101964828D01*
X110496595Y-101966966D01*
X110422383Y-101992156D01*
X110345519Y-101976866D01*
X110328371Y-101966965D01*
X110249390Y-101914192D01*
X110160000Y-101896412D01*
X110070612Y-101914192D01*
X110070610Y-101914192D01*
X110070610Y-101914193D01*
X109994828Y-101964828D01*
X109994827Y-101964828D01*
X109982429Y-101973113D01*
X109980684Y-101970501D01*
X109932839Y-101998118D01*
X109854469Y-101998110D01*
X109809558Y-101977759D01*
X109805172Y-101974828D01*
X109729390Y-101924193D01*
X109729387Y-101924192D01*
X109640000Y-101906412D01*
X109550611Y-101924192D01*
X109520679Y-101944192D01*
X109489795Y-101964828D01*
X109486595Y-101966966D01*
X109412383Y-101992156D01*
X109335519Y-101976866D01*
X109318371Y-101966965D01*
X109239390Y-101914192D01*
X109150000Y-101896412D01*
X109060612Y-101914192D01*
X109060610Y-101914192D01*
X109060610Y-101914193D01*
X108986434Y-101963754D01*
X108912224Y-101988944D01*
X108835360Y-101973654D01*
X108818568Y-101961620D01*
X108817571Y-101963113D01*
X108805172Y-101954828D01*
X108729390Y-101904193D01*
X108729387Y-101904192D01*
X108640000Y-101886412D01*
X108550611Y-101904192D01*
X108525326Y-101921087D01*
X108489795Y-101944828D01*
X108486595Y-101946966D01*
X108412383Y-101972156D01*
X108335519Y-101956866D01*
X108318371Y-101946965D01*
X108239390Y-101894192D01*
X108150000Y-101876412D01*
X108060610Y-101894192D01*
X107979111Y-101948647D01*
X107904899Y-101973837D01*
X107828035Y-101958546D01*
X107810889Y-101948647D01*
X107729389Y-101894192D01*
X107640000Y-101876412D01*
X107550612Y-101894192D01*
X107550610Y-101894192D01*
X107550610Y-101894193D01*
X107474828Y-101944828D01*
X107474827Y-101944828D01*
X107462429Y-101953113D01*
X107460274Y-101949887D01*
X107414843Y-101976106D01*
X107336473Y-101976091D01*
X107291574Y-101955742D01*
X107229390Y-101914192D01*
X107140000Y-101896412D01*
X107050610Y-101914192D01*
X106989111Y-101955284D01*
X106914900Y-101980474D01*
X106838035Y-101965183D01*
X106820889Y-101955284D01*
X106759389Y-101914192D01*
X106670000Y-101896412D01*
X106580612Y-101914192D01*
X106580610Y-101914192D01*
X106580610Y-101914193D01*
X106504828Y-101964828D01*
X106467557Y-102020610D01*
X106454192Y-102040612D01*
X106436412Y-102130000D01*
X101600820Y-102130000D01*
X101601427Y-101658515D01*
X112557897Y-101658515D01*
X112565530Y-101696891D01*
X112575678Y-101747905D01*
X112626313Y-101823687D01*
X112702095Y-101874322D01*
X112791485Y-101892103D01*
X112791485Y-101892102D01*
X112794815Y-101892765D01*
X112865104Y-101927427D01*
X112908644Y-101992589D01*
X112913770Y-102011719D01*
X112933319Y-102110000D01*
X112934193Y-102114390D01*
X112984828Y-102190172D01*
X113060610Y-102240807D01*
X113150000Y-102258588D01*
X113239390Y-102240807D01*
X113315172Y-102190172D01*
X113365807Y-102114390D01*
X113383588Y-102025000D01*
X113365807Y-101935610D01*
X113315172Y-101859828D01*
X113239390Y-101809193D01*
X113239387Y-101809192D01*
X113146668Y-101790749D01*
X113104594Y-101770000D01*
X115936412Y-101770000D01*
X115953742Y-101857127D01*
X115954193Y-101859390D01*
X116004828Y-101935172D01*
X116080610Y-101985807D01*
X116170000Y-102003588D01*
X116259390Y-101985807D01*
X116333803Y-101936087D01*
X116340888Y-101931353D01*
X116415099Y-101906162D01*
X116491964Y-101921452D01*
X116509112Y-101931353D01*
X116570179Y-101972156D01*
X116590610Y-101985807D01*
X116680000Y-102003588D01*
X116769390Y-101985807D01*
X116845172Y-101935172D01*
X116854496Y-101921217D01*
X116913414Y-101869543D01*
X116990278Y-101854251D01*
X117064488Y-101879438D01*
X117113938Y-101912479D01*
X117203328Y-101930260D01*
X117292718Y-101912479D01*
X117315496Y-101897259D01*
X117389706Y-101872068D01*
X117466570Y-101887357D01*
X117496926Y-101907165D01*
X117541053Y-101944192D01*
X117569995Y-101968477D01*
X117671167Y-102005300D01*
X117671169Y-102005300D01*
X117778831Y-102005300D01*
X117778833Y-102005300D01*
X117880005Y-101968477D01*
X117962481Y-101899271D01*
X117962482Y-101899268D01*
X117966188Y-101896159D01*
X118037216Y-101863038D01*
X118115288Y-101869868D01*
X118147618Y-101886252D01*
X118177791Y-101906412D01*
X118188110Y-101913307D01*
X118277500Y-101931088D01*
X118366890Y-101913307D01*
X118442672Y-101862672D01*
X118444177Y-101860418D01*
X118450264Y-101855079D01*
X118453217Y-101852127D01*
X118453410Y-101852320D01*
X118503095Y-101808741D01*
X118579958Y-101793446D01*
X118654171Y-101818633D01*
X118677123Y-101837467D01*
X118684826Y-101845170D01*
X118684827Y-101845170D01*
X118684828Y-101845172D01*
X118760610Y-101895807D01*
X118850000Y-101913588D01*
X118939390Y-101895807D01*
X119015172Y-101845172D01*
X119017432Y-101841788D01*
X119076350Y-101790116D01*
X119153214Y-101774824D01*
X119227427Y-101800012D01*
X119269203Y-101841788D01*
X119284826Y-101865170D01*
X119284827Y-101865170D01*
X119284828Y-101865172D01*
X119360610Y-101915807D01*
X119450000Y-101933588D01*
X119539390Y-101915807D01*
X119615172Y-101865172D01*
X119637030Y-101832458D01*
X119695948Y-101780786D01*
X119772812Y-101765495D01*
X119847024Y-101790684D01*
X119888799Y-101832458D01*
X119912326Y-101867670D01*
X119912328Y-101867672D01*
X119988110Y-101918307D01*
X120077500Y-101936088D01*
X120166890Y-101918307D01*
X120242672Y-101867672D01*
X120242674Y-101867668D01*
X120253217Y-101857127D01*
X120255219Y-101859129D01*
X120297616Y-101821946D01*
X120374480Y-101806653D01*
X120448693Y-101831841D01*
X120472881Y-101856028D01*
X120474283Y-101854627D01*
X120484826Y-101865170D01*
X120484827Y-101865170D01*
X120484828Y-101865172D01*
X120560610Y-101915807D01*
X120650000Y-101933588D01*
X120739390Y-101915807D01*
X120815172Y-101865172D01*
X120848646Y-101815072D01*
X120907564Y-101763401D01*
X120984428Y-101748110D01*
X121058640Y-101773299D01*
X121100415Y-101815074D01*
X121131997Y-101862341D01*
X121131998Y-101862341D01*
X121131999Y-101862343D01*
X121207781Y-101912978D01*
X121297171Y-101930759D01*
X121386561Y-101912978D01*
X121462343Y-101862343D01*
X121512978Y-101786561D01*
X121530759Y-101697171D01*
X121530758Y-101697169D01*
X121530814Y-101696891D01*
X121530382Y-101695278D01*
X121528890Y-101687779D01*
X121828856Y-101687779D01*
X121829288Y-101689391D01*
X121845978Y-101773299D01*
X121846693Y-101776890D01*
X121897328Y-101852672D01*
X121973110Y-101903307D01*
X122062500Y-101921088D01*
X122151890Y-101903307D01*
X122227672Y-101852672D01*
X122278307Y-101776890D01*
X122293602Y-101700000D01*
X122836412Y-101700000D01*
X122853695Y-101786890D01*
X122854193Y-101789390D01*
X122904828Y-101865172D01*
X122980610Y-101915807D01*
X123070000Y-101933588D01*
X123159390Y-101915807D01*
X123235172Y-101865172D01*
X123285807Y-101789390D01*
X123303588Y-101700000D01*
X123285807Y-101610610D01*
X123235172Y-101534828D01*
X123159390Y-101484193D01*
X123159387Y-101484192D01*
X123070000Y-101466412D01*
X122980612Y-101484192D01*
X122980610Y-101484192D01*
X122980610Y-101484193D01*
X122904828Y-101534828D01*
X122855864Y-101608110D01*
X122854192Y-101610612D01*
X122836412Y-101700000D01*
X122293602Y-101700000D01*
X122296088Y-101687500D01*
X122278307Y-101598110D01*
X122227672Y-101522328D01*
X122151890Y-101471693D01*
X122151887Y-101471692D01*
X122062500Y-101453912D01*
X121973112Y-101471692D01*
X121973110Y-101471692D01*
X121973110Y-101471693D01*
X121940708Y-101493343D01*
X121897328Y-101522328D01*
X121846692Y-101598111D01*
X121828856Y-101687779D01*
X121528890Y-101687779D01*
X121512978Y-101607781D01*
X121462343Y-101531999D01*
X121386561Y-101481364D01*
X121386558Y-101481363D01*
X121297171Y-101463583D01*
X121207783Y-101481363D01*
X121207781Y-101481363D01*
X121207781Y-101481364D01*
X121196158Y-101489130D01*
X121131998Y-101531999D01*
X121098525Y-101582097D01*
X121039603Y-101633770D01*
X120962739Y-101649060D01*
X120888527Y-101623869D01*
X120846756Y-101582098D01*
X120815172Y-101534828D01*
X120739390Y-101484193D01*
X120739387Y-101484192D01*
X120650000Y-101466412D01*
X120560612Y-101484192D01*
X120560610Y-101484192D01*
X120560610Y-101484193D01*
X120546916Y-101493343D01*
X120484826Y-101534829D01*
X120474283Y-101545373D01*
X120472281Y-101543371D01*
X120429858Y-101580565D01*
X120352992Y-101595845D01*
X120278784Y-101570643D01*
X120254617Y-101546472D01*
X120253217Y-101547873D01*
X120242673Y-101537329D01*
X120241301Y-101536412D01*
X120166890Y-101486693D01*
X120166887Y-101486692D01*
X120077500Y-101468912D01*
X119988112Y-101486692D01*
X119988110Y-101486692D01*
X119988110Y-101486693D01*
X119969639Y-101499035D01*
X119912327Y-101537328D01*
X119890470Y-101570041D01*
X119831548Y-101621714D01*
X119754683Y-101637004D01*
X119680472Y-101611813D01*
X119638700Y-101570040D01*
X119615173Y-101534829D01*
X119615172Y-101534828D01*
X119539390Y-101484193D01*
X119539387Y-101484192D01*
X119450000Y-101466412D01*
X119360612Y-101484192D01*
X119360610Y-101484192D01*
X119360610Y-101484193D01*
X119346916Y-101493343D01*
X119284826Y-101534829D01*
X119282563Y-101538217D01*
X119223639Y-101589888D01*
X119146774Y-101605174D01*
X119072563Y-101579981D01*
X119030795Y-101538210D01*
X119028535Y-101534828D01*
X119015172Y-101514828D01*
X118939390Y-101464193D01*
X118939387Y-101464192D01*
X118850000Y-101446412D01*
X118760612Y-101464192D01*
X118760610Y-101464192D01*
X118760610Y-101464193D01*
X118734419Y-101481693D01*
X118684826Y-101514829D01*
X118683316Y-101517090D01*
X118677220Y-101522435D01*
X118674283Y-101525373D01*
X118674090Y-101525180D01*
X118624393Y-101568763D01*
X118547529Y-101584052D01*
X118473318Y-101558860D01*
X118450376Y-101540032D01*
X118442673Y-101532329D01*
X118442672Y-101532328D01*
X118366890Y-101481693D01*
X118366887Y-101481692D01*
X118277500Y-101463912D01*
X118188110Y-101481692D01*
X118144301Y-101510964D01*
X118070089Y-101536154D01*
X117993225Y-101520863D01*
X117962872Y-101501057D01*
X117880006Y-101431524D01*
X117880005Y-101431523D01*
X117778833Y-101394700D01*
X117671167Y-101394700D01*
X117569995Y-101431523D01*
X117569994Y-101431523D01*
X117569993Y-101431524D01*
X117501341Y-101489130D01*
X117430313Y-101522250D01*
X117352241Y-101515419D01*
X117319912Y-101499035D01*
X117292717Y-101480864D01*
X117203328Y-101463084D01*
X117113940Y-101480864D01*
X117113938Y-101480864D01*
X117113938Y-101480865D01*
X117095263Y-101493343D01*
X117038154Y-101531501D01*
X117028829Y-101545458D01*
X116969907Y-101597131D01*
X116893042Y-101612420D01*
X116818833Y-101587229D01*
X116769389Y-101554192D01*
X116680000Y-101536412D01*
X116590610Y-101554192D01*
X116509111Y-101608647D01*
X116434899Y-101633837D01*
X116358035Y-101618546D01*
X116340889Y-101608647D01*
X116259389Y-101554192D01*
X116170000Y-101536412D01*
X116080612Y-101554192D01*
X116080610Y-101554192D01*
X116080610Y-101554193D01*
X116004828Y-101604828D01*
X115992106Y-101623869D01*
X115954192Y-101680612D01*
X115936412Y-101770000D01*
X113104594Y-101770000D01*
X113076380Y-101756086D01*
X113032840Y-101690923D01*
X113027714Y-101671794D01*
X113020164Y-101633837D01*
X113007292Y-101569125D01*
X112956657Y-101493343D01*
X112880875Y-101442708D01*
X112880872Y-101442707D01*
X112791485Y-101424927D01*
X112702097Y-101442707D01*
X112702095Y-101442707D01*
X112702095Y-101442708D01*
X112626313Y-101493343D01*
X112591492Y-101545458D01*
X112575677Y-101569127D01*
X112557897Y-101658515D01*
X101601427Y-101658515D01*
X101602790Y-100600000D01*
X111989990Y-100600000D01*
X112008685Y-100706028D01*
X112008685Y-100706029D01*
X112008686Y-100706030D01*
X112062519Y-100799271D01*
X112144995Y-100868477D01*
X112246167Y-100905300D01*
X112246169Y-100905300D01*
X112353831Y-100905300D01*
X112353833Y-100905300D01*
X112455005Y-100868477D01*
X112537481Y-100799271D01*
X112556815Y-100765784D01*
X116382196Y-100765784D01*
X116399977Y-100855174D01*
X116450612Y-100930956D01*
X116526394Y-100981591D01*
X116615784Y-100999372D01*
X116705174Y-100981591D01*
X116780956Y-100930956D01*
X116831591Y-100855174D01*
X116831591Y-100855171D01*
X116839874Y-100842776D01*
X116843564Y-100845241D01*
X116874158Y-100805344D01*
X116921657Y-100785649D01*
X117024410Y-100785649D01*
X117086447Y-100833219D01*
X117108264Y-100881347D01*
X117108941Y-100881067D01*
X117114646Y-100894841D01*
X117114648Y-100894845D01*
X117114649Y-100894846D01*
X117165284Y-100970628D01*
X117241066Y-101021263D01*
X117330456Y-101039044D01*
X117419846Y-101021263D01*
X117495628Y-100970628D01*
X117495628Y-100970626D01*
X117508027Y-100962343D01*
X117510519Y-100966074D01*
X117553870Y-100941017D01*
X117632240Y-100940977D01*
X117677241Y-100961352D01*
X117682957Y-100965171D01*
X117682958Y-100965172D01*
X117758740Y-101015807D01*
X117848130Y-101033588D01*
X117937520Y-101015807D01*
X117971245Y-100993272D01*
X118045453Y-100968082D01*
X118122318Y-100983371D01*
X118139464Y-100993270D01*
X118210610Y-101040807D01*
X118300000Y-101058588D01*
X118389390Y-101040807D01*
X118465172Y-100990172D01*
X118515807Y-100914390D01*
X118533588Y-100825000D01*
X118515807Y-100735610D01*
X118465172Y-100659828D01*
X118389390Y-100609193D01*
X118389387Y-100609192D01*
X118300000Y-100591412D01*
X118210610Y-100609192D01*
X118176884Y-100631727D01*
X118102672Y-100656917D01*
X118025808Y-100641626D01*
X118008662Y-100631727D01*
X117937519Y-100584192D01*
X117848130Y-100566412D01*
X117758742Y-100584192D01*
X117758740Y-100584192D01*
X117758740Y-100584193D01*
X117682958Y-100634828D01*
X117682957Y-100634828D01*
X117670559Y-100643113D01*
X117668071Y-100639390D01*
X117624567Y-100664478D01*
X117546197Y-100664438D01*
X117501345Y-100644103D01*
X117419845Y-100589648D01*
X117330456Y-100571868D01*
X117241068Y-100589648D01*
X117241066Y-100589648D01*
X117241066Y-100589649D01*
X117165284Y-100640284D01*
X117114649Y-100716066D01*
X117114648Y-100716067D01*
X117106366Y-100728464D01*
X117102682Y-100726002D01*
X117071982Y-100765972D01*
X117024410Y-100785649D01*
X116921657Y-100785649D01*
X116921785Y-100785596D01*
X116859715Y-100737921D01*
X116837969Y-100689895D01*
X116837299Y-100690173D01*
X116831593Y-100676398D01*
X116831591Y-100676395D01*
X116831591Y-100676394D01*
X116780956Y-100600612D01*
X116705174Y-100549977D01*
X116705171Y-100549976D01*
X116615784Y-100532196D01*
X116526396Y-100549976D01*
X116526394Y-100549976D01*
X116526394Y-100549977D01*
X116450612Y-100600612D01*
X116424105Y-100640284D01*
X116399976Y-100676396D01*
X116387738Y-100737921D01*
X116382196Y-100765784D01*
X112556815Y-100765784D01*
X112591314Y-100706030D01*
X112610010Y-100600000D01*
X112591314Y-100493970D01*
X112537481Y-100400729D01*
X112455005Y-100331523D01*
X112368395Y-100300000D01*
X120039990Y-100300000D01*
X120058685Y-100406028D01*
X120058685Y-100406029D01*
X120058686Y-100406030D01*
X120112519Y-100499271D01*
X120194995Y-100568477D01*
X120296167Y-100605300D01*
X120296169Y-100605300D01*
X120403831Y-100605300D01*
X120403833Y-100605300D01*
X120505005Y-100568477D01*
X120587481Y-100499271D01*
X120641314Y-100406030D01*
X120660010Y-100300000D01*
X120659075Y-100294700D01*
X120641314Y-100193971D01*
X120641314Y-100193970D01*
X120587481Y-100100729D01*
X120505005Y-100031523D01*
X120403833Y-99994700D01*
X120296167Y-99994700D01*
X120194995Y-100031523D01*
X120194994Y-100031523D01*
X120194993Y-100031524D01*
X120112520Y-100100727D01*
X120058685Y-100193971D01*
X120039990Y-100299999D01*
X120039990Y-100300000D01*
X112368395Y-100300000D01*
X112353833Y-100294700D01*
X112246167Y-100294700D01*
X112144995Y-100331523D01*
X112144994Y-100331523D01*
X112144993Y-100331524D01*
X112062520Y-100400727D01*
X112008685Y-100493971D01*
X111989990Y-100599999D01*
X111989990Y-100600000D01*
X101602790Y-100600000D01*
X101604557Y-99227240D01*
X108989990Y-99227240D01*
X109008685Y-99333268D01*
X109008685Y-99333269D01*
X109008686Y-99333270D01*
X109062519Y-99426511D01*
X109144995Y-99495717D01*
X109246167Y-99532540D01*
X109246169Y-99532540D01*
X109353831Y-99532540D01*
X109353833Y-99532540D01*
X109455005Y-99495717D01*
X109537481Y-99426511D01*
X109591314Y-99333270D01*
X109599388Y-99287476D01*
X109632507Y-99216450D01*
X109696700Y-99171499D01*
X109705005Y-99168477D01*
X109770421Y-99113586D01*
X119276404Y-99113586D01*
X119295099Y-99219614D01*
X119295099Y-99219615D01*
X119295100Y-99219616D01*
X119348933Y-99312857D01*
X119431409Y-99382063D01*
X119532581Y-99418886D01*
X119532583Y-99418886D01*
X119640247Y-99418886D01*
X119701253Y-99396681D01*
X119779324Y-99389851D01*
X119832035Y-99414429D01*
X119833523Y-99411853D01*
X119844991Y-99418474D01*
X119844995Y-99418477D01*
X119946167Y-99455300D01*
X119946169Y-99455300D01*
X120053831Y-99455300D01*
X120053833Y-99455300D01*
X120155005Y-99418477D01*
X120237481Y-99349271D01*
X120291314Y-99256030D01*
X120310010Y-99150000D01*
X120291314Y-99043970D01*
X120237481Y-98950729D01*
X120155005Y-98881523D01*
X120053833Y-98844700D01*
X119946167Y-98844700D01*
X119946165Y-98844700D01*
X119885159Y-98866904D01*
X119807087Y-98873734D01*
X119754382Y-98849156D01*
X119752895Y-98851734D01*
X119741424Y-98845112D01*
X119741421Y-98845111D01*
X119741419Y-98845109D01*
X119640247Y-98808286D01*
X119532581Y-98808286D01*
X119431409Y-98845109D01*
X119431408Y-98845109D01*
X119431407Y-98845110D01*
X119348934Y-98914313D01*
X119295099Y-99007557D01*
X119276404Y-99113585D01*
X119276404Y-99113586D01*
X109770421Y-99113586D01*
X109787481Y-99099271D01*
X109841314Y-99006030D01*
X109860010Y-98900000D01*
X109859881Y-98899271D01*
X109843838Y-98808286D01*
X109841314Y-98793970D01*
X109787481Y-98700729D01*
X109786612Y-98700000D01*
X113714990Y-98700000D01*
X113733685Y-98806028D01*
X113733685Y-98806029D01*
X113733686Y-98806030D01*
X113777272Y-98881523D01*
X113787520Y-98899272D01*
X113788388Y-98900000D01*
X113869995Y-98968477D01*
X113971167Y-99005300D01*
X113971169Y-99005300D01*
X114078831Y-99005300D01*
X114078833Y-99005300D01*
X114180005Y-98968477D01*
X114262481Y-98899271D01*
X114316314Y-98806030D01*
X114335010Y-98700000D01*
X114316314Y-98593970D01*
X114262481Y-98500729D01*
X114180005Y-98431523D01*
X114078833Y-98394700D01*
X113971167Y-98394700D01*
X113869995Y-98431523D01*
X113869994Y-98431523D01*
X113869993Y-98431524D01*
X113787520Y-98500727D01*
X113733685Y-98593971D01*
X113714990Y-98699999D01*
X113714990Y-98700000D01*
X109786612Y-98700000D01*
X109705006Y-98631524D01*
X109705005Y-98631523D01*
X109603833Y-98594700D01*
X109496167Y-98594700D01*
X109394995Y-98631523D01*
X109394994Y-98631523D01*
X109394993Y-98631524D01*
X109312520Y-98700727D01*
X109258685Y-98793971D01*
X109250611Y-98839764D01*
X109217490Y-98910792D01*
X109153295Y-98955741D01*
X109144999Y-98958760D01*
X109144992Y-98958764D01*
X109062521Y-99027966D01*
X109062520Y-99027967D01*
X109008685Y-99121211D01*
X108989990Y-99227239D01*
X108989990Y-99227240D01*
X101604557Y-99227240D01*
X101605275Y-98669604D01*
X105035750Y-98669604D01*
X105051311Y-98747837D01*
X105053531Y-98758994D01*
X105104166Y-98834776D01*
X105179948Y-98885411D01*
X105205557Y-98890505D01*
X105275845Y-98925167D01*
X105319385Y-98990330D01*
X105324511Y-99009458D01*
X105334192Y-99058128D01*
X105334192Y-99058129D01*
X105334193Y-99058130D01*
X105384828Y-99133912D01*
X105460610Y-99184547D01*
X105550000Y-99202328D01*
X105639390Y-99184547D01*
X105715172Y-99133912D01*
X105765807Y-99058130D01*
X105783588Y-98968740D01*
X105765807Y-98879350D01*
X105715172Y-98803568D01*
X105639390Y-98752933D01*
X105639388Y-98752932D01*
X105639386Y-98752931D01*
X105613778Y-98747837D01*
X105543490Y-98713174D01*
X105499951Y-98648010D01*
X105494826Y-98628883D01*
X105485145Y-98580216D01*
X105485145Y-98580214D01*
X105434510Y-98504432D01*
X105358728Y-98453797D01*
X105358725Y-98453796D01*
X105269338Y-98436016D01*
X105179950Y-98453796D01*
X105179948Y-98453796D01*
X105179948Y-98453797D01*
X105109711Y-98500727D01*
X105104166Y-98504432D01*
X105053530Y-98580216D01*
X105035750Y-98669604D01*
X101605275Y-98669604D01*
X101606330Y-97850000D01*
X106306412Y-97850000D01*
X106324193Y-97939390D01*
X106374828Y-98015172D01*
X106450610Y-98065807D01*
X106540000Y-98083588D01*
X106629390Y-98065807D01*
X106638081Y-98060000D01*
X112462742Y-98060000D01*
X112482822Y-98173878D01*
X112509652Y-98220351D01*
X112540637Y-98274019D01*
X112540638Y-98274020D01*
X112540639Y-98274021D01*
X112629221Y-98348350D01*
X112629222Y-98348350D01*
X112629223Y-98348351D01*
X112737882Y-98387900D01*
X112853517Y-98387900D01*
X112853518Y-98387900D01*
X112962179Y-98348350D01*
X113050761Y-98274021D01*
X113108578Y-98173878D01*
X113114758Y-98138830D01*
X115669712Y-98138830D01*
X115676683Y-98173878D01*
X115687493Y-98228220D01*
X115738128Y-98304002D01*
X115813910Y-98354637D01*
X115903300Y-98372418D01*
X115992690Y-98354637D01*
X116068472Y-98304002D01*
X116119107Y-98228220D01*
X116136888Y-98138830D01*
X116119107Y-98049440D01*
X116068472Y-97973658D01*
X115992690Y-97923023D01*
X115992687Y-97923022D01*
X115903300Y-97905242D01*
X115813912Y-97923022D01*
X115813910Y-97923022D01*
X115813910Y-97923023D01*
X115738128Y-97973658D01*
X115710391Y-98015171D01*
X115687492Y-98049442D01*
X115669712Y-98138830D01*
X113114758Y-98138830D01*
X113128658Y-98060000D01*
X113108578Y-97946122D01*
X113050761Y-97845979D01*
X112962179Y-97771650D01*
X112962177Y-97771649D01*
X112962176Y-97771648D01*
X112853519Y-97732100D01*
X112853518Y-97732100D01*
X112737882Y-97732100D01*
X112737881Y-97732100D01*
X112629223Y-97771648D01*
X112540637Y-97845980D01*
X112482821Y-97946124D01*
X112470646Y-98015172D01*
X112462742Y-98060000D01*
X106638081Y-98060000D01*
X106705172Y-98015172D01*
X106755807Y-97939390D01*
X106773588Y-97850000D01*
X106755807Y-97760610D01*
X106705172Y-97684828D01*
X106629390Y-97634193D01*
X106629387Y-97634192D01*
X106540000Y-97616412D01*
X106450612Y-97634192D01*
X106450610Y-97634192D01*
X106450610Y-97634193D01*
X106374828Y-97684828D01*
X106343243Y-97732100D01*
X106324192Y-97760612D01*
X106307212Y-97845979D01*
X106306412Y-97850000D01*
X101606330Y-97850000D01*
X101607695Y-96790000D01*
X103377042Y-96790000D01*
X103397122Y-96903878D01*
X103433775Y-96967363D01*
X103454938Y-97004020D01*
X103470493Y-97017072D01*
X103515445Y-97081268D01*
X103522276Y-97159341D01*
X103499062Y-97217163D01*
X103464192Y-97269350D01*
X103446412Y-97358740D01*
X103464193Y-97448130D01*
X103514828Y-97523912D01*
X103590610Y-97574547D01*
X103680000Y-97592328D01*
X103769390Y-97574547D01*
X103845172Y-97523912D01*
X103895807Y-97448130D01*
X103913588Y-97358740D01*
X103895807Y-97269350D01*
X103882492Y-97249422D01*
X103857302Y-97175210D01*
X103872593Y-97098346D01*
X103911058Y-97049334D01*
X103965061Y-97004021D01*
X104022878Y-96903878D01*
X104042958Y-96790000D01*
X104022878Y-96676122D01*
X103965061Y-96575979D01*
X103876479Y-96501650D01*
X103876477Y-96501649D01*
X103876476Y-96501648D01*
X103767819Y-96462100D01*
X103767818Y-96462100D01*
X103652182Y-96462100D01*
X103652181Y-96462100D01*
X103543523Y-96501648D01*
X103454937Y-96575980D01*
X103397121Y-96676124D01*
X103377042Y-96790000D01*
X101607695Y-96790000D01*
X101608211Y-96389475D01*
X114537762Y-96389475D01*
X114557541Y-96501650D01*
X114557842Y-96503353D01*
X114584672Y-96549826D01*
X114615657Y-96603494D01*
X114615658Y-96603495D01*
X114615659Y-96603496D01*
X114704241Y-96677825D01*
X114704242Y-96677825D01*
X114704243Y-96677826D01*
X114812902Y-96717375D01*
X114928537Y-96717375D01*
X114928538Y-96717375D01*
X115037199Y-96677825D01*
X115125781Y-96603496D01*
X115183598Y-96503353D01*
X115203678Y-96389475D01*
X115183598Y-96275597D01*
X115125781Y-96175454D01*
X115037199Y-96101125D01*
X115037197Y-96101124D01*
X115037196Y-96101123D01*
X114928539Y-96061575D01*
X114928538Y-96061575D01*
X114812902Y-96061575D01*
X114812901Y-96061575D01*
X114704243Y-96101123D01*
X114615657Y-96175455D01*
X114557841Y-96275599D01*
X114537762Y-96389475D01*
X101608211Y-96389475D01*
X101608868Y-95878740D01*
X113646412Y-95878740D01*
X113664193Y-95968130D01*
X113714828Y-96043912D01*
X113790610Y-96094547D01*
X113880000Y-96112328D01*
X113969390Y-96094547D01*
X114045172Y-96043912D01*
X114095807Y-95968130D01*
X114113588Y-95878740D01*
X114095807Y-95789350D01*
X114045172Y-95713568D01*
X113969390Y-95662933D01*
X113969387Y-95662932D01*
X113880000Y-95645152D01*
X113790612Y-95662932D01*
X113790610Y-95662932D01*
X113790610Y-95662933D01*
X113714828Y-95713568D01*
X113664192Y-95789352D01*
X113646412Y-95878740D01*
X101608868Y-95878740D01*
X101610000Y-95000000D01*
X113542042Y-95000000D01*
X113553076Y-95062580D01*
X113562122Y-95113878D01*
X113572005Y-95130996D01*
X113619937Y-95214019D01*
X113619938Y-95214020D01*
X113619939Y-95214021D01*
X113708521Y-95288350D01*
X113708522Y-95288350D01*
X113708523Y-95288351D01*
X113817182Y-95327900D01*
X113932817Y-95327900D01*
X113932818Y-95327900D01*
X114041479Y-95288350D01*
X114130061Y-95214021D01*
X114187878Y-95113878D01*
X114196464Y-95065183D01*
X114229584Y-94994156D01*
X114293782Y-94949205D01*
X114371854Y-94942374D01*
X114375101Y-94942983D01*
X114382252Y-94944405D01*
X114382253Y-94944406D01*
X114471643Y-94962187D01*
X114561033Y-94944406D01*
X114636815Y-94893771D01*
X114672487Y-94840383D01*
X114969204Y-94840383D01*
X114976586Y-94858203D01*
X114975792Y-94882496D01*
X114976980Y-94882496D01*
X114976980Y-94897407D01*
X114989865Y-94962187D01*
X114994761Y-94986798D01*
X115045396Y-95062580D01*
X115121178Y-95113215D01*
X115210568Y-95130996D01*
X115299958Y-95113215D01*
X115375740Y-95062580D01*
X115388455Y-95043550D01*
X123565612Y-95043550D01*
X123578012Y-95113876D01*
X123585692Y-95157428D01*
X123612522Y-95203901D01*
X123643507Y-95257569D01*
X123643508Y-95257570D01*
X123643509Y-95257571D01*
X123732091Y-95331900D01*
X123732092Y-95331900D01*
X123732093Y-95331901D01*
X123840752Y-95371450D01*
X123956387Y-95371450D01*
X123956388Y-95371450D01*
X124065049Y-95331900D01*
X124153631Y-95257571D01*
X124211448Y-95157428D01*
X124231528Y-95043550D01*
X124211448Y-94929672D01*
X124193547Y-94898667D01*
X124173264Y-94822969D01*
X124193548Y-94747269D01*
X124248964Y-94691853D01*
X124324664Y-94671569D01*
X124354200Y-94674478D01*
X124399999Y-94683588D01*
X124400000Y-94683588D01*
X124489390Y-94665807D01*
X124565172Y-94615172D01*
X124615807Y-94539390D01*
X124633588Y-94450000D01*
X124615807Y-94360610D01*
X124565172Y-94284828D01*
X124489390Y-94234193D01*
X124489387Y-94234192D01*
X124400000Y-94216412D01*
X124310612Y-94234192D01*
X124310610Y-94234192D01*
X124310610Y-94234193D01*
X124272949Y-94259357D01*
X124234828Y-94284828D01*
X124184192Y-94360612D01*
X124166412Y-94450000D01*
X124187102Y-94554015D01*
X124182642Y-94554901D01*
X124189162Y-94604358D01*
X124159183Y-94676768D01*
X124097015Y-94724487D01*
X124019317Y-94734729D01*
X123987273Y-94726891D01*
X123956388Y-94715650D01*
X123840752Y-94715650D01*
X123840751Y-94715650D01*
X123732093Y-94755198D01*
X123643507Y-94829530D01*
X123585691Y-94929674D01*
X123565612Y-95043550D01*
X115388455Y-95043550D01*
X115426375Y-94986798D01*
X115444156Y-94897408D01*
X115426375Y-94808018D01*
X115375740Y-94732236D01*
X115299958Y-94681601D01*
X115299955Y-94681600D01*
X115210568Y-94663820D01*
X115121180Y-94681600D01*
X115121178Y-94681600D01*
X115121178Y-94681601D01*
X115045396Y-94732236D01*
X114994761Y-94808018D01*
X114994760Y-94808019D01*
X114986478Y-94820416D01*
X114985189Y-94819555D01*
X114969204Y-94840383D01*
X114672487Y-94840383D01*
X114687450Y-94817989D01*
X114687450Y-94817986D01*
X114695733Y-94805591D01*
X114697021Y-94806451D01*
X114713006Y-94785620D01*
X114705622Y-94767788D01*
X114706421Y-94743511D01*
X114705231Y-94743511D01*
X114705231Y-94728599D01*
X114697922Y-94691853D01*
X114687450Y-94639209D01*
X114685499Y-94636290D01*
X114682132Y-94626371D01*
X114681745Y-94625436D01*
X114681806Y-94625410D01*
X114660308Y-94562083D01*
X114675596Y-94485219D01*
X114714066Y-94436199D01*
X114726077Y-94426121D01*
X114779910Y-94332880D01*
X114786228Y-94297045D01*
X114819347Y-94226018D01*
X114883543Y-94181066D01*
X114961615Y-94174234D01*
X115021332Y-94202078D01*
X115022429Y-94200437D01*
X115034827Y-94208721D01*
X115034828Y-94208722D01*
X115110610Y-94259357D01*
X115200000Y-94277138D01*
X115289390Y-94259357D01*
X115365172Y-94208722D01*
X115415807Y-94132940D01*
X115433588Y-94043550D01*
X115415807Y-93954160D01*
X115365172Y-93878378D01*
X115360784Y-93875446D01*
X115309110Y-93816525D01*
X115293819Y-93739660D01*
X115319009Y-93665449D01*
X115337843Y-93642500D01*
X115340165Y-93640176D01*
X115340172Y-93640172D01*
X115390807Y-93564390D01*
X115408588Y-93475000D01*
X115390807Y-93385610D01*
X115348907Y-93322902D01*
X115323718Y-93248691D01*
X115339008Y-93171827D01*
X115348903Y-93154688D01*
X115365807Y-93129390D01*
X115383588Y-93040000D01*
X115365807Y-92950610D01*
X115337694Y-92908535D01*
X115312504Y-92834326D01*
X115327794Y-92757462D01*
X115356527Y-92717366D01*
X115365165Y-92708726D01*
X115365172Y-92708722D01*
X115415807Y-92632940D01*
X115433588Y-92543550D01*
X115415807Y-92454160D01*
X115365172Y-92378378D01*
X115365171Y-92378377D01*
X115356887Y-92365979D01*
X115359987Y-92363907D01*
X115333487Y-92318007D01*
X115333487Y-92239637D01*
X115353841Y-92194714D01*
X115390807Y-92139390D01*
X115408588Y-92050000D01*
X115390807Y-91960610D01*
X115340172Y-91884828D01*
X115264390Y-91834193D01*
X115264387Y-91834192D01*
X115175000Y-91816412D01*
X115085612Y-91834192D01*
X115085610Y-91834192D01*
X115085610Y-91834193D01*
X115009828Y-91884828D01*
X114963502Y-91954162D01*
X114959192Y-91960612D01*
X114941412Y-92050000D01*
X114957909Y-92132939D01*
X114959193Y-92139390D01*
X115009828Y-92215172D01*
X115018113Y-92227571D01*
X115015012Y-92229642D01*
X115041512Y-92275542D01*
X115041512Y-92353912D01*
X115021157Y-92398839D01*
X114984192Y-92454161D01*
X114966412Y-92543550D01*
X114966412Y-92543552D01*
X114973775Y-92580570D01*
X114968649Y-92658772D01*
X114925108Y-92723934D01*
X114854819Y-92758596D01*
X114795748Y-92758596D01*
X114751105Y-92749716D01*
X114751104Y-92749716D01*
X114661716Y-92767496D01*
X114661714Y-92767496D01*
X114661714Y-92767497D01*
X114585932Y-92818132D01*
X114535296Y-92893916D01*
X114517516Y-92983304D01*
X114528793Y-93040000D01*
X114535297Y-93072694D01*
X114585932Y-93148476D01*
X114661714Y-93199111D01*
X114751104Y-93216892D01*
X114751105Y-93216892D01*
X114780473Y-93211050D01*
X114858676Y-93216174D01*
X114923839Y-93259713D01*
X114958502Y-93330001D01*
X114958503Y-93389076D01*
X114955063Y-93406371D01*
X114941412Y-93475000D01*
X114959193Y-93564390D01*
X115009828Y-93640172D01*
X115014215Y-93643103D01*
X115065889Y-93702022D01*
X115081180Y-93778887D01*
X115055991Y-93853099D01*
X115037164Y-93876041D01*
X115034831Y-93878374D01*
X114984190Y-93954164D01*
X114978485Y-93967939D01*
X114977199Y-93967406D01*
X114949840Y-94022885D01*
X114884677Y-94066424D01*
X114806474Y-94071548D01*
X114736186Y-94036885D01*
X114731679Y-94032280D01*
X114726074Y-94027577D01*
X114643601Y-93958373D01*
X114542429Y-93921550D01*
X114434763Y-93921550D01*
X114333591Y-93958373D01*
X114333590Y-93958373D01*
X114333589Y-93958374D01*
X114251116Y-94027577D01*
X114197281Y-94120821D01*
X114178586Y-94226849D01*
X114178586Y-94226850D01*
X114197281Y-94332878D01*
X114251116Y-94426122D01*
X114259631Y-94436270D01*
X114256223Y-94439129D01*
X114286375Y-94482234D01*
X114293168Y-94560309D01*
X114269968Y-94618058D01*
X114247554Y-94651605D01*
X114246469Y-94650880D01*
X114208604Y-94700225D01*
X114136198Y-94730213D01*
X114058499Y-94719981D01*
X114041958Y-94711824D01*
X113932819Y-94672100D01*
X113932818Y-94672100D01*
X113817182Y-94672100D01*
X113817181Y-94672100D01*
X113708523Y-94711648D01*
X113619937Y-94785980D01*
X113588529Y-94840383D01*
X113564216Y-94882496D01*
X113562121Y-94886124D01*
X113542042Y-95000000D01*
X101610000Y-95000000D01*
X101612519Y-93043550D01*
X104764982Y-93043550D01*
X104782762Y-93132939D01*
X104818218Y-93186004D01*
X104843408Y-93260216D01*
X104828117Y-93337080D01*
X104818218Y-93354226D01*
X104783377Y-93406370D01*
X104765597Y-93495760D01*
X104783377Y-93585148D01*
X104783377Y-93585149D01*
X104783378Y-93585150D01*
X104822100Y-93643102D01*
X104836315Y-93664377D01*
X104861505Y-93738589D01*
X104846215Y-93815453D01*
X104836315Y-93832599D01*
X104784193Y-93910608D01*
X104784193Y-93910609D01*
X104766412Y-94000000D01*
X104779624Y-94066424D01*
X104784193Y-94089390D01*
X104834828Y-94165172D01*
X104910610Y-94215807D01*
X105000000Y-94233588D01*
X105089390Y-94215807D01*
X105165172Y-94165172D01*
X105215807Y-94089390D01*
X105233588Y-94000000D01*
X105215807Y-93910610D01*
X105215807Y-93910609D01*
X105162870Y-93831382D01*
X105137679Y-93757170D01*
X105152969Y-93680306D01*
X105162870Y-93663158D01*
X105214992Y-93585150D01*
X105219122Y-93564387D01*
X105232773Y-93495760D01*
X105214992Y-93406370D01*
X105179535Y-93353304D01*
X105154346Y-93279094D01*
X105169636Y-93202230D01*
X105179529Y-93185093D01*
X105214377Y-93132940D01*
X105232158Y-93043550D01*
X105214377Y-92954160D01*
X105214377Y-92954159D01*
X105163264Y-92877662D01*
X105138073Y-92803450D01*
X105153363Y-92726586D01*
X105163264Y-92709438D01*
X105214377Y-92632940D01*
X105224794Y-92580570D01*
X105232158Y-92543550D01*
X105217326Y-92468990D01*
X105214377Y-92454159D01*
X105163264Y-92377662D01*
X105138073Y-92303450D01*
X105153363Y-92226586D01*
X105163264Y-92209438D01*
X105214377Y-92132940D01*
X105214377Y-92132939D01*
X105232158Y-92043550D01*
X105214377Y-91954160D01*
X105163742Y-91878378D01*
X105087960Y-91827743D01*
X105087957Y-91827742D01*
X104998570Y-91809962D01*
X104909182Y-91827742D01*
X104909180Y-91827742D01*
X104909180Y-91827743D01*
X104899527Y-91834193D01*
X104833398Y-91878378D01*
X104782762Y-91954162D01*
X104764982Y-92043550D01*
X104782762Y-92132939D01*
X104833876Y-92209439D01*
X104859066Y-92283651D01*
X104843775Y-92360515D01*
X104833876Y-92377661D01*
X104782762Y-92454160D01*
X104764982Y-92543550D01*
X104782762Y-92632939D01*
X104833876Y-92709439D01*
X104859066Y-92783651D01*
X104843775Y-92860515D01*
X104833876Y-92877661D01*
X104782762Y-92954160D01*
X104764982Y-93043550D01*
X101612519Y-93043550D01*
X101614109Y-91808917D01*
X125207495Y-91808917D01*
X125222594Y-91884828D01*
X125225276Y-91898307D01*
X125275911Y-91974089D01*
X125351693Y-92024724D01*
X125441083Y-92042505D01*
X125530473Y-92024724D01*
X125606255Y-91974089D01*
X125656890Y-91898307D01*
X125674671Y-91808917D01*
X125656890Y-91719527D01*
X125606255Y-91643745D01*
X125530473Y-91593110D01*
X125530470Y-91593109D01*
X125441083Y-91575329D01*
X125351695Y-91593109D01*
X125351693Y-91593109D01*
X125351693Y-91593110D01*
X125275911Y-91643745D01*
X125232223Y-91709131D01*
X125225275Y-91719529D01*
X125207495Y-91808917D01*
X101614109Y-91808917D01*
X101614450Y-91543960D01*
X123797000Y-91543960D01*
X123806776Y-91593110D01*
X123814781Y-91633350D01*
X123865416Y-91709132D01*
X123941198Y-91759767D01*
X124030588Y-91777548D01*
X124119978Y-91759767D01*
X124195760Y-91709132D01*
X124246395Y-91633350D01*
X124264176Y-91543960D01*
X124246395Y-91454570D01*
X124195760Y-91378788D01*
X124119978Y-91328153D01*
X124119975Y-91328152D01*
X124030588Y-91310372D01*
X123941200Y-91328152D01*
X123941198Y-91328152D01*
X123941198Y-91328153D01*
X123865416Y-91378788D01*
X123814780Y-91454572D01*
X123797000Y-91543960D01*
X101614450Y-91543960D01*
X101615614Y-90639586D01*
X101635995Y-90563915D01*
X101664318Y-90535664D01*
X101661563Y-90532909D01*
X102130000Y-90064472D01*
X102130000Y-90079728D01*
X102168060Y-90171614D01*
X102238386Y-90241940D01*
X102330272Y-90280000D01*
X102345526Y-90280000D01*
X101928645Y-90696879D01*
X102028603Y-90759687D01*
X102028605Y-90759688D01*
X102199780Y-90819585D01*
X102199783Y-90819586D01*
X102380000Y-90839892D01*
X102560216Y-90819586D01*
X102560219Y-90819585D01*
X102731394Y-90759688D01*
X102731399Y-90759686D01*
X102831353Y-90696879D01*
X102414474Y-90280000D01*
X102429728Y-90280000D01*
X102521614Y-90241940D01*
X102591940Y-90171614D01*
X102630000Y-90079728D01*
X102630000Y-90064474D01*
X103046879Y-90481353D01*
X103109686Y-90381399D01*
X103109688Y-90381394D01*
X103169585Y-90210219D01*
X103169586Y-90210216D01*
X103189892Y-90030000D01*
X103189892Y-90029999D01*
X103169586Y-89849783D01*
X103169585Y-89849780D01*
X103109688Y-89678605D01*
X103109687Y-89678603D01*
X103046879Y-89578645D01*
X102630000Y-89995524D01*
X102630000Y-89980272D01*
X102591940Y-89888386D01*
X102521614Y-89818060D01*
X102429728Y-89780000D01*
X102414472Y-89780000D01*
X102750921Y-89443550D01*
X106714982Y-89443550D01*
X106732763Y-89532940D01*
X106783398Y-89608722D01*
X106859180Y-89659357D01*
X106948570Y-89677138D01*
X107037960Y-89659357D01*
X107104276Y-89615047D01*
X107114458Y-89608244D01*
X107188670Y-89583053D01*
X107265534Y-89598343D01*
X107282682Y-89608244D01*
X107359179Y-89659357D01*
X107374010Y-89662306D01*
X107448570Y-89677138D01*
X107537960Y-89659357D01*
X107604276Y-89615047D01*
X107614458Y-89608244D01*
X107688670Y-89583053D01*
X107765534Y-89598343D01*
X107782682Y-89608244D01*
X107859179Y-89659357D01*
X107874010Y-89662306D01*
X107948570Y-89677138D01*
X108037960Y-89659357D01*
X108104276Y-89615047D01*
X108114458Y-89608244D01*
X108188670Y-89583053D01*
X108265534Y-89598343D01*
X108282682Y-89608244D01*
X108359179Y-89659357D01*
X108374010Y-89662306D01*
X108448570Y-89677138D01*
X108537960Y-89659357D01*
X108604276Y-89615047D01*
X108614458Y-89608244D01*
X108688670Y-89583053D01*
X108765534Y-89598343D01*
X108782682Y-89608244D01*
X108859179Y-89659357D01*
X108874010Y-89662306D01*
X108948570Y-89677138D01*
X109037960Y-89659357D01*
X109104276Y-89615047D01*
X109114458Y-89608244D01*
X109188670Y-89583053D01*
X109265534Y-89598343D01*
X109282682Y-89608244D01*
X109359179Y-89659357D01*
X109374010Y-89662306D01*
X109448570Y-89677138D01*
X109537960Y-89659357D01*
X109604276Y-89615047D01*
X109614458Y-89608244D01*
X109688670Y-89583053D01*
X109765534Y-89598343D01*
X109782682Y-89608244D01*
X109859179Y-89659357D01*
X109874010Y-89662306D01*
X109948570Y-89677138D01*
X110037960Y-89659357D01*
X110089458Y-89624948D01*
X110163670Y-89599757D01*
X110240534Y-89615047D01*
X110257682Y-89624948D01*
X110309179Y-89659357D01*
X110324010Y-89662306D01*
X110398570Y-89677138D01*
X110487960Y-89659357D01*
X110563742Y-89608722D01*
X110563744Y-89608718D01*
X110566514Y-89605950D01*
X110634385Y-89566765D01*
X110712755Y-89566765D01*
X110780626Y-89605950D01*
X110783396Y-89608720D01*
X110783397Y-89608720D01*
X110783398Y-89608722D01*
X110859180Y-89659357D01*
X110948570Y-89677138D01*
X111037960Y-89659357D01*
X111104276Y-89615047D01*
X111114458Y-89608244D01*
X111188670Y-89583053D01*
X111265534Y-89598343D01*
X111282682Y-89608244D01*
X111359179Y-89659357D01*
X111374010Y-89662306D01*
X111448570Y-89677138D01*
X111537960Y-89659357D01*
X111589458Y-89624948D01*
X111663670Y-89599757D01*
X111740534Y-89615047D01*
X111757682Y-89624948D01*
X111809179Y-89659357D01*
X111824010Y-89662306D01*
X111898570Y-89677138D01*
X111987960Y-89659357D01*
X112063742Y-89608722D01*
X112114377Y-89532940D01*
X112132158Y-89443550D01*
X112114377Y-89354160D01*
X112063742Y-89278378D01*
X111987960Y-89227743D01*
X111987957Y-89227742D01*
X111898570Y-89209962D01*
X111809180Y-89227742D01*
X111757681Y-89262152D01*
X111683469Y-89287342D01*
X111606605Y-89272051D01*
X111589459Y-89262152D01*
X111537959Y-89227742D01*
X111448570Y-89209962D01*
X111359180Y-89227742D01*
X111282681Y-89278856D01*
X111208469Y-89304046D01*
X111131605Y-89288755D01*
X111114459Y-89278856D01*
X111037959Y-89227742D01*
X110948570Y-89209962D01*
X110859182Y-89227742D01*
X110859180Y-89227742D01*
X110859180Y-89227743D01*
X110840218Y-89240413D01*
X110783396Y-89278379D01*
X110780626Y-89281150D01*
X110712755Y-89320335D01*
X110634385Y-89320335D01*
X110566514Y-89281150D01*
X110563743Y-89278379D01*
X110563742Y-89278378D01*
X110487960Y-89227743D01*
X110487957Y-89227742D01*
X110398570Y-89209962D01*
X110309180Y-89227742D01*
X110257681Y-89262152D01*
X110183469Y-89287342D01*
X110106605Y-89272051D01*
X110089459Y-89262152D01*
X110037959Y-89227742D01*
X109948570Y-89209962D01*
X109859180Y-89227742D01*
X109782681Y-89278856D01*
X109708469Y-89304046D01*
X109631605Y-89288755D01*
X109614459Y-89278856D01*
X109537959Y-89227742D01*
X109448570Y-89209962D01*
X109359180Y-89227742D01*
X109282681Y-89278856D01*
X109208469Y-89304046D01*
X109131605Y-89288755D01*
X109114459Y-89278856D01*
X109037959Y-89227742D01*
X108948570Y-89209962D01*
X108859180Y-89227742D01*
X108782681Y-89278856D01*
X108708469Y-89304046D01*
X108631605Y-89288755D01*
X108614459Y-89278856D01*
X108537959Y-89227742D01*
X108448570Y-89209962D01*
X108359180Y-89227742D01*
X108282681Y-89278856D01*
X108208469Y-89304046D01*
X108131605Y-89288755D01*
X108114459Y-89278856D01*
X108037959Y-89227742D01*
X107948570Y-89209962D01*
X107859180Y-89227742D01*
X107782681Y-89278856D01*
X107708469Y-89304046D01*
X107631605Y-89288755D01*
X107614459Y-89278856D01*
X107537959Y-89227742D01*
X107448570Y-89209962D01*
X107359180Y-89227742D01*
X107282681Y-89278856D01*
X107208469Y-89304046D01*
X107131605Y-89288755D01*
X107114459Y-89278856D01*
X107037959Y-89227742D01*
X106948570Y-89209962D01*
X106859182Y-89227742D01*
X106859180Y-89227742D01*
X106859180Y-89227743D01*
X106783398Y-89278378D01*
X106768743Y-89300312D01*
X106732762Y-89354162D01*
X106723570Y-89400375D01*
X106714982Y-89443550D01*
X102750921Y-89443550D01*
X102831353Y-89363118D01*
X102831354Y-89363118D01*
X102731399Y-89300312D01*
X102560219Y-89240414D01*
X102560216Y-89240413D01*
X102380000Y-89220108D01*
X102199783Y-89240413D01*
X102199780Y-89240414D01*
X102028603Y-89300311D01*
X102028597Y-89300314D01*
X101928645Y-89363118D01*
X101928645Y-89363119D01*
X102345526Y-89780000D01*
X102330272Y-89780000D01*
X102238386Y-89818060D01*
X102168060Y-89888386D01*
X102130000Y-89980272D01*
X102130000Y-89995526D01*
X101661563Y-89527089D01*
X101664814Y-89523837D01*
X101644412Y-89506657D01*
X101617737Y-89432966D01*
X101617185Y-89419866D01*
X101619971Y-87256008D01*
X101640351Y-87180338D01*
X101695839Y-87124993D01*
X101771565Y-87104807D01*
X101847239Y-87125188D01*
X101871760Y-87142877D01*
X101926387Y-87191272D01*
X102066778Y-87264956D01*
X102220724Y-87302900D01*
X102220727Y-87302900D01*
X102379273Y-87302900D01*
X102379276Y-87302900D01*
X102385780Y-87301297D01*
X117486594Y-87301297D01*
X117505289Y-87407325D01*
X117505289Y-87407326D01*
X117505290Y-87407327D01*
X117559123Y-87500568D01*
X117641599Y-87569774D01*
X117742771Y-87606597D01*
X117742773Y-87606597D01*
X117850435Y-87606597D01*
X117850437Y-87606597D01*
X117951609Y-87569774D01*
X118034085Y-87500568D01*
X118087918Y-87407327D01*
X118087918Y-87407324D01*
X118092093Y-87400094D01*
X118147509Y-87344678D01*
X118223209Y-87324394D01*
X118298909Y-87344678D01*
X118354325Y-87400093D01*
X118358502Y-87407327D01*
X118407951Y-87492975D01*
X118490427Y-87562181D01*
X118591599Y-87599004D01*
X118591601Y-87599004D01*
X118699263Y-87599004D01*
X118699265Y-87599004D01*
X118800437Y-87562181D01*
X118882913Y-87492975D01*
X118936746Y-87399734D01*
X118955442Y-87293704D01*
X118936746Y-87187674D01*
X118914995Y-87150000D01*
X121289990Y-87150000D01*
X121308685Y-87256028D01*
X121308685Y-87256029D01*
X121308686Y-87256030D01*
X121362519Y-87349271D01*
X121444995Y-87418477D01*
X121546167Y-87455300D01*
X121546169Y-87455300D01*
X121653831Y-87455300D01*
X121653833Y-87455300D01*
X121755005Y-87418477D01*
X121837481Y-87349271D01*
X121891314Y-87256030D01*
X121910010Y-87150000D01*
X121891314Y-87043970D01*
X121837481Y-86950729D01*
X121755005Y-86881523D01*
X121653833Y-86844700D01*
X121546167Y-86844700D01*
X121444995Y-86881523D01*
X121444994Y-86881523D01*
X121444993Y-86881524D01*
X121362520Y-86950727D01*
X121308685Y-87043971D01*
X121289990Y-87149999D01*
X121289990Y-87150000D01*
X118914995Y-87150000D01*
X118882913Y-87094433D01*
X118873020Y-87086132D01*
X118800438Y-87025228D01*
X118800437Y-87025227D01*
X118699265Y-86988404D01*
X118591599Y-86988404D01*
X118490427Y-87025227D01*
X118490426Y-87025227D01*
X118490425Y-87025228D01*
X118407952Y-87094431D01*
X118349942Y-87194907D01*
X118294525Y-87250323D01*
X118218825Y-87270606D01*
X118143125Y-87250322D01*
X118087710Y-87194907D01*
X118083534Y-87187674D01*
X118034085Y-87102026D01*
X118015143Y-87086132D01*
X117951610Y-87032821D01*
X117951609Y-87032820D01*
X117850437Y-86995997D01*
X117742771Y-86995997D01*
X117641599Y-87032820D01*
X117641598Y-87032820D01*
X117641597Y-87032821D01*
X117559124Y-87102024D01*
X117505289Y-87195268D01*
X117486594Y-87301296D01*
X117486594Y-87301297D01*
X102385780Y-87301297D01*
X102533222Y-87264956D01*
X102673613Y-87191272D01*
X102792292Y-87086132D01*
X102882360Y-86955646D01*
X102910471Y-86881524D01*
X102938582Y-86807403D01*
X102938584Y-86807395D01*
X102957695Y-86650001D01*
X102957695Y-86649998D01*
X102942998Y-86528960D01*
X104518300Y-86528960D01*
X104542376Y-86650001D01*
X104549109Y-86683847D01*
X104609543Y-86829747D01*
X104697279Y-86961054D01*
X104808946Y-87072721D01*
X104940253Y-87160457D01*
X105086153Y-87220891D01*
X105241039Y-87251700D01*
X105398961Y-87251700D01*
X105553847Y-87220891D01*
X105699747Y-87160457D01*
X105831054Y-87072721D01*
X105942721Y-86961054D01*
X106030457Y-86829747D01*
X106090891Y-86683847D01*
X106121700Y-86528961D01*
X106121700Y-86371039D01*
X106090891Y-86216153D01*
X106088400Y-86210140D01*
X117495190Y-86210140D01*
X117513885Y-86316168D01*
X117513885Y-86316169D01*
X117513886Y-86316170D01*
X117567719Y-86409411D01*
X117650195Y-86478617D01*
X117751367Y-86515440D01*
X117751369Y-86515440D01*
X117859031Y-86515440D01*
X117859033Y-86515440D01*
X117960205Y-86478617D01*
X118042681Y-86409411D01*
X118074411Y-86354452D01*
X118129827Y-86299037D01*
X118205527Y-86278753D01*
X118281227Y-86299037D01*
X118336642Y-86354451D01*
X118346219Y-86371039D01*
X118362520Y-86399272D01*
X118390011Y-86422339D01*
X118444995Y-86468477D01*
X118546167Y-86505300D01*
X118546169Y-86505300D01*
X118653831Y-86505300D01*
X118653833Y-86505300D01*
X118755005Y-86468477D01*
X118837481Y-86399271D01*
X118891314Y-86306030D01*
X118910010Y-86200000D01*
X118891314Y-86093970D01*
X118837481Y-86000729D01*
X118833156Y-85997100D01*
X118782497Y-85954591D01*
X118755005Y-85931523D01*
X118755003Y-85931522D01*
X118712216Y-85915949D01*
X118648019Y-85870997D01*
X118614899Y-85799969D01*
X118621730Y-85721897D01*
X118666682Y-85657700D01*
X118712210Y-85631414D01*
X118759156Y-85614328D01*
X118841632Y-85545122D01*
X118895465Y-85451881D01*
X118914161Y-85345851D01*
X118895465Y-85239821D01*
X118841632Y-85146580D01*
X118836681Y-85142426D01*
X118759157Y-85077375D01*
X118759156Y-85077374D01*
X118683945Y-85050000D01*
X121314990Y-85050000D01*
X121333685Y-85156028D01*
X121333685Y-85156029D01*
X121333686Y-85156030D01*
X121387519Y-85249271D01*
X121469995Y-85318477D01*
X121571167Y-85355300D01*
X121571169Y-85355300D01*
X121678831Y-85355300D01*
X121678833Y-85355300D01*
X121780005Y-85318477D01*
X121862481Y-85249271D01*
X121916314Y-85156030D01*
X121935010Y-85050000D01*
X121916314Y-84943970D01*
X121862481Y-84850729D01*
X121780005Y-84781523D01*
X121678833Y-84744700D01*
X121571167Y-84744700D01*
X121469995Y-84781523D01*
X121469994Y-84781523D01*
X121469993Y-84781524D01*
X121387520Y-84850727D01*
X121333685Y-84943971D01*
X121314990Y-85049999D01*
X121314990Y-85050000D01*
X118683945Y-85050000D01*
X118657984Y-85040551D01*
X118550318Y-85040551D01*
X118449146Y-85077374D01*
X118449145Y-85077374D01*
X118449144Y-85077375D01*
X118366671Y-85146578D01*
X118366669Y-85146580D01*
X118360703Y-85156915D01*
X118305286Y-85212330D01*
X118229586Y-85232613D01*
X118153886Y-85212328D01*
X118098474Y-85156916D01*
X118090110Y-85142429D01*
X118090107Y-85142426D01*
X118007635Y-85073224D01*
X118007634Y-85073223D01*
X117906462Y-85036400D01*
X117798796Y-85036400D01*
X117697624Y-85073223D01*
X117697623Y-85073223D01*
X117697622Y-85073224D01*
X117615149Y-85142427D01*
X117561314Y-85235671D01*
X117542619Y-85341699D01*
X117542619Y-85341700D01*
X117561314Y-85447728D01*
X117561314Y-85447729D01*
X117561315Y-85447730D01*
X117615148Y-85540971D01*
X117697624Y-85610177D01*
X117738404Y-85625019D01*
X117802600Y-85669969D01*
X117830706Y-85730240D01*
X117873888Y-85668572D01*
X117919420Y-85642283D01*
X118007634Y-85610177D01*
X118090110Y-85540971D01*
X118096075Y-85530638D01*
X118151486Y-85475224D01*
X118227185Y-85454937D01*
X118302886Y-85475218D01*
X118358304Y-85530632D01*
X118366670Y-85545122D01*
X118449146Y-85614328D01*
X118491933Y-85629901D01*
X118556130Y-85674852D01*
X118589251Y-85745879D01*
X118582421Y-85823951D01*
X118537469Y-85888149D01*
X118491933Y-85914439D01*
X118444998Y-85931521D01*
X118444993Y-85931524D01*
X118362520Y-86000727D01*
X118330787Y-86055689D01*
X118275369Y-86111104D01*
X118199669Y-86131386D01*
X118123969Y-86111101D01*
X118068556Y-86055686D01*
X118056638Y-86035044D01*
X118042681Y-86010869D01*
X118030594Y-86000727D01*
X117960206Y-85941664D01*
X117960205Y-85941663D01*
X117919421Y-85926819D01*
X117855227Y-85881869D01*
X117827121Y-85821596D01*
X117783941Y-85883266D01*
X117738405Y-85909557D01*
X117650196Y-85941662D01*
X117650193Y-85941664D01*
X117567720Y-86010867D01*
X117513885Y-86104111D01*
X117495190Y-86210139D01*
X117495190Y-86210140D01*
X106088400Y-86210140D01*
X106030457Y-86070253D01*
X105942721Y-85938946D01*
X105831054Y-85827279D01*
X105699747Y-85739543D01*
X105657146Y-85721897D01*
X105553848Y-85679109D01*
X105398961Y-85648300D01*
X105241039Y-85648300D01*
X105086151Y-85679109D01*
X104940252Y-85739543D01*
X104808944Y-85827280D01*
X104697280Y-85938944D01*
X104609543Y-86070252D01*
X104549109Y-86216151D01*
X104518300Y-86371039D01*
X104518300Y-86528960D01*
X102942998Y-86528960D01*
X102938584Y-86492604D01*
X102938582Y-86492596D01*
X102882362Y-86344358D01*
X102882359Y-86344353D01*
X102792292Y-86213868D01*
X102673613Y-86108728D01*
X102673611Y-86108727D01*
X102673610Y-86108726D01*
X102533223Y-86035044D01*
X102494735Y-86025558D01*
X102379276Y-85997100D01*
X102220724Y-85997100D01*
X102128356Y-86019866D01*
X102066776Y-86035044D01*
X101926387Y-86108727D01*
X101873328Y-86155733D01*
X101803215Y-86190748D01*
X101724988Y-86186015D01*
X101659607Y-86142802D01*
X101624592Y-86072689D01*
X101621533Y-86042219D01*
X101623885Y-84215224D01*
X118298846Y-84215224D01*
X118317541Y-84321252D01*
X118317541Y-84321253D01*
X118317542Y-84321254D01*
X118371375Y-84414495D01*
X118453851Y-84483701D01*
X118555023Y-84520524D01*
X118555025Y-84520524D01*
X118662687Y-84520524D01*
X118662689Y-84520524D01*
X118763861Y-84483701D01*
X118846337Y-84414495D01*
X118900170Y-84321254D01*
X118907628Y-84278960D01*
X123078300Y-84278960D01*
X123105259Y-84414495D01*
X123109109Y-84433847D01*
X123169543Y-84579747D01*
X123257279Y-84711054D01*
X123368946Y-84822721D01*
X123500253Y-84910457D01*
X123646153Y-84970891D01*
X123801039Y-85001700D01*
X123958961Y-85001700D01*
X124113847Y-84970891D01*
X124259747Y-84910457D01*
X124391054Y-84822721D01*
X124502721Y-84711054D01*
X124590457Y-84579747D01*
X124650891Y-84433847D01*
X124681700Y-84278961D01*
X124681700Y-84121039D01*
X124650891Y-83966153D01*
X124590457Y-83820253D01*
X124502721Y-83688946D01*
X124391054Y-83577279D01*
X124259747Y-83489543D01*
X124218322Y-83472384D01*
X124113848Y-83429109D01*
X123958961Y-83398300D01*
X123801039Y-83398300D01*
X123646151Y-83429109D01*
X123500252Y-83489543D01*
X123368944Y-83577280D01*
X123257280Y-83688944D01*
X123169543Y-83820252D01*
X123109109Y-83966151D01*
X123078300Y-84121039D01*
X123078300Y-84278960D01*
X118907628Y-84278960D01*
X118918866Y-84215224D01*
X118900170Y-84109194D01*
X118846337Y-84015953D01*
X118763861Y-83946747D01*
X118756313Y-83943999D01*
X118732856Y-83935462D01*
X118668659Y-83890510D01*
X118635539Y-83819482D01*
X118642370Y-83741410D01*
X118687322Y-83677213D01*
X118732854Y-83650925D01*
X118777069Y-83634833D01*
X118859545Y-83565627D01*
X118913378Y-83472386D01*
X118932074Y-83366356D01*
X118913378Y-83260326D01*
X118859545Y-83167085D01*
X118777069Y-83097879D01*
X118675897Y-83061056D01*
X118568231Y-83061056D01*
X118467059Y-83097879D01*
X118467058Y-83097879D01*
X118467057Y-83097880D01*
X118384584Y-83167083D01*
X118330749Y-83260327D01*
X118312054Y-83366355D01*
X118312054Y-83366356D01*
X118330749Y-83472384D01*
X118330749Y-83472385D01*
X118330750Y-83472386D01*
X118384583Y-83565627D01*
X118467059Y-83634833D01*
X118498062Y-83646117D01*
X118562259Y-83691068D01*
X118595380Y-83762095D01*
X118588550Y-83840167D01*
X118543598Y-83904365D01*
X118498063Y-83930655D01*
X118453853Y-83946746D01*
X118453849Y-83946748D01*
X118371376Y-84015951D01*
X118317541Y-84109195D01*
X118298846Y-84215223D01*
X118298846Y-84215224D01*
X101623885Y-84215224D01*
X101624954Y-83385150D01*
X101640530Y-83318463D01*
X102191331Y-82200000D01*
X118289990Y-82200000D01*
X118308685Y-82306028D01*
X118308685Y-82306029D01*
X118308686Y-82306030D01*
X118362519Y-82399271D01*
X118444995Y-82468477D01*
X118546167Y-82505300D01*
X118546169Y-82505300D01*
X118653831Y-82505300D01*
X118653833Y-82505300D01*
X118755005Y-82468477D01*
X118837481Y-82399271D01*
X118891314Y-82306030D01*
X118910010Y-82200000D01*
X118891314Y-82093970D01*
X118837481Y-82000729D01*
X118755005Y-81931523D01*
X118755003Y-81931522D01*
X118755001Y-81931521D01*
X118648560Y-81892780D01*
X118584363Y-81847829D01*
X118583457Y-81845887D01*
X118559475Y-81880139D01*
X118513940Y-81906429D01*
X118444996Y-81931522D01*
X118444993Y-81931524D01*
X118362520Y-82000727D01*
X118308685Y-82093971D01*
X118289990Y-82199999D01*
X118289990Y-82200000D01*
X102191331Y-82200000D01*
X102627322Y-81314672D01*
X118252490Y-81314672D01*
X118271185Y-81420700D01*
X118271185Y-81420701D01*
X118271186Y-81420702D01*
X118325019Y-81513943D01*
X118407495Y-81583149D01*
X118508667Y-81619972D01*
X118508668Y-81619972D01*
X118513938Y-81621890D01*
X118578136Y-81666842D01*
X118579041Y-81668783D01*
X118603024Y-81634532D01*
X118648558Y-81608243D01*
X118717505Y-81583149D01*
X118799981Y-81513943D01*
X118853814Y-81420702D01*
X118872510Y-81314672D01*
X118853814Y-81208642D01*
X118799981Y-81115401D01*
X118717505Y-81046195D01*
X118616333Y-81009372D01*
X118508667Y-81009372D01*
X118407495Y-81046195D01*
X118407494Y-81046195D01*
X118407493Y-81046196D01*
X118325020Y-81115399D01*
X118271185Y-81208643D01*
X118252490Y-81314671D01*
X118252490Y-81314672D01*
X102627322Y-81314672D01*
X103225502Y-80100000D01*
X118314990Y-80100000D01*
X118333685Y-80206028D01*
X118333685Y-80206029D01*
X118333686Y-80206030D01*
X118387519Y-80299271D01*
X118469995Y-80368477D01*
X118571167Y-80405300D01*
X118571169Y-80405300D01*
X118678831Y-80405300D01*
X118678833Y-80405300D01*
X118780005Y-80368477D01*
X118862481Y-80299271D01*
X118916314Y-80206030D01*
X118935010Y-80100000D01*
X118916314Y-79993970D01*
X118862481Y-79900729D01*
X118780005Y-79831523D01*
X118678833Y-79794700D01*
X118571167Y-79794700D01*
X118469995Y-79831523D01*
X118469994Y-79831523D01*
X118469993Y-79831524D01*
X118387520Y-79900727D01*
X118333685Y-79993971D01*
X118314990Y-80099999D01*
X118314990Y-80100000D01*
X103225502Y-80100000D01*
X104033436Y-78459399D01*
X104085075Y-78400451D01*
X104159273Y-78375219D01*
X104169062Y-78374889D01*
X125278368Y-78350113D01*
X125354091Y-78370308D01*
G37*
G04 #@! TD.AperFunction*
M02*
