M48
; DRILL file {KiCad 9.0.5} date 2025-10-24T14:38:56-0700
; FORMAT={-:-/ absolute / metric / decimal}
; #@! TF.CreationDate,2025-10-24T14:38:56-07:00
; #@! TF.GenerationSoftware,Kicad,Pcbnew,9.0.5
; #@! TF.FileFunction,Plated,1,3,Blind
FMAT,2
METRIC
; #@! TA.AperFunction,Plated,Buried,ViaDrill
T1C0.152
%
G90
G05
T1
X104.93Y-104.883
X106.55Y-115.998
X106.999Y-89.894
X107.499Y-89.894
X107.7Y-111.45
X107.999Y-89.894
X108.197Y-83.348
X108.2Y-80.1
X108.2Y-81.321
X108.2Y-82.2
X108.2Y-84.2
X108.2Y-85.359
X108.2Y-86.2
X108.2Y-87.298
X108.499Y-89.894
X108.957Y-87.311
X108.999Y-89.894
X109.0Y-80.1
X109.0Y-84.2
X109.007Y-85.349
X109.017Y-83.345
X109.017Y-86.218
X109.023Y-82.223
X109.027Y-81.326
X109.499Y-89.894
X109.999Y-89.894
X110.499Y-89.894
X110.999Y-89.894
X111.499Y-89.894
X111.999Y-89.894
X113.725Y-92.0
X113.725Y-92.5
X113.725Y-93.0
X113.75Y-93.45
X113.75Y-93.994
X116.77Y-100.249
X117.8Y-80.1
X117.813Y-82.21
X117.814Y-84.208
X117.831Y-83.311
X117.861Y-81.295
X118.009Y-111.331
X119.175Y-115.45
X121.677Y-113.977
X122.177Y-113.977
M30
