G04 #@! TF.GenerationSoftware,KiCad,Pcbnew,9.0.5*
G04 #@! TF.CreationDate,2025-10-28T18:45:17-07:00*
G04 #@! TF.ProjectId,iris-128b-adapter,69726973-2d31-4323-9862-2d6164617074,rev?*
G04 #@! TF.SameCoordinates,Original*
G04 #@! TF.FileFunction,Copper,L3,Inr*
G04 #@! TF.FilePolarity,Positive*
%FSLAX46Y46*%
G04 Gerber Fmt 4.6, Leading zero omitted, Abs format (unit mm)*
G04 Created by KiCad (PCBNEW 9.0.5) date 2025-10-28 18:45:17*
%MOMM*%
%LPD*%
G01*
G04 APERTURE LIST*
G04 #@! TA.AperFunction,ComponentPad*
%ADD10R,4.000000X2.000000*%
G04 #@! TD*
G04 #@! TA.AperFunction,ComponentPad*
%ADD11O,3.300000X2.000000*%
G04 #@! TD*
G04 #@! TA.AperFunction,ComponentPad*
%ADD12O,2.000000X3.500000*%
G04 #@! TD*
G04 #@! TA.AperFunction,ComponentPad*
%ADD13R,1.700000X1.700000*%
G04 #@! TD*
G04 #@! TA.AperFunction,ComponentPad*
%ADD14O,1.700000X1.700000*%
G04 #@! TD*
G04 #@! TA.AperFunction,ViaPad*
%ADD15C,0.450000*%
G04 #@! TD*
G04 #@! TA.AperFunction,ViaPad*
%ADD16C,0.500000*%
G04 #@! TD*
G04 #@! TA.AperFunction,ViaPad*
%ADD17C,0.600000*%
G04 #@! TD*
G04 #@! TA.AperFunction,Conductor*
%ADD18C,0.101600*%
G04 #@! TD*
G04 APERTURE END LIST*
D10*
X152650000Y-117950000D03*
D11*
X152650000Y-123950000D03*
D12*
X148150000Y-124950000D03*
X157150000Y-124950000D03*
D10*
X139400000Y-117950000D03*
D11*
X139400000Y-123950000D03*
D12*
X134900000Y-124950000D03*
X143900000Y-124950000D03*
D13*
X113950000Y-75605000D03*
D14*
X116490000Y-75605000D03*
X113950000Y-78145000D03*
X116490000Y-78145000D03*
X113950000Y-80685000D03*
X116490000Y-80685000D03*
X113950000Y-83225000D03*
X116490000Y-83225000D03*
X113950000Y-85765000D03*
X116490000Y-85765000D03*
X113950000Y-88305000D03*
X116490000Y-88305000D03*
X113950000Y-90845000D03*
X116490000Y-90845000D03*
X113950000Y-93385000D03*
X116490000Y-93385000D03*
X113950000Y-95925000D03*
X116490000Y-95925000D03*
X113950000Y-98465000D03*
X116490000Y-98465000D03*
X113950000Y-101005000D03*
X116490000Y-101005000D03*
X113950000Y-103545000D03*
X116490000Y-103545000D03*
X113950000Y-106085000D03*
X116490000Y-106085000D03*
X113950000Y-108625000D03*
X116490000Y-108625000D03*
X113950000Y-111165000D03*
X116490000Y-111165000D03*
X113950000Y-113705000D03*
X116490000Y-113705000D03*
X113950000Y-116245000D03*
X116490000Y-116245000D03*
X113950000Y-118785000D03*
X116490000Y-118785000D03*
X113950000Y-121325000D03*
X116490000Y-121325000D03*
X113950000Y-123865000D03*
X116490000Y-123865000D03*
D10*
X126300000Y-118000000D03*
D11*
X126300000Y-124000000D03*
D12*
X121800000Y-125000000D03*
X130800000Y-125000000D03*
D15*
X159107825Y-96517500D03*
X133950000Y-83600000D03*
X135050000Y-81100000D03*
X155857825Y-97067500D03*
X133650000Y-80350000D03*
X135050000Y-83550000D03*
X155982825Y-102667500D03*
X136850000Y-76250000D03*
D16*
X121000000Y-113375000D03*
X128700000Y-92300000D03*
X120850000Y-104000000D03*
D15*
X158457825Y-87217500D03*
D17*
X134575000Y-113525000D03*
X146750000Y-74600000D03*
D16*
X134750000Y-92300000D03*
X140350000Y-81850000D03*
X120125000Y-80925000D03*
X128225000Y-103975000D03*
D17*
X128325000Y-113450000D03*
X130500000Y-74550000D03*
D16*
X120825000Y-92225000D03*
D17*
X142425000Y-113350000D03*
D16*
X134125000Y-103875000D03*
D17*
X155975000Y-74625000D03*
D15*
X130400000Y-76300000D03*
X159257825Y-104642500D03*
X159132825Y-98417500D03*
X132500000Y-76250000D03*
X159199961Y-91552951D03*
X138500000Y-76150000D03*
X156507825Y-95267500D03*
X134100477Y-76226017D03*
X159207825Y-89683000D03*
X139575000Y-81000000D03*
X159207825Y-90953000D03*
X139039430Y-75715817D03*
X139949997Y-76200000D03*
X156507825Y-88417500D03*
X139050000Y-80350000D03*
X159200000Y-90318000D03*
X159357825Y-104017500D03*
X130025000Y-80325000D03*
X156557825Y-89683000D03*
X140550000Y-80300000D03*
X128700000Y-76300000D03*
X156007825Y-109542500D03*
X128000000Y-76300000D03*
X156457825Y-108917500D03*
X132050000Y-80250000D03*
X155982825Y-103992500D03*
X156032825Y-110842500D03*
X129050000Y-81025000D03*
X128950000Y-83500000D03*
X155957825Y-95842500D03*
X134700000Y-76250000D03*
X131600000Y-78750000D03*
X156457825Y-103367500D03*
X129600000Y-83500000D03*
X159232825Y-110242500D03*
X124550000Y-80400000D03*
X159232825Y-112067500D03*
X123550000Y-76250000D03*
X136050000Y-76250000D03*
X156457825Y-102092500D03*
X156507825Y-96517500D03*
X159107825Y-97167500D03*
X132953668Y-81016259D03*
X129800000Y-76250000D03*
X159282825Y-105242500D03*
X128550000Y-80250000D03*
X156482825Y-110192500D03*
X128300000Y-90400000D03*
X128300000Y-83500000D03*
X155607825Y-89017500D03*
X140550000Y-76200000D03*
X136050000Y-89300000D03*
X124150003Y-76250000D03*
X159257825Y-111467500D03*
X159132825Y-97792500D03*
X133175000Y-76250000D03*
X159232825Y-103392500D03*
X130875000Y-80900000D03*
X141175000Y-81000000D03*
X155707825Y-90267500D03*
X123900000Y-80400000D03*
X159257825Y-110867500D03*
X127050000Y-83500000D03*
D18*
X133950000Y-85300000D02*
X133950000Y-83600000D01*
X114952400Y-91847400D02*
X116397400Y-91847400D01*
X143288500Y-94638500D02*
X133950000Y-85300000D01*
X158745193Y-96517500D02*
X156866193Y-94638500D01*
X113950000Y-90845000D02*
X114952400Y-91847400D01*
X156866193Y-94638500D02*
X143288500Y-94638500D01*
X121617500Y-97067500D02*
X155857825Y-97067500D01*
X159107825Y-96517500D02*
X158745193Y-96517500D01*
X116397400Y-91847400D02*
X121617500Y-97067500D01*
X160040025Y-98222932D02*
X160040025Y-87390025D01*
X156596257Y-101666700D02*
X160040025Y-98222932D01*
X151482877Y-85668600D02*
X140907877Y-75093600D01*
X155982825Y-102667500D02*
X155982825Y-101965327D01*
X160040025Y-87390025D02*
X158318600Y-85668600D01*
X158318600Y-85668600D02*
X151482877Y-85668600D01*
X138006400Y-75093600D02*
X136850000Y-76250000D01*
X140907877Y-75093600D02*
X138006400Y-75093600D01*
X155982825Y-101965327D02*
X156281452Y-101666700D01*
X156281452Y-101666700D02*
X156596257Y-101666700D01*
X159334998Y-104642500D02*
X161259225Y-102718273D01*
X161259225Y-86885017D02*
X158817808Y-84443600D01*
X151982085Y-84443600D02*
X141412885Y-73874400D01*
X141412885Y-73874400D02*
X132825600Y-73874400D01*
X132825600Y-73874400D02*
X130400000Y-76300000D01*
X161259225Y-102718273D02*
X161259225Y-86885017D01*
X158817808Y-84443600D02*
X151982085Y-84443600D01*
X159257825Y-104642500D02*
X159334998Y-104642500D01*
X159368366Y-95888500D02*
X159736825Y-96256959D01*
X134639541Y-75300000D02*
X135329000Y-75989459D01*
X157026215Y-94223786D02*
X158690929Y-95888500D01*
X136875800Y-77889005D02*
X136875800Y-87651064D01*
X136875800Y-87651064D02*
X143448522Y-94223786D01*
X135329000Y-76342205D02*
X136875800Y-77889005D01*
X135329000Y-75989459D02*
X135329000Y-76342205D01*
X159736825Y-96256959D02*
X159736825Y-97813500D01*
X133450000Y-75300000D02*
X134639541Y-75300000D01*
X132500000Y-76250000D02*
X133450000Y-75300000D01*
X143448522Y-94223786D02*
X157026215Y-94223786D01*
X159736825Y-97813500D02*
X159132825Y-98417500D01*
X158690929Y-95888500D02*
X159368366Y-95888500D01*
X156983625Y-88258625D02*
X154800000Y-86075000D01*
X139400000Y-76150000D02*
X138500000Y-76150000D01*
X139450000Y-76100000D02*
X139400000Y-76150000D01*
X154800000Y-86075000D02*
X151314541Y-86075000D01*
X159164912Y-91588000D02*
X159078325Y-91588000D01*
X151314541Y-86075000D02*
X140739541Y-75500000D01*
X159199961Y-91549961D02*
X156983625Y-89333625D01*
X139450000Y-76097824D02*
X139450000Y-76100000D01*
X156983625Y-89333625D02*
X156983625Y-88258625D01*
X140739541Y-75500000D02*
X140047824Y-75500000D01*
X140047824Y-75500000D02*
X139450000Y-76097824D01*
X159199961Y-91552951D02*
X159199961Y-91549961D01*
X159199961Y-91552951D02*
X159164912Y-91588000D01*
X132953200Y-80414554D02*
X132953200Y-80184168D01*
X156507825Y-95267500D02*
X155670193Y-95267500D01*
X132953200Y-84940832D02*
X143279868Y-95267500D01*
X132527868Y-80839886D02*
X132953200Y-80414554D01*
X143279868Y-95267500D02*
X155670193Y-95267500D01*
X134100477Y-79036891D02*
X134100477Y-76226017D01*
X132527868Y-81390500D02*
X132527868Y-80839886D01*
X132953200Y-84940832D02*
X132953200Y-81815832D01*
X132953200Y-81815832D02*
X132527868Y-81390500D01*
X132953200Y-80184168D02*
X134100477Y-79036891D01*
X159633625Y-91843873D02*
X159259998Y-92217500D01*
X139575000Y-87325000D02*
X144467500Y-92217500D01*
X144467500Y-92217500D02*
X156900000Y-92217500D01*
X159633625Y-90108800D02*
X159633625Y-91843873D01*
X159259998Y-92217500D02*
X156857825Y-92217500D01*
X139575000Y-81000000D02*
X139575000Y-87325000D01*
X159207825Y-89683000D02*
X159633625Y-90108800D01*
X158457825Y-87819673D02*
X158883625Y-87393873D01*
X158457825Y-90267500D02*
X158457825Y-87819673D01*
X140823709Y-75296800D02*
X139458447Y-75296800D01*
X139458447Y-75296800D02*
X139039430Y-75715817D01*
X151398709Y-85871800D02*
X140823709Y-75296800D01*
X158883625Y-87393873D02*
X158883625Y-87041127D01*
X159207825Y-90953000D02*
X159143325Y-90953000D01*
X158883625Y-87041127D02*
X157714298Y-85871800D01*
X157714298Y-85871800D02*
X151398709Y-85871800D01*
X159143325Y-90953000D02*
X158457825Y-90267500D01*
X140125800Y-75774200D02*
X140726373Y-75774200D01*
X139949997Y-76200000D02*
X139949997Y-75950003D01*
X151358357Y-86406184D02*
X154843816Y-86406184D01*
X154843816Y-86406184D02*
X156507825Y-88070193D01*
X156507825Y-88070193D02*
X156507825Y-88417500D01*
X139949997Y-75950003D02*
X140125800Y-75774200D01*
X140726373Y-75774200D02*
X151358357Y-86406184D01*
X158661025Y-89870700D02*
X158661025Y-89564300D01*
X159108325Y-90318000D02*
X158661025Y-89870700D01*
X139050000Y-87087368D02*
X139050000Y-80350000D01*
X159200000Y-90318000D02*
X159108325Y-90318000D01*
X159836825Y-92078041D02*
X159494166Y-92420700D01*
X158661025Y-89564300D02*
X158968125Y-89257200D01*
X159836825Y-89446500D02*
X159836825Y-92078041D01*
X159647525Y-89257200D02*
X159836825Y-89446500D01*
X158968125Y-89257200D02*
X159647525Y-89257200D01*
X159494166Y-92420700D02*
X144383332Y-92420700D01*
X144383332Y-92420700D02*
X139050000Y-87087368D01*
X131464600Y-76385400D02*
X131464600Y-75821123D01*
X133208123Y-74077600D02*
X141328717Y-74077600D01*
X130025000Y-77825000D02*
X131464600Y-76385400D01*
X131464600Y-75821123D02*
X133208123Y-74077600D01*
X151897917Y-84646800D02*
X158733640Y-84646800D01*
X158733640Y-84646800D02*
X161056025Y-86969185D01*
X130025000Y-80325000D02*
X130025000Y-77825000D01*
X141328717Y-74077600D02*
X151897917Y-84646800D01*
X161056025Y-102319300D02*
X159357825Y-104017500D01*
X161056025Y-86969185D02*
X161056025Y-102319300D01*
X140524200Y-86926373D02*
X140524200Y-82313328D01*
X140524200Y-82313328D02*
X140800800Y-82036728D01*
X140550000Y-81051600D02*
X140550000Y-80300000D01*
X155671152Y-89683000D02*
X154901652Y-88913500D01*
X142511327Y-88913500D02*
X140524200Y-86926373D01*
X140800800Y-81302400D02*
X140550000Y-81051600D01*
X140800800Y-82036728D02*
X140800800Y-81302400D01*
X154901652Y-88913500D02*
X142511327Y-88913500D01*
X156557825Y-89683000D02*
X155671152Y-89683000D01*
X161868825Y-104108673D02*
X161868825Y-86632513D01*
X152234589Y-83834000D02*
X141665389Y-73264800D01*
X130433027Y-73264800D02*
X127574200Y-76123627D01*
X128250000Y-76750000D02*
X128700000Y-76300000D01*
X161868825Y-86632513D02*
X159070312Y-83834000D01*
X141665389Y-73264800D02*
X130433027Y-73264800D01*
X127847827Y-76750000D02*
X128250000Y-76750000D01*
X127574200Y-76476373D02*
X127847827Y-76750000D01*
X159070312Y-83834000D02*
X152234589Y-83834000D01*
X127574200Y-76123627D02*
X127574200Y-76476373D01*
X156434998Y-109542500D02*
X161868825Y-104108673D01*
X156007825Y-109542500D02*
X156434998Y-109542500D01*
X161665625Y-103709700D02*
X161665625Y-86716681D01*
X141581221Y-73468000D02*
X130517195Y-73468000D01*
X152150421Y-84037200D02*
X141581221Y-73468000D01*
X128000000Y-75985195D02*
X128000000Y-76300000D01*
X158986144Y-84037200D02*
X152150421Y-84037200D01*
X156457825Y-108917500D02*
X161665625Y-103709700D01*
X161665625Y-86716681D02*
X158986144Y-84037200D01*
X130517195Y-73468000D02*
X128000000Y-75985195D01*
X151735381Y-85059000D02*
X141160381Y-74484000D01*
X131871000Y-76641632D02*
X131174200Y-77338432D01*
X157086825Y-103340673D02*
X157086825Y-102038236D01*
X160649625Y-87137521D02*
X158571104Y-85059000D01*
X158571104Y-85059000D02*
X151735381Y-85059000D01*
X157086825Y-102038236D02*
X160649625Y-98475436D01*
X160649625Y-98475436D02*
X160649625Y-87137521D01*
X156434998Y-103992500D02*
X157086825Y-103340673D01*
X133376459Y-74484000D02*
X131871000Y-75989459D01*
X131174200Y-79374200D02*
X132050000Y-80250000D01*
X155982825Y-103992500D02*
X156434998Y-103992500D01*
X131174200Y-77338432D02*
X131174200Y-79374200D01*
X131871000Y-75989459D02*
X131871000Y-76641632D01*
X141160381Y-74484000D02*
X133376459Y-74484000D01*
X130264691Y-72858400D02*
X127150000Y-75973091D01*
X152402925Y-83427600D02*
X147675162Y-78699837D01*
X147667400Y-78692075D02*
X141833725Y-72858400D01*
X156434998Y-110842500D02*
X162275225Y-105002273D01*
X162275225Y-105002273D02*
X162275225Y-86464177D01*
X127150000Y-75973091D02*
X127150000Y-79500000D01*
X127150000Y-79500000D02*
X128675000Y-81025000D01*
X141833725Y-72858400D02*
X130264691Y-72858400D01*
X162275225Y-86464177D02*
X159238648Y-83427600D01*
X128675000Y-81025000D02*
X129050000Y-81025000D01*
X159238648Y-83427600D02*
X152402925Y-83427600D01*
X156032825Y-110842500D02*
X156434998Y-110842500D01*
X133674677Y-79175323D02*
X133674677Y-76049644D01*
X132324668Y-80755718D02*
X132750000Y-80330386D01*
X132750000Y-85025000D02*
X132750000Y-81900000D01*
X134350217Y-75800217D02*
X134700000Y-76150000D01*
X132324668Y-81474668D02*
X132324668Y-80755718D01*
X132750000Y-81900000D02*
X132324668Y-81474668D01*
X132750000Y-80100000D02*
X133674677Y-79175323D01*
X134700000Y-76150000D02*
X134700000Y-76250000D01*
X133674677Y-76049644D02*
X133924104Y-75800217D01*
X132750000Y-80330386D02*
X132750000Y-80100000D01*
X155957825Y-95842500D02*
X143567500Y-95842500D01*
X133924104Y-75800217D02*
X134350217Y-75800217D01*
X143567500Y-95842500D02*
X132750000Y-85025000D01*
X145932007Y-79542993D02*
X151651213Y-85262200D01*
X145907007Y-79517993D02*
X145769506Y-79380494D01*
X156457825Y-102518300D02*
X156457825Y-103367500D01*
X145769506Y-79380494D02*
X145823079Y-79434066D01*
X132074200Y-76725800D02*
X132074200Y-76073627D01*
X156883625Y-101954068D02*
X156883625Y-102268873D01*
X145932007Y-79542993D02*
X145907007Y-79517993D01*
X132074200Y-76073627D02*
X133460627Y-74687200D01*
X151651213Y-85262200D02*
X158486936Y-85262200D01*
X158486936Y-85262200D02*
X160446425Y-87221689D01*
X160446425Y-98391268D02*
X156883625Y-101954068D01*
X156883625Y-102268873D02*
X156634198Y-102518300D01*
X160446425Y-87221689D02*
X160446425Y-98391268D01*
X145932007Y-79542993D02*
X145882007Y-79492993D01*
X156634198Y-102518300D02*
X156457825Y-102518300D01*
X133460627Y-74687200D02*
X141076213Y-74687200D01*
X131600000Y-77200000D02*
X132074200Y-76725800D01*
X131600000Y-78750000D02*
X131600000Y-77200000D01*
X141076213Y-74687200D02*
X145769506Y-79380494D01*
X162478425Y-106996900D02*
X162478425Y-86380009D01*
X124550000Y-78285723D02*
X130180523Y-72655200D01*
X124550000Y-80400000D02*
X124550000Y-78285723D01*
X152487093Y-83224400D02*
X159322816Y-83224400D01*
X159232825Y-110242500D02*
X162478425Y-106996900D01*
X130180523Y-72655200D02*
X141917893Y-72655200D01*
X141917893Y-72655200D02*
X152487093Y-83224400D01*
X162478425Y-86380009D02*
X159599208Y-83500792D01*
X159322816Y-83224400D02*
X159611956Y-83513540D01*
X159232825Y-112067500D02*
X159259998Y-112067500D01*
X123550000Y-76247830D02*
X123550000Y-76250000D01*
X163088025Y-86127505D02*
X159575320Y-82614800D01*
X159259998Y-112067500D02*
X163088025Y-108239473D01*
X152739598Y-82614800D02*
X142170397Y-72045600D01*
X163088025Y-108239473D02*
X163088025Y-86127505D01*
X159575320Y-82614800D02*
X152739598Y-82614800D01*
X142170397Y-72045600D02*
X127752230Y-72045600D01*
X127752230Y-72045600D02*
X123550000Y-76247830D01*
X137409600Y-74890400D02*
X140992045Y-74890400D01*
X160243225Y-98307100D02*
X156457825Y-102092500D01*
X136050000Y-76250000D02*
X137409600Y-74890400D01*
X158402768Y-85465400D02*
X160243225Y-87305857D01*
X160243225Y-87305857D02*
X160243225Y-98307100D01*
X140992045Y-74890400D02*
X151567045Y-85465400D01*
X151567045Y-85465400D02*
X158402768Y-85465400D01*
X156507825Y-96517500D02*
X156258625Y-96268300D01*
X121913300Y-96268300D02*
X116490000Y-90845000D01*
X133156400Y-84856400D02*
X133156400Y-81218991D01*
X159107825Y-97167500D02*
X156782025Y-94841700D01*
X143141700Y-94841700D02*
X133156400Y-84856400D01*
X133156400Y-81218991D02*
X132953668Y-81016259D01*
X156258625Y-96268300D02*
X121913300Y-96268300D01*
X156782025Y-94841700D02*
X143141700Y-94841700D01*
X130223627Y-75874200D02*
X129974200Y-76123627D01*
X129974200Y-76250000D02*
X129800000Y-76250000D01*
X161462425Y-86800849D02*
X158901976Y-84240400D01*
X132741432Y-73671200D02*
X130538432Y-75874200D01*
X152066253Y-84240400D02*
X141497053Y-73671200D01*
X141497053Y-73671200D02*
X132741432Y-73671200D01*
X130538432Y-75874200D02*
X130223627Y-75874200D01*
X129974200Y-76123627D02*
X129974200Y-76250000D01*
X161462425Y-103040073D02*
X161462425Y-86800849D01*
X159259998Y-105242500D02*
X161462425Y-103040073D01*
X159282825Y-105242500D02*
X159259998Y-105242500D01*
X158901976Y-84240400D02*
X152066253Y-84240400D01*
X127371000Y-76039459D02*
X130348859Y-73061600D01*
X152318757Y-83630800D02*
X159154480Y-83630800D01*
X141749557Y-73061600D02*
X152318757Y-83630800D01*
X162072025Y-104603300D02*
X162072025Y-86548345D01*
X130348859Y-73061600D02*
X141749557Y-73061600D01*
X159154480Y-83630800D02*
X159341732Y-83818052D01*
X156482825Y-110192500D02*
X162072025Y-104603300D01*
X127371000Y-79071000D02*
X127371000Y-76039459D01*
X162072025Y-86548345D02*
X159341732Y-83818052D01*
X128550000Y-80250000D02*
X127371000Y-79071000D01*
X155607825Y-89017500D02*
X155050000Y-88459675D01*
X140864805Y-76200000D02*
X140550000Y-76200000D01*
X151274189Y-86609384D02*
X140864805Y-76200000D01*
X155050000Y-86899736D02*
X154759648Y-86609384D01*
X155050000Y-88459675D02*
X155050000Y-86899736D01*
X154759648Y-86609384D02*
X151274189Y-86609384D01*
X122045227Y-79147400D02*
X114952400Y-79147400D01*
X136050000Y-89300000D02*
X132197827Y-89300000D01*
X114952400Y-79147400D02*
X113950000Y-78145000D01*
X132197827Y-89300000D02*
X122045227Y-79147400D01*
X159307825Y-111467500D02*
X162884825Y-107890500D01*
X126010987Y-76250000D02*
X124150003Y-76250000D01*
X130012187Y-72248800D02*
X126010987Y-76250000D01*
X152655430Y-82818000D02*
X142086229Y-72248800D01*
X159491152Y-82818000D02*
X152655430Y-82818000D01*
X162884825Y-86211673D02*
X159491152Y-82818000D01*
X159257825Y-111467500D02*
X159307825Y-111467500D01*
X142086229Y-72248800D02*
X130012187Y-72248800D01*
X162884825Y-107890500D02*
X162884825Y-86211673D01*
X135550000Y-85425264D02*
X135550000Y-76850573D01*
X159284198Y-96091700D02*
X158606761Y-96091700D01*
X134602173Y-75550000D02*
X133875000Y-75550000D01*
X135125800Y-76073627D02*
X134602173Y-75550000D01*
X135550000Y-76850573D02*
X135125800Y-76426373D01*
X158606761Y-96091700D02*
X156950361Y-94435300D01*
X133875000Y-75550000D02*
X133175000Y-76250000D01*
X143372668Y-94435300D02*
X136200000Y-87262632D01*
X159132825Y-97792500D02*
X159533625Y-97391700D01*
X156950361Y-94435300D02*
X143372668Y-94435300D01*
X136200000Y-87262632D02*
X136200000Y-86075264D01*
X159533625Y-97391700D02*
X159533625Y-96341127D01*
X159533625Y-96341127D02*
X159284198Y-96091700D01*
X135125800Y-76426373D02*
X135125800Y-76073627D01*
X136200000Y-86075264D02*
X135550000Y-85425264D01*
X160852825Y-98559604D02*
X157757825Y-101654604D01*
X130875000Y-80900000D02*
X130650000Y-80675000D01*
X131667800Y-76557464D02*
X131667800Y-75905291D01*
X130650000Y-80675000D02*
X130650000Y-77575264D01*
X141244549Y-74280800D02*
X151819549Y-84855800D01*
X130650000Y-77575264D02*
X131667800Y-76557464D01*
X158655272Y-84855800D02*
X160852825Y-87053353D01*
X157757825Y-101917500D02*
X159232825Y-103392500D01*
X157757825Y-101654604D02*
X157757825Y-101917500D01*
X151819549Y-84855800D02*
X158655272Y-84855800D01*
X133292291Y-74280800D02*
X141244549Y-74280800D01*
X160852825Y-87053353D02*
X160852825Y-98559604D01*
X131667800Y-75905291D02*
X133292291Y-74280800D01*
X143366700Y-90267500D02*
X155707825Y-90267500D01*
X141175000Y-80322827D02*
X141175000Y-81000000D01*
X140373627Y-79874200D02*
X140726373Y-79874200D01*
X139899200Y-86800000D02*
X143366700Y-90267500D01*
X140726373Y-79874200D02*
X141175000Y-80322827D01*
X140124200Y-80123627D02*
X140373627Y-79874200D01*
X139899200Y-81663272D02*
X140124200Y-81438272D01*
X140124200Y-81438272D02*
X140124200Y-80123627D01*
X139899200Y-86800000D02*
X139899200Y-81663272D01*
X130096355Y-72452000D02*
X123900000Y-78648355D01*
X123900000Y-78648355D02*
X123900000Y-80400000D01*
X142002061Y-72452000D02*
X130096355Y-72452000D01*
X162681625Y-86295841D02*
X159406984Y-83021200D01*
X159257825Y-110867500D02*
X162681625Y-107443700D01*
X159406984Y-83021200D02*
X152571262Y-83021200D01*
X152571262Y-83021200D02*
X142002061Y-72452000D01*
X162681625Y-107443700D02*
X162681625Y-86295841D01*
G04 #@! TA.AperFunction,Conductor*
G36*
X109336515Y-72648071D02*
G01*
X109336508Y-72648071D01*
X126085747Y-72632955D01*
X109336515Y-72648071D01*
G37*
G04 #@! TD.AperFunction*
G04 #@! TA.AperFunction,Conductor*
G36*
X143820626Y-72616948D02*
G01*
X143820600Y-72616948D01*
X159147598Y-72603115D01*
X143820626Y-72616948D01*
G37*
G04 #@! TD.AperFunction*
G04 #@! TA.AperFunction,Conductor*
G36*
X126152801Y-72652578D02*
G01*
X126198604Y-72705341D01*
X126208610Y-72774490D01*
X126179642Y-72838072D01*
X126173537Y-72844635D01*
X123522376Y-75495796D01*
X123461053Y-75529281D01*
X123448580Y-75531335D01*
X123387544Y-75538212D01*
X123233225Y-75592210D01*
X123094795Y-75679192D01*
X122979192Y-75794795D01*
X122892210Y-75933225D01*
X122838212Y-76087544D01*
X122819909Y-76249996D01*
X122819909Y-76250003D01*
X122838212Y-76412455D01*
X122892210Y-76566774D01*
X122940419Y-76643498D01*
X122979192Y-76705204D01*
X123094796Y-76820808D01*
X123233225Y-76907789D01*
X123387539Y-76961786D01*
X123387542Y-76961786D01*
X123387544Y-76961787D01*
X123549996Y-76980091D01*
X123550000Y-76980091D01*
X123550004Y-76980091D01*
X123712455Y-76961787D01*
X123712456Y-76961786D01*
X123712461Y-76961786D01*
X123809049Y-76927987D01*
X123878824Y-76924425D01*
X123890935Y-76927981D01*
X123987542Y-76961786D01*
X123987546Y-76961786D01*
X123987548Y-76961787D01*
X123987545Y-76961787D01*
X124149999Y-76980091D01*
X124150003Y-76980091D01*
X124150007Y-76980091D01*
X124312458Y-76961787D01*
X124312459Y-76961786D01*
X124312464Y-76961786D01*
X124466778Y-76907789D01*
X124595402Y-76826968D01*
X124662638Y-76807968D01*
X124729473Y-76828335D01*
X124774688Y-76881603D01*
X124783926Y-76950859D01*
X124754254Y-77014116D01*
X124749055Y-77019643D01*
X123561494Y-78207205D01*
X123458852Y-78309846D01*
X123458847Y-78309852D01*
X123386271Y-78435557D01*
X123386271Y-78435558D01*
X123348700Y-78575775D01*
X123348700Y-79371855D01*
X123329015Y-79438894D01*
X123276211Y-79484649D01*
X123207053Y-79494593D01*
X123143497Y-79465568D01*
X123137019Y-79459536D01*
X122383735Y-78706252D01*
X122383729Y-78706247D01*
X122258023Y-78633671D01*
X122258022Y-78633670D01*
X122258021Y-78633670D01*
X122117807Y-78596100D01*
X122117806Y-78596100D01*
X117928869Y-78596100D01*
X117861830Y-78576415D01*
X117816075Y-78523611D01*
X117806131Y-78454453D01*
X117809094Y-78440007D01*
X117814793Y-78418733D01*
X117825063Y-78380408D01*
X117845659Y-78145000D01*
X117825063Y-77909592D01*
X117763903Y-77681337D01*
X117664035Y-77467171D01*
X117658425Y-77459158D01*
X117528494Y-77273597D01*
X117361402Y-77106506D01*
X117361396Y-77106501D01*
X117175842Y-76976575D01*
X117132217Y-76921998D01*
X117125023Y-76852500D01*
X117156546Y-76790145D01*
X117175842Y-76773425D01*
X117250734Y-76720985D01*
X117361401Y-76643495D01*
X117528495Y-76476401D01*
X117664035Y-76282830D01*
X117763903Y-76068663D01*
X117825063Y-75840408D01*
X117845659Y-75605000D01*
X117825063Y-75369592D01*
X117763903Y-75141337D01*
X117664035Y-74927171D01*
X117656890Y-74916966D01*
X117528494Y-74733597D01*
X117361402Y-74566506D01*
X117361395Y-74566501D01*
X117167834Y-74430967D01*
X117167830Y-74430965D01*
X117153363Y-74424219D01*
X116953663Y-74331097D01*
X116953659Y-74331096D01*
X116953655Y-74331094D01*
X116725413Y-74269938D01*
X116725403Y-74269936D01*
X116490001Y-74249341D01*
X116489999Y-74249341D01*
X116254596Y-74269936D01*
X116254586Y-74269938D01*
X116026344Y-74331094D01*
X116026335Y-74331098D01*
X115812171Y-74430964D01*
X115812169Y-74430965D01*
X115618600Y-74566503D01*
X115496673Y-74688430D01*
X115435350Y-74721914D01*
X115365658Y-74716930D01*
X115309725Y-74675058D01*
X115292810Y-74644081D01*
X115243797Y-74512671D01*
X115243793Y-74512664D01*
X115157547Y-74397455D01*
X115157544Y-74397452D01*
X115042335Y-74311206D01*
X115042328Y-74311202D01*
X114907482Y-74260908D01*
X114907483Y-74260908D01*
X114847883Y-74254501D01*
X114847881Y-74254500D01*
X114847873Y-74254500D01*
X114847864Y-74254500D01*
X113052129Y-74254500D01*
X113052123Y-74254501D01*
X112992516Y-74260908D01*
X112857671Y-74311202D01*
X112857664Y-74311206D01*
X112742455Y-74397452D01*
X112742452Y-74397455D01*
X112656206Y-74512664D01*
X112656202Y-74512671D01*
X112605908Y-74647517D01*
X112599501Y-74707116D01*
X112599500Y-74707135D01*
X112599500Y-76502870D01*
X112599501Y-76502876D01*
X112605908Y-76562483D01*
X112656202Y-76697328D01*
X112656206Y-76697335D01*
X112742452Y-76812544D01*
X112742455Y-76812547D01*
X112857664Y-76898793D01*
X112857671Y-76898797D01*
X112989081Y-76947810D01*
X113045015Y-76989681D01*
X113069432Y-77055145D01*
X113054580Y-77123418D01*
X113033430Y-77151673D01*
X112911503Y-77273600D01*
X112775965Y-77467169D01*
X112775964Y-77467171D01*
X112676098Y-77681335D01*
X112676094Y-77681344D01*
X112614938Y-77909586D01*
X112614936Y-77909596D01*
X112594341Y-78144999D01*
X112594341Y-78145000D01*
X112614936Y-78380403D01*
X112614938Y-78380413D01*
X112676094Y-78608655D01*
X112676096Y-78608659D01*
X112676097Y-78608663D01*
X112721603Y-78706250D01*
X112775965Y-78822830D01*
X112775967Y-78822834D01*
X112911501Y-79016395D01*
X112911506Y-79016402D01*
X113078597Y-79183493D01*
X113078603Y-79183498D01*
X113264158Y-79313425D01*
X113307783Y-79368002D01*
X113314977Y-79437500D01*
X113283454Y-79499855D01*
X113264158Y-79516575D01*
X113078597Y-79646505D01*
X112911505Y-79813597D01*
X112775965Y-80007169D01*
X112775964Y-80007171D01*
X112676098Y-80221335D01*
X112676094Y-80221344D01*
X112614938Y-80449586D01*
X112614936Y-80449596D01*
X112594341Y-80684999D01*
X112594341Y-80685000D01*
X112614936Y-80920403D01*
X112614938Y-80920413D01*
X112676094Y-81148655D01*
X112676096Y-81148659D01*
X112676097Y-81148663D01*
X112708654Y-81218481D01*
X112775965Y-81362830D01*
X112775967Y-81362834D01*
X112848311Y-81466151D01*
X112911501Y-81556396D01*
X112911506Y-81556402D01*
X113078597Y-81723493D01*
X113078603Y-81723498D01*
X113264158Y-81853425D01*
X113307783Y-81908002D01*
X113314977Y-81977500D01*
X113283454Y-82039855D01*
X113264158Y-82056575D01*
X113078597Y-82186505D01*
X112911505Y-82353597D01*
X112775965Y-82547169D01*
X112775964Y-82547171D01*
X112676098Y-82761335D01*
X112676094Y-82761344D01*
X112614938Y-82989586D01*
X112614936Y-82989596D01*
X112594341Y-83224999D01*
X112594341Y-83225000D01*
X112614936Y-83460403D01*
X112614938Y-83460413D01*
X112676094Y-83688655D01*
X112676096Y-83688659D01*
X112676097Y-83688663D01*
X112735837Y-83816775D01*
X112775965Y-83902830D01*
X112775967Y-83902834D01*
X112879053Y-84050055D01*
X112911501Y-84096396D01*
X112911506Y-84096402D01*
X113078597Y-84263493D01*
X113078603Y-84263498D01*
X113264158Y-84393425D01*
X113307783Y-84448002D01*
X113314977Y-84517500D01*
X113283454Y-84579855D01*
X113264158Y-84596575D01*
X113078597Y-84726505D01*
X112911505Y-84893597D01*
X112775965Y-85087169D01*
X112775964Y-85087171D01*
X112676098Y-85301335D01*
X112676094Y-85301344D01*
X112614938Y-85529586D01*
X112614936Y-85529596D01*
X112594341Y-85764999D01*
X112594341Y-85765000D01*
X112614936Y-86000403D01*
X112614938Y-86000413D01*
X112676094Y-86228655D01*
X112676096Y-86228659D01*
X112676097Y-86228663D01*
X112680000Y-86237032D01*
X112775965Y-86442830D01*
X112775967Y-86442834D01*
X112867432Y-86573458D01*
X112911501Y-86636396D01*
X112911506Y-86636402D01*
X113078597Y-86803493D01*
X113078603Y-86803498D01*
X113264158Y-86933425D01*
X113307783Y-86988002D01*
X113314977Y-87057500D01*
X113283454Y-87119855D01*
X113264158Y-87136575D01*
X113078597Y-87266505D01*
X112911505Y-87433597D01*
X112775965Y-87627169D01*
X112775964Y-87627171D01*
X112676098Y-87841335D01*
X112676094Y-87841344D01*
X112614938Y-88069586D01*
X112614936Y-88069596D01*
X112594341Y-88304999D01*
X112594341Y-88305000D01*
X112614936Y-88540403D01*
X112614938Y-88540413D01*
X112676094Y-88768655D01*
X112676096Y-88768659D01*
X112676097Y-88768663D01*
X112680000Y-88777032D01*
X112775965Y-88982830D01*
X112775967Y-88982834D01*
X112861698Y-89105269D01*
X112911501Y-89176396D01*
X112911506Y-89176402D01*
X113078597Y-89343493D01*
X113078603Y-89343498D01*
X113264158Y-89473425D01*
X113307783Y-89528002D01*
X113314977Y-89597500D01*
X113283454Y-89659855D01*
X113264158Y-89676575D01*
X113078597Y-89806505D01*
X112911505Y-89973597D01*
X112775965Y-90167169D01*
X112775964Y-90167171D01*
X112676098Y-90381335D01*
X112676094Y-90381344D01*
X112614938Y-90609586D01*
X112614936Y-90609596D01*
X112594341Y-90844999D01*
X112594341Y-90845000D01*
X112614936Y-91080403D01*
X112614938Y-91080413D01*
X112676094Y-91308655D01*
X112676096Y-91308659D01*
X112676097Y-91308663D01*
X112744111Y-91454519D01*
X112775965Y-91522830D01*
X112775967Y-91522834D01*
X112911501Y-91716395D01*
X112911506Y-91716402D01*
X113078597Y-91883493D01*
X113078603Y-91883498D01*
X113264158Y-92013425D01*
X113307783Y-92068002D01*
X113314977Y-92137500D01*
X113283454Y-92199855D01*
X113264158Y-92216575D01*
X113078597Y-92346505D01*
X112911505Y-92513597D01*
X112775965Y-92707169D01*
X112775964Y-92707171D01*
X112676098Y-92921335D01*
X112676094Y-92921344D01*
X112614938Y-93149586D01*
X112614936Y-93149596D01*
X112594341Y-93384999D01*
X112594341Y-93385000D01*
X112614936Y-93620403D01*
X112614938Y-93620413D01*
X112676094Y-93848655D01*
X112676096Y-93848659D01*
X112676097Y-93848663D01*
X112680000Y-93857032D01*
X112775965Y-94062830D01*
X112775967Y-94062834D01*
X112791068Y-94084400D01*
X112911501Y-94256396D01*
X112911506Y-94256402D01*
X113078597Y-94423493D01*
X113078603Y-94423498D01*
X113264158Y-94553425D01*
X113307783Y-94608002D01*
X113314977Y-94677500D01*
X113283454Y-94739855D01*
X113264158Y-94756575D01*
X113078597Y-94886505D01*
X112911505Y-95053597D01*
X112775965Y-95247169D01*
X112775964Y-95247171D01*
X112676098Y-95461335D01*
X112676094Y-95461344D01*
X112614938Y-95689586D01*
X112614936Y-95689596D01*
X112594341Y-95924999D01*
X112594341Y-95925000D01*
X112614936Y-96160403D01*
X112614938Y-96160413D01*
X112676094Y-96388655D01*
X112676096Y-96388659D01*
X112676097Y-96388663D01*
X112736175Y-96517500D01*
X112775965Y-96602830D01*
X112775967Y-96602834D01*
X112884281Y-96757521D01*
X112911501Y-96796396D01*
X112911506Y-96796402D01*
X113078597Y-96963493D01*
X113078603Y-96963498D01*
X113264158Y-97093425D01*
X113307783Y-97148002D01*
X113314977Y-97217500D01*
X113283454Y-97279855D01*
X113264158Y-97296575D01*
X113078597Y-97426505D01*
X112911505Y-97593597D01*
X112775965Y-97787169D01*
X112775964Y-97787171D01*
X112676098Y-98001335D01*
X112676094Y-98001344D01*
X112614938Y-98229586D01*
X112614936Y-98229596D01*
X112594341Y-98464999D01*
X112594341Y-98465000D01*
X112614936Y-98700403D01*
X112614938Y-98700413D01*
X112676094Y-98928655D01*
X112676096Y-98928659D01*
X112676097Y-98928663D01*
X112756004Y-99100023D01*
X112775965Y-99142830D01*
X112775967Y-99142834D01*
X112884281Y-99297521D01*
X112911501Y-99336396D01*
X112911506Y-99336402D01*
X113078597Y-99503493D01*
X113078603Y-99503498D01*
X113264158Y-99633425D01*
X113307783Y-99688002D01*
X113314977Y-99757500D01*
X113283454Y-99819855D01*
X113264158Y-99836575D01*
X113078597Y-99966505D01*
X112911505Y-100133597D01*
X112775965Y-100327169D01*
X112775964Y-100327171D01*
X112676098Y-100541335D01*
X112676094Y-100541344D01*
X112614938Y-100769586D01*
X112614936Y-100769596D01*
X112594341Y-101004999D01*
X112594341Y-101005000D01*
X112614936Y-101240403D01*
X112614938Y-101240413D01*
X112676094Y-101468655D01*
X112676096Y-101468659D01*
X112676097Y-101468663D01*
X112749849Y-101626824D01*
X112775965Y-101682830D01*
X112775967Y-101682834D01*
X112848242Y-101786052D01*
X112911501Y-101876396D01*
X112911506Y-101876402D01*
X113078597Y-102043493D01*
X113078603Y-102043498D01*
X113264158Y-102173425D01*
X113307783Y-102228002D01*
X113314977Y-102297500D01*
X113283454Y-102359855D01*
X113264158Y-102376575D01*
X113078597Y-102506505D01*
X112911505Y-102673597D01*
X112775965Y-102867169D01*
X112775964Y-102867171D01*
X112676098Y-103081335D01*
X112676094Y-103081344D01*
X112614938Y-103309586D01*
X112614936Y-103309596D01*
X112594341Y-103544999D01*
X112594341Y-103545000D01*
X112614936Y-103780403D01*
X112614938Y-103780413D01*
X112676094Y-104008655D01*
X112676096Y-104008659D01*
X112676097Y-104008663D01*
X112744314Y-104154955D01*
X112775965Y-104222830D01*
X112775967Y-104222834D01*
X112848013Y-104325725D01*
X112911501Y-104416396D01*
X112911506Y-104416402D01*
X113078597Y-104583493D01*
X113078603Y-104583498D01*
X113264158Y-104713425D01*
X113307783Y-104768002D01*
X113314977Y-104837500D01*
X113283454Y-104899855D01*
X113264158Y-104916575D01*
X113078597Y-105046505D01*
X112911505Y-105213597D01*
X112775965Y-105407169D01*
X112775964Y-105407171D01*
X112676098Y-105621335D01*
X112676094Y-105621344D01*
X112614938Y-105849586D01*
X112614936Y-105849596D01*
X112594341Y-106084999D01*
X112594341Y-106085000D01*
X112614936Y-106320403D01*
X112614938Y-106320413D01*
X112676094Y-106548655D01*
X112676096Y-106548659D01*
X112676097Y-106548663D01*
X112756004Y-106720023D01*
X112775965Y-106762830D01*
X112775967Y-106762834D01*
X112790942Y-106784220D01*
X112911501Y-106956396D01*
X112911506Y-106956402D01*
X113078597Y-107123493D01*
X113078603Y-107123498D01*
X113264158Y-107253425D01*
X113307783Y-107308002D01*
X113314977Y-107377500D01*
X113283454Y-107439855D01*
X113264158Y-107456575D01*
X113078597Y-107586505D01*
X112911505Y-107753597D01*
X112775965Y-107947169D01*
X112775964Y-107947171D01*
X112676098Y-108161335D01*
X112676094Y-108161344D01*
X112614938Y-108389586D01*
X112614936Y-108389596D01*
X112594341Y-108624999D01*
X112594341Y-108625000D01*
X112614936Y-108860403D01*
X112614938Y-108860413D01*
X112676094Y-109088655D01*
X112676096Y-109088659D01*
X112676097Y-109088663D01*
X112680000Y-109097032D01*
X112775965Y-109302830D01*
X112775967Y-109302834D01*
X112884281Y-109457521D01*
X112911501Y-109496396D01*
X112911506Y-109496402D01*
X113078597Y-109663493D01*
X113078603Y-109663498D01*
X113264158Y-109793425D01*
X113307783Y-109848002D01*
X113314977Y-109917500D01*
X113283454Y-109979855D01*
X113264158Y-109996575D01*
X113078597Y-110126505D01*
X112911505Y-110293597D01*
X112775965Y-110487169D01*
X112775964Y-110487171D01*
X112676098Y-110701335D01*
X112676094Y-110701344D01*
X112614938Y-110929586D01*
X112614936Y-110929596D01*
X112594341Y-111164999D01*
X112594341Y-111165000D01*
X112614936Y-111400403D01*
X112614938Y-111400413D01*
X112676094Y-111628655D01*
X112676096Y-111628659D01*
X112676097Y-111628663D01*
X112743277Y-111772731D01*
X112775965Y-111842830D01*
X112775967Y-111842834D01*
X112884281Y-111997521D01*
X112911501Y-112036396D01*
X112911506Y-112036402D01*
X113078597Y-112203493D01*
X113078603Y-112203498D01*
X113264158Y-112333425D01*
X113307783Y-112388002D01*
X113314977Y-112457500D01*
X113283454Y-112519855D01*
X113264158Y-112536575D01*
X113078597Y-112666505D01*
X112911505Y-112833597D01*
X112775965Y-113027169D01*
X112775964Y-113027171D01*
X112676098Y-113241335D01*
X112676094Y-113241344D01*
X112614938Y-113469586D01*
X112614936Y-113469596D01*
X112594341Y-113704999D01*
X112594341Y-113705000D01*
X112614936Y-113940403D01*
X112614938Y-113940413D01*
X112676094Y-114168655D01*
X112676096Y-114168659D01*
X112676097Y-114168663D01*
X112680000Y-114177032D01*
X112775965Y-114382830D01*
X112775967Y-114382834D01*
X112882822Y-114535438D01*
X112911501Y-114576396D01*
X112911506Y-114576402D01*
X113078597Y-114743493D01*
X113078603Y-114743498D01*
X113264158Y-114873425D01*
X113307783Y-114928002D01*
X113314977Y-114997500D01*
X113283454Y-115059855D01*
X113264158Y-115076575D01*
X113078597Y-115206505D01*
X112911505Y-115373597D01*
X112775965Y-115567169D01*
X112775964Y-115567171D01*
X112676098Y-115781335D01*
X112676094Y-115781344D01*
X112614938Y-116009586D01*
X112614936Y-116009596D01*
X112594341Y-116244999D01*
X112594341Y-116245000D01*
X112614936Y-116480403D01*
X112614938Y-116480413D01*
X112676094Y-116708655D01*
X112676096Y-116708659D01*
X112676097Y-116708663D01*
X112766312Y-116902129D01*
X112775965Y-116922830D01*
X112775967Y-116922834D01*
X112884281Y-117077521D01*
X112911501Y-117116396D01*
X112911506Y-117116402D01*
X113078597Y-117283493D01*
X113078603Y-117283498D01*
X113264158Y-117413425D01*
X113307783Y-117468002D01*
X113314977Y-117537500D01*
X113283454Y-117599855D01*
X113264158Y-117616575D01*
X113078597Y-117746505D01*
X112911505Y-117913597D01*
X112775965Y-118107169D01*
X112775964Y-118107171D01*
X112676098Y-118321335D01*
X112676094Y-118321344D01*
X112614938Y-118549586D01*
X112614936Y-118549596D01*
X112594341Y-118784999D01*
X112594341Y-118785000D01*
X112614936Y-119020403D01*
X112614938Y-119020413D01*
X112676094Y-119248655D01*
X112676096Y-119248659D01*
X112676097Y-119248663D01*
X112770215Y-119450499D01*
X112775965Y-119462830D01*
X112775967Y-119462834D01*
X112884281Y-119617521D01*
X112911505Y-119656401D01*
X113078599Y-119823495D01*
X113175384Y-119891265D01*
X113272165Y-119959032D01*
X113272167Y-119959033D01*
X113272170Y-119959035D01*
X113486337Y-120058903D01*
X113714592Y-120120063D01*
X113902918Y-120136539D01*
X113949999Y-120140659D01*
X113950000Y-120140659D01*
X113950001Y-120140659D01*
X113989234Y-120137226D01*
X114185408Y-120120063D01*
X114413663Y-120058903D01*
X114627830Y-119959035D01*
X114821401Y-119823495D01*
X114988495Y-119656401D01*
X115118425Y-119470842D01*
X115173002Y-119427217D01*
X115242500Y-119420023D01*
X115304855Y-119451546D01*
X115321575Y-119470842D01*
X115451501Y-119656396D01*
X115451506Y-119656402D01*
X115618597Y-119823493D01*
X115618603Y-119823498D01*
X115804158Y-119953425D01*
X115847783Y-120008002D01*
X115854977Y-120077500D01*
X115823454Y-120139855D01*
X115804158Y-120156575D01*
X115618597Y-120286505D01*
X115451505Y-120453597D01*
X115315965Y-120647169D01*
X115315964Y-120647171D01*
X115216098Y-120861335D01*
X115216094Y-120861344D01*
X115154938Y-121089586D01*
X115154936Y-121089596D01*
X115134341Y-121324999D01*
X115134341Y-121325000D01*
X115154936Y-121560403D01*
X115154938Y-121560413D01*
X115216094Y-121788655D01*
X115216096Y-121788659D01*
X115216097Y-121788663D01*
X115315965Y-122002830D01*
X115315967Y-122002834D01*
X115451501Y-122196395D01*
X115451506Y-122196402D01*
X115618597Y-122363493D01*
X115618603Y-122363498D01*
X115804158Y-122493425D01*
X115847783Y-122548002D01*
X115854977Y-122617500D01*
X115823454Y-122679855D01*
X115804158Y-122696575D01*
X115618597Y-122826505D01*
X115451505Y-122993597D01*
X115321575Y-123179158D01*
X115266998Y-123222783D01*
X115197500Y-123229977D01*
X115135145Y-123198454D01*
X115118425Y-123179158D01*
X114988494Y-122993597D01*
X114821402Y-122826506D01*
X114821395Y-122826501D01*
X114627834Y-122690967D01*
X114627830Y-122690965D01*
X114627828Y-122690964D01*
X114413663Y-122591097D01*
X114413659Y-122591096D01*
X114413655Y-122591094D01*
X114185413Y-122529938D01*
X114185403Y-122529936D01*
X113950001Y-122509341D01*
X113949999Y-122509341D01*
X113714596Y-122529936D01*
X113714586Y-122529938D01*
X113486344Y-122591094D01*
X113486335Y-122591098D01*
X113272171Y-122690964D01*
X113272169Y-122690965D01*
X113078597Y-122826505D01*
X112911505Y-122993597D01*
X112775965Y-123187169D01*
X112775964Y-123187171D01*
X112676098Y-123401335D01*
X112676094Y-123401344D01*
X112614938Y-123629586D01*
X112614936Y-123629596D01*
X112594341Y-123864999D01*
X112594341Y-123865000D01*
X112614936Y-124100403D01*
X112614938Y-124100413D01*
X112676094Y-124328655D01*
X112676096Y-124328659D01*
X112676097Y-124328663D01*
X112680000Y-124337032D01*
X112775965Y-124542830D01*
X112775967Y-124542834D01*
X112884281Y-124697521D01*
X112911505Y-124736401D01*
X113078599Y-124903495D01*
X113175384Y-124971265D01*
X113272165Y-125039032D01*
X113272167Y-125039033D01*
X113272170Y-125039035D01*
X113486337Y-125138903D01*
X113714592Y-125200063D01*
X113902918Y-125216539D01*
X113949999Y-125220659D01*
X113950000Y-125220659D01*
X113950001Y-125220659D01*
X113989234Y-125217226D01*
X114185408Y-125200063D01*
X114413663Y-125138903D01*
X114627830Y-125039035D01*
X114821401Y-124903495D01*
X114988495Y-124736401D01*
X115118425Y-124550842D01*
X115173002Y-124507217D01*
X115242500Y-124500023D01*
X115304855Y-124531546D01*
X115321575Y-124550842D01*
X115451500Y-124736395D01*
X115451505Y-124736401D01*
X115618599Y-124903495D01*
X115715384Y-124971265D01*
X115812165Y-125039032D01*
X115812167Y-125039033D01*
X115812170Y-125039035D01*
X116026337Y-125138903D01*
X116254592Y-125200063D01*
X116442918Y-125216539D01*
X116489999Y-125220659D01*
X116490000Y-125220659D01*
X116490001Y-125220659D01*
X116529234Y-125217226D01*
X116725408Y-125200063D01*
X116953663Y-125138903D01*
X117167830Y-125039035D01*
X117361401Y-124903495D01*
X117528495Y-124736401D01*
X117664035Y-124542830D01*
X117763903Y-124328663D01*
X117825063Y-124100408D01*
X117845659Y-123865000D01*
X117825063Y-123629592D01*
X117763903Y-123401337D01*
X117664035Y-123187171D01*
X117658425Y-123179158D01*
X117528494Y-122993597D01*
X117361402Y-122826506D01*
X117361396Y-122826501D01*
X117175842Y-122696575D01*
X117132217Y-122641998D01*
X117125023Y-122572500D01*
X117156546Y-122510145D01*
X117175842Y-122493425D01*
X117198026Y-122477891D01*
X117361401Y-122363495D01*
X117528495Y-122196401D01*
X117664035Y-122002830D01*
X117763903Y-121788663D01*
X117825063Y-121560408D01*
X117845659Y-121325000D01*
X117825063Y-121089592D01*
X117763903Y-120861337D01*
X117664035Y-120647171D01*
X117528495Y-120453599D01*
X117528494Y-120453597D01*
X117361402Y-120286506D01*
X117361396Y-120286501D01*
X117175842Y-120156575D01*
X117132217Y-120101998D01*
X117125023Y-120032500D01*
X117156546Y-119970145D01*
X117175842Y-119953425D01*
X117198026Y-119937891D01*
X117361401Y-119823495D01*
X117528495Y-119656401D01*
X117664035Y-119462830D01*
X117763903Y-119248663D01*
X117817705Y-119047870D01*
X123799500Y-119047870D01*
X123799501Y-119047876D01*
X123805908Y-119107483D01*
X123856202Y-119242328D01*
X123856206Y-119242335D01*
X123942452Y-119357544D01*
X123942455Y-119357547D01*
X124057664Y-119443793D01*
X124057671Y-119443797D01*
X124192517Y-119494091D01*
X124192516Y-119494091D01*
X124199444Y-119494835D01*
X124252127Y-119500500D01*
X128347872Y-119500499D01*
X128407483Y-119494091D01*
X128542331Y-119443796D01*
X128657546Y-119357546D01*
X128743796Y-119242331D01*
X128794091Y-119107483D01*
X128800500Y-119047873D01*
X128800500Y-118997870D01*
X136899500Y-118997870D01*
X136899501Y-118997876D01*
X136905908Y-119057483D01*
X136956202Y-119192328D01*
X136956206Y-119192335D01*
X137042452Y-119307544D01*
X137042455Y-119307547D01*
X137157664Y-119393793D01*
X137157671Y-119393797D01*
X137292517Y-119444091D01*
X137292516Y-119444091D01*
X137299444Y-119444835D01*
X137352127Y-119450500D01*
X141447872Y-119450499D01*
X141507483Y-119444091D01*
X141642331Y-119393796D01*
X141757546Y-119307546D01*
X141843796Y-119192331D01*
X141894091Y-119057483D01*
X141900500Y-118997873D01*
X141900500Y-118997870D01*
X150149500Y-118997870D01*
X150149501Y-118997876D01*
X150155908Y-119057483D01*
X150206202Y-119192328D01*
X150206206Y-119192335D01*
X150292452Y-119307544D01*
X150292455Y-119307547D01*
X150407664Y-119393793D01*
X150407671Y-119393797D01*
X150542517Y-119444091D01*
X150542516Y-119444091D01*
X150549444Y-119444835D01*
X150602127Y-119450500D01*
X154697872Y-119450499D01*
X154757483Y-119444091D01*
X154892331Y-119393796D01*
X155007546Y-119307546D01*
X155093796Y-119192331D01*
X155144091Y-119057483D01*
X155150500Y-118997873D01*
X155150499Y-116902128D01*
X155144091Y-116842517D01*
X155093796Y-116707669D01*
X155093795Y-116707668D01*
X155093793Y-116707664D01*
X155007547Y-116592455D01*
X155007544Y-116592452D01*
X154892335Y-116506206D01*
X154892328Y-116506202D01*
X154757482Y-116455908D01*
X154757483Y-116455908D01*
X154697883Y-116449501D01*
X154697881Y-116449500D01*
X154697873Y-116449500D01*
X154697864Y-116449500D01*
X150602129Y-116449500D01*
X150602123Y-116449501D01*
X150542516Y-116455908D01*
X150407671Y-116506202D01*
X150407664Y-116506206D01*
X150292455Y-116592452D01*
X150292452Y-116592455D01*
X150206206Y-116707664D01*
X150206202Y-116707671D01*
X150155908Y-116842517D01*
X150151103Y-116887217D01*
X150149501Y-116902123D01*
X150149500Y-116902135D01*
X150149500Y-118997870D01*
X141900500Y-118997870D01*
X141900499Y-116902128D01*
X141894091Y-116842517D01*
X141843796Y-116707669D01*
X141843795Y-116707668D01*
X141843793Y-116707664D01*
X141757547Y-116592455D01*
X141757544Y-116592452D01*
X141642335Y-116506206D01*
X141642328Y-116506202D01*
X141507482Y-116455908D01*
X141507483Y-116455908D01*
X141447883Y-116449501D01*
X141447881Y-116449500D01*
X141447873Y-116449500D01*
X141447864Y-116449500D01*
X137352129Y-116449500D01*
X137352123Y-116449501D01*
X137292516Y-116455908D01*
X137157671Y-116506202D01*
X137157664Y-116506206D01*
X137042455Y-116592452D01*
X137042452Y-116592455D01*
X136956206Y-116707664D01*
X136956202Y-116707671D01*
X136905908Y-116842517D01*
X136901103Y-116887217D01*
X136899501Y-116902123D01*
X136899500Y-116902135D01*
X136899500Y-118997870D01*
X128800500Y-118997870D01*
X128800499Y-116952128D01*
X128794091Y-116892517D01*
X128792114Y-116887217D01*
X128743797Y-116757671D01*
X128743793Y-116757664D01*
X128657547Y-116642455D01*
X128657544Y-116642452D01*
X128542335Y-116556206D01*
X128542328Y-116556202D01*
X128407482Y-116505908D01*
X128407483Y-116505908D01*
X128347883Y-116499501D01*
X128347881Y-116499500D01*
X128347873Y-116499500D01*
X128347864Y-116499500D01*
X124252129Y-116499500D01*
X124252123Y-116499501D01*
X124192516Y-116505908D01*
X124057671Y-116556202D01*
X124057664Y-116556206D01*
X123942455Y-116642452D01*
X123942452Y-116642455D01*
X123856206Y-116757664D01*
X123856202Y-116757671D01*
X123805908Y-116892517D01*
X123802649Y-116922834D01*
X123799501Y-116952123D01*
X123799500Y-116952135D01*
X123799500Y-119047870D01*
X117817705Y-119047870D01*
X117825063Y-119020408D01*
X117845659Y-118785000D01*
X117825063Y-118549592D01*
X117763903Y-118321337D01*
X117664035Y-118107171D01*
X117658425Y-118099158D01*
X117528494Y-117913597D01*
X117361402Y-117746506D01*
X117361396Y-117746501D01*
X117175842Y-117616575D01*
X117132217Y-117561998D01*
X117125023Y-117492500D01*
X117156546Y-117430145D01*
X117175842Y-117413425D01*
X117198026Y-117397891D01*
X117361401Y-117283495D01*
X117528495Y-117116401D01*
X117664035Y-116922830D01*
X117763903Y-116708663D01*
X117825063Y-116480408D01*
X117845659Y-116245000D01*
X117825063Y-116009592D01*
X117763903Y-115781337D01*
X117664035Y-115567171D01*
X117658425Y-115559158D01*
X117528494Y-115373597D01*
X117361402Y-115206506D01*
X117361396Y-115206501D01*
X117175842Y-115076575D01*
X117132217Y-115021998D01*
X117125023Y-114952500D01*
X117156546Y-114890145D01*
X117175842Y-114873425D01*
X117198026Y-114857891D01*
X117361401Y-114743495D01*
X117528495Y-114576401D01*
X117664035Y-114382830D01*
X117763903Y-114168663D01*
X117825063Y-113940408D01*
X117845659Y-113705000D01*
X117825063Y-113469592D01*
X117763903Y-113241337D01*
X117664035Y-113027171D01*
X117658425Y-113019158D01*
X117528494Y-112833597D01*
X117361402Y-112666506D01*
X117361396Y-112666501D01*
X117175842Y-112536575D01*
X117132217Y-112481998D01*
X117125023Y-112412500D01*
X117156546Y-112350145D01*
X117175842Y-112333425D01*
X117198026Y-112317891D01*
X117361401Y-112203495D01*
X117528495Y-112036401D01*
X117664035Y-111842830D01*
X117763903Y-111628663D01*
X117825063Y-111400408D01*
X117845659Y-111165000D01*
X117825063Y-110929592D01*
X117763903Y-110701337D01*
X117664035Y-110487171D01*
X117658425Y-110479158D01*
X117528494Y-110293597D01*
X117361402Y-110126506D01*
X117361396Y-110126501D01*
X117175842Y-109996575D01*
X117132217Y-109941998D01*
X117125023Y-109872500D01*
X117156546Y-109810145D01*
X117175842Y-109793425D01*
X117349694Y-109671692D01*
X117361401Y-109663495D01*
X117528495Y-109496401D01*
X117664035Y-109302830D01*
X117763903Y-109088663D01*
X117825063Y-108860408D01*
X117845659Y-108625000D01*
X117825063Y-108389592D01*
X117763903Y-108161337D01*
X117664035Y-107947171D01*
X117658425Y-107939158D01*
X117528494Y-107753597D01*
X117361402Y-107586506D01*
X117361396Y-107586501D01*
X117175842Y-107456575D01*
X117132217Y-107401998D01*
X117125023Y-107332500D01*
X117156546Y-107270145D01*
X117175842Y-107253425D01*
X117198026Y-107237891D01*
X117361401Y-107123495D01*
X117528495Y-106956401D01*
X117664035Y-106762830D01*
X117763903Y-106548663D01*
X117825063Y-106320408D01*
X117845659Y-106085000D01*
X117825063Y-105849592D01*
X117763903Y-105621337D01*
X117664035Y-105407171D01*
X117662484Y-105404955D01*
X117528494Y-105213597D01*
X117361402Y-105046506D01*
X117361396Y-105046501D01*
X117175842Y-104916575D01*
X117132217Y-104861998D01*
X117125023Y-104792500D01*
X117156546Y-104730145D01*
X117175842Y-104713425D01*
X117277139Y-104642496D01*
X117361401Y-104583495D01*
X117528495Y-104416401D01*
X117664035Y-104222830D01*
X117763903Y-104008663D01*
X117825063Y-103780408D01*
X117845659Y-103545000D01*
X117825063Y-103309592D01*
X117763903Y-103081337D01*
X117664035Y-102867171D01*
X117658425Y-102859158D01*
X117528494Y-102673597D01*
X117361402Y-102506506D01*
X117361396Y-102506501D01*
X117175842Y-102376575D01*
X117132217Y-102321998D01*
X117125023Y-102252500D01*
X117156546Y-102190145D01*
X117175842Y-102173425D01*
X117241768Y-102127263D01*
X117361401Y-102043495D01*
X117528495Y-101876401D01*
X117664035Y-101682830D01*
X117763903Y-101468663D01*
X117825063Y-101240408D01*
X117845659Y-101005000D01*
X117825063Y-100769592D01*
X117763903Y-100541337D01*
X117664035Y-100327171D01*
X117658425Y-100319158D01*
X117528494Y-100133597D01*
X117361402Y-99966506D01*
X117361396Y-99966501D01*
X117175842Y-99836575D01*
X117132217Y-99781998D01*
X117125023Y-99712500D01*
X117156546Y-99650145D01*
X117175842Y-99633425D01*
X117198026Y-99617891D01*
X117361401Y-99503495D01*
X117528495Y-99336401D01*
X117664035Y-99142830D01*
X117763903Y-98928663D01*
X117825063Y-98700408D01*
X117845659Y-98465000D01*
X117825063Y-98229592D01*
X117763903Y-98001337D01*
X117664035Y-97787171D01*
X117658425Y-97779158D01*
X117528494Y-97593597D01*
X117361402Y-97426506D01*
X117361396Y-97426501D01*
X117175842Y-97296575D01*
X117132217Y-97241998D01*
X117125023Y-97172500D01*
X117156546Y-97110145D01*
X117175842Y-97093425D01*
X117348249Y-96972704D01*
X117361401Y-96963495D01*
X117528495Y-96796401D01*
X117664035Y-96602830D01*
X117763903Y-96388663D01*
X117825063Y-96160408D01*
X117845659Y-95925000D01*
X117825063Y-95689592D01*
X117763903Y-95461337D01*
X117664035Y-95247171D01*
X117658425Y-95239158D01*
X117528494Y-95053597D01*
X117361402Y-94886506D01*
X117361396Y-94886501D01*
X117175842Y-94756575D01*
X117132217Y-94701998D01*
X117125023Y-94632500D01*
X117156546Y-94570145D01*
X117175842Y-94553425D01*
X117198026Y-94537891D01*
X117361401Y-94423495D01*
X117528495Y-94256401D01*
X117648933Y-94084397D01*
X117703506Y-94040775D01*
X117773005Y-94033581D01*
X117835360Y-94065103D01*
X117838186Y-94067842D01*
X121278994Y-97508650D01*
X121404706Y-97581230D01*
X121544920Y-97618800D01*
X121690080Y-97618800D01*
X155335850Y-97618800D01*
X155401822Y-97637806D01*
X155402621Y-97638308D01*
X155541050Y-97725289D01*
X155695364Y-97779286D01*
X155695367Y-97779286D01*
X155695369Y-97779287D01*
X155857821Y-97797591D01*
X155857825Y-97797591D01*
X155857829Y-97797591D01*
X156020280Y-97779287D01*
X156020281Y-97779286D01*
X156020286Y-97779286D01*
X156174600Y-97725289D01*
X156313029Y-97638308D01*
X156428633Y-97522704D01*
X156515614Y-97384275D01*
X156539991Y-97314608D01*
X156580711Y-97257833D01*
X156643149Y-97232343D01*
X156670286Y-97229286D01*
X156824600Y-97175289D01*
X156963029Y-97088308D01*
X157078633Y-96972704D01*
X157165614Y-96834275D01*
X157219611Y-96679961D01*
X157229573Y-96591546D01*
X157237916Y-96517503D01*
X157237916Y-96517497D01*
X157221690Y-96373487D01*
X157233744Y-96304665D01*
X157281094Y-96253285D01*
X157348704Y-96235661D01*
X157415110Y-96257388D01*
X157432591Y-96271922D01*
X158353346Y-97192677D01*
X158386831Y-97254000D01*
X158388885Y-97266474D01*
X158396037Y-97329955D01*
X158446709Y-97474767D01*
X158450270Y-97544546D01*
X158446709Y-97556673D01*
X158421038Y-97630040D01*
X158421037Y-97630042D01*
X158402734Y-97792496D01*
X158402734Y-97792503D01*
X158421037Y-97954955D01*
X158459209Y-98064046D01*
X158462770Y-98133825D01*
X158459209Y-98145954D01*
X158421037Y-98255044D01*
X158402734Y-98417496D01*
X158402734Y-98417503D01*
X158421037Y-98579955D01*
X158475036Y-98734276D01*
X158528151Y-98818807D01*
X158547152Y-98886044D01*
X158526785Y-98952879D01*
X158510839Y-98972461D01*
X156404220Y-101079081D01*
X156342897Y-101112566D01*
X156316539Y-101115400D01*
X156208871Y-101115400D01*
X156085220Y-101148532D01*
X156068654Y-101152971D01*
X155942949Y-101225547D01*
X155942943Y-101225552D01*
X155541677Y-101626818D01*
X155541672Y-101626824D01*
X155469096Y-101752529D01*
X155469096Y-101752530D01*
X155469095Y-101752532D01*
X155469095Y-101752533D01*
X155435906Y-101876396D01*
X155431525Y-101892747D01*
X155431525Y-102145525D01*
X155412519Y-102211497D01*
X155325035Y-102350725D01*
X155271037Y-102505044D01*
X155252734Y-102667496D01*
X155252734Y-102667503D01*
X155271037Y-102829955D01*
X155325035Y-102984274D01*
X155412017Y-103122704D01*
X155531632Y-103242319D01*
X155565117Y-103303642D01*
X155560133Y-103373334D01*
X155531632Y-103417681D01*
X155412017Y-103537295D01*
X155325035Y-103675725D01*
X155271037Y-103830044D01*
X155252734Y-103992496D01*
X155252734Y-103992503D01*
X155271037Y-104154955D01*
X155325035Y-104309274D01*
X155412017Y-104447704D01*
X155527621Y-104563308D01*
X155666050Y-104650289D01*
X155820364Y-104704286D01*
X155820367Y-104704286D01*
X155820369Y-104704287D01*
X155982821Y-104722591D01*
X155982825Y-104722591D01*
X155982829Y-104722591D01*
X156145280Y-104704287D01*
X156145281Y-104704286D01*
X156145286Y-104704286D01*
X156299600Y-104650289D01*
X156438029Y-104563308D01*
X156438028Y-104563308D01*
X156438828Y-104562806D01*
X156499576Y-104545304D01*
X156499518Y-104544861D01*
X156502463Y-104544473D01*
X156504800Y-104543800D01*
X156507576Y-104543800D01*
X156507578Y-104543800D01*
X156647792Y-104506230D01*
X156773504Y-104433650D01*
X157527975Y-103679179D01*
X157600555Y-103553467D01*
X157638125Y-103413253D01*
X157638125Y-103268092D01*
X157638125Y-102876818D01*
X157657810Y-102809779D01*
X157710614Y-102764024D01*
X157779772Y-102754080D01*
X157843328Y-102783105D01*
X157849806Y-102789137D01*
X158478346Y-103417677D01*
X158511831Y-103479000D01*
X158513885Y-103491474D01*
X158521037Y-103554955D01*
X158575035Y-103709274D01*
X158626084Y-103790518D01*
X158645084Y-103857755D01*
X158644310Y-103870373D01*
X158627734Y-104017495D01*
X158627734Y-104017503D01*
X158646037Y-104179955D01*
X158646756Y-104183103D01*
X158646627Y-104185194D01*
X158646818Y-104186882D01*
X158646522Y-104186915D01*
X158642483Y-104252842D01*
X158630860Y-104276667D01*
X158600036Y-104325723D01*
X158600034Y-104325728D01*
X158546037Y-104480044D01*
X158527734Y-104642496D01*
X158527734Y-104642503D01*
X158546037Y-104804955D01*
X158592335Y-104937267D01*
X158595896Y-105007046D01*
X158592335Y-105019174D01*
X158571038Y-105080039D01*
X158571038Y-105080040D01*
X158552734Y-105242496D01*
X158552734Y-105242503D01*
X158571037Y-105404955D01*
X158625035Y-105559274D01*
X158712017Y-105697704D01*
X158717309Y-105702996D01*
X158750794Y-105764319D01*
X158745810Y-105834011D01*
X158717309Y-105878358D01*
X156432646Y-108163021D01*
X156371323Y-108196506D01*
X156358851Y-108198560D01*
X156295364Y-108205714D01*
X156141050Y-108259710D01*
X156002620Y-108346692D01*
X155887017Y-108462295D01*
X155800035Y-108600725D01*
X155746037Y-108755044D01*
X155741190Y-108798066D01*
X155714123Y-108862480D01*
X155683943Y-108889175D01*
X155552623Y-108971690D01*
X155552620Y-108971692D01*
X155437017Y-109087295D01*
X155350035Y-109225725D01*
X155296037Y-109380044D01*
X155277734Y-109542496D01*
X155277734Y-109542503D01*
X155296037Y-109704955D01*
X155350035Y-109859274D01*
X155437017Y-109997704D01*
X155556632Y-110117319D01*
X155590117Y-110178642D01*
X155585133Y-110248334D01*
X155556632Y-110292681D01*
X155462017Y-110387295D01*
X155375035Y-110525725D01*
X155321037Y-110680044D01*
X155302734Y-110842496D01*
X155302734Y-110842503D01*
X155321037Y-111004955D01*
X155375035Y-111159274D01*
X155462017Y-111297704D01*
X155577621Y-111413308D01*
X155716050Y-111500289D01*
X155870364Y-111554286D01*
X155870367Y-111554286D01*
X155870369Y-111554287D01*
X156032821Y-111572591D01*
X156032825Y-111572591D01*
X156032829Y-111572591D01*
X156195280Y-111554287D01*
X156195281Y-111554286D01*
X156195286Y-111554286D01*
X156349600Y-111500289D01*
X156488029Y-111413308D01*
X156488033Y-111413303D01*
X156493472Y-111408967D01*
X156495057Y-111410955D01*
X156539612Y-111385216D01*
X156647792Y-111356230D01*
X156773504Y-111283650D01*
X161715444Y-106341710D01*
X161776767Y-106308225D01*
X161846459Y-106313209D01*
X161902392Y-106355081D01*
X161926809Y-106420545D01*
X161927125Y-106429391D01*
X161927125Y-106717181D01*
X161907440Y-106784220D01*
X161890806Y-106804862D01*
X159207646Y-109488021D01*
X159146323Y-109521506D01*
X159133851Y-109523560D01*
X159070364Y-109530714D01*
X158916050Y-109584710D01*
X158777620Y-109671692D01*
X158662017Y-109787295D01*
X158575035Y-109925725D01*
X158521037Y-110080044D01*
X158502734Y-110242496D01*
X158502734Y-110242503D01*
X158521037Y-110404955D01*
X158571709Y-110549767D01*
X158575270Y-110619546D01*
X158571709Y-110631673D01*
X158546038Y-110705040D01*
X158546037Y-110705042D01*
X158527734Y-110867496D01*
X158527734Y-110867503D01*
X158546037Y-111029956D01*
X158579835Y-111126547D01*
X158583396Y-111196325D01*
X158579835Y-111208453D01*
X158546037Y-111305043D01*
X158527734Y-111467496D01*
X158527734Y-111467503D01*
X158546038Y-111629959D01*
X158567335Y-111690823D01*
X158570896Y-111760602D01*
X158567335Y-111772731D01*
X158521037Y-111905044D01*
X158502734Y-112067496D01*
X158502734Y-112067503D01*
X158521037Y-112229955D01*
X158575035Y-112384274D01*
X158592771Y-112412500D01*
X158662017Y-112522704D01*
X158777621Y-112638308D01*
X158916050Y-112725289D01*
X159070364Y-112779286D01*
X159070367Y-112779286D01*
X159070369Y-112779287D01*
X159232821Y-112797591D01*
X159232825Y-112797591D01*
X159232829Y-112797591D01*
X159395280Y-112779287D01*
X159395281Y-112779286D01*
X159395286Y-112779286D01*
X159549600Y-112725289D01*
X159688029Y-112638308D01*
X159803633Y-112522704D01*
X159890614Y-112384275D01*
X159944611Y-112229961D01*
X159948313Y-112197098D01*
X159975377Y-112132687D01*
X159983842Y-112123310D01*
X162603291Y-109503862D01*
X162664610Y-109470380D01*
X162734302Y-109475364D01*
X162790235Y-109517236D01*
X162814652Y-109582700D01*
X162814966Y-109590825D01*
X162924244Y-128395089D01*
X162911463Y-128450644D01*
X162908595Y-128456461D01*
X162861294Y-128507885D01*
X162797990Y-128525625D01*
X162204192Y-128528554D01*
X162137056Y-128509201D01*
X162091041Y-128456623D01*
X162080757Y-128387515D01*
X162103262Y-128331671D01*
X162212287Y-128181610D01*
X162305220Y-127999219D01*
X162368477Y-127804534D01*
X162400500Y-127602352D01*
X162400500Y-127397648D01*
X162368477Y-127195466D01*
X162305220Y-127000781D01*
X162305218Y-127000778D01*
X162305218Y-127000776D01*
X162252101Y-126896530D01*
X162212287Y-126818390D01*
X162199759Y-126801146D01*
X162091971Y-126652786D01*
X161947213Y-126508028D01*
X161781613Y-126387715D01*
X161781612Y-126387714D01*
X161781610Y-126387713D01*
X161724653Y-126358691D01*
X161599223Y-126294781D01*
X161404534Y-126231522D01*
X161229995Y-126203878D01*
X161202352Y-126199500D01*
X160997648Y-126199500D01*
X160973329Y-126203351D01*
X160795465Y-126231522D01*
X160600776Y-126294781D01*
X160418386Y-126387715D01*
X160252786Y-126508028D01*
X160108028Y-126652786D01*
X159987715Y-126818386D01*
X159894781Y-127000776D01*
X159831522Y-127195465D01*
X159799500Y-127397648D01*
X159799500Y-127602351D01*
X159831522Y-127804534D01*
X159894781Y-127999223D01*
X159958691Y-128124653D01*
X159985423Y-128177116D01*
X159987715Y-128181613D01*
X160104619Y-128342520D01*
X160128099Y-128408327D01*
X160112273Y-128476380D01*
X160062167Y-128525075D01*
X160004913Y-128539403D01*
X109320053Y-128789418D01*
X109252917Y-128770065D01*
X109206902Y-128717487D01*
X109196618Y-128648379D01*
X109225329Y-128584681D01*
X109246556Y-128565101D01*
X109347219Y-128491966D01*
X109491966Y-128347219D01*
X109491968Y-128347215D01*
X109491971Y-128347213D01*
X109573563Y-128234909D01*
X109612287Y-128181610D01*
X109705220Y-127999219D01*
X109768477Y-127804534D01*
X109800500Y-127602352D01*
X109800500Y-127397648D01*
X109768477Y-127195466D01*
X109705220Y-127000781D01*
X109705218Y-127000778D01*
X109705218Y-127000776D01*
X109652101Y-126896530D01*
X109612287Y-126818390D01*
X109599759Y-126801146D01*
X109491971Y-126652786D01*
X109347213Y-126508028D01*
X109181613Y-126387715D01*
X109181612Y-126387714D01*
X109181610Y-126387713D01*
X109124653Y-126358691D01*
X108999223Y-126294781D01*
X108804534Y-126231522D01*
X108629995Y-126203878D01*
X108602352Y-126199500D01*
X108397648Y-126199500D01*
X108373329Y-126203351D01*
X108195465Y-126231522D01*
X108000776Y-126294781D01*
X107818386Y-126387715D01*
X107652786Y-126508028D01*
X107508032Y-126652782D01*
X107508028Y-126652787D01*
X107400240Y-126801146D01*
X107344910Y-126843812D01*
X107275297Y-126849791D01*
X107213502Y-126817186D01*
X107179145Y-126756347D01*
X107175922Y-126728206D01*
X107176305Y-125868097D01*
X120299500Y-125868097D01*
X120336446Y-126101368D01*
X120409433Y-126325996D01*
X120499317Y-126502402D01*
X120516657Y-126536433D01*
X120655483Y-126727510D01*
X120822490Y-126894517D01*
X121013567Y-127033343D01*
X121053059Y-127053465D01*
X121224003Y-127140566D01*
X121224005Y-127140566D01*
X121224008Y-127140568D01*
X121344412Y-127179689D01*
X121448631Y-127213553D01*
X121681903Y-127250500D01*
X121681908Y-127250500D01*
X121918097Y-127250500D01*
X122151368Y-127213553D01*
X122375992Y-127140568D01*
X122448803Y-127103469D01*
X125249500Y-127103469D01*
X125289868Y-127306412D01*
X125289870Y-127306420D01*
X125369058Y-127497596D01*
X125484024Y-127669657D01*
X125630342Y-127815975D01*
X125630345Y-127815977D01*
X125802402Y-127930941D01*
X125993580Y-128010130D01*
X126196530Y-128050499D01*
X126196534Y-128050500D01*
X126196535Y-128050500D01*
X126403466Y-128050500D01*
X126403467Y-128050499D01*
X126606420Y-128010130D01*
X126797598Y-127930941D01*
X126969655Y-127815977D01*
X127115977Y-127669655D01*
X127230941Y-127497598D01*
X127310130Y-127306420D01*
X127350500Y-127103465D01*
X127350500Y-126896535D01*
X127310130Y-126693580D01*
X127230941Y-126502402D01*
X127115977Y-126330345D01*
X127115975Y-126330342D01*
X126969657Y-126184024D01*
X126845952Y-126101368D01*
X126797598Y-126069059D01*
X126754888Y-126051368D01*
X126606420Y-125989870D01*
X126606412Y-125989868D01*
X126403469Y-125949500D01*
X126403465Y-125949500D01*
X126196535Y-125949500D01*
X126196530Y-125949500D01*
X125993587Y-125989868D01*
X125993579Y-125989870D01*
X125802403Y-126069058D01*
X125630342Y-126184024D01*
X125484024Y-126330342D01*
X125369058Y-126502403D01*
X125289870Y-126693579D01*
X125289868Y-126693587D01*
X125249500Y-126896530D01*
X125249500Y-127103469D01*
X122448803Y-127103469D01*
X122586433Y-127033343D01*
X122777510Y-126894517D01*
X122944517Y-126727510D01*
X123083343Y-126536433D01*
X123190568Y-126325992D01*
X123263553Y-126101368D01*
X123271472Y-126051368D01*
X123300500Y-125868097D01*
X129299500Y-125868097D01*
X129336446Y-126101368D01*
X129409433Y-126325996D01*
X129499317Y-126502402D01*
X129516657Y-126536433D01*
X129655483Y-126727510D01*
X129822490Y-126894517D01*
X130013567Y-127033343D01*
X130053059Y-127053465D01*
X130224003Y-127140566D01*
X130224005Y-127140566D01*
X130224008Y-127140568D01*
X130344412Y-127179689D01*
X130448631Y-127213553D01*
X130681903Y-127250500D01*
X130681908Y-127250500D01*
X130918097Y-127250500D01*
X131151368Y-127213553D01*
X131375992Y-127140568D01*
X131586433Y-127033343D01*
X131777510Y-126894517D01*
X131944517Y-126727510D01*
X132083343Y-126536433D01*
X132190568Y-126325992D01*
X132263553Y-126101368D01*
X132271472Y-126051368D01*
X132300500Y-125868097D01*
X132300500Y-125818097D01*
X133399500Y-125818097D01*
X133436446Y-126051368D01*
X133509433Y-126275996D01*
X133599317Y-126452402D01*
X133616657Y-126486433D01*
X133755483Y-126677510D01*
X133922490Y-126844517D01*
X134113567Y-126983343D01*
X134211696Y-127033342D01*
X134324003Y-127090566D01*
X134324005Y-127090566D01*
X134324008Y-127090568D01*
X134444412Y-127129689D01*
X134548631Y-127163553D01*
X134781903Y-127200500D01*
X134781908Y-127200500D01*
X135018097Y-127200500D01*
X135251368Y-127163553D01*
X135322114Y-127140566D01*
X135475992Y-127090568D01*
X135548803Y-127053469D01*
X138349500Y-127053469D01*
X138388692Y-127250500D01*
X138389870Y-127256420D01*
X138469059Y-127447598D01*
X138502468Y-127497598D01*
X138584024Y-127619657D01*
X138730342Y-127765975D01*
X138730345Y-127765977D01*
X138902402Y-127880941D01*
X139093580Y-127960130D01*
X139290095Y-127999219D01*
X139296530Y-128000499D01*
X139296534Y-128000500D01*
X139296535Y-128000500D01*
X139503466Y-128000500D01*
X139503467Y-128000499D01*
X139706420Y-127960130D01*
X139897598Y-127880941D01*
X140069655Y-127765977D01*
X140215977Y-127619655D01*
X140330941Y-127447598D01*
X140410130Y-127256420D01*
X140450500Y-127053465D01*
X140450500Y-126846535D01*
X140410130Y-126643580D01*
X140330941Y-126452402D01*
X140215977Y-126280345D01*
X140215975Y-126280342D01*
X140069657Y-126134024D01*
X139945952Y-126051368D01*
X139897598Y-126019059D01*
X139706420Y-125939870D01*
X139706412Y-125939868D01*
X139503469Y-125899500D01*
X139503465Y-125899500D01*
X139296535Y-125899500D01*
X139296530Y-125899500D01*
X139093587Y-125939868D01*
X139093579Y-125939870D01*
X138902403Y-126019058D01*
X138730342Y-126134024D01*
X138584024Y-126280342D01*
X138469058Y-126452403D01*
X138389870Y-126643579D01*
X138389868Y-126643587D01*
X138349500Y-126846530D01*
X138349500Y-127053469D01*
X135548803Y-127053469D01*
X135686433Y-126983343D01*
X135877510Y-126844517D01*
X136044517Y-126677510D01*
X136183343Y-126486433D01*
X136290568Y-126275992D01*
X136363553Y-126051368D01*
X136373294Y-125989868D01*
X136400500Y-125818097D01*
X142399500Y-125818097D01*
X142436446Y-126051368D01*
X142509433Y-126275996D01*
X142599317Y-126452402D01*
X142616657Y-126486433D01*
X142755483Y-126677510D01*
X142922490Y-126844517D01*
X143113567Y-126983343D01*
X143211696Y-127033342D01*
X143324003Y-127090566D01*
X143324005Y-127090566D01*
X143324008Y-127090568D01*
X143444412Y-127129689D01*
X143548631Y-127163553D01*
X143781903Y-127200500D01*
X143781908Y-127200500D01*
X144018097Y-127200500D01*
X144251368Y-127163553D01*
X144322114Y-127140566D01*
X144475992Y-127090568D01*
X144686433Y-126983343D01*
X144877510Y-126844517D01*
X145044517Y-126677510D01*
X145183343Y-126486433D01*
X145290568Y-126275992D01*
X145363553Y-126051368D01*
X145373294Y-125989868D01*
X145400500Y-125818097D01*
X146649500Y-125818097D01*
X146686446Y-126051368D01*
X146759433Y-126275996D01*
X146849317Y-126452402D01*
X146866657Y-126486433D01*
X147005483Y-126677510D01*
X147172490Y-126844517D01*
X147363567Y-126983343D01*
X147461696Y-127033342D01*
X147574003Y-127090566D01*
X147574005Y-127090566D01*
X147574008Y-127090568D01*
X147694412Y-127129689D01*
X147798631Y-127163553D01*
X148031903Y-127200500D01*
X148031908Y-127200500D01*
X148268097Y-127200500D01*
X148501368Y-127163553D01*
X148572114Y-127140566D01*
X148725992Y-127090568D01*
X148798803Y-127053469D01*
X151599500Y-127053469D01*
X151638692Y-127250500D01*
X151639870Y-127256420D01*
X151719059Y-127447598D01*
X151752468Y-127497598D01*
X151834024Y-127619657D01*
X151980342Y-127765975D01*
X151980345Y-127765977D01*
X152152402Y-127880941D01*
X152343580Y-127960130D01*
X152540095Y-127999219D01*
X152546530Y-128000499D01*
X152546534Y-128000500D01*
X152546535Y-128000500D01*
X152753466Y-128000500D01*
X152753467Y-128000499D01*
X152956420Y-127960130D01*
X153147598Y-127880941D01*
X153319655Y-127765977D01*
X153465977Y-127619655D01*
X153580941Y-127447598D01*
X153660130Y-127256420D01*
X153700500Y-127053465D01*
X153700500Y-126846535D01*
X153660130Y-126643580D01*
X153580941Y-126452402D01*
X153465977Y-126280345D01*
X153465975Y-126280342D01*
X153319657Y-126134024D01*
X153195952Y-126051368D01*
X153147598Y-126019059D01*
X152956420Y-125939870D01*
X152956412Y-125939868D01*
X152753469Y-125899500D01*
X152753465Y-125899500D01*
X152546535Y-125899500D01*
X152546530Y-125899500D01*
X152343587Y-125939868D01*
X152343579Y-125939870D01*
X152152403Y-126019058D01*
X151980342Y-126134024D01*
X151834024Y-126280342D01*
X151719058Y-126452403D01*
X151639870Y-126643579D01*
X151639868Y-126643587D01*
X151599500Y-126846530D01*
X151599500Y-127053469D01*
X148798803Y-127053469D01*
X148936433Y-126983343D01*
X149127510Y-126844517D01*
X149294517Y-126677510D01*
X149433343Y-126486433D01*
X149540568Y-126275992D01*
X149613553Y-126051368D01*
X149623294Y-125989868D01*
X149650500Y-125818097D01*
X155649500Y-125818097D01*
X155686446Y-126051368D01*
X155759433Y-126275996D01*
X155849317Y-126452402D01*
X155866657Y-126486433D01*
X156005483Y-126677510D01*
X156172490Y-126844517D01*
X156363567Y-126983343D01*
X156461696Y-127033342D01*
X156574003Y-127090566D01*
X156574005Y-127090566D01*
X156574008Y-127090568D01*
X156694412Y-127129689D01*
X156798631Y-127163553D01*
X157031903Y-127200500D01*
X157031908Y-127200500D01*
X157268097Y-127200500D01*
X157501368Y-127163553D01*
X157572114Y-127140566D01*
X157725992Y-127090568D01*
X157936433Y-126983343D01*
X158127510Y-126844517D01*
X158294517Y-126677510D01*
X158433343Y-126486433D01*
X158540568Y-126275992D01*
X158613553Y-126051368D01*
X158623294Y-125989868D01*
X158650500Y-125818097D01*
X158650500Y-124081902D01*
X158613553Y-123848631D01*
X158556812Y-123674003D01*
X158540568Y-123624008D01*
X158540566Y-123624005D01*
X158540566Y-123624003D01*
X158433342Y-123413566D01*
X158418376Y-123392967D01*
X158294517Y-123222490D01*
X158127510Y-123055483D01*
X157936433Y-122916657D01*
X157725996Y-122809433D01*
X157501368Y-122736446D01*
X157268097Y-122699500D01*
X157268092Y-122699500D01*
X157031908Y-122699500D01*
X157031903Y-122699500D01*
X156798631Y-122736446D01*
X156574003Y-122809433D01*
X156363566Y-122916657D01*
X156257666Y-122993599D01*
X156172490Y-123055483D01*
X156172488Y-123055485D01*
X156172487Y-123055485D01*
X156005485Y-123222487D01*
X156005485Y-123222488D01*
X156005483Y-123222490D01*
X155969158Y-123272487D01*
X155866657Y-123413566D01*
X155759433Y-123624003D01*
X155686446Y-123848631D01*
X155649500Y-124081902D01*
X155649500Y-125818097D01*
X149650500Y-125818097D01*
X149650500Y-124081902D01*
X149613553Y-123848631D01*
X149556812Y-123674003D01*
X149540568Y-123624008D01*
X149540566Y-123624005D01*
X149540566Y-123624003D01*
X149433342Y-123413566D01*
X149418376Y-123392967D01*
X149294517Y-123222490D01*
X149127510Y-123055483D01*
X148936433Y-122916657D01*
X148725996Y-122809433D01*
X148501368Y-122736446D01*
X148268097Y-122699500D01*
X148268092Y-122699500D01*
X148031908Y-122699500D01*
X148031903Y-122699500D01*
X147798631Y-122736446D01*
X147574003Y-122809433D01*
X147363566Y-122916657D01*
X147257666Y-122993599D01*
X147172490Y-123055483D01*
X147172488Y-123055485D01*
X147172487Y-123055485D01*
X147005485Y-123222487D01*
X147005485Y-123222488D01*
X147005483Y-123222490D01*
X146969158Y-123272487D01*
X146866657Y-123413566D01*
X146759433Y-123624003D01*
X146686446Y-123848631D01*
X146649500Y-124081902D01*
X146649500Y-125818097D01*
X145400500Y-125818097D01*
X145400500Y-124081902D01*
X145363553Y-123848631D01*
X145306812Y-123674003D01*
X145290568Y-123624008D01*
X145290566Y-123624005D01*
X145290566Y-123624003D01*
X145183342Y-123413566D01*
X145168376Y-123392967D01*
X145044517Y-123222490D01*
X144877510Y-123055483D01*
X144686433Y-122916657D01*
X144475996Y-122809433D01*
X144251368Y-122736446D01*
X144018097Y-122699500D01*
X144018092Y-122699500D01*
X143781908Y-122699500D01*
X143781903Y-122699500D01*
X143548631Y-122736446D01*
X143324003Y-122809433D01*
X143113566Y-122916657D01*
X143007666Y-122993599D01*
X142922490Y-123055483D01*
X142922488Y-123055485D01*
X142922487Y-123055485D01*
X142755485Y-123222487D01*
X142755485Y-123222488D01*
X142755483Y-123222490D01*
X142719158Y-123272487D01*
X142616657Y-123413566D01*
X142509433Y-123624003D01*
X142436446Y-123848631D01*
X142399500Y-124081902D01*
X142399500Y-125818097D01*
X136400500Y-125818097D01*
X136400500Y-124081902D01*
X136363553Y-123848631D01*
X136306812Y-123674003D01*
X136290568Y-123624008D01*
X136290566Y-123624005D01*
X136290566Y-123624003D01*
X136183342Y-123413566D01*
X136168376Y-123392967D01*
X136044517Y-123222490D01*
X135877510Y-123055483D01*
X135686433Y-122916657D01*
X135475996Y-122809433D01*
X135251368Y-122736446D01*
X135018097Y-122699500D01*
X135018092Y-122699500D01*
X134781908Y-122699500D01*
X134781903Y-122699500D01*
X134548631Y-122736446D01*
X134324003Y-122809433D01*
X134113566Y-122916657D01*
X134007666Y-122993599D01*
X133922490Y-123055483D01*
X133922488Y-123055485D01*
X133922487Y-123055485D01*
X133755485Y-123222487D01*
X133755485Y-123222488D01*
X133755483Y-123222490D01*
X133719158Y-123272487D01*
X133616657Y-123413566D01*
X133509433Y-123624003D01*
X133436446Y-123848631D01*
X133399500Y-124081902D01*
X133399500Y-125818097D01*
X132300500Y-125818097D01*
X132300500Y-124131902D01*
X132263553Y-123898631D01*
X132190566Y-123674003D01*
X132083342Y-123463566D01*
X131944517Y-123272490D01*
X131777510Y-123105483D01*
X131586433Y-122966657D01*
X131375996Y-122859433D01*
X131151368Y-122786446D01*
X130918097Y-122749500D01*
X130918092Y-122749500D01*
X130681908Y-122749500D01*
X130681903Y-122749500D01*
X130448631Y-122786446D01*
X130224003Y-122859433D01*
X130013566Y-122966657D01*
X129904550Y-123045862D01*
X129822490Y-123105483D01*
X129822488Y-123105485D01*
X129822487Y-123105485D01*
X129655485Y-123272487D01*
X129655485Y-123272488D01*
X129655483Y-123272490D01*
X129595862Y-123354550D01*
X129516657Y-123463566D01*
X129409433Y-123674003D01*
X129336446Y-123898631D01*
X129299500Y-124131902D01*
X129299500Y-125868097D01*
X123300500Y-125868097D01*
X123300500Y-124131902D01*
X123263553Y-123898631D01*
X123190566Y-123674003D01*
X123083342Y-123463566D01*
X122944517Y-123272490D01*
X122777510Y-123105483D01*
X122586433Y-122966657D01*
X122375996Y-122859433D01*
X122151368Y-122786446D01*
X121918097Y-122749500D01*
X121918092Y-122749500D01*
X121681908Y-122749500D01*
X121681903Y-122749500D01*
X121448631Y-122786446D01*
X121224003Y-122859433D01*
X121013566Y-122966657D01*
X120904550Y-123045862D01*
X120822490Y-123105483D01*
X120822488Y-123105485D01*
X120822487Y-123105485D01*
X120655485Y-123272487D01*
X120655485Y-123272488D01*
X120655483Y-123272490D01*
X120595862Y-123354550D01*
X120516657Y-123463566D01*
X120409433Y-123674003D01*
X120336446Y-123898631D01*
X120299500Y-124131902D01*
X120299500Y-125868097D01*
X107176305Y-125868097D01*
X107199074Y-74728548D01*
X107218788Y-74661519D01*
X107271613Y-74615788D01*
X107340776Y-74605875D01*
X107404318Y-74634928D01*
X107423392Y-74655720D01*
X107508028Y-74772212D01*
X107508032Y-74772217D01*
X107652786Y-74916971D01*
X107807749Y-75029556D01*
X107818390Y-75037287D01*
X107934607Y-75096503D01*
X108000776Y-75130218D01*
X108000778Y-75130218D01*
X108000781Y-75130220D01*
X108105137Y-75164127D01*
X108195465Y-75193477D01*
X108296557Y-75209488D01*
X108397648Y-75225500D01*
X108397649Y-75225500D01*
X108602351Y-75225500D01*
X108602352Y-75225500D01*
X108804534Y-75193477D01*
X108999219Y-75130220D01*
X109181610Y-75037287D01*
X109274590Y-74969732D01*
X109347213Y-74916971D01*
X109347215Y-74916968D01*
X109347219Y-74916966D01*
X109491966Y-74772219D01*
X109491968Y-74772215D01*
X109491971Y-74772213D01*
X109562557Y-74675058D01*
X109612287Y-74606610D01*
X109705220Y-74424219D01*
X109768477Y-74229534D01*
X109800500Y-74027352D01*
X109800500Y-73822648D01*
X109768477Y-73620465D01*
X109705218Y-73425776D01*
X109671503Y-73359607D01*
X109612287Y-73243390D01*
X109604556Y-73232749D01*
X109491971Y-73077786D01*
X109347217Y-72933032D01*
X109347212Y-72933028D01*
X109263749Y-72872389D01*
X109221083Y-72817060D01*
X109215104Y-72747446D01*
X109247709Y-72685651D01*
X109308548Y-72651294D01*
X109336515Y-72648071D01*
X126085747Y-72632955D01*
X126152801Y-72652578D01*
G37*
G04 #@! TD.AperFunction*
G04 #@! TA.AperFunction,Conductor*
G36*
X121832548Y-79718385D02*
G01*
X121853190Y-79735019D01*
X131859321Y-89741150D01*
X131859322Y-89741151D01*
X131859324Y-89741152D01*
X131917109Y-89774514D01*
X131985033Y-89813730D01*
X132125247Y-89851300D01*
X132270408Y-89851300D01*
X135528025Y-89851300D01*
X135593997Y-89870306D01*
X135594796Y-89870808D01*
X135733225Y-89957789D01*
X135887539Y-90011786D01*
X135887542Y-90011786D01*
X135887544Y-90011787D01*
X136049996Y-90030091D01*
X136050000Y-90030091D01*
X136050004Y-90030091D01*
X136212455Y-90011787D01*
X136212456Y-90011786D01*
X136212461Y-90011786D01*
X136366775Y-89957789D01*
X136505204Y-89870808D01*
X136572997Y-89803015D01*
X136634320Y-89769530D01*
X136704012Y-89774514D01*
X136748359Y-89803015D01*
X142450663Y-95505319D01*
X142484148Y-95566642D01*
X142479164Y-95636334D01*
X142437292Y-95692267D01*
X142371828Y-95716684D01*
X142362982Y-95717000D01*
X122193017Y-95717000D01*
X122125978Y-95697315D01*
X122105336Y-95680681D01*
X117808062Y-91383406D01*
X117774577Y-91322083D01*
X117775967Y-91263635D01*
X117825063Y-91080408D01*
X117845659Y-90845000D01*
X117845073Y-90838307D01*
X117834959Y-90722704D01*
X117825063Y-90609592D01*
X117771466Y-90409562D01*
X117768905Y-90400003D01*
X127569909Y-90400003D01*
X127588212Y-90562455D01*
X127642210Y-90716774D01*
X127721859Y-90843533D01*
X127729192Y-90855204D01*
X127844796Y-90970808D01*
X127983225Y-91057789D01*
X128137539Y-91111786D01*
X128137542Y-91111786D01*
X128137544Y-91111787D01*
X128299996Y-91130091D01*
X128300000Y-91130091D01*
X128300004Y-91130091D01*
X128462455Y-91111787D01*
X128462456Y-91111786D01*
X128462461Y-91111786D01*
X128616775Y-91057789D01*
X128755204Y-90970808D01*
X128870808Y-90855204D01*
X128957789Y-90716775D01*
X129011786Y-90562461D01*
X129011787Y-90562455D01*
X129030091Y-90400003D01*
X129030091Y-90399996D01*
X129011787Y-90237544D01*
X129011786Y-90237542D01*
X129011786Y-90237539D01*
X128957789Y-90083225D01*
X128870808Y-89944796D01*
X128755204Y-89829192D01*
X128616774Y-89742210D01*
X128482939Y-89695379D01*
X128462461Y-89688214D01*
X128462460Y-89688213D01*
X128462455Y-89688212D01*
X128300004Y-89669909D01*
X128299996Y-89669909D01*
X128137544Y-89688212D01*
X127983225Y-89742210D01*
X127844795Y-89829192D01*
X127729192Y-89944795D01*
X127642210Y-90083225D01*
X127588212Y-90237544D01*
X127569909Y-90399996D01*
X127569909Y-90400003D01*
X117768905Y-90400003D01*
X117763905Y-90381344D01*
X117763904Y-90381343D01*
X117763903Y-90381337D01*
X117664035Y-90167171D01*
X117658425Y-90159158D01*
X117528494Y-89973597D01*
X117361402Y-89806506D01*
X117361396Y-89806501D01*
X117175842Y-89676575D01*
X117132217Y-89621998D01*
X117125023Y-89552500D01*
X117156546Y-89490145D01*
X117175842Y-89473425D01*
X117198026Y-89457891D01*
X117361401Y-89343495D01*
X117528495Y-89176401D01*
X117664035Y-88982830D01*
X117763903Y-88768663D01*
X117825063Y-88540408D01*
X117845659Y-88305000D01*
X117825063Y-88069592D01*
X117763903Y-87841337D01*
X117664035Y-87627171D01*
X117658425Y-87619158D01*
X117528494Y-87433597D01*
X117361402Y-87266506D01*
X117361396Y-87266501D01*
X117175842Y-87136575D01*
X117132217Y-87081998D01*
X117125023Y-87012500D01*
X117156546Y-86950145D01*
X117175842Y-86933425D01*
X117198026Y-86917891D01*
X117361401Y-86803495D01*
X117528495Y-86636401D01*
X117664035Y-86442830D01*
X117763903Y-86228663D01*
X117825063Y-86000408D01*
X117845659Y-85765000D01*
X117825063Y-85529592D01*
X117763903Y-85301337D01*
X117664035Y-85087171D01*
X117658425Y-85079158D01*
X117528494Y-84893597D01*
X117361402Y-84726506D01*
X117361396Y-84726501D01*
X117175842Y-84596575D01*
X117132217Y-84541998D01*
X117125023Y-84472500D01*
X117156546Y-84410145D01*
X117175842Y-84393425D01*
X117209987Y-84369516D01*
X117361401Y-84263495D01*
X117528495Y-84096401D01*
X117664035Y-83902830D01*
X117763903Y-83688663D01*
X117825063Y-83460408D01*
X117845659Y-83225000D01*
X117825063Y-82989592D01*
X117763903Y-82761337D01*
X117664035Y-82547171D01*
X117660193Y-82541683D01*
X117528494Y-82353597D01*
X117361402Y-82186506D01*
X117361396Y-82186501D01*
X117175842Y-82056575D01*
X117132217Y-82001998D01*
X117125023Y-81932500D01*
X117156546Y-81870145D01*
X117175842Y-81853425D01*
X117235141Y-81811903D01*
X117361401Y-81723495D01*
X117528495Y-81556401D01*
X117664035Y-81362830D01*
X117763903Y-81148663D01*
X117825063Y-80920408D01*
X117845659Y-80685000D01*
X117844064Y-80666775D01*
X117833392Y-80544796D01*
X117825063Y-80449592D01*
X117771583Y-80250000D01*
X117763905Y-80221344D01*
X117763904Y-80221343D01*
X117763903Y-80221337D01*
X117664035Y-80007171D01*
X117664034Y-80007169D01*
X117584669Y-79893823D01*
X117562342Y-79827617D01*
X117579352Y-79759850D01*
X117630301Y-79712037D01*
X117686244Y-79698700D01*
X121765509Y-79698700D01*
X121832548Y-79718385D01*
G37*
G04 #@! TD.AperFunction*
G04 #@! TA.AperFunction,Conductor*
G36*
X160393651Y-72621675D02*
G01*
X160439454Y-72674438D01*
X160449460Y-72743587D01*
X160420492Y-72807169D01*
X160399591Y-72826369D01*
X160252787Y-72933028D01*
X160252782Y-72933032D01*
X160108028Y-73077786D01*
X159987715Y-73243386D01*
X159894781Y-73425776D01*
X159831522Y-73620465D01*
X159799500Y-73822648D01*
X159799500Y-74027351D01*
X159831522Y-74229534D01*
X159894781Y-74424223D01*
X159958691Y-74549653D01*
X159987338Y-74605875D01*
X159987715Y-74606613D01*
X160108028Y-74772213D01*
X160252786Y-74916971D01*
X160407749Y-75029556D01*
X160418390Y-75037287D01*
X160534607Y-75096503D01*
X160600776Y-75130218D01*
X160600778Y-75130218D01*
X160600781Y-75130220D01*
X160705137Y-75164127D01*
X160795465Y-75193477D01*
X160896557Y-75209488D01*
X160997648Y-75225500D01*
X160997649Y-75225500D01*
X161202351Y-75225500D01*
X161202352Y-75225500D01*
X161404534Y-75193477D01*
X161599219Y-75130220D01*
X161781610Y-75037287D01*
X161874590Y-74969732D01*
X161947213Y-74916971D01*
X161947215Y-74916968D01*
X161947219Y-74916966D01*
X162091966Y-74772219D01*
X162091968Y-74772215D01*
X162091971Y-74772213D01*
X162162557Y-74675058D01*
X162212287Y-74606610D01*
X162305220Y-74424219D01*
X162367771Y-74231705D01*
X162407208Y-74174030D01*
X162471567Y-74146832D01*
X162540413Y-74158747D01*
X162591889Y-74205991D01*
X162609700Y-74269303D01*
X162669907Y-84629650D01*
X162650612Y-84696803D01*
X162598075Y-84742864D01*
X162528976Y-84753209D01*
X162465252Y-84724554D01*
X162458228Y-84718052D01*
X159913828Y-82173652D01*
X159913822Y-82173647D01*
X159788116Y-82101071D01*
X159788115Y-82101070D01*
X159788114Y-82101070D01*
X159647900Y-82063500D01*
X159647899Y-82063500D01*
X153019316Y-82063500D01*
X152952277Y-82043815D01*
X152931635Y-82027181D01*
X148332810Y-77428356D01*
X143733081Y-72828628D01*
X143699597Y-72767306D01*
X143704581Y-72697614D01*
X143746453Y-72641681D01*
X143811917Y-72617264D01*
X143820626Y-72616948D01*
X160326596Y-72602051D01*
X160393651Y-72621675D01*
G37*
G04 #@! TD.AperFunction*
G04 #@! TA.AperFunction,Conductor*
G36*
X131381354Y-74038985D02*
G01*
X131427109Y-74091789D01*
X131437053Y-74160947D01*
X131408028Y-74224503D01*
X131401998Y-74230978D01*
X130860764Y-74772212D01*
X130346395Y-75286581D01*
X130285072Y-75320066D01*
X130258714Y-75322900D01*
X130151047Y-75322900D01*
X130010832Y-75360470D01*
X129938252Y-75402374D01*
X129885121Y-75433050D01*
X129885120Y-75433051D01*
X129828720Y-75489450D01*
X129767396Y-75522934D01*
X129754924Y-75524987D01*
X129637544Y-75538212D01*
X129518254Y-75579953D01*
X129448475Y-75583514D01*
X129387848Y-75548785D01*
X129355621Y-75486791D01*
X129362027Y-75417215D01*
X129389616Y-75375233D01*
X130709232Y-74055619D01*
X130770555Y-74022134D01*
X130796913Y-74019300D01*
X131314315Y-74019300D01*
X131381354Y-74038985D01*
G37*
G04 #@! TD.AperFunction*
M02*
