G04 #@! TF.GenerationSoftware,KiCad,Pcbnew,9.0.5*
G04 #@! TF.CreationDate,2025-10-28T18:45:18-07:00*
G04 #@! TF.ProjectId,iris-128b-adapter,69726973-2d31-4323-9862-2d6164617074,rev?*
G04 #@! TF.SameCoordinates,Original*
G04 #@! TF.FileFunction,Legend,Bot*
G04 #@! TF.FilePolarity,Positive*
%FSLAX46Y46*%
G04 Gerber Fmt 4.6, Leading zero omitted, Abs format (unit mm)*
G04 Created by KiCad (PCBNEW 9.0.5) date 2025-10-28 18:45:18*
%MOMM*%
%LPD*%
G01*
G04 APERTURE LIST*
%ADD10C,2.100000*%
%ADD11C,1.600000*%
%ADD12R,4.000000X2.000000*%
%ADD13O,3.300000X2.000000*%
%ADD14O,2.000000X3.500000*%
%ADD15R,1.700000X1.700000*%
%ADD16O,1.700000X1.700000*%
G04 APERTURE END LIST*
%LPC*%
D10*
X161100000Y-73925000D03*
D11*
X152650000Y-126950000D03*
D12*
X152650000Y-117950000D03*
D13*
X152650000Y-123950000D03*
D14*
X148150000Y-124950000D03*
X157150000Y-124950000D03*
D11*
X139400000Y-126950000D03*
D12*
X139400000Y-117950000D03*
D13*
X139400000Y-123950000D03*
D14*
X134900000Y-124950000D03*
X143900000Y-124950000D03*
D15*
X113950000Y-75605000D03*
D16*
X116490000Y-75605000D03*
X113950000Y-78145000D03*
X116490000Y-78145000D03*
X113950000Y-80685000D03*
X116490000Y-80685000D03*
X113950000Y-83225000D03*
X116490000Y-83225000D03*
X113950000Y-85765000D03*
X116490000Y-85765000D03*
X113950000Y-88305000D03*
X116490000Y-88305000D03*
X113950000Y-90845000D03*
X116490000Y-90845000D03*
X113950000Y-93385000D03*
X116490000Y-93385000D03*
X113950000Y-95925000D03*
X116490000Y-95925000D03*
X113950000Y-98465000D03*
X116490000Y-98465000D03*
X113950000Y-101005000D03*
X116490000Y-101005000D03*
X113950000Y-103545000D03*
X116490000Y-103545000D03*
X113950000Y-106085000D03*
X116490000Y-106085000D03*
X113950000Y-108625000D03*
X116490000Y-108625000D03*
X113950000Y-111165000D03*
X116490000Y-111165000D03*
X113950000Y-113705000D03*
X116490000Y-113705000D03*
X113950000Y-116245000D03*
X116490000Y-116245000D03*
X113950000Y-118785000D03*
X116490000Y-118785000D03*
X113950000Y-121325000D03*
X116490000Y-121325000D03*
X113950000Y-123865000D03*
X116490000Y-123865000D03*
D10*
X108500000Y-73925000D03*
X161100000Y-127500000D03*
X108500000Y-127500000D03*
D11*
X126300000Y-127000000D03*
D12*
X126300000Y-118000000D03*
D13*
X126300000Y-124000000D03*
D14*
X121800000Y-125000000D03*
X130800000Y-125000000D03*
%LPD*%
M02*
