G04 #@! TF.GenerationSoftware,KiCad,Pcbnew,9.0.5*
G04 #@! TF.CreationDate,2025-10-28T18:45:17-07:00*
G04 #@! TF.ProjectId,iris-128b-adapter,69726973-2d31-4323-9862-2d6164617074,rev?*
G04 #@! TF.SameCoordinates,Original*
G04 #@! TF.FileFunction,Copper,L4,Bot*
G04 #@! TF.FilePolarity,Positive*
%FSLAX46Y46*%
G04 Gerber Fmt 4.6, Leading zero omitted, Abs format (unit mm)*
G04 Created by KiCad (PCBNEW 9.0.5) date 2025-10-28 18:45:17*
%MOMM*%
%LPD*%
G01*
G04 APERTURE LIST*
G04 #@! TA.AperFunction,ComponentPad*
%ADD10R,4.000000X2.000000*%
G04 #@! TD*
G04 #@! TA.AperFunction,ComponentPad*
%ADD11O,3.300000X2.000000*%
G04 #@! TD*
G04 #@! TA.AperFunction,ComponentPad*
%ADD12O,2.000000X3.500000*%
G04 #@! TD*
G04 #@! TA.AperFunction,ComponentPad*
%ADD13R,1.700000X1.700000*%
G04 #@! TD*
G04 #@! TA.AperFunction,ComponentPad*
%ADD14O,1.700000X1.700000*%
G04 #@! TD*
G04 #@! TA.AperFunction,ViaPad*
%ADD15C,0.450000*%
G04 #@! TD*
G04 #@! TA.AperFunction,ViaPad*
%ADD16C,0.500000*%
G04 #@! TD*
G04 #@! TA.AperFunction,ViaPad*
%ADD17C,0.600000*%
G04 #@! TD*
G04 #@! TA.AperFunction,Conductor*
%ADD18C,0.101600*%
G04 #@! TD*
G04 APERTURE END LIST*
D10*
X152650000Y-117950000D03*
D11*
X152650000Y-123950000D03*
D12*
X148150000Y-124950000D03*
X157150000Y-124950000D03*
D10*
X139400000Y-117950000D03*
D11*
X139400000Y-123950000D03*
D12*
X134900000Y-124950000D03*
X143900000Y-124950000D03*
D13*
X113950000Y-75605000D03*
D14*
X116490000Y-75605000D03*
X113950000Y-78145000D03*
X116490000Y-78145000D03*
X113950000Y-80685000D03*
X116490000Y-80685000D03*
X113950000Y-83225000D03*
X116490000Y-83225000D03*
X113950000Y-85765000D03*
X116490000Y-85765000D03*
X113950000Y-88305000D03*
X116490000Y-88305000D03*
X113950000Y-90845000D03*
X116490000Y-90845000D03*
X113950000Y-93385000D03*
X116490000Y-93385000D03*
X113950000Y-95925000D03*
X116490000Y-95925000D03*
X113950000Y-98465000D03*
X116490000Y-98465000D03*
X113950000Y-101005000D03*
X116490000Y-101005000D03*
X113950000Y-103545000D03*
X116490000Y-103545000D03*
X113950000Y-106085000D03*
X116490000Y-106085000D03*
X113950000Y-108625000D03*
X116490000Y-108625000D03*
X113950000Y-111165000D03*
X116490000Y-111165000D03*
X113950000Y-113705000D03*
X116490000Y-113705000D03*
X113950000Y-116245000D03*
X116490000Y-116245000D03*
X113950000Y-118785000D03*
X116490000Y-118785000D03*
X113950000Y-121325000D03*
X116490000Y-121325000D03*
X113950000Y-123865000D03*
X116490000Y-123865000D03*
D10*
X126300000Y-118000000D03*
D11*
X126300000Y-124000000D03*
D12*
X121800000Y-125000000D03*
X130800000Y-125000000D03*
D15*
X133950000Y-83600000D03*
X135050000Y-81100000D03*
X133650000Y-80350000D03*
X135050000Y-83550000D03*
X136850000Y-76250000D03*
D16*
X121000000Y-113375000D03*
X128700000Y-92300000D03*
X120850000Y-104000000D03*
D15*
X158457825Y-87217500D03*
D17*
X134575000Y-113525000D03*
X146750000Y-74600000D03*
D16*
X134750000Y-92300000D03*
X140350000Y-81850000D03*
X120125000Y-80925000D03*
X128225000Y-103975000D03*
D17*
X128325000Y-113450000D03*
X130500000Y-74550000D03*
D16*
X120825000Y-92225000D03*
D17*
X142425000Y-113350000D03*
D16*
X134125000Y-103875000D03*
D17*
X155975000Y-74625000D03*
D15*
X130400000Y-76300000D03*
X132500000Y-76250000D03*
X134100477Y-76226017D03*
X139050000Y-80350000D03*
X130025000Y-80325000D03*
X128700000Y-76300000D03*
X128000000Y-76300000D03*
X132050000Y-80250000D03*
X129050000Y-81025000D03*
X128950000Y-83500000D03*
X134700000Y-76250000D03*
X131600000Y-78750000D03*
X129600000Y-83500000D03*
X124550000Y-80400000D03*
X123550000Y-76250000D03*
X136050000Y-76250000D03*
X132953668Y-81016259D03*
X129800000Y-76250000D03*
X128550000Y-80250000D03*
X128300000Y-90400000D03*
X128300000Y-83500000D03*
X124150003Y-76250000D03*
X133175000Y-76250000D03*
X130875000Y-80900000D03*
X123900000Y-80400000D03*
X127050000Y-83500000D03*
D18*
X133650000Y-83300000D02*
X133650000Y-80550000D01*
X133650000Y-80550000D02*
X133750000Y-80450000D01*
X133950000Y-83600000D02*
X133650000Y-83300000D01*
X135050000Y-83550000D02*
X135050000Y-81100000D01*
X115249400Y-104750600D02*
X113950000Y-106050000D01*
X116074792Y-104547400D02*
X115924880Y-104397488D01*
X115924880Y-104397488D02*
X115571768Y-104750600D01*
X127825800Y-89974200D02*
X117492400Y-100307600D01*
X113950000Y-106050000D02*
X113950000Y-106085000D01*
X129325800Y-89974200D02*
X127825800Y-89974200D01*
X116905208Y-104547400D02*
X116074792Y-104547400D01*
X136850000Y-76250000D02*
X136450000Y-76650000D01*
X117492400Y-100307600D02*
X117492400Y-103960208D01*
X117492400Y-103960208D02*
X116905208Y-104547400D01*
X136450000Y-82850000D02*
X129325800Y-89974200D01*
X136450000Y-76650000D02*
X136450000Y-82850000D01*
X115571768Y-104750600D02*
X115249400Y-104750600D01*
X129603200Y-77096800D02*
X117146776Y-77096800D01*
X113450624Y-76939400D02*
X112134800Y-78255224D01*
X112134800Y-78255224D02*
X112134800Y-106809800D01*
X112134800Y-106809800D02*
X113950000Y-108625000D01*
X116989376Y-76939400D02*
X113450624Y-76939400D01*
X117146776Y-77096800D02*
X116989376Y-76939400D01*
X130400000Y-76300000D02*
X129603200Y-77096800D01*
X132500000Y-76250000D02*
X131450000Y-77300000D01*
X117062608Y-77300000D02*
X116905208Y-77142600D01*
X112338000Y-78339392D02*
X112338000Y-98270608D01*
X116905208Y-77142600D02*
X113534792Y-77142600D01*
X115487600Y-99467400D02*
X116490000Y-98465000D01*
X112338000Y-98270608D02*
X113534792Y-99467400D01*
X113534792Y-99467400D02*
X115487600Y-99467400D01*
X113534792Y-77142600D02*
X112338000Y-78339392D01*
X131450000Y-77300000D02*
X117062608Y-77300000D01*
X116989376Y-79479400D02*
X113450624Y-79479400D01*
X112744400Y-96137008D02*
X113534792Y-96927400D01*
X130930968Y-77706400D02*
X129434168Y-79203200D01*
X132963741Y-76675800D02*
X131933141Y-77706400D01*
X113450624Y-79479400D02*
X112744400Y-80185624D01*
X117265576Y-79203200D02*
X116989376Y-79479400D01*
X129434168Y-79203200D02*
X117265576Y-79203200D01*
X131933141Y-77706400D02*
X130930968Y-77706400D01*
X133650694Y-76675800D02*
X132963741Y-76675800D01*
X115487600Y-96927400D02*
X116490000Y-95925000D01*
X134100477Y-76226017D02*
X133650694Y-76675800D01*
X113534792Y-96927400D02*
X115487600Y-96927400D01*
X112744400Y-80185624D02*
X112744400Y-96137008D01*
X130300000Y-80600000D02*
X130050000Y-80350000D01*
X116490000Y-103545000D02*
X115487600Y-104547400D01*
X113534792Y-104547400D02*
X112744400Y-103757008D01*
X112744400Y-100355600D02*
X113303200Y-99796800D01*
X115879064Y-99596200D02*
X117036696Y-99596200D01*
X130050000Y-80350000D02*
X130050000Y-80200000D01*
X130300000Y-86332896D02*
X130300000Y-80600000D01*
X113303200Y-99796800D02*
X115678464Y-99796800D01*
X117036696Y-99596200D02*
X130300000Y-86332896D01*
X115678464Y-99796800D02*
X115879064Y-99596200D01*
X115487600Y-104547400D02*
X113534792Y-104547400D01*
X112744400Y-103757008D02*
X112744400Y-100355600D01*
X128700000Y-76300000D02*
X126799400Y-74399400D01*
X112863432Y-74399400D02*
X111303200Y-75959632D01*
X126799400Y-74399400D02*
X112863432Y-74399400D01*
X111303200Y-113598200D02*
X113950000Y-116245000D01*
X111303200Y-75959632D02*
X111303200Y-113598200D01*
X115487600Y-115242600D02*
X116490000Y-116245000D01*
X111506400Y-112679008D02*
X114069992Y-115242600D01*
X126302600Y-74602600D02*
X112947600Y-74602600D01*
X111506400Y-76043800D02*
X111506400Y-112679008D01*
X128000000Y-76300000D02*
X126302600Y-74602600D01*
X114069992Y-115242600D02*
X115487600Y-115242600D01*
X112947600Y-74602600D02*
X111506400Y-76043800D01*
X117205032Y-100002600D02*
X132050000Y-85157632D01*
X132050000Y-85157632D02*
X132050000Y-80300000D01*
X115045000Y-101005000D02*
X116047400Y-100002600D01*
X116047400Y-100002600D02*
X117205032Y-100002600D01*
X113950000Y-101005000D02*
X115045000Y-101005000D01*
X129050000Y-81025000D02*
X129050000Y-83400000D01*
X129050000Y-83400000D02*
X128950000Y-83500000D01*
X113534792Y-79682600D02*
X112947600Y-80269792D01*
X132017309Y-77909600D02*
X131015136Y-77909600D01*
X131015136Y-77909600D02*
X129518336Y-79406400D01*
X134700000Y-76250000D02*
X134071000Y-76879000D01*
X112947600Y-80269792D02*
X112947600Y-94922600D01*
X117349744Y-79406400D02*
X117073544Y-79682600D01*
X133047909Y-76879000D02*
X132017309Y-77909600D01*
X117073544Y-79682600D02*
X113534792Y-79682600D01*
X134071000Y-76879000D02*
X133047909Y-76879000D01*
X112947600Y-94922600D02*
X113950000Y-95925000D01*
X129518336Y-79406400D02*
X117349744Y-79406400D01*
X133200000Y-79962632D02*
X133200000Y-80660418D01*
X131600000Y-78750000D02*
X131987368Y-78750000D01*
X133379468Y-84115532D02*
X116490000Y-101005000D01*
X131987368Y-78750000D02*
X133200000Y-79962632D01*
X133379468Y-80839886D02*
X133379468Y-84115532D01*
X133200000Y-80660418D02*
X133379468Y-80839886D01*
X129600000Y-83500000D02*
X129174200Y-83925800D01*
X129174200Y-83925800D02*
X128123627Y-83925800D01*
X128123627Y-83925800D02*
X124600000Y-80402173D01*
X113534792Y-117247400D02*
X116905208Y-117247400D01*
X118100000Y-107695000D02*
X116490000Y-106085000D01*
X136050000Y-76250000D02*
X135600000Y-76250000D01*
X111100000Y-114812608D02*
X113534792Y-117247400D01*
X133200000Y-73850000D02*
X113125464Y-73850000D01*
X118100000Y-116052608D02*
X118100000Y-107695000D01*
X135600000Y-76250000D02*
X133200000Y-73850000D01*
X111100000Y-75875464D02*
X111100000Y-114812608D01*
X113125464Y-73850000D02*
X111100000Y-75875464D01*
X116905208Y-117247400D02*
X118100000Y-116052608D01*
X129759600Y-79600000D02*
X132002173Y-79600000D01*
X122960528Y-93385000D02*
X130096800Y-86248728D01*
X116490000Y-93385000D02*
X122960528Y-93385000D01*
X129500000Y-80500000D02*
X129500000Y-79859600D01*
X129500000Y-79859600D02*
X129759600Y-79600000D01*
X130096800Y-86248728D02*
X130096800Y-81096800D01*
X130096800Y-81096800D02*
X129500000Y-80500000D01*
X132950000Y-80547827D02*
X132950000Y-80950000D01*
X132002173Y-79600000D02*
X132950000Y-80547827D01*
X117073544Y-76736200D02*
X113366456Y-76736200D01*
X117230944Y-76893600D02*
X117073544Y-76736200D01*
X111931600Y-108024208D02*
X113534792Y-109627400D01*
X129800000Y-76250000D02*
X129156400Y-76893600D01*
X129156400Y-76893600D02*
X117230944Y-76893600D01*
X111931600Y-78171056D02*
X111931600Y-108024208D01*
X113534792Y-109627400D02*
X115487600Y-109627400D01*
X113366456Y-76736200D02*
X111931600Y-78171056D01*
X115487600Y-109627400D02*
X116490000Y-108625000D01*
X116490000Y-111165000D02*
X117492400Y-110162600D01*
X128300000Y-80450000D02*
X128500000Y-80250000D01*
X117695600Y-100391768D02*
X127137368Y-90950000D01*
X127137368Y-90950000D02*
X127750000Y-90950000D01*
X117492400Y-110162600D02*
X117492400Y-107674592D01*
X128500000Y-80250000D02*
X128500000Y-80150000D01*
X116257392Y-104900000D02*
X116839976Y-104900000D01*
X115487600Y-105669792D02*
X116257392Y-104900000D01*
X127750000Y-90950000D02*
X128300000Y-90400000D01*
X116074792Y-107087400D02*
X115487600Y-106500208D01*
X117492400Y-107674592D02*
X116905208Y-107087400D01*
X117695600Y-104044376D02*
X117695600Y-100391768D01*
X116839976Y-104900000D02*
X117695600Y-104044376D01*
X128300000Y-83500000D02*
X128300000Y-80450000D01*
X116905208Y-107087400D02*
X116074792Y-107087400D01*
X115487600Y-106500208D02*
X115487600Y-105669792D01*
X133102173Y-76250000D02*
X131848973Y-77503200D01*
X116905208Y-79147400D02*
X113534792Y-79147400D01*
X113534792Y-79147400D02*
X113443696Y-79056304D01*
X133175000Y-76250000D02*
X133102173Y-76250000D01*
X130846800Y-77503200D02*
X129350000Y-79000000D01*
X112541200Y-79958800D02*
X112541200Y-96221176D01*
X131848973Y-77503200D02*
X130846800Y-77503200D01*
X112541200Y-96221176D02*
X113450624Y-97130600D01*
X113950000Y-97130600D02*
X113950000Y-98465000D01*
X117052608Y-79000000D02*
X116905208Y-79147400D01*
X113450624Y-97130600D02*
X113950000Y-97130600D01*
X113443696Y-79056304D02*
X112541200Y-79958800D01*
X129350000Y-79000000D02*
X117052608Y-79000000D01*
X115963232Y-99799400D02*
X117120864Y-99799400D01*
X112947600Y-102542600D02*
X112947600Y-100589792D01*
X115762632Y-100000000D02*
X115963232Y-99799400D01*
X131300000Y-81325000D02*
X130875000Y-80900000D01*
X131300000Y-85620264D02*
X131300000Y-81325000D01*
X117120864Y-99799400D02*
X131300000Y-85620264D01*
X112947600Y-100589792D02*
X113537392Y-100000000D01*
X113537392Y-100000000D02*
X115762632Y-100000000D01*
X113950000Y-103545000D02*
X112947600Y-102542600D01*
X123900000Y-80400000D02*
X127000000Y-83500000D01*
X127000000Y-83500000D02*
X127050000Y-83500000D01*
G04 #@! TA.AperFunction,Conductor*
G36*
X123178411Y-79977385D02*
G01*
X123224166Y-80030189D01*
X123234110Y-80099347D01*
X123228414Y-80122654D01*
X123188212Y-80237544D01*
X123169909Y-80399996D01*
X123169909Y-80400003D01*
X123188212Y-80562455D01*
X123242210Y-80716774D01*
X123329192Y-80855204D01*
X123444796Y-80970808D01*
X123583225Y-81057789D01*
X123737539Y-81111786D01*
X123737545Y-81111786D01*
X123737547Y-81111787D01*
X123801023Y-81118939D01*
X123865438Y-81146005D01*
X123874822Y-81154478D01*
X126301870Y-83581526D01*
X126335355Y-83642849D01*
X126337408Y-83655315D01*
X126338212Y-83662452D01*
X126338214Y-83662461D01*
X126392210Y-83816774D01*
X126451317Y-83910842D01*
X126479192Y-83955204D01*
X126594796Y-84070808D01*
X126733225Y-84157789D01*
X126887539Y-84211786D01*
X126887542Y-84211786D01*
X126887544Y-84211787D01*
X127049996Y-84230091D01*
X127050000Y-84230091D01*
X127050004Y-84230091D01*
X127212457Y-84211787D01*
X127212459Y-84211786D01*
X127212461Y-84211786D01*
X127366775Y-84157789D01*
X127411511Y-84129678D01*
X127478742Y-84110678D01*
X127545578Y-84131044D01*
X127565162Y-84146991D01*
X127785121Y-84366950D01*
X127910833Y-84439530D01*
X128051047Y-84477100D01*
X128051049Y-84477100D01*
X129246778Y-84477100D01*
X129246780Y-84477100D01*
X129386994Y-84439530D01*
X129386995Y-84439529D01*
X129389407Y-84438883D01*
X129459256Y-84440546D01*
X129517119Y-84479709D01*
X129544623Y-84543937D01*
X129545500Y-84558658D01*
X129545500Y-85969010D01*
X129525815Y-86036049D01*
X129509181Y-86056691D01*
X122768491Y-92797381D01*
X122707168Y-92830866D01*
X122680810Y-92833700D01*
X117802033Y-92833700D01*
X117734994Y-92814015D01*
X117689651Y-92762104D01*
X117664037Y-92707175D01*
X117664034Y-92707169D01*
X117528494Y-92513597D01*
X117361402Y-92346506D01*
X117361396Y-92346501D01*
X117175842Y-92216575D01*
X117132217Y-92161998D01*
X117125023Y-92092500D01*
X117156546Y-92030145D01*
X117175842Y-92013425D01*
X117198026Y-91997891D01*
X117361401Y-91883495D01*
X117528495Y-91716401D01*
X117664035Y-91522830D01*
X117763903Y-91308663D01*
X117825063Y-91080408D01*
X117845659Y-90845000D01*
X117825063Y-90609592D01*
X117763903Y-90381337D01*
X117664035Y-90167171D01*
X117658425Y-90159158D01*
X117528494Y-89973597D01*
X117361402Y-89806506D01*
X117361396Y-89806501D01*
X117175842Y-89676575D01*
X117132217Y-89621998D01*
X117125023Y-89552500D01*
X117156546Y-89490145D01*
X117175842Y-89473425D01*
X117247999Y-89422900D01*
X117361401Y-89343495D01*
X117528495Y-89176401D01*
X117664035Y-88982830D01*
X117763903Y-88768663D01*
X117825063Y-88540408D01*
X117845659Y-88305000D01*
X117825063Y-88069592D01*
X117763903Y-87841337D01*
X117664035Y-87627171D01*
X117658425Y-87619158D01*
X117528494Y-87433597D01*
X117361402Y-87266506D01*
X117361396Y-87266501D01*
X117175842Y-87136575D01*
X117132217Y-87081998D01*
X117125023Y-87012500D01*
X117156546Y-86950145D01*
X117175842Y-86933425D01*
X117198026Y-86917891D01*
X117361401Y-86803495D01*
X117528495Y-86636401D01*
X117664035Y-86442830D01*
X117763903Y-86228663D01*
X117825063Y-86000408D01*
X117845659Y-85765000D01*
X117825063Y-85529592D01*
X117763903Y-85301337D01*
X117664035Y-85087171D01*
X117658425Y-85079158D01*
X117528494Y-84893597D01*
X117361402Y-84726506D01*
X117361396Y-84726501D01*
X117175842Y-84596575D01*
X117132217Y-84541998D01*
X117125023Y-84472500D01*
X117156546Y-84410145D01*
X117175842Y-84393425D01*
X117213656Y-84366947D01*
X117361401Y-84263495D01*
X117528495Y-84096401D01*
X117664035Y-83902830D01*
X117763903Y-83688663D01*
X117825063Y-83460408D01*
X117845659Y-83225000D01*
X117825063Y-82989592D01*
X117763903Y-82761337D01*
X117664035Y-82547171D01*
X117658425Y-82539158D01*
X117528494Y-82353597D01*
X117361402Y-82186506D01*
X117361396Y-82186501D01*
X117175842Y-82056575D01*
X117132217Y-82001998D01*
X117125023Y-81932500D01*
X117156546Y-81870145D01*
X117175842Y-81853425D01*
X117198026Y-81837891D01*
X117361401Y-81723495D01*
X117528495Y-81556401D01*
X117664035Y-81362830D01*
X117763903Y-81148663D01*
X117825063Y-80920408D01*
X117845659Y-80685000D01*
X117844064Y-80666775D01*
X117833265Y-80543338D01*
X117825063Y-80449592D01*
X117771583Y-80250000D01*
X117763905Y-80221344D01*
X117763904Y-80221343D01*
X117763903Y-80221337D01*
X117723226Y-80134105D01*
X117712734Y-80065027D01*
X117741254Y-80001243D01*
X117799731Y-79963004D01*
X117835608Y-79957700D01*
X123111372Y-79957700D01*
X123178411Y-79977385D01*
G37*
G04 #@! TD.AperFunction*
G04 #@! TA.AperFunction,Conductor*
G36*
X132987321Y-74420985D02*
G01*
X133007963Y-74437619D01*
X133907041Y-75336697D01*
X133940526Y-75398020D01*
X133935542Y-75467712D01*
X133893670Y-75523645D01*
X133860315Y-75541420D01*
X133783700Y-75568228D01*
X133684626Y-75630481D01*
X133617389Y-75649481D01*
X133552682Y-75630481D01*
X133491774Y-75592210D01*
X133337455Y-75538212D01*
X133175004Y-75519909D01*
X133174996Y-75519909D01*
X133012544Y-75538212D01*
X132878454Y-75585132D01*
X132808675Y-75588693D01*
X132796546Y-75585132D01*
X132662455Y-75538212D01*
X132500004Y-75519909D01*
X132499996Y-75519909D01*
X132337544Y-75538212D01*
X132183225Y-75592210D01*
X132044795Y-75679192D01*
X131929192Y-75794795D01*
X131842210Y-75933225D01*
X131788214Y-76087539D01*
X131781060Y-76151026D01*
X131753992Y-76215439D01*
X131745521Y-76224821D01*
X131282738Y-76687605D01*
X131221415Y-76721090D01*
X131151724Y-76716106D01*
X131095790Y-76674235D01*
X131071373Y-76608770D01*
X131078016Y-76558969D01*
X131097644Y-76502876D01*
X131111786Y-76462461D01*
X131111786Y-76462459D01*
X131111787Y-76462457D01*
X131130091Y-76300003D01*
X131130091Y-76299996D01*
X131111787Y-76137544D01*
X131111786Y-76137542D01*
X131111786Y-76137539D01*
X131057789Y-75983225D01*
X130970808Y-75844796D01*
X130855204Y-75729192D01*
X130770155Y-75675752D01*
X130716774Y-75642210D01*
X130562455Y-75588212D01*
X130400004Y-75569909D01*
X130399996Y-75569909D01*
X130237540Y-75588213D01*
X130237539Y-75588213D01*
X130211267Y-75597406D01*
X130141488Y-75600967D01*
X130122523Y-75594222D01*
X129962455Y-75538212D01*
X129800004Y-75519909D01*
X129799996Y-75519909D01*
X129637544Y-75538212D01*
X129483225Y-75592210D01*
X129344795Y-75679192D01*
X129310852Y-75713135D01*
X129249529Y-75746620D01*
X129179837Y-75741634D01*
X129157199Y-75730446D01*
X129155205Y-75729193D01*
X129155204Y-75729192D01*
X129070155Y-75675752D01*
X129016776Y-75642211D01*
X128862455Y-75588212D01*
X128798974Y-75581060D01*
X128734560Y-75553993D01*
X128725177Y-75545521D01*
X127792637Y-74612981D01*
X127759152Y-74551658D01*
X127764136Y-74481966D01*
X127806008Y-74426033D01*
X127871472Y-74401616D01*
X127880318Y-74401300D01*
X132920282Y-74401300D01*
X132987321Y-74420985D01*
G37*
G04 #@! TD.AperFunction*
G04 #@! TA.AperFunction,Conductor*
G36*
X160393651Y-72621675D02*
G01*
X160439454Y-72674438D01*
X160449460Y-72743587D01*
X160420492Y-72807169D01*
X160399591Y-72826369D01*
X160252787Y-72933028D01*
X160252782Y-72933032D01*
X160108028Y-73077786D01*
X159987715Y-73243386D01*
X159894781Y-73425776D01*
X159831522Y-73620465D01*
X159799500Y-73822648D01*
X159799500Y-74027351D01*
X159831522Y-74229534D01*
X159894781Y-74424223D01*
X159958691Y-74549653D01*
X159987338Y-74605875D01*
X159987715Y-74606613D01*
X160108028Y-74772213D01*
X160252786Y-74916971D01*
X160407749Y-75029556D01*
X160418390Y-75037287D01*
X160534607Y-75096503D01*
X160600776Y-75130218D01*
X160600778Y-75130218D01*
X160600781Y-75130220D01*
X160673661Y-75153900D01*
X160795465Y-75193477D01*
X160896557Y-75209488D01*
X160997648Y-75225500D01*
X160997649Y-75225500D01*
X161202351Y-75225500D01*
X161202352Y-75225500D01*
X161404534Y-75193477D01*
X161599219Y-75130220D01*
X161781610Y-75037287D01*
X161874590Y-74969732D01*
X161947213Y-74916971D01*
X161947215Y-74916968D01*
X161947219Y-74916966D01*
X162091966Y-74772219D01*
X162091968Y-74772215D01*
X162091971Y-74772213D01*
X162144732Y-74699590D01*
X162212287Y-74606610D01*
X162305220Y-74424219D01*
X162367772Y-74231703D01*
X162407208Y-74174030D01*
X162471567Y-74146831D01*
X162540413Y-74158746D01*
X162591889Y-74205990D01*
X162609700Y-74269302D01*
X162924244Y-128395089D01*
X162911460Y-128450650D01*
X162908565Y-128456521D01*
X162861262Y-128507942D01*
X162798205Y-128525625D01*
X162202984Y-128528561D01*
X162136878Y-128509535D01*
X162090841Y-128456977D01*
X162080527Y-128387872D01*
X162103040Y-128331977D01*
X162173563Y-128234909D01*
X162212287Y-128181610D01*
X162305220Y-127999219D01*
X162368477Y-127804534D01*
X162400500Y-127602352D01*
X162400500Y-127397648D01*
X162368477Y-127195466D01*
X162305220Y-127000781D01*
X162305218Y-127000778D01*
X162305218Y-127000776D01*
X162252101Y-126896530D01*
X162212287Y-126818390D01*
X162199759Y-126801146D01*
X162091971Y-126652786D01*
X161947213Y-126508028D01*
X161781613Y-126387715D01*
X161781612Y-126387714D01*
X161781610Y-126387713D01*
X161724653Y-126358691D01*
X161599223Y-126294781D01*
X161404534Y-126231522D01*
X161229995Y-126203878D01*
X161202352Y-126199500D01*
X160997648Y-126199500D01*
X160973329Y-126203351D01*
X160795465Y-126231522D01*
X160600776Y-126294781D01*
X160418386Y-126387715D01*
X160252786Y-126508028D01*
X160108028Y-126652786D01*
X159987715Y-126818386D01*
X159894781Y-127000776D01*
X159831522Y-127195465D01*
X159799500Y-127397648D01*
X159799500Y-127602351D01*
X159831522Y-127804534D01*
X159894781Y-127999223D01*
X159987712Y-128181609D01*
X160105511Y-128343747D01*
X160128990Y-128409554D01*
X160113164Y-128477608D01*
X160063058Y-128526302D01*
X160010867Y-128539374D01*
X109311163Y-128789462D01*
X109250283Y-128771856D01*
X109204314Y-128719239D01*
X109194088Y-128650121D01*
X109222854Y-128586448D01*
X109244008Y-128566952D01*
X109347219Y-128491966D01*
X109491966Y-128347219D01*
X109491968Y-128347215D01*
X109491971Y-128347213D01*
X109573563Y-128234909D01*
X109612287Y-128181610D01*
X109705220Y-127999219D01*
X109768477Y-127804534D01*
X109800500Y-127602352D01*
X109800500Y-127397648D01*
X109768477Y-127195466D01*
X109705220Y-127000781D01*
X109705218Y-127000778D01*
X109705218Y-127000776D01*
X109652101Y-126896530D01*
X109612287Y-126818390D01*
X109599759Y-126801146D01*
X109491971Y-126652786D01*
X109347213Y-126508028D01*
X109181613Y-126387715D01*
X109181612Y-126387714D01*
X109181610Y-126387713D01*
X109124653Y-126358691D01*
X108999223Y-126294781D01*
X108804534Y-126231522D01*
X108629995Y-126203878D01*
X108602352Y-126199500D01*
X108397648Y-126199500D01*
X108373329Y-126203351D01*
X108195465Y-126231522D01*
X108000776Y-126294781D01*
X107818386Y-126387715D01*
X107652786Y-126508028D01*
X107508032Y-126652782D01*
X107508028Y-126652787D01*
X107400240Y-126801146D01*
X107344910Y-126843812D01*
X107275297Y-126849791D01*
X107213502Y-126817186D01*
X107179145Y-126756347D01*
X107175922Y-126728206D01*
X107176305Y-125868097D01*
X120299500Y-125868097D01*
X120336446Y-126101368D01*
X120409433Y-126325996D01*
X120499317Y-126502402D01*
X120516657Y-126536433D01*
X120655483Y-126727510D01*
X120822490Y-126894517D01*
X121013567Y-127033343D01*
X121053059Y-127053465D01*
X121224003Y-127140566D01*
X121224005Y-127140566D01*
X121224008Y-127140568D01*
X121344412Y-127179689D01*
X121448631Y-127213553D01*
X121681903Y-127250500D01*
X121681908Y-127250500D01*
X121918097Y-127250500D01*
X122151368Y-127213553D01*
X122375992Y-127140568D01*
X122448803Y-127103469D01*
X125249500Y-127103469D01*
X125289868Y-127306412D01*
X125289870Y-127306420D01*
X125369058Y-127497596D01*
X125484024Y-127669657D01*
X125630342Y-127815975D01*
X125630345Y-127815977D01*
X125802402Y-127930941D01*
X125993580Y-128010130D01*
X126196530Y-128050499D01*
X126196534Y-128050500D01*
X126196535Y-128050500D01*
X126403466Y-128050500D01*
X126403467Y-128050499D01*
X126606420Y-128010130D01*
X126797598Y-127930941D01*
X126969655Y-127815977D01*
X127115977Y-127669655D01*
X127230941Y-127497598D01*
X127310130Y-127306420D01*
X127350500Y-127103465D01*
X127350500Y-126896535D01*
X127310130Y-126693580D01*
X127230941Y-126502402D01*
X127115977Y-126330345D01*
X127115975Y-126330342D01*
X126969657Y-126184024D01*
X126845952Y-126101368D01*
X126797598Y-126069059D01*
X126754888Y-126051368D01*
X126606420Y-125989870D01*
X126606412Y-125989868D01*
X126403469Y-125949500D01*
X126403465Y-125949500D01*
X126196535Y-125949500D01*
X126196530Y-125949500D01*
X125993587Y-125989868D01*
X125993579Y-125989870D01*
X125802403Y-126069058D01*
X125630342Y-126184024D01*
X125484024Y-126330342D01*
X125369058Y-126502403D01*
X125289870Y-126693579D01*
X125289868Y-126693587D01*
X125249500Y-126896530D01*
X125249500Y-127103469D01*
X122448803Y-127103469D01*
X122586433Y-127033343D01*
X122777510Y-126894517D01*
X122944517Y-126727510D01*
X123083343Y-126536433D01*
X123190568Y-126325992D01*
X123263553Y-126101368D01*
X123271472Y-126051368D01*
X123300500Y-125868097D01*
X129299500Y-125868097D01*
X129336446Y-126101368D01*
X129409433Y-126325996D01*
X129499317Y-126502402D01*
X129516657Y-126536433D01*
X129655483Y-126727510D01*
X129822490Y-126894517D01*
X130013567Y-127033343D01*
X130053059Y-127053465D01*
X130224003Y-127140566D01*
X130224005Y-127140566D01*
X130224008Y-127140568D01*
X130344412Y-127179689D01*
X130448631Y-127213553D01*
X130681903Y-127250500D01*
X130681908Y-127250500D01*
X130918097Y-127250500D01*
X131151368Y-127213553D01*
X131375992Y-127140568D01*
X131586433Y-127033343D01*
X131777510Y-126894517D01*
X131944517Y-126727510D01*
X132083343Y-126536433D01*
X132190568Y-126325992D01*
X132263553Y-126101368D01*
X132271472Y-126051368D01*
X132300500Y-125868097D01*
X132300500Y-125818097D01*
X133399500Y-125818097D01*
X133436446Y-126051368D01*
X133509433Y-126275996D01*
X133599317Y-126452402D01*
X133616657Y-126486433D01*
X133755483Y-126677510D01*
X133922490Y-126844517D01*
X134113567Y-126983343D01*
X134211696Y-127033342D01*
X134324003Y-127090566D01*
X134324005Y-127090566D01*
X134324008Y-127090568D01*
X134444412Y-127129689D01*
X134548631Y-127163553D01*
X134781903Y-127200500D01*
X134781908Y-127200500D01*
X135018097Y-127200500D01*
X135251368Y-127163553D01*
X135322114Y-127140566D01*
X135475992Y-127090568D01*
X135548803Y-127053469D01*
X138349500Y-127053469D01*
X138388692Y-127250500D01*
X138389870Y-127256420D01*
X138469059Y-127447598D01*
X138502468Y-127497598D01*
X138584024Y-127619657D01*
X138730342Y-127765975D01*
X138730345Y-127765977D01*
X138902402Y-127880941D01*
X139093580Y-127960130D01*
X139290095Y-127999219D01*
X139296530Y-128000499D01*
X139296534Y-128000500D01*
X139296535Y-128000500D01*
X139503466Y-128000500D01*
X139503467Y-128000499D01*
X139706420Y-127960130D01*
X139897598Y-127880941D01*
X140069655Y-127765977D01*
X140215977Y-127619655D01*
X140330941Y-127447598D01*
X140410130Y-127256420D01*
X140450500Y-127053465D01*
X140450500Y-126846535D01*
X140410130Y-126643580D01*
X140330941Y-126452402D01*
X140215977Y-126280345D01*
X140215975Y-126280342D01*
X140069657Y-126134024D01*
X139945952Y-126051368D01*
X139897598Y-126019059D01*
X139706420Y-125939870D01*
X139706412Y-125939868D01*
X139503469Y-125899500D01*
X139503465Y-125899500D01*
X139296535Y-125899500D01*
X139296530Y-125899500D01*
X139093587Y-125939868D01*
X139093579Y-125939870D01*
X138902403Y-126019058D01*
X138730342Y-126134024D01*
X138584024Y-126280342D01*
X138469058Y-126452403D01*
X138389870Y-126643579D01*
X138389868Y-126643587D01*
X138349500Y-126846530D01*
X138349500Y-127053469D01*
X135548803Y-127053469D01*
X135686433Y-126983343D01*
X135877510Y-126844517D01*
X136044517Y-126677510D01*
X136183343Y-126486433D01*
X136290568Y-126275992D01*
X136363553Y-126051368D01*
X136373294Y-125989868D01*
X136400500Y-125818097D01*
X142399500Y-125818097D01*
X142436446Y-126051368D01*
X142509433Y-126275996D01*
X142599317Y-126452402D01*
X142616657Y-126486433D01*
X142755483Y-126677510D01*
X142922490Y-126844517D01*
X143113567Y-126983343D01*
X143211696Y-127033342D01*
X143324003Y-127090566D01*
X143324005Y-127090566D01*
X143324008Y-127090568D01*
X143444412Y-127129689D01*
X143548631Y-127163553D01*
X143781903Y-127200500D01*
X143781908Y-127200500D01*
X144018097Y-127200500D01*
X144251368Y-127163553D01*
X144322114Y-127140566D01*
X144475992Y-127090568D01*
X144686433Y-126983343D01*
X144877510Y-126844517D01*
X145044517Y-126677510D01*
X145183343Y-126486433D01*
X145290568Y-126275992D01*
X145363553Y-126051368D01*
X145373294Y-125989868D01*
X145400500Y-125818097D01*
X146649500Y-125818097D01*
X146686446Y-126051368D01*
X146759433Y-126275996D01*
X146849317Y-126452402D01*
X146866657Y-126486433D01*
X147005483Y-126677510D01*
X147172490Y-126844517D01*
X147363567Y-126983343D01*
X147461696Y-127033342D01*
X147574003Y-127090566D01*
X147574005Y-127090566D01*
X147574008Y-127090568D01*
X147694412Y-127129689D01*
X147798631Y-127163553D01*
X148031903Y-127200500D01*
X148031908Y-127200500D01*
X148268097Y-127200500D01*
X148501368Y-127163553D01*
X148572114Y-127140566D01*
X148725992Y-127090568D01*
X148798803Y-127053469D01*
X151599500Y-127053469D01*
X151638692Y-127250500D01*
X151639870Y-127256420D01*
X151719059Y-127447598D01*
X151752468Y-127497598D01*
X151834024Y-127619657D01*
X151980342Y-127765975D01*
X151980345Y-127765977D01*
X152152402Y-127880941D01*
X152343580Y-127960130D01*
X152540095Y-127999219D01*
X152546530Y-128000499D01*
X152546534Y-128000500D01*
X152546535Y-128000500D01*
X152753466Y-128000500D01*
X152753467Y-128000499D01*
X152956420Y-127960130D01*
X153147598Y-127880941D01*
X153319655Y-127765977D01*
X153465977Y-127619655D01*
X153580941Y-127447598D01*
X153660130Y-127256420D01*
X153700500Y-127053465D01*
X153700500Y-126846535D01*
X153660130Y-126643580D01*
X153580941Y-126452402D01*
X153465977Y-126280345D01*
X153465975Y-126280342D01*
X153319657Y-126134024D01*
X153195952Y-126051368D01*
X153147598Y-126019059D01*
X152956420Y-125939870D01*
X152956412Y-125939868D01*
X152753469Y-125899500D01*
X152753465Y-125899500D01*
X152546535Y-125899500D01*
X152546530Y-125899500D01*
X152343587Y-125939868D01*
X152343579Y-125939870D01*
X152152403Y-126019058D01*
X151980342Y-126134024D01*
X151834024Y-126280342D01*
X151719058Y-126452403D01*
X151639870Y-126643579D01*
X151639868Y-126643587D01*
X151599500Y-126846530D01*
X151599500Y-127053469D01*
X148798803Y-127053469D01*
X148936433Y-126983343D01*
X149127510Y-126844517D01*
X149294517Y-126677510D01*
X149433343Y-126486433D01*
X149540568Y-126275992D01*
X149613553Y-126051368D01*
X149623294Y-125989868D01*
X149650500Y-125818097D01*
X155649500Y-125818097D01*
X155686446Y-126051368D01*
X155759433Y-126275996D01*
X155849317Y-126452402D01*
X155866657Y-126486433D01*
X156005483Y-126677510D01*
X156172490Y-126844517D01*
X156363567Y-126983343D01*
X156461696Y-127033342D01*
X156574003Y-127090566D01*
X156574005Y-127090566D01*
X156574008Y-127090568D01*
X156694412Y-127129689D01*
X156798631Y-127163553D01*
X157031903Y-127200500D01*
X157031908Y-127200500D01*
X157268097Y-127200500D01*
X157501368Y-127163553D01*
X157572114Y-127140566D01*
X157725992Y-127090568D01*
X157936433Y-126983343D01*
X158127510Y-126844517D01*
X158294517Y-126677510D01*
X158433343Y-126486433D01*
X158540568Y-126275992D01*
X158613553Y-126051368D01*
X158623294Y-125989868D01*
X158650500Y-125818097D01*
X158650500Y-124081902D01*
X158613553Y-123848631D01*
X158556812Y-123674003D01*
X158540568Y-123624008D01*
X158540566Y-123624005D01*
X158540566Y-123624003D01*
X158433342Y-123413566D01*
X158418376Y-123392967D01*
X158294517Y-123222490D01*
X158127510Y-123055483D01*
X157936433Y-122916657D01*
X157725996Y-122809433D01*
X157501368Y-122736446D01*
X157268097Y-122699500D01*
X157268092Y-122699500D01*
X157031908Y-122699500D01*
X157031903Y-122699500D01*
X156798631Y-122736446D01*
X156574003Y-122809433D01*
X156363566Y-122916657D01*
X156257666Y-122993599D01*
X156172490Y-123055483D01*
X156172488Y-123055485D01*
X156172487Y-123055485D01*
X156005485Y-123222487D01*
X156005485Y-123222488D01*
X156005483Y-123222490D01*
X155969158Y-123272487D01*
X155866657Y-123413566D01*
X155759433Y-123624003D01*
X155686446Y-123848631D01*
X155649500Y-124081902D01*
X155649500Y-125818097D01*
X149650500Y-125818097D01*
X149650500Y-124081902D01*
X149613553Y-123848631D01*
X149556812Y-123674003D01*
X149540568Y-123624008D01*
X149540566Y-123624005D01*
X149540566Y-123624003D01*
X149433342Y-123413566D01*
X149418376Y-123392967D01*
X149294517Y-123222490D01*
X149127510Y-123055483D01*
X148936433Y-122916657D01*
X148725996Y-122809433D01*
X148501368Y-122736446D01*
X148268097Y-122699500D01*
X148268092Y-122699500D01*
X148031908Y-122699500D01*
X148031903Y-122699500D01*
X147798631Y-122736446D01*
X147574003Y-122809433D01*
X147363566Y-122916657D01*
X147257666Y-122993599D01*
X147172490Y-123055483D01*
X147172488Y-123055485D01*
X147172487Y-123055485D01*
X147005485Y-123222487D01*
X147005485Y-123222488D01*
X147005483Y-123222490D01*
X146969158Y-123272487D01*
X146866657Y-123413566D01*
X146759433Y-123624003D01*
X146686446Y-123848631D01*
X146649500Y-124081902D01*
X146649500Y-125818097D01*
X145400500Y-125818097D01*
X145400500Y-124081902D01*
X145363553Y-123848631D01*
X145306812Y-123674003D01*
X145290568Y-123624008D01*
X145290566Y-123624005D01*
X145290566Y-123624003D01*
X145183342Y-123413566D01*
X145168376Y-123392967D01*
X145044517Y-123222490D01*
X144877510Y-123055483D01*
X144686433Y-122916657D01*
X144475996Y-122809433D01*
X144251368Y-122736446D01*
X144018097Y-122699500D01*
X144018092Y-122699500D01*
X143781908Y-122699500D01*
X143781903Y-122699500D01*
X143548631Y-122736446D01*
X143324003Y-122809433D01*
X143113566Y-122916657D01*
X143007666Y-122993599D01*
X142922490Y-123055483D01*
X142922488Y-123055485D01*
X142922487Y-123055485D01*
X142755485Y-123222487D01*
X142755485Y-123222488D01*
X142755483Y-123222490D01*
X142719158Y-123272487D01*
X142616657Y-123413566D01*
X142509433Y-123624003D01*
X142436446Y-123848631D01*
X142399500Y-124081902D01*
X142399500Y-125818097D01*
X136400500Y-125818097D01*
X136400500Y-124081902D01*
X136363553Y-123848631D01*
X136306812Y-123674003D01*
X136290568Y-123624008D01*
X136290566Y-123624005D01*
X136290566Y-123624003D01*
X136183342Y-123413566D01*
X136168376Y-123392967D01*
X136044517Y-123222490D01*
X135877510Y-123055483D01*
X135686433Y-122916657D01*
X135475996Y-122809433D01*
X135251368Y-122736446D01*
X135018097Y-122699500D01*
X135018092Y-122699500D01*
X134781908Y-122699500D01*
X134781903Y-122699500D01*
X134548631Y-122736446D01*
X134324003Y-122809433D01*
X134113566Y-122916657D01*
X134007666Y-122993599D01*
X133922490Y-123055483D01*
X133922488Y-123055485D01*
X133922487Y-123055485D01*
X133755485Y-123222487D01*
X133755485Y-123222488D01*
X133755483Y-123222490D01*
X133719158Y-123272487D01*
X133616657Y-123413566D01*
X133509433Y-123624003D01*
X133436446Y-123848631D01*
X133399500Y-124081902D01*
X133399500Y-125818097D01*
X132300500Y-125818097D01*
X132300500Y-124131902D01*
X132263553Y-123898631D01*
X132190566Y-123674003D01*
X132083342Y-123463566D01*
X131944517Y-123272490D01*
X131777510Y-123105483D01*
X131586433Y-122966657D01*
X131375996Y-122859433D01*
X131151368Y-122786446D01*
X130918097Y-122749500D01*
X130918092Y-122749500D01*
X130681908Y-122749500D01*
X130681903Y-122749500D01*
X130448631Y-122786446D01*
X130224003Y-122859433D01*
X130013566Y-122966657D01*
X129904550Y-123045862D01*
X129822490Y-123105483D01*
X129822488Y-123105485D01*
X129822487Y-123105485D01*
X129655485Y-123272487D01*
X129655485Y-123272488D01*
X129655483Y-123272490D01*
X129595862Y-123354550D01*
X129516657Y-123463566D01*
X129409433Y-123674003D01*
X129336446Y-123898631D01*
X129299500Y-124131902D01*
X129299500Y-125868097D01*
X123300500Y-125868097D01*
X123300500Y-124131902D01*
X123263553Y-123898631D01*
X123190566Y-123674003D01*
X123083342Y-123463566D01*
X122944517Y-123272490D01*
X122777510Y-123105483D01*
X122586433Y-122966657D01*
X122375996Y-122859433D01*
X122151368Y-122786446D01*
X121918097Y-122749500D01*
X121918092Y-122749500D01*
X121681908Y-122749500D01*
X121681903Y-122749500D01*
X121448631Y-122786446D01*
X121224003Y-122859433D01*
X121013566Y-122966657D01*
X120904550Y-123045862D01*
X120822490Y-123105483D01*
X120822488Y-123105485D01*
X120822487Y-123105485D01*
X120655485Y-123272487D01*
X120655485Y-123272488D01*
X120655483Y-123272490D01*
X120595862Y-123354550D01*
X120516657Y-123463566D01*
X120409433Y-123674003D01*
X120336446Y-123898631D01*
X120299500Y-124131902D01*
X120299500Y-125868097D01*
X107176305Y-125868097D01*
X107181195Y-114885188D01*
X110548700Y-114885188D01*
X110574325Y-114980823D01*
X110586271Y-115025404D01*
X110586271Y-115025405D01*
X110658847Y-115151110D01*
X110658852Y-115151116D01*
X113078738Y-117571002D01*
X113112223Y-117632325D01*
X113107239Y-117702017D01*
X113078738Y-117746364D01*
X112911506Y-117913596D01*
X112775965Y-118107169D01*
X112775964Y-118107171D01*
X112676098Y-118321335D01*
X112676094Y-118321344D01*
X112614938Y-118549586D01*
X112614936Y-118549596D01*
X112594341Y-118784999D01*
X112594341Y-118785000D01*
X112614936Y-119020403D01*
X112614938Y-119020413D01*
X112676094Y-119248655D01*
X112676096Y-119248659D01*
X112676097Y-119248663D01*
X112770215Y-119450499D01*
X112775965Y-119462830D01*
X112775967Y-119462834D01*
X112884281Y-119617521D01*
X112911505Y-119656401D01*
X113078599Y-119823495D01*
X113175384Y-119891265D01*
X113272165Y-119959032D01*
X113272167Y-119959033D01*
X113272170Y-119959035D01*
X113486337Y-120058903D01*
X113714592Y-120120063D01*
X113902918Y-120136539D01*
X113949999Y-120140659D01*
X113950000Y-120140659D01*
X113950001Y-120140659D01*
X113989234Y-120137226D01*
X114185408Y-120120063D01*
X114413663Y-120058903D01*
X114627830Y-119959035D01*
X114821401Y-119823495D01*
X114988495Y-119656401D01*
X115118425Y-119470842D01*
X115173002Y-119427217D01*
X115242500Y-119420023D01*
X115304855Y-119451546D01*
X115321575Y-119470842D01*
X115451501Y-119656396D01*
X115451506Y-119656402D01*
X115618597Y-119823493D01*
X115618603Y-119823498D01*
X115804158Y-119953425D01*
X115847783Y-120008002D01*
X115854977Y-120077500D01*
X115823454Y-120139855D01*
X115804158Y-120156575D01*
X115618597Y-120286505D01*
X115451505Y-120453597D01*
X115315965Y-120647169D01*
X115315964Y-120647171D01*
X115216098Y-120861335D01*
X115216094Y-120861344D01*
X115154938Y-121089586D01*
X115154936Y-121089596D01*
X115134341Y-121324999D01*
X115134341Y-121325000D01*
X115154936Y-121560403D01*
X115154938Y-121560413D01*
X115216094Y-121788655D01*
X115216096Y-121788659D01*
X115216097Y-121788663D01*
X115315965Y-122002830D01*
X115315967Y-122002834D01*
X115451501Y-122196395D01*
X115451506Y-122196402D01*
X115618597Y-122363493D01*
X115618603Y-122363498D01*
X115804158Y-122493425D01*
X115847783Y-122548002D01*
X115854977Y-122617500D01*
X115823454Y-122679855D01*
X115804158Y-122696575D01*
X115618597Y-122826505D01*
X115451505Y-122993597D01*
X115321575Y-123179158D01*
X115266998Y-123222783D01*
X115197500Y-123229977D01*
X115135145Y-123198454D01*
X115118425Y-123179158D01*
X114988494Y-122993597D01*
X114821402Y-122826506D01*
X114821395Y-122826501D01*
X114627834Y-122690967D01*
X114627830Y-122690965D01*
X114627828Y-122690964D01*
X114413663Y-122591097D01*
X114413659Y-122591096D01*
X114413655Y-122591094D01*
X114185413Y-122529938D01*
X114185403Y-122529936D01*
X113950001Y-122509341D01*
X113949999Y-122509341D01*
X113714596Y-122529936D01*
X113714586Y-122529938D01*
X113486344Y-122591094D01*
X113486335Y-122591098D01*
X113272171Y-122690964D01*
X113272169Y-122690965D01*
X113078597Y-122826505D01*
X112911505Y-122993597D01*
X112775965Y-123187169D01*
X112775964Y-123187171D01*
X112676098Y-123401335D01*
X112676094Y-123401344D01*
X112614938Y-123629586D01*
X112614936Y-123629596D01*
X112594341Y-123864999D01*
X112594341Y-123865000D01*
X112614936Y-124100403D01*
X112614938Y-124100413D01*
X112676094Y-124328655D01*
X112676096Y-124328659D01*
X112676097Y-124328663D01*
X112680000Y-124337032D01*
X112775965Y-124542830D01*
X112775967Y-124542834D01*
X112884281Y-124697521D01*
X112911505Y-124736401D01*
X113078599Y-124903495D01*
X113175384Y-124971265D01*
X113272165Y-125039032D01*
X113272167Y-125039033D01*
X113272170Y-125039035D01*
X113486337Y-125138903D01*
X113714592Y-125200063D01*
X113902918Y-125216539D01*
X113949999Y-125220659D01*
X113950000Y-125220659D01*
X113950001Y-125220659D01*
X113989234Y-125217226D01*
X114185408Y-125200063D01*
X114413663Y-125138903D01*
X114627830Y-125039035D01*
X114821401Y-124903495D01*
X114988495Y-124736401D01*
X115118425Y-124550842D01*
X115173002Y-124507217D01*
X115242500Y-124500023D01*
X115304855Y-124531546D01*
X115321575Y-124550842D01*
X115451500Y-124736395D01*
X115451505Y-124736401D01*
X115618599Y-124903495D01*
X115715384Y-124971265D01*
X115812165Y-125039032D01*
X115812167Y-125039033D01*
X115812170Y-125039035D01*
X116026337Y-125138903D01*
X116254592Y-125200063D01*
X116442918Y-125216539D01*
X116489999Y-125220659D01*
X116490000Y-125220659D01*
X116490001Y-125220659D01*
X116529234Y-125217226D01*
X116725408Y-125200063D01*
X116953663Y-125138903D01*
X117167830Y-125039035D01*
X117361401Y-124903495D01*
X117528495Y-124736401D01*
X117664035Y-124542830D01*
X117763903Y-124328663D01*
X117825063Y-124100408D01*
X117845659Y-123865000D01*
X117825063Y-123629592D01*
X117763903Y-123401337D01*
X117664035Y-123187171D01*
X117658425Y-123179158D01*
X117528494Y-122993597D01*
X117361402Y-122826506D01*
X117361396Y-122826501D01*
X117175842Y-122696575D01*
X117132217Y-122641998D01*
X117125023Y-122572500D01*
X117156546Y-122510145D01*
X117175842Y-122493425D01*
X117198026Y-122477891D01*
X117361401Y-122363495D01*
X117528495Y-122196401D01*
X117664035Y-122002830D01*
X117763903Y-121788663D01*
X117825063Y-121560408D01*
X117845659Y-121325000D01*
X117825063Y-121089592D01*
X117763903Y-120861337D01*
X117664035Y-120647171D01*
X117528495Y-120453599D01*
X117528494Y-120453597D01*
X117361402Y-120286506D01*
X117361396Y-120286501D01*
X117175842Y-120156575D01*
X117132217Y-120101998D01*
X117125023Y-120032500D01*
X117156546Y-119970145D01*
X117175842Y-119953425D01*
X117198026Y-119937891D01*
X117361401Y-119823495D01*
X117528495Y-119656401D01*
X117664035Y-119462830D01*
X117763903Y-119248663D01*
X117817705Y-119047870D01*
X123799500Y-119047870D01*
X123799501Y-119047876D01*
X123805908Y-119107483D01*
X123856202Y-119242328D01*
X123856206Y-119242335D01*
X123942452Y-119357544D01*
X123942455Y-119357547D01*
X124057664Y-119443793D01*
X124057671Y-119443797D01*
X124192517Y-119494091D01*
X124192516Y-119494091D01*
X124199444Y-119494835D01*
X124252127Y-119500500D01*
X128347872Y-119500499D01*
X128407483Y-119494091D01*
X128542331Y-119443796D01*
X128657546Y-119357546D01*
X128743796Y-119242331D01*
X128794091Y-119107483D01*
X128800500Y-119047873D01*
X128800500Y-118997870D01*
X136899500Y-118997870D01*
X136899501Y-118997876D01*
X136905908Y-119057483D01*
X136956202Y-119192328D01*
X136956206Y-119192335D01*
X137042452Y-119307544D01*
X137042455Y-119307547D01*
X137157664Y-119393793D01*
X137157671Y-119393797D01*
X137292517Y-119444091D01*
X137292516Y-119444091D01*
X137299444Y-119444835D01*
X137352127Y-119450500D01*
X141447872Y-119450499D01*
X141507483Y-119444091D01*
X141642331Y-119393796D01*
X141757546Y-119307546D01*
X141843796Y-119192331D01*
X141894091Y-119057483D01*
X141900500Y-118997873D01*
X141900500Y-118997870D01*
X150149500Y-118997870D01*
X150149501Y-118997876D01*
X150155908Y-119057483D01*
X150206202Y-119192328D01*
X150206206Y-119192335D01*
X150292452Y-119307544D01*
X150292455Y-119307547D01*
X150407664Y-119393793D01*
X150407671Y-119393797D01*
X150542517Y-119444091D01*
X150542516Y-119444091D01*
X150549444Y-119444835D01*
X150602127Y-119450500D01*
X154697872Y-119450499D01*
X154757483Y-119444091D01*
X154892331Y-119393796D01*
X155007546Y-119307546D01*
X155093796Y-119192331D01*
X155144091Y-119057483D01*
X155150500Y-118997873D01*
X155150499Y-116902128D01*
X155144091Y-116842517D01*
X155093796Y-116707669D01*
X155093795Y-116707668D01*
X155093793Y-116707664D01*
X155007547Y-116592455D01*
X155007544Y-116592452D01*
X154892335Y-116506206D01*
X154892328Y-116506202D01*
X154757482Y-116455908D01*
X154757483Y-116455908D01*
X154697883Y-116449501D01*
X154697881Y-116449500D01*
X154697873Y-116449500D01*
X154697864Y-116449500D01*
X150602129Y-116449500D01*
X150602123Y-116449501D01*
X150542516Y-116455908D01*
X150407671Y-116506202D01*
X150407664Y-116506206D01*
X150292455Y-116592452D01*
X150292452Y-116592455D01*
X150206206Y-116707664D01*
X150206202Y-116707671D01*
X150155908Y-116842517D01*
X150150533Y-116892516D01*
X150149501Y-116902123D01*
X150149500Y-116902135D01*
X150149500Y-118997870D01*
X141900500Y-118997870D01*
X141900499Y-116902128D01*
X141894091Y-116842517D01*
X141843796Y-116707669D01*
X141843795Y-116707668D01*
X141843793Y-116707664D01*
X141757547Y-116592455D01*
X141757544Y-116592452D01*
X141642335Y-116506206D01*
X141642328Y-116506202D01*
X141507482Y-116455908D01*
X141507483Y-116455908D01*
X141447883Y-116449501D01*
X141447881Y-116449500D01*
X141447873Y-116449500D01*
X141447864Y-116449500D01*
X137352129Y-116449500D01*
X137352123Y-116449501D01*
X137292516Y-116455908D01*
X137157671Y-116506202D01*
X137157664Y-116506206D01*
X137042455Y-116592452D01*
X137042452Y-116592455D01*
X136956206Y-116707664D01*
X136956202Y-116707671D01*
X136905908Y-116842517D01*
X136900533Y-116892516D01*
X136899501Y-116902123D01*
X136899500Y-116902135D01*
X136899500Y-118997870D01*
X128800500Y-118997870D01*
X128800499Y-116952128D01*
X128794091Y-116892517D01*
X128775442Y-116842517D01*
X128743797Y-116757671D01*
X128743793Y-116757664D01*
X128657547Y-116642455D01*
X128657544Y-116642452D01*
X128542335Y-116556206D01*
X128542328Y-116556202D01*
X128407482Y-116505908D01*
X128407483Y-116505908D01*
X128347883Y-116499501D01*
X128347881Y-116499500D01*
X128347873Y-116499500D01*
X128347864Y-116499500D01*
X124252129Y-116499500D01*
X124252123Y-116499501D01*
X124192516Y-116505908D01*
X124057671Y-116556202D01*
X124057664Y-116556206D01*
X123942455Y-116642452D01*
X123942452Y-116642455D01*
X123856206Y-116757664D01*
X123856202Y-116757671D01*
X123805908Y-116892517D01*
X123799501Y-116952116D01*
X123799501Y-116952123D01*
X123799500Y-116952135D01*
X123799500Y-119047870D01*
X117817705Y-119047870D01*
X117825063Y-119020408D01*
X117845659Y-118785000D01*
X117825063Y-118549592D01*
X117763903Y-118321337D01*
X117664035Y-118107171D01*
X117528495Y-117913599D01*
X117528494Y-117913597D01*
X117361261Y-117746364D01*
X117327776Y-117685041D01*
X117332760Y-117615349D01*
X117361261Y-117571002D01*
X118541150Y-116391114D01*
X118613730Y-116265402D01*
X118651300Y-116125188D01*
X118651300Y-115980028D01*
X118651300Y-107622420D01*
X118613730Y-107482206D01*
X118572620Y-107411002D01*
X118541152Y-107356497D01*
X118541147Y-107356491D01*
X117808062Y-106623406D01*
X117774577Y-106562083D01*
X117775967Y-106503635D01*
X117825063Y-106320408D01*
X117845659Y-106085000D01*
X117825063Y-105849592D01*
X117763903Y-105621337D01*
X117664035Y-105407171D01*
X117563907Y-105264172D01*
X117528494Y-105213597D01*
X117504945Y-105190048D01*
X117471460Y-105128725D01*
X117476444Y-105059033D01*
X117504943Y-105014688D01*
X118136750Y-104382882D01*
X118209330Y-104257170D01*
X118246900Y-104116956D01*
X118246900Y-103971796D01*
X118246900Y-100671486D01*
X118266585Y-100604447D01*
X118283219Y-100583805D01*
X127329405Y-91537619D01*
X127390728Y-91504134D01*
X127417086Y-91501300D01*
X127822578Y-91501300D01*
X127822580Y-91501300D01*
X127962794Y-91463730D01*
X128088506Y-91391150D01*
X128325179Y-91154475D01*
X128386498Y-91120993D01*
X128398955Y-91118941D01*
X128462461Y-91111786D01*
X128616775Y-91057789D01*
X128755204Y-90970808D01*
X128870808Y-90855204D01*
X128957789Y-90716775D01*
X128995660Y-90608545D01*
X129036382Y-90551770D01*
X129101335Y-90526022D01*
X129112702Y-90525500D01*
X129398378Y-90525500D01*
X129398380Y-90525500D01*
X129538594Y-90487930D01*
X129664306Y-90415350D01*
X136891150Y-83188506D01*
X136963730Y-83062794D01*
X137001300Y-82922580D01*
X137001300Y-82777420D01*
X137001300Y-80350003D01*
X138319909Y-80350003D01*
X138338212Y-80512455D01*
X138392210Y-80666774D01*
X138423628Y-80716775D01*
X138479192Y-80805204D01*
X138594796Y-80920808D01*
X138733225Y-81007789D01*
X138887539Y-81061786D01*
X138887542Y-81061786D01*
X138887544Y-81061787D01*
X139049996Y-81080091D01*
X139050000Y-81080091D01*
X139050004Y-81080091D01*
X139212455Y-81061787D01*
X139212456Y-81061786D01*
X139212461Y-81061786D01*
X139366775Y-81007789D01*
X139505204Y-80920808D01*
X139620808Y-80805204D01*
X139707789Y-80666775D01*
X139761786Y-80512461D01*
X139761787Y-80512455D01*
X139780091Y-80350003D01*
X139780091Y-80349996D01*
X139761787Y-80187544D01*
X139761786Y-80187542D01*
X139761786Y-80187539D01*
X139707789Y-80033225D01*
X139620808Y-79894796D01*
X139505204Y-79779192D01*
X139366774Y-79692210D01*
X139212455Y-79638212D01*
X139050004Y-79619909D01*
X139049996Y-79619909D01*
X138887544Y-79638212D01*
X138733225Y-79692210D01*
X138594795Y-79779192D01*
X138479192Y-79894795D01*
X138392210Y-80033225D01*
X138338212Y-80187544D01*
X138319909Y-80349996D01*
X138319909Y-80350003D01*
X137001300Y-80350003D01*
X137001300Y-77053674D01*
X137020985Y-76986635D01*
X137073789Y-76940880D01*
X137084341Y-76936633D01*
X137166775Y-76907789D01*
X137305204Y-76820808D01*
X137420808Y-76705204D01*
X137507789Y-76566775D01*
X137561786Y-76412461D01*
X137561787Y-76412455D01*
X137580091Y-76250003D01*
X137580091Y-76249996D01*
X137561787Y-76087544D01*
X137561786Y-76087542D01*
X137561786Y-76087539D01*
X137507789Y-75933225D01*
X137420808Y-75794796D01*
X137305204Y-75679192D01*
X137299729Y-75675752D01*
X137166774Y-75592210D01*
X137012455Y-75538212D01*
X136850004Y-75519909D01*
X136849996Y-75519909D01*
X136687544Y-75538212D01*
X136533223Y-75592211D01*
X136515968Y-75603053D01*
X136448731Y-75622051D01*
X136384032Y-75603053D01*
X136366776Y-75592211D01*
X136212455Y-75538212D01*
X136050004Y-75519909D01*
X136049996Y-75519909D01*
X135887544Y-75538212D01*
X135798352Y-75569422D01*
X135728573Y-75572983D01*
X135669717Y-75540061D01*
X133538508Y-73408852D01*
X133538502Y-73408847D01*
X133412796Y-73336271D01*
X133412795Y-73336270D01*
X133412794Y-73336270D01*
X133272580Y-73298700D01*
X113198045Y-73298700D01*
X113052884Y-73298700D01*
X112912670Y-73336270D01*
X112912669Y-73336270D01*
X112912667Y-73336271D01*
X112912666Y-73336271D01*
X112786961Y-73408847D01*
X112786955Y-73408852D01*
X110658852Y-75536955D01*
X110658847Y-75536961D01*
X110586271Y-75662666D01*
X110586271Y-75662667D01*
X110586270Y-75662669D01*
X110586270Y-75662670D01*
X110548700Y-75802884D01*
X110548700Y-114740028D01*
X110548700Y-114885188D01*
X107181195Y-114885188D01*
X107199074Y-74728548D01*
X107218788Y-74661519D01*
X107271613Y-74615788D01*
X107340776Y-74605875D01*
X107404318Y-74634928D01*
X107423392Y-74655720D01*
X107508028Y-74772212D01*
X107508032Y-74772217D01*
X107652786Y-74916971D01*
X107807749Y-75029556D01*
X107818390Y-75037287D01*
X107934607Y-75096503D01*
X108000776Y-75130218D01*
X108000778Y-75130218D01*
X108000781Y-75130220D01*
X108073661Y-75153900D01*
X108195465Y-75193477D01*
X108296557Y-75209488D01*
X108397648Y-75225500D01*
X108397649Y-75225500D01*
X108602351Y-75225500D01*
X108602352Y-75225500D01*
X108804534Y-75193477D01*
X108999219Y-75130220D01*
X109181610Y-75037287D01*
X109274590Y-74969732D01*
X109347213Y-74916971D01*
X109347215Y-74916968D01*
X109347219Y-74916966D01*
X109491966Y-74772219D01*
X109491968Y-74772215D01*
X109491971Y-74772213D01*
X109544732Y-74699590D01*
X109612287Y-74606610D01*
X109705220Y-74424219D01*
X109768477Y-74229534D01*
X109800500Y-74027352D01*
X109800500Y-73822648D01*
X109768477Y-73620465D01*
X109705218Y-73425776D01*
X109659612Y-73336270D01*
X109612287Y-73243390D01*
X109604556Y-73232749D01*
X109491971Y-73077786D01*
X109347217Y-72933032D01*
X109347212Y-72933028D01*
X109263749Y-72872389D01*
X109221083Y-72817060D01*
X109215104Y-72747446D01*
X109247709Y-72685651D01*
X109308548Y-72651294D01*
X109336515Y-72648071D01*
X160326596Y-72602051D01*
X160393651Y-72621675D01*
G37*
G04 #@! TD.AperFunction*
G04 #@! TA.AperFunction,Conductor*
G36*
X160005856Y-128540630D02*
G01*
X125575159Y-128724999D01*
X125575000Y-128725000D01*
X109317402Y-128791267D01*
X109311163Y-128789462D01*
X160010867Y-128539374D01*
X160005856Y-128540630D01*
G37*
G04 #@! TD.AperFunction*
G04 #@! TA.AperFunction,Conductor*
G36*
X162798015Y-128525679D02*
G01*
X162204022Y-128528860D01*
X162202984Y-128528561D01*
X162798205Y-128525625D01*
X162798015Y-128525679D01*
G37*
G04 #@! TD.AperFunction*
G04 #@! TA.AperFunction,Conductor*
G36*
X109336515Y-72648071D02*
G01*
X109336508Y-72648071D01*
X148995466Y-72612277D01*
X109336515Y-72648071D01*
G37*
G04 #@! TD.AperFunction*
M02*
