G04 #@! TF.GenerationSoftware,KiCad,Pcbnew,9.0.5*
G04 #@! TF.CreationDate,2025-10-28T18:45:17-07:00*
G04 #@! TF.ProjectId,iris-128b-adapter,69726973-2d31-4323-9862-2d6164617074,rev?*
G04 #@! TF.SameCoordinates,Original*
G04 #@! TF.FileFunction,Legend,Top*
G04 #@! TF.FilePolarity,Positive*
%FSLAX46Y46*%
G04 Gerber Fmt 4.6, Leading zero omitted, Abs format (unit mm)*
G04 Created by KiCad (PCBNEW 9.0.5) date 2025-10-28 18:45:17*
%MOMM*%
%LPD*%
G01*
G04 APERTURE LIST*
G04 Aperture macros list*
%AMRoundRect*
0 Rectangle with rounded corners*
0 $1 Rounding radius*
0 $2 $3 $4 $5 $6 $7 $8 $9 X,Y pos of 4 corners*
0 Add a 4 corners polygon primitive as box body*
4,1,4,$2,$3,$4,$5,$6,$7,$8,$9,$2,$3,0*
0 Add four circle primitives for the rounded corners*
1,1,$1+$1,$2,$3*
1,1,$1+$1,$4,$5*
1,1,$1+$1,$6,$7*
1,1,$1+$1,$8,$9*
0 Add four rect primitives between the rounded corners*
20,1,$1+$1,$2,$3,$4,$5,0*
20,1,$1+$1,$4,$5,$6,$7,0*
20,1,$1+$1,$6,$7,$8,$9,0*
20,1,$1+$1,$8,$9,$2,$3,0*%
G04 Aperture macros list end*
%ADD10C,0.100000*%
%ADD11C,0.150000*%
%ADD12C,0.101600*%
%ADD13C,0.120000*%
%ADD14C,0.127000*%
%ADD15C,2.100000*%
%ADD16RoundRect,0.100000X-0.130000X-0.100000X0.130000X-0.100000X0.130000X0.100000X-0.130000X0.100000X0*%
%ADD17C,1.600000*%
%ADD18R,4.000000X2.000000*%
%ADD19O,3.300000X2.000000*%
%ADD20O,2.000000X3.500000*%
%ADD21RoundRect,0.100000X0.100000X-0.130000X0.100000X0.130000X-0.100000X0.130000X-0.100000X-0.130000X0*%
%ADD22R,1.700000X1.700000*%
%ADD23O,1.700000X1.700000*%
%ADD24RoundRect,0.100000X0.130000X0.100000X-0.130000X0.100000X-0.130000X-0.100000X0.130000X-0.100000X0*%
%ADD25RoundRect,0.101600X0.381000X-0.190500X0.381000X0.190500X-0.381000X0.190500X-0.381000X-0.190500X0*%
%ADD26RoundRect,0.101600X0.508000X-0.190500X0.508000X0.190500X-0.508000X0.190500X-0.508000X-0.190500X0*%
%ADD27RoundRect,0.155000X-0.000010X0.300000X-0.000010X-0.300000X0.000010X-0.300000X0.000010X0.300000X0*%
%ADD28R,1.810000X1.380000*%
%ADD29R,1.950000X1.800000*%
G04 APERTURE END LIST*
D10*
X111097931Y-121034990D02*
X111040789Y-120996895D01*
X111040789Y-120996895D02*
X110955074Y-120996895D01*
X110955074Y-120996895D02*
X110869360Y-121034990D01*
X110869360Y-121034990D02*
X110812217Y-121111180D01*
X110812217Y-121111180D02*
X110783646Y-121187371D01*
X110783646Y-121187371D02*
X110755074Y-121339752D01*
X110755074Y-121339752D02*
X110755074Y-121454038D01*
X110755074Y-121454038D02*
X110783646Y-121606419D01*
X110783646Y-121606419D02*
X110812217Y-121682609D01*
X110812217Y-121682609D02*
X110869360Y-121758800D01*
X110869360Y-121758800D02*
X110955074Y-121796895D01*
X110955074Y-121796895D02*
X111012217Y-121796895D01*
X111012217Y-121796895D02*
X111097931Y-121758800D01*
X111097931Y-121758800D02*
X111126503Y-121720704D01*
X111126503Y-121720704D02*
X111126503Y-121454038D01*
X111126503Y-121454038D02*
X111012217Y-121454038D01*
X111383646Y-121796895D02*
X111383646Y-120996895D01*
X111383646Y-120996895D02*
X111726503Y-121796895D01*
X111726503Y-121796895D02*
X111726503Y-120996895D01*
X112012217Y-121796895D02*
X112012217Y-120996895D01*
X112012217Y-120996895D02*
X112155074Y-120996895D01*
X112155074Y-120996895D02*
X112240788Y-121034990D01*
X112240788Y-121034990D02*
X112297931Y-121111180D01*
X112297931Y-121111180D02*
X112326502Y-121187371D01*
X112326502Y-121187371D02*
X112355074Y-121339752D01*
X112355074Y-121339752D02*
X112355074Y-121454038D01*
X112355074Y-121454038D02*
X112326502Y-121606419D01*
X112326502Y-121606419D02*
X112297931Y-121682609D01*
X112297931Y-121682609D02*
X112240788Y-121758800D01*
X112240788Y-121758800D02*
X112155074Y-121796895D01*
X112155074Y-121796895D02*
X112012217Y-121796895D01*
X118541353Y-90582866D02*
X118084211Y-90582866D01*
X118312782Y-90278104D02*
X118312782Y-90887628D01*
X118516353Y-83157866D02*
X118059211Y-83157866D01*
X119108646Y-100546895D02*
X119108646Y-101194514D01*
X119108646Y-101194514D02*
X119137217Y-101270704D01*
X119137217Y-101270704D02*
X119165789Y-101308800D01*
X119165789Y-101308800D02*
X119222931Y-101346895D01*
X119222931Y-101346895D02*
X119337217Y-101346895D01*
X119337217Y-101346895D02*
X119394360Y-101308800D01*
X119394360Y-101308800D02*
X119422931Y-101270704D01*
X119422931Y-101270704D02*
X119451503Y-101194514D01*
X119451503Y-101194514D02*
X119451503Y-100546895D01*
X120022931Y-100546895D02*
X119737217Y-100546895D01*
X119737217Y-100546895D02*
X119708645Y-100927847D01*
X119708645Y-100927847D02*
X119737217Y-100889752D01*
X119737217Y-100889752D02*
X119794360Y-100851657D01*
X119794360Y-100851657D02*
X119937217Y-100851657D01*
X119937217Y-100851657D02*
X119994360Y-100889752D01*
X119994360Y-100889752D02*
X120022931Y-100927847D01*
X120022931Y-100927847D02*
X120051502Y-101004038D01*
X120051502Y-101004038D02*
X120051502Y-101194514D01*
X120051502Y-101194514D02*
X120022931Y-101270704D01*
X120022931Y-101270704D02*
X119994360Y-101308800D01*
X119994360Y-101308800D02*
X119937217Y-101346895D01*
X119937217Y-101346895D02*
X119794360Y-101346895D01*
X119794360Y-101346895D02*
X119737217Y-101308800D01*
X119737217Y-101308800D02*
X119708645Y-101270704D01*
X111596895Y-119791353D02*
X110796895Y-119791353D01*
X110796895Y-119791353D02*
X111368323Y-119591353D01*
X111368323Y-119591353D02*
X110796895Y-119391353D01*
X110796895Y-119391353D02*
X111596895Y-119391353D01*
X111596895Y-119105639D02*
X110796895Y-119105639D01*
X111558800Y-118848497D02*
X111596895Y-118762783D01*
X111596895Y-118762783D02*
X111596895Y-118619925D01*
X111596895Y-118619925D02*
X111558800Y-118562783D01*
X111558800Y-118562783D02*
X111520704Y-118534211D01*
X111520704Y-118534211D02*
X111444514Y-118505640D01*
X111444514Y-118505640D02*
X111368323Y-118505640D01*
X111368323Y-118505640D02*
X111292133Y-118534211D01*
X111292133Y-118534211D02*
X111254038Y-118562783D01*
X111254038Y-118562783D02*
X111215942Y-118619925D01*
X111215942Y-118619925D02*
X111177847Y-118734211D01*
X111177847Y-118734211D02*
X111139752Y-118791354D01*
X111139752Y-118791354D02*
X111101657Y-118819925D01*
X111101657Y-118819925D02*
X111025466Y-118848497D01*
X111025466Y-118848497D02*
X110949276Y-118848497D01*
X110949276Y-118848497D02*
X110873085Y-118819925D01*
X110873085Y-118819925D02*
X110834990Y-118791354D01*
X110834990Y-118791354D02*
X110796895Y-118734211D01*
X110796895Y-118734211D02*
X110796895Y-118591354D01*
X110796895Y-118591354D02*
X110834990Y-118505640D01*
X110796895Y-118134211D02*
X110796895Y-118019925D01*
X110796895Y-118019925D02*
X110834990Y-117962782D01*
X110834990Y-117962782D02*
X110911180Y-117905639D01*
X110911180Y-117905639D02*
X111063561Y-117877068D01*
X111063561Y-117877068D02*
X111330228Y-117877068D01*
X111330228Y-117877068D02*
X111482609Y-117905639D01*
X111482609Y-117905639D02*
X111558800Y-117962782D01*
X111558800Y-117962782D02*
X111596895Y-118019925D01*
X111596895Y-118019925D02*
X111596895Y-118134211D01*
X111596895Y-118134211D02*
X111558800Y-118191354D01*
X111558800Y-118191354D02*
X111482609Y-118248496D01*
X111482609Y-118248496D02*
X111330228Y-118277068D01*
X111330228Y-118277068D02*
X111063561Y-118277068D01*
X111063561Y-118277068D02*
X110911180Y-118248496D01*
X110911180Y-118248496D02*
X110834990Y-118191354D01*
X110834990Y-118191354D02*
X110796895Y-118134211D01*
X119058646Y-85196895D02*
X119058646Y-85844514D01*
X119058646Y-85844514D02*
X119087217Y-85920704D01*
X119087217Y-85920704D02*
X119115789Y-85958800D01*
X119115789Y-85958800D02*
X119172931Y-85996895D01*
X119172931Y-85996895D02*
X119287217Y-85996895D01*
X119287217Y-85996895D02*
X119344360Y-85958800D01*
X119344360Y-85958800D02*
X119372931Y-85920704D01*
X119372931Y-85920704D02*
X119401503Y-85844514D01*
X119401503Y-85844514D02*
X119401503Y-85196895D01*
X120001502Y-85996895D02*
X119658645Y-85996895D01*
X119830074Y-85996895D02*
X119830074Y-85196895D01*
X119830074Y-85196895D02*
X119772931Y-85311180D01*
X119772931Y-85311180D02*
X119715788Y-85387371D01*
X119715788Y-85387371D02*
X119658645Y-85425466D01*
X112309211Y-113701914D02*
X111852068Y-113701914D01*
D11*
X129661779Y-92099931D02*
X129661779Y-91099931D01*
X129661779Y-91099931D02*
X129899874Y-91099931D01*
X129899874Y-91099931D02*
X130042731Y-91147550D01*
X130042731Y-91147550D02*
X130137969Y-91242788D01*
X130137969Y-91242788D02*
X130185588Y-91338026D01*
X130185588Y-91338026D02*
X130233207Y-91528502D01*
X130233207Y-91528502D02*
X130233207Y-91671359D01*
X130233207Y-91671359D02*
X130185588Y-91861835D01*
X130185588Y-91861835D02*
X130137969Y-91957073D01*
X130137969Y-91957073D02*
X130042731Y-92052312D01*
X130042731Y-92052312D02*
X129899874Y-92099931D01*
X129899874Y-92099931D02*
X129661779Y-92099931D01*
X131042731Y-92052312D02*
X130947493Y-92099931D01*
X130947493Y-92099931D02*
X130757017Y-92099931D01*
X130757017Y-92099931D02*
X130661779Y-92052312D01*
X130661779Y-92052312D02*
X130614160Y-91957073D01*
X130614160Y-91957073D02*
X130614160Y-91576121D01*
X130614160Y-91576121D02*
X130661779Y-91480883D01*
X130661779Y-91480883D02*
X130757017Y-91433264D01*
X130757017Y-91433264D02*
X130947493Y-91433264D01*
X130947493Y-91433264D02*
X131042731Y-91480883D01*
X131042731Y-91480883D02*
X131090350Y-91576121D01*
X131090350Y-91576121D02*
X131090350Y-91671359D01*
X131090350Y-91671359D02*
X130614160Y-91766597D01*
X131518922Y-92099931D02*
X131518922Y-91099931D01*
X131614160Y-91718978D02*
X131899874Y-92099931D01*
X131899874Y-91433264D02*
X131518922Y-91814216D01*
X132757017Y-91433264D02*
X132757017Y-92099931D01*
X132328446Y-91433264D02*
X132328446Y-91957073D01*
X132328446Y-91957073D02*
X132376065Y-92052312D01*
X132376065Y-92052312D02*
X132471303Y-92099931D01*
X132471303Y-92099931D02*
X132614160Y-92099931D01*
X132614160Y-92099931D02*
X132709398Y-92052312D01*
X132709398Y-92052312D02*
X132757017Y-92004692D01*
X134471303Y-92099931D02*
X133995113Y-92099931D01*
X133995113Y-92099931D02*
X133995113Y-91099931D01*
X135233208Y-92099931D02*
X135233208Y-91576121D01*
X135233208Y-91576121D02*
X135185589Y-91480883D01*
X135185589Y-91480883D02*
X135090351Y-91433264D01*
X135090351Y-91433264D02*
X134899875Y-91433264D01*
X134899875Y-91433264D02*
X134804637Y-91480883D01*
X135233208Y-92052312D02*
X135137970Y-92099931D01*
X135137970Y-92099931D02*
X134899875Y-92099931D01*
X134899875Y-92099931D02*
X134804637Y-92052312D01*
X134804637Y-92052312D02*
X134757018Y-91957073D01*
X134757018Y-91957073D02*
X134757018Y-91861835D01*
X134757018Y-91861835D02*
X134804637Y-91766597D01*
X134804637Y-91766597D02*
X134899875Y-91718978D01*
X134899875Y-91718978D02*
X135137970Y-91718978D01*
X135137970Y-91718978D02*
X135233208Y-91671359D01*
X135709399Y-92099931D02*
X135709399Y-91099931D01*
X135709399Y-91480883D02*
X135804637Y-91433264D01*
X135804637Y-91433264D02*
X135995113Y-91433264D01*
X135995113Y-91433264D02*
X136090351Y-91480883D01*
X136090351Y-91480883D02*
X136137970Y-91528502D01*
X136137970Y-91528502D02*
X136185589Y-91623740D01*
X136185589Y-91623740D02*
X136185589Y-91909454D01*
X136185589Y-91909454D02*
X136137970Y-92004692D01*
X136137970Y-92004692D02*
X136090351Y-92052312D01*
X136090351Y-92052312D02*
X135995113Y-92099931D01*
X135995113Y-92099931D02*
X135804637Y-92099931D01*
X135804637Y-92099931D02*
X135709399Y-92052312D01*
X129661779Y-93709875D02*
X129661779Y-92709875D01*
X129661779Y-92709875D02*
X129995112Y-93424160D01*
X129995112Y-93424160D02*
X130328445Y-92709875D01*
X130328445Y-92709875D02*
X130328445Y-93709875D01*
X130947493Y-93709875D02*
X130852255Y-93662256D01*
X130852255Y-93662256D02*
X130804636Y-93614636D01*
X130804636Y-93614636D02*
X130757017Y-93519398D01*
X130757017Y-93519398D02*
X130757017Y-93233684D01*
X130757017Y-93233684D02*
X130804636Y-93138446D01*
X130804636Y-93138446D02*
X130852255Y-93090827D01*
X130852255Y-93090827D02*
X130947493Y-93043208D01*
X130947493Y-93043208D02*
X131090350Y-93043208D01*
X131090350Y-93043208D02*
X131185588Y-93090827D01*
X131185588Y-93090827D02*
X131233207Y-93138446D01*
X131233207Y-93138446D02*
X131280826Y-93233684D01*
X131280826Y-93233684D02*
X131280826Y-93519398D01*
X131280826Y-93519398D02*
X131233207Y-93614636D01*
X131233207Y-93614636D02*
X131185588Y-93662256D01*
X131185588Y-93662256D02*
X131090350Y-93709875D01*
X131090350Y-93709875D02*
X130947493Y-93709875D01*
X131852255Y-93709875D02*
X131757017Y-93662256D01*
X131757017Y-93662256D02*
X131709398Y-93567017D01*
X131709398Y-93567017D02*
X131709398Y-92709875D01*
X132614160Y-93662256D02*
X132518922Y-93709875D01*
X132518922Y-93709875D02*
X132328446Y-93709875D01*
X132328446Y-93709875D02*
X132233208Y-93662256D01*
X132233208Y-93662256D02*
X132185589Y-93567017D01*
X132185589Y-93567017D02*
X132185589Y-93186065D01*
X132185589Y-93186065D02*
X132233208Y-93090827D01*
X132233208Y-93090827D02*
X132328446Y-93043208D01*
X132328446Y-93043208D02*
X132518922Y-93043208D01*
X132518922Y-93043208D02*
X132614160Y-93090827D01*
X132614160Y-93090827D02*
X132661779Y-93186065D01*
X132661779Y-93186065D02*
X132661779Y-93281303D01*
X132661779Y-93281303D02*
X132185589Y-93376541D01*
X132995113Y-93709875D02*
X133518922Y-93043208D01*
X132995113Y-93043208D02*
X133518922Y-93709875D01*
X133899875Y-93328922D02*
X134661780Y-93328922D01*
X135137970Y-93709875D02*
X135137970Y-92709875D01*
X135137970Y-92709875D02*
X135518922Y-92709875D01*
X135518922Y-92709875D02*
X135614160Y-92757494D01*
X135614160Y-92757494D02*
X135661779Y-92805113D01*
X135661779Y-92805113D02*
X135709398Y-92900351D01*
X135709398Y-92900351D02*
X135709398Y-93043208D01*
X135709398Y-93043208D02*
X135661779Y-93138446D01*
X135661779Y-93138446D02*
X135614160Y-93186065D01*
X135614160Y-93186065D02*
X135518922Y-93233684D01*
X135518922Y-93233684D02*
X135137970Y-93233684D01*
X136137970Y-93709875D02*
X136137970Y-93043208D01*
X136137970Y-92709875D02*
X136090351Y-92757494D01*
X136090351Y-92757494D02*
X136137970Y-92805113D01*
X136137970Y-92805113D02*
X136185589Y-92757494D01*
X136185589Y-92757494D02*
X136137970Y-92709875D01*
X136137970Y-92709875D02*
X136137970Y-92805113D01*
X136614160Y-93043208D02*
X136614160Y-93709875D01*
X136614160Y-93138446D02*
X136661779Y-93090827D01*
X136661779Y-93090827D02*
X136757017Y-93043208D01*
X136757017Y-93043208D02*
X136899874Y-93043208D01*
X136899874Y-93043208D02*
X136995112Y-93090827D01*
X136995112Y-93090827D02*
X137042731Y-93186065D01*
X137042731Y-93186065D02*
X137042731Y-93709875D01*
X138280827Y-93709875D02*
X138280827Y-92709875D01*
X138709398Y-93709875D02*
X138709398Y-93186065D01*
X138709398Y-93186065D02*
X138661779Y-93090827D01*
X138661779Y-93090827D02*
X138566541Y-93043208D01*
X138566541Y-93043208D02*
X138423684Y-93043208D01*
X138423684Y-93043208D02*
X138328446Y-93090827D01*
X138328446Y-93090827D02*
X138280827Y-93138446D01*
X139566541Y-93662256D02*
X139471303Y-93709875D01*
X139471303Y-93709875D02*
X139280827Y-93709875D01*
X139280827Y-93709875D02*
X139185589Y-93662256D01*
X139185589Y-93662256D02*
X139137970Y-93567017D01*
X139137970Y-93567017D02*
X139137970Y-93186065D01*
X139137970Y-93186065D02*
X139185589Y-93090827D01*
X139185589Y-93090827D02*
X139280827Y-93043208D01*
X139280827Y-93043208D02*
X139471303Y-93043208D01*
X139471303Y-93043208D02*
X139566541Y-93090827D01*
X139566541Y-93090827D02*
X139614160Y-93186065D01*
X139614160Y-93186065D02*
X139614160Y-93281303D01*
X139614160Y-93281303D02*
X139137970Y-93376541D01*
X140471303Y-93709875D02*
X140471303Y-93186065D01*
X140471303Y-93186065D02*
X140423684Y-93090827D01*
X140423684Y-93090827D02*
X140328446Y-93043208D01*
X140328446Y-93043208D02*
X140137970Y-93043208D01*
X140137970Y-93043208D02*
X140042732Y-93090827D01*
X140471303Y-93662256D02*
X140376065Y-93709875D01*
X140376065Y-93709875D02*
X140137970Y-93709875D01*
X140137970Y-93709875D02*
X140042732Y-93662256D01*
X140042732Y-93662256D02*
X139995113Y-93567017D01*
X139995113Y-93567017D02*
X139995113Y-93471779D01*
X139995113Y-93471779D02*
X140042732Y-93376541D01*
X140042732Y-93376541D02*
X140137970Y-93328922D01*
X140137970Y-93328922D02*
X140376065Y-93328922D01*
X140376065Y-93328922D02*
X140471303Y-93281303D01*
X141376065Y-93709875D02*
X141376065Y-92709875D01*
X141376065Y-93662256D02*
X141280827Y-93709875D01*
X141280827Y-93709875D02*
X141090351Y-93709875D01*
X141090351Y-93709875D02*
X140995113Y-93662256D01*
X140995113Y-93662256D02*
X140947494Y-93614636D01*
X140947494Y-93614636D02*
X140899875Y-93519398D01*
X140899875Y-93519398D02*
X140899875Y-93233684D01*
X140899875Y-93233684D02*
X140947494Y-93138446D01*
X140947494Y-93138446D02*
X140995113Y-93090827D01*
X140995113Y-93090827D02*
X141090351Y-93043208D01*
X141090351Y-93043208D02*
X141280827Y-93043208D01*
X141280827Y-93043208D02*
X141376065Y-93090827D01*
X142233208Y-93662256D02*
X142137970Y-93709875D01*
X142137970Y-93709875D02*
X141947494Y-93709875D01*
X141947494Y-93709875D02*
X141852256Y-93662256D01*
X141852256Y-93662256D02*
X141804637Y-93567017D01*
X141804637Y-93567017D02*
X141804637Y-93186065D01*
X141804637Y-93186065D02*
X141852256Y-93090827D01*
X141852256Y-93090827D02*
X141947494Y-93043208D01*
X141947494Y-93043208D02*
X142137970Y-93043208D01*
X142137970Y-93043208D02*
X142233208Y-93090827D01*
X142233208Y-93090827D02*
X142280827Y-93186065D01*
X142280827Y-93186065D02*
X142280827Y-93281303D01*
X142280827Y-93281303D02*
X141804637Y-93376541D01*
X142709399Y-93709875D02*
X142709399Y-93043208D01*
X142709399Y-93233684D02*
X142757018Y-93138446D01*
X142757018Y-93138446D02*
X142804637Y-93090827D01*
X142804637Y-93090827D02*
X142899875Y-93043208D01*
X142899875Y-93043208D02*
X142995113Y-93043208D01*
X144518923Y-93709875D02*
X144518923Y-93186065D01*
X144518923Y-93186065D02*
X144471304Y-93090827D01*
X144471304Y-93090827D02*
X144376066Y-93043208D01*
X144376066Y-93043208D02*
X144185590Y-93043208D01*
X144185590Y-93043208D02*
X144090352Y-93090827D01*
X144518923Y-93662256D02*
X144423685Y-93709875D01*
X144423685Y-93709875D02*
X144185590Y-93709875D01*
X144185590Y-93709875D02*
X144090352Y-93662256D01*
X144090352Y-93662256D02*
X144042733Y-93567017D01*
X144042733Y-93567017D02*
X144042733Y-93471779D01*
X144042733Y-93471779D02*
X144090352Y-93376541D01*
X144090352Y-93376541D02*
X144185590Y-93328922D01*
X144185590Y-93328922D02*
X144423685Y-93328922D01*
X144423685Y-93328922D02*
X144518923Y-93281303D01*
X145423685Y-93709875D02*
X145423685Y-92709875D01*
X145423685Y-93662256D02*
X145328447Y-93709875D01*
X145328447Y-93709875D02*
X145137971Y-93709875D01*
X145137971Y-93709875D02*
X145042733Y-93662256D01*
X145042733Y-93662256D02*
X144995114Y-93614636D01*
X144995114Y-93614636D02*
X144947495Y-93519398D01*
X144947495Y-93519398D02*
X144947495Y-93233684D01*
X144947495Y-93233684D02*
X144995114Y-93138446D01*
X144995114Y-93138446D02*
X145042733Y-93090827D01*
X145042733Y-93090827D02*
X145137971Y-93043208D01*
X145137971Y-93043208D02*
X145328447Y-93043208D01*
X145328447Y-93043208D02*
X145423685Y-93090827D01*
X146328447Y-93709875D02*
X146328447Y-93186065D01*
X146328447Y-93186065D02*
X146280828Y-93090827D01*
X146280828Y-93090827D02*
X146185590Y-93043208D01*
X146185590Y-93043208D02*
X145995114Y-93043208D01*
X145995114Y-93043208D02*
X145899876Y-93090827D01*
X146328447Y-93662256D02*
X146233209Y-93709875D01*
X146233209Y-93709875D02*
X145995114Y-93709875D01*
X145995114Y-93709875D02*
X145899876Y-93662256D01*
X145899876Y-93662256D02*
X145852257Y-93567017D01*
X145852257Y-93567017D02*
X145852257Y-93471779D01*
X145852257Y-93471779D02*
X145899876Y-93376541D01*
X145899876Y-93376541D02*
X145995114Y-93328922D01*
X145995114Y-93328922D02*
X146233209Y-93328922D01*
X146233209Y-93328922D02*
X146328447Y-93281303D01*
X146804638Y-93043208D02*
X146804638Y-94043208D01*
X146804638Y-93090827D02*
X146899876Y-93043208D01*
X146899876Y-93043208D02*
X147090352Y-93043208D01*
X147090352Y-93043208D02*
X147185590Y-93090827D01*
X147185590Y-93090827D02*
X147233209Y-93138446D01*
X147233209Y-93138446D02*
X147280828Y-93233684D01*
X147280828Y-93233684D02*
X147280828Y-93519398D01*
X147280828Y-93519398D02*
X147233209Y-93614636D01*
X147233209Y-93614636D02*
X147185590Y-93662256D01*
X147185590Y-93662256D02*
X147090352Y-93709875D01*
X147090352Y-93709875D02*
X146899876Y-93709875D01*
X146899876Y-93709875D02*
X146804638Y-93662256D01*
X147566543Y-93043208D02*
X147947495Y-93043208D01*
X147709400Y-92709875D02*
X147709400Y-93567017D01*
X147709400Y-93567017D02*
X147757019Y-93662256D01*
X147757019Y-93662256D02*
X147852257Y-93709875D01*
X147852257Y-93709875D02*
X147947495Y-93709875D01*
X148661781Y-93662256D02*
X148566543Y-93709875D01*
X148566543Y-93709875D02*
X148376067Y-93709875D01*
X148376067Y-93709875D02*
X148280829Y-93662256D01*
X148280829Y-93662256D02*
X148233210Y-93567017D01*
X148233210Y-93567017D02*
X148233210Y-93186065D01*
X148233210Y-93186065D02*
X148280829Y-93090827D01*
X148280829Y-93090827D02*
X148376067Y-93043208D01*
X148376067Y-93043208D02*
X148566543Y-93043208D01*
X148566543Y-93043208D02*
X148661781Y-93090827D01*
X148661781Y-93090827D02*
X148709400Y-93186065D01*
X148709400Y-93186065D02*
X148709400Y-93281303D01*
X148709400Y-93281303D02*
X148233210Y-93376541D01*
X149137972Y-93709875D02*
X149137972Y-93043208D01*
X149137972Y-93233684D02*
X149185591Y-93138446D01*
X149185591Y-93138446D02*
X149233210Y-93090827D01*
X149233210Y-93090827D02*
X149328448Y-93043208D01*
X149328448Y-93043208D02*
X149423686Y-93043208D01*
X129661779Y-95319819D02*
X129661779Y-94319819D01*
X129661779Y-94319819D02*
X129995112Y-95034104D01*
X129995112Y-95034104D02*
X130328445Y-94319819D01*
X130328445Y-94319819D02*
X130328445Y-95319819D01*
X130947493Y-95319819D02*
X130852255Y-95272200D01*
X130852255Y-95272200D02*
X130804636Y-95224580D01*
X130804636Y-95224580D02*
X130757017Y-95129342D01*
X130757017Y-95129342D02*
X130757017Y-94843628D01*
X130757017Y-94843628D02*
X130804636Y-94748390D01*
X130804636Y-94748390D02*
X130852255Y-94700771D01*
X130852255Y-94700771D02*
X130947493Y-94653152D01*
X130947493Y-94653152D02*
X131090350Y-94653152D01*
X131090350Y-94653152D02*
X131185588Y-94700771D01*
X131185588Y-94700771D02*
X131233207Y-94748390D01*
X131233207Y-94748390D02*
X131280826Y-94843628D01*
X131280826Y-94843628D02*
X131280826Y-95129342D01*
X131280826Y-95129342D02*
X131233207Y-95224580D01*
X131233207Y-95224580D02*
X131185588Y-95272200D01*
X131185588Y-95272200D02*
X131090350Y-95319819D01*
X131090350Y-95319819D02*
X130947493Y-95319819D01*
X131852255Y-95319819D02*
X131757017Y-95272200D01*
X131757017Y-95272200D02*
X131709398Y-95176961D01*
X131709398Y-95176961D02*
X131709398Y-94319819D01*
X132614160Y-95272200D02*
X132518922Y-95319819D01*
X132518922Y-95319819D02*
X132328446Y-95319819D01*
X132328446Y-95319819D02*
X132233208Y-95272200D01*
X132233208Y-95272200D02*
X132185589Y-95176961D01*
X132185589Y-95176961D02*
X132185589Y-94796009D01*
X132185589Y-94796009D02*
X132233208Y-94700771D01*
X132233208Y-94700771D02*
X132328446Y-94653152D01*
X132328446Y-94653152D02*
X132518922Y-94653152D01*
X132518922Y-94653152D02*
X132614160Y-94700771D01*
X132614160Y-94700771D02*
X132661779Y-94796009D01*
X132661779Y-94796009D02*
X132661779Y-94891247D01*
X132661779Y-94891247D02*
X132185589Y-94986485D01*
X132995113Y-95319819D02*
X133518922Y-94653152D01*
X132995113Y-94653152D02*
X133518922Y-95319819D01*
X133899875Y-94938866D02*
X134661780Y-94938866D01*
X135328446Y-94319819D02*
X135518922Y-94319819D01*
X135518922Y-94319819D02*
X135614160Y-94367438D01*
X135614160Y-94367438D02*
X135709398Y-94462676D01*
X135709398Y-94462676D02*
X135757017Y-94653152D01*
X135757017Y-94653152D02*
X135757017Y-94986485D01*
X135757017Y-94986485D02*
X135709398Y-95176961D01*
X135709398Y-95176961D02*
X135614160Y-95272200D01*
X135614160Y-95272200D02*
X135518922Y-95319819D01*
X135518922Y-95319819D02*
X135328446Y-95319819D01*
X135328446Y-95319819D02*
X135233208Y-95272200D01*
X135233208Y-95272200D02*
X135137970Y-95176961D01*
X135137970Y-95176961D02*
X135090351Y-94986485D01*
X135090351Y-94986485D02*
X135090351Y-94653152D01*
X135090351Y-94653152D02*
X135137970Y-94462676D01*
X135137970Y-94462676D02*
X135233208Y-94367438D01*
X135233208Y-94367438D02*
X135328446Y-94319819D01*
X136185589Y-95319819D02*
X136185589Y-94653152D01*
X136185589Y-94748390D02*
X136233208Y-94700771D01*
X136233208Y-94700771D02*
X136328446Y-94653152D01*
X136328446Y-94653152D02*
X136471303Y-94653152D01*
X136471303Y-94653152D02*
X136566541Y-94700771D01*
X136566541Y-94700771D02*
X136614160Y-94796009D01*
X136614160Y-94796009D02*
X136614160Y-95319819D01*
X136614160Y-94796009D02*
X136661779Y-94700771D01*
X136661779Y-94700771D02*
X136757017Y-94653152D01*
X136757017Y-94653152D02*
X136899874Y-94653152D01*
X136899874Y-94653152D02*
X136995113Y-94700771D01*
X136995113Y-94700771D02*
X137042732Y-94796009D01*
X137042732Y-94796009D02*
X137042732Y-95319819D01*
X137518922Y-94653152D02*
X137518922Y-95319819D01*
X137518922Y-94748390D02*
X137566541Y-94700771D01*
X137566541Y-94700771D02*
X137661779Y-94653152D01*
X137661779Y-94653152D02*
X137804636Y-94653152D01*
X137804636Y-94653152D02*
X137899874Y-94700771D01*
X137899874Y-94700771D02*
X137947493Y-94796009D01*
X137947493Y-94796009D02*
X137947493Y-95319819D01*
X138804636Y-95272200D02*
X138709398Y-95319819D01*
X138709398Y-95319819D02*
X138518922Y-95319819D01*
X138518922Y-95319819D02*
X138423684Y-95272200D01*
X138423684Y-95272200D02*
X138376065Y-95176961D01*
X138376065Y-95176961D02*
X138376065Y-94796009D01*
X138376065Y-94796009D02*
X138423684Y-94700771D01*
X138423684Y-94700771D02*
X138518922Y-94653152D01*
X138518922Y-94653152D02*
X138709398Y-94653152D01*
X138709398Y-94653152D02*
X138804636Y-94700771D01*
X138804636Y-94700771D02*
X138852255Y-94796009D01*
X138852255Y-94796009D02*
X138852255Y-94891247D01*
X138852255Y-94891247D02*
X138376065Y-94986485D01*
X139137970Y-94653152D02*
X139518922Y-94653152D01*
X139280827Y-94319819D02*
X139280827Y-95176961D01*
X139280827Y-95176961D02*
X139328446Y-95272200D01*
X139328446Y-95272200D02*
X139423684Y-95319819D01*
X139423684Y-95319819D02*
X139518922Y-95319819D01*
X139852256Y-95319819D02*
X139852256Y-94653152D01*
X139852256Y-94319819D02*
X139804637Y-94367438D01*
X139804637Y-94367438D02*
X139852256Y-94415057D01*
X139852256Y-94415057D02*
X139899875Y-94367438D01*
X139899875Y-94367438D02*
X139852256Y-94319819D01*
X139852256Y-94319819D02*
X139852256Y-94415057D01*
X140757017Y-95272200D02*
X140661779Y-95319819D01*
X140661779Y-95319819D02*
X140471303Y-95319819D01*
X140471303Y-95319819D02*
X140376065Y-95272200D01*
X140376065Y-95272200D02*
X140328446Y-95224580D01*
X140328446Y-95224580D02*
X140280827Y-95129342D01*
X140280827Y-95129342D02*
X140280827Y-94843628D01*
X140280827Y-94843628D02*
X140328446Y-94748390D01*
X140328446Y-94748390D02*
X140376065Y-94700771D01*
X140376065Y-94700771D02*
X140471303Y-94653152D01*
X140471303Y-94653152D02*
X140661779Y-94653152D01*
X140661779Y-94653152D02*
X140757017Y-94700771D01*
X141137970Y-95272200D02*
X141233208Y-95319819D01*
X141233208Y-95319819D02*
X141423684Y-95319819D01*
X141423684Y-95319819D02*
X141518922Y-95272200D01*
X141518922Y-95272200D02*
X141566541Y-95176961D01*
X141566541Y-95176961D02*
X141566541Y-95129342D01*
X141566541Y-95129342D02*
X141518922Y-95034104D01*
X141518922Y-95034104D02*
X141423684Y-94986485D01*
X141423684Y-94986485D02*
X141280827Y-94986485D01*
X141280827Y-94986485D02*
X141185589Y-94938866D01*
X141185589Y-94938866D02*
X141137970Y-94843628D01*
X141137970Y-94843628D02*
X141137970Y-94796009D01*
X141137970Y-94796009D02*
X141185589Y-94700771D01*
X141185589Y-94700771D02*
X141280827Y-94653152D01*
X141280827Y-94653152D02*
X141423684Y-94653152D01*
X141423684Y-94653152D02*
X141518922Y-94700771D01*
X143185589Y-95319819D02*
X143185589Y-94796009D01*
X143185589Y-94796009D02*
X143137970Y-94700771D01*
X143137970Y-94700771D02*
X143042732Y-94653152D01*
X143042732Y-94653152D02*
X142852256Y-94653152D01*
X142852256Y-94653152D02*
X142757018Y-94700771D01*
X143185589Y-95272200D02*
X143090351Y-95319819D01*
X143090351Y-95319819D02*
X142852256Y-95319819D01*
X142852256Y-95319819D02*
X142757018Y-95272200D01*
X142757018Y-95272200D02*
X142709399Y-95176961D01*
X142709399Y-95176961D02*
X142709399Y-95081723D01*
X142709399Y-95081723D02*
X142757018Y-94986485D01*
X142757018Y-94986485D02*
X142852256Y-94938866D01*
X142852256Y-94938866D02*
X143090351Y-94938866D01*
X143090351Y-94938866D02*
X143185589Y-94891247D01*
X144090351Y-95319819D02*
X144090351Y-94319819D01*
X144090351Y-95272200D02*
X143995113Y-95319819D01*
X143995113Y-95319819D02*
X143804637Y-95319819D01*
X143804637Y-95319819D02*
X143709399Y-95272200D01*
X143709399Y-95272200D02*
X143661780Y-95224580D01*
X143661780Y-95224580D02*
X143614161Y-95129342D01*
X143614161Y-95129342D02*
X143614161Y-94843628D01*
X143614161Y-94843628D02*
X143661780Y-94748390D01*
X143661780Y-94748390D02*
X143709399Y-94700771D01*
X143709399Y-94700771D02*
X143804637Y-94653152D01*
X143804637Y-94653152D02*
X143995113Y-94653152D01*
X143995113Y-94653152D02*
X144090351Y-94700771D01*
X144995113Y-95319819D02*
X144995113Y-94796009D01*
X144995113Y-94796009D02*
X144947494Y-94700771D01*
X144947494Y-94700771D02*
X144852256Y-94653152D01*
X144852256Y-94653152D02*
X144661780Y-94653152D01*
X144661780Y-94653152D02*
X144566542Y-94700771D01*
X144995113Y-95272200D02*
X144899875Y-95319819D01*
X144899875Y-95319819D02*
X144661780Y-95319819D01*
X144661780Y-95319819D02*
X144566542Y-95272200D01*
X144566542Y-95272200D02*
X144518923Y-95176961D01*
X144518923Y-95176961D02*
X144518923Y-95081723D01*
X144518923Y-95081723D02*
X144566542Y-94986485D01*
X144566542Y-94986485D02*
X144661780Y-94938866D01*
X144661780Y-94938866D02*
X144899875Y-94938866D01*
X144899875Y-94938866D02*
X144995113Y-94891247D01*
X145471304Y-94653152D02*
X145471304Y-95653152D01*
X145471304Y-94700771D02*
X145566542Y-94653152D01*
X145566542Y-94653152D02*
X145757018Y-94653152D01*
X145757018Y-94653152D02*
X145852256Y-94700771D01*
X145852256Y-94700771D02*
X145899875Y-94748390D01*
X145899875Y-94748390D02*
X145947494Y-94843628D01*
X145947494Y-94843628D02*
X145947494Y-95129342D01*
X145947494Y-95129342D02*
X145899875Y-95224580D01*
X145899875Y-95224580D02*
X145852256Y-95272200D01*
X145852256Y-95272200D02*
X145757018Y-95319819D01*
X145757018Y-95319819D02*
X145566542Y-95319819D01*
X145566542Y-95319819D02*
X145471304Y-95272200D01*
X146233209Y-94653152D02*
X146614161Y-94653152D01*
X146376066Y-94319819D02*
X146376066Y-95176961D01*
X146376066Y-95176961D02*
X146423685Y-95272200D01*
X146423685Y-95272200D02*
X146518923Y-95319819D01*
X146518923Y-95319819D02*
X146614161Y-95319819D01*
X147328447Y-95272200D02*
X147233209Y-95319819D01*
X147233209Y-95319819D02*
X147042733Y-95319819D01*
X147042733Y-95319819D02*
X146947495Y-95272200D01*
X146947495Y-95272200D02*
X146899876Y-95176961D01*
X146899876Y-95176961D02*
X146899876Y-94796009D01*
X146899876Y-94796009D02*
X146947495Y-94700771D01*
X146947495Y-94700771D02*
X147042733Y-94653152D01*
X147042733Y-94653152D02*
X147233209Y-94653152D01*
X147233209Y-94653152D02*
X147328447Y-94700771D01*
X147328447Y-94700771D02*
X147376066Y-94796009D01*
X147376066Y-94796009D02*
X147376066Y-94891247D01*
X147376066Y-94891247D02*
X146899876Y-94986485D01*
X147804638Y-95319819D02*
X147804638Y-94653152D01*
X147804638Y-94843628D02*
X147852257Y-94748390D01*
X147852257Y-94748390D02*
X147899876Y-94700771D01*
X147899876Y-94700771D02*
X147995114Y-94653152D01*
X147995114Y-94653152D02*
X148090352Y-94653152D01*
D10*
X118541353Y-93332866D02*
X118084211Y-93332866D01*
X118312782Y-93028104D02*
X118312782Y-93637628D01*
X112284211Y-106101914D02*
X111827068Y-106101914D01*
X118646895Y-125477068D02*
X119446895Y-125277068D01*
X119446895Y-125277068D02*
X118646895Y-125077068D01*
X119408800Y-124905639D02*
X119446895Y-124819925D01*
X119446895Y-124819925D02*
X119446895Y-124677067D01*
X119446895Y-124677067D02*
X119408800Y-124619925D01*
X119408800Y-124619925D02*
X119370704Y-124591353D01*
X119370704Y-124591353D02*
X119294514Y-124562782D01*
X119294514Y-124562782D02*
X119218323Y-124562782D01*
X119218323Y-124562782D02*
X119142133Y-124591353D01*
X119142133Y-124591353D02*
X119104038Y-124619925D01*
X119104038Y-124619925D02*
X119065942Y-124677067D01*
X119065942Y-124677067D02*
X119027847Y-124791353D01*
X119027847Y-124791353D02*
X118989752Y-124848496D01*
X118989752Y-124848496D02*
X118951657Y-124877067D01*
X118951657Y-124877067D02*
X118875466Y-124905639D01*
X118875466Y-124905639D02*
X118799276Y-124905639D01*
X118799276Y-124905639D02*
X118723085Y-124877067D01*
X118723085Y-124877067D02*
X118684990Y-124848496D01*
X118684990Y-124848496D02*
X118646895Y-124791353D01*
X118646895Y-124791353D02*
X118646895Y-124648496D01*
X118646895Y-124648496D02*
X118684990Y-124562782D01*
X118646895Y-124391353D02*
X118646895Y-124048496D01*
X119446895Y-124219924D02*
X118646895Y-124219924D01*
X119446895Y-123848495D02*
X118646895Y-123848495D01*
X119446895Y-123562781D02*
X118646895Y-123562781D01*
X118646895Y-123562781D02*
X119218323Y-123362781D01*
X119218323Y-123362781D02*
X118646895Y-123162781D01*
X118646895Y-123162781D02*
X119446895Y-123162781D01*
X119142133Y-122877067D02*
X119142133Y-122419925D01*
X119446895Y-122648496D02*
X118837371Y-122648496D01*
X119208646Y-110696895D02*
X119208646Y-111344514D01*
X119208646Y-111344514D02*
X119237217Y-111420704D01*
X119237217Y-111420704D02*
X119265789Y-111458800D01*
X119265789Y-111458800D02*
X119322931Y-111496895D01*
X119322931Y-111496895D02*
X119437217Y-111496895D01*
X119437217Y-111496895D02*
X119494360Y-111458800D01*
X119494360Y-111458800D02*
X119522931Y-111420704D01*
X119522931Y-111420704D02*
X119551503Y-111344514D01*
X119551503Y-111344514D02*
X119551503Y-110696895D01*
X119780074Y-110696895D02*
X120180074Y-110696895D01*
X120180074Y-110696895D02*
X119922931Y-111496895D01*
X119133646Y-102946895D02*
X119133646Y-103594514D01*
X119133646Y-103594514D02*
X119162217Y-103670704D01*
X119162217Y-103670704D02*
X119190789Y-103708800D01*
X119190789Y-103708800D02*
X119247931Y-103746895D01*
X119247931Y-103746895D02*
X119362217Y-103746895D01*
X119362217Y-103746895D02*
X119419360Y-103708800D01*
X119419360Y-103708800D02*
X119447931Y-103670704D01*
X119447931Y-103670704D02*
X119476503Y-103594514D01*
X119476503Y-103594514D02*
X119476503Y-102946895D01*
X120019360Y-102946895D02*
X119905074Y-102946895D01*
X119905074Y-102946895D02*
X119847931Y-102984990D01*
X119847931Y-102984990D02*
X119819360Y-103023085D01*
X119819360Y-103023085D02*
X119762217Y-103137371D01*
X119762217Y-103137371D02*
X119733645Y-103289752D01*
X119733645Y-103289752D02*
X119733645Y-103594514D01*
X119733645Y-103594514D02*
X119762217Y-103670704D01*
X119762217Y-103670704D02*
X119790788Y-103708800D01*
X119790788Y-103708800D02*
X119847931Y-103746895D01*
X119847931Y-103746895D02*
X119962217Y-103746895D01*
X119962217Y-103746895D02*
X120019360Y-103708800D01*
X120019360Y-103708800D02*
X120047931Y-103670704D01*
X120047931Y-103670704D02*
X120076502Y-103594514D01*
X120076502Y-103594514D02*
X120076502Y-103404038D01*
X120076502Y-103404038D02*
X120047931Y-103327847D01*
X120047931Y-103327847D02*
X120019360Y-103289752D01*
X120019360Y-103289752D02*
X119962217Y-103251657D01*
X119962217Y-103251657D02*
X119847931Y-103251657D01*
X119847931Y-103251657D02*
X119790788Y-103289752D01*
X119790788Y-103289752D02*
X119762217Y-103327847D01*
X119762217Y-103327847D02*
X119733645Y-103404038D01*
X112359211Y-108626914D02*
X111902068Y-108626914D01*
X111471895Y-84241353D02*
X110671895Y-84241353D01*
X110671895Y-84241353D02*
X111243323Y-84041353D01*
X111243323Y-84041353D02*
X110671895Y-83841353D01*
X110671895Y-83841353D02*
X111471895Y-83841353D01*
X110671895Y-83441354D02*
X110671895Y-83327068D01*
X110671895Y-83327068D02*
X110709990Y-83269925D01*
X110709990Y-83269925D02*
X110786180Y-83212782D01*
X110786180Y-83212782D02*
X110938561Y-83184211D01*
X110938561Y-83184211D02*
X111205228Y-83184211D01*
X111205228Y-83184211D02*
X111357609Y-83212782D01*
X111357609Y-83212782D02*
X111433800Y-83269925D01*
X111433800Y-83269925D02*
X111471895Y-83327068D01*
X111471895Y-83327068D02*
X111471895Y-83441354D01*
X111471895Y-83441354D02*
X111433800Y-83498497D01*
X111433800Y-83498497D02*
X111357609Y-83555639D01*
X111357609Y-83555639D02*
X111205228Y-83584211D01*
X111205228Y-83584211D02*
X110938561Y-83584211D01*
X110938561Y-83584211D02*
X110786180Y-83555639D01*
X110786180Y-83555639D02*
X110709990Y-83498497D01*
X110709990Y-83498497D02*
X110671895Y-83441354D01*
X111433800Y-82955640D02*
X111471895Y-82869926D01*
X111471895Y-82869926D02*
X111471895Y-82727068D01*
X111471895Y-82727068D02*
X111433800Y-82669926D01*
X111433800Y-82669926D02*
X111395704Y-82641354D01*
X111395704Y-82641354D02*
X111319514Y-82612783D01*
X111319514Y-82612783D02*
X111243323Y-82612783D01*
X111243323Y-82612783D02*
X111167133Y-82641354D01*
X111167133Y-82641354D02*
X111129038Y-82669926D01*
X111129038Y-82669926D02*
X111090942Y-82727068D01*
X111090942Y-82727068D02*
X111052847Y-82841354D01*
X111052847Y-82841354D02*
X111014752Y-82898497D01*
X111014752Y-82898497D02*
X110976657Y-82927068D01*
X110976657Y-82927068D02*
X110900466Y-82955640D01*
X110900466Y-82955640D02*
X110824276Y-82955640D01*
X110824276Y-82955640D02*
X110748085Y-82927068D01*
X110748085Y-82927068D02*
X110709990Y-82898497D01*
X110709990Y-82898497D02*
X110671895Y-82841354D01*
X110671895Y-82841354D02*
X110671895Y-82698497D01*
X110671895Y-82698497D02*
X110709990Y-82612783D01*
X111471895Y-82355639D02*
X110671895Y-82355639D01*
X119008646Y-82721895D02*
X119008646Y-83369514D01*
X119008646Y-83369514D02*
X119037217Y-83445704D01*
X119037217Y-83445704D02*
X119065789Y-83483800D01*
X119065789Y-83483800D02*
X119122931Y-83521895D01*
X119122931Y-83521895D02*
X119237217Y-83521895D01*
X119237217Y-83521895D02*
X119294360Y-83483800D01*
X119294360Y-83483800D02*
X119322931Y-83445704D01*
X119322931Y-83445704D02*
X119351503Y-83369514D01*
X119351503Y-83369514D02*
X119351503Y-82721895D01*
X119608645Y-82798085D02*
X119637217Y-82759990D01*
X119637217Y-82759990D02*
X119694360Y-82721895D01*
X119694360Y-82721895D02*
X119837217Y-82721895D01*
X119837217Y-82721895D02*
X119894360Y-82759990D01*
X119894360Y-82759990D02*
X119922931Y-82798085D01*
X119922931Y-82798085D02*
X119951502Y-82874276D01*
X119951502Y-82874276D02*
X119951502Y-82950466D01*
X119951502Y-82950466D02*
X119922931Y-83064752D01*
X119922931Y-83064752D02*
X119580074Y-83521895D01*
X119580074Y-83521895D02*
X119951502Y-83521895D01*
X112284211Y-116326914D02*
X111827068Y-116326914D01*
X111521895Y-94366353D02*
X110721895Y-94366353D01*
X110721895Y-94366353D02*
X111293323Y-94166353D01*
X111293323Y-94166353D02*
X110721895Y-93966353D01*
X110721895Y-93966353D02*
X111521895Y-93966353D01*
X110721895Y-93566354D02*
X110721895Y-93452068D01*
X110721895Y-93452068D02*
X110759990Y-93394925D01*
X110759990Y-93394925D02*
X110836180Y-93337782D01*
X110836180Y-93337782D02*
X110988561Y-93309211D01*
X110988561Y-93309211D02*
X111255228Y-93309211D01*
X111255228Y-93309211D02*
X111407609Y-93337782D01*
X111407609Y-93337782D02*
X111483800Y-93394925D01*
X111483800Y-93394925D02*
X111521895Y-93452068D01*
X111521895Y-93452068D02*
X111521895Y-93566354D01*
X111521895Y-93566354D02*
X111483800Y-93623497D01*
X111483800Y-93623497D02*
X111407609Y-93680639D01*
X111407609Y-93680639D02*
X111255228Y-93709211D01*
X111255228Y-93709211D02*
X110988561Y-93709211D01*
X110988561Y-93709211D02*
X110836180Y-93680639D01*
X110836180Y-93680639D02*
X110759990Y-93623497D01*
X110759990Y-93623497D02*
X110721895Y-93566354D01*
X111483800Y-93080640D02*
X111521895Y-92994926D01*
X111521895Y-92994926D02*
X111521895Y-92852068D01*
X111521895Y-92852068D02*
X111483800Y-92794926D01*
X111483800Y-92794926D02*
X111445704Y-92766354D01*
X111445704Y-92766354D02*
X111369514Y-92737783D01*
X111369514Y-92737783D02*
X111293323Y-92737783D01*
X111293323Y-92737783D02*
X111217133Y-92766354D01*
X111217133Y-92766354D02*
X111179038Y-92794926D01*
X111179038Y-92794926D02*
X111140942Y-92852068D01*
X111140942Y-92852068D02*
X111102847Y-92966354D01*
X111102847Y-92966354D02*
X111064752Y-93023497D01*
X111064752Y-93023497D02*
X111026657Y-93052068D01*
X111026657Y-93052068D02*
X110950466Y-93080640D01*
X110950466Y-93080640D02*
X110874276Y-93080640D01*
X110874276Y-93080640D02*
X110798085Y-93052068D01*
X110798085Y-93052068D02*
X110759990Y-93023497D01*
X110759990Y-93023497D02*
X110721895Y-92966354D01*
X110721895Y-92966354D02*
X110721895Y-92823497D01*
X110721895Y-92823497D02*
X110759990Y-92737783D01*
X111521895Y-92480639D02*
X110721895Y-92480639D01*
X118272931Y-120996895D02*
X118472931Y-121796895D01*
X118472931Y-121796895D02*
X118672931Y-120996895D01*
X119215789Y-121720704D02*
X119187217Y-121758800D01*
X119187217Y-121758800D02*
X119101503Y-121796895D01*
X119101503Y-121796895D02*
X119044360Y-121796895D01*
X119044360Y-121796895D02*
X118958646Y-121758800D01*
X118958646Y-121758800D02*
X118901503Y-121682609D01*
X118901503Y-121682609D02*
X118872932Y-121606419D01*
X118872932Y-121606419D02*
X118844360Y-121454038D01*
X118844360Y-121454038D02*
X118844360Y-121339752D01*
X118844360Y-121339752D02*
X118872932Y-121187371D01*
X118872932Y-121187371D02*
X118901503Y-121111180D01*
X118901503Y-121111180D02*
X118958646Y-121034990D01*
X118958646Y-121034990D02*
X119044360Y-120996895D01*
X119044360Y-120996895D02*
X119101503Y-120996895D01*
X119101503Y-120996895D02*
X119187217Y-121034990D01*
X119187217Y-121034990D02*
X119215789Y-121073085D01*
X119815789Y-121720704D02*
X119787217Y-121758800D01*
X119787217Y-121758800D02*
X119701503Y-121796895D01*
X119701503Y-121796895D02*
X119644360Y-121796895D01*
X119644360Y-121796895D02*
X119558646Y-121758800D01*
X119558646Y-121758800D02*
X119501503Y-121682609D01*
X119501503Y-121682609D02*
X119472932Y-121606419D01*
X119472932Y-121606419D02*
X119444360Y-121454038D01*
X119444360Y-121454038D02*
X119444360Y-121339752D01*
X119444360Y-121339752D02*
X119472932Y-121187371D01*
X119472932Y-121187371D02*
X119501503Y-121111180D01*
X119501503Y-121111180D02*
X119558646Y-121034990D01*
X119558646Y-121034990D02*
X119644360Y-120996895D01*
X119644360Y-120996895D02*
X119701503Y-120996895D01*
X119701503Y-120996895D02*
X119787217Y-121034990D01*
X119787217Y-121034990D02*
X119815789Y-121073085D01*
X119108646Y-118296895D02*
X119108646Y-118944514D01*
X119108646Y-118944514D02*
X119137217Y-119020704D01*
X119137217Y-119020704D02*
X119165789Y-119058800D01*
X119165789Y-119058800D02*
X119222931Y-119096895D01*
X119222931Y-119096895D02*
X119337217Y-119096895D01*
X119337217Y-119096895D02*
X119394360Y-119058800D01*
X119394360Y-119058800D02*
X119422931Y-119020704D01*
X119422931Y-119020704D02*
X119451503Y-118944514D01*
X119451503Y-118944514D02*
X119451503Y-118296895D01*
X119822931Y-118639752D02*
X119765788Y-118601657D01*
X119765788Y-118601657D02*
X119737217Y-118563561D01*
X119737217Y-118563561D02*
X119708645Y-118487371D01*
X119708645Y-118487371D02*
X119708645Y-118449276D01*
X119708645Y-118449276D02*
X119737217Y-118373085D01*
X119737217Y-118373085D02*
X119765788Y-118334990D01*
X119765788Y-118334990D02*
X119822931Y-118296895D01*
X119822931Y-118296895D02*
X119937217Y-118296895D01*
X119937217Y-118296895D02*
X119994360Y-118334990D01*
X119994360Y-118334990D02*
X120022931Y-118373085D01*
X120022931Y-118373085D02*
X120051502Y-118449276D01*
X120051502Y-118449276D02*
X120051502Y-118487371D01*
X120051502Y-118487371D02*
X120022931Y-118563561D01*
X120022931Y-118563561D02*
X119994360Y-118601657D01*
X119994360Y-118601657D02*
X119937217Y-118639752D01*
X119937217Y-118639752D02*
X119822931Y-118639752D01*
X119822931Y-118639752D02*
X119765788Y-118677847D01*
X119765788Y-118677847D02*
X119737217Y-118715942D01*
X119737217Y-118715942D02*
X119708645Y-118792133D01*
X119708645Y-118792133D02*
X119708645Y-118944514D01*
X119708645Y-118944514D02*
X119737217Y-119020704D01*
X119737217Y-119020704D02*
X119765788Y-119058800D01*
X119765788Y-119058800D02*
X119822931Y-119096895D01*
X119822931Y-119096895D02*
X119937217Y-119096895D01*
X119937217Y-119096895D02*
X119994360Y-119058800D01*
X119994360Y-119058800D02*
X120022931Y-119020704D01*
X120022931Y-119020704D02*
X120051502Y-118944514D01*
X120051502Y-118944514D02*
X120051502Y-118792133D01*
X120051502Y-118792133D02*
X120022931Y-118715942D01*
X120022931Y-118715942D02*
X119994360Y-118677847D01*
X119994360Y-118677847D02*
X119937217Y-118639752D01*
X119158646Y-115821895D02*
X119158646Y-116469514D01*
X119158646Y-116469514D02*
X119187217Y-116545704D01*
X119187217Y-116545704D02*
X119215789Y-116583800D01*
X119215789Y-116583800D02*
X119272931Y-116621895D01*
X119272931Y-116621895D02*
X119387217Y-116621895D01*
X119387217Y-116621895D02*
X119444360Y-116583800D01*
X119444360Y-116583800D02*
X119472931Y-116545704D01*
X119472931Y-116545704D02*
X119501503Y-116469514D01*
X119501503Y-116469514D02*
X119501503Y-115821895D01*
X119730074Y-115821895D02*
X120130074Y-115821895D01*
X120130074Y-115821895D02*
X119872931Y-116621895D01*
X119058646Y-90371895D02*
X119058646Y-91019514D01*
X119058646Y-91019514D02*
X119087217Y-91095704D01*
X119087217Y-91095704D02*
X119115789Y-91133800D01*
X119115789Y-91133800D02*
X119172931Y-91171895D01*
X119172931Y-91171895D02*
X119287217Y-91171895D01*
X119287217Y-91171895D02*
X119344360Y-91133800D01*
X119344360Y-91133800D02*
X119372931Y-91095704D01*
X119372931Y-91095704D02*
X119401503Y-91019514D01*
X119401503Y-91019514D02*
X119401503Y-90371895D01*
X119630074Y-90371895D02*
X120001502Y-90371895D01*
X120001502Y-90371895D02*
X119801502Y-90676657D01*
X119801502Y-90676657D02*
X119887217Y-90676657D01*
X119887217Y-90676657D02*
X119944360Y-90714752D01*
X119944360Y-90714752D02*
X119972931Y-90752847D01*
X119972931Y-90752847D02*
X120001502Y-90829038D01*
X120001502Y-90829038D02*
X120001502Y-91019514D01*
X120001502Y-91019514D02*
X119972931Y-91095704D01*
X119972931Y-91095704D02*
X119944360Y-91133800D01*
X119944360Y-91133800D02*
X119887217Y-91171895D01*
X119887217Y-91171895D02*
X119715788Y-91171895D01*
X119715788Y-91171895D02*
X119658645Y-91133800D01*
X119658645Y-91133800D02*
X119630074Y-91095704D01*
X118566353Y-98332866D02*
X118109211Y-98332866D01*
X118337782Y-98028104D02*
X118337782Y-98637628D01*
D11*
X130012969Y-99881340D02*
X130012969Y-100452768D01*
X130012969Y-100452768D02*
X129984398Y-100567054D01*
X129984398Y-100567054D02*
X129927255Y-100643245D01*
X129927255Y-100643245D02*
X129841541Y-100681340D01*
X129841541Y-100681340D02*
X129784398Y-100681340D01*
X130555827Y-100148006D02*
X130555827Y-100681340D01*
X130298684Y-100148006D02*
X130298684Y-100567054D01*
X130298684Y-100567054D02*
X130327255Y-100643245D01*
X130327255Y-100643245D02*
X130384398Y-100681340D01*
X130384398Y-100681340D02*
X130470112Y-100681340D01*
X130470112Y-100681340D02*
X130527255Y-100643245D01*
X130527255Y-100643245D02*
X130555827Y-100605149D01*
X130841541Y-100148006D02*
X130841541Y-100681340D01*
X130841541Y-100224197D02*
X130870112Y-100186102D01*
X130870112Y-100186102D02*
X130927255Y-100148006D01*
X130927255Y-100148006D02*
X131012969Y-100148006D01*
X131012969Y-100148006D02*
X131070112Y-100186102D01*
X131070112Y-100186102D02*
X131098684Y-100262292D01*
X131098684Y-100262292D02*
X131098684Y-100681340D01*
X131612969Y-100643245D02*
X131555826Y-100681340D01*
X131555826Y-100681340D02*
X131441541Y-100681340D01*
X131441541Y-100681340D02*
X131384398Y-100643245D01*
X131384398Y-100643245D02*
X131355826Y-100567054D01*
X131355826Y-100567054D02*
X131355826Y-100262292D01*
X131355826Y-100262292D02*
X131384398Y-100186102D01*
X131384398Y-100186102D02*
X131441541Y-100148006D01*
X131441541Y-100148006D02*
X131555826Y-100148006D01*
X131555826Y-100148006D02*
X131612969Y-100186102D01*
X131612969Y-100186102D02*
X131641541Y-100262292D01*
X131641541Y-100262292D02*
X131641541Y-100338483D01*
X131641541Y-100338483D02*
X131355826Y-100414673D01*
X132327255Y-99957530D02*
X132355827Y-99919435D01*
X132355827Y-99919435D02*
X132412970Y-99881340D01*
X132412970Y-99881340D02*
X132555827Y-99881340D01*
X132555827Y-99881340D02*
X132612970Y-99919435D01*
X132612970Y-99919435D02*
X132641541Y-99957530D01*
X132641541Y-99957530D02*
X132670112Y-100033721D01*
X132670112Y-100033721D02*
X132670112Y-100109911D01*
X132670112Y-100109911D02*
X132641541Y-100224197D01*
X132641541Y-100224197D02*
X132298684Y-100681340D01*
X132298684Y-100681340D02*
X132670112Y-100681340D01*
X133041541Y-99881340D02*
X133098684Y-99881340D01*
X133098684Y-99881340D02*
X133155827Y-99919435D01*
X133155827Y-99919435D02*
X133184399Y-99957530D01*
X133184399Y-99957530D02*
X133212970Y-100033721D01*
X133212970Y-100033721D02*
X133241541Y-100186102D01*
X133241541Y-100186102D02*
X133241541Y-100376578D01*
X133241541Y-100376578D02*
X133212970Y-100528959D01*
X133212970Y-100528959D02*
X133184399Y-100605149D01*
X133184399Y-100605149D02*
X133155827Y-100643245D01*
X133155827Y-100643245D02*
X133098684Y-100681340D01*
X133098684Y-100681340D02*
X133041541Y-100681340D01*
X133041541Y-100681340D02*
X132984399Y-100643245D01*
X132984399Y-100643245D02*
X132955827Y-100605149D01*
X132955827Y-100605149D02*
X132927256Y-100528959D01*
X132927256Y-100528959D02*
X132898684Y-100376578D01*
X132898684Y-100376578D02*
X132898684Y-100186102D01*
X132898684Y-100186102D02*
X132927256Y-100033721D01*
X132927256Y-100033721D02*
X132955827Y-99957530D01*
X132955827Y-99957530D02*
X132984399Y-99919435D01*
X132984399Y-99919435D02*
X133041541Y-99881340D01*
X133470113Y-99957530D02*
X133498685Y-99919435D01*
X133498685Y-99919435D02*
X133555828Y-99881340D01*
X133555828Y-99881340D02*
X133698685Y-99881340D01*
X133698685Y-99881340D02*
X133755828Y-99919435D01*
X133755828Y-99919435D02*
X133784399Y-99957530D01*
X133784399Y-99957530D02*
X133812970Y-100033721D01*
X133812970Y-100033721D02*
X133812970Y-100109911D01*
X133812970Y-100109911D02*
X133784399Y-100224197D01*
X133784399Y-100224197D02*
X133441542Y-100681340D01*
X133441542Y-100681340D02*
X133812970Y-100681340D01*
X134327257Y-100148006D02*
X134327257Y-100681340D01*
X134184399Y-99843245D02*
X134041542Y-100414673D01*
X134041542Y-100414673D02*
X134412971Y-100414673D01*
X130184398Y-101893104D02*
X130155826Y-101931200D01*
X130155826Y-101931200D02*
X130070112Y-101969295D01*
X130070112Y-101969295D02*
X130012969Y-101969295D01*
X130012969Y-101969295D02*
X129927255Y-101931200D01*
X129927255Y-101931200D02*
X129870112Y-101855009D01*
X129870112Y-101855009D02*
X129841541Y-101778819D01*
X129841541Y-101778819D02*
X129812969Y-101626438D01*
X129812969Y-101626438D02*
X129812969Y-101512152D01*
X129812969Y-101512152D02*
X129841541Y-101359771D01*
X129841541Y-101359771D02*
X129870112Y-101283580D01*
X129870112Y-101283580D02*
X129927255Y-101207390D01*
X129927255Y-101207390D02*
X130012969Y-101169295D01*
X130012969Y-101169295D02*
X130070112Y-101169295D01*
X130070112Y-101169295D02*
X130155826Y-101207390D01*
X130155826Y-101207390D02*
X130184398Y-101245485D01*
X130441541Y-101550247D02*
X130641541Y-101550247D01*
X130727255Y-101969295D02*
X130441541Y-101969295D01*
X130441541Y-101969295D02*
X130441541Y-101169295D01*
X130441541Y-101169295D02*
X130727255Y-101169295D01*
X131327255Y-101969295D02*
X131127255Y-101588342D01*
X130984398Y-101969295D02*
X130984398Y-101169295D01*
X130984398Y-101169295D02*
X131212969Y-101169295D01*
X131212969Y-101169295D02*
X131270112Y-101207390D01*
X131270112Y-101207390D02*
X131298683Y-101245485D01*
X131298683Y-101245485D02*
X131327255Y-101321676D01*
X131327255Y-101321676D02*
X131327255Y-101435961D01*
X131327255Y-101435961D02*
X131298683Y-101512152D01*
X131298683Y-101512152D02*
X131270112Y-101550247D01*
X131270112Y-101550247D02*
X131212969Y-101588342D01*
X131212969Y-101588342D02*
X130984398Y-101588342D01*
X131584398Y-101969295D02*
X131584398Y-101169295D01*
X131584398Y-101169295D02*
X131927255Y-101969295D01*
X131927255Y-101969295D02*
X131927255Y-101169295D01*
X132212969Y-101664533D02*
X132670112Y-101664533D01*
X133070111Y-101169295D02*
X133184397Y-101169295D01*
X133184397Y-101169295D02*
X133241540Y-101207390D01*
X133241540Y-101207390D02*
X133298683Y-101283580D01*
X133298683Y-101283580D02*
X133327254Y-101435961D01*
X133327254Y-101435961D02*
X133327254Y-101702628D01*
X133327254Y-101702628D02*
X133298683Y-101855009D01*
X133298683Y-101855009D02*
X133241540Y-101931200D01*
X133241540Y-101931200D02*
X133184397Y-101969295D01*
X133184397Y-101969295D02*
X133070111Y-101969295D01*
X133070111Y-101969295D02*
X133012969Y-101931200D01*
X133012969Y-101931200D02*
X132955826Y-101855009D01*
X132955826Y-101855009D02*
X132927254Y-101702628D01*
X132927254Y-101702628D02*
X132927254Y-101435961D01*
X132927254Y-101435961D02*
X132955826Y-101283580D01*
X132955826Y-101283580D02*
X133012969Y-101207390D01*
X133012969Y-101207390D02*
X133070111Y-101169295D01*
X133584397Y-101969295D02*
X133584397Y-101169295D01*
X133584397Y-101550247D02*
X133927254Y-101550247D01*
X133927254Y-101969295D02*
X133927254Y-101169295D01*
X134498682Y-101969295D02*
X134212968Y-101969295D01*
X134212968Y-101969295D02*
X134212968Y-101169295D01*
X134698682Y-101664533D02*
X135155825Y-101664533D01*
X135441539Y-101969295D02*
X135441539Y-101169295D01*
X135441539Y-101169295D02*
X135670110Y-101169295D01*
X135670110Y-101169295D02*
X135727253Y-101207390D01*
X135727253Y-101207390D02*
X135755824Y-101245485D01*
X135755824Y-101245485D02*
X135784396Y-101321676D01*
X135784396Y-101321676D02*
X135784396Y-101435961D01*
X135784396Y-101435961D02*
X135755824Y-101512152D01*
X135755824Y-101512152D02*
X135727253Y-101550247D01*
X135727253Y-101550247D02*
X135670110Y-101588342D01*
X135670110Y-101588342D02*
X135441539Y-101588342D01*
X136441539Y-101435961D02*
X136584396Y-101969295D01*
X136584396Y-101969295D02*
X136727253Y-101435961D01*
X136927253Y-101245485D02*
X136955825Y-101207390D01*
X136955825Y-101207390D02*
X137012968Y-101169295D01*
X137012968Y-101169295D02*
X137155825Y-101169295D01*
X137155825Y-101169295D02*
X137212968Y-101207390D01*
X137212968Y-101207390D02*
X137241539Y-101245485D01*
X137241539Y-101245485D02*
X137270110Y-101321676D01*
X137270110Y-101321676D02*
X137270110Y-101397866D01*
X137270110Y-101397866D02*
X137241539Y-101512152D01*
X137241539Y-101512152D02*
X136898682Y-101969295D01*
X136898682Y-101969295D02*
X137270110Y-101969295D01*
D10*
X112209211Y-90576914D02*
X111752068Y-90576914D01*
X119158646Y-108196895D02*
X119158646Y-108844514D01*
X119158646Y-108844514D02*
X119187217Y-108920704D01*
X119187217Y-108920704D02*
X119215789Y-108958800D01*
X119215789Y-108958800D02*
X119272931Y-108996895D01*
X119272931Y-108996895D02*
X119387217Y-108996895D01*
X119387217Y-108996895D02*
X119444360Y-108958800D01*
X119444360Y-108958800D02*
X119472931Y-108920704D01*
X119472931Y-108920704D02*
X119501503Y-108844514D01*
X119501503Y-108844514D02*
X119501503Y-108196895D01*
X120044360Y-108196895D02*
X119930074Y-108196895D01*
X119930074Y-108196895D02*
X119872931Y-108234990D01*
X119872931Y-108234990D02*
X119844360Y-108273085D01*
X119844360Y-108273085D02*
X119787217Y-108387371D01*
X119787217Y-108387371D02*
X119758645Y-108539752D01*
X119758645Y-108539752D02*
X119758645Y-108844514D01*
X119758645Y-108844514D02*
X119787217Y-108920704D01*
X119787217Y-108920704D02*
X119815788Y-108958800D01*
X119815788Y-108958800D02*
X119872931Y-108996895D01*
X119872931Y-108996895D02*
X119987217Y-108996895D01*
X119987217Y-108996895D02*
X120044360Y-108958800D01*
X120044360Y-108958800D02*
X120072931Y-108920704D01*
X120072931Y-108920704D02*
X120101502Y-108844514D01*
X120101502Y-108844514D02*
X120101502Y-108654038D01*
X120101502Y-108654038D02*
X120072931Y-108577847D01*
X120072931Y-108577847D02*
X120044360Y-108539752D01*
X120044360Y-108539752D02*
X119987217Y-108501657D01*
X119987217Y-108501657D02*
X119872931Y-108501657D01*
X119872931Y-108501657D02*
X119815788Y-108539752D01*
X119815788Y-108539752D02*
X119787217Y-108577847D01*
X119787217Y-108577847D02*
X119758645Y-108654038D01*
X118491353Y-75357866D02*
X118034211Y-75357866D01*
X111571895Y-107066353D02*
X110771895Y-107066353D01*
X110771895Y-107066353D02*
X111343323Y-106866353D01*
X111343323Y-106866353D02*
X110771895Y-106666353D01*
X110771895Y-106666353D02*
X111571895Y-106666353D01*
X111571895Y-106380639D02*
X110771895Y-106380639D01*
X111533800Y-106123497D02*
X111571895Y-106037783D01*
X111571895Y-106037783D02*
X111571895Y-105894925D01*
X111571895Y-105894925D02*
X111533800Y-105837783D01*
X111533800Y-105837783D02*
X111495704Y-105809211D01*
X111495704Y-105809211D02*
X111419514Y-105780640D01*
X111419514Y-105780640D02*
X111343323Y-105780640D01*
X111343323Y-105780640D02*
X111267133Y-105809211D01*
X111267133Y-105809211D02*
X111229038Y-105837783D01*
X111229038Y-105837783D02*
X111190942Y-105894925D01*
X111190942Y-105894925D02*
X111152847Y-106009211D01*
X111152847Y-106009211D02*
X111114752Y-106066354D01*
X111114752Y-106066354D02*
X111076657Y-106094925D01*
X111076657Y-106094925D02*
X111000466Y-106123497D01*
X111000466Y-106123497D02*
X110924276Y-106123497D01*
X110924276Y-106123497D02*
X110848085Y-106094925D01*
X110848085Y-106094925D02*
X110809990Y-106066354D01*
X110809990Y-106066354D02*
X110771895Y-106009211D01*
X110771895Y-106009211D02*
X110771895Y-105866354D01*
X110771895Y-105866354D02*
X110809990Y-105780640D01*
X110771895Y-105409211D02*
X110771895Y-105294925D01*
X110771895Y-105294925D02*
X110809990Y-105237782D01*
X110809990Y-105237782D02*
X110886180Y-105180639D01*
X110886180Y-105180639D02*
X111038561Y-105152068D01*
X111038561Y-105152068D02*
X111305228Y-105152068D01*
X111305228Y-105152068D02*
X111457609Y-105180639D01*
X111457609Y-105180639D02*
X111533800Y-105237782D01*
X111533800Y-105237782D02*
X111571895Y-105294925D01*
X111571895Y-105294925D02*
X111571895Y-105409211D01*
X111571895Y-105409211D02*
X111533800Y-105466354D01*
X111533800Y-105466354D02*
X111457609Y-105523496D01*
X111457609Y-105523496D02*
X111305228Y-105552068D01*
X111305228Y-105552068D02*
X111038561Y-105552068D01*
X111038561Y-105552068D02*
X110886180Y-105523496D01*
X110886180Y-105523496D02*
X110809990Y-105466354D01*
X110809990Y-105466354D02*
X110771895Y-105409211D01*
X111496895Y-91591353D02*
X110696895Y-91591353D01*
X110696895Y-91591353D02*
X111268323Y-91391353D01*
X111268323Y-91391353D02*
X110696895Y-91191353D01*
X110696895Y-91191353D02*
X111496895Y-91191353D01*
X110696895Y-90791354D02*
X110696895Y-90677068D01*
X110696895Y-90677068D02*
X110734990Y-90619925D01*
X110734990Y-90619925D02*
X110811180Y-90562782D01*
X110811180Y-90562782D02*
X110963561Y-90534211D01*
X110963561Y-90534211D02*
X111230228Y-90534211D01*
X111230228Y-90534211D02*
X111382609Y-90562782D01*
X111382609Y-90562782D02*
X111458800Y-90619925D01*
X111458800Y-90619925D02*
X111496895Y-90677068D01*
X111496895Y-90677068D02*
X111496895Y-90791354D01*
X111496895Y-90791354D02*
X111458800Y-90848497D01*
X111458800Y-90848497D02*
X111382609Y-90905639D01*
X111382609Y-90905639D02*
X111230228Y-90934211D01*
X111230228Y-90934211D02*
X110963561Y-90934211D01*
X110963561Y-90934211D02*
X110811180Y-90905639D01*
X110811180Y-90905639D02*
X110734990Y-90848497D01*
X110734990Y-90848497D02*
X110696895Y-90791354D01*
X111458800Y-90305640D02*
X111496895Y-90219926D01*
X111496895Y-90219926D02*
X111496895Y-90077068D01*
X111496895Y-90077068D02*
X111458800Y-90019926D01*
X111458800Y-90019926D02*
X111420704Y-89991354D01*
X111420704Y-89991354D02*
X111344514Y-89962783D01*
X111344514Y-89962783D02*
X111268323Y-89962783D01*
X111268323Y-89962783D02*
X111192133Y-89991354D01*
X111192133Y-89991354D02*
X111154038Y-90019926D01*
X111154038Y-90019926D02*
X111115942Y-90077068D01*
X111115942Y-90077068D02*
X111077847Y-90191354D01*
X111077847Y-90191354D02*
X111039752Y-90248497D01*
X111039752Y-90248497D02*
X111001657Y-90277068D01*
X111001657Y-90277068D02*
X110925466Y-90305640D01*
X110925466Y-90305640D02*
X110849276Y-90305640D01*
X110849276Y-90305640D02*
X110773085Y-90277068D01*
X110773085Y-90277068D02*
X110734990Y-90248497D01*
X110734990Y-90248497D02*
X110696895Y-90191354D01*
X110696895Y-90191354D02*
X110696895Y-90048497D01*
X110696895Y-90048497D02*
X110734990Y-89962783D01*
X111496895Y-89705639D02*
X110696895Y-89705639D01*
X111546895Y-104416353D02*
X110746895Y-104416353D01*
X110746895Y-104416353D02*
X111318323Y-104216353D01*
X111318323Y-104216353D02*
X110746895Y-104016353D01*
X110746895Y-104016353D02*
X111546895Y-104016353D01*
X110746895Y-103616354D02*
X110746895Y-103502068D01*
X110746895Y-103502068D02*
X110784990Y-103444925D01*
X110784990Y-103444925D02*
X110861180Y-103387782D01*
X110861180Y-103387782D02*
X111013561Y-103359211D01*
X111013561Y-103359211D02*
X111280228Y-103359211D01*
X111280228Y-103359211D02*
X111432609Y-103387782D01*
X111432609Y-103387782D02*
X111508800Y-103444925D01*
X111508800Y-103444925D02*
X111546895Y-103502068D01*
X111546895Y-103502068D02*
X111546895Y-103616354D01*
X111546895Y-103616354D02*
X111508800Y-103673497D01*
X111508800Y-103673497D02*
X111432609Y-103730639D01*
X111432609Y-103730639D02*
X111280228Y-103759211D01*
X111280228Y-103759211D02*
X111013561Y-103759211D01*
X111013561Y-103759211D02*
X110861180Y-103730639D01*
X110861180Y-103730639D02*
X110784990Y-103673497D01*
X110784990Y-103673497D02*
X110746895Y-103616354D01*
X111508800Y-103130640D02*
X111546895Y-103044926D01*
X111546895Y-103044926D02*
X111546895Y-102902068D01*
X111546895Y-102902068D02*
X111508800Y-102844926D01*
X111508800Y-102844926D02*
X111470704Y-102816354D01*
X111470704Y-102816354D02*
X111394514Y-102787783D01*
X111394514Y-102787783D02*
X111318323Y-102787783D01*
X111318323Y-102787783D02*
X111242133Y-102816354D01*
X111242133Y-102816354D02*
X111204038Y-102844926D01*
X111204038Y-102844926D02*
X111165942Y-102902068D01*
X111165942Y-102902068D02*
X111127847Y-103016354D01*
X111127847Y-103016354D02*
X111089752Y-103073497D01*
X111089752Y-103073497D02*
X111051657Y-103102068D01*
X111051657Y-103102068D02*
X110975466Y-103130640D01*
X110975466Y-103130640D02*
X110899276Y-103130640D01*
X110899276Y-103130640D02*
X110823085Y-103102068D01*
X110823085Y-103102068D02*
X110784990Y-103073497D01*
X110784990Y-103073497D02*
X110746895Y-103016354D01*
X110746895Y-103016354D02*
X110746895Y-102873497D01*
X110746895Y-102873497D02*
X110784990Y-102787783D01*
X111546895Y-102530639D02*
X110746895Y-102530639D01*
X111546895Y-109691353D02*
X110746895Y-109691353D01*
X110746895Y-109691353D02*
X111318323Y-109491353D01*
X111318323Y-109491353D02*
X110746895Y-109291353D01*
X110746895Y-109291353D02*
X111546895Y-109291353D01*
X111546895Y-109005639D02*
X110746895Y-109005639D01*
X111508800Y-108748497D02*
X111546895Y-108662783D01*
X111546895Y-108662783D02*
X111546895Y-108519925D01*
X111546895Y-108519925D02*
X111508800Y-108462783D01*
X111508800Y-108462783D02*
X111470704Y-108434211D01*
X111470704Y-108434211D02*
X111394514Y-108405640D01*
X111394514Y-108405640D02*
X111318323Y-108405640D01*
X111318323Y-108405640D02*
X111242133Y-108434211D01*
X111242133Y-108434211D02*
X111204038Y-108462783D01*
X111204038Y-108462783D02*
X111165942Y-108519925D01*
X111165942Y-108519925D02*
X111127847Y-108634211D01*
X111127847Y-108634211D02*
X111089752Y-108691354D01*
X111089752Y-108691354D02*
X111051657Y-108719925D01*
X111051657Y-108719925D02*
X110975466Y-108748497D01*
X110975466Y-108748497D02*
X110899276Y-108748497D01*
X110899276Y-108748497D02*
X110823085Y-108719925D01*
X110823085Y-108719925D02*
X110784990Y-108691354D01*
X110784990Y-108691354D02*
X110746895Y-108634211D01*
X110746895Y-108634211D02*
X110746895Y-108491354D01*
X110746895Y-108491354D02*
X110784990Y-108405640D01*
X110746895Y-108034211D02*
X110746895Y-107919925D01*
X110746895Y-107919925D02*
X110784990Y-107862782D01*
X110784990Y-107862782D02*
X110861180Y-107805639D01*
X110861180Y-107805639D02*
X111013561Y-107777068D01*
X111013561Y-107777068D02*
X111280228Y-107777068D01*
X111280228Y-107777068D02*
X111432609Y-107805639D01*
X111432609Y-107805639D02*
X111508800Y-107862782D01*
X111508800Y-107862782D02*
X111546895Y-107919925D01*
X111546895Y-107919925D02*
X111546895Y-108034211D01*
X111546895Y-108034211D02*
X111508800Y-108091354D01*
X111508800Y-108091354D02*
X111432609Y-108148496D01*
X111432609Y-108148496D02*
X111280228Y-108177068D01*
X111280228Y-108177068D02*
X111013561Y-108177068D01*
X111013561Y-108177068D02*
X110861180Y-108148496D01*
X110861180Y-108148496D02*
X110784990Y-108091354D01*
X110784990Y-108091354D02*
X110746895Y-108034211D01*
X118566353Y-103207866D02*
X118109211Y-103207866D01*
X118337782Y-102903104D02*
X118337782Y-103512628D01*
X118541353Y-80407866D02*
X118084211Y-80407866D01*
X112216353Y-88307866D02*
X111759211Y-88307866D01*
X111621895Y-114791353D02*
X110821895Y-114791353D01*
X110821895Y-114791353D02*
X111393323Y-114591353D01*
X111393323Y-114591353D02*
X110821895Y-114391353D01*
X110821895Y-114391353D02*
X111621895Y-114391353D01*
X110821895Y-113991354D02*
X110821895Y-113877068D01*
X110821895Y-113877068D02*
X110859990Y-113819925D01*
X110859990Y-113819925D02*
X110936180Y-113762782D01*
X110936180Y-113762782D02*
X111088561Y-113734211D01*
X111088561Y-113734211D02*
X111355228Y-113734211D01*
X111355228Y-113734211D02*
X111507609Y-113762782D01*
X111507609Y-113762782D02*
X111583800Y-113819925D01*
X111583800Y-113819925D02*
X111621895Y-113877068D01*
X111621895Y-113877068D02*
X111621895Y-113991354D01*
X111621895Y-113991354D02*
X111583800Y-114048497D01*
X111583800Y-114048497D02*
X111507609Y-114105639D01*
X111507609Y-114105639D02*
X111355228Y-114134211D01*
X111355228Y-114134211D02*
X111088561Y-114134211D01*
X111088561Y-114134211D02*
X110936180Y-114105639D01*
X110936180Y-114105639D02*
X110859990Y-114048497D01*
X110859990Y-114048497D02*
X110821895Y-113991354D01*
X111583800Y-113505640D02*
X111621895Y-113419926D01*
X111621895Y-113419926D02*
X111621895Y-113277068D01*
X111621895Y-113277068D02*
X111583800Y-113219926D01*
X111583800Y-113219926D02*
X111545704Y-113191354D01*
X111545704Y-113191354D02*
X111469514Y-113162783D01*
X111469514Y-113162783D02*
X111393323Y-113162783D01*
X111393323Y-113162783D02*
X111317133Y-113191354D01*
X111317133Y-113191354D02*
X111279038Y-113219926D01*
X111279038Y-113219926D02*
X111240942Y-113277068D01*
X111240942Y-113277068D02*
X111202847Y-113391354D01*
X111202847Y-113391354D02*
X111164752Y-113448497D01*
X111164752Y-113448497D02*
X111126657Y-113477068D01*
X111126657Y-113477068D02*
X111050466Y-113505640D01*
X111050466Y-113505640D02*
X110974276Y-113505640D01*
X110974276Y-113505640D02*
X110898085Y-113477068D01*
X110898085Y-113477068D02*
X110859990Y-113448497D01*
X110859990Y-113448497D02*
X110821895Y-113391354D01*
X110821895Y-113391354D02*
X110821895Y-113248497D01*
X110821895Y-113248497D02*
X110859990Y-113162783D01*
X111621895Y-112905639D02*
X110821895Y-112905639D01*
X112116353Y-83482866D02*
X111659211Y-83482866D01*
X111887782Y-83178104D02*
X111887782Y-83787628D01*
X118541353Y-113632866D02*
X118084211Y-113632866D01*
X118312782Y-113328104D02*
X118312782Y-113937628D01*
X118566353Y-108532866D02*
X118109211Y-108532866D01*
X118337782Y-108228104D02*
X118337782Y-108837628D01*
X111596895Y-112166353D02*
X110796895Y-112166353D01*
X110796895Y-112166353D02*
X111368323Y-111966353D01*
X111368323Y-111966353D02*
X110796895Y-111766353D01*
X110796895Y-111766353D02*
X111596895Y-111766353D01*
X110796895Y-111366354D02*
X110796895Y-111252068D01*
X110796895Y-111252068D02*
X110834990Y-111194925D01*
X110834990Y-111194925D02*
X110911180Y-111137782D01*
X110911180Y-111137782D02*
X111063561Y-111109211D01*
X111063561Y-111109211D02*
X111330228Y-111109211D01*
X111330228Y-111109211D02*
X111482609Y-111137782D01*
X111482609Y-111137782D02*
X111558800Y-111194925D01*
X111558800Y-111194925D02*
X111596895Y-111252068D01*
X111596895Y-111252068D02*
X111596895Y-111366354D01*
X111596895Y-111366354D02*
X111558800Y-111423497D01*
X111558800Y-111423497D02*
X111482609Y-111480639D01*
X111482609Y-111480639D02*
X111330228Y-111509211D01*
X111330228Y-111509211D02*
X111063561Y-111509211D01*
X111063561Y-111509211D02*
X110911180Y-111480639D01*
X110911180Y-111480639D02*
X110834990Y-111423497D01*
X110834990Y-111423497D02*
X110796895Y-111366354D01*
X111558800Y-110880640D02*
X111596895Y-110794926D01*
X111596895Y-110794926D02*
X111596895Y-110652068D01*
X111596895Y-110652068D02*
X111558800Y-110594926D01*
X111558800Y-110594926D02*
X111520704Y-110566354D01*
X111520704Y-110566354D02*
X111444514Y-110537783D01*
X111444514Y-110537783D02*
X111368323Y-110537783D01*
X111368323Y-110537783D02*
X111292133Y-110566354D01*
X111292133Y-110566354D02*
X111254038Y-110594926D01*
X111254038Y-110594926D02*
X111215942Y-110652068D01*
X111215942Y-110652068D02*
X111177847Y-110766354D01*
X111177847Y-110766354D02*
X111139752Y-110823497D01*
X111139752Y-110823497D02*
X111101657Y-110852068D01*
X111101657Y-110852068D02*
X111025466Y-110880640D01*
X111025466Y-110880640D02*
X110949276Y-110880640D01*
X110949276Y-110880640D02*
X110873085Y-110852068D01*
X110873085Y-110852068D02*
X110834990Y-110823497D01*
X110834990Y-110823497D02*
X110796895Y-110766354D01*
X110796895Y-110766354D02*
X110796895Y-110623497D01*
X110796895Y-110623497D02*
X110834990Y-110537783D01*
X111596895Y-110280639D02*
X110796895Y-110280639D01*
X112141353Y-85857866D02*
X111684211Y-85857866D01*
X112266353Y-98532866D02*
X111809211Y-98532866D01*
X112116353Y-75357866D02*
X111659211Y-75357866D01*
X111887782Y-75053104D02*
X111887782Y-75662628D01*
X112141353Y-77932866D02*
X111684211Y-77932866D01*
X111912782Y-77628104D02*
X111912782Y-78237628D01*
X111232749Y-75448496D02*
X111270845Y-75477068D01*
X111270845Y-75477068D02*
X111308940Y-75562782D01*
X111308940Y-75562782D02*
X111308940Y-75619925D01*
X111308940Y-75619925D02*
X111270845Y-75705639D01*
X111270845Y-75705639D02*
X111194654Y-75762782D01*
X111194654Y-75762782D02*
X111118464Y-75791353D01*
X111118464Y-75791353D02*
X110966083Y-75819925D01*
X110966083Y-75819925D02*
X110851797Y-75819925D01*
X110851797Y-75819925D02*
X110699416Y-75791353D01*
X110699416Y-75791353D02*
X110623225Y-75762782D01*
X110623225Y-75762782D02*
X110547035Y-75705639D01*
X110547035Y-75705639D02*
X110508940Y-75619925D01*
X110508940Y-75619925D02*
X110508940Y-75562782D01*
X110508940Y-75562782D02*
X110547035Y-75477068D01*
X110547035Y-75477068D02*
X110585130Y-75448496D01*
X111270845Y-75219925D02*
X111308940Y-75134211D01*
X111308940Y-75134211D02*
X111308940Y-74991353D01*
X111308940Y-74991353D02*
X111270845Y-74934211D01*
X111270845Y-74934211D02*
X111232749Y-74905639D01*
X111232749Y-74905639D02*
X111156559Y-74877068D01*
X111156559Y-74877068D02*
X111080368Y-74877068D01*
X111080368Y-74877068D02*
X111004178Y-74905639D01*
X111004178Y-74905639D02*
X110966083Y-74934211D01*
X110966083Y-74934211D02*
X110927987Y-74991353D01*
X110927987Y-74991353D02*
X110889892Y-75105639D01*
X110889892Y-75105639D02*
X110851797Y-75162782D01*
X110851797Y-75162782D02*
X110813702Y-75191353D01*
X110813702Y-75191353D02*
X110737511Y-75219925D01*
X110737511Y-75219925D02*
X110661321Y-75219925D01*
X110661321Y-75219925D02*
X110585130Y-75191353D01*
X110585130Y-75191353D02*
X110547035Y-75162782D01*
X110547035Y-75162782D02*
X110508940Y-75105639D01*
X110508940Y-75105639D02*
X110508940Y-74962782D01*
X110508940Y-74962782D02*
X110547035Y-74877068D01*
X118516353Y-110932866D02*
X118059211Y-110932866D01*
X118287782Y-110628104D02*
X118287782Y-111237628D01*
X118983646Y-80096895D02*
X118983646Y-80744514D01*
X118983646Y-80744514D02*
X119012217Y-80820704D01*
X119012217Y-80820704D02*
X119040789Y-80858800D01*
X119040789Y-80858800D02*
X119097931Y-80896895D01*
X119097931Y-80896895D02*
X119212217Y-80896895D01*
X119212217Y-80896895D02*
X119269360Y-80858800D01*
X119269360Y-80858800D02*
X119297931Y-80820704D01*
X119297931Y-80820704D02*
X119326503Y-80744514D01*
X119326503Y-80744514D02*
X119326503Y-80096895D01*
X119926502Y-80896895D02*
X119583645Y-80896895D01*
X119755074Y-80896895D02*
X119755074Y-80096895D01*
X119755074Y-80096895D02*
X119697931Y-80211180D01*
X119697931Y-80211180D02*
X119640788Y-80287371D01*
X119640788Y-80287371D02*
X119583645Y-80325466D01*
X111571895Y-89216353D02*
X110771895Y-89216353D01*
X110771895Y-89216353D02*
X111343323Y-89016353D01*
X111343323Y-89016353D02*
X110771895Y-88816353D01*
X110771895Y-88816353D02*
X111571895Y-88816353D01*
X111571895Y-88530639D02*
X110771895Y-88530639D01*
X111533800Y-88273497D02*
X111571895Y-88187783D01*
X111571895Y-88187783D02*
X111571895Y-88044925D01*
X111571895Y-88044925D02*
X111533800Y-87987783D01*
X111533800Y-87987783D02*
X111495704Y-87959211D01*
X111495704Y-87959211D02*
X111419514Y-87930640D01*
X111419514Y-87930640D02*
X111343323Y-87930640D01*
X111343323Y-87930640D02*
X111267133Y-87959211D01*
X111267133Y-87959211D02*
X111229038Y-87987783D01*
X111229038Y-87987783D02*
X111190942Y-88044925D01*
X111190942Y-88044925D02*
X111152847Y-88159211D01*
X111152847Y-88159211D02*
X111114752Y-88216354D01*
X111114752Y-88216354D02*
X111076657Y-88244925D01*
X111076657Y-88244925D02*
X111000466Y-88273497D01*
X111000466Y-88273497D02*
X110924276Y-88273497D01*
X110924276Y-88273497D02*
X110848085Y-88244925D01*
X110848085Y-88244925D02*
X110809990Y-88216354D01*
X110809990Y-88216354D02*
X110771895Y-88159211D01*
X110771895Y-88159211D02*
X110771895Y-88016354D01*
X110771895Y-88016354D02*
X110809990Y-87930640D01*
X110771895Y-87559211D02*
X110771895Y-87444925D01*
X110771895Y-87444925D02*
X110809990Y-87387782D01*
X110809990Y-87387782D02*
X110886180Y-87330639D01*
X110886180Y-87330639D02*
X111038561Y-87302068D01*
X111038561Y-87302068D02*
X111305228Y-87302068D01*
X111305228Y-87302068D02*
X111457609Y-87330639D01*
X111457609Y-87330639D02*
X111533800Y-87387782D01*
X111533800Y-87387782D02*
X111571895Y-87444925D01*
X111571895Y-87444925D02*
X111571895Y-87559211D01*
X111571895Y-87559211D02*
X111533800Y-87616354D01*
X111533800Y-87616354D02*
X111457609Y-87673496D01*
X111457609Y-87673496D02*
X111305228Y-87702068D01*
X111305228Y-87702068D02*
X111038561Y-87702068D01*
X111038561Y-87702068D02*
X110886180Y-87673496D01*
X110886180Y-87673496D02*
X110809990Y-87616354D01*
X110809990Y-87616354D02*
X110771895Y-87559211D01*
X119158646Y-113296895D02*
X119158646Y-113944514D01*
X119158646Y-113944514D02*
X119187217Y-114020704D01*
X119187217Y-114020704D02*
X119215789Y-114058800D01*
X119215789Y-114058800D02*
X119272931Y-114096895D01*
X119272931Y-114096895D02*
X119387217Y-114096895D01*
X119387217Y-114096895D02*
X119444360Y-114058800D01*
X119444360Y-114058800D02*
X119472931Y-114020704D01*
X119472931Y-114020704D02*
X119501503Y-113944514D01*
X119501503Y-113944514D02*
X119501503Y-113296895D01*
X119872931Y-113639752D02*
X119815788Y-113601657D01*
X119815788Y-113601657D02*
X119787217Y-113563561D01*
X119787217Y-113563561D02*
X119758645Y-113487371D01*
X119758645Y-113487371D02*
X119758645Y-113449276D01*
X119758645Y-113449276D02*
X119787217Y-113373085D01*
X119787217Y-113373085D02*
X119815788Y-113334990D01*
X119815788Y-113334990D02*
X119872931Y-113296895D01*
X119872931Y-113296895D02*
X119987217Y-113296895D01*
X119987217Y-113296895D02*
X120044360Y-113334990D01*
X120044360Y-113334990D02*
X120072931Y-113373085D01*
X120072931Y-113373085D02*
X120101502Y-113449276D01*
X120101502Y-113449276D02*
X120101502Y-113487371D01*
X120101502Y-113487371D02*
X120072931Y-113563561D01*
X120072931Y-113563561D02*
X120044360Y-113601657D01*
X120044360Y-113601657D02*
X119987217Y-113639752D01*
X119987217Y-113639752D02*
X119872931Y-113639752D01*
X119872931Y-113639752D02*
X119815788Y-113677847D01*
X119815788Y-113677847D02*
X119787217Y-113715942D01*
X119787217Y-113715942D02*
X119758645Y-113792133D01*
X119758645Y-113792133D02*
X119758645Y-113944514D01*
X119758645Y-113944514D02*
X119787217Y-114020704D01*
X119787217Y-114020704D02*
X119815788Y-114058800D01*
X119815788Y-114058800D02*
X119872931Y-114096895D01*
X119872931Y-114096895D02*
X119987217Y-114096895D01*
X119987217Y-114096895D02*
X120044360Y-114058800D01*
X120044360Y-114058800D02*
X120072931Y-114020704D01*
X120072931Y-114020704D02*
X120101502Y-113944514D01*
X120101502Y-113944514D02*
X120101502Y-113792133D01*
X120101502Y-113792133D02*
X120072931Y-113715942D01*
X120072931Y-113715942D02*
X120044360Y-113677847D01*
X120044360Y-113677847D02*
X119987217Y-113639752D01*
X111546895Y-99466353D02*
X110746895Y-99466353D01*
X110746895Y-99466353D02*
X111318323Y-99266353D01*
X111318323Y-99266353D02*
X110746895Y-99066353D01*
X110746895Y-99066353D02*
X111546895Y-99066353D01*
X111546895Y-98780639D02*
X110746895Y-98780639D01*
X111508800Y-98523497D02*
X111546895Y-98437783D01*
X111546895Y-98437783D02*
X111546895Y-98294925D01*
X111546895Y-98294925D02*
X111508800Y-98237783D01*
X111508800Y-98237783D02*
X111470704Y-98209211D01*
X111470704Y-98209211D02*
X111394514Y-98180640D01*
X111394514Y-98180640D02*
X111318323Y-98180640D01*
X111318323Y-98180640D02*
X111242133Y-98209211D01*
X111242133Y-98209211D02*
X111204038Y-98237783D01*
X111204038Y-98237783D02*
X111165942Y-98294925D01*
X111165942Y-98294925D02*
X111127847Y-98409211D01*
X111127847Y-98409211D02*
X111089752Y-98466354D01*
X111089752Y-98466354D02*
X111051657Y-98494925D01*
X111051657Y-98494925D02*
X110975466Y-98523497D01*
X110975466Y-98523497D02*
X110899276Y-98523497D01*
X110899276Y-98523497D02*
X110823085Y-98494925D01*
X110823085Y-98494925D02*
X110784990Y-98466354D01*
X110784990Y-98466354D02*
X110746895Y-98409211D01*
X110746895Y-98409211D02*
X110746895Y-98266354D01*
X110746895Y-98266354D02*
X110784990Y-98180640D01*
X110746895Y-97809211D02*
X110746895Y-97694925D01*
X110746895Y-97694925D02*
X110784990Y-97637782D01*
X110784990Y-97637782D02*
X110861180Y-97580639D01*
X110861180Y-97580639D02*
X111013561Y-97552068D01*
X111013561Y-97552068D02*
X111280228Y-97552068D01*
X111280228Y-97552068D02*
X111432609Y-97580639D01*
X111432609Y-97580639D02*
X111508800Y-97637782D01*
X111508800Y-97637782D02*
X111546895Y-97694925D01*
X111546895Y-97694925D02*
X111546895Y-97809211D01*
X111546895Y-97809211D02*
X111508800Y-97866354D01*
X111508800Y-97866354D02*
X111432609Y-97923496D01*
X111432609Y-97923496D02*
X111280228Y-97952068D01*
X111280228Y-97952068D02*
X111013561Y-97952068D01*
X111013561Y-97952068D02*
X110861180Y-97923496D01*
X110861180Y-97923496D02*
X110784990Y-97866354D01*
X110784990Y-97866354D02*
X110746895Y-97809211D01*
X118516353Y-87957866D02*
X118059211Y-87957866D01*
X118287782Y-87653104D02*
X118287782Y-88262628D01*
X111421895Y-81666353D02*
X110621895Y-81666353D01*
X110621895Y-81666353D02*
X111193323Y-81466353D01*
X111193323Y-81466353D02*
X110621895Y-81266353D01*
X110621895Y-81266353D02*
X111421895Y-81266353D01*
X110621895Y-80866354D02*
X110621895Y-80752068D01*
X110621895Y-80752068D02*
X110659990Y-80694925D01*
X110659990Y-80694925D02*
X110736180Y-80637782D01*
X110736180Y-80637782D02*
X110888561Y-80609211D01*
X110888561Y-80609211D02*
X111155228Y-80609211D01*
X111155228Y-80609211D02*
X111307609Y-80637782D01*
X111307609Y-80637782D02*
X111383800Y-80694925D01*
X111383800Y-80694925D02*
X111421895Y-80752068D01*
X111421895Y-80752068D02*
X111421895Y-80866354D01*
X111421895Y-80866354D02*
X111383800Y-80923497D01*
X111383800Y-80923497D02*
X111307609Y-80980639D01*
X111307609Y-80980639D02*
X111155228Y-81009211D01*
X111155228Y-81009211D02*
X110888561Y-81009211D01*
X110888561Y-81009211D02*
X110736180Y-80980639D01*
X110736180Y-80980639D02*
X110659990Y-80923497D01*
X110659990Y-80923497D02*
X110621895Y-80866354D01*
X111383800Y-80380640D02*
X111421895Y-80294926D01*
X111421895Y-80294926D02*
X111421895Y-80152068D01*
X111421895Y-80152068D02*
X111383800Y-80094926D01*
X111383800Y-80094926D02*
X111345704Y-80066354D01*
X111345704Y-80066354D02*
X111269514Y-80037783D01*
X111269514Y-80037783D02*
X111193323Y-80037783D01*
X111193323Y-80037783D02*
X111117133Y-80066354D01*
X111117133Y-80066354D02*
X111079038Y-80094926D01*
X111079038Y-80094926D02*
X111040942Y-80152068D01*
X111040942Y-80152068D02*
X111002847Y-80266354D01*
X111002847Y-80266354D02*
X110964752Y-80323497D01*
X110964752Y-80323497D02*
X110926657Y-80352068D01*
X110926657Y-80352068D02*
X110850466Y-80380640D01*
X110850466Y-80380640D02*
X110774276Y-80380640D01*
X110774276Y-80380640D02*
X110698085Y-80352068D01*
X110698085Y-80352068D02*
X110659990Y-80323497D01*
X110659990Y-80323497D02*
X110621895Y-80266354D01*
X110621895Y-80266354D02*
X110621895Y-80123497D01*
X110621895Y-80123497D02*
X110659990Y-80037783D01*
X111421895Y-79780639D02*
X110621895Y-79780639D01*
X111596895Y-117316353D02*
X110796895Y-117316353D01*
X110796895Y-117316353D02*
X111368323Y-117116353D01*
X111368323Y-117116353D02*
X110796895Y-116916353D01*
X110796895Y-116916353D02*
X111596895Y-116916353D01*
X111596895Y-116630639D02*
X110796895Y-116630639D01*
X111558800Y-116373497D02*
X111596895Y-116287783D01*
X111596895Y-116287783D02*
X111596895Y-116144925D01*
X111596895Y-116144925D02*
X111558800Y-116087783D01*
X111558800Y-116087783D02*
X111520704Y-116059211D01*
X111520704Y-116059211D02*
X111444514Y-116030640D01*
X111444514Y-116030640D02*
X111368323Y-116030640D01*
X111368323Y-116030640D02*
X111292133Y-116059211D01*
X111292133Y-116059211D02*
X111254038Y-116087783D01*
X111254038Y-116087783D02*
X111215942Y-116144925D01*
X111215942Y-116144925D02*
X111177847Y-116259211D01*
X111177847Y-116259211D02*
X111139752Y-116316354D01*
X111139752Y-116316354D02*
X111101657Y-116344925D01*
X111101657Y-116344925D02*
X111025466Y-116373497D01*
X111025466Y-116373497D02*
X110949276Y-116373497D01*
X110949276Y-116373497D02*
X110873085Y-116344925D01*
X110873085Y-116344925D02*
X110834990Y-116316354D01*
X110834990Y-116316354D02*
X110796895Y-116259211D01*
X110796895Y-116259211D02*
X110796895Y-116116354D01*
X110796895Y-116116354D02*
X110834990Y-116030640D01*
X110796895Y-115659211D02*
X110796895Y-115544925D01*
X110796895Y-115544925D02*
X110834990Y-115487782D01*
X110834990Y-115487782D02*
X110911180Y-115430639D01*
X110911180Y-115430639D02*
X111063561Y-115402068D01*
X111063561Y-115402068D02*
X111330228Y-115402068D01*
X111330228Y-115402068D02*
X111482609Y-115430639D01*
X111482609Y-115430639D02*
X111558800Y-115487782D01*
X111558800Y-115487782D02*
X111596895Y-115544925D01*
X111596895Y-115544925D02*
X111596895Y-115659211D01*
X111596895Y-115659211D02*
X111558800Y-115716354D01*
X111558800Y-115716354D02*
X111482609Y-115773496D01*
X111482609Y-115773496D02*
X111330228Y-115802068D01*
X111330228Y-115802068D02*
X111063561Y-115802068D01*
X111063561Y-115802068D02*
X110911180Y-115773496D01*
X110911180Y-115773496D02*
X110834990Y-115716354D01*
X110834990Y-115716354D02*
X110796895Y-115659211D01*
X118541353Y-118632866D02*
X118084211Y-118632866D01*
X118312782Y-118328104D02*
X118312782Y-118937628D01*
X119083646Y-98021895D02*
X119083646Y-98669514D01*
X119083646Y-98669514D02*
X119112217Y-98745704D01*
X119112217Y-98745704D02*
X119140789Y-98783800D01*
X119140789Y-98783800D02*
X119197931Y-98821895D01*
X119197931Y-98821895D02*
X119312217Y-98821895D01*
X119312217Y-98821895D02*
X119369360Y-98783800D01*
X119369360Y-98783800D02*
X119397931Y-98745704D01*
X119397931Y-98745704D02*
X119426503Y-98669514D01*
X119426503Y-98669514D02*
X119426503Y-98021895D01*
X119969360Y-98288561D02*
X119969360Y-98821895D01*
X119826502Y-97983800D02*
X119683645Y-98555228D01*
X119683645Y-98555228D02*
X120055074Y-98555228D01*
X112141353Y-80732866D02*
X111684211Y-80732866D01*
X111912782Y-80428104D02*
X111912782Y-81037628D01*
X112309211Y-103451914D02*
X111852068Y-103451914D01*
X119108646Y-92971895D02*
X119108646Y-93619514D01*
X119108646Y-93619514D02*
X119137217Y-93695704D01*
X119137217Y-93695704D02*
X119165789Y-93733800D01*
X119165789Y-93733800D02*
X119222931Y-93771895D01*
X119222931Y-93771895D02*
X119337217Y-93771895D01*
X119337217Y-93771895D02*
X119394360Y-93733800D01*
X119394360Y-93733800D02*
X119422931Y-93695704D01*
X119422931Y-93695704D02*
X119451503Y-93619514D01*
X119451503Y-93619514D02*
X119451503Y-92971895D01*
X119994360Y-93238561D02*
X119994360Y-93771895D01*
X119851502Y-92933800D02*
X119708645Y-93505228D01*
X119708645Y-93505228D02*
X120080074Y-93505228D01*
X119133646Y-105496895D02*
X119133646Y-106144514D01*
X119133646Y-106144514D02*
X119162217Y-106220704D01*
X119162217Y-106220704D02*
X119190789Y-106258800D01*
X119190789Y-106258800D02*
X119247931Y-106296895D01*
X119247931Y-106296895D02*
X119362217Y-106296895D01*
X119362217Y-106296895D02*
X119419360Y-106258800D01*
X119419360Y-106258800D02*
X119447931Y-106220704D01*
X119447931Y-106220704D02*
X119476503Y-106144514D01*
X119476503Y-106144514D02*
X119476503Y-105496895D01*
X120047931Y-105496895D02*
X119762217Y-105496895D01*
X119762217Y-105496895D02*
X119733645Y-105877847D01*
X119733645Y-105877847D02*
X119762217Y-105839752D01*
X119762217Y-105839752D02*
X119819360Y-105801657D01*
X119819360Y-105801657D02*
X119962217Y-105801657D01*
X119962217Y-105801657D02*
X120019360Y-105839752D01*
X120019360Y-105839752D02*
X120047931Y-105877847D01*
X120047931Y-105877847D02*
X120076502Y-105954038D01*
X120076502Y-105954038D02*
X120076502Y-106144514D01*
X120076502Y-106144514D02*
X120047931Y-106220704D01*
X120047931Y-106220704D02*
X120019360Y-106258800D01*
X120019360Y-106258800D02*
X119962217Y-106296895D01*
X119962217Y-106296895D02*
X119819360Y-106296895D01*
X119819360Y-106296895D02*
X119762217Y-106258800D01*
X119762217Y-106258800D02*
X119733645Y-106220704D01*
X119033646Y-87521895D02*
X119033646Y-88169514D01*
X119033646Y-88169514D02*
X119062217Y-88245704D01*
X119062217Y-88245704D02*
X119090789Y-88283800D01*
X119090789Y-88283800D02*
X119147931Y-88321895D01*
X119147931Y-88321895D02*
X119262217Y-88321895D01*
X119262217Y-88321895D02*
X119319360Y-88283800D01*
X119319360Y-88283800D02*
X119347931Y-88245704D01*
X119347931Y-88245704D02*
X119376503Y-88169514D01*
X119376503Y-88169514D02*
X119376503Y-87521895D01*
X119633645Y-87598085D02*
X119662217Y-87559990D01*
X119662217Y-87559990D02*
X119719360Y-87521895D01*
X119719360Y-87521895D02*
X119862217Y-87521895D01*
X119862217Y-87521895D02*
X119919360Y-87559990D01*
X119919360Y-87559990D02*
X119947931Y-87598085D01*
X119947931Y-87598085D02*
X119976502Y-87674276D01*
X119976502Y-87674276D02*
X119976502Y-87750466D01*
X119976502Y-87750466D02*
X119947931Y-87864752D01*
X119947931Y-87864752D02*
X119605074Y-88321895D01*
X119605074Y-88321895D02*
X119976502Y-88321895D01*
X118541353Y-85532866D02*
X118084211Y-85532866D01*
X118312782Y-85228104D02*
X118312782Y-85837628D01*
X118516353Y-95832866D02*
X118059211Y-95832866D01*
X118287782Y-95528104D02*
X118287782Y-96137628D01*
X112259211Y-118651914D02*
X111802068Y-118651914D01*
X118516353Y-78157866D02*
X118059211Y-78157866D01*
X111270704Y-78273496D02*
X111308800Y-78302068D01*
X111308800Y-78302068D02*
X111346895Y-78387782D01*
X111346895Y-78387782D02*
X111346895Y-78444925D01*
X111346895Y-78444925D02*
X111308800Y-78530639D01*
X111308800Y-78530639D02*
X111232609Y-78587782D01*
X111232609Y-78587782D02*
X111156419Y-78616353D01*
X111156419Y-78616353D02*
X111004038Y-78644925D01*
X111004038Y-78644925D02*
X110889752Y-78644925D01*
X110889752Y-78644925D02*
X110737371Y-78616353D01*
X110737371Y-78616353D02*
X110661180Y-78587782D01*
X110661180Y-78587782D02*
X110584990Y-78530639D01*
X110584990Y-78530639D02*
X110546895Y-78444925D01*
X110546895Y-78444925D02*
X110546895Y-78387782D01*
X110546895Y-78387782D02*
X110584990Y-78302068D01*
X110584990Y-78302068D02*
X110623085Y-78273496D01*
X111346895Y-77730639D02*
X111346895Y-78016353D01*
X111346895Y-78016353D02*
X110546895Y-78016353D01*
X111346895Y-77530639D02*
X110546895Y-77530639D01*
X111346895Y-77187782D02*
X110889752Y-77444925D01*
X110546895Y-77187782D02*
X111004038Y-77530639D01*
X111521895Y-96916353D02*
X110721895Y-96916353D01*
X110721895Y-96916353D02*
X111293323Y-96716353D01*
X111293323Y-96716353D02*
X110721895Y-96516353D01*
X110721895Y-96516353D02*
X111521895Y-96516353D01*
X111521895Y-96230639D02*
X110721895Y-96230639D01*
X111483800Y-95973497D02*
X111521895Y-95887783D01*
X111521895Y-95887783D02*
X111521895Y-95744925D01*
X111521895Y-95744925D02*
X111483800Y-95687783D01*
X111483800Y-95687783D02*
X111445704Y-95659211D01*
X111445704Y-95659211D02*
X111369514Y-95630640D01*
X111369514Y-95630640D02*
X111293323Y-95630640D01*
X111293323Y-95630640D02*
X111217133Y-95659211D01*
X111217133Y-95659211D02*
X111179038Y-95687783D01*
X111179038Y-95687783D02*
X111140942Y-95744925D01*
X111140942Y-95744925D02*
X111102847Y-95859211D01*
X111102847Y-95859211D02*
X111064752Y-95916354D01*
X111064752Y-95916354D02*
X111026657Y-95944925D01*
X111026657Y-95944925D02*
X110950466Y-95973497D01*
X110950466Y-95973497D02*
X110874276Y-95973497D01*
X110874276Y-95973497D02*
X110798085Y-95944925D01*
X110798085Y-95944925D02*
X110759990Y-95916354D01*
X110759990Y-95916354D02*
X110721895Y-95859211D01*
X110721895Y-95859211D02*
X110721895Y-95716354D01*
X110721895Y-95716354D02*
X110759990Y-95630640D01*
X110721895Y-95259211D02*
X110721895Y-95144925D01*
X110721895Y-95144925D02*
X110759990Y-95087782D01*
X110759990Y-95087782D02*
X110836180Y-95030639D01*
X110836180Y-95030639D02*
X110988561Y-95002068D01*
X110988561Y-95002068D02*
X111255228Y-95002068D01*
X111255228Y-95002068D02*
X111407609Y-95030639D01*
X111407609Y-95030639D02*
X111483800Y-95087782D01*
X111483800Y-95087782D02*
X111521895Y-95144925D01*
X111521895Y-95144925D02*
X111521895Y-95259211D01*
X111521895Y-95259211D02*
X111483800Y-95316354D01*
X111483800Y-95316354D02*
X111407609Y-95373496D01*
X111407609Y-95373496D02*
X111255228Y-95402068D01*
X111255228Y-95402068D02*
X110988561Y-95402068D01*
X110988561Y-95402068D02*
X110836180Y-95373496D01*
X110836180Y-95373496D02*
X110759990Y-95316354D01*
X110759990Y-95316354D02*
X110721895Y-95259211D01*
X118541353Y-105907866D02*
X118084211Y-105907866D01*
X118312782Y-105603104D02*
X118312782Y-106212628D01*
X112291353Y-95982866D02*
X111834211Y-95982866D01*
X112284211Y-100876914D02*
X111827068Y-100876914D01*
X110871895Y-125327068D02*
X111671895Y-125127068D01*
X111671895Y-125127068D02*
X110871895Y-124927068D01*
X111633800Y-124755639D02*
X111671895Y-124669925D01*
X111671895Y-124669925D02*
X111671895Y-124527067D01*
X111671895Y-124527067D02*
X111633800Y-124469925D01*
X111633800Y-124469925D02*
X111595704Y-124441353D01*
X111595704Y-124441353D02*
X111519514Y-124412782D01*
X111519514Y-124412782D02*
X111443323Y-124412782D01*
X111443323Y-124412782D02*
X111367133Y-124441353D01*
X111367133Y-124441353D02*
X111329038Y-124469925D01*
X111329038Y-124469925D02*
X111290942Y-124527067D01*
X111290942Y-124527067D02*
X111252847Y-124641353D01*
X111252847Y-124641353D02*
X111214752Y-124698496D01*
X111214752Y-124698496D02*
X111176657Y-124727067D01*
X111176657Y-124727067D02*
X111100466Y-124755639D01*
X111100466Y-124755639D02*
X111024276Y-124755639D01*
X111024276Y-124755639D02*
X110948085Y-124727067D01*
X110948085Y-124727067D02*
X110909990Y-124698496D01*
X110909990Y-124698496D02*
X110871895Y-124641353D01*
X110871895Y-124641353D02*
X110871895Y-124498496D01*
X110871895Y-124498496D02*
X110909990Y-124412782D01*
X110871895Y-124241353D02*
X110871895Y-123898496D01*
X111671895Y-124069924D02*
X110871895Y-124069924D01*
X111671895Y-123698495D02*
X110871895Y-123698495D01*
X111671895Y-123412781D02*
X110871895Y-123412781D01*
X110871895Y-123412781D02*
X111443323Y-123212781D01*
X111443323Y-123212781D02*
X110871895Y-123012781D01*
X110871895Y-123012781D02*
X111671895Y-123012781D01*
X111367133Y-122727067D02*
X111367133Y-122269925D01*
X118541353Y-116107866D02*
X118084211Y-116107866D01*
X118312782Y-115803104D02*
X118312782Y-116412628D01*
X118541353Y-100807866D02*
X118084211Y-100807866D01*
X118312782Y-100503104D02*
X118312782Y-101112628D01*
X112309211Y-111151914D02*
X111852068Y-111151914D01*
X119083646Y-95521895D02*
X119083646Y-96169514D01*
X119083646Y-96169514D02*
X119112217Y-96245704D01*
X119112217Y-96245704D02*
X119140789Y-96283800D01*
X119140789Y-96283800D02*
X119197931Y-96321895D01*
X119197931Y-96321895D02*
X119312217Y-96321895D01*
X119312217Y-96321895D02*
X119369360Y-96283800D01*
X119369360Y-96283800D02*
X119397931Y-96245704D01*
X119397931Y-96245704D02*
X119426503Y-96169514D01*
X119426503Y-96169514D02*
X119426503Y-95521895D01*
X119655074Y-95521895D02*
X120026502Y-95521895D01*
X120026502Y-95521895D02*
X119826502Y-95826657D01*
X119826502Y-95826657D02*
X119912217Y-95826657D01*
X119912217Y-95826657D02*
X119969360Y-95864752D01*
X119969360Y-95864752D02*
X119997931Y-95902847D01*
X119997931Y-95902847D02*
X120026502Y-95979038D01*
X120026502Y-95979038D02*
X120026502Y-96169514D01*
X120026502Y-96169514D02*
X119997931Y-96245704D01*
X119997931Y-96245704D02*
X119969360Y-96283800D01*
X119969360Y-96283800D02*
X119912217Y-96321895D01*
X119912217Y-96321895D02*
X119740788Y-96321895D01*
X119740788Y-96321895D02*
X119683645Y-96283800D01*
X119683645Y-96283800D02*
X119655074Y-96245704D01*
X112309211Y-93301914D02*
X111852068Y-93301914D01*
X111546895Y-101966353D02*
X110746895Y-101966353D01*
X110746895Y-101966353D02*
X111318323Y-101766353D01*
X111318323Y-101766353D02*
X110746895Y-101566353D01*
X110746895Y-101566353D02*
X111546895Y-101566353D01*
X110746895Y-101166354D02*
X110746895Y-101052068D01*
X110746895Y-101052068D02*
X110784990Y-100994925D01*
X110784990Y-100994925D02*
X110861180Y-100937782D01*
X110861180Y-100937782D02*
X111013561Y-100909211D01*
X111013561Y-100909211D02*
X111280228Y-100909211D01*
X111280228Y-100909211D02*
X111432609Y-100937782D01*
X111432609Y-100937782D02*
X111508800Y-100994925D01*
X111508800Y-100994925D02*
X111546895Y-101052068D01*
X111546895Y-101052068D02*
X111546895Y-101166354D01*
X111546895Y-101166354D02*
X111508800Y-101223497D01*
X111508800Y-101223497D02*
X111432609Y-101280639D01*
X111432609Y-101280639D02*
X111280228Y-101309211D01*
X111280228Y-101309211D02*
X111013561Y-101309211D01*
X111013561Y-101309211D02*
X110861180Y-101280639D01*
X110861180Y-101280639D02*
X110784990Y-101223497D01*
X110784990Y-101223497D02*
X110746895Y-101166354D01*
X111508800Y-100680640D02*
X111546895Y-100594926D01*
X111546895Y-100594926D02*
X111546895Y-100452068D01*
X111546895Y-100452068D02*
X111508800Y-100394926D01*
X111508800Y-100394926D02*
X111470704Y-100366354D01*
X111470704Y-100366354D02*
X111394514Y-100337783D01*
X111394514Y-100337783D02*
X111318323Y-100337783D01*
X111318323Y-100337783D02*
X111242133Y-100366354D01*
X111242133Y-100366354D02*
X111204038Y-100394926D01*
X111204038Y-100394926D02*
X111165942Y-100452068D01*
X111165942Y-100452068D02*
X111127847Y-100566354D01*
X111127847Y-100566354D02*
X111089752Y-100623497D01*
X111089752Y-100623497D02*
X111051657Y-100652068D01*
X111051657Y-100652068D02*
X110975466Y-100680640D01*
X110975466Y-100680640D02*
X110899276Y-100680640D01*
X110899276Y-100680640D02*
X110823085Y-100652068D01*
X110823085Y-100652068D02*
X110784990Y-100623497D01*
X110784990Y-100623497D02*
X110746895Y-100566354D01*
X110746895Y-100566354D02*
X110746895Y-100423497D01*
X110746895Y-100423497D02*
X110784990Y-100337783D01*
X111546895Y-100080639D02*
X110746895Y-100080639D01*
X111496895Y-86666353D02*
X110696895Y-86666353D01*
X110696895Y-86666353D02*
X111268323Y-86466353D01*
X111268323Y-86466353D02*
X110696895Y-86266353D01*
X110696895Y-86266353D02*
X111496895Y-86266353D01*
X111496895Y-85980639D02*
X110696895Y-85980639D01*
X111458800Y-85723497D02*
X111496895Y-85637783D01*
X111496895Y-85637783D02*
X111496895Y-85494925D01*
X111496895Y-85494925D02*
X111458800Y-85437783D01*
X111458800Y-85437783D02*
X111420704Y-85409211D01*
X111420704Y-85409211D02*
X111344514Y-85380640D01*
X111344514Y-85380640D02*
X111268323Y-85380640D01*
X111268323Y-85380640D02*
X111192133Y-85409211D01*
X111192133Y-85409211D02*
X111154038Y-85437783D01*
X111154038Y-85437783D02*
X111115942Y-85494925D01*
X111115942Y-85494925D02*
X111077847Y-85609211D01*
X111077847Y-85609211D02*
X111039752Y-85666354D01*
X111039752Y-85666354D02*
X111001657Y-85694925D01*
X111001657Y-85694925D02*
X110925466Y-85723497D01*
X110925466Y-85723497D02*
X110849276Y-85723497D01*
X110849276Y-85723497D02*
X110773085Y-85694925D01*
X110773085Y-85694925D02*
X110734990Y-85666354D01*
X110734990Y-85666354D02*
X110696895Y-85609211D01*
X110696895Y-85609211D02*
X110696895Y-85466354D01*
X110696895Y-85466354D02*
X110734990Y-85380640D01*
X110696895Y-85009211D02*
X110696895Y-84894925D01*
X110696895Y-84894925D02*
X110734990Y-84837782D01*
X110734990Y-84837782D02*
X110811180Y-84780639D01*
X110811180Y-84780639D02*
X110963561Y-84752068D01*
X110963561Y-84752068D02*
X111230228Y-84752068D01*
X111230228Y-84752068D02*
X111382609Y-84780639D01*
X111382609Y-84780639D02*
X111458800Y-84837782D01*
X111458800Y-84837782D02*
X111496895Y-84894925D01*
X111496895Y-84894925D02*
X111496895Y-85009211D01*
X111496895Y-85009211D02*
X111458800Y-85066354D01*
X111458800Y-85066354D02*
X111382609Y-85123496D01*
X111382609Y-85123496D02*
X111230228Y-85152068D01*
X111230228Y-85152068D02*
X110963561Y-85152068D01*
X110963561Y-85152068D02*
X110811180Y-85123496D01*
X110811180Y-85123496D02*
X110734990Y-85066354D01*
X110734990Y-85066354D02*
X110696895Y-85009211D01*
D11*
X151316667Y-115104819D02*
X151650000Y-116104819D01*
X151650000Y-116104819D02*
X151983333Y-115104819D01*
X152888095Y-116009580D02*
X152840476Y-116057200D01*
X152840476Y-116057200D02*
X152697619Y-116104819D01*
X152697619Y-116104819D02*
X152602381Y-116104819D01*
X152602381Y-116104819D02*
X152459524Y-116057200D01*
X152459524Y-116057200D02*
X152364286Y-115961961D01*
X152364286Y-115961961D02*
X152316667Y-115866723D01*
X152316667Y-115866723D02*
X152269048Y-115676247D01*
X152269048Y-115676247D02*
X152269048Y-115533390D01*
X152269048Y-115533390D02*
X152316667Y-115342914D01*
X152316667Y-115342914D02*
X152364286Y-115247676D01*
X152364286Y-115247676D02*
X152459524Y-115152438D01*
X152459524Y-115152438D02*
X152602381Y-115104819D01*
X152602381Y-115104819D02*
X152697619Y-115104819D01*
X152697619Y-115104819D02*
X152840476Y-115152438D01*
X152840476Y-115152438D02*
X152888095Y-115200057D01*
X153888095Y-116009580D02*
X153840476Y-116057200D01*
X153840476Y-116057200D02*
X153697619Y-116104819D01*
X153697619Y-116104819D02*
X153602381Y-116104819D01*
X153602381Y-116104819D02*
X153459524Y-116057200D01*
X153459524Y-116057200D02*
X153364286Y-115961961D01*
X153364286Y-115961961D02*
X153316667Y-115866723D01*
X153316667Y-115866723D02*
X153269048Y-115676247D01*
X153269048Y-115676247D02*
X153269048Y-115533390D01*
X153269048Y-115533390D02*
X153316667Y-115342914D01*
X153316667Y-115342914D02*
X153364286Y-115247676D01*
X153364286Y-115247676D02*
X153459524Y-115152438D01*
X153459524Y-115152438D02*
X153602381Y-115104819D01*
X153602381Y-115104819D02*
X153697619Y-115104819D01*
X153697619Y-115104819D02*
X153840476Y-115152438D01*
X153840476Y-115152438D02*
X153888095Y-115200057D01*
X136780953Y-115104819D02*
X137114286Y-116104819D01*
X137114286Y-116104819D02*
X137447619Y-115104819D01*
X137733334Y-116057200D02*
X137876191Y-116104819D01*
X137876191Y-116104819D02*
X138114286Y-116104819D01*
X138114286Y-116104819D02*
X138209524Y-116057200D01*
X138209524Y-116057200D02*
X138257143Y-116009580D01*
X138257143Y-116009580D02*
X138304762Y-115914342D01*
X138304762Y-115914342D02*
X138304762Y-115819104D01*
X138304762Y-115819104D02*
X138257143Y-115723866D01*
X138257143Y-115723866D02*
X138209524Y-115676247D01*
X138209524Y-115676247D02*
X138114286Y-115628628D01*
X138114286Y-115628628D02*
X137923810Y-115581009D01*
X137923810Y-115581009D02*
X137828572Y-115533390D01*
X137828572Y-115533390D02*
X137780953Y-115485771D01*
X137780953Y-115485771D02*
X137733334Y-115390533D01*
X137733334Y-115390533D02*
X137733334Y-115295295D01*
X137733334Y-115295295D02*
X137780953Y-115200057D01*
X137780953Y-115200057D02*
X137828572Y-115152438D01*
X137828572Y-115152438D02*
X137923810Y-115104819D01*
X137923810Y-115104819D02*
X138161905Y-115104819D01*
X138161905Y-115104819D02*
X138304762Y-115152438D01*
X138590477Y-115104819D02*
X139161905Y-115104819D01*
X138876191Y-116104819D02*
X138876191Y-115104819D01*
X139495239Y-116104819D02*
X139495239Y-115104819D01*
X139971429Y-116104819D02*
X139971429Y-115104819D01*
X139971429Y-115104819D02*
X140304762Y-115819104D01*
X140304762Y-115819104D02*
X140638095Y-115104819D01*
X140638095Y-115104819D02*
X140638095Y-116104819D01*
X141114286Y-115723866D02*
X141876191Y-115723866D01*
X141495238Y-116104819D02*
X141495238Y-115342914D01*
D12*
X156897219Y-94113588D02*
X157064133Y-94169226D01*
X157064133Y-94169226D02*
X157342324Y-94169226D01*
X157342324Y-94169226D02*
X157453600Y-94113588D01*
X157453600Y-94113588D02*
X157509238Y-94057949D01*
X157509238Y-94057949D02*
X157564876Y-93946673D01*
X157564876Y-93946673D02*
X157564876Y-93835397D01*
X157564876Y-93835397D02*
X157509238Y-93724121D01*
X157509238Y-93724121D02*
X157453600Y-93668483D01*
X157453600Y-93668483D02*
X157342324Y-93612845D01*
X157342324Y-93612845D02*
X157119771Y-93557207D01*
X157119771Y-93557207D02*
X157008495Y-93501568D01*
X157008495Y-93501568D02*
X156952857Y-93445930D01*
X156952857Y-93445930D02*
X156897219Y-93334654D01*
X156897219Y-93334654D02*
X156897219Y-93223378D01*
X156897219Y-93223378D02*
X156952857Y-93112102D01*
X156952857Y-93112102D02*
X157008495Y-93056464D01*
X157008495Y-93056464D02*
X157119771Y-93000826D01*
X157119771Y-93000826D02*
X157397962Y-93000826D01*
X157397962Y-93000826D02*
X157564876Y-93056464D01*
X158009981Y-93112102D02*
X158065619Y-93056464D01*
X158065619Y-93056464D02*
X158176895Y-93000826D01*
X158176895Y-93000826D02*
X158455086Y-93000826D01*
X158455086Y-93000826D02*
X158566362Y-93056464D01*
X158566362Y-93056464D02*
X158622000Y-93112102D01*
X158622000Y-93112102D02*
X158677638Y-93223378D01*
X158677638Y-93223378D02*
X158677638Y-93334654D01*
X158677638Y-93334654D02*
X158622000Y-93501568D01*
X158622000Y-93501568D02*
X157954343Y-94169226D01*
X157954343Y-94169226D02*
X158677638Y-94169226D01*
X156947219Y-100963588D02*
X157114133Y-101019226D01*
X157114133Y-101019226D02*
X157392324Y-101019226D01*
X157392324Y-101019226D02*
X157503600Y-100963588D01*
X157503600Y-100963588D02*
X157559238Y-100907949D01*
X157559238Y-100907949D02*
X157614876Y-100796673D01*
X157614876Y-100796673D02*
X157614876Y-100685397D01*
X157614876Y-100685397D02*
X157559238Y-100574121D01*
X157559238Y-100574121D02*
X157503600Y-100518483D01*
X157503600Y-100518483D02*
X157392324Y-100462845D01*
X157392324Y-100462845D02*
X157169771Y-100407207D01*
X157169771Y-100407207D02*
X157058495Y-100351568D01*
X157058495Y-100351568D02*
X157002857Y-100295930D01*
X157002857Y-100295930D02*
X156947219Y-100184654D01*
X156947219Y-100184654D02*
X156947219Y-100073378D01*
X156947219Y-100073378D02*
X157002857Y-99962102D01*
X157002857Y-99962102D02*
X157058495Y-99906464D01*
X157058495Y-99906464D02*
X157169771Y-99850826D01*
X157169771Y-99850826D02*
X157447962Y-99850826D01*
X157447962Y-99850826D02*
X157614876Y-99906464D01*
X158004343Y-99850826D02*
X158727638Y-99850826D01*
X158727638Y-99850826D02*
X158338171Y-100295930D01*
X158338171Y-100295930D02*
X158505086Y-100295930D01*
X158505086Y-100295930D02*
X158616362Y-100351568D01*
X158616362Y-100351568D02*
X158672000Y-100407207D01*
X158672000Y-100407207D02*
X158727638Y-100518483D01*
X158727638Y-100518483D02*
X158727638Y-100796673D01*
X158727638Y-100796673D02*
X158672000Y-100907949D01*
X158672000Y-100907949D02*
X158616362Y-100963588D01*
X158616362Y-100963588D02*
X158505086Y-101019226D01*
X158505086Y-101019226D02*
X158171257Y-101019226D01*
X158171257Y-101019226D02*
X158059981Y-100963588D01*
X158059981Y-100963588D02*
X158004343Y-100907949D01*
X156947219Y-107863588D02*
X157114133Y-107919226D01*
X157114133Y-107919226D02*
X157392324Y-107919226D01*
X157392324Y-107919226D02*
X157503600Y-107863588D01*
X157503600Y-107863588D02*
X157559238Y-107807949D01*
X157559238Y-107807949D02*
X157614876Y-107696673D01*
X157614876Y-107696673D02*
X157614876Y-107585397D01*
X157614876Y-107585397D02*
X157559238Y-107474121D01*
X157559238Y-107474121D02*
X157503600Y-107418483D01*
X157503600Y-107418483D02*
X157392324Y-107362845D01*
X157392324Y-107362845D02*
X157169771Y-107307207D01*
X157169771Y-107307207D02*
X157058495Y-107251568D01*
X157058495Y-107251568D02*
X157002857Y-107195930D01*
X157002857Y-107195930D02*
X156947219Y-107084654D01*
X156947219Y-107084654D02*
X156947219Y-106973378D01*
X156947219Y-106973378D02*
X157002857Y-106862102D01*
X157002857Y-106862102D02*
X157058495Y-106806464D01*
X157058495Y-106806464D02*
X157169771Y-106750826D01*
X157169771Y-106750826D02*
X157447962Y-106750826D01*
X157447962Y-106750826D02*
X157614876Y-106806464D01*
X158616362Y-107140292D02*
X158616362Y-107919226D01*
X158338171Y-106695188D02*
X158059981Y-107529759D01*
X158059981Y-107529759D02*
X158783276Y-107529759D01*
X156947219Y-86813588D02*
X157114133Y-86869226D01*
X157114133Y-86869226D02*
X157392324Y-86869226D01*
X157392324Y-86869226D02*
X157503600Y-86813588D01*
X157503600Y-86813588D02*
X157559238Y-86757949D01*
X157559238Y-86757949D02*
X157614876Y-86646673D01*
X157614876Y-86646673D02*
X157614876Y-86535397D01*
X157614876Y-86535397D02*
X157559238Y-86424121D01*
X157559238Y-86424121D02*
X157503600Y-86368483D01*
X157503600Y-86368483D02*
X157392324Y-86312845D01*
X157392324Y-86312845D02*
X157169771Y-86257207D01*
X157169771Y-86257207D02*
X157058495Y-86201568D01*
X157058495Y-86201568D02*
X157002857Y-86145930D01*
X157002857Y-86145930D02*
X156947219Y-86034654D01*
X156947219Y-86034654D02*
X156947219Y-85923378D01*
X156947219Y-85923378D02*
X157002857Y-85812102D01*
X157002857Y-85812102D02*
X157058495Y-85756464D01*
X157058495Y-85756464D02*
X157169771Y-85700826D01*
X157169771Y-85700826D02*
X157447962Y-85700826D01*
X157447962Y-85700826D02*
X157614876Y-85756464D01*
X158727638Y-86869226D02*
X158059981Y-86869226D01*
X158393809Y-86869226D02*
X158393809Y-85700826D01*
X158393809Y-85700826D02*
X158282533Y-85867740D01*
X158282533Y-85867740D02*
X158171257Y-85979016D01*
X158171257Y-85979016D02*
X158059981Y-86034654D01*
D11*
X123680953Y-115154819D02*
X124014286Y-116154819D01*
X124014286Y-116154819D02*
X124347619Y-115154819D01*
X124633334Y-116107200D02*
X124776191Y-116154819D01*
X124776191Y-116154819D02*
X125014286Y-116154819D01*
X125014286Y-116154819D02*
X125109524Y-116107200D01*
X125109524Y-116107200D02*
X125157143Y-116059580D01*
X125157143Y-116059580D02*
X125204762Y-115964342D01*
X125204762Y-115964342D02*
X125204762Y-115869104D01*
X125204762Y-115869104D02*
X125157143Y-115773866D01*
X125157143Y-115773866D02*
X125109524Y-115726247D01*
X125109524Y-115726247D02*
X125014286Y-115678628D01*
X125014286Y-115678628D02*
X124823810Y-115631009D01*
X124823810Y-115631009D02*
X124728572Y-115583390D01*
X124728572Y-115583390D02*
X124680953Y-115535771D01*
X124680953Y-115535771D02*
X124633334Y-115440533D01*
X124633334Y-115440533D02*
X124633334Y-115345295D01*
X124633334Y-115345295D02*
X124680953Y-115250057D01*
X124680953Y-115250057D02*
X124728572Y-115202438D01*
X124728572Y-115202438D02*
X124823810Y-115154819D01*
X124823810Y-115154819D02*
X125061905Y-115154819D01*
X125061905Y-115154819D02*
X125204762Y-115202438D01*
X125490477Y-115154819D02*
X126061905Y-115154819D01*
X125776191Y-116154819D02*
X125776191Y-115154819D01*
X126395239Y-116154819D02*
X126395239Y-115154819D01*
X126871429Y-116154819D02*
X126871429Y-115154819D01*
X126871429Y-115154819D02*
X127204762Y-115869104D01*
X127204762Y-115869104D02*
X127538095Y-115154819D01*
X127538095Y-115154819D02*
X127538095Y-116154819D01*
X128014286Y-115773866D02*
X128776191Y-115773866D01*
D13*
X147540000Y-116840000D02*
X150350000Y-116840000D01*
X147540000Y-122900000D02*
X147540000Y-116840000D01*
X147540000Y-130060000D02*
X147540000Y-127000000D01*
X151650000Y-116650000D02*
X153650000Y-116650000D01*
X154950000Y-116840000D02*
X157760000Y-116840000D01*
X157760000Y-116840000D02*
X157760000Y-122900000D01*
X157760000Y-127000000D02*
X157760000Y-130060000D01*
X157760000Y-130060000D02*
X147540000Y-130060000D01*
X134290000Y-116840000D02*
X137100000Y-116840000D01*
X134290000Y-122900000D02*
X134290000Y-116840000D01*
X134290000Y-130060000D02*
X134290000Y-127000000D01*
X138400000Y-116650000D02*
X140400000Y-116650000D01*
X141700000Y-116840000D02*
X144510000Y-116840000D01*
X144510000Y-116840000D02*
X144510000Y-122900000D01*
X144510000Y-127000000D02*
X144510000Y-130060000D01*
X144510000Y-130060000D02*
X134290000Y-130060000D01*
X112620000Y-74275000D02*
X113950000Y-74275000D01*
X112620000Y-75605000D02*
X112620000Y-74275000D01*
X112620000Y-76875000D02*
X112620000Y-125195000D01*
X112620000Y-76875000D02*
X115220000Y-76875000D01*
X112620000Y-125195000D02*
X117820000Y-125195000D01*
X115220000Y-74275000D02*
X117820000Y-74275000D01*
X115220000Y-76875000D02*
X115220000Y-74275000D01*
X117820000Y-74275000D02*
X117820000Y-125195000D01*
D14*
X159135475Y-93985000D02*
X159135475Y-94620000D01*
X159135475Y-93985000D02*
X161675475Y-93985000D01*
X159135475Y-94620000D02*
X159021175Y-94620000D01*
X159135475Y-94620000D02*
X159135475Y-95255000D01*
X159135475Y-95255000D02*
X159021175Y-95255000D01*
X159135475Y-95255000D02*
X159135475Y-95890000D01*
X159135475Y-95890000D02*
X159021175Y-95890000D01*
X159135475Y-95890000D02*
X159135475Y-96525000D01*
X159135475Y-96525000D02*
X159021175Y-96525000D01*
X159135475Y-96525000D02*
X159135475Y-97160000D01*
X159135475Y-97160000D02*
X159021175Y-97160000D01*
X159135475Y-97160000D02*
X159135475Y-97795000D01*
X159135475Y-97795000D02*
X159021175Y-97795000D01*
X159135475Y-97795000D02*
X159135475Y-98430000D01*
X159135475Y-98430000D02*
X159021175Y-98430000D01*
X159135475Y-98430000D02*
X159135475Y-99065000D01*
X159135475Y-99065000D02*
X159021175Y-99065000D01*
X159135475Y-99065000D02*
X159135475Y-99700000D01*
X161675475Y-93985000D02*
X161675475Y-99700000D01*
X161675475Y-93985000D02*
X163453475Y-93985000D01*
X161675475Y-99700000D02*
X159135475Y-99700000D01*
X163453475Y-93985000D02*
X163453475Y-99700000D01*
X163453475Y-99700000D02*
X161675475Y-99700000D01*
X159135475Y-100827000D02*
X159135475Y-101462000D01*
X159135475Y-100827000D02*
X161675475Y-100827000D01*
X159135475Y-101462000D02*
X159021175Y-101462000D01*
X159135475Y-101462000D02*
X159135475Y-102097000D01*
X159135475Y-102097000D02*
X159021175Y-102097000D01*
X159135475Y-102097000D02*
X159135475Y-102732000D01*
X159135475Y-102732000D02*
X159021175Y-102732000D01*
X159135475Y-102732000D02*
X159135475Y-103367000D01*
X159135475Y-103367000D02*
X159021175Y-103367000D01*
X159135475Y-103367000D02*
X159135475Y-104002000D01*
X159135475Y-104002000D02*
X159021175Y-104002000D01*
X159135475Y-104002000D02*
X159135475Y-104637000D01*
X159135475Y-104637000D02*
X159021175Y-104637000D01*
X159135475Y-104637000D02*
X159135475Y-105272000D01*
X159135475Y-105272000D02*
X159021175Y-105272000D01*
X159135475Y-105272000D02*
X159135475Y-105907000D01*
X159135475Y-105907000D02*
X159021175Y-105907000D01*
X159135475Y-105907000D02*
X159135475Y-106542000D01*
X161675475Y-100827000D02*
X161675475Y-106542000D01*
X161675475Y-100827000D02*
X163453475Y-100827000D01*
X161675475Y-106542000D02*
X159135475Y-106542000D01*
X163453475Y-100827000D02*
X163453475Y-106542000D01*
X163453475Y-106542000D02*
X161675475Y-106542000D01*
X159135475Y-107669000D02*
X159135475Y-108304000D01*
X159135475Y-107669000D02*
X161675475Y-107669000D01*
X159135475Y-108304000D02*
X159021175Y-108304000D01*
X159135475Y-108304000D02*
X159135475Y-108939000D01*
X159135475Y-108939000D02*
X159021175Y-108939000D01*
X159135475Y-108939000D02*
X159135475Y-109574000D01*
X159135475Y-109574000D02*
X159021175Y-109574000D01*
X159135475Y-109574000D02*
X159135475Y-110209000D01*
X159135475Y-110209000D02*
X159021175Y-110209000D01*
X159135475Y-110209000D02*
X159135475Y-110844000D01*
X159135475Y-110844000D02*
X159021175Y-110844000D01*
X159135475Y-110844000D02*
X159135475Y-111479000D01*
X159135475Y-111479000D02*
X159021175Y-111479000D01*
X159135475Y-111479000D02*
X159135475Y-112114000D01*
X159135475Y-112114000D02*
X159021175Y-112114000D01*
X159135475Y-112114000D02*
X159135475Y-112749000D01*
X159135475Y-112749000D02*
X159021175Y-112749000D01*
X159135475Y-112749000D02*
X159135475Y-113384000D01*
X161675475Y-107669000D02*
X161675475Y-113384000D01*
X161675475Y-107669000D02*
X163453475Y-107669000D01*
X161675475Y-113384000D02*
X159135475Y-113384000D01*
X163453475Y-107669000D02*
X163453475Y-113384000D01*
X163453475Y-113384000D02*
X161675475Y-113384000D01*
X159135475Y-87143000D02*
X159135475Y-87778000D01*
X159135475Y-87143000D02*
X161675475Y-87143000D01*
X159135475Y-87778000D02*
X159021175Y-87778000D01*
X159135475Y-87778000D02*
X159135475Y-88413000D01*
X159135475Y-88413000D02*
X159021175Y-88413000D01*
X159135475Y-88413000D02*
X159135475Y-89048000D01*
X159135475Y-89048000D02*
X159021175Y-89048000D01*
X159135475Y-89048000D02*
X159135475Y-89683000D01*
X159135475Y-89683000D02*
X159021175Y-89683000D01*
X159135475Y-89683000D02*
X159135475Y-90318000D01*
X159135475Y-90318000D02*
X159021175Y-90318000D01*
X159135475Y-90318000D02*
X159135475Y-90953000D01*
X159135475Y-90953000D02*
X159021175Y-90953000D01*
X159135475Y-90953000D02*
X159135475Y-91588000D01*
X159135475Y-91588000D02*
X159021175Y-91588000D01*
X159135475Y-91588000D02*
X159135475Y-92223000D01*
X159135475Y-92223000D02*
X159021175Y-92223000D01*
X159135475Y-92223000D02*
X159135475Y-92858000D01*
X161675475Y-87143000D02*
X161675475Y-92858000D01*
X161675475Y-87143000D02*
X163453475Y-87143000D01*
X161675475Y-92858000D02*
X159135475Y-92858000D01*
X163453475Y-87143000D02*
X163453475Y-92858000D01*
X163453475Y-92858000D02*
X161675475Y-92858000D01*
D13*
X121190000Y-116890000D02*
X124000000Y-116890000D01*
X121190000Y-122950000D02*
X121190000Y-116890000D01*
X121190000Y-130110000D02*
X121190000Y-127050000D01*
X125300000Y-116700000D02*
X127300000Y-116700000D01*
X128600000Y-116890000D02*
X131410000Y-116890000D01*
X131410000Y-116890000D02*
X131410000Y-122950000D01*
X131410000Y-127050000D02*
X131410000Y-130110000D01*
X131410000Y-130110000D02*
X121190000Y-130110000D01*
%LPC*%
D15*
X161100000Y-73925000D03*
D16*
X152350000Y-115600000D03*
X152990000Y-115600000D03*
D17*
X152650000Y-126950000D03*
D18*
X152650000Y-117950000D03*
D19*
X152650000Y-123950000D03*
D20*
X148150000Y-124950000D03*
X157150000Y-124950000D03*
D17*
X139400000Y-126950000D03*
D18*
X139400000Y-117950000D03*
D19*
X139400000Y-123950000D03*
D20*
X134900000Y-124950000D03*
X143900000Y-124950000D03*
D21*
X156150000Y-98465000D03*
X156150000Y-97825000D03*
X155975000Y-105295000D03*
X155975000Y-104655000D03*
D22*
X113950000Y-75605000D03*
D23*
X116490000Y-75605000D03*
X113950000Y-78145000D03*
X116490000Y-78145000D03*
X113950000Y-80685000D03*
X116490000Y-80685000D03*
X113950000Y-83225000D03*
X116490000Y-83225000D03*
X113950000Y-85765000D03*
X116490000Y-85765000D03*
X113950000Y-88305000D03*
X116490000Y-88305000D03*
X113950000Y-90845000D03*
X116490000Y-90845000D03*
X113950000Y-93385000D03*
X116490000Y-93385000D03*
X113950000Y-95925000D03*
X116490000Y-95925000D03*
X113950000Y-98465000D03*
X116490000Y-98465000D03*
X113950000Y-101005000D03*
X116490000Y-101005000D03*
X113950000Y-103545000D03*
X116490000Y-103545000D03*
X113950000Y-106085000D03*
X116490000Y-106085000D03*
X113950000Y-108625000D03*
X116490000Y-108625000D03*
X113950000Y-111165000D03*
X116490000Y-111165000D03*
X113950000Y-113705000D03*
X116490000Y-113705000D03*
X113950000Y-116245000D03*
X116490000Y-116245000D03*
X113950000Y-118785000D03*
X116490000Y-118785000D03*
X113950000Y-121325000D03*
X116490000Y-121325000D03*
X113950000Y-123865000D03*
X116490000Y-123865000D03*
D24*
X140620000Y-115800000D03*
X139980000Y-115800000D03*
D15*
X108500000Y-73925000D03*
D21*
X156050000Y-112195000D03*
X156050000Y-111555000D03*
X156050000Y-100670000D03*
X156050000Y-100030000D03*
D15*
X161100000Y-127500000D03*
D21*
X155975000Y-107470000D03*
X155975000Y-106830000D03*
D16*
X126280000Y-115800000D03*
X126920000Y-115800000D03*
D25*
X158449675Y-99065000D03*
X158449675Y-98430000D03*
X158449675Y-97795000D03*
X158449675Y-97160000D03*
X158449675Y-96525000D03*
X158449675Y-95890000D03*
X158449675Y-95255000D03*
X158449675Y-94620000D03*
D26*
X157306675Y-99065000D03*
X157306675Y-98430000D03*
X157306675Y-97795000D03*
X157306675Y-97160000D03*
X157306675Y-96525000D03*
X157306675Y-95890000D03*
X157306675Y-95255000D03*
X157306675Y-94620000D03*
D25*
X158449675Y-105907000D03*
X158449675Y-105272000D03*
X158449675Y-104637000D03*
X158449675Y-104002000D03*
X158449675Y-103367000D03*
X158449675Y-102732000D03*
X158449675Y-102097000D03*
X158449675Y-101462000D03*
D26*
X157306675Y-105907000D03*
X157306675Y-105272000D03*
X157306675Y-104637000D03*
X157306675Y-104002000D03*
X157306675Y-103367000D03*
X157306675Y-102732000D03*
X157306675Y-102097000D03*
X157306675Y-101462000D03*
D25*
X158449675Y-112749000D03*
X158449675Y-112114000D03*
X158449675Y-111479000D03*
X158449675Y-110844000D03*
X158449675Y-110209000D03*
X158449675Y-109574000D03*
X158449675Y-108939000D03*
X158449675Y-108304000D03*
D26*
X157306675Y-112749000D03*
X157306675Y-112114000D03*
X157306675Y-111479000D03*
X157306675Y-110844000D03*
X157306675Y-110209000D03*
X157306675Y-109574000D03*
X157306675Y-108939000D03*
X157306675Y-108304000D03*
D25*
X158449675Y-92223000D03*
X158449675Y-91588000D03*
X158449675Y-90953000D03*
X158449675Y-90318000D03*
X158449675Y-89683000D03*
X158449675Y-89048000D03*
X158449675Y-88413000D03*
X158449675Y-87778000D03*
D26*
X157306675Y-92223000D03*
X157306675Y-91588000D03*
X157306675Y-90953000D03*
X157306675Y-90318000D03*
X157306675Y-89683000D03*
X157306675Y-89048000D03*
X157306675Y-88413000D03*
X157306675Y-87778000D03*
D15*
X108500000Y-127500000D03*
D21*
X156075000Y-93770000D03*
X156075000Y-93130000D03*
D27*
X141550000Y-79485000D03*
X141050000Y-79485000D03*
X140550000Y-79485000D03*
X140050000Y-79485000D03*
X139550000Y-79485000D03*
X139050000Y-79485000D03*
X138550000Y-79485000D03*
X138050000Y-79485000D03*
X137550000Y-79485000D03*
X137050000Y-79485000D03*
X136550000Y-79485000D03*
X136050000Y-79485000D03*
X135550000Y-79485000D03*
X135050000Y-79485000D03*
X134550000Y-79485000D03*
X134050000Y-79485000D03*
X133550000Y-79485000D03*
X133050000Y-79485000D03*
X132550000Y-79485000D03*
X132050000Y-79485000D03*
X131550000Y-79485000D03*
X131050000Y-79485000D03*
X130550000Y-79485000D03*
X130050000Y-79485000D03*
X129550000Y-79485000D03*
X129050000Y-79485000D03*
X128550000Y-79485000D03*
X128050000Y-79485000D03*
X127550000Y-79485000D03*
X127050000Y-79485000D03*
X126550000Y-79485000D03*
X126050000Y-79485000D03*
X125550000Y-79485000D03*
X125050000Y-79485000D03*
X124550000Y-79485000D03*
X124050000Y-79485000D03*
X123550000Y-79485000D03*
X123050000Y-79485000D03*
X122550000Y-79485000D03*
X122050000Y-79485000D03*
X141050000Y-77160000D03*
X140550000Y-77160000D03*
X140050000Y-77160000D03*
X139550000Y-77160000D03*
X139050000Y-77160000D03*
X138550000Y-77160000D03*
X138050000Y-77160000D03*
X137550000Y-77160000D03*
X137050000Y-77160000D03*
X136550000Y-77160000D03*
X136050000Y-77160000D03*
X135550000Y-77160000D03*
X135050000Y-77160000D03*
X134550000Y-77160000D03*
X134050000Y-77160000D03*
X133550000Y-77160000D03*
X133050000Y-77160000D03*
X132550000Y-77160000D03*
X132050000Y-77160000D03*
X131550000Y-77160000D03*
X131050000Y-77160000D03*
X130550000Y-77160000D03*
X130050000Y-77160000D03*
X129550000Y-77160000D03*
X129050000Y-77160000D03*
X128550000Y-77160000D03*
X128050000Y-77160000D03*
X127550000Y-77160000D03*
X127050000Y-77160000D03*
X126550000Y-77160000D03*
X126050000Y-77160000D03*
X125550000Y-77160000D03*
X125050000Y-77160000D03*
X124550000Y-77160000D03*
X124050000Y-77160000D03*
X123550000Y-77160000D03*
X123050000Y-77160000D03*
X122550000Y-77160000D03*
X122050000Y-77160000D03*
X121550000Y-77145000D03*
D28*
X143220000Y-78985000D03*
D29*
X143200000Y-74335000D03*
X119930000Y-74335000D03*
D28*
X119880000Y-79005000D03*
D17*
X126300000Y-127000000D03*
D18*
X126300000Y-118000000D03*
D19*
X126300000Y-124000000D03*
D20*
X121800000Y-125000000D03*
X130800000Y-125000000D03*
%LPD*%
M02*
