M48
; DRILL file {KiCad 9.0.5} date 2025-10-28T18:45:23-0700
; FORMAT={-:-/ absolute / metric / decimal}
; #@! TF.CreationDate,2025-10-28T18:45:23-07:00
; #@! TF.GenerationSoftware,Kicad,Pcbnew,9.0.5
; #@! TF.FileFunction,Plated,1,3,Blind
FMAT,2
METRIC
; #@! TA.AperFunction,Plated,Buried,ViaDrill
T1C0.250
%
G90
G05
T1
X136.05Y-89.3
X138.5Y-76.15
X139.039Y-75.716
X139.575Y-81.0
X139.95Y-76.2
X140.55Y-76.2
X140.55Y-80.3
X141.175Y-81.0
X155.608Y-89.017
X155.708Y-90.267
X155.858Y-97.067
X155.958Y-95.843
X155.983Y-102.667
X155.983Y-103.992
X156.008Y-109.542
X156.033Y-110.843
X156.458Y-102.093
X156.458Y-103.367
X156.458Y-108.917
X156.483Y-110.192
X156.508Y-88.417
X156.508Y-95.267
X156.508Y-96.517
X156.558Y-89.683
X159.108Y-96.517
X159.108Y-97.167
X159.133Y-97.792
X159.133Y-98.417
X159.2Y-91.553
X159.2Y-90.318
X159.208Y-89.683
X159.208Y-90.953
X159.233Y-103.392
X159.233Y-110.242
X159.233Y-112.067
X159.258Y-104.642
X159.258Y-110.867
X159.258Y-111.468
X159.283Y-105.242
X159.358Y-104.017
M30
