G04 #@! TF.GenerationSoftware,KiCad,Pcbnew,9.0.5*
G04 #@! TF.CreationDate,2025-10-28T18:45:17-07:00*
G04 #@! TF.ProjectId,iris-128b-adapter,69726973-2d31-4323-9862-2d6164617074,rev?*
G04 #@! TF.SameCoordinates,Original*
G04 #@! TF.FileFunction,Copper,L1,Top*
G04 #@! TF.FilePolarity,Positive*
%FSLAX46Y46*%
G04 Gerber Fmt 4.6, Leading zero omitted, Abs format (unit mm)*
G04 Created by KiCad (PCBNEW 9.0.5) date 2025-10-28 18:45:17*
%MOMM*%
%LPD*%
G01*
G04 APERTURE LIST*
G04 Aperture macros list*
%AMRoundRect*
0 Rectangle with rounded corners*
0 $1 Rounding radius*
0 $2 $3 $4 $5 $6 $7 $8 $9 X,Y pos of 4 corners*
0 Add a 4 corners polygon primitive as box body*
4,1,4,$2,$3,$4,$5,$6,$7,$8,$9,$2,$3,0*
0 Add four circle primitives for the rounded corners*
1,1,$1+$1,$2,$3*
1,1,$1+$1,$4,$5*
1,1,$1+$1,$6,$7*
1,1,$1+$1,$8,$9*
0 Add four rect primitives between the rounded corners*
20,1,$1+$1,$2,$3,$4,$5,0*
20,1,$1+$1,$4,$5,$6,$7,0*
20,1,$1+$1,$6,$7,$8,$9,0*
20,1,$1+$1,$8,$9,$2,$3,0*%
G04 Aperture macros list end*
G04 #@! TA.AperFunction,SMDPad,CuDef*
%ADD10RoundRect,0.100000X-0.130000X-0.100000X0.130000X-0.100000X0.130000X0.100000X-0.130000X0.100000X0*%
G04 #@! TD*
G04 #@! TA.AperFunction,ComponentPad*
%ADD11R,4.000000X2.000000*%
G04 #@! TD*
G04 #@! TA.AperFunction,ComponentPad*
%ADD12O,3.300000X2.000000*%
G04 #@! TD*
G04 #@! TA.AperFunction,ComponentPad*
%ADD13O,2.000000X3.500000*%
G04 #@! TD*
G04 #@! TA.AperFunction,SMDPad,CuDef*
%ADD14RoundRect,0.100000X0.100000X-0.130000X0.100000X0.130000X-0.100000X0.130000X-0.100000X-0.130000X0*%
G04 #@! TD*
G04 #@! TA.AperFunction,ComponentPad*
%ADD15R,1.700000X1.700000*%
G04 #@! TD*
G04 #@! TA.AperFunction,ComponentPad*
%ADD16O,1.700000X1.700000*%
G04 #@! TD*
G04 #@! TA.AperFunction,SMDPad,CuDef*
%ADD17RoundRect,0.100000X0.130000X0.100000X-0.130000X0.100000X-0.130000X-0.100000X0.130000X-0.100000X0*%
G04 #@! TD*
G04 #@! TA.AperFunction,SMDPad,CuDef*
%ADD18R,0.762000X0.381000*%
G04 #@! TD*
G04 #@! TA.AperFunction,SMDPad,CuDef*
%ADD19R,1.016000X0.381000*%
G04 #@! TD*
G04 #@! TA.AperFunction,SMDPad,CuDef*
%ADD20RoundRect,0.155000X-0.000010X0.300000X-0.000010X-0.300000X0.000010X-0.300000X0.000010X0.300000X0*%
G04 #@! TD*
G04 #@! TA.AperFunction,SMDPad,CuDef*
%ADD21R,1.810000X1.380000*%
G04 #@! TD*
G04 #@! TA.AperFunction,SMDPad,CuDef*
%ADD22R,1.950000X1.800000*%
G04 #@! TD*
G04 #@! TA.AperFunction,ViaPad*
%ADD23C,0.450000*%
G04 #@! TD*
G04 #@! TA.AperFunction,ViaPad*
%ADD24C,0.500000*%
G04 #@! TD*
G04 #@! TA.AperFunction,ViaPad*
%ADD25C,0.600000*%
G04 #@! TD*
G04 #@! TA.AperFunction,Conductor*
%ADD26C,0.101600*%
G04 #@! TD*
G04 #@! TA.AperFunction,Conductor*
%ADD27C,0.200000*%
G04 #@! TD*
G04 APERTURE END LIST*
D10*
X152350000Y-115600000D03*
X152990000Y-115600000D03*
D11*
X152650000Y-117950000D03*
D12*
X152650000Y-123950000D03*
D13*
X148150000Y-124950000D03*
X157150000Y-124950000D03*
D11*
X139400000Y-117950000D03*
D12*
X139400000Y-123950000D03*
D13*
X134900000Y-124950000D03*
X143900000Y-124950000D03*
D14*
X156150000Y-98465000D03*
X156150000Y-97825000D03*
X155975000Y-105295000D03*
X155975000Y-104655000D03*
D15*
X113950000Y-75605000D03*
D16*
X116490000Y-75605000D03*
X113950000Y-78145000D03*
X116490000Y-78145000D03*
X113950000Y-80685000D03*
X116490000Y-80685000D03*
X113950000Y-83225000D03*
X116490000Y-83225000D03*
X113950000Y-85765000D03*
X116490000Y-85765000D03*
X113950000Y-88305000D03*
X116490000Y-88305000D03*
X113950000Y-90845000D03*
X116490000Y-90845000D03*
X113950000Y-93385000D03*
X116490000Y-93385000D03*
X113950000Y-95925000D03*
X116490000Y-95925000D03*
X113950000Y-98465000D03*
X116490000Y-98465000D03*
X113950000Y-101005000D03*
X116490000Y-101005000D03*
X113950000Y-103545000D03*
X116490000Y-103545000D03*
X113950000Y-106085000D03*
X116490000Y-106085000D03*
X113950000Y-108625000D03*
X116490000Y-108625000D03*
X113950000Y-111165000D03*
X116490000Y-111165000D03*
X113950000Y-113705000D03*
X116490000Y-113705000D03*
X113950000Y-116245000D03*
X116490000Y-116245000D03*
X113950000Y-118785000D03*
X116490000Y-118785000D03*
X113950000Y-121325000D03*
X116490000Y-121325000D03*
X113950000Y-123865000D03*
X116490000Y-123865000D03*
D17*
X140620000Y-115800000D03*
X139980000Y-115800000D03*
D14*
X156050000Y-112195000D03*
X156050000Y-111555000D03*
X156050000Y-100670000D03*
X156050000Y-100030000D03*
X155975000Y-107470000D03*
X155975000Y-106830000D03*
D10*
X126280000Y-115800000D03*
X126920000Y-115800000D03*
D18*
X158449675Y-99065000D03*
X158449675Y-98430000D03*
X158449675Y-97795000D03*
X158449675Y-97160000D03*
X158449675Y-96525000D03*
X158449675Y-95890000D03*
X158449675Y-95255000D03*
X158449675Y-94620000D03*
D19*
X157306675Y-99065000D03*
X157306675Y-98430000D03*
X157306675Y-97795000D03*
X157306675Y-97160000D03*
X157306675Y-96525000D03*
X157306675Y-95890000D03*
X157306675Y-95255000D03*
X157306675Y-94620000D03*
D18*
X158449675Y-105907000D03*
X158449675Y-105272000D03*
X158449675Y-104637000D03*
X158449675Y-104002000D03*
X158449675Y-103367000D03*
X158449675Y-102732000D03*
X158449675Y-102097000D03*
X158449675Y-101462000D03*
D19*
X157306675Y-105907000D03*
X157306675Y-105272000D03*
X157306675Y-104637000D03*
X157306675Y-104002000D03*
X157306675Y-103367000D03*
X157306675Y-102732000D03*
X157306675Y-102097000D03*
X157306675Y-101462000D03*
D18*
X158449675Y-112749000D03*
X158449675Y-112114000D03*
X158449675Y-111479000D03*
X158449675Y-110844000D03*
X158449675Y-110209000D03*
X158449675Y-109574000D03*
X158449675Y-108939000D03*
X158449675Y-108304000D03*
D19*
X157306675Y-112749000D03*
X157306675Y-112114000D03*
X157306675Y-111479000D03*
X157306675Y-110844000D03*
X157306675Y-110209000D03*
X157306675Y-109574000D03*
X157306675Y-108939000D03*
X157306675Y-108304000D03*
D18*
X158449675Y-92223000D03*
X158449675Y-91588000D03*
X158449675Y-90953000D03*
X158449675Y-90318000D03*
X158449675Y-89683000D03*
X158449675Y-89048000D03*
X158449675Y-88413000D03*
X158449675Y-87778000D03*
D19*
X157306675Y-92223000D03*
X157306675Y-91588000D03*
X157306675Y-90953000D03*
X157306675Y-90318000D03*
X157306675Y-89683000D03*
X157306675Y-89048000D03*
X157306675Y-88413000D03*
X157306675Y-87778000D03*
D14*
X156075000Y-93770000D03*
X156075000Y-93130000D03*
D20*
X141550000Y-79485000D03*
X141050000Y-79485000D03*
X140550000Y-79485000D03*
X140050000Y-79485000D03*
X139550000Y-79485000D03*
X139050000Y-79485000D03*
X138550000Y-79485000D03*
X138050000Y-79485000D03*
X137550000Y-79485000D03*
X137050000Y-79485000D03*
X136550000Y-79485000D03*
X136050000Y-79485000D03*
X135550000Y-79485000D03*
X135050000Y-79485000D03*
X134550000Y-79485000D03*
X134050000Y-79485000D03*
X133550000Y-79485000D03*
X133050000Y-79485000D03*
X132550000Y-79485000D03*
X132050000Y-79485000D03*
X131550000Y-79485000D03*
X131050000Y-79485000D03*
X130550000Y-79485000D03*
X130050000Y-79485000D03*
X129550000Y-79485000D03*
X129050000Y-79485000D03*
X128550000Y-79485000D03*
X128050000Y-79485000D03*
X127550000Y-79485000D03*
X127050000Y-79485000D03*
X126550000Y-79485000D03*
X126050000Y-79485000D03*
X125550000Y-79485000D03*
X125050000Y-79485000D03*
X124550000Y-79485000D03*
X124050000Y-79485000D03*
X123550000Y-79485000D03*
X123050000Y-79485000D03*
X122550000Y-79485000D03*
X122050000Y-79485000D03*
X141050000Y-77160000D03*
X140550000Y-77160000D03*
X140050000Y-77160000D03*
X139550000Y-77160000D03*
X139050000Y-77160000D03*
X138550000Y-77160000D03*
X138050000Y-77160000D03*
X137550000Y-77160000D03*
X137050000Y-77160000D03*
X136550000Y-77160000D03*
X136050000Y-77160000D03*
X135550000Y-77160000D03*
X135050000Y-77160000D03*
X134550000Y-77160000D03*
X134050000Y-77160000D03*
X133550000Y-77160000D03*
X133050000Y-77160000D03*
X132550000Y-77160000D03*
X132050000Y-77160000D03*
X131550000Y-77160000D03*
X131050000Y-77160000D03*
X130550000Y-77160000D03*
X130050000Y-77160000D03*
X129550000Y-77160000D03*
X129050000Y-77160000D03*
X128550000Y-77160000D03*
X128050000Y-77160000D03*
X127550000Y-77160000D03*
X127050000Y-77160000D03*
X126550000Y-77160000D03*
X126050000Y-77160000D03*
X125550000Y-77160000D03*
X125050000Y-77160000D03*
X124550000Y-77160000D03*
X124050000Y-77160000D03*
X123550000Y-77160000D03*
X123050000Y-77160000D03*
X122550000Y-77160000D03*
X122050000Y-77160000D03*
X121550000Y-77145000D03*
D21*
X143220000Y-78985000D03*
D22*
X143200000Y-74335000D03*
X119930000Y-74335000D03*
D21*
X119880000Y-79005000D03*
D11*
X126300000Y-118000000D03*
D12*
X126300000Y-124000000D03*
D13*
X121800000Y-125000000D03*
X130800000Y-125000000D03*
D23*
X159107825Y-96517500D03*
X133950000Y-83600000D03*
X135050000Y-81100000D03*
X155857825Y-97067500D03*
X133650000Y-80350000D03*
X135050000Y-83550000D03*
X155982825Y-102667500D03*
X136850000Y-76250000D03*
D24*
X121000000Y-113375000D03*
X128700000Y-92300000D03*
X120850000Y-104000000D03*
D23*
X158457825Y-87217500D03*
D25*
X134575000Y-113525000D03*
D23*
X158450000Y-94000000D03*
D25*
X146750000Y-74600000D03*
D23*
X158475000Y-100875000D03*
D24*
X134750000Y-92300000D03*
X140350000Y-81850000D03*
X120125000Y-80925000D03*
X128225000Y-103975000D03*
D23*
X158427294Y-107640917D03*
D25*
X128325000Y-113450000D03*
X130500000Y-74550000D03*
D24*
X120825000Y-92225000D03*
D25*
X142425000Y-113350000D03*
D24*
X134125000Y-103875000D03*
D25*
X155975000Y-74625000D03*
D23*
X130400000Y-76300000D03*
X159257825Y-104642500D03*
X159132825Y-98417500D03*
X132500000Y-76250000D03*
X159199961Y-91552951D03*
X138500000Y-76150000D03*
X156507825Y-95267500D03*
X134100477Y-76226017D03*
X159207825Y-89683000D03*
X139575000Y-81000000D03*
X159207825Y-90953000D03*
X139039430Y-75715817D03*
X139949997Y-76200000D03*
X156507825Y-88417500D03*
X139050000Y-80350000D03*
X159200000Y-90318000D03*
X159257825Y-88417500D03*
X159357825Y-104017500D03*
X130025000Y-80325000D03*
X122050000Y-75675000D03*
X156507825Y-90967500D03*
X156557825Y-89683000D03*
X140550000Y-80300000D03*
X128700000Y-76300000D03*
X156007825Y-109542500D03*
X128000000Y-76300000D03*
X156457825Y-108917500D03*
X132050000Y-80250000D03*
X155982825Y-103992500D03*
X156032825Y-110842500D03*
X129050000Y-81025000D03*
X128950000Y-83500000D03*
X155957825Y-95842500D03*
X134700000Y-76250000D03*
X131600000Y-78750000D03*
X156457825Y-103367500D03*
X129600000Y-83500000D03*
X159232825Y-110242500D03*
X124550000Y-80400000D03*
X159232825Y-112067500D03*
X123550000Y-76250000D03*
X136050000Y-76250000D03*
X156457825Y-102092500D03*
X156507825Y-96517500D03*
X159107825Y-97167500D03*
X132953668Y-81016259D03*
X129800000Y-76250000D03*
X159282825Y-105242500D03*
X128550000Y-80250000D03*
X156482825Y-110192500D03*
X128300000Y-90400000D03*
X128300000Y-83500000D03*
X155607825Y-89017500D03*
X140550000Y-76200000D03*
X159182825Y-89048000D03*
X136050000Y-89300000D03*
X124150003Y-76250000D03*
X159257825Y-111467500D03*
X159132825Y-97792500D03*
X133175000Y-76250000D03*
X159232825Y-103392500D03*
X130875000Y-80900000D03*
X141175000Y-81000000D03*
X155707825Y-90267500D03*
X123900000Y-80400000D03*
X159257825Y-110867500D03*
X127050000Y-83500000D03*
X138025000Y-80375000D03*
X126375000Y-76350000D03*
X137050000Y-77750000D03*
X127050000Y-76327289D03*
X137550000Y-76250000D03*
D26*
X133550000Y-80250000D02*
X133650000Y-80350000D01*
X114952400Y-94387400D02*
X113950000Y-93385000D01*
X125996800Y-85008440D02*
X118751440Y-92253800D01*
X158449675Y-96525000D02*
X159100325Y-96525000D01*
X134550000Y-82603200D02*
X126359432Y-82603200D01*
X135050000Y-83550000D02*
X135050000Y-83103200D01*
X126359432Y-82603200D02*
X125996800Y-82965832D01*
X133356400Y-82806400D02*
X126443600Y-82806400D01*
X125996800Y-82965832D02*
X125996800Y-85008440D01*
X133950000Y-83400000D02*
X133356400Y-82806400D01*
X135050000Y-83103200D02*
X134550000Y-82603200D01*
X126443600Y-82806400D02*
X126200000Y-83050000D01*
X135050000Y-79485000D02*
X135050000Y-81100000D01*
X157306675Y-97160000D02*
X155950325Y-97160000D01*
X126200000Y-85092608D02*
X116905208Y-94387400D01*
X159100325Y-96525000D02*
X159107825Y-96517500D01*
X118751440Y-92253800D02*
X115358800Y-92253800D01*
X126200000Y-83050000D02*
X126200000Y-85092608D01*
X155950325Y-97160000D02*
X155857825Y-97067500D01*
X115358800Y-92253800D02*
X113950000Y-90845000D01*
X133550000Y-79485000D02*
X133550000Y-80250000D01*
X133950000Y-83600000D02*
X133950000Y-83400000D01*
X116905208Y-94387400D02*
X114952400Y-94387400D01*
X136050000Y-76852173D02*
X136050000Y-77160000D01*
X155982825Y-102667500D02*
X156047325Y-102732000D01*
X136652173Y-76250000D02*
X136050000Y-76852173D01*
X156047325Y-102732000D02*
X157306675Y-102732000D01*
X136850000Y-76250000D02*
X136652173Y-76250000D01*
X140100000Y-78606400D02*
X141406400Y-78606400D01*
X127520000Y-114255000D02*
X127520000Y-115200000D01*
X137950000Y-75800000D02*
X138050000Y-75900000D01*
X146900000Y-74600000D02*
X145114800Y-74600000D01*
X133600217Y-75800217D02*
X135149783Y-75800217D01*
X128050000Y-78600000D02*
X128050000Y-79485000D01*
X135550000Y-78606400D02*
X138550000Y-78606400D01*
X134050000Y-78606400D02*
X135550000Y-78606400D01*
X138550000Y-79485000D02*
X138550000Y-78606400D01*
X132550000Y-78606400D02*
X134050000Y-78606400D01*
X151747600Y-123047600D02*
X152650000Y-123950000D01*
X124550000Y-76450000D02*
X124900000Y-76100000D01*
X131000000Y-78606400D02*
X131350000Y-78256400D01*
X135150000Y-76500000D02*
X135150000Y-75800000D01*
X123050000Y-78425000D02*
X123225000Y-78600000D01*
X131050000Y-78656400D02*
X131000000Y-78606400D01*
X127550000Y-75824200D02*
X129150000Y-75824200D01*
X129050000Y-77160000D02*
X129050000Y-76552173D01*
X141550000Y-78750000D02*
X141550000Y-79485000D01*
X132050000Y-75824200D02*
X133575800Y-75824200D01*
X122050000Y-79940000D02*
X122202400Y-80092400D01*
X132050000Y-77160000D02*
X132050000Y-75824200D01*
X129150000Y-75824200D02*
X131000000Y-75824200D01*
X152990000Y-115490000D02*
X152990000Y-115600000D01*
X145114800Y-74600000D02*
X142554800Y-77160000D01*
X139550000Y-77996800D02*
X139550000Y-77160000D01*
X138050000Y-75900000D02*
X138050000Y-77160000D01*
X113950000Y-121325000D02*
X114952400Y-122327400D01*
X123550000Y-79940000D02*
X123550000Y-79485000D01*
X139650000Y-77996800D02*
X141050000Y-77996800D01*
X125050000Y-78600000D02*
X128050000Y-78600000D01*
X140302400Y-123047600D02*
X151747600Y-123047600D01*
X129150000Y-76452173D02*
X129150000Y-75824200D01*
X158449675Y-87778000D02*
X158449675Y-87225650D01*
X132550000Y-79485000D02*
X132550000Y-78606400D01*
X132200000Y-78256400D02*
X132550000Y-78606400D01*
X123050000Y-77160000D02*
X123050000Y-76147827D01*
X141705000Y-114070000D02*
X141705000Y-114075000D01*
X127550000Y-77160000D02*
X127550000Y-75824200D01*
X158449675Y-94000325D02*
X158450000Y-94000000D01*
X141705000Y-114075000D02*
X139980000Y-115800000D01*
X121550000Y-77145000D02*
X121550000Y-77600000D01*
X123050000Y-78000000D02*
X123050000Y-78425000D01*
X140050000Y-78656400D02*
X140100000Y-78606400D01*
X129550000Y-78700000D02*
X129550000Y-79485000D01*
X140050000Y-79485000D02*
X140050000Y-78656400D01*
X138050000Y-77160000D02*
X138050000Y-77996800D01*
X150950000Y-113450000D02*
X152990000Y-115490000D01*
X130550000Y-76752173D02*
X131000000Y-76302173D01*
X123575000Y-78600000D02*
X123550000Y-78625000D01*
X142425000Y-113350000D02*
X141705000Y-114070000D01*
X139650000Y-77996800D02*
X139550000Y-77996800D01*
X133600800Y-77109200D02*
X133600800Y-75800800D01*
X124627400Y-122327400D02*
X126300000Y-124000000D01*
X129500000Y-78600000D02*
X129506400Y-78606400D01*
X123050000Y-77160000D02*
X123050000Y-78000000D01*
X131350000Y-78256400D02*
X132200000Y-78256400D01*
X121550000Y-77600000D02*
X121950000Y-78000000D01*
X158449675Y-107663298D02*
X158427294Y-107640917D01*
X139400000Y-123950000D02*
X140302400Y-123047600D01*
X141050000Y-77996800D02*
X141050000Y-77160000D01*
X122050000Y-79485000D02*
X122050000Y-79940000D01*
X123225000Y-78600000D02*
X123575000Y-78600000D01*
X131050000Y-79485000D02*
X131050000Y-78656400D01*
X133575800Y-75824200D02*
X133600000Y-75800000D01*
X131000000Y-75824200D02*
X132050000Y-75824200D01*
X142554800Y-77160000D02*
X141050000Y-77160000D01*
X128050000Y-78600000D02*
X129450000Y-78600000D01*
X123397600Y-80092400D02*
X123550000Y-79940000D01*
X125050000Y-78600000D02*
X123575000Y-78600000D01*
X134050000Y-79485000D02*
X134050000Y-78606400D01*
X124900000Y-76100000D02*
X124900000Y-75824200D01*
X125050000Y-78600000D02*
X125050000Y-79485000D01*
X135550000Y-79485000D02*
X135550000Y-78606400D01*
X122202400Y-80092400D02*
X123397600Y-80092400D01*
X123050000Y-76147827D02*
X123373627Y-75824200D01*
X158449675Y-94620000D02*
X158449675Y-94000325D01*
X142425000Y-113350000D02*
X142525000Y-113450000D01*
X127520000Y-115200000D02*
X126920000Y-115800000D01*
X158449675Y-101462000D02*
X158449675Y-100900325D01*
X133600800Y-75800800D02*
X133600000Y-75800000D01*
X121950000Y-78000000D02*
X123050000Y-78000000D01*
X129050000Y-76552173D02*
X129150000Y-76452173D01*
X138550000Y-78606400D02*
X140100000Y-78606400D01*
X158449675Y-87225650D02*
X158457825Y-87217500D01*
X141406400Y-78606400D02*
X141550000Y-78750000D01*
X133550000Y-77160000D02*
X133600800Y-77109200D01*
X142525000Y-113450000D02*
X150950000Y-113450000D01*
X135150000Y-75800000D02*
X137950000Y-75800000D01*
X135050000Y-76600000D02*
X135150000Y-76500000D01*
X130550000Y-77160000D02*
X130550000Y-76752173D01*
X129450000Y-78600000D02*
X129500000Y-78600000D01*
X123550000Y-78625000D02*
X123550000Y-79485000D01*
X123373627Y-75824200D02*
X124900000Y-75824200D01*
X114952400Y-122327400D02*
X124627400Y-122327400D01*
X158449675Y-108304000D02*
X158449675Y-107663298D01*
X128325000Y-113450000D02*
X127520000Y-114255000D01*
X129450000Y-78600000D02*
X129550000Y-78700000D01*
X124900000Y-75824200D02*
X127550000Y-75824200D01*
X158449675Y-100900325D02*
X158475000Y-100875000D01*
X135149783Y-75800217D02*
X135150000Y-75800000D01*
X129506400Y-78606400D02*
X131000000Y-78606400D01*
X131000000Y-76302173D02*
X131000000Y-75824200D01*
X133600000Y-75800000D02*
X133600217Y-75800217D01*
X138050000Y-77996800D02*
X139650000Y-77996800D01*
X124550000Y-76450000D02*
X124550000Y-77160000D01*
X135050000Y-77160000D02*
X135050000Y-76600000D01*
X158449675Y-104637000D02*
X159252325Y-104637000D01*
X130400000Y-76300000D02*
X130050000Y-76650000D01*
X130050000Y-76650000D02*
X130050000Y-77160000D01*
X159252325Y-104637000D02*
X159257825Y-104642500D01*
X132500000Y-76250000D02*
X132500000Y-77110000D01*
X132500000Y-77110000D02*
X132550000Y-77160000D01*
X158449675Y-98430000D02*
X159120325Y-98430000D01*
X159120325Y-98430000D02*
X159132825Y-98417500D01*
X114133232Y-73079400D02*
X112293600Y-74919032D01*
X138500000Y-76150000D02*
X138500000Y-75637368D01*
X138550000Y-76200000D02*
X138500000Y-76150000D01*
X112293600Y-85813576D02*
X113450624Y-86970600D01*
X138500000Y-75637368D02*
X135942032Y-73079400D01*
X113450624Y-86970600D02*
X115155600Y-86970600D01*
X135942032Y-73079400D02*
X114133232Y-73079400D01*
X115155600Y-86970600D02*
X116490000Y-88305000D01*
X112293600Y-74919032D02*
X112293600Y-85813576D01*
X138550000Y-77160000D02*
X138550000Y-76200000D01*
X159164912Y-91588000D02*
X158449675Y-91588000D01*
X159199961Y-91552951D02*
X159164912Y-91588000D01*
X134100477Y-76226017D02*
X134100000Y-76226494D01*
X156520325Y-95255000D02*
X156507825Y-95267500D01*
X157306675Y-95255000D02*
X156520325Y-95255000D01*
X134100000Y-76600000D02*
X134050000Y-76650000D01*
X134050000Y-76650000D02*
X134050000Y-77160000D01*
X134100000Y-76226494D02*
X134100000Y-76600000D01*
X113534792Y-79682600D02*
X117032600Y-79682600D01*
X113950000Y-83225000D02*
X112947600Y-82222600D01*
X139550000Y-79485000D02*
X139550000Y-80975000D01*
X119343600Y-81993600D02*
X138581400Y-81993600D01*
X112947600Y-80269792D02*
X113534792Y-79682600D01*
X117032600Y-79682600D02*
X119343600Y-81993600D01*
X138581400Y-81993600D02*
X139575000Y-81000000D01*
X159207825Y-89683000D02*
X158449675Y-89683000D01*
X139550000Y-80975000D02*
X139575000Y-81000000D01*
X112947600Y-82222600D02*
X112947600Y-80269792D01*
X139050000Y-75726387D02*
X139050000Y-77160000D01*
X112090400Y-86445400D02*
X113950000Y-88305000D01*
X114049064Y-72876200D02*
X112090400Y-74834864D01*
X139039430Y-75715817D02*
X139050000Y-75726387D01*
X136026200Y-72876200D02*
X114049064Y-72876200D01*
X112090400Y-74834864D02*
X112090400Y-86445400D01*
X159207825Y-90953000D02*
X158449675Y-90953000D01*
X138865817Y-75715817D02*
X136026200Y-72876200D01*
X139039430Y-75715817D02*
X138865817Y-75715817D01*
X117695600Y-86970600D02*
X116490000Y-85765000D01*
X140050000Y-77160000D02*
X140050000Y-76300003D01*
X140050000Y-76124214D02*
X139215803Y-75290017D01*
X136110368Y-72673000D02*
X113964896Y-72673000D01*
X139215803Y-75290017D02*
X138727385Y-75290017D01*
X115903200Y-91847400D02*
X116952600Y-91847400D01*
X113577392Y-89350000D02*
X114600000Y-89350000D01*
X157306675Y-88413000D02*
X156512325Y-88413000D01*
X140050000Y-77160000D02*
X140050000Y-76124214D01*
X116952600Y-91847400D02*
X117695600Y-91104400D01*
X156512325Y-88413000D02*
X156507825Y-88417500D01*
X140050000Y-76300003D02*
X139949997Y-76200000D01*
X115450000Y-91394200D02*
X115903200Y-91847400D01*
X111887200Y-74750696D02*
X111887200Y-87659808D01*
X114600000Y-89350000D02*
X115450000Y-90200000D01*
X113964896Y-72673000D02*
X111887200Y-74750696D01*
X115450000Y-90200000D02*
X115450000Y-91394200D01*
X111887200Y-87659808D02*
X113577392Y-89350000D01*
X117695600Y-91104400D02*
X117695600Y-86970600D01*
X138727385Y-75290017D02*
X136110368Y-72673000D01*
X139050000Y-79485000D02*
X139050000Y-80350000D01*
X119450000Y-81790400D02*
X138497232Y-81790400D01*
X113480024Y-79450000D02*
X117109600Y-79450000D01*
X115487600Y-84227400D02*
X113527400Y-84227400D01*
X116490000Y-83225000D02*
X115487600Y-84227400D01*
X113527400Y-84227400D02*
X112700000Y-83400000D01*
X138497232Y-81790400D02*
X139050000Y-81237632D01*
X139050000Y-81237632D02*
X139050000Y-80350000D01*
X159200000Y-90318000D02*
X158449675Y-90318000D01*
X112700000Y-80230024D02*
X113480024Y-79450000D01*
X117109600Y-79450000D02*
X119450000Y-81790400D01*
X112700000Y-83400000D02*
X112700000Y-80230024D01*
X121850000Y-78500000D02*
X122520000Y-78500000D01*
X158640175Y-88413000D02*
X158449675Y-88413000D01*
X113950000Y-75605000D02*
X114952400Y-74602600D01*
X114952400Y-74602600D02*
X117952600Y-74602600D01*
X159257825Y-88417500D02*
X158644675Y-88417500D01*
X158644675Y-88417500D02*
X158640175Y-88413000D01*
X123050000Y-79030000D02*
X123050000Y-79485000D01*
X122520000Y-78500000D02*
X123050000Y-79030000D01*
X117952600Y-74602600D02*
X121850000Y-78500000D01*
X158449675Y-104002000D02*
X159342325Y-104002000D01*
X130050000Y-80300000D02*
X130050000Y-79485000D01*
X130025000Y-80325000D02*
X130050000Y-80300000D01*
X159342325Y-104002000D02*
X159357825Y-104017500D01*
X156522325Y-90953000D02*
X156507825Y-90967500D01*
X122050000Y-77160000D02*
X122050000Y-75675000D01*
X157306675Y-90953000D02*
X156522325Y-90953000D01*
X139003200Y-82196800D02*
X140550000Y-80650000D01*
X118001800Y-82196800D02*
X139003200Y-82196800D01*
X140550000Y-79485000D02*
X140550000Y-80300000D01*
X116490000Y-80685000D02*
X118001800Y-82196800D01*
X140550000Y-80650000D02*
X140550000Y-80300000D01*
X157306675Y-89683000D02*
X156557825Y-89683000D01*
X128700000Y-76300000D02*
X128550000Y-76450000D01*
X128550000Y-76450000D02*
X128550000Y-77160000D01*
X156039325Y-109574000D02*
X156007825Y-109542500D01*
X157306675Y-109574000D02*
X156039325Y-109574000D01*
X128000000Y-76300000D02*
X128000000Y-77110000D01*
X128000000Y-77110000D02*
X128050000Y-77160000D01*
X156479325Y-108939000D02*
X156457825Y-108917500D01*
X157306675Y-108939000D02*
X156479325Y-108939000D01*
X157306675Y-104002000D02*
X155992325Y-104002000D01*
X132050000Y-79485000D02*
X132050000Y-80250000D01*
X155992325Y-104002000D02*
X155982825Y-103992500D01*
X129050000Y-79485000D02*
X129050000Y-81025000D01*
X128003200Y-91298973D02*
X128003200Y-100859432D01*
X156034325Y-110844000D02*
X156032825Y-110842500D01*
X128503200Y-90001027D02*
X128725800Y-90223627D01*
X118700032Y-110162600D02*
X114952400Y-110162600D01*
X128950000Y-83500000D02*
X128503200Y-83946800D01*
X128003200Y-100859432D02*
X118700032Y-110162600D01*
X128725800Y-90576373D02*
X128003200Y-91298973D01*
X157306675Y-110844000D02*
X156034325Y-110844000D01*
X114952400Y-110162600D02*
X113950000Y-111165000D01*
X128725800Y-90223627D02*
X128725800Y-90576373D01*
X128503200Y-83946800D02*
X128503200Y-90001027D01*
X156005325Y-95890000D02*
X155957825Y-95842500D01*
X134700000Y-76250000D02*
X134550000Y-76400000D01*
X157306675Y-95890000D02*
X156005325Y-95890000D01*
X134550000Y-76400000D02*
X134550000Y-77160000D01*
X157306675Y-103367000D02*
X156458325Y-103367000D01*
X131550000Y-78800000D02*
X131550000Y-79485000D01*
X131600000Y-78750000D02*
X131550000Y-78800000D01*
X156458325Y-103367000D02*
X156457825Y-103367500D01*
X159199325Y-110209000D02*
X159232825Y-110242500D01*
X128206400Y-91383141D02*
X128206400Y-100943600D01*
X129600000Y-83500000D02*
X128706400Y-84393600D01*
X128929000Y-90660541D02*
X128206400Y-91383141D01*
X128206400Y-100943600D02*
X116447400Y-112702600D01*
X124550000Y-79485000D02*
X124550000Y-80400000D01*
X128929000Y-90139459D02*
X128929000Y-90660541D01*
X128706400Y-84393600D02*
X128706400Y-89916859D01*
X128706400Y-89916859D02*
X128929000Y-90139459D01*
X158449675Y-110209000D02*
X159199325Y-110209000D01*
X116447400Y-112702600D02*
X114952400Y-112702600D01*
X114952400Y-112702600D02*
X113950000Y-113705000D01*
X135253200Y-100321624D02*
X117289200Y-118285624D01*
X116865000Y-118785000D02*
X116490000Y-118785000D01*
X123550000Y-76250000D02*
X123550000Y-77650000D01*
X117289200Y-118285624D02*
X117289200Y-118360800D01*
X141703200Y-78403200D02*
X141857400Y-78557400D01*
X141857400Y-78557400D02*
X141857400Y-81405232D01*
X159186325Y-112114000D02*
X159232825Y-112067500D01*
X135253200Y-88009432D02*
X135253200Y-100321624D01*
X132284168Y-78053200D02*
X132634168Y-78403200D01*
X123953200Y-78053200D02*
X132284168Y-78053200D01*
X117289200Y-118360800D02*
X116865000Y-118785000D01*
X132634168Y-78403200D02*
X141703200Y-78403200D01*
X141857400Y-81405232D02*
X135253200Y-88009432D01*
X123550000Y-77650000D02*
X123953200Y-78053200D01*
X158449675Y-112114000D02*
X159186325Y-112114000D01*
X156462325Y-102097000D02*
X156457825Y-102092500D01*
X135900000Y-76250000D02*
X135550000Y-76600000D01*
X136050000Y-76250000D02*
X135900000Y-76250000D01*
X157306675Y-102097000D02*
X156462325Y-102097000D01*
X135550000Y-76600000D02*
X135550000Y-77160000D01*
X134550000Y-80600000D02*
X133699200Y-81450800D01*
X112496800Y-85729408D02*
X113534792Y-86767400D01*
X113395856Y-79246800D02*
X112496800Y-80145856D01*
X134550000Y-79485000D02*
X134550000Y-80600000D01*
X117193768Y-79246800D02*
X113395856Y-79246800D01*
X133699200Y-81450800D02*
X119397768Y-81450800D01*
X133050000Y-80919927D02*
X133050000Y-79485000D01*
X132953668Y-81016259D02*
X133050000Y-80919927D01*
X112496800Y-80145856D02*
X112496800Y-85729408D01*
X158449675Y-97160000D02*
X159100325Y-97160000D01*
X119397768Y-81450800D02*
X117193768Y-79246800D01*
X159100325Y-97160000D02*
X159107825Y-97167500D01*
X156515325Y-96525000D02*
X156507825Y-96517500D01*
X157306675Y-96525000D02*
X156515325Y-96525000D01*
X117492400Y-89842600D02*
X116490000Y-90845000D01*
X116450000Y-86767400D02*
X117492400Y-87809800D01*
X117492400Y-87809800D02*
X117492400Y-89842600D01*
X113534792Y-86767400D02*
X116450000Y-86767400D01*
X159253325Y-105272000D02*
X159282825Y-105242500D01*
X129800000Y-76250000D02*
X129550000Y-76500000D01*
X158449675Y-105272000D02*
X159253325Y-105272000D01*
X129550000Y-76500000D02*
X129550000Y-77160000D01*
X157306675Y-110209000D02*
X156499325Y-110209000D01*
X156499325Y-110209000D02*
X156482825Y-110192500D01*
X128550000Y-80250000D02*
X128550000Y-79485000D01*
X128300000Y-90400000D02*
X128300000Y-83500000D01*
X115819032Y-92050600D02*
X115246800Y-91478368D01*
X114952400Y-84762600D02*
X116905208Y-84762600D01*
X117900000Y-85757392D02*
X117900000Y-91200000D01*
X140550000Y-77160000D02*
X140550000Y-76200000D01*
X157306675Y-89048000D02*
X155638325Y-89048000D01*
X138811553Y-75086817D02*
X139438987Y-75086817D01*
X113493224Y-89553200D02*
X111684000Y-87743976D01*
X139438987Y-75086817D02*
X140550000Y-76197830D01*
X136194536Y-72469800D02*
X138811553Y-75086817D01*
X115246800Y-91478368D02*
X115246800Y-90346800D01*
X111684000Y-87743976D02*
X111684000Y-74666528D01*
X113880728Y-72469800D02*
X136194536Y-72469800D01*
X116905208Y-84762600D02*
X117900000Y-85757392D01*
X111684000Y-74666528D02*
X113880728Y-72469800D01*
X114453200Y-89553200D02*
X113493224Y-89553200D01*
X115246800Y-90346800D02*
X114453200Y-89553200D01*
X117900000Y-91200000D02*
X117049400Y-92050600D01*
X155638325Y-89048000D02*
X155607825Y-89017500D01*
X140550000Y-76197830D02*
X140550000Y-76200000D01*
X113950000Y-85765000D02*
X114952400Y-84762600D01*
X117049400Y-92050600D02*
X115819032Y-92050600D01*
X118667632Y-75605000D02*
X121765832Y-78703200D01*
X122550000Y-78950000D02*
X122550000Y-79485000D01*
X159182825Y-89048000D02*
X158449675Y-89048000D01*
X116490000Y-75605000D02*
X118667632Y-75605000D01*
X122303200Y-78703200D02*
X122550000Y-78950000D01*
X121765832Y-78703200D02*
X122303200Y-78703200D01*
X113950000Y-78145000D02*
X112947600Y-77142600D01*
X112947600Y-74552400D02*
X114217400Y-73282600D01*
X138338000Y-91588000D02*
X136050000Y-89300000D01*
X114217400Y-73282600D02*
X120982600Y-73282600D01*
X122350000Y-76720976D02*
X122550000Y-76920976D01*
X157306675Y-91588000D02*
X138338000Y-91588000D01*
X122350000Y-75977173D02*
X122350000Y-76720976D01*
X122475800Y-74775800D02*
X122475800Y-75851373D01*
X122550000Y-76920976D02*
X122550000Y-77160000D01*
X120982600Y-73282600D02*
X122475800Y-74775800D01*
X112947600Y-77142600D02*
X112947600Y-74552400D01*
X122475800Y-75851373D02*
X122350000Y-75977173D01*
X124200000Y-77850000D02*
X132368336Y-77850000D01*
X142060600Y-81489400D02*
X135456400Y-88093600D01*
X142060600Y-78460600D02*
X142060600Y-81489400D01*
X158449675Y-111479000D02*
X159246325Y-111479000D01*
X159246325Y-111479000D02*
X159257825Y-111467500D01*
X124150003Y-76250000D02*
X124050000Y-76350003D01*
X114952400Y-119787400D02*
X113950000Y-118785000D01*
X124050000Y-77700000D02*
X124200000Y-77850000D01*
X117492400Y-118369792D02*
X117492400Y-119200208D01*
X124050000Y-76350003D02*
X124050000Y-77700000D01*
X141800000Y-78200000D02*
X142060600Y-78460600D01*
X117492400Y-119200208D02*
X116905208Y-119787400D01*
X132368336Y-77850000D02*
X132718336Y-78200000D01*
X135456400Y-88093600D02*
X135456400Y-100405792D01*
X116905208Y-119787400D02*
X114952400Y-119787400D01*
X132718336Y-78200000D02*
X141800000Y-78200000D01*
X135456400Y-100405792D02*
X117492400Y-118369792D01*
X158449675Y-97795000D02*
X159130325Y-97795000D01*
X159130325Y-97795000D02*
X159132825Y-97792500D01*
X133175000Y-76475000D02*
X133050000Y-76600000D01*
X133050000Y-76600000D02*
X133050000Y-77160000D01*
X133175000Y-76250000D02*
X133175000Y-76475000D01*
X130550000Y-80575000D02*
X130550000Y-79485000D01*
X130875000Y-80900000D02*
X130550000Y-80575000D01*
X159207325Y-103367000D02*
X159232825Y-103392500D01*
X158449675Y-103367000D02*
X159207325Y-103367000D01*
X141175000Y-81000000D02*
X141050000Y-80875000D01*
X115487600Y-82222600D02*
X116905208Y-82222600D01*
X140437472Y-81125000D02*
X141050000Y-81125000D01*
X141050000Y-81125000D02*
X141050000Y-79485000D01*
X157306675Y-90318000D02*
X155758325Y-90318000D01*
X139262472Y-82300000D02*
X140437472Y-81125000D01*
X117082608Y-82400000D02*
X139150000Y-82400000D01*
X155758325Y-90318000D02*
X155707825Y-90267500D01*
X139150000Y-82400000D02*
X139250000Y-82300000D01*
X116905208Y-82222600D02*
X117082608Y-82400000D01*
X113950000Y-80685000D02*
X115487600Y-82222600D01*
X139250000Y-82300000D02*
X139262472Y-82300000D01*
X141050000Y-80875000D02*
X141050000Y-79485000D01*
X124050000Y-80250000D02*
X123900000Y-80400000D01*
X124050000Y-79485000D02*
X124050000Y-80250000D01*
X113550000Y-107600000D02*
X112947600Y-108202400D01*
X127800000Y-100775264D02*
X120975264Y-107600000D01*
X158449675Y-110844000D02*
X159234325Y-110844000D01*
X115487600Y-114707400D02*
X116490000Y-113705000D01*
X113364800Y-114707400D02*
X115487600Y-114707400D01*
X127800000Y-84250000D02*
X127800000Y-100775264D01*
X159234325Y-110844000D02*
X159257825Y-110867500D01*
X120975264Y-107600000D02*
X113550000Y-107600000D01*
X127050000Y-83500000D02*
X127800000Y-84250000D01*
X112947600Y-114290200D02*
X113364800Y-114707400D01*
X112947600Y-108202400D02*
X112947600Y-114290200D01*
X137550000Y-80275000D02*
X137650000Y-80375000D01*
X152350000Y-115600000D02*
X152350000Y-117650000D01*
X138025000Y-80375000D02*
X138025000Y-80175000D01*
X152350000Y-117650000D02*
X152650000Y-117950000D01*
X137550000Y-79485000D02*
X137550000Y-80275000D01*
X138050000Y-80150000D02*
X138050000Y-79485000D01*
X137650000Y-80375000D02*
X138025000Y-80375000D01*
X138025000Y-80175000D02*
X138050000Y-80150000D01*
X126550000Y-76525000D02*
X126550000Y-77160000D01*
X126375000Y-76350000D02*
X126550000Y-76525000D01*
X126300000Y-115820000D02*
X126280000Y-115800000D01*
X126300000Y-118000000D02*
X126300000Y-115820000D01*
X137050000Y-77160000D02*
X137050000Y-77750000D01*
D27*
X140620000Y-115800000D02*
X140620000Y-116730000D01*
D26*
X127050000Y-77160000D02*
X127050000Y-76327289D01*
D27*
X140620000Y-116730000D02*
X139400000Y-117950000D01*
D26*
X137550000Y-77160000D02*
X137550000Y-76250000D01*
X156345000Y-93500000D02*
X158787632Y-93500000D01*
X159196800Y-93909168D02*
X159196800Y-94803200D01*
X159196800Y-94803200D02*
X158745000Y-95255000D01*
X158787632Y-93500000D02*
X159196800Y-93909168D01*
X158745000Y-95255000D02*
X158449675Y-95255000D01*
X156075000Y-93770000D02*
X156345000Y-93500000D01*
X158705000Y-93130000D02*
X159400000Y-93825000D01*
X158935000Y-95890000D02*
X158449675Y-95890000D01*
X156075000Y-93130000D02*
X158705000Y-93130000D01*
X159400000Y-93825000D02*
X159400000Y-95425000D01*
X159400000Y-95425000D02*
X158935000Y-95890000D01*
X156150000Y-98465000D02*
X157271675Y-98465000D01*
X157271675Y-98465000D02*
X157306675Y-98430000D01*
X156150000Y-97825000D02*
X157276675Y-97825000D01*
X157276675Y-97825000D02*
X157306675Y-97795000D01*
X158462632Y-100250000D02*
X158983075Y-100770443D01*
X158640175Y-102097000D02*
X158449675Y-102097000D01*
X158983075Y-101754100D02*
X158640175Y-102097000D01*
X158983075Y-100770443D02*
X158983075Y-101754100D01*
X156050000Y-100670000D02*
X156470000Y-100250000D01*
X156470000Y-100250000D02*
X158462632Y-100250000D01*
X158530000Y-100030000D02*
X159225000Y-100725000D01*
X159225000Y-102147175D02*
X158640175Y-102732000D01*
X159225000Y-100725000D02*
X159225000Y-102147175D01*
X156050000Y-100030000D02*
X158530000Y-100030000D01*
X158640175Y-102732000D02*
X158449675Y-102732000D01*
X158680000Y-106830000D02*
X159203200Y-107353200D01*
X159203200Y-108984168D02*
X158613368Y-109574000D01*
X158613368Y-109574000D02*
X158449675Y-109574000D01*
X155975000Y-106830000D02*
X158680000Y-106830000D01*
X159203200Y-107353200D02*
X159203200Y-108984168D01*
X159000000Y-108900000D02*
X158961000Y-108939000D01*
X158961000Y-108939000D02*
X158449675Y-108939000D01*
X158712632Y-107150000D02*
X159000000Y-107437368D01*
X159000000Y-107437368D02*
X159000000Y-108900000D01*
X156295000Y-107150000D02*
X158712632Y-107150000D01*
X155975000Y-107470000D02*
X156295000Y-107150000D01*
X157283675Y-105295000D02*
X157306675Y-105272000D01*
X155975000Y-105295000D02*
X157283675Y-105295000D01*
X157288675Y-104655000D02*
X157306675Y-104637000D01*
X155975000Y-104655000D02*
X157288675Y-104655000D01*
X157230675Y-111555000D02*
X157306675Y-111479000D01*
X156050000Y-111555000D02*
X157230675Y-111555000D01*
X156050000Y-112195000D02*
X157225675Y-112195000D01*
X157225675Y-112195000D02*
X157306675Y-112114000D01*
G04 #@! TA.AperFunction,Conductor*
G36*
X109336515Y-72648071D02*
G01*
X109336508Y-72648071D01*
X111895233Y-72645761D01*
X109336515Y-72648071D01*
G37*
G04 #@! TD.AperFunction*
G04 #@! TA.AperFunction,Conductor*
G36*
X137426335Y-72622719D02*
G01*
X137426309Y-72622719D01*
X158690863Y-72603527D01*
X137426335Y-72622719D01*
G37*
G04 #@! TD.AperFunction*
G04 #@! TA.AperFunction,Conductor*
G36*
X160393651Y-72621675D02*
G01*
X160439454Y-72674438D01*
X160449460Y-72743587D01*
X160420492Y-72807169D01*
X160399591Y-72826369D01*
X160252787Y-72933028D01*
X160252782Y-72933032D01*
X160108028Y-73077786D01*
X159987715Y-73243386D01*
X159894781Y-73425776D01*
X159831522Y-73620465D01*
X159799500Y-73822648D01*
X159799500Y-74027351D01*
X159831522Y-74229534D01*
X159894781Y-74424223D01*
X159941459Y-74515832D01*
X159987338Y-74605875D01*
X159987715Y-74606613D01*
X160108028Y-74772213D01*
X160252786Y-74916971D01*
X160407749Y-75029556D01*
X160418390Y-75037287D01*
X160534607Y-75096503D01*
X160600776Y-75130218D01*
X160600778Y-75130218D01*
X160600781Y-75130220D01*
X160705137Y-75164127D01*
X160795465Y-75193477D01*
X160896557Y-75209488D01*
X160997648Y-75225500D01*
X160997649Y-75225500D01*
X161202351Y-75225500D01*
X161202352Y-75225500D01*
X161404534Y-75193477D01*
X161599219Y-75130220D01*
X161781610Y-75037287D01*
X161882145Y-74964245D01*
X161947213Y-74916971D01*
X161947215Y-74916968D01*
X161947219Y-74916966D01*
X162091966Y-74772219D01*
X162091968Y-74772215D01*
X162091971Y-74772213D01*
X162144732Y-74699590D01*
X162212287Y-74606610D01*
X162305220Y-74424219D01*
X162367772Y-74231703D01*
X162407208Y-74174030D01*
X162471567Y-74146831D01*
X162540413Y-74158746D01*
X162591889Y-74205990D01*
X162609700Y-74269302D01*
X162924244Y-128395089D01*
X162911463Y-128450644D01*
X162908595Y-128456461D01*
X162861294Y-128507885D01*
X162797990Y-128525625D01*
X162204192Y-128528554D01*
X162137056Y-128509201D01*
X162091041Y-128456623D01*
X162080757Y-128387515D01*
X162103262Y-128331671D01*
X162212287Y-128181610D01*
X162305220Y-127999219D01*
X162368477Y-127804534D01*
X162400500Y-127602352D01*
X162400500Y-127397648D01*
X162368477Y-127195466D01*
X162305220Y-127000781D01*
X162305218Y-127000778D01*
X162305218Y-127000776D01*
X162252101Y-126896530D01*
X162212287Y-126818390D01*
X162199759Y-126801146D01*
X162091971Y-126652786D01*
X161947213Y-126508028D01*
X161781613Y-126387715D01*
X161781612Y-126387714D01*
X161781610Y-126387713D01*
X161724653Y-126358691D01*
X161599223Y-126294781D01*
X161404534Y-126231522D01*
X161229995Y-126203878D01*
X161202352Y-126199500D01*
X160997648Y-126199500D01*
X160973329Y-126203351D01*
X160795465Y-126231522D01*
X160600776Y-126294781D01*
X160418386Y-126387715D01*
X160252786Y-126508028D01*
X160108028Y-126652786D01*
X159987715Y-126818386D01*
X159894781Y-127000776D01*
X159831522Y-127195465D01*
X159799500Y-127397648D01*
X159799500Y-127602351D01*
X159831522Y-127804534D01*
X159894781Y-127999223D01*
X159958691Y-128124653D01*
X159985423Y-128177116D01*
X159987715Y-128181613D01*
X160104619Y-128342520D01*
X160128099Y-128408327D01*
X160112273Y-128476380D01*
X160062167Y-128525075D01*
X160004913Y-128539403D01*
X109320053Y-128789418D01*
X109252917Y-128770065D01*
X109206902Y-128717487D01*
X109196618Y-128648379D01*
X109225329Y-128584681D01*
X109246556Y-128565101D01*
X109347219Y-128491966D01*
X109491966Y-128347219D01*
X109491968Y-128347215D01*
X109491971Y-128347213D01*
X109573563Y-128234909D01*
X109612287Y-128181610D01*
X109705220Y-127999219D01*
X109768477Y-127804534D01*
X109800500Y-127602352D01*
X109800500Y-127397648D01*
X109768477Y-127195466D01*
X109705220Y-127000781D01*
X109705218Y-127000778D01*
X109705218Y-127000776D01*
X109652101Y-126896530D01*
X109612287Y-126818390D01*
X109599759Y-126801146D01*
X109491971Y-126652786D01*
X109347213Y-126508028D01*
X109181613Y-126387715D01*
X109181612Y-126387714D01*
X109181610Y-126387713D01*
X109124653Y-126358691D01*
X108999223Y-126294781D01*
X108804534Y-126231522D01*
X108629995Y-126203878D01*
X108602352Y-126199500D01*
X108397648Y-126199500D01*
X108373329Y-126203351D01*
X108195465Y-126231522D01*
X108000776Y-126294781D01*
X107818386Y-126387715D01*
X107652786Y-126508028D01*
X107508032Y-126652782D01*
X107508028Y-126652787D01*
X107400240Y-126801146D01*
X107344910Y-126843812D01*
X107275297Y-126849791D01*
X107213502Y-126817186D01*
X107179145Y-126756347D01*
X107175922Y-126728206D01*
X107176305Y-125868097D01*
X120299500Y-125868097D01*
X120336446Y-126101368D01*
X120409433Y-126325996D01*
X120499317Y-126502402D01*
X120516657Y-126536433D01*
X120655483Y-126727510D01*
X120822490Y-126894517D01*
X121013567Y-127033343D01*
X121053059Y-127053465D01*
X121224003Y-127140566D01*
X121224005Y-127140566D01*
X121224008Y-127140568D01*
X121344412Y-127179689D01*
X121448631Y-127213553D01*
X121681903Y-127250500D01*
X121681908Y-127250500D01*
X121918097Y-127250500D01*
X122151368Y-127213553D01*
X122375992Y-127140568D01*
X122448803Y-127103469D01*
X125249500Y-127103469D01*
X125289868Y-127306412D01*
X125289870Y-127306420D01*
X125369058Y-127497596D01*
X125484024Y-127669657D01*
X125630342Y-127815975D01*
X125630345Y-127815977D01*
X125802402Y-127930941D01*
X125993580Y-128010130D01*
X126196530Y-128050499D01*
X126196534Y-128050500D01*
X126196535Y-128050500D01*
X126403466Y-128050500D01*
X126403467Y-128050499D01*
X126606420Y-128010130D01*
X126797598Y-127930941D01*
X126969655Y-127815977D01*
X127115977Y-127669655D01*
X127230941Y-127497598D01*
X127310130Y-127306420D01*
X127350500Y-127103465D01*
X127350500Y-126896535D01*
X127310130Y-126693580D01*
X127230941Y-126502402D01*
X127115977Y-126330345D01*
X127115975Y-126330342D01*
X126969657Y-126184024D01*
X126845952Y-126101368D01*
X126797598Y-126069059D01*
X126754888Y-126051368D01*
X126606420Y-125989870D01*
X126606412Y-125989868D01*
X126403469Y-125949500D01*
X126403465Y-125949500D01*
X126196535Y-125949500D01*
X126196530Y-125949500D01*
X125993587Y-125989868D01*
X125993579Y-125989870D01*
X125802403Y-126069058D01*
X125630342Y-126184024D01*
X125484024Y-126330342D01*
X125369058Y-126502403D01*
X125289870Y-126693579D01*
X125289868Y-126693587D01*
X125249500Y-126896530D01*
X125249500Y-127103469D01*
X122448803Y-127103469D01*
X122586433Y-127033343D01*
X122777510Y-126894517D01*
X122944517Y-126727510D01*
X123083343Y-126536433D01*
X123190568Y-126325992D01*
X123263553Y-126101368D01*
X123271472Y-126051368D01*
X123300500Y-125868097D01*
X129299500Y-125868097D01*
X129336446Y-126101368D01*
X129409433Y-126325996D01*
X129499317Y-126502402D01*
X129516657Y-126536433D01*
X129655483Y-126727510D01*
X129822490Y-126894517D01*
X130013567Y-127033343D01*
X130053059Y-127053465D01*
X130224003Y-127140566D01*
X130224005Y-127140566D01*
X130224008Y-127140568D01*
X130344412Y-127179689D01*
X130448631Y-127213553D01*
X130681903Y-127250500D01*
X130681908Y-127250500D01*
X130918097Y-127250500D01*
X131151368Y-127213553D01*
X131375992Y-127140568D01*
X131586433Y-127033343D01*
X131777510Y-126894517D01*
X131944517Y-126727510D01*
X132083343Y-126536433D01*
X132190568Y-126325992D01*
X132263553Y-126101368D01*
X132271472Y-126051368D01*
X132300500Y-125868097D01*
X132300500Y-125818097D01*
X133399500Y-125818097D01*
X133436446Y-126051368D01*
X133509433Y-126275996D01*
X133599317Y-126452402D01*
X133616657Y-126486433D01*
X133755483Y-126677510D01*
X133922490Y-126844517D01*
X134113567Y-126983343D01*
X134211696Y-127033342D01*
X134324003Y-127090566D01*
X134324005Y-127090566D01*
X134324008Y-127090568D01*
X134444412Y-127129689D01*
X134548631Y-127163553D01*
X134781903Y-127200500D01*
X134781908Y-127200500D01*
X135018097Y-127200500D01*
X135251368Y-127163553D01*
X135322114Y-127140566D01*
X135475992Y-127090568D01*
X135548803Y-127053469D01*
X138349500Y-127053469D01*
X138388692Y-127250500D01*
X138389870Y-127256420D01*
X138469059Y-127447598D01*
X138502468Y-127497598D01*
X138584024Y-127619657D01*
X138730342Y-127765975D01*
X138730345Y-127765977D01*
X138902402Y-127880941D01*
X139093580Y-127960130D01*
X139290095Y-127999219D01*
X139296530Y-128000499D01*
X139296534Y-128000500D01*
X139296535Y-128000500D01*
X139503466Y-128000500D01*
X139503467Y-128000499D01*
X139706420Y-127960130D01*
X139897598Y-127880941D01*
X140069655Y-127765977D01*
X140215977Y-127619655D01*
X140330941Y-127447598D01*
X140410130Y-127256420D01*
X140450500Y-127053465D01*
X140450500Y-126846535D01*
X140410130Y-126643580D01*
X140330941Y-126452402D01*
X140215977Y-126280345D01*
X140215975Y-126280342D01*
X140069657Y-126134024D01*
X139945952Y-126051368D01*
X139897598Y-126019059D01*
X139706420Y-125939870D01*
X139706412Y-125939868D01*
X139503469Y-125899500D01*
X139503465Y-125899500D01*
X139296535Y-125899500D01*
X139296530Y-125899500D01*
X139093587Y-125939868D01*
X139093579Y-125939870D01*
X138902403Y-126019058D01*
X138730342Y-126134024D01*
X138584024Y-126280342D01*
X138469058Y-126452403D01*
X138389870Y-126643579D01*
X138389868Y-126643587D01*
X138349500Y-126846530D01*
X138349500Y-127053469D01*
X135548803Y-127053469D01*
X135686433Y-126983343D01*
X135877510Y-126844517D01*
X136044517Y-126677510D01*
X136183343Y-126486433D01*
X136290568Y-126275992D01*
X136363553Y-126051368D01*
X136373294Y-125989868D01*
X136400500Y-125818097D01*
X142399500Y-125818097D01*
X142436446Y-126051368D01*
X142509433Y-126275996D01*
X142599317Y-126452402D01*
X142616657Y-126486433D01*
X142755483Y-126677510D01*
X142922490Y-126844517D01*
X143113567Y-126983343D01*
X143211696Y-127033342D01*
X143324003Y-127090566D01*
X143324005Y-127090566D01*
X143324008Y-127090568D01*
X143444412Y-127129689D01*
X143548631Y-127163553D01*
X143781903Y-127200500D01*
X143781908Y-127200500D01*
X144018097Y-127200500D01*
X144251368Y-127163553D01*
X144322114Y-127140566D01*
X144475992Y-127090568D01*
X144686433Y-126983343D01*
X144877510Y-126844517D01*
X145044517Y-126677510D01*
X145183343Y-126486433D01*
X145290568Y-126275992D01*
X145363553Y-126051368D01*
X145373294Y-125989868D01*
X145400500Y-125818097D01*
X146649500Y-125818097D01*
X146686446Y-126051368D01*
X146759433Y-126275996D01*
X146849317Y-126452402D01*
X146866657Y-126486433D01*
X147005483Y-126677510D01*
X147172490Y-126844517D01*
X147363567Y-126983343D01*
X147461696Y-127033342D01*
X147574003Y-127090566D01*
X147574005Y-127090566D01*
X147574008Y-127090568D01*
X147694412Y-127129689D01*
X147798631Y-127163553D01*
X148031903Y-127200500D01*
X148031908Y-127200500D01*
X148268097Y-127200500D01*
X148501368Y-127163553D01*
X148572114Y-127140566D01*
X148725992Y-127090568D01*
X148798803Y-127053469D01*
X151599500Y-127053469D01*
X151638692Y-127250500D01*
X151639870Y-127256420D01*
X151719059Y-127447598D01*
X151752468Y-127497598D01*
X151834024Y-127619657D01*
X151980342Y-127765975D01*
X151980345Y-127765977D01*
X152152402Y-127880941D01*
X152343580Y-127960130D01*
X152540095Y-127999219D01*
X152546530Y-128000499D01*
X152546534Y-128000500D01*
X152546535Y-128000500D01*
X152753466Y-128000500D01*
X152753467Y-128000499D01*
X152956420Y-127960130D01*
X153147598Y-127880941D01*
X153319655Y-127765977D01*
X153465977Y-127619655D01*
X153580941Y-127447598D01*
X153660130Y-127256420D01*
X153700500Y-127053465D01*
X153700500Y-126846535D01*
X153660130Y-126643580D01*
X153580941Y-126452402D01*
X153465977Y-126280345D01*
X153465975Y-126280342D01*
X153319657Y-126134024D01*
X153195952Y-126051368D01*
X153147598Y-126019059D01*
X152956420Y-125939870D01*
X152956412Y-125939868D01*
X152753469Y-125899500D01*
X152753465Y-125899500D01*
X152546535Y-125899500D01*
X152546530Y-125899500D01*
X152343587Y-125939868D01*
X152343579Y-125939870D01*
X152152403Y-126019058D01*
X151980342Y-126134024D01*
X151834024Y-126280342D01*
X151719058Y-126452403D01*
X151639870Y-126643579D01*
X151639868Y-126643587D01*
X151599500Y-126846530D01*
X151599500Y-127053469D01*
X148798803Y-127053469D01*
X148936433Y-126983343D01*
X149127510Y-126844517D01*
X149294517Y-126677510D01*
X149433343Y-126486433D01*
X149540568Y-126275992D01*
X149613553Y-126051368D01*
X149623294Y-125989868D01*
X149650500Y-125818097D01*
X155649500Y-125818097D01*
X155686446Y-126051368D01*
X155759433Y-126275996D01*
X155849317Y-126452402D01*
X155866657Y-126486433D01*
X156005483Y-126677510D01*
X156172490Y-126844517D01*
X156363567Y-126983343D01*
X156461696Y-127033342D01*
X156574003Y-127090566D01*
X156574005Y-127090566D01*
X156574008Y-127090568D01*
X156694412Y-127129689D01*
X156798631Y-127163553D01*
X157031903Y-127200500D01*
X157031908Y-127200500D01*
X157268097Y-127200500D01*
X157501368Y-127163553D01*
X157572114Y-127140566D01*
X157725992Y-127090568D01*
X157936433Y-126983343D01*
X158127510Y-126844517D01*
X158294517Y-126677510D01*
X158433343Y-126486433D01*
X158540568Y-126275992D01*
X158613553Y-126051368D01*
X158623294Y-125989868D01*
X158650500Y-125818097D01*
X158650500Y-124081902D01*
X158613553Y-123848631D01*
X158556812Y-123674003D01*
X158540568Y-123624008D01*
X158540566Y-123624005D01*
X158540566Y-123624003D01*
X158433342Y-123413566D01*
X158418376Y-123392967D01*
X158294517Y-123222490D01*
X158127510Y-123055483D01*
X157936433Y-122916657D01*
X157725996Y-122809433D01*
X157501368Y-122736446D01*
X157268097Y-122699500D01*
X157268092Y-122699500D01*
X157031908Y-122699500D01*
X157031903Y-122699500D01*
X156798631Y-122736446D01*
X156574003Y-122809433D01*
X156363566Y-122916657D01*
X156257666Y-122993599D01*
X156172490Y-123055483D01*
X156172488Y-123055485D01*
X156172487Y-123055485D01*
X156005485Y-123222487D01*
X156005485Y-123222488D01*
X156005483Y-123222490D01*
X155969158Y-123272487D01*
X155866657Y-123413566D01*
X155759433Y-123624003D01*
X155686446Y-123848631D01*
X155649500Y-124081902D01*
X155649500Y-125818097D01*
X149650500Y-125818097D01*
X149650500Y-124081902D01*
X149613553Y-123848631D01*
X149556812Y-123674003D01*
X149540568Y-123624008D01*
X149540566Y-123624005D01*
X149540566Y-123624003D01*
X149433342Y-123413566D01*
X149418376Y-123392967D01*
X149294517Y-123222490D01*
X149127510Y-123055483D01*
X148936433Y-122916657D01*
X148725996Y-122809433D01*
X148501368Y-122736446D01*
X148268097Y-122699500D01*
X148268092Y-122699500D01*
X148031908Y-122699500D01*
X148031903Y-122699500D01*
X147798631Y-122736446D01*
X147574003Y-122809433D01*
X147363566Y-122916657D01*
X147257666Y-122993599D01*
X147172490Y-123055483D01*
X147172488Y-123055485D01*
X147172487Y-123055485D01*
X147005485Y-123222487D01*
X147005485Y-123222488D01*
X147005483Y-123222490D01*
X146969158Y-123272487D01*
X146866657Y-123413566D01*
X146759433Y-123624003D01*
X146686446Y-123848631D01*
X146649500Y-124081902D01*
X146649500Y-125818097D01*
X145400500Y-125818097D01*
X145400500Y-124081902D01*
X145363553Y-123848631D01*
X145306812Y-123674003D01*
X145290568Y-123624008D01*
X145290566Y-123624005D01*
X145290566Y-123624003D01*
X145183342Y-123413566D01*
X145168376Y-123392967D01*
X145044517Y-123222490D01*
X144877510Y-123055483D01*
X144686433Y-122916657D01*
X144475996Y-122809433D01*
X144251368Y-122736446D01*
X144018097Y-122699500D01*
X144018092Y-122699500D01*
X143781908Y-122699500D01*
X143781903Y-122699500D01*
X143548631Y-122736446D01*
X143324003Y-122809433D01*
X143113566Y-122916657D01*
X143007666Y-122993599D01*
X142922490Y-123055483D01*
X142922488Y-123055485D01*
X142922487Y-123055485D01*
X142755485Y-123222487D01*
X142755485Y-123222488D01*
X142755483Y-123222490D01*
X142719158Y-123272487D01*
X142616657Y-123413566D01*
X142509433Y-123624003D01*
X142436446Y-123848631D01*
X142399500Y-124081902D01*
X142399500Y-125818097D01*
X136400500Y-125818097D01*
X136400500Y-124081902D01*
X136363553Y-123848631D01*
X136306812Y-123674003D01*
X136290568Y-123624008D01*
X136290566Y-123624005D01*
X136290566Y-123624003D01*
X136183342Y-123413566D01*
X136168376Y-123392967D01*
X136044517Y-123222490D01*
X135877510Y-123055483D01*
X135686433Y-122916657D01*
X135475996Y-122809433D01*
X135251368Y-122736446D01*
X135018097Y-122699500D01*
X135018092Y-122699500D01*
X134781908Y-122699500D01*
X134781903Y-122699500D01*
X134548631Y-122736446D01*
X134324003Y-122809433D01*
X134113566Y-122916657D01*
X134007666Y-122993599D01*
X133922490Y-123055483D01*
X133922488Y-123055485D01*
X133922487Y-123055485D01*
X133755485Y-123222487D01*
X133755485Y-123222488D01*
X133755483Y-123222490D01*
X133719158Y-123272487D01*
X133616657Y-123413566D01*
X133509433Y-123624003D01*
X133436446Y-123848631D01*
X133399500Y-124081902D01*
X133399500Y-125818097D01*
X132300500Y-125818097D01*
X132300500Y-124131902D01*
X132263553Y-123898631D01*
X132190566Y-123674003D01*
X132083342Y-123463566D01*
X131944517Y-123272490D01*
X131777510Y-123105483D01*
X131586433Y-122966657D01*
X131375996Y-122859433D01*
X131151368Y-122786446D01*
X130918097Y-122749500D01*
X130918092Y-122749500D01*
X130681908Y-122749500D01*
X130681903Y-122749500D01*
X130448631Y-122786446D01*
X130224003Y-122859433D01*
X130013566Y-122966657D01*
X129904550Y-123045862D01*
X129822490Y-123105483D01*
X129822488Y-123105485D01*
X129822487Y-123105485D01*
X129655485Y-123272487D01*
X129655485Y-123272488D01*
X129655483Y-123272490D01*
X129595862Y-123354550D01*
X129516657Y-123463566D01*
X129409433Y-123674003D01*
X129336446Y-123898631D01*
X129299500Y-124131902D01*
X129299500Y-125868097D01*
X123300500Y-125868097D01*
X123300500Y-124131902D01*
X123263553Y-123898631D01*
X123190566Y-123674003D01*
X123083342Y-123463566D01*
X122944517Y-123272490D01*
X122777510Y-123105483D01*
X122586433Y-122966657D01*
X122375996Y-122859433D01*
X122151368Y-122786446D01*
X121918097Y-122749500D01*
X121918092Y-122749500D01*
X121681908Y-122749500D01*
X121681903Y-122749500D01*
X121448631Y-122786446D01*
X121224003Y-122859433D01*
X121013566Y-122966657D01*
X120904550Y-123045862D01*
X120822490Y-123105483D01*
X120822488Y-123105485D01*
X120822487Y-123105485D01*
X120655485Y-123272487D01*
X120655485Y-123272488D01*
X120655483Y-123272490D01*
X120595862Y-123354550D01*
X120516657Y-123463566D01*
X120409433Y-123674003D01*
X120336446Y-123898631D01*
X120299500Y-124131902D01*
X120299500Y-125868097D01*
X107176305Y-125868097D01*
X107199074Y-74728548D01*
X107218788Y-74661519D01*
X107271613Y-74615788D01*
X107340776Y-74605875D01*
X107404318Y-74634928D01*
X107423392Y-74655720D01*
X107508028Y-74772212D01*
X107508032Y-74772217D01*
X107652786Y-74916971D01*
X107807749Y-75029556D01*
X107818390Y-75037287D01*
X107934607Y-75096503D01*
X108000776Y-75130218D01*
X108000778Y-75130218D01*
X108000781Y-75130220D01*
X108105137Y-75164127D01*
X108195465Y-75193477D01*
X108296557Y-75209488D01*
X108397648Y-75225500D01*
X108397649Y-75225500D01*
X108602351Y-75225500D01*
X108602352Y-75225500D01*
X108804534Y-75193477D01*
X108999219Y-75130220D01*
X109181610Y-75037287D01*
X109282145Y-74964245D01*
X109347213Y-74916971D01*
X109347215Y-74916968D01*
X109347219Y-74916966D01*
X109491966Y-74772219D01*
X109491968Y-74772215D01*
X109491971Y-74772213D01*
X109544732Y-74699590D01*
X109612287Y-74606610D01*
X109705220Y-74424219D01*
X109768477Y-74229534D01*
X109800500Y-74027352D01*
X109800500Y-73822648D01*
X109793913Y-73781058D01*
X109768477Y-73620465D01*
X109705218Y-73425776D01*
X109655151Y-73327516D01*
X109612287Y-73243390D01*
X109604556Y-73232749D01*
X109491971Y-73077786D01*
X109347217Y-72933032D01*
X109347212Y-72933028D01*
X109263749Y-72872389D01*
X109221083Y-72817060D01*
X109215104Y-72747446D01*
X109247709Y-72685651D01*
X109308548Y-72651294D01*
X109336515Y-72648071D01*
X112626296Y-72645102D01*
X112693351Y-72664726D01*
X112739154Y-72717489D01*
X112749160Y-72786638D01*
X112720192Y-72850220D01*
X112714087Y-72856783D01*
X111345494Y-74225378D01*
X111242852Y-74328019D01*
X111242847Y-74328025D01*
X111170271Y-74453730D01*
X111170271Y-74453731D01*
X111170270Y-74453733D01*
X111170270Y-74453734D01*
X111132700Y-74593948D01*
X111132700Y-87671396D01*
X111132700Y-87816556D01*
X111137097Y-87832967D01*
X111170271Y-87956772D01*
X111170271Y-87956773D01*
X111242847Y-88082478D01*
X111242852Y-88082484D01*
X112935054Y-89774686D01*
X112968539Y-89836009D01*
X112963555Y-89905701D01*
X112935056Y-89950047D01*
X112911503Y-89973599D01*
X112775965Y-90167169D01*
X112775964Y-90167171D01*
X112676098Y-90381335D01*
X112676094Y-90381344D01*
X112614938Y-90609586D01*
X112614936Y-90609596D01*
X112594341Y-90844999D01*
X112594341Y-90845000D01*
X112614936Y-91080403D01*
X112614938Y-91080413D01*
X112676094Y-91308655D01*
X112676096Y-91308659D01*
X112676097Y-91308663D01*
X112714254Y-91390490D01*
X112775965Y-91522830D01*
X112775967Y-91522834D01*
X112884281Y-91677521D01*
X112910812Y-91715412D01*
X112911501Y-91716395D01*
X112911506Y-91716402D01*
X113078597Y-91883493D01*
X113078603Y-91883498D01*
X113264158Y-92013425D01*
X113307783Y-92068002D01*
X113314977Y-92137500D01*
X113283454Y-92199855D01*
X113264158Y-92216575D01*
X113078597Y-92346505D01*
X112911505Y-92513597D01*
X112775965Y-92707169D01*
X112775964Y-92707171D01*
X112676098Y-92921335D01*
X112676094Y-92921344D01*
X112614938Y-93149586D01*
X112614936Y-93149596D01*
X112594341Y-93384999D01*
X112594341Y-93385000D01*
X112614936Y-93620403D01*
X112614938Y-93620413D01*
X112676094Y-93848655D01*
X112676096Y-93848659D01*
X112676097Y-93848663D01*
X112770588Y-94051300D01*
X112775965Y-94062830D01*
X112775967Y-94062834D01*
X112911501Y-94256395D01*
X112911506Y-94256402D01*
X113078597Y-94423493D01*
X113078603Y-94423498D01*
X113264158Y-94553425D01*
X113307783Y-94608002D01*
X113314977Y-94677500D01*
X113283454Y-94739855D01*
X113264158Y-94756575D01*
X113078597Y-94886505D01*
X112911505Y-95053597D01*
X112775965Y-95247169D01*
X112775964Y-95247171D01*
X112676098Y-95461335D01*
X112676094Y-95461344D01*
X112614938Y-95689586D01*
X112614936Y-95689596D01*
X112594341Y-95924999D01*
X112594341Y-95925000D01*
X112614936Y-96160403D01*
X112614938Y-96160413D01*
X112676094Y-96388655D01*
X112676096Y-96388659D01*
X112676097Y-96388663D01*
X112692380Y-96423582D01*
X112775965Y-96602830D01*
X112775967Y-96602834D01*
X112879522Y-96750725D01*
X112911501Y-96796396D01*
X112911506Y-96796402D01*
X113078597Y-96963493D01*
X113078603Y-96963498D01*
X113264158Y-97093425D01*
X113307783Y-97148002D01*
X113314977Y-97217500D01*
X113283454Y-97279855D01*
X113264158Y-97296575D01*
X113078597Y-97426505D01*
X112911505Y-97593597D01*
X112775965Y-97787169D01*
X112775964Y-97787171D01*
X112676098Y-98001335D01*
X112676094Y-98001344D01*
X112614938Y-98229586D01*
X112614936Y-98229596D01*
X112594341Y-98464999D01*
X112594341Y-98465000D01*
X112614936Y-98700403D01*
X112614938Y-98700413D01*
X112676094Y-98928655D01*
X112676096Y-98928659D01*
X112676097Y-98928663D01*
X112752223Y-99091916D01*
X112775965Y-99142830D01*
X112775967Y-99142834D01*
X112884281Y-99297521D01*
X112911501Y-99336396D01*
X112911506Y-99336402D01*
X113078597Y-99503493D01*
X113078603Y-99503498D01*
X113264158Y-99633425D01*
X113307783Y-99688002D01*
X113314977Y-99757500D01*
X113283454Y-99819855D01*
X113264158Y-99836575D01*
X113078597Y-99966505D01*
X112911505Y-100133597D01*
X112775965Y-100327169D01*
X112775964Y-100327171D01*
X112676098Y-100541335D01*
X112676094Y-100541344D01*
X112614938Y-100769586D01*
X112614936Y-100769596D01*
X112594341Y-101004999D01*
X112594341Y-101005000D01*
X112614936Y-101240403D01*
X112614938Y-101240413D01*
X112676094Y-101468655D01*
X112676096Y-101468659D01*
X112676097Y-101468663D01*
X112700825Y-101521692D01*
X112775965Y-101682830D01*
X112775967Y-101682834D01*
X112841011Y-101775725D01*
X112911501Y-101876396D01*
X112911506Y-101876402D01*
X113078597Y-102043493D01*
X113078603Y-102043498D01*
X113264158Y-102173425D01*
X113307783Y-102228002D01*
X113314977Y-102297500D01*
X113283454Y-102359855D01*
X113264158Y-102376575D01*
X113078597Y-102506505D01*
X112911505Y-102673597D01*
X112775965Y-102867169D01*
X112775964Y-102867171D01*
X112676098Y-103081335D01*
X112676094Y-103081344D01*
X112614938Y-103309586D01*
X112614936Y-103309596D01*
X112594341Y-103544999D01*
X112594341Y-103545000D01*
X112614936Y-103780403D01*
X112614938Y-103780413D01*
X112676094Y-104008655D01*
X112676096Y-104008659D01*
X112676097Y-104008663D01*
X112744317Y-104154961D01*
X112775965Y-104222830D01*
X112775967Y-104222834D01*
X112877778Y-104368234D01*
X112911501Y-104416396D01*
X112911506Y-104416402D01*
X113078597Y-104583493D01*
X113078603Y-104583498D01*
X113264158Y-104713425D01*
X113307783Y-104768002D01*
X113314977Y-104837500D01*
X113283454Y-104899855D01*
X113264158Y-104916575D01*
X113078597Y-105046505D01*
X112911505Y-105213597D01*
X112775965Y-105407169D01*
X112775964Y-105407171D01*
X112676098Y-105621335D01*
X112676094Y-105621344D01*
X112614938Y-105849586D01*
X112614936Y-105849596D01*
X112594341Y-106084999D01*
X112594341Y-106085000D01*
X112614936Y-106320403D01*
X112614938Y-106320413D01*
X112676094Y-106548655D01*
X112676096Y-106548659D01*
X112676097Y-106548663D01*
X112775965Y-106762830D01*
X112775967Y-106762834D01*
X112876951Y-106907053D01*
X112911505Y-106956401D01*
X113000970Y-107045866D01*
X113075043Y-107119939D01*
X113108527Y-107181262D01*
X113103543Y-107250954D01*
X113075042Y-107295301D01*
X112609094Y-107761250D01*
X112506452Y-107863891D01*
X112506447Y-107863897D01*
X112433871Y-107989602D01*
X112433871Y-107989603D01*
X112433870Y-107989605D01*
X112433870Y-107989606D01*
X112396300Y-108129820D01*
X112396300Y-114217620D01*
X112396300Y-114362780D01*
X112401673Y-114382834D01*
X112433871Y-114502996D01*
X112433871Y-114502997D01*
X112506447Y-114628702D01*
X112506452Y-114628708D01*
X112993742Y-115115998D01*
X113027227Y-115177321D01*
X113022243Y-115247013D01*
X112993743Y-115291360D01*
X112911503Y-115373600D01*
X112775965Y-115567169D01*
X112775964Y-115567171D01*
X112676098Y-115781335D01*
X112676094Y-115781344D01*
X112614938Y-116009586D01*
X112614936Y-116009596D01*
X112594341Y-116244999D01*
X112594341Y-116245000D01*
X112614936Y-116480403D01*
X112614938Y-116480413D01*
X112676094Y-116708655D01*
X112676096Y-116708659D01*
X112676097Y-116708663D01*
X112766312Y-116902129D01*
X112775965Y-116922830D01*
X112775967Y-116922834D01*
X112884281Y-117077521D01*
X112911501Y-117116396D01*
X112911506Y-117116402D01*
X113078597Y-117283493D01*
X113078603Y-117283498D01*
X113264158Y-117413425D01*
X113307783Y-117468002D01*
X113314977Y-117537500D01*
X113283454Y-117599855D01*
X113264158Y-117616575D01*
X113078597Y-117746505D01*
X112911505Y-117913597D01*
X112775965Y-118107169D01*
X112775964Y-118107171D01*
X112676098Y-118321335D01*
X112676094Y-118321344D01*
X112614938Y-118549586D01*
X112614936Y-118549596D01*
X112594341Y-118784999D01*
X112594341Y-118785000D01*
X112614936Y-119020403D01*
X112614938Y-119020413D01*
X112676094Y-119248655D01*
X112676096Y-119248659D01*
X112676097Y-119248663D01*
X112770215Y-119450499D01*
X112775965Y-119462830D01*
X112775967Y-119462834D01*
X112829101Y-119538716D01*
X112911505Y-119656401D01*
X113078599Y-119823495D01*
X113175384Y-119891265D01*
X113272165Y-119959032D01*
X113272167Y-119959033D01*
X113272170Y-119959035D01*
X113486337Y-120058903D01*
X113714592Y-120120063D01*
X113902918Y-120136539D01*
X113949999Y-120140659D01*
X113950000Y-120140659D01*
X113950001Y-120140659D01*
X113989234Y-120137226D01*
X114185408Y-120120063D01*
X114368634Y-120070968D01*
X114438481Y-120072631D01*
X114488406Y-120103062D01*
X114511250Y-120125906D01*
X114613894Y-120228550D01*
X114739606Y-120301130D01*
X114879820Y-120338700D01*
X115293756Y-120338700D01*
X115360795Y-120358385D01*
X115406550Y-120411189D01*
X115416494Y-120480347D01*
X115395331Y-120533823D01*
X115315965Y-120647169D01*
X115315964Y-120647171D01*
X115216098Y-120861335D01*
X115216094Y-120861344D01*
X115154938Y-121089586D01*
X115154936Y-121089596D01*
X115134341Y-121324999D01*
X115134341Y-121325000D01*
X115154936Y-121560403D01*
X115154938Y-121560413D01*
X115216094Y-121788655D01*
X115216096Y-121788659D01*
X115216097Y-121788663D01*
X115315965Y-122002830D01*
X115315967Y-122002834D01*
X115451501Y-122196395D01*
X115451506Y-122196402D01*
X115618597Y-122363493D01*
X115618603Y-122363498D01*
X115804158Y-122493425D01*
X115847783Y-122548002D01*
X115854977Y-122617500D01*
X115823454Y-122679855D01*
X115804158Y-122696575D01*
X115618597Y-122826505D01*
X115451505Y-122993597D01*
X115321575Y-123179158D01*
X115266998Y-123222783D01*
X115197500Y-123229977D01*
X115135145Y-123198454D01*
X115118425Y-123179158D01*
X114988494Y-122993597D01*
X114821402Y-122826506D01*
X114821395Y-122826501D01*
X114627834Y-122690967D01*
X114627830Y-122690965D01*
X114627828Y-122690964D01*
X114413663Y-122591097D01*
X114413659Y-122591096D01*
X114413655Y-122591094D01*
X114185413Y-122529938D01*
X114185403Y-122529936D01*
X113950001Y-122509341D01*
X113949999Y-122509341D01*
X113714596Y-122529936D01*
X113714586Y-122529938D01*
X113486344Y-122591094D01*
X113486335Y-122591098D01*
X113272171Y-122690964D01*
X113272169Y-122690965D01*
X113078597Y-122826505D01*
X112911505Y-122993597D01*
X112775965Y-123187169D01*
X112775964Y-123187171D01*
X112676098Y-123401335D01*
X112676094Y-123401344D01*
X112614938Y-123629586D01*
X112614936Y-123629596D01*
X112594341Y-123864999D01*
X112594341Y-123865000D01*
X112614936Y-124100403D01*
X112614938Y-124100413D01*
X112676094Y-124328655D01*
X112676096Y-124328659D01*
X112676097Y-124328663D01*
X112680000Y-124337032D01*
X112775965Y-124542830D01*
X112775967Y-124542834D01*
X112884281Y-124697521D01*
X112911505Y-124736401D01*
X113078599Y-124903495D01*
X113175384Y-124971265D01*
X113272165Y-125039032D01*
X113272167Y-125039033D01*
X113272170Y-125039035D01*
X113486337Y-125138903D01*
X113714592Y-125200063D01*
X113902918Y-125216539D01*
X113949999Y-125220659D01*
X113950000Y-125220659D01*
X113950001Y-125220659D01*
X113989234Y-125217226D01*
X114185408Y-125200063D01*
X114413663Y-125138903D01*
X114627830Y-125039035D01*
X114821401Y-124903495D01*
X114988495Y-124736401D01*
X115118425Y-124550842D01*
X115173002Y-124507217D01*
X115242500Y-124500023D01*
X115304855Y-124531546D01*
X115321575Y-124550842D01*
X115451500Y-124736395D01*
X115451505Y-124736401D01*
X115618599Y-124903495D01*
X115715384Y-124971265D01*
X115812165Y-125039032D01*
X115812167Y-125039033D01*
X115812170Y-125039035D01*
X116026337Y-125138903D01*
X116254592Y-125200063D01*
X116442918Y-125216539D01*
X116489999Y-125220659D01*
X116490000Y-125220659D01*
X116490001Y-125220659D01*
X116529234Y-125217226D01*
X116725408Y-125200063D01*
X116953663Y-125138903D01*
X117167830Y-125039035D01*
X117361401Y-124903495D01*
X117528495Y-124736401D01*
X117664035Y-124542830D01*
X117763903Y-124328663D01*
X117825063Y-124100408D01*
X117845659Y-123865000D01*
X117825063Y-123629592D01*
X117763903Y-123401337D01*
X117664035Y-123187171D01*
X117658425Y-123179158D01*
X117528494Y-122993597D01*
X117361402Y-122826506D01*
X117361396Y-122826501D01*
X117175842Y-122696575D01*
X117132217Y-122641998D01*
X117125023Y-122572500D01*
X117156546Y-122510145D01*
X117175842Y-122493425D01*
X117198026Y-122477891D01*
X117361401Y-122363495D01*
X117528495Y-122196401D01*
X117664035Y-122002830D01*
X117763903Y-121788663D01*
X117825063Y-121560408D01*
X117845659Y-121325000D01*
X117825063Y-121089592D01*
X117763903Y-120861337D01*
X117664035Y-120647171D01*
X117584669Y-120533823D01*
X117528494Y-120453597D01*
X117361261Y-120286364D01*
X117327776Y-120225041D01*
X117332760Y-120155349D01*
X117361261Y-120111002D01*
X117513231Y-119959032D01*
X117933550Y-119538714D01*
X118006130Y-119413002D01*
X118043700Y-119272788D01*
X118043700Y-119127628D01*
X118043700Y-119047870D01*
X123799500Y-119047870D01*
X123799501Y-119047876D01*
X123805908Y-119107483D01*
X123856202Y-119242328D01*
X123856206Y-119242335D01*
X123942452Y-119357544D01*
X123942455Y-119357547D01*
X124057664Y-119443793D01*
X124057671Y-119443797D01*
X124192517Y-119494091D01*
X124192516Y-119494091D01*
X124199444Y-119494835D01*
X124252127Y-119500500D01*
X128347872Y-119500499D01*
X128407483Y-119494091D01*
X128542331Y-119443796D01*
X128657546Y-119357546D01*
X128743796Y-119242331D01*
X128794091Y-119107483D01*
X128800500Y-119047873D01*
X128800500Y-118997870D01*
X136899500Y-118997870D01*
X136899501Y-118997876D01*
X136905908Y-119057483D01*
X136956202Y-119192328D01*
X136956206Y-119192335D01*
X137042452Y-119307544D01*
X137042455Y-119307547D01*
X137157664Y-119393793D01*
X137157671Y-119393797D01*
X137292517Y-119444091D01*
X137292516Y-119444091D01*
X137299444Y-119444835D01*
X137352127Y-119450500D01*
X141447872Y-119450499D01*
X141507483Y-119444091D01*
X141642331Y-119393796D01*
X141757546Y-119307546D01*
X141843796Y-119192331D01*
X141894091Y-119057483D01*
X141900500Y-118997873D01*
X141900500Y-118997870D01*
X150149500Y-118997870D01*
X150149501Y-118997876D01*
X150155908Y-119057483D01*
X150206202Y-119192328D01*
X150206206Y-119192335D01*
X150292452Y-119307544D01*
X150292455Y-119307547D01*
X150407664Y-119393793D01*
X150407671Y-119393797D01*
X150542517Y-119444091D01*
X150542516Y-119444091D01*
X150549444Y-119444835D01*
X150602127Y-119450500D01*
X154697872Y-119450499D01*
X154757483Y-119444091D01*
X154892331Y-119393796D01*
X155007546Y-119307546D01*
X155093796Y-119192331D01*
X155144091Y-119057483D01*
X155150500Y-118997873D01*
X155150499Y-116902128D01*
X155144091Y-116842517D01*
X155136481Y-116822114D01*
X155093797Y-116707671D01*
X155093793Y-116707664D01*
X155007547Y-116592455D01*
X155007544Y-116592452D01*
X154892335Y-116506206D01*
X154892328Y-116506202D01*
X154757482Y-116455908D01*
X154757483Y-116455908D01*
X154697883Y-116449501D01*
X154697881Y-116449500D01*
X154697873Y-116449500D01*
X154697865Y-116449500D01*
X153025300Y-116449500D01*
X152958261Y-116429815D01*
X152912506Y-116377011D01*
X152901300Y-116325500D01*
X152901300Y-116179472D01*
X152920985Y-116112433D01*
X152926917Y-116103995D01*
X153004536Y-116002841D01*
X153065044Y-115856762D01*
X153080500Y-115739361D01*
X153080499Y-115460640D01*
X153080499Y-115460638D01*
X153080499Y-115460636D01*
X153065046Y-115343246D01*
X153065044Y-115343239D01*
X153065044Y-115343238D01*
X153004536Y-115197159D01*
X152908282Y-115071718D01*
X152782841Y-114975464D01*
X152767660Y-114969176D01*
X152636762Y-114914956D01*
X152636760Y-114914955D01*
X152519361Y-114899500D01*
X152180636Y-114899500D01*
X152063246Y-114914953D01*
X152063237Y-114914956D01*
X151917160Y-114975463D01*
X151791718Y-115071718D01*
X151695463Y-115197160D01*
X151634956Y-115343237D01*
X151634955Y-115343239D01*
X151619500Y-115460638D01*
X151619500Y-115739363D01*
X151634953Y-115856753D01*
X151634956Y-115856762D01*
X151695464Y-116002842D01*
X151700644Y-116009592D01*
X151773075Y-116103986D01*
X151798270Y-116169154D01*
X151798700Y-116179472D01*
X151798700Y-116325500D01*
X151779015Y-116392539D01*
X151726211Y-116438294D01*
X151674700Y-116449500D01*
X150602129Y-116449500D01*
X150602123Y-116449501D01*
X150542516Y-116455908D01*
X150407671Y-116506202D01*
X150407664Y-116506206D01*
X150292455Y-116592452D01*
X150292452Y-116592455D01*
X150206206Y-116707664D01*
X150206202Y-116707671D01*
X150155908Y-116842517D01*
X150151103Y-116887217D01*
X150149501Y-116902123D01*
X150149500Y-116902135D01*
X150149500Y-118997870D01*
X141900500Y-118997870D01*
X141900499Y-116902128D01*
X141894091Y-116842517D01*
X141886481Y-116822114D01*
X141843797Y-116707671D01*
X141843793Y-116707664D01*
X141757547Y-116592455D01*
X141757544Y-116592452D01*
X141642335Y-116506206D01*
X141642328Y-116506202D01*
X141507482Y-116455908D01*
X141507483Y-116455908D01*
X141447883Y-116449501D01*
X141447881Y-116449500D01*
X141447873Y-116449500D01*
X141447865Y-116449500D01*
X141344500Y-116449500D01*
X141277461Y-116429815D01*
X141231706Y-116377011D01*
X141220500Y-116325500D01*
X141220500Y-116315354D01*
X141240185Y-116248315D01*
X141246113Y-116239881D01*
X141274536Y-116202841D01*
X141335044Y-116056762D01*
X141350500Y-115939361D01*
X141350499Y-115660640D01*
X141350499Y-115660638D01*
X141350499Y-115660636D01*
X141335046Y-115543246D01*
X141335044Y-115543239D01*
X141335044Y-115543238D01*
X141274536Y-115397159D01*
X141178282Y-115271718D01*
X141052841Y-115175464D01*
X140906762Y-115114956D01*
X140906760Y-115114955D01*
X140789361Y-115099500D01*
X140450636Y-115099500D01*
X140333246Y-115114953D01*
X140333237Y-115114956D01*
X140187160Y-115175463D01*
X140061718Y-115271718D01*
X139965463Y-115397160D01*
X139904956Y-115543237D01*
X139904955Y-115543239D01*
X139889500Y-115660638D01*
X139889500Y-115939363D01*
X139904953Y-116056753D01*
X139904957Y-116056765D01*
X139965461Y-116202836D01*
X139965461Y-116202837D01*
X139965463Y-116202840D01*
X139965464Y-116202841D01*
X139993876Y-116239869D01*
X140019070Y-116305036D01*
X140019500Y-116315354D01*
X140019500Y-116325500D01*
X139999815Y-116392539D01*
X139947011Y-116438294D01*
X139895500Y-116449500D01*
X137352129Y-116449500D01*
X137352123Y-116449501D01*
X137292516Y-116455908D01*
X137157671Y-116506202D01*
X137157664Y-116506206D01*
X137042455Y-116592452D01*
X137042452Y-116592455D01*
X136956206Y-116707664D01*
X136956202Y-116707671D01*
X136905908Y-116842517D01*
X136901103Y-116887217D01*
X136899501Y-116902123D01*
X136899500Y-116902135D01*
X136899500Y-118997870D01*
X128800500Y-118997870D01*
X128800499Y-116952128D01*
X128794091Y-116892517D01*
X128792114Y-116887217D01*
X128743797Y-116757671D01*
X128743793Y-116757664D01*
X128657547Y-116642455D01*
X128657544Y-116642452D01*
X128542335Y-116556206D01*
X128542328Y-116556202D01*
X128407482Y-116505908D01*
X128407483Y-116505908D01*
X128347883Y-116499501D01*
X128347881Y-116499500D01*
X128347873Y-116499500D01*
X128347865Y-116499500D01*
X126975300Y-116499500D01*
X126908261Y-116479815D01*
X126862506Y-116427011D01*
X126851300Y-116375500D01*
X126851300Y-116353408D01*
X126870985Y-116286369D01*
X126876913Y-116277935D01*
X126934536Y-116202841D01*
X126995044Y-116056762D01*
X127010500Y-115939361D01*
X127010499Y-115660640D01*
X127010499Y-115660638D01*
X127010499Y-115660636D01*
X126995046Y-115543246D01*
X126995044Y-115543239D01*
X126995044Y-115543238D01*
X126934536Y-115397159D01*
X126838282Y-115271718D01*
X126712841Y-115175464D01*
X126566762Y-115114956D01*
X126566760Y-115114955D01*
X126449361Y-115099500D01*
X126110636Y-115099500D01*
X125993246Y-115114953D01*
X125993237Y-115114956D01*
X125847160Y-115175463D01*
X125721718Y-115271718D01*
X125625463Y-115397160D01*
X125564956Y-115543237D01*
X125564955Y-115543239D01*
X125549500Y-115660638D01*
X125549500Y-115939363D01*
X125564953Y-116056753D01*
X125564956Y-116056762D01*
X125625464Y-116202842D01*
X125700026Y-116300014D01*
X125725220Y-116365184D01*
X125711181Y-116433628D01*
X125662367Y-116483618D01*
X125601650Y-116499500D01*
X124252129Y-116499500D01*
X124252123Y-116499501D01*
X124192516Y-116505908D01*
X124057671Y-116556202D01*
X124057664Y-116556206D01*
X123942455Y-116642452D01*
X123942452Y-116642455D01*
X123856206Y-116757664D01*
X123856202Y-116757671D01*
X123805908Y-116892517D01*
X123802649Y-116922834D01*
X123799501Y-116952123D01*
X123799500Y-116952135D01*
X123799500Y-119047870D01*
X118043700Y-119047870D01*
X118043700Y-118649508D01*
X118063385Y-118582469D01*
X118080014Y-118561832D01*
X135784696Y-100857149D01*
X135784701Y-100857146D01*
X135794904Y-100846942D01*
X135794906Y-100846942D01*
X135897550Y-100744298D01*
X135950596Y-100652420D01*
X135970128Y-100618590D01*
X135970128Y-100618588D01*
X135970130Y-100618586D01*
X135986458Y-100557649D01*
X136007700Y-100478373D01*
X136007700Y-100333212D01*
X136007700Y-90336718D01*
X136027385Y-90269679D01*
X136080189Y-90223924D01*
X136149347Y-90213980D01*
X136212903Y-90243005D01*
X136219381Y-90249037D01*
X137896850Y-91926506D01*
X137999494Y-92029150D01*
X138125206Y-92101730D01*
X138265420Y-92139300D01*
X156174175Y-92139300D01*
X156241214Y-92158985D01*
X156286969Y-92211789D01*
X156298175Y-92263300D01*
X156298175Y-92275500D01*
X156278490Y-92342539D01*
X156225686Y-92388294D01*
X156174176Y-92399500D01*
X155935636Y-92399500D01*
X155818246Y-92414953D01*
X155818237Y-92414956D01*
X155672160Y-92475463D01*
X155546718Y-92571718D01*
X155450463Y-92697160D01*
X155389956Y-92843237D01*
X155389955Y-92843239D01*
X155374500Y-92960638D01*
X155374500Y-93299363D01*
X155389955Y-93416763D01*
X155390263Y-93417912D01*
X155390263Y-93419101D01*
X155391016Y-93424821D01*
X155390263Y-93424920D01*
X155390265Y-93475081D01*
X155391017Y-93475180D01*
X155390265Y-93480884D01*
X155390266Y-93482079D01*
X155389956Y-93483234D01*
X155374500Y-93600638D01*
X155374500Y-93939363D01*
X155389953Y-94056753D01*
X155389956Y-94056762D01*
X155444683Y-94188886D01*
X155450464Y-94202841D01*
X155546718Y-94328282D01*
X155672159Y-94424536D01*
X155818238Y-94485044D01*
X155935639Y-94500500D01*
X155949447Y-94500499D01*
X156016485Y-94520180D01*
X156062242Y-94572981D01*
X156072190Y-94642139D01*
X156043168Y-94705696D01*
X156037133Y-94712180D01*
X155937016Y-94812297D01*
X155850035Y-94950725D01*
X155805619Y-95077662D01*
X155764897Y-95134438D01*
X155729532Y-95153749D01*
X155641051Y-95184710D01*
X155641047Y-95184712D01*
X155502620Y-95271692D01*
X155387017Y-95387295D01*
X155300035Y-95525725D01*
X155246037Y-95680044D01*
X155227734Y-95842496D01*
X155227734Y-95842503D01*
X155246037Y-96004955D01*
X155300035Y-96159274D01*
X155387017Y-96297704D01*
X155387018Y-96297705D01*
X155406633Y-96317321D01*
X155440117Y-96378644D01*
X155435131Y-96448336D01*
X155406632Y-96492681D01*
X155287016Y-96612297D01*
X155200035Y-96750725D01*
X155146037Y-96905044D01*
X155127734Y-97067496D01*
X155127734Y-97067503D01*
X155146037Y-97229955D01*
X155200035Y-97384274D01*
X155257498Y-97475725D01*
X155287017Y-97522704D01*
X155402621Y-97638308D01*
X155402629Y-97638313D01*
X155402807Y-97638455D01*
X155402898Y-97638585D01*
X155407545Y-97643232D01*
X155406731Y-97644045D01*
X155442951Y-97695641D01*
X155449500Y-97735407D01*
X155449500Y-97994363D01*
X155464955Y-98111763D01*
X155465263Y-98112912D01*
X155465263Y-98114101D01*
X155466016Y-98119821D01*
X155465263Y-98119920D01*
X155465265Y-98170081D01*
X155466017Y-98170180D01*
X155465265Y-98175884D01*
X155465266Y-98177079D01*
X155464956Y-98178234D01*
X155449500Y-98295638D01*
X155449500Y-98634363D01*
X155464953Y-98751753D01*
X155464956Y-98751762D01*
X155525464Y-98897841D01*
X155621718Y-99023282D01*
X155747159Y-99119536D01*
X155747160Y-99119536D01*
X155753608Y-99124484D01*
X155752548Y-99125864D01*
X155793939Y-99169264D01*
X155807171Y-99237870D01*
X155781211Y-99302738D01*
X155731185Y-99340659D01*
X155647159Y-99375464D01*
X155521718Y-99471718D01*
X155425463Y-99597160D01*
X155364956Y-99743237D01*
X155364955Y-99743239D01*
X155349500Y-99860638D01*
X155349500Y-100199363D01*
X155364955Y-100316763D01*
X155365263Y-100317912D01*
X155365263Y-100319101D01*
X155366016Y-100324821D01*
X155365263Y-100324920D01*
X155365265Y-100375081D01*
X155366017Y-100375180D01*
X155365265Y-100380884D01*
X155365266Y-100382079D01*
X155364956Y-100383234D01*
X155349500Y-100500638D01*
X155349500Y-100839363D01*
X155364953Y-100956753D01*
X155364956Y-100956762D01*
X155425464Y-101102841D01*
X155521718Y-101228282D01*
X155647159Y-101324536D01*
X155793238Y-101385044D01*
X155849717Y-101392479D01*
X155913613Y-101420745D01*
X155952085Y-101479069D01*
X155952917Y-101548934D01*
X155921214Y-101603098D01*
X155887017Y-101637295D01*
X155800034Y-101775727D01*
X155745153Y-101932568D01*
X155704432Y-101989344D01*
X155669077Y-102008651D01*
X155666058Y-102009707D01*
X155666050Y-102009711D01*
X155527620Y-102096692D01*
X155412017Y-102212295D01*
X155325035Y-102350725D01*
X155271037Y-102505044D01*
X155252734Y-102667496D01*
X155252734Y-102667503D01*
X155271037Y-102829955D01*
X155325035Y-102984274D01*
X155412017Y-103122704D01*
X155531632Y-103242319D01*
X155565117Y-103303642D01*
X155560133Y-103373334D01*
X155531632Y-103417681D01*
X155412017Y-103537295D01*
X155325035Y-103675725D01*
X155271037Y-103830044D01*
X155252734Y-103992496D01*
X155252734Y-103992503D01*
X155271037Y-104154953D01*
X155271038Y-104154957D01*
X155271039Y-104154961D01*
X155304523Y-104250652D01*
X155308084Y-104320429D01*
X155302043Y-104339055D01*
X155289957Y-104368234D01*
X155289955Y-104368239D01*
X155274500Y-104485638D01*
X155274500Y-104824363D01*
X155289955Y-104941763D01*
X155290263Y-104942912D01*
X155290263Y-104944101D01*
X155291016Y-104949821D01*
X155290263Y-104949920D01*
X155290265Y-105000081D01*
X155291017Y-105000180D01*
X155290265Y-105005884D01*
X155290266Y-105007079D01*
X155289956Y-105008234D01*
X155274500Y-105125638D01*
X155274500Y-105464363D01*
X155289953Y-105581753D01*
X155289956Y-105581762D01*
X155306348Y-105621337D01*
X155350464Y-105727841D01*
X155446718Y-105853282D01*
X155572159Y-105949536D01*
X155572163Y-105949539D01*
X155579196Y-105953599D01*
X155577968Y-105955725D01*
X155622711Y-105991787D01*
X155644771Y-106058083D01*
X155627487Y-106125781D01*
X155578946Y-106170968D01*
X155579196Y-106171401D01*
X155577314Y-106172487D01*
X155576347Y-106173388D01*
X155573510Y-106174683D01*
X155572163Y-106175460D01*
X155446718Y-106271718D01*
X155350463Y-106397160D01*
X155289956Y-106543237D01*
X155289955Y-106543239D01*
X155274500Y-106660638D01*
X155274500Y-106999363D01*
X155289955Y-107116763D01*
X155290263Y-107117912D01*
X155290263Y-107119101D01*
X155291016Y-107124821D01*
X155290263Y-107124920D01*
X155290265Y-107175081D01*
X155291017Y-107175180D01*
X155290265Y-107180884D01*
X155290266Y-107182079D01*
X155289956Y-107183234D01*
X155274500Y-107300638D01*
X155274500Y-107639363D01*
X155289953Y-107756753D01*
X155289956Y-107756762D01*
X155334331Y-107863894D01*
X155350464Y-107902841D01*
X155446718Y-108028282D01*
X155572159Y-108124536D01*
X155718238Y-108185044D01*
X155835639Y-108200500D01*
X155849447Y-108200499D01*
X155916485Y-108220180D01*
X155962242Y-108272981D01*
X155972190Y-108342139D01*
X155943168Y-108405696D01*
X155937133Y-108412179D01*
X155887017Y-108462295D01*
X155800035Y-108600725D01*
X155746037Y-108755044D01*
X155741190Y-108798066D01*
X155714123Y-108862480D01*
X155683943Y-108889175D01*
X155552623Y-108971690D01*
X155552620Y-108971692D01*
X155437017Y-109087295D01*
X155350035Y-109225725D01*
X155296037Y-109380044D01*
X155277734Y-109542496D01*
X155277734Y-109542503D01*
X155296037Y-109704955D01*
X155350035Y-109859274D01*
X155437017Y-109997704D01*
X155556632Y-110117319D01*
X155590117Y-110178642D01*
X155585133Y-110248334D01*
X155556632Y-110292681D01*
X155462017Y-110387295D01*
X155375035Y-110525725D01*
X155321037Y-110680044D01*
X155302734Y-110842496D01*
X155302734Y-110842503D01*
X155321037Y-111004955D01*
X155375454Y-111160472D01*
X155379015Y-111230251D01*
X155372975Y-111248873D01*
X155364957Y-111268232D01*
X155364956Y-111268234D01*
X155349500Y-111385638D01*
X155349500Y-111724363D01*
X155364955Y-111841763D01*
X155365263Y-111842912D01*
X155365263Y-111844101D01*
X155366016Y-111849821D01*
X155365263Y-111849920D01*
X155365265Y-111900081D01*
X155366017Y-111900180D01*
X155365265Y-111905884D01*
X155365266Y-111907079D01*
X155364956Y-111908234D01*
X155349500Y-112025638D01*
X155349500Y-112364363D01*
X155364953Y-112481753D01*
X155364956Y-112481762D01*
X155425464Y-112627841D01*
X155521718Y-112753282D01*
X155647159Y-112849536D01*
X155793238Y-112910044D01*
X155910639Y-112925500D01*
X156180139Y-112925499D01*
X156247178Y-112945183D01*
X156292933Y-112997987D01*
X156303428Y-113036241D01*
X156304582Y-113046980D01*
X156354877Y-113181828D01*
X156354881Y-113181835D01*
X156441127Y-113297044D01*
X156441130Y-113297047D01*
X156556339Y-113383293D01*
X156556346Y-113383297D01*
X156691192Y-113433591D01*
X156691191Y-113433591D01*
X156698119Y-113434335D01*
X156750802Y-113440000D01*
X157862547Y-113439999D01*
X157922158Y-113433591D01*
X157922159Y-113433590D01*
X157928424Y-113432917D01*
X157954934Y-113432918D01*
X157961191Y-113433590D01*
X157961192Y-113433591D01*
X158020802Y-113440000D01*
X158878547Y-113439999D01*
X158938158Y-113433591D01*
X159073006Y-113383296D01*
X159188221Y-113297046D01*
X159274471Y-113181831D01*
X159324766Y-113046983D01*
X159331175Y-112987373D01*
X159331174Y-112889701D01*
X159350858Y-112822664D01*
X159403661Y-112776908D01*
X159414206Y-112772665D01*
X159549600Y-112725289D01*
X159688029Y-112638308D01*
X159803633Y-112522704D01*
X159890614Y-112384275D01*
X159944611Y-112229961D01*
X159944612Y-112229955D01*
X159962916Y-112067503D01*
X159962916Y-112067496D01*
X159944612Y-111905044D01*
X159944611Y-111905042D01*
X159944611Y-111905039D01*
X159923313Y-111844176D01*
X159919751Y-111774402D01*
X159923314Y-111762269D01*
X159936579Y-111724360D01*
X159969611Y-111629961D01*
X159969611Y-111629959D01*
X159969612Y-111629957D01*
X159987916Y-111467503D01*
X159987916Y-111467496D01*
X159969612Y-111305042D01*
X159935814Y-111208455D01*
X159932251Y-111138677D01*
X159935814Y-111126545D01*
X159969612Y-111029957D01*
X159987916Y-110867503D01*
X159987916Y-110867496D01*
X159969612Y-110705042D01*
X159918940Y-110560231D01*
X159915378Y-110490452D01*
X159918934Y-110478338D01*
X159944611Y-110404961D01*
X159946601Y-110387296D01*
X159962916Y-110242503D01*
X159962916Y-110242496D01*
X159944612Y-110080044D01*
X159944611Y-110080042D01*
X159944611Y-110080039D01*
X159890614Y-109925725D01*
X159803633Y-109787296D01*
X159688029Y-109671692D01*
X159688027Y-109671690D01*
X159578522Y-109602883D01*
X159532232Y-109550548D01*
X159521584Y-109481495D01*
X159549959Y-109417647D01*
X159556790Y-109410233D01*
X159644350Y-109322674D01*
X159716930Y-109196962D01*
X159724480Y-109168782D01*
X159734795Y-109130293D01*
X159744647Y-109093521D01*
X159754500Y-109056749D01*
X159754500Y-108911588D01*
X159754500Y-107280620D01*
X159716930Y-107140406D01*
X159707166Y-107123495D01*
X159644352Y-107014697D01*
X159644347Y-107014691D01*
X159219880Y-106590224D01*
X159186395Y-106528901D01*
X159191379Y-106459209D01*
X159208294Y-106428232D01*
X159231555Y-106397159D01*
X159274471Y-106339831D01*
X159324766Y-106204983D01*
X159331175Y-106145373D01*
X159331174Y-106077955D01*
X159350858Y-106010918D01*
X159403661Y-105965162D01*
X159441299Y-105954735D01*
X159445286Y-105954286D01*
X159599600Y-105900289D01*
X159738029Y-105813308D01*
X159853633Y-105697704D01*
X159940614Y-105559275D01*
X159994611Y-105404961D01*
X160012916Y-105242500D01*
X160009660Y-105213599D01*
X159994612Y-105080042D01*
X159982877Y-105046505D01*
X159948313Y-104947730D01*
X159944752Y-104877952D01*
X159948308Y-104865837D01*
X159969611Y-104804961D01*
X159971015Y-104792500D01*
X159987916Y-104642503D01*
X159987916Y-104642496D01*
X159969612Y-104480042D01*
X159968895Y-104476901D01*
X159969022Y-104474812D01*
X159968832Y-104473118D01*
X159969128Y-104473084D01*
X159973164Y-104407162D01*
X159984791Y-104383328D01*
X160015614Y-104334275D01*
X160069611Y-104179961D01*
X160069611Y-104179959D01*
X160069612Y-104179957D01*
X160087916Y-104017503D01*
X160087916Y-104017496D01*
X160069612Y-103855044D01*
X160069611Y-103855042D01*
X160069611Y-103855039D01*
X160015614Y-103700725D01*
X159964565Y-103619481D01*
X159945565Y-103552245D01*
X159946339Y-103539625D01*
X159962916Y-103392502D01*
X159962916Y-103392496D01*
X159944612Y-103230044D01*
X159944611Y-103230042D01*
X159944611Y-103230039D01*
X159890614Y-103075725D01*
X159803633Y-102937296D01*
X159688029Y-102821692D01*
X159688026Y-102821690D01*
X159599898Y-102766314D01*
X159553607Y-102713979D01*
X159542960Y-102644925D01*
X159571336Y-102581077D01*
X159578166Y-102573664D01*
X159666150Y-102485681D01*
X159738730Y-102359969D01*
X159757250Y-102290850D01*
X159776300Y-102219756D01*
X159776300Y-102074595D01*
X159776300Y-100652420D01*
X159759174Y-100588506D01*
X159738730Y-100512206D01*
X159710202Y-100462794D01*
X159666150Y-100386494D01*
X159563506Y-100283850D01*
X159563505Y-100283849D01*
X159559175Y-100279519D01*
X159559164Y-100279509D01*
X159120406Y-99840750D01*
X159086921Y-99779427D01*
X159091905Y-99709735D01*
X159133775Y-99653803D01*
X159188221Y-99613046D01*
X159274471Y-99497831D01*
X159324766Y-99362983D01*
X159331175Y-99303373D01*
X159331174Y-99204709D01*
X159350858Y-99137672D01*
X159403661Y-99091916D01*
X159414222Y-99087668D01*
X159449597Y-99075290D01*
X159449600Y-99075289D01*
X159588029Y-98988308D01*
X159703633Y-98872704D01*
X159790614Y-98734275D01*
X159844611Y-98579961D01*
X159862916Y-98417500D01*
X159849186Y-98295639D01*
X159844612Y-98255042D01*
X159835708Y-98229596D01*
X159806439Y-98145954D01*
X159802877Y-98076177D01*
X159806440Y-98064045D01*
X159844611Y-97954961D01*
X159844611Y-97954959D01*
X159844612Y-97954957D01*
X159862916Y-97792503D01*
X159862916Y-97792496D01*
X159844612Y-97630042D01*
X159831859Y-97593597D01*
X159793939Y-97485229D01*
X159790378Y-97415452D01*
X159793934Y-97403338D01*
X159819611Y-97329961D01*
X159829522Y-97241998D01*
X159837916Y-97167503D01*
X159837916Y-97167496D01*
X159819612Y-97005046D01*
X159819611Y-97005045D01*
X159819611Y-97005039D01*
X159777065Y-96883452D01*
X159773505Y-96813676D01*
X159777062Y-96801558D01*
X159819611Y-96679961D01*
X159837916Y-96517500D01*
X159835571Y-96496692D01*
X159819612Y-96355044D01*
X159819611Y-96355042D01*
X159819611Y-96355039D01*
X159765614Y-96200725D01*
X159678657Y-96062335D01*
X159659658Y-95995100D01*
X159680026Y-95928264D01*
X159695960Y-95908694D01*
X159841150Y-95763506D01*
X159913730Y-95637794D01*
X159951300Y-95497580D01*
X159951300Y-95352420D01*
X159951300Y-93752420D01*
X159940682Y-93712794D01*
X159913730Y-93612206D01*
X159890026Y-93571150D01*
X159841150Y-93486494D01*
X159738506Y-93383850D01*
X159734175Y-93379519D01*
X159734164Y-93379509D01*
X159237432Y-92882776D01*
X159203947Y-92821453D01*
X159208931Y-92751761D01*
X159225844Y-92720787D01*
X159274471Y-92655831D01*
X159324766Y-92520983D01*
X159331175Y-92461373D01*
X159331174Y-92363652D01*
X159350858Y-92296615D01*
X159403661Y-92250859D01*
X159414208Y-92246616D01*
X159500061Y-92216575D01*
X159516734Y-92210741D01*
X159534059Y-92199855D01*
X159655165Y-92123759D01*
X159770769Y-92008155D01*
X159857750Y-91869726D01*
X159911747Y-91715412D01*
X159917294Y-91666181D01*
X159930052Y-91552954D01*
X159930052Y-91552947D01*
X159911748Y-91390495D01*
X159911747Y-91390493D01*
X159911747Y-91390490D01*
X159881889Y-91305163D01*
X159878327Y-91235389D01*
X159881883Y-91223279D01*
X159919611Y-91115461D01*
X159923561Y-91080403D01*
X159937916Y-90953003D01*
X159937916Y-90952996D01*
X159919612Y-90790542D01*
X159875778Y-90665272D01*
X159872216Y-90595493D01*
X159875770Y-90583386D01*
X159911786Y-90480461D01*
X159930091Y-90318000D01*
X159924401Y-90267503D01*
X159911787Y-90155544D01*
X159911786Y-90155542D01*
X159911786Y-90155539D01*
X159875778Y-90052634D01*
X159872217Y-89982855D01*
X159875779Y-89970725D01*
X159919612Y-89845457D01*
X159937916Y-89683003D01*
X159937916Y-89682996D01*
X159919612Y-89520544D01*
X159919611Y-89520542D01*
X159919611Y-89520539D01*
X159867189Y-89370728D01*
X159863629Y-89300950D01*
X159867186Y-89288833D01*
X159894611Y-89210461D01*
X159894612Y-89210455D01*
X159912916Y-89048003D01*
X159912916Y-89047996D01*
X159894612Y-88885544D01*
X159894611Y-88885542D01*
X159894611Y-88885539D01*
X159887848Y-88866214D01*
X159884286Y-88796437D01*
X159899896Y-88759288D01*
X159915614Y-88734275D01*
X159969611Y-88579961D01*
X159969611Y-88579959D01*
X159969612Y-88579957D01*
X159987916Y-88417503D01*
X159987916Y-88417496D01*
X159969612Y-88255044D01*
X159969611Y-88255042D01*
X159969611Y-88255039D01*
X159915614Y-88100725D01*
X159828633Y-87962296D01*
X159713029Y-87846692D01*
X159691186Y-87832967D01*
X159574599Y-87759710D01*
X159420280Y-87705712D01*
X159257829Y-87687409D01*
X159257821Y-87687409D01*
X159095365Y-87705713D01*
X159095364Y-87705713D01*
X159025155Y-87730280D01*
X158955377Y-87733841D01*
X158940871Y-87729421D01*
X158939559Y-87728931D01*
X158938156Y-87728408D01*
X158878558Y-87722001D01*
X158878556Y-87722000D01*
X158878548Y-87722000D01*
X158878540Y-87722000D01*
X158439174Y-87722000D01*
X158372135Y-87702315D01*
X158326380Y-87649511D01*
X158315174Y-87598000D01*
X158315174Y-87539629D01*
X158315173Y-87539623D01*
X158315172Y-87539616D01*
X158308766Y-87480017D01*
X158258471Y-87345169D01*
X158258470Y-87345168D01*
X158258468Y-87345164D01*
X158172222Y-87229955D01*
X158172219Y-87229952D01*
X158057010Y-87143706D01*
X158057003Y-87143702D01*
X157922157Y-87093408D01*
X157922158Y-87093408D01*
X157862558Y-87087001D01*
X157862556Y-87087000D01*
X157862548Y-87087000D01*
X157862539Y-87087000D01*
X156750804Y-87087000D01*
X156750798Y-87087001D01*
X156691191Y-87093408D01*
X156556346Y-87143702D01*
X156556339Y-87143706D01*
X156441130Y-87229952D01*
X156441127Y-87229955D01*
X156354881Y-87345164D01*
X156354877Y-87345171D01*
X156304583Y-87480017D01*
X156298176Y-87539616D01*
X156298176Y-87539623D01*
X156298175Y-87539635D01*
X156298175Y-87634243D01*
X156278490Y-87701282D01*
X156225686Y-87747037D01*
X156215133Y-87751283D01*
X156191052Y-87759710D01*
X156191047Y-87759712D01*
X156052620Y-87846692D01*
X155937017Y-87962295D01*
X155850034Y-88100727D01*
X155810662Y-88213246D01*
X155769941Y-88270022D01*
X155704988Y-88295769D01*
X155679738Y-88295511D01*
X155607829Y-88287409D01*
X155607821Y-88287409D01*
X155445369Y-88305712D01*
X155291050Y-88359710D01*
X155152620Y-88446692D01*
X155037017Y-88562295D01*
X154950035Y-88700725D01*
X154896037Y-88855044D01*
X154877734Y-89017496D01*
X154877734Y-89017503D01*
X154896037Y-89179955D01*
X154950035Y-89334274D01*
X155037017Y-89472704D01*
X155152622Y-89588309D01*
X155158071Y-89592655D01*
X155156529Y-89594587D01*
X155195212Y-89638294D01*
X155205880Y-89707345D01*
X155177524Y-89771201D01*
X155170646Y-89778666D01*
X155137017Y-89812295D01*
X155050035Y-89950725D01*
X154996037Y-90105044D01*
X154977734Y-90267496D01*
X154977734Y-90267503D01*
X154996037Y-90429955D01*
X155050035Y-90584274D01*
X155137017Y-90722704D01*
X155239332Y-90825019D01*
X155272817Y-90886342D01*
X155267833Y-90956034D01*
X155225961Y-91011967D01*
X155160497Y-91036384D01*
X155151651Y-91036700D01*
X138617718Y-91036700D01*
X138550679Y-91017015D01*
X138530037Y-91000381D01*
X136804478Y-89274822D01*
X136770993Y-89213499D01*
X136768939Y-89201023D01*
X136761787Y-89137547D01*
X136761786Y-89137541D01*
X136761786Y-89137539D01*
X136707789Y-88983225D01*
X136620808Y-88844796D01*
X136505204Y-88729192D01*
X136459899Y-88700725D01*
X136366774Y-88642210D01*
X136212455Y-88588212D01*
X136117816Y-88577549D01*
X136053402Y-88550482D01*
X136013847Y-88492887D01*
X136007700Y-88454329D01*
X136007700Y-88373318D01*
X136027385Y-88306279D01*
X136044019Y-88285637D01*
X139164470Y-85165186D01*
X142501750Y-81827906D01*
X142574330Y-81702194D01*
X142611900Y-81561980D01*
X142611900Y-81416820D01*
X142611900Y-80299499D01*
X142631585Y-80232460D01*
X142684389Y-80186705D01*
X142735900Y-80175499D01*
X144172871Y-80175499D01*
X144172872Y-80175499D01*
X144232483Y-80169091D01*
X144367331Y-80118796D01*
X144482546Y-80032546D01*
X144568796Y-79917331D01*
X144619091Y-79782483D01*
X144625500Y-79722873D01*
X144625499Y-78247128D01*
X144619091Y-78187517D01*
X144603233Y-78145000D01*
X144568797Y-78052671D01*
X144568793Y-78052664D01*
X144482547Y-77937455D01*
X144482544Y-77937452D01*
X144367335Y-77851206D01*
X144367328Y-77851202D01*
X144232482Y-77800908D01*
X144232483Y-77800908D01*
X144172883Y-77794501D01*
X144172881Y-77794500D01*
X144172873Y-77794500D01*
X144172864Y-77794500D01*
X142267129Y-77794500D01*
X142267121Y-77794501D01*
X142242164Y-77797184D01*
X142173405Y-77784777D01*
X142141231Y-77761575D01*
X142138508Y-77758852D01*
X142138502Y-77758847D01*
X142012796Y-77686271D01*
X142012795Y-77686270D01*
X142012794Y-77686270D01*
X141872580Y-77648700D01*
X141872579Y-77648700D01*
X141329500Y-77648700D01*
X141262461Y-77629015D01*
X141216706Y-77576211D01*
X141205500Y-77524700D01*
X141205499Y-76793809D01*
X141205498Y-76793784D01*
X141205208Y-76790102D01*
X141202576Y-76756642D01*
X141172097Y-76651733D01*
X141172296Y-76581864D01*
X141186177Y-76551168D01*
X141207789Y-76516775D01*
X141261786Y-76362461D01*
X141261786Y-76362459D01*
X141261787Y-76362457D01*
X141280091Y-76200003D01*
X141280091Y-76199996D01*
X141261787Y-76037544D01*
X141261786Y-76037542D01*
X141261786Y-76037539D01*
X141207789Y-75883225D01*
X141120808Y-75744796D01*
X141005204Y-75629192D01*
X140993839Y-75622051D01*
X140866774Y-75542210D01*
X140712455Y-75488212D01*
X140651418Y-75481335D01*
X140587005Y-75454268D01*
X140577622Y-75445796D01*
X140414696Y-75282870D01*
X141724500Y-75282870D01*
X141724501Y-75282876D01*
X141730908Y-75342483D01*
X141781202Y-75477328D01*
X141781206Y-75477335D01*
X141867452Y-75592544D01*
X141867455Y-75592547D01*
X141982664Y-75678793D01*
X141982671Y-75678797D01*
X142117517Y-75729091D01*
X142117516Y-75729091D01*
X142118456Y-75729192D01*
X142177127Y-75735500D01*
X144222872Y-75735499D01*
X144282483Y-75729091D01*
X144417331Y-75678796D01*
X144532546Y-75592546D01*
X144618796Y-75477331D01*
X144669091Y-75342483D01*
X144675500Y-75282873D01*
X144675499Y-73387128D01*
X144669091Y-73327517D01*
X144634942Y-73235960D01*
X144618797Y-73192671D01*
X144618793Y-73192664D01*
X144532547Y-73077455D01*
X144532544Y-73077452D01*
X144417335Y-72991206D01*
X144417328Y-72991202D01*
X144282482Y-72940908D01*
X144282483Y-72940908D01*
X144222883Y-72934501D01*
X144222881Y-72934500D01*
X144222873Y-72934500D01*
X144222864Y-72934500D01*
X142177129Y-72934500D01*
X142177123Y-72934501D01*
X142117516Y-72940908D01*
X141982671Y-72991202D01*
X141982664Y-72991206D01*
X141867455Y-73077452D01*
X141867452Y-73077455D01*
X141781206Y-73192664D01*
X141781202Y-73192671D01*
X141730908Y-73327517D01*
X141724501Y-73387116D01*
X141724501Y-73387123D01*
X141724500Y-73387135D01*
X141724500Y-75282870D01*
X140414696Y-75282870D01*
X139777495Y-74645669D01*
X139777489Y-74645664D01*
X139651783Y-74573088D01*
X139651782Y-74573087D01*
X139651781Y-74573087D01*
X139511567Y-74535517D01*
X139511566Y-74535517D01*
X139091271Y-74535517D01*
X139024232Y-74515832D01*
X139003590Y-74499198D01*
X137338792Y-72834400D01*
X137305307Y-72773077D01*
X137310291Y-72703385D01*
X137352163Y-72647452D01*
X137417627Y-72623035D01*
X137426335Y-72622719D01*
X160326596Y-72602051D01*
X160393651Y-72621675D01*
G37*
G04 #@! TD.AperFunction*
G04 #@! TA.AperFunction,Conductor*
G36*
X139230707Y-82954357D02*
G01*
X139285381Y-82962870D01*
X139337647Y-83009238D01*
X139356549Y-83076502D01*
X139336083Y-83143308D01*
X139320238Y-83162737D01*
X134914694Y-87568282D01*
X134812052Y-87670923D01*
X134812047Y-87670929D01*
X134739471Y-87796634D01*
X134739471Y-87796635D01*
X134701900Y-87936852D01*
X134701900Y-100041906D01*
X134682215Y-100108945D01*
X134665581Y-100129587D01*
X117973053Y-116822114D01*
X117911730Y-116855599D01*
X117842038Y-116850615D01*
X117786105Y-116808743D01*
X117761688Y-116743279D01*
X117765597Y-116702340D01*
X117795040Y-116592455D01*
X117825063Y-116480408D01*
X117845659Y-116245000D01*
X117825063Y-116009592D01*
X117763903Y-115781337D01*
X117664035Y-115567171D01*
X117647277Y-115543237D01*
X117528494Y-115373597D01*
X117361402Y-115206506D01*
X117361396Y-115206501D01*
X117175842Y-115076575D01*
X117132217Y-115021998D01*
X117125023Y-114952500D01*
X117156546Y-114890145D01*
X117175842Y-114873425D01*
X117198026Y-114857891D01*
X117361401Y-114743495D01*
X117528495Y-114576401D01*
X117664035Y-114382830D01*
X117763903Y-114168663D01*
X117825063Y-113940408D01*
X117845659Y-113705000D01*
X117825063Y-113469592D01*
X117763903Y-113241337D01*
X117664035Y-113027171D01*
X117643601Y-112997987D01*
X117528494Y-112833597D01*
X117399957Y-112705060D01*
X117366472Y-112643737D01*
X117371456Y-112574045D01*
X117399957Y-112529698D01*
X122973260Y-106956395D01*
X128647550Y-101282106D01*
X128720130Y-101156394D01*
X128757700Y-101016180D01*
X128757700Y-100871020D01*
X128757700Y-91662859D01*
X128777385Y-91595820D01*
X128794019Y-91575178D01*
X129064029Y-91305168D01*
X129370150Y-90999047D01*
X129442730Y-90873335D01*
X129480300Y-90733121D01*
X129480300Y-90587961D01*
X129480300Y-90066879D01*
X129442730Y-89926665D01*
X129430626Y-89905701D01*
X129370152Y-89800956D01*
X129370147Y-89800950D01*
X129294019Y-89724822D01*
X129260534Y-89663499D01*
X129257700Y-89637141D01*
X129257700Y-84673317D01*
X129277385Y-84606278D01*
X129294015Y-84585640D01*
X129625178Y-84254476D01*
X129686499Y-84220993D01*
X129698955Y-84218941D01*
X129762461Y-84211786D01*
X129916775Y-84157789D01*
X130055204Y-84070808D01*
X130170808Y-83955204D01*
X130257789Y-83816775D01*
X130311786Y-83662461D01*
X130311787Y-83662455D01*
X130330091Y-83500003D01*
X130330091Y-83500001D01*
X130329593Y-83495580D01*
X130341650Y-83426758D01*
X130389001Y-83375380D01*
X130452814Y-83357700D01*
X133076682Y-83357700D01*
X133143721Y-83377385D01*
X133164363Y-83394019D01*
X133192917Y-83422573D01*
X133226402Y-83483896D01*
X133228456Y-83524137D01*
X133219909Y-83599997D01*
X133219909Y-83600003D01*
X133238212Y-83762455D01*
X133292210Y-83916774D01*
X133347775Y-84005204D01*
X133379192Y-84055204D01*
X133494796Y-84170808D01*
X133633225Y-84257789D01*
X133787539Y-84311786D01*
X133787542Y-84311786D01*
X133787544Y-84311787D01*
X133949996Y-84330091D01*
X133950000Y-84330091D01*
X133950004Y-84330091D01*
X134112455Y-84311787D01*
X134112456Y-84311786D01*
X134112461Y-84311786D01*
X134266775Y-84257789D01*
X134405204Y-84170808D01*
X134439147Y-84136864D01*
X134500467Y-84103380D01*
X134570159Y-84108364D01*
X134592800Y-84119553D01*
X134594793Y-84120805D01*
X134594796Y-84120808D01*
X134733225Y-84207789D01*
X134887539Y-84261786D01*
X134887542Y-84261786D01*
X134887544Y-84261787D01*
X135049996Y-84280091D01*
X135050000Y-84280091D01*
X135050004Y-84280091D01*
X135212455Y-84261787D01*
X135212456Y-84261786D01*
X135212461Y-84261786D01*
X135366775Y-84207789D01*
X135505204Y-84120808D01*
X135620808Y-84005204D01*
X135707789Y-83866775D01*
X135761786Y-83712461D01*
X135761787Y-83712455D01*
X135780091Y-83550003D01*
X135780091Y-83549996D01*
X135761787Y-83387544D01*
X135761786Y-83387542D01*
X135761786Y-83387539D01*
X135707789Y-83233225D01*
X135650011Y-83141272D01*
X135631011Y-83074036D01*
X135651379Y-83007200D01*
X135704646Y-82961986D01*
X135755005Y-82951300D01*
X139230707Y-82951300D01*
X139230707Y-82954357D01*
G37*
G04 #@! TD.AperFunction*
G04 #@! TA.AperFunction,Conductor*
G36*
X126951025Y-84218939D02*
G01*
X127015439Y-84246006D01*
X127024822Y-84254478D01*
X127212381Y-84442037D01*
X127245866Y-84503360D01*
X127248700Y-84529718D01*
X127248700Y-100495546D01*
X127229015Y-100562585D01*
X127212381Y-100583227D01*
X120783227Y-107012381D01*
X120721904Y-107045866D01*
X120695546Y-107048700D01*
X117702069Y-107048700D01*
X117635030Y-107029015D01*
X117589275Y-106976211D01*
X117579331Y-106907053D01*
X117600494Y-106853577D01*
X117664032Y-106762834D01*
X117664031Y-106762834D01*
X117664035Y-106762830D01*
X117763903Y-106548663D01*
X117825063Y-106320408D01*
X117845659Y-106085000D01*
X117825063Y-105849592D01*
X117763903Y-105621337D01*
X117664035Y-105407171D01*
X117662484Y-105404955D01*
X117528494Y-105213597D01*
X117361402Y-105046506D01*
X117361396Y-105046501D01*
X117175842Y-104916575D01*
X117132217Y-104861998D01*
X117125023Y-104792500D01*
X117156546Y-104730145D01*
X117175842Y-104713425D01*
X117277139Y-104642496D01*
X117361401Y-104583495D01*
X117528495Y-104416401D01*
X117664035Y-104222830D01*
X117763903Y-104008663D01*
X117825063Y-103780408D01*
X117845659Y-103545000D01*
X117825063Y-103309592D01*
X117763903Y-103081337D01*
X117664035Y-102867171D01*
X117658425Y-102859158D01*
X117528494Y-102673597D01*
X117361402Y-102506506D01*
X117361396Y-102506501D01*
X117175842Y-102376575D01*
X117132217Y-102321998D01*
X117125023Y-102252500D01*
X117156546Y-102190145D01*
X117175842Y-102173425D01*
X117198026Y-102157891D01*
X117361401Y-102043495D01*
X117528495Y-101876401D01*
X117664035Y-101682830D01*
X117763903Y-101468663D01*
X117825063Y-101240408D01*
X117845659Y-101005000D01*
X117845116Y-100998799D01*
X117825063Y-100769596D01*
X117825063Y-100769592D01*
X117768274Y-100557649D01*
X117763905Y-100541344D01*
X117763904Y-100541343D01*
X117763903Y-100541337D01*
X117664035Y-100327171D01*
X117658425Y-100319158D01*
X117528494Y-100133597D01*
X117361402Y-99966506D01*
X117361396Y-99966501D01*
X117175842Y-99836575D01*
X117132217Y-99781998D01*
X117125023Y-99712500D01*
X117156546Y-99650145D01*
X117175842Y-99633425D01*
X117227635Y-99597159D01*
X117361401Y-99503495D01*
X117528495Y-99336401D01*
X117664035Y-99142830D01*
X117763903Y-98928663D01*
X117825063Y-98700408D01*
X117845659Y-98465000D01*
X117825063Y-98229592D01*
X117763903Y-98001337D01*
X117664035Y-97787171D01*
X117658425Y-97779158D01*
X117528494Y-97593597D01*
X117361402Y-97426506D01*
X117361396Y-97426501D01*
X117175842Y-97296575D01*
X117132217Y-97241998D01*
X117125023Y-97172500D01*
X117156546Y-97110145D01*
X117175842Y-97093425D01*
X117302070Y-97005039D01*
X117361401Y-96963495D01*
X117528495Y-96796401D01*
X117664035Y-96602830D01*
X117763903Y-96388663D01*
X117825063Y-96160408D01*
X117845659Y-95925000D01*
X117825063Y-95689592D01*
X117763903Y-95461337D01*
X117664035Y-95247171D01*
X117620301Y-95184711D01*
X117528494Y-95053597D01*
X117361261Y-94886364D01*
X117327776Y-94825041D01*
X117332760Y-94755349D01*
X117361261Y-94711002D01*
X121916724Y-90155539D01*
X126641150Y-85431114D01*
X126713730Y-85305402D01*
X126751300Y-85165188D01*
X126751300Y-85020028D01*
X126751300Y-84335191D01*
X126770985Y-84268152D01*
X126823789Y-84222397D01*
X126889182Y-84211971D01*
X126951025Y-84218939D01*
G37*
G04 #@! TD.AperFunction*
G04 #@! TA.AperFunction,Conductor*
G36*
X158574953Y-94070985D02*
G01*
X158595595Y-94087619D01*
X158609181Y-94101205D01*
X158642666Y-94162528D01*
X158645500Y-94188886D01*
X158645500Y-94440000D01*
X158625815Y-94507039D01*
X158573011Y-94552794D01*
X158521500Y-94564000D01*
X158439174Y-94564000D01*
X158372135Y-94544315D01*
X158326380Y-94491511D01*
X158315174Y-94440000D01*
X158315174Y-94381629D01*
X158315173Y-94381623D01*
X158308766Y-94322016D01*
X158270207Y-94218633D01*
X158265223Y-94148941D01*
X158298708Y-94087618D01*
X158360032Y-94054134D01*
X158386389Y-94051300D01*
X158507914Y-94051300D01*
X158574953Y-94070985D01*
G37*
G04 #@! TD.AperFunction*
G04 #@! TA.AperFunction,Conductor*
G36*
X121471496Y-79169851D02*
G01*
X121532728Y-79205204D01*
X121553038Y-79216930D01*
X121693251Y-79254500D01*
X121693252Y-79254500D01*
X121770500Y-79254500D01*
X121837539Y-79274185D01*
X121883294Y-79326989D01*
X121894500Y-79378500D01*
X121894500Y-79851190D01*
X121894501Y-79851215D01*
X121897423Y-79888354D01*
X121897423Y-79888357D01*
X121897424Y-79888358D01*
X121905843Y-79917335D01*
X121943630Y-80047400D01*
X122027934Y-80189950D01*
X122027941Y-80189959D01*
X122145040Y-80307058D01*
X122145044Y-80307061D01*
X122145046Y-80307063D01*
X122287600Y-80391370D01*
X122317305Y-80400000D01*
X122446637Y-80437575D01*
X122446640Y-80437575D01*
X122446642Y-80437576D01*
X122483797Y-80440500D01*
X122616202Y-80440499D01*
X122616213Y-80440498D01*
X122616216Y-80440498D01*
X122627373Y-80439620D01*
X122653358Y-80437576D01*
X122765408Y-80405022D01*
X122834592Y-80405022D01*
X122946642Y-80437576D01*
X122983797Y-80440500D01*
X123063657Y-80440499D01*
X123130696Y-80460183D01*
X123176452Y-80512986D01*
X123186878Y-80550612D01*
X123188212Y-80562456D01*
X123242211Y-80716777D01*
X123244582Y-80721700D01*
X123255933Y-80790641D01*
X123228210Y-80854776D01*
X123170214Y-80893740D01*
X123132861Y-80899500D01*
X119677486Y-80899500D01*
X119610447Y-80879815D01*
X119589805Y-80863181D01*
X119133804Y-80407180D01*
X119100319Y-80345857D01*
X119105303Y-80276165D01*
X119147175Y-80220232D01*
X119212639Y-80195815D01*
X119221461Y-80195499D01*
X120832872Y-80195499D01*
X120892483Y-80189091D01*
X121027331Y-80138796D01*
X121142546Y-80052546D01*
X121228796Y-79937331D01*
X121279091Y-79802483D01*
X121285500Y-79742873D01*
X121285499Y-79277238D01*
X121305183Y-79210201D01*
X121357987Y-79164446D01*
X121427146Y-79154502D01*
X121471496Y-79169851D01*
G37*
G04 #@! TD.AperFunction*
G04 #@! TA.AperFunction,Conductor*
G36*
X135729353Y-73650385D02*
G01*
X135749995Y-73667019D01*
X137421081Y-75338105D01*
X137454566Y-75399428D01*
X137449582Y-75469120D01*
X137407710Y-75525053D01*
X137374355Y-75542826D01*
X137325464Y-75559935D01*
X137240954Y-75589506D01*
X137171175Y-75593067D01*
X137159046Y-75589506D01*
X137012455Y-75538212D01*
X136850004Y-75519909D01*
X136849996Y-75519909D01*
X136687544Y-75538212D01*
X136533223Y-75592211D01*
X136515968Y-75603053D01*
X136448731Y-75622051D01*
X136384032Y-75603053D01*
X136366776Y-75592211D01*
X136212455Y-75538212D01*
X136050004Y-75519909D01*
X136049996Y-75519909D01*
X135887544Y-75538212D01*
X135733225Y-75592210D01*
X135594795Y-75679192D01*
X135479192Y-75794795D01*
X135474849Y-75800242D01*
X135473558Y-75799212D01*
X135427658Y-75839812D01*
X135358605Y-75850459D01*
X135294756Y-75822084D01*
X135275552Y-75799921D01*
X135275151Y-75800242D01*
X135270807Y-75794795D01*
X135155204Y-75679192D01*
X135016774Y-75592210D01*
X134862455Y-75538212D01*
X134700004Y-75519909D01*
X134699996Y-75519909D01*
X134537540Y-75538213D01*
X134537539Y-75538213D01*
X134475460Y-75559935D01*
X134405681Y-75563496D01*
X134393553Y-75559935D01*
X134262932Y-75514229D01*
X134100481Y-75495926D01*
X134100473Y-75495926D01*
X133938021Y-75514229D01*
X133783701Y-75568227D01*
X133684626Y-75630481D01*
X133617389Y-75649481D01*
X133552682Y-75630481D01*
X133491774Y-75592210D01*
X133337455Y-75538212D01*
X133175004Y-75519909D01*
X133174996Y-75519909D01*
X133012544Y-75538212D01*
X132878454Y-75585132D01*
X132808675Y-75588693D01*
X132796546Y-75585132D01*
X132662455Y-75538212D01*
X132500004Y-75519909D01*
X132499996Y-75519909D01*
X132337544Y-75538212D01*
X132183225Y-75592210D01*
X132044795Y-75679192D01*
X131929192Y-75794795D01*
X131842210Y-75933225D01*
X131788213Y-76087543D01*
X131787062Y-76097755D01*
X131759991Y-76162168D01*
X131702394Y-76201720D01*
X131654115Y-76207483D01*
X131616204Y-76204500D01*
X131483809Y-76204500D01*
X131483783Y-76204501D01*
X131446644Y-76207423D01*
X131334593Y-76239976D01*
X131265406Y-76239976D01*
X131195651Y-76219711D01*
X131136765Y-76182105D01*
X131113203Y-76141589D01*
X131111786Y-76137539D01*
X131057789Y-75983225D01*
X130970808Y-75844796D01*
X130855204Y-75729192D01*
X130799001Y-75693877D01*
X130716774Y-75642210D01*
X130562455Y-75588212D01*
X130400004Y-75569909D01*
X130399996Y-75569909D01*
X130237540Y-75588213D01*
X130237539Y-75588213D01*
X130211267Y-75597406D01*
X130141488Y-75600967D01*
X130122523Y-75594222D01*
X129962455Y-75538212D01*
X129800004Y-75519909D01*
X129799996Y-75519909D01*
X129637544Y-75538212D01*
X129483225Y-75592210D01*
X129344795Y-75679192D01*
X129310852Y-75713135D01*
X129249529Y-75746620D01*
X129179837Y-75741634D01*
X129157199Y-75730446D01*
X129155205Y-75729193D01*
X129155204Y-75729192D01*
X129075001Y-75678797D01*
X129016776Y-75642211D01*
X128862455Y-75588212D01*
X128700004Y-75569909D01*
X128699996Y-75569909D01*
X128537544Y-75588212D01*
X128390954Y-75639506D01*
X128321175Y-75643067D01*
X128309046Y-75639506D01*
X128162455Y-75588212D01*
X128000004Y-75569909D01*
X127999996Y-75569909D01*
X127837544Y-75588212D01*
X127683225Y-75642210D01*
X127569257Y-75713822D01*
X127502021Y-75732822D01*
X127437313Y-75713822D01*
X127366774Y-75669499D01*
X127229199Y-75621360D01*
X127212461Y-75615503D01*
X127212460Y-75615502D01*
X127212455Y-75615501D01*
X127050004Y-75597198D01*
X127049996Y-75597198D01*
X126887544Y-75615501D01*
X126726652Y-75671800D01*
X126726090Y-75670195D01*
X126665795Y-75680119D01*
X126639988Y-75674090D01*
X126608543Y-75663087D01*
X126537461Y-75638214D01*
X126537460Y-75638213D01*
X126537455Y-75638212D01*
X126375004Y-75619909D01*
X126374996Y-75619909D01*
X126212544Y-75638212D01*
X126058225Y-75692210D01*
X125919795Y-75779192D01*
X125804192Y-75894795D01*
X125717211Y-76033224D01*
X125686338Y-76121455D01*
X125645616Y-76178231D01*
X125580663Y-76203978D01*
X125569297Y-76204500D01*
X125483809Y-76204500D01*
X125483783Y-76204501D01*
X125446644Y-76207423D01*
X125334593Y-76239976D01*
X125265407Y-76239976D01*
X125188733Y-76217701D01*
X125153358Y-76207424D01*
X125153355Y-76207423D01*
X125153352Y-76207423D01*
X125116210Y-76204500D01*
X124985780Y-76204500D01*
X124918741Y-76184815D01*
X124872986Y-76132011D01*
X124862559Y-76094376D01*
X124861789Y-76087541D01*
X124861789Y-76087539D01*
X124807792Y-75933225D01*
X124720811Y-75794796D01*
X124605207Y-75679192D01*
X124599645Y-75675697D01*
X124466777Y-75592210D01*
X124312458Y-75538212D01*
X124150007Y-75519909D01*
X124149999Y-75519909D01*
X123987543Y-75538213D01*
X123987542Y-75538213D01*
X123890954Y-75572010D01*
X123821175Y-75575571D01*
X123809047Y-75572010D01*
X123712463Y-75538214D01*
X123712455Y-75538212D01*
X123550004Y-75519909D01*
X123549996Y-75519909D01*
X123387544Y-75538212D01*
X123233222Y-75592211D01*
X123217071Y-75602360D01*
X123149834Y-75621360D01*
X123082999Y-75600992D01*
X123037786Y-75547723D01*
X123027100Y-75497366D01*
X123027100Y-74703222D01*
X123027100Y-74703220D01*
X122989530Y-74563006D01*
X122952690Y-74499198D01*
X122916952Y-74437297D01*
X122916947Y-74437291D01*
X122322037Y-73842381D01*
X122288552Y-73781058D01*
X122293536Y-73711366D01*
X122335408Y-73655433D01*
X122400872Y-73631016D01*
X122409718Y-73630700D01*
X135662314Y-73630700D01*
X135729353Y-73650385D01*
G37*
G04 #@! TD.AperFunction*
M02*
