M48
; DRILL file {KiCad 9.0.5} date 2025-10-28T18:45:23-0700
; FORMAT={-:-/ absolute / metric / decimal}
; #@! TF.CreationDate,2025-10-28T18:45:23-07:00
; #@! TF.GenerationSoftware,Kicad,Pcbnew,9.0.5
; #@! TF.FileFunction,Plated,1,4,PTH
FMAT,2
METRIC
; #@! TA.AperFunction,Plated,PTH,ViaDrill
T1C0.250
; #@! TA.AperFunction,Plated,PTH,ViaDrill
T2C0.300
; #@! TA.AperFunction,Plated,PTH,ComponentDrill
T3C1.000
%
G90
G05
T1
X123.55Y-76.25
X123.9Y-80.4
X124.15Y-76.25
X124.55Y-80.4
X127.05Y-83.5
X128.0Y-76.3
X128.3Y-83.5
X128.3Y-90.4
X128.55Y-80.25
X128.7Y-76.3
X128.95Y-83.5
X129.05Y-81.025
X129.6Y-83.5
X129.8Y-76.25
X130.025Y-80.325
X130.4Y-76.3
X130.875Y-80.9
X131.6Y-78.75
X132.05Y-80.25
X132.5Y-76.25
X132.954Y-81.016
X133.175Y-76.25
X133.65Y-80.35
X133.95Y-83.6
X134.1Y-76.226
X134.7Y-76.25
X135.05Y-81.1
X135.05Y-83.55
X136.05Y-76.25
X136.85Y-76.25
X139.05Y-80.35
X158.458Y-87.218
T2
X120.125Y-80.925
X120.825Y-92.225
X120.85Y-104.0
X121.0Y-113.375
X128.225Y-103.975
X128.325Y-113.45
X128.7Y-92.3
X130.5Y-74.55
X134.125Y-103.875
X134.575Y-113.525
X134.75Y-92.3
X140.35Y-81.85
X142.425Y-113.35
X146.75Y-74.6
X155.975Y-74.625
T3
X113.95Y-75.605
X113.95Y-78.145
X113.95Y-80.685
X113.95Y-83.225
X113.95Y-85.765
X113.95Y-88.305
X113.95Y-90.845
X113.95Y-93.385
X113.95Y-95.925
X113.95Y-98.465
X113.95Y-101.005
X113.95Y-103.545
X113.95Y-106.085
X113.95Y-108.625
X113.95Y-111.165
X113.95Y-113.705
X113.95Y-116.245
X113.95Y-118.785
X113.95Y-121.325
X113.95Y-123.865
X116.49Y-75.605
X116.49Y-78.145
X116.49Y-80.685
X116.49Y-83.225
X116.49Y-85.765
X116.49Y-88.305
X116.49Y-90.845
X116.49Y-93.385
X116.49Y-95.925
X116.49Y-98.465
X116.49Y-101.005
X116.49Y-103.545
X116.49Y-106.085
X116.49Y-108.625
X116.49Y-111.165
X116.49Y-113.705
X116.49Y-116.245
X116.49Y-118.785
X116.49Y-121.325
X116.49Y-123.865
T3
G00X121.8Y-124.25
M15
G01X121.8Y-125.75
M16
G05
G00X125.3Y-118.0
M15
G01X127.3Y-118.0
M16
G05
G00X125.65Y-124.0
M15
G01X126.95Y-124.0
M16
G05
G00X130.8Y-124.25
M15
G01X130.8Y-125.75
M16
G05
G00X134.9Y-124.2
M15
G01X134.9Y-125.7
M16
G05
G00X138.4Y-117.95
M15
G01X140.4Y-117.95
M16
G05
G00X138.75Y-123.95
M15
G01X140.05Y-123.95
M16
G05
G00X143.9Y-124.2
M15
G01X143.9Y-125.7
M16
G05
G00X148.15Y-124.2
M15
G01X148.15Y-125.7
M16
G05
G00X151.65Y-117.95
M15
G01X153.65Y-117.95
M16
G05
G00X152.0Y-123.95
M15
G01X153.3Y-123.95
M16
G05
G00X157.15Y-124.2
M15
G01X157.15Y-125.7
M16
G05
M30
